<svg xmlns="http://www.w3.org/2000/svg" viewBox="10 84 980 532">
      <g transform="scale(1 -1) translate(0 -700)">
        <path d="M692 84Q689 84 686 84L614 85H485Q480 85 477.5 88.0Q475 91 475 96L566 608Q567 612 569.5 614.0Q572 616 575 616H782Q818 616 854 606Q913 589 947 548Q1007 478 984 348Q964 235 897 168Q848 117 776 96Q733 84 692 84ZM496 104H614L692 103Q730 103 770 115Q837 135 884 182Q946 245 965 352Q986 471 933 535Q901 573 845 588Q813 597 782 597H583ZM280 84H20Q15 84 12.5 87.5Q10 91 10 95L33 223Q34 227 36.5 229.0Q39 231 42 231H253Q270 231 284.5 243.5Q299 256 302 273L307 302H58Q55 302 51.5 306.0Q48 310 49 314L62 391Q64 397 68 398L257 469H88Q83 469 80.5 472.0Q78 475 78 480L101 609Q102 612 104.5 614.0Q107 616 110 616H499Q505 616 507.5 613.0Q510 610 508 605L486 477Q484 471 480 470L293 399H461Q464 399 468.0 395.0Q472 391 470 388L441 220Q434 183 410.0 152.0Q386 121 351.5 102.5Q317 84 280 84ZM31 103H280Q313 103 343.5 119.0Q374 135 395.0 162.5Q416 190 422 223L449 380H240Q237 380 234.5 382.0Q232 384 231.0 387.5Q230 391 231.5 394.0Q233 397 237 398L468 486L488 597H118L99 488H310Q314 488 316.5 486.0Q319 484 319.5 480.5Q320 477 318.5 474.0Q317 471 313 470L80 382L70 321H319Q323 321 326.5 318.0Q330 315 328 310L321 270Q316 246 296.5 229.0Q277 212 253 212H50ZM659 213Q648 213 637 214H635Q631 214 629.0 217.0Q627 220 627 225L672 480Q674 487 680 487H681Q714 490 746 485Q807 477 835 443Q865 407 855 349Q841 269 768 235Q722 213 659 213ZM648 232Q654 232 660 232Q716 232 758 251Q824 281 836 352Q845 402 821 430Q799 456 751 465Q723 470 690 469Z" />
      </g>
    </svg>