<svg xmlns="http://www.w3.org/2000/svg" viewBox="10 -34 980 768">
      <g transform="scale(1 -1) translate(0 -700)">
        <path d="M907 566Q901 570 898 570L761 557L756 555L750 557L614 570Q609 570 605.0 566.5Q601 563 601 557V431Q601 425 604.5 421.5Q608 418 614 418L756 429Q757 428 761 428L898 418Q903 418 907 421Q911 427 911 431V557Q911 562 907 566ZM749 441 614 431V557L749 543ZM898 557V493H829V550ZM826 549V493H762V543ZM762 490H826V436L762 441ZM829 436V489H898V431ZM628 499Q630 499 632.0 497.0Q634 495 634.0 491.5Q634 488 632.0 486.0Q630 484 628 484Q622 484 622 491Q621 495 623.0 497.0Q625 499 628 499ZM988 732Q986 734 983 734L500 659L17 734Q14 734 12.0 732.0Q10 730 10 727V225Q10 221 13 219L500 -34L987 219Q990 221 990 225V727Q990 730 988 732ZM25 718 492 645V316L376 296L375 580Q375 587 369 587L214 603Q212 603 209.0 601.0Q206 599 206 596V266L25 235ZM239 563Q238 563 237.0 562.0Q236 561 236 560V312Q236 309 239 309L361 295V293L220 269V588L344 576ZM361 570V302L243 316L244 556ZM95 194 43 221 500 300 532 295 99 191ZM105 188 543 293 596 283 163 158ZM169 155 606 282 660 272 229 124ZM234 121 669 271 733 260 296 89ZM301 86 742 258 810 246 362 54ZM367 52 818 245 879 234 431 18ZM500 -17 436 16 887 233 957 221ZM975 235 509 316V645L975 718ZM250 432Q250 435 251.5 437.5Q253 440 254 439Q259 439 258.0 430.5Q257 422 254.5 422.5Q252 423 251.0 425.0Q250 427 250 430Z" />
      </g>
    </svg>