<svg xmlns="http://www.w3.org/2000/svg" viewBox="0 -100 1000 900">
      <g transform="scale(1 -1) translate(0 -700)">
        <path d="M426 800Q446 800 446 780V-80Q446 -100 426 -100H380Q360 -100 360 -80V360H184Q168 360 156 366Q144 368 130 378L10 460Q0 466 0.0 476.0Q0 486 10 492L130 574Q144 584 156 586Q164 590 184 590H360V780Q360 800 380 800ZM990 592Q1000 586 1000.0 576.0Q1000 566 990 560L872 478Q850 466 846 466Q832 460 818 460H516L476 690H818Q836 690 846.0 686.0Q856 682 872 674Z" />
      </g>
    </svg>