<svg xmlns="http://www.w3.org/2000/svg" viewBox="0 -129 901 960">
      <g transform="scale(1 -1) translate(0 -702)">
        <path d="M885 234Q905 218 901.0 201.0Q897 184 873 178L795 156Q771 150 755.0 128.0Q739 106 741 80L745 -2Q747 -26 731.0 -36.0Q715 -46 693 -36L607 8Q585 20 560.0 12.0Q535 4 525 -18L479 -106Q467 -128 450.0 -129.0Q433 -130 417 -110L367 -32Q333 16 279 -12L157 -82Q135 -96 125.0 -88.0Q115 -80 123 -56L177 108Q185 132 173.0 152.0Q161 172 137 174L31 186Q7 190 2.0 204.0Q-3 218 17 234L103 310Q123 326 123.0 351.0Q123 376 103 392L17 468Q-3 484 1.0 501.0Q5 518 29 524L107 546Q131 552 148.0 574.0Q165 596 163 622L157 704Q157 730 172.0 740.0Q187 750 209 740L289 702Q313 692 338.0 700.0Q363 708 375 730L421 810Q433 832 451.0 831.0Q469 830 481 808L531 722Q543 700 566.0 693.0Q589 686 611 700L747 784Q769 798 777.0 790.0Q785 782 777 758L717 588Q707 566 719.0 547.0Q731 528 757 526L871 514Q897 512 901.0 498.0Q905 484 885 468L799 392Q781 376 781.0 351.0Q781 326 799 310ZM501 142V246H401V142ZM501 302V562H401V302Z" />
      </g>
    </svg>