<svg xmlns="http://www.w3.org/2000/svg" viewBox="6 -150 702 1000">
      <g transform="scale(1 -1) translate(0 -700)">
        <path d="M532 639 468 456 534 444Q626 696 626 733Q626 765 604 765Q573 765 532 639ZM365 256 383 207Q404 230 423 244L383 251Q361 255 365 256ZM202 756Q202 701 291 465Q300 471 318 471Q327 471 360 468L292 664Q251 786 224 786Q213 786 208.0 777.0Q203 768 202 756ZM158 332Q158 312 187.0 266.0Q216 220 252.0 180.0Q288 140 308 141Q316 141 322.0 149.0Q328 157 329 164Q329 177 311 221Q304 238 293.0 261.0Q282 284 267.0 310.0Q252 336 232.0 356.0Q212 376 198 373Q186 373 172.0 358.0Q158 343 158 332ZM70 145Q70 122 84 87Q117 6 186.0 -40.0Q255 -86 343 -85Q470 -85 555.5 9.5Q641 104 641 248V285Q641 298 634.0 320.0Q627 342 617 351Q586 379 499.0 393.0Q412 407 348 408Q328 408 321 402Q314 399 314.0 381.0Q314 363 326.0 349.0Q338 335 357.0 327.0Q376 319 400.0 313.0Q424 307 449.0 307.0Q474 307 497.0 305.0Q520 303 536 305H549Q562 305 570.5 294.5Q579 284 582 264Q566 248 528 233Q494 221 476 208Q440 182 416.0 144.0Q392 106 391 68Q391 50 401.0 18.0Q411 -14 411 -31L410 -37Q407 -44 407 -45Q331 -40 326 75Q321 74 303 74Q304 70 304 63Q304 33 282.0 13.0Q260 -7 229 -8Q183 -8 136.0 36.0Q89 80 89 125Q89 144 107 162L141 120Q184 62 215 62Q222 62 230.0 66.0Q238 70 238 78Q238 97 189.0 159.0Q140 221 124 221Q100 221 85.0 196.0Q70 171 70 145ZM6 140Q6 197 30.0 231.0Q54 265 106 280Q90 322 90 338Q90 373 124.0 407.0Q158 441 193 441Q209 441 232 433Q141 690 141 749Q141 794 164.0 822.0Q187 850 230 850Q303 850 411 526L416 513L456 623Q467 654 486.0 695.0Q505 736 522.0 763.0Q539 790 562.0 812.0Q585 834 604 832Q644 832 667.0 804.0Q690 776 690 736Q690 676 601 429Q635 421 657.0 404.0Q679 387 690.0 360.0Q701 333 704.0 308.0Q707 283 708 246Q708 163 682.0 90.0Q656 17 608.0 -36.0Q560 -89 491.0 -119.0Q422 -149 335 -150Q273 -150 211 -127Q128 -95 67.0 -20.0Q6 55 6 140Z" />
      </g>
    </svg>