<svg xmlns="http://www.w3.org/2000/svg" viewBox="10 -131 980 962">
      <g transform="scale(1 -1) translate(0 -700)">
        <path d="M112 785V738H653L654 677V616L665 614V676L666 737L782 738H898V-131H944L990 -130V830L551 831H112ZM645 591Q641 588 640.0 584.0Q639 580 638 571Q635 556 631.0 552.5Q627 549 625 535Q624 519 613 499Q599 473 600.5 454.0Q602 435 618 420Q637 401 661.5 402.5Q686 404 705 425Q730 452 705 501Q694 519 693.0 533.5Q692 548 687.0 554.0Q682 560 682 567Q682 571 679 581V583Q676 592 665.0 594.5Q654 597 645 591ZM11 153V-130L353 -131H694V93H486V264H279V436H10Z" />
      </g>
    </svg>