<svg xmlns="http://www.w3.org/2000/svg" viewBox="0 -150 1000 1000">
      <g transform="scale(1 -1) translate(0 -700)">
        <path d="M929 243V136Q929 41 857 -24V-132Q857 -140 852.0 -145.0Q847 -150 839 -150H804Q796 -150 791.0 -145.0Q786 -140 786 -132V-66Q751 -79 714 -79H286Q249 -79 214 -66V-128Q214 -137 209.0 -144.0Q204 -151 196 -150H161Q154 -150 148.0 -144.0Q142 -138 143 -128V-24Q71 41 71 136V243ZM393 475Q393 467 388.0 462.0Q383 457 375.0 457.0Q367 457 362.0 462.0Q357 467 357.0 475.0Q357 483 362.0 488.0Q367 493 375.0 493.0Q383 493 388.0 488.0Q393 483 393 475ZM429 511Q429 503 424.0 498.0Q419 493 411.0 493.0Q403 493 398.0 498.0Q393 503 393.0 511.0Q393 519 398.0 524.0Q403 529 411.0 529.0Q419 529 424.0 524.0Q429 519 429 511ZM393 546Q393 539 388.0 534.0Q383 529 375.0 529.0Q367 529 362.0 534.0Q357 539 357.0 546.0Q357 553 362.0 559.0Q367 565 375.0 564.0Q383 563 388.0 559.0Q393 555 393 546ZM464 546Q464 539 459.0 534.0Q454 529 446.0 529.0Q438 529 434.0 534.0Q430 539 429.0 546.0Q428 553 434.0 559.0Q440 565 446.0 564.0Q452 563 459.0 559.0Q466 555 464 546ZM429 582Q429 574 424.0 569.0Q419 564 411.0 564.0Q403 564 398.0 569.0Q393 574 393.0 582.0Q393 590 398.0 595.0Q403 600 411.0 600.0Q419 600 424.0 595.0Q429 590 429 582ZM393 618Q393 610 388.0 605.0Q383 600 375.0 600.0Q367 600 362.0 605.0Q357 610 357.0 618.0Q357 626 362.0 631.0Q367 636 375.0 636.0Q383 636 388.0 631.0Q393 626 393 618ZM1000 332V296Q1000 289 995.0 284.0Q990 279 982 279H18Q10 279 5.0 284.0Q0 289 0 296V332Q0 340 5.0 345.0Q10 350 18 350H71V707Q71 766 113.0 808.0Q155 850 215.0 850.0Q275 850 317 807Q343 817 372.0 813.0Q401 809 424 791L436 804Q442 810 448 804L472 780Q478 774 472 768L296 593Q290 587 284 593L261 616Q255 622 261 629L273 641Q253 666 250.0 699.0Q247 732 263 759Q243 779 214.0 779.0Q185 779 164.0 758.0Q143 737 143 707V350H982Q990 350 995.0 345.0Q1000 340 1000 332ZM500 582Q500 574 495.0 569.0Q490 564 482.0 564.0Q474 564 469.0 569.0Q464 574 464.0 582.0Q464 590 469.0 595.0Q474 600 482.0 600.0Q490 600 495.0 595.0Q500 590 500 582ZM464 618Q464 610 459.0 605.0Q454 600 446.0 600.0Q438 600 434.0 605.0Q430 610 429.0 618.0Q428 626 434.0 631.0Q440 636 446.0 636.0Q452 636 459.0 631.0Q466 626 464 618ZM429 654Q429 646 424.0 641.0Q419 636 411.0 636.0Q403 636 398.0 641.0Q393 646 393.0 654.0Q393 662 398.0 666.0Q403 670 411.0 671.0Q419 672 424.0 666.0Q429 660 429 654ZM536 618Q536 610 531.0 605.0Q526 600 518.0 600.0Q510 600 505.0 605.0Q500 610 500.0 618.0Q500 626 505.0 631.0Q510 636 518.0 636.0Q526 636 531.0 631.0Q536 626 536 618ZM500 654Q500 646 495.0 641.0Q490 636 482.0 636.0Q474 636 469.0 641.0Q464 646 464.0 654.0Q464 662 469.0 666.0Q474 670 482.0 671.0Q490 672 495.0 666.0Q500 660 500 654ZM464 689Q464 682 459.0 677.0Q454 672 446.0 671.0Q438 670 434.0 677.0Q430 684 429.0 689.0Q428 694 434.0 702.0Q440 710 446.0 707.0Q452 704 459.0 702.0Q466 700 464 689ZM571 654Q571 646 566.0 641.0Q561 636 554.0 636.0Q547 636 541.0 641.0Q535 646 536.0 654.0Q537 662 541.0 666.0Q545 670 554.0 671.0Q563 672 566.0 666.0Q569 660 571 654ZM536 689Q536 682 531.0 677.0Q526 672 518.0 671.0Q510 670 505.0 677.0Q500 684 500.0 689.0Q500 694 505.0 702.0Q510 710 518 707L531 702Q536 700 536 689ZM607 689Q607 682 602.0 677.0Q597 672 589.0 671.0Q581 670 577.0 677.0Q573 684 571.0 689.0Q569 694 577.0 702.0Q585 710 589.0 707.0Q593 704 602.0 702.0Q611 700 607 689Z" />
      </g>
    </svg>