<svg xmlns="http://www.w3.org/2000/svg" viewBox="10 -100 980 901">
      <g transform="scale(1 -1) translate(0 -701)">
        <path d="M783 796Q762 787 749 774Q746 771 743.0 771.0Q740 771 730 774Q707 781 680.5 774.0Q654 767 635 749Q627 742 625.0 738.0Q623 734 623 726V715L719 620Q728 611 731.5 609.0Q735 607 741.5 607.0Q748 607 752.0 609.0Q756 611 763 618Q777 632 786.0 657.0Q795 682 792 699Q790 712 787.0 721.5Q784 731 784.0 733.5Q784 736 788 739Q803 751 823.0 747.5Q843 744 853 728Q856 724 857 715Q858 704 858 668V380H848Q834 380 827.0 367.0Q820 354 827 341Q829 336 837.0 332.0Q845 328 852 328H858V266H25L18 259Q10 250 10.0 239.5Q10 229 17.5 221.5Q25 214 37 214H48L50 194Q61 82 105 22Q115 7 132.0 -9.5Q149 -26 160 -31L170 -36L165 -57Q161 -69 161.0 -74.5Q161 -80 163 -85Q168 -96 180.5 -99.5Q193 -103 203 -96Q210 -89 215 -71L221 -51L229 -53Q242 -56 278.5 -61.0Q315 -66 341 -68Q379 -71 481.0 -71.0Q583 -71 620 -68Q691 -62 737 -54Q755 -50 756 -52L762 -72Q767 -89 774 -96Q784 -103 796.5 -99.5Q809 -96 814 -85Q817 -79 816.0 -73.0Q815 -67 808 -41L807 -39Q805 -34 821 -26Q835 -18 856.5 3.5Q878 25 890 43Q932 107 946 185L950 213L964 214Q973 216 976.5 217.5Q980 219 984 223Q990 231 990.0 240.5Q990 250 985.0 256.5Q980 263 974.5 264.0Q969 265 945 265L913 267L911 727L903 745Q888 776 856 792Q842 800 820.5 801.0Q799 802 783 796ZM720 722Q739 715 739 691Q739 677 737.0 677.0Q735 677 712 700L710 702Q697 716 694.0 719.5Q691 723 694 724Q707 728 720 722ZM897 211Q897 196 887.0 161.5Q877 127 866 106Q860 96 858.0 93.5Q856 91 853 92Q845 94 822 80Q813 74 803.5 74.5Q794 75 782.0 83.0Q770 91 761.0 91.0Q752 91 742 84Q726 74 715.0 74.0Q704 74 689 84Q679 91 670.5 91.0Q662 91 652 84Q638 74 626.0 74.0Q614 74 600 84Q591 91 581.5 91.0Q572 91 559.5 83.0Q547 75 537.5 74.5Q528 74 519 80Q502 91 494.0 91.5Q486 92 473 84Q459 74 448.0 74.0Q437 74 421 84Q411 91 402.5 91.0Q394 91 381.0 83.0Q368 75 358.5 75.0Q349 75 336.0 83.0Q323 91 314.0 91.0Q305 91 295 84Q279 74 268.0 74.0Q257 74 242 84Q232 91 223.5 91.0Q215 91 205 84Q193 76 184.5 74.5Q176 73 166 78Q160 80 150 86L149 87Q148 89 143.5 90.0Q139 91 135 91Q128 92 126.5 94.0Q125 96 120 109Q113 131 106.5 169.5Q100 208 103 213Q103 214 500 214Q768 214 825 214Q897 213 897 211ZM577 688Q573 683 572.5 680.5Q572 678 574 671Q577 662 585.0 660.0Q593 658 600.0 663.0Q607 668 607 678Q607 691 596.0 694.5Q585 698 577 688ZM513 652Q506 644 508.0 635.0Q510 626 518.0 622.0Q526 618 535 624Q541 629 542.0 637.5Q543 646 538.5 651.0Q534 656 525.5 656.0Q517 656 513 652ZM628 638Q623 633 623.0 625.0Q623 617 629.5 612.0Q636 607 642.0 607.0Q648 607 652 613Q662 621 658.0 632.0Q654 643 641 643Q633 643 628 638ZM447 612Q443 608 443.0 601.5Q443 595 447 590Q454 581 463.5 582.5Q473 584 477.0 593.5Q481 603 474 612Q470 617 461.0 617.5Q452 618 447 612ZM576 585Q570 577 573.5 568.0Q577 559 586.0 556.0Q595 553 602 561Q607 565 607.5 574.0Q608 583 602.5 587.5Q597 592 589.0 591.5Q581 591 576 585ZM680 586Q674 581 674.5 573.5Q675 566 681 561Q689 555 692.5 555.0Q696 555 703.0 560.5Q710 566 710.5 573.5Q711 581 706.0 586.5Q701 592 693.5 592.0Q686 592 680 586ZM383 572Q377 564 377 563Q377 559 381.5 553.0Q386 547 390.5 545.0Q395 543 397.5 543.5Q400 544 406.0 547.5Q412 551 413.5 560.0Q415 569 410.0 574.0Q405 579 396.0 578.5Q387 578 383 572ZM525 533Q520 526 520.0 521.0Q520 516 526 510Q535 501 545.5 505.5Q556 510 556.0 523.0Q556 536 544.5 539.5Q533 543 525 533ZM642 521Q636 517 636.0 510.5Q636 504 642.5 497.5Q649 491 655.0 491.0Q661 491 666.5 497.0Q672 503 672 510Q672 521 660.5 525.5Q649 530 642 521ZM473 482Q463 470 473.0 459.5Q483 449 493.5 453.5Q504 458 504.0 471.0Q504 484 492.5 487.5Q481 491 473 482ZM605 458Q599 453 598.5 445.5Q598 438 603.5 432.0Q609 426 616.0 426.0Q623 426 628.5 431.0Q634 436 634.5 443.5Q635 451 630.0 456.5Q625 462 618.0 462.0Q611 462 605 458ZM566 393Q561 387 561.0 378.5Q561 370 567 366Q577 359 586.0 363.5Q595 368 595.0 379.5Q595 391 584.5 396.0Q574 401 566 393Z" />
      </g>
    </svg>