<svg xmlns="http://www.w3.org/2000/svg" viewBox="0 -7 1143 714">
      <g transform="scale(1 -1) translate(0 -700)">
        <path d="M143 279H1107Q1122 279 1132.0 268.0Q1142 257 1143 243V-7H1000V136H143V-7H0V671Q0 686 11.0 697.0Q22 708 36 707H107Q122 707 132.0 697.0Q142 687 143 671ZM464 457Q464 516 422.0 558.0Q380 600 321.0 600.0Q262 600 220.0 558.0Q178 516 179.0 457.0Q180 398 220.0 356.0Q260 314 321.0 314.0Q382 314 422.0 356.0Q462 398 464 457ZM1143 314V350Q1143 439 1080.0 502.0Q1017 565 929 564H536Q521 564 511.0 554.0Q501 544 500 529V314Z" />
      </g>
    </svg>