<svg xmlns="http://www.w3.org/2000/svg" viewBox="36 -150 928 1000">
      <g transform="scale(1 -1) translate(0 -700)">
        <path d="M509 -96Q509 -88 500 -88Q467 -88 443.0 -64.0Q419 -40 420 -7Q420 2 411.0 2.0Q402 2 402 -7Q402 -48 431.0 -77.0Q460 -106 500 -105Q509 -105 509 -96ZM964 64Q964 35 943.0 14.0Q922 -7 893 -7H643Q643 -66 601.0 -108.0Q559 -150 500.0 -150.0Q441 -150 399.0 -108.0Q357 -66 357 -7H107Q78 -7 57.0 14.0Q36 35 36 64Q64 88 87.0 113.0Q110 138 134.0 180.0Q158 222 176.0 269.0Q194 316 203.0 384.0Q212 452 214 529Q214 613 280.0 686.0Q346 759 451 775Q446 785 446 796Q446 819 462.0 834.0Q478 849 500.0 850.0Q522 851 538.0 834.0Q554 817 554 796Q554 785 549 775Q655 759 720.0 686.0Q785 613 786 529Q786 451 797.0 384.0Q808 317 825.0 269.0Q842 221 866.0 180.0Q890 139 914.0 113.0Q938 87 964 64Z" />
      </g>
    </svg>