<svg xmlns="http://www.w3.org/2000/svg" viewBox="8 -150 1127 1000">
      <g transform="scale(1 -1) translate(0 -700)">
        <path d="M580 -96Q580 -88 571 -88Q539 -88 515.0 -64.0Q491 -40 491 -7Q491 2 482.0 2.0Q473 2 473 -7Q473 -48 502.0 -77.0Q531 -106 571 -105Q580 -105 580 -96ZM281 169 770 593Q747 642 696.0 675.0Q645 708 571 707Q520 707 477.0 690.0Q434 673 409.0 645.0Q384 617 371.0 587.0Q358 557 357 529Q357 314 281 169ZM1036 64Q1036 35 1015.0 14.0Q994 -7 964 -7H714Q714 -66 672.0 -108.0Q630 -150 571.0 -150.0Q512 -150 471.0 -108.0Q430 -66 429 -8L512 64H934Q842 169 808 320L869 375Q904 176 1036 64ZM1084 841 1131 788Q1135 782 1135.0 774.0Q1135 766 1129 762L84 -143Q79 -148 71.0 -147.0Q63 -146 59 -141L12 -88Q8 -82 8.0 -74.0Q8 -66 14 -62L118 28Q107 45 107 64Q135 88 158.0 113.0Q181 138 205.0 180.0Q229 222 247.0 269.0Q265 316 275.0 384.0Q285 452 286 529Q286 613 351.0 686.0Q416 759 522 775Q518 785 518 796Q518 819 534.0 834.0Q550 849 571.0 850.0Q592 851 609.0 834.0Q626 817 625 796Q625 785 621 775Q690 765 743.0 729.0Q796 693 825 641L1059 843Q1064 848 1072.0 847.0Q1080 846 1084 841Z" />
      </g>
    </svg>