<svg xmlns="http://www.w3.org/2000/svg" viewBox="0 -7 1286 714">
      <g transform="scale(1 -1) translate(0 -700)">
        <path d="M425 207H250Q228 207 218.0 227.0Q208 247 222 264L327 404Q290 421 250 421Q176 421 124.0 369.0Q72 317 71.0 243.0Q70 169 124.0 117.0Q178 65 250 64Q314 64 363.0 105.0Q412 146 425 207ZM321 279H425Q415 326 383 361ZM589 279 750 493H482L427 419Q486 362 497 279ZM1214 243Q1214 317 1162.0 369.0Q1110 421 1036 421Q1002 421 968 408L1065 263Q1074 250 1071.0 236.0Q1068 222 1056 213Q1047 207 1036 207Q1016 207 1006 223L909 368Q857 315 857.0 242.0Q857 169 910.0 117.0Q963 65 1036.0 64.0Q1109 63 1162.0 117.0Q1215 171 1214 243ZM1286 243Q1286 140 1212.0 66.0Q1138 -8 1036.0 -7.0Q934 -6 859.0 66.0Q784 138 786 243Q786 297 808.0 345.0Q830 393 869 429L833 483L636 222Q626 207 607 207H497Q484 116 414.0 54.0Q344 -8 250 -7Q147 -7 73.0 66.0Q-1 139 0.0 243.0Q1 347 73.0 420.0Q145 493 250 493Q314 493 370 462L446 564H321Q307 564 296.0 575.0Q285 586 286.0 600.0Q287 614 296.0 625.0Q305 636 321 636H536V564H779L731 636H607Q593 636 582.0 646.0Q571 656 571.0 671.0Q571 686 582.0 697.0Q593 708 607 707H750Q768 707 780 692L929 468Q979 493 1036 493Q1139 493 1212.0 420.0Q1285 347 1286 243Z" />
      </g>
    </svg>