<?xml version='1.0' encoding='utf-8'?>
<svg xmlns="http://www.w3.org/2000/svg" version="1.1" x="0px" y="0px" viewBox="0 0 256 256" enable-background="new 0 0 256 256" xml:space="preserve">
<g><g><path fill="#000000" d="M137.6,178.9c-15.5,0-31-5.9-42.7-17.7c-2.4-2.4-2.4-6.4,0-8.8s6.4-2.4,8.8,0c18.7,18.7,49.2,18.7,68,0l47.9-48c18.7-18.7,18.7-49.2,0-67.9c-18.7-18.7-49.2-18.7-68,0l-24,24c-2.4,2.4-6.4,2.4-8.8,0c-2.4-2.4-2.4-6.4,0-8.8l24-24c23.6-23.6,61.9-23.6,85.5,0c23.6,23.6,23.6,61.9,0,85.5l-48,48C168.6,173,153.1,178.9,137.6,178.9L137.6,178.9z M70.5,246c-15.5,0-31-5.9-42.7-17.7C16.3,216.9,10,201.7,10,185.6s6.3-31.3,17.7-42.7l47.9-47.9c11.4-11.4,26.6-17.7,42.7-17.7c16.2,0,31.3,6.3,42.8,17.7c2.4,2.4,2.4,6.4,0,8.8c-2.4,2.4-6.4,2.4-8.8,0c-18.2-18.2-49.8-18.2-68,0l-47.9,47.9c-9.1,9.1-14.1,21.1-14.1,34c0,12.8,5,24.9,14.1,34c18.7,18.7,49.2,18.7,68,0l24-24c2.4-2.4,6.4-2.4,8.8,0c2.4,2.4,2.4,6.4,0,8.8l-24,24C101.4,240.1,86,246,70.5,246L70.5,246z" /></g></g>
</svg>