<svg xmlns="http://www.w3.org/2000/svg" viewBox="0 -79 929 858">
      <g transform="scale(1 -1) translate(0 -700)">
        <path d="M915 583Q937 552 925 511L771 6Q761 -30 729.0 -54.0Q697 -78 660 -79H145Q102 -79 62.0 -49.0Q22 -19 7 25Q-7 62 6 96L7 111Q8 124 10 131Q10 136 8.0 143.0Q6 150 6 154Q7 160 11 166L29 192Q42 213 54.0 243.0Q66 273 71 294Q73 300 71.0 311.0Q69 322 71.0 327.5Q73 333 80 342L90 355Q102 375 113.0 406.0Q124 437 127 457Q128 462 126.0 474.0Q124 486 126 490Q128 497 138 507L151 520Q161 534 174.0 567.0Q187 600 190 621Q190 625 188.0 635.0Q186 645 187.0 649.5Q188 654 192.0 660.0Q196 666 202 673L212 684L221 701Q226 711 229.0 721.0Q232 731 238 741L249 759Q254 767 264.0 772.0Q274 777 284.0 778.0Q294 779 310 775V774Q331 779 338 779H763Q804 779 827.0 747.0Q850 715 837 675L684 169Q664 103 644.0 84.0Q624 65 572 64H87Q72 64 66.0 55.5Q60 47 65 32Q79 -7 146 -7H661Q677 -7 692.0 2.0Q707 11 712 25L879 575Q883 588 882 607Q903 599 915 583ZM321 582Q319 575 322.0 570.0Q325 565 333 564H672Q680 564 687.0 570.0Q694 576 696 582L708 618Q710 625 707.0 630.0Q704 635 695 636H356Q349 636 342.0 630.0Q335 624 333 618ZM275 439Q272 432 276.0 427.0Q280 422 287 421H626Q633 421 640.0 427.0Q647 433 650 439L661 475Q664 482 660.0 488.0Q656 494 649 493H310Q303 493 296.0 488.0Q289 483 286 475Z" />
      </g>
    </svg>