<svg xmlns="http://www.w3.org/2000/svg" viewBox="0 -150 786 1000">
      <g transform="scale(1 -1) translate(0 -700)">
        <path d="M750 850Q765 850 775.0 839.0Q785 828 786 814V-114Q786 -129 775.0 -139.0Q764 -149 750 -150H36Q21 -150 11.0 -139.0Q1 -128 0 -114V814Q0 829 11.0 839.0Q22 849 36 850ZM286 689V654Q286 646 291.0 641.0Q296 636 304 636H339Q347 636 352.0 641.0Q357 646 357 654V689Q357 697 352.0 702.0Q347 707 339 707H304Q296 707 291.0 702.0Q286 697 286 689ZM286 546V511Q286 503 291.0 498.0Q296 493 304 493H339Q347 493 352.0 498.0Q357 503 357 511V546Q357 554 352.0 559.0Q347 564 339 564H304Q296 564 291.0 559.0Q286 554 286 546ZM286 404V368Q286 360 291.0 355.0Q296 350 304 350H339Q347 350 352.0 355.0Q357 360 357 368V404Q357 411 352.0 416.0Q347 421 339 421H304Q296 421 291.0 416.0Q286 411 286 404ZM286 261V225Q286 217 291.0 212.0Q296 207 304 207H339Q347 207 352.0 212.0Q357 217 357 225V261Q357 269 352.0 274.0Q347 279 339 279H304Q296 279 291.0 274.0Q286 269 286 261ZM214 82V118Q214 126 209.0 131.0Q204 136 196 136H161Q153 136 148.0 131.0Q143 126 143 118V82Q143 74 148.0 69.0Q153 64 161 64H196Q204 64 209.0 69.0Q214 74 214 82ZM214 225V261Q214 269 209.0 274.0Q204 279 196 279H161Q153 279 148.0 274.0Q143 269 143 261V225Q143 217 148.0 212.0Q153 207 161 207H196Q204 207 209.0 212.0Q214 217 214 225ZM214 368V404Q214 411 209.0 416.0Q204 421 196 421H161Q153 421 148.0 416.0Q143 411 143 404V368Q143 360 148.0 355.0Q153 350 161 350H196Q204 350 209.0 355.0Q214 360 214 368ZM214 511V546Q214 554 209.0 559.0Q204 564 196 564H161Q153 564 148.0 559.0Q143 554 143 546V511Q143 503 148.0 498.0Q153 493 161 493H196Q204 493 209.0 498.0Q214 503 214 511ZM214 654V689Q214 697 209.0 702.0Q204 707 196 707H161Q153 707 148.0 702.0Q143 697 143 689V654Q143 646 148.0 641.0Q153 636 161 636H196Q204 636 209.0 641.0Q214 646 214 654ZM500 -61V46Q500 54 495.0 59.0Q490 64 482 64H304Q296 64 291.0 59.0Q286 54 286 46V-61Q286 -69 291.0 -74.0Q296 -79 304 -79H482Q490 -79 495.0 -74.0Q500 -69 500 -61ZM500 225V261Q500 269 495.0 274.0Q490 279 482 279H446Q439 279 434.0 274.0Q429 269 429 261V225Q429 217 434.0 212.0Q439 207 446 207H482Q490 207 495.0 212.0Q500 217 500 225ZM500 368V404Q500 411 495.0 416.0Q490 421 482 421H446Q439 421 434.0 416.0Q429 411 429 404V368Q429 360 434.0 355.0Q439 350 446 350H482Q490 350 495.0 355.0Q500 360 500 368ZM500 511V546Q500 554 495.0 559.0Q490 564 482 564H446Q439 564 434.0 559.0Q429 554 429 546V511Q429 503 434.0 498.0Q439 493 446 493H482Q490 493 495.0 498.0Q500 503 500 511ZM500 654V689Q500 697 495.0 702.0Q490 707 482 707H446Q439 707 434.0 702.0Q429 697 429 689V654Q429 646 434.0 641.0Q439 636 446 636H482Q490 636 495.0 641.0Q500 646 500 654ZM643 82V118Q643 126 638.0 131.0Q633 136 625 136H589Q582 136 577.0 131.0Q572 126 571 118V82Q571 74 577.0 69.0Q583 64 589 64H625Q633 64 638.0 69.0Q643 74 643 82ZM643 225V261Q643 269 638.0 274.0Q633 279 625 279H589Q582 279 577.0 274.0Q572 269 571 261V225Q571 217 577.0 212.0Q583 207 589 207H625Q633 207 638.0 212.0Q643 217 643 225ZM643 368V404Q643 411 638.0 416.0Q633 421 625 421H589Q582 421 577.0 416.0Q572 411 571 404V368Q571 360 577.0 355.0Q583 350 589 350H625Q633 350 638.0 355.0Q643 360 643 368ZM643 511V546Q643 554 638.0 559.0Q633 564 625 564H589Q582 564 577.0 559.0Q572 554 571 546V511Q571 503 577.0 498.0Q583 493 589 493H625Q633 493 638.0 498.0Q643 503 643 511ZM643 654V689Q643 697 638.0 702.0Q633 707 625 707H589Q582 707 577.0 702.0Q572 697 571 689V654Q571 646 577.0 641.0Q583 636 589 636H625Q633 636 638.0 641.0Q643 646 643 654Z" />
      </g>
    </svg>