<svg xmlns="http://www.w3.org/2000/svg" viewBox="0 -114 1143 893">
      <g transform="scale(1 -1) translate(0 -665)">
        <path d="M268 243Q268 280 242.0 306.0Q216 332 179.0 332.0Q142 332 116.0 306.0Q90 280 89.0 243.0Q88 206 116.0 180.0Q144 154 179.0 154.0Q214 154 242.0 180.0Q270 206 268 243ZM288 421H855L805 621Q804 625 797.0 630.0Q790 635 786 636H357Q352 636 345.0 630.0Q338 624 338 621ZM1054 243Q1054 280 1027.0 306.0Q1000 332 964.0 332.0Q928 332 901.0 306.0Q874 280 875.0 243.0Q876 206 901.0 180.0Q926 154 964.0 154.0Q1002 154 1027.0 180.0Q1052 206 1054 243ZM1143 296V82Q1143 74 1138.0 69.0Q1133 64 1125 64H1071V-7Q1071 -52 1040.0 -83.0Q1009 -114 964.0 -114.0Q919 -114 888.0 -83.0Q857 -52 857 -7V64H286V-7Q286 -52 255.0 -83.0Q224 -114 179.0 -114.0Q134 -114 103.0 -83.0Q72 -52 71 -7V64H18Q10 64 5.0 69.0Q0 74 0 82V296Q0 348 37.0 385.0Q74 422 125 421H141L199 655Q212 708 257.0 743.0Q302 778 357 779H786Q840 779 886.0 743.0Q932 707 944 655L1002 421H1018Q1070 421 1106.0 385.0Q1142 349 1143 296Z" />
      </g>
    </svg>