<svg xmlns="http://www.w3.org/2000/svg" viewBox="0 -150 929 1000">
      <g transform="scale(1 -1) translate(0 -700)">
        <path d="M71 -79H232V82H71ZM268 -79H446V82H268ZM71 118H232V296H71ZM268 118H446V296H268ZM71 332H232V493H71ZM482 -79H661V82H482ZM268 332H446V493H268ZM696 -79H857V82H696ZM482 118H661V296H482ZM286 600V761Q286 768 280.0 773.0Q274 778 268 779H232Q225 779 220.0 773.0Q215 767 214 761V600Q214 593 220.0 587.0Q226 581 232 582H268Q275 582 280.0 587.0Q285 592 286 600ZM696 118H857V296H696ZM482 332H661V493H482ZM696 332H857V493H696ZM714 600V761Q714 768 709.0 773.0Q704 778 696 779H661Q654 779 648.0 773.0Q642 767 643 761V600Q643 593 648.0 587.0Q653 581 661 582H696Q704 582 709.0 587.0Q714 592 714 600ZM929 636V-79Q929 -108 907.0 -129.0Q885 -150 857 -150H71Q42 -150 21.0 -129.0Q0 -108 0 -79V636Q0 665 21.0 686.0Q42 707 71 707H143V761Q143 798 169.0 824.0Q195 850 232 850H268Q305 850 331.0 824.0Q357 798 357 761V707H571V761Q571 798 598.0 824.0Q625 850 661 850H696Q733 850 760.0 824.0Q787 798 786 761V707H857Q886 707 907.0 686.0Q928 665 929 636Z" />
      </g>
    </svg>