<svg xmlns="http://www.w3.org/2000/svg" viewBox="61 -17 663 663">
      <g transform="scale(1 -1) translate(0 -629)">
        <path d="M724 112Q724 90 709 74L633 -2Q617 -17 595.0 -17.0Q573 -17 557 -2L393 163L229 -2Q213 -17 191.0 -17.0Q169 -17 153 -2L77 74Q61 90 61.0 112.0Q61 134 77 150L241 314L77 478Q61 494 61.0 516.0Q61 538 77 554L153 630Q169 646 191.0 646.0Q213 646 229 630L393 466L557 630Q573 646 595.0 646.0Q617 646 633 630L709 554Q724 539 724.0 516.0Q724 493 709 478L545 314L709 150Q724 135 724 112Z" />
      </g>
    </svg>