<svg xmlns="http://www.w3.org/2000/svg" viewBox="0 -79 857 858">
      <g transform="scale(1 -1) translate(0 -700)">
        <path d="M641 224Q641 238 631 249L530 350L631 451Q641 462 641.0 476.5Q641 491 631 502L580 552Q570 563 555.0 563.0Q540 563 530 552L429 451L328 552Q317 563 302.0 563.0Q287 563 277 552L227 502Q216 491 216.0 476.5Q216 462 227 451L328 350L227 249Q216 238 216.0 223.5Q216 209 227 198L277 148Q287 137 302.0 137.0Q317 137 328 148L429 249L530 148Q540 137 555.0 137.0Q570 137 580 148L631 198Q641 209 641 224ZM857 350Q857 233 800.0 135.0Q743 37 644.0 -21.0Q545 -79 429.0 -79.0Q313 -79 213.0 -21.0Q113 37 58.0 135.0Q3 233 0.0 350.0Q-3 467 58.0 565.0Q119 663 213.0 721.0Q307 779 429.0 779.0Q551 779 644.0 721.0Q737 663 800.0 565.0Q863 467 857 350Z" />
      </g>
    </svg>