<svg xmlns="http://www.w3.org/2000/svg" viewBox="10 -11 979 722">
      <g transform="scale(1 -1) translate(0 -700)">
        <path d="M860 707Q859 707 858 707Q805 704 795.5 703.0Q786 702 782.5 699.0Q779 696 776 688Q775 684 778.0 680.0Q781 676 792 664Q801 654 822 633L836 620L661 444Q485 268 483.0 268.0Q481 268 375.5 374.0Q270 480 262 482Q250 489 235 484Q229 482 122.0 375.5Q15 269 13 262Q7 248 14 234Q17 227 26.0 217.5Q35 208 41.0 206.0Q47 204 55.5 204.0Q64 204 70 206Q73 207 162 294L248 380L354 274Q458 170 468 164Q483 157 497 164Q507 169 700 362Q774 437 838 500Q895 557 897.0 557.0Q899 557 928 528Q950 507 955.0 503.0Q960 499 964 500Q974 502 977.5 507.0Q981 512 983 534Q984 549 987 606V607Q990 666 990.0 682.0Q990 698 988 702Q984 708 982 710Q975 713 860 707ZM841 445 785 390V-9H927V471L911 486L896 501ZM679 283 609 213V-9H750V172Q750 353 749 353L728 333Q703 307 679 283ZM257 152V-9H399V171L257 313ZM160 234Q97 172 89 169L81 166V-11H150Q220 -11 221 -8V-7Q222 68 221 145V295ZM549 154Q531 136 520.0 129.5Q509 123 494 120Q466 115 438 134L432 138V-9H573V177Q573 177 566 170Z" />
      </g>
    </svg>