<svg xmlns="http://www.w3.org/2000/svg" viewBox="0 -79 1000 786">
      <g transform="scale(1 -1) translate(0 -628)">
        <path d="M786 421Q786 344 733.0 278.0Q680 212 590.0 174.0Q500 136 393 136Q345 136 295 145Q225 96 140 73Q119 68 92 64H90Q84 64 78.0 69.0Q72 74 72 81Q71 82 71.0 84.0Q71 86 72.0 88.0Q73 90 73 91L74 94L78 100L81 103Q84 106 83 105L111 135Q116 140 123.0 152.0Q130 164 137.0 173.0Q144 182 148 198Q79 238 40.0 296.0Q1 354 0 421Q0 499 53.0 565.0Q106 631 196.0 669.0Q286 707 393.0 707.0Q500 707 590.0 669.0Q680 631 733.0 565.0Q786 499 786 421ZM1000 279Q1000 212 960.0 153.0Q920 94 852 55Q857 41 863.0 30.0Q869 19 877 9L904 -24Q913 -35 917 -38L922 -43L926 -49L929 -59Q929 -60 928 -62Q926 -70 921.0 -75.0Q916 -80 909 -79Q881 -75 861 -70Q775 -47 705 2Q655 -7 607 -7Q456 -7 344 67Q376 64 393 64Q483 64 565.0 89.0Q647 114 713 161Q782 213 820.0 280.0Q858 347 857 421Q857 464 844 506Q916 467 958.0 407.0Q1000 347 1000 279Z" />
      </g>
    </svg>