<svg xmlns="http://www.w3.org/2000/svg" viewBox="0 -150 999 999">
      <g transform="scale(1 -1) translate(0 -699)">
        <path d="M0 336Q0 426 64.0 490.0Q128 554 219 555Q236 555 250 553Q251 557 254 557Q250 575 250 586Q250 658 301.0 709.0Q352 760 424 760H437Q510 849 625.0 849.0Q740 849 812 760H826Q898 760 949.0 709.0Q1000 658 999 586Q999 520 953 469Q999 410 999 336Q999 246 935.0 182.0Q871 118 781 117Q741 117 703 133Q663 97 611 76L576 112L588 135Q651 161 691 209Q732 180 781 180Q845 180 891.0 226.0Q937 272 937 336Q937 388 904 432Q881 461 848.0 476.0Q815 491 781 492L755 490Q737 487 722 481Q690 543 631.0 580.0Q572 617 500 617Q396 617 322 541Q298 517 281 486Q280 483 277 481Q250 492 219 492Q154 492 108.0 446.0Q62 400 63.0 336.0Q64 272 108.0 226.0Q152 180 219 180Q267 180 308 209Q329 184 359 164L303 127L297 131Q260 117 219 117Q129 117 64.0 182.0Q-1 247 0 336ZM318 621Q400 680 500 680Q573 680 640 646Q706 614 750 553Q763 555 781 555Q851 555 910 514Q937 545 937 586Q937 633 905.0 665.0Q873 697 826 697Q803 697 783 689Q761 734 718.0 761.0Q675 788 625.0 787.0Q575 786 531.0 761.0Q487 736 467 689Q446 697 424 697Q387 697 358.5 676.0Q330 655 318 621ZM375 -150 437 37 375 100 562 225 500 100 562 37Z" />
      </g>
    </svg>