<svg xmlns="http://www.w3.org/2000/svg" viewBox="0 -88 999 937">
      <g transform="scale(1 -1) translate(0 -761)">
        <path d="M0 506Q0 596 64.0 660.0Q128 724 219 725Q236 725 250 723Q293 784 359 816Q427 849 500.0 849.0Q573 849 639.5 816.5Q706 784 750 723Q763 725 781 725Q871 725 935.0 660.0Q999 595 999.0 506.0Q999 417 935.0 352.0Q871 287 781 287Q739 287 703 301Q656 260 592 240L617 319Q662 345 691 379Q732 350 781 350Q845 350 891.0 396.0Q937 442 937.0 506.0Q937 570 891.0 616.0Q845 662 781 662Q750 662 722 650Q690 712 631.0 749.5Q572 787 500.0 787.0Q428 787 369.0 749.5Q310 712 277 650Q250 662 219 662Q154 662 108.0 616.0Q62 570 63.0 506.0Q64 442 108.0 396.0Q152 350 219 350Q267 350 308 379Q353 324 426 301L377 252Q329 272 297 301Q260 287 219 287Q129 287 64.0 352.0Q-1 417 0 506ZM375 -88 437 100 375 162 562 350 500 162 562 100Z" />
      </g>
    </svg>