<svg xmlns="http://www.w3.org/2000/svg" viewBox="0 -150 999 999">
      <g transform="scale(1 -1) translate(0 -699)">
        <path d="M0 131Q0 219 62.0 282.0Q124 345 211 350Q187 395 187 443Q187 533 252.0 598.0Q317 663 406.0 662.5Q495 662 558.5 600.0Q622 538 625 447Q700 415 750 348Q763 350 781 350Q871 350 935.0 285.0Q999 220 999.0 131.0Q999 42 935.0 -23.0Q871 -88 781 -88Q739 -88 703 -74Q615 -150 500.0 -150.0Q385 -150 297 -74Q260 -88 219 -88Q129 -88 64.0 -23.0Q-1 42 0 131ZM0 443Q0 457 9.0 466.0Q18 475 31 475H94Q107 475 116.0 466.0Q125 457 125.0 443.0Q125 429 116.0 421.0Q107 413 94 412H31Q18 412 9.0 421.0Q0 430 0 443ZM63 131Q63 67 108.0 21.0Q153 -25 219 -25Q267 -25 308 4Q385 -88 500.0 -88.0Q615 -88 691 4Q732 -25 781 -25Q845 -25 891.0 21.0Q937 67 937.0 131.0Q937 195 891.0 241.0Q845 287 781 287Q750 287 722 276Q685 346 615 383Q587 399 556 404Q528 412 500 412Q385 412 308 322Q289 299 277 276L262 279Q239 287 219 287Q154 287 108.0 241.0Q62 195 63 131ZM119 686Q108 697 108.0 708.0Q108 719 119.0 730.0Q130 741 141.0 741.0Q152 741 164 730L207 686Q218 675 218.0 664.0Q218 653 207.0 643.0Q196 633 185 632L164 643ZM250 443Q250 406 269 371Q361 475 500 475Q527 475 560 469Q551 525 508.0 563.0Q465 601 406 600Q342 600 296.0 554.0Q250 508 250 443ZM375 756V818Q375 832 384.0 841.0Q393 850 406.0 849.0Q419 848 429.0 841.0Q439 834 437 818V756Q437 742 429.0 733.0Q421 724 406.0 725.0Q391 726 384.0 733.0Q377 740 375 756ZM605 643Q594 653 594.0 664.0Q594 675 605 686L648 730Q660 741 671.0 741.0Q682 741 693.0 730.0Q704 719 704.0 708.0Q704 697 693 686L648 643Q637 632 627 632ZM687 443Q687 457 696.0 466.0Q705 475 718 475H781Q795 475 803.0 466.0Q811 457 812.0 443.0Q813 429 803.0 421.0Q793 413 781 412H718Q705 412 696.0 421.0Q687 430 687 443Z" />
      </g>
    </svg>