<svg xmlns="http://www.w3.org/2000/svg" viewBox="0 37 999 625">
      <g transform="scale(1 -1) translate(0 -699)">
        <path d="M0 319Q0 408 64.0 473.0Q128 538 219 537Q236 537 250 535Q293 596 360.0 629.0Q427 662 500.0 662.0Q573 662 639.5 629.0Q706 596 750 535Q763 537 781 537Q871 537 935.0 473.0Q999 409 999.0 319.0Q999 229 935.0 164.0Q871 99 781 100Q739 100 703 114Q615 37 500.0 37.0Q385 37 297 114Q260 100 219 100Q129 100 64.0 164.0Q-1 228 0 319ZM63 319Q63 254 108.0 208.0Q153 162 219 162Q267 162 308 192Q385 100 500.0 100.0Q615 100 691 192Q732 162 781 162Q845 162 891.0 208.0Q937 254 937.0 319.0Q937 384 891.0 429.0Q845 474 781 475Q750 475 722 463Q690 525 631.0 562.5Q572 600 500.0 600.0Q428 600 369.0 562.5Q310 525 277 463Q250 475 219 475Q154 475 108.0 429.0Q62 383 63 319Z" />
      </g>
    </svg>