<svg xmlns="http://www.w3.org/2000/svg" viewBox="0 -150 999 795">
      <g transform="scale(1 -1) translate(0 -495)">
        <path d="M0 131Q0 221 64.0 285.0Q128 349 219 350Q236 350 250 348Q251 352 254 352Q250 370 250 381Q250 453 301.0 504.0Q352 555 424 555H437Q510 645 625.0 645.0Q740 645 812 555H826Q898 555 949.0 504.0Q1000 453 999 381Q999 315 953 264Q999 203 999 131Q999 41 935.0 -23.0Q871 -87 781 -88Q739 -88 703 -74Q615 -150 500.0 -150.0Q385 -150 297 -74Q260 -88 219 -88Q129 -88 64.0 -23.0Q-1 42 0 131ZM63 131Q63 67 108.0 21.0Q153 -25 219 -25Q267 -25 308 4Q385 -88 500.0 -88.0Q615 -88 691 4Q732 -25 781 -25Q845 -25 891.0 21.0Q937 67 937 131Q937 183 904 227Q881 256 848.0 271.0Q815 286 781 287L755 285Q737 282 722 276Q690 338 631.0 375.0Q572 412 500 412Q396 412 322 336Q298 310 281 281Q281 276 277 276Q250 287 219 287Q154 287 108.0 241.0Q62 195 63 131ZM318 416Q400 475 500 475Q573 475 639.5 442.0Q706 409 750 348Q763 350 781 350Q852 350 910 307Q937 340 937 381Q937 428 905.0 460.0Q873 492 826 492Q803 492 783 484Q761 527 718.0 554.5Q675 582 625.0 582.0Q575 582 531.5 554.5Q488 527 467 484Q446 492 424 492Q387 492 358.5 471.0Q330 450 318 416Z" />
      </g>
    </svg>