<svg xmlns="http://www.w3.org/2000/svg" viewBox="0 -150 999 999">
      <g transform="scale(1 -1) translate(0 -699)">
        <path d="M0 131Q0 219 62.0 282.0Q124 345 211 350Q187 395 187 443Q187 533 252.0 598.0Q317 663 406.0 662.5Q495 662 558.5 600.0Q622 538 625 447Q700 415 750 348Q763 350 781 350Q871 350 935.0 285.0Q999 220 999.0 131.0Q999 42 935.0 -23.0Q871 -88 781 -88Q739 -88 703 -74Q615 -150 500.0 -150.0Q385 -150 297 -74Q260 -88 219 -88Q129 -88 64.0 -23.0Q-1 42 0 131ZM0 443Q0 457 9.0 466.0Q18 475 31 475H94Q107 475 116.0 466.0Q125 457 125.0 443.0Q125 429 116.0 421.0Q107 413 94 412H31Q18 412 9.0 421.0Q0 430 0 443ZM119 686Q98 709 119.0 730.0Q140 751 164 730L207 686Q228 664 207.0 643.0Q186 622 164 643ZM250 443Q250 406 269 371Q361 475 500 475Q527 475 560 469Q551 525 508.0 563.0Q465 601 406 600Q342 600 296.0 554.0Q250 508 250 443ZM375 756V818Q375 832 384.0 841.0Q393 850 406.0 849.0Q419 848 429.0 841.0Q439 834 437 818V756Q437 742 429.0 733.0Q421 724 406.0 725.0Q391 726 384.0 733.0Q377 740 375 756ZM605 643Q584 664 605 686L648 730Q672 752 693.0 730.0Q714 708 693 686L648 643Q627 621 605 643ZM687 443Q687 457 696.0 466.0Q705 475 718 475H781Q795 475 803.0 466.0Q811 457 812.0 443.0Q813 429 803.0 421.0Q793 413 781 412H718Q705 412 696.0 421.0Q687 430 687 443Z" />
      </g>
    </svg>