<svg xmlns="http://www.w3.org/2000/svg" viewBox="0 -150 999 999">
      <g transform="scale(1 -1) translate(0 -699)">
        <path d="M0 336Q0 426 64.0 490.0Q128 554 219 555Q236 555 250 553Q251 557 254 557Q250 575 250 586Q250 658 301.0 709.0Q352 760 424 760H437Q510 849 625.0 849.0Q740 849 812 760H826Q898 760 949.0 709.0Q1000 658 999 586Q999 520 953 469Q999 410 999 336Q999 246 935.0 182.0Q871 118 781 117Q739 117 703 131Q621 59 510 57L500 37L562 -25L375 -150L437 -25L375 37L420 67Q348 86 297 131Q260 117 219 117Q129 117 64.0 182.0Q-1 247 0 336Z" />
      </g>
    </svg>