<svg xmlns="http://www.w3.org/2000/svg" viewBox="2 -47 999 793">
      <g transform="scale(1 -1) translate(0 -699)">
        <path d="M2 234Q2 324 66.0 389.0Q130 454 221 453Q235 453 252 449Q252 450 253.0 452.0Q254 454 254 455Q252 471 252 484Q252 554 302.5 606.0Q353 658 426 658Q434 658 439 656Q511 746 627.0 746.0Q743 746 814 656Q819 658 828 658Q900 658 950.5 606.0Q1001 554 1001.0 485.0Q1001 416 955 367Q1001 307 1001 235Q1001 143 937.0 79.5Q873 16 783 16Q741 16 705 30Q617 -47 502.0 -47.0Q387 -47 299 30Q262 16 221 16Q130 16 66.0 79.5Q2 143 2 234Z" />
      </g>
    </svg>