<svg xmlns="http://www.w3.org/2000/svg" viewBox="0 -88 999 937">
      <g transform="scale(1 -1) translate(0 -761)">
        <path d="M0 506Q0 596 64.0 660.0Q128 724 219 725Q236 725 250 723Q293 784 359 816Q427 849 500.0 849.0Q573 849 639.5 816.5Q706 784 750 723Q763 725 781 725Q871 725 935.0 660.0Q999 595 999.0 506.0Q999 417 935.0 352.0Q871 287 781 287Q739 287 703 301Q627 235 521 227L500 162L562 100L375 -88L437 100L375 162L443 231Q359 246 297 301Q260 287 219 287Q129 287 64.0 352.0Q-1 417 0 506Z" />
      </g>
    </svg>