<svg xmlns="http://www.w3.org/2000/svg" viewBox="1 -150 999 924">
      <g transform="scale(1 -1) translate(0 -624)">
        <path d="M2 131Q2 221 66.0 285.0Q130 349 221 350Q238 350 252 348Q330 455 463 473Q453 504 453 537Q453 567 462 600Q478 666 525 713Q564 752 619 771Q626 774 632 774Q643 774 652 765Q662 754 662 743Q662 738 660 732Q648 700 648 667Q648 647 652 628Q664 576 702.0 537.0Q740 498 793 486Q813 482 832 482Q865 482 898 494Q903 496 908 496Q920 496 930.0 486.5Q940 477 940 466Q940 460 937 453Q917 399 878 360Q871 352 851 338Q917 317 959.0 260.0Q1001 203 1001 131Q1001 41 937.0 -23.0Q873 -87 783 -88Q741 -88 705 -74Q617 -150 502.0 -150.0Q387 -150 299 -74Q262 -88 221 -88Q131 -88 66.0 -23.0Q1 42 2 131ZM64 131Q64 67 110.0 21.0Q156 -25 221 -25Q269 -25 310 4Q387 -88 502.0 -88.0Q617 -88 693 4Q734 -25 783 -25Q847 -25 893.0 21.0Q939 67 939.0 131.0Q939 195 893.0 241.0Q847 287 783 287Q752 287 724 276L719 282Q716 286 716 289Q691 329 658 358Q620 386 574 401Q539 412 502 412Q488 412 488 410Q419 408 365.0 371.0Q311 334 279 276Q252 287 221 287Q156 287 110.0 241.0Q64 195 64 131ZM519 576Q515 556 515 536Q515 503 527 473Q661 463 746 356Q811 371 849 420H834Q733 420 659.0 493.0Q585 566 585 664Q585 674 586 684Q578 678 570 670Q531 631 519 576Z" />
      </g>
    </svg>