<svg xmlns="http://www.w3.org/2000/svg" viewBox="10 -11 980 722">
      <g transform="scale(1 -1) translate(0 -700)">
        <path d="M559 312Q518 312 496 284Q473 258 473 208Q473 161 496.5 133.5Q520 106 560.0 106.0Q600 106 621.5 133.0Q643 160 643.0 210.0Q643 260 621.5 286.0Q600 312 559 312ZM778 468Q787 470 795 471Q817 474 839 473Q869 472 895 463Q928 451 951 428Q969 442 979.5 464.5Q990 487 990 512Q990 561 966 586Q938 616 884 603Q872 647 839 677Q803 711 758 711Q718 711 688.0 692.0Q658 673 642 638Q675 624 706 592Q757 542 778 468ZM741 423Q724 485 687 539Q648 595 595 627Q537 663 472 663Q394 663 333.0 628.0Q272 593 235.0 527.5Q198 462 193 375Q144 376 102.0 352.5Q60 329 36 288Q10 245 10.0 190.5Q10 136 32.5 90.0Q55 44 93.5 16.5Q132 -11 177 -11H764Q820 -11 867.0 20.5Q914 52 941.5 105.5Q969 159 969 221Q969 290 947 340Q922 395 874 418Q820 443 741 423ZM390 291Q362 312 327 312Q286 312 260.5 283.5Q235 255 235.0 207.5Q235 160 259.0 133.0Q283 106 324 106Q362 106 390 130V85Q362 67 315 67Q256 67 222 105Q186 143 186 203Q186 270 224.0 311.0Q262 352 327 352Q363 352 390 339ZM655 106Q617 66 556.5 66.0Q496 66 460.0 105.0Q424 144 424 206Q424 275 461.5 313.5Q499 352 562 352Q623 352 657 315Q692 275 692.0 211.5Q692 148 655 106ZM811 87V77H723V91L766 129L774 137Q787 150 790 154L791 156Q796 168 796 174Q796 185 790.0 191.0Q784 197 769 197Q748 197 733 182V199Q748 211 772 211Q792 211 802 201Q814 192 814 175Q814 162 807.5 150.0Q801 138 782 121L752 92V87Z" />
      </g>
    </svg>