<svg xmlns="http://www.w3.org/2000/svg" viewBox="0 23 1000 654">
      <g transform="scale(1 -1) translate(0 -700)">
        <path d="M510 202Q531 202 543.0 217.0Q555 232 555 258V300Q555 325 543.0 340.5Q531 356 510.5 356.0Q490 356 478.0 340.5Q466 325 466 300V258Q466 232 478.0 217.0Q490 202 510 202ZM865 374Q876 409 876 444Q876 507 844.5 560.5Q813 614 759.5 645.5Q706 677 643 677Q585 677 532.5 649.0Q480 621 448 573Q396 609 334 609Q281 609 236.0 582.5Q191 556 165.0 511.0Q139 466 139 413Q139 395 142 375Q101 367 69.0 342.0Q37 317 18.5 280.0Q0 243 0 201Q0 153 24.0 112.0Q48 71 89.0 47.0Q130 23 178 23H822Q870 23 911.0 47.0Q952 71 976.0 112.0Q1000 153 1000 201Q1000 262 962.0 310.5Q924 359 865 374ZM379 315 378 309H324V315Q324 336 314.5 346.0Q305 356 284 356Q267 356 256.0 340.5Q245 325 245 302V256Q245 232 256.5 217.0Q268 202 287.0 202.0Q306 202 315.0 211.5Q324 221 324 242V248H377L379 242Q380 203 354.5 179.5Q329 156 287 156Q243 156 215.5 185.0Q188 214 188 256V302Q188 346 215.0 374.0Q242 402 284 402Q329 402 355.0 378.5Q381 355 379 316ZM612 258Q612 214 584.0 185.0Q556 156 510.5 156.0Q465 156 437.5 184.5Q410 213 410 258V300Q410 345 437.5 373.5Q465 402 510.5 402.0Q556 402 584.0 373.0Q612 344 612 300ZM814 159H646V197L722 278Q739 297 744.5 308.0Q750 319 750.0 330.5Q750 342 743.5 349.0Q737 356 726 356Q712 356 705.5 347.5Q699 339 699 322V316H645L643 323Q642 356 665.0 379.0Q688 402 726.0 402.0Q764 402 785.5 382.0Q807 362 807 329Q807 308 794.5 288.0Q782 268 756 241L723 205H814Z" />
      </g>
    </svg>