<svg xmlns="http://www.w3.org/2000/svg" viewBox="0 -79 1036 786">
      <g transform="scale(1 -1) translate(0 -628)">
        <path d="M929 493Q929 538 897.0 569.0Q865 600 821 600H786V386H821Q866 386 897.0 417.0Q928 448 929 493ZM0 64H1000Q1000 5 958.0 -37.0Q916 -79 857 -79H143Q84 -79 42.0 -37.0Q0 5 0 64ZM1036 493Q1036 404 973.0 341.0Q910 278 821 279H786V261Q786 209 749.0 173.0Q712 137 661 136H268Q217 136 180.0 173.0Q143 210 143 261V671Q143 686 154.0 697.0Q165 708 179 707H821Q910 707 973.0 644.0Q1036 581 1036 493Z" />
      </g>
    </svg>