<svg xmlns="http://www.w3.org/2000/svg" viewBox="0 -142 1071 983">
      <g transform="scale(1 -1) translate(0 -699)">
        <path d="M500 350Q500 409 458.0 451.0Q416 493 357.0 493.0Q298 493 256.0 451.0Q214 409 214.0 350.0Q214 291 256.0 249.0Q298 207 357.0 207.0Q416 207 458.0 249.0Q500 291 500 350ZM929 64Q929 93 907.0 115.0Q885 137 857.0 136.0Q829 135 807.0 115.0Q785 95 786 64Q786 35 807.0 14.0Q828 -7 857.0 -7.0Q886 -7 908.0 14.0Q930 35 929 64ZM929 636Q929 665 907.0 686.0Q885 707 857.0 707.0Q829 707 807.0 686.0Q785 665 785.5 635.5Q786 606 807.0 585.0Q828 564 857.0 564.0Q886 564 908.0 585.0Q930 606 929 636ZM714 401V298Q714 292 710.0 287.0Q706 282 702 281L615 267Q609 248 597 225Q616 198 647 161Q651 155 651.0 149.0Q651 143 647 139Q635 122 601.0 89.0Q567 56 559.0 56.0Q551 56 546 60L482 110Q461 99 439 93Q433 33 426 6Q422 -7 409 -7H305Q299 -7 294.0 -3.0Q289 1 289 7L276 92Q257 98 234 110L168 60Q164 56 157.5 56.0Q151 56 145 60Q65 135 65 150Q65 155 69 160Q74 168 92.0 190.0Q110 212 118 224Q105 248 98 270L13 283Q8 284 4.0 288.0Q0 292 0 299V403Q0 408 4.0 413.0Q8 418 13 419L99 433Q106 452 117 475Q98 502 67 539Q63 545 63.0 551.0Q63 557 67 562Q79 578 113.0 611.0Q147 644 157 644Q163 644 169 640L233 590Q252 600 276 608Q282 668 289 694Q292 707 305 707H409Q415 707 420.0 703.0Q425 699 426 693L439 608Q458 602 481 591L546 640Q551 644 557.5 644.0Q564 644 569 640Q650 565 650 550Q650 546 646 540L622 510Q605 489 597 476Q610 449 616 430L701 418Q707 416 710.0 412.0Q713 408 714 401ZM1071 103V25Q1071 16 988 8Q982 -7 972 -21Q1000 -84 1000 -98Q1000 -100 998 -102Q930 -142 929 -142Q924 -142 903 -115L874 -78Q863 -79 857.0 -79.0Q851 -79 840 -78Q833 -89 811.0 -115.0Q789 -141 786 -142Q785 -142 717 -102Q714 -100 714 -98Q714 -84 743 -21Q733 -7 726 8Q643 16 643 25V103Q643 112 726 121Q733 137 743 150Q714 213 714 227Q714 229 717 231L769 261Q785 270 786 270Q790 270 811.0 244.0Q832 218 840 206L857 207L874 206Q902 246 925 269L929 270Q931 270 998 231Q1000 229 1000 227Q1000 213 972 150Q981 137 988 121Q1071 112 1071 103ZM1071 675V597Q1071 588 988 579Q982 564 972 550Q1000 487 1000 473Q1000 471 998 469Q930 430 929 430Q924 430 903.0 456.0Q882 482 874 494Q863 493 857.0 493.0Q851 493 840 494Q833 482 811.0 456.0Q789 430 787.0 430.0Q785 430 717 469Q714 471 714 473Q714 487 743 550Q733 564 726 579Q643 588 643 597V675Q643 684 726 692Q733 708 743 721Q714 784 714 798Q714 800 717 802L769 832Q785 841 786 841Q790 841 811.0 815.0Q832 789 840 778L857 779L874 778Q902 817 925 840L929 841Q931 841 998 802Q1000 800 1000 798Q1000 784 972 721Q981 708 988 692Q1071 684 1071 675Z" />
      </g>
    </svg>