<svg xmlns="http://www.w3.org/2000/svg" viewBox="0 -150 999 999">
      <g transform="scale(1 -1) translate(0 -699)">
        <path d="M0 350Q0 557 146.0 703.0Q292 849 500.0 849.0Q708 849 853.0 703.0Q998 557 999.0 350.0Q1000 143 853.0 -4.0Q706 -151 500.0 -150.0Q294 -149 146.0 -4.0Q-2 141 0 350ZM125 350Q125 196 235.0 85.0Q345 -26 500.0 -25.0Q655 -24 763 84Q875 196 875.0 350.0Q875 504 764.0 614.0Q653 724 500.0 725.0Q347 726 235.0 614.0Q123 502 125 350ZM312 162 437 412 687 537 562 287Z" />
      </g>
    </svg>