<svg xmlns="http://www.w3.org/2000/svg" viewBox="0 100 837 722">
      <g transform="scale(1 -1) translate(0 -922)">
        <path d="M419 822Q390 822 369.0 801.0Q348 780 348.0 750.0Q348 720 369.0 699.0Q390 678 419.5 678.0Q449 678 471.0 699.0Q493 720 493.0 750.0Q493 780 471.0 801.0Q449 822 419 822ZM371 600Q357 559 338 526Q323 500 306 480Q293 466 280 456L270 449L254 490Q235 539 215 582Q186 642 161 680Q142 637 123 616Q100 590 65 580Q65 566 72 533Q76 512 88 462Q102 400 108 370Q119 319 120 290H721Q722 321 734 381Q741 415 757 485Q776 565 776 578Q743 592 718 616Q688 645 680 680Q652 642 624 582Q604 539 585 490L571 449L561 456Q548 466 536 480Q518 500 503 526Q484 559 470 600Q450 590 419.0 590.0Q388 590 371 600ZM74 822Q44 822 22.0 801.0Q0 780 0.0 750.0Q0 720 22.0 699.0Q44 678 73.5 678.0Q103 678 123.5 699.0Q144 720 144.0 750.0Q144 780 123.5 801.0Q103 822 74 822ZM121 219V100H721V219ZM765 822Q735 822 714.0 801.0Q693 780 693.0 750.0Q693 720 714.0 699.0Q735 678 765.0 678.0Q795 678 816.0 699.0Q837 720 837.0 750.0Q837 780 816.0 801.0Q795 822 765 822Z" />
      </g>
    </svg>