<svg xmlns="http://www.w3.org/2000/svg" viewBox="0 -79 1071 929">
      <g transform="scale(1 -1) translate(0 -771)">
        <path d="M1000 296V761Q1000 768 995.0 773.0Q990 778 982 779H89Q82 779 77.0 773.0Q72 767 71 761V296Q71 289 77.0 284.0Q83 279 89 279H982Q989 279 995.0 284.0Q1001 289 1000 296ZM1071 761V154Q1071 117 1045.0 91.0Q1019 65 982 64H679Q679 44 688.0 21.0Q697 -2 705.0 -19.0Q713 -36 714 -43Q714 -57 704.0 -68.0Q694 -79 679 -79H393Q378 -79 368.0 -68.0Q358 -57 357 -43Q357 -35 366.0 -18.0Q375 -1 384.0 21.0Q393 43 393 64H89Q53 64 26.0 91.0Q-1 118 0 154V761Q0 798 26.0 824.0Q52 850 89 850H982Q1019 850 1045.0 824.0Q1071 798 1071 761Z" />
      </g>
    </svg>