<svg xmlns="http://www.w3.org/2000/svg" viewBox="121 -150 758 1000">
      <g transform="scale(1 -1) translate(0 -700)">
        <path d="M856 850H274Q264 850 257.5 843.5Q251 837 251 827V479H283Q268 497 268 522Q268 553 289 572Q291 575 297 579V804H832V787L588 609V-150L834 28Q836 21 842.0 17.0Q848 13 857.0 13.0Q866 13 872.5 19.5Q879 26 879 36V827Q879 837 872.5 843.5Q866 850 856 850ZM680 212Q672 212 666.0 221.0Q660 230 658 244H632V264H658Q660 277 666.5 285.5Q673 294 680 294Q690 294 696.5 282.0Q703 270 703.5 253.0Q704 236 697.0 224.0Q690 212 680 212ZM289 246Q290 244 294 241L297 238V36Q297 26 290.5 19.5Q284 13 274.0 13.0Q264 13 257.5 19.5Q251 26 251 36V339H283Q266 318 268.0 291.5Q270 265 289 246ZM455 430Q462 423 462.0 413.5Q462 404 455 397L342 283Q335 277 325.5 277.0Q316 277 308.5 284.0Q301 291 301.0 300.5Q301 310 308 317L381 390H145Q135 390 128.0 397.0Q121 404 121.0 414.0Q121 424 128.0 430.5Q135 437 145 437H381L308 510Q301 517 301.0 527.0Q301 537 308.0 544.0Q315 551 325.0 551.0Q335 551 342 544Z" />
      </g>
    </svg>