<svg xmlns="http://www.w3.org/2000/svg" viewBox="0 -7 929 857">
      <g transform="scale(1 -1) translate(0 -843)">
        <path d="M714 100Q714 115 704.0 125.0Q694 135 679.0 136.0Q664 137 654.0 125.0Q644 113 643.0 100.0Q642 87 654.0 75.0Q666 63 679.0 64.0Q692 65 704.0 75.0Q716 85 714 100ZM857 100Q857 115 847.0 125.0Q837 135 821.0 136.0Q805 137 796.0 125.0Q787 113 786.0 100.0Q785 87 796.0 75.0Q807 63 821.0 64.0Q835 65 847.0 75.0Q859 85 857 100ZM929 225V46Q929 24 913.0 9.0Q897 -6 875 -7H54Q31 -7 16.0 9.0Q1 25 0 46V225Q0 247 16.0 263.0Q32 279 54 279H313L388 203Q421 171 464.0 171.0Q507 171 540 203L616 279H875Q897 279 913.0 263.0Q929 247 929 225ZM747 543Q757 520 739 504L489 254Q479 243 464.0 243.0Q449 243 439 254L189 504Q172 520 181 543Q191 564 214 564H357V814Q357 829 368.0 839.0Q379 849 393 850H536Q550 850 561.0 839.0Q572 828 571 814V564H714Q738 564 747 543Z" />
      </g>
    </svg>