<svg xmlns="http://www.w3.org/2000/svg" viewBox="0 -88 999 875">
      <g transform="scale(1 -1) translate(0 -699)">
        <path d="M0 443Q0 533 64.0 598.0Q128 663 219 662Q236 662 250 660Q293 721 360.0 754.0Q427 787 500.0 787.0Q573 787 639.5 754.0Q706 721 750 660Q763 662 781 662Q871 662 935.0 598.0Q999 534 999.0 443.0Q999 352 935.0 289.0Q871 226 781 225Q739 225 703 238Q615 162 500.0 162.0Q385 162 297 238Q260 225 219 225Q129 225 64.0 289.0Q-1 353 0 443ZM63 443Q63 379 108.0 333.0Q153 287 219 287Q267 287 308 317Q385 225 500.0 225.0Q615 225 691 317Q732 287 781 287Q845 287 891.0 333.0Q937 379 937.0 443.0Q937 507 891.0 554.0Q845 601 781 600Q750 600 722 588Q690 650 631.0 687.5Q572 725 500.0 725.0Q428 725 369.0 687.5Q310 650 277 588Q250 600 219 600Q154 600 108.0 554.0Q62 508 63 443ZM437 -25Q437 10 500 100L515 76Q533 50 547 22Q562 -10 562 -25Q562 -50 544.0 -69.0Q526 -88 500.0 -88.0Q474 -88 456.0 -69.0Q438 -50 437 -25Z" />
      </g>
    </svg>