<svg xmlns="http://www.w3.org/2000/svg" viewBox="123 -86 750 812">
      <g transform="scale(1 -1) translate(0 -640)">
        <path d="M123 320Q123 334 132.0 343.0Q141 352 154 352H217Q230 352 239.0 343.0Q248 334 248.0 320.0Q248 306 239.0 298.0Q230 290 217 289H154Q141 289 132.0 298.0Q123 307 123 320ZM242 34Q231 44 231.0 55.0Q231 66 242 78L287 121Q298 134 309 134L330 122Q341 111 341.0 100.0Q341 89 330 78L287 34Q275 23 264.0 23.0Q253 23 242 34ZM242 563Q231 574 231.0 585.0Q231 596 242.0 607.0Q253 618 264.0 618.0Q275 618 287 607L330 563Q341 552 341.0 541.0Q341 530 330.0 520.0Q319 510 308 509L287 520ZM310 320Q310 410 375.0 475.0Q440 540 529 539Q558 539 592 529Q625 539 654 539Q744 539 808.0 475.0Q872 411 873.0 320.0Q874 229 808.0 166.0Q742 103 654 102Q625 102 592 112Q558 102 529 102Q439 102 375.0 166.0Q311 230 310 320ZM373 320Q373 264 409.0 221.0Q445 178 498 168Q435 231 435.0 320.0Q435 409 498 473Q445 463 409.0 420.0Q373 377 373 320ZM498 -54V8Q498 22 507.0 31.0Q516 40 529.0 39.0Q542 38 551.0 31.0Q560 24 560 8V-54Q560 -68 551.0 -77.0Q542 -86 529.0 -86.0Q516 -86 507.0 -77.0Q498 -68 498 -54ZM498 633V695Q498 709 507.0 718.0Q516 727 529.0 726.0Q542 725 551.0 718.0Q560 711 560 695V633Q560 619 551.0 610.0Q542 601 529.0 602.0Q516 603 507.0 610.0Q498 617 498 633Z" />
      </g>
    </svg>