<svg xmlns="http://www.w3.org/2000/svg" viewBox="0 -7 996 786">
      <g transform="scale(1 -1) translate(0 -772)">
        <path d="M496 189 560 254 475 339 411 274V243H464V189ZM741 591Q732 600 723 591L527 395Q518 386 527.0 377.0Q536 368 545 377L741 573Q750 582 741 591ZM786 260V154Q786 87 739.0 40.0Q692 -7 625 -7H161Q94 -7 47.0 40.0Q0 87 0 154V618Q0 684 47.0 731.0Q94 778 161 779H625Q660 779 690 765Q699 761 700.5 751.5Q702 742 695 736L668 708Q660 700 650 704Q637 707 625 707H161Q124 707 98.0 681.0Q72 655 71 618V154Q71 117 98.0 91.0Q125 65 161 64H625Q662 64 688.0 91.0Q714 118 714 154V224Q714 231 719 236L755 272Q763 280 775.0 276.0Q787 272 786 260ZM732 671 893 511 518 136H357V296ZM980 598 929 546 768 707 819 759Q835 774 857.0 774.0Q879 774 895 759L980 674Q996 658 996.0 636.0Q996 614 980 598Z" />
      </g>
    </svg>