<svg xmlns="http://www.w3.org/2000/svg" viewBox="0 7 887 686">
      <g transform="scale(1 -1) translate(0 -700)">
        <path d="M53 693Q38 693 23 683Q5 670 1.0 648.5Q-3 627 10 608Q44 561 96.0 533.5Q148 506 206 506Q259 506 307.0 528.5Q355 551 389 591Q404 607 403.0 629.0Q402 651 385.5 666.0Q369 681 346.5 680.0Q324 679 309 662L308 661V660L295 647Q292 644 284 638Q255 617 219.5 614.0Q184 611 151.5 625.5Q119 640 98 670Q90 681 78.0 687.0Q66 693 53 693ZM538 693Q523 693 508 683Q490 670 486.0 648.5Q482 627 495 608Q529 561 581.5 533.5Q634 506 692 506Q744 506 792.0 528.5Q840 551 875 591Q889 608 887.5 629.5Q886 651 870.0 666.0Q854 681 831.5 680.0Q809 679 795 662H794L793 661V660L781 648V647L769 638Q740 617 704.5 614.0Q669 611 636.5 625.5Q604 640 583 670Q575 681 563.0 687.0Q551 693 538 693ZM103 114Q81 114 65.5 98.5Q50 83 50.0 61.0Q50 39 65.5 23.0Q81 7 103 7H785Q808 7 823.5 23.0Q839 39 839.0 61.0Q839 83 823.5 98.5Q808 114 785 114Z" />
      </g>
    </svg>