<svg xmlns="http://www.w3.org/2000/svg" viewBox="0 -83 774 883">
      <g transform="scale(1 -1) translate(0 -717)">
        <path d="M664 800Q634 800 609.0 780.5Q584 761 569.0 728.0Q554 695 554.0 656.0Q554 617 569.0 583.5Q584 550 609.0 530.5Q634 511 664.0 511.0Q694 511 719.0 530.5Q744 550 759.0 583.5Q774 617 774.0 656.0Q774 695 759.0 728.0Q744 761 719.0 780.5Q694 800 664 800ZM321 702H54Q32 702 16.0 686.5Q0 671 0.0 648.5Q0 626 16.0 610.0Q32 594 54 594H321Q344 594 359.5 610.0Q375 626 375.0 648.5Q375 671 359.5 686.5Q344 702 321 702ZM59 341Q49 341 40 338Q20 331 10.5 310.5Q1 290 9 270Q43 176 107.5 101.5Q172 27 258 -19Q288 -35 327 -50Q418 -83 511 -83Q598 -83 677 -56Q687 -53 708.0 -45.0Q729 -37 738 -33V-32Q758 -23 765.5 -2.0Q773 19 763.0 38.5Q753 58 733.0 65.5Q713 73 693 64L669 53Q655 48 644 45Q576 23 511 23Q438 23 363 50Q333 61 308 75Q240 111 187.5 171.0Q135 231 108 306Q102 322 88.5 331.5Q75 341 59 341Z" />
      </g>
    </svg>