<svg xmlns="http://www.w3.org/2000/svg" viewBox="0 -45 990 790">
      <g transform="scale(1 -1) translate(0 -700)">
        <path d="M495 745Q264 745 32 745Q19 745 9.5 735.5Q0 726 0 712Q1 637 40.0 565.5Q79 494 140 451Q206 404 278 403Q340 402 397.5 427.5Q455 453 496 498Q538 453 595.5 427.5Q653 402 715 403Q787 404 852 451Q913 494 951.0 565.0Q989 636 990 712Q990 726 980.5 735.5Q971 745 958 745ZM814 235Q800 235 788.0 228.5Q776 222 769 210L768 207Q759 191 744 173L742 171Q724 149 715 141Q674 103 621.5 82.0Q569 61 512 61Q477 61 448 68L438 70Q410 78 387 89Q367 98 346.5 90.5Q326 83 316.5 63.0Q307 43 314.5 22.5Q322 2 342 -8Q375 -23 411 -32Q419 -34 425 -36Q469 -45 512 -45Q590 -45 660.5 -17.0Q731 11 787 63Q806 81 827 107Q844 129 859 154L860 155Q871 174 866.0 195.5Q861 217 842 228Q827 236 814 235Z" />
      </g>
    </svg>