<svg xmlns="http://www.w3.org/2000/svg" viewBox="0 -100 999 900">
      <g transform="scale(1 -1) translate(0 -700)">
        <path d="M261 800Q232 800 206.5 780.5Q181 761 166.5 728.0Q152 695 152.0 656.0Q152 617 166.5 583.5Q181 550 206.0 530.5Q231 511 261.0 511.0Q291 511 316.0 530.5Q341 550 356.0 583.5Q371 617 371.0 656.0Q371 695 356.0 728.0Q341 761 316.0 780.5Q291 800 261 800ZM738 800Q708 800 683.0 780.5Q658 761 643.0 728.0Q628 695 628.0 656.0Q628 617 643.0 583.5Q658 550 683.0 530.5Q708 511 738.0 511.0Q768 511 793.0 530.5Q818 550 833.0 583.5Q848 617 848.0 656.0Q848 695 833.0 728.0Q818 761 793.0 780.5Q768 800 738 800ZM946 201Q924 201 909 185L897 173Q815 93 711 50Q610 9 501.5 7.5Q393 6 291 45Q187 85 105 163L90 178Q74 194 52.5 193.5Q31 193 15.5 177.0Q0 161 0.0 139.0Q0 117 16 101Q18 98 24 93L33 84Q131 -8 254 -55Q374 -102 502.5 -100.5Q631 -99 750 -50Q873 0 970 95L975 100Q981 106 984 109Q999 126 999.0 148.0Q999 170 983.5 185.5Q968 201 946 201Z" />
      </g>
    </svg>