<svg xmlns="http://www.w3.org/2000/svg" viewBox="0 -150 1446 1000">
      <g transform="scale(1 -1) translate(0 -700)">
        <path d="M744 850Q714 850 689.0 831.0Q664 812 649.5 779.0Q635 746 635.0 707.0Q635 668 649.5 635.0Q664 602 689.0 583.0Q714 564 743.5 564.0Q773 564 798.0 583.0Q823 602 837.5 635.0Q852 668 852.0 707.0Q852 746 837.5 779.0Q823 812 798.0 831.0Q773 850 744 850ZM142 770Q120 770 104.5 754.0Q89 738 89.0 716.0Q89 694 104.5 678.5Q120 663 142 663H432Q454 663 470.0 678.5Q486 694 486.0 716.0Q486 738 470.0 753.5Q454 769 432 769ZM1182 749Q1156 749 1128 742Q1053 708 1034 624Q1020 564 1035 476H904Q870 476 841.5 460.0Q813 444 796.5 415.5Q780 387 780 353Q780 292 810 255Q794 238 787 217Q773 181 779.5 141.0Q786 101 810 73Q807 69 799 57L792 46Q778 18 779.0 -17.5Q780 -53 795.5 -84.5Q811 -116 837.5 -133.0Q864 -150 902 -150H1280Q1325 -149 1363.5 -126.0Q1402 -103 1424.5 -65.0Q1447 -27 1447 19V306Q1447 334 1433 374Q1425 397 1406 440L1398 457Q1373 515 1325 631Q1301 689 1269 717Q1233 749 1182 749ZM1185 634Q1201 635 1214 616Q1221 605 1231 580L1236 567Q1246 542 1266 482Q1288 413 1300 386Q1338 301 1338 282V27Q1338 -3 1315.5 -24.0Q1293 -45 1262 -47H930Q906 -47 900 -23Q890 7 904 24Q914 37 930.0 36.5Q946 36 957.5 47.5Q969 59 969.0 75.0Q969 91 958.0 101.5Q947 112 931.5 112.0Q916 112 907 123Q896 135 895.5 156.0Q895 177 907 188Q910 193 918.5 195.5Q927 198 931 198Q946 198 957.5 209.0Q969 220 969.0 236.0Q969 252 958.0 263.0Q947 274 931 274Q912 274 904 291Q897 303 897 324Q897 333 901.5 340.5Q906 348 914 353Q913 354 1011 356Q1094 357 1124 357Q1137 357 1147.5 365.5Q1158 374 1161.0 387.0Q1164 400 1157 412Q1142 440 1136 489Q1129 542 1138 581Q1148 627 1179 633Q1181 634 1185 634ZM52 370Q40 370 32 366Q12 357 4.0 336.0Q-4 315 5 295Q54 185 146 107Q235 31 349 -2Q395 -15 439 -19Q487 -24 530 -21H535Q558 -19 572.0 -2.0Q586 15 584.5 37.0Q583 59 566.0 73.0Q549 87 527 86H524Q492 83 450 87Q418 91 378 101Q287 127 214.5 189.0Q142 251 102 339Q95 354 81.5 362.5Q68 371 52 370Z" />
      </g>
    </svg>