<svg xmlns="http://www.w3.org/2000/svg" viewBox="0 -100 999 900">
      <g transform="scale(1 -1) translate(0 -700)">
        <path d="M261 800Q232 800 206.5 780.5Q181 761 166.5 728.0Q152 695 152.0 656.0Q152 617 166.5 583.5Q181 550 206.0 530.5Q231 511 261.0 511.0Q291 511 316.0 530.5Q341 550 356.0 583.5Q371 617 371.0 656.0Q371 695 356.0 728.0Q341 761 316.0 780.5Q291 800 261 800ZM604 702Q582 702 566.0 686.0Q550 670 550.0 648.0Q550 626 566.0 610.0Q582 594 604 594H871Q894 594 909.5 610.0Q925 626 925.0 648.5Q925 671 909.5 686.5Q894 702 871 702ZM946 201Q924 201 909 185L897 173Q815 93 711 50Q610 9 501.5 7.5Q393 6 291 45Q187 85 105 163L90 178Q74 194 52.5 193.5Q31 193 15.5 177.0Q0 161 0.0 139.0Q0 117 16 101Q18 98 24 93L33 84Q131 -8 254 -55Q374 -102 502.5 -100.5Q631 -99 750 -50Q873 0 970 95L975 100Q981 106 984 109Q999 126 999.0 148.0Q999 170 983.5 185.5Q968 201 946 201Z" />
      </g>
    </svg>