<svg xmlns="http://www.w3.org/2000/svg" viewBox="0 -100 999 900">
      <g transform="scale(1 -1) translate(0 -700)">
        <path d="M261 800Q232 800 206.5 780.5Q181 761 166.5 728.0Q152 695 152.0 656.0Q152 617 166.5 583.5Q181 550 206.0 530.5Q231 511 261.0 511.0Q291 511 316.0 530.5Q341 550 356.0 583.5Q371 617 371.0 656.0Q371 695 356.0 728.0Q341 761 316.0 780.5Q291 800 261 800ZM738 800Q708 800 683.0 780.5Q658 761 643.0 728.0Q628 695 628.0 656.0Q628 617 643.0 583.5Q658 550 683.0 530.5Q708 511 738.0 511.0Q768 511 793.0 530.5Q818 550 833.0 583.5Q848 617 848.0 656.0Q848 695 833.0 728.0Q818 761 793.0 780.5Q768 800 738 800ZM494 201Q368 201 250 155Q129 107 33 17L30 14Q21 6 16 0Q0 -16 0.0 -38.0Q0 -60 15.5 -76.0Q31 -92 52.5 -92.0Q74 -92 90 -77L105 -62Q187 16 291 56Q393 95 501.5 93.5Q610 92 711 51Q815 8 897 -72L909 -84Q924 -100 946.0 -100.0Q968 -100 983.5 -84.5Q999 -69 999.0 -47.0Q999 -25 984 -8L979 -3Q973 3 970 6Q873 101 750 152Q631 200 502 201Z" />
      </g>
    </svg>