<svg xmlns="http://www.w3.org/2000/svg" viewBox="275 174 448 351">
      <g transform="scale(1 -1) translate(0 -699)">
        <path d="M276 461Q278 481 291.0 497.0Q304 513 323 520Q353 531 383.0 520.0Q413 509 424.5 481.0Q436 453 424.0 424.0Q412 395 383 383Q369 377 352.0 377.0Q335 377 322 383Q294 395 281 423Q274 442 276 461ZM318 451Q318 438 328.0 428.0Q338 418 352.0 418.0Q366 418 377.0 428.0Q388 438 387.0 451.0Q386 464 377.0 475.0Q368 486 352.0 484.0Q336 482 328.0 475.0Q320 468 318 451ZM486 174V520H724V457H554V377H699V315H554V174Z" />
      </g>
    </svg>