<svg xmlns="http://www.w3.org/2000/svg" viewBox="10 -140 980 980">
      <g transform="scale(1 -1) translate(0 -700)">
        <path d="M462 839Q449 838 429.0 834.5Q409 831 408 830H412Q463 827 490 823Q541 813 579 799Q594 793 620 782Q649 769 651 767L641 754Q632 745 620 725Q610 708 607 710Q555 725 494 724Q472 723 450.5 720.5Q429 718 427 716Q427 714 454 714Q502 712 546 697Q563 692 581.0 684.0Q599 676 599 674L580 612Q573 590 566 569Q561 550 561.5 549.0Q562 548 574 543L578 541Q600 532 622.0 516.0Q644 500 659 482Q677 459 687.0 437.5Q697 416 704 382Q704 380 798.5 430.0Q893 480 902 487Q926 506 943.0 536.5Q960 567 967 602Q977 661 949.5 715.0Q922 769 868 798Q832 817 791.0 818.5Q750 820 712 805L699 800L678 808Q624 829 572 836Q556 839 518.0 840.0Q480 841 462 839ZM185 817Q126 806 85.0 764.5Q44 723 34 664Q32 652 32.0 630.5Q32 609 35 597Q36 589 42 568L50 549L40 524Q20 471 14 422Q10 399 10 356Q10 325 11.5 308.5Q13 292 18 265L19 257L21 268L22 291Q23 318 31.0 359.0Q39 400 50 428Q55 441 68 469Q81 499 83 502L95 492Q104 484 119.5 474.0Q135 464 139 463H140Q141 463 141 462L136 443Q125 398 126 345Q127 323 129.5 301.5Q132 280 134 278L136 306Q137 355 154 400Q159 415 166.5 432.5Q174 450 175 450L238 431Q297 412 301 412Q302 412 308 427Q327 476 369.5 510.0Q412 544 466 554Q469 554 420 648Q368 746 363 752Q331 796 264 814Q248 818 224.0 819.0Q200 820 185 817ZM476 515Q426 508 389.0 474.5Q352 441 338 391Q334 375 334.0 350.5Q334 326 338 310Q348 271 374.0 241.5Q400 212 435 197Q453 190 466.0 187.5Q479 185 501.0 185.0Q523 185 538.5 188.5Q554 192 574 202Q606 218 629.0 246.5Q652 275 661 309Q665 324 665.5 348.5Q666 373 662 387Q651 434 618.5 467.0Q586 500 540 511Q527 515 507.5 516.0Q488 517 476 515ZM522 399Q539 389 547 375Q550 368 551.0 363.5Q552 359 552.0 350.0Q552 341 551.0 336.5Q550 332 547 326Q531 298 499.5 298.0Q468 298 453 326Q449 333 448.0 337.0Q447 341 447 350Q447 362 449.5 368.5Q452 375 459 384Q463 389 471.5 395.0Q480 401 487.0 402.5Q494 404 504.5 403.0Q515 402 522 399ZM978 444Q979 440 976.5 407.0Q974 374 971 356Q965 322 955.5 291.5Q946 261 929 226L923 213Q917 199 916 199L904 209Q895 217 875 230Q858 240 859 243Q874 294 873 356Q872 378 869.5 399.5Q867 421 865 423L863 395Q862 347 846 300Q839 283 832.0 267.0Q825 251 824 251L805 256Q784 263 762 270L699 289Q696 286 691 272Q682 250 666.0 228.0Q650 206 631 191Q608 173 586.0 163.0Q564 153 532 146Q530 146 580.0 51.0Q630 -44 637 -53Q655 -76 684.0 -92.5Q713 -109 746 -116Q758 -119 783.0 -118.5Q808 -118 821 -115Q864 -105 896.5 -79.5Q929 -54 948 -15Q959 6 962.5 21.0Q966 36 967.0 59.0Q968 82 966.0 96.5Q964 111 957 132L950 152L959 175Q982 231 988.0 295.5Q994 360 984 423Q980 443 979 444L977 446Q977 446 978 444ZM216 278Q128 232 118 227Q83 207 59.5 170.5Q36 134 32 89Q25 31 53.0 -20.5Q81 -72 134 -98Q156 -109 170.5 -112.5Q185 -116 209.0 -117.0Q233 -118 248.5 -116.0Q264 -114 281 -107Q295 -101 300.5 -101.0Q306 -101 324 -109Q381 -132 445.5 -138.0Q510 -144 573 -134Q591 -130 594.0 -128.0Q597 -126 591.5 -127.5Q586 -129 554.5 -127.0Q523 -125 509 -122Q489 -119 463.5 -112.5Q438 -106 421 -99Q408 -95 379.0 -81.5Q350 -68 348 -66L354 -59Q371 -40 383 -19Q388 -9 392 -9Q440 -25 505 -23Q527 -22 548.5 -19.5Q570 -17 572 -15L545 -14Q497 -11 454 3Q436 9 418.0 17.0Q400 25 400 26L419 89Q426 111 433 132L438 151Q438 152 429 156L423 159Q374 178 340.0 220.5Q306 263 296 316Q296 321 216 278Z" />
      </g>
    </svg>