<svg xmlns="http://www.w3.org/2000/svg" viewBox="36 -79 964 858">
      <g transform="scale(1 -1) translate(0 -700)">
        <path d="M179 707Q179 667 143 646V-61Q143 -68 138.0 -73.0Q133 -78 125 -79H89Q82 -79 77.0 -73.0Q72 -67 71 -61V646Q36 667 36 707Q36 737 57.0 758.0Q78 779 107.0 779.0Q136 779 158.0 758.0Q180 737 179 707ZM1000 671V246Q1000 232 993.0 224.0Q986 216 971 209Q851 144 765 144Q731 144 696.0 156.0Q661 168 636.0 183.0Q611 198 571.0 210.0Q531 222 492 222Q385 222 233 141Q223 136 214 136Q200 136 189.0 146.0Q178 156 179 171V586Q179 603 196 616Q208 624 240 640Q372 707 475 707Q535 707 587.0 691.0Q639 675 709 642Q730 631 759.0 631.0Q788 631 823.0 643.0Q858 655 885 669L934 695Q956 707 964 707Q979 707 989.0 697.0Q999 687 1000 671Z" />
      </g>
    </svg>