<svg xmlns="http://www.w3.org/2000/svg" viewBox="9 -116 980 932">
      <g transform="scale(1 -1) translate(0 -700)">
        <path d="M500 576Q471 576 450.5 555.5Q430 535 430.0 506.0Q430 477 450.5 456.5Q471 436 500.0 436.0Q529 436 549.5 456.5Q570 477 570.0 506.0Q570 535 549.5 555.5Q529 576 500 576ZM500 461Q481 461 468.0 474.0Q455 487 455.0 506.0Q455 525 468.0 538.0Q481 551 500.0 551.0Q519 551 532.0 538.0Q545 525 545.0 506.0Q545 487 532.0 474.0Q519 461 500 461ZM986 337 823 500V631Q823 636 819.0 640.0Q815 644 810 644H728Q723 644 719.0 640.0Q715 636 715 631V607L509 812Q505 816 500.0 816.0Q495 816 491 812L252 575L14 337Q11 335 10.0 331.0Q9 327 11 323Q14 316 23 316H122V-39Q122 -71 144.5 -93.5Q167 -116 199 -116H500Q500 -116 500.0 -116.0Q500 -116 500 -116H802Q833 -116 855.5 -93.5Q878 -71 878 -39V316H977Q986 316 989 324Q991 327 990.0 331.0Q989 335 986 337ZM865 341Q860 341 856.0 337.0Q852 333 852 328V-39Q852 -60 837.5 -75.0Q823 -90 802 -90H513V104H784Q789 104 792.5 107.5Q796 111 796.0 116.0Q796 121 792.5 125.0Q789 129 784 129H513V316H784Q789 316 792.5 319.5Q796 323 796.0 328.0Q796 333 792.5 337.0Q789 341 784 341H224Q219 341 215.0 337.0Q211 333 211.0 328.0Q211 323 215.0 319.5Q219 316 224 316H487V129H224Q219 129 215.0 125.5Q211 122 211.0 117.0Q211 112 215.0 108.0Q219 104 224 104H487V-90H198Q177 -90 162.5 -75.0Q148 -60 148 -39V328Q148 333 144.0 337.0Q140 341 135 341H54L270 557L500 785L719 567Q726 561 733.5 564.0Q741 567 741 576V619H798V494Q798 490 801 485L947 341Z" />
      </g>
    </svg>