<svg xmlns="http://www.w3.org/2000/svg" viewBox="10 -141 980 982">
      <g transform="scale(1 -1) translate(0 -700)">
        <path d="M979 -141H21Q17 -141 13.5 -137.5Q10 -134 10 -130V830Q10 835 13.5 838.0Q17 841 21 841H979Q984 841 987.0 838.0Q990 835 990 830V-130Q990 -134 987.0 -137.5Q984 -141 979 -141ZM32 -119H968V819H32ZM733 -136H267Q265 -136 263.5 -134.0Q262 -132 262 -130V617Q262 619 263.5 621.0Q265 623 267 623H733Q735 623 736.5 621.0Q738 619 738 617V-130Q738 -132 736.5 -134.0Q735 -136 733 -136ZM273 -125H727V612H273ZM500 -136Q498 -136 496.0 -134.0Q494 -132 494 -130V617Q494 619 496.0 621.0Q498 623 500.0 623.0Q502 623 504.0 621.0Q506 619 506 617V-130Q506 -132 504.0 -134.0Q502 -136 500 -136ZM207 143Q198 143 191.5 149.5Q185 156 185.0 165.0Q185 174 191.5 180.5Q198 187 207.5 187.0Q217 187 223.5 180.5Q230 174 230.0 165.0Q230 156 223.5 149.5Q217 143 207 143ZM340 675Q331 675 324.5 681.5Q318 688 318.0 697.0Q318 706 324.5 712.5Q331 719 340.5 719.0Q350 719 356.5 712.5Q363 706 363.0 697.0Q363 688 356.5 681.5Q350 675 340 675ZM420 675Q411 675 404.5 681.5Q398 688 398.0 697.5Q398 707 404.5 713.0Q411 719 420.5 719.0Q430 719 436.5 712.5Q443 706 443.0 698.0Q443 690 436 681Q430 675 420 675ZM500 675Q490 675 484.0 681.0Q478 687 478.0 697.0Q478 707 484.0 713.0Q490 719 500.0 719.0Q510 719 516.0 713.0Q522 707 522.0 697.0Q522 687 516.0 681.0Q510 675 500 675ZM580 675Q570 675 564.0 682.0Q558 689 558.0 698.0Q558 707 564.0 713.0Q570 719 579.5 719.0Q589 719 595.5 713.0Q602 707 602.0 698.0Q602 689 595.5 682.0Q589 675 580 675ZM660 675Q650 675 643.5 681.5Q637 688 637.0 697.0Q637 706 643.5 712.5Q650 719 659.5 719.0Q669 719 675.5 712.5Q682 706 682.0 697.0Q682 688 675.5 681.5Q669 675 660 675Z" />
      </g>
    </svg>