<svg xmlns="http://www.w3.org/2000/svg" viewBox="10 4 980 692">
      <g transform="scale(1 -1) translate(0 -700)">
        <path d="M827 635H990V471H827ZM640 696H706V629H640ZM825 168V331H661V492H498V654H10V4H987V168ZM293 118Q276 73 244.0 50.5Q212 28 169 28Q123 28 94.5 53.0Q66 78 60 125L106 129Q112 97 128.5 82.0Q145 67 171 67Q192 67 209.0 77.0Q226 87 236.5 104.5Q247 122 254.0 149.5Q261 177 261 208V218Q245 194 221.5 180.5Q198 167 168 167Q120 167 86.5 202.0Q53 237 53.0 295.5Q53 354 87 389Q124 426 175 426Q213 426 244.5 405.0Q276 384 292.0 347.5Q308 311 308.5 237.0Q309 163 293 118ZM640 378H429V257H612V211H429V35H378V424H640ZM181 386Q150 386 126.0 360.5Q102 335 102 292Q102 255 125 232Q145 209 179.5 209.0Q214 209 235.0 231.5Q256 254 256.0 296.5Q256 339 234.0 362.5Q212 386 181 386Z" />
      </g>
    </svg>