<svg xmlns="http://www.w3.org/2000/svg" viewBox="10 4 980 692">
      <g transform="scale(1 -1) translate(0 -700)">
        <path d="M827 635H990V471H827ZM640 696H706V629H640ZM825 168V331H661V492H498V654H10V4H987V168ZM304 35H47Q47 55 53 68Q62 93 84 120Q102 142 147 179Q207 227 232 261Q255 292 255.0 319.5Q255 347 234.5 366.5Q214 386 182 386Q147 386 126.0 365.0Q105 344 105 308L56 313Q60 367 94.0 396.5Q128 426 182.5 426.0Q237 426 270.5 394.5Q304 363 304 317Q304 297 294 272Q285 251 262 224Q242 201 189 156Q154 127 134 107Q124 97 114 81H304ZM640 378H429V257H612V211H429V35H378V424H640Z" />
      </g>
    </svg>