<svg xmlns="http://www.w3.org/2000/svg" viewBox="10 4 980 692">
      <g transform="scale(1 -1) translate(0 -700)">
        <path d="M827 635H990V471H827ZM640 696H706V629H640ZM183 245Q151 245 128.5 222.5Q106 200 106 161Q106 134 116.0 112.5Q126 91 145.0 79.0Q164 67 185 67Q216 67 237.5 91.5Q259 116 259.0 157.5Q259 199 237 221Q216 245 183 245ZM825 168V331H661V492H498V654H10V4H987V168ZM292 93Q277 62 249.5 45.0Q222 28 186 28Q127 28 89.0 72.0Q51 116 51 217Q51 330 93 381Q128 425 191 425Q237 425 266.0 400.5Q295 376 301 329L254 325Q246 354 236 366Q216 386 188 386Q164 386 148 373Q126 357 112.5 326.0Q99 295 99 235Q116 262 141.0 274.5Q166 287 193 287Q240 287 275 252Q308 216 308 161Q308 124 292 93ZM640 378H429V257H612V211H429V35H378V424H640Z" />
      </g>
    </svg>