<svg xmlns="http://www.w3.org/2000/svg" viewBox="94 -140 812 980">
      <g transform="scale(1 -1) translate(0 -700)">
        <path d="M622 641V774H576V840H506V774H460V641H404V-140H678V641ZM466 15H431V80H466ZM466 122H431V187H466ZM466 229H431V294H466ZM466 336H431V400H466ZM466 443H431V507H466ZM466 548H431V612H466ZM525 15H490V80H525ZM525 122H490V187H525ZM525 229H490V294H525ZM525 336H490V400H525ZM525 443H490V507H525ZM525 548H490V612H525ZM525 677H490V742H525ZM585 15H550V80H585ZM585 122H550V187H585ZM585 229H550V294H585ZM585 336H550V400H585ZM585 443H550V507H585ZM585 548H550V612H585ZM585 677H550V742H585ZM645 15H610V80H645ZM645 122H610V187H645ZM645 229H610V294H645ZM645 336H610V400H645ZM645 443H610V507H645ZM645 548H610V612H645ZM94 641V-140H384V641ZM175 -57H144V8H175ZM175 60H144V125H175ZM175 177H144V241H175ZM175 294H144V358H175ZM175 410H144V475H175ZM175 527H144V592H175ZM228 -57H197V8H228ZM228 60H197V125H228ZM228 177H197V241H228ZM228 294H197V358H228ZM228 410H197V475H228ZM228 527H197V592H228ZM281 -57H250V8H281ZM281 60H250V125H281ZM281 177H250V241H281ZM281 294H250V358H281ZM281 410H250V475H281ZM281 527H250V592H281ZM334 -57H303V8H334ZM334 60H303V125H334ZM334 177H303V241H334ZM334 294H303V358H334ZM334 410H303V475H334ZM334 527H303V592H334ZM691 439V-140H906V439ZM751 -78H728V-30H751ZM751 8H728V56H751ZM751 95H728V143H751ZM751 182H728V229H751ZM751 268H728V316H751ZM751 355H728V403H751ZM791 -78H768V-30H791ZM791 8H768V56H791ZM791 95H768V143H791ZM791 182H768V229H791ZM791 268H768V316H791ZM791 355H768V403H791ZM830 -78H807V-30H830ZM830 8H807V56H830ZM830 95H807V143H830ZM830 182H807V229H830ZM830 268H807V316H830ZM830 355H807V403H830ZM869 -78H846V-30H869ZM869 8H846V56H869ZM869 95H846V143H869ZM869 182H846V229H869ZM869 268H846V316H869ZM869 355H846V403H869Z" />
      </g>
    </svg>