<svg xmlns="http://www.w3.org/2000/svg" viewBox="10 4 980 692">
      <g transform="scale(1 -1) translate(0 -700)">
        <path d="M827 635H990V471H827ZM640 696H706V629H640ZM181 264Q209 264 226.5 281.5Q244 299 244.0 324.5Q244 350 226.0 368.0Q208 386 181.0 386.0Q154 386 135.5 368.5Q117 351 117 327Q117 299 135.0 281.5Q153 264 181 264ZM180 225Q145 225 123.5 203.0Q102 181 102 147Q102 126 111 108Q122 88 140.5 78.0Q159 68 181 68Q216 68 238.0 89.5Q260 111 260.0 146.0Q260 181 236.5 203.0Q213 225 180 225ZM825 168V331H661V492H498V654H10V4H987V168ZM274 62Q239 28 181.5 28.0Q124 28 88.0 62.5Q52 97 52 147Q52 185 71.0 211.0Q90 237 126 246Q96 257 82.0 277.0Q68 297 68 325Q68 367 98 397Q129 425 180.5 425.0Q232 425 262.5 395.0Q293 365 293 324Q293 297 278.5 276.5Q264 256 235 246Q270 234 289.5 207.5Q309 181 309 146Q309 97 274 62ZM640 378H429V257H612V211H429V35H378V424H640Z" />
      </g>
    </svg>