<svg xmlns="http://www.w3.org/2000/svg" viewBox="10 4 980 692">
      <g transform="scale(1 -1) translate(0 -700)">
        <path d="M827 635H990V471H827ZM640 696H706V629H640ZM825 168V331H661V492H498V654H10V4H987V168ZM280 75Q242 28 178 28Q126 28 91.5 58.5Q57 89 53 137L103 141Q109 103 128.5 85.0Q148 67 178 67Q212 67 236.0 93.5Q260 120 260.0 161.0Q260 202 237.5 226.0Q215 250 177 250Q154 250 135.0 239.5Q116 229 106 213L61 219L99 419H292V373H137L116 268Q150 293 189 293Q239 293 275.0 257.0Q311 221 311.0 167.0Q311 113 280 75ZM640 378H429V257H612V211H429V35H378V424H640Z" />
      </g>
    </svg>