<svg xmlns="http://www.w3.org/2000/svg" viewBox="10 -115 980 930">
      <g transform="scale(1 -1) translate(0 -700)">
        <path d="M441 510Q441 485 458.0 468.0Q475 451 500.0 451.0Q525 451 542.0 468.0Q559 485 559 510Q559 535 542.0 552.0Q525 569 500.0 569.0Q475 569 458.0 552.0Q441 535 441 510ZM819 498V639H734V582L500 815L255 571L10 328H125V-50Q125 -77 144.0 -96.0Q163 -115 190 -115H810Q837 -115 856.0 -96.0Q875 -77 875 -50V328H990ZM216 110H791ZM216 328H791ZM500 328V-115Z" />
      </g>
    </svg>