<svg xmlns="http://www.w3.org/2000/svg" viewBox="10 4 980 692">
      <g transform="scale(1 -1) translate(0 -700)">
        <path d="M827 635H990V471H827ZM640 696H706V629H640ZM825 168V331H661V492H498V654H10V4H987V168ZM271 63Q235 28 177 28Q127 28 93.0 59.0Q59 90 53 138L101 144Q110 102 129.5 84.5Q149 67 177 67Q212 67 235.0 90.5Q258 114 258.0 148.0Q258 182 236.5 203.0Q215 224 182 224Q170 224 148 219L153 261L161 260Q190 260 215.0 276.5Q240 293 240 325Q240 352 223.0 369.0Q206 386 177.0 386.0Q148 386 130.0 368.5Q112 351 106 316L58 324Q67 372 97.5 398.5Q128 425 175 425Q208 425 234.5 412.0Q261 399 275.0 376.0Q289 353 289 324Q289 298 276.0 278.5Q263 259 236 246Q270 237 289.0 212.5Q308 188 308 150Q308 99 271 63ZM640 378H429V257H612V211H429V35H378V424H640Z" />
      </g>
    </svg>