<svg xmlns="http://www.w3.org/2000/svg" viewBox="94 -23 812 812">
      <g transform="scale(1 -1) translate(0 -766)">
        <path d="M94 8Q94 22 103.0 31.0Q112 40 125 39H875Q888 39 897.0 31.0Q906 23 906.0 8.0Q906 -7 897.0 -14.0Q888 -21 875 -23H125Q111 -23 103.0 -14.0Q95 -5 94 8ZM94 133Q94 147 103.0 156.0Q112 165 125 164H875Q888 164 897.0 156.0Q906 148 906.0 133.0Q906 118 897.0 111.0Q888 104 875 102H125Q111 102 103.0 111.0Q95 120 94 133ZM94 258Q94 272 103.0 280.0Q112 288 125 289H875Q888 289 897.0 280.0Q906 271 906.0 258.0Q906 245 897.0 236.0Q888 227 875 227H125Q111 227 103.0 236.0Q95 245 94 258ZM94 383Q94 397 103.0 405.0Q112 413 125 414H187Q201 414 210.0 405.0Q219 396 219.0 383.0Q219 370 210.0 360.0Q201 350 187 352H125Q111 352 103.0 360.0Q95 368 94 383ZM213 625Q202 637 202.0 648.0Q202 659 213.0 670.0Q224 681 235.0 681.0Q246 681 258 670L301 625Q311 614 311.0 604.0Q311 594 301.0 582.0Q291 570 279 571L258 582ZM281 383Q281 473 346.0 537.0Q411 601 500.0 602.0Q589 603 654.0 537.0Q719 471 718 383Q718 374 714 352H652Q656 368 656 383Q656 447 610.0 493.0Q564 539 500.0 539.0Q436 539 389.0 493.0Q342 447 344 383Q344 368 348 352H285Q281 374 281 383ZM469 695V758Q469 771 477.0 780.0Q485 789 500.0 789.0Q515 789 522.0 780.0Q529 771 531 758V695Q531 682 522.0 673.0Q513 664 500.0 664.0Q487 664 477.0 673.0Q467 682 469 695ZM699 582Q688 593 688.0 604.0Q688 615 699 625L742 670Q754 681 765.0 681.0Q776 681 787.0 670.0Q798 659 797.0 648.0Q796 637 787 625L742 582Q731 571 720 571ZM781 383Q781 397 790.0 405.0Q799 413 812 414H875Q888 414 897.0 405.0Q906 396 906.0 383.0Q906 370 897.0 360.0Q888 350 875 352H812Q798 352 790.0 360.0Q782 368 781 383Z" />
      </g>
    </svg>