<svg xmlns="http://www.w3.org/2000/svg" viewBox="94 -23 812 746">
      <g transform="scale(1 -1) translate(0 -700)">
        <path d="M94 8Q94 22 103.0 31.0Q112 40 125 39H875Q888 39 897.0 31.0Q906 23 906.0 8.0Q906 -7 897.0 -14.0Q888 -21 875 -23H125Q111 -23 103.0 -14.0Q95 -5 94 8ZM94 133Q94 147 103.0 156.0Q112 165 125 164H875Q888 164 897.0 156.0Q906 148 906.0 133.0Q906 118 897.0 111.0Q888 104 875 102H125Q111 102 103.0 111.0Q95 120 94 133ZM94 258Q94 272 103.0 280.0Q112 288 125 289H875Q888 289 897.0 280.0Q906 271 906.0 258.0Q906 245 897.0 236.0Q888 227 875 227H125Q111 227 103.0 236.0Q95 245 94 258ZM282 512Q291 600 353 662Q392 701 447 721Q453 723 458 723Q470 723 480.0 713.0Q490 703 490 692Q490 687 488 682Q476 649 476 616Q476 596 480 576Q492 524 531.0 485.5Q570 447 622 436Q641 431 661 431L726 443Q732 445 736 445Q748 445 758.0 436.0Q768 427 767 414Q767 408 765 402Q755 375 742 352H660Q675 365 677 369H658Q559 369 487 442Q413 516 413 618Q413 625 414 633L398 619Q344 564 344.0 486.0Q344 408 398 354L400 352H320Q281 413 281 484Q281 498 282 512Z" />
      </g>
    </svg>