<svg xmlns="http://www.w3.org/2000/svg" viewBox="187 161 625 438">
      <g transform="scale(1 -1) translate(0 -760)">
        <path d="M187 194Q187 207 196.0 216.0Q205 225 219 225H781Q795 225 803.0 216.0Q811 207 812.0 194.0Q813 181 803.0 171.0Q793 161 781 162H219Q205 162 196.0 171.0Q187 180 187 194ZM187 319Q187 332 196.0 341.0Q205 350 219 350H781Q795 350 803.0 341.0Q811 332 812.0 319.0Q813 306 803.0 296.0Q793 286 781 287H219Q205 287 196.0 296.0Q187 305 187 319ZM187 443Q187 457 196.0 466.0Q205 475 219 475H781Q795 475 803.0 466.0Q811 457 812.0 443.0Q813 429 803.0 421.0Q793 413 781 412H219Q205 412 196.0 421.0Q187 430 187 443ZM187 568Q187 582 196.0 591.0Q205 600 219 600H781Q795 600 803.0 591.0Q811 582 812.0 568.0Q813 554 803.0 546.0Q793 538 781 537H219Q205 537 196.0 546.0Q187 555 187 568Z" />
      </g>
    </svg>