<svg xmlns="http://www.w3.org/2000/svg" viewBox="0 -150 786 1000">
      <g transform="scale(1 -1) translate(0 -700)">
        <path d="M357 814V457Q357 423 337.0 395.0Q317 367 286 356V-79Q286 -108 265.0 -129.0Q244 -150 214 -150H143Q114 -150 93.0 -129.0Q72 -108 71 -79V356Q40 367 20.0 395.0Q0 423 0 457V814Q0 829 11.0 839.0Q22 849 36.0 850.0Q50 851 61.0 839.0Q72 827 71 814V582Q71 568 82.0 557.0Q93 546 107.0 546.0Q121 546 132.0 557.0Q143 568 143 582V814Q143 829 154.0 839.0Q165 849 179.0 850.0Q193 851 204.0 839.0Q215 827 214 814V582Q214 568 225.0 557.0Q236 546 250.0 546.0Q264 546 275.0 557.0Q286 568 286 582V814Q286 829 296.0 839.0Q306 849 321.0 850.0Q336 851 347.0 839.0Q358 827 357 814ZM786 814V-79Q786 -108 765.0 -129.0Q744 -150 714 -150H643Q614 -150 593.0 -129.0Q572 -108 571 -79V207H446Q439 207 434.0 212.0Q429 217 429 225V671Q429 745 481.0 798.0Q533 851 607 850H750Q765 850 775.0 839.0Q785 828 786 814Z" />
      </g>
    </svg>