<svg xmlns="http://www.w3.org/2000/svg" viewBox="9 -129 980 957">
      <g transform="scale(1 -1) translate(0 -699)">
        <path d="M759 825Q638 762 532 705Q433 651 429.5 648.0Q426 645 425.0 642.5Q424 640 424.0 635.0Q424 630 426.5 625.0Q429 620 437 608Q442 600 452 587L460 576L431 560Q401 545 395.5 541.5Q390 538 384.5 538.0Q379 538 362 542Q353 543 353 547Q356 556 356.0 563.0Q356 570 353.5 572.5Q351 575 346.0 575.0Q341 575 339 573Q337 568 326 497Q319 450 317.5 436.5Q316 423 318 421Q321 417 325.5 416.5Q330 416 333.0 420.5Q336 425 337.0 432.0Q338 439 341 439Q347 438 478.0 399.5Q609 361 610 360L620 346Q632 331 642 315Q673 271 677 268Q682 264 687.0 263.5Q692 263 704.5 268.5Q717 274 746 289L839 338Q978 410 982.0 414.0Q986 418 988.5 424.5Q991 431 989.5 435.5Q988 440 892.0 628.0Q796 816 793 820Q780 834 759 825ZM873 622Q925 520 969 432Q969 429 946 416Q920 401 830 354L691 281L687 286Q679 295 561.5 464.0Q444 633 444.5 635.0Q445 637 609.5 724.0Q774 811 775.5 810.0Q777 809 805 754Q838 691 873 622ZM486 537Q494 526 501 515Q501 514 459 523L426 530Q419 532 420 533L430 539Q469 559 470 559L475 553Q481 545 486 537ZM436 507 519 491 555 440 590 388Q589 387 467.0 422.5Q345 458 343.5 459.0Q342 460 346.5 492.0Q351 524 352 524L378 519Q407 513 436 507ZM760 676Q736 663 729.5 657.5Q723 652 723 642Q724 635 767 565Q784 536 799 512Q812 492 815 489Q822 484 831.5 485.5Q841 487 859.5 497.0Q878 507 883.0 510.5Q888 514 888.0 517.5Q888 521 849 598Q811 672 804 685Q798 692 794 692Q792 692 781.5 687.0Q771 682 760 676ZM827 596Q865 524 863.5 521.5Q862 519 846.0 511.5Q830 504 828.0 505.0Q826 506 785.5 572.5Q745 639 743.5 642.5Q742 646 764.5 657.5Q787 669 788.0 669.0Q789 669 801.0 646.5Q813 624 827 596ZM268 546Q265 546 262.5 544.0Q260 542 260.0 537.0Q260 532 262.5 530.0Q265 528 284.0 527.5Q303 527 306 529Q313 536 306 542Q303 544 288.5 545.5Q274 547 268 546ZM228 540Q227 540 221 538L214 535Q205 531 202.0 527.5Q199 524 202.5 519.0Q206 514 210.0 514.5Q214 515 230 520Q243 524 246.5 528.0Q250 532 248 537Q246 540 244.0 541.0Q242 542 238 541Q229 541 228 540ZM169 505Q159 495 157.0 490.0Q155 485 159.0 481.0Q163 477 168.0 479.0Q173 481 183 492Q196 505 196.0 508.0Q196 511 192.0 514.5Q188 518 185.0 518.0Q182 518 169 505ZM248 478Q243 475 242.0 471.0Q241 467 244.5 464.0Q248 461 266.0 460.0Q284 459 288.0 460.5Q292 462 291.5 467.5Q291 473 286.5 475.5Q282 478 267.5 479.0Q253 480 248 478ZM214 471Q210 470 196 463Q190 460 188.0 458.0Q186 456 186 452Q186 444 191.5 443.5Q197 443 213 450Q225 455 228.0 457.5Q231 460 231 463Q232 469 228.5 471.5Q225 474 223.0 474.0Q221 474 214 471ZM162 437Q161 433 163.5 430.0Q166 427 171.0 427.0Q176 427 176.0 428.5Q176 430 171 435Q165 440 164.0 440.5Q163 441 162 437ZM19 408Q14 406 11.5 402.0Q9 398 12.0 385.0Q15 372 23 356Q27 346 31.5 340.0Q36 334 45 325Q60 310 78.0 304.0Q96 298 123 297H144V161H96Q47 161 39.5 159.0Q32 157 27.0 152.0Q22 147 21.0 141.5Q20 136 35 16Q51 -101 51.0 -105.0Q51 -109 34 -109Q22 -109 18.5 -109.5Q15 -110 12.0 -113.5Q9 -117 10.0 -120.5Q11 -124 16.0 -126.5Q21 -129 318.0 -129.0Q615 -129 620.5 -126.5Q626 -124 626.5 -119.0Q627 -114 624.0 -112.0Q621 -110 612.5 -109.5Q604 -109 583 -109H547V-86L559 -79Q571 -73 592 -52Q621 -24 630 7Q631 12 632.5 13.0Q634 14 639 12Q657 6 660 -18Q661 -25 662.0 -27.5Q663 -30 668 -32Q681 -38 682 -48Q683 -52 685.0 -54.0Q687 -56 693 -59L694 -60Q700 -63 702.0 -65.5Q704 -68 705 -73Q707 -81 709.5 -83.0Q712 -85 719 -85Q728 -85 737.5 -91.5Q747 -98 750 -106Q751 -108 745.0 -108.5Q739 -109 710.5 -109.0Q682 -109 674.5 -109.5Q667 -110 664.5 -112.5Q662 -115 662.0 -119.0Q662 -123 665.5 -125.5Q669 -128 722.0 -128.5Q775 -129 780.5 -126.0Q786 -123 788.5 -125.5Q791 -128 809.5 -128.0Q828 -128 831 -125Q838 -118 831 -112Q827 -109 810.0 -109.0Q793 -109 789 -111Q788 -114 783.5 -111.5Q779 -109 775.5 -109.0Q772 -109 769 -101Q766 -90 753.0 -78.5Q740 -67 730 -67Q725 -67 721.5 -60.0Q718 -53 709 -46L702 -41V4Q702 50 699.5 52.0Q697 54 691.5 53.5Q686 53 684.0 49.5Q682 46 682 15L681 -9Q681 -12 680 -8Q677 6 666.5 16.5Q656 27 642 31Q638 32 637.0 33.5Q636 35 636.0 42.0Q636 49 640 59Q649 76 643 96Q639 110 624.5 120.5Q610 131 595 131Q590 131 588.0 132.5Q586 134 584 139Q581 147 571.5 155.0Q562 163 554 165Q549 167 546.5 169.0Q544 171 541 178Q532 197 510.0 201.0Q488 205 472 191L465 185L456 189Q448 193 437 193Q429 193 426.0 194.0Q423 195 416 202Q399 221 372.5 222.0Q346 223 327 210Q319 204 312.5 194.5Q306 185 304.0 177.5Q302 170 299.0 166.0Q296 162 290.0 161.5Q284 161 253 161H212V199Q212 236 210.5 240.0Q209 244 203.0 244.5Q197 245 194.5 241.5Q192 238 192 200V161H164V279Q164 398 162.0 401.0Q160 404 155.0 404.5Q150 405 147 402Q145 401 144 384V375V350L140 356Q115 391 77 403Q67 406 47.5 407.5Q28 409 19 408ZM66 386Q111 374 132 330Q137 320 136.0 318.0Q135 316 124 316Q98 316 78.0 325.0Q58 334 47 352Q42 359 36.5 371.0Q31 383 31.0 386.0Q31 389 44.5 388.5Q58 388 66 386ZM383 202Q402 195 408 181Q412 174 415.5 173.0Q419 172 427 174Q444 177 459 165Q466 159 470.0 159.5Q474 160 479 168Q488 183 501 183Q511 183 518.0 176.0Q525 169 525.0 159.0Q525 149 537 149Q545 149 553.0 144.0Q561 139 565.0 131.5Q569 124 569.0 119.5Q569 115 572.5 113.0Q576 111 585 112Q601 114 612.5 105.0Q624 96 625.5 82.5Q627 69 616 58Q598 41 576 52Q568 55 563.0 62.0Q558 69 557 78Q557 81 556.0 85.0Q555 89 554 90Q550 92 538.5 93.0Q527 94 521 97Q513 101 511.5 101.0Q510 101 499 94Q483 84 466 91Q459 94 455.0 91.0Q451 88 449 78Q448 51 416 48L402 46Q400 44 397.5 39.0Q395 34 387.0 29.5Q379 25 379.0 21.0Q379 17 386 10Q391 6 392.5 3.5Q394 1 394 -3Q394 -11 388.0 -15.5Q382 -20 374.5 -18.5Q367 -17 363 -9Q358 2 370.0 11.0Q382 20 365 29Q355 34 351.0 42.0Q347 50 341.5 50.5Q336 51 330 44Q320 33 306.5 39.5Q293 46 296 62Q298 70 295.0 73.0Q292 76 285.0 76.0Q278 76 272.0 80.0Q266 84 263.5 90.0Q261 96 260.5 98.5Q260 101 261 106Q267 122 288 122Q299 122 302.0 124.0Q305 126 305 133Q305 146 316 154Q320 157 322 165Q327 194 355 203Q361 205 369.0 204.5Q377 204 383 202ZM266 137Q250 129 243.5 115.5Q237 102 243 86L245 78H48L47 84Q43 102 41.0 119.0Q39 136 40.0 138.0Q41 140 62 141Q79 141 158 141H258Q268 140 268.5 139.5Q269 139 266 137ZM520 77Q526 74 531.0 74.0Q536 74 540 64Q542 56 549.5 47.5Q557 39 565.0 34.5Q573 30 587.5 29.5Q602 29 612 33Q615 34 615.5 33.5Q616 33 615 28Q610 0 592.0 -24.0Q574 -48 547 -64L532 -73H344L327 -63Q296 -44 278.5 -16.0Q261 12 261 43Q260 49 260.5 54.5Q261 60 262 61L269 60Q273 59 274.0 57.0Q275 55 276 50Q278 33 295.5 23.5Q313 14 330 21Q335 23 337.0 23.0Q339 23 342 21Q347 18 346 14Q336 -8 349 -25Q356 -33 369.0 -36.0Q382 -39 392 -35Q397 -33 403.0 -27.5Q409 -22 411.5 -17.0Q414 -12 414.0 -2.0Q414 8 411.0 13.0Q408 18 408.0 19.0Q408 20 410.5 23.5Q413 27 423 29Q437 31 451.0 42.0Q465 53 467 64Q468 67 470.0 68.0Q472 69 480 69Q493 69 503 74L512 79ZM240 48Q239 38 243.0 21.0Q247 4 252 -7Q261 -28 284 -53L298 -67L292 -108H183Q105 -109 89.0 -108.5Q73 -108 72.5 -105.0Q72 -102 62.0 -26.5Q52 49 50 53L49 58H241ZM326 -84Q331 -87 332.0 -88.5Q333 -90 333 -98V-109H313L314 -96Q315 -81 318 -81ZM527 -100V-109H353V-91H440L526 -92ZM393 120Q391 116 391.0 114.5Q391 113 392.5 109.5Q394 106 396.0 105.0Q398 104 403.0 104.0Q408 104 410.5 105.0Q413 106 414.5 109.5Q416 113 416.0 114.5Q416 116 413.0 120.5Q410 125 403.5 125.0Q397 125 393 120ZM628 -63Q622 -70 626.0 -77.0Q630 -84 638.0 -82.5Q646 -81 647.5 -74.0Q649 -67 644 -62Q635 -56 628 -63Z" />
      </g>
    </svg>