<svg xmlns="http://www.w3.org/2000/svg" viewBox="10 -47 980 794">
      <g transform="scale(1 -1) translate(0 -700)">
        <path d="M138 746Q130 743 127.0 736.0Q124 729 124 709L123 683L72 681Q39 680 31.5 679.5Q24 679 21.0 675.0Q18 671 18.0 663.0Q18 655 21.0 649.5Q24 644 36.5 642.0Q49 640 82 640H124V575H78Q45 575 37.0 574.5Q29 574 25 570Q18 564 18.0 554.5Q18 545 25 539Q29 535 37.0 534.5Q45 534 78 534H124V466H76Q42 466 34.5 465.5Q27 465 23.0 461.0Q19 457 18.0 449.0Q17 441 20.5 435.0Q24 429 36.5 427.0Q49 425 82 425H124V360H89Q60 360 48.5 357.5Q37 355 26.5 345.0Q16 335 13.0 322.5Q10 310 10.0 274.0Q10 238 13.0 226.5Q16 215 26.5 204.5Q37 194 48.5 191.5Q60 189 89 189H124V-36L130 -41Q136 -47 145.5 -47.0Q155 -47 160 -41Q163 -38 164.0 -31.5Q165 -25 166 -2V189H254V99Q254 45 254 31Q255 10 257.5 5.0Q260 0 267 -3Q281 -8 291 5Q294 9 295 26Q295 39 295 100V189H705V100Q705 39 706 26Q706 9 709 5Q719 -8 733 -3Q740 0 742.5 5.0Q745 10 746 31Q746 45 746 99V189H834V-36L841 -42Q847 -47 855.0 -47.0Q863 -47 870 -42L876 -36V189H911Q940 189 951.5 191.5Q963 194 973.5 204.0Q984 214 987.0 226.5Q990 239 990.0 274.5Q990 310 987.0 322.5Q984 335 973.5 345.0Q963 355 951.5 357.5Q940 360 911 360H876V425H920Q950 425 962.0 426.5Q974 428 978.0 432.5Q982 437 982 448Q982 456 977.5 460.5Q973 465 966.0 465.5Q959 466 924 466H876V534H922Q955 534 963.0 534.5Q971 535 976 539Q983 545 983.0 554.5Q983 564 976 570Q971 574 963.0 574.5Q955 575 922 575H876V640H918Q951 640 963.5 642.0Q976 644 979.5 650.0Q983 656 982.0 664.0Q981 672 977.0 676.0Q973 680 966.0 680.5Q959 681 924 681H876V708Q876 726 875.0 731.0Q874 736 870 741Q863 747 855.0 747.0Q847 747 841 741Q836 737 835.0 732.0Q834 727 834 709L833 683H167L166 709Q166 726 165.0 731.5Q164 737 160 740Q148 750 138 746ZM834 608V575H166V640H834ZM834 500V466L167 468L165 534H834ZM834 392V360H166V425H834ZM943 313Q947 310 948.0 303.5Q949 297 949.0 274.0Q949 251 948.0 245.0Q947 239 944.0 236.0Q941 233 933 233Q921 231 882.5 230.5Q844 230 752 230H248Q156 230 117.5 230.5Q79 231 67 233Q59 233 56.0 236.0Q53 239 52.5 245.0Q52 251 52.0 274.5Q52 298 52.5 304.0Q53 310 56.0 313.0Q59 316 67 316Q79 318 117.5 318.5Q156 319 248 319H752Q844 319 882.5 318.5Q921 318 933 316Q941 316 943 313Z" />
      </g>
    </svg>