<svg xmlns="http://www.w3.org/2000/svg" viewBox="10 -94 980 888">
      <g transform="scale(1 -1) translate(0 -700)">
        <path d="M687 792Q695 796 703.5 793.5Q712 791 717 783L926 422Q931 414 928.0 405.0Q925 396 917 392L916 391L557 183Q549 178 539.5 181.0Q530 184 526 192L318 552Q313 560 315.5 569.5Q318 579 326 583ZM690 741 605 692 661 595Q665 587 662.5 578.0Q660 569 652 565L539 499Q531 494 521.5 497.0Q512 500 508 508L452 604L368 555L553 233L639 282L583 379Q578 387 580.5 396.0Q583 405 591 409L704 475Q712 479 721.0 477.0Q730 475 735 467L791 371L875 419ZM525 162Q552 162 576 152L934 359Q948 367 963.0 362.5Q978 358 985.5 344.5Q993 331 988.5 316.0Q984 301 971 294L635 99Q653 68 653 34Q653 8 643.0 -15.5Q633 -39 615.5 -56.5Q598 -74 574.5 -84.0Q551 -94 524.5 -94.0Q498 -94 474.5 -84.0Q451 -74 434 -56L431 -54Q415 -36 405.5 -13.5Q396 9 396.0 34.5Q396 60 406.0 83.0Q416 106 434 125L437 128L138 645H47Q32 645 21.0 656.5Q10 668 10.0 683.5Q10 699 21.0 710.0Q32 721 47 721H160Q171 721 180.0 715.0Q189 709 194 699L505 162H525ZM562 72Q545 87 525 87Q502 87 486.5 71.5Q471 56 471.0 34.0Q471 12 486 -2L487 -3Q501 -19 525 -19Q546 -19 562 -3V-4Q577 13 577.0 34.0Q577 55 562 72ZM566 669 491 627 536 550 610 593ZM707 425 633 382 678 305 751 348Z" />
      </g>
    </svg>