<svg xmlns="http://www.w3.org/2000/svg" viewBox="10 42 979 615">
      <g transform="scale(1 -1) translate(0 -699)">
        <path d="M504 656Q499 654 424 573L348 491L225 490H128Q100 489 99 488Q96 485 96 324V162L92 159Q88 157 84.5 149.0Q81 141 74.5 138.5Q68 136 62.5 129.5Q57 123 55.5 116.5Q54 110 49 105Q42 98 41.0 92.5Q40 87 35.0 83.5Q30 80 26.5 73.5Q23 67 23.0 61.5Q23 56 18.0 55.5Q13 55 11.0 52.0Q9 49 11.0 46.5Q13 44 19.0 43.0Q25 42 41 42Q69 42 71.0 44.5Q73 47 73.0 48.5Q73 50 70 53Q66 56 52 56H37V62Q37 66 41.0 70.5Q45 75 50 77Q53 77 53 83Q53 93 63 99Q67 100 68.0 102.5Q69 105 69.0 111.0Q69 117 73.5 122.0Q78 127 83.0 127.0Q88 127 91.5 130.0Q95 133 95.0 138.5Q95 144 101 148Q105 151 108.0 152.0Q111 153 117 152H127L128 164Q129 174 132.0 179.0Q135 184 142.5 186.5Q150 189 152.0 195.0Q154 201 161 205Q165 207 166.0 209.5Q167 212 167.0 220.5Q167 229 168.0 231.5Q169 234 174.5 239.0Q180 244 181.0 246.5Q182 249 182.0 258.0Q182 267 186.0 272.5Q190 278 199 281Q205 283 207.0 285.0Q209 287 210 292L213 300L219 303Q222 304 227 307L237 314Q240 316 241.0 318.0Q242 320 241.0 326.5Q240 333 241.0 335.5Q242 338 247 343Q254 350 254 352Q254 357 258.5 363.5Q263 370 268 372L276 376V101L271 106L264 117Q258 128 246.0 130.0Q234 132 224 125Q216 119 215.0 115.0Q214 111 211.0 111.0Q208 111 202.5 105.0Q197 99 192 89L185 75L175 76Q157 77 151 63L149 56H131Q113 55 111.0 52.0Q109 49 111.5 46.5Q114 44 129.0 43.0Q144 42 194.5 42.0Q245 42 260 43Q272 44 273.5 46.0Q275 48 273.5 51.0Q272 54 263 55L217 56Q164 56 164.0 59.0Q164 62 168.0 63.0Q172 64 177 62Q187 60 190.5 60.5Q194 61 197.0 68.5Q200 76 204 80Q207 82 207 87Q207 96 218 99Q224 101 226 105Q232 118 242.5 117.0Q253 116 256 103Q256 98 260.5 96.0Q265 94 268.5 90.0Q272 86 278 87Q282 88 283.5 87.0Q285 86 287.0 83.0Q289 80 291.5 79.0Q294 78 299.0 78.0Q304 78 308.0 75.0Q312 72 312.0 67.0Q312 62 308.5 59.0Q305 56 299.5 56.0Q294 56 290.5 53.0Q287 50 289.0 47.5Q291 45 331 44Q383 43 573 43Q755 42 811 43Q856 44 858.5 46.5Q861 49 858.5 52.0Q856 55 850 56Q847 56 845.5 57.5Q844 59 842 63Q839 70 833.5 73.0Q828 76 819 76Q812 75 809.5 76.0Q807 77 804 82Q799 89 799.0 92.5Q799 96 792.5 103.0Q786 110 781 111Q774 113 771 119Q765 127 761.0 128.5Q757 130 753 134L749 137L744 142V189Q744 236 746.0 236.0Q748 236 750.5 232.0Q753 228 755.5 227.0Q758 226 764.0 226.5Q770 227 774.5 224.0Q779 221 779.0 217.0Q779 213 781.5 210.5Q784 208 788.0 208.0Q792 208 795.5 204.5Q799 201 800.5 196.0Q802 191 805 189L813 185Q818 182 820 180Q827 177 827.0 172.5Q827 168 833.5 162.5Q840 157 843.5 157.0Q847 157 851.5 161.5Q856 166 864.0 163.5Q872 161 874.0 153.5Q876 146 882.5 144.0Q889 142 891.5 139.5Q894 137 895 131Q896 127 897.5 126.0Q899 125 902 124Q912 122 915 110Q916 104 922.0 102.5Q928 101 931.5 97.0Q935 93 935 89Q935 87 939.5 83.5Q944 80 945.0 81.0Q946 82 949.0 81.0Q952 80 955.5 77.0Q959 74 959 65V56H919L894 55Q888 54 887.0 51.5Q886 49 887.5 46.5Q889 44 898.5 43.0Q908 42 938.0 42.0Q968 42 977.5 43.0Q987 44 989.0 46.5Q991 49 988.5 52.0Q986 55 980.5 55.5Q975 56 974.0 57.5Q973 59 973 66Q973 84 956 93Q947 97 944 103Q939 111 934 112Q927 117 924.5 122.5Q922 128 914.5 133.0Q907 138 904 143Q900 150 894.0 154.0Q888 158 882 165Q880 169 877.0 171.0Q874 173 868 176L858 180V197L859 215L865 216Q873 218 882.5 225.5Q892 233 897 241Q900 246 901.0 250.5Q902 255 903 265V267Q904 278 905.0 282.0Q906 286 909 290Q921 305 908 332Q904 342 897.5 345.5Q891 349 886.0 346.5Q881 344 879.5 344.5Q878 345 873 349Q868 356 861.0 359.0Q854 362 847 361Q833 359 819.5 336.5Q806 314 800.5 287.0Q795 260 803 245Q807 236 816.0 228.0Q825 220 834 217Q840 216 841.5 214.5Q843 213 844 209V203L837 209Q824 222 805 219Q799 218 797.0 218.5Q795 219 792 223Q787 228 787.0 230.0Q787 232 780.0 236.0Q773 240 769 240Q763 240 756 245L752 247Q747 250 746.0 250.0Q745 250 744 266V415L634 533Q524 652 519.0 654.5Q514 657 511.0 657.5Q508 658 504 656ZM622 526 732 408V156L722 155H704Q698 154 690.0 160.5Q682 167 670.0 164.5Q658 162 654 152Q651 147 648.5 142.0Q646 137 642 135Q633 131 631.0 126.0Q629 121 629.0 104.0Q629 87 631.0 79.0Q633 71 640 63L645 56H610V286L627 287Q640 288 642.0 288.5Q644 289 644 293V298H378V293Q378 289 380.0 288.5Q382 288 394 287H410V56H324L325 64Q325 74 322.5 78.5Q320 83 313.5 87.5Q307 92 302.5 92.0Q298 92 295 95L290 98V409L399 526Q508 644 510.5 644.0Q513 644 622 526ZM330 472Q326 468 322 462L317 457H110V476H334ZM302 442Q302 440 289 427L276 414V401Q276 388 273 388Q266 388 255.0 379.0Q244 370 244 364Q244 362 206.0 362.0Q168 362 164 360Q163 359 162 345V302Q162 266 161 255Q160 246 157.0 240.5Q154 235 154 225Q154 219 152.0 216.0Q150 213 139 201Q136 198 128 194Q123 192 118.5 184.0Q114 176 114.0 171.5Q114 167 112.0 167.0Q110 167 110 305V443H206ZM229 340Q227 330 227 328Q228 322 213 314Q205 310 199 301Q195 293 193.0 293.0Q191 293 188.0 291.0Q185 289 183 287L175 281Q174 281 174 315V348H232ZM861 343Q876 329 885.0 296.5Q894 264 887 251Q885 245 878 239Q865 226 847.0 228.0Q829 230 818 245Q814 251 813.0 254.5Q812 258 812 269Q812 285 818.5 303.5Q825 322 834.0 335.0Q843 348 851 348Q856 348 861 343ZM898 324Q901 317 901.5 309.5Q902 302 900.5 300.5Q899 299 898.5 299.5Q898 300 898.0 301.0Q898 302 896 308L893 317Q889 326 889.0 331.0Q889 336 891.5 334.5Q894 333 898 324ZM503 172V56H424V287H503ZM597 171 598 56H517V287H557L597 286ZM829 199Q835 193 834.0 192.5Q833 192 825 197Q821 199 818.0 201.5Q815 204 815.0 205.5Q815 207 819.5 205.0Q824 203 829 199ZM844 175Q844 173 842.5 173.0Q841 173 840.0 175.0Q839 177 841.5 177.0Q844 177 844 175ZM687 145Q691 140 697 140Q701 141 704 138Q711 131 717 140Q720 144 722.5 143.5Q725 143 726.5 138.5Q728 134 733.5 131.0Q739 128 742 123Q743 120 744.5 119.0Q746 118 750.5 117.5Q755 117 757.0 116.0Q759 115 760.0 112.0Q761 109 761.0 107.5Q761 106 758 104V103Q755 100 753.5 99.5Q752 99 748.0 101.5Q744 104 744.0 108.5Q744 113 741.0 115.0Q738 117 730.0 118.5Q722 120 718.5 117.5Q715 115 710 116Q700 118 700 108Q700 104 697.0 102.0Q694 100 689.5 100.0Q685 100 683.0 96.0Q681 92 678.5 92.5Q676 93 672.0 97.0Q668 101 666.0 101.5Q664 102 660.5 99.0Q657 96 655.0 96.5Q653 97 654.0 101.0Q655 105 653.0 107.0Q651 109 646.0 111.0Q641 113 641.5 116.5Q642 120 647 121Q657 123 657.0 128.5Q657 134 660 135L661 137Q663 140 663 141Q663 146 668.0 149.5Q673 153 677.0 152.0Q681 151 687 145ZM729 104Q730 104 731.0 103.0Q732 102 732 101Q732 97 738.5 92.5Q745 88 750 88Q757 88 755.0 80.5Q753 73 742 63L734 56H666L658 62Q653 67 648.0 75.0Q643 83 643.0 86.0Q643 89 644 89L647 87Q650 84 658 84Q661 84 663.0 83.5Q665 83 664 82Q662 79 663.5 74.0Q665 69 669 66Q677 59 686.0 64.0Q695 69 694 79Q694 84 694.5 85.5Q695 87 699 89Q705 91 709 96Q712 99 718 103L725 105Q727 105 729 104ZM781 97Q786 92 786 87Q789 80 792.0 76.5Q795 73 797.0 67.5Q799 62 803.5 61.5Q808 61 818 63Q823 64 828 61Q830 59 828.5 58.0Q827 57 819 57H794Q758 55 756 57L761 66Q766 74 770 87Q771 97 773.5 98.5Q776 100 781 97ZM680 77Q679 76 678.0 77.5Q677 79 678 80L679 82L680 80Q681 79 680 78ZM489 510Q475 503 469.0 489.5Q463 476 466.0 461.5Q469 447 481 437Q491 427 504.0 425.5Q517 424 530 430Q538 434 543.0 439.0Q548 444 552 453Q557 465 555.5 477.5Q554 490 545 500Q534 513 519.0 515.5Q504 518 489 510ZM527 499Q533 496 537.0 489.0Q541 482 542 473Q543 458 534.0 448.5Q525 439 508.5 439.0Q492 439 481 457Q475 470 479.5 482.0Q484 494 497.5 500.5Q511 507 527 499ZM865 267Q864 263 865.5 260.0Q867 257 870.0 257.5Q873 258 873.0 262.5Q873 267 870.0 268.5Q867 270 865 267ZM484 182Q481 181 481.0 165.5Q481 150 484 148Q489 146 491.5 149.5Q494 153 495 163Q495 177 492.0 182.0Q489 187 484 182ZM244 270Q244 267 245.0 266.0Q246 265 249.0 265.0Q252 265 253.0 266.0Q254 267 254.0 270.0Q254 273 253.0 274.0Q252 275 249.0 275.0Q246 275 245.0 274.0Q244 273 244 270ZM788 173Q787 170 789.5 167.5Q792 165 795.5 166.0Q799 167 798.5 171.0Q798 175 794.0 176.0Q790 177 788 173ZM231 167Q231 165 233.0 162.0Q235 159 236.5 159.0Q238 159 240.5 161.5Q243 164 242.0 167.5Q241 171 237.0 171.0Q233 171 231 167ZM145 162Q143 158 144.5 155.0Q146 152 149.5 153.0Q153 154 153.0 158.5Q153 163 149.5 164.5Q146 166 145 162ZM111 96Q110 92 113.5 90.0Q117 88 119.5 90.5Q122 93 121.5 96.5Q121 100 117.0 99.5Q113 99 111 96ZM239 81Q238 77 239.5 74.5Q241 72 244.0 73.0Q247 74 247.0 78.0Q247 82 244.0 83.5Q241 85 239 81ZM884 81Q883 79 883.0 78.0Q883 77 884 75Q888 71 891.0 72.5Q894 74 893.0 78.0Q892 82 889.0 83.0Q886 84 884 81Z" />
      </g>
    </svg>