<svg xmlns="http://www.w3.org/2000/svg" viewBox="10 -130 980 959">
      <g transform="scale(1 -1) translate(0 -699)">
        <path d="M242 826Q214 817 196.0 793.0Q178 769 178 741V726L169 723Q157 719 144.5 709.5Q132 700 124 689Q107 665 107 635V619L94 611Q67 593 57.0 564.0Q47 535 55.5 506.0Q64 477 90 459Q107 448 123.0 445.0Q139 442 189 442H250V197H214V224Q214 252 211.5 258.0Q209 264 177.0 307.0Q145 350 143.0 350.0Q141 350 108.5 307.0Q76 264 74 258Q71 246 71 224V197H10V156H71V54H10V13H71V-130H214V13H262L310 12L311 -59V-130H452V13H549V-130H691V13H786V-130H929V13H990V54H929V156H990V197H929V224Q929 251 926.5 257.0Q924 263 890 308L857 353L822 306L787 260L785 197H742V460H788Q818 460 830 461Q845 463 853.5 467.5Q862 472 873.5 483.5Q885 495 890.5 507.0Q896 519 896 534Q896 552 887.0 568.5Q878 585 864 596Q856 601 854.5 604.5Q853 608 852 621Q851 635 844 650Q838 660 827.5 669.5Q817 679 808 682Q802 684 800.5 686.5Q799 689 798 699Q796 720 785.0 736.0Q774 752 756 760Q741 767 722.5 767.5Q704 768 690 761Q672 752 661.5 737.5Q651 723 647 701Q645 690 643.5 687.0Q642 684 637 682Q620 676 607.0 658.0Q594 640 592 619Q591 607 589.5 604.0Q588 601 581 596Q562 583 554.5 561.5Q547 540 552.0 517.5Q557 495 575 479Q589 467 603.5 463.5Q618 460 657 460H702V197H689V227Q689 256 685.5 262.0Q682 268 651.0 309.5Q620 351 618.5 351.0Q617 351 585.0 308.0Q553 265 551.0 259.0Q549 253 549 225V197H452L450 260L381 353L312 262V230L311 197H291V442L357 443Q401 443 413.0 444.0Q425 445 434 449Q448 456 461.5 469.5Q475 483 481 497Q495 526 485.0 559.5Q475 593 447 609L434 617L433 639Q431 663 426 673Q420 687 406.5 700.0Q393 713 379 719L363 726L362 745Q357 799 309 822Q295 828 275.0 829.0Q255 830 242 826ZM292 786Q299 782 307.5 773.5Q316 765 319 758Q323 747 321.0 734.5Q319 722 311 705L301 684Q301 682 324 686Q344 688 354.5 685.5Q365 683 375 675Q406 651 384 606Q378 593 377.5 590.5Q377 588 381 587Q387 585 394 585Q411 585 426.0 574.0Q441 563 446.0 547.0Q451 531 443.5 513.5Q436 496 420 488Q412 485 391 484Q364 483 270 483Q168 483 147.5 483.5Q127 484 120 488Q103 496 96 514Q86 537 99.0 558.5Q112 580 138 584L166 588L157 606Q146 627 148.5 644.5Q151 662 166 675Q175 683 186.0 685.0Q197 687 217 685L240 684L230 705Q213 737 223 759Q226 767 233.5 774.5Q241 782 249.0 785.5Q257 789 270.5 789.0Q284 789 292 786ZM737 724Q756 715 757 697Q758 690 756.0 684.0Q754 678 747.5 664.0Q741 650 740.0 647.0Q739 644 743 645Q757 648 771.0 648.0Q785 648 792 645Q807 639 810.5 623.0Q814 607 804 588L796 573L811 571Q829 569 835 565Q848 560 853.0 545.0Q858 530 850 517Q844 508 839 506Q830 502 805 502Q788 501 722 501Q644 501 627.5 501.5Q611 502 605.0 506.0Q599 510 594.0 519.0Q589 528 589.0 535.0Q589 542 594.0 550.5Q599 559 605.0 563.5Q611 568 629 570Q636 571 645 573H648Q648 574 641 590Q627 615 638 632Q645 643 654.5 646.0Q664 649 683 647L706 645Q708 645 696 668Q690 681 688.0 687.0Q686 693 687 698Q691 715 706.5 723.5Q722 732 737 724ZM159 264 173 245V197H112V245L127 264Q142 284 143.0 283.5Q144 283 156 268ZM396 265 411 246V197H349V244L364 264L380 284Q381 284 386.0 278.0Q391 272 396 265ZM635 264 651 243V197H589V246L603 265Q617 284 619 284ZM873 264 888 244V197H827V245L841 264L857 284Q858 284 873 264ZM173 105V54H112V156H173ZM311 105V54H214V156H262L310 155ZM411 105V54H349V103Q349 153 350.5 154.5Q352 156 382 156H411ZM549 105V54H452V156H549ZM651 105V54H589V156H651ZM786 105V54H692L691 112Q689 153 690.5 154.5Q692 156 739 156H786ZM888 105V54H827V156H888ZM173 -38V-89H112V13H173ZM411 5Q413 -3 413 -46L414 -89H349V-40Q349 10 350.5 11.5Q352 13 381 13H410ZM651 -38V-89H589V13H651ZM888 -38V-89H827V13H888Z" />
      </g>
    </svg>