<svg xmlns="http://www.w3.org/2000/svg" viewBox="10 -139 979 978">
      <g transform="scale(1 -1) translate(0 -700)">
        <path d="M788 643Q687 740 562 793Q430 849 312 838Q181 825 91 732L83 723Q73 712 67.5 705.5Q62 699 67.5 700.5Q73 702 94 711L121 723Q229 769 365 734Q488 703 608 616Q615 610 586 577Q567 556 511 501L478 469L622 325L660 365Q713 420 732 438Q764 466 770 458Q857 347 887 231Q920 104 878 -4L867 -29Q858 -52 857 -57Q855 -64 863 -57L887 -33Q977 61 988 188Q998 304 942 428Q888 546 788 643ZM716 509Q694 509 679.0 523.5Q664 538 664.0 559.5Q664 581 679.0 596.0Q694 611 715.5 611.0Q737 611 752.0 596.0Q767 581 767.0 560.0Q767 539 752.0 524.0Q737 509 716 509ZM466 457 454 470 44 60Q22 38 14.0 8.0Q6 -22 14.0 -52.5Q22 -83 44 -105Q61 -122 82.5 -130.5Q104 -139 127.0 -139.0Q150 -139 171.5 -130.5Q193 -122 209 -105L619 304ZM140 45Q150 45 157 42L86 -29Q83 -21 83 -12Q83 12 99.5 28.5Q116 45 140 45ZM140 -69Q136 -69 128 -67L122 -66L194 6L195 0Q197 -8 197 -12Q197 -35 180.0 -52.0Q163 -69 140 -69Z" />
      </g>
    </svg>