<svg xmlns="http://www.w3.org/2000/svg" viewBox="9 -17 980 734">
      <g transform="scale(1 -1) translate(0 -700)">
        <path d="M16 704Q14 700 12 692L10 686Q9 683 12.0 681.5Q15 680 27 676L70 665Q97 658 107 653Q109 652 165 481L241 243L251 213H322Q393 213 391.0 209.5Q389 206 362 103Q342 32 338.5 15.0Q335 -2 338 -6Q343 -16 354.5 -17.0Q366 -18 371 -9Q373 -5 402 104L432 213H668L706 176L743 138L736 124Q722 95 728.5 64.5Q735 34 757.5 11.5Q780 -11 812.0 -16.0Q844 -21 872.0 -6.5Q900 8 915.0 36.0Q930 64 926.0 96.5Q922 129 899.5 151.5Q877 174 846.0 180.5Q815 187 786 173L771 167L725 213H787Q849 213 861.5 217.0Q874 221 886.5 232.0Q899 243 906 258Q911 268 950.5 405.5Q990 543 990 550Q990 553 626.5 553.0Q263 553 263 550L306 258Q308 254 305.5 253.0Q303 252 293 252H279L173 582Q141 682 140.0 683.5Q139 685 95.5 698.0Q52 711 26 717Q21 718 19.5 716.0Q18 714 16 704ZM938 511Q938 504 906.0 393.0Q874 282 870 274L867 269Q864 261 860 259Q854 255 836.0 254.0Q818 253 775 252H349L347 258Q345 263 327 382Q312 492 308 507L307 514H623Q938 514 938 511ZM853 138Q872 129 881.0 111.5Q890 94 887.5 74.5Q885 55 870 40Q848 18 820.5 21.5Q793 25 777.0 48.0Q761 71 769 101L771 110L794 88Q803 79 811.5 72.0Q820 65 823 64Q833 62 840.5 69.5Q848 77 846 86Q845 91 822 116L800 139L808 141Q817 144 831.0 143.0Q845 142 853 138Z" />
      </g>
    </svg>