<svg xmlns="http://www.w3.org/2000/svg" viewBox="10 80 980 538">
      <g transform="scale(1 -1) translate(0 -698)">
        <path d="M329 617Q244 602 203 530L198 520L182 519Q165 517 155.0 512.5Q145 508 135.0 499.0Q125 490 120 482Q113 469 63 342L10 210V189Q10 174 11.0 169.5Q12 165 17 155Q28 136 43.5 126.5Q59 117 84 115Q106 113 166 113H227V201H198Q178 201 174.0 201.5Q170 202 171 205Q173 213 227.0 345.5Q281 478 284 483Q288 492 299.0 502.0Q310 512 319.0 517.0Q328 522 342.0 525.0Q356 528 369 528Q385 528 435 518L604 488Q648 481 693 472Q730 465 738 463Q767 455 783.5 439.5Q800 424 813 393Q821 373 894 165Q901 144 907.5 134.0Q914 124 923 119Q941 111 959.5 117.5Q978 124 986 141Q990 151 990 159Q989 170 981 197Q974 217 951 283Q934 332 907 407L902 421Q878 483 840.0 514.0Q802 545 734 559L581 587Q530 596 452 610L429 614Q409 618 377.0 619.0Q345 620 329 617ZM263 158V115L280 96Q293 81 294.0 81.0Q295 81 301 88L322 113L334 98Q346 82 348.0 81.5Q350 81 362 95L365 98Q376 111 377.0 111.0Q378 111 389 98L393 94Q404 81 405 81Q410 86 415 92L427 108L432 113L445 97Q458 80 460.0 81.0Q462 82 474 98L487 113L507 88Q513 81 514.0 81.0Q515 81 521 88L541 113L554 97Q568 81 569.0 81.0Q570 81 576 88L596 113L609 97L623 81Q624 81 638 97L651 113L663 98Q675 82 677.0 81.5Q679 81 691 94L706 113L723 92Q726 88 729.0 84.5Q732 81 733 81L747 97L760 113L764 108Q771 101 777 92Q785 82 787.0 82.0Q789 82 800 95L815 113L822 104L836 88L843 81L856 99L870 117L842 200L552 201H263Z" />
      </g>
    </svg>