<svg xmlns="http://www.w3.org/2000/svg" viewBox="0 -79 1286 858">
      <g transform="scale(1 -1) translate(0 -700)">
        <path d="M990 384 1000 207Q1002 169 954.0 136.0Q906 103 823.0 84.0Q740 65 643.0 64.0Q546 63 463.0 84.0Q380 105 332.0 136.0Q284 167 286 207L296 384L616 283Q628 279 643.0 279.0Q658 279 670 283ZM1286 564Q1286 552 1273 547L648 351Q646 350 643.0 350.0Q640 350 637 351L273 466Q249 447 234.0 403.0Q219 359 215 304Q250 284 250.0 244.0Q250 204 218 183L250 -59Q251 -66 246.0 -72.5Q241 -79 232 -79H125Q117 -79 111.5 -72.5Q106 -66 107 -59L140 183Q107 204 107.0 244.0Q107 284 143 305Q150 420 198 489L12 547Q0 552 0.0 564.0Q0 576 12 582L637 778Q640 779 643.0 779.0Q646 779 648 778L1273 582Q1286 577 1286 564Z" />
      </g>
    </svg>