<svg xmlns="http://www.w3.org/2000/svg" viewBox="131 -140 737 979">
      <g transform="scale(1 -1) translate(0 -699)">
        <path d="M866 115Q868 125 868 130L869 137V168Q869 195 865.0 215.0Q861 235 858 244L855 256Q851 268 850 274L839 304Q836 314 828 332L826 339Q810 381 802 406Q789 442 784.0 471.0Q779 500 779 521Q779 587 821 637Q823 639 823.5 642.5Q824 646 823 648Q818 655 812 653Q731 639 678 566Q641 515 623 446Q581 527 562.0 617.5Q543 708 543 830Q543 836 538.0 838.5Q533 841 528 839Q483 812 454 769Q430 734 415 682Q406 652 393 588V587Q393 520 378.5 467.5Q364 415 333 368Q323 405 300 435Q281 460 251 485Q233 499 194 525L193 526Q167 542 147 558Q140 561 135 558Q133 556 132.0 552.5Q131 549 132 546Q150 496 150 425Q150 382 141 296V294Q133 222 132 186Q130 127 140 82Q151 28 179 -14Q211 -61 267 -95Q311 -117 367 -133H370Q374 -133 377.0 -130.5Q380 -128 380.0 -124.5Q380 -121 378.0 -118.5Q376 -116 374 -115Q346 -94 334 -64Q324 -39 323 -3Q323 19 328 64V65Q332 102 333 121Q334 152 330 175L332 174Q363 153 376 140Q396 119 401 90Q403 84 408.5 82.5Q414 81 419 86Q440 114 449.5 145.5Q459 177 459 216L460 219Q468 259 475 277Q487 308 508 326Q509 272 518 229Q531 173 558 126Q561 119 567.5 121.0Q574 123 576 129Q582 155 593 178Q611 214 640 229Q625 198 633 156Q638 131 656 84L658 79Q672 40 675 22Q677 15 677 -1Q682 -68 598 -122Q595 -123 594.0 -127.0Q593 -131 595 -134Q597 -140 604 -140H606Q612 -139 624 -134L631 -132Q840 -27 866 113Z" />
      </g>
    </svg>