<svg xmlns="http://www.w3.org/2000/svg" viewBox="0 -150 999 999">
      <g transform="scale(1 -1) translate(0 -699)">
        <path d="M0 506Q0 596 64.0 660.0Q128 724 219 725Q236 725 250 723Q293 784 359 816Q427 849 500.0 849.0Q573 849 639.5 816.5Q706 784 750 723Q763 725 781 725Q871 725 935.0 660.0Q999 595 999.0 506.0Q999 417 935.0 352.0Q871 287 781 287Q739 287 703 301Q615 225 500.0 225.0Q385 225 297 301Q260 287 219 287Q129 287 64.0 352.0Q-1 417 0 506ZM63 506Q63 442 108.0 396.0Q153 350 219 350Q247 350 273 360L308 373L338 348Q408 287 500.0 287.0Q592 287 662 348L691 373L726 360Q753 350 781 350Q845 350 891.0 396.0Q937 442 937.0 506.0Q937 570 891.0 616.0Q845 662 781 662Q768 662 759 660L722 654L699 686Q625 787 500.0 787.0Q375 787 301 686L277 654L240 660Q232 662 219 662Q154 662 108.0 616.0Q62 570 63 506ZM125 162Q125 188 144.0 206.0Q163 224 187.0 225.0Q211 226 230 205Q250 188 250.0 162.0Q250 136 231.0 118.0Q212 100 187.0 100.0Q162 100 144.0 118.0Q126 136 125 162ZM250 -88Q250 -62 268.0 -44.0Q286 -26 312.0 -25.0Q338 -24 355 -45Q375 -62 375.0 -88.0Q375 -114 356.0 -132.0Q337 -150 312.0 -150.0Q287 -150 268.0 -132.0Q249 -114 250 -88ZM437 100Q437 125 456.0 144.0Q475 163 500.0 162.0Q525 161 543.5 143.0Q562 125 562.0 100.0Q562 75 544.0 56.0Q526 37 500.0 37.0Q474 37 456.0 56.0Q438 75 437 100ZM625 -88Q625 -62 643.0 -44.0Q661 -26 687.0 -25.0Q713 -24 730 -45Q750 -62 750.0 -88.0Q750 -114 731.0 -132.0Q712 -150 687.0 -150.0Q662 -150 643.0 -132.0Q624 -114 625 -88ZM750 162Q750 188 768.0 206.0Q786 224 812.0 225.0Q838 226 855 205Q875 188 875.0 162.0Q875 136 856.0 118.0Q837 100 812.0 100.0Q787 100 768.0 118.0Q749 136 750 162Z" />
      </g>
    </svg>