<svg xmlns="http://www.w3.org/2000/svg" viewBox="10 77 980 546">
      <g transform="scale(1 -1) translate(0 -700)">
        <path d="M107 515H128V466H107ZM157 623H79L12 516H222ZM94 602H141L181 537H53ZM86 467V368H107V444H128V368H149V467ZM10 376V77H292V376ZM271 98H31V317H271ZM271 338H31V355H271ZM46 296V170H257V296ZM107 191H67V275H107ZM169 191H128V275H169ZM235 191H190V275H235ZM970 359H333Q325 359 319.0 352.5Q313 346 313 338V232Q313 223 319.0 217.0Q325 211 333 211H970Q978 211 984.0 217.0Q990 223 990 232V338Q990 346 984.0 352.5Q978 359 970 359ZM969 253Q969 244 963.0 238.0Q957 232 949 232H354Q346 232 340.0 238.0Q334 244 334 253V317Q334 325 340.0 331.0Q346 337 354 337H949Q957 337 963.0 331.0Q969 325 969 317ZM338 187V81H970V187ZM949 102H359V166H949ZM622 464H358Q350 464 343.5 458.0Q337 452 337 444V396Q337 388 343.5 382.0Q350 376 358 376H622Q631 376 637.0 382.0Q643 388 643 396V444Q643 452 637.0 458.0Q631 464 622 464ZM622 417Q622 409 616.0 403.0Q610 397 601 397H379Q371 397 365.0 403.0Q359 409 359 417V423Q359 431 365.0 437.0Q371 443 379 443H601Q610 443 616.0 437.0Q622 431 622 423ZM949 464H685Q677 464 671.0 458.0Q665 452 665 444V396Q665 388 671.0 382.0Q677 376 685 376H949Q958 376 964.0 382.0Q970 388 970 396V444Q970 452 964.0 458.0Q958 464 949 464ZM949 417Q949 409 943.0 403.0Q937 397 928 397H706Q698 397 692.0 403.0Q686 409 686 417V423Q686 431 692.0 437.0Q698 443 706 443H928Q937 443 943.0 437.0Q949 431 949 423Z" />
      </g>
    </svg>