<svg xmlns="http://www.w3.org/2000/svg" viewBox="54 -150 892 1000">
      <g transform="scale(1 -1) translate(0 -700)">
        <path d="M837 850H616Q586 850 561.0 835.5Q536 821 521.5 796.0Q507 771 507 741V661H726Q762 661 793.0 643.0Q824 625 842.0 594.5Q860 564 860.0 528.0Q860 492 842.0 461.0Q824 430 793.0 412.0Q762 394 726 394H507V-41Q507 -71 521.5 -96.0Q536 -121 561.0 -135.5Q586 -150 616 -150H837Q867 -150 892.0 -135.5Q917 -121 931.5 -96.0Q946 -71 946 -41V741Q946 771 931.5 796.0Q917 821 892.0 835.5Q867 850 837 850ZM774 142V80Q774 62 761.0 49.0Q748 36 730.0 36.0Q712 36 699.5 49.0Q687 62 687 80V142Q673 152 665.0 167.0Q657 182 657 199Q657 230 678.5 251.0Q700 272 730.0 272.0Q760 272 781.5 251.0Q803 230 803 199Q803 182 795.5 167.0Q788 152 774 142ZM810 528Q810 562 785.5 586.5Q761 611 726 611H138Q103 611 78.5 586.5Q54 562 54.0 528.0Q54 494 78.5 469.5Q103 445 138 445H726Q761 445 785.5 469.5Q810 494 810 528Z" />
      </g>
    </svg>