<svg xmlns="http://www.w3.org/2000/svg" viewBox="0 -79 1000 858">
      <g transform="scale(1 -1) translate(0 -700)">
        <path d="M714 279H885Q882 275 879.0 273.0Q876 271 874 269L872 266L525 -69Q515 -79 500.0 -79.0Q485 -79 475 -69L127 267Q124 269 116 279H321Q334 279 344.0 286.0Q354 293 356 305L395 462L501 90Q505 79 514.0 72.0Q523 65 536 64Q547 64 557.0 72.0Q567 80 570 90L651 361L683 298Q693 279 714 279ZM1000 517Q1000 437 943 350H737L675 473Q670 483 660.0 488.0Q650 493 640 493Q615 490 609 467L537 227L428 610Q424 621 414.0 629.0Q404 637 392.0 636.0Q380 635 371.0 628.0Q362 621 358 609L294 350H58Q0 437 0 517Q0 640 71.0 709.0Q142 778 267 779Q301 779 337.0 767.0Q373 755 404.0 734.0Q435 713 458.0 696.0Q481 679 500 658Q520 678 542.0 696.0Q564 714 596.0 734.0Q628 754 663.0 767.0Q698 780 733 779Q858 779 929.0 709.0Q1000 639 1000 517Z" />
      </g>
    </svg>