<svg xmlns="http://www.w3.org/2000/svg" viewBox="0 -79 1000 858">
      <g transform="scale(1 -1) translate(0 -700)">
        <path d="M500 -79Q486 -79 475 -69L127 267L112 282Q102 292 81.0 319.0Q60 346 43.0 373.0Q26 400 13.0 440.0Q0 480 0 517Q0 640 71.0 709.0Q142 778 267 779Q301 779 337.0 767.0Q373 755 404.0 734.0Q435 713 458.0 696.0Q481 679 500 658Q520 678 542.0 696.0Q564 714 596.0 734.0Q628 754 663.0 767.0Q698 780 733 779Q858 779 929.0 709.0Q1000 639 1000.0 516.5Q1000 394 872 266L525 -69Q515 -79 500 -79Z" />
      </g>
    </svg>