<svg xmlns="http://www.w3.org/2000/svg" viewBox="0 -79 857 858">
      <g transform="scale(1 -1) translate(0 -700)">
        <path d="M500 82V189Q500 197 495.0 202.0Q490 207 482 207H375Q367 207 362.0 202.0Q357 197 357 189V82Q357 74 362.0 69.0Q367 64 375 64H482Q490 64 495.0 69.0Q500 74 500 82ZM643 457Q643 506 612.0 548.0Q581 590 535.0 613.0Q489 636 440 636Q304 636 233 517Q224 504 237 493L311 438Q315 434 321 434Q330 434 335 441Q365 479 383.5 492.5Q402 506 430.0 506.0Q458 506 479.0 491.0Q500 476 500 458Q500 437 489.0 424.0Q478 411 451 399Q416 384 386.0 351.0Q356 318 357 281V261Q357 253 362.0 248.0Q367 243 375 243H482Q490 243 495.0 248.0Q500 253 500.0 262.0Q500 271 512.0 288.0Q524 305 542 316L570 332Q580 338 595.0 351.0Q610 364 620.0 378.0Q630 392 636.0 412.0Q642 432 643 457ZM857 350Q857 233 800.0 135.0Q743 37 644.0 -21.0Q545 -79 429.0 -79.0Q313 -79 213.0 -21.0Q113 37 58.0 135.0Q3 233 0.0 350.0Q-3 467 58.0 565.0Q119 663 213.0 721.0Q307 779 429.0 779.0Q551 779 644.0 721.0Q737 663 800.0 565.0Q863 467 857 350Z" />
      </g>
    </svg>