<svg xmlns="http://www.w3.org/2000/svg" viewBox="14 -7 899 716">
      <g transform="scale(1 -1) translate(0 -702)">
        <path d="M786 296V29Q786 14 775.0 4.0Q764 -6 750 -7H536V207H393V-7H179Q164 -7 154.0 4.0Q144 15 143 29V300L464 564L785 300Q786 299 786 296ZM910 335 876 294Q871 289 864 288H862Q855 288 850 291L464 613L78 291Q71 287 64.5 288.0Q58 289 53 294L18 335Q14 341 15.0 348.0Q16 355 21 360L422 694Q440 709 464.0 709.0Q488 709 507 694L643 581V689Q643 697 648.0 702.0Q653 707 661 707H768Q776 707 781.0 702.0Q786 697 786 689V462L908 360Q914 356 914.0 348.0Q914 340 910 335Z" />
      </g>
    </svg>