<svg xmlns="http://www.w3.org/2000/svg" viewBox="9 -91 980 881">
      <g transform="scale(1 -1) translate(0 -699)">
        <path d="M500 271Q448 271 404 300Q373 321 350 353Q322 322 280 302Q233 280 186 280Q128 280 83 316Q19 368 11 442Q7 480 18 514L159 790H841L981 517Q993 484 989 446Q983 370 917 316Q872 280 814 280Q767 280 721 302Q679 322 651 353Q627 321 597 300Q552 271 500 271ZM353 423 363 402V401Q379 376 402 357Q447 318 500 318Q551 318 593 350Q615 367 632 391L651 423L667 400Q688 372 727.5 354.5Q767 337 814 337Q835 337 852 344Q863 348 884 362Q911 381 924 407Q935 428 936 452Q936 470 932 488L928 502L799 734H192L72 501Q68 492 65 478Q59 451 66 426Q75 391 107.0 364.0Q139 337 187.0 337.0Q235 337 278.0 355.0Q321 373 339 401ZM830 -91H170Q133 -91 106.0 -64.0Q79 -37 79 1V220H135V27Q135 3 146.5 -12.5Q158 -28 180 -28H820Q842 -28 853.5 -12.5Q865 3 865 27V220H921V1Q921 -37 894.0 -64.0Q867 -91 830 -91ZM209 528H792V477H209ZM184 503Q184 513 191.5 520.0Q199 527 209.0 526.5Q219 526 226.0 519.0Q233 512 232.5 502.0Q232 492 225.0 484.5Q218 477 208.0 477.5Q198 478 191.0 485.0Q184 492 184 502ZM513 503Q514 513 521.0 520.0Q528 527 538.0 526.5Q548 526 555.0 519.0Q562 512 562.0 502.0Q562 492 555.0 484.5Q548 477 537.5 477.5Q527 478 520.5 485.0Q514 492 513 502ZM765 503Q766 513 773.0 520.0Q780 527 790.5 526.5Q801 526 808.0 519.0Q815 512 814.5 502.0Q814 492 807.0 484.5Q800 477 789.5 477.5Q779 478 772.5 485.0Q766 492 765 502ZM79 221Q79 209 87.5 200.5Q96 192 107.0 192.0Q118 192 126.5 200.5Q135 209 135 221Q135 232 127.0 240.5Q119 249 107.0 249.0Q95 249 87.0 240.5Q79 232 79 221ZM865 221Q865 209 873.5 200.5Q882 192 893.0 192.0Q904 192 912.5 200.5Q921 209 921 221Q921 232 913.0 240.5Q905 249 893.0 249.0Q881 249 873.0 240.5Q865 232 865 221Z" />
      </g>
    </svg>