<svg xmlns="http://www.w3.org/2000/svg" viewBox="141 -161 683 1016">
      <g transform="scale(1 -1) translate(0 -694)">
        <path d="M483 669Q512 629 611 469Q664 384 682 356Q727 278 728 200Q729 130 695 69Q662 12 607.0 -23.0Q552 -58 490 -61Q417 -59 358 -20Q304 16 272 77Q240 136 236.5 202.5Q233 269 261 325Q298 397 365 503Q436 614 483 670ZM483 855Q468 831 441 777Q419 732 407 711Q373 650 300 536Q255 466 233 430Q196 369 168 317Q132 228 144 138Q156 55 206 -15Q255 -84 329 -122Q405 -162 489 -161Q578 -160 654 -115Q725 -72 770.0 -0.5Q815 71 823 153Q831 239 796 317Q773 370 733 434Q709 472 657 549Q584 656 552 712L483 854ZM347 271Q347 300 363.0 318.0Q379 336 404.0 336.0Q429 336 443.0 320.5Q457 305 457.0 275.5Q457 246 442.5 228.0Q428 210 401 210Q377 210 362 226Q347 244 347 270ZM370 273Q370 255 379 241Q388 230 403.0 230.0Q418 230 426.5 241.5Q435 253 435.0 273.5Q435 294 427 305Q417 317 404 317Q389 317 380.5 305.0Q372 293 372 273ZM560 333 408 89H383L534 333ZM488 147Q488 175 504 194Q518 212 544.5 212.0Q571 212 585.0 196.5Q599 181 599.0 152.0Q599 123 583.5 105.0Q568 87 542 87Q518 87 503 104Q489 123 489 148ZM512 148Q512 129 520.5 117.5Q529 106 544.5 106.0Q560 106 568.0 117.5Q576 129 576.0 150.0Q576 171 568.0 181.5Q560 192 545.5 192.0Q531 192 520 180Q512 167 512 148Z" />
      </g>
    </svg>