<svg xmlns="http://www.w3.org/2000/svg" viewBox="45 -140 910 980">
      <g transform="scale(1 -1) translate(0 -700)">
        <path d="M318 134Q314 136 306 141Q286 152 277 159Q261 170 253 184L247 194Q238 212 232 217Q224 224 209 224Q189 224 183 215Q178 208 178.0 187.5Q178 167 195 128Q216 83 243 54Q278 17 314 17Q331 17 345 28Q361 41 361 63Q361 76 347.0 101.0Q333 126 318 134ZM383 840Q249 669 176 549Q79 391 45 258V137Q45 132 52.5 105.0Q60 78 67 60Q160 -140 389 -140Q486 -140 565.5 -99.0Q645 -58 690 16Q738 96 738 199Q738 287 678 413Q630 513 542 641Q488 719 395 840ZM392 -76Q320 -76 253.5 -38.0Q187 0 148 63Q106 129 106 202Q106 261 162 379Q207 473 281 591Q341 687 388 750Q443 676 499 587Q573 471 616 378Q671 263 671 199Q671 126 629 61Q589 -1 524.5 -38.5Q460 -76 392 -76ZM763 711H754Q748 705 722 668Q692 628 672 596Q646 556 646 547Q646 544 673 493Q713 417 726 387Q750 342 766 276Q772 260 777 229Q781 205 781 196L780 177Q778 159 778 153H794Q823 153 859.5 177.0Q896 201 922 233Q949 268 949 295Q949 303 953 325Q955 340 955 344Q955 412 888 527Q850 592 769 702Z" />
      </g>
    </svg>