<svg xmlns="http://www.w3.org/2000/svg" viewBox="0 -79 857 858">
      <g transform="scale(1 -1) translate(0 -700)">
        <path d="M571 82V171Q571 179 566.0 184.0Q561 189 554 189H500V475Q500 483 495.0 488.0Q490 493 482 493H304Q296 493 291.0 488.0Q286 483 286 475V386Q286 378 291.0 373.0Q296 368 304 368H357V189H304Q296 189 291.0 184.0Q286 179 286 171V82Q286 74 291.0 69.0Q296 64 304 64H554Q561 64 566.0 69.0Q571 74 571 82ZM500 582V671Q500 679 495.0 684.0Q490 689 482 689H375Q367 689 362.0 684.0Q357 679 357 671V582Q357 574 362.0 569.0Q367 564 375 564H482Q490 564 495.0 569.0Q500 574 500 582ZM857 350Q857 233 800.0 135.0Q743 37 644.0 -21.0Q545 -79 429.0 -79.0Q313 -79 213.0 -21.0Q113 37 58.0 135.0Q3 233 0.0 350.0Q-3 467 58.0 565.0Q119 663 213.0 721.0Q307 779 429.0 779.0Q551 779 644.0 721.0Q737 663 800.0 565.0Q863 467 857 350Z" />
      </g>
    </svg>