<svg xmlns="http://www.w3.org/2000/svg" viewBox="0 -7 1071 643">
      <g transform="scale(1 -1) translate(0 -629)">
        <path d="M214 198V145Q214 136 205 136H152Q143 136 143 145V198Q143 207 152 207H205Q214 207 214 198ZM286 341V288Q286 279 277 279H152Q143 279 143 288V341Q143 350 152 350H277Q286 350 286 341ZM214 484V430Q214 421 205 421H152Q143 421 143 430V484Q143 493 152 493H205Q214 493 214 484ZM786 198V145Q786 136 777 136H295Q286 136 286 145V198Q286 207 295 207H777Q786 207 786 198ZM429 341V288Q429 279 420 279H366Q357 279 357 288V341Q357 350 366 350H420Q429 350 429 341ZM357 484V430Q357 421 348 421H295Q286 421 286 430V484Q286 493 295 493H348Q357 493 357 484ZM571 341V288Q571 279 563 279H509Q500 279 500 288V341Q500 350 509 350H563Q571 350 571 341ZM500 484V430Q500 421 491 421H438Q429 421 429 430V484Q429 493 438 493H491Q500 493 500 484ZM714 341V288Q714 279 705 279H652Q643 279 643 288V341Q643 350 652 350H705Q714 350 714 341ZM929 198V145Q929 136 920 136H866Q857 136 857 145V198Q857 207 866 207H920Q929 207 929 198ZM643 484V430Q643 421 634 421H580Q571 421 571 430V484Q571 493 580 493H634Q643 493 643 484ZM786 484V430Q786 421 777 421H723Q714 421 714 430V484Q714 493 723 493H777Q786 493 786 484ZM929 484V288Q929 279 920 279H795Q786 279 786 288V341Q786 350 795 350H857V484Q857 493 866 493H920Q929 493 929 484ZM1000 64V564H71V64ZM1071 564V64Q1071 35 1051.0 14.0Q1031 -7 1000 -7H71Q42 -7 21.0 14.0Q0 35 0 64V564Q0 594 21.0 615.0Q42 636 71 636H1000Q1030 636 1051.0 615.0Q1072 594 1071 564Z" />
      </g>
    </svg>