<svg xmlns="http://www.w3.org/2000/svg" viewBox="0 -79 571 858">
      <g transform="scale(1 -1) translate(0 -700)">
        <path d="M411 529Q411 521 405.0 516.0Q399 511 393.0 511.0Q387 511 380.0 516.0Q373 521 375 529Q375 554 345.0 568.0Q315 582 286 582Q279 582 273.0 587.0Q267 592 268.0 600.0Q269 608 273.0 613.0Q277 618 286 618Q314 618 341.0 609.0Q368 600 390.0 579.0Q412 558 411 529ZM500 529Q500 569 481.0 603.0Q462 637 431.0 660.0Q400 683 362.0 695.0Q324 707 286.0 707.0Q248 707 210.0 695.0Q172 683 141.0 660.0Q110 637 91.0 603.0Q72 569 71 529Q71 472 109 428L126 410L143 391Q215 306 222 225H349Q357 306 428 391Q434 397 445.0 410.0Q456 423 462 428Q500 472 500 529ZM571 529Q571 442 514 379Q489 352 472.0 331.0Q455 310 439.0 277.0Q423 244 420 217Q446 202 446 171Q446 151 433 136Q446 121 446 100Q446 71 421 55Q429 42 429 29Q429 3 411.0 -11.0Q393 -25 368 -25Q357 -50 334.0 -64.0Q311 -78 286.0 -79.0Q261 -80 237.0 -64.0Q213 -48 204 -25Q178 -25 160.0 -11.0Q142 3 143 29Q143 42 150 55Q125 71 125 100Q125 121 139 136Q125 151 125 171Q125 202 151 217Q149 245 132.0 277.0Q115 309 99.0 331.0Q83 353 58 379Q0 442 0 529Q0 584 25.0 632.0Q50 680 90.0 711.0Q130 742 182.0 760.0Q234 778 286.0 779.0Q338 780 390.0 760.0Q442 740 481.0 711.0Q520 682 547.0 632.0Q574 582 571 529Z" />
      </g>
    </svg>