<svg xmlns="http://www.w3.org/2000/svg" viewBox="4 -150 848 1000">
      <g transform="scale(1 -1) translate(0 -700)">
        <path d="M370 621Q364 620 361.0 615.0Q358 610 357 610Q354 609 354 612Q354 619 364 621ZM419 613Q416 612 412.0 617.0Q408 622 402 619Q416 625 420 618Q422 615 419 613ZM223 375Q220 375 219.0 373.0Q218 371 217.0 366.0Q216 361 214.0 358.0Q212 355 208 351Q203 345 208 344Q210 344 215.0 348.0Q220 352 222 358Q222 360 223.0 362.0Q224 364 224.0 366.0Q224 368 225.0 368.0Q226 368 225 370V372L224 373Q223 374 223 375ZM700 174Q700 184 669 198L673 213Q675 220 676.0 228.0Q677 236 678.0 240.0Q679 244 678.0 252.0Q677 260 678.0 263.0Q679 266 676.0 275.0Q673 284 673.0 287.0Q673 290 671.0 301.0Q669 312 667 315Q662 342 641.0 373.0Q620 404 601 415Q614 404 633 368Q681 278 663 213Q657 191 635 190Q618 188 614.0 200.0Q610 212 609.0 247.0Q608 282 603 307Q598 328 592.0 345.0Q586 362 581 370L572 384Q568 390 565.0 392.0Q562 394 561 396Q553 431 544.0 454.0Q535 477 527.0 485.0Q519 493 514.0 504.0Q509 515 506.0 526.5Q503 538 509.0 556.0Q515 574 511.0 583.0Q507 592 487 597Q478 599 462.0 607.0Q446 615 442.0 616.0Q438 617 436.0 631.0Q434 645 440.0 659.0Q446 673 460 674Q481 676 489.0 658.0Q497 640 491 625Q485 615 490.0 610.0Q495 605 507 610Q514 612 514 630V651Q511 668 506.0 679.0Q501 690 495.0 696.0Q489 702 482 704L467 708Q407 704 417 634Q417 625 416 625Q411 630 400.0 631.0Q389 632 381.0 631.0Q373 630 373 634Q373 665 364.0 684.0Q355 703 339.5 703.0Q324 703 316.0 687.0Q308 671 306 654Q306 646 308.0 634.0Q310 622 316.0 613.0Q322 604 324 605Q330 607 332.5 612.5Q335 618 329 617Q325 617 321.0 625.0Q317 633 315 644Q315 656 320.0 665.0Q325 674 339 673Q349 673 354.0 661.0Q359 649 360.0 639.0Q361 629 359 627Q347 618 342.0 611.0Q337 604 326.0 598.0Q315 592 315 591Q308 583 306.0 575.0Q304 567 310 565Q318 561 324.0 555.0Q330 549 333.0 544.0Q336 539 344.0 537.0Q352 535 363 533Q390 532 420 541Q421 542 433.0 545.0Q445 548 452 551L469 558Q479 562 481 568Q486 576 492 573Q494 571 495.0 568.0Q496 565 494.0 561.0Q492 557 484 556Q473 553 453 544L428 533Q403 522 388.5 519.5Q374 517 344 521Q339 522 339.0 520.0Q339 518 349 510Q363 497 386 497Q396 498 406.0 501.0Q416 504 426 509L475 535Q480 538 485.0 536.0Q490 534 490 530Q490 529 489 528L487 525Q486 523 484 522L479 520Q476 519 474.0 517.0Q472 515 469 514L463 512Q448 504 426.0 487.0Q404 470 388.0 463.0Q372 456 360.5 462.5Q349 469 326 504Q314 521 312 516Q311 514 311 510Q311 496 303.0 479.0Q295 462 287.0 448.0Q279 434 275.0 415.0Q271 396 281 380Q268 377 246.0 330.0Q224 283 220 251Q219 241 219.0 213.0Q219 185 216 180Q212 166 200 178Q182 195 180 231Q179 246 182 262Q184 272 181 272L179 269Q159 233 185 177Q188 170 199 161L212 150Q223 137 270 99L322 57Q331 48 332.0 35.0Q333 22 324.0 11.0Q315 0 299 -2Q303 -10 315.0 -26.0Q327 -42 330.0 -57.0Q333 -72 334 -96Q360 -83 338 -45Q336 -40 332.0 -36.0Q328 -32 327 -29L326 -26Q328 -23 333.0 -20.0Q338 -17 344 -22Q370 -51 437 -42Q511 -33 536 7Q549 28 555.0 24.0Q561 20 560 -6Q560 -19 547 -57Q542 -70 544.0 -78.0Q546 -86 558 -86Q559 -76 566.0 -43.0Q573 -10 573 7Q574 19 570.0 48.0Q566 77 565.0 102.0Q564 127 578 141Q587 151 607 151Q607 172 626.0 181.0Q645 190 666.0 187.0Q687 184 700 174ZM349 636Q351 645 348.0 653.0Q345 661 342 661Q337 662 337 657Q338 654 339 654Q345 654 343 645Q342 634 348 634Q349 634 349 636ZM583 526Q582 530 580.0 532.0Q578 534 572.0 535.0Q566 536 563.5 538.0Q561 540 559.0 543.0Q557 546 555.0 547.0Q553 548 552.0 551.0Q551 554 550.0 553.0Q549 552 547 552Q540 543 551.0 528.0Q562 513 573 510Q578 510 581.0 515.0Q584 520 583 526ZM484 645Q484 651 481.0 656.0Q478 661 475.0 663.0Q472 665 469.5 664.5Q467 664 465.0 663.0Q463 662 465 661L468 659Q476 657 478 642Q478 640 483 643Q484 644 484 645ZM514 775Q514 776 513.0 778.0Q512 780 508.0 781.0Q504 782 502 785Q494 793 489.0 793.0Q484 793 482.0 789.0Q480 785 482.0 782.0Q484 779 482.5 775.5Q481 772 478.0 769.0Q475 766 475.0 764.0Q475 762 477.0 759.5Q479 757 481 759L487 764Q491 767 496 769Q496 770 501.0 770.0Q506 770 509.0 771.0Q512 772 514 775ZM829 26Q840 20 847.0 13.0Q854 6 853.0 -1.0Q852 -8 852.0 -13.0Q852 -18 843.0 -26.0Q834 -34 830.0 -36.0Q826 -38 813.0 -47.0Q800 -56 796.0 -56.0Q792 -56 778.0 -65.0Q764 -74 763 -72Q742 -83 715.0 -103.0Q688 -123 673 -139Q664 -148 635.0 -150.0Q606 -152 585 -142Q575 -137 569.0 -129.0Q563 -121 560.0 -114.0Q557 -107 547.0 -103.0Q537 -99 521 -98H417Q396 -98 385 -100Q360 -100 340.0 -108.0Q320 -116 310.0 -125.0Q300 -134 286.0 -141.0Q272 -148 256.0 -147.5Q240 -147 194.0 -130.0Q148 -113 113 -106L56 -96Q46 -94 34.0 -90.0Q22 -86 16.0 -82.0Q10 -78 6 -71Q1 -59 10.0 -34.0Q19 -9 20 -4Q21 5 18.0 19.0Q15 33 12.0 42.0Q9 51 10.0 63.0Q11 75 16 78Q23 84 47.0 86.0Q71 88 81 92Q98 102 104.0 112.0Q110 122 111 140Q123 99 93 81Q75 70 47 73Q28 74 23 67Q16 59 26 35L30 25Q33 18 35.0 15.0Q37 12 37.0 6.0Q37 0 37.5 -7.5Q38 -15 29.0 -34.0Q20 -53 21.0 -61.5Q22 -70 41 -75Q53 -79 88 -86L144 -97Q157 -100 185.0 -109.0Q213 -118 231.0 -122.0Q249 -126 262 -124Q286 -121 298.0 -109.0Q310 -97 311.0 -82.0Q312 -67 307.0 -49.0Q302 -31 296 -20L285 0Q218 106 191 135Q153 177 128 158Q122 153 119 166Q118 175 118 187Q119 203 124.0 216.0Q129 229 137.0 242.0Q145 255 150 266L164 306Q174 334 181 349L198 384Q208 404 219 414Q281 493 289 522Q282 585 280 695Q279 746 293.0 780.0Q307 814 352 838Q374 850 410 850Q440 851 469.0 843.0Q498 835 519 819Q551 796 570.0 752.0Q589 708 587 669Q584 616 603 550Q622 487 678 428Q708 395 733.0 337.0Q758 279 766 231Q771 203 769.0 183.0Q767 163 762.0 153.0Q757 143 751 140Q746 139 738.0 130.0Q730 121 723.0 110.0Q716 99 700.0 91.0Q684 83 666 83Q656 84 649.0 86.0Q642 88 636.0 94.0Q630 100 629 102L622 114Q616 124 617 125Q605 145 594.0 141.0Q583 137 579.0 114.0Q575 91 583 60Q594 21 583 -49Q578 -85 593.0 -105.0Q608 -125 634.0 -124.0Q660 -123 681 -104Q714 -76 731.0 -67.0Q748 -58 789 -43Q819 -33 832.0 -23.0Q845 -13 842.0 -3.0Q839 7 828.0 13.0Q817 19 800 26Q781 32 772.0 53.0Q763 74 764.0 93.0Q765 112 772 120Q773 102 777.0 88.0Q781 74 785.0 65.0Q789 56 796.0 50.0Q803 44 808.0 39.0Q813 34 820.0 32.0Q827 30 829 26Z" />
      </g>
    </svg>