<svg xmlns="http://www.w3.org/2000/svg" viewBox="0 -79 571 858">
      <g transform="scale(1 -1) translate(0 -700)">
        <path d="M429 493Q429 552 387.0 594.0Q345 636 286.0 636.0Q227 636 185.0 594.0Q143 552 143.0 493.0Q143 434 185.0 392.0Q227 350 286.0 350.0Q345 350 387.0 392.0Q429 434 429 493ZM571 493Q571 432 553 393L350 -39Q341 -57 323.0 -68.0Q305 -79 286.0 -79.0Q267 -79 248.0 -68.0Q229 -57 222 -39L18 393Q0 432 0 493Q0 611 84.0 695.0Q168 779 286.0 779.0Q404 779 488.0 695.0Q572 611 571 493Z" />
      </g>
    </svg>