<svg xmlns="http://www.w3.org/2000/svg" viewBox="0 -7 643 857">
      <g transform="scale(1 -1) translate(0 -843)">
        <path d="M589 421Q612 421 627.0 406.0Q642 391 643 368V46Q643 24 627.0 9.0Q611 -6 589 -7H54Q31 -7 16.0 9.0Q1 25 0 46V368Q0 390 16.0 406.0Q32 422 54 421H71V600Q71 703 145.0 777.0Q219 851 321.0 850.0Q423 849 498.0 777.0Q573 705 571 600Q571 586 561.0 575.0Q551 564 536 564H500Q486 564 475.0 575.0Q464 586 464 600Q464 659 422.0 701.0Q380 743 321.0 743.0Q262 743 220.0 701.0Q178 659 179 600V421Z" />
      </g>
    </svg>