<svg xmlns="http://www.w3.org/2000/svg" viewBox="0 -7 929 786">
      <g transform="scale(1 -1) translate(0 -772)">
        <path d="M929 529V386Q929 371 918.0 361.0Q907 351 893 350H857Q843 350 832.0 361.0Q821 372 821 386V529Q821 588 780.0 630.0Q739 672 679.0 671.0Q619 670 578.0 630.0Q537 590 536 529V421H589Q612 421 627.0 406.0Q642 391 643 368V46Q643 24 627.0 9.0Q611 -6 589 -7H54Q31 -7 16.0 9.0Q1 25 0 46V368Q0 390 16.0 406.0Q32 422 54 421H429V529Q429 632 502.0 705.0Q575 778 679.0 779.0Q783 780 855.0 705.0Q927 630 929 529Z" />
      </g>
    </svg>