<svg xmlns="http://www.w3.org/2000/svg" viewBox="0 25 850 650">
      <g transform="scale(1 -1) translate(0 -700)">
        <path d="M100 675Q59 675 29.5 645.5Q0 616 0.0 575.0Q0 534 29.5 504.5Q59 475 100.0 475.0Q141 475 170.5 504.5Q200 534 200.0 575.0Q200 616 170.5 645.5Q141 675 100 675ZM250 575Q250 534 230.0 499.5Q210 465 175.5 445.0Q141 425 100 425H25Q12 425 8 422Q0 417 0 400V350Q0 325 25 325H850V425Q850 453 846 470Q839 498 819 519Q793 545 745 559Q688 575 600 575ZM50 275Q31 275 15.5 259.5Q0 244 0 225V75Q0 56 15.5 40.5Q31 25 50.0 25.0Q69 25 84.5 40.5Q100 56 100 75V175H750V75Q750 56 765.5 40.5Q781 25 800.0 25.0Q819 25 834.5 40.5Q850 56 850 75V225Q850 244 834.5 259.5Q819 275 800 275Z" />
      </g>
    </svg>