<svg xmlns="http://www.w3.org/2000/svg" viewBox="0 11 938 676">
      <g transform="scale(1 -1) translate(0 -698)">
        <path d="M834 688Q878 688 908.0 658.0Q938 628 938 584V116Q938 73 908.0 42.0Q878 11 834 12H104Q60 12 30.0 42.0Q0 72 0 116V584Q0 628 30.0 658.0Q60 688 104 688ZM413 234 331 306 141 116H796L606 306L525 234Q501 214 469.0 214.0Q437 214 413 234ZM104 152 291 341 104 504ZM646 341 834 153V504ZM834 584H104V573L446 273Q455 266 469.0 266.0Q483 266 491 273L834 573Z" />
      </g>
    </svg>