<svg xmlns="http://www.w3.org/2000/svg" viewBox="0 -79 857 858">
      <g transform="scale(1 -1) translate(0 -700)">
        <path d="M821 779Q836 779 847.0 768.0Q858 757 857 743V511Q857 503 852.0 498.0Q847 493 839 493H804Q796 493 791.0 498.0Q786 503 786 511V657L573 443Q643 356 643 243Q643 178 618.0 118.0Q593 58 549.0 16.0Q505 -26 446.0 -53.0Q387 -80 321.0 -79.0Q255 -78 197.0 -53.0Q139 -28 94.0 16.0Q49 60 25.0 118.0Q1 176 0.0 243.0Q-1 310 25.0 368.0Q51 426 94.0 470.0Q137 514 197.0 539.0Q257 564 321 564Q435 564 522 494L735 707H589Q582 707 577.0 712.0Q572 717 571 725V761Q571 769 577.0 774.0Q583 779 589 779ZM321 -7Q425 -7 498.0 66.0Q571 139 571.0 243.0Q571 347 498.0 420.0Q425 493 321.0 493.0Q217 493 145.0 420.0Q73 347 71.0 243.0Q69 139 145.0 66.0Q221 -7 321 -7Z" />
      </g>
    </svg>