<svg xmlns="http://www.w3.org/2000/svg" viewBox="63 -140 874 980">
      <g transform="scale(1 -1) translate(0 -700)">
        <path d="M870 586Q862 586 854 583Q825 659 771.0 717.5Q717 776 646.0 808.0Q575 840 498.5 840.0Q422 840 351.0 808.0Q280 776 226.0 718.0Q172 660 143 584Q135 586 131 586Q102 586 82.5 553.0Q63 520 63 472Q63 429 78.5 398.0Q94 367 119 360Q129 297 155.0 241.5Q181 186 222 141L221 137Q221 62 259 -3Q296 -65 359.5 -102.5Q423 -140 498.0 -140.0Q573 -140 636.5 -102.5Q700 -65 737.5 -1.5Q775 62 775 137V141Q816 186 842.0 242.0Q868 298 877 359Q903 364 920.0 395.5Q937 427 937 472Q937 520 917.5 553.0Q898 586 870 586ZM647 632Q675 632 699.0 618.0Q723 604 737.0 580.0Q751 556 751.0 528.0Q751 500 737.0 476.0Q723 452 699.0 438.0Q675 424 647.0 424.0Q619 424 595.0 438.0Q571 452 557.0 476.0Q543 500 543.0 528.0Q543 556 557.0 580.0Q571 604 595.0 618.0Q619 632 647 632ZM358 632Q386 632 410.0 618.0Q434 604 448.0 580.0Q462 556 462.0 528.0Q462 500 448.0 476.0Q434 452 410.0 438.0Q386 424 358.0 424.0Q330 424 306.0 438.0Q282 452 268.0 476.0Q254 500 254.0 528.0Q254 556 268.0 580.0Q282 604 306.0 618.0Q330 632 358 632ZM749 137Q749 69 715.5 11.5Q682 -46 624.0 -80.0Q566 -114 498.0 -114.0Q430 -114 372.5 -80.5Q315 -47 281.5 11.0Q248 69 248 137V145Q250 212 284.5 267.5Q319 323 375.0 355.0Q431 387 498.0 387.0Q565 387 621.0 355.0Q677 323 711.5 268.0Q746 213 748 147V145L749 143V141H753L749 140ZM440 199Q453 199 462.5 208.5Q472 218 472.0 231.0Q472 244 462.5 253.0Q453 262 440.0 262.0Q427 262 418.0 253.0Q409 244 409.0 231.0Q409 218 418.0 208.5Q427 199 440 199ZM440 267Q455 267 466.0 256.5Q477 246 477.0 231.0Q477 216 466.0 205.5Q455 195 440.5 195.0Q426 195 415.0 205.5Q404 216 404.0 231.0Q404 246 415.0 256.5Q426 267 440 267ZM556 199Q569 199 578.0 208.5Q587 218 587.0 231.0Q587 244 578.0 253.0Q569 262 556.0 262.0Q543 262 534.0 253.0Q525 244 525.0 231.0Q525 218 534.0 208.5Q543 199 556 199ZM556 190Q573 190 585.0 202.0Q597 214 597.0 231.0Q597 248 585.0 260.0Q573 272 556.5 272.0Q540 272 527.5 260.0Q515 248 515.0 231.0Q515 214 527.0 202.0Q539 190 556 190ZM442 50Q456 50 465.0 41.0Q474 32 474.0 18.5Q474 5 465.0 -4.0Q456 -13 442.5 -13.0Q429 -13 420.0 -4.0Q411 5 411.0 18.0Q411 31 420.0 40.5Q429 50 442 50ZM442 -18Q427 -18 416.5 -7.5Q406 3 406.0 18.0Q406 33 416.5 43.5Q427 54 442.0 54.0Q457 54 467.5 43.5Q478 33 478.0 18.0Q478 3 467.5 -7.5Q457 -18 442 -18ZM558 50Q545 50 536.0 40.5Q527 31 527.0 18.0Q527 5 536.0 -4.0Q545 -13 558.0 -13.0Q571 -13 580.0 -4.0Q589 5 589.0 18.0Q589 31 580.0 40.5Q571 50 558 50ZM558 -18Q543 -18 532.5 -7.5Q522 3 522.0 18.0Q522 33 532.5 43.5Q543 54 558.0 54.0Q573 54 583.5 43.5Q594 33 594.0 18.0Q594 3 583.5 -7.5Q573 -18 558 -18ZM381 151Q395 151 404.0 142.0Q413 133 413.0 119.5Q413 106 403.5 97.0Q394 88 381.0 88.0Q368 88 359.0 97.0Q350 106 350.0 119.0Q350 132 359.0 141.5Q368 151 381 151ZM422 119Q422 136 410.0 148.0Q398 160 381.0 160.0Q364 160 352.5 148.0Q341 136 341.0 119.5Q341 103 353.0 91.0Q365 79 381.5 79.0Q398 79 410.0 90.5Q422 102 422 119ZM497 151Q510 151 519.5 141.5Q529 132 529.0 119.0Q529 106 519.5 97.0Q510 88 497.0 88.0Q484 88 475.0 97.0Q466 106 466.0 119.0Q466 132 475.0 141.5Q484 151 497 151ZM497 83Q482 83 471.5 94.0Q461 105 461.0 119.5Q461 134 471.5 145.0Q482 156 497.0 156.0Q512 156 522.5 145.0Q533 134 533.0 119.5Q533 105 522.5 94.0Q512 83 497 83ZM605 151Q619 151 628.0 142.0Q637 133 637.0 119.5Q637 106 627.5 97.0Q618 88 605.0 88.0Q592 88 583.0 97.0Q574 106 574.0 119.0Q574 132 583.0 141.5Q592 151 605 151ZM605 83Q590 83 579.5 94.0Q569 105 569.0 119.5Q569 134 579.5 145.0Q590 156 605.0 156.0Q620 156 630.5 145.0Q641 134 641.0 119.5Q641 105 630.5 94.0Q620 83 605 83Z" />
      </g>
    </svg>