<svg xmlns="http://www.w3.org/2000/svg" viewBox="154 -150 692 1000">
      <g transform="scale(1 -1) translate(0 -700)">
        <path d="M808 465Q791 465 781 454Q769 442 769 427V350Q769 238 690.5 159.5Q612 81 500.5 81.0Q389 81 310.0 159.5Q231 238 231 350V427Q231 442 219 454Q209 465 192.5 465.0Q176 465 165.0 453.0Q154 441 154 427V350Q154 215 242.5 118.0Q331 21 462 6V-73H308Q292 -73 280.5 -84.0Q269 -95 269.0 -111.0Q269 -127 280.5 -138.5Q292 -150 308 -150H692Q708 -150 719.5 -138.5Q731 -127 731.0 -111.0Q731 -95 720.0 -84.0Q709 -73 692 -73H539V6Q669 21 757.5 118.5Q846 216 846 350V427Q846 441 835.0 453.0Q824 465 808 465ZM409 476H308V405H409Q421 405 429.5 397.0Q438 389 438.0 377.0Q438 365 429.5 357.0Q421 349 409 349H308Q308 272 365.0 215.0Q422 158 500.0 158.0Q578 158 635.0 215.0Q692 272 692 349H594Q583 349 574.5 357.0Q566 365 566.0 377.0Q566 389 574.5 397.0Q583 405 594 405H692V476H594Q583 476 574.5 484.0Q566 492 566.0 504.0Q566 516 574.5 524.0Q583 532 594 532H692V607H594Q583 607 574.5 615.0Q566 623 566.0 635.0Q566 647 574.5 655.0Q583 663 594 663H692Q691 738 636 794Q578 850 500.0 850.0Q422 850 364 794Q309 738 308 663H409Q421 663 429.5 654.5Q438 646 438.0 635.0Q438 624 429.5 615.5Q421 607 409 607H308V532H409Q421 532 429.5 523.5Q438 515 438.0 504.0Q438 493 429.5 484.5Q421 476 409 476Z" />
      </g>
    </svg>