<svg xmlns="http://www.w3.org/2000/svg" viewBox="0 -7 786 786">
      <g transform="scale(1 -1) translate(0 -772)">
        <path d="M643 404V368Q643 360 638.0 355.0Q633 350 625 350H161Q153 350 148.0 355.0Q143 360 143 368V404Q143 411 148.0 416.0Q153 421 161 421H625Q633 421 638.0 416.0Q643 411 643 404ZM714 154V618Q714 655 688.0 681.0Q662 707 625 707H161Q124 707 98.0 681.0Q72 655 71 618V154Q71 117 98.0 91.0Q125 65 161 64H625Q662 64 688.0 91.0Q714 118 714 154ZM786 618V154Q786 87 739.0 40.0Q692 -7 625 -7H161Q94 -7 47.0 40.0Q0 87 0 154V618Q0 684 47.0 731.0Q94 778 161 779H625Q691 779 739.0 731.0Q787 683 786 618Z" />
      </g>
    </svg>