<svg xmlns="http://www.w3.org/2000/svg" viewBox="60 102 937 562">
      <g transform="scale(1 -1) translate(0 -766)">
        <path d="M61 258Q61 272 71.0 280.0Q81 288 98 289H266Q255 320 252 352H154Q141 352 132.0 360.0Q123 368 123.0 383.0Q123 398 132.0 405.0Q141 412 154 414H252Q255 445 266 477H92Q78 477 69.0 485.0Q60 493 61.0 508.0Q62 523 69.0 530.0Q76 537 92 539H295Q333 595 394.5 629.5Q456 664 529 664Q637 664 715 592Q795 519 806 414H966Q980 414 989.0 405.0Q998 396 998.0 383.0Q998 370 989.0 360.0Q980 350 966 352H806Q803 320 793 289H836Q851 289 862.0 280.0Q873 271 873.0 258.0Q873 245 862.0 236.0Q851 227 836 227H763Q725 171 663.5 136.5Q602 102 529.0 102.0Q456 102 394.5 136.5Q333 171 295 227H98Q82 227 71.0 236.0Q60 245 61 258ZM314 352Q318 319 332 289H726Q740 319 744 352ZM314 414H744Q732 495 671.5 548.5Q611 602 529 602Q442 602 377 539H529Q543 539 551.0 530.0Q559 521 560.0 508.0Q561 495 551.0 485.0Q541 475 529 477H332Q318 447 314 414ZM377 227Q442 164 529.0 164.0Q616 164 681 227Z" />
      </g>
    </svg>