<svg xmlns="http://www.w3.org/2000/svg" viewBox="255 106 488 488">
      <g transform="scale(1 -1) translate(0 -700)">
        <path d="M256 356Q256 459 330 533Q369 572 424 592Q429 594 434 594Q446 594 455.0 584.0Q464 574 465 562Q465 557 463 551Q452 521 452 489Q452 468 457 447Q469 395 507.0 357.0Q545 319 597 307Q618 302 639 302Q671 302 701 313Q707 315 712 315Q724 315 734.0 305.0Q744 295 744 284Q744 279 742 274Q722 219 683 180Q609 106 506.0 106.0Q403 106 329.0 179.0Q255 252 256 356ZM318 357Q318 279 373 223Q427 169 504 169H516Q602 175 652 240H632Q534 240 462.0 312.0Q390 384 390 482V502Q380 496 373 488Q318 434 318 357Z" />
      </g>
    </svg>