<svg xmlns="http://www.w3.org/2000/svg" viewBox="0 -150 857 929">
      <g transform="scale(1 -1) translate(0 -629)">
        <path d="M857 725V100Q857 72 838.0 50.0Q819 28 790.0 17.0Q761 6 732.0 -1.0Q703 -8 679.0 -7.0Q655 -6 625.0 -1.0Q595 4 567.0 17.0Q539 30 519.0 50.0Q499 70 500.0 100.0Q501 130 519.0 150.0Q537 170 567.0 183.0Q597 196 625.0 201.0Q653 206 679 207Q737 207 786 185V485L357 353V-43Q357 -71 338.0 -93.0Q319 -115 290.0 -126.0Q261 -137 232.0 -144.0Q203 -151 179.0 -150.0Q155 -149 125.0 -144.0Q95 -139 67.0 -126.0Q39 -113 19.0 -93.0Q-1 -73 0.0 -43.0Q1 -13 19.0 7.0Q37 27 67.0 41.0Q97 55 125 58L179 64Q237 64 286 43V582Q286 599 296.0 614.0Q306 629 324 634L788 776Q795 779 804 779Q826 779 842.0 763.0Q858 747 857 725Z" />
      </g>
    </svg>