<svg xmlns="http://www.w3.org/2000/svg" viewBox="7 -79 772 929">
      <g transform="scale(1 -1) translate(0 -771)">
        <path d="M151 323 95 266Q71 324 71 386V457Q71 472 82.0 482.0Q93 492 107.0 493.0Q121 494 132.0 482.0Q143 470 143 457V386Q143 356 151 323ZM773 659 571 457V386Q571 312 519.0 260.0Q467 208 393 207Q362 207 332 218L279 164Q333 136 393 136Q496 136 570.0 209.0Q644 282 643 386V457Q643 472 654.0 482.0Q665 492 679.0 493.0Q693 494 704.0 482.0Q715 470 714 457V386Q714 262 632.0 171.0Q550 80 429 67V-7H571Q586 -7 597.0 -18.0Q608 -29 607.0 -43.0Q606 -57 597.0 -68.0Q588 -79 571 -79H214Q200 -79 189.0 -68.0Q178 -57 179.0 -43.0Q180 -29 189.0 -18.0Q198 -7 214 -7H357V67Q287 74 226 112L84 -30Q79 -36 71.0 -36.0Q63 -36 59 -30L13 16Q7 21 7.0 29.0Q7 37 13 41L702 730Q707 736 714.0 736.0Q721 736 727 730L773 684Q779 679 779.0 671.0Q779 663 773 659ZM561 732 214 386V671Q214 745 267.0 798.0Q320 851 393 850Q450 850 496.0 817.0Q542 784 561 732Z" />
      </g>
    </svg>