<svg xmlns="http://www.w3.org/2000/svg" viewBox="0 -79 857 858">
      <g transform="scale(1 -1) translate(0 -700)">
        <path d="M654 396 418 161Q407 150 393.0 150.0Q379 150 368 161L204 325Q193 336 193.0 350.0Q193 364 204 375L261 432Q271 443 286.0 443.0Q301 443 311 432L393 350L546 504Q557 514 571.0 514.0Q585 514 597 504L654 447Q664 436 664.0 421.0Q664 406 654 396ZM732 350Q732 433 691.0 502.0Q650 571 581.0 613.0Q512 655 429.0 654.0Q346 653 276.0 613.0Q206 573 166.0 502.0Q126 431 125.0 350.0Q124 269 166.0 198.0Q208 127 276.0 87.0Q344 47 429.0 46.0Q514 45 581.0 87.0Q648 129 691.0 198.0Q734 267 732 350ZM857 350Q857 233 800.0 135.0Q743 37 644.0 -21.0Q545 -79 429.0 -79.0Q313 -79 213.0 -21.0Q113 37 58.0 135.0Q3 233 0.0 350.0Q-3 467 58.0 565.0Q119 663 213.0 721.0Q307 779 429.0 779.0Q551 779 644.0 721.0Q737 663 800.0 565.0Q863 467 857 350Z" />
      </g>
    </svg>