<svg xmlns="http://www.w3.org/2000/svg" viewBox="0 -79 857 858">
      <g transform="scale(1 -1) translate(0 -700)">
        <path d="M717 440Q717 456 707 466L656 516Q645 527 631.0 527.0Q617 527 606 516L378 289L252 415Q241 426 227.0 426.0Q213 426 202 415L151 365Q141 355 141.0 339.5Q141 324 151 314L353 112Q363 102 378.0 102.0Q393 102 404 112L707 415Q717 425 717 440ZM857 350Q857 233 800.0 135.0Q743 37 644.0 -21.0Q545 -79 429.0 -79.0Q313 -79 213.0 -21.0Q113 37 58.0 135.0Q3 233 0.0 350.0Q-3 467 58.0 565.0Q119 663 213.0 721.0Q307 779 429.0 779.0Q551 779 644.0 721.0Q737 663 800.0 565.0Q863 467 857 350Z" />
      </g>
    </svg>