<svg xmlns="http://www.w3.org/2000/svg" viewBox="0 -79 857 858">
      <g transform="scale(1 -1) translate(0 -700)">
        <path d="M382 125 725 468Q736 478 736.0 493.0Q736 508 725 518L668 575Q657 586 643.0 586.0Q629 586 618 575L357 314L239 432Q229 443 214.0 443.0Q199 443 189 432L132 375Q122 365 122.0 350.0Q122 335 132 325L332 125Q343 115 357.0 115.0Q371 115 382 125ZM857 618V82Q857 16 810.0 -31.0Q763 -78 696 -79H161Q94 -79 47.0 -31.0Q0 17 0 82V618Q0 684 47.0 731.0Q94 778 161 779H696Q763 779 810.0 731.0Q857 683 857 618Z" />
      </g>
    </svg>