<svg xmlns="http://www.w3.org/2000/svg" viewBox="0 -90 1000 880">
      <g transform="scale(1 -1) translate(0 -700)">
        <path d="M136 790Q129 789 124.5 783.0Q120 777 120 770V741L26 769Q22 770 18 770H16Q9 769 4.5 763.0Q0 757 0 750V-50Q0 -60 8.0 -66.0Q16 -72 26 -69L120 -41V-70Q120 -78 126.0 -84.0Q132 -90 140 -90H860Q868 -90 874.0 -84.0Q880 -78 880 -70V-41L974 -69Q984 -72 992.0 -66.0Q1000 -60 1000 -50V750Q1000 759 993.5 765.0Q987 771 978 770L880 741V770Q880 778 874.0 784.0Q868 790 860 790ZM160 750H840V729L776 710H224L160 729ZM40 723 200 675V453L40 468ZM960 723V468L800 453V675ZM240 670H760V30H240ZM40 428 200 412V25L40 -23ZM960 428V-23L800 25V412ZM224 -10H776L840 -29V-50H160V-29Z" />
      </g>
    </svg>