<svg xmlns="http://www.w3.org/2000/svg" viewBox="0 -79 929 858">
      <g transform="scale(1 -1) translate(0 -700)">
        <path d="M435 587Q435 553 425.0 523.0Q415 493 390.0 472.0Q365 451 331 450Q289 450 254.0 482.0Q219 514 203.0 558.0Q187 602 186 642Q186 675 196.0 705.0Q206 735 232.0 757.0Q258 779 290 779Q333 779 368.0 747.0Q403 715 419.0 671.0Q435 627 435 587ZM244 317Q244 272 221.0 240.0Q198 208 155.0 207.5Q112 207 76.0 238.0Q40 269 20.0 312.0Q0 355 0 397Q0 442 23.0 475.0Q46 508 89.0 508.0Q132 508 169.0 477.0Q206 446 225.0 402.0Q244 358 244 317ZM464 332Q530 332 607.0 278.0Q684 224 734.0 146.0Q784 68 786 4Q786 -22 776.0 -39.0Q766 -56 749.0 -64.0Q732 -72 713.0 -76.0Q694 -80 671 -79Q633 -79 566.0 -54.0Q499 -29 463.5 -28.5Q428 -28 357.0 -53.0Q286 -78 245 -78Q143 -78 143 4Q143 52 174.0 110.0Q205 168 252.0 218.0Q299 268 357.0 299.0Q415 330 464 332ZM598 450Q564 450 539.0 472.0Q514 494 504.0 523.0Q494 552 493 587Q493 628 510.0 671.0Q527 714 561.0 747.0Q595 780 638 779Q672 779 697.0 757.0Q722 735 732.0 705.0Q742 675 743 642Q743 601 726.0 558.0Q709 515 675.0 482.0Q641 449 598 450ZM839 508Q882 508 905.0 475.0Q928 442 929 397Q929 356 909.0 312.0Q889 268 853.0 238.0Q817 208 774.0 207.5Q731 207 708.0 240.0Q685 273 684 317Q684 358 704.0 402.0Q724 446 760.0 477.0Q796 508 839 508Z" />
      </g>
    </svg>