<svg xmlns="http://www.w3.org/2000/svg" viewBox="0 -7 786 786">
      <g transform="scale(1 -1) translate(0 -772)">
        <path d="M786 158Q786 143 780.0 119.0Q774 95 768 81Q757 53 700 21Q648 -7 597 -7Q582 -7 567.0 -5.0Q552 -3 535 2L509 10L450 31Q396 51 353 78Q282 122 205.0 198.0Q128 274 85 346Q58 389 39 443L29 471Q21 494 17.0 502.0Q13 510 9 528L2 560Q-1 574 0 589Q0 641 29 693Q60 750 88 761Q102 767 126.0 773.0Q150 779 165 779Q173 779 177 777Q187 774 207 735L223 704Q233 684 243.0 669.0Q253 654 260 639Q262 637 270.0 625.0Q278 613 282.0 605.0Q286 597 286 589Q286 578 270.0 562.0Q254 546 235.0 531.0Q216 516 201.0 501.0Q186 486 185 476Q185 471 188 463L192 452Q193 449 200.0 438.0Q207 427 207 428Q249 351 304.0 296.0Q359 241 435 199Q436 199 445.0 193.0Q454 187 459 185L470 180Q476 177 483 178Q493 178 508.0 194.0Q523 210 538.0 228.0Q553 246 569.0 263.0Q585 280 597 279Q604 279 612.0 275.0Q620 271 632.0 263.0Q644 255 646 253L742 199Q781 180 784 170Q786 166 786 158Z" />
      </g>
    </svg>