<svg xmlns="http://www.w3.org/2000/svg" viewBox="0 -79 1071 858">
      <g transform="scale(1 -1) translate(0 -700)">
        <path d="M357 529Q357 484 326.0 453.0Q295 422 250.0 421.0Q205 420 174.0 453.0Q143 486 143.0 529.0Q143 572 174.0 605.0Q205 638 250.0 636.0Q295 634 326.0 605.0Q357 576 357 529ZM929 314V64H143V171L321 350L411 261L696 546ZM982 707H89Q82 707 77.0 702.0Q72 697 71 689V11Q71 4 77.0 -2.0Q83 -8 89 -7H982Q989 -7 995.0 -2.0Q1001 3 1000 11V689Q1000 697 995.0 702.0Q990 707 982 707ZM1071 689V11Q1071 -26 1045.0 -52.0Q1019 -78 982 -79H89Q53 -79 26.0 -52.0Q-1 -25 0 11V689Q0 726 26.0 752.0Q52 778 89 779H982Q1019 779 1045.0 752.0Q1071 725 1071 689Z" />
      </g>
    </svg>