<svg xmlns="http://www.w3.org/2000/svg" viewBox="0 -125 650 950">
      <g transform="scale(1 -1) translate(0 -700)">
        <path d="M300 825Q259 825 229.5 795.5Q200 766 200.0 725.0Q200 684 229.5 654.5Q259 625 300.0 625.0Q341 625 370.5 654.5Q400 684 400.0 725.0Q400 766 370.5 795.5Q341 825 300 825ZM13 625 38 525Q44 501 56 490Q66 480 83 477Q93 475 117 475H200Q213 453 218 419Q220 398 221 351Q222 301 225 275H180Q152 275 126 258Q96 239 87 208Q77 171 100 125L175 -25Q192 -60 215 -70Q235 -79 252.5 -69.0Q270 -59 277.0 -38.5Q284 -18 275 0L200 150Q192 166 204 172Q210 175 225 175H348L366 138Q389 92 413 51Q446 -6 477 -46L486 -58Q510 -91 524 -103Q546 -125 567 -125Q581 -125 595.0 -112.0Q609 -99 610 -80Q611 -57 590 -32Q527 43 488 116Q450 186 450 225Q450 273 443 346Q436 426 425 475H500L563 350Q576 327 597.0 319.0Q618 311 634.0 320.0Q650 329 650 350Q650 369 643 384L563 551Q556 562 549 567Q537 575 513 575H125L88 700Q81 724 59.5 733.0Q38 742 19.0 733.0Q0 724 0 700Q0 681 9 642Z" />
      </g>
    </svg>