<svg xmlns="http://www.w3.org/2000/svg" viewBox="0 -79 857 858">
      <g transform="scale(1 -1) translate(0 -700)">
        <path d="M714 314V386Q714 400 704.0 411.0Q694 422 679 421H500V600Q500 615 489.0 625.0Q478 635 464 636H393Q378 636 368.0 625.0Q358 614 357 600V421H179Q164 421 154.0 411.0Q144 401 143 386V314Q143 300 154.0 289.0Q165 278 179 279H357V100Q357 86 368.0 75.0Q379 64 393 64H464Q479 64 489.0 75.0Q499 86 500 100V279H679Q693 279 704.0 289.0Q715 299 714 314ZM857 618V82Q857 16 810.0 -31.0Q763 -78 696 -79H161Q94 -79 47.0 -31.0Q0 17 0 82V618Q0 684 47.0 731.0Q94 778 161 779H696Q763 779 810.0 731.0Q857 683 857 618Z" />
      </g>
    </svg>