<svg xmlns="http://www.w3.org/2000/svg" viewBox="0 -150 856 999">
      <g transform="scale(1 -1) translate(0 -699)">
        <path d="M555 185Q555 137 545 75Q528 -45 515 -100Q502 -150 430.0 -150.0Q358 -150 345 -100Q332 -45 314 75Q305 136 305 185Q305 279 430.0 279.0Q555 279 555 185ZM857 421Q857 288 782.0 179.0Q707 70 587 23Q583 21 579.0 25.0Q575 29 575 33Q579 60 581 70L584 96Q585 101 589 103Q678 148 732.0 233.0Q786 318 786.0 420.0Q786 522 735.0 606.0Q684 690 597.0 737.0Q510 784 409 778Q340 774 277.0 744.0Q214 714 169.0 666.0Q124 618 97.0 553.0Q70 488 71 419Q72 316 127.0 231.0Q182 146 270 102Q274 100 275 95L279 70Q279 65 281.0 52.0Q283 39 285 32Q285 27 281.0 24.0Q277 21 272 22Q190 55 127.0 117.0Q64 179 30.0 264.0Q-4 349 1 443Q5 522 37.0 595.0Q69 668 124.0 722.0Q179 776 249.0 810.0Q319 844 401 849Q493 855 577.0 823.0Q661 791 723.0 733.0Q785 675 821.0 594.0Q857 513 857 421ZM555 439Q555 387 518.0 351.0Q481 315 430.0 314.0Q379 313 341.0 351.0Q303 389 305.0 439.0Q307 489 341.0 528.0Q375 567 430.0 564.0Q485 561 518.0 528.0Q551 495 555 439ZM715 421Q715 353 686.0 294.0Q657 235 604 195Q599 192 595.0 194.0Q591 196 589 202Q586 231 573 253Q569 259 575 264Q607 294 626.0 335.0Q645 376 644 421Q644 483 611.0 535.0Q578 587 523.0 614.0Q468 641 405 635Q331 626 277.0 572.0Q223 518 217 443Q211 391 230.0 344.0Q249 297 285 264Q290 259 286 253Q273 230 270 201Q269 196 265.0 194.0Q261 192 256 195Q203 236 173.0 297.0Q143 358 144 428Q146 501 183.0 564.0Q220 627 281.0 665.0Q342 703 416 707Q496 711 565.0 673.0Q634 635 675.0 569.0Q716 503 715 421Z" />
      </g>
    </svg>