<svg xmlns="http://www.w3.org/2000/svg" viewBox="182 -140 636 980">
      <g transform="scale(1 -1) translate(0 -700)">
        <path d="M491 -140Q407 -140 335 -97Q265 -55 224 16Q182 89 182 175Q182 243 210 305Q237 363 285 408V630Q285 687 312.5 735.5Q340 784 387.5 812.0Q435 840 491.0 840.0Q547 840 594.5 812.0Q642 784 669.5 735.5Q697 687 697 630V408Q745 363 772 305Q800 243 800 175Q800 89 758 16Q717 -55 647 -97Q575 -140 491 -140ZM628 330 594 361V630Q594 674 564.0 704.5Q534 735 491.0 735.0Q448 735 418.0 704.5Q388 674 388 630V361L354 330Q321 299 303.0 259.0Q285 219 285 175Q285 118 313.0 70.0Q341 22 388.0 -6.5Q435 -35 491.0 -35.0Q547 -35 594.0 -6.5Q641 22 669.0 70.0Q697 118 697 175Q697 219 679.0 259.0Q661 299 628 330ZM491 -4Q444 -4 403.5 20.0Q363 44 339.5 85.0Q316 126 316 175Q316 213 331.5 247.0Q347 281 375 306L419 347V529L563 492V347L607 306Q635 281 650.5 247.0Q666 213 666 175Q666 126 642.5 85.0Q619 44 578.5 20.0Q538 -4 491 -4ZM763 731H781Q796 731 807.0 720.5Q818 710 818.0 695.0Q818 680 807.0 669.5Q796 659 781 659H763Q748 659 737.5 669.5Q727 680 727.0 695.0Q727 710 737.5 720.5Q748 731 763 731ZM763 622H781Q796 622 807.0 611.5Q818 601 818.0 586.0Q818 571 807.0 560.5Q796 550 781 550H763Q748 550 737.5 560.5Q727 571 727.0 586.0Q727 601 737.5 611.5Q748 622 763 622ZM763 513H781Q796 513 807.0 502.5Q818 492 818.0 477.0Q818 462 807.0 451.5Q796 441 781 441H763Q748 441 737.5 451.5Q727 462 727.0 477.0Q727 492 737.5 502.5Q748 513 763 513Z" />
      </g>
    </svg>