<svg xmlns="http://www.w3.org/2000/svg" viewBox="0 -27 929 877">
      <g transform="scale(1 -1) translate(0 -823)">
        <path d="M929 237Q929 192 904.0 162.0Q879 132 835 132Q812 132 792.0 142.0Q772 152 759.0 163.0Q746 174 727.0 184.0Q708 194 688 194Q626 194 626 125Q626 103 635.0 60.0Q644 17 643 -4V-7H625Q606 -9 571.0 -14.0Q536 -19 506.0 -21.0Q476 -23 452 -24Q417 -24 394.0 -9.0Q371 6 371 38Q371 58 380.0 77.0Q389 96 402.0 109.0Q415 122 423.0 142.0Q431 162 433 185Q433 229 402.0 254.0Q371 279 327 279Q280 279 247.0 253.0Q214 227 214 182Q214 158 223.0 136.0Q232 114 241 100L260 70Q270 54 268 42Q268 17 243 -8Q222 -27 178 -27Q124 -27 41 -14Q36 -13 25.0 -12.0Q14 -11 10 -9L1 -8Q0 -8 0 -7V564L10 562Q19 560 29.0 560.0Q39 560 41 558Q124 544 178 544Q222 544 243 564Q268 588 268 613Q268 626 260.0 642.0Q252 658 241.0 671.0Q230 684 223.0 707.0Q216 730 214 754Q214 799 247.0 825.0Q280 851 328 850Q372 850 402.0 825.0Q432 800 433 756Q433 733 423.0 713.0Q413 693 402.0 680.0Q391 667 380.0 649.0Q369 631 371 609Q371 577 394.0 562.0Q417 547 452.0 547.5Q487 548 552.0 556.0Q617 564 643 565V564Q642 563 641 555L636 524Q623 440 623 387Q623 342 642 322Q667 296 692 296Q704 296 720.0 304.0Q736 312 750.0 323.0Q764 334 786.0 342.0Q808 350 832 350Q878 350 903.0 317.0Q928 284 929 237Z" />
      </g>
    </svg>