<svg xmlns="http://www.w3.org/2000/svg" viewBox="0 -150 999 999">
      <g transform="scale(1 -1) translate(0 -699)">
        <path d="M0 506Q0 596 64.0 660.0Q128 724 219 725Q236 725 250 723Q293 784 359 816Q427 849 500.0 849.0Q573 849 639.5 816.5Q706 784 750 723Q763 725 781 725Q871 725 935.0 660.0Q999 595 999.0 506.0Q999 417 935.0 352.0Q871 287 781 287Q739 287 703 301Q615 225 500.0 225.0Q385 225 297 301Q260 287 219 287Q129 287 64.0 352.0Q-1 417 0 506ZM63 506Q63 442 108.0 396.0Q153 350 219 350Q267 350 308 379Q385 287 500.0 287.0Q615 287 691 379Q732 350 781 350Q845 350 891.0 396.0Q937 442 937.0 506.0Q937 570 891.0 616.0Q845 662 781 662Q750 662 722 650Q690 712 631.0 749.5Q572 787 500.0 787.0Q428 787 369.0 749.5Q310 712 277 650Q250 662 219 662Q154 662 108.0 616.0Q62 570 63 506ZM187 100Q187 135 250 225L266 201Q283 175 297 147Q312 115 312 100Q312 75 294.0 56.0Q276 37 250.0 37.0Q224 37 206.0 56.0Q188 75 187 100ZM439 -88Q439 -53 502 37L517 14Q535 -13 549 -41Q564 -73 564 -88Q564 -113 546.0 -132.0Q528 -151 502.0 -150.0Q476 -149 458.0 -132.0Q440 -115 439 -88ZM687 -25Q687 10 750 100L765 76Q783 50 796 22Q812 -10 812 -25Q812 -50 794.0 -69.0Q776 -88 750.0 -88.0Q724 -88 706.0 -69.0Q688 -50 687 -25Z" />
      </g>
    </svg>