<svg xmlns="http://www.w3.org/2000/svg" viewBox="0 -7 1070 643">
      <g transform="scale(1 -1) translate(0 -629)">
        <path d="M714 11Q714 4 709.0 -2.0Q704 -8 696 -7H161Q156 -7 153.0 -6.0Q150 -5 148 -2L145 2Q144 3 143.0 9.0Q142 15 143 15V350H36Q21 350 11.0 361.0Q1 372 0.5 385.5Q0 399 8 409L187 623Q198 635 214.0 635.0Q230 635 242 623L420 409Q429 399 429.0 385.0Q429 371 418.0 361.0Q407 351 393 350H286V136H607Q616 136 621 130L710 22Q714 17 714 11ZM1071 243Q1071 230 1063 220L885 6Q873 -7 857.0 -7.0Q841 -7 830 6L651 220Q643 230 643.0 243.5Q643 257 654.0 268.0Q665 279 679 279H786V493H464Q455 493 450 500L361 607Q357 612 357.0 618.5Q357 625 362.0 630.0Q367 635 375 636H911Q915 636 918.0 635.0Q921 634 923 631L926 626Q927 624 928.0 620.0Q929 616 929 613V279H1036Q1050 279 1061.0 268.0Q1072 257 1071 243Z" />
      </g>
    </svg>