<svg xmlns="http://www.w3.org/2000/svg" viewBox="0 -115 1000 930">
      <g transform="scale(1 -1) translate(0 -700)">
        <path d="M235 492Q235 564 270.5 625.0Q306 686 367.0 722.0Q428 758 500.0 758.0Q572 758 633.0 722.0Q694 686 729 626Q766 564 766 492Q766 461 758 431Q789 420 810 405Q822 447 822 492Q822 580 778 655Q735 728 663 771Q588 815 500.0 815.0Q412 815 337 771Q265 728 222 655Q178 580 178 492Q178 447 190 405Q209 418 242 431Q235 458 235 492ZM850 480Q850 450 842 416Q889 379 916.0 324.5Q943 270 943 208Q943 136 907.5 75.0Q872 14 812 -21Q750 -58 678 -58Q619 -58 566 -33Q515 -9 477 34Q455 15 431 1Q476 -53 540 -83Q605 -115 678 -115Q765 -115 840 -71Q913 -28 956 45Q1000 120 1000 208Q1000 292 959 365Q919 436 850 480ZM800 167Q806 170 806 183Q806 193 802.5 197.0Q799 201 788 201H769V162H784Q793 162 800 167ZM797 99Q803 101 806.0 104.0Q809 107 810.5 112.0Q812 117 812.0 123.0Q812 129 810 135L809 137Q806 141 804 142Q800 146 795 146Q792 147 783 147H769V99L785 98ZM322 -58Q250 -58 188 -21Q128 14 92.5 75.0Q57 136 57 208Q57 270 85 325Q111 378 158 416Q150 450 150 480Q81 436 41 365Q0 292 0 208Q0 121 44 45Q87 -27 160 -70Q235 -114 322 -114Q404 -114 473 -77Q447 -59 426 -36Q376 -58 322 -58ZM734 467Q707 473 678 473Q617 473 563.0 446.5Q509 420 471.5 374.0Q434 328 420 270Q394 278 368 296Q387 363 432.5 416.5Q478 470 541 499Q606 530 678 530Q703 530 733 525Q725 581 692.0 627.5Q659 674 608.5 700.5Q558 727 500.0 727.0Q442 727 391.5 700.5Q341 674 308.0 628.0Q275 582 267 525Q297 530 322 530Q403 530 474 492Q447 473 426 452Q378 473 322 473Q293 473 266 467Q267 457 271 439Q259 437 242 431Q256 373 293.5 326.5Q331 280 385.0 253.5Q439 227 500.0 227.0Q561 227 615.0 253.5Q669 280 706.5 326.5Q744 373 758 431Q742 437 729 439Q733 457 734 467ZM460 546V679H476L497 680Q506 680 518 678Q527 677 533 672Q537 669 541 661Q543 656 543 643Q543 627 537.5 620.5Q532 614 523 609L550 546H526L502 605H493Q486 605 483 606V546ZM580 270Q565 334 520 384Q540 403 567 417Q612 364 632 296Q606 278 580 270ZM508 621Q512 621 515.0 624.0Q518 627 519.5 632.0Q521 637 521 642Q521 655 514.5 659.5Q508 664 498 664H489Q484 664 482 663V620H497Q505 620 508 621ZM419 151Q432 87 477 34L483 40Q495 51 500 58Q505 51 517 40L523 34Q568 87 581 151Q612 158 643 172Q631 75 569 2Q619 -27 681 -27Q745 -27 799.0 4.5Q853 36 884.5 90.0Q916 144 916 208Q916 269 887.5 321.0Q859 373 810 405Q791 338 745.5 284.5Q700 231 637 201Q572 170 500.0 170.0Q428 170 363 201Q300 231 254.5 284.5Q209 338 190 405Q141 373 112.5 321.0Q84 269 84 208Q84 144 115.5 90.0Q147 36 201.0 4.5Q255 -27 319 -27Q380 -27 431 1Q369 76 357 172Q388 158 419 151ZM747 216Q760 216 767 217H789Q811 217 820.0 209.0Q829 201 829 185Q829 173 824.0 166.0Q819 159 809 156Q822 153 828.0 145.5Q834 138 834 122Q834 109 830.5 101.5Q827 94 818.0 89.5Q809 85 802.0 84.0Q795 83 779 83Q758 83 747 84ZM269 99Q264 91 250 86Q239 82 223 82Q194 82 180.0 98.5Q166 115 166 149Q166 169 170 181Q176 197 181 202Q189 211 198.5 214.5Q208 218 223 218L236 217L248 213Q251 211 257 208L259 206Q263 203 267 195Q269 191 269.0 188.5Q269 186 266.5 183.5Q264 181 260.5 181.0Q257 181 255.5 181.5Q254 182 252 185Q248 193 240 198Q230 202 223 202Q207 202 199 189Q191 178 191.0 150.0Q191 122 199 111Q208 98 225 98Q235 98 239 100L248 105V137H222L223 153H269Z" />
      </g>
    </svg>