<svg xmlns="http://www.w3.org/2000/svg" viewBox="0 -127 1000 954">
      <g transform="scale(1 -1) translate(0 -700)">
        <path d="M838 480Q835 481 830 484L825 487V502Q825 590 781 666Q737 739 664 783Q588 827 500.0 827.0Q412 827 336 783Q263 739 219 666Q175 590 175 502V487L170 484Q165 481 162 480Q86 436 43 359Q1 285 0 200Q0 112 44.0 35.5Q88 -41 165 -85Q241 -127 325 -127Q413 -127 487 -83Q492 -81 500 -75Q508 -81 513 -83Q587 -127 675 -127Q759 -127 835 -85Q912 -41 956.5 35.5Q1001 112 1000 200Q1000 285 958 359Q914 436 838 480ZM500 767Q570 767 630.5 732.5Q691 698 727.0 639.5Q763 581 765 511Q722 523 675 523Q589 523 515 481L500 472L485 481Q412 523 325 523Q279 523 235 511Q237 581 273.0 639.5Q309 698 369.5 732.5Q430 767 500 767ZM445 331Q466 367 500 398Q533 370 555 331Q576 296 586 250Q544 236 499.5 236.0Q455 236 415 250Q423 292 445 331ZM394 361Q371 323 360 276Q314 306 282.0 351.0Q250 396 240 450Q282 464 325 464Q391 464 450 433Q418 402 394 361ZM550 433Q609 464 675 464Q718 464 760 450Q750 396 718.5 351.0Q687 306 641 277Q628 324 606.0 362.0Q584 400 550 433ZM325 -67Q254 -67 192.0 -31.0Q130 5 95.0 66.0Q60 127 59.5 196.0Q59 265 92.0 326.0Q125 387 185 424Q201 356 245.0 301.0Q289 246 351 213Q347 144 373.0 78.5Q399 13 450 -36Q390 -67 325 -67ZM500 -1Q458 36 435.0 85.5Q412 135 410 189Q452 177 501.0 177.0Q550 177 590 190Q590 160 581 130Q562 53 500 -1ZM905 66Q870 4 808.0 -31.5Q746 -67 675 -67Q610 -67 550 -36Q615 26 639 114Q652 160 650 213Q712 245 755.5 300.0Q799 355 816 424Q875 387 908.0 326.0Q941 265 941 197Q940 127 905 66Z" />
      </g>
    </svg>