<svg xmlns="http://www.w3.org/2000/svg" viewBox="0 -100 1050 900">
      <g transform="scale(1 -1) translate(0 -700)">
        <path d="M638 800Q601 800 575.5 774.5Q550 749 550.0 713.0Q550 677 575.5 651.0Q601 625 638.0 625.0Q675 625 700.0 650.5Q725 676 725.0 713.0Q725 750 699.5 775.0Q674 800 638 800ZM238 700Q201 700 175.5 674.5Q150 649 150.0 613.0Q150 577 175.5 551.0Q201 525 238.0 525.0Q275 525 300.0 550.5Q325 576 325.0 613.0Q325 650 299.5 675.0Q274 700 238 700ZM700 600Q684 600 665 594Q643 588 625 575L463 459Q447 448 444.0 433.5Q441 419 449.0 407.5Q457 396 471.0 393.0Q485 390 500 400L606 470L617 445Q629 415 638 386Q650 346 654 314Q659 274 650 250Q648 246 648 244L539 -47Q531 -70 543.0 -85.0Q555 -100 575 -100Q587 -100 597.5 -92.5Q608 -85 614 -72L750 250L755 227Q763 198 775 175Q791 142 813 123Q841 100 875 100H1013Q1029 100 1039 110Q1046 117 1049 128L1050 138L1049 148Q1046 159 1039 165Q1029 175 1013 175H900Q867 175 856 217Q850 241 850 293V300Q850 333 837 385Q828 422 813 465L800 500L950 400Q966 389 981.0 391.0Q996 393 1004.0 404.0Q1012 415 1009.5 429.5Q1007 444 991 456L825 575Q803 591 789.5 595.5Q776 600 750 600ZM175 500Q158 500 146 492Q138 488 125 475L19 369Q9 359 4.5 349.0Q0 339 0.0 326.0Q0 313 10.5 305.5Q21 298 35.0 298.5Q49 299 59 309L150 400Q173 400 189 366Q204 336 207.0 293.0Q210 250 200 225L125 25Q118 6 125.0 -7.5Q132 -21 147.5 -25.5Q163 -30 178.5 -23.5Q194 -17 200 0L275 200L283 187Q294 172 308 163Q328 150 350 150H500Q518 150 528.0 161.0Q538 172 538.0 187.5Q538 203 528.0 214.0Q518 225 500 225H375Q359 225 353 253Q350 269 350 300Q350 349 335.5 395.5Q321 442 297.5 471.0Q274 500 250 500Z" />
      </g>
    </svg>