<svg xmlns="http://www.w3.org/2000/svg" viewBox="52 -140 896 980">
      <g transform="scale(1 -1) translate(0 -700)">
        <path d="M905 485H816Q827 448 829 421H905Q918 421 927.5 430.5Q937 440 936.5 453.0Q936 466 927.0 475.5Q918 485 905 485ZM95 485Q82 485 73.0 475.5Q64 466 64.0 453.0Q64 440 73.0 430.5Q82 421 95 421H168Q171 453 180 485ZM180 485H816ZM498 774Q399 774 313 726Q229 680 177 601Q123 519 116 421H168Q175 504 221.0 573.0Q267 642 339 682Q413 722 498.0 722.0Q583 722 657 682Q729 642 775.0 573.0Q821 504 829 421H881Q873 519 819 601Q767 680 684 726Q597 774 498 774ZM948 434Q948 416 935.5 403.0Q923 390 905 390H95Q78 390 65.0 403.0Q52 416 52 434V441Q52 459 65.0 472.0Q78 485 95 485H905Q923 485 935.5 472.0Q948 459 948 441ZM540 778Q540 761 527.5 748.5Q515 736 498 736Q481 736 468.5 748.5Q456 761 456 778V798Q456 815 468.5 827.5Q481 840 498 840Q515 840 527.5 827.5Q540 815 540 798ZM308 242Q308 231 298.5 223.0Q289 215 276 215H270Q256 215 246.5 223.0Q237 231 237 242V322Q237 334 246.5 342.0Q256 350 270 350H276Q290 350 299.0 342.0Q308 334 308 322ZM459 242Q459 231 449.5 223.0Q440 215 427 215H420Q407 215 397.5 223.0Q388 231 388 242V322Q388 334 397.0 342.0Q406 350 420 350H427Q440 350 449.5 342.0Q459 334 459 322ZM609 242Q609 231 599.5 223.0Q590 215 577 215H570Q557 215 547.5 223.0Q538 231 538 242V322Q538 334 547.5 342.0Q557 350 570 350H577Q591 350 600.0 342.0Q609 334 609 322ZM760 242Q760 231 750.5 223.0Q741 215 727 215H721Q708 215 698.5 223.0Q689 231 689 242V322Q689 334 698.0 342.0Q707 350 721 350H727Q741 350 750.5 342.0Q760 334 760 322ZM308 65Q308 54 298.5 46.0Q289 38 276 38H270Q256 38 246.5 46.0Q237 54 237 65V145Q237 156 246.5 164.0Q256 172 270 172H276Q289 172 298.5 164.0Q308 156 308 145ZM459 65Q459 54 449.5 46.0Q440 38 427 38H420Q407 38 397.5 46.0Q388 54 388 65V145Q388 156 397.5 164.0Q407 172 420 172H427Q440 172 449.5 164.0Q459 156 459 145ZM609 65Q609 54 599.5 46.0Q590 38 577 38H570Q557 38 547.5 46.0Q538 54 538 65V145Q538 156 547.5 164.0Q557 172 570 172H577Q590 172 599.5 164.0Q609 156 609 145ZM760 65Q760 54 750.5 46.0Q741 38 727 38H721Q708 38 698.5 46.0Q689 54 689 65V145Q689 156 698.5 164.0Q708 172 721 172H727Q741 172 750.5 164.0Q760 156 760 145ZM308 -113Q308 -124 298.5 -132.0Q289 -140 276 -140H270Q256 -140 246.5 -132.0Q237 -124 237 -113V-33Q237 -22 247.0 -13.5Q257 -5 270 -5H276Q289 -5 298.5 -13.5Q308 -22 308 -33ZM459 -113Q459 -124 449.5 -132.0Q440 -140 427 -140H420Q407 -140 397.5 -132.0Q388 -124 388 -113V-33Q388 -22 397.5 -13.5Q407 -5 420 -5H427Q440 -5 449.5 -13.5Q459 -22 459 -33ZM609 -113Q609 -124 599.5 -132.0Q590 -140 577 -140H570Q557 -140 547.5 -132.0Q538 -124 538 -113V-33Q538 -22 547.5 -13.5Q557 -5 570 -5H577Q590 -5 599.5 -13.5Q609 -22 609 -33ZM760 -113Q760 -124 750.5 -132.0Q741 -140 727 -140H721Q708 -140 698.5 -132.0Q689 -124 689 -113V-33Q689 -22 698.5 -13.5Q708 -5 721 -5H727Q740 -5 750.0 -13.5Q760 -22 760 -33Z" />
      </g>
    </svg>