<svg xmlns="http://www.w3.org/2000/svg" viewBox="10 -85 980 870">
      <g transform="scale(1 -1) translate(0 -700)">
        <path d="M51 344Q45 344 39.5 349.0Q34 354 34.0 361.0Q34 368 38 373L368 703Q379 714 394.5 714.0Q410 714 421 703L716 407Q721 403 721.0 395.5Q721 388 716.5 383.0Q712 378 704.5 378.0Q697 378 692 383L397 679Q395 681 392 679L63 349Q56 344 51 344ZM973 388Q966 388 961 393L809 545Q807 547 805 545L680 420Q675 415 667.5 415.0Q660 415 655.5 420.0Q651 425 651.0 432.5Q651 440 655 444L780 569Q791 580 807.0 580.0Q823 580 833 569L985 418Q990 413 990.0 405.5Q990 398 985.0 393.0Q980 388 973 388ZM348 -23H304Q297 -23 292.0 -18.0Q287 -13 287 -6V89H133Q133 70 123 56Q107 32 65 34Q58 35 53.0 40.0Q48 45 48.5 52.0Q49 59 54.0 64.0Q59 69 66 69Q89 67 95.0 75.5Q101 84 96 100Q93 108 97.5 115.5Q102 123 112 123H304Q311 123 316.0 118.0Q321 113 321 106V11H330V123Q330 129 336 135L419 209Q423 213 429.5 213.5Q436 214 441 210L471 186L489 201L456 257Q452 263 453.5 270.0Q455 277 461.5 280.5Q468 284 474.5 282.5Q481 281 485 275L527 205Q530 200 529.0 193.5Q528 187 523 183L481 150Q477 146 470.5 146.0Q464 146 459 150L431 174L365 115V-6Q365 -13 360.0 -18.0Q355 -23 348 -23ZM66 -23H27Q20 -23 15.0 -18.0Q10 -13 10 -6V196Q10 203 15 208L70 266Q75 271 82 271H429Q443 271 456 277Q480 288 481 315Q482 322 487.0 327.0Q492 332 499.0 331.5Q506 331 511.0 326.0Q516 321 515 313Q513 273 481 253Q458 237 429 237H89L44 190V11H66Q73 11 78.0 6.0Q83 1 83.0 -6.0Q83 -13 78.0 -18.0Q73 -23 66 -23ZM649 608Q612 608 586.0 634.0Q560 660 560.0 697.0Q560 734 586.0 759.5Q612 785 648.5 785.0Q685 785 711.0 759.5Q737 734 737.0 697.0Q737 660 711.0 634.0Q685 608 649 608ZM649 751Q626 751 610.0 735.0Q594 719 594.0 697.0Q594 675 610.5 658.5Q627 642 649.0 642.0Q671 642 687.0 658.0Q703 674 703.0 697.0Q703 720 687.5 735.5Q672 751 649 751ZM820 -85Q813 -85 808.0 -80.0Q803 -75 803 -68V177Q803 184 808.0 189.5Q813 195 820.0 195.0Q827 195 832.0 190.0Q837 185 837 177V-68Q837 -75 832.5 -80.0Q828 -85 820 -85ZM820 91Q820 91 819 91Q716 100 698 155Q682 205 739 280Q770 322 809 355Q814 359 821.0 358.5Q828 358 833.0 353.0Q838 348 837.5 340.5Q837 333 831 329Q789 292 759 249Q722 195 731 166Q741 134 822 125Q829 125 833.5 119.5Q838 114 837.0 107.0Q836 100 831.5 95.5Q827 91 820 91ZM820 91Q813 91 808.5 95.5Q804 100 803.0 107.0Q802 114 807.0 119.5Q812 125 819 125Q899 134 909 166Q918 195 882 249Q851 292 809 329Q804 334 803.5 341.0Q803 348 807.0 353.5Q811 359 818.5 359.5Q826 360 831 355Q870 322 901 280Q958 205 942 156Q924 100 822 91Z" />
      </g>
    </svg>