<svg xmlns="http://www.w3.org/2000/svg" viewBox="0 -79 1000 858">
      <g transform="scale(1 -1) translate(0 -700)">
        <path d="M143 46V-61Q143 -69 138.0 -74.0Q133 -79 125 -79H18Q10 -79 5.0 -74.0Q0 -69 0 -61V46Q0 54 5.0 59.0Q10 64 18 64H125Q133 64 138.0 59.0Q143 54 143 46ZM357 118V-61Q357 -69 352.0 -74.0Q347 -79 339 -79H232Q224 -79 219.0 -74.0Q214 -69 214 -61V118Q214 126 219.0 131.0Q224 136 232 136H339Q347 136 352.0 131.0Q357 126 357 118ZM571 261V-61Q571 -69 566.0 -74.0Q561 -79 554 -79H446Q439 -79 434.0 -74.0Q429 -69 429 -61V261Q429 269 434.0 274.0Q439 279 446 279H554Q561 279 566.0 274.0Q571 269 571 261ZM786 475V-61Q786 -69 781.0 -74.0Q776 -79 768 -79H661Q653 -79 648.0 -74.0Q643 -69 643 -61V475Q643 483 648.0 488.0Q653 493 661 493H768Q776 493 781.0 488.0Q786 483 786 475ZM1000 761V-61Q1000 -69 995.0 -74.0Q990 -79 982 -79H875Q867 -79 862.0 -74.0Q857 -69 857 -61V761Q857 769 862.0 774.0Q867 779 875 779H982Q990 779 995.0 774.0Q1000 769 1000 761Z" />
      </g>
    </svg>