<svg xmlns="http://www.w3.org/2000/svg" viewBox="0 -79 929 929">
      <g transform="scale(1 -1) translate(0 -771)">
        <path d="M848 417Q882 417 905.0 394.0Q928 371 929 338Q929 284 877 265L781 232L812 139Q816 127 816 113Q816 80 792.0 56.0Q768 32 736 32Q710 32 688.0 47.0Q666 62 659 87L628 179L455 120L486 29Q490 15 490 2Q490 -31 467.0 -55.0Q444 -79 410 -79Q383 -79 362.0 -64.0Q341 -49 333 -23L302 68L217 38Q200 33 189 33Q155 33 132.0 55.0Q109 77 109 112Q109 138 125.0 159.0Q141 180 165 189L252 218L193 393L106 363Q92 358 79 358Q46 358 23.0 381.0Q0 404 0 437Q0 463 15.0 485.0Q30 507 55 514L143 544L113 632Q109 646 109 659Q109 692 132.0 716.0Q155 740 189 740Q215 740 237.0 724.0Q259 708 266 684L296 595L469 654L439 743Q435 756 435 769Q435 802 458.0 826.0Q481 850 515 850Q541 850 563.0 835.0Q585 820 593 795L622 705L713 736Q724 739 737 739Q770 739 794.0 717.0Q818 695 818 662Q818 637 801.0 617.0Q784 597 760 588L672 558L731 381L822 413Q835 417 848 417ZM405 271 578 329 519 505 346 445Z" />
      </g>
    </svg>