<svg xmlns="http://www.w3.org/2000/svg" viewBox="8 -150 983 1000">
      <g transform="scale(1 -1) translate(0 -700)">
        <path d="M487 437Q487 391 452.0 358.0Q417 325 367.0 324.0Q317 323 282.0 358.0Q247 393 246 437Q246 484 282.0 517.0Q318 550 367.0 550.0Q416 550 452.0 517.0Q488 484 487 437ZM767 437Q767 391 732.0 358.0Q697 325 647.0 324.5Q597 324 562.0 358.0Q527 392 526 437Q526 484 562.0 517.0Q598 550 647.5 550.0Q697 550 732.0 517.0Q767 484 767 437ZM893 337V709Q893 757 875.0 778.0Q857 799 813 798H193Q146 798 130.0 779.0Q114 760 113 709V333Q137 320 163 311L208 295Q227 288 253.0 285.0Q279 282 293.0 279.0Q307 276 332.0 277.0Q357 278 364.0 276.0Q371 274 396.0 278.0Q421 282 421 279Q459 279 474 264Q477 260 479 259Q494 245 513 230Q517 281 579 279L649 276Q668 275 679.0 277.0Q690 279 709.0 279.0Q728 279 743.0 284.0Q758 289 778.0 291.0Q798 293 815.0 302.0Q832 311 853.0 317.0Q874 323 893 337ZM984 339Q916 256 776 199Q823 40 763 -61Q727 -124 661 -143Q603 -161 560 -135Q512 -107 514 -43L513 139L487 145L486 -43Q488 -107 440 -135Q396 -161 338 -143Q272 -123 236 -60Q178 41 224 199Q84 256 16 339Q2 360 14.0 375.0Q26 390 47 374Q50 373 54 370L60 366V753Q60 793 86.0 822.0Q112 851 150 850H851Q888 850 915.0 822.0Q942 794 941 753V366L953 374Q974 389 986.0 375.0Q998 361 984 339Z" />
      </g>
    </svg>