<svg xmlns="http://www.w3.org/2000/svg" viewBox="0 -150 999 999">
      <g transform="scale(1 -1) translate(0 -699)">
        <path d="M0 506Q0 596 64.0 660.0Q128 724 219 725Q236 725 250 723Q293 784 359 816Q427 849 500.0 849.0Q573 849 639.5 816.5Q706 784 750 723Q763 725 781 725Q871 725 935.0 660.0Q999 595 999.0 506.0Q999 417 935.0 352.0Q871 287 781 287Q739 287 703 301Q615 225 500.0 225.0Q385 225 297 301Q260 287 219 287Q129 287 64.0 352.0Q-1 417 0 506ZM60 114Q59 117 59 121Q59 135 74 139L98 145Q98 157 104 166L86 184Q79 191 79.0 198.0Q79 205 86.0 212.5Q93 220 100.5 220.0Q108 220 115 213L133 196Q142 199 154 201L160 225Q165 240 177 240Q181 240 185 238Q201 234 201 221Q201 218 199 213L193 190Q198 187 201 184L209 174L232 182H238Q253 182 258 166Q259 162 259 158Q259 145 242 141L219 135Q219 123 213 114L230 96Q239 89 239.0 82.0Q239 75 231.5 67.5Q224 60 216.0 60.0Q208 60 201 67L185 84L164 78L156 55Q153 39 140 39Q136 39 132 40Q116 44 116 58Q116 62 117 67L123 90Q116 94 107 106L84 98Q81 97 79 97Q63 97 60 114ZM63 506Q63 442 108.0 396.0Q153 350 219 350Q267 350 308 379Q385 287 500.0 287.0Q615 287 691 379Q732 350 781 350Q845 350 891.0 396.0Q937 442 937.0 506.0Q937 570 891.0 616.0Q845 662 781 662Q750 662 722 650Q690 712 631.0 749.5Q572 787 500.0 787.0Q428 787 369.0 749.5Q310 712 277 650Q250 662 219 662Q154 662 108.0 616.0Q62 570 63 506ZM144 125Q151 118 158 118L173 125Q180 132 180.0 138.5Q180 145 172.5 153.0Q165 161 157 161L144 154Q136 146 136.0 139.0Q136 132 144 125ZM348 -38Q351 -23 363 -17L398 4Q396 14 396.0 23.0Q396 32 398 41L363 61Q351 69 348 82Q346 87 346 92Q346 100 350 109Q357 121 371.0 125.0Q385 129 398 121L433 100Q447 114 465 119V160Q465 174 475.0 185.0Q485 196 500.0 196.0Q515 196 524.0 185.0Q533 174 535 160V119Q552 114 566 100L601 121Q615 129 629.0 125.0Q643 121 649.5 108.5Q656 96 652.0 82.0Q648 68 636 61L601 41Q603 32 603.0 23.0Q603 14 601 4L636 -17Q648 -23 652.0 -38.0Q656 -53 649.0 -64.5Q642 -76 628.0 -80.0Q614 -84 601 -76L566 -56Q552 -68 535 -74V-115Q535 -130 524.0 -140.0Q513 -150 500.0 -150.0Q487 -150 475.0 -140.0Q463 -130 465 -115V-74Q448 -68 433 -56L398 -76Q385 -83 371.0 -80.0Q357 -77 350 -64Q346 -57 346 -48Q346 -43 348 -38ZM465 23Q465 8 475.0 -2.0Q485 -12 500.0 -11.0Q515 -10 523 -2Q535 8 535.0 23.0Q535 38 524.0 47.0Q513 56 500.0 57.0Q487 58 475.0 47.0Q463 36 465 23ZM742 104Q746 119 759 119Q763 119 767 117L791 112Q794 117 797.5 120.5Q801 124 806 127L800 151Q799 155 799 159Q799 172 814 176Q818 177 822 177Q835 177 839 162L845 139Q857 137 867 133L884 151Q892 157 899.0 157.0Q906 157 914 150Q920 142 920.0 135.0Q920 128 914 121L896 104Q902 94 902 82L925 76Q941 72 941 58Q941 55 940 51Q936 35 921 35H916L892 43Q884 31 876 28L882 4Q884 -1 884 -5Q884 -18 868 -22Q863 -23 860 -23Q847 -23 843 -8L836 16Q823 18 814 22L798 4Q791 -3 783.5 -3.0Q776 -3 768.5 4.5Q761 12 761.0 19.0Q761 26 769 34L787 51Q781 60 781 73L757 78Q740 83 740 96Q740 99 742 104ZM827 63Q834 56 841 56L856 63Q863 70 863.0 76.5Q863 83 855.5 90.5Q848 98 840 98L827 91Q819 84 819.0 77.0Q819 70 827 63Z" />
      </g>
    </svg>