<svg xmlns="http://www.w3.org/2000/svg" viewBox="0 -150 999 999">
      <g transform="scale(1 -1) translate(0 -699)">
        <path d="M0 506Q0 596 64.0 660.0Q128 724 219 725Q236 725 250 723Q293 784 359 816Q427 849 500.0 849.0Q573 849 639.5 816.5Q706 784 750 723Q763 725 781 725Q871 725 935.0 660.0Q999 595 999.0 506.0Q999 417 935.0 352.0Q871 287 781 287Q739 287 703 301Q615 225 500.0 225.0Q385 225 297 301Q260 287 219 287Q129 287 64.0 352.0Q-1 417 0 506ZM63 506Q63 442 108.0 396.0Q153 350 219 350Q267 350 308 379Q385 287 500.0 287.0Q615 287 691 379Q732 350 781 350Q845 350 891.0 396.0Q937 442 937.0 506.0Q937 570 891.0 616.0Q845 662 781 662Q750 662 722 650Q690 712 631.0 749.5Q572 787 500.0 787.0Q428 787 369.0 749.5Q310 712 277 650Q250 662 219 662Q154 662 108.0 616.0Q62 570 63 506ZM348 -38Q351 -23 363 -17L398 4Q396 14 396.0 23.0Q396 32 398 41L363 61Q351 69 348 82Q346 87 346 92Q346 100 350 109Q357 121 371.0 125.0Q385 129 398 121L433 100Q447 114 465 119V160Q465 174 475.0 185.0Q485 196 500.0 196.0Q515 196 524.0 185.0Q533 174 535 160V119Q552 114 566 100L601 121Q615 129 629.0 125.0Q643 121 649 109Q653 100 653 92Q653 87 652 82Q648 69 636 61L601 41Q603 32 603.0 23.0Q603 14 601 4L636 -17Q648 -23 652 -38Q653 -43 653 -48Q653 -57 649 -64Q642 -76 628.0 -80.0Q614 -84 601 -76L566 -56Q552 -68 535 -74V-115Q535 -130 524.0 -140.0Q513 -150 500.0 -150.0Q487 -150 475.0 -140.0Q463 -130 465 -115V-74Q448 -68 433 -56L398 -76Q385 -83 371.0 -80.0Q357 -77 350 -64Q346 -57 346 -48Q346 -43 348 -38ZM465 23Q465 8 475.0 -2.0Q485 -12 500.0 -11.0Q515 -10 523 -2Q535 8 535.0 23.0Q535 38 524.0 47.0Q513 56 500.0 57.0Q487 58 475.0 47.0Q463 36 465 23Z" />
      </g>
    </svg>