<svg xmlns="http://www.w3.org/2000/svg" viewBox="0 -150 999 999">
      <g transform="scale(1 -1) translate(0 -699)">
        <path d="M0 506Q0 596 64.0 660.0Q128 724 219 725Q236 725 250 723Q293 784 359 816Q427 849 500.0 849.0Q573 849 639.5 816.5Q706 784 750 723Q763 725 781 725Q871 725 935.0 660.0Q999 595 999.0 506.0Q999 417 935.0 352.0Q871 287 781 287Q739 287 703 301Q615 225 500.0 225.0Q385 225 297 301Q260 287 219 287Q129 287 64.0 352.0Q-1 417 0 506ZM348 -38Q351 -23 363 -17L398 4Q395 23 398 41L363 61Q351 69 348.0 82.0Q345 95 350 109Q357 121 371.0 125.0Q385 129 398 121L433 100Q447 114 465 119V160Q465 174 475.0 185.0Q485 196 500.0 196.0Q515 196 524.0 185.0Q533 174 535 160V119Q552 114 566 100L601 121Q615 129 629.0 125.0Q643 121 649.5 108.5Q656 96 652.0 82.0Q648 68 636 61L601 41Q605 23 601 4L636 -17Q648 -23 652.0 -38.0Q656 -53 649.0 -64.5Q642 -76 628.0 -80.0Q614 -84 601 -76L566 -56Q552 -68 535 -74V-115Q535 -130 524.0 -140.0Q513 -150 500.0 -150.0Q487 -150 475.0 -140.0Q463 -130 465 -115V-74Q448 -68 433 -56L398 -76Q385 -83 371.0 -80.0Q357 -77 350.5 -64.5Q344 -52 348 -38ZM465 23Q465 8 475.0 -2.0Q485 -12 500.0 -11.0Q515 -10 523 -2Q535 8 535.0 23.0Q535 38 524.0 47.0Q513 56 500.0 57.0Q487 58 475.0 47.0Q463 36 465 23Z" />
      </g>
    </svg>