<svg xmlns="http://www.w3.org/2000/svg" viewBox="221 37 557 625">
      <g transform="scale(1 -1) translate(0 -699)">
        <path d="M224 240Q230 265 252 279L316 317Q312 333 312.0 350.0Q312 367 316 385L252 420Q230 434 224 459Q222 468 222 476Q222 492 229 507Q242 529 267 535Q276 537 284 537Q300 537 314 529L379 492Q407 514 437 525V600Q437 625 456.0 644.0Q475 663 500.0 662.0Q525 661 544.0 644.0Q563 627 562 600V525Q593 514 621 492L685 529Q698 537 714 537Q722 537 732 534Q757 528 770 506Q778 492 778 476Q778 468 776 459Q770 434 748 420L683 383Q687 366 687.0 350.0Q687 334 683 317L748 279Q770 265 776 240Q778 232 778 223Q778 208 770 194Q757 172 732 165Q722 163 714 163Q698 163 685 170L621 207Q594 186 562 174V100Q562 75 544.0 56.0Q526 37 500.0 37.0Q474 37 456.0 56.0Q438 75 437 100V174Q407 186 379 207L314 170Q301 163 286 163Q277 163 267 165Q242 172 229 194Q221 208 221 223Q221 232 224 240ZM437 350Q437 324 455.5 305.5Q474 287 500.0 287.0Q526 287 544.0 306.0Q562 325 562.0 350.0Q562 375 544.0 394.0Q526 413 500.0 412.0Q474 411 456.0 394.0Q438 377 437 350Z" />
      </g>
    </svg>