<svg xmlns="http://www.w3.org/2000/svg" viewBox="0 37 999 812">
      <g transform="scale(1 -1) translate(0 -886)">
        <path d="M0 506Q0 596 64.0 660.0Q128 724 219 725Q236 725 250 723Q293 784 359 816Q427 849 500.0 849.0Q573 849 639.5 816.5Q706 784 750 723Q763 725 781 725Q871 725 935.0 660.0Q999 595 999.0 506.0Q999 417 935.0 352.0Q871 287 781 287Q747 287 714 299Q711 315 703 326Q694 345 672 360Q673 360 677.0 365.0Q681 370 686.0 373.0Q691 376 691 379Q732 350 781 350Q845 350 891.0 396.0Q937 442 937.0 506.0Q937 570 891.0 616.0Q845 662 781 662Q750 662 722 650Q690 712 631.0 749.5Q572 787 500.0 787.0Q428 787 369.0 749.5Q310 712 277 650Q250 662 219 662Q154 662 108.0 616.0Q62 570 63.0 506.0Q64 442 108.0 396.0Q152 350 219 350Q267 350 308 379Q308 377 328 360Q306 345 297 326Q289 315 285 299Q252 287 219 287Q129 287 64.0 352.0Q-1 417 0 506ZM348 150Q351 164 363 170L398 192Q396 201 396.0 210.0Q396 219 398 229L363 248Q351 256 348 270Q346 275 346 279Q346 287 350 296Q357 309 371.0 313.0Q385 317 398 309L433 287Q447 301 465 307V348Q465 361 475.0 372.0Q485 383 500.0 383.0Q515 383 524.0 372.0Q533 361 535 348V307Q552 301 566 287L601 309Q615 317 629.0 313.0Q643 309 649 296Q653 288 653 279Q653 275 652 270Q648 256 636 248L601 229Q603 219 603.0 210.0Q603 201 601 192L636 170Q648 164 652 150Q653 144 653 139Q653 131 649 123Q642 111 628.0 108.0Q614 105 601 112L566 131Q552 119 535 114V73Q535 57 524.0 47.0Q513 37 500.0 37.0Q487 37 475.0 47.0Q463 57 465 73V114Q448 119 433 131L398 112Q385 104 371.0 108.0Q357 112 350 123Q346 131 346 139Q346 144 348 150ZM465 210Q465 196 475.0 186.0Q485 176 500.0 176.0Q515 176 523 186Q535 196 535.0 210.0Q535 224 524.0 235.0Q513 246 500.0 244.0Q487 242 475.0 235.0Q463 228 465 210Z" />
      </g>
    </svg>