<svg xmlns="http://www.w3.org/2000/svg" viewBox="10 -140 980 980">
      <g transform="scale(1 -1) translate(0 -700)">
        <path d="M31 -140Q22 -140 16.0 -134.0Q10 -128 10 -119V116Q10 125 16.0 131.0Q22 137 31 137H236Q244 137 244 145V350Q244 359 250.5 365.0Q257 371 266 371H471Q474 371 476.5 373.5Q479 376 479 379V584Q479 593 485.0 599.5Q491 606 500 606H705Q713 606 713 614V819Q713 828 719.5 834.0Q726 840 734 840H969Q978 840 984.0 834.0Q990 828 990 819V-119Q990 -128 984.0 -134.0Q978 -140 969 -140ZM61 94Q57 94 54.5 92.0Q52 90 52 86V-90Q52 -93 54.5 -95.5Q57 -98 61 -98H940Q943 -98 945.5 -95.5Q948 -93 948 -90V790Q948 793 945.5 795.5Q943 798 940 798H764Q760 798 758.0 795.5Q756 793 756 790V584Q756 576 749.5 569.5Q743 563 734 563H529Q526 563 523.5 561.0Q521 559 521 555V350Q521 341 515.0 335.0Q509 329 500 329H295Q291 329 289.0 326.5Q287 324 287 321V116Q287 107 281.0 100.5Q275 94 266 94Z" />
      </g>
    </svg>