<svg xmlns="http://www.w3.org/2000/svg" viewBox="0 -54 929 886">
      <g transform="scale(1 -1) translate(0 -778)">
        <path d="M635 290 805 456 570 490 464 703 359 490 123 456 294 290 253 55 464 166 675 55ZM929 489Q929 477 914 462L712 265L760 -14V-26Q760 -54 737 -54Q727 -54 715 -47L464 85L214 -47Q202 -54 191.0 -54.0Q180 -54 174.0 -45.0Q168 -36 168 -26Q168 -22 169 -14L217 265L14 462Q0 477 0 489Q0 510 31 515L311 555L437 809Q448 832 464.0 832.0Q480 832 492 809L617 555L897 515Q929 510 929 489Z" />
      </g>
    </svg>