<svg xmlns="http://www.w3.org/2000/svg" viewBox="0 -79 786 858">
      <g transform="scale(1 -1) translate(0 -700)">
        <path d="M714 457Q714 472 704.0 482.0Q694 492 679.0 493.0Q664 494 654.0 482.0Q644 470 643.0 457.0Q642 444 654.0 432.0Q666 420 679.0 421.0Q692 422 704.0 432.0Q716 442 714 457ZM786 457Q786 423 766.0 395.0Q746 367 714 356V136Q714 47 641.0 -16.0Q568 -79 464.0 -79.0Q360 -79 288.0 -16.0Q216 47 214 136V209Q123 221 61.0 281.0Q-1 341 0 421V707Q0 722 11.0 732.0Q22 742 36 743Q39 743 45 742Q54 759 71.0 769.0Q88 779 107 779Q137 779 158.0 758.0Q179 737 179.0 707.0Q179 677 158.0 657.0Q137 637 107 636Q89 636 71 646V421Q71 362 124.0 320.0Q177 278 250.0 279.0Q323 280 376.0 320.0Q429 360 429 421V646Q411 636 393 636Q363 636 342.0 657.0Q321 678 321.0 707.0Q321 736 342.0 758.0Q363 780 393 779Q412 779 429.0 769.0Q446 759 455 742Q461 743 464 743Q479 743 489.0 732.0Q499 721 500 707V421Q500 341 439.0 281.0Q378 221 286 209V136Q286 77 338.0 35.0Q390 -7 464.0 -7.0Q538 -7 590.0 35.0Q642 77 643 136V356Q611 368 591.0 395.0Q571 422 571 457Q571 502 603.0 533.0Q635 564 679.0 564.0Q723 564 755.0 533.0Q787 502 786 457Z" />
      </g>
    </svg>