<svg xmlns="http://www.w3.org/2000/svg" viewBox="94 -56 812 812">
      <g transform="scale(1 -1) translate(0 -700)">
        <path d="M94 350Q94 363 103.0 372.0Q112 381 125 381H187Q201 381 210.0 372.0Q219 363 219.0 350.0Q219 337 210.0 327.0Q201 317 187 319H125Q111 319 103.0 327.0Q95 335 94 350ZM213 63Q191 84 213 108L258 151Q279 172 301.0 151.0Q323 130 301 108L258 63Q234 41 213 63ZM213 592Q191 615 213.0 637.0Q235 659 258 637L301 592Q322 570 301.0 549.0Q280 528 258 549ZM281 350Q281 440 346.0 504.0Q411 568 500.0 568.0Q589 568 654.0 504.0Q719 440 718.0 350.0Q717 260 654.0 196.0Q591 132 500.0 131.0Q409 130 346.0 196.0Q283 262 281 350ZM469 -25V37Q469 51 477.0 60.0Q485 69 500.0 69.0Q515 69 522.0 60.0Q529 51 531 37V-25Q531 -39 522.0 -48.0Q513 -57 500.0 -56.0Q487 -55 477.0 -48.0Q467 -41 469 -25ZM469 662V725Q469 738 477.0 747.0Q485 756 500.0 756.0Q515 756 522.0 747.0Q529 738 531 725V662Q531 648 522.0 640.0Q513 632 500.0 631.0Q487 630 477.0 640.0Q467 650 469 662ZM698 151Q720 172 742 151L787 108Q808 84 787.0 63.0Q766 42 742 63L699 108Q675 129 698 151ZM698 549Q675 570 699 592L742 637Q765 658 787.0 637.0Q809 616 787 592L742 549Q720 527 698 549ZM781 350Q781 363 790.0 372.0Q799 381 812 381H875Q888 381 897.0 372.0Q906 363 906.0 350.0Q906 337 897.0 327.0Q888 317 875 319H812Q798 319 790.0 327.0Q782 335 781 350Z" />
      </g>
    </svg>