<svg xmlns="http://www.w3.org/2000/svg" viewBox="94 -56 812 812">
      <g transform="scale(1 -1) translate(0 -700)">
        <path d="M94 350Q94 363 103.0 372.0Q112 381 125 381H187Q201 381 210.0 372.0Q219 363 219.0 350.0Q219 337 210.0 327.0Q201 317 187 319H125Q111 319 103.0 327.0Q95 335 94 350ZM213 63Q202 74 202.0 85.0Q202 96 213 108L258 151Q268 163 280 163L301 152Q311 140 311.0 129.0Q311 118 301 108L258 63Q246 52 235.0 52.0Q224 52 213 63ZM213 592Q202 604 202.0 615.0Q202 626 213.0 637.0Q224 648 235.0 647.0Q246 646 258 637L301 592Q311 581 311.0 570.0Q311 559 301.0 549.0Q291 539 279 538L258 549ZM281 350Q281 440 346.0 504.0Q411 568 500.0 568.0Q589 568 654.0 504.0Q719 440 718.0 350.0Q717 260 654.0 196.0Q591 132 500.0 131.0Q409 130 346.0 196.0Q283 262 281 350ZM344 350Q344 285 389.0 239.0Q434 193 500.0 194.0Q566 195 609 238Q656 285 656.0 350.0Q656 415 610.0 460.0Q564 505 500.0 506.0Q436 507 389.0 460.0Q342 413 344 350ZM469 -25V37Q469 51 477.0 60.0Q485 69 500.0 69.0Q515 69 522.0 60.0Q529 51 531 37V-25Q531 -39 522.0 -48.0Q513 -57 500.0 -56.0Q487 -55 477.0 -48.0Q467 -41 469 -25ZM469 662V725Q469 738 477.0 747.0Q485 756 500.0 756.0Q515 756 522.0 747.0Q529 738 531 725V662Q531 648 522.0 640.0Q513 632 500.0 631.0Q487 630 477.0 640.0Q467 650 469 662ZM699 108Q688 118 688.0 129.0Q688 140 699.0 151.0Q710 162 720 161L742 151L787 108Q797 96 797.0 85.0Q797 74 787.0 63.0Q777 52 765.0 52.0Q753 52 742 63ZM699 549Q688 560 688.0 570.0Q688 580 699 592L742 637Q754 647 765.0 647.0Q776 647 787.0 637.0Q798 627 797.0 615.0Q796 603 787 592L742 549Q731 538 720 538ZM781 350Q781 363 790.0 372.0Q799 381 812 381H875Q888 381 897.0 372.0Q906 363 906.0 350.0Q906 337 897.0 327.0Q888 317 875 319H812Q798 319 790.0 327.0Q782 335 781 350Z" />
      </g>
    </svg>