<svg xmlns="http://www.w3.org/2000/svg" viewBox="202 36 595 625">
      <g transform="scale(1 -1) translate(0 -697)">
        <path d="M213 498Q202 510 202.0 521.0Q202 532 213.0 543.0Q224 554 235.0 554.0Q246 554 258 543L301 498Q311 487 311.0 477.0Q311 467 301.0 455.0Q291 443 279 444L258 455ZM281 194Q281 207 290.0 216.0Q299 225 312 225H687Q701 225 710.0 216.0Q719 207 718.0 194.0Q717 181 710.0 171.0Q703 161 687 162H312Q299 162 290.0 171.0Q281 180 281 194ZM285 287Q297 368 357.5 421.5Q418 475 500.0 475.0Q582 475 642.5 421.5Q703 368 714 287H652Q643 342 599.5 377.0Q556 412 500.0 412.0Q444 412 400.5 377.0Q357 342 348 287ZM344 69Q344 82 352.0 91.0Q360 100 375 100H625Q638 100 647.0 91.0Q656 82 656.0 69.0Q656 56 647.0 46.0Q638 36 625 37H375Q361 37 352.0 46.0Q343 55 344 69ZM469 568V631Q469 645 477.0 653.0Q485 661 500.0 662.0Q515 663 522.0 653.0Q529 643 531 631V568Q531 555 522.0 546.0Q513 537 500.0 537.0Q487 537 477.0 546.0Q467 555 469 568ZM699 455Q688 466 688.0 477.0Q688 488 699 498L742 543Q754 554 765.0 554.0Q776 554 787.0 543.0Q798 532 797.0 521.0Q796 510 787 498L742 455Q731 444 720 444Z" />
      </g>
    </svg>