<svg xmlns="http://www.w3.org/2000/svg" viewBox="63 -150 875 1000">
      <g transform="scale(1 -1) translate(0 -700)">
        <path d="M875 850H125Q100 850 81.5 832.0Q63 814 63 788V-88Q63 -113 81.5 -131.5Q100 -150 125 -150H688L938 100V788Q938 814 919.5 832.0Q901 850 875 850ZM679 -62V109H849ZM867 174H676Q651 174 633.0 156.5Q615 139 615 113V-78H133V778H867ZM219 608H781Q795 608 804.0 619.5Q813 631 813.0 647.0Q813 663 804.0 674.5Q795 686 781 686H219Q206 686 197.0 674.5Q188 663 188.0 647.0Q188 631 197.0 619.5Q206 608 219 608ZM219 443H781Q795 443 804.0 454.5Q813 466 813.0 482.0Q813 498 804.0 509.5Q795 521 781 521H219Q206 521 197.0 509.5Q188 498 188.0 482.0Q188 466 197.0 454.5Q206 443 219 443ZM219 278H781Q795 278 804.0 289.5Q813 301 813.0 317.0Q813 333 804.0 344.0Q795 355 781 355H219Q206 355 197.0 344.0Q188 333 188.0 317.0Q188 301 197.0 289.5Q206 278 219 278ZM219 111H500Q513 111 522.0 122.5Q531 134 531.0 150.0Q531 166 522.0 177.0Q513 188 500 188H219Q206 188 197.0 177.0Q188 166 188.0 150.0Q188 134 197.0 122.5Q206 111 219 111Z" />
      </g>
    </svg>