<svg xmlns="http://www.w3.org/2000/svg" viewBox="0 -150 571 1000">
      <g transform="scale(1 -1) translate(0 -700)">
        <path d="M357 100Q357 55 326.0 24.0Q295 -7 250.0 -7.0Q205 -7 174.0 24.0Q143 55 143 100Q143 134 162.0 161.0Q181 188 214 201V564H286V201Q318 189 338.0 161.0Q358 133 357 100ZM429 100Q429 143 410.0 180.0Q391 217 357 243V671Q357 716 326.0 747.0Q295 778 250.0 779.0Q205 780 174.0 747.0Q143 714 143 671V243Q109 218 90.0 180.0Q71 142 71 100Q71 26 124.0 -26.0Q177 -78 250.0 -79.0Q323 -80 376.0 -26.0Q429 28 429 100ZM500 100Q500 -3 427.0 -77.0Q354 -151 250.0 -150.0Q146 -149 73.0 -77.0Q0 -5 0 100Q0 202 71 275V671Q71 746 124.0 798.0Q177 850 250.0 850.0Q323 850 376.0 798.0Q429 746 429 671V275Q500 202 500 100ZM571 421V350H464V421ZM571 564V493H464V564ZM571 707V636H464V707Z" />
      </g>
    </svg>