<svg xmlns="http://www.w3.org/2000/svg" viewBox="0 -150 857 929">
      <g transform="scale(1 -1) translate(0 -629)">
        <path d="M143 600Q143 615 132.0 625.0Q121 635 107.0 636.0Q93 637 82.0 625.0Q71 613 71.0 600.0Q71 587 82.0 575.0Q93 563 107.0 564.0Q121 565 132.0 575.0Q143 585 143 600ZM786 279Q786 298 774.0 324.0Q762 350 744 350Q752 360 758.0 377.0Q764 394 763 408Q763 446 734 474Q744 491 744.0 512.0Q744 533 734.0 553.0Q724 573 708 583Q710 599 710 614Q710 661 683.0 684.0Q656 707 607 707H536Q463 707 345 666L329 661Q316 657 309.0 654.0Q302 651 289 647L268 641L250 637Q240 635 232 636H214V279H232Q241 279 252.0 274.0Q263 269 274 259L296 239Q307 229 318.0 214.0Q329 199 337.0 190.0Q345 181 355 168L368 151Q398 113 411 100Q434 76 444.0 39.0Q454 2 461.0 -31.0Q468 -64 482 -79Q536 -79 554.0 -52.0Q572 -25 571 29Q571 62 545.0 118.0Q519 174 518 207H714Q742 207 764.0 229.0Q786 251 786 279ZM857 278Q857 221 815.0 178.0Q773 135 714 136H616Q643 81 643 29Q643 -37 623.5 -75.5Q604 -114 566.0 -132.0Q528 -150 482 -150Q454 -150 432 -129Q413 -111 402.0 -84.0Q391 -57 388.0 -33.0Q385 -9 378.0 14.0Q371 37 361 50Q334 78 301 121Q244 194 224 207H71Q42 207 21.0 228.0Q0 249 0 279V636Q0 665 21.0 686.0Q42 707 71 707H232Q244 707 309 730Q381 754 434.0 766.0Q487 778 545 779H608Q686 779 734.0 735.0Q782 691 782 614V611Q815 568 815 512Q815 500 814 488Q835 450 835 408Q835 387 830 369Q857 328 857 278Z" />
      </g>
    </svg>