<svg xmlns="http://www.w3.org/2000/svg" viewBox="0 -79 857 929">
      <g transform="scale(1 -1) translate(0 -771)">
        <path d="M143 100Q143 115 132.0 125.0Q121 135 107.0 136.0Q93 137 82.0 125.0Q71 113 71.0 100.0Q71 87 82.0 75.0Q93 63 107.0 64.0Q121 65 132.0 75.0Q143 85 143 100ZM786 421Q786 450 764.0 471.0Q742 492 714 493H518Q518 525 545.0 582.0Q572 639 571 671Q571 726 554.0 752.0Q537 778 482 779Q468 764 461.0 731.0Q454 698 444.0 661.0Q434 624 411 600Q398 587 368 549Q366 546 355.0 533.0Q344 520 337.0 510.0Q330 500 318 486L296 461Q286 450 274 442L252 427Q242 420 232 421H214V64H232Q239 64 250.0 63.0Q261 62 268.0 59.0Q275 56 289.0 53.0Q303 50 309.0 46.0Q315 42 329.0 40.0Q343 38 345 34Q463 -7 536 -7H603Q710 -7 710 86Q710 101 708 117Q724 126 734.0 147.0Q744 168 744.0 188.0Q744 208 734 226Q763 254 763 293Q763 307 758.0 324.0Q753 341 744 350Q762 351 774.0 376.0Q786 401 786 421ZM857 422Q857 372 830 331Q835 313 835 293Q835 250 814 212Q815 200 815 188Q815 132 782 89Q782 11 734.0 -34.0Q686 -79 608 -79H536Q482 -79 430.0 -66.0Q378 -53 309 -30Q244 -7 232 -7H71Q42 -7 21.0 14.0Q0 35 0 64V421Q0 451 21.0 472.0Q42 493 71 493H224Q244 506 301 579Q333 621 361 651Q374 665 380.0 699.0Q386 733 397.0 769.0Q408 805 432 829Q454 850 482 850Q529 850 566.0 832.0Q603 814 623.0 775.0Q643 736 643 671Q643 620 616 564H714Q772 564 815.0 522.0Q858 480 857 422Z" />
      </g>
    </svg>