<svg xmlns="http://www.w3.org/2000/svg" viewBox="17 -150 821 1000">
      <g transform="scale(1 -1) translate(0 -700)">
        <path d="M839 29Q839 14 829.0 4.0Q819 -6 804 -7H546Q546 -17 549.0 -56.0Q552 -95 552 -117Q552 -131 542.0 -140.0Q532 -149 518 -150H339Q325 -150 315.0 -140.0Q305 -130 305 -117Q305 -95 308.0 -56.0Q311 -17 311 -7H54Q39 -7 29.0 4.0Q19 15 18.0 29.0Q17 43 29 54L253 279H125Q111 279 100.0 289.0Q89 299 89.0 314.0Q89 329 100 339L324 564H214Q200 564 189.0 575.0Q178 586 179.0 600.0Q180 614 189 625L404 839Q414 850 429.0 850.0Q444 850 454 839L668 625Q679 615 679.0 600.0Q679 585 668.0 575.0Q657 565 643 564H533L757 339Q768 329 768.0 314.0Q768 299 757.0 289.0Q746 279 732 279H604L829 54Q839 43 839 29Z" />
      </g>
    </svg>