<svg xmlns="http://www.w3.org/2000/svg" viewBox="35 -79 964 786">
      <g transform="scale(1 -1) translate(0 -628)">
        <path d="M357 64Q357 93 336.0 115.0Q315 137 286.0 136.0Q257 135 236.0 115.0Q215 95 214.0 64.0Q213 33 236.0 14.0Q259 -5 286.0 -7.0Q313 -9 336.0 14.0Q359 37 357 64ZM143 350H357V493H269Q262 493 257 488L148 379Q143 374 143 367ZM857 64Q857 93 836.0 115.0Q815 137 786.0 136.0Q757 135 736.0 115.0Q715 95 714.0 64.0Q713 33 736.0 14.0Q759 -5 786.0 -7.0Q813 -9 836.0 14.0Q859 37 857 64ZM1000 671V100Q1000 92 998.0 85.0Q996 78 990.0 75.0Q984 72 981.0 69.0Q978 66 968 65L955 64H929Q929 5 887.0 -37.0Q845 -79 786.0 -79.0Q727 -79 685.0 -37.0Q643 5 643 64H429Q429 5 387.0 -37.0Q345 -79 286.0 -79.0Q227 -79 185.0 -37.0Q143 5 143 64H80Q76 64 68.0 65.0Q60 66 55 69L46 75Q42 78 38.0 85.0Q34 92 36 100Q36 115 46.0 125.0Q56 135 71 136V355Q71 361 73 374L76 395Q77 403 84 412L97 429L207 539Q218 550 235.0 557.0Q252 564 268 564H357V671Q357 686 368.0 697.0Q379 708 393 707H964Q979 707 989.0 697.0Q999 687 1000 671Z" />
      </g>
    </svg>