<svg xmlns="http://www.w3.org/2000/svg" viewBox="0 -79 929 893">
      <g transform="scale(1 -1) translate(0 -735)">
        <path d="M714 29Q714 43 704.0 54.0Q694 65 679.0 64.0Q664 63 654.0 54.0Q644 45 643.0 29.0Q642 13 654.0 4.0Q666 -5 679.0 -7.0Q692 -9 704.0 4.0Q716 17 714 29ZM857 29Q857 43 847.0 54.0Q837 65 821.0 64.0Q805 63 796.0 54.0Q787 45 786.0 29.0Q785 13 796.0 4.0Q807 -5 821.0 -7.0Q835 -9 847.0 4.0Q859 17 857 29ZM929 154V-25Q929 -47 913.0 -63.0Q897 -79 875 -79H54Q31 -79 16.0 -63.0Q1 -47 0 -25V154Q0 176 16.0 192.0Q32 208 54 207H292Q304 176 331.0 156.0Q358 136 393 136H536Q570 136 597.0 156.0Q624 176 637 207H875Q897 207 913.0 192.0Q929 177 929 154ZM747 515Q738 493 714 493H571V243Q571 228 561.0 218.0Q551 208 536 207H393Q378 207 368.0 218.0Q358 229 357 243V493H214Q191 493 181.5 515.0Q172 537 189 554L439 804Q449 814 464.0 814.0Q479 814 489 804L739 554Q757 537 747 515Z" />
      </g>
    </svg>