<svg xmlns="http://www.w3.org/2000/svg" viewBox="0 -79 714 858">
      <g transform="scale(1 -1) translate(0 -700)">
        <path d="M714 69Q714 9 679.0 -35.0Q644 -79 595 -79H119Q70 -79 35.0 -35.0Q0 9 0 69Q0 117 5.0 159.0Q10 201 22.0 244.0Q34 287 55.0 317.0Q76 347 107.0 367.0Q138 387 183 386Q256 314 357.0 314.0Q458 314 532 386Q574 386 607.0 367.0Q640 348 659.0 317.0Q678 286 692.0 244.0Q706 202 710.0 159.0Q714 116 714 69ZM571 564Q571 476 509.0 413.0Q447 350 357.0 350.0Q267 350 206.0 413.0Q145 476 143.0 564.0Q141 652 206.0 716.0Q271 780 357.0 779.0Q443 778 509.0 716.0Q575 654 571 564Z" />
      </g>
    </svg>