<svg xmlns="http://www.w3.org/2000/svg" viewBox="0 -150 1143 1000">
      <g transform="scale(1 -1) translate(0 -700)">
        <path d="M929 832Q929 840 934.0 845.0Q939 850 946 850H1107Q1122 850 1132.0 839.0Q1142 828 1143 814V654Q1143 646 1138.0 641.0Q1133 636 1125 636H1089Q1082 636 1077.0 641.0Q1072 646 1071 654V728L930 586Q972 533 990.0 467.0Q1008 401 995 329Q977 228 903.0 156.0Q829 84 728 68Q604 49 500 118Q435 75 357 67V-7H411Q419 -7 424.0 -12.0Q429 -17 429 -25V-61Q429 -69 424.0 -74.0Q419 -79 411 -79H357V-132Q357 -140 352.0 -145.0Q347 -150 339 -150H304Q296 -150 291.0 -145.0Q286 -140 286 -132V-79H232Q224 -79 219.0 -74.0Q214 -69 214 -61V-25Q214 -17 219.0 -12.0Q224 -7 232 -7H286V67Q199 76 130.0 128.0Q61 180 25.0 260.0Q-11 340 3 432Q17 536 92.0 611.0Q167 686 271 703Q396 722 500 653Q582 707 679 707Q791 707 879 637L1021 779H946Q939 779 934.0 784.0Q929 789 929 796ZM500 211Q571 284 571.0 386.0Q571 488 500 560Q429 487 429.0 386.0Q429 285 500 211ZM71 386Q71 283 145.0 209.0Q219 135 321 136Q387 136 443 168Q357 261 357.0 386.0Q357 511 443 604Q387 636 321 636Q218 636 145.0 562.0Q72 488 71 386ZM679 136Q782 136 855.0 209.0Q928 282 929.0 386.0Q930 490 855.0 562.0Q780 634 679 636Q613 636 557 604Q643 511 643.0 386.0Q643 261 557 168Q613 136 679 136Z" />
      </g>
    </svg>