<svg xmlns="http://www.w3.org/2000/svg" viewBox="0 -150 643 1000">
      <g transform="scale(1 -1) translate(0 -700)">
        <path d="M643 529Q643 405 561.0 314.0Q479 223 357 209V64H482Q490 64 495.0 59.0Q500 54 500 46V11Q500 3 495.0 -2.0Q490 -7 482 -7H357V-132Q357 -140 352.0 -145.0Q347 -150 339 -150H304Q296 -150 291.0 -145.0Q286 -140 286 -132V-7H161Q153 -7 148.0 -2.0Q143 3 143 11V46Q143 54 148.0 59.0Q153 64 161 64H286V209Q202 218 134.0 267.0Q66 316 30.0 392.0Q-6 468 1 555Q7 630 46.0 694.0Q85 758 148.0 799.0Q211 840 285 848Q380 858 463.0 818.0Q546 778 594.0 699.0Q642 620 643 529ZM71 529Q71 425 145.0 352.0Q219 279 321.0 279.0Q423 279 498.0 352.0Q573 425 571.0 529.0Q569 633 498.0 705.0Q427 777 321.0 779.0Q215 781 145.0 705.0Q75 629 71 529Z" />
      </g>
    </svg>