<svg xmlns="http://www.w3.org/2000/svg" viewBox="0 -47 929 794">
      <g transform="scale(1 -1) translate(0 -700)">
        <path d="M429 654V46Q429 32 418.0 21.0Q407 10 393.0 11.0Q379 12 368 21L182 207H36Q21 207 11.0 218.0Q1 229 0 243V457Q0 472 11.0 482.0Q22 492 36 493H182L368 679Q378 689 393.0 689.0Q408 689 418.0 679.0Q428 669 429 654ZM643 350Q643 308 619.0 271.0Q595 234 556 219Q551 216 542 216Q528 216 517.0 226.0Q506 236 507 252Q507 264 513.0 272.0Q519 280 530.0 286.0Q541 292 549.0 298.0Q557 304 565.0 319.0Q573 334 571.0 350.0Q569 366 565.0 382.0Q561 398 549.0 402.0Q537 406 530.0 415.0Q523 424 513.0 428.0Q503 432 507 448Q507 463 517.0 474.0Q527 485 542 484Q551 484 556 481Q595 466 619.0 429.0Q643 392 643 350ZM786 350Q786 265 738.0 192.0Q690 119 613 87Q606 84 599 84Q584 84 573.0 95.0Q562 106 563 120Q563 142 584 153Q616 169 627 178Q668 208 691.0 253.0Q714 298 714.0 350.0Q714 402 691.0 447.0Q668 492 627 522Q616 531 584 547Q563 558 563 580Q563 594 573.0 605.0Q583 616 598 616Q606 616 613 613Q691 580 738.0 508.0Q785 436 786 350ZM929 350Q929 222 858.0 114.0Q787 6 669 -44Q662 -47 655 -47Q640 -47 630.0 -36.0Q620 -25 619 -11Q619 9 641 22L666 34Q691 48 712 62Q780 113 819.0 189.0Q858 265 857.0 350.0Q856 435 819.0 511.0Q782 587 712 638Q691 653 666 666Q662 669 653.0 672.0Q644 675 641 678Q619 691 619 711Q619 726 630.0 736.0Q641 746 655 747Q662 747 669 744Q787 693 858.0 586.0Q929 479 929 350Z" />
      </g>
    </svg>