<svg xmlns="http://www.w3.org/2000/svg" viewBox="0 10 643 678">
      <g transform="scale(1 -1) translate(0 -698)">
        <path d="M429 654V46Q429 32 418.0 21.0Q407 10 393.0 11.0Q379 12 368 21L182 207H36Q21 207 11.0 218.0Q1 229 0 243V457Q0 472 11.0 482.0Q22 492 36 493H182L368 679Q378 689 393.0 689.0Q408 689 418.0 679.0Q428 669 429 654ZM643 350Q643 308 619.0 271.0Q595 234 556 219Q551 216 542 216Q528 216 517.0 226.0Q506 236 507 252Q507 264 513.0 272.0Q519 280 530.0 286.0Q541 292 549.0 298.0Q557 304 565.0 319.0Q573 334 571.0 350.0Q569 366 565.0 382.0Q561 398 549.0 402.0Q537 406 530.0 415.0Q523 424 513.0 428.0Q503 432 507 448Q507 463 517.0 474.0Q527 485 542 484Q551 484 556 481Q595 466 619.0 429.0Q643 392 643 350Z" />
      </g>
    </svg>