<svg xmlns="http://www.w3.org/2000/svg" viewBox="23 0 1096 779">
      <g transform="scale(1 -1) translate(0 -779)">
        <path d="M571 0Q560 0 520.0 41.0Q480 82 479 93Q479 111 514.0 123.0Q549 135 571.0 136.0Q593 137 629.0 123.0Q665 109 664 93Q664 82 623.0 41.0Q582 0 571 0ZM722 151Q721 151 700.0 165.0Q679 179 643.0 193.0Q607 207 571.0 207.0Q535 207 500.0 193.0Q465 179 443 165L421 151Q411 151 369.0 193.0Q327 235 327 245Q327 252 332 258Q376 301 441.0 325.0Q506 349 571.0 350.0Q636 351 702.0 325.0Q768 299 811 258Q816 252 816 245Q816 235 774.0 193.0Q732 151 722 151ZM874 303Q868 303 862 308Q786 366 721.0 394.0Q656 422 571 421Q524 421 476.0 409.0Q428 397 393.0 380.0Q358 363 330.0 345.0Q302 327 286.0 315.0Q270 303 268 303Q259 303 217.0 345.0Q175 387 175 397Q175 404 181 409Q255 483 359.0 524.0Q463 565 571.0 564.0Q679 563 784.0 524.0Q889 485 962 409Q968 404 968 397Q968 387 926.0 345.0Q884 303 874 303ZM1026 454Q1020 454 1013 459Q914 547 806.0 591.0Q698 635 571.0 636.0Q444 637 337.0 591.0Q230 545 130 459Q123 454 117 454Q108 454 66.0 496.0Q24 538 23 548Q23 555 29 561Q133 665 277.0 722.0Q421 779 571.0 779.0Q721 779 866.0 722.0Q1011 665 1114 561Q1119 555 1119 548Q1119 538 1077.0 496.0Q1035 454 1026 454Z" />
      </g>
    </svg>