<svg xmlns="http://www.w3.org/2000/svg" viewBox="0 -88 999 875">
      <g transform="scale(1 -1) translate(0 -699)">
        <path d="M0 318Q0 330 9.0 339.0Q18 348 31 348H281Q295 348 304.0 339.0Q313 330 312 318Q312 304 303.0 295.0Q294 286 281 285H31Q18 285 9.0 295.0Q0 305 0 318ZM0 442Q0 455 9.0 464.0Q18 473 31 473H156Q170 473 179.0 464.0Q188 455 187.5 442.0Q187 429 178.0 420.0Q169 411 156 410H31Q18 410 9.0 420.0Q0 430 0 442ZM63 567Q63 580 71.0 589.0Q79 598 94 598H219Q232 598 241.0 589.0Q250 580 250.0 567.0Q250 554 241.0 545.0Q232 536 219 535H94Q81 535 72.0 545.0Q63 555 63 567ZM271 518Q271 595 325.0 651.0Q379 707 457 711Q531 787 635.0 787.0Q739 787 814 711Q892 707 946.0 651.0Q1000 595 999 518Q999 436 943.0 379.0Q887 322 804 322Q787 322 771 324Q709 285 635.0 285.0Q561 285 500 324Q484 322 465 322Q385 322 328.0 379.0Q271 436 271 518ZM334 518Q334 463 372.0 424.0Q410 385 465 385Q491 385 511 393Q567 348 635.0 348.0Q703 348 757 393Q780 385 804 385Q859 385 898.0 424.0Q937 463 937.0 518.0Q937 573 898.0 610.0Q859 647 804 648H787Q730 725 635.0 725.0Q540 725 484 648H465Q410 648 372.0 610.0Q334 572 334 518ZM437 100Q437 135 500 225L515 201Q533 175 547 147Q562 115 562 100Q562 75 544.0 56.0Q526 37 500.0 37.0Q474 37 456.0 56.0Q438 75 437 100ZM687 -25Q687 10 750 100L765 76Q783 50 796 22Q812 -10 812 -25Q812 -50 794.0 -69.0Q776 -88 750.0 -88.0Q724 -88 706.0 -69.0Q688 -50 687 -25Z" />
      </g>
    </svg>