<svg xmlns="http://www.w3.org/2000/svg" viewBox="0 98 999 504">
      <g transform="scale(1 -1) translate(0 -700)">
        <path d="M0 131Q0 145 9.0 154.0Q18 163 31 162H281Q295 162 304.0 154.0Q313 146 312.0 131.0Q311 116 304.0 109.0Q297 102 281 100H31Q18 100 9.0 109.0Q0 118 0 131ZM0 256Q0 270 9.0 279.0Q18 288 31 287H156Q170 287 179.0 279.0Q188 271 187.0 256.0Q186 241 179.0 234.0Q172 227 156 225H31Q18 225 9.0 234.0Q0 243 0 256ZM63 381Q63 395 71.0 403.0Q79 411 94 412H219Q232 412 241.0 403.0Q250 394 250.0 381.0Q250 368 241.0 359.0Q232 350 219 350H94Q80 350 71.0 359.0Q62 368 63 381ZM271 330Q271 408 325.0 465.0Q379 522 457 525Q531 602 635.0 602.0Q739 602 814 525Q892 522 945.5 465.0Q999 408 999.0 329.0Q999 250 943.0 194.0Q887 138 804 137Q787 137 771 139Q709 98 635.0 98.0Q561 98 500 139Q484 137 465 137Q385 137 328.0 194.0Q271 251 271 330ZM334 330Q334 276 372.0 238.0Q410 200 465 199Q491 199 511 207Q567 160 636.0 160.0Q705 160 757 207Q780 199 804 199Q859 199 898.0 238.0Q937 277 937.0 330.0Q937 383 898.0 424.0Q859 465 804 463Q795 463 787 461Q731 539 635.0 539.0Q539 539 484 461Q476 463 465 463Q410 463 372.0 424.0Q334 385 334 330Z" />
      </g>
    </svg>