<svg xmlns="http://www.w3.org/2000/svg" viewBox="123 36 812 563">
      <g transform="scale(1 -1) translate(0 -635)">
        <path d="M123 194Q123 207 135.0 216.0Q147 225 164 225H654Q693 225 720.0 198.0Q747 171 748.0 131.0Q749 91 720.0 65.0Q691 39 654.0 37.0Q617 35 588.0 65.0Q559 95 560 131Q560 147 566 162H164Q146 162 135.0 171.0Q124 180 123 194ZM123 319Q123 332 132.0 341.0Q141 350 154 350H754Q748 365 748 381Q748 420 775.0 447.0Q802 474 841.0 475.0Q880 476 908.0 447.0Q936 418 935.0 381.0Q934 344 908.0 315.0Q882 286 841 287H154Q141 287 132.0 296.0Q123 305 123 319ZM123 443Q123 457 132.0 466.0Q141 475 154 475H441Q435 490 435 506Q435 545 463.0 572.0Q491 599 529.0 600.0Q567 601 595.0 572.0Q623 543 623.0 506.0Q623 469 595.0 440.0Q567 411 529 412H154Q141 412 132.0 421.0Q123 430 123 443Z" />
      </g>
    </svg>