<svg xmlns="http://www.w3.org/2000/svg" viewBox="33 -150 934 1000">
      <g transform="scale(1 -1) translate(0 -700)">
        <path d="M950 -50H917H900V753Q915 757 924.0 770.0Q933 783 933 800Q933 821 919.0 835.5Q905 850 883 850H117Q95 850 81.0 835.5Q67 821 67 800Q67 784 76.0 771.0Q85 758 100 753V-50H50Q43 -50 38.0 -54.5Q33 -59 33.0 -66.5Q33 -74 37.5 -78.5Q42 -83 50 -83H67V-100Q67 -121 81.0 -135.5Q95 -150 117 -150H883Q905 -150 919.0 -135.5Q933 -121 933 -100V-83H950Q958 -83 962.5 -78.5Q967 -74 967.0 -66.5Q967 -59 962.5 -54.5Q958 -50 950 -50ZM117 817H883Q891 817 895.5 812.5Q900 808 900.0 800.5Q900 793 895.5 788.0Q891 783 883 783H117Q110 783 105.0 788.5Q100 794 100.0 800.0Q100 806 105.0 811.5Q110 817 117 817ZM133 750H867V-50H133ZM900 -100Q900 -107 895.5 -112.0Q891 -117 883 -117H117Q110 -117 105.0 -112.0Q100 -107 100 -100V-83H900ZM467 717H350H183Q176 717 171.5 712.5Q167 708 167 700V383Q167 376 171.5 371.5Q176 367 183 367H467Q475 367 479.0 371.5Q483 376 483 383V700Q483 708 478.5 712.5Q474 717 467 717ZM200 400V683H333Q331 628 315 559Q301 494 282.0 447.0Q263 400 250 400ZM450 400H295Q324 445 345 544Q362 621 366 683H450ZM817 717H650H533Q526 717 521.5 712.5Q517 708 517 700V383Q517 376 521.5 371.5Q526 367 533 367H817Q825 367 829.0 371.5Q833 376 833 383V700Q833 708 828.5 712.5Q824 717 817 717ZM550 683H634Q638 621 655 544Q676 445 705 400H550ZM800 400H750Q737 400 718.0 447.0Q699 494 685 559Q669 628 667 683H800ZM467 333H233H183Q176 333 171.5 329.0Q167 325 167 317V0Q167 -8 171.5 -12.5Q176 -17 183 -17H467Q474 -17 478.5 -12.5Q483 -8 483 0V317Q483 325 479.0 329.0Q475 333 467 333ZM200 17V300H228Q250 282 265 207Q282 125 283 17ZM450 17H317Q315 104 305 175Q292 258 269 300H450ZM817 333H767H533Q526 333 521.5 329.0Q517 325 517 317V0Q517 -8 521.5 -12.5Q526 -17 533 -17H817Q824 -17 828.5 -12.5Q833 -8 833 0V317Q833 325 829.0 329.0Q825 333 817 333ZM550 300H731Q708 258 695 175Q685 105 683 17H550ZM800 17H717Q718 125 735 207Q750 282 772 300H800Z" />
      </g>
    </svg>