<svg xmlns="http://www.w3.org/2000/svg" viewBox="41 40 916 917">
      <g transform="scale(1 -1) translate(0 -997)">
        <path d="M244 207Q244 221 233.5 231.5Q223 242 208.5 242.0Q194 242 183.5 231.5Q173 221 173.0 206.5Q173 192 183.5 181.5Q194 171 208.5 171.0Q223 171 233.5 181.5Q244 192 244 207ZM603 441 223 60Q202 40 173.0 40.0Q144 40 122 60L63 121Q41 141 41.0 170.5Q41 200 63 222L443 602Q464 547 506.5 505.0Q549 463 603 441ZM957 684Q957 662 944 625Q918 550 852.5 503.5Q787 457 708 457Q605 457 531.5 530.0Q458 603 458.0 706.5Q458 810 531.5 883.5Q605 957 708 957Q741 957 776.5 947.5Q812 938 836 921Q845 915 845.0 905.5Q845 896 836 890L673 796V671L780 611L824 638Q866 664 900.0 683.5Q934 703 939 703Q948 703 952.5 697.5Q957 692 957 684Z" />
      </g>
    </svg>