<svg xmlns="http://www.w3.org/2000/svg" viewBox="-87 -6 787 787">
      <g transform="scale(1 -1) translate(0 -775)">
        <path d="M0 266Q-57 324 -77 403Q-97 480 -77 556Q-57 635 1.0 693.0Q59 751 137 771Q214 791 291 771Q369 751 428 693Q482 639 502 561Q520 488 504.0 413.0Q488 338 441 284L556 244L685 114Q702 92 700.0 64.0Q698 36 678.0 15.5Q658 -5 630.0 -6.5Q602 -8 580 8L450 138L410 250Q355 204 280.0 188.5Q205 173 132 192Q55 212 0 266ZM370 323Q413 366 428.5 423.0Q444 480 428.5 537.0Q413 594 370.5 636.5Q328 679 271.0 694.5Q214 710 156.5 694.5Q99 679 56.5 636.5Q14 594 -1.0 537.0Q-16 480 -1.0 423.0Q14 366 56.5 323.0Q99 280 156.5 265.0Q214 250 271.0 265.0Q328 280 370 323ZM80 514H180V615H248V514H346V450H248V350H180V450H80Z" />
      </g>
    </svg>