<svg xmlns="http://www.w3.org/2000/svg" viewBox="-89 -6 788 787">
      <g transform="scale(1 -1) translate(0 -775)">
        <path d="M0 266Q-58 324 -79 403Q-99 479 -79 556Q-58 635 0.0 693.0Q58 751 137 771Q213 791 290 771Q368 751 426 693Q480 639 500 561Q519 488 503.0 413.0Q487 338 441 284L555 244L684 114Q701 92 699.0 64.0Q697 36 676.5 15.5Q656 -5 628.5 -6.5Q601 -8 579 8L449 138L409 250Q354 204 279.0 188.5Q204 173 131 192Q54 212 0 266ZM369 323Q412 365 427.0 422.5Q442 480 427.0 537.0Q412 594 369.5 636.5Q327 679 270.0 694.5Q213 710 155.5 694.5Q98 679 55.5 636.5Q13 594 -2.0 537.0Q-17 480 -2.0 422.5Q13 365 55.5 322.5Q98 280 155.5 265.0Q213 250 270.0 265.0Q327 280 369 323ZM79 530H345V435H79Z" />
      </g>
    </svg>