<svg xmlns="http://www.w3.org/2000/svg" viewBox="85 21 342 342">
      <g transform="scale(1 -1) translate(0 -384)">
        <path d="M192 21Q192 63 220.0 137.0Q248 211 296 293Q303 306 315.0 313.0Q327 320 341 320Q359 320 371.5 307.5Q384 295 384 277V21H427V277Q427 313 402.0 338.0Q377 363 341 363Q315 363 293.0 349.5Q271 336 259 315Q214 237 192 170V309Q192 331 176.5 347.0Q161 363 139.0 363.0Q117 363 101.0 347.0Q85 331 85.0 309.0Q85 287 101.0 271.5Q117 256 139 256Q146 256 149 257V21ZM139 320Q143 320 146.0 317.0Q149 314 149.0 309.5Q149 305 146.0 302.0Q143 299 138.5 299.0Q134 299 131.0 302.0Q128 305 128.0 309.5Q128 314 131.0 317.0Q134 320 139 320Z" />
      </g>
    </svg>