<svg xmlns="http://www.w3.org/2000/svg" viewBox="128 0 256 384">
      <g transform="scale(1 -1) translate(0 -384)">
        <path d="M171 384V341H235Q255 341 271.5 329.5Q288 318 295 299H128V256H299V235H256Q227 235 202.5 220.5Q178 206 163.5 181.5Q149 157 149.0 128.0Q149 99 163.5 74.5Q178 50 202.5 35.5Q227 21 256 21Q280 21 299 36V0H341V85H299Q283 64 256.0 64.0Q229 64 210.5 82.5Q192 101 192.0 128.0Q192 155 210.5 173.5Q229 192 256 192H341V256H384V299H339Q332 335 302.5 359.5Q273 384 235 384Z" />
      </g>
    </svg>