<svg xmlns="http://www.w3.org/2000/svg" viewBox="21 -64 448 428">
      <g transform="scale(1 -1) translate(0 -300)">
        <path d="M316 153Q341 178 341.0 213.5Q341 249 316 274L346 304Q364 286 374.0 262.5Q384 239 384.0 213.0Q384 187 374.0 164.0Q364 141 346 123ZM299 213Q299 231 286.5 243.5Q274 256 255.5 256.0Q237 256 224 241L284 181Q299 194 299 213ZM377 93 407 63Q436 92 452.5 131.0Q469 170 469.0 213.5Q469 257 452.5 296.0Q436 335 407 364L377 334Q400 311 413.5 279.5Q427 248 427.0 213.0Q427 178 413.5 147.0Q400 116 377 93ZM469 -4V21H444ZM432 -21 448 -37 421 -64 378 -21H320Q320 -30 314.0 -36.5Q308 -43 299 -43H213Q204 -43 198.0 -36.5Q192 -30 192 -21H43V21H192Q192 30 198.0 36.5Q204 43 213 43H235V122L178 179Q185 163 196 153L166 123Q148 141 138.0 164.0Q128 187 128 213Q128 223 129 228L93 264Q85 238 85 213Q85 178 98.5 147.0Q112 116 135 93L105 63Q76 92 59.5 131.0Q43 170 43.0 213.5Q43 257 60 297L21 336L49 363L433 -21ZM336 21 277 80V43H299Q308 43 314.0 36.5Q320 30 320 21Z" />
      </g>
    </svg>