<svg xmlns="http://www.w3.org/2000/svg" viewBox="43 0 426 343">
      <g transform="scale(1 -1) translate(0 -343)">
        <path d="M439 131 464 101 363 0 304 64 329 89 363 55ZM407 343 377 313Q400 289 413.5 258.0Q427 227 427 192V185Q449 176 467 161Q469 179 469 192Q469 235 452.5 274.0Q436 313 407 343ZM340 184Q362 192 384 192Q384 218 374.0 241.5Q364 265 346 282L316 252Q341 227 341 192ZM256 235Q238 235 225.5 222.5Q213 210 213.0 192.0Q213 174 225.5 161.5Q238 149 256.0 149.0Q274 149 286.5 161.5Q299 174 299.0 192.0Q299 210 286.5 222.5Q274 235 256 235ZM135 313 105 343Q76 313 59.5 274.0Q43 235 43.0 192.0Q43 149 59.5 110.0Q76 71 105 41L135 71Q112 95 98.5 126.0Q85 157 85.0 192.0Q85 227 98.5 258.0Q112 289 135 313ZM166 282Q148 265 138.0 241.5Q128 218 128.0 192.0Q128 166 138.0 142.5Q148 119 166 102L196 132Q171 157 171.0 192.0Q171 227 196 252Z" />
      </g>
    </svg>