<svg xmlns="http://www.w3.org/2000/svg" viewBox="43 41 426 302">
      <g transform="scale(1 -1) translate(0 -384)">
        <path d="M105 343Q76 313 59.5 274.0Q43 235 43.0 192.0Q43 149 59.5 110.0Q76 71 105 41L135 71Q112 95 98.5 126.0Q85 157 85.0 192.0Q85 227 98.5 258.0Q112 289 135 313ZM407 343 377 313Q400 289 413.5 258.0Q427 227 427.0 192.0Q427 157 413.5 126.0Q400 95 377 71L407 41Q436 71 452.5 110.0Q469 149 469.0 192.0Q469 235 452.5 274.0Q436 313 407 343ZM166 282Q148 265 138.0 241.5Q128 218 128.0 192.0Q128 166 138.0 142.5Q148 119 166 102L196 132Q171 157 171.0 192.0Q171 227 196 252ZM346 282 316 252Q341 227 341.0 192.0Q341 157 316 132L346 102Q364 119 374.0 142.5Q384 166 384.0 192.0Q384 218 374.0 241.5Q364 265 346 282ZM256 235Q238 235 225.5 222.5Q213 210 213.0 192.0Q213 174 225.5 161.5Q238 149 256.0 149.0Q274 149 286.5 161.5Q299 174 299.0 192.0Q299 210 286.5 222.5Q274 235 256 235Z" />
      </g>
    </svg>