<svg xmlns="http://www.w3.org/2000/svg" viewBox="43 -43 426 407">
      <g transform="scale(1 -1) translate(0 -321)">
        <path d="M105 364Q76 335 59.5 296.0Q43 257 43.0 213.5Q43 170 59.5 131.0Q76 92 105 63L135 93Q112 116 98.5 147.0Q85 178 85.0 213.0Q85 248 98.5 279.5Q112 311 135 334ZM407 364 377 334Q400 311 413.5 279.5Q427 248 427.0 213.0Q427 178 413.5 147.0Q400 116 377 93L407 63Q436 92 452.5 131.0Q469 170 469.0 213.5Q469 257 452.5 296.0Q436 335 407 364ZM166 304Q148 286 138.0 262.5Q128 239 128.0 213.0Q128 187 138.0 164.0Q148 141 166 123L196 153Q171 178 171.0 213.5Q171 249 196 274ZM346 304 316 274Q341 249 341.0 213.5Q341 178 316 153L346 123Q364 141 374.0 164.0Q384 187 384.0 213.0Q384 239 374.0 262.5Q364 286 346 304ZM256 256Q238 256 225.5 243.5Q213 231 213.0 213.5Q213 196 225.5 183.5Q238 171 256.0 171.0Q274 171 286.5 183.5Q299 196 299.0 213.5Q299 231 286.5 243.5Q274 256 256 256ZM235 128V43H213Q204 43 198.0 36.5Q192 30 192 21H43V-21H192Q192 -30 198.0 -36.5Q204 -43 213 -43H299Q308 -43 314.0 -36.5Q320 -30 320 -21H469V21H320Q320 30 314.0 36.5Q308 43 299 43H277V128Z" />
      </g>
    </svg>