<svg xmlns="http://www.w3.org/2000/svg" viewBox="43 -43 426 427">
      <g transform="scale(1 -1) translate(0 -341)">
        <path d="M277 85V43H299Q308 43 314.0 36.5Q320 30 320 21H469V-21H320Q320 -30 314.0 -36.5Q308 -43 299 -43H213Q204 -43 198.0 -36.5Q192 -30 192 -21H43V21H192Q192 30 198.0 36.5Q204 43 213 43H235V85H107V117Q107 138 127.0 155.0Q147 172 181.0 182.0Q215 192 256.0 192.0Q297 192 331.0 182.0Q365 172 385.0 155.0Q405 138 405 117V85ZM256 384Q287 384 309.0 362.0Q331 340 331.0 309.0Q331 278 309.0 256.5Q287 235 256.0 235.0Q225 235 203.0 256.5Q181 278 181.0 309.0Q181 340 203.0 362.0Q225 384 256 384Z" />
      </g>
    </svg>