<svg xmlns="http://www.w3.org/2000/svg" viewBox="43 -43 426 406">
      <g transform="scale(1 -1) translate(0 -320)">
        <path d="M213 192Q249 192 274.0 217.0Q299 242 299.0 277.5Q299 313 274.0 338.0Q249 363 213.5 363.0Q178 363 153.0 338.0Q128 313 128.0 277.5Q128 242 153.0 217.0Q178 192 213 192ZM213 320Q231 320 243.5 307.5Q256 295 256.0 277.5Q256 260 243.5 247.5Q231 235 213.5 235.0Q196 235 183.5 247.5Q171 260 171.0 277.5Q171 295 183.5 307.5Q196 320 213 320ZM256 21H43V85Q43 112 74 133Q101 150 144 161Q182 171 213.5 171.0Q245 171 285 161Q282 149 282 139V120Q246 130 213 130Q184 130 151 122Q123 114 103.0 103.0Q83 92 83 85V62H256ZM444 85H352V139Q352 151 361.5 158.5Q371 166 384.0 166.0Q397 166 406.5 158.5Q416 151 416 139V128H444V139Q444 161 425.5 176.5Q407 192 384.0 192.0Q361 192 342.5 176.5Q324 161 324 139V85Q315 85 307.0 77.0Q299 69 299 60V-15Q299 -26 306.5 -34.5Q314 -43 324 -43H442Q453 -43 461.0 -35.0Q469 -27 469 -17V58Q469 69 461.5 77.0Q454 85 444 85Z" />
      </g>
    </svg>