<svg xmlns="http://www.w3.org/2000/svg" viewBox="43 21 426 342">
      <g transform="scale(1 -1) translate(0 -384)">
        <path d="M235 256Q235 229 216.0 210.5Q197 192 170.5 192.0Q144 192 125.5 210.5Q107 229 107.0 256.0Q107 283 125.5 301.5Q144 320 170.5 320.0Q197 320 216.0 301.5Q235 283 235 256ZM299 21H43V64Q43 87 60.0 106.5Q77 126 106.5 137.5Q136 149 170.5 149.0Q205 149 234.5 137.5Q264 126 281.5 106.5Q299 87 299 64ZM469 192V149H277V192ZM469 277V235H277V277ZM469 363V320H277V363Z" />
      </g>
    </svg>