<svg xmlns="http://www.w3.org/2000/svg" viewBox="43 -43 448 406">
      <g transform="scale(1 -1) translate(0 -320)">
        <path d="M213 192Q249 192 274.0 217.0Q299 242 299.0 277.5Q299 313 274.0 338.0Q249 363 213.5 363.0Q178 363 153.0 338.0Q128 313 128.0 277.5Q128 242 153.0 217.0Q178 192 213 192ZM213 320Q231 320 243.5 307.5Q256 295 256.0 277.5Q256 260 243.5 247.5Q231 235 213.5 235.0Q196 235 183.5 247.5Q171 260 171.0 277.5Q171 295 183.5 307.5Q196 320 213 320ZM198 21H43V85Q43 112 74 133Q101 150 144 161Q182 171 213 171Q251 171 296 158Q268 147 245 128Q228 130 213 130Q184 130 151 122Q123 114 103.0 103.0Q83 92 83 85V62H197L195 59L189 43ZM363 64Q372 64 378.0 58.0Q384 52 384.0 43.0Q384 34 378.0 27.5Q372 21 363.0 21.0Q354 21 347.5 27.5Q341 34 341.0 43.0Q341 52 347.5 58.0Q354 64 363 64ZM363 128Q320 128 285.0 104.5Q250 81 235 43Q250 5 285.0 -19.0Q320 -43 363.0 -43.0Q406 -43 440.5 -19.0Q475 5 491 43Q475 81 440.5 104.5Q406 128 363 128ZM363 -11Q341 -11 325.0 5.0Q309 21 309.0 43.0Q309 65 325.0 80.5Q341 96 363.0 96.0Q385 96 400.5 80.5Q416 65 416.0 43.0Q416 21 400.5 5.0Q385 -11 363 -11Z" />
      </g>
    </svg>