<svg xmlns="http://www.w3.org/2000/svg" viewBox="43 43 426 320">
      <g transform="scale(1 -1) translate(0 -406)">
        <path d="M341 85V43H43V85L44 94Q46 105 52 115Q61 130 75 141Q93 154 119 162Q150 171 192 171Q258 171 297 149Q325 133 336 107Q341 95 341 85ZM267 288Q267 311 254.0 329.5Q241 348 220.5 357.0Q200 366 177.5 361.5Q155 357 139.0 341.0Q123 325 118.5 302.5Q114 280 123.0 259.5Q132 239 150.5 226.0Q169 213 192 213Q223 213 245.0 235.0Q267 257 267 288ZM340 171Q360 155 371.5 132.5Q383 110 384 85V43H469V85L468 93Q466 103 461 113Q454 127 441 137Q426 151 403 159Q376 168 340 171ZM320 363Q297 363 279 350Q299 322 299.0 288.0Q299 254 279 226Q297 213 320 213Q351 213 373.0 235.0Q395 257 395.0 288.0Q395 319 373.0 341.0Q351 363 320 363Z" />
      </g>
    </svg>