<svg xmlns="http://www.w3.org/2000/svg" viewBox="21 21 470 342">
      <g transform="scale(1 -1) translate(0 -384)">
        <path d="M320 363Q285 363 260.0 338.0Q235 313 235.0 277.5Q235 242 260.0 217.0Q285 192 320.0 192.0Q355 192 380.0 217.0Q405 242 405.0 277.5Q405 313 380.0 338.0Q355 363 320 363ZM320 322Q339 322 352.0 309.0Q365 296 365.0 277.5Q365 259 352.0 246.0Q339 233 320.0 233.0Q301 233 288.0 246.0Q275 259 275.0 277.5Q275 296 288.0 309.0Q301 322 320 322ZM21 235V192H192V235ZM320 171Q288 171 250 161Q207 150 181 133Q149 112 149 85V21H491V85Q491 112 459 133Q433 150 390 161Q352 171 320 171ZM320 130Q350 130 382 122Q410 114 430.0 103.0Q450 92 450 85V62H190V85Q190 92 210.0 103.0Q230 114 258 122Q290 130 320 130Z" />
      </g>
    </svg>