<svg xmlns="http://www.w3.org/2000/svg" viewBox="64 -43 405 406">
      <g transform="scale(1 -1) translate(0 -320)">
        <path d="M235 363Q199 363 174.0 338.0Q149 313 149.0 277.5Q149 242 174.0 217.0Q199 192 234.5 192.0Q270 192 295.0 217.0Q320 242 320.0 277.5Q320 313 295.0 338.0Q270 363 235 363ZM235 149Q189 149 149.5 137.5Q110 126 87.0 106.5Q64 87 64 64V21H267Q256 50 256 75Q256 112 275 147Q269 147 255.5 148.0Q242 149 235 149ZM384 21Q362 21 346.5 36.5Q331 52 331 75Q331 89 337 98L314 122Q299 99 299 75Q299 39 324.0 14.0Q349 -11 384 -11V-43L431 4L384 53ZM384 160V192L337 145L384 98V128Q406 128 421.5 112.5Q437 97 437 75Q437 61 431 51L454 28Q469 50 469 75Q469 110 444.0 135.0Q419 160 384 160Z" />
      </g>
    </svg>