<svg xmlns="http://www.w3.org/2000/svg" viewBox="64 21 405 342">
      <g transform="scale(1 -1) translate(0 -384)">
        <path d="M235 363Q270 363 295.0 338.0Q320 313 320.0 277.5Q320 242 295.0 217.0Q270 192 234.5 192.0Q199 192 174.0 217.0Q149 242 149.0 277.5Q149 313 174.0 338.0Q199 363 235 363ZM235 320Q217 320 204.5 307.5Q192 295 192.0 277.5Q192 260 204.5 247.5Q217 235 234.5 235.0Q252 235 264.5 247.5Q277 260 277.0 277.5Q277 295 264.5 307.5Q252 320 235 320ZM235 171Q276 171 322 156Q303 144 290 123Q261 130 235 130Q205 130 173 122Q145 114 125.0 103.0Q105 92 105 85V62H278Q281 40 294 21H64V85Q64 112 96 133Q122 150 165 161Q203 171 235 171ZM395 235H427H469V192H427V75Q427 53 411.0 37.0Q395 21 373.0 21.0Q351 21 335.5 37.0Q320 53 320.0 75.0Q320 97 335.5 112.5Q351 128 373 128Q385 128 395 124Z" />
      </g>
    </svg>