<svg xmlns="http://www.w3.org/2000/svg" viewBox="43 1 423 362">
      <g transform="scale(1 -1) translate(0 -364)">
        <path d="M43 85V21H213V62H83V85Q83 92 103.0 103.0Q123 114 151 122Q184 130 214.0 130.0Q244 130 274 122L306 154Q261 170 213 171Q182 171 144 161Q101 150 74 133Q43 112 43 85ZM213 363Q178 363 153.0 338.0Q128 313 128.0 277.5Q128 242 153.0 217.0Q178 192 213.5 192.0Q249 192 274.0 217.0Q299 242 299.0 277.5Q299 313 274.0 338.0Q249 363 213 363ZM213 235Q196 235 183.5 247.5Q171 260 171.0 277.5Q171 295 183.5 307.5Q196 320 213.5 320.0Q231 320 243.5 307.5Q256 295 256.0 277.5Q256 260 243.5 247.5Q231 235 213 235ZM463 163 442 142 398 185 419 206Q423 209 427.5 209.0Q432 209 436 206L463 179Q466 175 466.0 170.0Q466 165 463 162ZM256 44 385 173 429 131 301 1H256Z" />
      </g>
    </svg>