<svg xmlns="http://www.w3.org/2000/svg" viewBox="43 -43 426 470">
      <g transform="scale(1 -1) translate(0 -384)">
        <path d="M341 256Q377 256 404 247Q426 240 442 226Q454 215 461 201Q466 190 468 180L469 171V128H341V171L340 181Q339 194 334 207Q328 225 317 239Q312 245 304 253Q323 256 341 256ZM43 171Q43 175 44 180Q46 190 51 201Q58 215 70 226Q86 240 108 247Q135 256 171.0 256.0Q207 256 233 247Q256 240 271 226Q283 215 290 201Q296 190 298 180L299 171V128H43ZM192 85V43H320V85L384 21L320 -43V0H192V-43L128 21ZM171 427Q144 427 125.5 408.0Q107 389 107.0 362.5Q107 336 125.5 317.5Q144 299 170.5 299.0Q197 299 216.0 317.5Q235 336 235.0 362.5Q235 389 216.0 408.0Q197 427 171 427ZM341 427Q315 427 296.0 408.0Q277 389 277.0 362.5Q277 336 296.0 317.5Q315 299 341.5 299.0Q368 299 386.5 317.5Q405 336 405.0 362.5Q405 389 386.5 408.0Q368 427 341 427Z" />
      </g>
    </svg>