<svg xmlns="http://www.w3.org/2000/svg" viewBox="0 43 512 298">
      <g transform="scale(1 -1) translate(0 -384)">
        <path d="M277 213Q304 213 322.5 232.0Q341 251 341.0 277.5Q341 304 322.5 322.5Q304 341 277.5 341.0Q251 341 232.0 322.5Q213 304 213.0 277.5Q213 251 232.0 232.0Q251 213 277 213ZM277 299Q284 299 289.5 295.0Q295 291 297.5 285.5Q300 280 298.5 273.5Q297 267 292.5 262.5Q288 258 281.5 256.5Q275 255 269.0 257.5Q263 260 259.5 265.5Q256 271 256 277Q256 286 262.0 292.5Q268 299 277 299ZM365 216Q384 244 384.0 277.5Q384 311 365 338Q374 341 384 341Q411 341 429.5 322.5Q448 304 448.0 277.5Q448 251 429.5 232.0Q411 213 384 213Q374 213 365 216ZM277 171Q241 171 215 162Q192 154 177 141Q165 130 158 115Q152 105 150 94L149 85V43H405V85L404 94Q402 105 397 115Q390 130 378 141Q362 154 340 162Q313 171 277 171ZM192 85Q192 92 197 99Q204 111 220 118Q242 128 277 128Q325 128 348 110Q361 100 363 85ZM512 85V43H448V85Q447 109 437.0 131.0Q427 153 410 169Q445 166 469 152Q488 141 499 123Q507 111 510 97ZM171 192H0V235H171Z" />
      </g>
    </svg>