<svg xmlns="http://www.w3.org/2000/svg" viewBox="64 11 416 352">
      <g transform="scale(1 -1) translate(0 -374)">
        <path d="M450 181 480 151 341 11 267 85 297 115 341 71ZM235 363Q270 363 295.0 338.0Q320 313 320.0 277.5Q320 242 295.0 217.0Q270 192 234.5 192.0Q199 192 174.0 217.0Q149 242 149.0 277.5Q149 313 174.0 338.0Q199 363 235 363ZM235 320Q217 320 204.5 307.5Q192 295 192.0 277.5Q192 260 204.5 247.5Q217 235 234.5 235.0Q252 235 264.5 247.5Q277 260 277.0 277.5Q277 295 264.5 307.5Q252 320 235 320ZM235 171Q256 171 286 165L250 129L235 130Q205 130 173 122Q145 114 125.0 103.0Q105 92 105 85V62H237L277 21H64V85Q64 112 96 133Q122 150 165 161Q203 171 235 171Z" />
      </g>
    </svg>