<svg xmlns="http://www.w3.org/2000/svg" viewBox="43 -21 444 384">
      <g transform="scale(1 -1) translate(0 -342)">
        <path d="M213 363Q178 363 153.0 338.0Q128 313 128.0 277.5Q128 242 153.0 217.0Q178 192 213.5 192.0Q249 192 274.0 217.0Q299 242 299.0 277.5Q299 313 274.0 338.0Q249 363 213 363ZM363 192Q358 192 357 188L353 159Q343 155 335 149L308 160Q303 160 302 157L281 120Q278 116 282 113L304 96Q304 91 304.0 85.5Q304 80 304 75L282 57Q278 54 281 50L302 13Q303 11 308 11L335 21Q345 15 353 11L357 -17Q358 -21 363 -21H405Q410 -21 410 -17L415 11Q423 15 432 21L459 11Q464 11 466 13L487 50Q489 54 486 57L463 75L464 85Q464 91 463 96L486 113Q489 116 487 120L465 157Q464 160 459 160L432 149Q422 157 414 159L410 188Q410 192 405 192ZM213 149Q167 149 128.0 137.5Q89 126 66.0 106.5Q43 87 43 64V21H249Q235 52 235.0 85.0Q235 118 248 147Q231 149 213 149ZM384 117Q397 117 406.5 108.0Q416 99 416.0 85.5Q416 72 406.5 62.5Q397 53 384.0 53.0Q371 53 361.5 62.5Q352 72 352.0 85.5Q352 99 361.5 108.0Q371 117 384 117Z" />
      </g>
    </svg>