<svg xmlns="http://www.w3.org/2000/svg" viewBox="117 -21 278 426">
      <g transform="scale(1 -1) translate(0 -384)">
        <path d="M256 405Q283 405 301.5 386.5Q320 368 320.0 341.5Q320 315 301.5 296.0Q283 277 256.0 277.0Q229 277 210.5 296.0Q192 315 192.0 341.5Q192 368 210.5 386.5Q229 405 256 405ZM256 256Q308 256 351.5 233.5Q395 211 395 179V56Q395 20 339 -4V43Q339 73 284 86Q266 90 256 90Q228 90 203.5 79.0Q179 68 174 51Q217 34 256 34L277 36V-20L256 -21Q213 -21 173 -4Q117 20 117 56V179Q117 211 160.5 233.5Q204 256 256 256ZM256 213Q238 213 225.5 200.5Q213 188 213.0 170.5Q213 153 225.5 140.5Q238 128 256.0 128.0Q274 128 286.5 140.5Q299 153 299.0 170.5Q299 188 286.5 200.5Q274 213 256 213Z" />
      </g>
    </svg>