<svg xmlns="http://www.w3.org/2000/svg" viewBox="43 -21 426 426">
      <g transform="scale(1 -1) translate(0 -384)">
        <path d="M256 405Q214 405 174.5 389.0Q135 373 105.0 343.0Q75 313 59.0 273.5Q43 234 43.0 192.0Q43 150 59.0 110.5Q75 71 105.0 41.0Q135 11 174.5 -5.0Q214 -21 256.0 -21.0Q298 -21 337.5 -5.0Q377 11 407.0 41.0Q437 71 453.0 110.5Q469 150 469.0 192.0Q469 234 453.0 273.5Q437 313 407.0 343.0Q377 373 337.5 389.0Q298 405 256 405ZM151 58Q158 72 191.5 84.0Q225 96 256.0 96.0Q287 96 320.5 84.0Q354 72 361 58Q315 21 256.0 21.0Q197 21 151 58ZM392 89Q371 114 324 128Q287 139 256.0 139.0Q225 139 188 128Q141 114 120 89Q85 135 85 192Q85 238 108.0 277.5Q131 317 170.5 340.0Q210 363 256.0 363.0Q302 363 341.5 340.0Q381 317 404.0 277.5Q427 238 427 192Q427 135 392 89ZM256 320Q225 320 203.0 298.0Q181 276 181.0 245.0Q181 214 203.0 192.5Q225 171 256.0 171.0Q287 171 309.0 192.5Q331 214 331.0 245.0Q331 276 309.0 298.0Q287 320 256 320ZM256 213Q243 213 233.5 222.5Q224 232 224.0 245.5Q224 259 233.5 268.0Q243 277 256.0 277.0Q269 277 278.5 268.0Q288 259 288.0 245.5Q288 232 278.5 222.5Q269 213 256 213Z" />
      </g>
    </svg>