<svg xmlns="http://www.w3.org/2000/svg" viewBox="21 -64 491 427">
      <g transform="scale(1 -1) translate(0 -299)">
        <path d="M341 149H373V89L425 59L409 31L341 71ZM363 192Q334 192 309.5 177.5Q285 163 270.5 138.5Q256 114 256.0 85.0Q256 56 270.5 31.5Q285 7 309.5 -7.0Q334 -21 363.0 -21.0Q392 -21 416.5 -7.0Q441 7 455.0 31.5Q469 56 469.0 85.0Q469 114 455.0 138.5Q441 163 416.5 177.5Q392 192 363 192ZM363 235Q403 235 437.5 214.5Q472 194 492.0 160.0Q512 126 512.0 85.5Q512 45 492.0 10.5Q472 -24 437.5 -44.0Q403 -64 363 -64Q319 -64 282.5 -40.5Q246 -17 228 21H21V85Q21 112 53 133Q79 150 122 161Q160 171 192 171Q212 171 237 166Q257 198 290.5 216.5Q324 235 363 235ZM213 85Q213 108 220 128Q207 130 192 130Q162 130 130 122Q102 114 82.0 103.0Q62 92 62 85V62H215Q213 73 213 85ZM192 363Q227 363 252.0 338.0Q277 313 277.0 277.5Q277 242 252.0 217.0Q227 192 192.0 192.0Q157 192 132.0 217.0Q107 242 107.0 277.5Q107 313 132.0 338.0Q157 363 192 363ZM192 322Q173 322 160.0 309.0Q147 296 147.0 277.5Q147 259 160.0 246.0Q173 233 192.0 233.0Q211 233 224.0 246.0Q237 259 237.0 277.5Q237 296 224.0 309.0Q211 322 192 322Z" />
      </g>
    </svg>