<svg xmlns="http://www.w3.org/2000/svg" viewBox="0 21 512 342">
      <g transform="scale(1 -1) translate(0 -384)">
        <path d="M235 235V192H192V149H149V192H124Q117 173 101.0 161.0Q85 149 64 149Q37 149 18.5 167.5Q0 186 0.0 213.5Q0 241 18.5 259.0Q37 277 64 277Q85 277 101.0 265.5Q117 254 124 235ZM64 235Q54 235 48.5 229.0Q43 223 43.0 213.5Q43 204 48.5 198.0Q54 192 64.0 192.0Q74 192 79.5 198.0Q85 204 85.0 213.5Q85 223 79.5 229.0Q74 235 64 235ZM341 149Q373 149 411 140Q454 129 481 112Q512 91 512 64V21H171V64Q171 91 202 112Q229 129 271 140Q309 149 341 149ZM341 192Q306 192 281.0 217.0Q256 242 256.0 277.5Q256 313 281.0 338.0Q306 363 341.5 363.0Q377 363 402.0 338.0Q427 313 427.0 277.5Q427 242 402.0 217.0Q377 192 341 192Z" />
      </g>
    </svg>