<svg xmlns="http://www.w3.org/2000/svg" viewBox="0 21 512 310">
      <g transform="scale(1 -1) translate(0 -352)">
        <path d="M256 331Q287 331 309.0 309.0Q331 287 331.0 256.0Q331 225 309.0 203.0Q287 181 256.0 181.0Q225 181 203.0 203.0Q181 225 181.0 256.0Q181 287 203.0 309.0Q225 331 256 331ZM107 277Q124 277 139 268Q137 246 143.5 224.0Q150 202 163 184Q155 168 140.0 158.5Q125 149 107 149Q80 149 61.5 168.0Q43 187 43.0 213.5Q43 240 61.5 258.5Q80 277 107 277ZM405 277Q432 277 450.5 258.5Q469 240 469.0 213.5Q469 187 450.5 168.0Q432 149 405 149Q387 149 372.0 158.5Q357 168 349 184Q362 202 368.5 224.0Q375 246 373 268Q388 277 405 277ZM117 59Q117 80 136.0 98.5Q155 117 186.5 128.0Q218 139 256.0 139.0Q294 139 325.5 128.0Q357 117 376.0 98.5Q395 80 395 59V21H117ZM0 21V53Q0 75 27.0 92.5Q54 110 95 115Q75 92 75 59V21ZM512 21H437V59Q437 92 417 115Q458 110 485.0 92.5Q512 75 512 53Z" />
      </g>
    </svg>