<svg xmlns="http://www.w3.org/2000/svg" viewBox="64 -43 405 406">
      <g transform="scale(1 -1) translate(0 -320)">
        <path d="M235 363Q199 363 174.0 338.0Q149 313 149.0 277.5Q149 242 174.0 217.0Q199 192 234.5 192.0Q270 192 295.0 217.0Q320 242 320.0 277.5Q320 313 295.0 338.0Q270 363 235 363ZM235 320Q252 320 264.5 307.5Q277 295 277.0 277.5Q277 260 264.5 247.5Q252 235 234.5 235.0Q217 235 204.5 247.5Q192 260 192.0 277.5Q192 295 204.5 307.5Q217 320 235 320ZM235 171Q203 171 165 161Q122 151 95 133Q64 112 64 85V21H267Q260 35 256 62H105V85Q105 92 125.0 103.0Q145 114 172 121Q205 130 235 130Q240 130 250.5 129.0Q261 128 267 128Q279 154 290 164Q258 171 235 171ZM384 21Q362 21 346.5 36.5Q331 52 331 75Q331 89 337 98L314 122Q299 99 299 75Q299 39 324.0 14.0Q349 -11 384 -11V-43L431 4L384 53ZM384 160V192L337 145L384 98V128Q406 128 421.5 112.5Q437 97 437 75Q437 61 431 51L454 28Q469 50 469 75Q469 110 444.0 135.0Q419 160 384 160Z" />
      </g>
    </svg>