<svg xmlns="http://www.w3.org/2000/svg" viewBox="43 -21 426 426">
      <g transform="scale(1 -1) translate(0 -384)">
        <path d="M256 192Q269 192 278.5 182.5Q288 173 288.0 160.0Q288 147 278.5 137.5Q269 128 256.0 128.0Q243 128 233.5 137.5Q224 147 224.0 160.0Q224 173 233.5 182.5Q243 192 256 192ZM256 405Q298 405 337.5 389.0Q377 373 407.0 343.0Q437 313 453.0 273.5Q469 234 469.0 192.0Q469 150 453.0 110.5Q437 71 407.0 41.0Q377 11 337.5 -5.0Q298 -21 256.0 -21.0Q214 -21 174.5 -5.0Q135 11 105.0 41.0Q75 71 59.0 110.5Q43 150 43.0 192.0Q43 234 59.0 273.5Q75 313 105.0 343.0Q135 373 174.5 389.0Q214 405 256 405ZM256 107Q280 107 300.0 96.5Q320 86 320 71V34Q363 53 363 81V175Q363 200 329.5 217.5Q296 235 256.0 235.0Q216 235 182.5 217.5Q149 200 149 175V81Q149 55 183.5 38.0Q218 21 256 21L277 23V66L256 64Q223 64 193 77Q197 89 216.0 98.0Q235 107 256 107ZM256 363Q234 363 218.5 347.0Q203 331 203.0 309.0Q203 287 218.5 271.5Q234 256 256.0 256.0Q278 256 293.5 271.5Q309 287 309.0 309.0Q309 331 293.5 347.0Q278 363 256 363Z" />
      </g>
    </svg>