<svg xmlns="http://www.w3.org/2000/svg" viewBox="85 -64 342 427">
      <g transform="scale(1 -1) translate(0 -299)">
        <path d="M256 363Q291 363 316.0 338.0Q341 313 341.0 277.5Q341 242 316.0 217.0Q291 192 256.0 192.0Q221 192 196.0 217.0Q171 242 171.0 277.5Q171 313 196.0 338.0Q221 363 256 363ZM256 320Q238 320 225.5 307.5Q213 295 213.0 277.5Q213 260 225.5 247.5Q238 235 256.0 235.0Q274 235 286.5 247.5Q299 260 299.0 277.5Q299 295 286.5 307.5Q274 320 256 320ZM256 171Q288 171 326 161Q369 150 395 133Q427 112 427 85V21H85V85Q85 112 117 133Q143 150 186 161Q224 171 256 171ZM256 130Q226 130 194 122Q166 114 146.0 103.0Q126 92 126 85V62H386V85Q386 92 366.0 103.0Q346 114 318 122Q286 130 256 130ZM277 -21H235V-64H277ZM363 -21H320V-64H363ZM192 -21H149V-64H192Z" />
      </g>
    </svg>