<svg xmlns="http://www.w3.org/2000/svg" viewBox="43 -43 426 406">
      <g transform="scale(1 -1) translate(0 -320)">
        <path d="M128 277Q128 313 153.0 338.0Q178 363 213.5 363.0Q249 363 274.0 338.0Q299 313 299.0 277.5Q299 242 274.0 217.0Q249 192 213.5 192.0Q178 192 153.0 217.0Q128 242 128 277ZM256 60Q256 75 263.0 88.5Q270 102 282 112V142Q249 149 213 149Q167 149 128.0 137.5Q89 126 66.0 106.5Q43 87 43 64V21H256ZM469 58V-17Q469 -27 461.0 -35.0Q453 -43 442 -43H324Q314 -43 306.5 -34.5Q299 -26 299 -15V60Q299 69 307.0 77.0Q315 85 324 85V139Q324 161 342.5 176.5Q361 192 384.0 192.0Q407 192 425.5 176.5Q444 161 444 139V128H416V139Q416 151 406.5 158.5Q397 166 384.0 166.0Q371 166 361.5 158.5Q352 151 352 139V85H444Q454 85 461.5 77.0Q469 69 469 58Z" />
      </g>
    </svg>