<svg xmlns="http://www.w3.org/2000/svg" viewBox="43 43 426 298">
      <g transform="scale(1 -1) translate(0 -384)">
        <path d="M352 192Q374 192 389.5 207.5Q405 223 405.0 245.0Q405 267 389.5 283.0Q374 299 352.0 299.0Q330 299 314.5 283.0Q299 267 299.0 245.0Q299 223 314.5 207.5Q330 192 352 192ZM192 213Q219 213 237.5 232.0Q256 251 256.0 277.5Q256 304 237.5 322.5Q219 341 192.0 341.0Q165 341 146.5 322.5Q128 304 128.0 277.5Q128 251 146.5 232.0Q165 213 192 213ZM352 149Q330 149 304 143Q275 135 256 123Q235 109 235 91V43H469V91Q469 109 448 123Q429 135 400 143Q374 149 352 149ZM192 171Q164 171 131 162Q94 153 70 137Q43 119 43 96V43H192V91Q192 109 201 125Q214 149 243 165Q214 171 192 171Z" />
      </g>
    </svg>