<svg xmlns="http://www.w3.org/2000/svg" viewBox="43 -21 426 384">
      <g transform="scale(1 -1) translate(0 -342)">
        <path d="M213 363Q178 363 153.0 338.0Q128 313 128.0 277.5Q128 242 153.0 217.0Q178 192 213.5 192.0Q249 192 274.0 217.0Q299 242 299.0 277.5Q299 313 274.0 338.0Q249 363 213 363ZM213 320Q231 320 243.5 307.5Q256 295 256.0 277.5Q256 260 243.5 247.5Q231 235 213.5 235.0Q196 235 183.5 247.5Q171 260 171.0 277.5Q171 295 183.5 307.5Q196 320 213 320ZM213 171Q182 171 144 161Q101 150 74 133Q43 112 43 85V21H245Q237 41 235 62H83V85Q83 92 103.0 103.0Q123 114 151 122Q184 130 213 130Q228 130 245 127Q254 148 268 164Q237 171 213 171ZM373 171Q333 171 305.0 143.0Q277 115 277.0 75.0Q277 35 305.0 7.0Q333 -21 373.0 -21.0Q413 -21 441.0 7.0Q469 35 469.0 75.0Q469 115 441.0 143.0Q413 171 373 171ZM373 139Q400 139 418.5 120.0Q437 101 437 75Q437 57 428 43L341 130Q355 139 373 139ZM318 107 405 20Q391 11 373 11Q347 11 328.0 29.5Q309 48 309 75Q309 93 318 107Z" />
      </g>
    </svg>