<svg xmlns="http://www.w3.org/2000/svg" viewBox="43 -43 426 427">
      <g transform="scale(1 -1) translate(0 -341)">
        <path d="M256 235Q287 235 309.0 256.5Q331 278 331.0 309.0Q331 340 309.0 362.0Q287 384 256.0 384.0Q225 384 203.0 362.0Q181 340 181.0 309.0Q181 278 203.0 256.5Q225 235 256 235ZM256 341Q269 341 278.5 332.0Q288 323 288.0 309.5Q288 296 278.5 286.5Q269 277 256.0 277.0Q243 277 233.5 286.5Q224 296 224.0 309.5Q224 323 233.5 332.0Q243 341 256 341ZM320 21Q320 30 314.0 36.5Q308 43 299 43H277V85H405V117Q405 138 385.0 155.0Q365 172 331.0 182.0Q297 192 256.0 192.0Q215 192 181.0 182.0Q147 172 127.0 155.0Q107 138 107 117V85H235V43H213Q204 43 198.0 36.5Q192 30 192 21H43V-21H192Q192 -30 198.0 -36.5Q204 -43 213 -43H299Q308 -43 314.0 -36.5Q320 -30 320 -21H469V21ZM162 128Q177 137 199 142Q225 149 256.0 149.0Q287 149 313 142Q335 137 350 128Z" />
      </g>
    </svg>