<svg xmlns="http://www.w3.org/2000/svg" viewBox="0 21 512 363">
      <g transform="scale(1 -1) translate(0 -405)">
        <path d="M341 203Q341 225 357.0 240.5Q373 256 395.0 256.0Q417 256 432.5 240.5Q448 225 448.0 203.0Q448 181 432.5 165.0Q417 149 395.0 149.0Q373 149 357.0 165.0Q341 181 341 203ZM277 384V21H512V384ZM469 107Q452 107 439.5 94.5Q427 82 427 64H363Q363 82 350.5 94.5Q338 107 320 107V299Q338 299 350.5 311.5Q363 324 363 341H427Q427 324 439.5 311.5Q452 299 469 299ZM149 320Q167 320 179.5 307.5Q192 295 192.0 277.5Q192 260 179.5 247.5Q167 235 149.5 235.0Q132 235 119.5 247.5Q107 260 107.0 277.5Q107 295 119.5 307.5Q132 320 149 320ZM149 363Q114 363 89.0 338.0Q64 313 64.0 277.5Q64 242 89.0 217.0Q114 192 149.5 192.0Q185 192 210.0 217.0Q235 242 235.0 277.5Q235 313 210.0 338.0Q185 363 149 363ZM149 149Q109 149 74.5 137.5Q40 126 20.0 106.5Q0 87 0 64V21H235V64H43Q43 71 55 81Q69 91 91 98Q117 107 149 107Q201 107 235 86V134Q196 149 149 149Z" />
      </g>
    </svg>