<svg xmlns="http://www.w3.org/2000/svg" viewBox="64 0 384 384">
      <g transform="scale(1 -1) translate(0 -384)">
        <path d="M405 43H107V341H405ZM405 384H107Q89 384 76.5 371.5Q64 359 64 341V43Q64 25 76.5 12.5Q89 0 107 0H405Q423 0 435.5 12.5Q448 25 448 43V341Q448 359 435.5 371.5Q423 384 405 384ZM352 101Q352 116 334 128Q319 138 295 144Q274 149 256.0 149.0Q238 149 217 144Q193 138 178 128Q160 116 160 101V85H352ZM256 187Q276 187 290.0 201.0Q304 215 304.0 235.0Q304 255 290.0 269.0Q276 283 256.0 283.0Q236 283 222.0 269.0Q208 255 208.0 235.0Q208 215 222.0 201.0Q236 187 256 187Z" />
      </g>
    </svg>