<svg xmlns="http://www.w3.org/2000/svg" viewBox="21 21 470 342">
      <g transform="scale(1 -1) translate(0 -384)">
        <path d="M437 139V107H405V139ZM395 245H363V256Q363 283 381.5 301.5Q400 320 426.5 320.0Q453 320 472.0 301.5Q491 283 491 256Q491 241 483.5 227.0Q476 213 463 205L457 201Q437 187 437 164V160H405V164Q405 183 414.0 200.0Q423 217 439 227L445 231Q459 240 459 256Q459 269 449.5 278.5Q440 288 426.5 288.0Q413 288 404.0 278.5Q395 269 395 256ZM192 171Q224 171 262 161Q305 150 331 133Q363 112 363 85V21H21V85Q21 112 53 133Q79 150 122 161Q160 171 192 171ZM192 363Q227 363 252.0 338.0Q277 313 277.0 277.5Q277 242 252.0 217.0Q227 192 192.0 192.0Q157 192 132.0 217.0Q107 242 107.0 277.5Q107 313 132.0 338.0Q157 363 192 363ZM192 130Q162 130 130 122Q102 114 82.0 103.0Q62 92 62 85V62H322V85Q322 92 302.0 103.0Q282 114 254 122Q222 130 192 130ZM192 322Q173 322 160.0 309.0Q147 296 147.0 277.5Q147 259 160.0 246.0Q173 233 192.0 233.0Q211 233 224.0 246.0Q237 259 237.0 277.5Q237 296 224.0 309.0Q211 322 192 322Z" />
      </g>
    </svg>