<svg xmlns="http://www.w3.org/2000/svg" viewBox="24 -43 448 454">
      <g transform="scale(1 -1) translate(0 -368)">
        <path d="M278 238 185 331Q192 354 211.5 369.0Q231 384 256 384Q287 384 309.0 362.0Q331 340 331 309Q331 285 316.0 265.0Q301 245 278 238ZM405 117Q405 137 386.5 153.5Q368 170 336 180L405 111ZM469 -21H460L445 -37L429 -21H320Q320 -30 313.5 -36.5Q307 -43 299 -43H213Q205 -43 198.5 -36.5Q192 -30 192 -21H43V21H192Q192 30 198.5 36.5Q205 43 213 43H235V85H107V117Q107 143 138.5 163.0Q170 183 218 189L24 384L51 411L472 -10L469 -12ZM386 21 322 85H277V43H299Q307 43 313.5 36.5Q320 30 320 21Z" />
      </g>
    </svg>