<svg xmlns="http://www.w3.org/2000/svg" viewBox="21 -21 469 448">
      <g transform="scale(1 -1) translate(0 -406)">
        <path d="M357 355Q390 320 390.0 276.0Q390 232 357 200L321 236Q335 255 335.0 277.5Q335 300 321 319ZM428 427Q469 384 483.5 330.0Q498 276 483.5 222.5Q469 169 428 128L393 163Q422 196 432.5 237.5Q443 279 432.5 319.5Q422 360 393 392ZM192 363Q227 363 252.0 338.0Q277 313 277.0 277.5Q277 242 252.0 217.0Q227 192 192.0 192.0Q157 192 132.0 217.0Q107 242 107.0 277.5Q107 313 132.0 338.0Q157 363 192 363ZM277 138Q277 113 269 84Q257 42 230 4L213 107L233 147Q210 149 191.5 149.0Q173 149 150 147L171 107L153 4Q126 42 115 84Q107 113 107 138Q67 126 44.0 107.0Q21 88 21 64V-21H363V64Q363 87 339.5 106.5Q316 126 277 138Z" />
      </g>
    </svg>