<svg xmlns="http://www.w3.org/2000/svg" viewBox="85 -21 342 426">
      <g transform="scale(1 -1) translate(0 -384)">
        <path d="M341 139Q341 114 333 85Q321 44 294 4L277 107L297 147Q290 147 277.0 148.0Q264 149 256.0 149.0Q248 149 235.0 148.0Q222 147 215 147L235 107L218 4Q191 42 179 84Q171 113 171 139Q132 127 108.5 107.5Q85 88 85 64V-21H427V64Q427 88 403.5 107.5Q380 127 341 139ZM128 352Q128 367 145.0 379.0Q162 391 191.5 398.0Q221 405 256.0 405.0Q291 405 320.5 398.0Q350 391 367.0 379.0Q384 367 384 352Q384 341 373 331Q359 345 327.5 354.0Q296 363 256.0 363.0Q216 363 184.5 354.0Q153 345 139 331Q128 341 128 352ZM339 290Q341 286 341 277Q341 242 316.0 217.0Q291 192 256.0 192.0Q221 192 196.0 217.0Q171 242 171 277Q171 286 173 290Q205 277 256.0 277.0Q307 277 339 290ZM354 318Q312 299 256.0 299.0Q200 299 158 318Q170 328 196.0 334.5Q222 341 256.0 341.0Q290 341 316.0 334.5Q342 328 354 318Z" />
      </g>
    </svg>