<svg xmlns="http://www.w3.org/2000/svg" viewBox="10 43 502 298">
      <g transform="scale(1 -1) translate(0 -384)">
        <path d="M512 85V43H448V85Q448 110 437.5 131.5Q427 153 409 169Q445 166 469 152Q488 141 499 123Q507 111 510 97ZM384 341Q411 341 429.5 322.5Q448 304 448.0 277.5Q448 251 429.5 232.0Q411 213 384 213Q374 213 365 216Q384 244 384.0 277.5Q384 311 365 338Q374 341 384 341ZM277 341Q304 341 322.5 322.5Q341 304 341.0 277.5Q341 251 322.5 232.0Q304 213 277.5 213.0Q251 213 232.0 232.0Q213 251 213.0 277.5Q213 304 232.0 322.5Q251 341 277 341ZM405 85V43H149V85Q149 109 166.5 128.5Q184 148 213.5 159.5Q243 171 277.5 171.0Q312 171 341.5 159.5Q371 148 388.0 128.5Q405 109 405 85ZM277 299Q269 299 262.5 292.5Q256 286 256.0 277.5Q256 269 262.5 262.5Q269 256 277.5 256.0Q286 256 292.5 262.5Q299 269 299.0 277.5Q299 286 292.5 292.5Q286 299 277 299ZM277 128Q242 128 217.0 115.5Q192 103 192 85H363Q363 103 338.0 115.5Q313 128 277 128ZM10 168 55 213 10 259 40 289 85 243 131 289 161 259 115 213 161 168 131 138 85 183 40 138Z" />
      </g>
    </svg>