<svg xmlns="http://www.w3.org/2000/svg" viewBox="43 -21 426 426">
      <g transform="scale(1 -1) translate(0 -384)">
        <path d="M85 320H43V21Q43 4 55.5 -8.5Q68 -21 85 -21H384V21H85ZM427 405Q444 405 456.5 392.5Q469 380 469 363V107Q469 89 456.5 76.5Q444 64 427 64H171Q153 64 140.5 76.5Q128 89 128 107V363Q128 380 140.5 392.5Q153 405 171 405ZM363 299Q363 325 344.0 344.0Q325 363 298.5 363.0Q272 363 253.5 344.0Q235 325 235.0 298.5Q235 272 253.5 253.5Q272 235 298.5 235.0Q325 235 344.0 253.5Q363 272 363 299ZM171 128V107H427V128Q427 148 403 164Q383 178 351 186Q322 194 298.5 194.0Q275 194 247 186Q214 178 194 164Q171 148 171 128Z" />
      </g>
    </svg>