<svg xmlns="http://www.w3.org/2000/svg" viewBox="85 21 342 384">
      <g transform="scale(1 -1) translate(0 -426)">
        <path d="M384 224V320L339 297Q341 287 341 277Q341 242 316.0 217.0Q291 192 256.0 192.0Q221 192 196.0 217.0Q171 242 171 277Q171 287 173 297L107 331L256 405L405 331V224ZM256 256 213 277Q213 260 225.5 247.5Q238 235 256.0 235.0Q274 235 286.5 247.5Q299 260 299 277ZM315 332 259 361 202 331 257 303ZM256 171Q288 171 326 161Q369 150 395 133Q427 112 427 85V21H85V85Q85 112 117 133Q143 150 186 161Q224 171 256 171ZM256 130Q226 130 194 122Q166 114 146.0 103.0Q126 92 126 85V62H386V85Q386 92 366.0 103.0Q346 114 318 122Q286 130 256 130Z" />
      </g>
    </svg>