<svg xmlns="http://www.w3.org/2000/svg" viewBox="43 -43 448 406">
      <g transform="scale(1 -1) translate(0 -320)">
        <path d="M128 277Q128 313 153.0 338.0Q178 363 213.5 363.0Q249 363 274.0 338.0Q299 313 299.0 277.5Q299 242 274.0 217.0Q249 192 213.5 192.0Q178 192 153.0 217.0Q128 242 128 277ZM195 27 189 43 195 59Q217 113 269 145Q242 149 213 149Q167 149 128.0 137.5Q89 126 66.0 106.5Q43 87 43 64V21H198ZM363 64Q354 64 347.5 58.0Q341 52 341.0 43.0Q341 34 347.5 27.5Q354 21 363.0 21.0Q372 21 378.0 27.5Q384 34 384.0 43.0Q384 52 378.0 58.0Q372 64 363 64ZM491 43Q475 5 440.5 -19.0Q406 -43 363.0 -43.0Q320 -43 285.0 -19.0Q250 5 235 43Q250 81 285.0 104.5Q320 128 363.0 128.0Q406 128 440.5 104.5Q475 81 491 43ZM416 43Q416 65 400.5 80.5Q385 96 363.0 96.0Q341 96 325.0 80.5Q309 65 309.0 43.0Q309 21 325.0 5.0Q341 -11 363.0 -11.0Q385 -11 400.5 5.0Q416 21 416 43Z" />
      </g>
    </svg>