<svg xmlns="http://www.w3.org/2000/svg" viewBox="59 -43 368 406">
      <g transform="scale(1 -1) translate(0 -320)">
        <path d="M59 299 86 325 283 128 427 -15 400 -43 336 21H85V85Q85 113 120 135Q149 153 194 163ZM427 85V39L386 79V85Q386 90 378.5 95.5Q371 101 358 107L299 167Q349 158 384 139Q427 116 427 85ZM126 85V62H295L229 128Q203 125 178 117Q155 109 140.5 100.0Q126 91 126 85ZM256 363Q291 363 316.0 338.0Q341 313 341 277Q341 246 321.5 222.5Q302 199 272 193L172 293Q178 323 201.5 343.0Q225 363 256 363ZM256 320Q238 320 225.5 307.5Q213 295 213.0 277.5Q213 260 225.5 247.5Q238 235 256.0 235.0Q274 235 286.5 247.5Q299 260 299.0 277.5Q299 295 286.5 307.5Q274 320 256 320Z" />
      </g>
    </svg>