<svg xmlns="http://www.w3.org/2000/svg" viewBox="0 21 512 342">
      <g transform="scale(1 -1) translate(0 -384)">
        <path d="M149 363Q114 363 89.0 338.0Q64 313 64.0 277.5Q64 242 89.0 217.0Q114 192 149.5 192.0Q185 192 210.0 217.0Q235 242 235.0 277.5Q235 313 210.0 338.0Q185 363 149 363ZM149 235Q132 235 119.5 247.5Q107 260 107.0 277.5Q107 295 119.5 307.5Q132 320 149.5 320.0Q167 320 179.5 307.5Q192 295 192.0 277.5Q192 260 179.5 247.5Q167 235 149 235ZM149 149Q108 149 74.0 137.5Q40 126 20.0 106.5Q0 87 0 64V21H235V64H43Q43 71 56.0 81.5Q69 92 91 98Q118 107 149 107Q176 107 200 100Q220 94 235 85V132Q197 149 149 149ZM469 363H320Q302 363 289.5 350.5Q277 338 277 320V64Q277 46 289.5 33.5Q302 21 320 21H469Q487 21 499.5 33.5Q512 46 512 64V320Q512 338 499.5 350.5Q487 363 469 363ZM341 64H320V320H341ZM469 64H384V320H469Z" />
      </g>
    </svg>