<svg xmlns="http://www.w3.org/2000/svg" viewBox="21 -21 469 426">
      <g transform="scale(1 -1) translate(0 -384)">
        <path d="M43 378 70 405 469 6 442 -21 357 64Q363 53 363 43V0H21V43Q21 69 53 90Q79 108 122 118Q160 128 191.5 128.0Q223 128 261 119Q304 108 331 90L237 184Q217 171 192 171Q157 171 132.0 196.0Q107 221 107 256Q107 281 120 301ZM192 341Q227 341 252.0 316.0Q277 291 277 256V252L188 341ZM358 334Q390 298 390.0 254.5Q390 211 358 179L322 215Q335 233 335.0 256.0Q335 279 322 298ZM428 405Q469 363 483.5 309.0Q498 255 483.5 201.5Q469 148 428 107L393 141Q423 175 433.0 216.0Q443 257 433.0 298.0Q423 339 393 371Z" />
      </g>
    </svg>