<svg xmlns="http://www.w3.org/2000/svg" viewBox="43 -43 426 406">
      <g transform="scale(1 -1) translate(0 -320)">
        <path d="M128 277Q128 313 153.0 338.0Q178 363 213.5 363.0Q249 363 274.0 338.0Q299 313 299.0 277.5Q299 242 274.0 217.0Q249 192 213.5 192.0Q178 192 153.0 217.0Q128 242 128 277ZM256 60Q256 75 263.0 88.5Q270 102 282 112V117Q282 129 285 141Q251 149 213 149Q167 149 128.0 137.5Q89 126 66.0 106.5Q43 87 43 64V21H256ZM469 58V-17Q469 -27 461.0 -35.0Q453 -43 442 -43H324Q314 -43 306.5 -34.5Q299 -26 299 -15V60Q299 69 307.0 77.0Q315 85 324 85V117Q324 139 342.5 155.0Q361 171 384.0 171.0Q407 171 425.5 155.0Q444 139 444 117V85Q454 85 461.5 77.0Q469 69 469 58ZM416 117Q416 130 406.5 137.5Q397 145 384.0 145.0Q371 145 361.5 137.5Q352 130 352 117V85H416Z" />
      </g>
    </svg>