<svg xmlns="http://www.w3.org/2000/svg" viewBox="85 -21 342 427">
      <g transform="scale(1 -1) translate(0 -385)">
        <path d="M405 363Q396 363 390.0 357.0Q384 351 384 341V320H352L322 384Q318 393 314 395Q306 403 294.0 404.5Q282 406 271 401L256 397L241 403Q230 408 218.0 406.5Q206 405 198 397Q194 393 190 384L160 320H128V341Q128 351 122.0 357.0Q116 363 106.5 363.0Q97 363 91.0 357.0Q85 351 85 341V320Q85 302 97.5 289.5Q110 277 128 277H384Q402 277 414.5 289.5Q427 302 427 320V341Q427 350 421.0 356.5Q415 363 405 363ZM85 -21V43Q85 69 117 90Q143 108 186 119Q224 128 256.0 128.0Q288 128 326 119Q369 108 395 90Q427 69 427 43V-21ZM386 19V43Q386 50 366.0 60.5Q346 71 318 79Q286 87 256.0 87.0Q226 87 194 79Q166 71 146.0 60.5Q126 50 126 43V19ZM341 256V235Q341 199 316.0 174.0Q291 149 256.0 149.0Q221 149 196.0 174.0Q171 199 171 235V256H213V235Q213 217 225.5 204.5Q238 192 256.0 192.0Q274 192 286.5 204.5Q299 217 299 235V256Z" />
      </g>
    </svg>