<svg xmlns="http://www.w3.org/2000/svg" viewBox="31 21 460 342">
      <g transform="scale(1 -1) translate(0 -384)">
        <path d="M31 259 61 289 107 243 152 289 182 259 137 213 182 168 152 138 107 183 61 138 31 168 77 213ZM320 363Q355 363 380.0 338.0Q405 313 405.0 277.5Q405 242 380.0 217.0Q355 192 320.0 192.0Q285 192 260.0 217.0Q235 242 235.0 277.5Q235 313 260.0 338.0Q285 363 320 363ZM320 322Q301 322 288.0 309.0Q275 296 275.0 277.5Q275 259 288.0 246.0Q301 233 320.0 233.0Q339 233 352.0 246.0Q365 259 365.0 277.5Q365 296 352.0 309.0Q339 322 320 322ZM320 171Q352 171 390 161Q433 150 459 133Q491 112 491 85V21H149V85Q149 112 181 133Q207 150 250 161Q288 171 320 171ZM320 130Q290 130 258 122Q230 114 210.0 103.0Q190 92 190 85V62H450V85Q450 92 430.0 103.0Q410 114 382 122Q350 130 320 130Z" />
      </g>
    </svg>