<svg xmlns="http://www.w3.org/2000/svg" viewBox="85 -64 342 427">
      <g transform="scale(1 -1) translate(0 -299)">
        <path d="M256 363Q291 363 316.0 338.0Q341 313 341.0 277.5Q341 242 316.0 217.0Q291 192 256.0 192.0Q221 192 196.0 217.0Q171 242 171.0 277.5Q171 313 196.0 338.0Q221 363 256 363ZM256 149Q302 149 341.5 137.5Q381 126 404.0 106.5Q427 87 427 64V21H85V64Q85 87 108.0 106.5Q131 126 170.5 137.5Q210 149 256 149ZM149 -21H192V-64H149ZM235 -21H277V-64H235ZM320 -21H363V-64H320Z" />
      </g>
    </svg>