<svg xmlns="http://www.w3.org/2000/svg" viewBox="21 21 470 342">
      <g transform="scale(1 -1) translate(0 -384)">
        <path d="M277 277Q277 242 252.0 217.0Q227 192 192.0 192.0Q157 192 132.0 217.0Q107 242 107.0 277.5Q107 313 132.0 338.0Q157 363 192.0 363.0Q227 363 252.0 338.0Q277 313 277 277ZM363 64V21H21V64Q21 87 44.0 106.5Q67 126 106.5 137.5Q146 149 192.0 149.0Q238 149 277.5 137.5Q317 126 340.0 106.5Q363 87 363 64ZM437 139V107H405V139ZM395 245H363V256Q363 283 381.5 301.5Q400 320 426.5 320.0Q453 320 472.0 301.5Q491 283 491 256Q491 241 483.5 227.0Q476 213 463 205L457 201Q437 187 437 164V160H405V164Q405 183 414.0 200.0Q423 217 439 227L445 231Q459 240 459 256Q459 269 449.5 278.5Q440 288 426.5 288.0Q413 288 404.0 278.5Q395 269 395 256Z" />
      </g>
    </svg>