<svg xmlns="http://www.w3.org/2000/svg" viewBox="43 -21 426 384">
      <g transform="scale(1 -1) translate(0 -342)">
        <path d="M213 363Q178 363 153.0 338.0Q128 313 128.0 277.5Q128 242 153.0 217.0Q178 192 213.5 192.0Q249 192 274.0 217.0Q299 242 299.0 277.5Q299 313 274.0 338.0Q249 363 213 363ZM373 171Q333 171 305.0 143.0Q277 115 277.0 75.0Q277 35 305.0 7.0Q333 -21 373.0 -21.0Q413 -21 441.0 7.0Q469 35 469.0 75.0Q469 115 441.0 143.0Q413 171 373 171ZM213 149Q167 149 128.0 137.5Q89 126 66.0 106.5Q43 87 43 64V21H245Q235 47 235 75Q235 113 255 146Q231 149 213 149ZM373 139Q400 139 418.5 120.0Q437 101 437 75Q437 57 428 43L341 130Q355 139 373 139ZM318 107 405 20Q391 11 373 11Q347 11 328.0 29.5Q309 48 309 75Q309 93 318 107Z" />
      </g>
    </svg>