<svg xmlns="http://www.w3.org/2000/svg" viewBox="0 43 512 298">
      <g transform="scale(1 -1) translate(0 -384)">
        <path d="M256 341Q225 341 203.0 319.5Q181 298 181.0 267.0Q181 236 203.0 214.0Q225 192 256.0 192.0Q287 192 309.0 214.0Q331 236 331.0 267.0Q331 298 309.0 319.5Q287 341 256 341ZM256 299Q269 299 278.5 289.5Q288 280 288.0 266.5Q288 253 278.5 244.0Q269 235 256.0 235.0Q243 235 233.5 244.0Q224 253 224.0 266.5Q224 280 233.5 289.5Q243 299 256 299ZM117 277Q95 277 79.5 261.5Q64 246 64 224Q64 209 71.5 197.0Q79 185 91.5 178.0Q104 171 117.5 171.0Q131 171 143.0 177.5Q155 184 163 196Q139 227 139 267V273Q129 277 117 277ZM395 277Q383 277 373 273V267Q373 227 349 196Q353 191 358.5 185.5Q364 180 369 177Q381 171 394.5 171.0Q408 171 420.5 178.0Q433 185 440.5 197.0Q448 209 448 224Q448 246 432.5 261.5Q417 277 395 277ZM256 149Q228 149 195 141Q158 132 134 116Q107 98 107 75V43H405V75Q405 98 378 116Q354 132 317 141Q284 149 256 149ZM100 138Q63 133 35 118Q0 100 0 75V43H64V84Q64 114 100 138ZM412 138Q448 114 448 84V43H512V75Q512 100 477 118Q449 133 412 138ZM256 107Q279 107 305 100Q329 94 346 85H166Q183 94 207 100Q233 107 256 107Z" />
      </g>
    </svg>