<svg xmlns="http://www.w3.org/2000/svg" viewBox="43 21 426 342">
      <g transform="scale(1 -1) translate(0 -384)">
        <path d="M427 192V299H469V171H427ZM427 85H469V128H427ZM213 171Q245 171 283 161Q326 150 352 133Q384 112 384 85V21H43V85Q43 112 74 133Q101 150 144 161Q182 171 213 171ZM213 363Q249 363 274.0 338.0Q299 313 299.0 277.5Q299 242 274.0 217.0Q249 192 213.5 192.0Q178 192 153.0 217.0Q128 242 128.0 277.5Q128 313 153.0 338.0Q178 363 213 363ZM213 130Q184 130 151 122Q123 114 103.0 103.0Q83 92 83 85V62H343V85Q343 92 323.0 103.0Q303 114 275 122Q243 130 213 130ZM213 322Q195 322 182.0 309.0Q169 296 169.0 277.5Q169 259 182.0 246.0Q195 233 213.5 233.0Q232 233 245.0 246.0Q258 259 258.0 277.5Q258 296 245.0 309.0Q232 322 213 322Z" />
      </g>
    </svg>