<svg xmlns="http://www.w3.org/2000/svg" viewBox="85 0 342 384">
      <g transform="scale(1 -1) translate(0 -384)">
        <path d="M255 384Q220 384 195.5 359.0Q171 334 170.0 299.5Q169 265 166 246Q161 217 150 201Q186 179 224 173Q244 169 256 171H271Q289 172 309 177Q337 185 362 201Q339 238 341 299Q341 334 316.0 359.0Q291 384 256 384ZM189 164Q143 154 114.0 132.5Q85 111 85 85V0H256L192 85H139ZM256 0 294 153 283 151Q269 149 256.0 149.0Q243 149 229 151L218 153ZM256 0H427V85Q427 111 398.0 132.5Q369 154 323 164L373 85H320Z" />
      </g>
    </svg>