<svg xmlns="http://www.w3.org/2000/svg" viewBox="85 -21 342 426">
      <g transform="scale(1 -1) translate(0 -384)">
        <path d="M128 352Q128 367 145.0 379.0Q162 391 191.5 398.0Q221 405 256.0 405.0Q291 405 320.5 398.0Q350 391 367.0 379.0Q384 367 384 352Q384 341 373 331Q359 345 327.5 354.0Q296 363 256.0 363.0Q216 363 184.5 354.0Q153 345 139 331Q128 341 128 352ZM256 341Q222 341 196.0 334.5Q170 328 158 318Q200 299 256.0 299.0Q312 299 354 318Q342 328 316.0 334.5Q290 341 256 341ZM299 277Q299 260 286.5 247.5Q274 235 256.0 235.0Q238 235 225.5 247.5Q213 260 213 277V279Q183 284 171 288V277Q171 242 196.0 217.0Q221 192 256.0 192.0Q291 192 316.0 217.0Q341 242 341 277Q341 286 339 290Q326 286 297 282Q299 279 299 277ZM350 154 335 128 331 117Q355 109 370.5 100.5Q386 92 386 85V19H297L277 128L297 169Q290 169 277.0 170.0Q264 171 256 171Q228 171 215 169L235 128L215 19H126V85Q126 92 141.5 100.5Q157 109 181 117L177 128L164 154Q130 143 109 127Q85 108 85 85V-21H427V85Q427 108 403 127Q383 143 350 154Z" />
      </g>
    </svg>