<svg xmlns="http://www.w3.org/2000/svg" viewBox="21 -64 490 427">
      <g transform="scale(1 -1) translate(0 -299)">
        <path d="M227 147Q244 184 276.5 207.0Q309 230 348.5 234.0Q388 238 424.5 221.0Q461 204 484.0 171.5Q507 139 511.0 99.5Q515 60 499 23Q480 -17 443.5 -40.5Q407 -64 363.0 -64.0Q319 -64 282.5 -41.0Q246 -18 228 21H21V64Q23 100 71.0 124.0Q119 148 192 149Q205 149 227 147ZM192 363Q228 362 252.0 338.0Q276 314 276.0 277.5Q276 241 252.0 217.0Q228 193 192.0 193.0Q156 193 132.0 217.0Q108 241 108.0 277.5Q108 314 132.0 338.0Q156 362 192 363ZM363 -21Q392 -21 416.5 -7.0Q441 7 455.0 31.5Q469 56 469.0 85.0Q469 114 455.0 138.5Q441 163 416.5 177.5Q392 192 363.0 192.0Q334 192 309.5 177.5Q285 163 270.5 138.5Q256 114 256.0 85.0Q256 56 270.5 31.5Q285 7 309.5 -7.0Q334 -21 363 -21ZM341 149H373V89L425 59L409 31L341 71Z" />
      </g>
    </svg>