<svg xmlns="http://www.w3.org/2000/svg" viewBox="21 0 469 405">
      <g transform="scale(1 -1) translate(0 -405)">
        <path d="M192 341Q227 341 252.0 316.0Q277 291 277.0 256.0Q277 221 252.0 196.0Q227 171 192.0 171.0Q157 171 132.0 196.0Q107 221 107.0 256.0Q107 291 132.0 316.0Q157 341 192 341ZM192 128Q224 128 262 118Q305 108 331 90Q363 69 363 43V0H21V43Q21 69 53 90Q79 108 122 118Q160 128 192 128ZM358 334Q390 298 390.0 254.5Q390 211 358 179L322 215Q335 233 335.0 256.0Q335 279 322 298ZM428 405Q469 363 483.5 309.0Q498 255 483.5 201.5Q469 148 428 107L393 141Q423 175 433.0 216.0Q443 257 433.0 298.0Q423 339 393 371Z" />
      </g>
    </svg>