<svg xmlns="http://www.w3.org/2000/svg" viewBox="85 0 342 384">
      <g transform="scale(1 -1) translate(0 -384)">
        <path d="M256 384Q291 384 316.0 359.0Q341 334 341.0 298.5Q341 263 316.0 238.0Q291 213 256.0 213.0Q221 213 196.0 238.0Q171 263 171.0 298.5Q171 334 196.0 359.0Q221 384 256 384ZM341 159Q341 134 333 106Q321 64 295 25L277 128L297 168Q275 171 256.0 171.0Q237 171 215 168L235 128L217 25Q191 64 179 106Q171 134 171 159Q132 148 108.5 128.5Q85 109 85 85V0H427V85Q427 109 404.0 128.5Q381 148 341 159Z" />
      </g>
    </svg>