<svg xmlns="http://www.w3.org/2000/svg" viewBox="43 -44 446 407">
      <g transform="scale(1 -1) translate(0 -319)">
        <path d="M489 -4 401 83Q408 100 404.0 118.5Q400 137 386.0 150.5Q372 164 353.0 167.0Q334 170 316 162L356 122L326 92L284 134Q276 117 279.0 97.5Q282 78 296.5 63.0Q311 48 328.5 44.0Q346 40 363 47L450 -41Q453 -44 457.0 -44.0Q461 -44 463 -41L484 -19Q489 -15 489.5 -10.5Q490 -6 489 -4ZM277 21H43V64Q43 87 66.0 106.5Q89 126 128.0 137.5Q167 149 213 149Q235 149 243 147Q235 130 235.0 105.5Q235 81 246.5 58.5Q258 36 277 21ZM213 363Q178 363 153.0 338.0Q128 313 128.0 277.5Q128 242 153.0 217.0Q178 192 213.5 192.0Q249 192 274.0 217.0Q299 242 299.0 277.5Q299 313 274.0 338.0Q249 363 213 363Z" />
      </g>
    </svg>