<svg xmlns="http://www.w3.org/2000/svg" viewBox="24 -43 448 454">
      <g transform="scale(1 -1) translate(0 -368)">
        <path d="M405 111 336 180Q368 170 386.5 153.5Q405 137 405 117ZM278 238 185 331Q192 354 211.5 369.0Q231 384 256 384Q287 384 309.0 362.0Q331 340 331 309Q331 285 316.0 265.0Q301 245 278 238ZM256 277Q269 277 278.5 286.5Q288 296 288.0 309.5Q288 323 278.5 332.0Q269 341 256.0 341.0Q243 341 233.5 332.0Q224 323 224.0 309.5Q224 296 233.5 286.5Q243 277 256 277ZM469 -21H460L445 -37L429 -21H320Q320 -30 313.5 -36.5Q307 -43 299 -43H213Q205 -43 198.5 -36.5Q192 -30 192 -21H43V21H192Q192 30 198.5 36.5Q205 43 213 43H235V85H107V117Q107 143 138.5 163.0Q170 183 218 189L24 384L51 411L472 -10L469 -12ZM280 128 258 149H256Q225 149 199 142Q177 137 162 128ZM386 21 322 85H277V43H299Q307 43 313.5 36.5Q320 30 320 21Z" />
      </g>
    </svg>