<svg xmlns="http://www.w3.org/2000/svg" viewBox="43 -44 446 407">
      <g transform="scale(1 -1) translate(0 -319)">
        <path d="M489 -4 401 83Q408 100 404.0 118.5Q400 137 386.0 150.5Q372 164 353.0 167.0Q334 170 316 162L356 122L326 92L284 134Q276 117 279.0 97.5Q282 78 296.5 63.0Q311 48 328.5 44.0Q346 40 363 47L450 -41Q453 -44 457.0 -44.0Q461 -44 463 -41L484 -19Q489 -15 489.5 -10.5Q490 -6 489 -4ZM213 192Q249 192 274.0 217.0Q299 242 299.0 277.5Q299 313 274.0 338.0Q249 363 213.5 363.0Q178 363 153.0 338.0Q128 313 128.0 277.5Q128 242 153.0 217.0Q178 192 213 192ZM213 320Q231 320 243.5 307.5Q256 295 256.0 277.5Q256 260 243.5 247.5Q231 235 213.5 235.0Q196 235 183.5 247.5Q171 260 171.0 277.5Q171 295 183.5 307.5Q196 320 213 320ZM277 21H43V85Q43 112 74 133Q101 151 143 161Q181 171 213 171Q224 171 254 166Q244 155 237 128Q233 128 225.5 129.0Q218 130 213 130Q184 130 151 121Q123 114 103.0 103.0Q83 92 83 85V62H245Q253 42 277 21Z" />
      </g>
    </svg>