<svg xmlns="http://www.w3.org/2000/svg" viewBox="43 -21 426 426">
      <g transform="scale(1 -1) translate(0 -384)">
        <path d="M256 405Q198 405 149.0 376.5Q100 348 71.5 299.0Q43 250 43 192Q43 150 59.0 110.5Q75 71 105.0 41.0Q135 11 174.5 -5.0Q214 -21 256.0 -21.0Q298 -21 337.5 -5.0Q377 11 407.0 41.0Q437 71 453.0 110.5Q469 150 469.0 192.0Q469 234 453.0 273.5Q437 313 407.0 343.0Q377 373 337.5 389.0Q298 405 256 405ZM333 270Q350 270 362.0 258.0Q374 246 374.0 229.0Q374 212 362.0 200.0Q350 188 333.0 188.0Q316 188 304.0 200.0Q292 212 291.5 229.0Q291 246 303.5 258.0Q316 270 333 270ZM205 304Q226 304 240.5 289.0Q255 274 255.0 253.5Q255 233 240.5 218.0Q226 203 205.0 203.0Q184 203 169.0 218.0Q154 233 154.0 253.5Q154 274 169.0 289.0Q184 304 205 304ZM205 109V29Q166 41 137.5 69.0Q109 97 95 135Q110 151 147 162Q178 171 205 171Q223 171 245 166Q222 154 212 136Q205 123 205 109ZM256 21Q244 21 239 22V109Q239 129 274 143Q304 154 333 154Q352 154 375 148Q401 141 415 130Q396 82 352.5 51.5Q309 21 256 21Z" />
      </g>
    </svg>