<svg xmlns="http://www.w3.org/2000/svg" viewBox="43 -42 447 405">
      <g transform="scale(1 -1) translate(0 -321)">
        <path d="M363 0 401 -38Q409 -45 418.0 -41.0Q427 -37 427 -27V64L486 137Q494 148 488.0 159.5Q482 171 469 171H320Q307 171 301.0 158.5Q295 146 303 137L363 64ZM320 21H43V85Q43 112 74 133Q101 151 143 161Q181 171 213 171Q225 171 252 167L258 166Q252 149 260 126Q230 130 213 130Q184 130 151 121Q123 114 103.0 103.0Q83 92 83 85V62H309L320 49ZM213 363Q178 363 153.0 338.0Q128 313 128.0 277.5Q128 242 153.0 217.0Q178 192 213.5 192.0Q249 192 274.0 217.0Q299 242 299.0 277.5Q299 313 274.0 338.0Q249 363 213 363ZM213 235Q196 235 183.5 247.5Q171 260 171.0 277.5Q171 295 183.5 307.5Q196 320 213.5 320.0Q231 320 243.5 307.5Q256 295 256.0 277.5Q256 260 243.5 247.5Q231 235 213 235Z" />
      </g>
    </svg>