<svg xmlns="http://www.w3.org/2000/svg" viewBox="64 21 405 342">
      <g transform="scale(1 -1) translate(0 -384)">
        <path d="M235 149Q264 149 303 140Q277 112 277 75Q277 46 294 21H64V64Q64 102 123.0 125.5Q182 149 235 149ZM235 192Q201 192 175.0 217.0Q149 242 149.0 277.0Q149 312 174.5 337.5Q200 363 235.0 363.0Q270 363 295.0 337.0Q320 311 320.0 276.5Q320 242 295.0 217.0Q270 192 235 192ZM395 235H427H469V192H427V75Q427 53 411.0 37.0Q395 21 373.0 21.0Q351 21 335.5 37.0Q320 53 320.0 75.0Q320 97 335.5 112.5Q351 128 373 128Q385 128 395 124Z" />
      </g>
    </svg>