<svg xmlns="http://www.w3.org/2000/svg" viewBox="21 -21 469 448">
      <g transform="scale(1 -1) translate(0 -406)">
        <path d="M357 355Q390 320 390.0 276.0Q390 232 357 200L321 236Q335 255 335.0 277.5Q335 300 321 319ZM428 427Q469 384 483.5 330.0Q498 276 483.5 222.5Q469 169 428 128L393 163Q422 196 432.5 237.5Q443 279 432.5 319.5Q422 360 393 392ZM285 154Q319 143 339 127Q363 108 363 85V-21H21V85Q21 108 45 127Q65 143 99 154L117 117Q94 110 78.0 101.0Q62 92 62 85V19H152L171 127L151 167Q173 170 192.0 170.0Q211 170 233 167L213 127L232 19H322V85Q322 92 306.0 101.0Q290 110 267 117L272 128ZM192 320Q174 320 161.5 307.5Q149 295 149.0 277.5Q149 260 161.5 247.5Q174 235 192.0 235.0Q210 235 222.5 247.5Q235 260 235.0 277.5Q235 295 222.5 307.5Q210 320 192 320ZM192 192Q157 192 132.0 217.0Q107 242 107.0 277.5Q107 313 132.0 338.0Q157 363 192.0 363.0Q227 363 252.0 338.0Q277 313 277.0 277.5Q277 242 252.0 217.0Q227 192 192 192Z" />
      </g>
    </svg>