<svg xmlns="http://www.w3.org/2000/svg" viewBox="85 -21 342 426">
      <g transform="scale(1 -1) translate(0 -384)">
        <path d="M256 235Q291 235 316.0 260.0Q341 285 341.0 320.0Q341 355 316.0 380.0Q291 405 256.0 405.0Q221 405 196.0 380.0Q171 355 171.0 320.0Q171 285 196.0 260.0Q221 235 256 235ZM256 363Q274 363 286.5 350.5Q299 338 299.0 320.0Q299 302 286.5 289.5Q274 277 256.0 277.0Q238 277 225.5 289.5Q213 302 213.0 320.0Q213 338 225.5 350.5Q238 363 256 363ZM392 180Q327 213 256.0 213.0Q185 213 120 180Q104 172 94.5 156.5Q85 141 85 123V-21H128V123Q128 136 139 142Q195 171 256 171Q280 171 301 166L268 96H208Q184 96 166.5 79.0Q149 62 149.0 37.5Q149 13 166.5 -4.0Q184 -21 208 -21H384Q402 -21 414.5 -8.5Q427 4 427 21V123Q427 141 417.5 156.5Q408 172 392 180ZM233 21H208Q201 21 196.5 26.0Q192 31 192.0 37.5Q192 44 196.5 48.5Q201 53 208 53H248ZM384 21H281L343 155Q359 149 373 142Q384 136 384 123Z" />
      </g>
    </svg>