<svg xmlns="http://www.w3.org/2000/svg" viewBox="21 -37 469 464">
      <g transform="scale(1 -1) translate(0 -390)">
        <path d="M197 320 160 356Q175 363 192 363Q227 363 252.0 338.0Q277 313 277 277Q277 261 271 245L235 282Q233 297 222.0 307.5Q211 318 197 320ZM428 128Q469 169 483.5 222.5Q498 276 483.5 330.0Q469 384 428 427L393 392Q422 360 432.5 319.5Q443 279 432.5 237.5Q422 196 393 163ZM357 200Q390 232 390.0 276.0Q390 320 357 355L321 319Q335 300 335.0 277.5Q335 255 321 236ZM51 411 24 384 110 298Q107 286 107 277Q107 242 132.0 217.0Q157 192 192 192Q201 192 213 195L274 133L267 117Q290 110 308 100L322 85V19H232L213 127L233 167Q211 170 192.0 170.0Q173 170 151 167L171 127L152 19H62V85Q62 92 78.0 101.0Q94 110 117 117L99 154Q65 143 45 127Q21 108 21 85V-21H363V45L445 -37L472 -10Z" />
      </g>
    </svg>