<svg xmlns="http://www.w3.org/2000/svg" viewBox="0 21 512 342">
      <g transform="scale(1 -1) translate(0 -384)">
        <path d="M149 192Q185 192 210.0 217.0Q235 242 235.0 277.5Q235 313 210.0 338.0Q185 363 149.5 363.0Q114 363 89.0 338.0Q64 313 64.0 277.5Q64 242 89.0 217.0Q114 192 149 192ZM235 21V134Q194 149 149 149Q108 149 74.0 137.5Q40 126 20.0 106.5Q0 87 0 64V21ZM469 363H320Q302 363 289.5 350.5Q277 338 277 320V64Q277 46 289.5 33.5Q302 21 320 21H469Q487 21 499.5 33.5Q512 46 512 64V320Q512 338 499.5 350.5Q487 363 469 363ZM384 64H341V320H384Z" />
      </g>
    </svg>