<svg xmlns="http://www.w3.org/2000/svg" viewBox="64 0 384 384">
      <g transform="scale(1 -1) translate(0 -384)">
        <path d="M128 85Q128 105 152 121Q172 135 204 144Q233 151 256.0 151.0Q279 151 308 144Q340 135 360 121Q384 105 384 85V64H128ZM320 256Q320 229 301.5 210.5Q283 192 256.0 192.0Q229 192 210.5 210.5Q192 229 192.0 256.0Q192 283 210.5 301.5Q229 320 256.0 320.0Q283 320 301.5 301.5Q320 283 320 256ZM64 341V43Q64 25 76.5 12.5Q89 0 107 0H405Q423 0 435.5 12.5Q448 25 448 43V341Q448 359 435.5 371.5Q423 384 405 384H107Q89 384 76.5 371.5Q64 359 64 341Z" />
      </g>
    </svg>