<svg xmlns="http://www.w3.org/2000/svg" viewBox="43 -21 426 426">
      <g transform="scale(1 -1) translate(0 -384)">
        <path d="M256 38Q217 38 183.0 56.5Q149 75 128 107Q128 126 152 143Q172 157 204 165Q233 173 256.0 173.0Q279 173 308 165Q340 157 360 143Q384 126 384 107Q363 75 329.0 56.5Q295 38 256 38ZM256 341Q283 341 301.5 322.5Q320 304 320.0 277.5Q320 251 301.5 232.0Q283 213 256.0 213.0Q229 213 210.5 232.0Q192 251 192.0 277.5Q192 304 210.5 322.5Q229 341 256 341ZM256 405Q214 405 174.5 389.0Q135 373 105.0 343.0Q75 313 59.0 273.5Q43 234 43.0 192.0Q43 150 59.0 110.5Q75 71 105.0 41.0Q135 11 174.5 -5.0Q214 -21 256.0 -21.0Q298 -21 337.5 -5.0Q377 11 407.0 41.0Q437 71 453.0 110.5Q469 150 469 192Q469 250 440.5 299.0Q412 348 363.0 376.5Q314 405 256 405Z" />
      </g>
    </svg>