<svg xmlns="http://www.w3.org/2000/svg" viewBox="21 21 470 342">
      <g transform="scale(1 -1) translate(0 -384)">
        <path d="M320 149Q288 149 250 140Q207 129 181 112Q149 91 149 64V21H491V64Q491 91 459 112Q433 129 390 140Q352 149 320 149ZM320 192Q355 192 380.0 217.0Q405 242 405.0 277.5Q405 313 380.0 338.0Q355 363 320.0 363.0Q285 363 260.0 338.0Q235 313 235.0 277.5Q235 242 260.0 217.0Q285 192 320 192ZM107 128 94 139 84 148Q50 180 39 194Q21 217 21.0 236.5Q21 256 35.0 270.0Q49 284 68 284Q80 284 90.0 279.5Q100 275 107 267Q113 275 123.5 279.5Q134 284 145 284Q165 284 178.5 270.5Q192 257 192.0 237.0Q192 217 175 194Q163 180 129 148L119 139Z" />
      </g>
    </svg>