<svg xmlns="http://www.w3.org/2000/svg" viewBox="85 0 381 363">
      <g transform="scale(1 -1) translate(0 -363)">
        <path d="M463 163 442 142 398 186 419 207Q423 210 427.5 210.0Q432 210 436 207L463 180Q466 176 466.0 171.5Q466 167 463 163ZM256 44 385 173 429 129 300 0H256ZM256 149Q210 149 170.5 137.5Q131 126 108.0 106.5Q85 87 85 64V21H213V62L299 147Q279 149 256 149ZM256 363Q221 363 196.0 338.0Q171 313 171.0 277.5Q171 242 196.0 217.0Q221 192 256.0 192.0Q291 192 316.0 217.0Q341 242 341.0 277.5Q341 313 316.0 338.0Q291 363 256 363Z" />
      </g>
    </svg>