<svg xmlns="http://www.w3.org/2000/svg" viewBox="85 -21 342 426">
      <g transform="scale(1 -1) translate(0 -384)">
        <path d="M171 320Q171 355 196.0 380.0Q221 405 256.0 405.0Q291 405 316.0 380.0Q341 355 341.0 320.0Q341 285 316.0 260.0Q291 235 256.0 235.0Q221 235 196.0 260.0Q171 285 171 320ZM363 -21H384Q402 -21 414.5 -8.5Q427 4 427 21V123Q427 141 417.5 156.5Q408 172 392.5 180.0Q377 188 363 193ZM263 85 320 206Q289 213 256 213Q185 213 120 180Q104 172 94.5 156.5Q85 141 85 123V-21H135Q128 -6 128 11Q128 42 150.0 63.5Q172 85 203 85ZM213 -21 243 43H203Q189 43 180.0 33.5Q171 24 171.0 10.5Q171 -3 180.0 -12.0Q189 -21 203 -21Z" />
      </g>
    </svg>