<svg xmlns="http://www.w3.org/2000/svg" viewBox="0 21 512 342">
      <g transform="scale(1 -1) translate(0 -384)">
        <path d="M124 235Q117 254 101.0 265.5Q85 277 64 277Q37 277 18.5 259.0Q0 241 0.0 213.5Q0 186 18.5 167.5Q37 149 64 149Q85 149 101.0 161.0Q117 173 124 192H149V149H192V192H235V235ZM64 192Q54 192 48.5 198.0Q43 204 43.0 213.5Q43 223 48.5 229.0Q54 235 64.0 235.0Q74 235 79.5 229.0Q85 223 85.0 213.5Q85 204 79.5 198.0Q74 192 64 192ZM341 363Q306 363 281.0 338.0Q256 313 256.0 277.5Q256 242 281.0 217.0Q306 192 341.5 192.0Q377 192 402.0 217.0Q427 242 427.0 277.5Q427 313 402.0 338.0Q377 363 341 363ZM341 233Q322 233 309.5 245.5Q297 258 297.0 277.5Q297 297 309.5 309.5Q322 322 341.5 322.0Q361 322 373.5 309.5Q386 297 386.0 277.5Q386 258 373.5 245.5Q361 233 341 233ZM341 171Q309 171 271 161Q229 151 202 133Q171 112 171 85V21H512V85Q512 112 481 133Q454 151 411 161Q373 171 341 171ZM471 62H211V85Q211 92 231.0 103.0Q251 114 279 121Q312 130 341.5 130.0Q371 130 404 121Q431 114 451.0 103.0Q471 92 471 85Z" />
      </g>
    </svg>