<svg xmlns="http://www.w3.org/2000/svg" viewBox="31 21 460 342">
      <g transform="scale(1 -1) translate(0 -384)">
        <path d="M320 149Q352 149 390 140Q433 129 459 111Q491 90 491 64V21H149V64Q149 90 181 111Q207 129 250 140Q288 149 320 149ZM320 192Q285 192 260.0 217.0Q235 242 235.0 277.5Q235 313 260.0 338.0Q285 363 320.0 363.0Q355 363 380.0 338.0Q405 313 405.0 277.5Q405 242 380.0 217.0Q355 192 320 192ZM107 243 152 289 182 259 137 213 182 168 152 138 107 183 61 138 31 168 77 213 31 259 61 289Z" />
      </g>
    </svg>