<svg xmlns="http://www.w3.org/2000/svg" viewBox="43 -21 426 426">
      <g transform="scale(1 -1) translate(0 -384)">
        <path d="M459 256H352L392 296Q368 327 332.5 345.0Q297 363 256 363Q210 363 170.5 340.0Q131 317 108.0 277.5Q85 238 85 192Q85 134 120 89Q140 112 175.5 125.5Q211 139 256.0 139.0Q301 139 336.5 125.5Q372 112 392 89Q427 134 427 192H469Q469 134 440.5 85.0Q412 36 363.0 7.5Q314 -21 256.0 -21.0Q198 -21 149.0 7.5Q100 36 71.5 85.0Q43 134 43.0 192.0Q43 250 71.5 299.0Q100 348 149.0 376.5Q198 405 256 405Q305 405 348.5 384.0Q392 363 422 326L459 363ZM256 299Q283 299 301.5 280.0Q320 261 320.0 234.5Q320 208 301.5 189.5Q283 171 256.0 171.0Q229 171 210.5 189.5Q192 208 192.0 234.5Q192 261 210.5 280.0Q229 299 256 299Z" />
      </g>
    </svg>