<svg xmlns="http://www.w3.org/2000/svg" viewBox="43 -51 435 414">
      <g transform="scale(1 -1) translate(0 -312)">
        <path d="M213 171Q201 150 196 129Q169 127 141 119Q117 111 100.0 101.5Q83 92 83 85V62H196Q201 41 213 21H43V85Q43 112 74 133Q101 150 144 161Q182 171 213 171ZM213 363Q249 363 274.0 338.0Q299 313 299 277Q299 249 281 225Q254 215 233 194L213 192Q178 192 153.0 217.0Q128 242 128.0 277.5Q128 313 153.0 338.0Q178 363 213 363ZM213 322Q195 322 182.0 309.0Q169 296 169.0 277.5Q169 259 182.0 246.0Q195 233 213.5 233.0Q232 233 245.0 246.0Q258 259 258.0 277.5Q258 296 245.0 309.0Q232 322 213 322ZM331 192Q371 192 399.0 164.0Q427 136 427 96Q427 68 412 45L478 -21L448 -51L381 15Q358 0 331 0Q291 0 263.0 28.0Q235 56 235.0 96.0Q235 136 263.0 164.0Q291 192 331 192ZM331 149Q309 149 293.0 133.5Q277 118 277.0 96.0Q277 74 293.0 58.5Q309 43 331.0 43.0Q353 43 368.5 58.5Q384 74 384.0 96.0Q384 118 368.5 133.5Q353 149 331 149Z" />
      </g>
    </svg>