<svg xmlns="http://www.w3.org/2000/svg" viewBox="43 43 426 320">
      <g transform="scale(1 -1) translate(0 -406)">
        <path d="M279 226Q299 254 299.0 288.0Q299 322 279 350Q297 363 320 363Q351 363 373.0 341.0Q395 319 395.0 288.0Q395 257 373.0 235.0Q351 213 320 213Q297 213 279 226ZM117 288Q117 311 130.0 329.5Q143 348 163.5 357.0Q184 366 206.5 361.5Q229 357 245.0 341.0Q261 325 265.5 302.5Q270 280 261.0 259.5Q252 239 233.5 226.0Q215 213 192 213Q161 213 139.0 235.0Q117 257 117 288ZM160 288Q160 275 169.5 265.5Q179 256 192.0 256.0Q205 256 214.5 265.5Q224 275 224.0 288.0Q224 301 214.5 310.5Q205 320 192.0 320.0Q179 320 169.5 310.5Q160 301 160 288ZM341 85V43H43V85L44 94Q46 105 52 115Q61 130 75 141Q93 154 119 162Q150 171 192 171Q258 171 297 149Q325 133 336 107Q341 95 341 85ZM299 85Q296 101 274 113Q245 128 192 128Q156 128 130 120Q108 114 96 103Q86 94 85 85ZM340 171Q360 155 371.5 132.5Q383 110 384 85V43H469V85L468 93Q466 103 461 113Q454 127 441 137Q426 151 403 159Q376 168 340 171Z" />
      </g>
    </svg>