<svg xmlns="http://www.w3.org/2000/svg" viewBox="43 -42 447 405">
      <g transform="scale(1 -1) translate(0 -321)">
        <path d="M213 363Q249 363 274.0 338.0Q299 313 299.0 277.5Q299 242 274.0 217.0Q249 192 213.5 192.0Q178 192 153.0 217.0Q128 242 128.0 277.5Q128 313 153.0 338.0Q178 363 213 363ZM363 0 401 -38Q409 -45 418.0 -41.0Q427 -37 427 -27V64L486 137Q494 148 488.0 159.5Q482 171 469 171H320Q307 171 301.0 158.5Q295 146 303 137L363 64ZM320 49 271 109Q258 125 258 145Q243 149 213 149Q167 149 128.0 137.5Q89 126 66.0 106.5Q43 87 43 64V21H320Z" />
      </g>
    </svg>