<svg xmlns="http://www.w3.org/2000/svg" viewBox="85 0 342 405">
      <g transform="scale(1 -1) translate(0 -405)">
        <path d="M341 256Q341 216 315 192Q291 171 256.0 171.0Q221 171 197 192Q171 216 171 256H213Q213 236 226.0 224.5Q239 213 256.0 213.0Q273 213 286.0 224.5Q299 236 299 256ZM427 64V0H85V64Q85 90 117 111Q143 129 186 140Q224 149 256.0 149.0Q288 149 326 140Q369 129 395 111Q427 90 427 64ZM386 64Q386 71 366.0 82.0Q346 93 318 100Q286 109 256.0 109.0Q226 109 194 100Q166 93 146.0 82.0Q126 71 126 64V41H386ZM267 405Q271 405 274.0 402.0Q277 399 277 395V331H299V384Q322 373 335.0 351.0Q348 329 347 304L351 302Q355 300 358 295Q362 288 363 277H149Q149 288 153 295Q156 300 161 302L165 304Q164 329 177.0 351.0Q190 373 213 384V331H235V395Q235 399 238.0 402.0Q241 405 245 405Z" />
      </g>
    </svg>