<svg xmlns="http://www.w3.org/2000/svg" viewBox="1 -64 510 512">
      <g transform="scale(1 -1) translate(0 -384)">
        <path d="M256 448 242 447 323 366 352 395Q405 369 439.0 321.0Q473 273 479 213H511Q506 278 470.5 332.0Q435 386 378.5 417.0Q322 448 256 448ZM256 363Q225 363 203.0 341.0Q181 319 181.0 288.0Q181 257 203.0 235.0Q225 213 256.0 213.0Q287 213 309.0 235.0Q331 257 331.0 288.0Q331 319 309.0 341.0Q287 363 256 363ZM256 320Q269 320 278.5 310.5Q288 301 288.0 288.0Q288 275 278.5 265.5Q269 256 256.0 256.0Q243 256 233.5 265.5Q224 275 224.0 288.0Q224 301 233.5 310.5Q243 320 256 320ZM1 171Q6 106 41.5 52.0Q77 -2 133.5 -33.0Q190 -64 256 -64L270 -63L189 18L160 -11Q107 15 73.0 63.0Q39 111 33 171ZM256 171Q215 171 181.0 161.0Q147 151 127.0 133.5Q107 116 107 96V64H405V96Q405 116 385.0 133.5Q365 151 331.0 161.0Q297 171 256 171ZM256 128Q287 128 313 121Q335 116 350 107H162Q177 116 199 121Q225 128 256 128Z" />
      </g>
    </svg>