<svg xmlns="http://www.w3.org/2000/svg" viewBox="43 -51 435 414">
      <g transform="scale(1 -1) translate(0 -312)">
        <path d="M331 192Q371 192 399.0 164.0Q427 136 427 96Q427 68 412 45L478 -21L448 -51L381 15Q358 0 331 0Q291 0 263.0 28.0Q235 56 235.0 96.0Q235 136 263.0 164.0Q291 192 331 192ZM331 149Q309 149 293.0 133.5Q277 118 277.0 96.0Q277 74 293.0 58.5Q309 43 331.0 43.0Q353 43 368.5 58.5Q384 74 384.0 96.0Q384 118 368.5 133.5Q353 149 331 149ZM213 363Q249 363 274.0 338.0Q299 313 299 277Q299 249 281 225Q254 215 233 194L213 192Q178 192 153.0 217.0Q128 242 128.0 277.5Q128 313 153.0 338.0Q178 363 213 363ZM43 21V64Q43 86 64.0 105.0Q85 124 122.0 136.0Q159 148 203 149Q192 123 192 96Q192 56 213 21Z" />
      </g>
    </svg>