<svg xmlns="http://www.w3.org/2000/svg" viewBox="43 -21 426 426">
      <g transform="scale(1 -1) translate(0 -384)">
        <path d="M267 235Q267 261 248.0 280.0Q229 299 202.5 299.0Q176 299 157.5 280.0Q139 261 139.0 234.5Q139 208 157.5 189.5Q176 171 202.5 171.0Q229 171 248.0 189.5Q267 208 267 235ZM203 213Q194 213 187.5 219.5Q181 226 181.0 235.0Q181 244 187.5 250.0Q194 256 203.0 256.0Q212 256 218.0 250.0Q224 244 224.0 235.0Q224 226 218.0 219.5Q212 213 203 213ZM341 171Q359 171 371.5 183.5Q384 196 384.0 213.5Q384 231 371.5 243.5Q359 256 341.5 256.0Q324 256 311.5 243.5Q299 231 299.0 213.5Q299 196 311.5 183.5Q324 171 341 171ZM256 405Q198 405 149.0 376.5Q100 348 71.5 299.0Q43 250 43.0 192.0Q43 134 71.5 85.0Q100 36 149.0 7.5Q198 -21 256.0 -21.0Q314 -21 363.0 7.5Q412 36 440.5 85.0Q469 134 469.0 192.0Q469 250 440.5 299.0Q412 348 363.0 376.5Q314 405 256 405ZM125 83Q136 92 159.0 99.5Q182 107 203 107H208Q217 130 236 146Q218 149 203 149Q179 149 153 142Q122 134 102 119Q85 154 85 192Q85 238 108.0 277.5Q131 317 170.5 340.0Q210 363 256.0 363.0Q302 363 341.5 340.0Q381 317 404.0 277.5Q427 238 427 192Q427 155 411 120Q396 129 375 134Q357 139 341 139Q323 139 302 133Q278 126 263 114Q245 100 245 81V22Q210 24 178.5 40.0Q147 56 125 83Z" />
      </g>
    </svg>