<svg xmlns="http://www.w3.org/2000/svg" viewBox="21 -37 469 464">
      <g transform="scale(1 -1) translate(0 -390)">
        <path d="M271 245 160 356Q175 363 192 363Q227 363 252.0 338.0Q277 313 277 277Q277 261 271 245ZM357 200Q390 232 390.0 276.0Q390 320 357 355L321 319Q335 300 335.0 277.5Q335 255 321 236ZM428 128Q469 169 483.5 222.5Q498 276 483.5 330.0Q469 384 428 427L393 392Q422 360 432.5 319.5Q443 279 432.5 237.5Q422 196 393 163ZM51 411 24 384 109 299Q107 287 107 277Q107 242 132.0 217.0Q157 192 192 192Q201 192 213 195L277 131Q276 105 267 78Q255 39 230 4L213 107L233 147Q210 149 191.5 149.0Q173 149 150 147L171 107L153 4Q126 42 115 84Q107 113 107 138Q67 126 44.0 107.0Q21 88 21 64V-21H363V45L445 -37L472 -10Z" />
      </g>
    </svg>