<svg xmlns="http://www.w3.org/2000/svg" viewBox="0 21 512 363">
      <g transform="scale(1 -1) translate(0 -405)">
        <path d="M235 277Q235 242 210.0 217.0Q185 192 149.5 192.0Q114 192 89.0 217.0Q64 242 64.0 277.5Q64 313 89.0 338.0Q114 363 149.5 363.0Q185 363 210.0 338.0Q235 313 235 277ZM235 134V21H0V64Q0 87 20.0 106.5Q40 126 74.5 137.5Q109 149 149 149Q196 149 235 134ZM512 21H277V384H512ZM341 203Q341 225 357.0 240.5Q373 256 395.0 256.0Q417 256 432.5 240.5Q448 225 448.0 203.0Q448 181 432.5 165.0Q417 149 395.0 149.0Q373 149 357.0 165.0Q341 181 341 203ZM469 299Q452 299 439.5 311.5Q427 324 427 341H363Q363 324 350.5 311.5Q338 299 320 299V107Q338 107 350.5 94.5Q363 82 363 64H427Q427 82 439.5 94.5Q452 107 469 107Z" />
      </g>
    </svg>