<svg xmlns="http://www.w3.org/2000/svg" viewBox="85 0 342 405">
      <g transform="scale(1 -1) translate(0 -405)">
        <path d="M256 128Q210 128 170.5 116.5Q131 105 108.0 85.5Q85 66 85 43V0H427V43Q427 66 404.0 85.5Q381 105 341.5 116.5Q302 128 256 128ZM171 256Q171 221 196.0 196.0Q221 171 256.0 171.0Q291 171 316.0 196.0Q341 221 341 256ZM245 405Q241 405 238.0 402.0Q235 399 235 395V331H213V384L206 380Q197 375 189 367Q179 356 173 343Q165 325 165 304L161 302Q156 300 153 295Q149 288 149 277H363Q362 292 354 300Q350 303 347 304Q347 343 323 367Q311 379 299 384V331H277V395Q277 399 274.5 402.0Q272 405 267 405Z" />
      </g>
    </svg>