<svg xmlns="http://www.w3.org/2000/svg" viewBox="43 43 426 298">
      <g transform="scale(1 -1) translate(0 -384)">
        <path d="M352 117Q378 117 405.5 107.5Q433 98 437 90V75H267V90Q271 98 298.5 107.5Q326 117 352 117ZM352 149Q330 149 304 143Q275 135 256 123Q235 109 235 91V43H469V91Q469 109 448 123Q429 135 400 143Q374 149 352 149ZM192 171Q164 171 131 162Q94 153 70 137Q43 119 43 96V43H192V75H75V96Q75 103 94.0 114.0Q113 125 141 132Q175 140 209 139Q223 155 243 165Q218 170 192 171ZM192 309Q205 309 214.5 300.0Q224 291 224.0 277.5Q224 264 214.5 254.5Q205 245 192.0 245.0Q179 245 169.5 254.5Q160 264 160.0 277.5Q160 291 169.5 300.0Q179 309 192 309ZM192 341Q165 341 146.5 322.5Q128 304 128.0 277.5Q128 251 146.5 232.0Q165 213 192.0 213.0Q219 213 237.5 232.0Q256 251 256.0 277.5Q256 304 237.5 322.5Q219 341 192 341ZM352 267Q361 267 367.0 260.5Q373 254 373.0 245.0Q373 236 367.0 230.0Q361 224 352.0 224.0Q343 224 337.0 230.0Q331 236 331.0 245.0Q331 254 337.0 260.5Q343 267 352 267ZM352 299Q330 299 314.5 283.0Q299 267 299.0 245.0Q299 223 314.5 207.5Q330 192 352.0 192.0Q374 192 389.5 207.5Q405 223 405.0 245.0Q405 267 389.5 283.0Q374 299 352 299Z" />
      </g>
    </svg>