<svg xmlns="http://www.w3.org/2000/svg" viewBox="21 -38 470 450">
      <g transform="scale(1 -1) translate(0 -374)">
        <path d="M260 256 218 299H277Q295 299 307.5 286.5Q320 274 320 256V196L277 239V256ZM491 256V299H405Q388 299 375.5 286.5Q363 274 363 256V213Q363 196 375.5 183.5Q388 171 405 171H448V128H388L431 85H448Q466 85 478.5 97.5Q491 110 491 128V171Q491 188 478.5 200.5Q466 213 448 213H405V256ZM471 -11 444 -38 307 98Q294 85 277 85H192V215L149 258V85H107V171H64V85H21V256Q21 274 33.5 286.5Q46 299 64 299H109L23 384L51 412ZM107 256H64V213H107ZM277 130 235 173V128H277Z" />
      </g>
    </svg>