<svg xmlns="http://www.w3.org/2000/svg" viewBox="21 85 470 214">
      <g transform="scale(1 -1) translate(0 -384)">
        <path d="M405 299Q388 299 375.5 286.5Q363 274 363 256V213Q363 196 375.5 183.5Q388 171 405 171H448V128H363V85H448Q466 85 478.5 97.5Q491 110 491 128V171Q491 188 478.5 200.5Q466 213 448 213H405V256H491V299ZM192 299V85H277Q295 85 307.5 97.5Q320 110 320 128V256Q320 274 307.5 286.5Q295 299 277 299ZM235 256H277V128H235ZM64 299Q46 299 33.5 286.5Q21 274 21 256V85H64V171H107V85H149V256Q149 274 136.5 286.5Q124 299 107 299ZM64 256H107V213H64Z" />
      </g>
    </svg>