<svg xmlns="http://www.w3.org/2000/svg" viewBox="64 -64 384 512">
      <g transform="scale(1 -1) translate(0 -384)">
        <path d="M141 434Q165 453 189.5 446.5Q214 440 232.5 414.5Q251 389 257 352Q271 352 283 345Q305 370 300.5 394.0Q296 418 309.5 434.5Q323 451 344 448Q369 444 391 414Q410 390 404.0 365.5Q398 341 372.0 322.5Q346 304 309 298Q309 284 302 272Q328 250 351.5 254.5Q375 259 391.5 245.5Q408 232 405 211Q401 186 371 163Q347 145 322.5 151.0Q298 157 279.5 183.0Q261 209 255 245Q242 245 229 253Q207 227 211.5 203.5Q216 180 202.5 163.5Q189 147 168 150Q143 153 121 183Q102 207 108.0 232.0Q114 257 140.0 275.0Q166 293 203 299Q203 313 210 326Q184 347 160.5 342.5Q137 338 120.5 351.5Q104 365 107 386Q111 411 141 434ZM107 107H149Q167 107 179.5 94.5Q192 82 192 64V-64H149V-21H107V-64H64V64Q64 82 76.5 94.5Q89 107 107 107ZM107 64V21H149V64ZM276 107H320L257 -64H213ZM384 107H448V64H384V-21H448V-64H384Q366 -64 353.5 -51.5Q341 -39 341 -21V64Q341 82 353.5 94.5Q366 107 384 107Z" />
      </g>
    </svg>