<svg xmlns="http://www.w3.org/2000/svg" viewBox="64 -21 384 384">
      <g transform="scale(1 -1) translate(0 -342)">
        <path d="M235 256Q199 256 174.0 231.0Q149 206 149.0 170.5Q149 135 174.0 110.0Q199 85 234.5 85.0Q270 85 295.0 110.0Q320 135 320.0 170.5Q320 206 295.0 231.0Q270 256 235 256ZM235 128Q217 128 204.5 140.5Q192 153 192.0 170.5Q192 188 204.5 200.5Q217 213 234.5 213.0Q252 213 264.5 200.5Q277 188 277.0 170.5Q277 153 264.5 140.5Q252 128 235 128ZM149 363H299Q334 363 359.0 338.0Q384 313 384 277V256H341V277Q341 295 328.5 307.5Q316 320 299 320H149Q132 320 119.5 307.5Q107 295 107 277V21H341V64H384V-21H64V277Q64 313 89.0 338.0Q114 363 149 363ZM405 224Q411 217 416 211Q429 195 437 181Q448 162 448 149Q448 132 435.5 119.5Q423 107 405.5 107.0Q388 107 375.5 119.5Q363 132 363.0 149.5Q363 167 384 197Q395 212 405 224Z" />
      </g>
    </svg>