<svg xmlns="http://www.w3.org/2000/svg" viewBox="64 -21 384 384">
      <g transform="scale(1 -1) translate(0 -342)">
        <path d="M235 256Q270 256 295.0 231.0Q320 206 320.0 170.5Q320 135 295.0 110.0Q270 85 234.5 85.0Q199 85 174.0 110.0Q149 135 149.0 170.5Q149 206 174.0 231.0Q199 256 235 256ZM235 213Q217 213 204.5 200.5Q192 188 192.0 170.5Q192 153 204.5 140.5Q217 128 234.5 128.0Q252 128 264.5 140.5Q277 153 277.0 170.5Q277 188 264.5 200.5Q252 213 235 213ZM149 363H299Q334 363 359.0 338.0Q384 313 384 277V256H341V277Q341 295 328.5 307.5Q316 320 299 320H149Q132 320 119.5 307.5Q107 295 107 277V21H341V64H384V-21H64V277Q64 313 89.0 338.0Q114 363 149 363ZM341 213Q359 213 373 220Q381 224 394.5 234.5Q408 245 416 249Q430 256 448 256V213Q430 213 416 207Q408 203 394.5 192.0Q381 181 373 177Q359 171 341 171ZM341 128Q359 128 373 135Q381 139 394.5 149.5Q408 160 416 164Q430 171 448 171V128Q430 128 416 121Q408 117 394.5 106.5Q381 96 373 92Q359 85 341 85Z" />
      </g>
    </svg>