<svg xmlns="http://www.w3.org/2000/svg" viewBox="23 -38 448 450">
      <g transform="scale(1 -1) translate(0 -374)">
        <path d="M448 213Q431 213 417 207Q408 203 395.0 192.5Q382 182 375 178Q362 171 346 171L341 175V213Q359 213 373 220Q381 224 394.5 234.5Q408 245 416 249Q430 256 448 256ZM471 -11 444 -38 384 23V-21H64V277Q64 306 81 326L23 384L51 412ZM192 171Q192 153 204.5 140.5Q217 128 235 128Q250 128 267 141L207 201Q192 189 192 171ZM341 66 297 111Q285 99 268.5 92.0Q252 85 235 85Q199 85 174.0 110.0Q149 135 149 171Q149 188 156.0 204.5Q163 221 175 233L111 297Q107 284 107 277V21H341ZM448 128V171Q431 171 417 164Q409 160 396 150Q384 142 378 139L401 115Q414 122 421 124Q434 128 448 128ZM299 320Q316 320 328.5 307.5Q341 295 341 277V256H384V277Q384 313 359.0 338.0Q334 363 299 363H154L196 320Z" />
      </g>
    </svg>