<svg xmlns="http://www.w3.org/2000/svg" viewBox="23 -36 448 448">
      <g transform="scale(1 -1) translate(0 -376)">
        <path d="M471 -11 51 412 23 384 81 326Q64 306 64 277V-21H384V23L444 -36ZM205 203 265 143Q253 128 235.0 128.0Q217 128 204.5 140.5Q192 153 192 171Q192 186 205 203ZM341 66V21H107V277Q107 284 111 297L175 233Q163 221 156.0 204.5Q149 188 149 171Q149 135 174.0 110.0Q199 85 235 85Q252 85 268.5 92.0Q285 99 297 111ZM363 154Q364 166 375 184Q383 197 395 212L405 224L416 211Q429 195 437 181Q448 162 448 149Q448 133 437.0 120.5Q426 108 410 107ZM196 320 154 363H299Q334 363 359.0 338.0Q384 313 384 277V256H341V277Q341 295 328.5 307.5Q316 320 299 320Z" />
      </g>
    </svg>