<svg xmlns="http://www.w3.org/2000/svg" viewBox="43 -21 426 426">
      <g transform="scale(1 -1) translate(0 -384)">
        <path d="M405 57V21Q405 4 392.5 -8.5Q380 -21 363 -21H149Q132 -21 119.5 -8.5Q107 4 107 21V100Q90 107 64 107Q55 107 49.0 113.0Q43 119 43.0 128.0Q43 137 49.0 143.0Q55 149 64 149Q88 149 107 145V186Q90 192 64 192Q55 192 49.0 198.0Q43 204 43.0 213.0Q43 222 49.0 228.5Q55 235 64 235Q88 235 107 230V271Q90 277 64 277Q55 277 49.0 283.5Q43 290 43.0 299.0Q43 308 49.0 314.0Q55 320 64 320Q88 320 107 316V363Q107 380 119.5 392.5Q132 405 149 405H363Q380 405 392.5 392.5Q405 380 405 363V317Q445 310 463 292Q469 286 469.0 277.0Q469 268 463.0 262.0Q457 256 449.0 256.0Q441 256 433 262L425 266Q415 271 402 273Q384 277 363 277Q345 277 328 272Q317 268 298 258H296Q274 246 260 242Q238 235 213 235Q199 235 192 236V278Q198 277 213 277Q231 277 248 283Q259 287 278 296Q301 308 315 312Q338 320 363 320V363H149V21H363V64Q383 64 396 61Q403 59 405 57ZM363 235Q338 235 315 227Q301 222 278 211Q259 201 248 198Q231 192 213 192Q198 192 192 193V150Q199 149 213 149Q238 149 260 157Q274 161 296 172L298 173Q318 183 328 186Q345 192 363 192Q384 192 402 188Q415 185 425 181L433 177Q441 171 449.0 171.0Q457 171 463.0 177.0Q469 183 469.0 192.0Q469 201 463 207Q455 216 437 223Q407 235 363 235ZM363 149Q338 149 315 142Q301 137 278 126Q259 116 248 112Q231 107 213 107Q198 107 192 108V65Q199 64 213 64Q238 64 260 71Q274 76 296 87L298 88Q318 98 328 101Q345 107 363 107Q393 107 416 99Q427 95 433 92Q441 85 449.0 85.0Q457 85 463.0 91.5Q469 98 469.0 106.5Q469 115 463 122Q455 130 437 137Q407 149 363 149Z" />
      </g>
    </svg>