<svg xmlns="http://www.w3.org/2000/svg" viewBox="85 -21 320 418">
      <g transform="scale(1 -1) translate(0 -376)">
        <path d="M405 388V320V252Q405 247 401.0 243.5Q397 240 393 241L378 250Q359 260 339 269Q310 281 282 288Q246 297 213 297V245H218Q226 245 233.0 242.0Q240 239 243 233L271 194Q277 188 277 179V9Q277 -3 267.5 -12.0Q258 -21 245 -21H139Q126 -21 116.5 -12.5Q107 -4 107 9V179Q107 188 113 194L141 233Q150 245 166 245H171V277Q157 260 136.5 260.0Q116 260 100.5 278.0Q85 296 85.0 320.0Q85 344 100.5 362.0Q116 380 137 380Q157 376 171 363V393H213V341Q246 341 282 350Q310 357 339 369Q359 378 378 388L393 397Q397 398 401.0 395.5Q405 393 405 388Z" />
      </g>
    </svg>