<svg xmlns="http://www.w3.org/2000/svg" viewBox="85 -12 342 417">
      <g transform="scale(1 -1) translate(0 -393)">
        <path d="M299 277Q299 248 284.5 223.5Q270 199 245.5 185.0Q221 171 192 171Q171 171 151.5 179.0Q132 187 117.0 202.0Q102 217 93.5 236.5Q85 256 85 277Q85 306 99.5 330.5Q114 355 138.5 369.5Q163 384 192.0 384.0Q221 384 245.5 369.5Q270 355 284.5 330.5Q299 306 299 277ZM223 116 277 63H235L160 -12L128 19ZM363 405Q380 405 392.5 392.5Q405 380 405.0 362.5Q405 345 392.5 332.5Q380 320 362.5 320.0Q345 320 332.5 332.5Q320 345 320.0 362.5Q320 380 332.5 392.5Q345 405 363 405ZM307 128H247L369 6L399 36ZM323 143 414 51 419 47Q427 60 427 75V245Q427 267 411.0 283.0Q395 299 373.0 299.0Q351 299 335.5 283.0Q320 267 320 245V146Z" />
      </g>
    </svg>