<svg xmlns="http://www.w3.org/2000/svg" viewBox="85 -43 342 470">
      <g transform="scale(1 -1) translate(0 -384)">
        <path d="M235 -43Q217 -43 204.5 -30.5Q192 -18 192 0V43H320V0Q320 -18 307.5 -30.5Q295 -43 277 -43ZM256 384Q268 384 273 383Q284 362 291 332Q299 297 299 256Q299 228 288 165Q283 133 277 107H235L224 165Q213 228 213 256Q213 297 221 332Q228 362 239 383Q244 384 256 384ZM256 427Q234 427 212 421Q193 396 182.0 352.0Q171 308 171 256Q171 222 176 184Q181 153 192 107Q192 89 204.5 76.5Q217 64 235 64H277Q295 64 307.5 76.5Q320 89 320 107Q331 153 336 184Q341 222 341 256Q341 308 330.0 352.0Q319 396 300 421Q278 427 256 427ZM85 277Q85 243 97.5 202.0Q110 161 132 129Q155 94 182 81Q166 110 157 171Q144 195 136.0 223.5Q128 252 128 277Q128 299 135.5 315.5Q143 332 159 346Q168 382 182 410Q135 387 112 359Q85 325 85 277ZM330 410Q344 382 353 346Q369 332 376.5 315.5Q384 299 384 277Q384 252 376.0 223.5Q368 195 355 171Q346 110 330 81Q357 94 380 129Q402 161 414.5 202.0Q427 243 427 277Q427 325 400 359Q377 387 330 410Z" />
      </g>
    </svg>