<svg xmlns="http://www.w3.org/2000/svg" viewBox="85 -43 342 470">
      <g transform="scale(1 -1) translate(0 -384)">
        <path d="M235 -43Q217 -43 204.5 -30.5Q192 -18 192 0V43H320V0Q320 -18 307.5 -30.5Q295 -43 277 -43ZM256 427Q278 427 300 421Q319 396 330.0 352.0Q341 308 341 256Q341 222 336 184Q331 153 320 107Q320 89 307.5 76.5Q295 64 277 64H235Q217 64 204.5 76.5Q192 89 192 107Q181 153 176 184Q171 222 171 256Q171 308 182.0 352.0Q193 396 212 421Q234 427 256 427ZM427 277Q427 243 414.5 202.0Q402 161 380 129Q357 94 330 81Q345 109 354 160Q363 209 363 256Q363 301 354.0 340.5Q345 380 330 410Q377 387 400 359Q427 325 427 277ZM85 277Q85 325 112 359Q135 387 182 410Q167 380 158.0 340.5Q149 301 149 256Q149 209 158 160Q167 109 182 81Q155 94 132 129Q110 161 97.5 202.0Q85 243 85 277Z" />
      </g>
    </svg>