<svg xmlns="http://www.w3.org/2000/svg" viewBox="0 -30 499 478">
      <g transform="scale(1 -1) translate(0 -418)">
        <path d="M204 243 233 187Q252 221 288 240L272 310L355 393Q364 403 364.0 416.5Q364 430 354.5 439.0Q345 448 332.0 448.0Q319 448 309 439L226 356L30 401L0 371L159 288L76 205L23 212L0 190L68 152L106 84L128 107L121 160ZM352 213Q392 213 420.0 185.0Q448 157 448 117Q448 89 433 66L499 0L469 -30L403 36Q379 21 352 21Q312 21 284.0 49.0Q256 77 256.0 117.0Q256 157 284.0 185.0Q312 213 352 213ZM352 171Q330 171 314.5 155.0Q299 139 299.0 117.0Q299 95 314.5 79.5Q330 64 352.0 64.0Q374 64 389.5 79.5Q405 95 405.0 117.0Q405 139 389.5 155.0Q374 171 352 171Z" />
      </g>
    </svg>