<svg xmlns="http://www.w3.org/2000/svg" viewBox="43 -21 448 426">
      <g transform="scale(1 -1) translate(0 -384)">
        <path d="M246 200 163 117 171 64 148 41 111 109 43 147 65 170 118 162 201 245 43 328 73 358 269 313 352 396Q361 405 374.5 405.0Q388 405 397.5 396.0Q407 387 407.0 373.5Q407 360 397 351L314 268L342 147L297 103ZM277 22V-21H321L452 109L408 153ZM487 161 459 189Q456 192 451.5 192.0Q447 192 444 189L423 168L467 124L487 145Q491 148 491.0 152.5Q491 157 487 161Z" />
      </g>
    </svg>