<svg xmlns="http://www.w3.org/2000/svg" viewBox="0 -43 491 491">
      <g transform="scale(1 -1) translate(0 -405)">
        <path d="M341 256Q313 256 287 245L272 310L355 393Q364 402 364.0 415.5Q364 429 354.5 438.5Q345 448 332.0 448.0Q319 448 309 439L226 356L30 401L0 371L159 288L76 205L23 212L0 190L68 152L106 84L128 107L121 160L204 243L225 201Q192 160 192 107Q192 66 212.0 31.5Q232 -3 266.5 -23.0Q301 -43 341.5 -43.0Q382 -43 416.5 -23.0Q451 -3 471.0 31.5Q491 66 491.0 106.5Q491 147 471.0 181.5Q451 216 416.5 236.0Q382 256 341 256ZM341 0Q312 0 287.5 14.5Q263 29 249.0 53.5Q235 78 235.0 107.0Q235 136 249.0 160.5Q263 185 287.5 199.0Q312 213 341.0 213.0Q370 213 394.5 199.0Q419 185 433.5 160.5Q448 136 448.0 107.0Q448 78 433.5 53.5Q419 29 394.5 14.5Q370 0 341 0ZM352 101V192H320V85L397 39L413 65Z" />
      </g>
    </svg>