<svg xmlns="http://www.w3.org/2000/svg" viewBox="43 -21 426 426">
      <g transform="scale(1 -1) translate(0 -384)">
        <path d="M327 212Q308 199 295.5 179.5Q283 160 279 137L246 200L163 117L171 64L148 41L111 109L43 147L65 170L118 162L201 245L43 328L73 358L269 313L352 396Q361 405 374.5 405.0Q388 405 397.5 396.0Q407 387 407.0 373.5Q407 360 397 351L314 268ZM469 117Q469 83 432 27Q413 -1 395 -21L375 2Q353 31 339 57Q320 93 320 117Q320 148 342.0 170.0Q364 192 394.5 192.0Q425 192 447.0 170.0Q469 148 469 117ZM420 115Q420 125 412.0 133.0Q404 141 394.5 141.0Q385 141 377.0 133.5Q369 126 369.0 115.5Q369 105 376.5 97.5Q384 90 395.0 90.0Q406 90 414.0 98.0Q422 106 420 115Z" />
      </g>
    </svg>