<svg xmlns="http://www.w3.org/2000/svg" viewBox="43 -64 467 469">
      <g transform="scale(1 -1) translate(0 -341)">
        <path d="M336 175Q304 158 284 129L246 200L163 117L171 64L148 41L111 109L43 147L65 170L118 162L201 245L43 328L73 358L269 313L352 396Q361 405 374.5 405.0Q388 405 397.5 396.0Q407 387 407.0 373.5Q407 360 397 351L314 268ZM508 13Q509 13 509.0 11.5Q509 10 508 9L486 -28Q484 -30 480 -30L454 -21L437 -32L433 -60Q433 -61 431.5 -62.5Q430 -64 429 -64H386Q384 -64 380 -60L375 -32Q366 -29 358 -21L333 -32Q329 -32 326 -30L305 6Q303 9 307 13L331 30V51L307 68Q305 70 305 75L326 111Q329 113 333 113L358 102L375 113L380 141Q380 145 386 145H429Q430 145 431.5 143.5Q433 142 433 141L437 113Q444 111 457 102L482 113Q489 113 489 111L510 75Q512 73 508 68L484 51V30ZM437 43Q437 55 427.5 65.0Q418 75 405.5 75.0Q393 75 383.0 65.0Q373 55 373.0 42.5Q373 30 383.0 20.5Q393 11 405.5 11.0Q418 11 427.5 20.5Q437 30 437 43Z" />
      </g>
    </svg>