<svg xmlns="http://www.w3.org/2000/svg" viewBox="43 -21 426 429">
      <g transform="scale(1 -1) translate(0 -387)">
        <path d="M168 376 141 408 43 326 70 294ZM469 326 371 408 344 376 442 293ZM256 363Q204 363 160.0 337.0Q116 311 90.0 267.0Q64 223 64.0 171.0Q64 119 90.0 74.5Q116 30 160.0 4.5Q204 -21 256.0 -21.0Q308 -21 352.0 4.5Q396 30 422.0 74.5Q448 119 448.0 171.0Q448 223 422.0 267.0Q396 311 352.0 337.0Q308 363 256 363ZM256 21Q215 21 181.0 41.5Q147 62 127.0 96.0Q107 130 107.0 170.5Q107 211 127.0 245.5Q147 280 181.0 300.0Q215 320 256.0 320.0Q297 320 331.0 300.0Q365 280 385.0 245.5Q405 211 405.0 170.5Q405 130 385.0 96.0Q365 62 331.0 41.5Q297 21 256 21ZM192 213H269L192 124V85H320V128H243L320 218V256H192Z" />
      </g>
    </svg>