<svg xmlns="http://www.w3.org/2000/svg" viewBox="43 -43 448 451">
      <g transform="scale(1 -1) translate(0 -365)">
        <path d="M371 408 344 376 442 293 469 326ZM141 408 43 326 70 294 168 376ZM256 363Q204 363 160.0 337.0Q116 311 90.0 267.0Q64 223 64.0 171.0Q64 119 90.0 74.5Q116 30 160.0 4.5Q204 -21 256 -21Q270 -21 277 -20V23Q270 21 256 21Q215 21 181.0 41.5Q147 62 127.0 96.0Q107 130 107.0 170.5Q107 211 127.0 245.5Q147 280 181.0 300.0Q215 320 256 320Q306 320 345.5 290.5Q385 261 399 213H443Q434 257 406.5 291.0Q379 325 339.5 344.0Q300 363 256 363ZM491 128H427V11Q427 -11 411.0 -27.0Q395 -43 373.0 -43.0Q351 -43 335.5 -27.0Q320 -11 320.0 11.0Q320 33 335.5 48.5Q351 64 373 64Q391 64 405 53V171H491ZM245 277V165L160 115L176 89L277 149V277Z" />
      </g>
    </svg>