<svg xmlns="http://www.w3.org/2000/svg" viewBox="35 -21 434 429">
      <g transform="scale(1 -1) translate(0 -387)">
        <path d="M171 378 141 408 122 393 153 363ZM351 56Q310 21 256 21Q215 21 181.0 41.5Q147 62 127.0 96.0Q107 130 107 171Q107 224 141 266ZM62 399 35 372 64 343 40 324 70 293 94 313 111 296Q89 271 76.5 238.5Q64 206 64 171Q64 119 90.0 74.5Q116 30 160.0 4.5Q204 -21 256 -21Q291 -21 323.5 -9.0Q356 3 382 26L429 -21L456 6ZM469 326 371 408 344 376 442 293ZM256 320Q297 320 331.0 300.0Q365 280 385.0 245.5Q405 211 405 171Q405 145 396 119L429 87Q448 127 448 171Q448 223 422.0 267.0Q396 311 352.0 337.0Q308 363 256 363Q212 363 172 343L205 311Q230 320 256 320Z" />
      </g>
    </svg>