<svg xmlns="http://www.w3.org/2000/svg" viewBox="21 -21 448 429">
      <g transform="scale(1 -1) translate(0 -387)">
        <path d="M198 379 110 305 85 334 174 408ZM469 334 445 304 356 379 381 408ZM277 363Q324 363 363.0 340.0Q402 317 425.0 277.5Q448 238 448.0 192.0Q448 146 425.0 106.5Q402 67 363.0 44.0Q324 21 277.5 21.0Q231 21 192.0 44.0Q153 67 130.0 106.5Q107 146 107.0 192.0Q107 238 130.0 277.5Q153 317 192.0 340.0Q231 363 277 363ZM277 320Q252 320 228.5 310.5Q205 301 187.0 283.0Q169 265 159.0 241.0Q149 217 149.0 192.0Q149 167 159.0 143.0Q169 119 187.0 101.0Q205 83 228.5 73.5Q252 64 277 64Q312 64 341.5 81.0Q371 98 388.0 127.5Q405 157 405.0 192.0Q405 227 388.0 256.5Q371 286 341.5 303.0Q312 320 277 320ZM256 288H288V191L357 160L343 131L256 171ZM21 149Q21 189 37.5 223.0Q54 257 83 281Q64 238 64 192L65 168L64 149Q64 113 82.5 83.0Q101 53 131 37Q175 -4 232 -17Q212 -21 192 -21Q146 -21 106.5 2.0Q67 25 44.0 64.0Q21 103 21 149Z" />
      </g>
    </svg>