<svg xmlns="http://www.w3.org/2000/svg" viewBox="43 -21 426 426">
      <g transform="scale(1 -1) translate(0 -384)">
        <path d="M320 50V-21H107V50Q156 21 213.5 21.0Q271 21 320 50ZM469 363Q469 380 456.5 392.5Q444 405 427 405Q417 405 407.5 400.5Q398 396 392 387Q381 373 384.5 355.5Q388 338 402 328Q413 320 427 320H432Q459 249 440.0 175.5Q421 102 363 53Q350 43 341 38V0H363V27Q413 63 441.0 118.0Q469 173 469 235Q469 284 452 328Q469 341 469 363ZM384 235Q384 188 361.0 149.0Q338 110 299.0 87.0Q260 64 213.5 64.0Q167 64 128.0 87.0Q89 110 66.0 149.0Q43 188 43.0 234.5Q43 281 66.0 320.0Q89 359 128.0 382.0Q167 405 213.5 405.0Q260 405 299.0 382.0Q338 359 361.0 320.0Q384 281 384 235Z" />
      </g>
    </svg>