<svg xmlns="http://www.w3.org/2000/svg" viewBox="24 -42 467 453">
      <g transform="scale(1 -1) translate(0 -369)">
        <path d="M405 171V111L427 90V128H491V171ZM51 411 24 384 64 344 43 326 70 294 94 314 111 297Q77 257 67.5 207.0Q58 157 74.5 108.5Q91 60 130 26Q156 3 188.5 -9.0Q221 -21 256 -21Q270 -21 277 -20V23Q270 21 256 21Q215 21 181.0 41.5Q147 62 127.0 96.0Q107 130 107 171Q107 225 141 267L243 164L160 115L176 89L265 142L349 58Q330 48 323.0 27.5Q316 7 325.5 -13.0Q335 -33 356.0 -40.0Q377 -47 397 -37Q414 -29 421 -13L445 -37L472 -10ZM256 320Q306 320 345.5 290.5Q385 261 399 213H443Q434 257 406.5 291.0Q379 325 339.5 344.0Q300 363 256.0 363.0Q212 363 173 343L205 311Q230 320 256 320ZM245 271 277 239V277H245ZM168 376 141 408 123 393 153 363ZM371 408 344 376 442 293 469 326Z" />
      </g>
    </svg>