<svg xmlns="http://www.w3.org/2000/svg" viewBox="23 -36 457 463">
      <g transform="scale(1 -1) translate(0 -391)">
        <path d="M224 292 192 324Q223 341 257.0 341.0Q291 341 320.0 324.0Q349 307 366.5 277.5Q384 248 384 213V132L341 175V213Q341 249 316.0 274.0Q291 299 256 299Q240 299 224 292ZM429 346 399 375 354 331 384 301ZM416 224V181H480V224ZM96 224H32V181H96ZM51 412 471 -9 444 -36 429 -21H85Q85 -4 97.5 8.5Q110 21 128 21H386L365 43H128V213Q128 244 141 267L23 384ZM171 85H322L173 235Q173 231 172.0 224.0Q171 217 171 213ZM277 427H235V363H277Z" />
      </g>
    </svg>