<svg xmlns="http://www.w3.org/2000/svg" viewBox="43 0 426 384">
      <g transform="scale(1 -1) translate(0 -384)">
        <path d="M192 192H128V235H192ZM288 235H224V192H288ZM384 235H320V192H384ZM384 320H128V256H384ZM427 341H85V43H427ZM427 384Q444 384 456.5 371.5Q469 359 469 341V43Q469 25 456.5 12.5Q444 0 427 0H85Q68 0 55.5 12.5Q43 25 43 43V341Q43 359 55.5 371.5Q68 384 85 384ZM192 171H128V128H192ZM288 171H224V128H288ZM384 171H320V128H384ZM192 107H128V64H192ZM288 107H224V64H288ZM384 107H320V64H384Z" />
      </g>
    </svg>