<svg xmlns="http://www.w3.org/2000/svg" viewBox="43 0 426 384">
      <g transform="scale(1 -1) translate(0 -384)">
        <path d="M427 384H85Q68 384 55.5 371.5Q43 359 43 341V43Q43 25 55.5 12.5Q68 0 85 0H427Q444 0 456.5 12.5Q469 25 469 43V341Q469 359 456.5 371.5Q444 384 427 384ZM171 43H107V85H171ZM171 107H107V149H171ZM171 171H107V213H171ZM288 43H224V85H288ZM288 107H224V149H288ZM288 171H224V213H288ZM405 43H341V85H405ZM405 107H341V149H405ZM405 171H341V213H405ZM405 256H107V341H405Z" />
      </g>
    </svg>