<svg xmlns="http://www.w3.org/2000/svg" viewBox="43 -21 426 426">
      <g transform="scale(1 -1) translate(0 -384)">
        <path d="M256 213Q247 213 241.0 207.0Q235 201 235.0 192.0Q235 183 241.0 177.0Q247 171 256.0 171.0Q265 171 271.0 177.0Q277 183 277.0 192.0Q277 201 271.0 207.0Q265 213 256 213ZM256 96Q216 96 188.0 124.0Q160 152 160.0 192.0Q160 232 188.0 260.0Q216 288 256.0 288.0Q296 288 324.0 260.0Q352 232 352.0 192.0Q352 152 324.0 124.0Q296 96 256 96ZM256 405Q214 405 174.5 389.0Q135 373 105.0 343.0Q75 313 59.0 273.5Q43 234 43.0 192.0Q43 150 59.0 110.5Q75 71 105.0 41.0Q135 11 174.5 -5.0Q214 -21 256.0 -21.0Q298 -21 337.5 -5.0Q377 11 407.0 41.0Q437 71 453.0 110.5Q469 150 469.0 192.0Q469 234 453.0 273.5Q437 313 407.0 343.0Q377 373 337.5 389.0Q298 405 256 405Z" />
      </g>
    </svg>