<svg xmlns="http://www.w3.org/2000/svg" viewBox="21 -31 470 446">
      <g transform="scale(1 -1) translate(0 -384)">
        <path d="M491 192 439 133 446 54 369 37 329 -31 256 0 183 -31 143 36 66 54 73 133 21 192 73 252 66 330 143 347 183 415 256 384 329 415 369 347 446 330 439 251ZM434 192 395 237 400 297 341 309 311 361 256 337 201 361 171 309 112 297 117 237 78 192 117 147 112 87 171 75 201 23 256 47 311 23 341 75 400 88 395 147ZM235 128H277V85H235ZM235 299H277V171H235Z" />
      </g>
    </svg>