<svg xmlns="http://www.w3.org/2000/svg" viewBox="43 -25 458 430">
      <g transform="scale(1 -1) translate(0 -380)">
        <path d="M400 -25 341 39 366 64 400 30 477 107 501 77ZM235 128H277V85H235ZM235 299H277V171H235ZM256 405Q314 405 363.0 376.5Q412 348 440.5 299.0Q469 250 469 192L468 164Q447 171 425 171L427 192Q427 238 404.0 277.5Q381 317 341.5 340.0Q302 363 256.0 363.0Q210 363 170.5 340.0Q131 317 108.0 277.5Q85 238 85.0 192.0Q85 146 108.0 106.5Q131 67 170.5 44.0Q210 21 256 21Q278 21 300 27Q302 6 312 -14Q285 -21 256 -21Q198 -21 149.0 7.5Q100 36 71.5 85.0Q43 134 43.0 192.0Q43 250 71.5 299.0Q100 348 149.0 376.5Q198 405 256 405Z" />
      </g>
    </svg>