<svg xmlns="http://www.w3.org/2000/svg" viewBox="43 -25 458 430">
      <g transform="scale(1 -1) translate(0 -380)">
        <path d="M400 -25 341 39 366 64 400 30 477 107 501 77ZM277 171V299H235V171ZM277 85V128H235V85ZM256 405Q314 405 363.0 376.5Q412 348 440.5 299.0Q469 250 469 192L467 164Q448 171 427 171Q392 171 362.5 153.5Q333 136 316.0 106.5Q299 77 299 43Q299 13 312 -14Q285 -21 256 -21Q198 -21 149.0 7.5Q100 36 71.5 85.0Q43 134 43.0 192.0Q43 250 71.5 299.0Q100 348 149.0 376.5Q198 405 256 405Z" />
      </g>
    </svg>