<svg xmlns="http://www.w3.org/2000/svg" viewBox="43 -21 426 426">
      <g transform="scale(1 -1) translate(0 -384)">
        <path d="M220 215Q236 189 234.0 161.5Q232 134 212.5 122.0Q193 110 167.5 120.0Q142 130 125.5 156.0Q109 182 111.5 209.5Q114 237 133.5 249.0Q153 261 178.5 251.0Q204 241 220 215ZM256 69Q275 69 289 73Q299 76 305 81L309 85L305 74Q299 62 289 54Q275 43 256.0 43.0Q237 43 223 54Q213 61 207 74Q203 83 203 85L207 81Q213 76 223 73Q237 69 256 69ZM379 249Q398 237 400.5 209.5Q403 182 386.5 156.0Q370 130 344.5 120.0Q319 110 299.5 122.0Q280 134 278.0 161.5Q276 189 292.0 215.0Q308 241 333.5 251.0Q359 261 379 249ZM256 21Q283 21 324.0 52.5Q365 84 394 127Q427 175 427.0 214.5Q427 254 404.0 288.0Q381 322 341.5 342.5Q302 363 256.0 363.0Q210 363 170.5 342.5Q131 322 108.0 288.0Q85 254 85.0 214.5Q85 175 118 127Q147 84 188.0 52.5Q229 21 256 21ZM256 405Q314 405 363.0 379.5Q412 354 440.5 309.5Q469 265 469 213Q469 170 434.5 114.0Q400 58 352 20Q300 -21 256.0 -21.0Q212 -21 160 20Q112 58 77.5 114.0Q43 170 43 213Q43 265 71.5 309.5Q100 354 149.0 379.5Q198 405 256 405Z" />
      </g>
    </svg>