<svg xmlns="http://www.w3.org/2000/svg" viewBox="64 0 384 384">
      <g transform="scale(1 -1) translate(0 -384)">
        <path d="M256 384Q308 384 352.0 361.0Q396 338 422.0 299.0Q448 260 448.0 214.5Q448 169 412 116Q380 69 334.0 34.5Q288 0 256.0 0.0Q224 0 178.0 34.5Q132 69 100 116Q64 169 64.0 214.5Q64 260 90.0 299.0Q116 338 160.0 361.0Q204 384 256 384ZM220 215Q204 241 178.5 251.0Q153 261 133.5 249.0Q114 237 111.5 209.5Q109 182 125.5 156.0Q142 130 167.5 120.0Q193 110 212.5 122.0Q232 134 234.0 161.5Q236 189 220 215ZM292 215Q276 189 278.0 161.5Q280 134 299.5 122.0Q319 110 344.5 120.0Q370 130 386.5 156.0Q403 182 400.5 209.5Q398 237 378.5 249.0Q359 261 333.5 251.0Q308 241 292 215ZM256 69Q229 69 213 77Q205 81 203 85Q203 83 207 74Q213 61 223 54Q237 43 256.0 43.0Q275 43 289 54Q299 62 305 74L309 85L305 81Q299 76 289 73Q275 69 256 69Z" />
      </g>
    </svg>