<svg xmlns="http://www.w3.org/2000/svg" viewBox="64 0 384 384">
      <g transform="scale(1 -1) translate(0 -384)">
        <path d="M405 192Q405 163 384.5 142.0Q364 121 334.5 121.0Q305 121 284 142L271 154L294 177L307 164Q318 153 334.0 153.0Q350 153 361.5 164.5Q373 176 373.0 192.0Q373 208 361.5 219.5Q350 231 334.0 231.0Q318 231 307 220L228 142Q208 121 178.0 121.0Q148 121 127.5 142.0Q107 163 107.0 192.0Q107 221 127.5 242.0Q148 263 178.0 263.0Q208 263 228 242L241 230L218 207L206 220Q194 231 178.0 231.0Q162 231 150.5 219.5Q139 208 139.0 192.0Q139 176 150.5 164.5Q162 153 178.0 153.0Q194 153 206 164L284 242Q305 263 334.5 263.0Q364 263 384.5 242.0Q405 221 405 192ZM448 341V43Q448 25 435.5 12.5Q423 0 405 0H107Q89 0 76.5 12.5Q64 25 64 43V341Q64 359 76.5 371.5Q89 384 107 384H405Q423 384 435.5 371.5Q448 359 448 341ZM405 341H107V43H405Z" />
      </g>
    </svg>