<svg xmlns="http://www.w3.org/2000/svg" viewBox="64 0 384 384">
      <g transform="scale(1 -1) translate(0 -384)">
        <path d="M405 384H107Q89 384 76.5 371.5Q64 359 64 341V43Q64 25 76.5 12.5Q89 0 107 0H405Q423 0 435.5 12.5Q448 25 448 43V341Q448 359 435.5 371.5Q423 384 405 384ZM343 109Q309 109 285 133L271 147L301 177L315 163Q327 151 343.5 151.0Q360 151 372.0 163.0Q384 175 384.0 192.0Q384 209 372.0 221.0Q360 233 343.5 233.0Q327 233 315 221L227 133Q203 109 168.5 109.0Q134 109 109.5 133.5Q85 158 85.0 192.0Q85 226 109.5 250.5Q134 275 168.5 275.0Q203 275 227 251L241 237L211 207L197 221Q185 233 168.5 233.0Q152 233 140.0 221.0Q128 209 128.0 192.0Q128 175 140.0 163.0Q152 151 168.5 151.0Q185 151 197 163L285 251Q309 275 343.5 275.0Q378 275 402.5 250.5Q427 226 427.0 192.0Q427 158 402.5 133.5Q378 109 343 109Z" />
      </g>
    </svg>