<svg xmlns="http://www.w3.org/2000/svg" viewBox="0 77 512 230">
      <g transform="scale(1 -1) translate(0 -384)">
        <path d="M397 307Q374 307 353.0 298.5Q332 290 316 274L166 141Q145 120 115.0 120.0Q85 120 64.0 141.0Q43 162 43.0 192.0Q43 222 64.0 243.0Q85 264 115.0 264.0Q145 264 167 242L191 221L224 249L197 273Q180 289 159.0 298.0Q138 307 115 307Q84 307 57.5 291.5Q31 276 15.5 249.5Q0 223 0.0 192.0Q0 161 15.5 134.5Q31 108 57.5 92.5Q84 77 115 77Q138 77 159.0 85.5Q180 94 196 110L346 243Q367 264 397.0 264.0Q427 264 448.0 243.0Q469 222 469.0 192.0Q469 162 448.0 141.0Q427 120 397.0 120.0Q367 120 345 142L320 163L288 135L315 111Q349 77 397 77Q428 77 454.5 92.5Q481 108 496.5 134.5Q512 161 512.0 192.0Q512 223 496.5 249.5Q481 276 454.5 291.5Q428 307 397 307Z" />
      </g>
    </svg>