<svg xmlns="http://www.w3.org/2000/svg" viewBox="57 -21 391 426">
      <g transform="scale(1 -1) translate(0 -384)">
        <path d="M421 334Q410 334 402.5 326.5Q395 319 395 308V210H377V361Q377 372 369.0 380.0Q361 388 350.0 388.0Q339 388 331.5 380.0Q324 372 324 361V210H306V379Q306 394 292.5 401.5Q279 409 265.5 401.5Q252 394 252 379V210H235V334Q235 345 227.0 353.0Q219 361 208.0 361.0Q197 361 189.0 353.0Q181 345 181 334V122L105 165Q100 168 94 168Q86 168 80 163L57 141L196 0Q217 -21 247 -21H377Q406 -21 427.0 -0.5Q448 20 448 50V308Q448 319 440.0 326.5Q432 334 421 334ZM235 128Q226 128 219.5 134.0Q213 140 213.0 149.0Q213 158 219.5 164.5Q226 171 235.0 171.0Q244 171 250.0 164.5Q256 158 256.0 149.0Q256 140 250.0 134.0Q244 128 235 128ZM277 64Q268 64 262.0 70.0Q256 76 256.0 85.0Q256 94 262.0 100.5Q268 107 277.0 107.0Q286 107 292.5 100.5Q299 94 299.0 85.0Q299 76 292.5 70.0Q286 64 277 64ZM384 107Q375 107 369.0 113.0Q363 119 363.0 128.0Q363 137 369.0 143.0Q375 149 384.0 149.0Q393 149 399.0 143.0Q405 137 405.0 128.0Q405 119 399.0 113.0Q393 107 384 107ZM363 43Q354 43 347.5 49.0Q341 55 341.0 64.0Q341 73 347.5 79.0Q354 85 363.0 85.0Q372 85 378.0 79.0Q384 73 384.0 64.0Q384 55 378.0 49.0Q372 43 363 43ZM320 128Q311 128 305.0 134.0Q299 140 299.0 149.0Q299 158 305.0 164.5Q311 171 320.0 171.0Q329 171 335.0 164.5Q341 158 341.0 149.0Q341 140 335.0 134.0Q329 128 320 128Z" />
      </g>
    </svg>