<svg xmlns="http://www.w3.org/2000/svg" viewBox="64 -21 384 384">
      <g transform="scale(1 -1) translate(0 -342)">
        <path d="M235 299Q217 299 204.5 286.5Q192 274 192 256V128Q192 110 204.5 97.5Q217 85 235 85V43H277V85Q295 85 307.5 97.5Q320 110 320 128V256Q320 274 307.5 286.5Q295 299 277 299ZM235 256H277V128H235ZM107 363H405Q423 363 435.5 350.5Q448 338 448 320V21Q448 4 435.5 -8.5Q423 -21 405 -21H107Q89 -21 76.5 -8.5Q64 4 64 21V320Q64 338 76.5 350.5Q89 363 107 363Z" />
      </g>
    </svg>