<svg xmlns="http://www.w3.org/2000/svg" viewBox="21 -37 470 448">
      <g transform="scale(1 -1) translate(0 -374)">
        <path d="M260 256 218 299H277Q295 299 307.5 286.5Q320 274 320 256V224Q320 213 312 204L277 239V256ZM491 235V256Q491 274 478.5 286.5Q466 299 448 299H405Q388 299 375.5 286.5Q363 274 363 256V154L431 85H448Q466 85 478.5 97.5Q491 110 491 128V149H448V128H405V256H448V235ZM320 142 472 -10 445 -37 308 99Q296 85 277 85H192V216L149 258V85H107V171H64V85H21V256Q21 274 33.5 286.5Q46 299 64 299H109L24 384L51 411ZM107 256H64V213H107ZM277 130 237 171H235V128H277Z" />
      </g>
    </svg>