<svg xmlns="http://www.w3.org/2000/svg" viewBox="43 85 426 214">
      <g transform="scale(1 -1) translate(0 -384)">
        <path d="M128 213Q146 213 158.5 200.5Q171 188 171 171V85H85Q68 85 55.5 97.5Q43 110 43 128V171Q43 188 55.5 200.5Q68 213 85 213ZM85 171V128H128V171ZM427 171V128H469V85H427Q409 85 396.5 97.5Q384 110 384 128V171Q384 188 396.5 200.5Q409 213 427 213H469V171ZM256 299V213H299Q316 213 328.5 200.5Q341 188 341 171V128Q341 110 328.5 97.5Q316 85 299 85H256Q238 85 225.5 97.5Q213 110 213 128V299ZM256 128H299V171H256Z" />
      </g>
    </svg>