<svg xmlns="http://www.w3.org/2000/svg" viewBox="85 64 342 256">
      <g transform="scale(1 -1) translate(0 -384)">
        <path d="M277 320V64H320V79Q333 64 352 64H363Q389 64 408.0 83.0Q427 102 427 128V192Q427 218 408.0 237.0Q389 256 363 256H352Q333 256 320 241V320ZM107 256V213H171Q180 213 186.0 207.0Q192 201 192 192H149Q123 192 104.0 173.0Q85 154 85.0 128.0Q85 102 104.0 83.0Q123 64 149 64H235V192Q235 218 216.0 237.0Q197 256 171 256ZM341 213H363Q372 213 378.0 207.0Q384 201 384 192V128Q384 119 378.0 113.0Q372 107 363 107H341Q332 107 326.0 113.0Q320 119 320 128V192Q320 201 326.0 207.0Q332 213 341 213ZM149 149H192V107H149Q140 107 134.0 113.0Q128 119 128.0 128.0Q128 137 134.0 143.0Q140 149 149 149Z" />
      </g>
    </svg>