<svg xmlns="http://www.w3.org/2000/svg" viewBox="64 0 384 384">
      <g transform="scale(1 -1) translate(0 -384)">
        <path d="M235 299H320V256H235V213H277Q295 213 307.5 200.5Q320 188 320 171V128Q320 110 307.5 97.5Q295 85 277 85H192V128H277V171H235Q217 171 204.5 183.5Q192 196 192 213V256Q192 274 204.5 286.5Q217 299 235 299ZM107 384H405Q423 384 435.5 371.5Q448 359 448 341V43Q448 25 435.5 12.5Q423 0 405 0H107Q89 0 76.5 12.5Q64 25 64 43V341Q64 359 76.5 371.5Q89 384 107 384ZM107 341V43H405V341Z" />
      </g>
    </svg>