<svg xmlns="http://www.w3.org/2000/svg" viewBox="85 64 342 256">
      <g transform="scale(1 -1) translate(0 -384)">
        <path d="M341 320Q315 320 296.0 301.0Q277 282 277 256V128Q277 102 296.0 83.0Q315 64 341 64H363Q389 64 408.0 83.0Q427 102 427 128V192Q427 218 408.0 237.0Q389 256 363 256H320Q320 265 326.0 271.0Q332 277 341 277H384Q401 277 414.0 290.0Q427 303 427 320ZM107 256V213H171Q180 213 186.0 207.0Q192 201 192 192H149Q123 192 104.0 173.0Q85 154 85.0 128.0Q85 102 104.0 83.0Q123 64 149 64H235V192Q235 218 216.0 237.0Q197 256 171 256ZM320 213H363Q372 213 378.0 207.0Q384 201 384 192V128Q384 119 378.0 113.0Q372 107 363 107H341Q332 107 326.0 113.0Q320 119 320 128ZM149 149H192V107H149Q140 107 134.0 113.0Q128 119 128.0 128.0Q128 137 134.0 143.0Q140 149 149 149Z" />
      </g>
    </svg>