<svg xmlns="http://www.w3.org/2000/svg" viewBox="43 -21 426 426">
      <g transform="scale(1 -1) translate(0 -384)">
        <path d="M256 405Q298 405 337.5 389.0Q377 373 407.0 343.0Q437 313 453.0 273.5Q469 234 469.0 192.0Q469 150 453.0 110.5Q437 71 407.0 41.0Q377 11 337.5 -5.0Q298 -21 256.0 -21.0Q214 -21 174.5 -5.0Q135 11 105.0 41.0Q75 71 59.0 110.5Q43 150 43.0 192.0Q43 234 59.0 273.5Q75 313 105.0 343.0Q135 373 174.5 389.0Q214 405 256 405ZM277 299V128H235V149H192V128Q192 110 204.5 97.5Q217 85 235 85H277Q295 85 307.5 97.5Q320 110 320 128V299Z" />
      </g>
    </svg>