<svg xmlns="http://www.w3.org/2000/svg" viewBox="64 0 384 384">
      <g transform="scale(1 -1) translate(0 -384)">
        <path d="M320 224Q320 211 310.5 201.5Q301 192 288 192Q301 192 310.5 182.5Q320 173 320 160V128Q320 110 307.5 97.5Q295 85 277 85H192V299H277Q295 299 307.5 286.5Q320 274 320 256ZM277 128V171H235V128ZM277 213V256H235V213ZM64 341Q64 359 76.5 371.5Q89 384 107 384H405Q423 384 435.5 371.5Q448 359 448 341V43Q448 25 435.5 12.5Q423 0 405 0H107Q89 0 76.5 12.5Q64 25 64 43ZM107 341V43H405V341Z" />
      </g>
    </svg>