<svg xmlns="http://www.w3.org/2000/svg" viewBox="64 -21 384 384">
      <g transform="scale(1 -1) translate(0 -342)">
        <path d="M107 363H405Q423 363 435.5 350.5Q448 338 448 320V21Q448 4 435.5 -8.5Q423 -21 405 -21H107Q89 -21 76.5 -8.5Q64 4 64 21V320Q64 338 76.5 350.5Q89 363 107 363ZM107 320V21H405V320ZM235 299H277Q295 299 307.5 286.5Q320 274 320 256V128Q320 110 307.5 97.5Q295 85 277 85V43H235V85Q217 85 204.5 97.5Q192 110 192 128V256Q192 274 204.5 286.5Q217 299 235 299ZM235 256V128H277V256Z" />
      </g>
    </svg>