<svg xmlns="http://www.w3.org/2000/svg" viewBox="24 -37 448 448">
      <g transform="scale(1 -1) translate(0 -374)">
        <path d="M472 -10 341 121 299 164 291 171 51 411 24 384 213 194V128Q213 110 225.5 97.5Q238 85 256 85H299Q309 85 318 90L445 -37ZM256 128V152L280 128ZM341 175 303 213Q318 212 329.0 201.0Q340 190 341 175ZM431 85 384 132V171Q384 188 396.5 200.5Q409 213 427 213H469V171H427V128H469V85ZM128 213H85Q68 213 55.5 200.5Q43 188 43 171V128Q43 110 55.5 97.5Q68 85 85 85H171V171Q171 188 158.5 200.5Q146 213 128 213ZM128 128H85V171H128ZM256 260 218 299H256Z" />
      </g>
    </svg>