<svg xmlns="http://www.w3.org/2000/svg" viewBox="85 0 342 320">
      <g transform="scale(1 -1) translate(0 -320)">
        <path d="M341 320Q315 320 296.0 301.0Q277 282 277 256V0H320V256Q320 265 326.0 271.0Q332 277 341 277H363Q372 277 378.0 271.0Q384 265 384 256V235Q384 226 378.0 219.5Q372 213 363 213H341V171H363Q372 171 378.0 164.5Q384 158 384 149V128Q384 119 378.0 113.0Q372 107 363 107H341V64H363Q389 64 408.0 83.0Q427 102 427 128V149Q427 162 421.0 173.0Q415 184 405 192Q415 200 421.0 211.0Q427 222 427 235V256Q427 282 408.0 301.0Q389 320 363 320ZM149 256Q123 256 104.0 237.0Q85 218 85 192V128Q85 102 104.0 83.0Q123 64 149 64H164Q180 64 192 75V64H235V256H192V245Q180 256 164 256ZM149 213H171Q180 213 186.0 207.0Q192 201 192 192V128Q192 119 186.0 113.0Q180 107 171 107H149Q140 107 134.0 113.0Q128 119 128 128V192Q128 201 134.0 207.0Q140 213 149 213Z" />
      </g>
    </svg>