<svg xmlns="http://www.w3.org/2000/svg" viewBox="64 0 384 384">
      <g transform="scale(1 -1) translate(0 -384)">
        <path d="M107 384H405Q423 384 435.5 371.5Q448 359 448 341V43Q448 25 435.5 12.5Q423 0 405 0H107Q89 0 76.5 12.5Q64 25 64 43V341Q64 359 76.5 371.5Q89 384 107 384ZM235 299Q217 299 204.5 286.5Q192 274 192 256V128Q192 110 204.5 97.5Q217 85 235 85H277Q295 85 307.5 97.5Q320 110 320 128V149H277V128H235V256H277V235H320V256Q320 274 307.5 286.5Q295 299 277 299Z" />
      </g>
    </svg>