<svg xmlns="http://www.w3.org/2000/svg" viewBox="85 -21 342 426">
      <g transform="scale(1 -1) translate(0 -384)">
        <path d="M299 -21H213V0H299ZM277 235V299H235V235L213 203V21H299V203ZM256 405Q253 402 250 398Q244 389 240 377Q235 360 235 341V320H277V341V353Q275 367 271 379Q265 396 256 405ZM171 -21H85V0H171ZM149 235V299H107V235L85 203V21H171V203ZM128 405Q125 402 122 398Q116 389 112 377Q107 360 107 341V320H149V341V353Q147 367 143 379Q137 396 128 405ZM427 -21H341V0H427ZM405 235V299H363V235L341 203V21H427V203ZM384 405Q381 402 378 398Q372 389 368 377Q363 360 363 341V320H405V341V353Q403 367 399 379Q393 396 384 405Z" />
      </g>
    </svg>