<svg xmlns="http://www.w3.org/2000/svg" viewBox="94 -23 333 428">
      <g transform="scale(1 -1) translate(0 -382)">
        <path d="M94 96Q94 124 110.5 150.5Q127 177 175 209Q150 239 139 262Q128 281 128 305Q128 352 156 380Q170 394 188.5 399.5Q207 405 233 405Q274 405 302.5 380.0Q331 355 331 318Q331 293 318.0 271.0Q305 249 273 226L243 203L335 92Q354 130 354 175H401Q401 100 367 53L427 -17H363L335 15Q313 -4 286 -13Q254 -23 228 -23Q169 -23 130 9Q94 45 94 96ZM228 21Q270 21 305 53L205 175L196 169Q149 134 149 96Q149 61 171 43Q196 21 228 21ZM181 305Q181 277 215 237L250 260Q269 273 275.5 286.0Q282 299 282 316Q282 336 267 348Q254 361 230.0 361.0Q206 361 193.5 345.5Q181 330 181 305Z" />
      </g>
    </svg>