<svg xmlns="http://www.w3.org/2000/svg" viewBox="23 -36 448 448">
      <g transform="scale(1 -1) translate(0 -376)">
        <path d="M471 -11 51 412 23 384 64 343V0H107Q107 -10 112.5 -15.5Q118 -21 128.0 -21.0Q138 -21 143.5 -15.5Q149 -10 149 0H363Q363 -10 368.5 -15.5Q374 -21 384.0 -21.0Q394 -21 399.5 -15.5Q405 -10 405 0H407L444 -36ZM107 256V301L151 256ZM256 43Q221 43 196.0 68.0Q171 93 171 128Q171 150 181.0 168.5Q191 187 209 198L326 81Q315 63 296.5 53.0Q278 43 256 43ZM299 320V299H256V320ZM213 320Q223 320 229.0 314.0Q235 308 235 299Q235 294 230 286L201 316Q209 320 213 320ZM175 341 132 384H192Q192 394 198.0 399.5Q204 405 213 405H299Q308 405 314.0 399.5Q320 394 320 384H448V68L260 256H405V341ZM341 320V277H320V320ZM384 320V277H363V320Z" />
      </g>
    </svg>