<svg xmlns="http://www.w3.org/2000/svg" viewBox="64 -21 384 426">
      <g transform="scale(1 -1) translate(0 -384)">
        <path d="M213 405H299Q308 405 314.0 399.0Q320 393 320 384H448V0H405Q405 -9 399.0 -15.0Q393 -21 384.0 -21.0Q375 -21 369.0 -15.0Q363 -9 363 0H149Q149 -9 143.0 -15.0Q137 -21 128.0 -21.0Q119 -21 113.0 -15.0Q107 -9 107 0H64V384H192Q192 393 198.0 399.0Q204 405 213 405ZM107 341V256H405V341ZM149 320Q158 320 164.5 314.0Q171 308 171.0 299.0Q171 290 164.5 283.5Q158 277 149.0 277.0Q140 277 134.0 283.5Q128 290 128.0 299.0Q128 308 134.0 314.0Q140 320 149 320ZM256 320H299V299H256ZM320 320H341V277H320ZM363 320H384V277H363ZM256 213Q221 213 196.0 188.0Q171 163 171.0 128.0Q171 93 196.0 68.0Q221 43 256.0 43.0Q291 43 316.0 68.0Q341 93 341.0 128.0Q341 163 316.0 188.0Q291 213 256 213ZM213 320Q222 320 228.5 314.0Q235 308 235.0 299.0Q235 290 228.5 283.5Q222 277 213.0 277.0Q204 277 198.0 283.5Q192 290 192.0 299.0Q192 308 198.0 314.0Q204 320 213 320Z" />
      </g>
    </svg>