<svg xmlns="http://www.w3.org/2000/svg" viewBox="64 -21 384 426">
      <g transform="scale(1 -1) translate(0 -384)">
        <path d="M256 405Q229 405 210.5 386.5Q192 368 192 341Q192 321 203.5 304.5Q215 288 235 281V256H171V213H235V23Q209 28 188 37Q164 47 145.5 62.0Q127 77 116 95L149 128L64 192V128Q64 97 82.0 69.5Q100 42 128.0 22.0Q156 2 190.0 -9.5Q224 -21 256.0 -21.0Q288 -21 322.0 -9.5Q356 2 384.5 22.0Q413 42 430.5 69.5Q448 97 448 128V192L363 128L396 95Q385 77 366.5 62.0Q348 47 324 37Q303 28 277 23V213H341V256H277V281Q296 288 308.0 304.5Q320 321 320 341Q320 368 301.5 386.5Q283 405 256 405ZM256 363Q265 363 271.0 356.5Q277 350 277.0 341.0Q277 332 271.0 326.0Q265 320 256.0 320.0Q247 320 241.0 326.0Q235 332 235.0 341.0Q235 350 241.0 356.5Q247 363 256 363Z" />
      </g>
    </svg>