<svg xmlns="http://www.w3.org/2000/svg" viewBox="43 0 426 386">
      <g transform="scale(1 -1) translate(0 -386)">
        <path d="M256 288Q278 288 293.5 273.0Q309 258 309 235Q309 201 277 186V0H235V186Q203 201 203 235Q203 258 218.5 273.0Q234 288 256 288ZM356 335Q396 295 399 235Q399 177 356 134L331 160Q363 189 363 235Q363 277 331 309ZM130 361Q79 310 79.0 235.0Q79 160 130 109L105 83Q43 149 43.0 234.5Q43 320 105 386ZM407 386Q469 320 469 235Q469 146 407 83L382 109Q433 160 433.0 235.0Q433 310 382 361ZM156 335 181 309Q149 280 149 235Q149 192 181 160L156 134Q113 177 113.0 234.5Q113 292 156 335Z" />
      </g>
    </svg>