<svg xmlns="http://www.w3.org/2000/svg" viewBox="123 -21 266 426">
      <g transform="scale(1 -1) translate(0 -384)">
        <path d="M332 171Q310 171 294 157L266 173Q269 182 269.0 192.0Q269 202 267 212L293 228Q309 213 332.0 213.0Q355 213 372.0 230.0Q389 247 389.0 270.5Q389 294 372.0 311.0Q355 328 331.5 328.0Q308 328 291.0 311.0Q274 294 274 270Q274 265 275 259L248 243Q234 258 213 263V293Q231 299 242.0 314.0Q253 329 253 348Q253 372 236.5 388.5Q220 405 196.0 405.0Q172 405 155.5 388.5Q139 372 139 348Q139 329 149.5 314.0Q160 299 178 293V263Q154 257 138.5 237.5Q123 218 123.0 192.5Q123 167 138.5 147.5Q154 128 178 122V91Q160 85 149.5 70.0Q139 55 139 36Q139 12 155.5 -4.5Q172 -21 196.0 -21.0Q220 -21 236.5 -4.5Q253 12 253 36Q253 55 242.0 70.0Q231 85 213 91V122Q234 127 248 142L275 126Q274 120 274 114Q274 90 291.0 73.0Q308 56 331.5 56.0Q355 56 372.0 73.0Q389 90 389.0 114.0Q389 138 372.0 154.5Q355 171 332 171ZM332 299Q343 299 351.5 290.5Q360 282 360.0 270.5Q360 259 351.5 250.5Q343 242 331.5 242.0Q320 242 311.5 250.5Q303 259 303.0 270.5Q303 282 311.5 290.5Q320 299 332 299ZM167 348Q167 360 175.5 368.5Q184 377 196.0 377.0Q208 377 216.0 368.5Q224 360 224.0 348.0Q224 336 216.0 327.5Q208 319 196.0 319.0Q184 319 175.5 327.5Q167 336 167 348ZM224 36Q224 24 216.0 16.0Q208 8 196.0 8.0Q184 8 175.5 16.0Q167 24 167.0 36.0Q167 48 175.5 56.5Q184 65 196.0 65.0Q208 65 216.0 56.5Q224 48 224 36ZM196 152Q179 152 167.0 164.0Q155 176 155.0 193.0Q155 210 167.0 222.0Q179 234 196.0 234.0Q213 234 225.0 222.0Q237 210 237.0 193.0Q237 176 225.0 164.0Q213 152 196 152ZM332 85Q320 85 311.5 93.5Q303 102 303.0 114.0Q303 126 311.5 134.0Q320 142 331.5 142.0Q343 142 351.5 134.0Q360 126 360.0 114.0Q360 102 351.5 93.5Q343 85 332 85Z" />
      </g>
    </svg>