<svg xmlns="http://www.w3.org/2000/svg" viewBox="21 -43 470 448">
      <g transform="scale(1 -1) translate(0 -362)">
        <path d="M463 51V73L486 90Q491 94 489 96L467 132Q467 134 461 134L435 124Q422 132 416 134L412 162Q412 164 410.5 165.0Q409 166 407 166H365Q358 166 358 162L354 134L337 124L311 134Q307 134 305 132L284 96Q284 92 286 90L309 73V51L286 34Q282 30 284 28L305 -9Q307 -11 311 -11L337 0Q345 -7 354 -11L358 -38Q363 -43 365 -43H407Q409 -43 410.5 -41.5Q412 -40 412 -38L416 -11L433 0L459 -9Q463 -9 465 -6L486 30Q488 31 488.0 32.5Q488 34 486 34ZM384 32Q371 32 361.5 41.5Q352 51 352.0 64.0Q352 77 361.5 86.5Q371 96 384.0 96.0Q397 96 406.5 86.5Q416 77 416.0 64.0Q416 51 406.5 41.5Q397 32 384 32ZM262 -21H64Q46 -21 33.5 -8.5Q21 4 21 21V363Q21 380 33.5 392.5Q46 405 64 405H448Q466 405 478.5 392.5Q491 380 491 363V169Q470 189 448 198V320H64V21H241Q248 -5 262 -21Z" />
      </g>
    </svg>