<svg xmlns="http://www.w3.org/2000/svg" viewBox="43 -21 426 426">
      <g transform="scale(1 -1) translate(0 -384)">
        <path d="M128 405Q163 405 188.0 380.0Q213 355 213 320V277H299V320Q299 355 324.0 380.0Q349 405 384.0 405.0Q419 405 444.0 380.0Q469 355 469.0 320.0Q469 285 444.0 260.0Q419 235 384 235H341V149H384Q419 149 444.0 124.0Q469 99 469.0 64.0Q469 29 444.0 4.0Q419 -21 384.0 -21.0Q349 -21 324.0 4.0Q299 29 299 64V107H213V64Q213 29 188.0 4.0Q163 -21 128.0 -21.0Q93 -21 68.0 4.0Q43 29 43.0 64.0Q43 99 68.0 124.0Q93 149 128 149H171V235H128Q93 235 68.0 260.0Q43 285 43.0 320.0Q43 355 68.0 380.0Q93 405 128 405ZM341 64Q341 46 353.5 33.5Q366 21 384.0 21.0Q402 21 414.5 33.5Q427 46 427.0 64.0Q427 82 414.5 94.5Q402 107 384 107H341ZM299 235H213V149H299ZM128 107Q110 107 97.5 94.5Q85 82 85.0 64.0Q85 46 97.5 33.5Q110 21 128.0 21.0Q146 21 158.5 33.5Q171 46 171 64V107ZM171 320Q171 338 158.5 350.5Q146 363 128.0 363.0Q110 363 97.5 350.5Q85 338 85.0 320.0Q85 302 97.5 289.5Q110 277 128 277H171ZM384 277Q402 277 414.5 289.5Q427 302 427.0 320.0Q427 338 414.5 350.5Q402 363 384.0 363.0Q366 363 353.5 350.5Q341 338 341 320V277Z" />
      </g>
    </svg>