<svg xmlns="http://www.w3.org/2000/svg" viewBox="21 -21 470 426">
      <g transform="scale(1 -1) translate(0 -384)">
        <path d="M448 405H64Q46 405 33.5 392.5Q21 380 21 363V21Q21 4 33.5 -8.5Q46 -21 64 -21H448Q466 -21 478.5 -8.5Q491 4 491 21V363Q491 380 478.5 392.5Q466 405 448 405ZM158 21Q134 44 120.5 74.5Q107 105 107.0 138.5Q107 172 120.5 202.5Q134 233 158 256L192 243Q172 226 160.5 198.0Q149 170 149.0 139.0Q149 108 160.0 80.5Q171 53 192 34ZM271 64 254 107 224 64H192L241 130L213 192H241L258 149L288 192H320L273 128L301 64ZM354 21 320 34Q341 53 352.0 80.5Q363 108 363.0 138.5Q363 169 352.0 196.5Q341 224 320 243L354 256Q378 233 391.5 202.5Q405 172 405.0 138.5Q405 105 391.5 74.5Q378 44 354 21ZM448 299H64V363H448Z" />
      </g>
    </svg>