<svg xmlns="http://www.w3.org/2000/svg" viewBox="21 -21 470 426">
      <g transform="scale(1 -1) translate(0 -384)">
        <path d="M448 405H64Q46 405 33.5 392.5Q21 380 21 363V21Q21 4 33.5 -8.5Q46 -21 64 -21H448Q466 -21 478.5 -8.5Q491 4 491 21V363Q491 380 478.5 392.5Q466 405 448 405ZM448 21H64V320H448ZM192 277Q174 277 161.5 264.5Q149 252 149.0 234.5Q149 217 136.5 204.5Q124 192 107 192V149Q124 149 136.5 136.5Q149 124 149.0 106.5Q149 89 161.5 76.5Q174 64 192 64H235V107H192V128Q192 146 179.5 158.5Q167 171 149 171Q167 171 179.5 183.5Q192 196 192 213V235H235V277ZM320 277Q338 277 350.5 264.5Q363 252 363.0 234.5Q363 217 375.5 204.5Q388 192 405 192V149Q388 149 375.5 136.5Q363 124 363.0 106.5Q363 89 350.5 76.5Q338 64 320 64H277V107H320V128Q320 146 332.5 158.5Q345 171 363 171Q345 171 332.5 183.5Q320 196 320 213V235H277V277Z" />
      </g>
    </svg>