<svg xmlns="http://www.w3.org/2000/svg" viewBox="82 -21 347 426">
      <g transform="scale(1 -1) translate(0 -384)">
        <path d="M399 32Q382 7 371 -4Q353 -20 334 -21Q320 -21 300.0 -12.5Q280 -4 264 -4Q252 -4 242 -7Q236 -9 225 -13Q207 -21 194 -21Q176 -22 157 -4Q145 7 127 33Q108 61 96 97Q82 137 82 175Q83 217 100 248Q114 272 137.5 286.5Q161 301 188 301Q204 301 232 290Q251 283 258.0 283.0Q265 283 283.0 290.0Q301 297 310 299Q326 303 340 302Q358 301 374 294Q401 284 417 260Q403 251 392 238Q371 211 371 179Q372 150 386 128Q397 112 414 100Q423 94 429 92L428 91Q417 59 399 32ZM277 373Q289 387 306.5 396.0Q324 405 340 405Q342 387 336.0 369.0Q330 351 318.0 337.0Q306 323 289.0 314.5Q272 306 255 307Q253 324 260 343Q266 360 277 373Z" />
      </g>
    </svg>