<svg xmlns="http://www.w3.org/2000/svg" viewBox="43 86 426 212">
      <g transform="scale(1 -1) translate(0 -384)">
        <path d="M45 90H80V240H45ZM62 259Q71 259 76.5 265.0Q82 271 82.0 279.0Q82 287 76.5 292.5Q71 298 62.5 298.0Q54 298 48.5 292.5Q43 287 43.0 279.0Q43 271 48.5 265.0Q54 259 62 259ZM197 297Q153 297 126.5 269.0Q100 241 100.0 192.0Q100 143 126.5 114.5Q153 86 197.5 86.0Q242 86 268.0 114.5Q294 143 294.0 192.0Q294 241 268.0 269.0Q242 297 197 297ZM197 267Q225 267 241.0 246.5Q257 226 257.0 192.0Q257 158 241.0 137.5Q225 117 197.5 117.0Q170 117 154.0 137.5Q138 158 138.0 192.0Q138 226 154.0 246.5Q170 267 197 267ZM309 147Q310 119 331.5 102.5Q353 86 389.5 86.0Q426 86 447.5 103.0Q469 120 469 149Q469 172 455.0 185.5Q441 199 410 207L387 212Q368 216 359.5 222.5Q351 229 351 239Q351 252 362.0 260.0Q373 268 390.5 268.0Q408 268 419.0 259.5Q430 251 431 237H466Q465 264 444.5 280.5Q424 297 390.5 297.0Q357 297 335.5 280.5Q314 264 314 237Q314 193 370 181L396 175Q416 170 424.0 163.0Q432 156 432.0 144.0Q432 132 420.5 124.0Q409 116 390.5 116.0Q372 116 359.0 124.5Q346 133 345 147Z" />
      </g>
    </svg>