<svg xmlns="http://www.w3.org/2000/svg" viewBox="43 -21 426 405">
      <g transform="scale(1 -1) translate(0 -363)">
        <path d="M171 213Q162 213 155.5 219.5Q149 226 149 235V277Q149 286 155.5 292.5Q162 299 170.5 299.0Q179 299 185.5 292.5Q192 286 192 277V235Q192 226 185.5 219.5Q179 213 171 213ZM363 235V277Q363 286 356.5 292.5Q350 299 341.5 299.0Q333 299 326.5 292.5Q320 286 320 277V235Q320 226 326.5 219.5Q333 213 341.5 213.0Q350 213 356.5 219.5Q363 226 363 235ZM469 341V21Q469 4 456.5 -8.5Q444 -21 427 -21H85Q68 -21 55.5 -8.5Q43 4 43 21V341Q43 359 55.5 371.5Q68 384 85 384H427Q444 384 456.5 371.5Q469 359 469 341ZM85 21H279Q276 38 274 65L256 64Q206 64 165 88Q143 102 133 115Q127 121 128.0 130.0Q129 139 135.5 144.5Q142 150 151.0 149.5Q160 149 166.0 141.0Q172 133 189 124Q219 107 256 107L272 108Q271 134 272 165H233Q223 165 215.5 173.0Q208 181 208 192Q210 219 214 248Q222 304 235 341H85ZM427 21V341H269Q250 293 240 197H279Q289 197 296.5 189.5Q304 182 304 171V170Q303 143 304 115Q331 125 346 142Q352 149 360.5 150.0Q369 151 376.0 145.0Q383 139 384.0 130.5Q385 122 379 115Q372 106 359 97Q335 79 305 71Q308 41 311 21Z" />
      </g>
    </svg>