<svg xmlns="http://www.w3.org/2000/svg" viewBox="21 -21 470 426">
      <g transform="scale(1 -1) translate(0 -384)">
        <path d="M448 405H64Q46 405 33.5 392.5Q21 380 21 363V21Q21 4 33.5 -8.5Q46 -21 64 -21H448Q466 -21 478.5 -8.5Q491 4 491 21V363Q491 380 478.5 392.5Q466 405 448 405ZM448 21H64V320H448ZM333 277Q357 256 370.5 228.5Q384 201 384.0 171.0Q384 141 370.5 113.0Q357 85 333 64L299 77Q319 92 330.0 117.5Q341 143 341.0 170.5Q341 198 330.0 223.5Q319 249 299 265ZM179 277 213 265Q193 249 182.0 223.5Q171 198 171.0 170.5Q171 143 182.0 117.5Q193 92 213 77L179 64Q155 85 141.5 113.0Q128 141 128.0 171.0Q128 201 141.5 228.5Q155 256 179 277Z" />
      </g>
    </svg>