<svg xmlns="http://www.w3.org/2000/svg" viewBox="21 -21 470 426">
      <g transform="scale(1 -1) translate(0 -384)">
        <path d="M448 405H64Q46 405 33.5 392.5Q21 380 21 363V21Q21 4 33.5 -8.5Q46 -21 64 -21H448Q466 -21 478.5 -8.5Q491 4 491 21V363Q491 380 478.5 392.5Q466 405 448 405ZM213 34 179 21Q155 44 141.5 74.5Q128 105 128.0 138.5Q128 172 141.5 202.5Q155 233 179 256L213 243Q193 226 182.0 198.0Q171 170 171.0 139.0Q171 108 182.0 80.5Q193 53 213 34ZM333 21 299 34Q319 53 330.0 80.5Q341 108 341.0 138.5Q341 169 330.0 196.5Q319 224 299 243L333 256Q357 233 370.5 202.5Q384 172 384.0 138.5Q384 105 370.5 74.5Q357 44 333 21ZM448 299H64V363H448Z" />
      </g>
    </svg>