<svg xmlns="http://www.w3.org/2000/svg" viewBox="107 107 298 187">
      <g transform="scale(1 -1) translate(0 -401)">
        <path d="M403 252Q389 236 368 225Q344 213 320 213Q300 213 282 219Q272 222 255 231L240 237Q226 243 218 246Q204 250 190 250Q172 250 154 241Q139 233 128 222L107 254Q124 271 143 281Q167 294 190 294Q206 294 222 290Q231 287 246 280L272 269Q285 263 293 260Q306 256 320 256Q337 256 356 266Q370 274 382 286ZM405 147Q388 130 369 120Q345 107 322 107Q302 107 284 112Q274 116 257 124L240 132Q227 138 219 141Q206 145 192 145Q175 145 156 135Q142 127 130 115L109 149Q126 166 145 177Q169 190 192 190Q212 190 230 184Q240 181 257 172L272 166Q286 160 294 158Q308 154 322 154Q339 154 358 164Q372 172 384 183Z" />
      </g>
    </svg>