<svg xmlns="http://www.w3.org/2000/svg" viewBox="64 0 384 384">
      <g transform="scale(1 -1) translate(0 -384)">
        <path d="M405 384H107Q89 384 76.5 371.5Q64 359 64 341V43Q64 25 76.5 12.5Q89 0 107 0H405Q423 0 435.5 12.5Q448 25 448 43V341Q448 359 435.5 371.5Q423 384 405 384ZM198 273Q214 273 228 269Q236 266 250 260L261 255Q274 248 282 245Q295 241 309.5 241.0Q324 241 340 250Q353 257 363 267L380 239Q367 225 349 215Q328 205 307 205Q291 205 276 210Q267 213 254 220L250 222Q236 229 227 232Q212 237 197.0 237.0Q182 237 166 228Q153 221 143 211L128 239Q140 253 158 262Q179 273 198 273ZM311 111Q296 111 282 115Q274 118 260 124L252 128Q238 135 229 138Q214 143 199.0 143.0Q184 143 168 134Q155 127 145 117L128 147Q140 161 158 171Q179 181 198 181Q214 181 228 177Q236 174 250 168L261 163Q274 156 282 154Q296 149 311.0 149.0Q326 149 342 158Q355 165 365 175L382 147Q372 132 352.5 121.5Q333 111 311 111Z" />
      </g>
    </svg>