<svg xmlns="http://www.w3.org/2000/svg" viewBox="64 -43 427 427">
      <g transform="scale(1 -1) translate(0 -341)">
        <path d="M309 213Q314 213 317.0 210.0Q320 207 320 203V171H192V203Q192 207 195.0 210.0Q198 213 203 213ZM395 192Q409 192 427 188V235H384V191Q388 192 395 192ZM128 43V235H85V0H267Q259 19 257 43ZM448 256H64V384H448ZM405 341H107V299H405ZM491 53Q491 13 463.0 -15.0Q435 -43 395.0 -43.0Q355 -43 327.0 -15.0Q299 13 299.0 53.0Q299 93 327.0 121.0Q355 149 395.0 149.0Q435 149 463.0 121.0Q491 93 491 53ZM427 -2 340 85Q331 71 331 53Q331 27 349.5 8.0Q368 -11 395 -11Q413 -11 427 -2ZM459 53Q459 80 440.0 98.5Q421 117 395 117Q377 117 363 108L450 21Q459 35 459 53Z" />
      </g>
    </svg>