<svg xmlns="http://www.w3.org/2000/svg" viewBox="64 -21 427 405">
      <g transform="scale(1 -1) translate(0 -363)">
        <path d="M384 189V235H427V228Q419 224 414 219ZM203 213Q198 213 195.0 210.0Q192 207 192 203V171H320V203Q320 207 317.0 210.0Q314 213 309 213ZM128 235H85V0H235V40L237 43H128ZM448 256H64V384H448ZM405 341H107V299H405ZM277 22V-21H321L452 109L408 153ZM487 161 459 189Q456 192 451.5 192.0Q447 192 444 189L423 168L467 124L487 145Q491 148 491.0 152.5Q491 157 487 161Z" />
      </g>
    </svg>