<svg xmlns="http://www.w3.org/2000/svg" viewBox="64 -43 427 427">
      <g transform="scale(1 -1) translate(0 -341)">
        <path d="M384 209V235H427V213Q423 213 416 213Q401 213 384 209ZM320 203Q320 207 317.0 210.0Q314 213 309 213H203Q198 213 195.0 210.0Q192 207 192 203V171H316L320 175ZM128 43V235H85V0H299Q287 20 281 43ZM448 256H64V384H448ZM405 341H107V299H405ZM405 160V192L357 144L405 96V128Q427 128 443.0 112.5Q459 97 459 75Q459 62 453 51L476 28Q491 49 491 75Q491 110 466.0 135.0Q441 160 405 160ZM405 21Q383 21 367.5 37.0Q352 53 352 75Q352 87 358 99L334 122Q320 100 320 75Q320 39 345.0 14.0Q370 -11 405 -11V-43L453 5L405 53Z" />
      </g>
    </svg>