<svg xmlns="http://www.w3.org/2000/svg" viewBox="64 -21 427 405">
      <g transform="scale(1 -1) translate(0 -363)">
        <path d="M448 299H64V384H448ZM203 213H309Q314 213 317.0 210.0Q320 207 320 203V191Q334 211 356.5 223.0Q379 235 405 235Q416 235 427 232V277H85V0H278Q277 2 277 6V81Q277 96 284.0 110.0Q291 124 303 134V139Q303 154 309 171H192V203Q192 207 195.0 210.0Q198 213 203 213ZM491 79V4Q491 -6 482.5 -13.5Q474 -21 463 -21H346Q336 -21 328.0 -13.0Q320 -5 320 6V81Q320 91 328.0 99.0Q336 107 346 107V139Q346 161 364.0 176.5Q382 192 405.0 192.0Q428 192 446.5 176.5Q465 161 465 139V107Q475 107 483.0 98.5Q491 90 491 79ZM437 139Q437 151 428.0 158.5Q419 166 405.5 166.0Q392 166 382.5 158.5Q373 151 373 139V107H437Z" />
      </g>
    </svg>