<svg xmlns="http://www.w3.org/2000/svg" viewBox="43 -30 456 435">
      <g transform="scale(1 -1) translate(0 -375)">
        <path d="M278 235Q265 227 254.0 215.5Q243 204 235 192H171V224Q171 228 174.0 231.5Q177 235 181 235ZM427 277H43V405H427ZM384 363H85V320H384ZM107 64V256H64V21H252Q234 40 224 64ZM499 0 469 -30 403 36Q379 21 352 21Q312 21 284.0 49.0Q256 77 256.0 117.0Q256 157 284.0 185.0Q312 213 352.0 213.0Q392 213 420.0 185.0Q448 157 448 117Q448 89 433 66ZM405 117Q405 139 389.5 155.0Q374 171 352.0 171.0Q330 171 314.5 155.0Q299 139 299.0 117.0Q299 95 314.5 79.5Q330 64 352.0 64.0Q374 64 389.5 79.5Q405 95 405 117Z" />
      </g>
    </svg>