<svg xmlns="http://www.w3.org/2000/svg" viewBox="64 -32 405 416">
      <g transform="scale(1 -1) translate(0 -352)">
        <path d="M384 191V235H427V188Q409 192 395 192Q388 192 384 191ZM203 213Q198 213 195.0 210.0Q192 207 192 203V171H320V203Q320 207 317.0 210.0Q314 213 309 213ZM128 43V235H85V0H267Q259 19 257 43ZM448 256H64V384H448ZM405 341H107V299H405ZM469 53V139L444 114Q419 139 384.0 139.0Q349 139 324.0 114.0Q299 89 299.0 53.5Q299 18 324.0 -7.0Q349 -32 384 -32Q411 -32 432.5 -17.5Q454 -3 463 21H427Q419 11 408.0 5.5Q397 0 384 0Q362 0 346.5 15.5Q331 31 331.0 53.0Q331 75 346.5 91.0Q362 107 384.0 107.0Q406 107 422 91L384 53Z" />
      </g>
    </svg>