<svg xmlns="http://www.w3.org/2000/svg" viewBox="64 -43 427 427">
      <g transform="scale(1 -1) translate(0 -341)">
        <path d="M448 299H64V384H448ZM195 27Q200 13 209 0H85V277H427V159Q396 171 363 171Q307 171 261.5 140.5Q216 110 195 59L189 43ZM192 171H320V203Q320 207 317.0 210.0Q314 213 309 213H203Q198 213 195.0 210.0Q192 207 192 203ZM363 64Q354 64 347.5 58.0Q341 52 341.0 43.0Q341 34 347.5 27.5Q354 21 363.0 21.0Q372 21 378.0 27.5Q384 34 384.0 43.0Q384 52 378.0 58.0Q372 64 363 64ZM491 43Q475 5 440.5 -19.0Q406 -43 363.0 -43.0Q320 -43 285.0 -19.0Q250 5 235 43Q250 81 285.0 104.5Q320 128 363.0 128.0Q406 128 440.5 104.5Q475 81 491 43ZM416 43Q416 65 400.5 80.5Q385 96 363.0 96.0Q341 96 325.0 80.5Q309 65 309.0 43.0Q309 21 325.0 5.0Q341 -11 363.0 -11.0Q385 -11 400.5 5.0Q416 21 416 43Z" />
      </g>
    </svg>