<svg xmlns="http://www.w3.org/2000/svg" viewBox="64 -32 405 416">
      <g transform="scale(1 -1) translate(0 -352)">
        <path d="M395 192Q409 192 427 188V277H85V0H267Q256 26 256 53Q256 91 274.5 123.0Q293 155 325.0 173.5Q357 192 395 192ZM192 171V203Q192 207 195.0 210.0Q198 213 203 213H309Q314 213 317.0 210.0Q320 207 320 203V171ZM448 299H64V384H448ZM384 53 422 91Q406 107 384.0 107.0Q362 107 346.5 91.0Q331 75 331.0 53.0Q331 31 346.5 15.5Q362 0 384 0Q397 0 408.0 5.5Q419 11 427 21H463Q454 -3 432.5 -17.5Q411 -32 384 -32Q349 -32 324.0 -7.0Q299 18 299.0 53.5Q299 89 324.0 114.0Q349 139 384.0 139.0Q419 139 444 114L469 139V53Z" />
      </g>
    </svg>