<svg xmlns="http://www.w3.org/2000/svg" viewBox="64 -64 446 448">
      <g transform="scale(1 -1) translate(0 -320)">
        <path d="M384 190V235H427V190Q415 192 405.0 192.0Q395 192 384 190ZM203 213Q198 213 195.0 210.0Q192 207 192 203V171H320V203Q320 207 317.0 210.0Q314 213 309 213ZM128 43V235H85V0H262Q256 21 256 43ZM448 256H64V384H448ZM405 341H107V299H405ZM508 13Q509 13 509.0 11.5Q509 10 508 9L486 -28Q484 -30 480 -30L454 -21L437 -32L433 -60Q433 -61 431.5 -62.5Q430 -64 429 -64H386Q384 -64 380 -60L375 -32Q366 -29 358 -21L333 -32Q329 -32 326 -30L305 6Q303 9 307 13L331 30V51L307 68Q305 70 305 75L326 111Q329 113 333 113L358 102L375 113L380 141Q380 145 386 145H429Q430 145 431.5 143.5Q433 142 433 141L437 113Q444 111 457 102L482 113Q489 113 489 111L510 75Q512 73 508 68L484 51V30ZM437 43Q437 55 427.5 65.0Q418 75 405.5 75.0Q393 75 383.0 65.0Q373 55 373.0 42.5Q373 30 383.0 20.5Q393 11 405.5 11.0Q418 11 427.5 20.5Q437 30 437 43Z" />
      </g>
    </svg>