<svg xmlns="http://www.w3.org/2000/svg" viewBox="43 -30 456 435">
      <g transform="scale(1 -1) translate(0 -375)">
        <path d="M427 320H43V405H427ZM235 192H171V224Q171 228 174.0 231.5Q177 235 181 235H278Q307 253 340.5 255.5Q374 258 405 245V299H64V21H252Q219 56 214.5 104.0Q210 152 235 192ZM499 0 469 -30 403 36Q379 21 352 21Q312 21 284.0 49.0Q256 77 256.0 117.0Q256 157 284.0 185.0Q312 213 352.0 213.0Q392 213 420.0 185.0Q448 157 448 117Q448 89 433 66ZM405 117Q405 139 389.5 155.0Q374 171 352.0 171.0Q330 171 314.5 155.0Q299 139 299.0 117.0Q299 95 314.5 79.5Q330 64 352.0 64.0Q374 64 389.5 79.5Q405 95 405 117Z" />
      </g>
    </svg>