<svg xmlns="http://www.w3.org/2000/svg" viewBox="64 -21 427 405">
      <g transform="scale(1 -1) translate(0 -363)">
        <path d="M448 299H64V384H448ZM405 256Q416 256 427 254V277H85V0H278Q277 2 277 6V81Q277 96 284.0 110.0Q291 124 303 134V160L304 171H192V203Q192 207 195.0 210.0Q198 213 203 213H309Q315 213 318 209Q332 230 355.0 243.0Q378 256 405 256ZM465 107H373V160Q373 172 382.5 180.0Q392 188 405.5 188.0Q419 188 428.0 180.0Q437 172 437 160V149H465V160Q465 182 446.5 197.5Q428 213 405.0 213.0Q382 213 364.0 197.5Q346 182 346 160V107Q336 107 328.0 99.0Q320 91 320 81V6Q320 -5 328.0 -13.0Q336 -21 346 -21H463Q474 -21 482.5 -13.5Q491 -6 491 4V79Q491 90 483.0 98.5Q475 107 465 107Z" />
      </g>
    </svg>