<svg xmlns="http://www.w3.org/2000/svg" viewBox="64 -43 427 427">
      <g transform="scale(1 -1) translate(0 -341)">
        <path d="M395 192Q409 192 427 188V277H85V0H267Q256 26 256 53Q256 91 274.5 123.0Q293 155 325.0 173.5Q357 192 395 192ZM192 171V203Q192 207 195.0 210.0Q198 213 203 213H309Q314 213 317.0 210.0Q320 207 320 203V171ZM448 299H64V384H448ZM395 149Q355 149 327.0 121.0Q299 93 299.0 53.0Q299 13 327.0 -15.0Q355 -43 395.0 -43.0Q435 -43 463.0 -15.0Q491 13 491.0 53.0Q491 93 463.0 121.0Q435 149 395 149ZM395 -11Q368 -11 349.5 8.0Q331 27 331 53Q331 71 340 85L427 -2Q413 -11 395 -11ZM450 21 363 108Q377 117 395 117Q421 117 440.0 98.5Q459 80 459 53Q459 35 450 21Z" />
      </g>
    </svg>