<svg xmlns="http://www.w3.org/2000/svg" viewBox="43 -43 448 448">
      <g transform="scale(1 -1) translate(0 -362)">
        <path d="M427 405H43V277H427ZM384 320H85V363H384ZM341 256Q300 256 265 235H181Q177 235 174.0 231.5Q171 228 171 224V192H219Q192 154 192 107Q192 86 198 64H107V256H64V21H219Q240 -8 272.0 -25.5Q304 -43 341 -43Q382 -43 416.5 -23.0Q451 -3 471.0 31.5Q491 66 491.0 106.5Q491 147 471.0 181.5Q451 216 416.5 236.0Q382 256 341 256ZM341 0Q312 0 287.5 14.5Q263 29 249.0 53.5Q235 78 235.0 107.0Q235 136 249.0 160.5Q263 185 287.5 199.0Q312 213 341.0 213.0Q370 213 394.5 199.0Q419 185 433.5 160.5Q448 136 448.0 107.0Q448 78 433.5 53.5Q419 29 394.5 14.5Q370 0 341 0ZM352 101 413 65 397 39 320 85V192H352Z" />
      </g>
    </svg>