<svg xmlns="http://www.w3.org/2000/svg" viewBox="64 0 384 384">
      <g transform="scale(1 -1) translate(0 -384)">
        <path d="M149 282V101H236L249 121Q267 148 297 163Q324 176 351 176Q368 176 380 171Q403 160 405 134Q407 115 398.0 98.0Q389 81 373.0 70.0Q357 59 327 51Q292 43 253 43Q174 43 109 79Q124 203 149 282ZM149 384Q127 354 109 296Q94 250 83 188Q74 143 68 96L64 57Q108 27 159 13Q205 0 253 0Q298 0 339 11Q376 20 398 35Q429 56 441.5 91.5Q454 127 443 159Q432 194 398 209Q377 219 351 219Q313 219 276 200Q236 179 213 144H192V297H235L256 363Z" />
      </g>
    </svg>