<svg xmlns="http://www.w3.org/2000/svg" viewBox="43 -21 448 448">
      <g transform="scale(1 -1) translate(0 -406)">
        <path d="M256 341H192L277 427L363 341H299V247Q275 232 256 211ZM222 128H181L166 171H98L83 128H43L111 320H154ZM157 199 132 277 108 199ZM491 213 405 299V235Q367 236 334.0 219.0Q301 202 280.0 171.5Q259 141 256 103Q231 94 219.5 70.0Q208 46 217.0 21.0Q226 -4 250.0 -15.5Q274 -27 299.0 -18.0Q324 -9 335.5 15.0Q347 39 338 64Q333 78 322.5 88.0Q312 98 299 103Q303 141 328 164Q347 181 375 188Q391 193 404 193V129Z" />
      </g>
    </svg>