<svg xmlns="http://www.w3.org/2000/svg" viewBox="43 -21 426 426">
      <g transform="scale(1 -1) translate(0 -384)">
        <path d="M256 21Q210 21 170.5 44.0Q131 67 108.0 106.5Q85 146 85.0 192.0Q85 238 108.0 277.5Q131 317 170.5 340.0Q210 363 256.0 363.0Q302 363 341.5 340.0Q381 317 404.0 277.5Q427 238 427.0 192.0Q427 146 404.0 106.5Q381 67 341.5 44.0Q302 21 256 21ZM256 -21Q314 -21 363.0 7.5Q412 36 440.5 85.0Q469 134 469.0 192.0Q469 250 440.5 299.0Q412 348 363.0 376.5Q314 405 256.0 405.0Q198 405 149.0 376.5Q100 348 71.5 299.0Q43 250 43.0 192.0Q43 134 71.5 85.0Q100 36 149.0 7.5Q198 -21 256 -21ZM296 182 341 227V107H221L266 152L160 258L190 288Z" />
      </g>
    </svg>