<svg xmlns="http://www.w3.org/2000/svg" viewBox="43 -21 448 448">
      <g transform="scale(1 -1) translate(0 -406)">
        <path d="M405 128V192Q378 192 352 180Q306 157 300 102Q325 94 336.5 70.0Q348 46 339.0 21.0Q330 -4 306.0 -15.5Q282 -27 257.0 -18.0Q232 -9 220.5 14.5Q209 38 218 63Q222 77 232.5 87.5Q243 98 257 102Q260 140 281.0 171.0Q302 202 335.0 219.0Q368 236 405 235V299L491 213ZM299 43Q299 52 292.5 58.0Q286 64 277.0 64.0Q268 64 262.0 58.0Q256 52 256.0 43.0Q256 34 262.0 27.5Q268 21 277.0 21.0Q286 21 292.5 27.5Q299 34 299 43ZM256 211Q275 232 299 247V341H363L277 427L192 341H256ZM154 320H111L43 128H83L98 171H166L181 128H222ZM108 199 132 277 157 199Z" />
      </g>
    </svg>