<svg xmlns="http://www.w3.org/2000/svg" viewBox="43 -21 426 448">
      <g transform="scale(1 -1) translate(0 -406)">
        <path d="M235 341H171L256 427L341 341H277V247Q254 232 235 211ZM469 213 384 299V235Q346 236 313.0 219.0Q280 202 259.0 171.5Q238 141 235 103Q210 94 198.5 70.0Q187 46 195.5 21.0Q204 -4 228.0 -15.5Q252 -27 277.0 -18.0Q302 -9 313.5 15.0Q325 39 316 64Q312 78 301.5 88.0Q291 98 277 103Q282 141 307 164Q325 181 353 188Q370 193 383 193V129ZM227 201Q183 235 128 235V299L43 213L128 128V192Q173 191 206 162Q214 183 227 201Z" />
      </g>
    </svg>