<svg xmlns="http://www.w3.org/2000/svg" viewBox="43 -21 426 448">
      <g transform="scale(1 -1) translate(0 -406)">
        <path d="M206 162Q173 191 128 192V128L43 213L128 299V235Q183 235 227 201Q214 183 206 162ZM384 128V192Q356 192 331 180Q284 157 278 102Q303 94 314.5 70.0Q326 46 317.5 21.0Q309 -4 285.0 -15.5Q261 -27 236.0 -18.0Q211 -9 199.5 14.5Q188 38 197 63Q201 77 211.5 87.5Q222 98 236 102Q239 140 259.5 171.0Q280 202 313.0 219.0Q346 236 384 235V299L469 213ZM277 43Q277 52 271.0 58.0Q265 64 256.0 64.0Q247 64 241.0 58.0Q235 52 235.0 43.0Q235 34 241.0 27.5Q247 21 256.0 21.0Q265 21 271.0 27.5Q277 34 277 43ZM235 211Q254 232 277 247V341H341L256 427L171 341H235Z" />
      </g>
    </svg>