<svg xmlns="http://www.w3.org/2000/svg" viewBox="85 -21 342 426">
      <g transform="scale(1 -1) translate(0 -384)">
        <path d="M401 213V245Q401 267 382.5 283.0Q364 299 341.0 299.0Q318 299 300.0 283.0Q282 267 282 245V213Q272 213 264.0 205.0Q256 197 256 188V113Q256 102 264.0 93.5Q272 85 282 85H399Q410 85 418.5 93.0Q427 101 427 111V186Q427 197 419.0 205.0Q411 213 401 213ZM373 213H309V245Q309 258 318.5 265.5Q328 273 341.5 273.0Q355 273 364.0 265.5Q373 258 373 245ZM192 320H256L171 405L85 320H149V64H85L171 -21L256 64H192Z" />
      </g>
    </svg>