<svg xmlns="http://www.w3.org/2000/svg" viewBox="43 21 426 363">
      <g transform="scale(1 -1) translate(0 -405)">
        <path d="M316 299V331Q316 353 297.5 368.5Q279 384 256.0 384.0Q233 384 214.5 368.5Q196 353 196 331V299Q187 299 179.0 291.0Q171 283 171 273V198Q171 187 178.5 179.0Q186 171 196 171H314Q325 171 333.0 178.5Q341 186 341 196V271Q341 282 333.5 290.5Q326 299 316 299ZM288 299H224V331Q224 343 233.5 350.5Q243 358 256.0 358.0Q269 358 278.5 350.5Q288 343 288 331ZM128 85V21L43 107L128 192V128H384V192L469 107L384 21V85Z" />
      </g>
    </svg>