<svg xmlns="http://www.w3.org/2000/svg" viewBox="43 -21 426 426">
      <g transform="scale(1 -1) translate(0 -384)">
        <path d="M256 128Q281 128 300.5 147.5Q320 167 320.0 192.0Q320 217 300.5 236.5Q281 256 256.0 256.0Q231 256 211.5 236.5Q192 217 192.0 192.0Q192 167 211.5 147.5Q231 128 256 128ZM256 405Q343 405 406.0 342.0Q469 279 469 192V161Q469 130 447.5 107.5Q426 85 395 85Q356 85 332 117Q300 85 256.5 85.0Q213 85 181.0 117.0Q149 149 149.0 192.0Q149 235 181.0 267.0Q213 299 256.0 299.0Q299 299 331.0 267.0Q363 235 363 192V161Q363 148 372.5 138.0Q382 128 395.0 128.0Q408 128 417.5 138.0Q427 148 427 161V192Q427 262 376.5 312.5Q326 363 256.0 363.0Q186 363 135.5 312.5Q85 262 85.0 192.0Q85 122 135.5 71.5Q186 21 256 21H363V-21H256Q169 -21 106.0 42.0Q43 105 43.0 192.0Q43 279 106.0 342.0Q169 405 256 405Z" />
      </g>
    </svg>