<svg xmlns="http://www.w3.org/2000/svg" viewBox="42 -21 426 426">
      <g transform="scale(1 -1) translate(0 -384)">
        <path d="M169 208Q166 212 161.0 213.0Q156 214 153.0 211.0Q150 208 148 206L44 -3Q42 -8 43.5 -13.0Q45 -18 49 -20Q51 -21 55 -21H201Q209 -21 212 -15Q227 17 227.0 58.0Q227 99 211.5 139.0Q196 179 169 208ZM246 399Q206 337 202.0 264.5Q198 192 230 126L300 -15Q304 -21 311 -21H457Q462 -21 465.5 -17.5Q469 -14 469.0 -9.5Q469 -5 468 -3L267 399Q265 403 260.5 404.5Q256 406 252.0 404.0Q248 402 246 399Z" />
      </g>
    </svg>