<svg xmlns="http://www.w3.org/2000/svg" viewBox="43 -21 426 426">
      <g transform="scale(1 -1) translate(0 -384)">
        <path d="M392 392Q418 392 437.0 373.0Q456 354 456.0 327.5Q456 301 437.0 282.5Q418 264 391.5 264.0Q365 264 346.5 282.5Q328 301 328 328Q328 337 331 346Q295 363 256 363Q210 363 170.5 340.0Q131 317 108.0 277.5Q85 238 85 192L86 174L44 170L43 192Q43 234 59.0 273.5Q75 313 105.0 343.0Q135 373 174.5 389.0Q214 405 256 405Q309 405 356 381Q372 392 392 392ZM392 349Q383 349 376.5 343.0Q370 337 370.0 328.0Q370 319 376.5 312.5Q383 306 392.0 306.0Q401 306 407.0 312.5Q413 319 413.0 328.0Q413 337 407.0 343.0Q401 349 392 349ZM120 120Q147 120 165.5 101.5Q184 83 184 56Q184 47 181 38Q217 21 256 21Q302 21 341.5 44.0Q381 67 404.0 106.5Q427 146 427 192L426 210L468 214L469 192Q469 150 453.0 110.5Q437 71 407.0 41.0Q377 11 337.5 -5.0Q298 -21 256 -21Q203 -21 156 3Q140 -8 120 -8Q94 -8 75.0 11.0Q56 30 56.0 56.5Q56 83 75.0 101.5Q94 120 120 120ZM120 78Q111 78 105.0 71.5Q99 65 99.0 56.0Q99 47 105.0 41.0Q111 35 120.0 35.0Q129 35 135.5 41.0Q142 47 142.0 56.0Q142 65 135.5 71.5Q129 78 120 78ZM256 277Q291 277 316.0 252.0Q341 227 341.0 192.0Q341 157 316.0 132.0Q291 107 256.0 107.0Q221 107 196.0 132.0Q171 157 171.0 192.0Q171 227 196.0 252.0Q221 277 256 277Z" />
      </g>
    </svg>