<svg xmlns="http://www.w3.org/2000/svg" viewBox="73 9 365 365">
      <g transform="scale(1 -1) translate(0 -383)">
        <path d="M256 213Q265 213 271.0 207.0Q277 201 277.0 192.0Q277 183 271.0 177.0Q265 171 256.0 171.0Q247 171 241.0 177.0Q235 183 235.0 192.0Q235 201 241.0 207.0Q247 213 256 213ZM90 358Q113 381 158.0 372.5Q203 364 256 329Q309 364 354.0 372.5Q399 381 422.0 358.0Q445 335 436.5 290.0Q428 245 393 192Q428 139 436.5 94.0Q445 49 422.0 26.0Q399 3 354.0 11.5Q309 20 256 55Q203 20 158.0 11.5Q113 3 90.0 26.0Q67 49 75.5 94.0Q84 139 119 192Q84 245 75.5 290.0Q67 335 90 358ZM332 268Q350 249 368 227Q390 262 396.5 289.0Q403 316 391.5 327.5Q380 339 353.0 332.5Q326 326 291 304Q313 286 332 268ZM180 116Q162 135 144 157Q122 122 115.5 95.0Q109 68 120.5 56.5Q132 45 159.0 51.5Q186 58 221 80Q199 98 180 116ZM120 328Q109 316 115.5 289.0Q122 262 144 227Q162 249 180.5 267.5Q199 286 221 304Q186 326 159.0 332.5Q132 339 120 328ZM211 147Q232 126 256 106Q280 126 301.0 147.0Q322 168 342 192Q322 216 301.0 237.0Q280 258 256 278Q232 258 211.0 237.0Q190 216 170 192Q190 168 211 147ZM392 56Q403 68 396.5 95.0Q390 122 368 157Q350 135 331.5 116.5Q313 98 291 80Q326 58 353.0 51.5Q380 45 392 56Z" />
      </g>
    </svg>