<svg xmlns="http://www.w3.org/2000/svg" viewBox="43 -21 437 320">
      <g transform="scale(1 -1) translate(0 -278)">
        <path d="M354 160Q329 149 310 128H203Q181 128 165.0 143.5Q149 159 149.0 181.0Q149 203 165.0 219.0Q181 235 203 235H363V203H203Q194 203 187.5 196.5Q181 190 181.0 181.5Q181 173 187.5 166.5Q194 160 203 160ZM75 181Q75 217 100.0 242.0Q125 267 160 267H384Q406 267 421.5 251.0Q437 235 437 213Q437 200 431.0 188.5Q425 177 415 170Q434 169 452 162Q469 185 469 213Q469 249 444.0 274.0Q419 299 384 299H160Q128 299 101.0 283.0Q74 267 58.5 240.0Q43 213 43.0 181.0Q43 149 58.5 122.5Q74 96 101.0 80.0Q128 64 160 64H279Q282 80 289 96H160Q125 96 100.0 121.0Q75 146 75 181ZM455 110 379 33 345 67 320 43 379 -21 480 80Z" />
      </g>
    </svg>