<svg xmlns="http://www.w3.org/2000/svg" viewBox="43 64 426 235">
      <g transform="scale(1 -1) translate(0 -363)">
        <path d="M160 64Q137 64 115.5 73.0Q94 82 77.5 98.5Q61 115 52.0 136.5Q43 158 43 181Q43 213 58.5 240.0Q74 267 101.0 283.0Q128 299 160 299H384Q419 299 444.0 274.0Q469 249 469.0 213.5Q469 178 444.0 153.0Q419 128 384 128H203Q181 128 165.0 143.5Q149 159 149.0 181.0Q149 203 165.0 219.0Q181 235 203 235H363V203H203Q194 203 187.5 196.5Q181 190 181.0 181.0Q181 172 187.5 166.0Q194 160 203 160H384Q406 160 421.5 175.5Q437 191 437.0 213.0Q437 235 421.5 251.0Q406 267 384 267H160Q125 267 100.0 242.0Q75 217 75.0 181.5Q75 146 100.0 121.0Q125 96 160 96H363V64Z" />
      </g>
    </svg>