<svg xmlns="http://www.w3.org/2000/svg" viewBox="43 -43 448 342">
      <g transform="scale(1 -1) translate(0 -256)">
        <path d="M160 96H289Q282 80 279 64H160Q128 64 101.0 80.0Q74 96 58.5 122.5Q43 149 43.0 181.0Q43 213 58.5 240.0Q74 267 101.0 283.0Q128 299 160 299H384Q419 299 444.0 274.0Q469 249 469 213Q469 185 452 162Q434 169 415 170Q425 177 431.0 188.5Q437 200 437 213Q437 235 421.5 251.0Q406 267 384 267H160Q125 267 100.0 242.0Q75 217 75.0 181.5Q75 146 100.0 121.0Q125 96 160 96ZM203 160Q194 160 187.5 166.5Q181 173 181.0 181.5Q181 190 187.5 196.5Q194 203 203 203H363V235H203Q181 235 165.0 219.0Q149 203 149.0 181.0Q149 159 165.0 143.5Q181 128 203 128H310Q329 149 354 160ZM427 64V128H384V64H320V21H384V-43H427V21H491V64Z" />
      </g>
    </svg>