<svg xmlns="http://www.w3.org/2000/svg" viewBox="43 -43 426 384">
      <g transform="scale(1 -1) translate(0 -298)">
        <path d="M384 171Q361 171 342.5 155.0Q324 139 324 117V85Q315 85 307.0 77.0Q299 69 299 60V-15Q299 -26 306.5 -34.5Q314 -43 324 -43H442Q453 -43 461.0 -35.0Q469 -27 469 -17V58Q469 69 461.5 77.0Q454 85 444 85V117Q444 139 425.5 155.0Q407 171 384 171ZM384 145Q397 145 406.5 137.5Q416 130 416 117V85H352V117Q352 130 361.5 137.5Q371 145 384 145ZM160 341Q129 341 102.0 325.0Q75 309 59.0 282.0Q43 255 43.0 224.0Q43 193 59.0 166.0Q75 139 102.0 123.0Q129 107 160 107H282V117Q282 132 284 139H160Q125 139 100.0 164.0Q75 189 75.0 224.0Q75 259 100.0 284.0Q125 309 160 309H384Q406 309 421.5 293.5Q437 278 437 256Q437 242 430.0 229.5Q423 217 410 209Q422 207 444 194Q469 220 469.0 255.5Q469 291 444.0 316.0Q419 341 384 341ZM203 277Q180 277 164.5 261.5Q149 246 149.0 224.0Q149 202 164.5 186.5Q180 171 203 171H299Q315 193 337 203H203Q193 203 187.0 208.5Q181 214 181.0 224.0Q181 234 187.0 239.5Q193 245 203 245H363V277Z" />
      </g>
    </svg>