<svg xmlns="http://www.w3.org/2000/svg" viewBox="0 43 512 298">
      <g transform="scale(1 -1) translate(0 -384)">
        <path d="M427 213Q418 213 416 211L371 256H427V320L348 279L286 341H192V299H269L311 256H235L149 213L107 256H0V213H85Q50 213 25.0 188.0Q0 163 0.0 128.0Q0 93 25.0 68.0Q50 43 85.5 43.0Q121 43 146.0 68.0Q171 93 171 128L213 85H277L352 215L373 194Q359 183 350.0 165.0Q341 147 341 128Q341 93 366.0 68.0Q391 43 426.5 43.0Q462 43 487.0 68.0Q512 93 512.0 128.0Q512 163 487.0 188.0Q462 213 427 213ZM85 85Q68 85 55.5 97.5Q43 110 43.0 128.0Q43 146 55.5 158.5Q68 171 85.5 171.0Q103 171 115.5 158.5Q128 146 128.0 128.0Q128 110 115.5 97.5Q103 85 85 85ZM427 85Q409 85 396.5 97.5Q384 110 384.0 128.0Q384 146 396.5 158.5Q409 171 426.5 171.0Q444 171 456.5 158.5Q469 146 469.0 128.0Q469 110 456.5 97.5Q444 85 427 85Z" />
      </g>
    </svg>