<svg xmlns="http://www.w3.org/2000/svg" viewBox="23 -36 448 448">
      <g transform="scale(1 -1) translate(0 -376)">
        <path d="M471 -11 51 412 23 384 109 299H85Q68 299 55.5 286.5Q43 274 43 256V128Q43 110 55.5 97.5Q68 85 85 85H107V64Q107 54 112.5 48.5Q118 43 128 43H171Q180 43 186.0 48.5Q192 54 192 64V85H320V64Q320 54 326.0 48.5Q332 43 341 43H365L444 -36ZM128 128H85V149H128ZM85 192V235H173L215 192ZM213 128H171V149H213ZM256 128V149H258L279 128ZM299 235V218L431 85Q447 87 458.0 99.0Q469 111 469 128V256Q469 274 456.5 286.5Q444 299 427 299H218L282 235ZM384 256Q402 256 414.5 243.5Q427 231 427.0 213.5Q427 196 414.5 183.5Q402 171 384.0 171.0Q366 171 353.5 183.5Q341 196 341.0 213.5Q341 231 353.5 243.5Q366 256 384 256Z" />
      </g>
    </svg>