<svg xmlns="http://www.w3.org/2000/svg" viewBox="107 -43 298 470">
      <g transform="scale(1 -1) translate(0 -384)">
        <path d="M235 320V192H107V320H149V405Q149 414 155.5 420.5Q162 427 170.5 427.0Q179 427 185.5 420.5Q192 414 192 405V320ZM107 149V107Q107 86 118.5 69.5Q130 53 149 47V-43H192V47Q211 53 223.0 69.5Q235 86 235 107V149ZM363 320V405Q363 414 356.5 420.5Q350 427 341.5 427.0Q333 427 326.5 420.5Q320 414 320 405V320H277V192H405V320ZM277 149V107Q277 86 289.0 69.5Q301 53 320 47V-43H363V47Q382 53 393.5 69.5Q405 86 405 107V149Z" />
      </g>
    </svg>