<svg xmlns="http://www.w3.org/2000/svg" viewBox="43 -21 426 426">
      <g transform="scale(1 -1) translate(0 -384)">
        <path d="M256 363Q302 363 341.5 340.0Q381 317 404.0 277.5Q427 238 427.0 192.0Q427 146 404.0 106.5Q381 67 341.5 44.0Q302 21 256.0 21.0Q210 21 170.5 44.0Q131 67 108.0 106.5Q85 146 85.0 192.0Q85 238 108.0 277.5Q131 317 170.5 340.0Q210 363 256 363ZM256 405Q198 405 149.0 376.5Q100 348 71.5 299.0Q43 250 43.0 192.0Q43 134 71.5 85.0Q100 36 149.0 7.5Q198 -21 256.0 -21.0Q314 -21 363.0 7.5Q412 36 440.5 85.0Q469 134 469.0 192.0Q469 250 440.5 299.0Q412 348 363.0 376.5Q314 405 256 405ZM288 96Q288 109 278.5 118.5Q269 128 256.0 128.0Q243 128 233.5 118.5Q224 109 224.0 96.0Q224 83 233.5 73.5Q243 64 256.0 64.0Q269 64 278.5 73.5Q288 83 288 96ZM192 192Q192 205 182.5 214.5Q173 224 160.0 224.0Q147 224 137.5 214.5Q128 205 128.0 192.0Q128 179 137.5 169.5Q147 160 160.0 160.0Q173 160 182.5 169.5Q192 179 192 192ZM384 192Q384 205 374.5 214.5Q365 224 352.0 224.0Q339 224 329.5 214.5Q320 205 320.0 192.0Q320 179 329.5 169.5Q339 160 352.0 160.0Q365 160 374.5 169.5Q384 179 384 192Z" />
      </g>
    </svg>