<svg xmlns="http://www.w3.org/2000/svg" viewBox="85 -43 342 470">
      <g transform="scale(1 -1) translate(0 -384)">
        <path d="M256 320V256L341 341L256 427V363Q210 363 170.5 340.0Q131 317 108.0 277.5Q85 238 85 192Q85 143 112 101L143 132Q128 160 128 192Q128 227 145.0 256.5Q162 286 191.5 303.0Q221 320 256 320ZM400 283 369 252Q384 223 384 192Q384 157 367.0 127.5Q350 98 320.5 81.0Q291 64 256 64V128L171 43L256 -43V21Q302 21 341.5 44.0Q381 67 404.0 106.5Q427 146 427 192Q427 241 400 283Z" />
      </g>
    </svg>