<svg xmlns="http://www.w3.org/2000/svg" viewBox="21 -43 448 448">
      <g transform="scale(1 -1) translate(0 -362)">
        <path d="M160 329 107 299 137 352 107 405 160 375 213 405 183 352 213 299ZM416 119 469 149 439 96 469 43 416 73 363 43 393 96 363 149ZM469 405 439 352 469 299 416 329 363 299 393 352 363 405 416 375ZM285 175 337 227 291 273 239 221ZM307 292 356 243Q363 237 363.0 228.0Q363 219 356 212L108 -36Q101 -43 92.0 -43.0Q83 -43 77 -36L28 13Q21 19 21.0 28.0Q21 37 28 44L276 292Q283 299 292.0 299.0Q301 299 307 292Z" />
      </g>
    </svg>