<svg xmlns="http://www.w3.org/2000/svg" viewBox="64 0 384 384">
      <g transform="scale(1 -1) translate(0 -384)">
        <path d="M235 85Q235 76 241.0 70.0Q247 64 256.0 64.0Q265 64 271.0 70.0Q277 76 277.0 85.0Q277 94 271.0 100.5Q265 107 256.0 107.0Q247 107 241.0 100.5Q235 94 235 85ZM235 384V299H277V340Q313 334 342.5 313.5Q372 293 388.5 261.0Q405 229 405 192Q405 151 385.0 117.0Q365 83 331.0 63.0Q297 43 256.0 43.0Q215 43 181.0 63.0Q147 83 127.0 117.0Q107 151 107 192Q107 245 140 286L256 171L286 201L141 346V345Q105 319 84.5 278.5Q64 238 64 192Q64 140 90.0 96.0Q116 52 160.0 26.0Q204 0 256.0 0.0Q308 0 352.0 26.0Q396 52 422.0 96.0Q448 140 448.0 192.0Q448 244 422.0 288.0Q396 332 352.0 358.0Q308 384 256 384ZM384 192Q384 201 378.0 207.0Q372 213 363.0 213.0Q354 213 347.5 207.0Q341 201 341.0 192.0Q341 183 347.5 177.0Q354 171 363.0 171.0Q372 171 378.0 177.0Q384 183 384 192ZM128 192Q128 183 134.0 177.0Q140 171 149.0 171.0Q158 171 164.5 177.0Q171 183 171.0 192.0Q171 201 164.5 207.0Q158 213 149.0 213.0Q140 213 134.0 207.0Q128 201 128 192Z" />
      </g>
    </svg>