<svg xmlns="http://www.w3.org/2000/svg" viewBox="42 64 426 255">
      <g transform="scale(1 -1) translate(0 -383)">
        <path d="M163 227Q163 218 164 213L169 204Q170 202 170.0 200.0Q170 198 167 196L158 190Q156 189 154.5 189.0Q153 189 150.0 191.5Q147 194 145 198L141 206Q124 186 99 186Q81 186 70.5 196.5Q60 207 60.0 224.0Q60 241 73.5 252.5Q87 264 108 264Q114 264 122.5 263.0Q131 262 139 260V270Q139 286 132.5 292.5Q126 299 110 299Q102 299 93.5 297.0Q85 295 79 293L72 291Q69 291 69 295V302Q69 305 70.0 306.5Q71 308 74 309Q81 314 91.5 316.5Q102 319 114 319Q139 319 151.0 307.5Q163 296 163 272V227ZM105 205Q112 205 119.5 207.5Q127 210 133 217Q137 221 139 226L140 244Q137 245 132 245L127 246L113 247Q99 247 92.0 241.5Q85 236 85.0 225.5Q85 215 90.0 210.0Q95 205 105 205ZM219 190Q216 190 214.0 192.0Q212 194 211 196L177 307L176 312Q176 316 180 316H193Q198 316 199.5 314.5Q201 313 202 308L226 215L248 308Q249 313 251.0 314.5Q253 316 256 316H268Q272 316 273.5 314.5Q275 313 276 308L299 213L323 308Q324 312 326.0 314.0Q328 316 331 316H345Q348 316 348 312L313 196Q311 192 309.5 190.5Q308 189 304 189H292Q289 189 286.5 191.0Q284 193 284 196L262 288L240 197Q239 193 237.0 191.5Q235 190 231 190ZM402 186Q390 186 379.5 188.5Q369 191 364 194Q360 196 359.0 198.0Q358 200 358 202V209Q358 213 361 213H364L368 212Q375 208 383.5 206.5Q392 205 400 205Q414 205 421.0 210.0Q428 215 428 223Q428 229 424.0 233.0Q420 237 410 240L389 247Q373 252 366.5 261.5Q360 271 360 282Q360 291 363.5 297.5Q367 304 374.0 309.0Q381 314 389.0 316.5Q397 319 406 319H416L425 317L433 315L439 312Q442 310 443.5 308.5Q445 307 445 304V297Q445 293 442.5 293.0Q440 293 436 294Q424 300 409 300Q397 300 390.0 296.0Q383 292 383 283Q383 277 387.0 273.0Q391 269 403 265L423 259Q438 255 445.0 246.0Q452 237 452 225Q452 217 448.0 209.0Q444 201 438.0 196.5Q432 192 422.5 189.0Q413 186 402 186ZM428 117Q394 92 346 77Q301 64 256 64Q195 64 141.0 85.0Q87 106 45 144Q41 147 43.5 150.0Q46 153 49 151Q96 124 150.0 109.5Q204 95 260 95Q345 95 422 128Q428 130 431.0 125.5Q434 121 428 117ZM448 139Q442 146 395 141H393Q390 140 389.5 142.5Q389 145 392 147Q404 156 422 159Q437 161 451.0 159.0Q465 157 467.5 154.0Q470 151 468.5 137.0Q467 123 460 109Q453 93 441 83Q438 81 436.0 81.5Q434 82 435 85L436 86Q454 131 448 139Z" />
      </g>
    </svg>