<svg xmlns="http://www.w3.org/2000/svg" viewBox="24 -21 464 426">
      <g transform="scale(1 -1) translate(0 -384)">
        <path d="M256 149 341 235 427 149H361Q356 101 341.0 62.0Q326 23 303.5 1.0Q281 -21 256 -21Q226 -21 201.0 9.0Q176 39 163 89L200 110Q208 70 223.0 45.5Q238 21 256 21Q278 21 295.5 57.0Q313 93 318 149ZM24 83 296 240 298 223 224 149H225L45 45ZM467 339 488 301 381 240Q378 265 373 285ZM256 405Q292 405 320.5 361.5Q349 318 359 249L341 267L317 243Q311 295 294.0 329.0Q277 363 256 363Q239 363 225.0 342.0Q211 321 202.0 284.5Q193 248 192 204L149 180V192Q149 250 163.5 299.0Q178 348 202.5 376.5Q227 405 256 405Z" />
      </g>
    </svg>