<svg xmlns="http://www.w3.org/2000/svg" viewBox="43 -21 426 426">
      <g transform="scale(1 -1) translate(0 -384)">
        <path d="M299 192 213 107 299 21V87Q347 92 386.0 107.0Q425 122 447.0 144.5Q469 167 469.0 192.0Q469 217 447.0 239.5Q425 262 386.0 277.0Q347 292 299 297V254Q355 249 391.0 231.5Q427 214 427.0 192.0Q427 170 391.0 152.5Q355 135 299 130ZM85 192Q85 214 121.0 231.5Q157 249 213 254V297Q165 292 126.0 277.0Q87 262 65.0 239.5Q43 217 43 192Q43 158 82.0 130.5Q121 103 183 92L168 107L194 132Q146 139 115.5 155.5Q85 172 85 192ZM277 405H235V171L277 213ZM277 -21V0L235 43V-21Z" />
      </g>
    </svg>