<svg xmlns="http://www.w3.org/2000/svg" viewBox="46 0 445 427">
      <g transform="scale(1 -1) translate(0 -427)">
        <path d="M465 341Q475 341 483.0 333.0Q491 325 491 314V239Q491 229 482.5 221.0Q474 213 463 213H346Q336 213 328.0 221.5Q320 230 320 241V316Q320 325 328.0 333.0Q336 341 346 341V373Q346 395 364.0 411.0Q382 427 405.0 427.0Q428 427 446.5 411.0Q465 395 465 373ZM437 341V373Q437 386 428.0 393.5Q419 401 405.5 401.0Q392 401 382.5 393.5Q373 386 373 373V341ZM213 405 299 320H235V153L435 37L414 0L213 116L68 32L46 69L192 153V320H128Z" />
      </g>
    </svg>