<svg xmlns="http://www.w3.org/2000/svg" viewBox="24 -21 464 426">
      <g transform="scale(1 -1) translate(0 -384)">
        <path d="M256 235 341 149 427 235H361Q356 283 341.0 322.0Q326 361 303.5 383.0Q281 405 256 405Q226 405 201.0 375.0Q176 345 163 295L200 274Q208 314 223.0 338.5Q238 363 256 363Q278 363 295.5 327.0Q313 291 318 235ZM24 301 296 144 298 161 224 235H225L45 339ZM467 45 488 83 381 144Q378 119 373 99ZM256 -21Q292 -21 320.5 22.5Q349 66 359 135L341 117L317 141Q311 89 294.0 55.0Q277 21 256 21Q239 21 225.0 42.0Q211 63 202.0 99.5Q193 136 192 180L149 204V192Q149 134 163.5 85.0Q178 36 202.5 7.5Q227 -21 256 -21Z" />
      </g>
    </svg>