<svg xmlns="http://www.w3.org/2000/svg" viewBox="23 -21 465 426">
      <g transform="scale(1 -1) translate(0 -384)">
        <path d="M256 235H318Q313 291 295.5 327.0Q278 363 256 363Q239 363 225.0 342.0Q211 321 202.0 284.5Q193 248 192 204L149 180V192Q149 250 163.5 299.0Q178 348 202.5 376.5Q227 405 256 405Q281 405 303.5 383.0Q326 361 341.0 322.0Q356 283 361 235H427L341 149ZM256 -21Q226 -21 201.0 9.0Q176 39 163 89L200 110Q208 70 223.0 45.5Q238 21 257.0 21.0Q276 21 292.5 51.5Q309 82 316 130L341 104L356 119Q345 57 317.5 18.0Q290 -21 256 -21ZM45 45 24 83 23 84 237 208 271 174 46 44ZM467 339 488 301 410 256H379L373 285Z" />
      </g>
    </svg>