<svg xmlns="http://www.w3.org/2000/svg" viewBox="46 -26 445 453">
      <g transform="scale(1 -1) translate(0 -401)">
        <path d="M235 153 384 67 416 122 448 6 331 -26 363 30 213 116 68 32 46 69 192 153V384H235ZM465 341Q475 341 483.0 333.0Q491 325 491 314V239Q491 229 482.5 221.0Q474 213 463 213H346Q336 213 328.0 221.5Q320 230 320 241V316Q320 325 328.0 333.0Q336 341 346 341V373Q346 395 364.0 411.0Q382 427 405.0 427.0Q428 427 446.5 411.0Q465 395 465 373ZM437 341V373Q437 386 428.0 393.5Q419 401 405.5 401.0Q392 401 382.5 393.5Q373 386 373 373V341Z" />
      </g>
    </svg>