<svg xmlns="http://www.w3.org/2000/svg" viewBox="43 -21 426 426">
      <g transform="scale(1 -1) translate(0 -384)">
        <path d="M213 192 299 107 213 21V87Q165 92 126.0 107.0Q87 122 65.0 144.5Q43 167 43.0 192.0Q43 217 65.0 239.5Q87 262 126.0 277.0Q165 292 213 297V254Q157 249 121.0 231.5Q85 214 85.0 192.0Q85 170 121.0 152.5Q157 135 213 130ZM427 192Q427 214 391.0 231.5Q355 249 299 254V297Q347 292 386.0 277.0Q425 262 447.0 239.5Q469 217 469 192Q469 158 430.0 130.5Q391 103 329 92L344 107L318 132Q366 139 396.5 155.5Q427 172 427 192ZM235 405H277V171L235 213ZM235 -21V0L277 43V-21Z" />
      </g>
    </svg>