<svg xmlns="http://www.w3.org/2000/svg" viewBox="80 -21 352 426">
      <g transform="scale(1 -1) translate(0 -384)">
        <path d="M323 405Q279 401 211 375Q192 361 167 347V345Q168 345 171 346H172Q175 347 175 344L177 346H179V344Q179 343 149 321L151 318L146 319Q146 318 142 317V316L145 312Q143 312 141 313Q131 312 121 299L123 296Q131 304 133 304V300L129 298L132 293Q142 303 154 311Q161 310 161 308H164Q196 332 228 343L229 340Q222 331 220 331Q221 328 223 326Q223 320 193 252Q125 93 80 18Q80 17 82 14Q94 17 96 19H98V17H101L104 19Q104 17 107 17V15Q107 10 102 2Q98 -3 93 -20V-21H95Q115 1 123 19Q178 35 205 50Q233 52 248 64L247 66L240 64H239V65Q260 68 267 75Q311 108 328 119Q392 166 389 209Q388 214 361 244Q360 250 380 261L417 294Q429 309 432 345L431 351Q429 376 395 391Q375 404 323 405ZM368 387Q409 385 410 372L409 369ZM341 364Q370 364 371 348H373V355L376 356Q387 351 388 341Q388 335 382 327Q379 326 378 331H375V322Q357 294 348 293Q340 283 338 283Q332 275 306 259Q296 258 242 234Q240 235 236 235V237Q235 245 243 258Q246 280 252 284L283 353Q283 360 303 363L308 364V359Q328 363 332.5 363.5Q337 364 341 364ZM405 356H406Q410 356 414 343V341Q412 340 406 354ZM231 312H232L233 308Q230 308 227 302V305Q231 310 231 312ZM142 310 143 309Q142 309 140 308L139 307H137L136 309ZM218 283 219 277H217V283ZM215 273Q214 267 211 266H209Q212 271 212 273ZM209 259V257L206 253H204L203 254Q207 254 207 259ZM203 245 202 239H200V245ZM353 241 359 237Q360 234 357 234Q353 236 351 236V240ZM235 225V222H230L229 224ZM331 215Q337 212 337 210V209Q331 208 326 215ZM377 211Q381 209 382 207L383 196Q381 191 378 191ZM302 209Q325 210 336 199L337 193Q328 165 315 159L277 129Q236 102 233 102Q167 66 150 64H148Q151 72 208 185Q233 187 287 208ZM248 201V199H242V200ZM155 111Q152 96 149 96V97Q148 105 155 111ZM281 105V102Q282 101 269 91Q232 73 225 67Q185 53 185 49Q149 35 139 29Q136 28 131 31Q130 38 137 43Q145 43 149 41Q159 45 172 48V51L163 50Q165 52 189 62L193 63L194 61Q182 60 181 54Q181 52 184 52L185 53Q192 58 192 58Q207 61 281 105ZM146 92 147 91Q147 88 144 87V89Q143 91 146 92ZM213 75Q216 76 216 73Q210 72 196 64H195L194 67Q205 68 213 75ZM148 53V52Q147 52 144 50H141Q141 52 144 53ZM114 36 117 35Q115 23 109 21Q105 24 100 24V28Q100 30 102.5 30.5Q105 31 106 27Q113 36 114 36Z" />
      </g>
    </svg>