<svg xmlns="http://www.w3.org/2000/svg" viewBox="64 21 384 342">
      <g transform="scale(1 -1) translate(0 -384)">
        <path d="M395 363Q417 363 432.5 347.0Q448 331 448.0 309.0Q448 287 432.5 271.5Q417 256 395.0 256.0Q373 256 357.0 271.5Q341 287 341.0 309.0Q341 331 357.0 347.0Q373 363 395 363ZM96 21Q83 21 73.5 30.5Q64 40 64.0 53.5Q64 67 73.5 76.0Q83 85 96 85H245Q259 85 268.0 76.0Q277 67 277.0 53.5Q277 40 268.0 30.5Q259 21 245 21ZM343 43 313 128H235L144 219L153 227Q164 237 177 245Q196 257 216 264Q241 272 267 272Q309 272 327 260Q337 253 343 237L404 64Q408 52 402.5 40.0Q397 28 384.5 23.5Q372 19 360.0 24.5Q348 30 343 43Z" />
      </g>
    </svg>