<svg xmlns="http://www.w3.org/2000/svg" viewBox="46 -21 422 422">
      <g transform="scale(1 -1) translate(0 -380)">
        <path d="M241 388 230 378Q209 390 184.5 392.0Q160 394 137 387L135 388Q119 402 98.0 401.5Q77 401 62.0 386.0Q47 371 46.5 350.0Q46 329 60 313L61 311Q54 288 56.0 263.5Q58 239 70 218L60 207Q50 198 50.0 185.0Q50 172 60 162L90 132Q99 122 112.5 122.0Q126 122 135 132L143 140L294 -11Q303 -21 316.0 -21.0Q329 -21 339 -11L459 109Q469 119 469.0 132.0Q469 145 459 154L308 305L316 313Q326 322 326.0 335.5Q326 349 316 358L286 388Q276 398 263.0 398.0Q250 398 241 388ZM294 336 112 154 82 185 263 366ZM316 200 248 132 225 154 294 223ZM361 154 294 87 271 109 339 177Z" />
      </g>
    </svg>