<svg xmlns="http://www.w3.org/2000/svg" viewBox="23 -36 448 448">
      <g transform="scale(1 -1) translate(0 -376)">
        <path d="M469 235Q469 281 446.0 320.0Q423 359 384.0 382.0Q345 405 299 405V235ZM303 213H469Q469 155 433 109Q455 90 459 58ZM444 -36 471 -9 51 412 23 384 194 213H158L139 256H64V213H111L132 169Q153 123 156 119Q140 111 129.5 96.5Q119 82 117 64Q113 34 132.0 8.5Q151 -17 181.5 -21.5Q212 -26 237.0 -7.0Q262 12 267 43H311Q316 26 320 17Q334 -10 364.0 -18.5Q394 -27 420 -13ZM224 53Q224 41 214.5 31.0Q205 21 192.0 21.0Q179 21 169.5 31.0Q160 41 160.0 53.5Q160 66 169.5 75.5Q179 85 192.0 85.0Q205 85 214.5 75.5Q224 66 224 53ZM386 21Q372 21 362.0 30.5Q352 40 352 53V55Z" />
      </g>
    </svg>