<svg xmlns="http://www.w3.org/2000/svg" viewBox="21 0 470 384">
      <g transform="scale(1 -1) translate(0 -384)">
        <path d="M309 251Q320 251 328.0 243.0Q336 235 336.0 224.0Q336 213 328.0 205.0Q320 197 309.0 197.0Q298 197 290.5 205.0Q283 213 283.0 224.0Q283 235 290.5 243.0Q298 251 309 251ZM203 251Q214 251 221.5 243.0Q229 235 229.0 224.0Q229 213 221.5 205.0Q214 197 203.0 197.0Q192 197 184.0 205.0Q176 213 176.0 224.0Q176 235 184.0 243.0Q192 251 203 251ZM160 149H352Q340 121 314.0 103.0Q288 85 256.0 85.0Q224 85 198.0 103.0Q172 121 160 149ZM21 192Q21 221 38.5 243.5Q56 266 82 274Q106 323 152.5 353.5Q199 384 256.0 384.0Q313 384 359.5 353.5Q406 323 430 274Q457 266 474.0 243.5Q491 221 491.0 192.0Q491 163 474.0 140.5Q457 118 430 110Q406 61 359.5 30.5Q313 0 256.0 0.0Q199 0 152.5 30.5Q106 61 82 110Q56 118 38.5 140.5Q21 163 21 192ZM256 341Q206 341 166.5 311.0Q127 281 113 235H107Q89 235 76.5 222.5Q64 210 64.0 192.0Q64 174 76.5 161.5Q89 149 107 149H113Q127 103 166.5 73.0Q206 43 256.0 43.0Q306 43 345.5 73.0Q385 103 399 149H405Q423 149 435.5 161.5Q448 174 448.0 192.0Q448 210 435.5 222.5Q423 235 405 235H399Q385 281 345.5 311.0Q306 341 256 341Z" />
      </g>
    </svg>