<svg xmlns="http://www.w3.org/2000/svg" viewBox="64 -21 384 405">
      <g transform="scale(1 -1) translate(0 -363)">
        <path d="M363 21Q363 4 350.5 -8.5Q338 -21 320.0 -21.0Q302 -21 289.5 -8.5Q277 4 277.0 21.5Q277 39 289.5 51.5Q302 64 320.0 64.0Q338 64 350.5 51.5Q363 39 363 21ZM149 21Q149 4 136.5 -8.5Q124 -21 106.5 -21.0Q89 -21 76.5 -8.5Q64 4 64.0 21.5Q64 39 76.5 51.5Q89 64 106.5 64.0Q124 64 136.5 51.5Q149 39 149 21ZM376 384Q357 384 341 373Q330 367 315 347L122 121Q113 110 118.5 97.5Q124 85 138 85H299Q316 85 328.5 97.5Q341 110 341 128V312L349 321Q357 332 361 335Q368 341 376 341Q388 341 396.5 332.0Q405 323 405 309V299H448V309Q448 340 427.0 362.0Q406 384 376 384ZM189 382Q128 380 79 343L180 242L266 343Q277 356 284 363Q247 380 206 382Q197 382 189 382Z" />
      </g>
    </svg>