<svg xmlns="http://www.w3.org/2000/svg" viewBox="44 -21 425 425">
      <g transform="scale(1 -1) translate(0 -383)">
        <path d="M241 388 230 378Q209 390 184.5 392.0Q160 394 137 387L135 388Q120 404 97.5 404.0Q75 404 59.5 388.5Q44 373 44.0 350.5Q44 328 60 313L61 311Q54 288 56.0 263.5Q58 239 70 218L60 207Q50 198 50.0 185.0Q50 172 60 162L90 132Q99 123 112.5 123.0Q126 123 135 132L143 140L294 -11Q303 -21 316.0 -21.0Q329 -21 339 -11L459 109Q469 119 469.0 132.0Q469 145 459 155L308 305L316 313Q325 322 325.0 335.5Q325 349 316 358L286 388Q277 398 263.5 398.0Q250 398 241 388ZM91 298Q93 308 99 319L82 336Q79 339 77.0 344.0Q75 349 76.5 355.0Q78 361 82.5 365.5Q87 370 93.0 371.5Q99 373 104.0 371.0Q109 369 112 366L129 349Q140 355 150 357Q179 366 206 354L94 242Q82 269 91 298ZM437 132 316 11 165 162 286 283ZM294 336 112 154 82 185 263 366ZM316 200 248 132 225 154 294 223ZM361 154 294 87 271 109 339 177Z" />
      </g>
    </svg>