<svg xmlns="http://www.w3.org/2000/svg" viewBox="0 0 448 384">
      <g transform="scale(1 -1) translate(0 -384)">
        <path d="M256 384Q204 384 160.0 358.0Q116 332 90.0 288.0Q64 244 64 192H0L85 107L171 192H107Q107 233 127.0 267.0Q147 301 181.0 321.0Q215 341 256.0 341.0Q297 341 331.0 321.0Q365 301 385.0 267.0Q405 233 405.0 192.0Q405 151 385.0 117.0Q365 83 331.0 63.0Q297 43 256 43Q209 43 169 70L139 40Q191 0 256 0Q308 0 352.0 26.0Q396 52 422.0 96.0Q448 140 448.0 192.0Q448 244 422.0 288.0Q396 332 352.0 358.0Q308 384 256 384ZM299 192Q299 210 286.5 222.5Q274 235 256.0 235.0Q238 235 225.5 222.5Q213 210 213.0 192.0Q213 174 225.5 161.5Q238 149 256.0 149.0Q274 149 286.5 161.5Q299 174 299 192Z" />
      </g>
    </svg>