<svg xmlns="http://www.w3.org/2000/svg" viewBox="28 -21 451 426">
      <g transform="scale(1 -1) translate(0 -384)">
        <path d="M448 107Q448 120 445 135L479 151L460 190L431 175Q415 199 390 207L404 249L364 263L348 214Q311 218 292 240L330 258L310 297L277 280Q275 304 262 323L295 372L260 396L230 351Q213 359 192 361V405H149V361Q128 356 113 343L58 399L28 369L90 306Q85 290 85 277H43V235H86Q88 212 94 189L36 170L49 129L107 148Q116 128 124 116L73 82L97 46L151 82Q169 64 193 50L173 10L211 -10L232 33L229 35Q261 24 299 22V-21H341V23Q375 27 400 39L433 6L463 36L435 65Q448 83 448 107ZM181 213Q168 213 158.5 222.5Q149 232 149.0 245.5Q149 259 158.5 268.0Q168 277 181.5 277.0Q195 277 204.0 268.0Q213 259 213.0 245.5Q213 232 204.0 222.5Q195 213 181 213ZM235 149Q226 149 219.5 155.5Q213 162 213.0 171.0Q213 180 219.5 186.0Q226 192 235.0 192.0Q244 192 250.0 186.0Q256 180 256.0 171.0Q256 162 250.0 155.5Q244 149 235 149ZM331 85Q317 85 308.0 94.5Q299 104 299.0 117.5Q299 131 308.0 140.0Q317 149 330.5 149.0Q344 149 353.5 140.0Q363 131 363.0 117.5Q363 104 353.5 94.5Q344 85 331 85Z" />
      </g>
    </svg>