<svg xmlns="http://www.w3.org/2000/svg" viewBox="28 -21 451 426">
      <g transform="scale(1 -1) translate(0 -384)">
        <path d="M192 405H149V361Q128 356 113 343L58 399L28 369L90 306Q85 290 85 277H43V235H86Q88 212 94 189L36 170L49 129L107 148Q116 128 124 116L73 82L97 46L151 82Q169 64 193 50L173 10L211 -10L232 33L229 35Q261 24 299 22V-21H341V23Q375 27 400 39L433 6L463 36L435 65Q448 83 448 107Q448 120 445 135L479 151L460 190L431 175Q415 199 390 207L404 249L364 263L348 214Q311 218 292 240L330 258L310 297L277 280Q275 304 262 323L295 372L260 396L230 351Q213 359 192 361ZM320 64Q225 64 177 116Q143 153 132 215Q126 246 128 273V277Q128 295 136 306Q147 320 171 320Q207 320 223 303Q234 293 235 277Q235 254 247 231Q261 204 288 189Q319 171 363 171Q376 171 387 161Q405 145 405 107Q405 89 383 78Q368 70 342 66Q328 64 320 64ZM181 277Q168 277 158.5 268.0Q149 259 149.0 245.5Q149 232 158.5 222.5Q168 213 181.5 213.0Q195 213 204.0 222.5Q213 232 213.0 245.5Q213 259 204.0 268.0Q195 277 181 277ZM235 192Q226 192 219.5 186.0Q213 180 213.0 171.0Q213 162 219.5 155.5Q226 149 235.0 149.0Q244 149 250.0 155.5Q256 162 256.0 171.0Q256 180 250.0 186.0Q244 192 235 192ZM331 149Q317 149 308.0 140.0Q299 131 299.0 117.5Q299 104 308.0 94.5Q317 85 330.5 85.0Q344 85 353.5 94.5Q363 104 363.0 117.5Q363 131 353.5 140.0Q344 149 331 149Z" />
      </g>
    </svg>