<svg xmlns="http://www.w3.org/2000/svg" viewBox="43 -21 426 426">
      <g transform="scale(1 -1) translate(0 -384)">
        <path d="M262 405Q247 405 236.5 393.5Q226 382 226 367Q227 359 230 352L236 338Q237 336 236.0 334.0Q235 332 232.5 331.0Q230 330 227 333L218 345Q207 360 189 360Q173 360 162.0 349.5Q151 339 150.5 324.5Q150 310 159 299L168 288Q171 283 167.5 280.5Q164 278 161 280L149 289Q138 298 123.5 297.5Q109 297 98.5 286.0Q88 275 88 259Q88 241 103 230L115 221Q117 219 117.0 217.0Q117 215 114.5 213.0Q112 211 109 212L96 218Q88 221 81 222Q66 222 54.5 211.5Q43 201 43 185Q43 174 49.0 164.0Q55 154 65 150L308 42L406 140L298 383Q294 393 284.0 399.5Q274 406 262 405ZM280 318Q287 318 292.5 314.5Q298 311 301 305L366 159L281 243L262 288Q257 298 263.0 308.0Q269 318 280 318ZM210 259Q219 259 225 253L328 150Q334 144 334.5 135.5Q335 127 328.5 120.5Q322 114 313.0 114.0Q304 114 298 120L195 223Q189 229 189.0 238.0Q189 247 195.0 253.0Q201 259 210 259ZM152 188Q156 188 160 186L205 166L289 82L143 147Q133 152 131.0 162.0Q129 172 135.0 180.5Q141 189 152 188ZM433 106 342 15 360 -3Q372 -15 388.5 -19.5Q405 -24 421.5 -19.5Q438 -15 450.5 -2.5Q463 10 467.5 26.5Q472 43 467.5 59.5Q463 76 451 88Z" />
      </g>
    </svg>