<svg xmlns="http://www.w3.org/2000/svg" viewBox="43 -32 405 437">
      <g transform="scale(1 -1) translate(0 -373)">
        <path d="M43 346 70 373 448 -5 421 -32 384 5Q375 0 363 0Q363 -9 356.5 -15.0Q350 -21 341.5 -21.0Q333 -21 326.5 -15.0Q320 -9 320 0H192Q192 -9 185.5 -15.0Q179 -21 170.5 -21.0Q162 -21 155.5 -15.0Q149 -9 149 0Q131 0 119.0 12.5Q107 25 107 43V282ZM203 64H171V218L149 240V43H346L325 64H309V80L272 117V64H240V149L203 186ZM272 256V225L241 256ZM309 256H341V156L309 188ZM363 320Q381 320 393.0 307.5Q405 295 405 277V92L363 134V277H220L177 320H192V384Q192 393 198.5 399.0Q205 405 213 405H299Q307 405 313.5 399.0Q320 393 320 384V320ZM224 373V320H288V373Z" />
      </g>
    </svg>