<svg xmlns="http://www.w3.org/2000/svg" viewBox="24 -37 448 448">
      <g transform="scale(1 -1) translate(0 -374)">
        <path d="M427 35 51 411 24 384 102 306Q85 284 85 256V21Q85 4 97.5 -8.5Q110 -21 128 -21H384Q402 -21 415 -7L445 -37L472 -10ZM128 256Q128 266 133 275L280 128H128ZM384 21H128V107H171V64H192V107H301L384 24ZM341 299Q359 299 371.5 286.5Q384 274 384 256V132L427 90V256Q427 291 402.0 316.0Q377 341 341 341V363Q341 380 328.5 392.5Q316 405 299 405H213Q196 405 183.5 392.5Q171 380 171 363V346L218 299ZM213 363H299V341H213Z" />
      </g>
    </svg>