<svg xmlns="http://www.w3.org/2000/svg" viewBox="43 -21 426 426">
      <g transform="scale(1 -1) translate(0 -384)">
        <path d="M299 341V363Q299 380 286.5 392.5Q274 405 256 405H171Q153 405 140.5 392.5Q128 380 128 363V341Q93 341 68.0 316.0Q43 291 43 256V21Q43 4 55.5 -8.5Q68 -21 85 -21H324L273 30Q264 38 259.0 49.5Q254 61 254 73V107H149V64H128V107H85V128H256V132Q256 157 273.0 174.5Q290 192 316 192H384V256Q384 291 359.0 316.0Q334 341 299 341ZM213 171 171 213 213 256 256 213ZM256 341H171V363H256ZM465 68 388 145Q380 149 375 149H316Q309 149 304.0 144.0Q299 139 299 132V73Q299 68 303 60L380 -17Q384 -21 393 -21Q398 -21 403 -18L405 -17L465 43Q469 47 469 55Q469 60 465 68ZM337 96Q331 96 326.5 100.0Q322 104 321.0 110.5Q320 117 324.5 121.5Q329 126 335.0 126.0Q341 126 345.5 122.0Q350 118 351.0 111.5Q352 105 347.5 100.5Q343 96 337 96Z" />
      </g>
    </svg>