<svg xmlns="http://www.w3.org/2000/svg" viewBox="128 -21 341 426">
      <g transform="scale(1 -1) translate(0 -384)">
        <path d="M326 92 387 152 402 137 326 61 281 107 296 122ZM171 0Q153 0 140.5 12.5Q128 25 128 43V256Q128 274 140.5 286.5Q153 299 171 299ZM192 299H299V363Q281 363 268.5 375.5Q256 388 256 405H341V235Q376 235 405.5 217.5Q435 200 452.0 170.5Q469 141 469.0 106.5Q469 72 452.0 42.5Q435 13 405.5 -4.0Q376 -21 341 -21Q303 -21 271 0H192ZM341 192Q306 192 281.0 167.0Q256 142 256.0 106.5Q256 71 281.0 46.0Q306 21 341.5 21.0Q377 21 402.0 46.0Q427 71 427.0 106.5Q427 142 402.0 167.0Q377 192 341 192Z" />
      </g>
    </svg>