<svg xmlns="http://www.w3.org/2000/svg" viewBox="63 -21 382 426">
      <g transform="scale(1 -1) translate(0 -384)">
        <path d="M107 -21Q88 -21 76 6Q68 26 65 49Q61 79 72 107Q76 120 87.0 129.0Q98 138 112 141Q122 143 134 140Q141 139 155.0 133.0Q169 127 177 125Q191 121 202.0 130.5Q213 140 210 155Q204 178 165 187Q143 192 107 192Q107 219 132 229Q152 237 180.5 234.0Q209 231 236 222Q239 221 246 217Q262 209 270 210Q283 211 286.5 221.5Q290 232 284 243Q264 277 181 277Q181 307 204 318Q223 327 254 322Q281 316 307 305L314 302Q323 297 328 296Q336 293 343 295Q357 300 355 311Q354 320 344 331Q336 341 328 345Q313 353 297 358L290 359Q282 361 279.5 363.5Q277 366 282 373Q307 395 340 400Q379 409 405 403Q440 394 446 360Q451 319 428 284Q368 181 282 100Q237 53 184 15L183 14Q160 -2 147 -9Q125 -21 107 -21Z" />
      </g>
    </svg>