<svg xmlns="http://www.w3.org/2000/svg" viewBox="64 -21 384 426">
      <g transform="scale(1 -1) translate(0 -384)">
        <path d="M213 235V192H171V235ZM341 192V235H299V192ZM448 149V-21H64V149H85V235Q85 281 108.0 320.0Q131 359 170.5 382.0Q210 405 256.0 405.0Q302 405 341.5 382.0Q381 359 404.0 320.0Q427 281 427 235V149ZM149 107H107V21H149ZM235 107H192V21H235ZM235 361Q189 353 158.5 317.5Q128 282 128 235V149H235ZM277 149H384V235Q384 282 353.5 317.5Q323 353 277 361ZM320 107H277V21H320ZM405 107H363V21H405Z" />
      </g>
    </svg>