<svg xmlns="http://www.w3.org/2000/svg" viewBox="64 -43 427 427">
      <g transform="scale(1 -1) translate(0 -341)">
        <path d="M128 64V171H235V64ZM149 149V85H213V149ZM277 288H384V245H277ZM107 0Q89 0 76.5 12.5Q64 25 64 43V341Q64 359 76.5 371.5Q89 384 107 384H405Q423 384 435.5 371.5Q448 359 448 341V210Q432 213 416 213H405V341H107V43H281Q286 21 299 0ZM235 320V213H128V320ZM213 235V299H149V235ZM405 192V160Q441 160 466.0 135.0Q491 110 491 75Q491 49 476 28L453 51Q459 62 459 75Q459 97 443.0 112.5Q427 128 405 128V96L357 144ZM405 -43V-11Q370 -11 345.0 14.0Q320 39 320 75Q320 100 334 122L358 99Q352 87 352 75Q352 53 367.5 37.0Q383 21 405 21V53L453 5Z" />
      </g>
    </svg>