<svg xmlns="http://www.w3.org/2000/svg" viewBox="64 -43 427 427">
      <g transform="scale(1 -1) translate(0 -341)">
        <path d="M405 192V160Q441 160 466.0 135.0Q491 110 491 75Q491 49 476 28L453 51Q459 62 459 75Q459 97 443.0 112.5Q427 128 405 128V96L357 144ZM405 -43V-11Q370 -11 345.0 14.0Q320 39 320 75Q320 100 334 122L358 99Q352 87 352 75Q352 53 367.5 37.0Q383 21 405 21V53L453 5ZM213 85H149V149H213ZM213 299V235H149V299ZM107 0Q89 0 76.5 12.5Q64 25 64 43V341Q64 359 76.5 371.5Q89 384 107 384H405Q423 384 435.5 371.5Q448 359 448 341V210Q432 213 416 213Q378 213 346.5 194.5Q315 176 296.0 144.0Q277 112 277 75Q277 34 299 0ZM277 245H384V288H277ZM235 171H128V64H235ZM235 320H128V213H235Z" />
      </g>
    </svg>