<svg xmlns="http://www.w3.org/2000/svg" viewBox="42 -22 428 427">
      <g transform="scale(1 -1) translate(0 -383)">
        <path d="M378 192 463 276Q469 283 469.0 292.0Q469 301 463 307L371 399Q365 405 356.0 405.0Q347 405 340 399L256 314L171 399Q164 405 155.5 405.0Q147 405 141 399L48 307Q42 301 42.0 292.0Q42 283 48 276L133 192L48 107Q42 100 42.0 91.5Q42 83 48 77L141 -16Q147 -22 155.5 -22.0Q164 -22 171 -16L256 69L340 -16Q347 -22 355.5 -22.0Q364 -22 371 -16L463 77Q470 83 470.0 91.5Q470 100 463 107ZM256 256Q265 256 271.0 250.0Q277 244 277.0 235.0Q277 226 271.0 219.5Q265 213 256.0 213.0Q247 213 241.0 219.5Q235 226 235.0 235.0Q235 244 241.0 250.0Q247 256 256 256ZM156 214 78 291 156 369 233 292ZM213 171Q204 171 198.0 177.0Q192 183 192.0 192.0Q192 201 198.0 207.0Q204 213 213.0 213.0Q222 213 228.5 207.0Q235 201 235.0 192.0Q235 183 228.5 177.0Q222 171 213 171ZM256 128Q247 128 241.0 134.0Q235 140 235.0 149.0Q235 158 241.0 164.5Q247 171 256.0 171.0Q265 171 271.0 164.5Q277 158 277.0 149.0Q277 140 271.0 134.0Q265 128 256 128ZM299 213Q308 213 314.0 207.0Q320 201 320.0 192.0Q320 183 314.0 177.0Q308 171 299.0 171.0Q290 171 283.5 177.0Q277 183 277.0 192.0Q277 201 283.5 207.0Q290 213 299 213ZM355 14 278 91 355 169 433 92Z" />
      </g>
    </svg>