<svg xmlns="http://www.w3.org/2000/svg" viewBox="0 -21 512 426">
      <g transform="scale(1 -1) translate(0 -384)">
        <path d="M85 320H128V64H85ZM149 320H171V64H149ZM192 320H256V64H192ZM277 320H299V64H277ZM341 320H384V64H341ZM405 320H427V64H405ZM43 363V277H0V363Q0 380 12.5 392.5Q25 405 43 405H128V363ZM469 405Q487 405 499.5 392.5Q512 380 512 363V277H469V363H384V405ZM43 107V21H128V-21H43Q25 -21 12.5 -8.5Q0 4 0 21V107ZM469 21V107H512V21Q512 4 499.5 -8.5Q487 -21 469 -21H384V21Z" />
      </g>
    </svg>