<svg xmlns="http://www.w3.org/2000/svg" viewBox="139 -43 234 465">
      <g transform="scale(1 -1) translate(0 -379)">
        <path d="M156 57Q145 73 141 96Q139 110 139 139Q174 118 190 106Q216 88 228 71L235 59V108Q206 125 190 137Q167 154 156.0 169.5Q145 185 141 208Q139 222 139 251Q174 230 190 218Q216 200 228 183L235 171V220Q206 237 190 249Q167 266 156.0 281.5Q145 297 141 320Q139 334 139 363Q174 342 190 330Q216 312 228 295Q231 291 233 285Q227 307 227 324Q227 345 236 373Q241 389 255 422Q270 391 275 375Q285 348 285 327Q285 308 279 286L284 295Q296 312 322 330Q338 342 373 363Q373 334 371 320Q367 297 356.0 281.5Q345 266 322 249Q306 237 277 220V171L284 183Q296 200 322 218Q338 230 373 251Q373 222 371 208Q367 185 356.0 169.5Q345 154 322 137Q306 125 277 108V59L284 71Q296 88 322 106Q338 118 373 139Q373 110 371 96Q367 73 356.0 57.5Q345 42 322 25Q306 13 277 -4V-43H235V-4Q206 13 190 25Q167 42 156 57Z" />
      </g>
    </svg>