<svg xmlns="http://www.w3.org/2000/svg" viewBox="43 -53 384 475">
      <g transform="scale(1 -1) translate(0 -369)">
        <path d="M255 422Q241 389 236 373Q227 345 227 324Q227 307 233 285Q231 291 228 295Q216 312 190 330Q174 342 139 363Q139 329 143 312L277 177V220Q306 237 322 249Q345 266 356.0 281.5Q367 297 371 320Q373 334 373 363Q338 342 322 330Q296 312 284 295L279 286Q285 308 285 327Q285 348 275 375Q270 391 255 422ZM70 331 43 304 142 205Q145 184 156.0 169.0Q167 154 190 137Q206 125 235 108V59L228 71Q216 88 190 106Q174 118 139 139Q139 110 141 96Q145 73 156.0 57.5Q167 42 190 25Q206 13 235 -4V-43H277V-4Q305 12 321 25L400 -53L427 -26ZM373 251Q338 230 322 218Q296 200 284 183L280 175L320 135Q345 154 356.0 169.5Q367 185 371 208Q373 222 373 251ZM373 139Q353 127 338 117L369 86Q373 103 373 139Z" />
      </g>
    </svg>