<svg xmlns="http://www.w3.org/2000/svg" viewBox="64 0 384 384">
      <g transform="scale(1 -1) translate(0 -384)">
        <path d="M192 170Q192 144 210.5 125.5Q229 107 256.0 107.0Q283 107 301.5 125.5Q320 144 320 170Q320 187 311 200Q305 211 277 243L256 267L237 245Q207 211 201 200Q192 187 192 170ZM427 171Q435 171 441.5 177.0Q448 183 448.0 192.0Q448 201 441.5 207.0Q435 213 427 213H405V341H427Q435 341 441.5 347.5Q448 354 448.0 362.5Q448 371 441.5 377.5Q435 384 427 384H85Q77 384 70.5 377.5Q64 371 64.0 362.5Q64 354 70.5 347.5Q77 341 85 341H107V213H85Q77 213 70.5 207.0Q64 201 64.0 192.0Q64 183 70.5 177.0Q77 171 85 171H107V43H85Q77 43 70.5 36.5Q64 30 64.0 21.5Q64 13 70.5 6.5Q77 0 85 0H427Q435 0 441.5 6.5Q448 13 448.0 21.5Q448 30 441.5 36.5Q435 43 427 43H405V171ZM363 43H149V171Q158 171 164.5 177.0Q171 183 171.0 192.0Q171 201 164.5 207.0Q158 213 149 213V341H363V213Q354 213 347.5 207.0Q341 201 341.0 192.0Q341 183 347.5 177.0Q354 171 363 171Z" />
      </g>
    </svg>