<svg xmlns="http://www.w3.org/2000/svg" viewBox="43 0 426 384">
      <g transform="scale(1 -1) translate(0 -384)">
        <path d="M124 175 43 256 58 276Q78 300 101 320Q134 348 169 364Q212 384 256.0 384.0Q300 384 343 364Q378 348 411 320Q434 300 454 276L469 256L388 175L256 307ZM288 64H224V21L256 0L288 21ZM358 145 303 90Q282 107 256.0 107.0Q230 107 209 90L154 145L256 247ZM277 149Q277 158 271.0 164.5Q265 171 256.0 171.0Q247 171 241.0 164.5Q235 158 235.0 149.5Q235 141 241.0 134.5Q247 128 256.0 128.0Q265 128 271.0 134.5Q277 141 277 149Z" />
      </g>
    </svg>