<svg xmlns="http://www.w3.org/2000/svg" viewBox="43 -21 426 426">
      <g transform="scale(1 -1) translate(0 -384)">
        <path d="M256 405Q217 405 181.5 392.0Q146 379 117 354Q131 343 145 325L168 339L190 301L168 289Q187 253 191 213H213V171H191Q187 131 168 95L190 83L168 45L145 59Q131 41 117 30Q146 5 181.5 -8.0Q217 -21 256.0 -21.0Q295 -21 330.5 -8.0Q366 5 395 30Q382 40 367 59L344 45L322 83L344 95Q325 131 321 171H299V213H321Q325 253 344 289L322 301L344 339L367 325Q382 344 395 354Q366 379 330.5 392.0Q295 405 256 405ZM88 323Q66 295 54.5 261.5Q43 228 43.0 192.0Q43 156 54.5 122.5Q66 89 88 61Q97 68 108 81L95 88L116 125L131 116Q144 142 148 171H128V213H148Q144 242 131 268L116 259L95 296L108 303Q97 316 88 323ZM424 323Q415 316 404 303L417 296L396 259L381 268Q368 242 364 213H384V171H364Q368 142 381 116L396 125L417 88L404 81Q415 68 424 61Q446 89 457.5 122.5Q469 156 469.0 192.0Q469 228 457.5 261.5Q446 295 424 323Z" />
      </g>
    </svg>