<svg xmlns="http://www.w3.org/2000/svg" viewBox="43 -22 426 427">
      <g transform="scale(1 -1) translate(0 -383)">
        <path d="M427 405Q419 405 412 399L209 196L154 121L85 51L79 58Q72 64 63.5 64.0Q55 64 49.0 58.0Q43 52 43.0 43.0Q43 34 49 28L92 -15Q98 -22 106.5 -22.0Q115 -22 121.5 -16.0Q128 -10 128.0 -1.0Q128 8 122 15L115 21L184 90L260 145L463 348Q469 354 469.0 363.0Q469 372 463 378L442 399Q435 405 427 405ZM395 171Q373 171 357.0 155.0Q341 139 341.0 117.0Q341 95 357.0 79.5Q373 64 395.0 64.0Q417 64 432.5 79.5Q448 95 448.0 117.0Q448 139 432.5 155.0Q417 171 395 171Z" />
      </g>
    </svg>