<svg xmlns="http://www.w3.org/2000/svg" viewBox="21 0 470 405">
      <g transform="scale(1 -1) translate(0 -405)">
        <path d="M256 405Q214 405 174 390Q140 377 109 353Q84 334 61 309Q45 291 31 272L21 256L198 79Q213 97 235 103L167 171L256 260L345 171L277 103Q299 97 314 79L491 256L481 272Q467 291 451 309Q428 334 403 353Q372 377 338 390Q298 405 256 405ZM375 201 256 320 137 201 77 261Q107 300 144 326Q198 363 256.0 363.0Q314 363 367 326Q405 300 435 261ZM277 171Q277 162 271.0 155.5Q265 149 256.0 149.0Q247 149 241.0 155.5Q235 162 235.0 170.5Q235 179 241.0 185.5Q247 192 256.0 192.0Q265 192 271.0 185.5Q277 179 277 171ZM288 21 256 0 224 21V64H288Z" />
      </g>
    </svg>