<svg xmlns="http://www.w3.org/2000/svg" viewBox="21 -43 470 448">
      <g transform="scale(1 -1) translate(0 -362)">
        <path d="M461 101 379 18 350 47 320 17 379 -43 491 71ZM299 128Q299 110 286.5 97.5Q274 85 256.0 85.0Q238 85 225.5 97.5Q213 110 213.0 128.0Q213 146 225.5 158.5Q238 171 256.0 171.0Q274 171 286.5 158.5Q299 146 299 128ZM277 21Q277 30 279 43H117L71 213H442L424 148Q446 145 464 135L490 229L491 235Q491 243 484.5 249.5Q478 256 469 256H367L274 396Q267 405 256.0 405.0Q245 405 238 396L145 256H43Q34 256 27.5 249.5Q21 243 21 235Q21 231 22 229L76 31Q80 18 91.5 9.0Q103 0 117 0H279Q277 13 277 21ZM256 346 316 256H196Z" />
      </g>
    </svg>