<svg xmlns="http://www.w3.org/2000/svg" viewBox="21 -43 470 448">
      <g transform="scale(1 -1) translate(0 -362)">
        <path d="M461 101 379 18 350 47 320 17 379 -43 491 71ZM277 21Q277 56 294.5 85.5Q312 115 341.5 132.0Q371 149 405 149Q437 149 464 135L490 228L491 235Q491 243 484.5 249.5Q478 256 469 256H372L274 396Q267 405 256.0 405.0Q245 405 239 396L140 256H43Q34 256 27.5 249.5Q21 243 21 235L23 225L79 23Q85 13 95.0 6.5Q105 0 117 0H279Q277 13 277 21ZM256 347 320 256H192ZM213 128Q213 146 225.5 158.5Q238 171 256.0 171.0Q274 171 286.5 158.5Q299 146 299.0 128.0Q299 110 286.5 97.5Q274 85 256.0 85.0Q238 85 225.5 97.5Q213 110 213 128Z" />
      </g>
    </svg>