<svg xmlns="http://www.w3.org/2000/svg" viewBox="21 -37 470 448">
      <g transform="scale(1 -1) translate(0 -374)">
        <path d="M491 235 490 228 446 70 260 256H320L256 347L220 296L190 327L239 396Q245 405 256.0 405.0Q267 405 274 396L372 256H469Q478 256 484.5 249.5Q491 243 491 235ZM472 -10 445 -37 406 2Q400 0 395 0H117Q105 0 95.0 6.5Q85 13 79 23L23 225L21 235Q21 243 27.5 249.5Q34 256 43 256H140L145 263L24 384L51 411ZM295 112 240 167Q228 163 220.5 152.0Q213 141 213 128Q213 110 225.5 97.5Q238 85 256 85Q269 85 280.0 92.5Q291 100 295 112Z" />
      </g>
    </svg>