<svg xmlns="http://www.w3.org/2000/svg" viewBox="21 0 470 405">
      <g transform="scale(1 -1) translate(0 -405)">
        <path d="M117 0Q105 0 95.0 6.5Q85 13 79 23L23 225L21 235Q21 244 27.5 250.0Q34 256 43 256H140L239 396Q245 405 256.0 405.0Q267 405 274 396L372 256H469Q478 256 484.5 250.0Q491 244 491 235L490 228L433 23Q427 13 417.0 6.5Q407 0 395 0ZM256 347 192 256H320ZM256 171Q238 171 225.5 158.5Q213 146 213.0 128.0Q213 110 225.5 97.5Q238 85 256.0 85.0Q274 85 286.5 97.5Q299 110 299.0 128.0Q299 146 286.5 158.5Q274 171 256 171Z" />
      </g>
    </svg>