<svg xmlns="http://www.w3.org/2000/svg" viewBox="21 -33 470 438">
      <g transform="scale(1 -1) translate(0 -372)">
        <path d="M481 88 435 43 481 -3 451 -33 405 13 360 -33 330 -3 375 43 330 88 360 118 405 73 451 118ZM256 171Q238 171 225.5 158.5Q213 146 213.0 128.0Q213 110 225.5 97.5Q238 85 256.0 85.0Q274 85 286.5 97.5Q299 110 299.0 128.0Q299 146 286.5 158.5Q274 171 256 171ZM285 0H117Q103 0 91.5 9.0Q80 18 76 31L22 229Q21 231 21 235Q21 243 27.5 249.5Q34 256 43 256H145L238 396Q245 405 256.0 405.0Q267 405 274 396L367 256H469Q478 256 484.5 249.5Q491 243 491 235L490 229L469 153Q449 165 429 168L442 213H71L117 43H277Q277 21 285 0ZM196 256H316L256 346Z" />
      </g>
    </svg>