<svg xmlns="http://www.w3.org/2000/svg" viewBox="21 -43 470 448">
      <g transform="scale(1 -1) translate(0 -362)">
        <path d="M448 405H64Q46 405 33.5 392.5Q21 380 21 363V107Q21 89 33.5 76.5Q46 64 64 64H140L171 -43L213 0L256 -43L299 0L341 -43L372 64H448Q466 64 478.5 76.5Q491 89 491 107V363Q491 380 478.5 392.5Q466 405 448 405ZM448 107H384V149H363V256Q363 274 350.5 286.5Q338 299 320 299H192Q174 299 161.5 286.5Q149 274 149 256V149H128V107H64V363H448ZM192 149V256H320V149Z" />
      </g>
    </svg>