<svg xmlns="http://www.w3.org/2000/svg" viewBox="21 -37 470 448">
      <g transform="scale(1 -1) translate(0 -374)">
        <path d="M51 411 24 384 148 260 145 256H43Q34 256 27.5 249.5Q21 243 21 235Q21 231 22 229L76 31Q80 18 91.5 9.0Q103 0 117 0H395Q399 0 406 2L445 -37L472 -10ZM117 43 71 213H194L240 167Q228 163 220.5 152.0Q213 141 213 128Q213 110 225.5 97.5Q238 85 256 85Q269 85 280.0 92.5Q291 100 295 112L365 43ZM491 235 490 229 447 70 412 105 442 213H303L260 256H316L256 346L222 294L191 325L238 396Q245 405 256.0 405.0Q267 405 274 396L367 256H469Q478 256 484.5 249.5Q491 243 491 235Z" />
      </g>
    </svg>