<svg xmlns="http://www.w3.org/2000/svg" viewBox="16 53 480 230">
      <g transform="scale(1 -1) translate(0 -336)">
        <path d="M16 277Q24 279 31 280Q50 283 69 283Q96 283 120 277Q149 271 171 256L175 235Q181 212 191 197Q205 176 224 176V213L228 208Q232 201 238 198Q247 192 256.0 192.0Q265 192 274 198Q280 201 284 208L288 213V176Q307 176 321 197Q331 212 337 235L341 256Q381 283 443 283Q473 283 496 277Q477 268 465 243Q456 225 451 201L448 181Q410 181 388 163Q372 151 366 130Q363 120 363 112Q315 121 288 106Q268 95 260 73Q256 62 256 53L254 66Q251 80 243 91Q231 106 211 112Q186 119 149 112L148 123Q145 136 139 147Q129 162 113 171Q93 181 64 181L61 201Q56 225 47 243Q35 268 16 277Z" />
      </g>
    </svg>