<svg xmlns="http://www.w3.org/2000/svg" viewBox="43 -21 426 426">
      <g transform="scale(1 -1) translate(0 -384)">
        <path d="M149 341Q167 341 179.5 328.5Q192 316 192.0 298.5Q192 281 179.5 268.5Q167 256 149.5 256.0Q132 256 119.5 268.5Q107 281 107.0 298.5Q107 316 119.5 328.5Q132 341 149 341ZM427 171V345Q427 370 409.0 387.5Q391 405 366.0 405.0Q341 405 324 388L297 361Q291 363 286 363Q274 363 263 356L322 297Q329 308 329 320Q329 325 327 331L354 358Q359 363 366.5 363.0Q374 363 379.0 357.5Q384 352 384 345V171H238Q229 177 220 186L191 219Q185 225 175.5 230.0Q166 235 154 235Q135 235 121.0 221.0Q107 207 107 187V171H43V43Q43 25 55.5 12.5Q68 0 85 0Q85 -9 91.5 -15.0Q98 -21 107 -21H405Q414 -21 420.5 -15.0Q427 -9 427 0Q444 0 456.5 12.5Q469 25 469 43V171Z" />
      </g>
    </svg>