<svg xmlns="http://www.w3.org/2000/svg" viewBox="43 -21 435 426">
      <g transform="scale(1 -1) translate(0 -384)">
        <path d="M107 405V363H70Q59 363 51.0 354.5Q43 346 43 335V9Q43 -4 51.0 -12.5Q59 -21 70 -21H269Q280 -21 288.5 -13.0Q297 -5 297 6V335Q298 346 290.0 354.5Q282 363 271 363H235V405ZM405 277V196L356 245L341 230L401 171L341 111L356 96L405 145V64H416L478 126L431 171L476 215L416 277ZM149 277H192V149H149ZM427 237 446 218 427 196ZM427 145 446 126 427 105ZM149 107H192V64H149Z" />
      </g>
    </svg>