<svg xmlns="http://www.w3.org/2000/svg" viewBox="85 -21 363 426">
      <g transform="scale(1 -1) translate(0 -384)">
        <path d="M422 107H331V160Q331 172 340.0 180.0Q349 188 362.5 188.0Q376 188 385.5 180.0Q395 172 395 160V149H422V160Q422 182 404.0 197.5Q386 213 363.0 213.0Q340 213 321.5 197.5Q303 182 303 160V107Q293 107 285.0 99.0Q277 91 277 81V6Q277 -5 285.0 -13.0Q293 -21 303 -21H420Q431 -21 439.5 -13.5Q448 -6 448 4V79Q448 90 440.0 98.5Q432 107 422 107ZM240 -21H114Q102 -21 93.5 -13.0Q85 -5 85 7V334Q85 346 93.5 354.5Q102 363 114 363H149V405H277V363H313Q325 363 333.0 354.5Q341 346 341 334V254Q307 247 283.5 220.5Q260 194 260 160V134Q249 124 242.0 110.0Q235 96 235 81V6Q235 0 236 -8Q237 -14 240 -21Z" />
      </g>
    </svg>