<svg xmlns="http://www.w3.org/2000/svg" viewBox="128 -64 341 469">
      <g transform="scale(1 -1) translate(0 -341)">
        <path d="M289 -21H156Q145 -21 136.5 -13.0Q128 -5 128 7V334Q128 346 136.5 354.5Q145 363 156 363H192V405H320V363H356Q367 363 375.5 354.5Q384 346 384 334V192Q363 192 341 185V320H171V21H263Q272 -3 289 -21ZM384 171 432 123 384 75V107Q365 107 350.5 95.0Q336 83 332.0 65.0Q328 47 336 29L313 6Q295 34 299.5 65.0Q304 96 327.5 117.5Q351 139 384 139ZM384 -64 336 -16 384 32V0Q403 0 417.5 12.0Q432 24 436.0 42.0Q440 60 432 77L455 100Q473 73 468.5 41.5Q464 10 440.5 -11.0Q417 -32 384 -32Z" />
      </g>
    </svg>