<svg xmlns="http://www.w3.org/2000/svg" viewBox="128 -43 363 448">
      <g transform="scale(1 -1) translate(0 -362)">
        <path d="M352 101 413 65 397 39 320 85V192H352ZM491 107Q491 66 471.0 31.5Q451 -3 416.5 -23.0Q382 -43 341.0 -43.0Q300 -43 265 -21H156Q145 -21 136.5 -13.0Q128 -5 128 7V334Q128 346 136.5 354.5Q145 363 156 363H192V405H320V363H356Q367 363 375.5 354.5Q384 346 384 334V250Q431 236 461.0 196.5Q491 157 491 107ZM448 107Q448 136 433.5 160.5Q419 185 394.5 199.0Q370 213 341.0 213.0Q312 213 287.5 199.0Q263 185 249.0 160.5Q235 136 235.0 107.0Q235 78 249.0 53.5Q263 29 287.5 14.5Q312 0 341.0 0.0Q370 0 394.5 14.5Q419 29 433.5 53.5Q448 78 448 107Z" />
      </g>
    </svg>