<svg xmlns="http://www.w3.org/2000/svg" viewBox="128 -21 256 426">
      <g transform="scale(1 -1) translate(0 -384)">
        <path d="M356 363H320V405H192V363H156Q145 363 136.5 354.5Q128 346 128 334V7Q128 -5 136.5 -13.0Q145 -21 156 -21H356Q367 -21 375.5 -13.0Q384 -5 384 7V334Q384 346 375.5 354.5Q367 363 356 363ZM268 114 256 103 243 115Q203 151 191 167Q171 191 171 213Q170 233 184.0 246.5Q198 260 218 260Q241 260 256 243Q271 260 294 260Q314 260 328.0 246.5Q342 233 341 213Q341 191 321 167Q309 151 269 115Z" />
      </g>
    </svg>