<svg xmlns="http://www.w3.org/2000/svg" viewBox="85 -21 363 426">
      <g transform="scale(1 -1) translate(0 -384)">
        <path d="M422 107V139Q422 161 404.0 176.5Q386 192 363.0 192.0Q340 192 321.5 176.5Q303 161 303 139V107Q293 107 285.0 99.0Q277 91 277 81V6Q277 -5 285.0 -13.0Q293 -21 303 -21H420Q431 -21 439.5 -13.5Q448 -6 448 4V79Q448 90 440.0 98.5Q432 107 422 107ZM395 107H331V139Q331 151 340.0 158.5Q349 166 362.5 166.0Q376 166 385.5 158.5Q395 151 395 139ZM240 -21H114Q102 -21 93.5 -13.0Q85 -5 85 7V334Q85 346 93.5 354.5Q102 363 114 363H149V405H277V363H313Q325 363 333.0 354.5Q341 346 341 334V232Q307 225 283.5 198.5Q260 172 260 139V134Q249 124 242.0 110.0Q235 96 235 81V6Q235 -8 240 -21Z" />
      </g>
    </svg>