<svg xmlns="http://www.w3.org/2000/svg" viewBox="43 -21 448 426">
      <g transform="scale(1 -1) translate(0 -384)">
        <path d="M270 363H235V405H107V363H71Q59 363 51.0 354.5Q43 346 43 334V7Q43 -5 51.0 -13.0Q59 -21 71 -21H270Q282 -21 290.5 -13.0Q299 -5 299 7V334Q299 346 290.5 354.5Q282 363 270 363ZM405 103 393 114V115Q353 151 340 167Q320 191 320 213Q320 233 333.5 246.5Q347 260 367 260Q390 260 405 243Q421 260 444 260Q463 260 477.0 246.5Q491 233 491 213Q491 192 471 167Q458 151 418 115Z" />
      </g>
    </svg>