<svg xmlns="http://www.w3.org/2000/svg" viewBox="43 -21 448 426">
      <g transform="scale(1 -1) translate(0 -384)">
        <path d="M405 102 393 113 390 115Q352 152 340 167Q320 192 320.0 212.5Q320 233 334.0 246.5Q348 260 368.0 260.0Q388 260 405 243Q422 260 442.5 260.0Q463 260 477.0 246.5Q491 233 491.0 213.0Q491 193 473 171Q462 157 428 124ZM271 363H235V405H107V363H70Q59 363 51.0 354.5Q43 346 43 335V9Q43 -4 51.0 -12.5Q59 -21 70 -21H269Q280 -21 288.5 -13.0Q297 -5 297 6V335Q298 346 290.0 354.5Q282 363 271 363ZM256 21H85V320H256Z" />
      </g>
    </svg>