<svg xmlns="http://www.w3.org/2000/svg" viewBox="128 -43 363 448">
      <g transform="scale(1 -1) translate(0 -362)">
        <path d="M384 250V334Q384 346 375.5 354.5Q367 363 356 363H320V405H192V363H156Q145 363 136.5 354.5Q128 346 128 334V7Q128 -5 136.5 -13.0Q145 -21 156 -21H265Q300 -43 341.0 -43.0Q382 -43 416.5 -23.0Q451 -3 471.0 31.5Q491 66 491 107Q491 157 461.0 196.5Q431 236 384 250ZM171 320H341V256Q301 256 266.5 236.0Q232 216 212.0 181.5Q192 147 192 107Q192 60 219 21H171ZM341 0Q312 0 287.5 14.5Q263 29 249.0 53.5Q235 78 235.0 107.0Q235 136 249.0 160.5Q263 185 287.5 199.0Q312 213 341.0 213.0Q370 213 394.5 199.0Q419 185 433.5 160.5Q448 136 448.0 107.0Q448 78 433.5 53.5Q419 29 394.5 14.5Q370 0 341 0ZM352 101 413 65 397 39 320 85V192H352Z" />
      </g>
    </svg>