<svg xmlns="http://www.w3.org/2000/svg" viewBox="43 -21 447 426">
      <g transform="scale(1 -1) translate(0 -384)">
        <path d="M428 343 398 313Q431 280 442.5 236.0Q454 192 442.5 148.0Q431 104 398 71L428 41Q469 82 483.5 137.0Q498 192 483.5 247.0Q469 302 428 343ZM368 282 338 252Q363 227 363.0 192.0Q363 157 338 132L368 102Q392 126 401.0 159.0Q410 192 401.0 225.0Q392 258 368 282ZM277 363H235V405H107V363H64Q55 363 49.0 356.5Q43 350 43 341V0Q43 -9 49.0 -15.0Q55 -21 64 -21H277Q286 -21 292.5 -15.0Q299 -9 299 0V341Q299 350 292.5 356.5Q286 363 277 363ZM256 139H85V320H256Z" />
      </g>
    </svg>