<svg xmlns="http://www.w3.org/2000/svg" viewBox="43 -21 434 426">
      <g transform="scale(1 -1) translate(0 -384)">
        <path d="M107 405V363H71Q59 363 51.0 354.5Q43 346 43 334V7Q43 -5 51.0 -13.0Q59 -21 71 -21H270Q282 -21 290.5 -13.0Q299 -5 299 7V334Q299 346 290.5 354.5Q282 363 270 363H235V405ZM171 320Q206 320 231.0 295.0Q256 270 256 235Q256 207 236 187L217 167Q207 157 202 150Q196 140 194 128H150Q154 157 174 178L201 205Q213 217 213.0 234.5Q213 252 200.5 264.5Q188 277 170.5 277.0Q153 277 140.5 264.5Q128 252 128 235H85Q85 270 110.0 295.0Q135 320 171 320ZM405 277V196L356 245L341 230L401 171L341 111L356 96L405 145V64H416L477 125L431 171L477 217L416 277ZM427 237 447 217 427 196ZM427 145 447 125 427 105ZM149 85H192V43H149Z" />
      </g>
    </svg>