<svg xmlns="http://www.w3.org/2000/svg" viewBox="43 -21 448 426">
      <g transform="scale(1 -1) translate(0 -384)">
        <path d="M277 363H235V405H107V363H64Q54 363 48.5 357.0Q43 351 43 341V0Q43 -10 48.5 -15.5Q54 -21 64 -21H277Q287 -21 293.0 -15.5Q299 -10 299 0V341Q299 351 293.0 357.0Q287 363 277 363ZM192 64H149V107H192ZM192 149H149V277H192ZM429 343 399 314Q431 281 442.5 237.0Q454 193 442.5 149.0Q431 105 399 73L429 43Q470 83 484.0 137.5Q498 192 484.0 247.5Q470 303 429 343ZM367 282 337 252Q363 226 363.0 191.0Q363 156 337 130L367 100Q392 125 401.0 158.5Q410 192 401.0 224.5Q392 257 367 282Z" />
      </g>
    </svg>