<svg xmlns="http://www.w3.org/2000/svg" viewBox="43 -21 448 426">
      <g transform="scale(1 -1) translate(0 -384)">
        <path d="M320 52Q394 64 469 64V-21H107Q107 -14 129.0 -2.0Q151 10 188 22Q229 35 277 45V183Q250 175 235 150Q225 167 208.0 177.0Q191 187 171.0 187.0Q151 187 134.0 177.0Q117 167 107 150Q107 188 129.5 220.0Q152 252 191.0 273.0Q230 294 277 298V299Q277 308 283.5 314.0Q290 320 299.0 320.0Q308 320 314.0 314.0Q320 308 320 299V298Q367 294 406.0 273.0Q445 252 467.5 220.0Q490 188 491 150Q481 167 464.0 177.0Q447 187 427.0 187.0Q407 187 390.0 177.0Q373 167 363 150Q348 175 320 184ZM149 405Q149 376 135.0 351.5Q121 327 96.5 313.0Q72 299 43 299V405Z" />
      </g>
    </svg>