<svg xmlns="http://www.w3.org/2000/svg" viewBox="0 0 512 384">
      <g transform="scale(1 -1) translate(0 -384)">
        <path d="M0 384H384V341Q366 341 353.5 328.5Q341 316 341 299V43Q341 25 328.5 12.5Q316 0 299 0H85Q68 0 55.5 12.5Q43 25 43 43V299Q43 316 30.5 328.5Q18 341 0 341ZM85 256V235H149V256ZM85 213V192H149V213ZM149 107V128H85V107ZM192 149V171H85V149ZM192 277V299H85V277ZM459 117V85H427V117ZM416 224H384V235Q384 261 402.5 280.0Q421 299 448.0 299.0Q475 299 493.5 280.0Q512 261 512 235Q512 219 504.5 205.5Q497 192 484 183L478 179Q459 166 459 143V139H427V143Q427 162 436.0 178.5Q445 195 461 206L467 210Q480 219 480 235Q480 248 470.5 257.5Q461 267 448.0 267.0Q435 267 425.5 257.5Q416 248 416 235Z" />
      </g>
    </svg>