<svg xmlns="http://www.w3.org/2000/svg" viewBox="64 -12 417 396">
      <g transform="scale(1 -1) translate(0 -372)">
        <path d="M330 109 360 140 405 94 451 139 481 109 435 64 481 19 451 -12 405 34 360 -11 330 19 375 64ZM64 384H448V341Q430 341 417.5 328.5Q405 316 405 299V192Q383 192 363 185V341H149V299H256V277H149V256H213V235H149V213H213V192H149V171H256V149H149V128H213V107H149V43H279Q283 20 294 0H149Q132 0 119.5 12.5Q107 25 107 43V299Q107 316 94.5 328.5Q82 341 64 341Z" />
      </g>
    </svg>