<svg xmlns="http://www.w3.org/2000/svg" viewBox="21 21 470 320">
      <g transform="scale(1 -1) translate(0 -362)">
        <path d="M149 149Q176 149 194.5 168.0Q213 187 213.0 213.5Q213 240 194.5 258.5Q176 277 149.5 277.0Q123 277 104.0 258.5Q85 240 85.0 213.5Q85 187 104.0 168.0Q123 149 149 149ZM149 235Q158 235 164.5 228.5Q171 222 171.0 213.5Q171 205 164.5 198.5Q158 192 149.5 192.0Q141 192 134.5 198.5Q128 205 128.0 213.5Q128 222 134.5 228.5Q141 235 149 235ZM405 299H235V128H64V341H21V21H64V85H448V21H491V213Q491 249 466.0 274.0Q441 299 405 299ZM448 128H277V256H405Q423 256 435.5 243.5Q448 231 448 213Z" />
      </g>
    </svg>