<svg xmlns="http://www.w3.org/2000/svg" viewBox="21 -43 491 491">
      <g transform="scale(1 -1) translate(0 -405)">
        <path d="M410 245 341 284V363H373V303L425 273ZM474 198Q491 175 491 149V-43H448V21H64V-43H21V277H64V85H235V222Q213 261 213 299Q213 340 233.0 374.0Q253 408 287.5 428.0Q322 448 363.0 448.0Q404 448 438.0 428.0Q472 408 492.0 374.0Q512 340 512 299Q512 244 474 198ZM256 299Q256 269 270.0 244.5Q284 220 308.5 206.0Q333 192 362.5 192.0Q392 192 416.5 206.0Q441 220 455.0 244.5Q469 269 469.0 298.5Q469 328 455.0 352.5Q441 377 416.5 391.0Q392 405 362.5 405.0Q333 405 308.5 391.0Q284 377 270.0 352.5Q256 328 256 299ZM149 107Q177 107 195.0 125.0Q213 143 213.0 170.5Q213 198 195.0 216.5Q177 235 149.5 235.0Q122 235 103.5 216.5Q85 198 85.0 170.5Q85 143 103.5 125.0Q122 107 149 107Z" />
      </g>
    </svg>