<svg xmlns="http://www.w3.org/2000/svg" viewBox="108 41 297 300">
      <g transform="scale(1 -1) translate(0 -382)">
        <path d="M371 256Q359 293 320 309V341H299V311H290Q256 311 230 286L222 277L192 288Q179 292 171 292Q150 292 134 279Q119 269 111 250Q105 228 111 207Q121 183 134 175Q121 126 156 92Q181 66 215 66Q233 66 239 68Q260 41 290 41Q305 41 311 43Q327 48 340.5 66.5Q354 85 354.0 101.0Q354 117 352 124L341 158L354 166Q381 193 378 233H405V256ZM164 207Q145 216 151.5 235.0Q158 254 177 247L245 222Q196 197 164 207ZM299 87Q280 81 271 100Q261 132 286 181L311 115Q318 94 299 87ZM324 201 311 235V237L305 243H303L269 256Q283 267 297 267Q314 267 326.5 254.0Q339 241 339 226L334 217Q328 206 324 201Z" />
      </g>
    </svg>