<svg xmlns="http://www.w3.org/2000/svg" viewBox="21 -43 470 470">
      <g transform="scale(1 -1) translate(0 -384)">
        <path d="M491 139Q491 163 476.0 182.5Q461 202 438 209Q448 227 448 245Q448 270 433.5 289.5Q419 309 396 316Q405 333 405 352Q405 383 383.5 405.0Q362 427 331 427H181Q150 427 128.5 405.0Q107 383 107 352Q107 333 116 316Q93 309 78.5 289.5Q64 270 64 245Q64 227 74 209Q51 202 36.0 182.5Q21 163 21 139Q21 119 31.0 102.5Q41 86 57 76Q43 56 43 32Q43 1 64.5 -21.0Q86 -43 117 -43H395Q426 -43 447.5 -21.0Q469 1 469 32Q469 56 455 76Q471 86 481.0 102.5Q491 119 491 139ZM181 384H331Q344 384 353.5 374.5Q363 365 363.0 352.0Q363 339 353.5 329.5Q344 320 331 320H181Q168 320 158.5 329.5Q149 339 149.0 352.0Q149 365 158.5 374.5Q168 384 181 384ZM139 277H373Q387 277 396.0 268.0Q405 259 405.0 245.5Q405 232 396.0 222.5Q387 213 373 213H139Q125 213 116.0 222.5Q107 232 107.0 245.5Q107 259 116.0 268.0Q125 277 139 277ZM85 32Q85 45 94.5 54.5Q104 64 117 64H192V0H117Q104 0 94.5 9.5Q85 19 85 32ZM395 0H320V64H395Q408 64 417.5 54.5Q427 45 427.0 32.0Q427 19 417.5 9.5Q408 0 395 0ZM416 107H316Q309 126 292.5 137.5Q276 149 256.0 149.0Q236 149 219.5 137.5Q203 126 196 107H96Q83 107 73.5 116.0Q64 125 64.0 138.5Q64 152 73.5 161.5Q83 171 96 171H416Q429 171 438.5 161.5Q448 152 448.0 138.5Q448 125 438.5 116.0Q429 107 416 107Z" />
      </g>
    </svg>