<svg xmlns="http://www.w3.org/2000/svg" viewBox="21 -43 470 470">
      <g transform="scale(1 -1) translate(0 -384)">
        <path d="M23 384 100 309Q64 284 64 245Q64 227 75 209Q51 203 36.0 183.5Q21 164 21 139Q21 100 58 75Q43 60 43 32Q43 2 65.0 -20.5Q87 -43 117 -43H395Q417 -43 439 -28L454 -43L482 -15L51 412ZM196 213H139Q126 213 116.5 223.0Q107 233 107.0 244.5Q107 256 114.0 265.0Q121 274 132 277ZM192 0H117Q105 0 95.0 9.5Q85 19 85.0 32.0Q85 45 95.0 54.5Q105 64 117 64H192ZM196 107H96Q83 107 73.5 116.5Q64 126 64.0 138.5Q64 151 73.5 161.0Q83 171 96 171H239L260 149H256Q235 149 219.0 137.5Q203 126 196 107ZM395 0H320V64H346L407 2Q403 0 395 0ZM151 365 122 395Q131 409 147.0 418.0Q163 427 181 427H331Q361 427 383.0 404.5Q405 382 405 352Q405 334 395 316Q419 309 433.5 290.0Q448 271 448 245Q448 227 437 209Q460 201 475.5 181.5Q491 162 491 139Q491 100 454 75Q464 62 467 49L410 107H416Q429 107 438.5 116.5Q448 126 448.0 138.5Q448 151 438.5 161.0Q429 171 416 171H346L303 213H373Q386 213 395.5 223.0Q405 233 405.0 245.5Q405 258 395.5 267.5Q386 277 373 277H239L196 320H331Q343 320 353.0 329.5Q363 339 363.0 352.0Q363 365 353.0 374.5Q343 384 331 384H181Q172 384 163.5 378.5Q155 373 151 365Z" />
      </g>
    </svg>