<svg xmlns="http://www.w3.org/2000/svg" viewBox="85 -21 342 426">
      <g transform="scale(1 -1) translate(0 -384)">
        <path d="M405 341H341Q341 368 316.0 386.5Q291 405 256.0 405.0Q221 405 196.0 386.5Q171 368 171 341H107Q98 341 91.5 335.0Q85 329 85.0 320.0Q85 311 91.5 305.0Q98 299 107 299V149Q107 132 119.5 119.5Q132 107 149 107H363Q380 107 392.5 119.5Q405 132 405 149V299Q414 299 420.5 305.0Q427 311 427.0 320.0Q427 329 420.5 335.0Q414 341 405 341ZM363 149H149V299H363ZM338 277Q341 265 341 256Q341 221 316.0 196.0Q291 171 256.0 171.0Q221 171 196.0 196.0Q171 221 171 256Q171 265 174 277H219Q213 267 213 256Q213 238 225.5 225.5Q238 213 256.0 213.0Q274 213 286.5 225.5Q299 238 299 256Q299 267 293 277ZM427 43V-21H85V43Q85 66 111 85H256Q229 85 198 78Q170 71 150.0 60.5Q130 50 128 43V21H384V43Q382 50 362.0 60.5Q342 71 314 78Q283 85 256 85H401Q427 66 427 43Z" />
      </g>
    </svg>