<svg xmlns="http://www.w3.org/2000/svg" viewBox="64 -64 445 469">
      <g transform="scale(1 -1) translate(0 -341)">
        <path d="M485 32Q485 37 485.0 42.5Q485 48 485 53L507 71Q510 73 508 78L487 114Q485 118 481 117L454 107L451 109Q442 114 436 116L432 145Q431 149 427 149H384Q379 149 379 145L375 116Q369 114 360 108L357 107L331 117Q326 118 324 114L302 78Q300 73 304 71L326 53L325 43L326 32L304 15Q300 12 302 8L324 -29Q325 -32 331 -32L357 -21Q367 -28 375 -31L379 -60Q379 -64 384 -64H427Q431 -64 432 -60L436 -31Q443 -28 454 -21L481 -32Q486 -32 487 -29L508 8Q511 12 507 15ZM405 5Q390 5 379.0 16.0Q368 27 368.0 42.5Q368 58 379.0 69.0Q390 80 405.5 80.0Q421 80 432.0 69.0Q443 58 443.0 42.5Q443 27 432.0 16.0Q421 5 405 5ZM258 21H64V43L107 85V213Q107 263 136.0 302.5Q165 342 213 356V363Q213 380 225.5 392.5Q238 405 256.0 405.0Q274 405 286.5 392.5Q299 380 299 363V356Q347 342 376.0 302.5Q405 263 405 213V192Q384 192 363 186V213Q363 243 348.5 267.5Q334 292 309.5 306.0Q285 320 256.0 320.0Q227 320 202.5 306.0Q178 292 163.5 267.5Q149 243 149 213V64H258Q256 53 256.0 43.0Q256 33 258 21ZM262 0Q269 -21 279 -36Q268 -43 256 -43Q238 -43 225.5 -30.5Q213 -18 213 0Z" />
      </g>
    </svg>