<svg xmlns="http://www.w3.org/2000/svg" viewBox="64 -43 405 448">
      <g transform="scale(1 -1) translate(0 -362)">
        <path d="M373 171Q354 171 336.5 163.5Q319 156 305.5 142.5Q292 129 284.5 111.5Q277 94 277 75Q277 35 305.5 7.0Q334 -21 373.5 -21.0Q413 -21 441.0 7.0Q469 35 469 75Q469 94 462.0 111.5Q455 129 441.5 142.5Q428 156 410.0 163.5Q392 171 373 171ZM373 139Q400 139 418.5 120.0Q437 101 437 75Q437 57 428 43L341 130Q356 138 373 139ZM318 107 405 20Q391 11 373 11Q347 11 328.0 29.5Q309 48 309 75Q310 92 318 107ZM256 405Q238 405 225.5 392.5Q213 380 213 363V356Q167 343 137.0 303.5Q107 264 107 213V85L64 43V21H245Q235 47 235 75Q235 112 253.5 144.0Q272 176 304.0 194.5Q336 213 373 213Q390 213 405 209V213Q405 264 375.0 303.5Q345 343 299 356V363Q299 380 286.5 392.5Q274 405 256 405ZM213 0Q213 -18 225.5 -30.5Q238 -43 255.0 -43.0Q272 -43 284 -32Q268 -18 257 0Z" />
      </g>
    </svg>