<svg xmlns="http://www.w3.org/2000/svg" viewBox="43 -21 426 426">
      <g transform="scale(1 -1) translate(0 -384)">
        <path d="M256 405Q298 405 337.5 389.0Q377 373 407.0 343.0Q437 313 453.0 273.5Q469 234 469.0 192.0Q469 150 453.0 110.5Q437 71 407.0 41.0Q377 11 337.5 -5.0Q298 -21 256.0 -21.0Q214 -21 174.5 -5.0Q135 11 105.0 41.0Q75 71 59.0 110.5Q43 150 43.0 192.0Q43 234 59.0 273.5Q75 313 105.0 343.0Q135 373 174.5 389.0Q214 405 256 405ZM363 107V128L341 149V205Q341 240 324.5 266.0Q308 292 277 299V309Q277 318 271.0 324.5Q265 331 256.0 331.0Q247 331 241.0 324.5Q235 318 235 309V299Q204 292 187.5 266.0Q171 240 171 205V149L149 128V107ZM288 85H224Q224 72 233.5 62.5Q243 53 256.0 53.0Q269 53 278.5 62.5Q288 72 288 85Z" />
      </g>
    </svg>