<svg xmlns="http://www.w3.org/2000/svg" viewBox="64 -64 445 469">
      <g transform="scale(1 -1) translate(0 -341)">
        <path d="M405 192Q365 192 330.5 172.0Q296 152 276.0 117.5Q256 83 256 43Q256 33 258 21H64V43L107 85V213Q107 263 136.5 302.5Q166 342 213 356V363Q213 380 225.5 392.5Q238 405 256.0 405.0Q274 405 286.5 392.5Q299 380 299 363V356Q346 342 375.5 302.5Q405 263 405 213ZM213 0Q213 -18 225.5 -30.5Q238 -43 256 -43Q268 -43 279 -36Q269 -21 262 0ZM507 15Q511 12 508 8L487 -29Q486 -32 481 -32L454 -21Q443 -28 436 -31L432 -60Q431 -64 427 -64H384Q379 -64 379 -60L375 -31Q367 -28 357 -21L331 -32Q325 -32 324 -29L302 8Q300 12 304 15L326 32L325 43L326 53L304 71Q300 73 302 78L324 114Q326 118 331 117L357 107L360 108Q369 114 375 116L379 145Q379 149 384 149H427Q431 149 432 145L436 116Q442 114 451 109L454 107L481 117Q485 118 487 114L508 78Q510 73 507 71L485 53Q485 48 485.0 42.5Q485 37 485 32ZM443 43Q443 58 432.0 69.0Q421 80 405.5 80.0Q390 80 379.0 69.0Q368 58 368.0 42.5Q368 27 379.0 16.0Q390 5 405.5 5.0Q421 5 432.0 16.0Q443 27 443 43Z" />
      </g>
    </svg>