<svg xmlns="http://www.w3.org/2000/svg" viewBox="24 -43 448 454">
      <g transform="scale(1 -1) translate(0 -368)">
        <path d="M472 -10 51 411 24 384 124 283Q107 250 107 213V85L64 43V21H386L445 -37ZM149 64V213Q149 233 157 251L344 64ZM213 0H299Q299 -18 286.5 -30.5Q274 -43 256.0 -43.0Q238 -43 225.5 -30.5Q213 -18 213 0ZM177 339Q192 349 213 356V363Q213 380 225.5 392.5Q238 405 256.0 405.0Q274 405 286.5 392.5Q299 380 299 363V356Q346 342 375.5 302.5Q405 263 405 213V111L363 154V213Q363 242 348.5 266.5Q334 291 309.5 305.5Q285 320 256 320Q231 320 208 308Z" />
      </g>
    </svg>