<svg xmlns="http://www.w3.org/2000/svg" viewBox="64 -43 384 448">
      <g transform="scale(1 -1) translate(0 -362)">
        <path d="M213 0H299Q299 -18 286.5 -30.5Q274 -43 256.0 -43.0Q238 -43 225.5 -30.5Q213 -18 213 0ZM448 43V21H64V43L107 85V213Q107 263 136.5 302.5Q166 342 213 356V363Q213 380 225.5 392.5Q238 405 256.0 405.0Q274 405 286.5 392.5Q299 380 299 363V356Q346 342 375.5 302.5Q405 263 405 213V85ZM363 213Q363 242 348.5 266.5Q334 291 309.5 305.5Q285 320 256.0 320.0Q227 320 202.5 305.5Q178 291 163.5 266.5Q149 242 149 213V64H363ZM192 256V213H261L192 156V107H320V149H251L320 207V256Z" />
      </g>
    </svg>