<svg xmlns="http://www.w3.org/2000/svg" viewBox="64 -43 405 448">
      <g transform="scale(1 -1) translate(0 -362)">
        <path d="M256 405Q238 405 225.5 392.5Q213 380 213 363V356Q167 343 137.0 303.5Q107 264 107 213V85L64 43V21H263Q256 42 256 64H149V213Q149 242 163.5 266.5Q178 291 202.5 305.5Q227 320 256.0 320.0Q285 320 309.5 305.5Q334 291 348.5 266.5Q363 242 363 213V190Q373 192 384.0 192.0Q395 192 405 190V213Q405 264 375.0 303.5Q345 343 299 356V363Q299 380 286.5 392.5Q274 405 256 405ZM299 85V43H469V85ZM213 0Q213 -18 225.5 -30.5Q238 -43 256 -43Q267 -43 276.0 -38.0Q285 -33 291 -24Q281 -13 273 0Z" />
      </g>
    </svg>