<svg xmlns="http://www.w3.org/2000/svg" viewBox="64 -43 416 448">
      <g transform="scale(1 -1) translate(0 -362)">
        <path d="M379 -3 320 61 345 85 379 51 455 128 480 98ZM64 21V43L107 85V213Q107 263 136.5 302.5Q166 342 213 356V363Q213 380 225.5 392.5Q238 405 256.0 405.0Q274 405 286.5 392.5Q299 380 299 363V356Q346 342 375.5 302.5Q405 263 405 213V190L384 192Q349 192 319.5 175.0Q290 158 273.0 128.5Q256 99 256 64Q256 42 263 21ZM256 -43Q238 -43 225.5 -30.5Q213 -18 213 0H273Q281 -13 291 -24Q279 -43 256 -43Z" />
      </g>
    </svg>