<svg xmlns="http://www.w3.org/2000/svg" viewBox="43 43 426 298">
      <g transform="scale(1 -1) translate(0 -384)">
        <path d="M85 341Q68 341 55.5 328.5Q43 316 43 299V85Q43 68 55.5 55.5Q68 43 85 43H427Q444 43 456.5 55.5Q469 68 469 85V299Q469 316 456.5 328.5Q444 341 427 341ZM171 256Q206 256 231.0 231.0Q256 206 256.0 170.5Q256 135 231.0 110.0Q206 85 170.5 85.0Q135 85 110.0 110.0Q85 135 85.0 170.5Q85 206 110.0 231.0Q135 256 171 256ZM277 256H427V85H277ZM171 213Q153 213 140.5 200.5Q128 188 128.0 170.5Q128 153 140.5 140.5Q153 128 170.5 128.0Q188 128 200.5 140.5Q213 153 213.0 170.5Q213 188 200.5 200.5Q188 213 171 213Z" />
      </g>
    </svg>