<svg xmlns="http://www.w3.org/2000/svg" viewBox="147 -45 218 450">
      <g transform="scale(1 -1) translate(0 -360)">
        <path d="M197 73V-45H147V305Q147 351 174.0 378.0Q201 405 248 405Q291 405 316.5 383.5Q342 362 342 324Q342 298 325.5 275.0Q309 252 283 244V243Q323 236 344.0 213.5Q365 191 365 155Q365 113 336.0 86.5Q307 60 259 60Q225 60 197 73ZM229 219V260Q256 263 274.0 280.5Q292 298 292 320Q292 364 247 364Q223 364 210.0 348.5Q197 333 197 305V117Q226 100 253.5 100.0Q281 100 296.0 114.0Q311 128 311 154Q311 211 229 219Z" />
      </g>
    </svg>