<svg xmlns="http://www.w3.org/2000/svg" viewBox="64 -21 373 425">
      <g transform="scale(1 -1) translate(0 -383)">
        <path d="M275 370Q287 370 296.0 361.5Q305 353 305.0 340.5Q305 328 296.0 319.5Q287 311 274.5 311.0Q262 311 253.5 319.5Q245 328 245.0 340.5Q245 353 253.5 361.5Q262 370 275 370ZM320 171H352V43H320ZM320 267H352V235H320ZM214 393 171 404 129 265 83 204 153 184ZM420 52Q418 51 415 47Q401 31 393 28Q378 21 363 21H288L287 85Q286 91 283 96L232 187L251 245L279 196Q284 189 292 189H339Q346 189 351.0 194.0Q356 199 356.0 206.0Q356 213 351.5 218.0Q347 223 340 223L305 226L265 299L262 302Q258 306 252.0 308.5Q246 311 238 311Q225 311 219.0 305.5Q213 300 210 290L128 21H64V-21H363Q403 -21 437 13ZM208 141 248 77 251 21H165Z" />
      </g>
    </svg>