<svg xmlns="http://www.w3.org/2000/svg" viewBox="0 -43 512 459">
      <g transform="scale(1 -1) translate(0 -373)">
        <path d="M405 299Q389 299 371 293L308 416H235V384H289L308 347L256 232L218 321Q223 323 226.0 327.0Q229 331 229.0 337.0Q229 343 224.5 347.5Q220 352 213 352H171Q164 352 159.0 347.5Q154 343 154.0 336.0Q154 329 159.0 324.5Q164 320 171 320H184L232 208H212Q206 247 176.0 273.0Q146 299 107 299Q78 299 53.5 284.5Q29 270 14.5 245.5Q0 221 0.0 192.0Q0 163 14.5 138.5Q29 114 53.5 99.5Q78 85 107 85Q146 85 176.0 111.0Q206 137 212 176H267L326 311L343 278Q322 263 310.5 240.5Q299 218 299 192Q299 163 313.0 138.5Q327 114 351.5 99.5Q376 85 405.0 85.0Q434 85 458.5 99.5Q483 114 497.5 138.5Q512 163 512.0 192.0Q512 221 497.5 245.5Q483 270 458.5 284.5Q434 299 405 299ZM107 117Q76 117 54.0 139.0Q32 161 32.0 192.0Q32 223 54.0 245.0Q76 267 107 267Q133 267 153.5 250.0Q174 233 179 208H85V176H179Q174 151 153.5 134.0Q133 117 107 117ZM405 117Q374 117 352.5 139.0Q331 161 331 192Q331 209 338.0 223.5Q345 238 358 249L396 174L424 189L386 264Q398 267 405 267Q436 267 458.0 245.0Q480 223 480.0 192.0Q480 161 458.0 139.0Q436 117 405 117ZM235 21H149L277 -43V0H363L235 64Z" />
      </g>
    </svg>