<svg xmlns="http://www.w3.org/2000/svg" viewBox="0 21 512 342">
      <g transform="scale(1 -1) translate(0 -384)">
        <path d="M250 163 302 284 279 331H224V363H299L314 331H464L443 256H351L365 227Q384 235 405 235Q434 235 458.5 220.5Q483 206 497.5 181.5Q512 157 512.0 128.0Q512 99 497.5 74.5Q483 50 458.5 35.5Q434 21 405.0 21.0Q376 21 351.5 35.5Q327 50 313.0 74.5Q299 99 299 128Q299 152 309.0 173.5Q319 195 337 210L320 245L261 107H211Q204 70 174.5 45.5Q145 21 107 21Q78 21 53.5 35.5Q29 50 14.5 74.5Q0 99 0.0 128.0Q0 157 14.5 181.5Q29 206 53.5 220.5Q78 235 107 235Q148 235 178.5 207.0Q209 179 213 139H226L177 256H160Q153 256 148.5 260.5Q144 265 144.0 272.0Q144 279 148.5 283.5Q153 288 160 288H219Q225 288 230.0 283.5Q235 279 235.0 272.0Q235 265 230.0 260.5Q225 256 219 256H213ZM107 203Q76 203 54.0 181.0Q32 159 32.0 128.0Q32 97 54.0 75.0Q76 53 107 53Q132 53 151.5 68.0Q171 83 178 107H85V139H181Q177 166 156.0 184.5Q135 203 107 203ZM405 203Q392 203 379 198L420 113L391 99L352 180Q331 159 331.0 128.0Q331 97 352.5 75.0Q374 53 405.0 53.0Q436 53 458.0 75.0Q480 97 480.0 128.0Q480 159 458.0 181.0Q436 203 405 203Z" />
      </g>
    </svg>