<svg xmlns="http://www.w3.org/2000/svg" viewBox="0 21 512 331">
      <g transform="scale(1 -1) translate(0 -373)">
        <path d="M405 235Q389 235 371 229L308 352H235V320H289L308 283L256 168L218 257Q223 259 226.0 263.0Q229 267 229.0 273.0Q229 279 224.5 283.5Q220 288 213 288H171Q164 288 159.0 283.5Q154 279 154.0 272.0Q154 265 159.0 260.5Q164 256 171 256H184L232 144H212Q206 183 176.0 209.0Q146 235 107 235Q78 235 53.5 220.5Q29 206 14.5 181.5Q0 157 0.0 128.0Q0 99 14.5 74.5Q29 50 53.5 35.5Q78 21 107 21Q146 21 176.0 47.0Q206 73 212 112H267L326 247L343 214Q322 199 310.5 176.5Q299 154 299 128Q299 99 313.0 74.5Q327 50 351.5 35.5Q376 21 405.0 21.0Q434 21 458.5 35.5Q483 50 497.5 74.5Q512 99 512.0 128.0Q512 157 497.5 181.5Q483 206 458.5 220.5Q434 235 405 235ZM107 53Q76 53 54.0 75.0Q32 97 32.0 128.0Q32 159 54.0 181.0Q76 203 107 203Q133 203 153.5 186.0Q174 169 179 144H85V112H179Q174 87 153.5 70.0Q133 53 107 53ZM405 53Q374 53 352.5 75.0Q331 97 331 128Q331 145 338.0 159.5Q345 174 358 185L396 110L424 125L386 200Q398 203 405 203Q436 203 458.0 181.0Q480 159 480.0 128.0Q480 97 458.0 75.0Q436 53 405 53Z" />
      </g>
    </svg>