<svg xmlns="http://www.w3.org/2000/svg" viewBox="21 -21 470 426">
      <g transform="scale(1 -1) translate(0 -384)">
        <path d="M331 340V405H256V363H288V340Q264 338 239 331Q233 341 221 341H149Q141 341 134.5 335.0Q128 329 128.0 320.0Q128 311 134.5 305.0Q141 299 149 299H172Q124 266 95.0 214.5Q66 163 64 103Q45 96 33.0 79.5Q21 63 21 43Q21 16 40.0 -2.5Q59 -21 85.5 -21.0Q112 -21 130.5 -2.5Q149 16 149 43Q149 63 137.5 79.5Q126 96 107 103Q109 151 131 192Q128 175 128 160Q128 111 152.5 69.0Q177 27 218.5 3.0Q260 -21 309.5 -21.0Q359 -21 400.5 3.0Q442 27 466.5 69.0Q491 111 491 160Q491 206 469.5 245.0Q448 284 411.5 309.5Q375 335 331 340ZM85 21Q77 21 70.5 27.5Q64 34 64.0 42.5Q64 51 70.5 57.5Q77 64 85.5 64.0Q94 64 100.5 57.5Q107 51 107.0 42.5Q107 34 100.5 27.5Q94 21 85 21ZM309 21Q272 21 240.0 40.0Q208 59 189.5 90.5Q171 122 171 160Q171 211 204.5 250.0Q238 289 288 297V128H331V297Q381 289 414.5 250.0Q448 211 448 160Q448 122 429.5 90.5Q411 59 379.0 40.0Q347 21 309 21Z" />
      </g>
    </svg>