<svg xmlns="http://www.w3.org/2000/svg" viewBox="0 -21 512 443">
      <g transform="scale(1 -1) translate(0 -401)">
        <path d="M107 11Q76 11 54.0 32.5Q32 54 32.0 85.0Q32 116 54.0 138.0Q76 160 107.0 160.0Q138 160 159.5 138.0Q181 116 181.0 85.0Q181 54 159.5 32.5Q138 11 107 11ZM107 192Q78 192 53.5 177.5Q29 163 14.5 138.5Q0 114 0.0 85.0Q0 56 14.5 31.5Q29 7 53.5 -7.0Q78 -21 107.0 -21.0Q136 -21 160.5 -7.0Q185 7 199.0 31.5Q213 56 213.0 85.0Q213 114 199.0 138.5Q185 163 160.5 177.5Q136 192 107 192ZM316 235H405V273H337L296 343Q291 351 282.5 356.0Q274 361 265 361Q249 361 239 350L160 271Q149 260 149 245Q149 225 167 214L239 171V64H277V203L229 238L279 288ZM405 11Q374 11 352.5 32.5Q331 54 331.0 85.0Q331 116 352.5 138.0Q374 160 405.0 160.0Q436 160 458.0 138.0Q480 116 480.0 85.0Q480 54 458.0 32.5Q436 11 405 11ZM405 192Q376 192 351.5 177.5Q327 163 313.0 138.5Q299 114 299.0 85.0Q299 56 313.0 31.5Q327 7 351.5 -7.0Q376 -21 405.0 -21.0Q434 -21 458.5 -7.0Q483 7 497.5 31.5Q512 56 512.0 85.0Q512 114 497.5 138.5Q483 163 458.5 177.5Q434 192 405 192ZM341 346Q357 346 368.5 357.0Q380 368 380.0 384.0Q380 400 368.5 411.0Q357 422 341.0 422.0Q325 422 314.0 411.0Q303 400 303.0 384.0Q303 368 314.0 357.0Q325 346 341 346Z" />
      </g>
    </svg>