<svg xmlns="http://www.w3.org/2000/svg" viewBox="21 -43 470 470">
      <g transform="scale(1 -1) translate(0 -384)">
        <path d="M235 171H277V128H235ZM235 256H277V213H235ZM235 85H277Q295 85 307.5 97.5Q320 110 320 128V160Q320 173 310.5 182.5Q301 192 288 192Q301 192 310.5 201.5Q320 211 320 224V256Q320 274 307.5 286.5Q295 299 277 299H235Q217 299 204.5 286.5Q192 274 192 256V224Q192 211 201.5 201.5Q211 192 224 192Q211 192 201.5 182.5Q192 173 192 160V128Q192 110 204.5 97.5Q217 85 235 85ZM256 427Q192 427 138.0 395.5Q84 364 52.5 310.0Q21 256 21.0 192.0Q21 128 52.5 74.0Q84 20 138.0 -11.5Q192 -43 256.0 -43.0Q320 -43 374.0 -11.5Q428 20 459.5 74.0Q491 128 491.0 192.0Q491 256 459.5 310.0Q428 364 374.0 395.5Q320 427 256 427ZM256 43Q215 43 181.0 63.0Q147 83 127.0 117.0Q107 151 107.0 192.0Q107 233 127.0 267.0Q147 301 181.0 321.0Q215 341 256.0 341.0Q297 341 331.0 321.0Q365 301 385.0 267.0Q405 233 405.0 192.0Q405 151 385.0 117.0Q365 83 331.0 63.0Q297 43 256 43Z" />
      </g>
    </svg>