<svg xmlns="http://www.w3.org/2000/svg" viewBox="68 2 373 340">
      <g transform="scale(1 -1) translate(0 -344)">
        <path d="M433 97 310 310Q297 333 271.5 340.0Q246 347 223 333Q208 325 200 310L77 97Q64 74 70.5 49.0Q77 24 100 11Q114 2 132 2H378Q405 2 423.5 20.5Q442 39 442 66Q442 83 433 97ZM115 76 237 289Q241 296 249.5 298.5Q258 301 266 297Q271 294 274 289L396 76Q401 68 398.5 60.0Q396 52 388 47Q384 44 378 44H132Q124 44 117.5 50.5Q111 57 111 66Q111 72 114 76ZM255 161Q238 161 225.5 173.5Q213 186 213.0 203.5Q213 221 225.5 233.5Q238 246 255.5 246.0Q273 246 285.5 233.5Q298 221 298.0 203.5Q298 186 285.5 173.5Q273 161 255 161ZM202 65Q184 65 171.5 77.5Q159 90 159.0 108.0Q159 126 171.5 138.0Q184 150 201.5 150.0Q219 150 231.5 138.0Q244 126 244.0 108.0Q244 90 231.5 77.5Q219 65 202 65ZM308 65Q291 66 278.5 78.0Q266 90 266.0 107.5Q266 125 278.5 137.5Q291 150 308.5 150.0Q326 150 338.5 138.0Q351 126 351.0 108.0Q351 90 338.5 77.5Q326 65 308 65Z" />
      </g>
    </svg>