<svg xmlns="http://www.w3.org/2000/svg" viewBox="43 43 426 256">
      <g transform="scale(1 -1) translate(0 -342)">
        <path d="M363 192H427Q444 192 456.5 179.5Q469 167 469 149V85Q469 68 456.5 55.5Q444 43 427 43H363Q345 43 332.5 55.5Q320 68 320 85V149Q320 167 332.5 179.5Q345 192 363 192ZM363 149V85H427V149ZM43 299H149Q167 299 179.5 286.5Q192 274 192 256V213Q192 196 179.5 183.5Q167 171 149 171Q167 171 179.5 158.5Q192 146 192 128V85Q192 68 179.5 55.5Q167 43 149 43H43ZM85 256V192H149V256ZM85 85H149V149H85ZM235 171H277V43H235ZM235 256H277V213H235Z" />
      </g>
    </svg>