<svg xmlns="http://www.w3.org/2000/svg" viewBox="21 -21 470 426">
      <g transform="scale(1 -1) translate(0 -384)">
        <path d="M491 105Q491 96 490 92Q487 133 456.5 161.5Q426 190 384 190Q374 190 361 187V185Q363 176 363 171Q363 133 339.0 104.5Q315 76 279 68Q284 32 311.5 7.0Q339 -18 377 -20Q372 -21 363 -21Q330 -21 301.5 -6.0Q273 9 256 35Q239 9 210.5 -6.0Q182 -21 149 -21Q140 -21 135 -20Q173 -18 200.0 7.0Q227 32 233 68Q197 76 173.0 104.5Q149 133 149 171Q149 175 150 183L151 187Q138 190 128 190Q86 190 55.5 161.5Q25 133 22 92Q21 96 21 105Q21 139 38.0 167.5Q55 196 83.0 213.5Q111 231 145 232Q128 261 128.0 295.5Q128 330 146.0 359.5Q164 389 193 405Q173 391 161.0 368.5Q149 346 149 320Q149 299 157.5 279.5Q166 260 181 245Q212 276 256 276Q278 276 297.0 268.0Q316 260 331 245Q346 260 354.5 279.5Q363 299 363 320Q363 346 351.0 368.5Q339 391 319 405Q348 389 366.0 359.5Q384 330 384.0 295.5Q384 261 367 232Q401 231 429.5 213.5Q458 196 474.5 167.5Q491 139 491 105ZM198 232Q224 215 256.0 215.0Q288 215 314 232Q289 255 256.0 255.0Q223 255 198 232ZM256 139Q269 139 278.5 148.5Q288 158 288.0 171.0Q288 184 278.5 193.5Q269 203 256.0 203.0Q243 203 233.5 193.5Q224 184 224.0 171.0Q224 158 233.5 148.5Q243 139 256 139ZM234 90Q232 120 215.5 144.0Q199 168 172 180L171 171Q171 142 188.5 119.5Q206 97 234 90ZM340 180Q314 168 296.5 144.0Q279 120 277 90Q305 97 323.0 119.5Q341 142 341 171Z" />
      </g>
    </svg>