<svg xmlns="http://www.w3.org/2000/svg" viewBox="43 21 448 363">
      <g transform="scale(1 -1) translate(0 -405)">
        <path d="M491 203 426 227Q422 242 414 255L406 265Q380 292 343.0 292.0Q306 292 280 265L248 234L107 384Q91 321 105.0 259.0Q119 197 159 145L43 32L74 27Q113 21 151 21Q205 22 249 32Q305 46 343 76Q383 107 402 133Q416 152 423 177ZM378 198Q372 192 363.0 192.0Q354 192 347.5 198.0Q341 204 341.0 213.0Q341 222 347.5 228.0Q354 234 363.0 234.0Q372 234 378.0 228.0Q384 222 384.0 213.0Q384 204 378 198Z" />
      </g>
    </svg>