<svg xmlns="http://www.w3.org/2000/svg" viewBox="42 -21 427 427">
      <g transform="scale(1 -1) translate(0 -385)">
        <path d="M304 223Q300 207 278 207Q266 207 245 213H243L255 260L262 258Q282 253 291 248Q308 238 304 223ZM237 189 225 138 229 137Q253 130 267 130Q292 130 296.5 147.5Q301 165 280 176Q268 183 243 188ZM463 140Q449 84 409.5 43.5Q370 3 315.5 -13.0Q261 -29 204.5 -15.0Q148 -1 107.5 38.5Q67 78 51.0 132.5Q35 187 49.0 243.5Q63 300 102.5 340.5Q142 381 196.5 397.0Q251 413 307.5 399.0Q364 385 404.5 345.5Q445 306 461.0 251.5Q477 197 463 140ZM303 276 313 315 289 320 280 283 261 287 271 325 247 331 238 292 191 304 184 279 193 277Q201 275 201 275Q213 272 212 261L186 156Q183 149 175 150Q175 150 158 155L147 128L194 116L184 77L207 71L217 110L236 105L226 67L249 61L259 100Q292 93 310 99Q333 106 341 131Q356 170 320 188Q346 195 350 223Q353 242 339 256Q328 268 303 276Z" />
      </g>
    </svg>