<svg xmlns="http://www.w3.org/2000/svg" viewBox="21 0 469 381">
      <g transform="scale(1 -1) translate(0 -381)">
        <path d="M268 381Q258 381 250.0 375.5Q242 370 241.0 362.0Q240 354 247 348L308 299L122 298Q110 298 100.5 291.5Q91 285 88.5 275.0Q86 265 93.0 258.0Q100 251 112 251L207 252L38 122Q25 112 22.0 99.0Q19 86 26.5 76.5Q34 67 48.0 67.0Q62 67 75 76L166 152V146Q165 139 165 135Q165 124 170 108Q179 78 201.5 53.5Q224 29 256.5 14.5Q289 0 327.0 0.0Q365 0 399 15Q430 29 452.5 54.0Q475 79 484 109Q489 122 491 139Q491 159 489 169Q485 198 470.0 222.0Q455 246 433 263L286 376Q279 381 268 381ZM327 252Q365 252 394 228Q408 217 416.5 202.0Q425 187 426.5 168.5Q428 150 421.5 133.0Q415 116 401.0 101.5Q387 87 368.0 79.0Q349 71 327.5 71.0Q306 71 286.5 78.5Q267 86 253.0 100.5Q239 115 232.5 132.5Q226 150 228.0 168.0Q230 186 238.5 201.5Q247 217 261 228Q289 252 327 252ZM329 222Q304 222 285.5 206.0Q267 190 266.0 166.5Q265 143 283.0 125.0Q301 107 329.0 107.0Q357 107 375.5 125.0Q394 143 393.0 166.5Q392 190 373.0 206.0Q354 222 329 222Z" />
      </g>
    </svg>