<svg xmlns="http://www.w3.org/2000/svg" viewBox="64 -21 320 426">
      <g transform="scale(1 -1) translate(0 -384)">
        <path d="M344 125 384 384H299V405H213V384H107Q89 384 76.5 371.5Q64 359 64 341V256Q64 238 76.5 225.5Q89 213 107 213H154L168 125Q149 110 138.5 88.5Q128 67 128 43V21Q128 4 140.5 -8.5Q153 -21 171 -21H341Q359 -21 371.5 -8.5Q384 4 384 21V43Q384 67 373.5 88.5Q363 110 344 125ZM107 256V341H135L148 256ZM334 341 305 149H207L178 341ZM341 21H171V43Q171 69 189.5 88.0Q208 107 235 107H277Q304 107 322.5 88.0Q341 69 341 43ZM256 85Q265 85 271.0 79.0Q277 73 277.0 64.0Q277 55 271.0 49.0Q265 43 256.0 43.0Q247 43 241.0 49.0Q235 55 235.0 64.0Q235 73 241.0 79.0Q247 85 256 85Z" />
      </g>
    </svg>