<svg xmlns="http://www.w3.org/2000/svg" viewBox="43 107 426 298">
      <g transform="scale(1 -1) translate(0 -512)">
        <path d="M64 405H448Q457 405 463.0 399.0Q469 393 469 384V341Q469 333 463.0 326.5Q457 320 448 320H427V299Q427 290 420.5 283.5Q414 277 405 277H277V231Q296 224 308.0 207.5Q320 191 320 171Q320 144 301.5 125.5Q283 107 256.0 107.0Q229 107 210.5 125.5Q192 144 192 171Q192 191 204.0 207.5Q216 224 235 231V277H107Q98 277 91.5 283.5Q85 290 85 299V320H64Q55 320 49.0 326.5Q43 333 43 341V384Q43 393 49.0 399.0Q55 405 64 405ZM256 192Q247 192 241.0 185.5Q235 179 235.0 170.5Q235 162 241.0 155.5Q247 149 256.0 149.0Q265 149 271.0 155.5Q277 162 277.0 170.5Q277 179 271.0 185.5Q265 192 256 192Z" />
      </g>
    </svg>