<svg xmlns="http://www.w3.org/2000/svg" viewBox="53 -11 406 406">
      <g transform="scale(1 -1) translate(0 -384)">
        <path d="M299 267Q285 267 276.0 257.5Q267 248 267.0 234.5Q267 221 276.0 212.0Q285 203 298.5 203.0Q312 203 321.5 212.0Q331 221 331.0 234.5Q331 248 321.5 257.5Q312 267 299 267ZM299 181Q285 181 276.0 172.0Q267 163 267.0 149.5Q267 136 276.0 126.5Q285 117 298.5 117.0Q312 117 321.5 126.5Q331 136 331.0 149.5Q331 163 321.5 172.0Q312 181 299 181ZM213 85Q204 85 198.0 79.0Q192 73 192.0 64.0Q192 55 198.0 49.0Q204 43 213.0 43.0Q222 43 228.5 49.0Q235 55 235.0 64.0Q235 73 228.5 79.0Q222 85 213 85ZM213 267Q200 267 190.5 257.5Q181 248 181.0 234.5Q181 221 190.5 212.0Q200 203 213.5 203.0Q227 203 236.0 212.0Q245 221 245.0 234.5Q245 248 236.0 257.5Q227 267 213 267ZM299 11Q294 11 291.0 7.5Q288 4 288.0 0.0Q288 -4 291.0 -7.5Q294 -11 298.5 -11.0Q303 -11 306.0 -7.5Q309 -4 309.0 0.0Q309 4 306.0 7.5Q303 11 299 11ZM299 85Q290 85 283.5 79.0Q277 73 277.0 64.0Q277 55 283.5 49.0Q290 43 299.0 43.0Q308 43 314.0 49.0Q320 55 320.0 64.0Q320 73 314.0 79.0Q308 85 299 85ZM448 160Q444 160 440.5 157.0Q437 154 437.0 149.5Q437 145 440.5 142.0Q444 139 448.0 139.0Q452 139 455.5 142.0Q459 145 459.0 149.5Q459 154 455.5 157.0Q452 160 448 160ZM384 341Q375 341 369.0 335.0Q363 329 363.0 320.0Q363 311 369.0 305.0Q375 299 384.0 299.0Q393 299 399.0 305.0Q405 311 405.0 320.0Q405 329 399.0 335.0Q393 341 384 341ZM384 256Q375 256 369.0 250.0Q363 244 363.0 235.0Q363 226 369.0 219.5Q375 213 384.0 213.0Q393 213 399.0 219.5Q405 226 405.0 235.0Q405 244 399.0 250.0Q393 256 384 256ZM384 85Q375 85 369.0 79.0Q363 73 363.0 64.0Q363 55 369.0 49.0Q375 43 384.0 43.0Q393 43 399.0 49.0Q405 55 405.0 64.0Q405 73 399.0 79.0Q393 85 384 85ZM384 171Q375 171 369.0 164.5Q363 158 363.0 149.0Q363 140 369.0 134.0Q375 128 384.0 128.0Q393 128 399.0 134.0Q405 140 405.0 149.0Q405 158 399.0 164.5Q393 171 384 171ZM213 181Q200 181 190.5 172.0Q181 163 181.0 149.5Q181 136 190.5 126.5Q200 117 213.5 117.0Q227 117 236.0 126.5Q245 136 245.0 149.5Q245 163 236.0 172.0Q227 181 213 181ZM213 299Q222 299 228.5 305.0Q235 311 235.0 320.0Q235 329 228.5 335.0Q222 341 213.0 341.0Q204 341 198.0 335.0Q192 329 192.0 320.0Q192 311 198.0 305.0Q204 299 213 299ZM213 373Q218 373 221.0 376.5Q224 380 224.0 384.0Q224 388 221.0 391.5Q218 395 213.5 395.0Q209 395 206.0 391.5Q203 388 203.0 384.0Q203 380 206.0 376.5Q209 373 213 373ZM213 11Q209 11 206.0 7.5Q203 4 203.0 0.0Q203 -4 206.0 -7.5Q209 -11 213.5 -11.0Q218 -11 221.0 -7.5Q224 -4 224.0 0.0Q224 4 221.0 7.5Q218 11 213 11ZM64 160Q60 160 56.5 157.0Q53 154 53.0 149.5Q53 145 56.5 142.0Q60 139 64.0 139.0Q68 139 71.5 142.0Q75 145 75.0 149.5Q75 154 71.5 157.0Q68 160 64 160ZM299 373Q303 373 306.0 376.5Q309 380 309.0 384.0Q309 388 306.0 391.5Q303 395 298.5 395.0Q294 395 291.0 391.5Q288 388 288.0 384.0Q288 380 291.0 376.5Q294 373 299 373ZM299 299Q308 299 314.0 305.0Q320 311 320.0 320.0Q320 329 314.0 335.0Q308 341 299.0 341.0Q290 341 283.5 335.0Q277 329 277.0 320.0Q277 311 283.5 305.0Q290 299 299 299ZM448 224Q452 224 455.5 227.0Q459 230 459.0 234.5Q459 239 455.5 242.0Q452 245 448.0 245.0Q444 245 440.5 242.0Q437 239 437.0 234.5Q437 230 440.5 227.0Q444 224 448 224ZM128 341Q119 341 113.0 335.0Q107 329 107.0 320.0Q107 311 113.0 305.0Q119 299 128.0 299.0Q137 299 143.0 305.0Q149 311 149.0 320.0Q149 329 143.0 335.0Q137 341 128 341ZM64 245Q60 245 56.5 242.0Q53 239 53.0 234.5Q53 230 56.5 227.0Q60 224 64.0 224.0Q68 224 71.5 227.0Q75 230 75.0 234.5Q75 239 71.5 242.0Q68 245 64 245ZM128 256Q119 256 113.0 250.0Q107 244 107.0 235.0Q107 226 113.0 219.5Q119 213 128.0 213.0Q137 213 143.0 219.5Q149 226 149.0 235.0Q149 244 143.0 250.0Q137 256 128 256ZM128 85Q119 85 113.0 79.0Q107 73 107.0 64.0Q107 55 113.0 49.0Q119 43 128.0 43.0Q137 43 143.0 49.0Q149 55 149.0 64.0Q149 73 143.0 79.0Q137 85 128 85ZM128 171Q119 171 113.0 164.5Q107 158 107.0 149.0Q107 140 113.0 134.0Q119 128 128.0 128.0Q137 128 143.0 134.0Q149 140 149.0 149.0Q149 158 143.0 164.5Q137 171 128 171Z" />
      </g>
    </svg>