<svg xmlns="http://www.w3.org/2000/svg" viewBox="64 0 384 384">
      <g transform="scale(1 -1) translate(0 -384)">
        <path d="M277 85Q286 85 292.5 91.5Q299 98 299.0 107.0Q299 116 292.5 122.0Q286 128 277.0 128.0Q268 128 262.0 122.0Q256 116 256.0 107.0Q256 98 262.0 91.5Q268 85 277 85ZM277 171Q286 171 292.5 177.0Q299 183 299.0 192.0Q299 201 292.5 207.0Q286 213 277.0 213.0Q268 213 262.0 207.0Q256 201 256.0 192.0Q256 183 262.0 177.0Q268 171 277 171ZM277 256Q286 256 292.5 262.0Q299 268 299.0 277.0Q299 286 292.5 292.5Q286 299 277.0 299.0Q268 299 262.0 292.5Q256 286 256.0 277.0Q256 268 262.0 262.0Q268 256 277 256ZM363 181Q367 181 370.0 184.5Q373 188 373.0 192.0Q373 196 370.0 199.5Q367 203 362.5 203.0Q358 203 355.0 199.5Q352 196 352.0 192.0Q352 188 355.0 184.5Q358 181 363 181ZM363 267Q367 267 370.0 270.0Q373 273 373.0 277.5Q373 282 370.0 285.0Q367 288 362.5 288.0Q358 288 355.0 285.0Q352 282 352.0 277.5Q352 273 355.0 270.0Q358 267 363 267ZM64 384V341H448V384ZM363 96Q367 96 370.0 99.0Q373 102 373.0 106.5Q373 111 370.0 114.0Q367 117 362.5 117.0Q358 117 355.0 114.0Q352 111 352.0 106.5Q352 102 355.0 99.0Q358 96 363 96ZM192 85Q201 85 207.0 91.5Q213 98 213.0 107.0Q213 116 207.0 122.0Q201 128 192.0 128.0Q183 128 177.0 122.0Q171 116 171.0 107.0Q171 98 177.0 91.5Q183 85 192 85ZM107 160Q120 160 129.5 169.5Q139 179 139.0 192.0Q139 205 129.5 214.5Q120 224 106.5 224.0Q93 224 84.0 214.5Q75 205 75.0 192.0Q75 179 84.0 169.5Q93 160 107 160ZM107 245Q120 245 129.5 254.5Q139 264 139.0 277.5Q139 291 129.5 300.0Q120 309 106.5 309.0Q93 309 84.0 300.0Q75 291 75.0 277.5Q75 264 84.0 254.5Q93 245 107 245ZM64 0H448V43H64ZM192 256Q201 256 207.0 262.0Q213 268 213.0 277.0Q213 286 207.0 292.5Q201 299 192.0 299.0Q183 299 177.0 292.5Q171 286 171.0 277.0Q171 268 177.0 262.0Q183 256 192 256ZM192 171Q201 171 207.0 177.0Q213 183 213.0 192.0Q213 201 207.0 207.0Q201 213 192.0 213.0Q183 213 177.0 207.0Q171 201 171.0 192.0Q171 183 177.0 177.0Q183 171 192 171ZM107 75Q120 75 129.5 84.0Q139 93 139.0 106.5Q139 120 129.5 129.5Q120 139 106.5 139.0Q93 139 84.0 129.5Q75 120 75.0 106.5Q75 93 84.0 84.0Q93 75 107 75Z" />
      </g>
    </svg>