<svg xmlns="http://www.w3.org/2000/svg" viewBox="43 -21 426 426">
      <g transform="scale(1 -1) translate(0 -384)">
        <path d="M299 171Q290 171 283.5 164.5Q277 158 277.0 149.0Q277 140 283.5 134.0Q290 128 299.0 128.0Q308 128 314.0 134.0Q320 140 320.0 149.0Q320 158 314.0 164.5Q308 171 299 171ZM299 96Q294 96 291.0 93.0Q288 90 288.0 85.5Q288 81 291.0 78.0Q294 75 298.5 75.0Q303 75 306.0 78.0Q309 81 309.0 85.5Q309 90 306.0 93.0Q303 96 299 96ZM256 21Q210 21 170.5 44.0Q131 67 108.0 106.5Q85 146 85.0 192.0Q85 238 108.0 277.5Q131 317 170.5 340.0Q210 363 256.0 363.0Q302 363 341.5 340.0Q381 317 404.0 277.5Q427 238 427.0 192.0Q427 146 404.0 106.5Q381 67 341.5 44.0Q302 21 256 21ZM256 405Q214 405 174.5 389.0Q135 373 105.0 343.0Q75 313 59.0 273.5Q43 234 43.0 192.0Q43 150 59.0 110.5Q75 71 105.0 41.0Q135 11 174.5 -5.0Q214 -21 256.0 -21.0Q298 -21 337.5 -5.0Q377 11 407.0 41.0Q437 71 453.0 110.5Q469 150 469.0 192.0Q469 234 453.0 273.5Q437 313 407.0 343.0Q377 373 337.5 389.0Q298 405 256 405ZM363 245Q358 245 355.0 242.0Q352 239 352.0 234.5Q352 230 355.0 227.0Q358 224 362.5 224.0Q367 224 370.0 227.0Q373 230 373.0 234.5Q373 239 370.0 242.0Q367 245 363 245ZM363 160Q358 160 355.0 157.0Q352 154 352.0 149.5Q352 145 355.0 142.0Q358 139 362.5 139.0Q367 139 370.0 142.0Q373 145 373.0 149.5Q373 154 370.0 157.0Q367 160 363 160ZM299 288Q303 288 306.0 291.0Q309 294 309.0 298.5Q309 303 306.0 306.0Q303 309 298.5 309.0Q294 309 291.0 306.0Q288 303 288.0 298.5Q288 294 291.0 291.0Q294 288 299 288ZM299 256Q290 256 283.5 250.0Q277 244 277.0 235.0Q277 226 283.5 219.5Q290 213 299.0 213.0Q308 213 314.0 219.5Q320 226 320.0 235.0Q320 244 314.0 250.0Q308 256 299 256ZM213 288Q218 288 221.0 291.0Q224 294 224.0 298.5Q224 303 221.0 306.0Q218 309 213.5 309.0Q209 309 206.0 306.0Q203 303 203.0 298.5Q203 294 206.0 291.0Q209 288 213 288ZM149 160Q145 160 142.0 157.0Q139 154 139.0 149.5Q139 145 142.0 142.0Q145 139 149.5 139.0Q154 139 157.0 142.0Q160 145 160.0 149.5Q160 154 157.0 157.0Q154 160 149 160ZM213 96Q209 96 206.0 93.0Q203 90 203.0 85.5Q203 81 206.0 78.0Q209 75 213.5 75.0Q218 75 221.0 78.0Q224 81 224.0 85.5Q224 90 221.0 93.0Q218 96 213 96ZM149 245Q145 245 142.0 242.0Q139 239 139.0 234.5Q139 230 142.0 227.0Q145 224 149.5 224.0Q154 224 157.0 227.0Q160 230 160.0 234.5Q160 239 157.0 242.0Q154 245 149 245ZM213 171Q204 171 198.0 164.5Q192 158 192.0 149.0Q192 140 198.0 134.0Q204 128 213.0 128.0Q222 128 228.5 134.0Q235 140 235.0 149.0Q235 158 228.5 164.5Q222 171 213 171ZM213 256Q204 256 198.0 250.0Q192 244 192.0 235.0Q192 226 198.0 219.5Q204 213 213.0 213.0Q222 213 228.5 219.5Q235 226 235.0 235.0Q235 244 228.5 250.0Q222 256 213 256Z" />
      </g>
    </svg>