<svg xmlns="http://www.w3.org/2000/svg" viewBox="53 -11 406 406">
      <g transform="scale(1 -1) translate(0 -384)">
        <path d="M64 160Q60 160 56.5 157.0Q53 154 53.0 149.5Q53 145 56.5 142.0Q60 139 64.0 139.0Q68 139 71.5 142.0Q75 145 75.0 149.5Q75 154 71.5 157.0Q68 160 64 160ZM128 85Q119 85 113.0 79.0Q107 73 107.0 64.0Q107 55 113.0 49.0Q119 43 128.0 43.0Q137 43 143.0 49.0Q149 55 149.0 64.0Q149 73 143.0 79.0Q137 85 128 85ZM213 11Q209 11 206.0 7.5Q203 4 203.0 0.0Q203 -4 206.0 -7.5Q209 -11 213.5 -11.0Q218 -11 221.0 -7.5Q224 -4 224.0 0.0Q224 4 221.0 7.5Q218 11 213 11ZM64 245Q60 245 56.5 242.0Q53 239 53.0 234.5Q53 230 56.5 227.0Q60 224 64.0 224.0Q68 224 71.5 227.0Q75 230 75.0 234.5Q75 239 71.5 242.0Q68 245 64 245ZM128 171Q119 171 113.0 164.5Q107 158 107.0 149.0Q107 140 113.0 134.0Q119 128 128.0 128.0Q137 128 143.0 134.0Q149 140 149.0 149.0Q149 158 143.0 164.5Q137 171 128 171ZM448 160Q444 160 440.5 157.0Q437 154 437.0 149.5Q437 145 440.5 142.0Q444 139 448.0 139.0Q452 139 455.5 142.0Q459 145 459.0 149.5Q459 154 455.5 157.0Q452 160 448 160ZM213 85Q204 85 198.0 79.0Q192 73 192.0 64.0Q192 55 198.0 49.0Q204 43 213.0 43.0Q222 43 228.5 49.0Q235 55 235.0 64.0Q235 73 228.5 79.0Q222 85 213 85ZM53 336 134 255 128 256Q119 256 113.0 250.0Q107 244 107.0 235.0Q107 226 113.0 219.5Q119 213 128.0 213.0Q137 213 143.0 219.5Q149 226 149 235Q149 237 148 241L208 181Q197 179 189.0 170.0Q181 161 181.0 148.5Q181 136 190.5 126.5Q200 117 212.5 117.0Q225 117 234.0 125.0Q243 133 245 144L305 84Q301 85 299 85Q290 85 283.5 79.0Q277 73 277.0 64.0Q277 55 283.5 49.0Q290 43 299.0 43.0Q308 43 314.0 49.0Q320 55 320 64Q320 66 319 70L399 -11L427 16L80 363ZM299 11Q294 11 291.0 7.5Q288 4 288.0 0.0Q288 -4 291.0 -7.5Q294 -11 298.5 -11.0Q303 -11 306.0 -7.5Q309 -4 309.0 0.0Q309 4 306.0 7.5Q303 11 299 11ZM384 299Q393 299 399.0 305.0Q405 311 405.0 320.0Q405 329 399.0 335.0Q393 341 384.0 341.0Q375 341 369.0 335.0Q363 329 363.0 320.0Q363 311 369.0 305.0Q375 299 384 299ZM384 213Q393 213 399.0 219.5Q405 226 405.0 235.0Q405 244 399.0 250.0Q393 256 384.0 256.0Q375 256 369.0 250.0Q363 244 363.0 235.0Q363 226 369.0 219.5Q375 213 384 213ZM384 128Q393 128 399.0 134.0Q405 140 405.0 149.0Q405 158 399.0 164.5Q393 171 384.0 171.0Q375 171 369.0 164.5Q363 158 363.0 149.0Q363 140 369.0 134.0Q375 128 384 128ZM213 299Q222 299 228.5 305.0Q235 311 235.0 320.0Q235 329 228.5 335.0Q222 341 213.0 341.0Q204 341 198.0 335.0Q192 329 192.0 320.0Q192 311 198.0 305.0Q204 299 213 299ZM448 224Q452 224 455.5 227.0Q459 230 459.0 234.5Q459 239 455.5 242.0Q452 245 448.0 245.0Q444 245 440.5 242.0Q437 239 437.0 234.5Q437 230 440.5 227.0Q444 224 448 224ZM213 373Q218 373 221.0 376.5Q224 380 224.0 384.0Q224 388 221.0 391.5Q218 395 213.5 395.0Q209 395 206.0 391.5Q203 388 203.0 384.0Q203 380 206.0 376.5Q209 373 213 373ZM299 373Q303 373 306.0 376.5Q309 380 309.0 384.0Q309 388 306.0 391.5Q303 395 298.5 395.0Q294 395 291.0 391.5Q288 388 288.0 384.0Q288 380 291.0 376.5Q294 373 299 373ZM294 203H299Q312 203 321.5 212.0Q331 221 331.0 234.5Q331 248 321.5 257.5Q312 267 298.5 267.0Q285 267 276.0 257.5Q267 248 267 235V230Q268 220 276.0 212.0Q284 204 294 203ZM299 299Q308 299 314.0 305.0Q320 311 320.0 320.0Q320 329 314.0 335.0Q308 341 299.0 341.0Q290 341 283.5 335.0Q277 329 277.0 320.0Q277 311 283.5 305.0Q290 299 299 299Z" />
      </g>
    </svg>