<svg xmlns="http://www.w3.org/2000/svg" viewBox="107 0 405 405">
      <g transform="scale(1 -1) translate(0 -405)">
        <path d="M240 320Q240 349 260.5 369.0Q281 389 309.5 389.0Q338 389 358.5 369.0Q379 349 379 320Q379 313 383.5 308.5Q388 304 394.5 304.0Q401 304 406.0 308.5Q411 313 411 320V336H443V320Q443 300 429.0 286.0Q415 272 395.0 272.0Q375 272 361.0 286.0Q347 300 347 320Q347 335 336.0 346.0Q325 357 309.5 357.0Q294 357 283.0 346.0Q272 335 272 320H299V292Q345 279 375.0 239.0Q405 199 405 149Q405 109 385.0 74.5Q365 40 331.0 20.0Q297 0 256.0 0.0Q215 0 181.0 20.0Q147 40 127.0 74.5Q107 109 107 149Q107 199 137.0 239.0Q167 279 213 292V320ZM469 320H512V299H469ZM405 363V405H427V363ZM446 355 476 385 492 370 461 339Z" />
      </g>
    </svg>