<svg xmlns="http://www.w3.org/2000/svg" viewBox="43 85 426 214">
      <g transform="scale(1 -1) translate(0 -384)">
        <path d="M171 149Q171 123 152.0 104.0Q133 85 106.5 85.0Q80 85 61.5 104.0Q43 123 43.0 148.5Q43 174 59 192Q43 210 43.0 235.5Q43 261 61.5 280.0Q80 299 106.5 299.0Q133 299 152.0 280.0Q171 261 171 235L179 234Q230 231 256.0 231.0Q282 231 333 234L341 235Q341 261 360.0 280.0Q379 299 405.5 299.0Q432 299 450.5 280.0Q469 261 469.0 235.5Q469 210 453 192Q469 174 469.0 148.5Q469 123 450.5 104.0Q432 85 405.5 85.0Q379 85 360.0 104.0Q341 123 341 149L333 150Q282 153 256.0 153.0Q230 153 179 150Z" />
      </g>
    </svg>