<svg xmlns="http://www.w3.org/2000/svg" viewBox="85 -32 384 437">
      <g transform="scale(1 -1) translate(0 -373)">
        <path d="M256 53Q256 13 278 -21H128Q110 -21 97.5 -8.5Q85 4 85 21V363Q85 380 97.5 392.5Q110 405 128 405H149V256L203 288L256 256V405H384Q402 405 414.5 392.5Q427 380 427 363V188Q409 192 395 192Q357 192 325.0 173.5Q293 155 274.5 123.0Q256 91 256 53ZM469 53V139L444 114Q419 139 384.0 139.0Q349 139 324.0 114.0Q299 89 299.0 53.5Q299 18 324.0 -7.0Q349 -32 384 -32Q411 -32 432.5 -17.5Q454 -3 463 21H427Q419 11 408.0 5.5Q397 0 384 0Q362 0 346.5 15.5Q331 31 331.0 53.0Q331 75 346.5 91.0Q362 107 384.0 107.0Q406 107 422 91L384 53Z" />
      </g>
    </svg>