<svg xmlns="http://www.w3.org/2000/svg" viewBox="85 -21 342 426">
      <g transform="scale(1 -1) translate(0 -384)">
        <path d="M384 405H256V256L203 288L149 256V405H128Q110 405 97.5 392.5Q85 380 85 363V21Q85 4 97.5 -8.5Q110 -21 128 -21H384Q402 -21 414.5 -8.5Q427 4 427 21V363Q427 380 414.5 392.5Q402 405 384 405ZM299 192Q312 192 322.5 185.0Q333 178 338.0 166.0Q343 154 340.5 141.0Q338 128 329.0 119.0Q320 110 307.0 107.5Q294 105 282.0 110.0Q270 115 263.0 125.5Q256 136 256 149Q256 167 268.5 179.5Q281 192 299 192ZM384 21H213V43Q213 62 245 75Q272 85 298.5 85.0Q325 85 352 75Q384 62 384 43Z" />
      </g>
    </svg>