<svg xmlns="http://www.w3.org/2000/svg" viewBox="85 -43 384 448">
      <g transform="scale(1 -1) translate(0 -362)">
        <path d="M277 11Q277 -6 283 -21H128Q110 -21 97.5 -8.5Q85 4 85 21V363Q85 380 97.5 392.5Q110 405 128 405H149V256L203 288L256 256V405H384Q402 405 414.5 392.5Q427 380 427 363V213H352V104Q320 97 298.5 71.0Q277 45 277 11ZM427 171H395V60Q385 64 373 64Q351 64 335.5 48.5Q320 33 320.0 11.0Q320 -11 335.5 -27.0Q351 -43 373.0 -43.0Q395 -43 411.0 -27.0Q427 -11 427 11V128H469V171Z" />
      </g>
    </svg>