<svg xmlns="http://www.w3.org/2000/svg" viewBox="64 -33 417 438">
      <g transform="scale(1 -1) translate(0 -372)">
        <path d="M279 21H107V320H64V21Q64 4 76.5 -8.5Q89 -21 107 -21H295Q283 -2 279 21ZM405 405H299V299L256 331L213 299V405H192Q174 405 161.5 392.5Q149 380 149 363V107Q149 89 161.5 76.5Q174 64 192 64H279Q284 92 300.0 115.5Q316 139 340.5 153.0Q365 167 393.0 170.0Q421 173 448 163V363Q448 380 435.5 392.5Q423 405 405 405ZM481 88 435 43 481 -3 451 -33 405 13 360 -33 330 -3 375 43 330 88 360 118 405 73 451 118Z" />
      </g>
    </svg>