<svg xmlns="http://www.w3.org/2000/svg" viewBox="21 -11 470 363">
      <g transform="scale(1 -1) translate(0 -341)">
        <path d="M373 142Q399 142 427 137V105Q407 110 373 110Q313 110 277 89V125Q315 142 373 142ZM277 182Q318 199 373 199Q400 199 427 194V162Q407 167 373 167Q313 167 277 146ZM373 224Q312 224 277 203V238Q317 256 373 256Q398 256 427 251V218Q403 224 373 224ZM448 53V299Q414 309 373 309Q308 309 256 277V32Q308 64 373 64Q412 64 448 53ZM373 352Q449 352 491 320V9Q491 5 487.0 1.5Q483 -2 480.0 -2.0Q477 -2 475 -1Q434 21 373 21Q308 21 256 -11Q213 21 139 21Q86 21 37 -1L32 -3Q28 -3 24.5 0.0Q21 3 21 7V320Q64 352 138.5 352.0Q213 352 256 320Q299 352 373 352Z" />
      </g>
    </svg>