<svg xmlns="http://www.w3.org/2000/svg" viewBox="85 -64 406 469">
      <g transform="scale(1 -1) translate(0 -341)">
        <path d="M352 80 413 44 397 18 320 64V171H352ZM491 85Q491 45 471.0 10.5Q451 -24 416.5 -44.0Q382 -64 341 -64Q311 -64 284.5 -53.0Q258 -42 237 -21H128Q110 -21 97.5 -8.5Q85 4 85 21V363Q85 380 97.5 392.5Q110 405 128 405H149V256L203 288L256 256V405H384Q402 405 414.5 392.5Q427 380 427 363V208Q456 187 473.5 155.0Q491 123 491 85ZM448 85Q448 114 433.5 138.5Q419 163 394.5 177.5Q370 192 341.0 192.0Q312 192 287.5 177.5Q263 163 249.0 138.5Q235 114 235.0 85.0Q235 56 249.0 31.5Q263 7 287.5 -7.0Q312 -21 341.0 -21.0Q370 -21 394.5 -7.0Q419 7 433.5 31.5Q448 56 448 85Z" />
      </g>
    </svg>