<svg xmlns="http://www.w3.org/2000/svg" viewBox="21 -11 470 363">
      <g transform="scale(1 -1) translate(0 -341)">
        <path d="M448 341Q414 352 373 352Q339 352 311 345Q278 337 256 320Q234 337 201 345Q173 352 139.0 352.0Q105 352 76 345Q43 337 21 320V7Q21 3 24.5 0.0Q28 -3 32 -3L37 -2Q59 8 87.0 14.5Q115 21 139 21Q173 21 201 14Q234 6 256 -11Q277 3 311.5 12.0Q346 21 373 21Q433 21 475 -1Q477 -2 480.5 -2.0Q484 -2 487.5 1.5Q491 5 491 9V320Q474 333 448 341ZM448 53Q414 64 373 64Q346 64 311.5 54.5Q277 45 256 32V277Q277 291 311.5 300.0Q346 309 373 309Q414 309 448 299Z" />
      </g>
    </svg>