<svg xmlns="http://www.w3.org/2000/svg" viewBox="85 -21 342 426">
      <g transform="scale(1 -1) translate(0 -384)">
        <path d="M384 405H256V256L203 288L149 256V405H128Q110 405 97.5 392.5Q85 380 85 363V21Q85 4 97.5 -8.5Q110 -21 128 -21H384Q402 -21 414.5 -8.5Q427 4 427 21V363Q427 380 414.5 392.5Q402 405 384 405ZM377 55Q375 54 362 45L342 32Q329 23 318 21Q301 20 304 44Q309 71 320 112Q328 141 327 148Q327 157 313 148L297 139Q295 137 294.5 137.0Q294 137 292 140L291 142Q290 144 290.0 144.5Q290 145 292 147L318 166Q346 185 356.5 186.0Q367 187 369 177Q370 171 368 159L357 118Q341 58 342.5 52.5Q344 47 354 52Q359 55 370 62L373 64Q374 65 376 63L377 61Q379 59 379.0 58.0Q379 57 377 55ZM362 212Q353 212 346.5 218.5Q340 225 340.0 234.0Q340 243 346.5 249.5Q353 256 362.0 256.0Q371 256 377.5 249.5Q384 243 384.0 234.0Q384 225 377.5 218.5Q371 212 362 212Z" />
      </g>
    </svg>