<svg xmlns="http://www.w3.org/2000/svg" viewBox="21 -11 470 438">
      <g transform="scale(1 -1) translate(0 -416)">
        <path d="M405 427 299 320V85L405 181ZM448 341V53Q414 64 373 64Q346 64 311.5 54.5Q277 45 256 32V320Q234 337 201 345Q173 352 139.0 352.0Q105 352 76 345Q43 337 21 320V7Q21 3 24.5 0.0Q28 -3 32 -3L37 -2Q59 8 87.0 14.5Q115 21 139 21Q173 21 201 14Q234 6 256 -11Q277 3 311.5 12.0Q346 21 373 21Q433 21 475 -1Q477 -2 480.5 -2.0Q484 -2 487.5 1.5Q491 5 491 9V320Q474 333 448 341ZM213 55Q179 64 139 64Q105 64 64 53V296Q95 309 139.0 309.0Q183 309 213 296Z" />
      </g>
    </svg>