<svg xmlns="http://www.w3.org/2000/svg" viewBox="85 -51 393 456">
      <g transform="scale(1 -1) translate(0 -354)">
        <path d="M331 192Q371 192 399.0 164.0Q427 136 427 96Q427 68 412 45L478 -21L448 -51L381 15Q358 0 331 0Q291 0 263.0 28.0Q235 56 235.0 96.0Q235 136 263.0 164.0Q291 192 331 192ZM331 149Q309 149 293.0 133.5Q277 118 277.0 96.0Q277 74 293.0 58.5Q309 43 331.0 43.0Q353 43 368.5 58.5Q384 74 384.0 96.0Q384 118 368.5 133.5Q353 149 331 149ZM277 363V192L224 240L171 192V363H128V21H213Q231 -5 257 -21H128Q110 -21 97.5 -8.5Q85 4 85 21V363Q85 380 97.5 392.5Q110 405 128 405H384Q402 405 414.5 392.5Q427 380 427 363V196Q407 214 384 224V363Z" />
      </g>
    </svg>