<svg xmlns="http://www.w3.org/2000/svg" viewBox="85 -21 384 426">
      <g transform="scale(1 -1) translate(0 -384)">
        <path d="M277 117Q277 85 299 42Q314 12 339 -21H128Q110 -21 97.5 -8.5Q85 4 85 21V363Q85 380 97.5 392.5Q110 405 128 405H149V256L203 288L256 256V405H384Q402 405 414.5 392.5Q427 380 427 363V230Q410 235 395 235Q363 235 336.0 219.0Q309 203 293.0 176.0Q277 149 277 117ZM469 117Q469 83 432 27Q413 -1 395 -21L375 2Q353 31 339 57Q320 93 320 117Q320 148 342.0 170.0Q364 192 394.5 192.0Q425 192 447.0 170.0Q469 148 469 117ZM420 115Q420 125 412.0 133.0Q404 141 394.5 141.0Q385 141 377.0 133.5Q369 126 369.0 115.5Q369 105 376.5 97.5Q384 90 395.0 90.0Q406 90 414.0 98.0Q422 106 420 115Z" />
      </g>
    </svg>