<svg xmlns="http://www.w3.org/2000/svg" viewBox="85 -21 342 426">
      <g transform="scale(1 -1) translate(0 -384)">
        <path d="M124 405Q108 404 96.5 391.5Q85 379 85 363V21Q85 5 98.0 -8.0Q111 -21 128 -21H384Q401 -21 414.0 -8.0Q427 5 427 21V363Q427 380 414.5 392.5Q402 405 384 405H256V256L203 288L149 256V405ZM256 171H277Q286 171 292.5 164.5Q299 158 299 149V64H277V107H256V64H235V149Q235 158 241.0 164.5Q247 171 256 171ZM256 149V128H277V149ZM320 128H384V107L341 43H384V21H320V43L363 107H320Z" />
      </g>
    </svg>