<svg xmlns="http://www.w3.org/2000/svg" viewBox="85 -21 342 426">
      <g transform="scale(1 -1) translate(0 -384)">
        <path d="M384 405Q402 405 414.5 392.5Q427 380 427 363V21Q427 4 414.5 -8.5Q402 -21 384 -21H128Q110 -21 97.5 -8.5Q85 4 85 21V363Q85 380 97.5 392.5Q110 405 128 405ZM384 363H277V256L224 305L171 256V363H128V21H384ZM277 213Q290 213 301.0 206.0Q312 199 317.0 187.0Q322 175 319.5 162.5Q317 150 307.5 140.5Q298 131 285.5 128.5Q273 126 261.0 131.0Q249 136 242.0 147.0Q235 158 235 171Q235 188 247.5 200.5Q260 213 277 213ZM363 43H192V64Q192 83 224 96Q251 107 277.5 107.0Q304 107 331 96Q363 83 363 64Z" />
      </g>
    </svg>