<svg xmlns="http://www.w3.org/2000/svg" viewBox="85 -49 406 454">
      <g transform="scale(1 -1) translate(0 -356)">
        <path d="M405 -49 393 -38 383 -29Q349 3 337 17Q320 40 320.0 59.5Q320 79 334.0 93.0Q348 107 367 107Q378 107 388.5 102.5Q399 98 405 90Q412 98 422.0 102.5Q432 107 444 107Q463 107 477.0 93.5Q491 80 491.0 60.0Q491 40 473 17Q462 3 428 -29L418 -38ZM384 405Q402 405 414.5 392.5Q427 380 427 363V169L405 171L384 169V363H277V192L224 240L171 192V363H128V21H279Q283 -1 294 -21H128Q110 -21 97.5 -8.5Q85 4 85 21V363Q85 380 97.5 392.5Q110 405 128 405Z" />
      </g>
    </svg>