<svg xmlns="http://www.w3.org/2000/svg" viewBox="85 -64 406 469">
      <g transform="scale(1 -1) translate(0 -341)">
        <path d="M427 208V363Q427 380 414.5 392.5Q402 405 384 405H128Q110 405 97.5 392.5Q85 380 85 363V21Q85 4 97.5 -8.5Q110 -21 128 -21H237Q258 -42 284.5 -53.0Q311 -64 341 -64Q382 -64 416.5 -44.0Q451 -24 471.0 10.5Q491 45 491 85Q491 123 473.5 155.0Q456 187 427 208ZM384 363V228Q362 235 341 235Q308 235 277 220V363ZM128 363H171V192L224 240L258 209Q228 189 210.0 156.0Q192 123 192 85Q192 52 207 21H128ZM341 -21Q312 -21 287.5 -7.0Q263 7 249.0 31.5Q235 56 235.0 85.0Q235 114 249.0 138.5Q263 163 287.5 177.5Q312 192 341.0 192.0Q370 192 394.5 177.5Q419 163 433.5 138.5Q448 114 448.0 85.0Q448 56 433.5 31.5Q419 7 394.5 -7.0Q370 -21 341 -21ZM352 80 413 44 397 18 320 64V171H352Z" />
      </g>
    </svg>