<svg xmlns="http://www.w3.org/2000/svg" viewBox="85 -21 406 426">
      <g transform="scale(1 -1) translate(0 -384)">
        <path d="M303 139V134Q291 124 284.0 110.0Q277 96 277 81V6Q277 -8 283 -21H128Q110 -21 97.5 -8.5Q85 4 85 21V363Q85 380 97.5 392.5Q110 405 128 405H149V256L203 288L256 256V405H384Q402 405 414.5 392.5Q427 380 427 363V232Q416 235 405 235Q378 235 354.5 221.5Q331 208 317.0 186.0Q303 164 303 139ZM491 79V4Q491 -6 482.5 -13.5Q474 -21 463 -21H346Q336 -21 328.0 -13.0Q320 -5 320 6V81Q320 91 328.0 99.0Q336 107 346 107V139Q346 161 364.0 176.5Q382 192 405.0 192.0Q428 192 446.5 176.5Q465 161 465 139V107Q475 107 483.0 98.5Q491 90 491 79ZM437 139Q437 151 428.0 158.5Q419 166 405.5 166.0Q392 166 382.5 158.5Q373 151 373 139V107H437Z" />
      </g>
    </svg>