<svg xmlns="http://www.w3.org/2000/svg" viewBox="21 -21 470 426">
      <g transform="scale(1 -1) translate(0 -384)">
        <path d="M405 405 299 309V75L405 171ZM139 341Q105 341 76 334Q43 326 21 309V-3Q21 -7 24.5 -10.5Q28 -14 32 -14L37 -13Q59 -2 87.0 4.5Q115 11 139 11Q173 11 201 3Q234 -5 256 -21Q277 -8 311.5 1.5Q346 11 373 11Q432 11 475 -12Q476 -13 479 -13H480Q484 -13 487.5 -9.5Q491 -6 491 -2V309Q474 322 448 331V43Q414 53 373 53Q346 53 311.5 44.0Q277 35 256 21V309Q234 326 201 334Q173 341 139 341Z" />
      </g>
    </svg>