<svg xmlns="http://www.w3.org/2000/svg" viewBox="85 -43 406 448">
      <g transform="scale(1 -1) translate(0 -362)">
        <path d="M277 75Q277 47 287.5 22.5Q298 -2 316 -21H128Q110 -21 97.5 -8.5Q85 4 85 21V363Q85 380 97.5 392.5Q110 405 128 405H149V256L203 288L256 256V405H384Q402 405 414.5 392.5Q427 380 427 363V213Q423 213 416 213Q378 213 346.5 194.5Q315 176 296.0 144.0Q277 112 277 75ZM405 21Q383 21 367.5 37.0Q352 53 352 75Q352 87 358 99L334 122Q320 100 320 75Q320 39 345.0 14.0Q370 -11 405 -11V-43L453 5L405 53ZM405 160V192L357 144L405 96V128Q427 128 443.0 112.5Q459 97 459 75Q459 62 453 51L476 28Q491 49 491 75Q491 110 466.0 135.0Q441 160 405 160Z" />
      </g>
    </svg>