<svg xmlns="http://www.w3.org/2000/svg" viewBox="85 -21 406 426">
      <g transform="scale(1 -1) translate(0 -384)">
        <path d="M303 160V134Q291 124 284.0 110.0Q277 96 277 81V6Q277 -8 283 -21H128Q110 -21 97.5 -8.5Q85 4 85 21V363Q85 380 97.5 392.5Q110 405 128 405H149V256L203 288L256 256V405H384Q402 405 414.5 392.5Q427 380 427 363V254Q416 256 405 256Q378 256 354.5 243.0Q331 230 317.0 208.0Q303 186 303 160ZM465 107H373V160Q373 172 382.5 180.0Q392 188 405.5 188.0Q419 188 428.0 180.0Q437 172 437 160V149H465V160Q465 182 446.5 197.5Q428 213 405.0 213.0Q382 213 364.0 197.5Q346 182 346 160V107Q336 107 328.0 99.0Q320 91 320 81V6Q320 -5 328.0 -13.0Q336 -21 346 -21H463Q474 -21 482.5 -13.5Q491 -6 491 4V79Q491 90 483.0 98.5Q475 107 465 107Z" />
      </g>
    </svg>