<svg xmlns="http://www.w3.org/2000/svg" viewBox="43 -21 426 298">
      <g transform="scale(1 -1) translate(0 -256)">
        <path d="M427 256H175Q158 276 131.5 277.0Q105 278 84.5 260.0Q64 242 64 213V21Q55 21 49.0 15.0Q43 9 43 0V-21H213V0Q213 9 207.0 15.0Q201 21 192 21V171H427Q444 171 456.5 183.5Q469 196 469.0 213.5Q469 231 456.5 243.5Q444 256 427 256ZM160 21H96V158Q111 149 128.0 149.0Q145 149 160 158ZM128 181Q115 181 105.5 190.5Q96 200 96.0 213.5Q96 227 105.5 236.0Q115 245 128.0 245.0Q141 245 150.5 236.0Q160 227 160.0 213.5Q160 200 150.5 190.5Q141 181 128 181ZM224 192 192 235H224L256 192ZM309 192 277 235H309L341 192ZM395 192 363 235H395L427 192Z" />
      </g>
    </svg>