<svg xmlns="http://www.w3.org/2000/svg" viewBox="43 -21 405 426">
      <g transform="scale(1 -1) translate(0 -384)">
        <path d="M424 384Q432 369 427.5 352.0Q423 335 408 326L192 201V21Q201 21 207.0 15.0Q213 9 213 0V-21H43V0Q43 9 49.0 15.0Q55 21 64 21V213Q64 240 82.5 258.5Q101 277 128 277Q137 277 148 274L365 400Q381 409 398.0 404.0Q415 399 424 384ZM160 21V158Q145 149 128.0 149.0Q111 149 96 158V21ZM128 181Q141 181 150.5 190.5Q160 200 160.0 213.5Q160 227 150.5 236.0Q141 245 128.0 245.0Q115 245 105.5 236.0Q96 227 96.0 213.5Q96 200 105.5 190.5Q115 181 128 181ZM222 243 250 259 201 280 173 264ZM296 285 323 301 274 323 247 307ZM370 328 397 344 348 365 321 349ZM341 21V128H277L363 210L448 128H384V21Z" />
      </g>
    </svg>