<svg xmlns="http://www.w3.org/2000/svg" viewBox="43 64 426 277">
      <g transform="scale(1 -1) translate(0 -405)">
        <path d="M149 341 107 299V277H64Q55 277 49.0 271.0Q43 265 43 256V85Q43 76 49.0 70.0Q55 64 64 64H448Q457 64 463.0 70.0Q469 76 469 85V256Q469 265 463.0 271.0Q457 277 448 277H405V299L363 341ZM149 299H363V277H149ZM235 256H277Q282 256 285.0 253.0Q288 250 288.0 245.5Q288 241 285.0 238.0Q282 235 277 235H235Q230 235 227.0 238.0Q224 241 224.0 245.5Q224 250 227.0 253.0Q230 256 235 256ZM160 224Q187 224 205.5 205.5Q224 187 224.0 160.0Q224 133 205.5 114.5Q187 96 160.0 96.0Q133 96 114.5 114.5Q96 133 96.0 160.0Q96 187 114.5 205.5Q133 224 160 224ZM352 224Q379 224 397.5 205.5Q416 187 416.0 160.0Q416 133 397.5 114.5Q379 96 352.0 96.0Q325 96 306.5 114.5Q288 133 288.0 160.0Q288 187 306.5 205.5Q325 224 352 224ZM160 192Q147 192 137.5 182.5Q128 173 128.0 160.0Q128 147 137.5 137.5Q147 128 160.0 128.0Q173 128 182.5 137.5Q192 147 192.0 160.0Q192 173 182.5 182.5Q173 192 160 192ZM352 192Q339 192 329.5 182.5Q320 173 320.0 160.0Q320 147 329.5 137.5Q339 128 352.0 128.0Q365 128 374.5 137.5Q384 147 384.0 160.0Q384 173 374.5 182.5Q365 192 352 192Z" />
      </g>
    </svg>