<svg xmlns="http://www.w3.org/2000/svg" viewBox="43 -21 386 426">
      <g transform="scale(1 -1) translate(0 -384)">
        <path d="M425 384Q415 400 398.0 404.5Q381 409 367 399L147 273Q134 277 128 277Q101 277 82.5 259.0Q64 241 64 213V21Q54 21 48.5 15.5Q43 10 43 0V-21H213V0Q213 10 207.5 15.5Q202 21 192 21V201L407 324Q423 334 428.0 351.0Q433 368 425 384ZM160 21H96V158Q110 150 128.0 150.0Q146 150 160 158ZM128 181Q115 181 105.5 191.0Q96 201 96.0 213.5Q96 226 105.5 235.5Q115 245 128.0 245.0Q141 245 150.5 235.5Q160 226 160.0 213.5Q160 201 150.5 191.0Q141 181 128 181ZM222 243 173 265 201 282 250 260ZM297 286 247 307 275 324 324 303ZM369 329 320 350 348 367 397 346Z" />
      </g>
    </svg>