<svg xmlns="http://www.w3.org/2000/svg" viewBox="43 -21 426 426">
      <g transform="scale(1 -1) translate(0 -384)">
        <path d="M424 384Q415 399 398.0 404.0Q381 409 365 400L148 274Q137 277 128 277Q101 277 82.5 258.5Q64 240 64 213V21Q55 21 49.0 15.0Q43 9 43 0V-21H213V0Q213 9 207.0 15.0Q201 21 192 21V201L408 326Q423 335 427.5 352.0Q432 369 424 384ZM128 181Q115 181 105.5 190.5Q96 200 96.0 213.5Q96 227 105.5 236.0Q115 245 128.0 245.0Q141 245 150.5 236.0Q160 227 160.0 213.5Q160 200 150.5 190.5Q141 181 128 181ZM222 243 173 264 201 280 250 259ZM296 285 247 307 274 323 323 301ZM370 328 321 349 348 365 397 344ZM363 213 469 107H405V21H320V107H256Z" />
      </g>
    </svg>