<svg xmlns="http://www.w3.org/2000/svg" viewBox="64 0 384 384">
      <g transform="scale(1 -1) translate(0 -384)">
        <path d="M64 107Q64 77 78.0 52.5Q92 28 116.5 14.0Q141 0 171 0H213V43H171Q143 43 125.0 61.0Q107 79 107 107V149H64ZM448 277Q448 307 434.0 331.5Q420 356 395.5 370.0Q371 384 341 384H299V341H341Q369 341 387.0 323.0Q405 305 405 277V235H448ZM341 0Q371 0 395.5 14.0Q420 28 434.0 52.5Q448 77 448 107V149H405V107Q405 79 387.0 61.0Q369 43 341 43H299V0ZM171 384Q141 384 116.5 370.0Q92 356 78.0 331.5Q64 307 64 277V235H107V277Q107 305 125.0 323.0Q143 341 171 341H213V384Z" />
      </g>
    </svg>