<svg xmlns="http://www.w3.org/2000/svg" viewBox="64 0 384 384">
      <g transform="scale(1 -1) translate(0 -384)">
        <path d="M107 128H64V85H107ZM64 0H448V43H64ZM107 213H64V171H107ZM405 256H448V299H405ZM405 341H448V384H405ZM107 299H64V256H107ZM405 85H448V128H405ZM405 171H448V213H405ZM363 384H320V341H363ZM277 384H235V341H277ZM363 213H320V171H363ZM277 299H235V256H277ZM107 384H64V341H107ZM277 213H235V171H277ZM192 384H149V341H192ZM277 128H235V85H277ZM192 213H149V171H192Z" />
      </g>
    </svg>