<svg xmlns="http://www.w3.org/2000/svg" viewBox="64 0 384 384">
      <g transform="scale(1 -1) translate(0 -384)">
        <path d="M320 341H363V384H320ZM320 171H363V213H320ZM320 0H363V43H320ZM235 341H277V384H235ZM405 341H448V384H405ZM235 256H277V299H235ZM405 256H448V299H405ZM405 0H448V43H405ZM405 171H448V213H405ZM405 85H448V128H405ZM235 171H277V213H235ZM64 341H107V384H64ZM64 256H107V299H64ZM64 171H107V213H64ZM64 85H107V128H64ZM64 0H107V43H64ZM235 0H277V43H235ZM235 85H277V128H235ZM149 0H192V43H149ZM149 171H192V213H149ZM149 341H192V384H149Z" />
      </g>
    </svg>