<svg xmlns="http://www.w3.org/2000/svg" viewBox="171 -21 170 426">
      <g transform="scale(1 -1) translate(0 -384)">
        <path d="M213 405V363H233Q230 344 216 321Q208 307 189 281Q176 264 171 256V154Q192 135 192.0 106.5Q192 78 171 59V21Q171 4 183.5 -8.5Q196 -21 213 -21H299Q316 -21 328.5 -8.5Q341 4 341 21V59Q320 78 320.0 106.5Q320 135 341 154V256Q336 264 323 281Q304 307 296 321Q282 344 279 363H299V405ZM256 309Q262 298 297 258L299 256V171Q277 142 277.0 106.5Q277 71 299 43V21H213V43Q235 71 235.0 106.5Q235 142 213 171V256L215 258Q250 298 256 309Z" />
      </g>
    </svg>