<svg xmlns="http://www.w3.org/2000/svg" viewBox="107 -21 298 426">
      <g transform="scale(1 -1) translate(0 -384)">
        <path d="M405 171V-21H107V171Q107 200 121.0 224.5Q135 249 159.5 263.0Q184 277 213 277V320H192V341H320V320H299V277Q328 277 352.5 263.0Q377 249 391.0 224.5Q405 200 405 171ZM277 363 299 405H213L235 363ZM256 213Q221 213 196.0 188.0Q171 163 171 128Q171 97 192 73V43H219V75H243V43H269V75H293V43H320V73Q341 97 341 128Q341 163 316.0 188.0Q291 213 256 213ZM224 128Q215 128 209.0 134.5Q203 141 203.0 149.5Q203 158 209.0 164.5Q215 171 224.0 171.0Q233 171 239.0 164.5Q245 158 245.0 149.5Q245 141 239.0 134.5Q233 128 224 128ZM240 101 256 128 272 101ZM288 128Q279 128 273.0 134.5Q267 141 267.0 149.5Q267 158 273.0 164.5Q279 171 288.0 171.0Q297 171 303.0 164.5Q309 158 309.0 149.5Q309 141 303.0 134.5Q297 128 288 128Z" />
      </g>
    </svg>