<svg xmlns="http://www.w3.org/2000/svg" viewBox="171 -21 171 426">
      <g transform="scale(1 -1) translate(0 -384)">
        <path d="M245 405Q241 405 238.0 402.0Q235 399 235 395V299Q231 299 230 298Q204 291 187 258Q171 228 171 192Q171 149 171 64V0Q171 -9 177.0 -15.0Q183 -21 192 -21H320Q329 -21 335.0 -15.0Q341 -9 341 0Q342 43 342 128L341 192Q341 229 326 259Q309 292 283 298Q281 299 277 299V395Q277 399 274.0 402.0Q271 405 267 405ZM256 259Q268 259 273 256Q275 255 278 252Q284 246 288 239Q299 217 299 192V21H213V192Q213 217 224 239Q228 246 234 252Q237 255 239 256Q244 259 256 259Z" />
      </g>
    </svg>