<svg xmlns="http://www.w3.org/2000/svg" viewBox="43 -21 426 426">
      <g transform="scale(1 -1) translate(0 -384)">
        <path d="M406 319 427 299 469 405 363 363 383 342 345 303Q296 346 228 362Q177 373 121 370Q91 368 65 363L43 357L53 316L70 320L216 175L148 107H107L43 43L85 21L107 -21L171 43V84L239 152L384 6L380 -11L421 -21L427 1Q432 27 434 57Q437 113 426 164Q410 232 367 281ZM96 325Q146 332 194 324Q266 314 314 273L231 189ZM389 32 253 167 337 250Q378 202 388 130Q396 82 389 32Z" />
      </g>
    </svg>