<svg xmlns="http://www.w3.org/2000/svg" viewBox="43 -21 426 426">
      <g transform="scale(1 -1) translate(0 -384)">
        <path d="M256 405Q298 405 337.5 389.0Q377 373 407.0 343.0Q437 313 453.0 273.5Q469 234 469.0 192.0Q469 150 453.0 110.5Q437 71 407.0 41.0Q377 11 337.5 -5.0Q298 -21 256.0 -21.0Q214 -21 174.5 -5.0Q135 11 105.0 41.0Q75 71 59.0 110.5Q43 150 43.0 192.0Q43 234 59.0 273.5Q75 313 105.0 343.0Q135 373 174.5 389.0Q214 405 256 405ZM267 213Q253 213 244.0 204.0Q235 195 235.0 181.5Q235 168 244.0 158.5Q253 149 266.5 149.0Q280 149 289.5 158.5Q299 168 299.0 181.5Q299 195 289.5 204.0Q280 213 267 213ZM256 341Q238 341 225.5 328.5Q213 316 213.0 298.5Q213 281 225.5 268.5Q238 256 256.0 256.0Q274 256 286.5 268.5Q299 281 299.0 298.5Q299 316 286.5 328.5Q274 341 256 341ZM127 267Q118 251 122.5 234.0Q127 217 142.0 208.5Q157 200 174.5 204.5Q192 209 200.5 224.5Q209 240 204.5 257.0Q200 274 185.0 282.5Q170 291 153.0 286.5Q136 282 127 267Z" />
      </g>
    </svg>