<svg xmlns="http://www.w3.org/2000/svg" viewBox="24 -37 448 448">
      <g transform="scale(1 -1) translate(0 -374)">
        <path d="M445 -37 274 133 260 119 142 169Q144 184 154 194L184 224L24 384L51 411L472 -10ZM329 188 238 278 350 390Q363 403 380.5 403.0Q398 403 410 390L441 360Q453 347 453.0 329.5Q453 312 441 300ZM365 315Q371 308 380.0 308.0Q389 308 395.5 314.5Q402 321 402.0 330.0Q402 339 395.5 345.0Q389 351 380.0 351.0Q371 351 365.0 345.0Q359 339 359.0 330.0Q359 321 365 315ZM107 107V-16L231 95L124 138Z" />
      </g>
    </svg>