<svg xmlns="http://www.w3.org/2000/svg" viewBox="21 57 470 259">
      <g transform="scale(1 -1) translate(0 -373)">
        <path d="M328 148Q328 171 312.0 187.0Q296 203 273.5 203.0Q251 203 235.0 187.0Q219 171 219 148Q219 126 235.0 110.0Q251 94 273.5 94.0Q296 94 312.0 110.0Q328 126 328 148ZM365 148Q365 111 338.0 84.0Q311 57 273 57Q248 57 226.5 70.5Q205 84 193 106Q181 84 159.5 70.5Q138 57 113 57Q75 57 48.5 83.5Q22 110 21 147V299Q21 306 26.5 311.0Q32 316 39.5 316.0Q47 316 52.5 311.0Q58 306 58 299V221Q82 240 113 240Q138 240 159.5 226.5Q181 213 193 191Q205 213 226.5 226.5Q248 240 273 240Q311 240 338.0 213.0Q365 186 365 148ZM167 148Q167 171 151.0 187.0Q135 203 112.5 203.0Q90 203 74.0 187.0Q58 171 58 148Q58 126 74.0 110.0Q90 94 112.5 94.0Q135 94 151.0 110.0Q167 126 167 148ZM487 86Q491 81 491 75Q491 66 483 61Q478 57 473 57Q464 57 459 64L418 118L378 64Q372 57 363 57Q358 57 351.5 61.5Q345 66 345 76Q345 81 348 86L395 148L348 211Q345 216 345 222Q345 230 351.5 235.5Q358 241 365.5 240.0Q373 239 378 233L418 179L459 233Q463 239 470.0 240.0Q477 241 484.0 236.0Q491 231 491 221Q491 215 487 211L441 148Z" />
      </g>
    </svg>