<svg xmlns="http://www.w3.org/2000/svg" viewBox="43 21 426 342">
      <g transform="scale(1 -1) translate(0 -384)">
        <path d="M405 107V320H469V107ZM256 363Q203 363 149 363L133 361Q113 359 96 352Q73 343 59 327Q43 307 43 277V149Q43 101 87 79Q92 109 115.5 129.0Q139 149 171 149H235V107H171Q153 107 140.5 94.5Q128 82 128.0 64.0Q128 46 140.5 33.5Q153 21 171 21H277Q307 21 327 35Q343 45 352 64Q359 77 361 93L363 107V320L358 327Q351 335 341 341Q327 351 309 356Q285 363 256 363Z" />
      </g>
    </svg>