<svg xmlns="http://www.w3.org/2000/svg" viewBox="34 -3 436 410">
      <g transform="scale(1 -1) translate(0 -404)">
        <path d="M455 173Q456 148 445.5 125.5Q435 103 415 88L431 57Q439 41 432.5 25.5Q426 10 410 4L393 -1Q388 -3 381 -3Q364 -3 353 11L308 64Q279 69 256 87Q240 83 224 83Q195 83 171 99Q154 94 136 95Q111 94 87.5 104.5Q64 115 50.0 135.5Q36 156 35 181Q33 205 43 226Q33 251 41 276Q53 307 83 324Q92 351 115.5 367.0Q139 383 168 381Q194 405 229.0 407.5Q264 410 292 389Q306 393 320 393Q342 393 361.5 384.0Q381 375 395 358Q427 349 448.5 323.0Q470 297 471 263Q473 226 453 196Q455 184 455 173ZM348 203Q358 202 364.0 195.5Q370 189 370.0 180.0Q370 171 364.0 165.0Q358 159 349 159H335Q325 129 301 110L317 105Q384 106 405 138Q416 155 414 174V175Q413 197 396.0 213.0Q379 229 356 228Q348 228 341.5 234.0Q335 240 335.0 249.0Q335 258 341.5 264.0Q348 270 356 270Q397 269 428 243Q429 252 429 262Q428 284 416 297Q401 312 368 316Q359 337 342 346Q328 354 311 351Q296 348 285.0 340.0Q274 332 274 324Q274 321 276.0 315.0Q278 309 279 308Q288 308 294.5 302.0Q301 296 301.0 287.0Q301 278 294.5 271.5Q288 265 279 265Q262 266 249 277Q234 267 215 265Q206 265 199.0 270.5Q192 276 191.5 284.5Q191 293 196.5 300.0Q202 307 211 308Q217 309 222 311Q231 316 231 324Q231 346 245 363Q213 371 183 335Q153 340 139.0 332.5Q125 325 116 294Q99 286 93 279Q84 271 81 256Q116 263 149 251Q157 248 161.0 240.0Q165 232 162.0 223.5Q159 215 151.0 211.5Q143 208 134 211Q110 221 85 212Q81 208 79 200Q79 195 79.0 184.0Q79 173 84.5 162.5Q90 152 100 146Q117 137 136 137Q132 145 128.5 154.0Q125 163 129.0 171.5Q133 180 141.5 183.0Q150 186 158.5 182.0Q167 178 170 169Q176 151 191.0 139.0Q206 127 226 125Q248 126 266.0 138.5Q284 151 294 171Q297 191 313 198Q324 203 348 203ZM391 43 378 71 363 68 384 41ZM292 227Q292 235 286.5 241.5Q281 248 272 249Q249 250 231 235Q212 215 213 188Q213 179 219.5 173.0Q226 167 235.0 167.0Q244 167 250.0 173.0Q256 179 256.0 188.0Q256 197 261 204Q265 207 270 207Q279 207 285.5 212.5Q292 218 292 227Z" />
      </g>
    </svg>