<svg xmlns="http://www.w3.org/2000/svg" viewBox="45 -21 403 426">
      <g transform="scale(1 -1) translate(0 -384)">
        <path d="M149 277Q149 286 155.5 292.5Q162 299 171.0 299.0Q180 299 186.0 292.5Q192 286 192 277V182L218 179L323 132Q332 129 336.5 121.0Q341 113 341 104V11Q341 -2 331.5 -11.5Q322 -21 309 -21H171Q158 -21 149 -12L45 77L61 94Q67 101 76 101H81L149 64ZM416 405Q403 405 393.5 396.0Q384 387 384.0 373.5Q384 360 393.5 350.5Q403 341 416.0 341.0Q429 341 438.5 350.5Q448 360 448.0 373.5Q448 387 438.5 396.0Q429 405 416 405ZM416 299Q403 299 393.5 289.5Q384 280 384.0 266.5Q384 253 393.5 244.0Q403 235 416.0 235.0Q429 235 438.5 244.0Q448 253 448.0 266.5Q448 280 438.5 289.5Q429 299 416 299ZM309 299Q296 299 286.5 289.5Q277 280 277.0 266.5Q277 253 286.5 244.0Q296 235 309.5 235.0Q323 235 332.0 244.0Q341 253 341.0 266.5Q341 280 332.0 289.5Q323 299 309 299ZM416 192Q403 192 393.5 182.5Q384 173 384.0 160.0Q384 147 393.5 137.5Q403 128 416.0 128.0Q429 128 438.5 137.5Q448 147 448.0 160.0Q448 173 438.5 182.5Q429 192 416 192Z" />
      </g>
    </svg>