<svg xmlns="http://www.w3.org/2000/svg" viewBox="43 -21 426 426">
      <g transform="scale(1 -1) translate(0 -384)">
        <path d="M256 405Q314 405 363.0 383.5Q412 362 440.5 325.5Q469 289 469 245Q469 192 427 149V-21H85V149Q43 192 43 245Q43 289 71.5 325.5Q100 362 149.0 383.5Q198 405 256 405ZM384 168Q404 184 415.5 203.5Q427 223 427 245Q427 277 404.0 304.0Q381 331 341.5 347.0Q302 363 256.0 363.0Q210 363 170.5 347.0Q131 331 108.0 304.0Q85 277 85 245Q85 223 96.5 203.5Q108 184 128 168V21H384ZM171 64V149H256V64Z" />
      </g>
    </svg>