<svg xmlns="http://www.w3.org/2000/svg" viewBox="43 -43 448 448">
      <g transform="scale(1 -1) translate(0 -362)">
        <path d="M363 64Q372 64 378.0 58.0Q384 52 384.0 42.5Q384 33 378.0 27.0Q372 21 362.5 21.0Q353 21 347.0 27.0Q341 33 341.0 42.5Q341 52 347.0 58.0Q353 64 363 64ZM363 128Q320 128 284.5 104.0Q249 80 235 43Q249 5 284.5 -19.0Q320 -43 362.5 -43.0Q405 -43 440.5 -19.0Q476 5 491 43Q476 80 440.5 104.0Q405 128 363 128ZM363 -11Q340 -11 324.5 4.5Q309 20 309.0 42.5Q309 65 324.5 80.5Q340 96 362.5 96.0Q385 96 400.5 80.5Q416 65 416.0 42.5Q416 20 400.5 4.5Q385 -11 363 -11ZM194 28 188 43H85V277H427V158Q457 145 469 134V277Q469 294 456.5 307.0Q444 320 427 320H341V363Q341 380 328.5 392.5Q316 405 299 405H213Q196 405 183.5 392.5Q171 380 171 363V320H85Q68 320 55.5 307.0Q43 294 43 277V43Q43 26 55.5 13.0Q68 0 85 0H209Q201 11 194 28ZM213 363H299V320H213Z" />
      </g>
    </svg>