<svg xmlns="http://www.w3.org/2000/svg" viewBox="43 -32 426 437">
      <g transform="scale(1 -1) translate(0 -373)">
        <path d="M213 405H299Q316 405 328.5 392.5Q341 380 341 363V320H427Q444 320 456.5 307.5Q469 295 469 277V159Q433 192 384 192Q349 192 319.5 175.0Q290 158 273.0 128.5Q256 99 256.0 64.0Q256 29 273 0H85Q68 0 55.5 12.5Q43 25 43 43V277Q43 295 55.5 307.5Q68 320 85 320H171V363Q171 380 183.5 392.5Q196 405 213 405ZM299 320V363H213V320ZM405 53V85H320V128H405V160L469 107ZM363 43H448V0H363V-32L299 21L363 75Z" />
      </g>
    </svg>