<svg xmlns="http://www.w3.org/2000/svg" viewBox="21 -43 470 470">
      <g transform="scale(1 -1) translate(0 -384)">
        <path d="M448 211V299Q448 316 435.5 329.0Q423 342 405 341H320V384Q320 402 307.5 414.5Q295 427 277 427H192Q174 427 161.5 414.5Q149 402 149 384V341H64Q46 342 33.5 329.0Q21 316 21 299V64Q21 46 33.5 33.5Q46 21 64 21H219Q243 -14 282.0 -31.0Q321 -48 363.0 -42.0Q405 -36 437.5 -9.0Q470 18 483.5 58.0Q497 98 487.5 139.5Q478 181 448 211ZM192 384H277V341H192ZM64 64V299H405V241Q375 256 341 256Q301 256 266.5 236.0Q232 216 212.0 181.5Q192 147 192 107Q192 85 198 64ZM405 21Q377 0 341.5 0.0Q306 0 277 21Q257 36 246.0 58.5Q235 81 235 107Q235 136 249.0 160.5Q263 185 287.5 199.0Q312 213 341 213Q377 213 405 192Q425 177 436.5 154.5Q448 132 448.0 106.5Q448 81 436.5 58.5Q425 36 405 21ZM320 171H352V111L404 80L388 53L320 92Z" />
      </g>
    </svg>