<svg xmlns="http://www.w3.org/2000/svg" viewBox="43 -21 437 426">
      <g transform="scale(1 -1) translate(0 -384)">
        <path d="M213 405H299Q316 405 328.5 392.5Q341 380 341 363V320H427Q444 320 456.5 307.5Q469 295 469 277V159Q451 176 427 185V277H85V43H258Q261 20 273 0H85Q68 0 55.5 12.5Q43 25 43 43V277Q43 295 55.5 307.5Q68 320 85 320H171V363Q171 380 183.5 392.5Q196 405 213 405ZM299 320V363H213V320ZM373 43H405V128H448V43H480L427 -21ZM363 85V0H320V85H288L341 149L395 85Z" />
      </g>
    </svg>