<svg xmlns="http://www.w3.org/2000/svg" viewBox="43 -21 445 426">
      <g transform="scale(1 -1) translate(0 -384)">
        <path d="M449 189Q453 189 457 186L484 158Q488 155 488.0 150.0Q488 145 484 142L463 121L419 164L441 186Q444 189 449 189ZM407 152 451 108 321 -21H277V23ZM213 405H299Q316 405 328.5 392.5Q341 380 341 363V320H427Q444 320 456.5 307.5Q469 295 469 277L427 235V277H85V43H235V0H85Q68 0 55.5 12.5Q43 25 43 43V277Q43 295 55.5 307.5Q68 320 85 320H171V363Q171 380 183.5 392.5Q196 405 213 405ZM299 320V363H213V320Z" />
      </g>
    </svg>