<svg xmlns="http://www.w3.org/2000/svg" viewBox="43 -51 456 456">
      <g transform="scale(1 -1) translate(0 -354)">
        <path d="M352 192Q392 192 420.0 164.0Q448 136 448 96Q448 68 433 45L499 -21L469 -51L403 15Q379 0 352 0Q312 0 284.0 28.0Q256 56 256.0 96.0Q256 136 284.0 164.0Q312 192 352 192ZM352 149Q330 149 314.5 133.5Q299 118 299.0 96.0Q299 74 314.5 58.5Q330 43 352.0 43.0Q374 43 389.5 58.5Q405 74 405.0 96.0Q405 118 389.5 133.5Q374 149 352 149ZM213 405H299Q316 405 328.5 392.5Q341 380 341 363V320H427Q444 320 456.5 307.5Q469 295 469 277V170Q451 200 419.5 217.5Q388 235 351.0 235.0Q314 235 282.5 216.0Q251 197 232.0 165.5Q213 134 213 96Q213 69 223.5 44.0Q234 19 252 0H85Q68 0 55.5 12.5Q43 25 43 43V277Q43 295 55.5 307.5Q68 320 85 320H171V363Q171 380 183.5 392.5Q196 405 213 405ZM299 320V363H213V320Z" />
      </g>
    </svg>