<svg xmlns="http://www.w3.org/2000/svg" viewBox="43 0 426 405">
      <g transform="scale(1 -1) translate(0 -405)">
        <path d="M427 320H341V363Q341 380 328.5 392.5Q316 405 299 405H213Q196 405 183.5 392.5Q171 380 171 363V320H85Q68 320 55.5 307.5Q43 295 43 277V43Q43 25 55.5 12.5Q68 0 85 0H427Q444 0 456.5 12.5Q469 25 469 43V277Q469 295 456.5 307.5Q444 320 427 320ZM213 363H299V320H213ZM256 256Q278 256 293.5 240.5Q309 225 309.0 203.0Q309 181 293.5 165.0Q278 149 256.0 149.0Q234 149 218.5 165.0Q203 181 203.0 203.0Q203 225 218.5 240.5Q234 256 256 256ZM363 43H149V69Q149 91 180.5 107.0Q212 123 256.0 123.0Q300 123 331.5 107.0Q363 91 363 69Z" />
      </g>
    </svg>