<svg xmlns="http://www.w3.org/2000/svg" viewBox="24 -37 448 448">
      <g transform="scale(1 -1) translate(0 -374)">
        <path d="M213 303 173 343 213 384H299L341 341V299H427Q444 299 456.5 286.5Q469 274 469 256V149Q469 138 463.5 128.0Q458 118 448 113V68L367 149H427V256H260L218 299H299V341H213ZM472 -10 445 -37 407 0H107Q89 0 76.5 12.5Q64 25 64 43V112Q54 118 48.5 128.0Q43 138 43 149V256Q43 274 55.5 286.5Q68 299 85 299H109L24 384L51 411ZM235 128H277V130L237 171H235ZM192 149V213H194L152 256H85V149ZM365 43 320 88V85H192V107H107V43Z" />
      </g>
    </svg>