<svg xmlns="http://www.w3.org/2000/svg" viewBox="43 0 426 405">
      <g transform="scale(1 -1) translate(0 -405)">
        <path d="M427 320Q445 320 457.0 307.0Q469 294 469 277V43Q469 26 457.0 13.0Q445 0 427 0H85Q67 0 55.0 13.0Q43 26 43 43V277Q43 294 55.0 307.0Q67 320 85 320H171V363Q171 381 183.0 393.0Q195 405 213 405H299Q317 405 329.0 393.0Q341 381 341 363V320ZM85 277V43H427V277ZM299 320V363H213V320ZM256 256Q276 256 290.0 242.0Q304 228 304.0 208.0Q304 188 290.0 174.0Q276 160 256.0 160.0Q236 160 222.0 174.0Q208 188 208.0 208.0Q208 228 222.0 242.0Q236 256 256 256ZM352 64H160V88Q160 108 188.0 122.0Q216 136 256.0 136.0Q296 136 324.0 122.0Q352 108 352 88Z" />
      </g>
    </svg>