<svg xmlns="http://www.w3.org/2000/svg" viewBox="24 -37 448 448">
      <g transform="scale(1 -1) translate(0 -374)">
        <path d="M213 303 173 343 213 384H299L341 341V299H427Q444 299 456.5 286.5Q469 274 469 256V192Q469 174 456.5 161.5Q444 149 427 149H367L218 299H299V341H213ZM51 411 24 384 109 299H85Q68 299 55.5 286.5Q43 274 43 256V192Q43 174 55.5 161.5Q68 149 85 149H213V192H216L299 109V107H213V128H64V43Q64 25 76.5 12.5Q89 0 107 0H407L445 -37L472 -10ZM448 68V128H388Z" />
      </g>
    </svg>