<svg xmlns="http://www.w3.org/2000/svg" viewBox="43 0 426 384">
      <g transform="scale(1 -1) translate(0 -384)">
        <path d="M427 299H341V341L299 384H213L171 341V299H85Q68 299 55.5 286.5Q43 274 43 256V149Q43 138 48.5 128.0Q54 118 64 112V43Q64 25 76.5 12.5Q89 0 107 0H405Q423 0 435.5 12.5Q448 25 448 43V113Q458 118 463.5 128.0Q469 138 469 149V256Q469 274 456.5 286.5Q444 299 427 299ZM213 341H299V299H213ZM85 256H427V149H320V213H192V149H85ZM277 128H235V171H277ZM405 43H107V107H192V85H320V107H405Z" />
      </g>
    </svg>