<svg xmlns="http://www.w3.org/2000/svg" viewBox="15 -49 482 482">
      <g transform="scale(1 -1) translate(0 -384)">
        <path d="M256 277Q221 277 196.0 252.0Q171 227 171.0 192.0Q171 157 196.0 132.0Q221 107 256.0 107.0Q291 107 316.0 132.0Q341 157 341.0 192.0Q341 227 316.0 252.0Q291 277 256 277ZM256 64Q221 64 191.5 81.0Q162 98 145.0 127.5Q128 157 128.0 192.0Q128 227 145.0 256.5Q162 286 191.5 303.0Q221 320 256.0 320.0Q291 320 320.5 303.0Q350 286 367.0 256.5Q384 227 384.0 192.0Q384 157 367.0 127.5Q350 98 320.5 81.0Q291 64 256 64ZM427 263V363H327L256 433L185 363H85V263L15 192L85 121V21H185L256 -49L327 21H427V121L497 192Z" />
      </g>
    </svg>