<svg xmlns="http://www.w3.org/2000/svg" viewBox="43 -13 426 418">
      <g transform="scale(1 -1) translate(0 -392)">
        <path d="M375 145Q384 165 384 192Q384 227 366.5 256.0Q349 285 320.0 302.5Q291 320 256 320Q235 320 209 311L243 277H256Q291 277 316.0 252.0Q341 227 341 192Q341 183 339 179ZM256 363Q302 363 341.5 340.0Q381 317 404.0 277.5Q427 238 427 192Q427 152 405 113L437 81Q469 134 469.0 192.0Q469 250 440.5 299.0Q412 348 363.0 376.5Q314 405 256 405Q193 405 145 373L177 341Q211 363 256 363ZM70 395 43 367 87 322Q43 264 43 192Q43 134 72.0 85.0Q101 36 149 9L171 45Q132 68 108.5 107.0Q85 146 85 192Q85 246 117 292L149 260Q128 228 128.0 192.5Q128 157 145.5 128.0Q163 99 192 81L213 117Q194 129 182.5 148.5Q171 168 171 190Q171 203 179 228L213 194V190Q213 172 225.5 159.5Q238 147 256 147H260L420 -13L448 15Z" />
      </g>
    </svg>