<svg xmlns="http://www.w3.org/2000/svg" viewBox="43 0 405 384">
      <g transform="scale(1 -1) translate(0 -384)">
        <path d="M149 107Q158 107 164.5 100.5Q171 94 171 85Q171 68 158.5 55.5Q146 43 128 43Q121 43 117 44Q128 63 128 85Q128 94 134.5 100.5Q141 107 149 107ZM398 384Q390 384 383 378L192 187L251 128L442 319Q448 325 448.0 334.0Q448 343 442 349L413 378Q407 384 398 384ZM149 149Q123 149 104.0 130.5Q85 112 85 85Q85 66 71 54Q58 43 43 43Q57 23 80.5 11.5Q104 0 128 0Q163 0 188.0 25.0Q213 50 213 85Q213 112 194.5 130.5Q176 149 149 149Z" />
      </g>
    </svg>