<svg xmlns="http://www.w3.org/2000/svg" viewBox="43 -21 426 234">
      <g transform="scale(1 -1) translate(0 -192)">
        <path d="M192 149Q201 149 207.0 143.0Q213 137 213.0 128.0Q213 119 207.0 113.0Q201 107 192.0 107.0Q183 107 177.0 113.0Q171 119 171.0 128.0Q171 137 177.0 143.0Q183 149 192 149ZM320 149Q329 149 335.0 143.0Q341 137 341.0 128.0Q341 119 335.0 113.0Q329 107 320.0 107.0Q311 107 305.0 113.0Q299 119 299.0 128.0Q299 137 305.0 143.0Q311 149 320 149ZM64 -21 85 43H64Q55 43 49.0 49.0Q43 55 43 64V192Q43 201 49.0 207.0Q55 213 64 213H448Q457 213 463.0 207.0Q469 201 469 192V64Q469 55 463.0 49.0Q457 43 448 43H427L448 -21H405L384 43H128L107 -21ZM277 171V85H427V171ZM85 171V85H235V171Z" />
      </g>
    </svg>