<svg xmlns="http://www.w3.org/2000/svg" viewBox="64 -21 405 426">
      <g transform="scale(1 -1) translate(0 -384)">
        <path d="M405 299H345Q330 326 307 341L341 375L311 405L265 359Q250 363 235.0 363.0Q220 363 205 359L158 405L128 375L163 341Q139 326 124 299H64V256H109Q107 245 107 235V213H64V171H107V149Q107 139 109 128H64V85H124Q147 45 190.5 29.0Q234 13 277 29V43Q277 60 283 79Q261 64 235 64Q199 64 174.0 89.0Q149 114 149 149V235Q149 270 174.0 295.0Q199 320 234.5 320.0Q270 320 295.0 295.0Q320 270 320 235V149Q320 141 319 137Q338 154 363 163V171H405V213H363V235Q363 245 361 256H405ZM277 256V213H192V256ZM277 171V128H192V171ZM363 107V-21L469 43Z" />
      </g>
    </svg>