<svg xmlns="http://www.w3.org/2000/svg" viewBox="64 -25 416 430">
      <g transform="scale(1 -1) translate(0 -380)">
        <path d="M405 299H345Q330 326 307 341L341 375L311 405L265 359Q250 363 235.0 363.0Q220 363 205 359L158 405L128 375L163 341Q139 326 124 299H64V256H109Q107 245 107 235V213H64V171H107V149Q107 139 109 128H64V85H124Q147 45 190.5 29.0Q234 13 277 29V43Q277 83 300.5 116.5Q324 150 363 163V171H405V213H363V235Q363 245 361 256H405ZM277 128H192V171H277ZM277 213H192V256H277ZM379 -25 320 39 345 64 379 30 455 107 480 77Z" />
      </g>
    </svg>