<svg xmlns="http://www.w3.org/2000/svg" viewBox="85 0 342 384">
      <g transform="scale(1 -1) translate(0 -384)">
        <path d="M299 192H213V235H299ZM299 107H213V149H299ZM427 277H367Q352 303 328 319L363 354L333 384L286 338Q271 341 256.0 341.0Q241 341 226 338L179 384L149 354L184 319Q160 303 145 277H85V235H130Q128 222 128 213V192H85V149H128V128Q128 119 130 107H85V64H145Q162 35 191.5 17.5Q221 0 256.0 0.0Q291 0 320.5 17.5Q350 35 367 64H427V107H382Q384 119 384 128V149H427V192H384V213Q384 222 382 235H427Z" />
      </g>
    </svg>