<svg xmlns="http://www.w3.org/2000/svg" viewBox="43 64 426 256">
      <g transform="scale(1 -1) translate(0 -384)">
        <path d="M448 320Q448 273 398 245Q363 225 306 217Q277 213 256 213H107Q93 213 77 224Q69 229 64 235H43V149H64L70 155Q78 161 86 165Q97 171 107 171H134Q107 153 107 128Q107 99 139.5 81.5Q172 64 224.0 64.0Q276 64 308.5 81.5Q341 99 341 128Q341 147 324 164Q376 154 407 134Q448 107 448 64H469V320ZM224 92Q188 92 162.5 102.5Q137 113 137.0 128.0Q137 143 162.5 153.5Q188 164 224.0 164.0Q260 164 285.5 153.5Q311 143 311.0 128.0Q311 113 285.5 102.5Q260 92 224 92Z" />
      </g>
    </svg>