<svg xmlns="http://www.w3.org/2000/svg" viewBox="129 -43 254 470">
      <g transform="scale(1 -1) translate(0 -384)">
        <path d="M277 403Q277 403 277 403V405Q277 414 271.0 420.5Q265 427 256.0 427.0Q247 427 241.0 420.5Q235 414 235 405V403Q189 396 159.0 360.5Q129 325 129 278V107Q129 59 159.0 23.5Q189 -12 235 -19V-21Q235 -30 241.0 -36.5Q247 -43 256.0 -43.0Q265 -43 271.0 -36.5Q277 -30 277 -21V-19Q323 -12 353.0 23.5Q383 59 383 107V278Q384 325 353.5 360.5Q323 396 277 403ZM341 277H320V333Q341 308 341 277ZM299 33Q279 21 256.0 21.0Q233 21 213 33V107H299ZM213 128V256H299V128ZM192 128H171V256H192ZM213 351Q233 363 256.0 363.0Q279 363 299 351V277H213ZM320 256H341V128H320ZM192 333V277H171V278Q171 309 192 333ZM171 107H192V51Q171 75 171 106ZM320 51V107H341Q341 76 320 51Z" />
      </g>
    </svg>