<svg xmlns="http://www.w3.org/2000/svg" viewBox="43 43 426 320">
      <g transform="scale(1 -1) translate(0 -406)">
        <path d="M85 363Q76 363 70.0 356.5Q64 350 64 341V235Q57 235 51.0 230.5Q45 226 43 218V150H49Q55 160 64.5 165.5Q74 171 85 171H277Q289 171 298.5 165.5Q308 160 314 150H342L341 213Q341 222 335.0 228.5Q329 235 320 235H277V277Q277 286 271.0 292.5Q265 299 256.0 299.0Q247 299 241.0 292.5Q235 286 235 277V235H192V341Q192 350 186.0 356.5Q180 363 171 363ZM107 320H149V213H107ZM363 213V43H469V64L405 85L384 213ZM85 128Q68 128 55.5 115.5Q43 103 43.0 85.5Q43 68 55.5 55.5Q68 43 85 43H277Q295 43 307.5 55.5Q320 68 320.0 85.5Q320 103 307.5 115.5Q295 128 277 128Z" />
      </g>
    </svg>