<svg xmlns="http://www.w3.org/2000/svg" viewBox="43 -21 426 426">
      <g transform="scale(1 -1) translate(0 -384)">
        <path d="M256 405Q214 405 174.5 389.0Q135 373 105.0 343.0Q75 313 59.0 273.5Q43 234 43.0 192.0Q43 150 59.0 110.5Q75 71 105.0 41.0Q135 11 174.5 -5.0Q214 -21 256.0 -21.0Q298 -21 337.5 -5.0Q377 11 407.0 41.0Q437 71 453.0 110.5Q469 150 469 192Q469 229 456 264L422 230Q427 211 427 192Q427 146 404.0 106.5Q381 67 341.5 44.0Q302 21 256.0 21.0Q210 21 170.5 44.0Q131 67 108.0 106.5Q85 146 85.0 192.0Q85 238 108.0 277.5Q131 317 170.5 340.0Q210 363 256 363Q275 363 294 358L329 393Q293 405 256 405ZM405 405 320 320V288L266 234Q262 235 256 235Q238 235 225.5 222.5Q213 210 213.0 192.0Q213 174 225.5 161.5Q238 149 256.0 149.0Q274 149 286.5 161.5Q299 174 299 192Q299 198 298 202L352 256H384L469 341H405ZM256 320Q221 320 191.5 303.0Q162 286 145.0 256.5Q128 227 128.0 192.0Q128 157 145.0 127.5Q162 98 191.5 81.0Q221 64 256.0 64.0Q291 64 320.5 81.0Q350 98 367.0 127.5Q384 157 384 192H341Q341 157 316.0 132.0Q291 107 256.0 107.0Q221 107 196.0 132.0Q171 157 171.0 192.0Q171 227 196.0 252.0Q221 277 256 277Z" />
      </g>
    </svg>