<svg xmlns="http://www.w3.org/2000/svg" viewBox="21 -43 470 448">
      <g transform="scale(1 -1) translate(0 -362)">
        <path d="M21 405V-43H64V0H448V-43H491V299Q491 334 466.0 359.0Q441 384 405 384H213V277H64V405ZM139 405Q117 405 101.0 389.5Q85 374 85.0 352.0Q85 330 101.0 314.5Q117 299 139.0 299.0Q161 299 176.5 314.5Q192 330 192.0 352.0Q192 374 176.5 389.5Q161 405 139 405ZM64 213H448V159Q428 171 405 171H213V64H64ZM139 192Q117 192 101.0 176.5Q85 161 85.0 139.0Q85 117 101.0 101.0Q117 85 139.0 85.0Q161 85 176.5 101.0Q192 117 192.0 139.0Q192 161 176.5 176.5Q161 192 139 192Z" />
      </g>
    </svg>