<svg xmlns="http://www.w3.org/2000/svg" viewBox="21 -43 470 448">
      <g transform="scale(1 -1) translate(0 -362)">
        <path d="M21 405H64V256H213V384H405Q441 384 466.0 359.0Q491 334 491 299V-43H448V0H64V-43H21ZM256 341V256H448V299Q448 316 435.5 328.5Q423 341 405 341ZM64 213V43H213V171H405Q429 171 448 158V213ZM139 171Q161 171 176.5 155.5Q192 140 192.0 117.5Q192 95 176.5 79.5Q161 64 138.5 64.0Q116 64 100.5 79.5Q85 95 85.0 117.5Q85 140 100.5 155.5Q116 171 139 171ZM139 137Q131 137 125.0 131.0Q119 125 119.0 117.0Q119 109 125.0 103.5Q131 98 139.0 98.0Q147 98 152.5 103.5Q158 109 158.0 117.0Q158 125 152.5 131.0Q147 137 139 137ZM256 128V43H448V85Q448 103 435.5 115.5Q423 128 405 128ZM139 384Q161 384 176.5 368.5Q192 353 192.0 330.5Q192 308 176.5 292.5Q161 277 138.5 277.0Q116 277 100.5 292.5Q85 308 85.0 330.5Q85 353 100.5 368.5Q116 384 139 384ZM139 350Q131 350 125.0 344.5Q119 339 119.0 331.0Q119 323 125.0 317.0Q131 311 139.0 311.0Q147 311 152.5 317.0Q158 323 158.0 331.0Q158 339 152.5 344.5Q147 350 139 350Z" />
      </g>
    </svg>