<svg xmlns="http://www.w3.org/2000/svg" viewBox="42 21 426 342">
      <g transform="scale(1 -1) translate(0 -384)">
        <path d="M469 299V107Q469 95 463.5 85.5Q458 76 448 70V37Q448 31 443.5 26.0Q439 21 432 21H421Q415 21 410.0 26.0Q405 31 405 37V64H256V37Q256 31 251.5 26.0Q247 21 240 21H229Q223 21 218.0 26.0Q213 31 213 37V70Q204 76 198.0 85.5Q192 95 192 107V299Q192 329 211 344Q228 356 262 360Q282 363 330.5 363.0Q379 363 400 360Q434 356 450 344Q469 329 469 299ZM277 128Q277 137 271.0 143.0Q265 149 256.0 149.0Q247 149 241.0 143.0Q235 137 235.0 128.0Q235 119 241.0 113.0Q247 107 256.0 107.0Q265 107 271.0 113.0Q277 119 277 128ZM427 128Q427 137 420.5 143.0Q414 149 405.5 149.0Q397 149 390.5 143.0Q384 137 384.0 128.0Q384 119 390.5 113.0Q397 107 405.5 107.0Q414 107 420.5 113.0Q427 119 427 128ZM427 299H235V213H427ZM149 245Q149 268 133.0 283.0Q117 298 95.0 297.5Q73 297 57.5 281.0Q42 265 43 243Q43 224 55.0 210.0Q67 196 85 192V21H107V192Q125 196 137.0 211.0Q149 226 149 245Z" />
      </g>
    </svg>