<svg xmlns="http://www.w3.org/2000/svg" viewBox="85 -21 384 426">
      <g transform="scale(1 -1) translate(0 -384)">
        <path d="M256 405Q173 405 135 391Q85 371 85 320V107Q85 78 107 59V21Q107 12 113.0 6.0Q119 0 128 0H149Q158 0 164.5 6.0Q171 12 171 21V43H299Q279 78 277 117Q278 146 291.5 171.5Q305 197 328 213H128V320H384V235Q389 235 395 235Q411 235 427 230V320Q427 371 377 391Q339 405 256 405ZM160 149Q173 149 182.5 140.0Q192 131 192.0 117.5Q192 104 182.5 94.5Q173 85 160.0 85.0Q147 85 137.5 94.5Q128 104 128.0 117.5Q128 131 137.5 140.0Q147 149 160 149ZM395 192Q364 192 342.0 170.0Q320 148 320 117Q320 93 339 57Q353 31 375 2L395 -21L414 2Q436 31 450 57Q469 93 469 117Q469 148 447.0 170.0Q425 192 395 192ZM395 90Q384 90 376.5 97.5Q369 105 369.0 115.5Q369 126 376.5 133.5Q384 141 394.5 140.5Q405 140 412.5 133.0Q420 126 420.5 115.0Q421 104 413.0 96.5Q405 89 395 90Z" />
      </g>
    </svg>