<svg xmlns="http://www.w3.org/2000/svg" viewBox="21 21 470 342">
      <g transform="scale(1 -1) translate(0 -384)">
        <path d="M64 363Q46 363 33.5 350.5Q21 338 21 320V85H64Q64 59 82.5 40.0Q101 21 128.0 21.0Q155 21 173.5 40.0Q192 59 192 85H320Q320 59 338.5 40.0Q357 21 384.0 21.0Q411 21 429.5 40.0Q448 59 448 85H491V149Q491 167 478.5 179.5Q466 192 448 192H405V245H491V320Q491 338 478.5 350.5Q466 363 448 363ZM53 331H139V277H53ZM171 331H256V277H171ZM288 331H373V277H288ZM405 331H459V277H405ZM288 245H373V192H288ZM53 245H139V192H53ZM171 245H256V192H171ZM128 117Q141 117 150.5 108.0Q160 99 160.0 85.5Q160 72 150.5 62.5Q141 53 128.0 53.0Q115 53 105.5 62.5Q96 72 96.0 85.5Q96 99 105.5 108.0Q115 117 128 117ZM384 117Q397 117 406.5 108.0Q416 99 416.0 85.5Q416 72 406.5 62.5Q397 53 384.0 53.0Q371 53 361.5 62.5Q352 72 352.0 85.5Q352 99 361.5 108.0Q371 117 384 117Z" />
      </g>
    </svg>