<svg xmlns="http://www.w3.org/2000/svg" viewBox="43 -21 426 426">
      <g transform="scale(1 -1) translate(0 -384)">
        <path d="M427 384H149V405H128Q118 404 110.0 398.5Q102 393 98 384H43V341H80Q57 267 47 115Q43 40 43 -21H149V341H427ZM469 267Q469 288 454.5 303.0Q440 318 419.0 319.0Q398 320 382.0 306.5Q366 293 363.0 272.5Q360 252 372.5 235.0Q385 218 405 213V-21H427V213Q446 217 458.0 232.0Q470 247 469 267ZM320 203V107H299V-21H267V85H245V-21H213V107H192V203Q192 216 201.5 225.5Q211 235 224 235H288Q301 235 310.5 225.5Q320 216 320 203ZM256 309Q243 309 233.5 300.0Q224 291 224.0 277.5Q224 264 233.5 254.5Q243 245 256.0 245.0Q269 245 278.5 254.5Q288 264 288.0 277.5Q288 291 278.5 300.0Q269 309 256 309Z" />
      </g>
    </svg>