<svg xmlns="http://www.w3.org/2000/svg" viewBox="43 -21 426 340">
      <g transform="scale(1 -1) translate(0 -298)">
        <path d="M128 -21V43H85V-21H43V149Q43 158 49.0 164.5Q55 171 64.0 171.0Q73 171 79.0 164.5Q85 158 85 149V85H149Q158 85 164.5 79.0Q171 73 171 64V-21ZM427 213V-21H405V213Q385 217 373.0 234.0Q361 251 363.0 271.0Q365 291 380.0 305.0Q395 319 416.0 319.0Q437 319 452.0 305.0Q467 291 469.0 271.0Q471 251 459.0 234.0Q447 217 427 213ZM320 202V107H299V-21H267V85H245V-21H213V107H192V203Q192 216 201.5 225.5Q211 235 224 235H288Q301 235 310.5 225.5Q320 216 320 203ZM256 308Q246 308 238.0 302.5Q230 297 226.5 288.0Q223 279 225.0 269.5Q227 260 234.0 253.0Q241 246 250.5 244.5Q260 243 269.0 247.0Q278 251 283.0 259.5Q288 268 288 277Q288 291 278.5 300.0Q269 309 256 309Z" />
      </g>
    </svg>