<svg xmlns="http://www.w3.org/2000/svg" viewBox="21 -43 470 470">
      <g transform="scale(1 -1) translate(0 -384)">
        <path d="M341 427Q382 427 416.0 406.5Q450 386 470.5 352.0Q491 318 491 277Q491 240 474.0 208.0Q457 176 427.5 155.5Q398 135 363 129V64Q363 37 340 17V-21Q340 -30 334.5 -36.5Q329 -43 320 -43H299Q289 -43 282.5 -36.5Q276 -30 276 -21V0H108V-21Q108 -30 101.5 -36.5Q95 -43 85 -43H64Q55 -43 49.5 -36.5Q44 -30 44 -21V17Q21 37 21 64V277Q21 328 65.0 345.5Q109 363 192 363L218 362Q239 392 271.5 409.5Q304 427 341 427ZM341 384Q312 384 287.5 369.5Q263 355 249.0 330.5Q235 306 235.0 277.0Q235 248 249.0 223.5Q263 199 287.5 185.0Q312 171 341.0 171.0Q370 171 394.5 185.0Q419 199 433.5 223.5Q448 248 448.0 277.0Q448 306 433.5 330.5Q419 355 394.5 369.5Q370 384 341 384ZM320 235H363V192H320ZM320 363H363V256H320ZM64 171H237Q216 192 204.0 219.5Q192 247 192 277H64ZM96 107Q83 107 73.5 97.5Q64 88 64.0 74.5Q64 61 73.5 52.0Q83 43 96.5 43.0Q110 43 119.0 52.0Q128 61 128.0 74.5Q128 88 118.5 97.5Q109 107 96 107ZM288 107Q274 107 265.0 97.5Q256 88 256.0 74.5Q256 61 265.5 52.0Q275 43 288.0 43.0Q301 43 310.5 52.0Q320 61 320.0 74.5Q320 88 310.5 97.5Q301 107 288 107Z" />
      </g>
    </svg>