<svg xmlns="http://www.w3.org/2000/svg" viewBox="43 -64 426 491">
      <g transform="scale(1 -1) translate(0 -363)">
        <path d="M213 341Q130 341 93 327Q43 307 43 256V43Q43 14 64 -5V-43Q64 -51 70.5 -57.5Q77 -64 85 -64H107Q115 -64 121.5 -57.5Q128 -51 128 -43V-21H299V-43Q299 -51 305.0 -57.5Q311 -64 320 -64H341Q350 -64 356.5 -57.5Q363 -51 363 -43V-5Q384 14 384 43V256Q384 307 334 327Q296 341 213 341ZM117 21Q104 21 94.5 30.5Q85 40 85.0 53.5Q85 67 94.5 76.0Q104 85 117.5 85.0Q131 85 140.0 76.0Q149 67 149.0 53.5Q149 40 140.0 30.5Q131 21 117 21ZM309 21Q296 21 286.5 30.5Q277 40 277.0 53.5Q277 67 286.5 76.0Q296 85 309.5 85.0Q323 85 332.0 76.0Q341 67 341.0 53.5Q341 40 332.0 30.5Q323 21 309 21ZM341 149H85V256H341ZM469 341V128Q469 100 448 81V43Q448 34 441.5 27.5Q435 21 427 21H424Q427 33 427 43V256Q427 314 386 346Q354 371 297 379Q265 384 213 384Q166 384 138 380Q154 408 199 418Q234 427 299 427Q382 427 419 412Q469 393 469 341Z" />
      </g>
    </svg>