<svg xmlns="http://www.w3.org/2000/svg" viewBox="53 64 406 256">
      <g transform="scale(1 -1) translate(0 -384)">
        <path d="M459 320 427 288 459 256 427 224 459 192 427 160 459 128H267Q267 101 248.0 82.5Q229 64 202.5 64.0Q176 64 157.5 82.5Q139 101 139 128H53V277Q53 295 65.5 307.5Q78 320 96 320ZM395 288H320V235H395ZM288 288H203V235H288ZM171 288H85V235H171ZM203 160Q189 160 180.0 150.5Q171 141 171.0 128.0Q171 115 180.0 105.5Q189 96 202.5 96.0Q216 96 225.5 105.5Q235 115 235.0 128.0Q235 141 225.5 150.5Q216 160 203 160Z" />
      </g>
    </svg>