<svg xmlns="http://www.w3.org/2000/svg" viewBox="85 -64 342 512">
      <g transform="scale(1 -1) translate(0 -384)">
        <path d="M384 277H128V363H384ZM352 149Q339 149 329.5 159.0Q320 169 320.0 181.5Q320 194 329.5 203.5Q339 213 352.0 213.0Q365 213 374.5 203.5Q384 194 384.0 181.5Q384 169 374.5 159.0Q365 149 352 149ZM160 149Q147 149 137.5 159.0Q128 169 128.0 181.5Q128 194 137.5 203.5Q147 213 160.0 213.0Q173 213 182.5 203.5Q192 194 192.0 181.5Q192 169 182.5 159.0Q173 149 160 149ZM85 171Q85 157 91.0 144.5Q97 132 107 124V85Q107 76 112.5 70.0Q118 64 128 64H149Q159 64 165.0 70.0Q171 76 171 85V107H341V85Q341 76 347.0 70.0Q353 64 363 64H384Q394 64 399.5 70.0Q405 76 405 85V124Q415 132 421.0 144.5Q427 157 427 171V363Q427 414 377 433Q339 448 256.0 448.0Q173 448 135 433Q85 414 85 363ZM149 0H235V43L363 -21H277V-64Z" />
      </g>
    </svg>