<svg xmlns="http://www.w3.org/2000/svg" viewBox="85 0 342 405">
      <g transform="scale(1 -1) translate(0 -405)">
        <path d="M384 213H128V320H384ZM352 85Q339 85 329.5 94.5Q320 104 320.0 117.5Q320 131 329.5 140.0Q339 149 352.0 149.0Q365 149 374.5 140.0Q384 131 384.0 117.5Q384 104 374.5 94.5Q365 85 352 85ZM160 85Q147 85 137.5 94.5Q128 104 128.0 117.5Q128 131 137.5 140.0Q147 149 160.0 149.0Q173 149 182.5 140.0Q192 131 192.0 117.5Q192 104 182.5 94.5Q173 85 160 85ZM85 107Q85 79 107 59V21Q107 12 113.0 6.0Q119 0 128 0H149Q158 0 164.5 6.0Q171 12 171 21V43H341V21Q341 12 347.5 6.0Q354 0 363 0H384Q393 0 399.0 6.0Q405 12 405 21V59Q427 79 427 107V320Q427 371 377 391Q339 405 256.0 405.0Q173 405 135 391Q85 371 85 320Z" />
      </g>
    </svg>