<svg xmlns="http://www.w3.org/2000/svg" viewBox="43 0 426 384">
      <g transform="scale(1 -1) translate(0 -384)">
        <path d="M277 0H235V320L193 363L213 384L256 341L299 384L320 363L277 320ZM299 256V299Q327 320 363 320Q392 320 416.5 305.5Q441 291 455.0 266.5Q469 242 469 213Q469 188 457.5 165.5Q446 143 427 128V85Q427 50 402.0 25.0Q377 0 341 0Q318 0 299 12V54Q318 43 341 43Q359 43 371.5 55.5Q384 68 384 85V153Q403 160 415.0 176.5Q427 193 427 213Q427 240 408.0 258.5Q389 277 363 277Q327 277 299 256ZM213 256Q185 277 149 277Q123 277 104.0 258.5Q85 240 85 213Q85 193 97.0 176.5Q109 160 128 153V85Q128 68 140.5 55.5Q153 43 171 43Q194 43 213 54V12Q194 0 171 0Q135 0 110.0 25.0Q85 50 85 85V128Q66 143 54.5 165.5Q43 188 43 213Q43 242 57.0 266.5Q71 291 95.5 305.5Q120 320 149 320Q185 320 213 299ZM192 213 160 245 128 213 160 181ZM384 213 352 245 320 213 352 181Z" />
      </g>
    </svg>