<svg xmlns="http://www.w3.org/2000/svg" viewBox="43 0 426 384">
      <g transform="scale(1 -1) translate(0 -384)">
        <path d="M277 0H235V320L193 363L213 384L256 341L299 384L320 363L277 320ZM149 320Q120 320 95.5 305.5Q71 291 57.0 266.5Q43 242 43 213Q43 188 54.5 165.5Q66 143 85 128V85Q85 50 110.0 25.0Q135 0 171 0Q193 0 213 11V12V299Q185 320 149 320ZM139 181 107 213 139 245 171 213ZM469 213Q469 242 455.0 266.5Q441 291 416.5 305.5Q392 320 363 320Q327 320 299 299V12Q318 0 341 0Q377 0 402.0 25.0Q427 50 427 85V128Q446 143 457.5 165.5Q469 188 469 213ZM373 181 341 213 373 245 405 213Z" />
      </g>
    </svg>