<svg xmlns="http://www.w3.org/2000/svg" viewBox="43 -21 426 426">
      <g transform="scale(1 -1) translate(0 -384)">
        <path d="M427 11Q427 -2 417.0 -11.5Q407 -21 395 -21H277Q265 -21 256 -13L171 77L186 94Q192 100 203 100H207L256 64V256Q256 266 262.0 271.5Q268 277 277.5 277.0Q287 277 293.0 271.5Q299 266 299 256V160L324 158L407 111Q415 108 421.0 99.5Q427 91 427 83ZM427 405H85Q68 405 55.5 392.5Q43 380 43 363V192Q43 174 55.5 161.5Q68 149 85 149H171V192H85V363H427V192H384V149H427Q444 149 456.5 161.5Q469 174 469 192V363Q469 380 456.5 392.5Q444 405 427 405Z" />
      </g>
    </svg>