<svg xmlns="http://www.w3.org/2000/svg" viewBox="39 -11 434 406">
      <g transform="scale(1 -1) translate(0 -384)">
        <path d="M150 373Q128 351 128.0 320.0Q128 289 150 267L332 86Q341 77 341.0 63.5Q341 50 331.5 41.0Q322 32 309.0 32.0Q296 32 286 41L196 132L218 154L143 230L135 222L105 252Q99 259 90.0 259.0Q81 259 75 252L45 222Q39 216 39.0 207.0Q39 198 45 192L75 162L67 154L143 79L166 102L256 11Q278 -11 309.0 -11.0Q340 -11 362.0 11.0Q384 33 384.0 64.0Q384 95 362 116L180 298Q171 307 171.0 320.5Q171 334 180.5 343.0Q190 352 203.0 352.0Q216 352 226 343L316 252L294 230L369 154L377 162L407 132Q413 125 422.0 125.0Q431 125 437 132L467 162Q473 168 473.0 177.0Q473 186 467 192L437 222L445 230L369 305L346 282L256 373Q234 395 203.0 395.0Q172 395 150 373ZM60 207 90 237 120 207 90 177ZM392 177 422 207 452 177 422 147Z" />
      </g>
    </svg>