<svg xmlns="http://www.w3.org/2000/svg" viewBox="128 0 256 363">
      <g transform="scale(1 -1) translate(0 -363)">
        <path d="M299 107V0H213V64H192Q165 64 146.5 82.5Q128 101 128 128V192Q128 201 134.0 207.0Q140 213 149.0 213.0Q158 213 164.5 207.0Q171 201 171 192V128Q171 119 177.0 113.0Q183 107 192 107H213V320Q213 338 225.5 350.5Q238 363 256.0 363.0Q274 363 286.5 350.5Q299 338 299 320V149H320Q329 149 335.0 155.5Q341 162 341 171V213Q341 222 347.5 228.5Q354 235 363.0 235.0Q372 235 378.0 228.5Q384 222 384 213V171Q384 144 365.5 125.5Q347 107 320 107Z" />
      </g>
    </svg>