<svg xmlns="http://www.w3.org/2000/svg" viewBox="21 -43 470 480">
      <g transform="scale(1 -1) translate(0 -394)">
        <path d="M245 437Q254 433 265.5 411.5Q277 390 277.0 373.5Q277 357 268.5 349.0Q260 341 245.0 341.0Q230 341 223 346Q213 352 213 368Q213 377 218 386Q220 391 227 403Q241 423 245 437ZM395 256Q435 256 463.0 228.0Q491 200 491 160Q491 135 479.5 114.0Q468 93 448 80V-43H64V80Q44 93 32.5 114.0Q21 135 21 160Q21 200 49.0 228.0Q77 256 117 256H213V320H277V256ZM256 107Q278 107 293.5 122.5Q309 138 309 160H341Q341 138 357.0 122.5Q373 107 395.0 107.0Q417 107 432.5 122.5Q448 138 448.0 160.0Q448 182 432.5 197.5Q417 213 395 213H117Q95 213 79.5 197.5Q64 182 64.0 160.0Q64 138 79.5 122.5Q95 107 117.0 107.0Q139 107 155.0 122.5Q171 138 171 160H203Q203 138 218.5 122.5Q234 107 256 107Z" />
      </g>
    </svg>