<svg xmlns="http://www.w3.org/2000/svg" viewBox="64 -21 384 469">
      <g transform="scale(1 -1) translate(0 -427)">
        <path d="M256 320Q274 320 286.5 332.5Q299 345 299 363Q299 375 292 385L256 448L220 385Q213 375 213 363Q213 345 225.5 332.5Q238 320 256 320ZM354 107 331 130 308 107Q287 86 256.0 86.0Q225 86 204 107L181 130L158 107Q136 85 106 85Q83 85 64 98V0Q64 -9 70.0 -15.0Q76 -21 85 -21H427Q436 -21 442.0 -15.0Q448 -9 448 0V98Q429 85 406 85Q376 85 354 107ZM384 256H277V299H235V256H128Q101 256 82.5 237.5Q64 219 64 192V159Q64 142 76.5 129.5Q89 117 106.5 117.0Q124 117 135 129L181 175L226 129Q238 118 256.0 118.0Q274 118 285 129L331 175L377 129Q388 117 405.5 117.0Q423 117 435.5 129.5Q448 142 448 159V192Q448 219 429.5 237.5Q411 256 384 256Z" />
      </g>
    </svg>