<svg xmlns="http://www.w3.org/2000/svg" viewBox="64 0 384 384">
      <g transform="scale(1 -1) translate(0 -384)">
        <path d="M405 384H107Q89 384 76.5 371.5Q64 359 64 341V43Q64 25 76.5 12.5Q89 0 107 0H405Q423 0 435.5 12.5Q448 25 448 43V341Q448 359 435.5 371.5Q423 384 405 384ZM405 43H107V341H405ZM132 284H239V252H132ZM277 111H384V79H277ZM277 166H384V134H277ZM171 64H203V107H245V139H203V181H171V139H128V107H171ZM301 215 331 245 361 215 384 237 354 267 384 297 361 320 331 290 301 320 277 297 307 267 277 237Z" />
      </g>
    </svg>