<svg xmlns="http://www.w3.org/2000/svg" viewBox="107 -21 298 426">
      <g transform="scale(1 -1) translate(0 -384)">
        <path d="M149 405H363Q380 405 392.5 392.5Q405 380 405 363V21Q405 4 392.5 -8.5Q380 -21 363 -21H149Q132 -21 119.5 -8.5Q107 4 107 21V363Q107 380 119.5 392.5Q132 405 149 405ZM149 363V277H363V363ZM149 235V192H192V235ZM235 235V192H277V235ZM320 235V192H363V235ZM149 149V107H192V149ZM235 149V107H277V149ZM320 149V107H363V149ZM149 64V21H192V64ZM235 64V21H277V64ZM320 64V21H363V64Z" />
      </g>
    </svg>