<svg xmlns="http://www.w3.org/2000/svg" viewBox="64 0 384 384">
      <g transform="scale(1 -1) translate(0 -384)">
        <path d="M405 384H107Q89 384 76.5 371.5Q64 359 64 341V43Q64 25 76.5 12.5Q89 0 107 0H405Q423 0 435.5 12.5Q448 25 448 43V341Q448 359 435.5 371.5Q423 384 405 384ZM277 297 301 320 331 290 361 320 384 297 354 267 384 237 361 213 331 243 301 213 277 237 307 267ZM132 284H239V252H132ZM245 107H203V64H171V107H128V139H171V181H203V139H245ZM384 81H277V113H384ZM384 132H277V164H384Z" />
      </g>
    </svg>