<svg xmlns="http://www.w3.org/2000/svg" viewBox="64 0 384 427">
      <g transform="scale(1 -1) translate(0 -427)">
        <path d="M149 213H192V171H149ZM448 341V43Q448 25 435.5 12.5Q423 0 405 0H107Q89 0 76.5 12.5Q64 25 64 43V341Q64 359 76.5 371.5Q89 384 107 384H128V427H171V384H341V427H384V384H405Q423 384 435.5 371.5Q448 359 448 341ZM107 299H405V341H107ZM405 43V256H107V43ZM320 171V213H363V171ZM235 171V213H277V171ZM149 128H192V85H149ZM320 85V128H363V85ZM235 85V128H277V85Z" />
      </g>
    </svg>