<svg xmlns="http://www.w3.org/2000/svg" viewBox="64 -21 405 448">
      <g transform="scale(1 -1) translate(0 -406)">
        <path d="M384 213V181Q417 181 440.5 160.0Q464 139 468.5 107.5Q473 76 455 49L432 72Q440 89 436.0 107.5Q432 126 417.5 137.5Q403 149 384 149V117L336 165ZM384 -21V11Q351 11 327.5 32.0Q304 53 299.5 84.5Q295 116 313 143L336 120Q328 103 332.0 84.5Q336 66 350.5 54.5Q365 43 384 43V75L432 27ZM405 384H384V427H341V384H171V427H128V384H107Q89 384 76.5 371.5Q64 359 64 341V43Q64 25 76.5 12.5Q89 0 107 0H299Q279 17 267 43H107V256H405V222Q429 218 448 207V341Q448 359 435.5 371.5Q423 384 405 384ZM405 299H107V341H405Z" />
      </g>
    </svg>