<svg xmlns="http://www.w3.org/2000/svg" viewBox="64 -42 426 469">
      <g transform="scale(1 -1) translate(0 -385)">
        <path d="M405 384H384V427H341V384H171V427H128V384H101Q87 382 76.5 371.5Q66 361 64 347V37Q66 23 76.5 12.5Q87 2 101 0H320V43H107V256H405V213H448V341Q448 359 435.5 371.5Q423 384 405 384ZM405 299H107V341H405ZM363 0 401 -38Q409 -45 418.0 -41.0Q427 -37 427 -27V64L486 137Q494 148 488.0 159.5Q482 171 469 171H320Q307 171 301.0 158.5Q295 146 303 137L363 64Z" />
      </g>
    </svg>