<svg xmlns="http://www.w3.org/2000/svg" viewBox="64 -43 427 470">
      <g transform="scale(1 -1) translate(0 -384)">
        <path d="M128 427V384H107Q89 384 76.5 371.5Q64 359 64 341V43Q64 25 76.5 12.5Q89 0 107 0H237Q257 -20 284.0 -31.5Q311 -43 341 -43Q382 -43 416.5 -23.0Q451 -3 471.0 31.5Q491 66 491 107Q491 137 479.5 164.0Q468 191 448 211V341Q448 359 435.5 371.5Q423 384 405 384H384V427H341V384H171V427ZM107 341H405V299H107ZM107 256H405V242Q375 256 341 256Q301 256 266.5 236.0Q232 216 212.0 181.5Q192 147 192 107Q192 73 206 43H107ZM341 210Q369 210 393.0 196.0Q417 182 431.0 158.5Q445 135 445.0 107.0Q445 79 431.0 55.0Q417 31 393.0 17.0Q369 3 341.0 3.0Q313 3 289.5 17.0Q266 31 252.0 55.0Q238 79 238.0 107.0Q238 135 252.0 158.5Q266 182 289.5 196.0Q313 210 341 210ZM320 171V92L388 53L404 80L352 111V171Z" />
      </g>
    </svg>