<svg xmlns="http://www.w3.org/2000/svg" viewBox="64 0 384 427">
      <g transform="scale(1 -1) translate(0 -427)">
        <path d="M405 43V277H107V43ZM341 427H384V384H405Q423 384 435.5 371.5Q448 359 448 341V43Q448 25 435.5 12.5Q423 0 405 0H107Q89 0 76.5 12.5Q64 25 64 43V341Q64 359 76.5 371.5Q89 384 107 384H128V427H171V384H341ZM256 82 244 93H243Q203 130 191 145Q171 170 171.0 190.5Q171 211 184.5 224.5Q198 238 218 238Q241 238 256 221Q271 238 294 238Q314 238 327.5 224.5Q341 211 341.0 190.5Q341 170 321 145Q309 130 269 93Z" />
      </g>
    </svg>