<svg xmlns="http://www.w3.org/2000/svg" viewBox="64 -43 405 470">
      <g transform="scale(1 -1) translate(0 -384)">
        <path d="M405 384H384V427H341V384H171V427H128V384H107Q89 384 76.5 371.5Q64 359 64 341V43Q64 25 76.5 12.5Q89 0 107 0H256V43H107V256H405V213Q430 206 448 194V341Q448 359 435.5 371.5Q423 384 405 384ZM405 299H107V341H405ZM444 85V117Q444 139 425.5 155.0Q407 171 384.0 171.0Q361 171 342.5 155.0Q324 139 324 117V85Q315 85 307.0 77.0Q299 69 299 60V-15Q299 -26 306.5 -34.5Q314 -43 324 -43H442Q453 -43 461.0 -35.0Q469 -27 469 -17V58Q469 69 461.5 77.0Q454 85 444 85ZM416 85H352V117Q352 130 361.5 137.5Q371 145 384.0 145.0Q397 145 406.5 137.5Q416 130 416 117Z" />
      </g>
    </svg>