<svg xmlns="http://www.w3.org/2000/svg" viewBox="64 -43 405 470">
      <g transform="scale(1 -1) translate(0 -384)">
        <path d="M405 384H384V427H341V384H171V427H128V384H107Q89 384 76.5 371.5Q64 359 64 341V43Q64 25 76.5 12.5Q89 0 107 0H256V43H107V256H405V233Q430 226 448 213V341Q448 359 435.5 371.5Q423 384 405 384ZM405 299H107V341H405ZM469 -17Q469 -27 461.0 -35.0Q453 -43 442 -43H324Q314 -43 306.5 -34.5Q299 -26 299 -15V60Q299 69 307.0 77.0Q315 85 324 85V139Q324 161 342.5 176.5Q361 192 384.0 192.0Q407 192 425.5 176.5Q444 161 444 139V128H416V139Q416 151 406.5 158.5Q397 166 384.0 166.0Q371 166 361.5 158.5Q352 151 352 139V85H444Q454 85 461.5 77.0Q469 69 469 58Z" />
      </g>
    </svg>