<svg xmlns="http://www.w3.org/2000/svg" viewBox="64 -43 427 470">
      <g transform="scale(1 -1) translate(0 -384)">
        <path d="M320 171H352V111L404 80L388 53L320 92ZM405 277H107V43H206Q192 73 192 107Q192 147 212.0 181.5Q232 216 266.5 236.0Q301 256 341 256Q375 256 405 242ZM107 0Q89 0 76.5 12.5Q64 25 64 43V341Q64 359 76.5 371.5Q89 384 107 384H128V427H171V384H341V427H384V384H405Q423 384 435.5 371.5Q448 359 448 341V211Q468 191 479.5 164.0Q491 137 491 107Q491 66 470.5 32.0Q450 -2 416.0 -22.5Q382 -43 341 -43Q311 -43 284.0 -31.5Q257 -20 237 0ZM341 210Q313 210 289.5 196.0Q266 182 252.0 158.5Q238 135 238.0 107.0Q238 79 252.0 55.0Q266 31 289.5 17.0Q313 3 341 3Q362 3 381.0 11.0Q400 19 414.5 33.5Q429 48 437.0 67.0Q445 86 445 107Q445 135 431.0 158.5Q417 182 393.0 196.0Q369 210 341 210Z" />
      </g>
    </svg>