<svg xmlns="http://www.w3.org/2000/svg" viewBox="64 0 384 427">
      <g transform="scale(1 -1) translate(0 -427)">
        <path d="M255 235Q232 235 217.5 223.5Q203 212 203 190V189H238Q238 198 243.0 202.5Q248 207 255.5 207.0Q263 207 268.0 201.5Q273 196 273.0 187.0Q273 178 269.5 172.0Q266 166 258 160Q244 151 238.5 143.5Q233 136 233 121H270Q270 130 272.0 135.0Q274 140 281 145Q294 152 301.5 163.0Q309 174 309 187Q309 209 294.5 222.0Q280 235 255 235ZM233 102V64H270V102ZM405 384H384V427H341V384H171V427H128V384H107Q89 384 76.5 371.5Q64 359 64 341V43Q64 25 76.5 12.5Q89 0 107 0H405Q423 0 435.5 12.5Q448 25 448 43V341Q448 359 435.5 371.5Q423 384 405 384ZM405 341V299H107V341ZM107 43V256H405V43Z" />
      </g>
    </svg>