<svg xmlns="http://www.w3.org/2000/svg" viewBox="64 0 384 427">
      <g transform="scale(1 -1) translate(0 -427)">
        <path d="M128 427V384H107Q89 384 76.5 371.5Q64 359 64 341V43Q64 25 76.5 12.5Q89 0 107 0H405Q423 0 435.5 12.5Q448 25 448 43V341Q448 359 435.5 371.5Q423 384 405 384H384V427H341V384H171V427ZM107 277H405V43H107ZM260 256Q232 256 215.0 243.0Q198 230 199 206V205H240Q240 215 246.0 220.0Q252 225 261.0 225.0Q270 225 276.0 219.0Q282 213 282.0 202.5Q282 192 277.0 185.0Q272 178 264 173Q247 162 241.0 153.5Q235 145 235 128H277Q277 138 280.0 144.0Q283 150 291 155Q306 163 315.0 175.5Q324 188 324 203Q324 227 307.0 241.5Q290 256 260 256ZM235 107V64H277V107Z" />
      </g>
    </svg>