<svg xmlns="http://www.w3.org/2000/svg" viewBox="64 0 384 427">
      <g transform="scale(1 -1) translate(0 -427)">
        <path d="M341 188Q341 166 321 142Q309 126 269 90L256 78L243 90Q203 126 191 142Q171 166 171.0 186.5Q171 207 184.5 221.0Q198 235 218 235Q241 235 256 217Q271 235 294 235Q314 235 327.5 221.0Q341 207 341 188ZM448 341V43Q448 25 435.5 12.5Q423 0 405 0H107Q89 0 76.5 12.5Q64 25 64 43V341Q64 359 76.5 371.5Q89 384 107 384H128V427H171V384H341V427H384V384H405Q423 384 435.5 371.5Q448 359 448 341ZM107 341V299H405V341ZM405 43V256H107V43Z" />
      </g>
    </svg>