<svg xmlns="http://www.w3.org/2000/svg" viewBox="64 0 384 427">
      <g transform="scale(1 -1) translate(0 -427)">
        <path d="M405 384H384V427H341V384H171V427H128V384H107Q89 384 76.5 371.5Q64 359 64 341V43Q64 25 76.5 12.5Q89 0 107 0H405Q423 0 435.5 12.5Q448 25 448 43V341Q448 359 435.5 371.5Q423 384 405 384ZM405 43H107V256H405ZM405 299H107V341H405ZM256 235Q277 235 290.5 220.5Q304 206 304.0 186.5Q304 167 289.5 152.5Q275 138 255.5 138.5Q236 139 222.0 152.5Q208 166 208.0 186.5Q208 207 222.0 221.0Q236 235 256 235ZM352 67V64H160V67Q160 87 188.0 101.0Q216 115 256.0 115.0Q296 115 324.0 101.0Q352 87 352 67Z" />
      </g>
    </svg>