<svg xmlns="http://www.w3.org/2000/svg" viewBox="64 -43 405 470">
      <g transform="scale(1 -1) translate(0 -384)">
        <path d="M256 0H107Q89 0 76.5 12.5Q64 25 64 43V341Q64 359 76.5 371.5Q89 384 107 384H128V427H171V384H341V427H384V384H405Q423 384 435.5 371.5Q448 359 448 341V192Q423 209 405 211V277H107V43H256ZM469 58V-17Q469 -27 461.0 -35.0Q453 -43 442 -43H324Q314 -43 306.5 -34.5Q299 -26 299 -15V60Q299 69 307.0 77.0Q315 85 324 85V117Q324 139 342.5 155.0Q361 171 384.0 171.0Q407 171 425.5 155.0Q444 139 444 117V85Q454 85 461.5 77.0Q469 69 469 58ZM416 117Q416 130 406.5 137.5Q397 145 384.0 145.0Q371 145 361.5 137.5Q352 130 352 117V85H416Z" />
      </g>
    </svg>