<svg xmlns="http://www.w3.org/2000/svg" viewBox="64 0 384 427">
      <g transform="scale(1 -1) translate(0 -427)">
        <path d="M256 256Q277 256 290.5 242.0Q304 228 304.0 208.5Q304 189 289.5 174.0Q275 159 255.5 159.5Q236 160 222.0 173.5Q208 187 208.0 207.5Q208 228 222.0 242.0Q236 256 256 256ZM352 64H160V88Q160 108 188.0 122.0Q216 136 256.0 136.0Q296 136 324.0 122.0Q352 108 352 88ZM405 43H107V277H405ZM341 427V384H171V427H128V384H107Q89 384 76.5 371.5Q64 359 64 341V43Q64 25 76.5 12.5Q89 0 107 0H405Q423 0 435.5 12.5Q448 25 448 43V341Q448 359 435.5 371.5Q423 384 405 384H384V427Z" />
      </g>
    </svg>