<svg xmlns="http://www.w3.org/2000/svg" viewBox="64 -51 414 478">
      <g transform="scale(1 -1) translate(0 -376)">
        <path d="M412 45Q427 71 427 96Q427 136 399.0 164.0Q371 192 331.0 192.0Q291 192 263.0 164.0Q235 136 235.0 96.0Q235 56 263.0 28.0Q291 0 331 0Q361 0 382 15L448 -51L478 -21ZM331 43Q308 43 292.5 58.5Q277 74 277.0 96.0Q277 118 292.5 133.5Q308 149 330.5 149.0Q353 149 368.5 133.5Q384 118 384.0 96.0Q384 74 368.5 58.5Q353 43 331 43ZM107 43V256H405V213Q432 197 448 171V341Q448 359 435.5 371.5Q423 384 405 384H384V427H341V384H171V427H128V384H107Q89 384 76.5 371.5Q64 359 64 341V43Q64 25 76.5 12.5Q89 0 107 0H230Q212 19 203 43ZM405 341V299H107V341Z" />
      </g>
    </svg>