<svg xmlns="http://www.w3.org/2000/svg" viewBox="64 -43 405 470">
      <g transform="scale(1 -1) translate(0 -384)">
        <path d="M256 0H107Q89 0 76.5 12.5Q64 25 64 43V341Q64 359 76.5 371.5Q89 384 107 384H128V427H171V384H341V427H384V384H405Q423 384 435.5 371.5Q448 359 448 341V213Q423 230 405 233V277H107V43H256ZM469 58Q469 69 461.5 77.0Q454 85 444 85H352V139Q352 151 361.5 158.5Q371 166 384.0 166.0Q397 166 406.5 158.5Q416 151 416 139V128H444V139Q444 161 425.5 176.5Q407 192 384.0 192.0Q361 192 342.5 176.5Q324 161 324 139V85Q315 85 307.0 77.0Q299 69 299 60V-15Q299 -26 306.5 -34.5Q314 -43 324 -43H442Q453 -43 461.0 -35.0Q469 -27 469 -17Z" />
      </g>
    </svg>