<svg xmlns="http://www.w3.org/2000/svg" viewBox="64 -51 414 478">
      <g transform="scale(1 -1) translate(0 -376)">
        <path d="M331 192Q371 192 399.0 164.0Q427 136 427 96Q427 68 412 45L478 -21L448 -51L381 15Q358 0 331 0Q291 0 263.0 28.0Q235 56 235.0 96.0Q235 136 263.0 164.0Q291 192 331 192ZM331 149Q309 149 293.0 133.5Q277 118 277.0 96.0Q277 74 293.0 58.5Q309 43 331.0 43.0Q353 43 368.5 58.5Q384 74 384.0 96.0Q384 118 368.5 133.5Q353 149 331 149ZM405 277H107V43H203Q212 19 231 0H107Q89 0 76.5 12.5Q64 25 64 43V341Q64 359 76.5 371.5Q89 384 107 384H128V427H171V384H341V427H384V384H405Q423 384 435.5 371.5Q448 359 448 341V170Q433 195 405 213Z" />
      </g>
    </svg>