<svg xmlns="http://www.w3.org/2000/svg" viewBox="23 -36 448 446">
      <g transform="scale(1 -1) translate(0 -374)">
        <path d="M471 -11 201 260 51 410 23 384 58 350Q43 329 43 299V21Q43 4 55.5 -8.5Q68 -21 85 -21H213Q231 -21 243.5 -8.5Q256 4 256 21V151L277 130V107H301L444 -36ZM107 21Q99 21 92.0 28.0Q85 35 85.0 43.0Q85 51 92.0 57.5Q99 64 107.0 64.0Q115 64 121.5 57.5Q128 51 128.0 43.0Q128 35 121.5 28.0Q115 21 107 21ZM149 235Q122 235 103.5 253.0Q85 271 85 299Q85 305 90 318L171 237Q166 237 159.0 236.0Q152 235 149 235ZM154 363 117 399Q133 405 149 405Q179 405 203.5 391.0Q228 377 242.0 352.5Q256 328 256 299V260L213 303Q212 327 195.0 344.0Q178 361 154 363ZM427 256H277V299H427Q444 299 456.5 286.5Q469 274 469 256V149Q469 132 456.5 119.5Q444 107 427 107H410L367 149H427Z" />
      </g>
    </svg>