<svg xmlns="http://www.w3.org/2000/svg" viewBox="43 -21 426 426">
      <g transform="scale(1 -1) translate(0 -384)">
        <path d="M149 405Q120 405 95.5 391.0Q71 377 57.0 352.5Q43 328 43 299V21Q43 4 55.5 -8.5Q68 -21 85 -21H213Q231 -21 243.5 -8.5Q256 4 256 21V299Q256 328 241.5 352.5Q227 377 202.5 391.0Q178 405 149 405ZM107 21Q98 21 91.5 27.5Q85 34 85.0 42.5Q85 51 91.5 57.5Q98 64 106.5 64.0Q115 64 121.5 57.5Q128 51 128.0 42.5Q128 34 121.5 27.5Q115 21 107 21ZM149 235Q123 235 104.0 253.5Q85 272 85.0 298.5Q85 325 104.0 344.0Q123 363 149.5 363.0Q176 363 194.5 344.0Q213 325 213.0 298.5Q213 272 194.5 253.5Q176 235 149 235ZM469 256V149Q469 132 456.5 119.5Q444 107 427 107H277V149H427V256H277V299H427Q444 299 456.5 286.5Q469 274 469 256Z" />
      </g>
    </svg>