<svg xmlns="http://www.w3.org/2000/svg" viewBox="43 21 426 384">
      <g transform="scale(1 -1) translate(0 -426)">
        <path d="M427 363H359L320 405H192L153 363H85Q68 363 55.5 350.5Q43 338 43 320V64Q43 46 55.5 33.5Q68 21 85 21H427Q444 21 456.5 33.5Q469 46 469 64V320Q469 338 456.5 350.5Q444 363 427 363ZM427 64H85V320H172L211 363H301L340 320H427ZM256 299Q227 299 202.5 284.5Q178 270 163.5 245.5Q149 221 149.0 192.0Q149 163 163.5 138.5Q178 114 202.5 99.5Q227 85 256.0 85.0Q285 85 309.5 99.5Q334 114 348.5 138.5Q363 163 363.0 192.0Q363 221 348.5 245.5Q334 270 309.5 284.5Q285 299 256 299ZM256 128Q229 128 210.5 146.5Q192 165 192.0 192.0Q192 219 210.5 237.5Q229 256 256.0 256.0Q283 256 301.5 237.5Q320 219 320.0 192.0Q320 165 301.5 146.5Q283 128 256 128Z" />
      </g>
    </svg>