<svg xmlns="http://www.w3.org/2000/svg" viewBox="26 -21 443 426">
      <g transform="scale(1 -1) translate(0 -384)">
        <path d="M26 353 53 380 427 6 400 -21 357 21H85Q68 21 55.5 33.5Q43 46 43 64V320Q43 326 45 333ZM149 363 192 405H320L363 363H427Q444 363 456.5 350.5Q469 338 469 320V64Q469 45 455 32L348 139Q363 163 363.0 192.0Q363 221 348.5 245.5Q334 270 309.5 284.5Q285 299 256.0 299.0Q227 299 203 284L124 363ZM149 192Q149 163 163.5 138.5Q178 114 202.5 99.5Q227 85 256 85Q273 85 288 90L250 128Q227 130 210.5 146.5Q194 163 192 186L154 224Q149 209 149 192ZM256 256Q283 256 301.5 237.5Q320 219 320 192Q320 181 316 171L235 252Q245 256 256 256Z" />
      </g>
    </svg>