<svg xmlns="http://www.w3.org/2000/svg" viewBox="43 21 426 342">
      <g transform="scale(1 -1) translate(0 -384)">
        <path d="M85 363H427Q444 363 456.5 350.5Q469 338 469 320V64Q469 46 456.5 33.5Q444 21 427 21H85Q68 21 55.5 33.5Q43 46 43 64V320Q43 338 55.5 350.5Q68 363 85 363ZM85 320V64H427V320ZM117 288H235V252Q221 248 210.5 237.5Q200 227 196 213H117ZM395 288V213H316Q312 227 301.5 237.5Q291 248 277 252V288ZM395 96H277V132Q291 136 301.5 146.5Q312 157 316 171H395ZM117 96V171H196Q200 157 210.5 146.5Q221 136 235 132V96ZM256 224Q269 224 278.5 214.5Q288 205 288.0 192.0Q288 179 278.5 169.5Q269 160 256.0 160.0Q243 160 233.5 169.5Q224 179 224.0 192.0Q224 205 233.5 214.5Q243 224 256 224Z" />
      </g>
    </svg>