<svg xmlns="http://www.w3.org/2000/svg" viewBox="43 -21 426 426">
      <g transform="scale(1 -1) translate(0 -384)">
        <path d="M256 218Q284 218 304.0 198.0Q324 178 324.0 149.5Q324 121 304.0 101.0Q284 81 256.0 81.0Q228 81 208.0 101.0Q188 121 188.0 149.5Q188 178 208.0 198.0Q228 218 256 218ZM341 377V405Q376 405 405.5 388.0Q435 371 452.0 341.5Q469 312 469 277H441Q441 304 427.5 327.0Q414 350 391.0 363.5Q368 377 341 377ZM341 320V348Q371 348 391.5 327.5Q412 307 412 277H384Q384 295 371.5 307.5Q359 320 341 320ZM363 256H469V21Q469 4 456.5 -8.5Q444 -21 427 -21H85Q68 -21 55.5 -8.5Q43 4 43 21V277Q43 295 55.5 307.5Q68 320 85 320H153L192 363H320V299Q338 299 350.5 286.5Q363 274 363 256ZM256 43Q285 43 309.5 57.0Q334 71 348.5 95.5Q363 120 363.0 149.0Q363 178 348.5 202.5Q334 227 309.5 241.5Q285 256 256.0 256.0Q227 256 202.5 241.5Q178 227 163.5 202.5Q149 178 149 149Q149 128 157.5 108.5Q166 89 181.0 74.0Q196 59 215.5 51.0Q235 43 256 43Z" />
      </g>
    </svg>