<svg xmlns="http://www.w3.org/2000/svg" viewBox="107 -64 298 512">
      <g transform="scale(1 -1) translate(0 -384)">
        <path d="M149 405H363V181Q363 198 343 211Q326 222 299 229Q276 235 256.0 235.0Q236 235 213 229Q186 222 169 211Q149 198 149 181ZM363 448H149Q132 448 119.5 435.5Q107 423 107 405V107Q107 89 119.5 76.5Q132 64 149 64H363Q380 64 392.5 76.5Q405 89 405 107V405Q405 423 392.5 435.5Q380 448 363 448ZM256 277Q274 277 286.5 289.5Q299 302 299.0 320.0Q299 338 286.5 350.5Q274 363 256.0 363.0Q238 363 225.5 350.5Q213 338 213.0 320.0Q213 302 225.5 289.5Q238 277 256 277ZM299 21V-21H405V21ZM213 21H107V-21H213V-64L277 0L213 64Z" />
      </g>
    </svg>