<svg xmlns="http://www.w3.org/2000/svg" viewBox="43 0 426 384">
      <g transform="scale(1 -1) translate(0 -384)">
        <path d="M192 384 153 341H85Q68 341 55.5 328.5Q43 316 43 299V43Q43 25 55.5 12.5Q68 0 85 0H427Q444 0 456.5 12.5Q469 25 469 43V299Q469 316 456.5 328.5Q444 341 427 341H359L320 384ZM256 64Q235 64 215.5 72.0Q196 80 181.0 95.0Q166 110 157.5 129.5Q149 149 149.0 170.5Q149 192 157.5 211.5Q166 231 181.0 246.0Q196 261 215.5 269.0Q235 277 256 277Q285 277 309.5 263.0Q334 249 348.5 224.5Q363 200 363.0 171.0Q363 142 348.5 117.5Q334 93 309.5 78.5Q285 64 256 64ZM256 85 283 144 341 171 283 197 256 256 229 197 171 171 229 144Z" />
      </g>
    </svg>