<svg xmlns="http://www.w3.org/2000/svg" viewBox="43 21 426 342">
      <g transform="scale(1 -1) translate(0 -384)">
        <path d="M85 363H427Q444 363 456.5 350.5Q469 338 469 320V64Q469 46 456.5 33.5Q444 21 427 21H85Q68 21 55.5 33.5Q43 46 43 64V320Q43 338 55.5 350.5Q68 363 85 363ZM85 320V64H427V320ZM256 288Q290 288 316.0 267.0Q342 246 350 213H316Q310 232 293.5 244.0Q277 256 256.0 256.0Q235 256 218.5 244.0Q202 232 196 213H162Q170 246 196.0 267.0Q222 288 256 288ZM256 96Q222 96 196.0 117.0Q170 138 162 171H196Q202 152 218.5 140.0Q235 128 256.0 128.0Q277 128 293.5 140.0Q310 152 316 171H350Q342 138 316.0 117.0Q290 96 256 96Z" />
      </g>
    </svg>