<svg xmlns="http://www.w3.org/2000/svg" viewBox="43 0 426 384">
      <g transform="scale(1 -1) translate(0 -384)">
        <path d="M427 341H359L320 384H192L153 341H85Q68 341 55.5 328.5Q43 316 43 299V43Q43 25 55.5 12.5Q68 0 85 0H427Q444 0 456.5 12.5Q469 25 469 43V299Q469 316 456.5 328.5Q444 341 427 341ZM427 43H85V299H172L211 341H301L341 299H427ZM256 64Q220 64 192 85L223 116Q238 107 256 107Q283 107 301.5 125.5Q320 144 320.0 170.5Q320 197 301.5 216.0Q283 235 256 235Q236 235 219.5 223.0Q203 211 196 192H235L171 128L107 192H151Q157 220 176.0 241.5Q195 263 222.0 272.0Q249 281 277.5 275.0Q306 269 327.0 250.5Q348 232 357.0 205.0Q366 178 361 149Q353 112 323.5 88.0Q294 64 256 64Z" />
      </g>
    </svg>