<svg xmlns="http://www.w3.org/2000/svg" viewBox="43 -43 448 448">
      <g transform="scale(1 -1) translate(0 -362)">
        <path d="M85 363H149L192 405H320L363 363H427Q444 363 456.5 350.5Q469 338 469 320V192Q441 213 405 213Q381 213 358 203Q348 241 320 269Q291 299 256 299Q227 299 202.5 284.5Q178 270 163.5 245.5Q149 221 149.0 192.0Q149 163 163.5 138.5Q178 114 202.5 99.5Q227 85 256 85Q270 85 282 89Q277 77 277 64V21H85Q68 21 55.5 33.5Q43 46 43 64V320Q43 338 55.5 350.5Q68 363 85 363ZM256 256Q283 256 301.5 237.5Q320 219 320.0 192.0Q320 165 301.5 146.5Q283 128 256.0 128.0Q229 128 210.5 146.5Q192 165 192.0 192.0Q192 219 210.5 237.5Q229 256 256 256ZM491 58V-17Q491 -27 482.5 -35.0Q474 -43 463 -43H346Q336 -43 328.0 -34.5Q320 -26 320 -15V60Q320 69 328.0 77.0Q336 85 346 85V117Q346 139 364.0 155.0Q382 171 405.0 171.0Q428 171 446.5 155.0Q465 139 465 117V85Q475 85 483.0 77.0Q491 69 491 58ZM437 117Q437 130 428.0 137.5Q419 145 405.5 145.0Q392 145 382.5 137.5Q373 130 373 117V85H437Z" />
      </g>
    </svg>