<svg xmlns="http://www.w3.org/2000/svg" viewBox="43 -21 426 426">
      <g transform="scale(1 -1) translate(0 -384)">
        <path d="M427 256V21H85V277H172L211 320H320V363H192L153 320H85Q68 320 55.5 307.5Q43 295 43 277V21Q43 4 55.5 -8.5Q68 -21 85 -21H427Q444 -21 456.5 -8.5Q469 4 469 21V256ZM441 277H469Q469 312 452.0 341.5Q435 371 405.5 388.0Q376 405 341 405V377Q368 377 391.0 363.5Q414 350 427.5 327.5Q441 305 441 277ZM384 277H412Q412 307 391.5 327.5Q371 348 341 348V320Q359 320 371.5 307.5Q384 295 384 277ZM149 149Q149 128 157.5 108.5Q166 89 181.0 74.0Q196 59 215.5 51.0Q235 43 256 43Q285 43 309.5 57.0Q334 71 348.5 95.5Q363 120 363.0 149.0Q363 178 348.5 202.5Q334 227 309.5 241.5Q285 256 256.0 256.0Q227 256 202.5 241.5Q178 227 163.5 202.5Q149 178 149 149ZM320 149Q320 123 301.5 104.0Q283 85 256.0 85.0Q229 85 210.5 104.0Q192 123 192.0 149.5Q192 176 210.5 194.5Q229 213 256.0 213.0Q283 213 301.5 194.5Q320 176 320 149Z" />
      </g>
    </svg>