<svg xmlns="http://www.w3.org/2000/svg" viewBox="43 -21 426 426">
      <g transform="scale(1 -1) translate(0 -384)">
        <path d="M395 90Q384 90 376.5 97.5Q369 105 369.0 115.5Q369 126 377.0 133.5Q385 141 394.5 141.0Q404 141 412.0 133.0Q420 125 421.0 115.5Q422 106 414.0 98.0Q406 90 395 90ZM395 192Q364 192 342.0 170.0Q320 148 320 117Q320 93 339 57Q353 31 375 2L395 -21L414 2Q436 31 450 57Q469 93 469 117Q469 148 447.0 170.0Q425 192 395 192ZM192 405 149 363H85Q68 363 55.5 350.5Q43 338 43 320V64Q43 46 55.5 33.5Q68 21 85 21H309Q288 53 279 87Q273 85 256 85Q227 85 202.5 99.5Q178 114 163.5 138.5Q149 163 149.0 192.0Q149 221 163.5 245.5Q178 270 202.5 284.5Q227 299 256 299Q290 299 317.5 279.5Q345 260 356 228Q375 235 395 235Q435 235 469 207V320Q469 338 456.5 350.5Q444 363 427 363H363L320 405ZM254 256Q228 256 210.0 237.0Q192 218 192.0 191.5Q192 165 210.5 146.5Q229 128 256 128Q265 128 277 132Q284 176 318 207Q313 228 295.0 242.0Q277 256 254 256H255Z" />
      </g>
    </svg>