<svg xmlns="http://www.w3.org/2000/svg" viewBox="0 -21 491 448">
      <g transform="scale(1 -1) translate(0 -406)">
        <path d="M64 363V427H107V363H171V320H107V256H64V320H0V363ZM128 235V299H192V363H341L380 320H448Q466 320 478.5 307.5Q491 295 491 277V21Q491 4 478.5 -8.5Q466 -21 448 -21H107Q89 -21 76.5 -8.5Q64 4 64 21V235ZM277 43Q312 43 338.0 61.0Q364 79 376.0 108.5Q388 138 383 168Q377 200 353.0 224.5Q329 249 296 255Q266 260 236.5 248.0Q207 236 190 211Q171 184 171 149Q171 120 185.0 95.5Q199 71 223.5 57.0Q248 43 277 43ZM209 149Q209 120 229.0 101.0Q249 82 277.0 81.0Q305 80 325.5 101.0Q346 122 345.5 149.5Q345 177 326.0 197.5Q307 218 278.0 218.0Q249 218 229.0 197.5Q209 177 209 149Z" />
      </g>
    </svg>