<svg xmlns="http://www.w3.org/2000/svg" viewBox="0 -21 491 448">
      <g transform="scale(1 -1) translate(0 -406)">
        <path d="M448 320H380L341 363H213V320H322L363 277H448V21H107V213H64V21Q64 4 76.5 -8.5Q89 -21 107 -21H448Q466 -21 478.5 -8.5Q491 4 491 21V277Q491 295 478.5 307.5Q466 320 448 320ZM171 149Q171 115 190 88Q207 63 236.5 51.0Q266 39 296 44Q329 50 353.0 74.0Q377 98 383 131Q388 161 376.0 190.0Q364 219 339 237Q312 256 277 256Q248 256 223.5 241.5Q199 227 185.0 202.5Q171 178 171 149ZM277 213Q304 213 322.5 194.5Q341 176 341.0 149.5Q341 123 322.5 104.5Q304 86 277.5 86.0Q251 86 232.5 104.5Q214 123 214.0 149.5Q214 176 232.5 194.5Q251 213 277 213ZM107 320H171V363H107V427H64V363H0V320H64V256H107Z" />
      </g>
    </svg>