<svg xmlns="http://www.w3.org/2000/svg" viewBox="43 43 426 298">
      <g transform="scale(1 -1) translate(0 -384)">
        <path d="M427 341H320Q302 341 289.5 328.5Q277 316 277 299V192Q277 174 289.5 161.5Q302 149 320 149H427Q444 149 456.5 161.5Q469 174 469 192V299Q469 316 456.5 328.5Q444 341 427 341ZM373 181Q347 181 328.0 200.0Q309 219 309.0 245.5Q309 272 328.0 290.5Q347 309 373.5 309.0Q400 309 418.5 290.5Q437 272 437.0 245.5Q437 219 418.5 200.0Q400 181 373 181ZM373 213Q360 213 350.5 222.5Q341 232 341.0 245.5Q341 259 350.5 268.0Q360 277 373.5 277.0Q387 277 396.0 268.0Q405 259 405.0 245.5Q405 232 396.0 222.5Q387 213 373 213ZM256 128V341H85Q68 341 55.5 328.5Q43 316 43 299V85Q43 68 55.5 55.5Q68 43 85 43H427Q444 43 456.5 55.5Q469 68 469 85V128ZM213 192H85V299H213Z" />
      </g>
    </svg>