<svg xmlns="http://www.w3.org/2000/svg" viewBox="107 -64 298 512">
      <g transform="scale(1 -1) translate(0 -384)">
        <path d="M256 320Q238 320 225.5 332.5Q213 345 213.0 362.5Q213 380 225.5 392.5Q238 405 255.5 405.0Q273 405 286.0 392.5Q299 380 299.0 362.5Q299 345 286.5 332.5Q274 320 256 320ZM363 448H149Q132 448 119.5 435.5Q107 423 107 405V107Q107 89 119.5 76.5Q132 64 149 64H363Q380 64 392.5 76.5Q405 89 405 107V405Q405 423 392.5 435.5Q380 448 363 448ZM299 21V-21H405V21ZM213 21H107V-21H213V-64L277 0L213 64Z" />
      </g>
    </svg>