<svg xmlns="http://www.w3.org/2000/svg" viewBox="85 -64 342 512">
      <g transform="scale(1 -1) translate(0 -384)">
        <path d="M128 448H384Q402 448 414.5 435.5Q427 423 427 405V-21Q427 -39 414.5 -51.5Q402 -64 384 -64H128Q110 -64 97.5 -51.5Q85 -39 85 -21V405Q85 423 97.5 435.5Q110 448 128 448ZM256 405Q238 405 225.5 392.5Q213 380 213.0 362.5Q213 345 225.5 332.5Q238 320 256.0 320.0Q274 320 286.5 332.5Q299 345 299.0 362.5Q299 380 286.5 392.5Q274 405 256 405ZM277 64H192V21H277V-21L341 43L277 107Z" />
      </g>
    </svg>