<svg xmlns="http://www.w3.org/2000/svg" viewBox="43 0 426 384">
      <g transform="scale(1 -1) translate(0 -384)">
        <path d="M85 341H149L192 384H320L363 341H427Q444 341 456.5 328.5Q469 316 469 299V43Q469 25 456.5 12.5Q444 0 427 0H85Q68 0 55.5 12.5Q43 25 43 43V299Q43 316 55.5 328.5Q68 341 85 341ZM341 85V107Q341 126 309 139Q283 149 256.0 149.0Q229 149 203 139Q171 126 171 107V85ZM256 256Q238 256 225.5 243.5Q213 231 213.0 213.5Q213 196 225.5 183.5Q238 171 256.0 171.0Q274 171 286.5 183.5Q299 196 299.0 213.5Q299 231 286.5 243.5Q274 256 256 256Z" />
      </g>
    </svg>