<svg xmlns="http://www.w3.org/2000/svg" viewBox="43 -21 426 426">
      <g transform="scale(1 -1) translate(0 -384)">
        <path d="M192 192Q192 217 211.5 236.5Q231 256 256.0 256.0Q281 256 300.5 236.5Q320 217 320.0 192.0Q320 167 300.5 147.5Q281 128 256.0 128.0Q231 128 211.5 147.5Q192 167 192 192ZM118 268 156 230 118 192 156 154 118 116 43 192ZM180 54 218 92 256 54 294 92 332 54 256 -21ZM394 116 356 154 394 192 356 230 394 268 469 192ZM332 330 294 292 256 330 218 292 180 330 256 405Z" />
      </g>
    </svg>