<svg xmlns="http://www.w3.org/2000/svg" viewBox="43 -43 448 448">
      <g transform="scale(1 -1) translate(0 -362)">
        <path d="M491 58V-17Q491 -27 482.5 -35.0Q474 -43 463 -43H346Q336 -43 328.0 -34.5Q320 -26 320 -15V60Q320 69 328.0 77.0Q336 85 346 85V117Q346 139 364.0 155.0Q382 171 405.0 171.0Q428 171 446.5 155.0Q465 139 465 117V85Q475 85 483.0 77.0Q491 69 491 58ZM437 117Q437 130 428.0 137.5Q419 145 405.5 145.0Q392 145 382.5 137.5Q373 130 373 117V85H437ZM427 363Q444 363 456.5 350.5Q469 338 469 320V192Q450 206 427 211V320H340L301 363H211L172 320H85V64H277V21H85Q68 21 55.5 33.5Q43 46 43 64V320Q43 338 55.5 350.5Q68 363 85 363H153L192 405H320L359 363ZM256 299Q297 299 327.0 271.5Q357 244 362 204Q335 192 317.5 167.0Q300 142 299 112Q288 102 282 89Q270 85 256 85Q227 85 202.5 99.5Q178 114 163.5 138.5Q149 163 149.0 192.0Q149 221 163.5 245.5Q178 270 202.5 284.5Q227 299 256 299ZM256 128Q282 128 301.0 147.0Q320 166 320.0 192.0Q320 218 301.0 237.0Q282 256 256.0 256.0Q230 256 211.0 237.0Q192 218 192.0 192.0Q192 166 211.0 147.0Q230 128 256 128Z" />
      </g>
    </svg>