<svg xmlns="http://www.w3.org/2000/svg" viewBox="43 0 426 384">
      <g transform="scale(1 -1) translate(0 -384)">
        <path d="M256 235 236 191 192 171 236 151 256 107 276 151 320 171 276 191ZM427 341H359L320 384H192L153 341H85Q68 341 55.5 328.5Q43 316 43 299V43Q43 25 55.5 12.5Q68 0 85 0H427Q444 0 456.5 12.5Q469 25 469 43V299Q469 316 456.5 328.5Q444 341 427 341ZM427 43H85V299H172L211 341H301L340 299H427ZM256 277Q235 277 215.5 269.0Q196 261 181.0 246.0Q166 231 157.5 211.5Q149 192 149.0 170.5Q149 149 157.5 129.5Q166 110 181.0 95.0Q196 80 215.5 72.0Q235 64 256 64Q285 64 309.5 78.5Q334 93 348.5 117.5Q363 142 363.0 171.0Q363 200 348.5 224.5Q334 249 309.5 263.0Q285 277 256 277ZM256 107Q229 107 210.5 125.5Q192 144 192.0 170.5Q192 197 210.5 216.0Q229 235 256.0 235.0Q283 235 301.5 216.0Q320 197 320.0 170.5Q320 144 301.5 125.5Q283 107 256 107Z" />
      </g>
    </svg>