<svg xmlns="http://www.w3.org/2000/svg" viewBox="85 -64 342 512">
      <g transform="scale(1 -1) translate(0 -384)">
        <path d="M128 448H384Q402 448 414.5 435.5Q427 423 427 405V-21Q427 -39 414.5 -51.5Q402 -64 384 -64H128Q110 -64 97.5 -51.5Q85 -39 85 -21V405Q85 423 97.5 435.5Q110 448 128 448ZM256 320Q283 320 301.5 301.5Q320 283 320.0 256.0Q320 229 301.5 210.5Q283 192 256.0 192.0Q229 192 210.5 210.5Q192 229 192.0 256.0Q192 283 210.5 301.5Q229 320 256 320ZM235 427V384H277V427ZM128 363V96Q128 110 145.0 122.5Q162 135 191.5 142.0Q221 149 256.0 149.0Q291 149 320.5 142.0Q350 135 367.0 122.5Q384 110 384 96V363ZM277 64H192V21H277V-21L341 43L277 107Z" />
      </g>
    </svg>