<svg xmlns="http://www.w3.org/2000/svg" viewBox="43 -21 426 448">
      <g transform="scale(1 -1) translate(0 -406)">
        <path d="M105 313Q99 319 99.0 328.0Q99 337 105.5 343.0Q112 349 120.5 349.0Q129 349 135 343L286 222Q299 210 299.0 192.0Q299 174 286.5 161.5Q274 149 256.0 149.0Q238 149 226 162ZM256 21Q302 21 341.5 44.0Q381 67 404.0 106.5Q427 146 427 192Q427 227 413.5 258.0Q400 289 377 313L407 343Q436 313 452.5 274.0Q469 235 469.0 192.5Q469 150 453.0 110.5Q437 71 407.0 41.0Q377 11 337.5 -5.0Q298 -21 256.0 -21.0Q214 -21 174.5 -5.0Q135 11 105.0 41.0Q75 71 59.0 110.5Q43 150 43 192H85Q85 146 108.0 106.5Q131 67 170.5 44.0Q210 21 256 21ZM256 427Q274 427 286.5 414.5Q299 402 299.0 384.0Q299 366 286.5 353.5Q274 341 256.0 341.0Q238 341 225.5 353.5Q213 366 213.0 384.0Q213 402 225.5 414.5Q238 427 256 427Z" />
      </g>
    </svg>