<svg xmlns="http://www.w3.org/2000/svg" viewBox="43 21 426 384">
      <g transform="scale(1 -1) translate(0 -426)">
        <path d="M85 363H149L192 405H320L363 363H427Q444 363 456.5 350.5Q469 338 469 320V64Q469 46 456.5 33.5Q444 21 427 21H85Q68 21 55.5 33.5Q43 46 43 64V320Q43 338 55.5 350.5Q68 363 85 363ZM256 299Q227 299 202.5 284.5Q178 270 163.5 245.5Q149 221 149.0 192.0Q149 163 163.5 138.5Q178 114 202.5 99.5Q227 85 256.0 85.0Q285 85 309.5 99.5Q334 114 348.5 138.5Q363 163 363.0 192.0Q363 221 348.5 245.5Q334 270 309.5 284.5Q285 299 256 299ZM256 256Q283 256 301.5 237.5Q320 219 320.0 192.0Q320 165 301.5 146.5Q283 128 256.0 128.0Q229 128 210.5 146.5Q192 165 192.0 192.0Q192 219 210.5 237.5Q229 256 256 256Z" />
      </g>
    </svg>