<svg xmlns="http://www.w3.org/2000/svg" viewBox="43 0 426 384">
      <g transform="scale(1 -1) translate(0 -384)">
        <path d="M427 341H359L320 384H192L153 341H85Q68 341 55.5 328.5Q43 316 43 299V43Q43 25 55.5 12.5Q68 0 85 0H427Q444 0 456.5 12.5Q469 25 469 43V299Q469 316 456.5 328.5Q444 341 427 341ZM427 43H85V299H172L211 341H301L341 299H427ZM107 192H151Q157 220 176.0 241.5Q195 263 222.0 272.0Q249 281 277 275Q299 271 320 256L289 225Q274 235 256 235Q236 235 219.5 223.0Q203 211 196 192H235L171 128ZM361 149Q355 121 336.0 100.0Q317 79 290.0 69.5Q263 60 235 66Q212 71 192 85L223 116Q238 107 256 107Q276 107 293.0 118.5Q310 130 316 149H277L341 213L405 149Z" />
      </g>
    </svg>