<svg xmlns="http://www.w3.org/2000/svg" viewBox="45 -21 422 426">
      <g transform="scale(1 -1) translate(0 -384)">
        <path d="M339 53 467 19 459 -21 258 32 58 -21 47 19 175 53 45 87 55 128 256 75 457 128 467 87ZM343 279Q338 286 331 292Q326 296 317 303Q305 312 300 317Q283 334 279.5 359.0Q276 384 287 405Q268 400 249 385Q219 361 209.0 322.5Q199 284 213 248L214 243Q214 238 209.0 235.5Q204 233 199 237Q198 238 197 240Q184 256 182.0 277.5Q180 299 189 319Q170 303 160.0 278.5Q150 254 152 228Q152 216 156 206Q159 191 167 179Q179 159 199.0 145.5Q219 132 241 129Q267 126 290 131Q316 138 333 154Q354 173 360.5 201.0Q367 229 356 256L354 260Q350 270 342 279ZM295 182Q288 175 278 173Q267 168 255.0 172.5Q243 177 235 185Q247 188 255.5 197.0Q264 206 267 217Q268 226 264 241L262 251Q259 269 265 283Q270 272 274.0 266.5Q278 261 287.5 253.0Q297 245 301 240Q307 233 308 224L309 217Q309 207 305.5 197.5Q302 188 295 182Z" />
      </g>
    </svg>