<svg xmlns="http://www.w3.org/2000/svg" viewBox="43 -21 426 426">
      <g transform="scale(1 -1) translate(0 -384)">
        <path d="M256 405Q314 405 363.0 376.5Q412 348 440.5 299.0Q469 250 469.0 192.0Q469 134 440.5 85.0Q412 36 363.0 7.5Q314 -21 256.0 -21.0Q198 -21 149.0 7.5Q100 36 71.5 85.0Q43 134 43.0 192.0Q43 250 71.5 299.0Q100 348 149.0 376.5Q198 405 256 405ZM256 363Q194 363 151 326L390 87Q427 138 427 192Q427 238 404.0 277.5Q381 317 341.5 340.0Q302 363 256 363ZM361 58 122 297Q85 254 85 192Q85 146 108.0 106.5Q131 67 170.5 44.0Q210 21 256 21Q318 21 361 58Z" />
      </g>
    </svg>