<svg xmlns="http://www.w3.org/2000/svg" viewBox="75 -21 362 426">
      <g transform="scale(1 -1) translate(0 -384)">
        <path d="M437 213Q437 205 431.0 198.5Q425 192 416 192H405V149Q405 132 392.5 119.5Q380 107 363 107H277V21H299Q316 21 328.5 8.5Q341 -4 341 -21H171Q171 -4 183.5 8.5Q196 21 213 21H235V107H149Q132 107 119.5 119.5Q107 132 107 149V192H96Q87 192 81.0 198.5Q75 205 75.0 213.5Q75 222 81.0 228.5Q87 235 96 235H107V363L149 341V235H160Q169 235 175.0 228.5Q181 222 181.0 213.5Q181 205 175.0 198.5Q169 192 160 192H149V149H235V192H224Q215 192 209.0 198.5Q203 205 203.0 213.5Q203 222 209.0 228.5Q215 235 224 235H235V405L277 384V235H288Q297 235 303.0 228.5Q309 222 309.0 213.5Q309 205 303.0 198.5Q297 192 288 192H277V149H363V192H352Q343 192 337.0 198.5Q331 205 331.0 213.5Q331 222 337.0 228.5Q343 235 352 235H363V363L405 341V235H416Q425 235 431.0 228.5Q437 222 437 213Z" />
      </g>
    </svg>