<svg xmlns="http://www.w3.org/2000/svg" viewBox="23 -36 448 448">
      <g transform="scale(1 -1) translate(0 -376)">
        <path d="M444 -36 307 100Q277 83 241.0 87.5Q205 92 179.5 117.5Q154 143 149.0 179.0Q144 215 162 245L23 384L51 412L471 -9ZM331 267Q309 289 280.0 295.5Q251 302 222 292L356 158Q366 187 359.5 216.5Q353 246 331 267ZM378 252Q397 246 418 251Q443 257 461 275Q436 300 399 307Q413 328 416 350L403 347Q387 342 373 333Q372 349 363.5 365.5Q355 382 341 395Q323 377 318 352Q313 331 318 311Q339 307 355.0 290.5Q371 274 378 252ZM134 132Q115 138 94 133Q69 127 51 109Q76 84 113 77Q99 56 96 34L109 37Q125 42 139 51Q140 35 148.5 18.5Q157 2 171 -11Q189 7 194 32Q199 53 194 73Q173 77 157.0 93.5Q141 110 134 132Z" />
      </g>
    </svg>