<svg xmlns="http://www.w3.org/2000/svg" viewBox="75 -21 362 426">
      <g transform="scale(1 -1) translate(0 -384)">
        <path d="M384 299Q397 299 406.5 308.0Q416 317 416.0 331.5Q416 346 407 364Q396 384 384.0 384.0Q372 384 361 364Q352 346 352.0 331.5Q352 317 361.5 308.0Q371 299 384 299ZM384 336Q388 336 391.5 333.0Q395 330 395.0 325.5Q395 321 391.5 318.0Q388 315 384.0 315.0Q380 315 376.5 318.0Q373 321 373.0 325.5Q373 330 376.5 333.0Q380 336 384 336ZM256 320Q269 320 278.5 329.5Q288 339 288.0 353.0Q288 367 279 385Q268 405 256.0 405.0Q244 405 233 385Q224 367 224.0 353.0Q224 339 233.5 329.5Q243 320 256 320ZM256 357Q260 357 263.5 354.0Q267 351 267.0 346.5Q267 342 263.5 339.0Q260 336 256.0 336.0Q252 336 248.5 339.0Q245 342 245.0 346.5Q245 351 248.5 354.0Q252 357 256 357ZM128 299Q141 299 150.5 308.0Q160 317 160.0 331.5Q160 346 151 364Q140 384 128.0 384.0Q116 384 105 364Q96 346 96.0 331.5Q96 317 105.5 308.0Q115 299 128 299ZM128 336Q132 336 135.5 333.0Q139 330 139.0 325.5Q139 321 135.5 318.0Q132 315 128.0 315.0Q124 315 120.5 318.0Q117 321 117.0 325.5Q117 330 120.5 333.0Q124 336 128 336ZM437 213Q437 205 431.0 198.5Q425 192 416 192H405V149Q405 132 392.5 119.5Q380 107 363 107H277V21H299Q316 21 328.5 8.5Q341 -4 341 -21H171Q171 -4 183.5 8.5Q196 21 213 21H235V107H149Q132 107 119.5 119.5Q107 132 107 149V192H96Q87 192 81.0 198.5Q75 205 75.0 213.5Q75 222 81.0 228.5Q87 235 96 235V256Q96 265 102.5 271.0Q109 277 117 277H139Q147 277 153.5 271.0Q160 265 160 256V235Q169 235 175.0 228.5Q181 222 181.0 213.5Q181 205 175.0 198.5Q169 192 160 192H149V149H235V192H224Q215 192 209.0 198.5Q203 205 203.0 213.5Q203 222 209.0 228.5Q215 235 224 235V277Q224 286 230.5 292.5Q237 299 245 299H267Q275 299 281.5 292.5Q288 286 288 277V235Q297 235 303.0 228.5Q309 222 309.0 213.5Q309 205 303.0 198.5Q297 192 288 192H277V149H363V192H352Q343 192 337.0 198.5Q331 205 331.0 213.5Q331 222 337.0 228.5Q343 235 352 235V256Q352 265 358.5 271.0Q365 277 373 277H395Q403 277 409.5 271.0Q416 265 416 256V235Q425 235 431.0 228.5Q437 222 437 213Z" />
      </g>
    </svg>