<svg xmlns="http://www.w3.org/2000/svg" viewBox="52 -12 408 408">
      <g transform="scale(1 -1) translate(0 -384)">
        <path d="M211 237Q229 256 256.0 256.0Q283 256 301.5 237.5Q320 219 320.0 192.0Q320 165 301.5 146.5Q283 128 256.0 128.0Q229 128 210.5 146.5Q192 165 192.0 192.0Q192 219 211 237ZM180 268Q160 247 153.0 219.5Q146 192 153.0 164.5Q160 137 180.5 116.5Q201 96 228.5 89.0Q256 82 283.5 89.0Q311 96 331.5 116.5Q352 137 359.0 164.5Q366 192 359.0 219.5Q352 247 331.5 267.5Q311 288 283.5 295.0Q256 302 228.5 295.0Q201 288 180 268ZM415 351Q409 349 402 348Q386 343 372 333Q367 370 340 396Q321 378 316 354Q311 333 316 313Q339 307 355.0 291.0Q371 275 377 252Q397 247 418 252Q442 257 460 276Q434 302 399 308Q413 329 415 351ZM97 33Q103 35 110 36Q126 41 140 50Q145 14 172 -12Q191 6 196 30Q201 51 196 71Q173 77 157.0 93.0Q141 109 135 132Q115 137 94 132Q70 127 52 108Q78 82 113 76Q99 55 97 33Z" />
      </g>
    </svg>