<svg xmlns="http://www.w3.org/2000/svg" viewBox="128 -21 256 426">
      <g transform="scale(1 -1) translate(0 -384)">
        <path d="M213 235Q213 217 200.5 204.5Q188 192 170.5 192.0Q153 192 140.5 204.5Q128 217 128 235V277Q128 296 134 316L213 236ZM256 405Q280 405 301 397L255 320Q242 320 231.5 312.5Q221 305 217 293L154 355Q172 379 199.0 392.0Q226 405 256 405ZM379 313 299 233V277Q299 289 293 299L338 376Q368 351 379 313ZM384 169 299 83V173L384 258ZM384 21Q384 4 371.5 -8.5Q359 -21 341.5 -21.0Q324 -21 311.5 -8.5Q299 4 299 21V23L384 109Z" />
      </g>
    </svg>