<svg xmlns="http://www.w3.org/2000/svg" viewBox="85 -21 342 426">
      <g transform="scale(1 -1) translate(0 -384)">
        <path d="M267 405Q250 405 234 386Q221 368 212.0 342.5Q203 317 203 299Q203 272 221.5 253.5Q240 235 266.5 235.0Q293 235 312.0 253.5Q331 272 331 299Q331 317 322.0 342.5Q313 368 299 386Q283 405 267 405ZM267 309Q276 309 282.0 303.0Q288 297 288.0 288.0Q288 279 282.0 273.0Q276 267 267.0 267.0Q258 267 251.5 273.0Q245 279 245.0 288.0Q245 297 251.5 303.0Q258 309 267 309ZM213 213Q204 213 198.0 207.0Q192 201 192 192V21H149Q140 21 134.0 27.5Q128 34 128 43V64Q128 73 122.0 79.0Q116 85 107.0 85.0Q98 85 91.5 79.0Q85 73 85 64V43Q85 16 104.0 -2.5Q123 -21 149 -21H405Q414 -21 420.5 -15.0Q427 -9 427.0 0.0Q427 9 420.5 15.0Q414 21 405 21H341V192Q341 201 335.0 207.0Q329 213 320 213Z" />
      </g>
    </svg>