<svg xmlns="http://www.w3.org/2000/svg" viewBox="24 -37 448 448">
      <g transform="scale(1 -1) translate(0 -374)">
        <path d="M355 162 309 207Q341 238 385 260Q407 271 423 275Q396 204 355 162ZM256 405Q253 398 249 390Q241 371 235 351Q226 322 222 294L293 224Q301 305 256 405ZM445 -37 472 -10 51 411 24 384 184 224Q164 241 139 254Q122 263 104 270L89 275Q129 171 198 129Q171 132 142 127Q121 122 101 114L85 107Q157 75 212 86Q193 71 180 47Q174 35 171 25Q224 45 245 78V-21H267V78Q288 45 341 25L337 36Q331 48 324 60Q313 75 300 86H304Q317 84 324 83Z" />
      </g>
    </svg>