<svg xmlns="http://www.w3.org/2000/svg" viewBox="85 -21 342 426">
      <g transform="scale(1 -1) translate(0 -384)">
        <path d="M245 -21V78Q224 45 171 25L175 36Q181 48 188 60Q199 75 212 86Q157 75 85 107L101 114Q121 122 142 127Q171 132 198 129Q129 171 89 275L105 270Q124 262 143 252Q169 237 190 219Q216 196 233 168Q213 214 220 276Q224 320 240 367Q249 391 256 405Q291 327 294 259Q296 209 280 169Q310 219 369 252Q399 268 423 275Q383 171 314 129Q341 132 370 127Q391 122 411 114L427 107Q355 75 300 86Q319 71 332 47Q338 35 341 25Q288 45 267 78V-21Z" />
      </g>
    </svg>