<svg xmlns="http://www.w3.org/2000/svg" viewBox="64 0 405 341">
      <g transform="scale(1 -1) translate(0 -341)">
        <path d="M256 64Q256 99 273.0 128.5Q290 158 319.5 175.0Q349 192 383.5 192.0Q418 192 448 175V192L404 320Q400 329 392.0 335.0Q384 341 373 341H139Q128 341 120.0 335.0Q112 329 108 320L64 192V21Q64 13 70.5 6.5Q77 0 85 0H107Q115 0 121.5 6.5Q128 13 128 21V43H258Q256 55 256 64ZM139 309H373L405 213H107ZM139 107Q125 107 116.0 116.0Q107 125 107.0 138.5Q107 152 116.0 161.5Q125 171 138.5 171.0Q152 171 161.5 161.5Q171 152 171.0 138.5Q171 125 161.5 116.0Q152 107 139 107ZM384 128V85H469V43H384V0L320 64Z" />
      </g>
    </svg>