<svg xmlns="http://www.w3.org/2000/svg" viewBox="64 -21 384 384">
      <g transform="scale(1 -1) translate(0 -342)">
        <path d="M405 128H363V171H405ZM427 21V-21H341V21H363V64H341V107H405V21ZM404 341Q400 351 392.0 357.0Q384 363 373 363H139Q128 363 120.0 357.0Q112 351 108 341L64 213V43Q64 34 70.0 27.5Q76 21 85 21H107Q116 21 122.0 27.5Q128 34 128 43V64H235Q235 105 255.0 139.0Q275 173 309.0 193.0Q343 213 384 213Q418 213 448 199V213ZM139 128Q125 128 116.0 137.5Q107 147 107.0 160.0Q107 173 116.0 182.5Q125 192 138.5 192.0Q152 192 161.5 182.5Q171 173 171.0 160.0Q171 147 161.5 137.5Q152 128 139 128ZM107 235 139 331H373L405 235Z" />
      </g>
    </svg>