<svg xmlns="http://www.w3.org/2000/svg" viewBox="43 38 426 308">
      <g transform="scale(1 -1) translate(0 -384)">
        <path d="M277 346Q247 346 229 298Q213 254 213.0 192.0Q213 130 229 86Q247 38 277 38Q322 38 365 57Q411 76 439 110Q469 146 469.0 192.0Q469 238 439 274Q411 308 365 327Q322 346 277 346ZM279 81Q271 89 265 116Q256 149 256.0 192.0Q256 235 265 268Q271 295 279 303Q312 302 345 289Q381 275 402 252Q427 225 427.0 192.0Q427 159 402 132Q381 109 345 95Q312 82 279 81ZM43 341H203L199 335Q191 321 190 311Q189 309 188.0 305.0Q187 301 186 299H43ZM171 213H43V256H175Q174 249 173.0 235.0Q172 221 171 213ZM186 85Q191 63 205 43H45V85ZM175 128H43V171H171Q172 163 173.0 149.0Q174 135 175 128Z" />
      </g>
    </svg>