<svg xmlns="http://www.w3.org/2000/svg" viewBox="0 0 512 384">
      <g transform="scale(1 -1) translate(0 -384)">
        <path d="M256 341Q296 341 330.5 321.0Q365 301 385.0 266.5Q405 232 405.0 192.0Q405 152 385.0 117.5Q365 83 330.5 63.0Q296 43 256.0 43.0Q216 43 181.5 63.0Q147 83 127.0 117.5Q107 152 107.0 192.0Q107 232 127.0 266.5Q147 301 181.5 321.0Q216 341 256 341ZM256 384Q204 384 160.0 358.0Q116 332 90.0 288.0Q64 244 64.0 192.0Q64 140 90.0 96.0Q116 52 160.0 26.0Q204 0 256.0 0.0Q308 0 352.0 26.0Q396 52 422.0 96.0Q448 140 448.0 192.0Q448 244 422.0 288.0Q396 332 352.0 358.0Q308 384 256 384ZM98 350 75 373Q38 336 18 287L49 277Q66 319 98 350ZM36 147Q32 169 32.0 192.0Q32 215 36 237L6 246Q0 219 0.0 192.0Q0 165 6 138ZM494 287Q474 336 437 373L414 350Q446 319 463 277ZM18 97Q37 49 75 11L98 34Q66 65 49 107ZM414 34 437 11Q475 49 494 97L463 107Q446 65 414 34ZM476 237Q480 215 480.0 192.0Q480 169 476 147L506 138Q512 166 512.0 192.0Q512 218 506 246Z" />
      </g>
    </svg>