<svg xmlns="http://www.w3.org/2000/svg" viewBox="64 -43 427 384">
      <g transform="scale(1 -1) translate(0 -298)">
        <path d="M220 43H128V21Q128 13 122.0 6.5Q116 0 107 0H85Q77 0 70.5 6.5Q64 13 64 21V192L109 320Q112 330 120.0 335.5Q128 341 139 341H373Q383 341 391.5 335.0Q400 329 403 320L446 198Q422 224 388 236L365 299H145L124 235H297Q260 222 236 192H107V85H207Q209 64 220 43ZM128 139Q128 126 137.5 116.5Q147 107 160.0 107.0Q173 107 182.5 116.5Q192 126 192.0 138.5Q192 151 182.5 161.0Q173 171 160.0 171.0Q147 171 137.5 161.0Q128 151 128 139ZM344 200Q304 200 276.0 172.0Q248 144 248.0 104.0Q248 64 276.0 36.0Q304 8 344 8Q371 8 395 23L461 -43L491 -13L425 53Q440 76 440 104Q440 144 412.0 172.0Q384 200 344 200ZM344 158Q366 158 381.5 142.0Q397 126 397.0 104.0Q397 82 381.5 66.5Q366 51 343.5 51.0Q321 51 305.5 66.5Q290 82 290.0 104.5Q290 127 306.0 142.5Q322 158 344 158Z" />
      </g>
    </svg>