<svg xmlns="http://www.w3.org/2000/svg" viewBox="43 -21 426 426">
      <g transform="scale(1 -1) translate(0 -384)">
        <path d="M235 171H277V128H235ZM235 341H277V213H235ZM363 346Q392 324 409.5 288.0Q427 252 427 213Q427 166 402.5 126.0Q378 86 338 64H174Q134 86 109.5 126.0Q85 166 85 213Q85 252 102.0 288.0Q119 324 149 346V405H107V366Q76 336 59.5 296.5Q43 257 43.0 213.0Q43 169 59.5 130.0Q76 91 107 61V-21H149V21H192V-21H235V21H277V-21H320V21H363V-21H405V61Q436 91 452.5 130.0Q469 169 469.0 213.0Q469 257 452.5 296.5Q436 336 405 366V405H363Z" />
      </g>
    </svg>