<svg xmlns="http://www.w3.org/2000/svg" viewBox="24 -37 448 447">
      <g transform="scale(1 -1) translate(0 -373)">
        <path d="M437 25 137 325 51 410 24 384 97 310 64 213V43Q64 34 70.0 27.5Q76 21 85 21H107Q116 21 122.0 27.5Q128 34 128 43V64H344L445 -37L472 -10ZM139 128Q125 128 116.0 137.5Q107 147 107.0 160.0Q107 173 116.0 182.5Q125 192 138.5 192.0Q152 192 161.5 182.5Q171 173 171.0 160.0Q171 147 161.5 137.5Q152 128 139 128ZM107 235 123 284 173 235ZM373 331 405 235H282L344 172Q350 184 362.5 188.5Q375 193 387.0 187.5Q399 182 403.0 169.5Q407 157 401.5 145.5Q396 134 387 130L448 68V213L404 341Q400 351 392.0 357.0Q384 363 373 363H154L186 331Z" />
      </g>
    </svg>