<svg xmlns="http://www.w3.org/2000/svg" viewBox="64 -64 384 512">
      <g transform="scale(1 -1) translate(0 -384)">
        <path d="M235 448V384H277V448ZM168 417 138 387 183 341 213 372ZM344 417 299 372 329 341 374 387ZM256 341Q238 341 225.5 328.5Q213 316 213 299V277H139Q128 277 120.0 271.0Q112 265 108 256L64 128V-43Q64 -52 70.0 -58.0Q76 -64 85 -64H107Q116 -64 122.0 -58.0Q128 -52 128 -43V-21H384V-43Q384 -52 390.0 -58.0Q396 -64 405 -64H427Q436 -64 442.0 -58.0Q448 -52 448 -43V128L404 256Q400 265 392.0 271.0Q384 277 373 277H299V299Q299 316 286.5 328.5Q274 341 256 341ZM139 245H373L405 149H107ZM139 107Q152 107 161.5 97.5Q171 88 171.0 74.5Q171 61 161.5 52.0Q152 43 138.5 43.0Q125 43 116.0 52.0Q107 61 107.0 74.5Q107 88 116.0 97.5Q125 107 139 107ZM373 107Q387 107 396.0 97.5Q405 88 405.0 74.5Q405 61 396.0 52.0Q387 43 373.5 43.0Q360 43 350.5 52.0Q341 61 341.0 74.5Q341 88 350.5 97.5Q360 107 373 107Z" />
      </g>
    </svg>