<svg xmlns="http://www.w3.org/2000/svg" viewBox="43 -43 426 470">
      <g transform="scale(1 -1) translate(0 -384)">
        <path d="M203 213H224Q229 213 232.0 216.0Q235 219 235 224V256H405V224Q405 219 408.0 216.0Q411 213 416 213H437Q442 213 445.0 216.0Q448 219 448 224V320L418 412Q417 418 411.0 422.5Q405 427 399 427H243Q237 427 231.5 422.5Q226 418 224 412L192 320V224Q192 219 195.0 216.0Q198 213 203 213ZM241 405H397L416 341H222ZM256 -43H213Q213 -32 192 -20Q179 -13 147 0L138 3Q92 21 74 33Q43 55 43.0 85.5Q43 116 70 135Q86 145 126 158L132 160Q162 167 176 174Q192 182 192 192H235Q235 161 208 143Q192 132 151 119L145 117Q115 110 102 104Q85 96 85.0 85.5Q85 75 107 63Q120 56 152 43L161 39Q207 22 225 9Q256 -12 256 -43ZM469 -43H427Q427 -32 405 -20Q392 -13 360 0L351 3Q305 21 287 33Q256 55 256.0 85.5Q256 116 283 135Q299 145 340 158L355 163Q382 171 391 176Q405 183 405 192H448Q448 161 421 143Q405 132 364 119L358 117Q329 110 316 104Q299 96 299.0 85.5Q299 75 320 63Q333 56 365 43L374 39Q420 22 438 9Q469 -12 469 -43Z" />
      </g>
    </svg>