<svg xmlns="http://www.w3.org/2000/svg" viewBox="0 0 512 384">
      <g transform="scale(1 -1) translate(0 -384)">
        <path d="M256 384Q204 384 159.5 358.5Q115 333 89.5 288.5Q64 244 64.0 192.0Q64 140 89.5 95.5Q115 51 159.5 25.5Q204 0 256.0 0.0Q308 0 352.5 25.5Q397 51 422.5 95.5Q448 140 448.0 192.0Q448 244 422.5 288.5Q397 333 352.5 358.5Q308 384 256 384ZM256 43Q215 43 181.0 63.0Q147 83 127.0 117.0Q107 151 107.0 192.0Q107 233 127.0 267.0Q147 301 181.0 321.0Q215 341 256.0 341.0Q297 341 331.0 321.0Q365 301 385.0 267.0Q405 233 405.0 192.0Q405 151 385.0 117.0Q365 83 331.0 63.0Q297 43 256 43ZM437 11Q473 46 492.5 93.0Q512 140 512.0 192.0Q512 244 492.5 291.0Q473 338 437 373L414 350Q445 319 462.5 278.0Q480 237 480.0 192.0Q480 147 462.5 106.0Q445 65 414 34ZM98 34Q67 65 49.5 106.0Q32 147 32.0 192.0Q32 237 49.5 278.0Q67 319 98 350L75 373Q39 338 19.5 291.0Q0 244 0.0 192.0Q0 140 19.5 93.0Q39 46 75 11ZM203 299V85H245V171H288Q306 171 318.5 183.5Q331 196 331 213V256Q331 274 318.5 286.5Q306 299 288 299ZM245 256H288V213H245Z" />
      </g>
    </svg>