<svg xmlns="http://www.w3.org/2000/svg" viewBox="0 0 512 384">
      <g transform="scale(1 -1) translate(0 -384)">
        <path d="M32 192Q32 147 49.5 106.0Q67 65 98 34L75 11Q39 46 19.5 93.0Q0 140 0.0 192.0Q0 244 19.5 291.0Q39 338 75 373L98 350Q67 319 49.5 278.0Q32 237 32 192ZM448 192Q448 140 422.0 96.0Q396 52 352.0 26.0Q308 0 256.0 0.0Q204 0 160.0 26.0Q116 52 90.0 96.0Q64 140 64.0 192.0Q64 244 90.0 288.0Q116 332 160.0 358.0Q204 384 256.0 384.0Q308 384 352.0 358.0Q396 332 422.0 288.0Q448 244 448 192ZM107 192Q107 180 109 165Q115 171 122.5 171.0Q130 171 133.5 168.5Q137 166 142 159L145 156Q166 128 189.5 128.0Q213 128 235 156L236 157Q243 167 247.0 169.0Q251 171 257.0 171.0Q263 171 266.0 168.5Q269 166 275 158L277 156Q299 128 322.5 128.0Q346 128 367 156L370 159Q375 166 378.5 168.5Q382 171 389.5 171.0Q397 171 403 165Q405 180 405 192Q405 232 385.0 266.5Q365 301 330.5 321.0Q296 341 256.0 341.0Q216 341 181.5 321.0Q147 301 127.0 266.5Q107 232 107 192ZM437 373 414 350Q445 319 462.5 278.0Q480 237 480.0 192.0Q480 147 462.5 106.0Q445 65 414 34L437 11Q473 46 492.5 93.0Q512 140 512.0 192.0Q512 244 492.5 291.0Q473 338 437 373Z" />
      </g>
    </svg>