<svg xmlns="http://www.w3.org/2000/svg" viewBox="64 -43 427 384">
      <g transform="scale(1 -1) translate(0 -298)">
        <path d="M205 104Q205 137 219.0 165.5Q233 194 258 213H107L139 309H373L399 231Q426 219 446 198L404 320Q400 329 392.0 335.0Q384 341 373 341H139Q128 341 120.0 335.0Q112 329 108 320L64 192V21Q64 13 70.5 6.5Q77 0 85 0H107Q115 0 121.5 6.5Q128 13 128 21V43H220Q205 72 205 104ZM139 107Q125 107 116.0 116.0Q107 125 107.0 138.5Q107 152 116.0 161.5Q125 171 138.5 171.0Q152 171 161.5 161.5Q171 152 171.0 138.5Q171 125 161.5 116.0Q152 107 139 107ZM442 6ZM344 200Q384 200 412.0 172.0Q440 144 440 104Q440 76 425 53L491 -13L461 -43L395 23Q371 8 344 8Q304 8 276.0 36.0Q248 64 248.0 104.0Q248 144 276.0 172.0Q304 200 344 200ZM344 158Q322 158 306.0 142.0Q290 126 290.0 104.0Q290 82 306.0 66.5Q322 51 344.0 51.0Q366 51 381.5 66.5Q397 82 397.0 104.5Q397 127 381.5 142.5Q366 158 344 158Z" />
      </g>
    </svg>