<svg xmlns="http://www.w3.org/2000/svg" viewBox="85 -23 320 428">
      <g transform="scale(1 -1) translate(0 -382)">
        <path d="M149 64Q141 88 133 111Q114 168 102 216Q85 282 85.0 320.0Q85 358 96 380Q104 396 117 402Q123 405 128 405H149H155Q161 403 165 399Q171 393 171 384Q171 378 169.0 374.0Q167 370 163 364Q156 355 154 348Q149 337 149 320Q149 307 158 291Q163 281 177 261Q194 234 201 219Q213 194 213.0 171.5Q213 149 203 127Q195 110 181 93Q171 82 159 72ZM256 85Q243 85 205 59Q187 45 171 32Q163 27 171 15L178 5Q187 -6 199 -14Q216 -23 235 -23H363Q380 -23 392.5 -10.5Q405 2 405 19V41Q405 58 392.5 70.5Q380 83 363 83H256Z" />
      </g>
    </svg>