<svg xmlns="http://www.w3.org/2000/svg" viewBox="21 0 448 405">
      <g transform="scale(1 -1) translate(0 -405)">
        <path d="M171 213 203 309H395L427 213ZM395 107Q381 107 372.0 116.0Q363 125 363.0 138.5Q363 152 372.0 161.5Q381 171 394.5 171.0Q408 171 417.5 161.5Q427 152 427.0 138.5Q427 125 417.5 116.0Q408 107 395 107ZM203 107Q189 107 180.0 116.0Q171 125 171.0 138.5Q171 152 180.0 161.5Q189 171 202.5 171.0Q216 171 225.5 161.5Q235 152 235.0 138.5Q235 125 225.5 116.0Q216 107 203 107ZM425 320Q422 330 413.5 335.5Q405 341 395 341H203Q192 341 184.0 335.5Q176 330 172 320L128 192V21Q128 12 134.0 6.0Q140 0 149 0H171Q180 0 186.0 6.0Q192 12 192 21V43H405V21Q405 12 411.5 6.0Q418 0 427 0H448Q457 0 463.0 6.0Q469 12 469 21V192ZM318 384Q315 394 306.5 399.5Q298 405 288 405H96Q86 405 77.5 399.5Q69 394 66 384L21 256V85Q21 76 27.5 70.0Q34 64 43 64H64Q73 64 79.0 70.0Q85 76 85 85V173Q73 177 67.5 189.0Q62 201 66 213Q70 223 78.0 229.0Q86 235 96 235H97L112 277H64L96 373H322Z" />
      </g>
    </svg>