<svg xmlns="http://www.w3.org/2000/svg" viewBox="64 -64 384 501">
      <g transform="scale(1 -1) translate(0 -373)">
        <path d="M256 341Q238 341 225.5 328.5Q213 316 213 299V277H139Q128 277 120.0 271.0Q112 265 108 256L64 128V-43Q64 -51 70.5 -57.5Q77 -64 85 -64H107Q115 -64 121.5 -57.5Q128 -51 128 -43V-21H384V-43Q384 -51 390.5 -57.5Q397 -64 405 -64H427Q435 -64 441.5 -57.5Q448 -51 448 -43V128L404 256Q400 265 392.0 271.0Q384 277 373 277H299V299Q299 316 286.5 328.5Q274 341 256 341ZM139 245H373L405 149H107ZM139 107Q152 107 161.5 97.5Q171 88 171.0 74.5Q171 61 161.5 52.0Q152 43 138.5 43.0Q125 43 116.0 52.0Q107 61 107.0 74.5Q107 88 116.0 97.5Q125 107 139 107ZM373 107Q387 107 396.0 97.5Q405 88 405.0 74.5Q405 61 396.0 52.0Q387 43 373.5 43.0Q360 43 350.5 52.0Q341 61 341.0 74.5Q341 88 350.5 97.5Q360 107 373 107ZM346 375Q326 393 303.0 402.5Q280 412 256.0 412.0Q232 412 209.0 402.5Q186 393 166 375L149 393Q171 415 199.0 426.0Q227 437 256.0 437.0Q285 437 313.0 426.0Q341 415 363 393ZM326 358 309 341Q288 363 256.0 363.0Q224 363 203 341L186 358Q200 373 218.5 380.5Q237 388 256.0 388.0Q275 388 293.5 380.5Q312 373 326 358Z" />
      </g>
    </svg>