<svg xmlns="http://www.w3.org/2000/svg" viewBox="0 0 512 384">
      <g transform="scale(1 -1) translate(0 -384)">
        <path d="M277 192Q277 183 271.0 177.0Q265 171 256.0 171.0Q247 171 241.0 177.0Q235 183 235.0 192.0Q235 201 241.0 207.0Q247 213 256.0 213.0Q265 213 271.0 207.0Q277 201 277 192ZM213 192 149 256V213H64V171H149V128ZM299 192 363 128V171H448V213H363V256ZM437 373 414 350Q445 319 462.5 278.0Q480 237 480.0 192.0Q480 147 462.5 106.0Q445 65 414 34L437 11Q473 46 492.5 93.0Q512 140 512.0 192.0Q512 244 492.5 291.0Q473 338 437 373ZM121 256Q140 294 176.0 317.5Q212 341 256.0 341.0Q300 341 336.0 317.5Q372 294 391 256H437Q417 313 367.5 348.5Q318 384 256.0 384.0Q194 384 144.5 348.5Q95 313 75 256ZM98 350 75 373Q39 338 19.5 291.0Q0 244 0.0 192.0Q0 140 19.5 93.0Q39 46 75 11L98 34Q67 65 49.5 106.0Q32 147 32.0 192.0Q32 237 49.5 278.0Q67 319 98 350ZM391 128Q372 90 336.0 66.5Q300 43 256.0 43.0Q212 43 176.0 66.5Q140 90 121 128H75Q95 71 144.5 35.5Q194 0 256.0 0.0Q318 0 367.5 35.5Q417 71 437 128Z" />
      </g>
    </svg>