<svg xmlns="http://www.w3.org/2000/svg" viewBox="64 -43 426 406">
      <g transform="scale(1 -1) translate(0 -320)">
        <path d="M447 97Q447 98 448 101V107V96ZM235 107Q235 84 244 64H128V43Q128 34 121.5 27.5Q115 21 107 21H85Q77 21 70.5 27.5Q64 34 64 43V213L108 341Q112 351 120.0 357.0Q128 363 139 363H373Q384 363 392.0 357.0Q400 351 404 341L448 213V107Q448 136 433.5 160.5Q419 185 394.5 199.0Q370 213 341.0 213.0Q312 213 287.5 199.0Q263 185 249.0 160.5Q235 136 235 107ZM171 160Q171 173 161.5 182.5Q152 192 138.5 192.0Q125 192 116.0 182.5Q107 173 107.0 160.0Q107 147 116.0 137.5Q125 128 138.5 128.0Q152 128 161.5 137.5Q171 147 171 160ZM405 235 373 331H139L107 235ZM488 -4 400 84Q407 100 403.0 118.5Q399 137 385.5 150.5Q372 164 352.0 167.5Q332 171 314 163L356 121L327 92L285 134Q276 116 279.5 96.5Q283 77 297.0 63.0Q311 49 329.0 45.0Q347 41 364 48L451 -40Q454 -43 458.0 -43.0Q462 -43 465 -40L487 -18Q490 -15 490.5 -10.5Q491 -6 488 -4Z" />
      </g>
    </svg>