<svg xmlns="http://www.w3.org/2000/svg" viewBox="64 -64 384 512">
      <g transform="scale(1 -1) translate(0 -384)">
        <path d="M107 149H405L373 245H139ZM373 43Q387 43 396.0 52.0Q405 61 405.0 74.5Q405 88 396.0 97.5Q387 107 373.5 107.0Q360 107 350.5 97.5Q341 88 341.0 74.5Q341 61 350.5 52.0Q360 43 373 43ZM139 43Q152 43 161.5 52.0Q171 61 171.0 74.5Q171 88 161.5 97.5Q152 107 138.5 107.0Q125 107 116.0 97.5Q107 88 107.0 74.5Q107 61 116.0 52.0Q125 43 139 43ZM404 256 448 128V-43Q448 -52 442.0 -58.0Q436 -64 427 -64H405Q396 -64 390.0 -58.0Q384 -52 384 -43V-21H128V-43Q128 -52 122.0 -58.0Q116 -64 107 -64H85Q76 -64 70.0 -58.0Q64 -52 64 -43V128L108 256Q112 265 120.0 271.0Q128 277 139 277H373Q384 277 392.0 271.0Q400 265 404 256ZM256 448Q290 448 321.0 435.0Q352 422 377 398L346 368Q328 386 304.5 395.5Q281 405 256.0 405.0Q231 405 207.5 395.5Q184 386 166 368L136 398Q160 422 191.0 435.0Q222 448 256 448ZM256 363Q291 363 316 337L286 307Q273 320 256.0 320.0Q239 320 226 307L196 337Q221 363 256 363Z" />
      </g>
    </svg>