<svg xmlns="http://www.w3.org/2000/svg" viewBox="43 -6 448 411">
      <g transform="scale(1 -1) translate(0 -399)">
        <path d="M384 128Q384 87 366.5 51.5Q349 16 318 -6L262 49L292 79L318 53Q336 79 339 107H299V149H339Q333 179 318 203L292 177L262 207L288 233Q262 251 235 254V213H192V254Q162 247 139 233L203 169Q205 169 208.0 170.0Q211 171 213 171Q231 171 243.5 158.5Q256 146 256.0 128.0Q256 110 243.5 97.5Q231 85 213.5 85.0Q196 85 183.5 97.5Q171 110 171 128Q171 134 173 139L109 203Q91 177 87 149H128V107H87Q94 77 109 53L134 79L164 49L109 -6Q78 16 60.5 51.5Q43 87 43 128Q43 174 66.0 213.5Q89 253 128.0 276.0Q167 299 213.5 299.0Q260 299 299.0 276.0Q338 253 361.0 213.5Q384 174 384 128ZM491 341Q491 368 472.0 386.5Q453 405 426.5 405.0Q400 405 381.5 386.5Q363 368 363 341Q363 321 374.5 304.5Q386 288 405 281V213H448V281Q467 288 479.0 304.5Q491 321 491 341ZM427 320Q418 320 411.5 326.5Q405 333 405.0 341.5Q405 350 411.5 356.5Q418 363 426.5 363.0Q435 363 441.5 356.5Q448 350 448.0 341.5Q448 333 441.5 326.5Q435 320 427 320Z" />
      </g>
    </svg>