<svg xmlns="http://www.w3.org/2000/svg" viewBox="64 -43 384 470">
      <g transform="scale(1 -1) translate(0 -384)">
        <path d="M404 405Q400 415 392.0 421.0Q384 427 373 427H139Q128 427 120.0 421.0Q112 415 108 405L64 277V107Q64 98 70.5 91.5Q77 85 85 85H107Q115 85 121.5 91.5Q128 98 128 107V128H384V107Q384 98 390.5 91.5Q397 85 405 85H427Q435 85 441.5 91.5Q448 98 448 107V277ZM139 192Q125 192 116.0 201.5Q107 211 107.0 224.0Q107 237 116.0 246.5Q125 256 138.5 256.0Q152 256 161.5 246.5Q171 237 171.0 224.0Q171 211 161.5 201.5Q152 192 139 192ZM373 192Q360 192 350.5 201.5Q341 211 341.0 224.0Q341 237 350.5 246.5Q360 256 373.5 256.0Q387 256 396.0 246.5Q405 237 405.0 224.0Q405 211 396.0 201.5Q387 192 373 192ZM107 299 139 395H373L405 299ZM149 21H235V64L363 0H277V-43Z" />
      </g>
    </svg>