<svg xmlns="http://www.w3.org/2000/svg" viewBox="0 0 512 384">
      <g transform="scale(1 -1) translate(0 -384)">
        <path d="M512 192Q512 140 492.5 93.0Q473 46 437 11L414 34Q445 65 462.5 106.0Q480 147 480.0 192.0Q480 237 462.5 278.0Q445 319 414 350L437 373Q473 338 492.5 291.0Q512 244 512 192ZM427 243V277H358Q344 277 334.0 267.0Q324 257 324 243V209Q324 195 334.0 185.0Q344 175 358 175H393V141H324V107H393Q407 107 417.0 117.0Q427 127 427 141V175Q427 189 417.0 199.0Q407 209 393 209H358V243ZM180 320Q215 341 256.0 341.0Q297 341 332 320H399Q372 350 335.0 367.0Q298 384 256.0 384.0Q214 384 177.0 367.0Q140 350 113 320ZM282 192Q292 192 299.5 184.5Q307 177 307 166V141Q307 127 297.0 117.0Q287 107 273 107H205V277H273Q287 277 297.0 267.0Q307 257 307 243V218Q307 207 299.5 199.5Q292 192 282 192ZM273 175H239V141H273ZM273 243H239V209H273ZM98 350 75 373Q39 338 19.5 291.0Q0 244 0.0 192.0Q0 140 19.5 93.0Q39 46 75 11L98 34Q67 65 49.5 106.0Q32 147 32.0 192.0Q32 237 49.5 278.0Q67 319 98 350ZM154 107V175H119V107H85V243Q85 257 95.0 267.0Q105 277 119 277H154Q168 277 178.0 267.0Q188 257 188 243V107ZM154 209V243H119V209ZM332 64Q297 43 256.0 43.0Q215 43 180 64H113Q140 34 177.0 17.0Q214 0 256.0 0.0Q298 0 335.0 17.0Q372 34 399 64Z" />
      </g>
    </svg>