<svg xmlns="http://www.w3.org/2000/svg" viewBox="21 21 470 342">
      <g transform="scale(1 -1) translate(0 -384)">
        <path d="M361 341Q357 351 348.5 357.0Q340 363 331 363H96Q85 363 77.0 357.0Q69 351 66 341L21 213V43Q21 35 28.0 28.0Q35 21 43 21H64Q72 21 78.5 28.0Q85 35 85 43V64H177Q171 83 171 107Q171 144 187 178Q202 210 228 235H64L96 331H331L348 277Q368 277 384 271ZM96 192Q109 192 118.5 182.5Q128 173 128.0 160.0Q128 147 118.5 137.5Q109 128 96.0 128.0Q83 128 73.5 137.5Q64 147 64.0 160.0Q64 173 73.5 182.5Q83 192 96 192ZM491 85H448V43H405V85H363V128H405V171H448V128H491ZM309 107Q321 107 331.0 121.5Q341 136 341 149Q341 167 328.5 179.5Q316 192 299 192H235V149H299V128H256V85H299V64H235V21H299Q316 21 328.5 33.5Q341 46 341 64Q341 78 331.0 92.5Q321 107 309 107Z" />
      </g>
    </svg>