<svg xmlns="http://www.w3.org/2000/svg" viewBox="21 21 470 299">
      <g transform="scale(1 -1) translate(0 -341)">
        <path d="M384 149 401 147 400 142 410 139 414 142Q431 133 439 117L436 114L440 104L445 105Q448 95 448 85L446 69H441L437 59L441 56Q432 39 416 30L412 34L403 29V24Q394 21 384 21L367 23V29L358 33L354 29Q337 38 328 53L332 57L328 67H323Q320 76 320 85L322 102H327L331 112L327 115Q336 132 352 141L356 137L365 142V146Q374 149 384 149ZM384 117Q371 117 361.5 108.0Q352 99 352.0 85.5Q352 72 361.5 62.5Q371 53 384.0 53.0Q397 53 406.5 62.5Q416 72 416.0 85.5Q416 99 406.5 108.0Q397 117 384 117ZM128 149 145 147 144 142 154 139 158 142Q175 133 183 117L180 114L184 104L189 105Q192 95 192 85L190 69H185L181 59L185 56Q176 39 160 30L156 34L147 29V24Q138 21 128 21L111 23V29L102 33L98 29Q81 38 72 53L76 57L72 67H67Q64 76 64 85L66 102H71L75 112L71 115Q80 132 96 141L100 137L109 142V146Q118 149 128 149ZM128 117Q115 117 105.5 108.0Q96 99 96.0 85.5Q96 72 105.5 62.5Q115 53 128.0 53.0Q141 53 150.5 62.5Q160 72 160.0 85.5Q160 99 150.5 108.0Q141 117 128 117ZM341 320 405 235H448Q466 235 478.5 222.5Q491 210 491 192V128H448Q448 155 429.5 173.5Q411 192 384.0 192.0Q357 192 338.5 173.5Q320 155 320 128H192Q192 155 173.5 173.5Q155 192 128.0 192.0Q101 192 82.5 173.5Q64 155 64 128H21V235H224V320ZM256 288V235H372L331 288Z" />
      </g>
    </svg>