<svg xmlns="http://www.w3.org/2000/svg" viewBox="43 -43 426 427">
      <g transform="scale(1 -1) translate(0 -341)">
        <path d="M213 58Q213 29 192 -4Q180 -20 165 -36H164Q158 -43 149.5 -43.0Q141 -43 132 -34Q127 -28 127.5 -19.0Q128 -10 134 -4Q145 5 157 21Q171 42 171 58Q171 65 166 75Q164 80 157 93L154 98Q128 132 128.0 162.5Q128 193 142 215Q151 228 160 233Q167 236 176.0 234.0Q185 232 188 226Q193 218 191.0 209.5Q189 201 181 196L179 193Q175 189 173 182Q171 174 171.0 163.0Q171 152 176 141Q179 134 188 122Q213 87 213 58ZM256 162Q256 174 259 182Q261 189 264 193L267 196Q275 201 276.5 209.5Q278 218 273.0 226.0Q268 234 259.5 235.5Q251 237 242.5 232.5Q234 228 226 215Q211 193 211.0 162.5Q211 132 237 98L240 93Q247 80 250 75Q254 65 254 58Q254 42 240 21Q229 5 218 -4Q211 -10 211.0 -19.0Q211 -28 216.5 -34.5Q222 -41 230 -41Q242 -44 250 -36Q266 -20 277 -4Q299 29 299.0 58.0Q299 87 273 122L270 127Q263 139 260 145Q256 155 256 162ZM427 384H85Q68 384 55.5 371.5Q43 359 43 341V107Q43 89 55.5 76.5Q68 64 85 64H107V107H85V341H427V107H405V64H427Q444 64 456.5 76.5Q469 89 469 107V341Q469 359 456.5 371.5Q444 384 427 384ZM346 160Q346 176 351 187Q354 192 356 194Q363 199 365.0 207.5Q367 216 362.5 223.5Q358 231 349.0 233.0Q340 235 332.0 230.5Q324 226 315 213Q301 191 301 160Q301 144 308 127Q313 117 324 100L330 90Q337 78 339 72Q343 63 343 55Q343 40 329 19Q318 2 307 -6Q301 -13 300.0 -21.5Q299 -30 305.0 -36.5Q311 -43 320 -43Q323 -43 333 -40L339 -38H340Q355 -23 366 -6Q388 27 388 55Q388 71 381 88Q376 98 365 115L359 125Q352 137 350 143Q346 153 346 160Z" />
      </g>
    </svg>