<svg xmlns="http://www.w3.org/2000/svg" viewBox="64 -64 384 405">
      <g transform="scale(1 -1) translate(0 -277)">
        <path d="M320 -21H363V-64H320ZM235 -21H277V-64H235ZM149 -21H192V-64H149ZM107 213 139 309H373L405 213ZM373 107Q360 107 350.5 116.0Q341 125 341.0 138.5Q341 152 350.5 161.5Q360 171 373.5 171.0Q387 171 396.0 161.5Q405 152 405.0 138.5Q405 125 396.0 116.0Q387 107 373 107ZM139 107Q125 107 116.0 116.0Q107 125 107.0 138.5Q107 152 116.0 161.5Q125 171 138.5 171.0Q152 171 161.5 161.5Q171 152 171.0 138.5Q171 125 161.5 116.0Q152 107 139 107ZM404 320Q400 329 392.0 335.0Q384 341 373 341H139Q128 341 120.0 335.0Q112 329 108 320L64 192V21Q64 12 70.0 6.0Q76 0 85 0H107Q116 0 122.0 6.0Q128 12 128 21V43H384V21Q384 12 390.0 6.0Q396 0 405 0H427Q436 0 442.0 6.0Q448 12 448 21V192Z" />
      </g>
    </svg>