<svg xmlns="http://www.w3.org/2000/svg" viewBox="28 63 455 276">
      <g transform="scale(1 -1) translate(0 -402)">
        <path d="M483 117 431 323Q429 331 422.5 335.5Q416 340 408 339Q382 336 339 334Q287 331 256.0 331.0Q225 331 173 334Q130 336 104 339Q96 340 89.5 335.5Q83 331 81 323L29 117Q26 104 33.5 92.0Q41 80 54 78Q155 63 256.0 63.0Q357 63 458 78Q471 80 478.5 92.0Q486 104 483 117ZM256 107Q164 106 73 117L117 295Q143 292 184 290Q228 288 256.0 288.0Q284 288 328 290Q369 292 395 295L439 117Q348 106 256 107Z" />
      </g>
    </svg>