<svg xmlns="http://www.w3.org/2000/svg" viewBox="21 64 470 203">
      <g transform="scale(1 -1) translate(0 -331)">
        <path d="M256 267H149L85 213H64Q46 213 33.5 200.5Q21 188 21 171V107H68Q75 87 91.5 75.5Q108 64 128.0 64.0Q148 64 164.5 75.5Q181 87 188 107H324Q331 87 347.5 75.5Q364 64 384.0 64.0Q404 64 420.5 75.5Q437 87 444 107H491V128Q491 142 480 151Q474 157 456 166ZM112 192 160 235H245L331 192ZM128 160Q141 160 150.5 150.5Q160 141 160.0 128.0Q160 115 150.5 105.5Q141 96 128.0 96.0Q115 96 105.5 105.5Q96 115 96.0 128.0Q96 141 105.5 150.5Q115 160 128 160ZM384 160Q397 160 406.5 150.5Q416 141 416.0 128.0Q416 115 406.5 105.5Q397 96 384.0 96.0Q371 96 361.5 105.5Q352 115 352.0 128.0Q352 141 361.5 150.5Q371 160 384 160Z" />
      </g>
    </svg>