<svg xmlns="http://www.w3.org/2000/svg" viewBox="43 0 426 384">
      <g transform="scale(1 -1) translate(0 -384)">
        <path d="M277 346Q247 346 229 298Q213 254 213.0 192.0Q213 130 229 86Q247 38 277 38Q322 38 365 57Q411 76 439 110Q469 146 469.0 192.0Q469 238 439 274Q411 308 365 327Q322 346 277 346ZM279 81Q271 89 265 116Q256 149 256.0 192.0Q256 235 265 268Q271 295 279 303Q312 302 345 289Q381 275 402 252Q427 225 427.0 192.0Q427 159 402 132Q381 109 345 95Q312 82 279 81ZM128 277V213H171V171H128V107H179Q188 77 192 64H128V0H85V64H43V107H85V171H43V213H85V277H43V320H85V384H128V320H192L191 317Q190 314 190 311Q181 290 179 277Z" />
      </g>
    </svg>