<svg xmlns="http://www.w3.org/2000/svg" viewBox="0 0 512 384">
      <g transform="scale(1 -1) translate(0 -384)">
        <path d="M235 128H277V85H235ZM235 299H277V171H235ZM256 384Q204 384 160.0 358.0Q116 332 90.0 288.0Q64 244 64.0 192.0Q64 140 90.0 96.0Q116 52 160.0 26.0Q204 0 256.0 0.0Q308 0 352.0 26.0Q396 52 422.0 96.0Q448 140 448.0 192.0Q448 244 422.0 288.0Q396 332 352.0 358.0Q308 384 256 384ZM256 43Q216 43 181.5 63.0Q147 83 127.0 117.5Q107 152 107.0 192.0Q107 232 127.0 266.5Q147 301 181.5 321.0Q216 341 256.0 341.0Q296 341 330.5 321.0Q365 301 385.0 266.5Q405 232 405.0 192.0Q405 152 385.0 117.5Q365 83 330.5 63.0Q296 43 256 43ZM437 11Q473 46 492.5 93.0Q512 140 512.0 192.0Q512 244 492.5 291.0Q473 338 437 373L414 350Q445 319 462.5 278.0Q480 237 480.0 192.0Q480 147 462.5 106.0Q445 65 414 34ZM98 34Q67 65 49.5 106.0Q32 147 32.0 192.0Q32 237 49.5 278.0Q67 319 98 350L75 373Q39 338 19.5 291.0Q0 244 0.0 192.0Q0 140 19.5 93.0Q39 46 75 11Z" />
      </g>
    </svg>