<svg xmlns="http://www.w3.org/2000/svg" viewBox="0 0 512 384">
      <g transform="scale(1 -1) translate(0 -384)">
        <path d="M113 320Q140 350 177.0 367.0Q214 384 256.0 384.0Q298 384 335.0 367.0Q372 350 399 320H332Q297 341 256.0 341.0Q215 341 180 320ZM307 243V277H239Q225 277 215.0 267.0Q205 257 205 243V209Q205 195 215.0 185.0Q225 175 239 175H273V141H205V107H273Q287 107 297.0 117.0Q307 127 307 141V175Q307 189 297.0 199.0Q287 209 273 209H239V243ZM393 277H324V107H358V175H393Q407 175 417.0 185.0Q427 195 427 209V243Q427 257 417.0 267.0Q407 277 393 277ZM393 209H358V243H393ZM188 243V277H85V107H188V141H119V175H188V209H119V243ZM332 64Q297 43 256.0 43.0Q215 43 180 64H113Q140 34 177.0 17.0Q214 0 256.0 0.0Q298 0 335.0 17.0Q372 34 399 64ZM437 373 414 350Q445 319 462.5 278.0Q480 237 480.0 192.0Q480 147 462.5 106.0Q445 65 414 34L437 11Q473 46 492.5 93.0Q512 140 512.0 192.0Q512 244 492.5 291.0Q473 338 437 373ZM98 350 75 373Q39 338 19.5 291.0Q0 244 0.0 192.0Q0 140 19.5 93.0Q39 46 75 11L98 34Q67 65 49.5 106.0Q32 147 32.0 192.0Q32 237 49.5 278.0Q67 319 98 350Z" />
      </g>
    </svg>