<svg xmlns="http://www.w3.org/2000/svg" viewBox="43 -21 407 426">
      <g transform="scale(1 -1) translate(0 -384)">
        <path d="M444 230 414 222 388 237V273L414 288L444 279L450 303L427 309L433 333L410 339L401 309L375 294L343 314V341L365 363L348 380L331 363L314 380L297 363L318 341V314L286 294L260 309L254 339L230 333L237 309L213 305L220 282L250 290L275 275V239L250 224L220 233L213 205L237 198L230 177L254 171L262 201L288 215L320 196V169L299 147L316 130L333 147L350 130L367 147L346 169V196L378 215L403 201L412 171L435 177L427 201L450 207ZM299 273 331 292 363 273V237L331 218L299 237ZM107 64Q98 88 90 111Q71 168 59 216Q43 282 43 320Q43 349 49 369Q55 385 64 395Q71 401 79 404L85 405H107H112Q119 403 122 399Q128 393 128 384Q128 378 126.0 374.0Q124 370 120 364Q114 355 111 348Q107 337 107 320Q107 307 115 291Q120 281 134 261Q152 234 159 219Q171 194 171.0 171.5Q171 149 161 127Q153 110 139 93Q129 82 117 72ZM320 85Q338 85 350.5 72.5Q363 60 363 43V21Q363 4 350.5 -8.5Q338 -21 320 -21H192Q165 -21 144 -2Q133 7 128 17Q124 21 124.0 26.0Q124 31 128 34L145 48Q166 64 182 74Q204 87 213 87H320Z" />
      </g>
    </svg>