<svg xmlns="http://www.w3.org/2000/svg" viewBox="21 -43 448 427">
      <g transform="scale(1 -1) translate(0 -341)">
        <path d="M166 85V117Q166 139 148.0 155.0Q130 171 107.0 171.0Q84 171 65.5 155.0Q47 139 47 117V85Q37 85 29.0 77.0Q21 69 21 60V-15Q21 -26 29.0 -34.5Q37 -43 47 -43H164Q175 -43 183.5 -35.0Q192 -27 192 -17V58Q192 69 184.0 77.0Q176 85 166 85ZM139 85H75V117Q75 130 84.0 137.5Q93 145 106.5 145.0Q120 145 129.5 137.5Q139 130 139 117ZM448 384H235L64 213V204Q85 213 107 213Q134 213 157.5 200.0Q181 187 195.0 165.0Q209 143 209 117V112Q221 102 228.0 88.0Q235 74 235 58V0H469V363Q469 371 463.0 377.5Q457 384 448 384ZM405 107H341V149H405ZM427 213H124L252 341H427Z" />
      </g>
    </svg>