<svg xmlns="http://www.w3.org/2000/svg" viewBox="21 -43 470 470">
      <g transform="scale(1 -1) translate(0 -384)">
        <path d="M491 277Q491 318 471.0 352.5Q451 387 416.5 407.0Q382 427 341 427Q304 427 272.5 410.0Q241 393 220.0 363.5Q199 334 194 299H96Q86 299 77.5 293.0Q69 287 66 277L21 149V-21Q21 -30 27.5 -36.5Q34 -43 43 -43H64Q73 -43 79.0 -36.5Q85 -30 85 -21V0H341V-21Q341 -30 347.5 -36.5Q354 -43 363 -43H384Q393 -43 399.0 -36.5Q405 -30 405 -21V143Q444 161 467.5 197.0Q491 233 491 277ZM96 267H193Q195 239 206.5 214.5Q218 190 237 171H64ZM96 64Q83 64 73.5 73.5Q64 83 64.0 96.0Q64 109 73.5 118.5Q83 128 96.0 128.0Q109 128 118.5 118.5Q128 109 128.0 96.0Q128 83 118.5 73.5Q109 64 96 64ZM331 64Q317 64 308.0 73.5Q299 83 299.0 96.0Q299 109 308.0 118.5Q317 128 330.5 128.0Q344 128 353.5 118.5Q363 109 363.0 96.0Q363 83 353.5 73.5Q344 64 331 64ZM341 171Q297 171 266.0 202.0Q235 233 235.0 277.0Q235 321 266.0 352.5Q297 384 341.0 384.0Q385 384 416.5 352.5Q448 321 448.0 277.0Q448 233 416.5 202.0Q385 171 341 171ZM352 272 413 236 397 210 320 256V363H352Z" />
      </g>
    </svg>