<svg xmlns="http://www.w3.org/2000/svg" viewBox="0 0 512 384">
      <g transform="scale(1 -1) translate(0 -384)">
        <path d="M256 235H320V277H256V299Q256 308 250.0 314.0Q244 320 234.5 320.0Q225 320 219.0 314.0Q213 308 213 299V79Q204 74 198.0 64.0Q192 54 192 43Q192 25 204.5 12.5Q217 0 234.5 0.0Q252 0 264.5 12.5Q277 25 277 43Q277 54 271.5 64.0Q266 74 256 79V149H320V192H256ZM512 192Q512 140 492.5 93.0Q473 46 437 11L414 34Q445 65 462.5 106.0Q480 147 480.0 192.0Q480 237 462.5 278.0Q445 319 414 350L437 373Q473 338 492.5 291.0Q512 244 512 192ZM32 192Q32 147 49.5 106.0Q67 65 98 34L75 11Q39 46 19.5 93.0Q0 140 0.0 192.0Q0 244 19.5 291.0Q39 338 75 373L98 350Q67 319 49.5 278.0Q32 237 32 192ZM448 192Q448 136 419.0 90.0Q390 44 341 20V70Q371 90 388.0 122.5Q405 155 405 192Q405 232 385.0 266.5Q365 301 330.5 321.0Q296 341 256.0 341.0Q216 341 181.5 321.0Q147 301 127.0 266.5Q107 232 107 192Q107 155 124.0 122.5Q141 90 171 70V20Q122 44 93.0 90.0Q64 136 64 192Q64 244 90.0 288.0Q116 332 160.0 358.0Q204 384 256.0 384.0Q308 384 352.0 358.0Q396 332 422.0 288.0Q448 244 448 192Z" />
      </g>
    </svg>