<svg xmlns="http://www.w3.org/2000/svg" viewBox="64 -64 384 512">
      <g transform="scale(1 -1) translate(0 -384)">
        <path d="M192 448Q165 448 146.5 429.5Q128 411 128.0 384.0Q128 357 146.5 338.5Q165 320 192 320Q213 320 229.0 331.5Q245 343 252 363H299V320H341V363H384V405H252Q245 425 229.0 436.5Q213 448 192 448ZM192 405Q202 405 207.5 399.5Q213 394 213.0 384.0Q213 374 207.5 368.5Q202 363 192.0 363.0Q182 363 176.5 368.5Q171 374 171.0 384.0Q171 394 176.5 399.5Q182 405 192 405ZM139 277Q128 277 120.0 271.5Q112 266 109 256L64 128V-43Q64 -52 70.0 -58.0Q76 -64 85 -64H107Q116 -64 122.0 -58.0Q128 -52 128 -43V-21H384V-43Q384 -52 390.0 -58.0Q396 -64 405 -64H427Q436 -64 442.0 -58.0Q448 -52 448 -43V128L403 256Q400 265 391.5 271.0Q383 277 373 277ZM139 245H373L405 149H107ZM139 107Q151 107 161.0 97.0Q171 87 171.0 74.5Q171 62 161.0 52.5Q151 43 138.5 43.0Q126 43 116.5 52.5Q107 62 107.0 74.5Q107 87 116.5 97.0Q126 107 139 107ZM373 107Q386 107 395.5 97.0Q405 87 405.0 74.5Q405 62 395.5 52.5Q386 43 373.5 43.0Q361 43 351.0 52.5Q341 62 341.0 74.5Q341 87 351.0 97.0Q361 107 373 107Z" />
      </g>
    </svg>