<svg xmlns="http://www.w3.org/2000/svg" viewBox="21 64 470 256">
      <g transform="scale(1 -1) translate(0 -384)">
        <path d="M341 320H224V235H21V128H64Q64 101 82.5 82.5Q101 64 128.0 64.0Q155 64 173.5 82.5Q192 101 192 128H320Q320 101 338.5 82.5Q357 64 384.0 64.0Q411 64 429.5 82.5Q448 101 448 128H491V192Q491 210 478.5 222.5Q466 235 448 235H405ZM256 288H331L372 235H256ZM128 160Q141 160 150.5 150.5Q160 141 160.0 128.0Q160 115 150.5 105.5Q141 96 128.0 96.0Q115 96 105.5 105.5Q96 115 96.0 128.0Q96 141 105.5 150.5Q115 160 128 160ZM384 160Q397 160 406.5 150.5Q416 141 416.0 128.0Q416 115 406.5 105.5Q397 96 384.0 96.0Q371 96 361.5 105.5Q352 115 352.0 128.0Q352 141 361.5 150.5Q371 160 384 160Z" />
      </g>
    </svg>