<svg xmlns="http://www.w3.org/2000/svg" viewBox="64 -43 384 470">
      <g transform="scale(1 -1) translate(0 -384)">
        <path d="M107 171 139 267H373L405 171ZM373 64Q361 64 351.0 73.5Q341 83 341.0 96.0Q341 109 351.0 118.5Q361 128 373.5 128.0Q386 128 395.5 118.5Q405 109 405.0 96.0Q405 83 395.5 73.5Q386 64 373 64ZM139 64Q126 64 116.5 73.5Q107 83 107.0 96.0Q107 109 116.5 118.5Q126 128 138.5 128.0Q151 128 161.0 118.5Q171 109 171.0 96.0Q171 83 161.0 73.5Q151 64 139 64ZM403 277Q400 287 391.5 293.0Q383 299 373 299H139Q128 299 120.0 293.0Q112 287 109 277L64 149V-21Q64 -31 70.0 -37.0Q76 -43 85 -43H107Q116 -43 122.0 -37.0Q128 -31 128 -21V0H384V-21Q384 -31 390.0 -37.0Q396 -43 405 -43H427Q436 -43 442.0 -37.0Q448 -31 448 -21V149ZM171 427 256 331 341 427Z" />
      </g>
    </svg>