<svg xmlns="http://www.w3.org/2000/svg" viewBox="64 -43 384 470">
      <g transform="scale(1 -1) translate(0 -384)">
        <path d="M404 405Q400 415 392.0 421.0Q384 427 373 427H139Q128 427 120.0 421.0Q112 415 108 405L64 277V107Q64 98 70.5 91.5Q77 85 85 85H107Q115 85 121.5 91.5Q128 98 128 107V128H384V107Q384 98 390.5 91.5Q397 85 405 85H427Q435 85 441.5 91.5Q448 98 448 107V277ZM146 384H366L389 318H123ZM405 171H107V277H405ZM160 256Q173 256 182.5 246.5Q192 237 192.0 224.0Q192 211 182.5 201.5Q173 192 160.0 192.0Q147 192 137.5 201.5Q128 211 128.0 224.0Q128 237 137.5 246.5Q147 256 160 256ZM352 256Q365 256 374.5 246.5Q384 237 384.0 224.0Q384 211 374.5 201.5Q365 192 352.0 192.0Q339 192 329.5 201.5Q320 211 320.0 224.0Q320 237 329.5 246.5Q339 256 352 256ZM149 21H235V64L363 0H277V-43Z" />
      </g>
    </svg>