<svg xmlns="http://www.w3.org/2000/svg" viewBox="21 0 470 384">
      <g transform="scale(1 -1) translate(0 -384)">
        <path d="M405 299V341H448V384H277V341H320V299H21V0H491V299ZM448 140Q443 145 438.5 147.0Q434 149 426.0 149.0Q418 149 413.5 147.0Q409 145 402 138L399 134Q372 107 341.5 107.0Q311 107 284 134L280 138Q273 145 269.0 147.0Q265 149 256 149Q250 149 245.0 147.5Q240 146 230 136L228 134Q201 107 170.5 107.0Q140 107 113 134L110 138Q103 145 98.5 147.0Q94 149 86.0 149.0Q78 149 73.5 147.0Q69 145 64 140V256H448Z" />
      </g>
    </svg>