<svg xmlns="http://www.w3.org/2000/svg" viewBox="43 0 426 384">
      <g transform="scale(1 -1) translate(0 -384)">
        <path d="M469 171V128H391Q405 159 405 192Q405 232 385.0 266.5Q365 301 330.5 321.0Q296 341 256 341H43V384H256Q308 384 352.0 358.0Q396 332 422.0 288.0Q448 244 448 192Q448 185 447 171ZM256 43Q216 43 181.5 63.0Q147 83 127.0 117.5Q107 152 107 192Q107 226 121 256H43V213H65Q64 199 64 192Q64 140 90.0 96.0Q116 52 160.0 26.0Q204 0 256 0H469V43ZM360 188Q346 177 327 180Q314 182 299 191V192Q336 215 336 249Q336 267 328 280L323 288Q316 297 312.5 297.0Q309 297 311.5 280.0Q314 263 302 248Q293 237 278 228L277 229Q277 253 267 269Q259 282 246 290Q237 295 225 298L216 299L206 298Q195 297 193.0 293.5Q191 290 208 284Q235 273 236 229H235Q214 240 195 240Q180 240 166 232Q157 227 149 218L144 211L139 201Q135 192 136.5 188.5Q138 185 152.0 196.0Q166 207 185 204Q198 202 213 193V192Q193 180 184 163Q176 150 176 134Q176 124 180 113L184 104L189 95Q196 87 199.5 87.0Q203 87 201 104Q196 133 234 156L235 155Q236 111 266 94Q281 85 296 85L306 86Q317 87 319.0 90.5Q321 94 304 100Q277 111 276 155H277Q298 144 317 144Q332 144 346 152Q355 157 363 166L368 173L373 182Q377 192 375.5 195.5Q374 199 360 188Z" />
      </g>
    </svg>