<svg xmlns="http://www.w3.org/2000/svg" viewBox="21 64 470 256">
      <g transform="scale(1 -1) translate(0 -384)">
        <path d="M21 320 53 288 21 256 53 224 21 192 53 160 21 128H320Q320 101 338.5 82.5Q357 64 384.0 64.0Q411 64 429.5 82.5Q448 101 448 128H491V192Q491 210 478.5 222.5Q466 235 448 235H405L341 320ZM99 288H224V235H88L67 256ZM256 288H331L372 235H256ZM384 160Q397 160 406.5 150.5Q416 141 416.0 128.0Q416 115 406.5 105.5Q397 96 384.0 96.0Q371 96 361.5 105.5Q352 115 352.0 128.0Q352 141 361.5 150.5Q371 160 384 160Z" />
      </g>
    </svg>