<svg xmlns="http://www.w3.org/2000/svg" viewBox="64 0 384 341">
      <g transform="scale(1 -1) translate(0 -341)">
        <path d="M403 320Q400 329 391.5 335.0Q383 341 373 341H139Q128 341 120.0 335.5Q112 330 109 320L64 192V21Q64 13 70.5 6.5Q77 0 85 0H107Q116 0 122.0 6.5Q128 13 128 21V43H384V21Q384 13 390.5 6.5Q397 0 405 0H427Q435 0 441.5 6.5Q448 13 448 21V192ZM145 299H365L388 235H124ZM405 85H107V192H405ZM160 171Q173 171 182.5 161.0Q192 151 192.0 138.5Q192 126 182.5 116.5Q173 107 160.0 107.0Q147 107 137.5 116.5Q128 126 128.0 138.5Q128 151 137.5 161.0Q147 171 160 171ZM352 171Q365 171 374.5 161.0Q384 151 384.0 138.5Q384 126 374.5 116.5Q365 107 352.0 107.0Q339 107 329.5 116.5Q320 126 320.0 138.5Q320 151 329.5 161.0Q339 171 352 171Z" />
      </g>
    </svg>