<svg xmlns="http://www.w3.org/2000/svg" viewBox="43 -6 426 411">
      <g transform="scale(1 -1) translate(0 -399)">
        <path d="M469 128Q469 87 451.5 51.5Q434 16 403 -6L348 49L378 79L403 53Q421 79 425 107H384V149H425Q418 179 403 203L378 177L348 207L373 233Q348 251 320 254V213H277V254Q248 247 224 233L288 169Q290 169 293.5 170.0Q297 171 299 171Q316 171 328.5 158.5Q341 146 341.0 128.0Q341 110 328.5 97.5Q316 85 298.5 85.0Q281 85 268.5 97.5Q256 110 256 128Q256 134 258 139L194 203Q176 177 173 149H213V107H173Q179 77 194 53L220 79L250 49L194 -6Q163 16 145.5 51.5Q128 87 128 128Q128 174 151.0 213.5Q174 253 213.0 276.0Q252 299 298.5 299.0Q345 299 384.0 276.0Q423 253 446.0 213.5Q469 174 469 128ZM143 335 73 405 43 375 113 305 85 277H171V363Z" />
      </g>
    </svg>