<svg xmlns="http://www.w3.org/2000/svg" viewBox="0 34 512 316">
      <g transform="scale(1 -1) translate(0 -384)">
        <path d="M156 252Q171 244 180 231Q192 214 192.0 192.0Q192 170 180 153Q171 140 156 132Q149 155 149.0 192.0Q149 229 156 252ZM139 299Q124 299 115 265Q107 235 107.0 192.0Q107 149 115 119Q124 85 139 85Q161 85 183.0 98.5Q205 112 219 135Q235 161 235.0 192.0Q235 223 219 249Q205 272 183.0 285.5Q161 299 139 299ZM356 252Q361 229 361.0 192.0Q361 155 356 132Q341 140 332 153Q320 170 320.0 192.0Q320 214 332 231Q341 244 356 252ZM373 299Q351 299 329.0 285.5Q307 272 293 249Q277 223 277.0 192.0Q277 161 293 135Q307 112 329.0 98.5Q351 85 373 85Q388 85 397 119Q405 149 405.0 192.0Q405 235 397 265Q388 299 373 299ZM105 316 53 350 30 314 85 277Q93 304 105 316ZM427 277 482 314 459 350 407 316Q422 297 427 277ZM85 107 30 70 53 34 105 68Q90 87 85 107ZM437 213Q437 203 437 192V171H512V213ZM407 68 459 34 482 70 427 107Q419 80 407 68ZM75 192Q75 203 75 213H0V171H75Z" />
      </g>
    </svg>