<svg xmlns="http://www.w3.org/2000/svg" viewBox="64 21 384 278">
      <g transform="scale(1 -1) translate(0 -320)">
        <path d="M107 299Q89 299 76.5 286.5Q64 274 64 256V128Q64 110 76.5 97.5Q89 85 107 85H149Q149 59 168.0 40.0Q187 21 213.5 21.0Q240 21 258.5 40.0Q277 59 277 85H448V128H405V256Q405 274 392.5 286.5Q380 299 363 299ZM107 256H213V192H107ZM277 256H363V192H277ZM213 107Q222 107 228.5 100.5Q235 94 235.0 85.0Q235 76 228.5 70.0Q222 64 213.0 64.0Q204 64 198.0 70.0Q192 76 192.0 85.0Q192 94 198.0 100.5Q204 107 213 107Z" />
      </g>
    </svg>