<svg xmlns="http://www.w3.org/2000/svg" viewBox="106 0 298 405">
      <g transform="scale(1 -1) translate(0 -405)">
        <path d="M171 75Q171 61 161.5 52.0Q152 43 138.5 43.0Q125 43 116.0 52.0Q107 61 107.0 74.5Q107 88 116.0 97.5Q125 107 138.5 107.0Q152 107 161.5 97.5Q171 88 171 75ZM384 329Q381 362 358.0 383.5Q335 405 304 405H189Q159 405 136.0 383.5Q113 362 110 330L107 307Q105 295 113.0 286.0Q121 277 132.0 277.0Q143 277 150.5 284.0Q158 291 159 301L162 324Q163 336 171.0 344.0Q179 352 189 352H304Q314 352 322.0 344.0Q330 336 331 324L352 88Q353 74 345.0 63.5Q337 53 325 53L214 68Q211 37 188 17L319 0H325Q342 0 357.0 7.0Q372 14 383.5 26.5Q395 39 401.0 56.5Q407 74 405 93ZM249 279Q239 285 228.5 282.5Q218 280 212 270L136 149H139Q166 149 188 131L257 242Q263 251 260.5 262.0Q258 273 249 279Z" />
      </g>
    </svg>