<svg xmlns="http://www.w3.org/2000/svg" viewBox="85 -21 342 426">
      <g transform="scale(1 -1) translate(0 -384)">
        <path d="M107 405H405Q414 405 420.5 399.0Q427 393 427 384V171Q427 162 420.5 155.5Q414 149 405 149H107Q98 149 91.5 155.5Q85 162 85 171V384Q85 393 91.5 399.0Q98 405 107 405ZM128 363V192H384V363ZM427 85Q427 76 420.5 70.0Q414 64 405 64H107Q98 64 91.5 70.0Q85 76 85 85V107H427ZM427 0Q427 -9 420.5 -15.0Q414 -21 405 -21H107Q98 -21 91.5 -15.0Q85 -9 85 0V21H427Z" />
      </g>
    </svg>