<svg xmlns="http://www.w3.org/2000/svg" viewBox="43 21 426 342">
      <g transform="scale(1 -1) translate(0 -384)">
        <path d="M245 107Q273 107 296 122L348 70L378 100L326 152Q341 175 341 203Q341 243 313.0 271.0Q285 299 245.0 299.0Q205 299 177.0 271.0Q149 243 149.0 203.0Q149 163 177.0 135.0Q205 107 245 107ZM245 256Q267 256 283.0 240.5Q299 225 299.0 203.0Q299 181 283.0 165.0Q267 149 245.0 149.0Q223 149 207.5 165.0Q192 181 192.0 203.0Q192 225 207.5 240.5Q223 256 245 256ZM427 363H85Q68 363 55.5 350.5Q43 338 43 320V64Q43 46 55.5 33.5Q68 21 85 21H427Q444 21 456.5 33.5Q469 46 469 64V320Q469 338 456.5 350.5Q444 363 427 363ZM427 64H85V320H427Z" />
      </g>
    </svg>