<svg xmlns="http://www.w3.org/2000/svg" viewBox="64 -64 384 512">
      <g transform="scale(1 -1) translate(0 -384)">
        <path d="M64 363V-21Q64 -39 76.5 -51.5Q89 -64 107 -64H363V-21H107V363ZM405 448H192Q174 448 161.5 435.5Q149 423 149 405V64Q149 46 161.5 33.5Q174 21 192 21H405Q423 21 435.5 33.5Q448 46 448 64V405Q448 423 435.5 435.5Q423 448 405 448ZM341 171Q324 171 309 186L331 128H267L288 186Q273 171 255.5 171.0Q238 171 225.5 183.5Q213 196 213.0 213.5Q213 231 225.5 243.5Q238 256 256 256H262Q256 266 256 277Q256 295 268.5 307.5Q281 320 298.5 320.0Q316 320 328.5 307.5Q341 295 341 277Q341 266 335 256H341Q359 256 371.5 243.5Q384 231 384.0 213.5Q384 196 371.5 183.5Q359 171 341 171Z" />
      </g>
    </svg>