<svg xmlns="http://www.w3.org/2000/svg" viewBox="0 -55 512 439">
      <g transform="scale(1 -1) translate(0 -329)">
        <path d="M427 -23 479 -55 465 5 512 45 450 50 427 107 403 50 341 45 388 5 373 -55ZM300 0H43Q26 0 13.0 13.0Q0 26 0 43V341Q0 358 13.0 371.0Q26 384 43 384H469Q486 384 499.0 371.0Q512 358 512 341V117Q476 149 427 149Q392 149 362.5 132.0Q333 115 316.0 85.5Q299 56 299 21Q299 11 300 0ZM171 151Q147 151 119 144Q86 135 66 121Q43 105 43 85V64H299V85Q299 105 275 121Q255 135 223 144Q194 151 171 151ZM171 320Q144 320 125.5 301.0Q107 282 107.0 256.0Q107 230 125.5 211.0Q144 192 170.5 192.0Q197 192 216.0 211.0Q235 230 235.0 256.0Q235 282 216.0 301.0Q197 320 171 320ZM448 235H299V213H448ZM469 277H299V256H469ZM469 320H299V299H469Z" />
      </g>
    </svg>