<svg xmlns="http://www.w3.org/2000/svg" viewBox="38 -5 446 405">
      <g transform="scale(1 -1) translate(0 -395)">
        <path d="M239 400Q251 400 262.0 392.5Q273 385 277 373L384 118Q387 109 387 101Q386 89 379.0 78.5Q372 68 361 63L203 -2Q196 -5 186 -5Q174 -5 163.5 2.0Q153 9 148 21L42 276Q35 292 42.0 308.5Q49 325 65 332L222 397Q231 400 239 400ZM313 400H344Q362 400 374.5 387.5Q387 375 387 357V222ZM429 367 458 355Q474 348 481.0 332.0Q488 316 481 300L429 175ZM239 358 81 292 187 36 345 102ZM185 266 253 214 244 129 175 180Z" />
      </g>
    </svg>