<svg xmlns="http://www.w3.org/2000/svg" viewBox="0 0 512 384">
      <g transform="scale(1 -1) translate(0 -384)">
        <path d="M469 384H43Q25 384 12.5 371.5Q0 359 0 341V43Q0 25 12.5 12.5Q25 0 43 0H469Q487 0 499.5 12.5Q512 25 512 43V341Q512 359 499.5 371.5Q487 384 469 384ZM469 43H43V341H469ZM405 64 448 107 416 149H381Q373 171 373.0 192.0Q373 213 381 235H416L448 277L405 320Q362 286 347 235Q341 213 341.0 192.0Q341 171 347 149Q362 97 405 64ZM192 192Q219 192 237.5 210.5Q256 229 256.0 256.0Q256 283 237.5 301.5Q219 320 192.0 320.0Q165 320 146.5 301.5Q128 283 128.0 256.0Q128 229 146.5 210.5Q165 192 192 192ZM192 277Q201 277 207.0 271.0Q213 265 213.0 256.0Q213 247 207.0 241.0Q201 235 192.0 235.0Q183 235 177.0 241.0Q171 247 171.0 256.0Q171 265 177.0 271.0Q183 277 192 277ZM320 94Q320 119 296 138Q277 153 244 163Q216 171 192.0 171.0Q168 171 140 163Q107 153 88 138Q64 119 64 94V64H320ZM117 107Q130 115 151.0 121.5Q172 128 192.0 128.0Q212 128 233.0 121.5Q254 115 267 107Z" />
      </g>
    </svg>