<svg xmlns="http://www.w3.org/2000/svg" viewBox="0 0 512 384">
      <g transform="scale(1 -1) translate(0 -384)">
        <path d="M469 384H43Q25 384 12.5 371.5Q0 359 0 341V43Q0 25 12.5 12.5Q25 0 43 0H469Q487 0 499.5 12.5Q512 25 512 43V341Q512 359 499.5 371.5Q487 384 469 384ZM171 320Q197 320 216.0 301.5Q235 283 235.0 256.0Q235 229 216.0 210.5Q197 192 170.5 192.0Q144 192 125.5 210.5Q107 229 107.0 256.0Q107 283 125.5 301.5Q144 320 171 320ZM299 64H43V85Q43 105 66 121Q86 135 119 144Q147 151 170.5 151.0Q194 151 223 144Q255 135 275 121Q299 105 299 85ZM381 149H416L448 107L405 64Q362 97 347 149Q341 171 341.0 192.0Q341 213 347 235Q362 286 405 320L448 277L416 235H381Q373 213 373.0 192.0Q373 171 381 149Z" />
      </g>
    </svg>