<svg xmlns="http://www.w3.org/2000/svg" viewBox="64 -64 384 512">
      <g transform="scale(1 -1) translate(0 -384)">
        <path d="M405 448H192Q174 448 161.5 435.5Q149 423 149 405V64Q149 46 161.5 33.5Q174 21 192 21H405Q423 21 435.5 33.5Q448 46 448 64V405Q448 423 435.5 435.5Q423 448 405 448ZM405 64H192V405H405ZM64 363V-21Q64 -39 76.5 -51.5Q89 -64 107 -64H363V-21H107V363ZM299 326 286 316 276 307Q242 274 231 260Q213 238 213.0 218.0Q213 198 227.0 184.5Q241 171 260 171Q273 171 286 177L267 128H331L311 177Q321 171 337 171Q357 171 370.5 184.0Q384 197 384.0 217.5Q384 238 367 260Q355 274 321 307L311 316Z" />
      </g>
    </svg>