<svg xmlns="http://www.w3.org/2000/svg" viewBox="107 -21 298 426">
      <g transform="scale(1 -1) translate(0 -384)">
        <path d="M363 405H149Q132 405 119.5 392.5Q107 380 107 363V21Q107 4 119.5 -8.5Q132 -21 149 -21H363Q380 -21 392.5 -8.5Q405 4 405 21V363Q405 380 392.5 392.5Q380 405 363 405ZM363 21H149V363H363ZM218 256Q198 256 184.5 242.0Q171 228 171.0 208.5Q171 189 188 167Q199 153 234 120L243 111L256 100L269 111L278 120Q313 153 324 167Q341 189 341.0 209.0Q341 229 327.5 242.5Q314 256 294 256Q283 256 272.5 251.5Q262 247 256 239Q250 247 239.5 251.5Q229 256 218 256Z" />
      </g>
    </svg>