<svg xmlns="http://www.w3.org/2000/svg" viewBox="64 -64 384 512">
      <g transform="scale(1 -1) translate(0 -384)">
        <path d="M405 448H192Q174 448 161.5 435.5Q149 423 149 405V64Q149 46 161.5 33.5Q174 21 192 21H405Q423 21 435.5 33.5Q448 46 448 64V405Q448 423 435.5 435.5Q423 448 405 448ZM405 64H192V405H405ZM64 363V-21Q64 -39 76.5 -51.5Q89 -64 107 -64H363V-21H107V363ZM260 299Q241 299 227.0 285.0Q213 271 213.0 251.5Q213 232 231 209Q242 195 276 163L286 154L299 143L311 154L321 163Q355 195 367 209Q384 232 384.0 252.0Q384 272 370.5 285.5Q357 299 337 299Q326 299 315.5 294.5Q305 290 299 282Q292 290 282.0 294.5Q272 299 260 299Z" />
      </g>
    </svg>