<svg xmlns="http://www.w3.org/2000/svg" viewBox="85 -21 342 426">
      <g transform="scale(1 -1) translate(0 -384)">
        <path d="M235 85Q235 82 235 78Q235 68 232 56Q228 40 219 22Q209 1 192 -21H320Q289 19 280 56Q276 75 277 85L284 80Q294 73 306 70Q322 64 342.0 64.0Q362 64 382.0 76.5Q402 89 414.5 108.5Q427 128 427 149Q427 180 414 208Q404 232 383 257Q370 273 340.5 303.0Q311 333 296 350Q272 378 256 405Q240 378 216 350Q201 333 171.5 303.0Q142 273 129 257Q108 232 98 208Q85 180 85 149Q85 128 97.5 108.5Q110 89 130.0 76.5Q150 64 170.0 64.0Q190 64 206 70Q218 73 228 80ZM277 149H235L228 138Q218 126 206 118Q190 107 171 107Q156 107 142.0 121.0Q128 135 128 149Q126 179 151 214Q166 236 206 277Q242 314 256 333Q269 316 303 282Q345 239 360 217Q386 180 384 149Q384 135 370.0 121.0Q356 107 341 107Q315 107 293 128Q283 139 277 149Z" />
      </g>
    </svg>