<svg xmlns="http://www.w3.org/2000/svg" viewBox="38 -5 446 405">
      <g transform="scale(1 -1) translate(0 -395)">
        <path d="M239 400Q231 400 222 397L65 332Q49 325 42.0 308.5Q35 292 42 276L148 21Q153 9 163.5 2.0Q174 -5 186 -5Q196 -5 203 -2L361 63Q372 68 379.0 78.5Q386 89 387 101Q387 109 384 118L277 373Q273 385 262.0 392.5Q251 400 239 400ZM313 400 387 222V357Q387 375 374.5 387.5Q362 400 344 400ZM429 367V175L481 300Q488 316 481.0 332.0Q474 348 458 355ZM239 358 345 102 187 36 81 292Z" />
      </g>
    </svg>