<svg xmlns="http://www.w3.org/2000/svg" viewBox="38 -4 444 405">
      <g transform="scale(1 -1) translate(0 -397)">
        <path d="M314 401H346Q363 401 375.5 388.5Q388 376 388 358V222ZM429 367 457 354Q472 348 479.0 331.5Q486 315 480 299L429 173ZM384 117 277 373Q273 386 262.5 392.5Q252 399 239 399Q234 399 226 396L64 331Q48 324 41.5 308.5Q35 293 43 277L149 21Q154 9 164.5 2.5Q175 -4 188 -4Q198 -4 205 0L363 64Q375 69 381.5 79.0Q388 89 388 102Q387 105 386.0 110.0Q385 115 384 117ZM243 128 175 179 183 265 252 213Z" />
      </g>
    </svg>