<svg xmlns="http://www.w3.org/2000/svg" viewBox="0 -55 512 439">
      <g transform="scale(1 -1) translate(0 -329)">
        <path d="M427 -23 479 -55 465 5 512 45 450 50 427 107 403 50 341 45 388 5 373 -55ZM300 0H43Q25 1 13.0 13.0Q1 25 0 43V341Q1 359 13.0 371.0Q25 383 43 384H469Q487 383 499.0 371.0Q511 359 512 341V117Q494 133 469 142V341H43V43H300Q299 31 299.0 21.0Q299 11 300 0ZM299 85H85V112Q85 128 105 142Q122 153 149 159Q172 165 192.0 165.0Q212 165 235 159Q262 153 279 142Q299 128 299 112ZM299 213H384V192H299ZM192 299Q170 299 154.5 283.0Q139 267 139.0 245.0Q139 223 154.5 207.5Q170 192 192.0 192.0Q214 192 229.5 207.5Q245 223 245.0 245.0Q245 267 229.5 283.0Q214 299 192 299ZM299 256H427V235H299ZM299 299H427V277H299Z" />
      </g>
    </svg>