<svg xmlns="http://www.w3.org/2000/svg" viewBox="0 0 512 384">
      <g transform="scale(1 -1) translate(0 -384)">
        <path d="M43 384H469Q486 384 499.0 371.0Q512 358 512 341V43Q512 26 499.0 13.0Q486 0 469 0H43Q26 0 13.0 13.0Q0 26 0 43V341Q0 358 13.0 371.0Q26 384 43 384ZM299 320V299H469V320ZM299 277V256H469V277ZM299 235V213H448V235ZM171 151Q147 151 119 144Q86 135 66 121Q43 105 43 85V64H299V85Q299 105 275 121Q255 135 223 144Q194 151 171 151ZM171 320Q144 320 125.5 301.5Q107 283 107.0 256.0Q107 229 125.5 210.5Q144 192 170.5 192.0Q197 192 216.0 210.5Q235 229 235.0 256.0Q235 283 216.0 301.5Q197 320 171 320Z" />
      </g>
    </svg>