<svg xmlns="http://www.w3.org/2000/svg" viewBox="64 -21 384 426">
      <g transform="scale(1 -1) translate(0 -384)">
        <path d="M354 245Q363 271 363 288Q363 320 348.5 347.0Q334 374 309.5 389.5Q285 405 256.0 405.0Q227 405 202.5 389.5Q178 374 163.5 347.0Q149 320 149 288Q149 262 158 245Q118 244 91.0 218.0Q64 192 64.0 153.0Q64 114 91.5 89.0Q119 64 160 64L175 65Q192 66 206 70Q225 76 235 85V78Q235 68 232 56Q228 40 219 22Q209 1 192 -21H320Q289 19 280 56Q276 75 277 85Q287 76 306 70Q320 66 337 65L352 64Q393 64 420.5 89.0Q448 114 448.0 153.0Q448 192 421.0 218.0Q394 244 354 245ZM352 107Q345 107 337 107Q320 109 306 113Q287 119 277 128H235Q221 115 189 109Q173 107 160 107Q139 107 124 118Q107 131 107.0 152.5Q107 174 122.5 188.5Q138 203 160 203Q166 203 188 198Q189 198 191.0 197.0Q193 196 194 196L213 233Q209 237 205 245Q192 265 192 288Q192 319 210.5 341.0Q229 363 256.0 363.0Q283 363 301.5 341.0Q320 319 320 288Q320 262 307 243L301 233L320 196Q321 196 323.0 197.0Q325 198 326 198Q343 203 354 203Q377 203 392.0 188.5Q407 174 407 154Q406 131 389 118Q373 107 352 107Z" />
      </g>
    </svg>