<svg xmlns="http://www.w3.org/2000/svg" viewBox="43 21 426 342">
      <g transform="scale(1 -1) translate(0 -384)">
        <path d="M245 256Q223 256 207.5 240.5Q192 225 192.0 203.0Q192 181 207.5 165.0Q223 149 245.0 149.0Q267 149 283.0 165.0Q299 181 299.0 203.0Q299 225 283.0 240.5Q267 256 245 256ZM427 363H85Q68 363 55.5 350.5Q43 338 43 320V64Q43 46 55.5 33.5Q68 21 85 21H427Q444 21 456.5 33.5Q469 46 469 64V320Q469 338 456.5 350.5Q444 363 427 363ZM358 60 296 122Q273 107 245 107Q205 107 177.0 135.0Q149 163 149.0 203.0Q149 243 177.0 271.0Q205 299 245.0 299.0Q285 299 313.0 271.0Q341 243 341 203Q341 175 326 152L388 90Z" />
      </g>
    </svg>