<svg xmlns="http://www.w3.org/2000/svg" viewBox="85 -21 342 426">
      <g transform="scale(1 -1) translate(0 -384)">
        <path d="M256 405Q240 378 216 350Q201 333 171.5 303.0Q142 273 129 257Q108 232 98 208Q85 180 85 149Q85 128 97.5 108.5Q110 89 130.0 76.5Q150 64 171.0 64.0Q192 64 203 67Q220 71 235 85V78Q235 68 232 56Q228 40 220 22Q209 1 192 -21H320Q293 19 283 56Q277 75 277 85Q292 71 309 67Q320 64 341.0 64.0Q362 64 382.0 76.5Q402 89 414.5 108.5Q427 128 427 149Q427 180 414 208Q404 232 383 257Q370 273 340.5 303.0Q311 333 296 350Q272 378 256 405Z" />
      </g>
    </svg>