<svg xmlns="http://www.w3.org/2000/svg" viewBox="171 -21 175 426">
      <g transform="scale(1 -1) translate(0 -384)">
        <path d="M341 235 337 213H288Q284 213 280.5 210.0Q277 207 277.0 202.5Q277 198 280.5 195.0Q284 192 288 192H333L311 85H267Q262 85 259.0 82.0Q256 79 256.0 74.5Q256 70 259.0 67.0Q262 64 267 64H307L299 21Q299 4 286.5 -8.5Q274 -21 256.0 -21.0Q238 -21 225.5 -8.5Q213 4 213 21L192 128H224Q228 128 231.5 131.0Q235 134 235.0 138.5Q235 143 231.5 146.0Q228 149 224 149H188L171 235Q171 254 184.0 269.5Q197 285 220 292L190 335Q185 343 186.5 351.5Q188 360 195.5 365.0Q203 370 211.5 368.5Q220 367 225 360L235 346V384Q235 393 241.0 399.0Q247 405 256.0 405.0Q265 405 271.0 399.0Q277 393 277 384V335L309 372Q315 379 323.5 380.0Q332 381 339.0 375.0Q346 369 346.5 360.5Q347 352 341 345L296 291Q317 283 329.0 268.0Q341 253 341 235Z" />
      </g>
    </svg>