<svg xmlns="http://www.w3.org/2000/svg" viewBox="0 -64 485 485">
      <g transform="scale(1 -1) translate(0 -357)">
        <path d="M485 -37 27 421 0 394 94 300 141 201 112 148Q107 139 107 128Q107 110 119.5 97.5Q132 85 149 85H308L338 56Q330 50 325.0 41.0Q320 32 320 21Q320 4 332.5 -8.5Q345 -21 363 -21Q385 -21 397 -3L458 -64ZM158 128Q156 128 154.5 129.5Q153 131 153 133L154 136L173 171H223L266 128ZM332 171Q344 171 354.0 177.0Q364 183 369 193L445 331Q448 336 448 341Q448 350 442.0 356.5Q436 363 427 363H140ZM149 64Q132 64 119.5 51.5Q107 39 107.0 21.5Q107 4 119.5 -8.5Q132 -21 149.5 -21.0Q167 -21 179.5 -8.5Q192 4 192.0 21.5Q192 39 179.5 51.5Q167 64 149 64Z" />
      </g>
    </svg>