<svg xmlns="http://www.w3.org/2000/svg" viewBox="21 -21 431 448">
      <g transform="scale(1 -1) translate(0 -406)">
        <path d="M149 64Q167 64 179.5 51.5Q192 39 192.0 21.5Q192 4 179.5 -8.5Q167 -21 149.5 -21.0Q132 -21 119.5 -8.5Q107 4 107.0 21.5Q107 39 119.5 51.5Q132 64 149 64ZM363 64Q380 64 392.5 51.5Q405 39 405.0 21.5Q405 4 392.5 -8.5Q380 -21 362.5 -21.0Q345 -21 332.5 -8.5Q320 4 320.0 21.5Q320 39 332.5 51.5Q345 64 363 64ZM154 132Q154 131 155.0 129.5Q156 128 158 128H405V85H149Q132 85 119.5 97.5Q107 110 107 128Q107 137 111 149L139 201L64 363H21V405H92L183 213H333L416 363L452 341L369 192Q364 182 354.0 176.5Q344 171 333 171H173L154 137ZM201 427Q213 427 221.5 418.5Q230 410 230.0 397.0Q230 384 221.5 375.5Q213 367 200.5 367.0Q188 367 179.5 375.5Q171 384 171.0 396.5Q171 409 180.0 418.0Q189 427 201 427ZM311 256Q299 256 290.5 264.5Q282 273 282.0 286.0Q282 299 290.5 307.5Q299 316 311.5 316.0Q324 316 332.5 307.5Q341 299 341.0 286.0Q341 273 332.0 264.5Q323 256 311 256ZM196 256 171 282 316 427 341 401Z" />
      </g>
    </svg>