<svg xmlns="http://www.w3.org/2000/svg" viewBox="21 -21 427 426">
      <g transform="scale(1 -1) translate(0 -384)">
        <path d="M192 21Q192 4 179.5 -8.5Q167 -21 149.5 -21.0Q132 -21 119.5 -8.5Q107 4 107.0 21.5Q107 39 119.5 51.5Q132 64 149.5 64.0Q167 64 179.5 51.5Q192 39 192 21ZM363 64Q345 64 332.5 51.5Q320 39 320.0 21.5Q320 4 332.5 -8.5Q345 -21 362.5 -21.0Q380 -21 392.5 -8.5Q405 4 405.0 21.5Q405 39 392.5 51.5Q380 64 363 64ZM154 136Q153 135 153.5 133.0Q154 131 155.5 129.5Q157 128 159 128H405V85H149Q132 85 119.5 97.5Q107 110 107 128Q107 140 112 149L141 201L64 363H21V405H91L111 363H427Q436 363 442.0 356.5Q448 350 448 341Q448 337 445 331L369 192Q363 182 353.0 176.5Q343 171 332 171H173ZM192 245H277V203L341 267L277 331V288H192Z" />
      </g>
    </svg>