<svg xmlns="http://www.w3.org/2000/svg" viewBox="21 -21 429 426">
      <g transform="scale(1 -1) translate(0 -384)">
        <path d="M192 21Q192 4 179.5 -8.5Q167 -21 149.5 -21.0Q132 -21 119.5 -8.5Q107 4 107.0 21.5Q107 39 119.5 51.5Q132 64 149.5 64.0Q167 64 179.5 51.5Q192 39 192 21ZM363 64Q345 64 332.5 51.5Q320 39 320.0 21.5Q320 4 332.5 -8.5Q345 -21 362.5 -21.0Q380 -21 392.5 -8.5Q405 4 405.0 21.5Q405 39 392.5 51.5Q380 64 363 64ZM154 132V134L173 171H331Q342 171 352.0 176.5Q362 182 367 192L450 341L414 363L331 213H181L92 405H21V363H64L141 201L111 149Q107 137 107 128Q107 110 119.5 97.5Q132 85 149 85H405V128H158Q156 128 155.0 129.5Q154 131 154 132ZM256 250 243 260 234 269Q199 302 188 316Q171 338 171.0 358.0Q171 378 184.5 391.5Q198 405 218 405Q229 405 239.5 400.5Q250 396 256 388Q262 396 272.5 400.5Q283 405 294 405Q314 405 327.5 392.0Q341 379 341.0 358.5Q341 338 324 316Q313 302 278 269L269 260Z" />
      </g>
    </svg>