<svg xmlns="http://www.w3.org/2000/svg" viewBox="21 -21 427 426">
      <g transform="scale(1 -1) translate(0 -384)">
        <path d="M405 21Q405 4 392.5 -8.5Q380 -21 362.5 -21.0Q345 -21 332.5 -8.5Q320 4 320.0 21.5Q320 39 332.5 51.5Q345 64 362.5 64.0Q380 64 392.5 51.5Q405 39 405 21ZM149 64Q132 64 119.5 51.5Q107 39 107.0 21.5Q107 4 119.5 -8.5Q132 -21 149.5 -21.0Q167 -21 179.5 -8.5Q192 4 192.0 21.5Q192 39 179.5 51.5Q167 64 149 64ZM154 136 153 133Q153 131 154.5 129.5Q156 128 158 128H405V85H149Q132 85 119.5 97.5Q107 110 107 128Q107 139 112 148L141 201L64 363H21V405H91L111 363H427Q435 363 441.5 356.5Q448 350 448 341Q448 337 445 331L369 193Q364 183 354.0 177.0Q344 171 332 171H173ZM181 213H213V256H161ZM235 256V213H299V256ZM299 277V320H235V277ZM365 256H320V213H341ZM401 320H320V277H377ZM131 320 151 277H213V320Z" />
      </g>
    </svg>