<svg xmlns="http://www.w3.org/2000/svg" viewBox="21 -21 431 437">
      <g transform="scale(1 -1) translate(0 -395)">
        <path d="M301 267 256 311 211 267 181 297 226 341 181 386 211 416 256 371 301 416 331 386 286 341 331 297ZM149 64Q167 64 179.5 51.5Q192 39 192.0 21.5Q192 4 179.5 -8.5Q167 -21 149.5 -21.0Q132 -21 119.5 -8.5Q107 4 107.0 21.5Q107 39 119.5 51.5Q132 64 149 64ZM363 64Q380 64 392.5 51.5Q405 39 405.0 21.5Q405 4 392.5 -8.5Q380 -21 362.5 -21.0Q345 -21 332.5 -8.5Q320 4 320.0 21.5Q320 39 332.5 51.5Q345 64 363 64ZM154 132Q154 131 155.0 129.5Q156 128 158 128H405V85H149Q132 85 119.5 97.5Q107 110 107 128Q107 137 111 149L139 201L64 363H21V405H92L183 213H333L416 363L452 341L369 192Q364 182 354.0 176.5Q344 171 333 171H173L154 137Z" />
      </g>
    </svg>