<svg xmlns="http://www.w3.org/2000/svg" viewBox="21 -21 429 469">
      <g transform="scale(1 -1) translate(0 -427)">
        <path d="M256 448 171 363H213V277H299V363H341ZM21 405V363H64L141 201L111 149Q107 137 107 128Q107 110 119.5 97.5Q132 85 149 85H405V128H158Q156 128 155.0 129.5Q154 131 154 132V134L173 171H331Q342 171 352.0 176.5Q362 182 367 192L450 341L414 363L331 213H181L92 405ZM149 64Q132 64 119.5 51.5Q107 39 107.0 21.5Q107 4 119.5 -8.5Q132 -21 149.5 -21.0Q167 -21 179.5 -8.5Q192 4 192.0 21.5Q192 39 179.5 51.5Q167 64 149 64ZM363 64Q345 64 332.5 51.5Q320 39 320.0 21.5Q320 4 332.5 -8.5Q345 -21 362.5 -21.0Q380 -21 392.5 -8.5Q405 4 405.0 21.5Q405 39 392.5 51.5Q380 64 363 64Z" />
      </g>
    </svg>