<svg xmlns="http://www.w3.org/2000/svg" viewBox="21 -21 427 426">
      <g transform="scale(1 -1) translate(0 -384)">
        <path d="M363 64Q345 64 332.5 51.5Q320 39 320.0 21.5Q320 4 332.5 -8.5Q345 -21 362.5 -21.0Q380 -21 392.5 -8.5Q405 4 405.0 21.5Q405 39 392.5 51.5Q380 64 363 64ZM21 405V363H64L141 201L112 148Q107 139 107 128Q107 110 119.5 97.5Q132 85 149 85H405V128H158Q156 128 154.5 129.5Q153 131 153.0 133.0Q153 135 154 136L173 171H332Q344 171 354.0 177.0Q364 183 369 193L445 331Q448 337 448 341Q448 350 442.0 356.5Q436 363 427 363H111L91 405ZM149 64Q132 64 119.5 51.5Q107 39 107.0 21.5Q107 4 119.5 -8.5Q132 -21 149.5 -21.0Q167 -21 179.5 -8.5Q192 4 192.0 21.5Q192 39 179.5 51.5Q167 64 149 64Z" />
      </g>
    </svg>