<svg xmlns="http://www.w3.org/2000/svg" viewBox="43 -21 426 405">
      <g transform="scale(1 -1) translate(0 -363)">
        <path d="M427 149Q427 173 417.5 182.5Q408 192 384 192H341V213Q341 225 339.5 229.0Q338 233 329 234Q322 235 299 235V43H384Q408 43 417.5 52.5Q427 62 427 85ZM256 192Q256 216 246.5 225.5Q237 235 213 235H128Q104 235 94.5 225.5Q85 216 85 192V43H128V107H213V43H256ZM213 299H299V341H213ZM469 256V21Q469 4 456.5 -8.5Q444 -21 427 -21H85Q68 -21 55.5 -8.5Q43 4 43 21V256Q43 274 55.5 286.5Q68 299 85 299H171V341L213 384H299L341 341V299H427Q444 299 456.5 286.5Q469 274 469 256ZM341 85H384V149H341ZM128 192H213V149H128Z" />
      </g>
    </svg>