<svg xmlns="http://www.w3.org/2000/svg" viewBox="43 21 426 320">
      <g transform="scale(1 -1) translate(0 -362)">
        <path d="M43 341H469V21H43ZM427 64V299H85V64ZM363 277Q363 260 375.5 247.5Q388 235 405 235V128Q388 128 375.5 115.5Q363 103 363 85H149Q149 103 136.5 115.5Q124 128 107 128V235Q124 235 136.5 247.5Q149 260 149 277ZM363 171V192Q363 210 353.5 222.5Q344 235 330.5 235.0Q317 235 308.0 222.5Q299 210 299 192V171Q299 153 308.0 140.5Q317 128 330.5 128.0Q344 128 353.5 140.5Q363 153 363 171ZM331 213Q335 213 338.0 210.0Q341 207 341 203V160Q341 156 338.0 152.5Q335 149 330.5 149.0Q326 149 323.0 152.5Q320 156 320 160V203Q320 207 323.0 210.0Q326 213 331 213ZM277 171V192Q277 210 268.0 222.5Q259 235 245.5 235.0Q232 235 222.5 222.5Q213 210 213 192V171Q213 153 222.5 140.5Q232 128 245.5 128.0Q259 128 268.0 140.5Q277 153 277 171ZM245 213Q250 213 253.0 210.0Q256 207 256 203V160Q256 156 253.0 152.5Q250 149 245.5 149.0Q241 149 238.0 152.5Q235 156 235 160V203Q235 207 238.0 210.0Q241 213 245 213ZM171 128H192V235H171L149 224V203L171 213Z" />
      </g>
    </svg>