<svg xmlns="http://www.w3.org/2000/svg" viewBox="64 64 384 256">
      <g transform="scale(1 -1) translate(0 -384)">
        <path d="M64 320H448V64H64ZM256 256Q283 256 301.5 237.5Q320 219 320.0 192.0Q320 165 301.5 146.5Q283 128 256.0 128.0Q229 128 210.5 146.5Q192 165 192.0 192.0Q192 219 210.5 237.5Q229 256 256 256ZM149 277Q149 260 136.5 247.5Q124 235 107 235V149Q124 149 136.5 136.5Q149 124 149 107H363Q363 124 375.5 136.5Q388 149 405 149V235Q388 235 375.5 247.5Q363 260 363 277Z" />
      </g>
    </svg>