<svg xmlns="http://www.w3.org/2000/svg" viewBox="64 -21 427 341">
      <g transform="scale(1 -1) translate(0 -299)">
        <path d="M64 320V64H284Q277 85 277 107H149Q149 124 136.5 136.5Q124 149 107 149V235Q124 235 136.5 247.5Q149 260 149 277H363Q363 260 375.5 247.5Q388 235 405 235V233Q426 233 448 226V320ZM256 256Q229 256 210.5 237.5Q192 219 192.0 192.0Q192 165 210.5 147.0Q229 129 256 128Q268 128 280 133Q285 153 293 167Q303 185 319 200Q317 222 299.0 239.0Q281 256 256 256ZM405 213 453 165 405 117V149Q386 149 372.0 137.5Q358 126 353.5 107.5Q349 89 358 72L334 49Q316 76 321.0 107.5Q326 139 349.0 160.0Q372 181 405 181ZM405 -21 357 27 405 75V43Q425 43 439.0 54.5Q453 66 457.5 84.5Q462 103 453 120L476 143Q495 116 490.0 84.5Q485 53 461.5 32.0Q438 11 405 11Z" />
      </g>
    </svg>