<svg xmlns="http://www.w3.org/2000/svg" viewBox="64 -43 384 459">
      <g transform="scale(1 -1) translate(0 -373)">
        <path d="M262 257 211 309H331V235H363V341H211L262 393L240 416L149 325L240 235ZM256 149Q229 149 210.5 130.5Q192 112 192.0 85.5Q192 59 210.5 40.0Q229 21 256.0 21.0Q283 21 301.5 40.0Q320 59 320.0 85.5Q320 112 301.5 130.5Q283 149 256 149ZM64 213V-43H448V213ZM405 43Q388 43 375.5 30.5Q363 18 363 0H149Q149 18 136.5 30.5Q124 43 107 43V128Q124 128 136.5 140.5Q149 153 149 171H363Q363 153 375.5 140.5Q388 128 405 128Z" />
      </g>
    </svg>