<svg xmlns="http://www.w3.org/2000/svg" viewBox="64 43 427 277">
      <g transform="scale(1 -1) translate(0 -363)">
        <path d="M64 320V64H284Q277 85 277 107H149Q149 124 136.5 136.5Q124 149 107 149V235Q124 235 136.5 247.5Q149 260 149 277H363Q363 260 375.5 247.5Q388 235 405 235V233Q426 233 448 226V320ZM256 256Q229 256 210.5 237.5Q192 219 192.0 192.0Q192 165 210.5 147.0Q229 129 256 128Q268 128 280 133Q285 153 293 167Q303 185 319 200Q317 222 299.0 239.0Q281 256 256 256ZM461 186 379 103 350 132 320 102 379 43 491 156Z" />
      </g>
    </svg>