<svg xmlns="http://www.w3.org/2000/svg" viewBox="0 64 491 256">
      <g transform="scale(1 -1) translate(0 -384)">
        <path d="M365 237Q346 256 320.0 256.0Q294 256 275.0 237.0Q256 218 256.0 192.0Q256 166 275.0 147.0Q294 128 320.0 128.0Q346 128 365.0 147.0Q384 166 384.0 192.0Q384 218 365 237ZM149 320V64H491V320ZM448 149Q430 149 417.5 136.5Q405 124 405 107H235Q235 124 222.5 136.5Q210 149 192 149V235Q210 235 222.5 247.5Q235 260 235 277H405Q405 260 417.5 247.5Q430 235 448 235ZM107 277H64Q55 277 49.0 283.5Q43 290 43.0 298.5Q43 307 49.0 313.5Q55 320 64 320H107ZM107 171H43Q34 171 27.5 177.0Q21 183 21.0 192.0Q21 201 27.5 207.0Q34 213 43 213H107ZM107 64H21Q13 64 6.5 70.5Q0 77 0.0 85.5Q0 94 6.5 100.5Q13 107 21 107H107Z" />
      </g>
    </svg>