<svg xmlns="http://www.w3.org/2000/svg" viewBox="43 0 448 320">
      <g transform="scale(1 -1) translate(0 -320)">
        <path d="M465 128Q475 128 483.0 119.5Q491 111 491 100V26Q491 16 482.5 8.0Q474 0 463 0H346Q336 0 328.0 8.5Q320 17 320 28V102Q320 112 328.0 120.0Q336 128 346 128V160Q346 182 364.0 197.5Q382 213 405.0 213.0Q428 213 446.5 197.5Q465 182 465 160ZM437 128V160Q437 172 428.0 180.0Q419 188 405.5 188.0Q392 188 382.5 180.0Q373 172 373 160V128ZM43 320H427V254L405 256Q380 256 357 244Q341 257 341 277H128Q128 260 115.5 247.5Q103 235 85 235V149Q103 149 115.5 136.5Q128 124 128 107H278L277 96V64H43ZM235 256Q261 256 280.0 237.5Q299 219 299.0 192.0Q299 165 280.0 146.5Q261 128 234.5 128.0Q208 128 189.5 146.5Q171 165 171.0 192.0Q171 219 189.5 237.5Q208 256 235 256Z" />
      </g>
    </svg>