<svg xmlns="http://www.w3.org/2000/svg" viewBox="43 -64 469 427">
      <g transform="scale(1 -1) translate(0 -299)">
        <path d="M373 89 425 59 409 31 341 71V149H373ZM512 85Q512 45 492.0 10.5Q472 -24 437.5 -44.0Q403 -64 362.5 -64.0Q322 -64 287.5 -44.0Q253 -24 233.0 10.5Q213 45 213 85Q213 95 215 107H43V363H427V220Q465 202 488.5 165.5Q512 129 512 85ZM228 149Q234 162 241 171Q239 171 235 171Q208 171 189.5 189.5Q171 208 171.0 234.5Q171 261 189.5 280.0Q208 299 234.5 299.0Q261 299 280.0 280.0Q299 261 299 235Q299 227 297 219Q328 235 363 235Q373 235 384 233V277Q366 277 353.5 289.5Q341 302 341 320H128Q128 302 115.5 289.5Q103 277 85 277V192Q103 192 115.5 179.5Q128 167 128 149ZM469 85Q469 114 455.0 138.5Q441 163 416.5 177.5Q392 192 363.0 192.0Q334 192 309.5 177.5Q285 163 270.5 138.5Q256 114 256.0 85.0Q256 56 270.5 31.5Q285 7 309.5 -7.0Q334 -21 363.0 -21.0Q392 -21 416.5 -7.0Q441 7 455.0 31.5Q469 56 469 85Z" />
      </g>
    </svg>