<svg xmlns="http://www.w3.org/2000/svg" viewBox="64 31 417 289">
      <g transform="scale(1 -1) translate(0 -351)">
        <path d="M330 61 360 31 405 77 451 31 481 61 435 107 481 152 451 182 405 137 360 182 330 152 375 107ZM319 200Q318 222 299.5 239.0Q281 256 256 256Q229 255 210.5 237.0Q192 219 192.0 192.0Q192 165 210.5 147.0Q229 129 256 128Q268 128 280 133Q285 153 293 167Q303 185 319 200ZM277 107H149Q149 124 136.5 136.5Q124 149 107 149V235Q124 235 136.5 247.5Q149 260 149 277H363Q363 260 375.5 247.5Q388 235 405 235V234Q427 233 448 226V320H64V64H284Q277 85 277 107Z" />
      </g>
    </svg>