<svg xmlns="http://www.w3.org/2000/svg" viewBox="64 -21 405 341">
      <g transform="scale(1 -1) translate(0 -299)">
        <path d="M395 90Q384 90 376.5 97.5Q369 105 369.0 115.5Q369 126 377.0 133.5Q385 141 394.5 141.0Q404 141 412.0 133.0Q420 125 421.0 115.5Q422 106 414.0 98.0Q406 90 395 90ZM395 192Q364 192 342.0 170.0Q320 148 320 117Q320 93 339 57Q353 31 375 2L395 -21L414 2Q436 31 450 57Q469 93 469 117Q469 148 447.0 170.0Q425 192 395 192ZM318 207Q313 228 295.5 242.0Q278 256 256 256Q229 256 210.5 237.5Q192 219 192.0 192.0Q192 165 210.5 146.5Q229 128 256 128Q265 128 277 132Q284 176 318 207ZM277 107H149Q149 124 136.5 136.5Q124 149 107 149V235Q124 235 136.5 247.5Q149 260 149 277H363Q363 260 375.5 247.5Q388 235 405 235L419 233Q435 230 448 222V320H64V64H288L286 72Q279 94 277 107Z" />
      </g>
    </svg>