<svg xmlns="http://www.w3.org/2000/svg" viewBox="43 -21 448 341">
      <g transform="scale(1 -1) translate(0 -299)">
        <path d="M465 107Q475 107 483.0 98.5Q491 90 491 79V4Q491 -6 482.5 -13.5Q474 -21 463 -21H346Q336 -21 328.0 -13.0Q320 -5 320 6V81Q320 91 328.0 99.0Q336 107 346 107V160Q346 182 364.0 197.5Q382 213 405.0 213.0Q428 213 446.5 197.5Q465 182 465 160V149H437V160Q437 172 428.0 180.0Q419 188 405.5 188.0Q392 188 382.5 180.0Q373 172 373 160V107ZM43 320H427V254L405 256Q380 256 357 244Q341 257 341 277H128Q128 260 115.5 247.5Q103 235 85 235V149Q103 149 115.5 136.5Q128 124 128 107H278L277 96V64H43ZM235 256Q261 256 280.0 237.5Q299 219 299.0 192.0Q299 165 280.0 146.5Q261 128 234.5 128.0Q208 128 189.5 146.5Q171 165 171.0 192.0Q171 219 189.5 237.5Q208 256 235 256Z" />
      </g>
    </svg>