<svg xmlns="http://www.w3.org/2000/svg" viewBox="43 43 426 298">
      <g transform="scale(1 -1) translate(0 -384)">
        <path d="M85 341Q68 341 55.5 328.5Q43 316 43 299V85Q43 68 55.5 55.5Q68 43 85 43H128L149 85H363L384 43H427Q444 43 456.5 55.5Q469 68 469 85V299Q469 316 456.5 328.5Q444 341 427 341ZM139 235Q152 235 161.5 225.5Q171 216 171.0 202.5Q171 189 161.5 180.0Q152 171 138.5 171.0Q125 171 116.0 180.0Q107 189 107.0 202.5Q107 216 116.0 225.5Q125 235 139 235ZM192 235H320V171H192ZM373 235Q387 235 396.0 225.5Q405 216 405.0 202.5Q405 189 396.0 180.0Q387 171 373.5 171.0Q360 171 350.5 180.0Q341 189 341.0 202.5Q341 216 350.5 225.5Q360 235 373 235Z" />
      </g>
    </svg>