<svg xmlns="http://www.w3.org/2000/svg" viewBox="43 -21 426 426">
      <g transform="scale(1 -1) translate(0 -384)">
        <path d="M43 213V171Q95 171 139.0 145.0Q183 119 209.0 75.0Q235 31 235 -21H277Q277 43 245.5 96.5Q214 150 160.5 181.5Q107 213 43 213ZM427 405H213Q196 405 183.5 392.5Q171 380 171 363V224Q197 211 228 183Q243 207 267.5 221.0Q292 235 320.5 235.0Q349 235 373.5 220.5Q398 206 412.5 181.5Q427 157 427.0 128.0Q427 99 412.5 74.5Q398 50 373.5 35.5Q349 21 320 21H316V16Q320 -8 320 -21H427Q444 -21 456.5 -8.5Q469 4 469 21V363Q469 380 456.5 392.5Q444 405 427 405ZM320 277Q302 277 289.5 289.5Q277 302 277.0 320.0Q277 338 289.5 350.5Q302 363 320.0 363.0Q338 363 350.5 350.5Q363 338 363.0 320.0Q363 302 350.5 289.5Q338 277 320 277ZM320 64Q309 64 305 66Q290 112 260 151Q267 170 283.5 182.0Q300 194 320 194Q347 194 365.5 175.5Q384 157 384.0 130.0Q384 103 365.5 83.5Q347 64 320 64ZM43 128V85Q72 85 96.5 71.0Q121 57 135.0 32.5Q149 8 149 -21H192Q192 20 172.0 54.0Q152 88 118.0 108.0Q84 128 43 128ZM43 43V-21H107Q107 6 88.5 24.5Q70 43 43 43Z" />
      </g>
    </svg>