<svg xmlns="http://www.w3.org/2000/svg" viewBox="21 0 470 384">
      <g transform="scale(1 -1) translate(0 -384)">
        <path d="M448 384H64Q46 384 33.5 371.5Q21 359 21 341V277H64V341H448V43H299V0H448Q466 0 478.5 12.5Q491 25 491 43V341Q491 359 478.5 371.5Q466 384 448 384ZM21 235V192Q73 192 117.5 166.0Q162 140 187.5 96.0Q213 52 213 0H256Q256 64 224.5 118.0Q193 172 139.0 203.5Q85 235 21 235ZM405 299H107V264Q170 243 217.5 196.0Q265 149 285 85H405ZM21 149V107Q50 107 74.5 92.5Q99 78 113.5 53.5Q128 29 128 0H171Q171 30 159.5 57.5Q148 85 127.0 106.0Q106 127 78.5 138.0Q51 149 21 149ZM21 64V0H85Q85 27 66.5 45.5Q48 64 21 64Z" />
      </g>
    </svg>