<svg xmlns="http://www.w3.org/2000/svg" viewBox="43 -21 426 426">
      <g transform="scale(1 -1) translate(0 -384)">
        <path d="M309 192Q309 214 293.5 229.5Q278 245 256.0 245.0Q234 245 218.5 229.5Q203 214 203 192Q203 176 211.0 163.5Q219 151 233 144L209 121Q192 132 181.5 151.0Q171 170 171 192Q171 227 196.0 252.0Q221 277 256.0 277.0Q291 277 316.0 252.0Q341 227 341 192Q341 170 330.5 151.0Q320 132 303 121L279 144Q293 151 301.0 163.5Q309 176 309 192ZM256 405Q198 405 149.0 376.5Q100 348 71.5 299.0Q43 250 43 192Q43 144 63.0 101.5Q83 59 118 29L141 52Q110 77 92.5 114.0Q75 151 75 192Q75 241 99.0 283.0Q123 325 165.0 349.0Q207 373 256.0 373.0Q305 373 347.0 349.0Q389 325 413.0 283.0Q437 241 437 192Q437 151 419.5 114.0Q402 77 371 52L394 29Q429 59 449.0 101.5Q469 144 469 192Q469 250 440.5 299.0Q412 348 363.0 376.5Q314 405 256 405ZM405 192Q405 233 385.0 267.0Q365 301 331.0 321.0Q297 341 256.0 341.0Q215 341 181.0 321.0Q147 301 127.0 267.0Q107 233 107 192Q107 157 122.0 126.5Q137 96 164 75L187 97Q164 114 151.5 138.5Q139 163 139 192Q139 224 154.5 251.0Q170 278 197.0 293.5Q224 309 256.0 309.0Q288 309 315.0 293.5Q342 278 357.5 251.0Q373 224 373 192Q373 163 360.5 138.5Q348 114 325 97L348 75Q375 96 390.0 126.5Q405 157 405 192ZM128 -21H384L256 107Z" />
      </g>
    </svg>