<svg xmlns="http://www.w3.org/2000/svg" viewBox="44 21 424 331">
      <g transform="scale(1 -1) translate(0 -373)">
        <path d="M256 277 228 275Q205 303 179 322Q140 352 107 352L101 341Q94 326 91 310Q86 287 89 263Q92 234 106 205L103 200Q94 187 91 180Q86 170 85 157L44 150L49 129L86 135L89 120L56 100L66 81L97 100Q115 62 158 41Q200 21 256.0 21.0Q312 21 354 41Q397 62 415 100L446 81L456 100L423 120L426 135L463 129L468 150L427 157Q426 170 421 180Q418 187 409 200L406 205Q420 234 423 263Q426 287 421 310Q418 326 411 341L405 352Q372 352 333 322Q307 303 284 275ZM192 213Q201 213 207.0 207.0Q213 201 213.0 192.0Q213 183 207.0 177.0Q201 171 192.0 171.0Q183 171 177.0 177.0Q171 183 171.0 192.0Q171 201 177.0 207.0Q183 213 192 213ZM320 213Q329 213 335.0 207.0Q341 201 341.0 192.0Q341 183 335.0 177.0Q329 171 320.0 171.0Q311 171 305.0 177.0Q299 183 299.0 192.0Q299 201 305.0 207.0Q311 213 320 213ZM235 149H277L262 120Q266 109 274.0 102.5Q282 96 293 96Q307 96 316.0 105.5Q325 115 325 128H336Q336 110 323.5 97.5Q311 85 293 85Q282 85 272.0 91.0Q262 97 256 107Q250 97 240.0 91.0Q230 85 219 85Q201 85 188.5 97.5Q176 110 176 128H187Q187 115 196.0 105.5Q205 96 219 96Q230 96 238.0 102.5Q246 109 250 120Z" />
      </g>
    </svg>