<svg xmlns="http://www.w3.org/2000/svg" viewBox="24 -37 448 448">
      <g transform="scale(1 -1) translate(0 -374)">
        <path d="M445 -37 386 21H363Q345 21 332.5 33.5Q320 46 320 64V88L270 138L252 127Q237 118 220.0 123.0Q203 128 194 143L162 198Q155 209 156.0 221.5Q157 234 164 244L24 384L51 411L472 -10ZM395 171Q395 189 383 203L425 227Q442 237 446.5 255.0Q451 273 442 289L412 340Q403 356 385.0 361.0Q367 366 351 357L230 287L381 135Q395 150 395 171ZM43 179 117 49 171 117 129 191Z" />
      </g>
    </svg>