<svg xmlns="http://www.w3.org/2000/svg" viewBox="43 21 426 341">
      <g transform="scale(1 -1) translate(0 -383)">
        <path d="M129 191 171 117 117 49 43 179ZM363 64V122Q377 128 386.0 141.0Q395 154 395.0 171.5Q395 189 383 203L425 227Q442 237 446.5 255.0Q451 273 442 289L412 340Q403 356 385.0 361.0Q367 366 351 357L177 256Q162 248 157.5 231.0Q153 214 162 198L194 143Q203 128 220.0 123.0Q237 118 252 127L292 150Q300 130 320 122V64Q320 46 332.5 33.5Q345 21 363 21H469V64Z" />
      </g>
    </svg>