<svg xmlns="http://www.w3.org/2000/svg" viewBox="43 -21 426 405">
      <g transform="scale(1 -1) translate(0 -363)">
        <path d="M171 384V341H235V229Q225 223 219.0 213.0Q213 203 213 192V171H299V192Q299 203 293.0 213.0Q287 223 277 229V341H341V384ZM128 192Q93 192 68.0 182.5Q43 173 43.0 160.0Q43 147 68.0 137.5Q93 128 128.0 128.0Q163 128 188.0 137.5Q213 147 213.0 160.0Q213 173 188.0 182.5Q163 192 128 192ZM384 192Q349 192 324.0 182.5Q299 173 299.0 160.0Q299 147 324.0 137.5Q349 128 384.0 128.0Q419 128 444.0 137.5Q469 147 469.0 160.0Q469 173 444.0 182.5Q419 192 384 192ZM213 149V128Q213 116 219.0 106.5Q225 97 235.0 91.0Q245 85 256.0 85.0Q267 85 277.0 91.0Q287 97 293.0 107.0Q299 117 299 128V149ZM277 43V-21H235V43ZM339 97 384 51 354 21 309 67ZM204 67 158 21 128 51 173 97Z" />
      </g>
    </svg>