<svg xmlns="http://www.w3.org/2000/svg" viewBox="21 -43 383 470">
      <g transform="scale(1 -1) translate(0 -384)">
        <path d="M209 181Q210 182 210 182V192L209 203L233 220Q235 222 234 227L212 264Q210 267 205 266L178 255Q170 262 159 266L155 294Q155 299 150 299H107Q101 299 101 294L96 266Q90 263 78 256L51 267Q46 268 44 264L22 227Q20 223 23 220L47 203Q46 197 46 192L47 181L23 164Q20 162 22 157L44 120Q45 117 51 117L78 128Q87 122 97 118L101 90Q101 85 107 85H150Q155 85 156 90L160 118Q167 121 178 128L206 117Q210 116 212 120L235 157Q236 161 233 164ZM128 155Q112 155 101.0 165.5Q90 176 90.0 192.0Q90 208 101.0 218.5Q112 229 128.0 229.0Q144 229 155.0 218.5Q166 208 166.0 192.0Q166 176 155.0 165.5Q144 155 128 155ZM363 427H149Q132 427 119.5 414.5Q107 402 107 384V320H149V363H363V21H149V64H107V0Q107 -18 119.5 -30.5Q132 -43 149 -43H363Q380 -43 392.5 -30.5Q405 -18 405 0V384Q405 402 392.5 414.5Q380 427 363 427Z" />
      </g>
    </svg>