<svg xmlns="http://www.w3.org/2000/svg" viewBox="24 -43 448 470">
      <g transform="scale(1 -1) translate(0 -384)">
        <path d="M445 -37 402 6Q397 -7 386.5 -14.0Q376 -21 363 -21H318Q315 25 298 64H344L149 258V213Q129 222 107 227V301L24 384L51 411L472 -10ZM363 341V154L405 111V384Q405 402 392.5 414.5Q380 427 363 427H149Q137 427 127.5 420.5Q118 414 112 404L175 341ZM43 21V-43H107Q107 -16 88.0 2.5Q69 21 43 21ZM43 107V64Q72 64 96.5 49.5Q121 35 135.0 10.5Q149 -14 149 -43H192Q192 -2 172.0 32.5Q152 67 117.5 87.0Q83 107 43 107ZM43 192V149Q95 149 139.0 123.5Q183 98 209.0 53.5Q235 9 235 -43H277Q277 21 245.5 75.0Q214 129 160.0 160.5Q106 192 43 192Z" />
      </g>
    </svg>