<svg xmlns="http://www.w3.org/2000/svg" viewBox="107 -43 362 470">
      <g transform="scale(1 -1) translate(0 -384)">
        <path d="M395 171Q364 171 342.0 148.5Q320 126 320 96Q320 61 357 6Q376 -22 395 -43L414 -19Q436 10 450 35Q469 71 469 96Q469 126 447.0 148.5Q425 171 395 171ZM395 68Q384 68 376.5 76.0Q369 84 369.0 94.0Q369 104 377.0 111.5Q385 119 394.5 119.0Q404 119 412.0 111.0Q420 103 421.0 93.5Q422 84 414.0 76.0Q406 68 395 68ZM339 -43H149Q132 -43 119.5 -30.5Q107 -18 107 0V384Q107 402 119.5 414.5Q132 427 149 427H363Q380 427 392.5 414.5Q405 402 405 384V213Q402 213 395 213Q379 213 363 209V341H149V43H289Q305 2 339 -43Z" />
      </g>
    </svg>