<svg xmlns="http://www.w3.org/2000/svg" viewBox="24 -37 467 448">
      <g transform="scale(1 -1) translate(0 -374)">
        <path d="M51 411 24 384 47 360Q43 351 43 341V43Q43 25 55.5 12.5Q68 0 85 0H235Q252 0 264.5 12.5Q277 25 277 43V130L445 -37L472 -10ZM235 85H85V299H109L235 173ZM491 352V288Q491 275 481.5 265.5Q472 256 459 256H384L322 194L320 196V352Q320 365 329.5 374.5Q339 384 352 384H459Q472 384 481.5 374.5Q491 365 491 352ZM218 299 132 384H235Q252 384 264.5 371.5Q277 359 277 341V239L235 282V299Z" />
      </g>
    </svg>