<svg xmlns="http://www.w3.org/2000/svg" viewBox="21 -43 470 470">
      <g transform="scale(1 -1) translate(0 -384)">
        <path d="M428 343Q458 313 474.5 274.0Q491 235 491.0 192.0Q491 149 474.5 110.0Q458 71 428 41L398 71Q422 95 435.0 126.0Q448 157 448.0 192.0Q448 227 435.0 258.0Q422 289 398 313ZM368 282Q386 265 395.5 241.5Q405 218 405.0 192.0Q405 166 395.5 142.5Q386 119 368 102L338 132Q363 157 363.0 192.0Q363 227 338 252ZM277 235Q295 235 307.5 222.5Q320 210 320.0 192.0Q320 174 307.5 161.5Q295 149 277.5 149.0Q260 149 247.5 161.5Q235 174 235.0 192.0Q235 210 247.5 222.5Q260 235 277 235ZM245 427Q267 427 283.0 411.0Q299 395 299 373V277H256V363H64V43H256V107H299V11Q299 -11 283.0 -27.0Q267 -43 245 -43H75Q53 -43 37.0 -27.0Q21 -11 21 11V373Q21 395 37.0 411.0Q53 427 75 427Z" />
      </g>
    </svg>