<svg xmlns="http://www.w3.org/2000/svg" viewBox="171 -21 192 426">
      <g transform="scale(1 -1) translate(0 -384)">
        <path d="M320 405Q311 405 305.0 399.0Q299 393 299 384V320H213Q196 320 183.5 307.5Q171 295 171 277V21Q171 4 183.5 -8.5Q196 -21 213 -21H320Q338 -21 350.5 -8.5Q363 4 363 21V277Q363 289 357.0 298.5Q351 308 341 314V384Q341 393 335.0 399.0Q329 405 320 405ZM213 277H320V171H213ZM213 128H235V107H213ZM256 128H277V107H256ZM299 128H320V107H299ZM213 85H235V64H213ZM256 85H277V64H256ZM299 85H320V64H299ZM213 43H235V21H213ZM256 43H277V21H256ZM299 43H320V21H299Z" />
      </g>
    </svg>