<svg xmlns="http://www.w3.org/2000/svg" viewBox="43 -43 425 470">
      <g transform="scale(1 -1) translate(0 -384)">
        <path d="M407 262Q436 234 436.0 194.0Q436 154 407 124L429 102Q455 127 464.0 159.5Q473 192 464.0 225.5Q455 259 429 284ZM384 239 363 218Q371 206 371.0 193.0Q371 180 363 169L384 147Q403 166 403.0 192.0Q403 218 384 239ZM299 427H85Q68 427 55.5 414.5Q43 402 43 384V0Q43 -18 55.5 -30.5Q68 -43 85 -43H299Q316 -43 328.5 -30.5Q341 -18 341 0V384Q341 402 328.5 414.5Q316 427 299 427ZM299 21H85V363H299Z" />
      </g>
    </svg>