<svg xmlns="http://www.w3.org/2000/svg" viewBox="43 -43 362 470">
      <g transform="scale(1 -1) translate(0 -384)">
        <path d="M363 427H149Q132 427 119.5 414.5Q107 402 107 384V320H149V363H363V21H149V64H107V0Q107 -18 119.5 -30.5Q132 -43 149 -43H363Q380 -43 392.5 -30.5Q405 -18 405 0V384Q405 402 392.5 414.5Q380 427 363 427ZM188 213V245Q188 267 169.5 283.0Q151 299 128.0 299.0Q105 299 86.5 283.0Q68 267 68 245V213Q59 213 51.0 205.0Q43 197 43 188V113Q43 102 50.5 93.5Q58 85 68 85H186Q197 85 205.0 93.0Q213 101 213 111V186Q213 197 205.5 205.0Q198 213 188 213ZM160 213H96V245Q96 258 105.5 265.5Q115 273 128.0 273.0Q141 273 150.5 265.5Q160 258 160 245Z" />
      </g>
    </svg>