<svg xmlns="http://www.w3.org/2000/svg" viewBox="43 -43 362 470">
      <g transform="scale(1 -1) translate(0 -384)">
        <path d="M43 107V64Q72 64 96.5 49.5Q121 35 135.0 10.5Q149 -14 149 -43H192Q192 -2 172.0 32.0Q152 66 117.5 86.5Q83 107 43 107ZM43 21V-43H107Q107 -16 88.0 2.5Q69 21 43 21ZM43 192V149Q95 149 139.0 123.5Q183 98 209.0 53.5Q235 9 235 -43H277Q277 21 245.5 75.0Q214 129 160.0 160.5Q106 192 43 192ZM363 427H149Q132 427 119.5 414.5Q107 402 107 384V227Q129 222 149 213V341H363V64H298Q315 25 318 -21H363Q380 -21 392.5 -8.5Q405 4 405 21V384Q405 402 392.5 414.5Q380 427 363 427Z" />
      </g>
    </svg>