<svg xmlns="http://www.w3.org/2000/svg" viewBox="64 -43 341 470">
      <g transform="scale(1 -1) translate(0 -384)">
        <path d="M149 427Q132 427 119.5 414.5Q107 402 107 384V299H149V363H363V21H149V85H107V0Q107 -18 119.5 -30.5Q132 -43 149 -43H363Q380 -43 392.5 -30.5Q405 -18 405 0V384Q405 402 392.5 414.5Q380 427 363 427ZM128 256Q101 256 82.5 237.5Q64 219 64.0 192.0Q64 165 82.5 146.5Q101 128 128 128Q149 128 165.0 139.5Q181 151 188 171H235V128H277V171H320V213H188Q181 233 165.0 244.5Q149 256 128 256ZM128 213Q138 213 143.5 207.5Q149 202 149.0 192.0Q149 182 143.5 176.5Q138 171 128.0 171.0Q118 171 112.5 176.5Q107 182 107.0 192.0Q107 202 112.5 207.5Q118 213 128 213Z" />
      </g>
    </svg>