<svg xmlns="http://www.w3.org/2000/svg" viewBox="43 -21 426 426">
      <g transform="scale(1 -1) translate(0 -384)">
        <path d="M407 129 469 192 407 255V343H319L256 405L193 343H105V255L43 192L105 129V41H193L256 -21L319 41H407ZM457 192 407 142V182H292L282 192L292 202H407V242ZM398 133 369 105 301 173H398ZM266 169 256 178 246 169V182H233L242 192L233 202H246V215L256 206L266 215V202H279L270 192L279 182H266ZM301 211 369 279 398 251V211ZM398 334V263L369 292L288 211H275V224L356 305L327 334ZM275 237V334H315L343 305ZM256 393 306 343H266V228L256 218L246 228V343H206ZM237 237 169 305 197 334H237ZM114 334H185L156 305L237 224V211H224L143 292L114 263ZM114 251 143 279 211 211H114ZM55 192 105 242V202H220L230 192L220 182H105V142ZM211 173 143 105 114 133V173ZM114 50V121L143 92L224 173H237V160L156 79L185 50ZM237 147V50H197L169 79ZM256 -9 206 41H246V156L256 166L266 156V41H306ZM275 147 343 79 315 50H275ZM327 50 356 79 275 160V173H288L369 92L398 121V50Z" />
      </g>
    </svg>