<svg xmlns="http://www.w3.org/2000/svg" viewBox="43 0 426 384">
      <g transform="scale(1 -1) translate(0 -384)">
        <path d="M277 0 320 21 363 0V149H277ZM363 256V299L320 277L277 299V256L235 235L277 213V171L320 192L363 171V213L405 235ZM427 384H85Q68 384 55.5 371.5Q43 359 43 341V128Q43 110 55.5 97.5Q68 85 85 85H235V128H85V341H427V128H405V85H427Q444 85 456.5 97.5Q469 110 469 128V341Q469 359 456.5 371.5Q444 384 427 384ZM235 277H107V320H235ZM192 213H107V256H192ZM235 149H107V192H235Z" />
      </g>
    </svg>