<svg xmlns="http://www.w3.org/2000/svg" viewBox="21 -23 470 428">
      <g transform="scale(1 -1) translate(0 -382)">
        <path d="M320 169Q320 142 301.5 123.5Q283 105 256.0 105.0Q229 105 210.5 123.5Q192 142 192.0 168.5Q192 195 210.5 214.0Q229 233 256.0 233.0Q283 233 301.5 214.0Q320 195 320 169ZM192 405V384Q192 366 204.5 353.5Q217 341 235 341V254Q246 256 256.0 256.0Q266 256 277 254V341Q295 341 307.5 353.5Q320 366 320 384V405ZM85 211Q59 211 40.0 192.5Q21 174 21.0 147.5Q21 121 40.0 102.0Q59 83 85.5 83.0Q112 83 130.5 102.0Q149 121 149.0 147.5Q149 174 130.5 192.5Q112 211 85 211ZM427 211Q400 211 381.5 192.5Q363 174 363.0 147.5Q363 121 381.5 102.0Q400 83 426.5 83.0Q453 83 472.0 102.0Q491 121 491.0 147.5Q491 174 472.0 192.5Q453 211 427 211ZM427 62Q405 62 386 70Q369 62 352.0 62.0Q335 62 319.5 69.5Q304 77 294 90Q277 83 256.0 83.0Q235 83 218 90Q208 77 192.5 69.5Q177 62 160.0 62.0Q143 62 126 70Q107 62 85 62Q78 62 68 64Q85 43 109.0 31.0Q133 19 160 19Q202 19 235 46V-2Q235 -11 241.0 -17.0Q247 -23 256.0 -23.0Q265 -23 271.0 -17.0Q277 -11 277 -2V46Q310 19 352 19Q379 19 403.0 31.0Q427 43 444 64Q434 62 427 62Z" />
      </g>
    </svg>