<svg xmlns="http://www.w3.org/2000/svg" viewBox="43 -21 426 426">
      <g transform="scale(1 -1) translate(0 -384)">
        <path d="M43 405H85V21H469V-21H43ZM192 235Q219 235 237.5 216.0Q256 197 256.0 170.5Q256 144 237.5 125.5Q219 107 192.0 107.0Q165 107 146.5 125.5Q128 144 128.0 170.5Q128 197 146.5 216.0Q165 235 192 235ZM277 405Q304 405 322.5 386.5Q341 368 341.0 341.5Q341 315 322.5 296.0Q304 277 277.5 277.0Q251 277 232.0 296.0Q213 315 213.0 341.5Q213 368 232.0 386.5Q251 405 277 405ZM384 192Q411 192 429.5 173.5Q448 155 448.0 128.0Q448 101 429.5 82.5Q411 64 384.0 64.0Q357 64 338.5 82.5Q320 101 320.0 128.0Q320 155 338.5 173.5Q357 192 384 192Z" />
      </g>
    </svg>