<svg xmlns="http://www.w3.org/2000/svg" viewBox="43 -21 426 425">
      <g transform="scale(1 -1) translate(0 -383)">
        <path d="M277 404Q331 399 374.5 369.5Q418 340 443.5 293.0Q469 246 469 192Q469 147 451 105L395 138Q405 164 405 192Q405 229 388.5 261.0Q372 293 342.5 313.5Q313 334 277 340ZM256 43Q291 43 321.0 57.5Q351 72 372 99L428 66Q398 25 353.0 2.0Q308 -21 256 -21Q198 -21 149.0 7.5Q100 36 71.5 85.0Q43 134 43 192Q43 246 68.0 293.0Q93 340 137.0 369.5Q181 399 235 404V340Q199 334 169.5 313.5Q140 293 123.5 261.0Q107 229 107 192Q107 151 127.0 117.0Q147 83 181.0 63.0Q215 43 256 43ZM256 320Q291 320 320.5 303.0Q350 286 367.0 256.5Q384 227 384 192Q384 145 353.5 109.0Q323 73 277 66V132Q296 138 308.0 154.5Q320 171 320 192Q320 219 301.5 237.5Q283 256 256 256L244 255L211 312Q232 320 256 320ZM128 192Q128 221 140.5 246.5Q153 272 175 291L207 234Q192 216 192 192Q192 171 204.0 154.5Q216 138 235 132V66Q189 73 158.5 109.0Q128 145 128 192Z" />
      </g>
    </svg>