<svg xmlns="http://www.w3.org/2000/svg" viewBox="43 -3 425 391">
      <g transform="scale(1 -1) translate(0 -385)">
        <path d="M272 364Q304 387 346 387Q370 387 397.0 374.5Q424 362 440 345Q473 304 468.0 249.5Q463 195 432 165L270 3Q264 -3 255.0 -3.0Q246 -3 240.0 3.0Q234 9 234.0 18.0Q234 27 240 33L338 131Q346 138 338.0 146.0Q330 154 323 146L225 48Q219 42 210.0 42.0Q201 42 195.0 48.0Q189 54 189.0 63.0Q189 72 195 78L293 176Q302 184 294.0 192.0Q286 200 278 192L180 93Q174 87 165.0 87.0Q156 87 149.5 93.0Q143 99 143.0 108.0Q143 117 150 124L248 222Q256 230 248.0 237.0Q240 244 233 237L134 139Q127 132 118.5 132.0Q110 132 104.0 138.5Q98 145 98.0 154.0Q98 163 104 169Q191 256 225 289L301 214Q314 202 331 202Q353 202 366 220Q375 233 372.5 249.0Q370 265 359 276ZM316 229 225 320 74 169Q47 196 43.5 252.5Q40 309 74 350Q112 388 165.0 388.0Q218 388 255 350L346 259Q352 253 352.0 244.0Q352 235 346.0 229.0Q340 223 331.0 223.0Q322 223 316 229Z" />
      </g>
    </svg>