<svg xmlns="http://www.w3.org/2000/svg" viewBox="43 -21 426 425">
      <g transform="scale(1 -1) translate(0 -383)">
        <path d="M277 404V340Q313 334 342.5 313.5Q372 293 388.5 261.0Q405 229 405 192Q405 164 395 138L451 105Q469 147 469 192Q469 246 443.5 293.0Q418 340 374.5 369.5Q331 399 277 404ZM256 43Q215 43 181.0 63.0Q147 83 127.0 117.0Q107 151 107 192Q107 229 123.5 261.0Q140 293 169.5 313.5Q199 334 235 340V404Q181 399 137.0 369.5Q93 340 68.0 293.0Q43 246 43 192Q43 150 59.0 110.5Q75 71 105.0 41.0Q135 11 174.5 -5.0Q214 -21 256 -21Q308 -21 353.0 2.0Q398 25 428 66L372 99Q351 72 321.0 57.5Q291 43 256 43Z" />
      </g>
    </svg>