<svg xmlns="http://www.w3.org/2000/svg" viewBox="85 21 342 342">
      <g transform="scale(1 -1) translate(0 -384)">
        <path d="M154 209Q182 209 202.0 189.0Q222 169 222.0 140.5Q222 112 202.0 92.5Q182 73 153.5 73.0Q125 73 105.0 92.5Q85 112 85.0 140.5Q85 169 105.0 189.0Q125 209 154 209ZM316 107Q333 107 345.5 94.5Q358 82 358.0 64.0Q358 46 345.5 33.5Q333 21 315.5 21.0Q298 21 285.5 33.5Q273 46 273.0 64.0Q273 82 285.5 94.5Q298 107 316 107ZM324 363Q352 363 375.5 349.0Q399 335 413.0 311.5Q427 288 427.0 260.0Q427 232 413.0 208.5Q399 185 375.5 171.5Q352 158 324.0 158.0Q296 158 272.5 171.5Q249 185 235.5 208.5Q222 232 222.0 260.0Q222 288 235.5 311.5Q249 335 272.5 349.0Q296 363 324 363Z" />
      </g>
    </svg>