<svg xmlns="http://www.w3.org/2000/svg" viewBox="43 -21 426 426">
      <g transform="scale(1 -1) translate(0 -384)">
        <path d="M212 207Q229 267 240 289Q255 320 277.0 320.0Q299 320 315 289Q326 267 342 207Q356 155 366 130Q382 89 404 68Q431 43 469 43V85Q447 85 431 102Q417 117 405 148Q396 170 383.5 217.5Q371 265 362 287Q349 323 330 341Q309 363 277.5 363.0Q246 363 224 341Q206 323 192 287Q184 265 171 218Q153 148 138 122Q118 85 85 85V405H43V-21H469V21H85V43Q124 43 151 68Q173 89 189 130Q199 155 212 207Z" />
      </g>
    </svg>