<svg xmlns="http://www.w3.org/2000/svg" viewBox="21 21 470 363">
      <g transform="scale(1 -1) translate(0 -405)">
        <path d="M448 277Q433 277 422.0 269.0Q411 261 407.0 248.5Q403 236 407 224L331 147Q320 151 309 147L254 203Q258 214 254.0 226.5Q250 239 239.5 247.5Q229 256 214.0 256.0Q199 256 188.0 247.5Q177 239 173.0 226.5Q169 214 173 203L75 107Q56 112 38.5 99.5Q21 87 21 64Q21 46 33.5 33.5Q46 21 64 21Q78 21 89.0 29.5Q100 38 104.5 50.5Q109 63 105 75L201 173Q211 169 222 173L277 117Q274 106 278.5 93.5Q283 81 294.0 72.5Q305 64 320.0 64.0Q335 64 346.0 72.5Q357 81 361.0 93.5Q365 106 361 117L437 194Q456 189 473.5 201.0Q491 213 491 235Q491 252 478.5 264.5Q466 277 448 277ZM320 256 339 301 384 320 339 339 320 384 301 339 256 320 301 301ZM75 213 85 256 128 267 85 277 75 320 64 277 21 267 64 256Z" />
      </g>
    </svg>