<svg xmlns="http://www.w3.org/2000/svg" viewBox="21 64 470 256">
      <g transform="scale(1 -1) translate(0 -384)">
        <path d="M64 149 75 148 172 245Q169 256 172.0 267.0Q175 278 183 286Q196 299 213.5 299.0Q231 299 243 286Q252 278 254.5 267.0Q257 256 255 245L309 191L320 192Q327 192 331 191L407 267Q405 270 405 277Q405 295 417.5 307.5Q430 320 448.0 320.0Q466 320 478.5 307.5Q491 295 491.0 277.5Q491 260 478.5 247.5Q466 235 448 235Q441 235 437 236L361 160Q363 157 363 149Q363 132 350.5 119.5Q338 107 320.0 107.0Q302 107 289.5 119.5Q277 132 277 149L279 160L224 215Q213 212 203 215L105 117L107 107Q107 89 94.5 76.5Q82 64 64.0 64.0Q46 64 33.5 76.5Q21 89 21.0 106.5Q21 124 33.5 136.5Q46 149 64 149Z" />
      </g>
    </svg>