<svg xmlns="http://www.w3.org/2000/svg" viewBox="43 0 426 384">
      <g transform="scale(1 -1) translate(0 -384)">
        <path d="M256 384Q198 384 149.0 361.0Q100 338 71.5 298.5Q43 259 43 213Q43 179 59.0 148.0Q75 117 102 96Q102 82 92 62Q76 32 43 0Q118 3 181 53Q220 43 256 43Q314 43 363.0 66.0Q412 89 440.5 128.0Q469 167 469.0 213.0Q469 259 440.5 298.5Q412 338 363.0 361.0Q314 384 256 384ZM256 85Q210 85 170.5 102.5Q131 120 108.0 149.5Q85 179 85.0 213.5Q85 248 108.0 277.5Q131 307 170.5 324.0Q210 341 256.0 341.0Q302 341 341.5 324.0Q381 307 404.0 277.5Q427 248 427.0 213.5Q427 179 404.0 149.5Q381 120 341.5 102.5Q302 85 256 85ZM260 309Q233 309 215 299Q195 285 198 262H241Q241 272 247 275Q256 279 262 279Q273 279 279.5 273.0Q286 267 286.0 259.5Q286 252 282 243Q273 235 269 233Q253 223 245 215Q239 211 237.0 205.5Q235 200 235 192H277Q277 196 279 201V207Q281 210 286 214L290 218Q303 223 314 237Q322 248 322 262Q322 285 305 299Q291 309 260 309ZM235 171V128H277V171Z" />
      </g>
    </svg>