<svg xmlns="http://www.w3.org/2000/svg" viewBox="43 -21 448 405">
      <g transform="scale(1 -1) translate(0 -363)">
        <path d="M384 149H427V85H491V43H427V-21H384V43H320V85H384ZM256 384Q314 384 363.0 361.0Q412 338 440.5 299.0Q469 260 469 213Q469 196 465 177Q437 192 405 192Q371 192 341.5 175.0Q312 158 294.5 128.5Q277 99 277 64L279 44L256 43Q217 43 181 53Q159 35 133 23Q112 13 88 7Q72 3 55 1L43 0Q75 32 90 62Q100 81 101 96Q74 119 58.5 149.5Q43 180 43 213Q43 260 71.5 299.0Q100 338 149.0 361.0Q198 384 256 384Z" />
      </g>
    </svg>