<svg xmlns="http://www.w3.org/2000/svg" viewBox="43 0 426 384">
      <g transform="scale(1 -1) translate(0 -384)">
        <path d="M256 384Q198 384 149.0 361.0Q100 338 71.5 299.0Q43 260 43 213Q43 179 58.5 148.0Q74 117 101 96Q101 82 91 62Q75 33 43 0Q80 2 115.5 15.5Q151 29 181 53Q218 43 256 43Q314 43 363.0 66.0Q412 89 440.5 128.0Q469 167 469.0 213.5Q469 260 440.5 299.0Q412 338 363.0 361.0Q314 384 256 384ZM256 85Q210 85 170.5 102.5Q131 120 108.0 149.5Q85 179 85.0 213.5Q85 248 108.0 277.5Q131 307 170.5 324.0Q210 341 256.0 341.0Q302 341 341.5 324.0Q381 307 404.0 277.5Q427 248 427.0 213.5Q427 179 404.0 149.5Q381 120 341.5 102.5Q302 85 256 85Z" />
      </g>
    </svg>