<svg xmlns="http://www.w3.org/2000/svg" viewBox="43 0 426 384">
      <g transform="scale(1 -1) translate(0 -384)">
        <path d="M256 384Q198 384 149.0 361.0Q100 338 71.5 298.5Q43 259 43 213Q43 180 58.5 149.0Q74 118 102 96Q102 82 92 62Q76 32 43 0L55 1Q71 3 88 7Q111 13 133 23Q159 35 181 53Q220 43 256 43Q314 43 363.0 66.0Q412 89 440.5 128.0Q469 167 469.0 213.0Q469 259 440.5 298.5Q412 338 363.0 361.0Q314 384 256 384ZM277 128H235V171H277ZM316 235Q309 226 292 218Q284 212 282 207Q279 204 278.0 201.0Q277 198 277 192H235Q235 206 241 215Q249 223 265 233Q273 236 277.5 244.0Q282 252 282.0 259.5Q282 267 275.5 273.0Q269 279 258 279Q252 279 243 275Q237 272 237 262H194Q198 286 213 299Q227 309 258.0 309.0Q289 309 305.5 296.0Q322 283 322 260Q325 247 316 235Z" />
      </g>
    </svg>