<svg xmlns="http://www.w3.org/2000/svg" viewBox="43 0 426 384">
      <g transform="scale(1 -1) translate(0 -384)">
        <path d="M256 384Q314 384 363.0 361.0Q412 338 440.5 299.0Q469 260 469.0 213.5Q469 167 440.5 128.0Q412 89 363.0 66.0Q314 43 256 43Q217 43 181 53Q159 35 133 23Q112 13 88 7Q72 3 55 1L43 0Q75 32 90 62Q100 81 101 96Q74 119 58.5 149.5Q43 180 43 213Q43 260 71.5 299.0Q100 338 149.0 361.0Q198 384 256 384ZM363 192V235H320V192ZM277 192V235H235V192ZM192 192V235H149V192Z" />
      </g>
    </svg>