<svg xmlns="http://www.w3.org/2000/svg" viewBox="43 0 426 384">
      <g transform="scale(1 -1) translate(0 -384)">
        <path d="M256 384Q198 384 149.0 361.0Q100 338 71.5 299.0Q43 260 43 213Q43 180 58.5 149.5Q74 119 101 96Q100 81 90 62Q75 32 43 0L55 1Q72 3 88 7Q112 13 133 23Q159 35 181 53Q217 43 256 43Q314 43 363.0 66.0Q412 89 440.5 128.0Q469 167 469.0 213.5Q469 260 440.5 299.0Q412 338 363.0 361.0Q314 384 256 384ZM320 250 251 171H320V128H192V177L261 256H192V299H320Z" />
      </g>
    </svg>