<svg xmlns="http://www.w3.org/2000/svg" viewBox="43 -21 448 426">
      <g transform="scale(1 -1) translate(0 -384)">
        <path d="M305 -15Q283 -21 256 -21Q198 -21 149.0 7.5Q100 36 71.5 85.0Q43 134 43.0 192.0Q43 250 71.5 299.0Q100 348 149.0 376.5Q198 405 256 405Q292 405 337 390L303 356Q281 363 256 363Q210 363 170.5 340.0Q131 317 108.0 277.5Q85 238 85.0 192.0Q85 146 108.0 106.5Q131 67 170.5 44.0Q210 21 256 21Q275 21 284 23Q289 5 305 -15ZM169 233 139 203 235 107 448 320 418 350 235 166ZM384 149V85H320V43H384V-21H427V43H491V85H427V149Z" />
      </g>
    </svg>