<svg xmlns="http://www.w3.org/2000/svg" viewBox="43 21 426 384">
      <g transform="scale(1 -1) translate(0 -426)">
        <path d="M299 405Q252 405 213.0 382.0Q174 359 151.0 320.0Q128 281 128.0 234.5Q128 188 151.0 149.0Q174 110 213.0 87.0Q252 64 298.5 64.0Q345 64 384.0 87.0Q423 110 446.0 149.0Q469 188 469 235H427Q427 200 409.5 170.5Q392 141 363.0 124.0Q334 107 299.0 107.0Q264 107 234.5 124.0Q205 141 188.0 170.5Q171 200 171.0 234.5Q171 269 188.0 298.5Q205 328 234.5 345.5Q264 363 299 363Q312 363 326 360L360 394Q331 405 299 405ZM439 372 299 231 248 282 218 252 299 171 469 341ZM105 324Q76 300 59.5 265.0Q43 230 43 192Q43 146 66.0 106.5Q89 67 128.0 44.0Q167 21 213 21Q233 21 253 26Q197 39 153 79Q122 96 103.5 126.5Q85 157 85 192Q85 200 87 211Q85 225 85 235Q85 281 105 324Z" />
      </g>
    </svg>