<svg xmlns="http://www.w3.org/2000/svg" viewBox="21 -32 470 448">
      <g transform="scale(1 -1) translate(0 -384)">
        <path d="M491 192 439 252 446 331 369 348 329 416 256 384 183 416 143 348 66 331 73 252 21 192 73 132 66 53 143 36 183 -32 256 0 329 -32 369 36 446 53 439 132ZM399 87 341 75 311 23 256 47 201 23 171 75 113 87 117 147 79 192 117 237 113 297 171 309 201 361 256 337 311 361 341 309 399 297 395 237 433 192 395 147ZM354 286 384 256 213 85 128 171 158 201 213 145Z" />
      </g>
    </svg>