<svg xmlns="http://www.w3.org/2000/svg" viewBox="47 0 418 412">
      <g transform="scale(1 -1) translate(0 -412)">
        <path d="M75 412 47 384 130 301V256Q148 253 160.5 238.0Q173 223 173.0 203.0Q173 183 161.0 168.5Q149 154 130 149V0L258 75Q258 87 267.5 97.0Q277 107 290 107Q299 107 307 102L322 111L433 0L461 28ZM215 107Q207 107 200.5 113.5Q194 120 194.0 128.0Q194 136 200.5 142.5Q207 149 215.0 149.0Q223 149 230.0 142.5Q237 136 237.0 128.0Q237 120 230.0 113.5Q223 107 215 107ZM294 245 211 329Q220 320 236.0 320.0Q252 320 264.0 331.0Q276 342 279 358Q360 323 412 269L410 266Q407 261 407 258Q407 250 414.0 243.5Q421 237 428.0 237.0Q435 237 437 239Q448 226 465 196L390 154L354 190Q365 201 365.0 218.0Q365 235 352.5 247.5Q340 260 322 260Q301 252 294 245ZM203 337 156 384Q171 384 196 380Q194 373 194 363Q194 346 203 337Z" />
      </g>
    </svg>