<svg xmlns="http://www.w3.org/2000/svg" viewBox="107 0 336 384">
      <g transform="scale(1 -1) translate(0 -384)">
        <path d="M235 75Q235 88 244.0 97.5Q253 107 267 107Q275 107 284 102L443 193Q431 215 414 237Q410 235 405 235Q397 235 390.5 241.0Q384 247 384 256Q384 261 388 268Q332 327 256 357Q254 341 241.5 330.5Q229 320 212.5 320.0Q196 320 183.5 332.5Q171 345 171 363Q171 371 174 380Q144 384 117 384Q110 384 107 383V255Q125 251 137.0 236.5Q149 222 149.0 202.5Q149 183 137.0 168.5Q125 154 107 150V0L235 74ZM299 256Q316 256 328.5 243.5Q341 231 341.0 213.5Q341 196 328.5 183.5Q316 171 298.5 171.0Q281 171 268.5 183.5Q256 196 256.0 213.5Q256 231 268.5 243.5Q281 256 299 256ZM192 107Q183 107 177.0 113.0Q171 119 171.0 128.0Q171 137 177.0 143.0Q183 149 192.0 149.0Q201 149 207.0 143.0Q213 137 213.0 128.0Q213 119 207.0 113.0Q201 107 192 107ZM192 235Q183 235 177.0 241.0Q171 247 171.0 256.0Q171 265 177.0 271.0Q183 277 192.0 277.0Q201 277 207.0 271.0Q213 265 213.0 256.0Q213 247 207.0 241.0Q201 235 192 235Z" />
      </g>
    </svg>