<svg xmlns="http://www.w3.org/2000/svg" viewBox="64 -21 405 437">
      <g transform="scale(1 -1) translate(0 -395)">
        <path d="M267 416Q238 416 215.5 399.0Q193 382 185 355Q168 363 149 363Q114 363 89.0 338.0Q64 313 64 277Q64 248 82.0 225.0Q100 202 128 195V43H405V195Q434 202 451.5 225.0Q469 248 469 277Q469 313 444.0 338.0Q419 363 384 363Q366 363 348 355Q340 382 317.5 399.0Q295 416 267 416ZM256 224H277V75H256ZM192 181H213V75H192ZM320 181H341V75H320ZM128 21V0Q128 -9 134.0 -15.0Q140 -21 149 -21H384Q393 -21 399.0 -15.0Q405 -9 405 0V21Z" />
      </g>
    </svg>