<svg xmlns="http://www.w3.org/2000/svg" viewBox="85 -21 342 426">
      <g transform="scale(1 -1) translate(0 -384)">
        <path d="M384 384Q402 384 414.5 371.5Q427 359 427 341Q427 329 420.0 318.5Q413 308 402 303L363 167V64H149V167L110 303Q99 308 92.0 318.5Q85 329 85 341Q85 359 97.5 371.5Q110 384 128.0 384.0Q146 384 158.5 371.5Q171 359 171.0 342.0Q171 325 160 314L220 249L231 328Q213 341 213 363Q213 380 225.5 392.5Q238 405 256.0 405.0Q274 405 286.5 392.5Q299 380 299 363Q299 341 281 328L292 249L351 314Q341 326 341 341Q341 359 353.5 371.5Q366 384 384 384ZM107 21H405V-21H107Z" />
      </g>
    </svg>