<svg xmlns="http://www.w3.org/2000/svg" viewBox="107 -21 298 426">
      <g transform="scale(1 -1) translate(0 -384)">
        <path d="M405 -21H107V21H405ZM366 272Q401 227 405 171Q405 142 385.0 117.5Q365 93 331.0 78.5Q297 64 256.0 64.0Q215 64 181.0 78.5Q147 93 127.0 117.5Q107 142 107 171Q107 197 122.5 231.5Q138 266 163 293Q192 324 223 336Q213 347 213 363Q213 380 225.5 392.5Q238 405 256.0 405.0Q274 405 286.5 392.5Q299 380 299 363Q299 347 289 336Q317 325 338 304L241 207L271 177Z" />
      </g>
    </svg>