<svg xmlns="http://www.w3.org/2000/svg" viewBox="149 -21 256 426">
      <g transform="scale(1 -1) translate(0 -384)">
        <path d="M197 288 165 307Q183 338 212 348Q210 354 204.5 358.5Q199 363 192 363V405Q216 405 234.0 389.0Q252 373 255 349Q286 339 304 307L272 288L235 309ZM299 271 272 256 235 277 197 256 171 271Q161 266 155.0 256.0Q149 246 149 235V213Q149 128 194 67Q225 24 276 -3Q301 -17 320 -21V235Q320 246 314.0 256.0Q308 266 299 271ZM363 299V171H405V299ZM363 85H405V128H363Z" />
      </g>
    </svg>