<svg xmlns="http://www.w3.org/2000/svg" viewBox="171 -21 170 426">
      <g transform="scale(1 -1) translate(0 -384)">
        <path d="M219 288 186 307Q204 338 233 348Q231 354 225.5 358.5Q220 363 213 363V405Q238 405 256.0 389.0Q274 373 277 349Q307 339 326 307L293 288L256 309ZM341 235V-21L324 -15Q302 -7 281 6Q253 24 231 48Q203 78 188 115Q171 160 171 213V235Q171 246 176.5 256.0Q182 266 192 271L219 256L256 277L293 256L320 271Q330 266 335.5 256.0Q341 246 341 235ZM299 204 256 228 213 204Q216 146 243 102Q264 68 299 45Z" />
      </g>
    </svg>