<svg xmlns="http://www.w3.org/2000/svg" viewBox="128 -21 256 426">
      <g transform="scale(1 -1) translate(0 -384)">
        <path d="M180 292 146 311Q163 338 191 348Q189 354 183.5 358.5Q178 363 171 363V405Q195 405 213 389V363Q220 363 225.5 358.5Q231 354 233 348Q216 342 202.0 327.0Q188 312 180 292ZM171 213Q171 238 183 258L155 274Q143 269 135.5 258.5Q128 248 128 235V213Q128 115 186 50Q223 8 278 -14Q231 23 203 74Q171 136 171 213ZM363 271 336 256 299 277 261 256 235 271Q225 266 219.0 256.0Q213 246 213 235V213Q213 160 231 115Q246 78 273 48Q295 24 324 6Q344 -7 366 -15L384 -21V235Q384 246 378.0 256.0Q372 266 363 271ZM229 307 261 288 299 309 336 288 368 307Q350 339 319 349Q316 373 298.0 389.0Q280 405 256 405V363Q263 363 268.5 358.5Q274 354 276 348Q247 338 229 307Z" />
      </g>
    </svg>