<svg xmlns="http://www.w3.org/2000/svg" viewBox="85 -21 342 426">
      <g transform="scale(1 -1) translate(0 -384)">
        <path d="M223 292 189 311Q206 338 233 348Q231 354 225.5 358.5Q220 363 213 363V405Q238 405 256 389V363Q263 363 268.5 358.5Q274 354 276 348Q258 342 244.5 327.0Q231 312 223 292ZM213 213Q213 238 226 258L198 274Q185 269 178.0 258.5Q171 248 171 235V213Q171 115 229 50Q266 8 321 -14Q273 23 246 74Q213 136 213 213ZM137 292 104 311Q121 338 148 348Q146 354 140.5 358.5Q135 363 128 363V405Q153 405 171 389V363Q178 363 183.5 358.5Q189 354 191 348Q173 342 159.0 327.0Q145 312 137 292ZM128 213Q128 238 141 258L112 274Q100 269 92.5 258.5Q85 248 85 235V213Q85 115 143 50Q181 8 235 -14Q188 23 161 74Q128 136 128 213ZM405 271 379 256 341 277 304 256 277 271Q268 266 262.0 256.0Q256 246 256 235V213Q256 160 274 115Q289 78 316 48Q338 24 367 6Q387 -7 409 -15L427 -21V235Q427 246 421.0 256.0Q415 266 405 271ZM272 307 304 288 341 309 379 288 411 307Q392 339 362 349Q359 373 341.0 389.0Q323 405 299 405V363Q306 363 311.0 358.5Q316 354 319 348Q289 338 272 307Z" />
      </g>
    </svg>