<svg xmlns="http://www.w3.org/2000/svg" viewBox="24 -37 448 448">
      <g transform="scale(1 -1) translate(0 -374)">
        <path d="M320 271Q330 266 335.5 256.0Q341 246 341 235V175L245 271L256 277L293 256ZM256 309 293 288 326 307Q307 339 277 349Q274 373 256.0 389.0Q238 405 213 405V363Q220 363 225.5 358.5Q231 354 233 348Q212 341 196 321L225 291ZM472 -10 445 -37 341 66V-21L324 -15Q302 -7 281 6Q253 24 231 48Q203 78 188 115Q171 160 171 213V237L24 384L51 411ZM299 109 215 193Q219 139 246 99Q266 67 299 45Z" />
      </g>
    </svg>