<svg xmlns="http://www.w3.org/2000/svg" viewBox="43 -21 426 448">
      <g transform="scale(1 -1) translate(0 -406)">
        <path d="M384 187V256L277 309V341H320V384H277V427H235V384H192V341H235V309L128 256V187L43 149V-21H213V43Q213 60 225.5 72.5Q238 85 256.0 85.0Q274 85 286.5 72.5Q299 60 299 43V-21H469V149ZM256 160Q243 160 233.5 169.5Q224 179 224.0 192.0Q224 205 233.5 214.5Q243 224 256.0 224.0Q269 224 278.5 214.5Q288 205 288.0 192.0Q288 179 278.5 169.5Q269 160 256 160Z" />
      </g>
    </svg>