<svg xmlns="http://www.w3.org/2000/svg" viewBox="43 -21 426 448">
      <g transform="scale(1 -1) translate(0 -406)">
        <path d="M384 187V256L277 309V341H320V384H277V427H235V384H192V341H235V309L128 256V187L43 149V-21H235V64Q235 73 241.0 79.0Q247 85 256.0 85.0Q265 85 271.0 79.0Q277 73 277 64V-21H469V149ZM427 21H320V65Q320 92 301.0 111.0Q282 130 256.0 130.0Q230 130 211.0 111.0Q192 92 192 65V21H85V124L171 162V234L256 277L341 234V162L427 124ZM256 224Q269 224 278.5 214.5Q288 205 288.0 192.0Q288 179 278.5 169.5Q269 160 256.0 160.0Q243 160 233.5 169.5Q224 179 224.0 192.0Q224 205 233.5 214.5Q243 224 256 224Z" />
      </g>
    </svg>