<svg xmlns="http://www.w3.org/2000/svg" viewBox="24 -37 448 448">
      <g transform="scale(1 -1) translate(0 -374)">
        <path d="M445 -37 386 21H384V24L363 45V21H256V48Q266 54 272 64Q280 79 275.5 96.0Q271 113 256 122V149H258L24 384L51 411L472 -10ZM309 241H341Q358 242 370.5 230.0Q383 218 384 201V171H416V206Q415 235 393.5 254.5Q372 274 342 273H309Q293 274 281.5 286.5Q270 299 270.0 315.0Q270 331 281.5 342.0Q293 353 308 353H309V384Q280 384 259.0 363.0Q238 342 238.0 312.5Q238 283 259.0 262.0Q280 241 309 241ZM437 220V218V171H469V218Q469 253 451.0 282.0Q433 311 402 326H401Q413 337 418.5 352.5Q424 368 422 384H391Q391 380 391 377Q391 360 379.5 348.5Q368 337 352 337V305Q387 305 412.0 280.0Q437 255 437 220ZM198 107Q204 116 213 122V149H107Q80 149 61.5 130.5Q43 112 43.0 85.5Q43 59 62.0 40.0Q81 21 107 21H213V48Q198 57 193.5 74.0Q189 91 198 107ZM384 132 416 100V149H384ZM437 79 469 47V149H437ZM235 107Q226 107 219.5 100.5Q213 94 213.0 85.5Q213 77 219.5 70.5Q226 64 234.5 64.0Q243 64 249.5 70.5Q256 77 256.0 85.5Q256 94 249.5 100.5Q243 107 235 107Z" />
      </g>
    </svg>