<svg xmlns="http://www.w3.org/2000/svg" viewBox="42 -21 426 426">
      <g transform="scale(1 -1) translate(0 -384)">
        <path d="M341 230H309Q293 232 281.5 244.0Q270 256 270.0 272.5Q270 289 281.5 300.0Q293 311 309 310V341Q280 341 259.0 320.0Q238 299 238.0 269.5Q238 240 259.0 219.0Q280 198 309 198H341Q359 199 372.0 186.5Q385 174 384 156V128H416V163Q415 193 393.0 212.5Q371 232 341 230ZM401 283Q417 298 421.5 319.5Q426 341 418.0 361.0Q410 381 392.0 393.0Q374 405 352 405V373Q368 373 379.5 361.5Q391 350 391.0 334.0Q391 318 379.5 306.0Q368 294 352 294V262Q388 262 413.0 236.5Q438 211 437 176V128H469V176Q469 210 451.0 239.0Q433 268 402 283ZM384 107V-21H416V107ZM437 107V-21H469V107ZM256 107V80Q266 74 271.5 64.0Q277 54 277.0 42.5Q277 31 271.5 21.0Q266 11 256 6V-21H363V107ZM61 88Q48 74 44.0 55.0Q40 36 47.5 18.0Q55 0 71.0 -10.5Q87 -21 107 -21H213V6Q203 11 197.5 21.0Q192 31 192.0 42.5Q192 54 197.5 64.0Q203 74 213 80V107H107Q80 107 61 88ZM256 43Q256 36 252.5 30.5Q249 25 243.0 22.5Q237 20 230.5 21.5Q224 23 219.5 27.5Q215 32 213.5 38.5Q212 45 214.5 51.0Q217 57 222.5 60.5Q228 64 235 64Q244 64 250.0 58.0Q256 52 256 43Z" />
      </g>
    </svg>