<svg xmlns="http://www.w3.org/2000/svg" viewBox="21 21 470 342">
      <g transform="scale(1 -1) translate(0 -384)">
        <path d="M320 363Q366 363 405.5 340.0Q445 317 468.0 277.5Q491 238 491.0 192.0Q491 146 468.0 106.5Q445 67 405.5 44.0Q366 21 320.0 21.0Q274 21 234.5 44.0Q195 67 172.0 106.5Q149 146 149.0 192.0Q149 238 172.0 277.5Q195 317 234.5 340.0Q274 363 320 363ZM320 64Q355 64 384.5 81.0Q414 98 431.0 127.5Q448 157 448.0 192.0Q448 227 431.0 256.5Q414 286 384.5 303.0Q355 320 320.0 320.0Q285 320 255.5 303.0Q226 286 209.0 256.5Q192 227 192.0 192.0Q192 157 209.0 127.5Q226 98 255.5 81.0Q285 64 320 64ZM64 192Q64 151 88.0 118.0Q112 85 149 71V27Q94 41 57.5 87.0Q21 133 21.0 192.0Q21 251 57.5 297.0Q94 343 149 357V313Q112 299 88.0 266.0Q64 233 64 192Z" />
      </g>
    </svg>