<svg xmlns="http://www.w3.org/2000/svg" viewBox="43 15 426 348">
      <g transform="scale(1 -1) translate(0 -378)">
        <path d="M277 213Q286 213 292.5 207.0Q299 201 299.0 192.0Q299 183 292.5 177.0Q286 171 277.0 171.0Q268 171 262.0 177.0Q256 183 256.0 192.0Q256 201 262.0 207.0Q268 213 277 213ZM168 315Q189 337 217.0 350.0Q245 363 277 363Q314 363 346.0 346.0Q378 329 399.0 299.5Q420 270 425 235H469V192H341Q341 219 322.5 237.5Q304 256 277.5 256.0Q251 256 232.0 237.5Q213 219 213 192H43V235H44Q50 307 96 363ZM144 280 108 304Q90 271 87 235H129Q133 259 144 280ZM158 119 128 149H252Q255 143 262.0 138.5Q269 134 277.0 134.0Q285 134 292.0 138.5Q299 143 303 149H427V119Q411 129 403 127Q397 125 395 119L394 112V70L352 28Q345 52 333 51Q327 50 322 45L292 15H233Q246 36 237 44Q232 48 225 48H183L141 90Q165 96 164 108Q163 115 158 119Z" />
      </g>
    </svg>