<svg xmlns="http://www.w3.org/2000/svg" viewBox="22 21 469 342">
      <g transform="scale(1 -1) translate(0 -384)">
        <path d="M320 363Q366 363 405.5 340.0Q445 317 468.0 277.5Q491 238 491.0 192.0Q491 146 468.0 106.5Q445 67 405.5 44.0Q366 21 320.0 21.0Q274 21 234.5 44.0Q195 67 172.0 106.5Q149 146 149.0 192.0Q149 238 172.0 277.5Q195 317 234.5 340.0Q274 363 320 363ZM64 192Q64 151 87.5 118.0Q111 85 149 71V27Q93 42 57.5 88.0Q22 134 22.0 192.0Q22 250 57.5 296.0Q93 342 149 357V313Q111 299 87.5 266.0Q64 233 64 192Z" />
      </g>
    </svg>