<svg xmlns="http://www.w3.org/2000/svg" viewBox="24 -37 448 448">
      <g transform="scale(1 -1) translate(0 -374)">
        <path d="M472 -10 51 411 24 384 87 321Q66 294 54.5 261.0Q43 228 43 192Q43 134 71.5 85.0Q100 36 149.0 7.5Q198 -21 256 -21Q328 -21 385 23L445 -37ZM256 21Q210 21 170.5 44.0Q131 67 108.0 106.5Q85 146 85 192Q85 246 117 291L355 53Q311 21 256 21ZM174 342 143 373Q195 405 256 405Q314 405 363.0 376.5Q412 348 440.5 299.0Q469 250 469 192Q469 131 437 79L406 110Q427 148 427 192Q427 238 404.0 277.5Q381 317 341.5 340.0Q302 363 256 363Q212 363 174 342Z" />
      </g>
    </svg>