<svg xmlns="http://www.w3.org/2000/svg" viewBox="85 21 342 342">
      <g transform="scale(1 -1) translate(0 -384)">
        <path d="M341 363 427 277V363ZM427 107 341 21H427ZM171 21 85 107V21ZM85 277 171 363H85ZM362 298Q333 326 294.5 336.0Q256 346 217.5 336.0Q179 326 150.5 297.5Q122 269 112.0 230.5Q102 192 112.0 153.5Q122 115 150.5 86.5Q179 58 217.5 48.0Q256 38 294.5 48.0Q333 58 361.5 86.5Q390 115 400.0 153.5Q410 192 400.0 230.5Q390 269 362 298ZM338 110Q316 87 286.0 79.5Q256 72 226.0 79.5Q196 87 173.5 109.5Q151 132 143.5 162.0Q136 192 143.5 222.0Q151 252 173.5 274.5Q196 297 226.0 304.5Q256 312 286.0 304.5Q316 297 338.5 274.5Q361 252 368.5 222.0Q376 192 368.5 162.0Q361 132 338 110Z" />
      </g>
    </svg>