<svg xmlns="http://www.w3.org/2000/svg" viewBox="43 -21 426 426">
      <g transform="scale(1 -1) translate(0 -384)">
        <path d="M384 235V277H427V235ZM384 192V235H341V192ZM384 277V320H341V277ZM341 387V363H384Q363 378 341 387ZM384 363V320H427Q408 344 384 363ZM427 320V277H451Q442 299 427 320ZM469 192Q469 213 465 235H427V192ZM341 320V363H299V320ZM341 107H384V149H341ZM384 64H427V107H384ZM341 21H384V64H341ZM299 -17Q320 -13 341 -3V21H299ZM384 149H427V192H384ZM341 277H299V235H341ZM427 107H451Q461 128 465 149H427ZM341 192H299V149H341ZM256 64V107H299V149H256V192H299V235H256V277H299V320H256V363H299V401Q277 405 256 405Q198 405 149.0 376.5Q100 348 71.5 299.0Q43 250 43.0 192.0Q43 134 71.5 85.0Q100 36 149.0 7.5Q198 -21 256 -21V21H299V64ZM299 64H341V107H299Z" />
      </g>
    </svg>