<svg xmlns="http://www.w3.org/2000/svg" viewBox="21 -43 470 470">
      <g transform="scale(1 -1) translate(0 -384)">
        <path d="M320 -43H277V0H320ZM405 0H363V-43H405ZM320 85H277V43H320ZM149 0H107V-43H149ZM149 85H107V43H149ZM405 85H363V43H405ZM320 171H277V128H320ZM405 171H363V128H405ZM448 256Q466 256 478.5 243.5Q491 231 491 213V-43H448V213H235V-43H192V128H64V-43H21V128Q21 146 33.5 158.5Q46 171 64 171H192V213Q192 231 204.5 243.5Q217 256 235 256V299Q235 316 247.5 328.5Q260 341 277 341H320V427H363V341H405Q423 341 435.5 328.5Q448 316 448 299ZM405 256V299H277V256Z" />
      </g>
    </svg>