<svg xmlns="http://www.w3.org/2000/svg" viewBox="64 -21 384 426">
      <g transform="scale(1 -1) translate(0 -384)">
        <path d="M405 256V299Q405 316 392.5 328.5Q380 341 363 341H341V405H299V341H277Q260 341 247.5 328.5Q235 316 235 299V256Q217 256 204.5 243.5Q192 231 192 213V192H107Q89 192 76.5 179.5Q64 167 64 149V-21H128V21H171V-21H256V21H299V-21H341V21H384V-21H448V213Q448 231 435.5 243.5Q423 256 405 256ZM171 64H128V107H171ZM299 64H256V107H299ZM299 149H256V192H299ZM277 256V299H363V256ZM384 64H341V107H384ZM384 149H341V192H384Z" />
      </g>
    </svg>