<svg xmlns="http://www.w3.org/2000/svg" viewBox="24 -37 448 464">
      <g transform="scale(1 -1) translate(0 -390)">
        <path d="M448 341Q448 359 435.5 371.5Q423 384 405 384H316Q309 403 292.5 415.0Q276 427 256.0 427.0Q236 427 219.5 415.0Q203 403 196 384H132L448 68ZM256 341Q247 341 241.0 347.5Q235 354 235.0 362.5Q235 371 241.0 377.5Q247 384 256.0 384.0Q265 384 271.0 377.5Q277 371 277.0 362.5Q277 354 271.0 347.5Q265 341 256 341ZM472 -10 445 -37 407 0H107Q89 0 76.5 12.5Q64 25 64 43V343L24 384L51 411Z" />
      </g>
    </svg>