<svg xmlns="http://www.w3.org/2000/svg" viewBox="64 0 384 427">
      <g transform="scale(1 -1) translate(0 -427)">
        <path d="M405 384H316Q309 403 292.5 415.0Q276 427 256.0 427.0Q236 427 219.5 415.0Q203 403 196 384H107Q89 384 76.5 371.5Q64 359 64 341V43Q64 25 76.5 12.5Q89 0 107 0H405Q423 0 435.5 12.5Q448 25 448 43V341Q448 359 435.5 371.5Q423 384 405 384ZM256 384Q265 384 271.0 378.0Q277 372 277.0 363.0Q277 354 271.0 347.5Q265 341 256.0 341.0Q247 341 241.0 347.5Q235 354 235.0 363.0Q235 372 241.0 378.0Q247 384 256 384ZM107 161H153L224 297L244 148L297 216L353 161H405V128H339L300 166L221 66L205 189L173 128H107Z" />
      </g>
    </svg>