<svg xmlns="http://www.w3.org/2000/svg" viewBox="64 -21 424 448">
      <g transform="scale(1 -1) translate(0 -406)">
        <path d="M449 189Q453 189 457 186L484 158Q488 155 488.0 150.0Q488 145 484 142L463 121L419 164L441 186Q444 189 449 189ZM407 152 451 108 321 -21H277V23ZM405 384Q423 384 435.5 371.5Q448 359 448 341V256L235 43V0H107Q89 0 76.5 12.5Q64 25 64 43V341Q64 359 76.5 371.5Q89 384 107 384H196Q203 403 219.5 415.0Q236 427 256.0 427.0Q276 427 292.5 415.0Q309 403 316 384ZM256 384Q247 384 241.0 377.5Q235 371 235.0 362.5Q235 354 241.0 347.5Q247 341 256.0 341.0Q265 341 271.0 347.5Q277 354 277.0 362.5Q277 371 271.0 377.5Q265 384 256 384Z" />
      </g>
    </svg>