<svg xmlns="http://www.w3.org/2000/svg" viewBox="64 0 384 427">
      <g transform="scale(1 -1) translate(0 -427)">
        <path d="M384 43H128V73Q128 92 152 109Q172 122 204 131Q233 139 256.0 139.0Q279 139 308 131Q340 122 360 109Q384 92 384 73ZM256 299Q283 299 301.5 280.0Q320 261 320.0 234.5Q320 208 301.5 189.5Q283 171 256.0 171.0Q229 171 210.5 189.5Q192 208 192.0 234.5Q192 261 210.5 280.0Q229 299 256 299ZM256 384Q265 384 271.0 378.0Q277 372 277.0 363.0Q277 354 271.0 347.5Q265 341 256.0 341.0Q247 341 241.0 347.5Q235 354 235.0 363.0Q235 372 241.0 378.0Q247 384 256 384ZM405 384H316Q309 403 292.5 415.0Q276 427 256.0 427.0Q236 427 219.5 415.0Q203 403 196 384H107Q89 384 76.5 371.5Q64 359 64 341V43Q64 25 76.5 12.5Q89 0 107 0H405Q423 0 435.5 12.5Q448 25 448 43V341Q448 359 435.5 371.5Q423 384 405 384Z" />
      </g>
    </svg>