<svg xmlns="http://www.w3.org/2000/svg" viewBox="103 -21 274 426">
      <g transform="scale(1 -1) translate(0 -384)">
        <path d="M320 117Q320 95 304.5 79.5Q289 64 267.0 64.0Q245 64 229.0 79.5Q213 95 213 117V155Q213 161 218.0 166.0Q223 171 229.5 171.0Q236 171 240.5 166.0Q245 161 245 155V117Q245 108 251.5 102.0Q258 96 267.0 96.0Q276 96 282.0 102.0Q288 108 288 117V194Q274 199 265.0 210.0Q256 221 256 235Q256 252 270.0 264.5Q284 277 304.0 277.0Q324 277 338.0 264.5Q352 252 352 235Q352 221 343.0 210.0Q334 199 320 194ZM176 277Q196 277 210.0 264.5Q224 252 224 235Q224 221 215.0 210.0Q206 199 192 194V80Q192 51 212.5 31.0Q233 11 261.5 11.0Q290 11 310.5 31.0Q331 51 331 80V155Q331 161 335.5 166.0Q340 171 346.5 171.0Q353 171 358.0 166.0Q363 161 363 155V80Q363 60 355.0 41.5Q347 23 333.0 8.5Q319 -6 300.0 -13.5Q281 -21 261.0 -21.0Q241 -21 222.5 -13.5Q204 -6 189.5 8.5Q175 23 167.5 41.5Q160 60 160 80V194Q146 199 137.0 210.0Q128 221 128 235Q128 252 142.0 264.5Q156 277 176 277ZM215 317 205 286Q192 293 177.0 293.0Q162 293 149.5 287.5Q137 282 129 272L103 291Q124 318 160 324V325Q160 358 183.5 381.5Q207 405 240.0 405.0Q273 405 296.5 381.5Q320 358 320 325V324Q356 318 377 291L351 272Q343 282 330.5 287.5Q318 293 303.0 293.0Q288 293 275 286L265 317Q279 323 288 324V325Q288 345 274.0 359.0Q260 373 240.0 373.0Q220 373 206.0 359.0Q192 345 192 325V324Q201 323 215 317ZM304 251Q295 251 289.0 246.0Q283 241 283.0 234.5Q283 228 289.0 223.5Q295 219 304.0 219.0Q313 219 319.0 223.5Q325 228 325.0 234.5Q325 241 319.0 246.0Q313 251 304 251ZM176 251Q167 251 161.0 246.0Q155 241 155.0 234.5Q155 228 161.0 223.5Q167 219 176.0 219.0Q185 219 191.0 223.5Q197 228 197.0 234.5Q197 241 191.0 246.0Q185 251 176 251Z" />
      </g>
    </svg>