<svg xmlns="http://www.w3.org/2000/svg" viewBox="64 0 384 427">
      <g transform="scale(1 -1) translate(0 -427)">
        <path d="M405 384Q423 384 435.5 371.5Q448 359 448 341V43Q448 25 435.5 12.5Q423 0 405 0H107Q89 0 76.5 12.5Q64 25 64 43V341Q64 359 76.5 371.5Q89 384 107 384H196Q203 403 219.5 415.0Q236 427 256.0 427.0Q276 427 292.5 415.0Q309 403 316 384ZM256 384Q247 384 241.0 378.0Q235 372 235.0 363.0Q235 354 241.0 347.5Q247 341 256.0 341.0Q265 341 271.0 347.5Q277 354 277.0 363.0Q277 372 271.0 378.0Q265 384 256 384ZM149 299V341H107V43H405V341H363V299ZM256 256Q274 256 286.5 243.5Q299 231 299.0 213.5Q299 196 286.5 183.5Q274 171 256.0 171.0Q238 171 225.5 183.5Q213 196 213.0 213.5Q213 231 225.5 243.5Q238 256 256 256ZM171 85V107Q171 124 196.0 136.5Q221 149 256.0 149.0Q291 149 316.0 136.5Q341 124 341 107V85Z" />
      </g>
    </svg>