<svg xmlns="http://www.w3.org/2000/svg" viewBox="24 -37 448 463">
      <g transform="scale(1 -1) translate(0 -389)">
        <path d="M363 299V341H405V111L448 68V341Q448 359 435.5 371.5Q423 384 405 384H316Q307 409 283.0 420.0Q259 431 235 422Q207 413 196 384H132L218 299ZM256 384Q265 384 271.0 377.5Q277 371 277.0 362.5Q277 354 271.0 347.5Q265 341 256.0 341.0Q247 341 241.0 347.5Q235 354 235.0 362.5Q235 371 241.0 377.5Q247 384 256 384ZM303 213 260 256H363V213ZM51 411 24 384 64 343V43Q64 25 76.5 12.5Q89 0 107 0H407L445 -37L472 -10ZM107 43V301L152 256H149V213H194L237 171H149V128H280L365 43Z" />
      </g>
    </svg>