<svg xmlns="http://www.w3.org/2000/svg" viewBox="43 -43 426 470">
      <g transform="scale(1 -1) translate(0 -384)">
        <path d="M85 299H43V0Q43 -18 55.5 -30.5Q68 -43 85 -43H384V0H85ZM427 384H358Q352 403 335.5 415.0Q319 427 298.5 427.0Q278 427 261.5 415.0Q245 403 239 384H171Q153 384 140.5 371.5Q128 359 128 341V85Q128 68 140.5 55.5Q153 43 171 43H427Q444 43 456.5 55.5Q469 68 469 85V341Q469 359 456.5 371.5Q444 384 427 384ZM299 384Q308 384 314.0 377.5Q320 371 320.0 363.0Q320 355 313.5 348.0Q307 341 299.0 341.0Q291 341 284.0 348.0Q277 355 277.0 363.0Q277 371 283.0 377.5Q289 384 299 384ZM262 126 192 196 222 226 262 186 375 299 405 269Z" />
      </g>
    </svg>