<svg xmlns="http://www.w3.org/2000/svg" viewBox="64 -30 435 457">
      <g transform="scale(1 -1) translate(0 -397)">
        <path d="M217 85H149V128H213Q216 152 224 171H149V213H252L254 215Q274 235 299.5 245.5Q325 256 352 256H149V299H363V256H352Q378 256 403.0 246.0Q428 236 448 217V341Q448 359 435.5 371.5Q423 384 405 384H316Q309 403 292.5 415.0Q276 427 256.0 427.0Q236 427 219.5 415.0Q203 403 196 384H107Q89 384 76.5 371.5Q64 359 64 341V43Q64 25 76.5 12.5Q89 0 107 0H279Q264 9 254 19Q227 46 217 85ZM256 384Q265 384 271.0 377.5Q277 371 277.0 362.5Q277 354 271.0 347.5Q265 341 256.0 341.0Q247 341 241.0 347.5Q235 354 235.0 362.5Q235 371 241.0 377.5Q247 384 256 384ZM433 66Q448 89 448 117Q448 157 420.0 185.0Q392 213 352.0 213.0Q312 213 284.0 185.0Q256 157 256.0 117.0Q256 77 284.0 49.0Q312 21 352 21Q379 21 403 36L469 -30L499 0ZM352 64Q330 64 314.5 79.5Q299 95 299.0 117.0Q299 139 314.5 155.0Q330 171 352.0 171.0Q374 171 389.5 155.0Q405 139 405.0 117.0Q405 95 389.5 79.5Q374 64 352 64Z" />
      </g>
    </svg>