<svg xmlns="http://www.w3.org/2000/svg" viewBox="64 -21 405 447">
      <g transform="scale(1 -1) translate(0 -405)">
        <path d="M405 384Q423 384 435.5 371.5Q448 359 448 341V163Q428 171 405 171Q371 171 341.5 153.5Q312 136 294.5 106.5Q277 77 277 43Q277 20 285 0H107Q89 0 76.5 12.5Q64 25 64 43V341Q64 359 76.5 371.5Q89 384 107 384H196Q207 413 235 422Q259 431 283.0 420.0Q307 409 316 384ZM256 384Q247 384 241.0 378.0Q235 372 235.0 363.0Q235 354 241.0 347.5Q247 341 256.0 341.0Q265 341 271.0 347.5Q277 354 277.0 363.0Q277 372 271.0 378.0Q265 384 256 384ZM235 85V128H149V85ZM277 171V213H149V171ZM363 256V299H149V256ZM363 107 469 43 363 -21Z" />
      </g>
    </svg>