<svg xmlns="http://www.w3.org/2000/svg" viewBox="43 -43 426 470">
      <g transform="scale(1 -1) translate(0 -384)">
        <path d="M85 0H384V-43H85Q68 -43 55.5 -30.5Q43 -18 43 0V299H85ZM469 341V85Q469 68 456.5 55.5Q444 43 427 43H171Q153 43 140.5 55.5Q128 68 128 85V341Q128 359 140.5 371.5Q153 384 171 384H239Q245 403 261.5 415.0Q278 427 298.5 427.0Q319 427 335.5 415.0Q352 403 358 384H427Q444 384 456.5 371.5Q469 359 469 341ZM277 363Q277 355 284.0 348.0Q291 341 299.0 341.0Q307 341 313.5 348.0Q320 355 320.0 363.0Q320 371 314.0 377.5Q308 384 298.5 384.0Q289 384 283.0 377.5Q277 371 277 363ZM363 192 256 277V107Z" />
      </g>
    </svg>