<svg xmlns="http://www.w3.org/2000/svg" viewBox="64 0 384 427">
      <g transform="scale(1 -1) translate(0 -427)">
        <path d="M405 384H316Q309 403 292.5 415.0Q276 427 256.0 427.0Q236 427 219.5 415.0Q203 403 196 384H107Q89 384 76.5 371.5Q64 359 64 341V43Q64 25 76.5 12.5Q89 0 107 0H405Q423 0 435.5 12.5Q448 25 448 43V341Q448 359 435.5 371.5Q423 384 405 384ZM149 277H192V192H171V256H149ZM213 85V64H149V84L192 128H149V149H197Q204 149 208.5 144.5Q213 140 213.0 133.5Q213 127 209 122L173 85ZM235 363Q235 371 241.0 377.5Q247 384 256.0 384.0Q265 384 271.0 377.5Q277 371 277.0 362.5Q277 354 271.0 347.5Q265 341 256.0 341.0Q247 341 241.0 347.5Q235 354 235 363ZM363 85H256V128H363ZM363 213H256V256H363Z" />
      </g>
    </svg>