<svg xmlns="http://www.w3.org/2000/svg" viewBox="64 -30 435 456">
      <g transform="scale(1 -1) translate(0 -396)">
        <path d="M363 256H352ZM149 128H213Q216 152 224 171H149ZM254 215Q274 235 299.5 245.5Q325 256 352 256H149V213H252ZM254 19Q264 9 279 0H107Q89 0 76.5 12.5Q64 25 64 43V341Q64 359 76.5 371.5Q89 384 107 384H196Q207 413 235 422Q259 431 283.0 420.0Q307 409 316 384H405Q423 384 435.5 371.5Q448 359 448 341V217Q429 235 405 245V341H363V299H149V341H107V43H235Q243 31 254 19ZM235 363Q235 354 241.0 347.5Q247 341 256.0 341.0Q265 341 271.0 347.5Q277 354 277.0 362.5Q277 371 271.0 377.5Q265 384 256.0 384.0Q247 384 241.0 377.5Q235 371 235 363ZM499 0 469 -30 403 36Q379 21 352 21Q312 21 284.0 49.0Q256 77 256.0 117.0Q256 157 284.0 185.0Q312 213 352.0 213.0Q392 213 420.0 185.0Q448 157 448 117Q448 89 433 66ZM405 117Q405 139 389.5 155.0Q374 171 352.0 171.0Q330 171 314.5 155.0Q299 139 299.0 117.0Q299 95 314.5 79.5Q330 64 352.0 64.0Q374 64 389.5 79.5Q405 95 405 117Z" />
      </g>
    </svg>