<svg xmlns="http://www.w3.org/2000/svg" viewBox="24 -37 448 464">
      <g transform="scale(1 -1) translate(0 -390)">
        <path d="M51 411 24 384 64 343V43Q64 25 76.5 12.5Q89 0 107 0H407L445 -37L472 -10ZM149 213H194L237 171H149ZM299 85H149V128H280L299 109ZM363 299V256H260L303 213H363V171H346L448 68V341Q448 359 435.5 371.5Q423 384 405 384H316Q309 403 292.5 415.0Q276 427 256.0 427.0Q236 427 219.5 415.0Q203 403 196 384H132L218 299ZM256 384Q265 384 271.0 377.5Q277 371 277.0 362.5Q277 354 271.0 347.5Q265 341 256.0 341.0Q247 341 241.0 347.5Q235 354 235.0 362.5Q235 371 241.0 377.5Q247 384 256 384Z" />
      </g>
    </svg>