<svg xmlns="http://www.w3.org/2000/svg" viewBox="64 0 384 427">
      <g transform="scale(1 -1) translate(0 -427)">
        <path d="M405 384H316Q309 403 292.5 415.0Q276 427 256.0 427.0Q236 427 219.5 415.0Q203 403 196 384H107Q89 384 76.5 371.5Q64 359 64 341V43Q64 25 76.5 12.5Q89 0 107 0H405Q423 0 435.5 12.5Q448 25 448 43V341Q448 359 435.5 371.5Q423 384 405 384ZM256 384Q265 384 271.0 377.5Q277 371 277.0 362.5Q277 354 271.0 347.5Q265 341 256.0 341.0Q247 341 241.0 347.5Q235 354 235.0 362.5Q235 371 241.0 377.5Q247 384 256 384ZM149 299H363V341H405V43H107V341H149ZM213 107H171V213H128L192 277L256 213H213ZM299 235H341V128H384L320 64L256 128H299Z" />
      </g>
    </svg>