<svg xmlns="http://www.w3.org/2000/svg" viewBox="64 -21 405 447">
      <g transform="scale(1 -1) translate(0 -405)">
        <path d="M405 384H316Q307 409 283.0 420.0Q259 431 235 422Q207 413 196 384H107Q89 384 76.5 371.5Q64 359 64 341V43Q64 25 76.5 12.5Q89 0 107 0H320V43H107V341H149V299H363V341H405V149H448V341Q448 359 435.5 371.5Q423 384 405 384ZM256 341Q247 341 241.0 347.5Q235 354 235.0 363.0Q235 372 241.0 378.0Q247 384 256.0 384.0Q265 384 271.0 378.0Q277 372 277.0 363.0Q277 354 271.0 347.5Q265 341 256 341ZM363 107V-21L469 43ZM363 213H149V256H363ZM320 128H149V171H320Z" />
      </g>
    </svg>