<svg xmlns="http://www.w3.org/2000/svg" viewBox="43 -43 426 470">
      <g transform="scale(1 -1) translate(0 -384)">
        <path d="M85 299V0H384V-43H85Q68 -43 55.5 -30.5Q43 -18 43 0V299ZM427 384Q444 384 456.5 371.5Q469 359 469 341V85Q469 68 456.5 55.5Q444 43 427 43H171Q153 43 140.5 55.5Q128 68 128 85V341Q128 359 140.5 371.5Q153 384 171 384H239Q245 403 261.5 415.0Q278 427 298.5 427.0Q319 427 335.5 415.0Q352 403 359 384ZM299 384Q290 384 283.5 377.5Q277 371 277.0 362.5Q277 354 283.5 347.5Q290 341 298.5 341.0Q307 341 313.5 347.5Q320 354 320.0 362.5Q320 371 313.5 377.5Q307 384 299 384ZM213 299V341H171V85H427V341H384V299ZM320 128H213V171H320ZM384 213H213V256H384Z" />
      </g>
    </svg>