<svg xmlns="http://www.w3.org/2000/svg" viewBox="43 -43 444 448">
      <g transform="scale(1 -1) translate(0 -362)">
        <path d="M448 169Q444 169 439 164L418 143L463 98L484 119Q487 123 487.0 128.0Q487 133 484 137L457 164Q452 169 448 169ZM407 130 277 2V-43H322L452 87ZM235 -19Q181 -14 137.0 15.5Q93 45 68.0 91.5Q43 138 43 192Q43 250 71.5 299.0Q100 348 149.0 376.5Q198 405 255.0 405.0Q312 405 359.0 379.0Q406 353 435.5 307.5Q465 262 469 207Q457 211 448 211Q427 211 410 194L352 137L267 188V299H235V171L329 113L235 19Z" />
      </g>
    </svg>