<svg xmlns="http://www.w3.org/2000/svg" viewBox="0 64 512 256">
      <g transform="scale(1 -1) translate(0 -384)">
        <path d="M43 320Q25 320 12.5 307.5Q0 295 0 277V107Q0 89 12.5 76.5Q25 64 43 64H469Q487 64 499.5 76.5Q512 89 512 107V277Q512 295 499.5 307.5Q487 320 469 320ZM43 277H469V107H43ZM64 256V224H133L64 128H101L171 224V256ZM197 256V224H229V256ZM256 256V224H288V128H320V256ZM363 256Q354 256 347.5 250.0Q341 244 341 235V149Q341 140 347.5 134.0Q354 128 363 128H427Q436 128 442.0 134.0Q448 140 448 149V235Q448 244 442.0 250.0Q436 256 427 256ZM373 224H416V160H373ZM197 160V128H229V160Z" />
      </g>
    </svg>