<svg xmlns="http://www.w3.org/2000/svg" viewBox="64 -64 384 491">
      <g transform="scale(1 -1) translate(0 -363)">
        <path d="M256 427Q216 427 181.5 406.5Q147 386 127.0 352.0Q107 318 107.0 277.5Q107 237 127.0 202.5Q147 168 181.0 148.0Q215 128 256.0 128.0Q297 128 331.0 148.0Q365 168 385.0 202.5Q405 237 405.0 277.5Q405 318 385.0 352.0Q365 386 330.5 406.5Q296 427 256 427ZM256 381Q284 381 308.0 367.0Q332 353 345.5 329.0Q359 305 359.0 277.0Q359 249 345.5 225.5Q332 202 308.0 188.0Q284 174 256 174Q235 174 216.0 182.0Q197 190 182.5 204.5Q168 219 160.5 238.0Q153 257 153 277Q153 305 166.5 329.0Q180 353 204.0 367.0Q228 381 256 381ZM235 341V263L303 223L319 251L267 281V341ZM320 107V43H64V0H320V-64L405 21ZM405 21V-64H448V107H405Z" />
      </g>
    </svg>