<svg xmlns="http://www.w3.org/2000/svg" viewBox="43 -21 426 426">
      <g transform="scale(1 -1) translate(0 -384)">
        <path d="M235 299V171L346 105L363 130L267 188V299ZM427 192V64H469V192ZM427 21V-21H469V21ZM384 21Q328 -21 256 -21Q198 -21 149.0 7.5Q100 36 71.5 85.0Q43 134 43.0 192.0Q43 250 71.5 299.0Q100 348 149.0 376.5Q198 405 256 405Q306 405 350.5 383.0Q395 361 425.5 322.0Q456 283 465 235H420Q406 290 360.0 326.5Q314 363 256 363Q210 363 170.5 340.0Q131 317 108.0 277.5Q85 238 85.0 192.0Q85 146 108.0 106.5Q131 67 170.5 44.0Q210 21 256 21Q293 21 327 37Q359 52 384 79Z" />
      </g>
    </svg>