<svg xmlns="http://www.w3.org/2000/svg" viewBox="43 -21 458 426">
      <g transform="scale(1 -1) translate(0 -384)">
        <path d="M501 85 395 -21 320 53 352 85 395 43 469 117ZM279 23Q271 21 256 21Q210 21 170.5 44.0Q131 67 108.0 106.5Q85 146 85.0 192.0Q85 238 108.0 277.5Q131 317 170.5 340.0Q210 363 256.0 363.0Q302 363 341.5 340.0Q381 317 404.0 277.5Q427 238 427 192Q427 177 425 169Q445 166 465 156L466 161Q469 181 469 192Q469 250 440.5 299.0Q412 348 363.0 376.5Q314 405 256.0 405.0Q198 405 149.0 376.5Q100 348 71.5 299.0Q43 250 43.0 192.0Q43 134 71.5 85.0Q100 36 149.0 7.5Q198 -21 256 -21Q271 -21 292 -17Q283 -2 279 23ZM333 147 267 186V299H235V171L309 126Q316 134 333 147Z" />
      </g>
    </svg>