<svg xmlns="http://www.w3.org/2000/svg" viewBox="43 -21 458 426">
      <g transform="scale(1 -1) translate(0 -384)">
        <path d="M501 85 395 -21 320 53 352 85 395 43 469 117ZM277 43Q277 89 307 126L235 171V299H267V188L333 147Q366 171 405 171Q435 171 465 156L466 161Q469 181 469 192Q469 250 440.5 299.0Q412 348 363.0 376.5Q314 405 256.0 405.0Q198 405 149.0 376.5Q100 348 71.5 299.0Q43 250 43.0 192.0Q43 134 71.5 85.0Q100 36 149.0 7.5Q198 -21 256 -21Q271 -21 292 -17Q277 13 277 43Z" />
      </g>
    </svg>