<svg xmlns="http://www.w3.org/2000/svg" viewBox="21 21 470 342">
      <g transform="scale(1 -1) translate(0 -384)">
        <path d="M320 363Q366 363 405.5 340.0Q445 317 468.0 277.5Q491 238 491.0 192.0Q491 146 468.0 106.5Q445 67 405.5 44.0Q366 21 320.0 21.0Q274 21 234.5 44.0Q195 67 172.0 106.5Q149 146 149.0 192.0Q149 238 172.0 277.5Q195 317 234.5 340.0Q274 363 320 363ZM320 320Q285 320 255.5 303.0Q226 286 209.0 256.5Q192 227 192.0 192.0Q192 157 209.0 127.5Q226 98 255.5 81.0Q285 64 320.0 64.0Q355 64 384.5 81.0Q414 98 431.0 127.5Q448 157 448.0 192.0Q448 227 431.0 256.5Q414 286 384.5 303.0Q355 320 320 320ZM299 277H331V197L380 147L358 124L299 183ZM43 64Q34 64 27.5 70.0Q21 76 21.0 85.0Q21 94 27.5 100.5Q34 107 43 107H124Q134 85 149 64ZM64 171Q55 171 49.0 177.0Q43 183 43.0 192.0Q43 201 49.0 207.0Q55 213 64 213H108L107 192L108 171ZM85 277Q76 277 70.0 283.5Q64 290 64.0 299.0Q64 308 70.0 314.0Q76 320 85 320H149Q134 299 124 277Z" />
      </g>
    </svg>