<svg xmlns="http://www.w3.org/2000/svg" viewBox="43 -43 448 448">
      <g transform="scale(1 -1) translate(0 -362)">
        <path d="M293 -18Q274 -21 256 -21Q198 -21 149.0 7.5Q100 36 71.5 85.0Q43 134 43.0 192.0Q43 250 71.5 299.0Q100 348 149.0 376.5Q198 405 256.0 405.0Q314 405 363.0 376.5Q412 348 440.5 299.0Q469 250 469 192Q469 174 466 155Q438 171 405 171Q366 171 333 148L267 188V299H235V171L308 126Q277 90 277 43Q277 10 293 -18ZM384 128V64H320V21H384V-43H427V21H491V64H427V128Z" />
      </g>
    </svg>