<svg xmlns="http://www.w3.org/2000/svg" viewBox="43 -33 438 438">
      <g transform="scale(1 -1) translate(0 -372)">
        <path d="M309 126 235 171V299H267V187L332 148Q319 138 309 126ZM279 23Q267 21 256 21Q210 21 170.5 44.0Q131 67 108.0 106.5Q85 146 85.0 192.0Q85 238 108.0 277.5Q131 317 170.5 340.0Q210 363 256.0 363.0Q302 363 341.5 340.0Q381 317 404.0 277.5Q427 238 427 192Q427 181 425 169Q447 166 466 155Q469 174 469 192Q469 250 440.5 299.0Q412 348 363.0 376.5Q314 405 256.0 405.0Q198 405 149.0 376.5Q100 348 71.5 299.0Q43 250 43.0 192.0Q43 134 71.5 85.0Q100 36 149.0 7.5Q198 -21 256 -21Q274 -21 293 -18Q282 1 279 23ZM451 118 405 73 360 118 330 88 375 43 330 -3 360 -33 405 13 451 -33 481 -3 435 43 481 88Z" />
      </g>
    </svg>