<svg xmlns="http://www.w3.org/2000/svg" viewBox="107 -21 384 448">
      <g transform="scale(1 -1) translate(0 -406)">
        <path d="M384 427 422 388 337 303 367 273 452 358 491 320V427ZM256 277Q215 277 181.0 257.0Q147 237 127.0 203.0Q107 169 107.0 128.0Q107 87 127.0 53.0Q147 19 181.0 -1.0Q215 -21 256.0 -21.0Q297 -21 331.0 -1.0Q365 19 385.0 53.0Q405 87 405.0 128.0Q405 169 385.0 203.0Q365 237 331.0 257.0Q297 277 256 277ZM256 231Q284 231 308.0 217.5Q332 204 345.5 180.0Q359 156 359 128Q359 107 351.5 88.0Q344 69 329.5 54.5Q315 40 296.0 32.5Q277 25 256 25Q228 25 204.0 38.5Q180 52 166.5 76.0Q153 100 153 128Q153 149 160.5 168.0Q168 187 182.5 201.5Q197 216 216.0 223.5Q235 231 256 231ZM235 192V113L303 74L319 102L267 132V192Z" />
      </g>
    </svg>