<svg xmlns="http://www.w3.org/2000/svg" viewBox="43 -33 438 438">
      <g transform="scale(1 -1) translate(0 -372)">
        <path d="M293 -18Q274 -21 256 -21Q198 -21 149.0 7.5Q100 36 71.5 85.0Q43 134 43.0 192.0Q43 250 71.5 299.0Q100 348 149.0 376.5Q198 405 256.0 405.0Q314 405 363.0 376.5Q412 348 440.5 299.0Q469 250 469 192Q469 174 466 155Q438 171 405 171Q366 171 333 148L267 188V299H235V171L308 126Q277 90 277 43Q277 10 293 -18ZM451 118 405 73 360 118 330 88 375 43 330 -3 360 -33 405 13 451 -33 481 -3 435 43 481 88Z" />
      </g>
    </svg>