<svg xmlns="http://www.w3.org/2000/svg" viewBox="43 -43 444 448">
      <g transform="scale(1 -1) translate(0 -362)">
        <path d="M448 169Q444 169 439 164L418 143L463 98L484 119Q487 123 487.0 128.0Q487 133 484 137L457 164Q452 169 448 169ZM407 130 277 2V-43H322L452 87ZM267 299V188L352 137L331 115L235 171V299ZM235 -19Q181 -14 137.0 15.5Q93 45 68.0 91.5Q43 138 43 192Q43 250 71.5 299.0Q100 348 149.0 376.5Q198 405 255.0 405.0Q312 405 359.0 379.0Q406 353 435.5 307.5Q465 262 469 207Q457 211 448.0 211.0Q439 211 427 207Q422 250 398.5 285.5Q375 321 337.5 342.0Q300 363 255.0 363.0Q210 363 170.5 340.0Q131 317 108.0 277.5Q85 238 85 192Q85 149 105.0 112.0Q125 75 160.0 51.5Q195 28 237 23L235 19Z" />
      </g>
    </svg>