<svg xmlns="http://www.w3.org/2000/svg" viewBox="0 0 512 384">
      <g transform="scale(1 -1) translate(0 -384)">
        <path d="M396 237 365 267 320 222 275 267 245 237 290 192 245 147 275 116 320 162 365 116 396 147 350 192ZM43 192Q43 236 66.5 272.5Q90 309 128 327V373Q71 353 35.5 303.5Q0 254 0.0 192.0Q0 130 35.5 80.5Q71 31 128 11V57Q90 75 66.5 111.5Q43 148 43 192ZM320 384Q268 384 224.0 358.0Q180 332 154.0 288.0Q128 244 128.0 192.0Q128 140 154.0 96.0Q180 52 224.0 26.0Q268 0 320.0 0.0Q372 0 416.0 26.0Q460 52 486.0 96.0Q512 140 512.0 192.0Q512 244 486.0 288.0Q460 332 416.0 358.0Q372 384 320 384ZM320 43Q280 43 245.5 63.0Q211 83 191.0 117.5Q171 152 171.0 192.0Q171 232 191.0 266.5Q211 301 245.5 321.0Q280 341 320.0 341.0Q360 341 394.5 321.0Q429 301 449.0 266.5Q469 232 469.0 192.0Q469 152 449.0 117.5Q429 83 394.5 63.0Q360 43 320 43Z" />
      </g>
    </svg>