<svg xmlns="http://www.w3.org/2000/svg" viewBox="64 21 384 342">
      <g transform="scale(1 -1) translate(0 -384)">
        <path d="M107 363Q89 363 76.5 350.5Q64 338 64 320V64Q64 46 76.5 33.5Q89 21 107 21H405Q423 21 435.5 34.0Q448 47 448 64V320Q448 337 435.5 350.0Q423 363 405 363ZM96 331H416V53H96ZM149 256Q140 256 134.0 250.0Q128 244 128 235V149Q128 140 134.0 134.0Q140 128 149 128H213Q222 128 228.5 134.0Q235 140 235 149V171H203V160H160V224H203V213H235V235Q235 244 228.5 250.0Q222 256 213 256ZM299 256Q290 256 283.5 250.0Q277 244 277 235V149Q277 140 283.5 134.0Q290 128 299 128H363Q372 128 378.0 134.0Q384 140 384 149V171H352V160H309V224H352V213H384V235Q384 244 378.0 250.0Q372 256 363 256Z" />
      </g>
    </svg>