<svg xmlns="http://www.w3.org/2000/svg" viewBox="64 21 384 342">
      <g transform="scale(1 -1) translate(0 -384)">
        <path d="M384 213H352V224H309V160H352V171H384V149Q384 140 378.0 134.0Q372 128 363 128H299Q290 128 283.5 134.0Q277 140 277 149V235Q277 244 283.5 250.0Q290 256 299 256H363Q372 256 378.0 250.0Q384 244 384 235ZM235 213H203V224H160V160H203V171H235V149Q235 140 228.5 134.0Q222 128 213 128H149Q140 128 134.0 134.0Q128 140 128 149V235Q128 244 134.0 250.0Q140 256 149 256H213Q222 256 228.5 250.0Q235 244 235 235ZM405 363H107Q89 363 76.5 350.5Q64 338 64 320V64Q64 46 76.5 33.5Q89 21 107 21H405Q423 21 435.5 33.5Q448 46 448 64V320Q448 338 435.5 350.5Q423 363 405 363Z" />
      </g>
    </svg>