<svg xmlns="http://www.w3.org/2000/svg" viewBox="43 -43 426 427">
      <g transform="scale(1 -1) translate(0 -341)">
        <path d="M320 21Q320 30 314.0 36.5Q308 43 299 43H277V85H363Q380 85 392.5 97.5Q405 110 405 128V341Q405 359 392.5 371.5Q380 384 363 384H149Q132 384 119.5 371.5Q107 359 107 341V128Q107 110 119.5 97.5Q132 85 149 85H235V43H213Q204 43 198.0 36.5Q192 30 192 21H43V-21H192Q192 -30 198.0 -36.5Q204 -43 213 -43H299Q308 -43 314.0 -36.5Q320 -30 320 -21H469V21ZM149 128V341H363V128ZM332 189 286 235 331 280 301 310 256 265 211 310 181 280 226 235 181 189 211 159 256 205 301 159Z" />
      </g>
    </svg>