<svg xmlns="http://www.w3.org/2000/svg" viewBox="0 21 512 342">
      <g transform="scale(1 -1) translate(0 -384)">
        <path d="M202 255Q214 255 223.0 246.5Q232 238 232.0 225.5Q232 213 223.0 204.0Q214 195 201.5 195.0Q189 195 180.0 204.0Q171 213 171.0 225.5Q171 238 180.0 246.5Q189 255 202 255ZM310 86Q298 86 289.0 95.0Q280 104 280.0 116.5Q280 129 289.0 138.0Q298 147 310.5 147.0Q323 147 332.0 138.0Q341 129 341.0 116.5Q341 104 332.0 95.0Q323 86 310 86ZM196 85 171 111 316 256 341 230ZM413 234Q402 290 358.0 326.5Q314 363 256 363Q211 363 172.5 339.5Q134 316 114 277Q82 273 56.0 255.5Q30 238 15.0 210.0Q0 182 0 149Q0 115 17.0 85.5Q34 56 63.5 38.5Q93 21 128 21H405Q434 21 458.5 35.5Q483 50 497.5 74.5Q512 99 512 128Q512 170 483.5 200.5Q455 231 413 234ZM405 64H128Q93 64 68.0 89.0Q43 114 43.0 149.5Q43 185 68.0 210.0Q93 235 128 235H143Q154 272 185.0 296.0Q216 320 256 320Q288 320 315.0 304.0Q342 288 357.5 261.5Q373 235 373 203V192H405Q432 192 450.5 173.5Q469 155 469.0 128.0Q469 101 450.5 82.5Q432 64 405 64Z" />
      </g>
    </svg>