<svg xmlns="http://www.w3.org/2000/svg" viewBox="43 -21 426 426">
      <g transform="scale(1 -1) translate(0 -384)">
        <path d="M352 107H171Q144 107 125.5 125.5Q107 144 107.0 170.5Q107 197 125.5 216.0Q144 235 171 235H174Q181 263 203.5 281.0Q226 299 256 299Q291 299 316.0 274.0Q341 249 341 213H352Q374 213 389.5 197.5Q405 182 405.0 160.0Q405 138 389.5 122.5Q374 107 352 107ZM256 405Q214 405 174.5 389.0Q135 373 105.0 343.0Q75 313 59.0 273.5Q43 234 43.0 192.0Q43 150 59.0 110.5Q75 71 105.0 41.0Q135 11 174.5 -5.0Q214 -21 256.0 -21.0Q298 -21 337.5 -5.0Q377 11 407.0 41.0Q437 71 453.0 110.5Q469 150 469.0 192.0Q469 234 453.0 273.5Q437 313 407.0 343.0Q377 373 337.5 389.0Q298 405 256 405Z" />
      </g>
    </svg>