<svg xmlns="http://www.w3.org/2000/svg" viewBox="0 21 512 342">
      <g transform="scale(1 -1) translate(0 -384)">
        <path d="M128 21Q93 21 63.5 38.5Q34 56 17.0 85.5Q0 115 0 149Q0 182 15.0 210.0Q30 238 56.0 255.5Q82 273 114 276Q134 316 172.0 339.5Q210 363 256 363Q314 363 358.0 326.5Q402 290 413 235Q455 232 483.5 201.0Q512 170 512 128Q512 99 497.5 74.5Q483 50 458.5 35.5Q434 21 405 21ZM194 269 96 171 194 73 224 103 156 171 224 239ZM318 269 288 239 356 171 288 103 318 73 416 171Z" />
      </g>
    </svg>