<svg xmlns="http://www.w3.org/2000/svg" viewBox="0 21 512 342">
      <g transform="scale(1 -1) translate(0 -384)">
        <path d="M256 363Q314 363 358.0 326.0Q402 289 413 234Q455 231 483.5 200.5Q512 170 512 128Q512 99 497.5 74.5Q483 50 458.5 35.5Q434 21 405 21H128Q93 21 63.5 38.5Q34 56 17.0 85.5Q0 115 0 149Q0 182 15.0 210.0Q30 238 56.0 255.5Q82 273 114 276Q134 316 172.0 339.5Q210 363 256 363ZM363 171V256L341 235Q326 254 304.0 265.5Q282 277 256 277Q227 277 202.5 263.0Q178 249 163.5 224.5Q149 200 149.0 171.0Q149 142 163.5 117.5Q178 93 202.5 78.5Q227 64 256 64Q288 64 314.5 81.5Q341 99 354 128H304Q285 107 257.0 107.0Q229 107 210.5 125.5Q192 144 192.0 170.5Q192 197 210.5 216.0Q229 235 256 235Q273 235 287.5 226.5Q302 218 311 204L277 171Z" />
      </g>
    </svg>