<svg xmlns="http://www.w3.org/2000/svg" viewBox="0 -51 512 456">
      <g transform="scale(1 -1) translate(0 -354)">
        <path d="M331 192Q371 192 399.0 164.0Q427 136 427 96Q427 68 412 45L478 -21L448 -51L381 15Q358 0 331 0Q291 0 263.0 28.0Q235 56 235.0 96.0Q235 136 263.0 164.0Q291 192 331 192ZM331 149Q309 149 293.0 133.5Q277 118 277.0 96.0Q277 74 293.0 58.5Q309 43 331.0 43.0Q353 43 368.5 58.5Q384 74 384.0 96.0Q384 118 368.5 133.5Q353 149 331 149ZM469 171Q469 197 450.5 216.0Q432 235 405 235H373V245Q373 277 357.5 304.0Q342 331 315.0 347.0Q288 363 256 363Q216 363 185.0 339.0Q154 315 143 277H128Q93 277 68.0 252.0Q43 227 43.0 192.0Q43 157 68.0 132.0Q93 107 128 107H192V96Q192 80 196 64H128Q93 64 63.5 81.0Q34 98 17.0 127.5Q0 157 0 192Q0 225 15.0 252.5Q30 280 56.0 298.0Q82 316 114 319Q134 358 172.0 381.5Q210 405 256 405Q314 405 358.0 368.5Q402 332 413 276Q455 274 483.5 243.5Q512 213 512 171Q512 145 500.5 122.5Q489 100 469 85V96Q469 119 462 141Q469 154 469 171Z" />
      </g>
    </svg>