<svg xmlns="http://www.w3.org/2000/svg" viewBox="0 21 512 342">
      <g transform="scale(1 -1) translate(0 -384)">
        <path d="M413 234Q402 290 358.0 326.5Q314 363 256 363Q211 363 172.5 339.5Q134 316 114 277Q82 273 56.0 255.5Q30 238 15.0 210.0Q0 182 0 149Q0 115 17.0 85.5Q34 56 63.5 38.5Q93 21 128 21H405Q434 21 458.5 35.5Q483 50 497.5 74.5Q512 99 512 128Q512 170 483.5 200.5Q455 231 413 234ZM277 85H235V128H277ZM316 196Q307 184 292 176Q283 171 280.0 164.5Q277 158 277 149H235Q235 166 241.5 175.0Q248 184 264 194Q272 199 277.0 206.5Q282 214 282.0 224.0Q282 234 276.5 240.0Q271 246 260 246Q252 246 246.0 241.0Q240 236 240 226H198Q196 251 214.0 264.0Q232 277 261.0 277.0Q290 277 307.5 262.5Q325 248 325 224Q325 209 316 196Z" />
      </g>
    </svg>