<svg xmlns="http://www.w3.org/2000/svg" viewBox="0 -43 512 427">
      <g transform="scale(1 -1) translate(0 -341)">
        <path d="M469 85Q477 85 484.0 78.5Q491 72 491 64V-21Q491 -29 484.0 -36.0Q477 -43 469 -43H363Q355 -43 348.0 -36.0Q341 -29 341 -21V64Q341 72 348.0 78.5Q355 85 363 85V117Q363 140 378.5 155.5Q394 171 416.0 171.0Q438 171 453.5 155.5Q469 140 469 117ZM448 85V117Q448 130 438.5 139.5Q429 149 416.0 149.0Q403 149 393.5 139.5Q384 130 384 117V85ZM373 213V224Q373 256 357.5 283.0Q342 310 315.0 325.5Q288 341 256 341Q216 341 185.0 317.0Q154 293 143 256H128Q93 256 68.0 231.0Q43 206 43.0 170.5Q43 135 68.0 110.0Q93 85 128 85H302Q299 75 299 64V43H128Q93 43 63.5 60.0Q34 77 17.0 106.5Q0 136 0 171Q0 203 15.0 231.0Q30 259 56.0 276.5Q82 294 114 298Q134 337 172.0 360.5Q210 384 256 384Q314 384 358.0 347.5Q402 311 413 255Q455 252 483.5 221.5Q512 191 512 149L511 133Q505 167 478.5 190.0Q452 213 416 213Z" />
      </g>
    </svg>