<svg xmlns="http://www.w3.org/2000/svg" viewBox="0 21 512 342">
      <g transform="scale(1 -1) translate(0 -384)">
        <path d="M171 171H225V235H287V171H341L256 85ZM413 234Q455 231 483.5 200.5Q512 170 512 128Q512 99 497.5 74.5Q483 50 458.5 35.5Q434 21 405 21H128Q93 21 63.5 38.5Q34 56 17.0 85.5Q0 115 0 149Q0 182 15.0 210.0Q30 238 56.0 255.5Q82 273 114 276Q134 316 172.0 339.5Q210 363 256 363Q314 363 358.0 326.0Q402 289 413 234ZM405 64Q432 64 450.5 82.5Q469 101 469.0 127.0Q469 153 452.0 171.5Q435 190 410 191L377 193L371 225Q363 267 330.5 293.5Q298 320 256 320Q223 320 195.0 303.0Q167 286 152 257L141 236L119 234Q86 231 64.5 206.5Q43 182 43 149Q43 114 68.0 89.0Q93 64 128 64Z" />
      </g>
    </svg>