<svg xmlns="http://www.w3.org/2000/svg" viewBox="0 -43 491 406">
      <g transform="scale(1 -1) translate(0 -320)">
        <path d="M405 192V160Q441 160 466.0 135.0Q491 110 491 75Q491 49 476 28L453 51Q459 62 459 75Q459 97 443.0 112.5Q427 128 405 128V96L357 145Q362 149 405 192ZM405 -43V-11Q370 -11 345.0 14.0Q320 39 320 75Q320 100 334 122L358 99Q352 87 352 75Q352 53 367.5 37.0Q383 21 405 21V53L454 5Q449 1 405 -43ZM278 64H128Q93 64 68.0 89.0Q43 114 43.0 149.5Q43 185 68.0 210.0Q93 235 128 235H143Q154 272 185.0 296.0Q216 320 256 320Q287 320 313.5 305.0Q340 290 356.0 264.0Q372 238 373 207Q393 213 416 213Q455 213 491 192Q476 210 456.0 221.0Q436 232 413 234Q402 290 358.0 326.5Q314 363 256 363Q211 363 172.5 339.5Q134 316 114 277Q82 273 56.0 255.5Q30 238 15.0 210.0Q0 182 0 149Q0 115 17.0 85.5Q34 56 63.5 38.5Q93 21 128 21H288Q280 41 278 64Z" />
      </g>
    </svg>