<svg xmlns="http://www.w3.org/2000/svg" viewBox="0 -21 512 426">
      <g transform="scale(1 -1) translate(0 -384)">
        <path d="M256 405Q210 405 172.0 381.5Q134 358 114 319Q82 316 56.0 298.0Q30 280 15.0 252.0Q0 224 0 192Q0 157 17.0 127.5Q34 98 63.5 81.0Q93 64 128 64V-21H384V64H405Q434 64 458.5 78.5Q483 93 497.5 117.5Q512 142 512 171Q512 213 483.5 243.5Q455 274 413 276Q402 332 358.0 368.5Q314 405 256 405ZM171 171H341V21H171ZM192 149V128H320V149ZM192 107V85H320V107ZM192 64V43H320V64Z" />
      </g>
    </svg>