<svg xmlns="http://www.w3.org/2000/svg" viewBox="0 -21 512 426">
      <g transform="scale(1 -1) translate(0 -384)">
        <path d="M405 107Q432 107 450.5 125.5Q469 144 469.0 170.5Q469 197 450.5 216.0Q432 235 405 235H373V245Q373 277 357.5 304.0Q342 331 315.0 347.0Q288 363 256 363Q216 363 185.0 339.0Q154 315 143 277H128Q93 277 68.0 252.0Q43 227 43.0 192.0Q43 157 68.0 132.0Q93 107 128 107V213H384V107ZM413 276Q455 274 483.5 243.5Q512 213 512 171Q512 142 497.5 117.5Q483 93 458.5 78.5Q434 64 405 64H384V-21H128V64Q93 64 63.5 81.0Q34 98 17.0 127.5Q0 157 0 192Q0 224 15.0 252.0Q30 280 56.0 298.0Q82 316 114 319Q134 358 172.0 381.5Q210 405 256 405Q314 405 358.0 368.5Q402 332 413 276ZM171 171V21H341V171ZM192 64H320V43H192ZM320 85H192V107H320ZM192 149H320V128H192Z" />
      </g>
    </svg>