<svg xmlns="http://www.w3.org/2000/svg" viewBox="0 21 512 342">
      <g transform="scale(1 -1) translate(0 -384)">
        <path d="M128 21Q93 21 63.5 38.5Q34 56 17.0 85.5Q0 115 0 149Q0 182 15.0 210.0Q30 238 56.0 255.5Q82 273 114 276Q134 316 172.0 339.5Q210 363 256 363Q314 363 358.0 326.5Q402 290 413 235Q455 232 483.5 201.0Q512 170 512 128Q512 99 497.5 74.5Q483 50 458.5 35.5Q434 21 405 21ZM395 192H384Q375 192 369.0 198.0Q363 204 363 213V235Q363 252 350.5 264.5Q338 277 320 277H288V235H320V213Q320 196 332.5 183.5Q345 171 363 171Q345 171 332.5 158.5Q320 146 320 128V107H288V64H320Q338 64 350.5 76.5Q363 89 363 107V128Q363 137 369.0 143.0Q375 149 384 149H395ZM117 192V149H128Q137 149 143.0 143.0Q149 137 149 128V107Q149 89 161.5 76.5Q174 64 192 64H224V107H192V128Q192 146 179.5 158.5Q167 171 149 171Q167 171 179.5 183.5Q192 196 192 213V235H224V277H192Q174 277 161.5 264.5Q149 252 149 235V213Q149 204 143.0 198.0Q137 192 128 192Z" />
      </g>
    </svg>