<svg xmlns="http://www.w3.org/2000/svg" viewBox="0 -51 512 456">
      <g transform="scale(1 -1) translate(0 -354)">
        <path d="M331 192Q371 192 399.0 164.0Q427 136 427 96Q427 68 412 45L478 -21L448 -51L381 15Q358 0 331 0Q291 0 263.0 28.0Q235 56 235.0 96.0Q235 136 263.0 164.0Q291 192 331 192ZM331 149Q309 149 293.0 133.5Q277 118 277.0 96.0Q277 74 293.0 58.5Q309 43 331.0 43.0Q353 43 368.5 58.5Q384 74 384.0 96.0Q384 118 368.5 133.5Q353 149 331 149ZM413 277Q455 274 483.5 243.5Q512 213 512 171Q512 145 500.5 122.5Q489 100 469 85V96Q469 134 450.5 165.5Q432 197 400.0 216.0Q368 235 330.5 235.0Q293 235 261.0 216.0Q229 197 210.5 165.5Q192 134 192 96Q192 80 196 64H128Q93 64 63.5 81.0Q34 98 17.0 127.5Q0 157 0 192Q0 224 15.0 252.0Q30 280 56.0 298.0Q82 316 114 319Q134 358 172.5 381.5Q211 405 256 405Q314 405 358.0 368.5Q402 332 413 277Z" />
      </g>
    </svg>