<svg xmlns="http://www.w3.org/2000/svg" viewBox="0 -21 512 384">
      <g transform="scale(1 -1) translate(0 -342)">
        <path d="M165 235 336 64H128Q93 64 68.0 89.0Q43 114 43.0 149.5Q43 185 68.0 210.0Q93 235 128 235ZM64 336 123 277Q89 276 61.0 258.5Q33 241 16.5 212.0Q0 183 0.0 149.0Q0 115 17.0 85.5Q34 56 63.5 38.5Q93 21 128 21H378L421 -21L448 6L91 363ZM413 234Q402 290 358.0 326.5Q314 363 256 363Q209 363 171 338L202 307Q227 320 256 320Q288 320 315.0 304.0Q342 288 357.5 261.5Q373 235 373 203V192H405Q432 192 450.5 173.5Q469 155 469 128Q469 110 460.0 95.0Q451 80 436 72L467 41Q488 56 500.0 79.0Q512 102 512 128Q512 170 483.5 200.5Q455 231 413 234Z" />
      </g>
    </svg>