<svg xmlns="http://www.w3.org/2000/svg" viewBox="0 21 512 342">
      <g transform="scale(1 -1) translate(0 -384)">
        <path d="M413 234Q402 289 358.0 326.0Q314 363 256 363Q210 363 172.0 339.5Q134 316 114 276Q82 273 56.0 255.5Q30 238 15.0 210.0Q0 182 0 149Q0 115 17.0 85.5Q34 56 63.5 38.5Q93 21 128 21H405Q434 21 458.5 35.5Q483 50 497.5 74.5Q512 99 512 128Q512 170 483.5 200.5Q455 231 413 234ZM405 64H128Q93 64 68.0 89.0Q43 114 43 149Q43 182 64.5 206.5Q86 231 119 234L141 236L152 257Q167 286 195.0 303.0Q223 320 256 320Q298 320 330.5 293.5Q363 267 371 225L377 193L410 191Q435 190 452.0 171.5Q469 153 469.0 127.0Q469 101 450.5 82.5Q432 64 405 64ZM171 171H225V107H287V171H341L256 256Z" />
      </g>
    </svg>