<svg xmlns="http://www.w3.org/2000/svg" viewBox="43 -21 426 426">
      <g transform="scale(1 -1) translate(0 -384)">
        <path d="M256 209Q256 210 257 210Q318 266 336 287Q363 319 363 348Q363 372 345.5 388.5Q328 405 304 405Q275 405 256 384Q237 405 207 405Q183 405 166.0 388.0Q149 371 149 347Q149 319 176 287Q194 266 255 210ZM239 192Q238 192 238 193Q182 254 161 272Q129 299 100 299Q76 299 59.5 281.5Q43 264 43 240Q43 211 64 192Q43 173 43 143Q43 119 60.0 102.0Q77 85 101 85Q129 85 161 112Q182 130 238 191ZM274 192Q274 192 274 192Q313 149 329 133Q354 108 372 97Q392 85 412 85Q436 85 452.5 102.5Q469 120 469 144Q469 173 448 192Q469 211 469 241Q469 265 452.0 282.0Q435 299 411 299Q383 299 351 272Q330 254 274 192ZM256 175Q256 174 255 174Q194 118 176 97Q149 65 149 36Q149 12 166.5 -4.5Q184 -21 208 -21Q237 -21 256 0Q275 -21 305 -21Q329 -21 346.0 -4.0Q363 13 363 37Q363 65 336 97Q318 118 257 174Z" />
      </g>
    </svg>