<svg xmlns="http://www.w3.org/2000/svg" viewBox="43 -21 426 426">
      <g transform="scale(1 -1) translate(0 -384)">
        <path d="M175 192 147 173V211ZM245 239V291L156 232L195 206ZM356 232 267 291V239L317 206ZM156 152 245 93V145L195 178ZM267 145V93L356 152L317 178ZM256 219 216 192 256 165 296 192ZM469 192Q469 134 440.5 85.0Q412 36 363.0 7.5Q314 -21 256.0 -21.0Q198 -21 149.0 7.5Q100 36 71.5 85.0Q43 134 43.0 192.0Q43 250 71.5 299.0Q100 348 149.0 376.5Q198 405 256.0 405.0Q314 405 363.0 376.5Q412 348 440.5 299.0Q469 250 469 192ZM388 232Q388 233 388 234L387 236L384 241L262 322Q256 326 250 322L128 241L126 238L124 232V150L125 148L128 143L250 62Q252 60 255.5 60.0Q259 60 262 62L383 142L385 144L388 152ZM365 173V211L337 192Z" />
      </g>
    </svg>