<svg xmlns="http://www.w3.org/2000/svg" viewBox="64 0 384 384">
      <g transform="scale(1 -1) translate(0 -384)">
        <path d="M171 384Q153 384 140.5 371.5Q128 359 128 341V256Q128 238 115.5 225.5Q103 213 85 213H64V171H85Q103 171 115.5 158.5Q128 146 128 128V43Q128 25 140.5 12.5Q153 0 171 0H213V43H171V149Q171 167 158.5 179.5Q146 192 128 192Q146 192 158.5 204.5Q171 217 171 235V341H213V384ZM341 384Q359 384 371.5 371.5Q384 359 384 341V256Q384 238 396.5 225.5Q409 213 427 213H448V171H427Q409 171 396.5 158.5Q384 146 384 128V43Q384 25 371.5 12.5Q359 0 341 0H299V43H341V149Q341 167 353.5 179.5Q366 192 384 192Q366 192 353.5 204.5Q341 217 341 235V341H299V384Z" />
      </g>
    </svg>