<svg xmlns="http://www.w3.org/2000/svg" viewBox="64 0 384 384">
      <g transform="scale(1 -1) translate(0 -384)">
        <path d="M405 384H107Q89 384 76.5 371.5Q64 359 64 341V43Q64 25 76.5 12.5Q89 0 107 0H405Q423 0 435.5 12.5Q448 25 448 43V341Q448 359 435.5 371.5Q423 384 405 384ZM213 79 179 64Q155 88 141.5 121.5Q128 155 128.0 192.0Q128 229 141.5 262.5Q155 296 179 320L213 305Q193 286 182.0 256.0Q171 226 171.0 192.0Q171 158 182.0 128.0Q193 98 213 79ZM333 64 299 79Q319 100 330.0 129.0Q341 158 341.0 192.0Q341 226 330.0 256.0Q319 286 299 305L333 320Q357 296 370.5 262.5Q384 229 384.0 192.0Q384 155 370.5 121.5Q357 88 333 64Z" />
      </g>
    </svg>