<svg xmlns="http://www.w3.org/2000/svg" viewBox="64 0 384 384">
      <g transform="scale(1 -1) translate(0 -384)">
        <path d="M64 341Q64 359 76.5 371.5Q89 384 107 384H405Q423 384 435.5 371.5Q448 359 448 341V43Q448 25 435.5 12.5Q423 0 405 0H107Q89 0 76.5 12.5Q64 25 64 43ZM267 213H245Q232 213 222.5 222.5Q213 232 213.0 245.5Q213 259 222.5 268.0Q232 277 245 277H267Q280 277 289.5 268.0Q299 259 299 245H341Q341 276 319.5 298.0Q298 320 267 320H245Q214 320 192.5 298.0Q171 276 171.0 245.0Q171 214 192.5 192.5Q214 171 245 171H267Q280 171 289.5 161.5Q299 152 299.0 138.5Q299 125 289.5 116.0Q280 107 267 107H245Q232 107 222.5 116.0Q213 125 213 139H171Q171 108 192.5 86.0Q214 64 245 64H267Q298 64 319.5 86.0Q341 108 341.0 139.0Q341 170 319.5 191.5Q298 213 267 213Z" />
      </g>
    </svg>