<svg xmlns="http://www.w3.org/2000/svg" viewBox="0 0 512 384">
      <g transform="scale(1 -1) translate(0 -384)">
        <path d="M107 384H149V341H107V235Q107 217 94.5 204.5Q82 192 64 192Q82 192 94.5 179.5Q107 167 107 149V43H149V0H107Q88 5 77 15Q64 26 64 43V128Q64 146 51.5 158.5Q39 171 21 171H0V213H21Q39 213 51.5 225.5Q64 238 64 256V341Q64 359 76.5 371.5Q89 384 107 384ZM405 384Q423 384 435.5 371.5Q448 359 448 341V256Q448 238 460.5 225.5Q473 213 491 213H512V171H491Q473 171 460.5 158.5Q448 146 448 128V43Q448 25 435.5 12.5Q423 0 405 0H363V43H405V149Q405 167 417.5 179.5Q430 192 448 192Q430 192 417.5 204.5Q405 217 405 235V341H363V384ZM256 128Q265 128 271.0 122.0Q277 116 277.0 107.0Q277 98 271.0 91.5Q265 85 256.0 85.0Q247 85 241.0 91.5Q235 98 235.0 107.0Q235 116 241.0 122.0Q247 128 256 128ZM171 128Q180 128 186.0 122.0Q192 116 192.0 107.0Q192 98 186.0 91.5Q180 85 171.0 85.0Q162 85 155.5 91.5Q149 98 149.0 107.0Q149 116 155.5 122.0Q162 128 171 128ZM341 128Q350 128 356.5 122.0Q363 116 363.0 107.0Q363 98 356.5 91.5Q350 85 341.0 85.0Q332 85 326.0 91.5Q320 98 320.0 107.0Q320 116 326.0 122.0Q332 128 341 128Z" />
      </g>
    </svg>