<svg xmlns="http://www.w3.org/2000/svg" viewBox="64 0 384 384">
      <g transform="scale(1 -1) translate(0 -384)">
        <path d="M405 384H107Q89 384 76.5 371.5Q64 359 64 341V43Q64 25 76.5 12.5Q89 0 107 0H405Q423 0 435.5 12.5Q448 25 448 43V341Q448 359 435.5 371.5Q423 384 405 384ZM235 277H192V235Q192 217 179.5 204.5Q167 192 149 192Q167 192 179.5 179.5Q192 167 192 149V107H235V64H192Q174 64 161.5 76.5Q149 89 149 107V128Q149 146 136.5 158.5Q124 171 107 171V213Q124 213 136.5 225.5Q149 238 149 256V277Q149 295 161.5 307.5Q174 320 192 320H235ZM405 171Q388 171 375.5 158.5Q363 146 363 128V107Q363 89 350.5 76.5Q338 64 320 64H277V107H320V149Q320 167 332.5 179.5Q345 192 363 192Q345 192 332.5 204.5Q320 217 320 235V277H277V320H320Q338 320 350.5 307.5Q363 295 363 277V256Q363 238 375.5 225.5Q388 213 405 213Z" />
      </g>
    </svg>