<svg xmlns="http://www.w3.org/2000/svg" viewBox="64 -25 381 409">
      <g transform="scale(1 -1) translate(0 -359)">
        <path d="M64 384V213Q64 178 89.0 153.0Q114 128 149 128H235Q270 128 295.0 153.0Q320 178 320 213V235H363Q380 235 392.5 247.5Q405 260 405 277V341Q405 359 392.5 371.5Q380 384 363 384ZM107 341H277V213Q277 196 264.5 183.5Q252 171 235 171H149Q132 171 119.5 183.5Q107 196 107 213ZM320 341H363V277H320ZM356 153 326 123 363 85H64V43H363L326 5L356 -25L445 64Z" />
      </g>
    </svg>