<svg xmlns="http://www.w3.org/2000/svg" viewBox="43 -21 437 426">
      <g transform="scale(1 -1) translate(0 -384)">
        <path d="M379 -3 320 61 345 85 379 51 455 128 480 98ZM277 64Q277 99 294.5 128.5Q312 158 341 175V213H128V107Q128 81 139.5 58.5Q151 36 171 21H85V363H128V320Q128 311 134.5 305.0Q141 299 149 299H320Q329 299 335.0 305.0Q341 311 341 320V363H384V405H85Q68 405 55.5 392.5Q43 380 43 363V21Q43 4 55.5 -8.5Q68 -21 85 -21H310Q277 15 277 64ZM213 256Q213 247 219.5 241.0Q226 235 234.5 235.0Q243 235 249.5 241.0Q256 247 256.0 256.0Q256 265 249.5 271.0Q243 277 234.5 277.0Q226 277 219.5 271.0Q213 265 213 256Z" />
      </g>
    </svg>