<svg xmlns="http://www.w3.org/2000/svg" viewBox="85 -21 342 426">
      <g transform="scale(1 -1) translate(0 -384)">
        <path d="M384 320V363H427V405H128Q110 405 97.5 392.5Q85 380 85 363V21Q85 4 97.5 -8.5Q110 -21 128 -21H427V21H341Q361 36 372.5 58.5Q384 81 384 107V213H171V107Q171 81 182.5 58.5Q194 36 214 21H128V363H171V320Q171 311 177.0 305.0Q183 299 192 299H363Q371 299 377.5 305.0Q384 311 384 320ZM213 107V171H341V107Q341 80 322.5 61.5Q304 43 277.5 43.0Q251 43 232.0 61.5Q213 80 213 107ZM277 277Q286 277 292.5 271.0Q299 265 299.0 256.0Q299 247 292.5 241.0Q286 235 277.5 235.0Q269 235 262.5 241.0Q256 247 256.0 256.0Q256 265 262.5 271.0Q269 277 277 277Z" />
      </g>
    </svg>