<svg xmlns="http://www.w3.org/2000/svg" viewBox="48 -21 415 426">
      <g transform="scale(1 -1) translate(0 -384)">
        <path d="M256 277Q291 277 316.0 252.0Q341 227 341.0 192.0Q341 157 316.0 132.0Q291 107 256.0 107.0Q221 107 196.0 132.0Q171 157 171.0 192.0Q171 227 196.0 252.0Q221 277 256 277ZM256 235Q238 235 225.5 222.5Q213 210 213.0 192.0Q213 174 225.5 161.5Q238 149 256.0 149.0Q274 149 286.5 161.5Q299 174 299.0 192.0Q299 210 286.5 222.5Q274 235 256 235ZM213 -21Q209 -21 206.0 -18.5Q203 -16 203 -12L195 44Q177 51 159 65L106 44Q102 42 98.0 43.5Q94 45 93 48L50 122Q48 126 48.5 129.5Q49 133 52 136L97 171L96 192L97 213L52 248Q49 251 48.5 254.5Q48 258 50 262L93 336Q94 339 98.0 340.5Q102 342 106 340L159 319Q177 333 195 340L203 396Q203 400 206.0 402.5Q209 405 213 405H299Q303 405 306.0 402.5Q309 400 309 396L317 340Q335 333 353 319L406 340Q410 342 414.0 340.5Q418 339 419 336L462 262Q464 258 463.5 254.5Q463 251 460 248L415 213L416 192L415 171L460 136Q463 133 463.5 129.5Q464 126 462 122L419 48Q418 45 414.0 43.5Q410 42 406 44L353 65Q335 51 317 44L309 -12Q309 -16 306.0 -18.5Q303 -21 299 -21ZM240 363 232 307Q193 299 167 269L116 291L100 263L145 230Q132 192 145 154L100 120L116 93L168 115Q194 85 232 77L240 21H272L280 77Q318 85 344 115L396 93L412 120L367 153Q380 192 367 230L412 263L396 291L345 269Q319 299 280 307L272 363Z" />
      </g>
    </svg>