<svg xmlns="http://www.w3.org/2000/svg" viewBox="48 -21 415 426">
      <g transform="scale(1 -1) translate(0 -384)">
        <path d="M289 -21H213Q209 -21 206.0 -18.5Q203 -16 203 -12L195 44Q177 51 159 65L106 44Q102 42 98.0 43.5Q94 45 93 48L50 122Q48 126 48.5 129.5Q49 133 52 136L97 171Q96 183 96.0 192.0Q96 201 97 213L52 248Q49 251 48.5 254.5Q48 258 50 262L93 336Q94 339 98.0 340.5Q102 342 106 340L159 319Q177 333 195 340L203 396Q203 400 206.0 402.5Q209 405 213 405H299Q303 405 306.0 402.5Q309 400 309 396L317 340Q335 333 353 319L406 340Q410 342 414.0 340.5Q418 339 419 336L462 262Q464 258 463.5 254.5Q463 251 460 248L415 213Q416 201 416 192V188Q399 192 384 192Q355 192 329 180Q331 188 331 192Q331 223 309.0 245.0Q287 267 256.0 267.0Q225 267 203.0 245.0Q181 223 181.0 192.0Q181 161 203.0 139.0Q225 117 256 117Q260 117 268 119Q256 93 256 64Q256 15 289 -21ZM448 128H320V0H448Z" />
      </g>
    </svg>