<svg xmlns="http://www.w3.org/2000/svg" viewBox="48 -43 420 448">
      <g transform="scale(1 -1) translate(0 -362)">
        <path d="M299 64V107L213 32L299 -43V0H363V64ZM469 117 384 192V149H320V85H384V43ZM462 262 419 336Q418 339 414.0 340.5Q410 342 406 340L353 319Q337 332 317 340L309 396Q309 400 306.0 402.5Q303 405 299 405H213Q209 405 206.0 402.5Q203 400 203 396L195 340Q176 332 159 319L107 340Q103 342 99.0 340.5Q95 339 94 336L51 262Q49 258 49.5 254.5Q50 251 53 248L97 213Q96 201 96.0 192.0Q96 183 97 171L52 136Q49 134 48.5 130.0Q48 126 50 122L93 48Q94 44 98.0 42.5Q102 41 107 43L160 64Q168 58 176 53L251 117Q220 119 199.5 142.0Q179 165 181.5 196.0Q184 227 207.5 247.5Q231 268 261 266Q284 264 302.5 249.5Q321 235 327 213H415L460 248Q463 250 463.5 254.0Q464 258 462 262Z" />
      </g>
    </svg>