<svg xmlns="http://www.w3.org/2000/svg" viewBox="0 0 448 384">
      <g transform="scale(1 -1) translate(0 -384)">
        <path d="M256 384Q204 384 160.0 358.0Q116 332 90.0 288.0Q64 244 64 192H0L85 107L171 192H107Q107 233 127.0 267.0Q147 301 181.0 321.0Q215 341 256.0 341.0Q297 341 331.0 321.0Q365 301 385.0 267.0Q405 233 405.0 192.0Q405 151 385.0 117.0Q365 83 331.0 63.0Q297 43 256 43Q209 43 169 70L139 40Q191 0 256 0Q308 0 352.0 26.0Q396 52 422.0 96.0Q448 140 448.0 192.0Q448 244 422.0 288.0Q396 332 352.0 358.0Q308 384 256 384ZM348 167 326 182Q327 187 327.0 192.0Q327 197 326 202L348 217Q350 220 349 224L329 256Q328 260 323 259L299 250Q292 255 282 259L279 284Q278 288 274 288H237Q233 288 232 284L228 259Q218 254 212 250L188 259Q184 261 182 257L163 224Q161 220 164 218L185 202Q184 192 185 182L164 167Q161 164 163 160L182 128Q184 124 188 125L212 135Q219 129 228 125L232 100Q232 98 233.5 97.0Q235 96 237 97H275Q280 97 280 101L284 126Q292 130 300 135L324 125Q329 125 330 128L349 161Q351 165 348 167ZM256 160Q243 160 233.5 169.5Q224 179 224.0 192.0Q224 205 233.5 214.5Q243 224 256.0 224.0Q269 224 278.5 214.5Q288 205 288.0 192.0Q288 179 278.5 169.5Q269 160 256 160Z" />
      </g>
    </svg>