<svg xmlns="http://www.w3.org/2000/svg" viewBox="48 -21 415 426">
      <g transform="scale(1 -1) translate(0 -384)">
        <path d="M289 -21H213Q209 -21 206.0 -18.5Q203 -16 203 -12L195 44Q177 51 159 65L106 44Q102 42 98.0 43.5Q94 45 93 48L50 122Q48 126 48.5 129.5Q49 133 52 136L97 171L96 192L97 213L52 248Q49 251 48.5 254.5Q48 258 50 262L93 336Q94 339 98.0 340.5Q102 342 106 340L159 319Q177 333 195 340L203 396Q203 400 206.0 402.5Q209 405 213 405H299Q303 405 306.0 402.5Q309 400 309 396L317 340Q335 333 353 319L406 340Q410 342 414.0 340.5Q418 339 419 336L462 262Q464 258 463.5 254.5Q463 251 460 248L415 213L416 188Q399 192 384 192Q377 192 373 191Q373 212 367 230L412 263L396 291L345 269Q319 299 280 307L272 363H240L232 307Q193 299 167 269L116 291L100 263L145 230Q132 192 145 154L100 120L116 93L168 115Q194 85 232 77L240 21H263Q272 -3 289 -21ZM264 108Q261 107 256 107Q221 107 196.0 132.0Q171 157 171.0 192.0Q171 227 196.0 252.0Q221 277 256.0 277.0Q291 277 316.0 252.0Q341 227 341 192Q341 187 340 184Q314 175 293.5 154.5Q273 134 264 108ZM299 192Q299 210 286.5 222.5Q274 235 256.0 235.0Q238 235 225.5 222.5Q213 210 213.0 192.0Q213 174 225.5 161.5Q238 149 256.0 149.0Q274 149 286.5 161.5Q299 174 299 192ZM405 128H448V0H405ZM320 128H363V0H320Z" />
      </g>
    </svg>