<svg xmlns="http://www.w3.org/2000/svg" viewBox="24 -37 448 448">
      <g transform="scale(1 -1) translate(0 -374)">
        <path d="M472 -10 51 411 24 384 85 323 50 262Q48 258 48.5 254.5Q49 251 52 248L97 213L96 192L97 171L52 136Q49 133 48.5 129.5Q48 126 50 122L93 48Q94 45 98.0 43.5Q102 42 106 44L159 65Q177 51 195 44L203 -12Q203 -16 206.0 -18.5Q209 -21 213 -21H299Q303 -21 306.0 -18.5Q309 -16 309 -12L317 44Q330 49 347 61L445 -37ZM213 194 258 149H256Q238 149 225.5 161.5Q213 174 213 192ZM280 77 272 21H240L232 77Q194 85 168 115L116 93L100 120L145 154Q132 192 145 230L100 263L116 291H117L179 228Q171 211 171 192Q171 157 196.0 132.0Q221 107 256 107Q276 107 292 115L316 91Q299 81 280 77ZM215 302 182 334 195 340 203 396Q203 400 206.0 402.5Q209 405 213 405H299Q303 405 306.0 402.5Q309 400 309 396L317 340Q335 333 353 319L406 340Q410 342 414.0 340.5Q418 339 419 336L462 262Q464 258 463.5 254.5Q463 251 460 248L415 213L416 192L415 171L460 136Q463 133 463.5 129.5Q464 126 462 122L437 79L406 110L412 120L367 153Q380 192 367 230L412 263L396 291L345 269Q319 299 280 307L272 363H240L232 307Q222 305 215 302ZM256 277Q291 277 316.0 252.0Q341 227 341 192Q341 185 340 176L240 276Q249 277 256 277Z" />
      </g>
    </svg>