<svg xmlns="http://www.w3.org/2000/svg" viewBox="64 0 384 384">
      <g transform="scale(1 -1) translate(0 -384)">
        <path d="M368 192Q368 185 367 177L399 153Q403 149 400 143L370 92Q367 86 361 88L324 103Q313 94 299 89L293 49Q293 46 291.0 44.5Q289 43 286 43H226Q223 43 221.0 44.5Q219 46 219 49L213 89Q200 94 188 103L151 88Q145 86 142 92L112 143Q109 149 113 153L145 177Q144 185 144.0 192.0Q144 199 145 207L113 231Q109 235 112 241L142 292Q145 298 151 296L188 281Q200 291 213 295L219 335Q219 338 221.0 339.5Q223 341 226 341H286Q289 341 291.0 339.5Q293 338 293 335L299 295Q312 290 324 281L361 296Q367 298 370 292L400 241Q403 235 399 231L367 207Q368 199 368 192ZM405 384H107Q89 384 76.5 371.5Q64 359 64 341V43Q64 25 76.5 12.5Q89 0 107 0H405Q423 0 435.5 12.5Q448 25 448 43V341Q448 359 435.5 371.5Q423 384 405 384ZM256 235Q238 235 225.5 222.5Q213 210 213.0 192.0Q213 174 225.5 161.5Q238 149 256.0 149.0Q274 149 286.5 161.5Q299 174 299.0 192.0Q299 210 286.5 222.5Q274 235 256 235Z" />
      </g>
    </svg>