<svg xmlns="http://www.w3.org/2000/svg" viewBox="48 -32 420 437">
      <g transform="scale(1 -1) translate(0 -373)">
        <path d="M384 139Q421 139 444 113L469 139V53H384L422 92Q404 107 384 107Q362 107 346.5 91.5Q331 76 331.0 53.5Q331 31 346.5 15.5Q362 0 384 0Q409 0 427 21H463Q453 -3 432.0 -17.5Q411 -32 384 -32Q349 -32 324.0 -7.0Q299 18 299.0 53.5Q299 89 324.0 114.0Q349 139 384 139ZM245 53Q245 84 260 117H256Q226 117 203.5 139.5Q181 162 181.0 192.0Q181 222 203.5 244.5Q226 267 256.0 267.0Q286 267 308.5 244.5Q331 222 331 192Q331 183 329 181Q357 192 384 192Q395 192 416 188V192Q416 207 414 213L459 247Q464 253 461 260L418 335Q417 339 414.0 340.0Q411 341 405 341L352 320Q341 329 316 341L307 399Q309 400 305.5 402.5Q302 405 299 405H213Q210 405 206.5 402.5Q203 400 203 397L194 339Q186 337 172 328L158 320L107 341Q101 341 98.0 340.0Q95 339 92 335L49 260Q46 255 53 247L98 213Q98 210 97.0 202.5Q96 195 96 192Q96 177 98 171L53 134Q48 129 51 122L94 47Q95 44 98.0 43.5Q101 43 107 43L160 64Q171 55 196 43L205 -15Q205 -18 208.0 -20.5Q211 -23 215 -23H269Q245 13 245 53Z" />
      </g>
    </svg>