<svg xmlns="http://www.w3.org/2000/svg" viewBox="48 -21 415 426">
      <g transform="scale(1 -1) translate(0 -384)">
        <path d="M256 117Q225 117 203.0 139.0Q181 161 181.0 192.0Q181 223 203.0 245.0Q225 267 256.0 267.0Q287 267 309.0 245.0Q331 223 331.0 192.0Q331 161 309.0 139.0Q287 117 256 117ZM415 171Q416 183 416.0 192.0Q416 201 415 213L460 248Q463 251 463.5 254.5Q464 258 462 262L419 336Q418 339 414.0 340.5Q410 342 406 340L353 319Q335 333 317 340L309 396Q309 400 306.0 402.5Q303 405 299 405H213Q209 405 206.0 402.5Q203 400 203 396L195 340Q177 333 159 319L106 340Q102 342 98.0 340.5Q94 339 93 336L50 262Q48 258 48.5 254.5Q49 251 52 248L97 213Q96 201 96.0 192.0Q96 183 97 171L52 136Q49 133 48.5 129.5Q48 126 50 122L93 48Q94 45 98.0 43.5Q102 42 106 44L159 65Q177 51 195 44L203 -12Q203 -16 206.0 -18.5Q209 -21 213 -21H299Q303 -21 306.0 -18.5Q309 -16 309 -12L317 44Q336 52 353 65L406 44Q410 42 414.0 43.5Q418 45 419 48L462 122Q464 126 463.5 129.5Q463 133 460 136Z" />
      </g>
    </svg>