<svg xmlns="http://www.w3.org/2000/svg" viewBox="43 -21 426 426">
      <g transform="scale(1 -1) translate(0 -384)">
        <path d="M85 405Q68 405 55.5 392.5Q43 380 43 363V107Q43 89 55.5 76.5Q68 64 85 64H171V0Q171 -9 177.0 -15.0Q183 -21 192 -21H203Q211 -21 218 -15L297 64H427Q444 64 456.5 76.5Q469 89 469 107V363Q469 380 456.5 392.5Q444 405 427 405ZM85 363H427V107H279L213 41V107H85ZM260 331Q232 331 214.0 319.0Q196 307 198 284H100H240Q240 293 246.0 297.5Q252 302 260 302Q271 302 276.5 296.5Q282 291 282.0 282.0Q282 273 277.0 266.0Q272 259 264 254Q248 245 241.5 237.0Q235 229 235 213H277Q277 222 280.0 227.5Q283 233 291 238Q306 245 315.5 256.5Q325 268 325 282Q325 304 307.5 317.5Q290 331 260 331ZM235 192V149H277V192Z" />
      </g>
    </svg>