<svg xmlns="http://www.w3.org/2000/svg" viewBox="43 -21 426 426">
      <g transform="scale(1 -1) translate(0 -384)">
        <path d="M85 405H427Q444 405 456.5 392.5Q469 380 469 363V107Q469 89 456.5 76.5Q444 64 427 64H297L218 -15Q211 -21 203 -21H192Q183 -21 177.0 -15.0Q171 -9 171 0V64H85Q68 64 55.5 76.5Q43 89 43 107V363Q43 380 55.5 392.5Q68 405 85 405ZM260 331Q232 331 214.0 319.0Q196 307 198 284H240Q240 293 246.0 297.5Q252 302 260 302Q271 302 276.5 296.5Q282 291 282.0 282.0Q282 273 277.0 266.0Q272 259 264 254Q248 245 241.5 237.0Q235 229 235 213H277Q277 222 280.0 227.5Q283 233 291 238Q306 245 315.5 256.5Q325 268 325 282Q325 304 307.5 317.5Q290 331 260 331ZM235 192V149H277V192Z" />
      </g>
    </svg>