<svg xmlns="http://www.w3.org/2000/svg" viewBox="43 -21 426 426">
      <g transform="scale(1 -1) translate(0 -384)">
        <path d="M192 -21Q183 -21 177.0 -15.0Q171 -9 171 0V64H85Q68 64 55.5 76.5Q43 89 43 107V363Q43 380 55.5 392.5Q68 405 85 405H427Q444 405 456.5 392.5Q469 380 469 363V107Q469 89 456.5 76.5Q444 64 427 64H297L218 -15Q211 -21 203 -21ZM213 107V41L279 107H427V363H85V107ZM341 149H171V171Q171 190 203 203Q229 213 256.0 213.0Q283 213 309 203Q341 190 341 171ZM256 320Q274 320 286.5 307.5Q299 295 299.0 277.5Q299 260 286.5 247.5Q274 235 256.0 235.0Q238 235 225.5 247.5Q213 260 213.0 277.5Q213 295 225.5 307.5Q238 320 256 320Z" />
      </g>
    </svg>