<svg xmlns="http://www.w3.org/2000/svg" viewBox="43 -21 426 405">
      <g transform="scale(1 -1) translate(0 -363)">
        <path d="M341 320Q350 320 356.5 314.0Q363 308 363.0 299.0Q363 290 356.5 283.5Q350 277 341.0 277.0Q332 277 326.0 283.5Q320 290 320.0 299.0Q320 308 326.0 314.0Q332 320 341 320ZM341 384Q384 384 419.0 360.5Q454 337 469 299Q454 261 419.0 237.0Q384 213 341.0 213.0Q298 213 263.5 237.0Q229 261 213 299Q229 337 263.5 360.5Q298 384 341 384ZM341 352Q319 352 303.5 336.5Q288 321 288.0 299.0Q288 277 303.5 261.0Q319 245 341.0 245.0Q363 245 379.0 261.0Q395 277 395.0 299.0Q395 321 379.0 336.5Q363 352 341 352ZM384 176V107H279L213 41V107H85V320H176Q187 344 203 363H85Q68 363 55.5 350.5Q43 338 43 320V107Q43 89 55.5 76.5Q68 64 85 64H171V0Q171 -9 177.0 -15.0Q183 -21 192 -21H203Q211 -21 218 -15L297 64H384Q402 64 414.5 76.5Q427 89 427 107V192Q407 181 384 176Z" />
      </g>
    </svg>