<svg xmlns="http://www.w3.org/2000/svg" viewBox="43 -21 426 426">
      <g transform="scale(1 -1) translate(0 -384)">
        <path d="M427 405H85Q68 405 55.5 392.5Q43 380 43 363V107Q43 89 55.5 76.5Q68 64 85 64H171V0Q171 -9 177.0 -15.0Q183 -21 192 -21H203Q211 -21 218 -15L297 64H427Q444 64 456.5 76.5Q469 89 469 107V363Q469 380 456.5 392.5Q444 405 427 405ZM194 128H149V173L281 305L325 260ZM359 294 338 273 294 316 315 338Q318 341 323.0 341.0Q328 341 332 338L359 311Q363 308 363.0 303.0Q363 298 359 294Z" />
      </g>
    </svg>