<svg xmlns="http://www.w3.org/2000/svg" viewBox="43 -21 426 426">
      <g transform="scale(1 -1) translate(0 -384)">
        <path d="M192 -21Q183 -21 177.0 -15.0Q171 -9 171 0V64H85Q68 64 55.5 76.5Q43 89 43 107V363Q43 380 55.5 392.5Q68 405 85 405H427Q444 405 456.5 392.5Q469 380 469 363V107Q469 89 456.5 76.5Q444 64 427 64H297L218 -15Q211 -21 203 -21ZM341 149V171Q341 190 309 203Q283 213 256.0 213.0Q229 213 203 203Q171 190 171 171V149ZM256 320Q238 320 225.5 307.5Q213 295 213.0 277.5Q213 260 225.5 247.5Q238 235 256.0 235.0Q274 235 286.5 247.5Q299 260 299.0 277.5Q299 295 286.5 307.5Q274 320 256 320Z" />
      </g>
    </svg>