<svg xmlns="http://www.w3.org/2000/svg" viewBox="43 -21 426 426">
      <g transform="scale(1 -1) translate(0 -384)">
        <path d="M303 145 128 64 209 239 384 320ZM256 405Q214 405 174.5 389.0Q135 373 105.0 343.0Q75 313 59.0 273.5Q43 234 43.0 192.0Q43 150 59.0 110.5Q75 71 105.0 41.0Q135 11 174.5 -5.0Q214 -21 256.0 -21.0Q298 -21 337.5 -5.0Q377 11 407.0 41.0Q437 71 453.0 110.5Q469 150 469.0 192.0Q469 234 453.0 273.5Q437 313 407.0 343.0Q377 373 337.5 389.0Q298 405 256 405ZM256 215Q246 215 239.5 208.5Q233 202 233.0 192.0Q233 182 239.5 175.5Q246 169 256.0 169.0Q266 169 272.5 175.5Q279 182 279.0 192.0Q279 202 272.5 208.5Q266 215 256 215Z" />
      </g>
    </svg>