<svg xmlns="http://www.w3.org/2000/svg" viewBox="64 -21 383 448">
      <g transform="scale(1 -1) translate(0 -406)">
        <path d="M404 149Q399 118 382.5 91.5Q366 65 340 48Q337 61 319.0 71.0Q301 81 276 84Q280 116 292 147Q305 139 320 139Q354 139 370 172Q382 196 384 233Q385 252 384 267L380 261Q375 255 367 251Q356 245 341 245H320Q298 245 282.5 229.5Q267 214 267 192Q267 177 275 164Q297 188 320 203Q280 163 256 105Q246 123 234.5 138.0Q223 153 213 160Q224 155 242 143Q245 151 245 160Q245 180 230 193Q218 203 197 209Q182 212 164 213H149Q160 199 160 181V160Q160 142 172.5 129.5Q185 117 202.0 117.0Q219 117 230 128Q238 108 241 84Q213 82 194.0 72.0Q175 62 172 48Q142 68 124.5 100.5Q107 133 107 171Q107 211 127.0 245.5Q147 280 181.5 300.0Q216 320 256 320V256L363 341L256 427V363Q204 363 160.0 337.0Q116 311 90.0 267.0Q64 223 64.0 171.0Q64 119 90.0 74.5Q116 30 160.0 4.5Q204 -21 256 -21Q305 -21 346.5 1.5Q388 24 414.5 63.0Q441 102 447 149Z" />
      </g>
    </svg>