<svg xmlns="http://www.w3.org/2000/svg" viewBox="21 -43 448 448">
      <g transform="scale(1 -1) translate(0 -362)">
        <path d="M21 373 49 400 464 -15 437 -43 378 17Q323 -21 256 -21Q214 -21 174.5 -5.0Q135 11 105.0 41.0Q75 71 59.0 110.5Q43 150 43 192Q43 259 81 314ZM149 85 200 194 112 283Q85 240 85.0 193.0Q85 146 108.0 106.5Q131 67 170.5 44.0Q210 21 257.0 21.0Q304 21 347 48L258 136ZM363 299 312 191 255 248ZM256 405Q298 405 337.5 389.0Q377 373 407.0 343.0Q437 313 453.0 273.5Q469 234 469 192Q469 125 432 71L401 102Q427 143 427 192Q427 238 404.0 277.5Q381 317 341.5 340.0Q302 363 256 363Q207 363 166 337L135 368Q189 405 256 405Z" />
      </g>
    </svg>