<svg xmlns="http://www.w3.org/2000/svg" viewBox="43 -21 426 426">
      <g transform="scale(1 -1) translate(0 -384)">
        <path d="M461 92 274 395Q268 405 256.0 405.0Q244 405 238 395L51 93Q43 79 43 64Q43 31 80 9Q133 -21 256 -21Q340 -21 393 -7Q469 15 469 64Q469 79 461 92ZM256 343 384 137Q332 149 256.0 149.0Q180 149 128 137ZM256 21Q210 21 170.5 27.0Q131 33 108.0 42.5Q85 52 85.0 64.0Q85 76 108.0 85.5Q131 95 170.5 101.0Q210 107 256.0 107.0Q302 107 341.5 101.0Q381 95 404.0 85.5Q427 76 427.0 64.0Q427 52 404.0 42.5Q381 33 341.5 27.0Q302 21 256 21Z" />
      </g>
    </svg>