<svg xmlns="http://www.w3.org/2000/svg" viewBox="43 -43 426 427">
      <g transform="scale(1 -1) translate(0 -341)">
        <path d="M363 384Q380 384 392.5 371.5Q405 359 405 341V128Q405 110 392.5 97.5Q380 85 363 85H277V43H299Q308 43 314.0 36.5Q320 30 320 21H469V-21H320Q320 -30 314.0 -36.5Q308 -43 299 -43H213Q204 -43 198.0 -36.5Q192 -30 192 -21H43V21H192Q192 30 198.0 36.5Q204 43 213 43H235V85H149Q132 85 119.5 97.5Q107 110 107 128V341Q107 359 119.5 371.5Q132 384 149 384ZM149 299 235 213 149 128H210L280 198Q286 204 286.0 213.0Q286 222 280 228L210 299ZM363 171H299V128H363Z" />
      </g>
    </svg>