<svg xmlns="http://www.w3.org/2000/svg" viewBox="43 21 426 342">
      <g transform="scale(1 -1) translate(0 -384)">
        <path d="M384 256H427V363H469V256Q469 238 456.5 225.5Q444 213 427 213H384V171L320 235L384 299ZM299 235Q299 252 286.5 264.5Q274 277 256.0 277.0Q238 277 225.5 264.5Q213 252 213.0 234.5Q213 217 225.5 204.5Q238 192 256.0 192.0Q274 192 286.5 204.5Q299 217 299 235ZM43 213V107H85V213H128V171L192 235L128 299V256H85Q68 256 55.5 243.5Q43 231 43 213ZM320 107 256 171 192 107H235V64Q235 46 247.5 33.5Q260 21 277 21H384V64H277V107Z" />
      </g>
    </svg>