<svg xmlns="http://www.w3.org/2000/svg" viewBox="21 -43 470 470">
      <g transform="scale(1 -1) translate(0 -384)">
        <path d="M21 299H64V0H363V-43H64Q46 -43 33.5 -30.5Q21 -18 21 0ZM405 427H149Q132 427 119.5 414.5Q107 402 107 384V85Q107 68 119.5 55.5Q132 43 149 43H448Q466 43 478.5 55.5Q491 68 491 85V341ZM448 85H149V384H388L448 324ZM299 235Q272 235 253.5 216.0Q235 197 235.0 170.5Q235 144 253.5 125.5Q272 107 298.5 107.0Q325 107 344.0 125.5Q363 144 363.0 170.5Q363 197 344.0 216.0Q325 235 299 235ZM171 363H363V277H171Z" />
      </g>
    </svg>