<svg xmlns="http://www.w3.org/2000/svg" viewBox="64 -43 425 427">
      <g transform="scale(1 -1) translate(0 -341)">
        <path d="M237 43Q240 19 250 0H107Q89 0 76.5 12.5Q64 25 64 43V341Q64 359 76.5 371.5Q89 384 107 384H363L448 299V198Q429 208 405 211V282L346 341H107V43ZM256 192Q229 192 210.5 173.5Q192 155 192 128Q192 107 203.5 91.0Q215 75 235 68Q236 103 251.0 132.5Q266 162 292 181Q274 192 256 192ZM320 235V320H128V235ZM486 30 465 -6Q463 -9 459 -9L433 0L416 -11L412 -38Q412 -40 410.5 -41.5Q409 -43 407 -43H365Q363 -43 358 -38L354 -11Q345 -7 337 0L311 -11Q307 -11 305 -9L284 28Q282 30 286 34L309 51V73L286 90Q284 92 284 96L305 132Q307 134 311 134L337 124L354 134L358 162Q358 166 365 166H407Q409 166 410.5 165.0Q412 164 412 162L416 134Q422 132 435 124L461 134Q467 134 467 132L489 96Q491 94 486 90L463 73V51L486 34Q488 34 488.0 32.5Q488 31 486 30ZM416 64Q416 77 406.5 86.5Q397 96 384.0 96.0Q371 96 361.5 86.5Q352 77 352.0 64.0Q352 51 361.5 41.5Q371 32 384.0 32.0Q397 32 406.5 41.5Q416 51 416 64Z" />
      </g>
    </svg>