<svg xmlns="http://www.w3.org/2000/svg" viewBox="64 0 384 384">
      <g transform="scale(1 -1) translate(0 -384)">
        <path d="M299 175Q281 192 255.0 192.0Q229 192 210.5 173.5Q192 155 192 128Q192 107 204.0 91.0Q216 75 235 68Q236 102 253.0 130.5Q270 159 299 175ZM237 43H107V341H345L405 281V185Q430 176 448 159V299L363 384H107Q89 384 76.5 371.5Q64 359 64 341V43Q64 25 76.5 12.5Q89 0 107 0H252Q240 20 237 43ZM128 235H320V320H128ZM336 0 277 64 302 89 336 55 413 131 437 101Z" />
      </g>
    </svg>