<svg xmlns="http://www.w3.org/2000/svg" viewBox="64 -64 384 469">
      <g transform="scale(1 -1) translate(0 -341)">
        <path d="M149 -21H192V-64H149ZM235 -21H277V-64H235ZM320 -21H363V-64H320ZM363 405H107Q89 405 76.5 392.5Q64 380 64 363V64Q64 46 76.5 33.5Q89 21 107 21H405Q423 21 435.5 33.5Q448 46 448 64V320ZM405 64H107V363H345L405 302ZM256 213Q229 213 210.5 194.5Q192 176 192.0 149.5Q192 123 210.5 104.0Q229 85 256.0 85.0Q283 85 301.5 104.0Q320 123 320.0 149.5Q320 176 301.5 194.5Q283 213 256 213ZM128 341H320V256H128Z" />
      </g>
    </svg>