<svg xmlns="http://www.w3.org/2000/svg" viewBox="21 0 470 384">
      <g transform="scale(1 -1) translate(0 -384)">
        <path d="M320 384H64Q46 384 33.5 371.5Q21 359 21 341V43Q21 25 33.5 12.5Q46 0 64 0H363Q380 0 392.5 12.5Q405 25 405 43V299ZM363 43H64V341H303L363 282ZM213 192Q186 192 167.5 173.5Q149 155 149.0 128.0Q149 101 167.5 82.5Q186 64 213.5 64.0Q241 64 259.0 82.5Q277 101 277.0 128.0Q277 155 259.0 173.5Q241 192 213 192ZM85 320H277V235H85ZM491 171H448V299H491ZM491 85H448V128H491Z" />
      </g>
    </svg>