<svg xmlns="http://www.w3.org/2000/svg" viewBox="43 -21 426 426">
      <g transform="scale(1 -1) translate(0 -384)">
        <path d="M256 21Q221 21 190.0 34.5Q159 48 135 71L377 313Q400 289 413.5 258.0Q427 227 427 192Q427 146 404.0 106.5Q381 67 341.5 44.0Q302 21 256 21ZM128 277H171V320H203V277H245V245H203V203H171V245H128ZM256 405Q214 405 174.5 389.0Q135 373 105.0 343.0Q75 313 59.0 273.5Q43 234 43.0 192.0Q43 150 59.0 110.5Q75 71 105.0 41.0Q135 11 174.5 -5.0Q214 -21 256.0 -21.0Q298 -21 337.5 -5.0Q377 11 407.0 41.0Q437 71 453.0 110.5Q469 150 469.0 192.0Q469 234 453.0 273.5Q437 313 407.0 343.0Q377 373 337.5 389.0Q298 405 256 405ZM256 107H363V139H256Z" />
      </g>
    </svg>