<svg xmlns="http://www.w3.org/2000/svg" viewBox="43 -21 423 405">
      <g transform="scale(1 -1) translate(0 -363)">
        <path d="M213 43 216 46Q196 51 183.5 68.0Q171 85 171 107Q171 133 189.5 152.0Q208 171 235 171Q256 171 273.0 158.0Q290 145 296 125L427 256V299L341 384H85Q68 384 55.5 371.5Q43 359 43 341V43Q43 25 55.5 12.5Q68 0 85 0H213ZM85 341H299V256H85ZM428 189Q423 189 419 186L398 164L442 121L463 142Q466 145 466.0 150.0Q466 155 463 158L436 186Q432 189 428 189ZM385 152 256 23V-21H300L429 108Z" />
      </g>
    </svg>