<svg xmlns="http://www.w3.org/2000/svg" viewBox="63 -43 385 468">
      <g transform="scale(1 -1) translate(0 -382)">
        <path d="M358 -43Q344 -37 341 -21Q341 -17 342.5 -12.5Q344 -8 350 3Q399 91 397 192Q399 289 352 375Q344 391 340 403Q342 416 352 423Q359 426 367.0 425.5Q375 425 382 421Q392 408 397 396Q432 329 444 256Q451 198 446 139Q436 64 402 -4Q391 -25 384.5 -34.0Q378 -43 372 -43ZM265 4Q256 7 251.0 15.0Q246 23 248 33Q248 34 255 49L260 59Q299 133 292 216Q287 275 259 328Q249 348 247.5 355.0Q246 362 252.5 370.0Q259 378 269.5 379.0Q280 380 289 373Q312 340 325 300Q346 239 343.0 175.5Q340 112 313 53Q300 23 289.0 12.0Q278 1 265 6ZM169 52Q157 57 154 70Q154 80 163 97Q187 140 187.0 189.5Q187 239 163 282Q153 302 152.5 309.5Q152 317 159.5 325.0Q167 333 177.0 332.0Q187 331 194.0 324.5Q201 318 210 301Q238 250 238.5 191.5Q239 133 210 81Q202 65 196.0 59.0Q190 53 182.0 52.0Q174 51 169 53ZM79 97Q68 103 64 114Q62 120 64.0 125.5Q66 131 73 142Q89 164 87 192Q90 220 73 243Q69 249 64 260Q62 270 68.0 278.5Q74 287 85 289Q94 290 101.0 286.0Q108 282 116 270Q139 234 139.0 192.0Q139 150 116 115Q100 91 80 97Z" />
      </g>
    </svg>