<svg xmlns="http://www.w3.org/2000/svg" viewBox="21 -43 470 470">
      <g transform="scale(1 -1) translate(0 -384)">
        <path d="M363 299V384H149V299ZM299 85Q325 85 344.0 104.0Q363 123 363.0 149.5Q363 176 344.0 194.5Q325 213 298.5 213.0Q272 213 253.5 194.5Q235 176 235.0 149.5Q235 123 253.5 104.0Q272 85 299 85ZM405 427 491 341V85Q491 68 478.5 55.5Q466 43 448 43H149Q132 43 119.5 55.5Q107 68 107 85V384Q107 402 119.5 414.5Q132 427 149 427ZM21 299H64V0H363V-43H64Q46 -43 33.5 -30.5Q21 -18 21 0Z" />
      </g>
    </svg>