<svg xmlns="http://www.w3.org/2000/svg" viewBox="43 -21 426 426">
      <g transform="scale(1 -1) translate(0 -384)">
        <path d="M256 363Q302 363 341.5 340.0Q381 317 404.0 277.5Q427 238 427.0 192.0Q427 146 404.0 106.5Q381 67 341.5 44.0Q302 21 256.0 21.0Q210 21 170.5 44.0Q131 67 108.0 106.5Q85 146 85.0 192.0Q85 238 108.0 277.5Q131 317 170.5 340.0Q210 363 256 363ZM256 405Q198 405 149.0 376.5Q100 348 71.5 299.0Q43 250 43.0 192.0Q43 134 71.5 85.0Q100 36 149.0 7.5Q198 -21 256.0 -21.0Q314 -21 363.0 7.5Q412 36 440.5 85.0Q469 134 469.0 192.0Q469 250 440.5 299.0Q412 348 363.0 376.5Q314 405 256 405ZM180 140 151 153Q160 171 160.0 191.5Q160 212 151 231L180 244Q192 218 192 191Q192 167 180 140ZM246 108 218 122Q235 157 235.0 194.0Q235 231 218 262L246 278Q267 242 267.0 194.5Q267 147 246 108ZM313 78 284 93Q309 142 309.0 192.0Q309 242 284 292L313 306Q341 249 341.0 192.0Q341 135 313 78Z" />
      </g>
    </svg>