<svg xmlns="http://www.w3.org/2000/svg" viewBox="43 -64 426 512">
      <g transform="scale(1 -1) translate(0 -384)">
        <path d="M427 363H85Q68 363 55.5 350.5Q43 338 43 320V64Q43 46 55.5 33.5Q68 21 85 21H427Q444 21 456.5 33.5Q469 46 469 64V320Q469 338 456.5 350.5Q444 363 427 363ZM427 64H85V320H427ZM85 448H427V405H85ZM85 -21H427V-64H85ZM256 192Q278 192 293.5 207.5Q309 223 309.0 245.0Q309 267 293.5 283.0Q278 299 256.0 299.0Q234 299 218.5 283.0Q203 267 203.0 245.0Q203 223 218.5 207.5Q234 192 256 192ZM256 267Q265 267 271.0 260.5Q277 254 277.0 245.5Q277 237 271.0 230.5Q265 224 256.0 224.0Q247 224 241.0 230.5Q235 237 235.0 245.5Q235 254 241.0 260.5Q247 267 256 267ZM363 107Q363 127 343 143Q327 156 300 164Q276 171 256.0 171.0Q236 171 212 164Q185 156 169 143Q149 127 149 107V85H363ZM188 117Q198 126 218.0 132.5Q238 139 256.0 139.0Q274 139 294.0 132.5Q314 126 324 117Z" />
      </g>
    </svg>