<svg xmlns="http://www.w3.org/2000/svg" viewBox="21 64 470 235">
      <g transform="scale(1 -1) translate(0 -363)">
        <path d="M373 299Q405 299 432.0 283.0Q459 267 475.0 240.0Q491 213 491 181Q491 158 482.0 136.5Q473 115 456.5 98.5Q440 82 418.5 73.0Q397 64 373 64Q346 64 322.5 75.5Q299 87 283 107H229Q213 87 189.5 75.5Q166 64 139 64Q115 64 93.5 73.0Q72 82 55.5 98.5Q39 115 30.0 136.5Q21 158 21.0 181.5Q21 205 30.0 226.5Q39 248 55.5 264.5Q72 281 93.5 290.0Q115 299 139 299ZM139 256Q108 256 86.0 234.0Q64 212 64.0 181.0Q64 150 86.0 128.5Q108 107 139 107Q161 107 179.0 118.5Q197 130 206 149H306Q315 130 333.0 118.5Q351 107 373 107Q404 107 426.0 128.5Q448 150 448.0 181.0Q448 212 426.0 234.0Q404 256 373 256ZM123 229H155V197H187V165H155V133H123V165H91V197H123ZM357 181Q366 181 372.5 175.0Q379 169 379.0 160.0Q379 151 372.5 145.0Q366 139 357.0 139.0Q348 139 342.0 145.0Q336 151 336.0 160.0Q336 169 342.0 175.0Q348 181 357 181ZM400 224Q409 224 415.0 218.0Q421 212 421.0 203.0Q421 194 415.0 187.5Q409 181 400.0 181.0Q391 181 385.0 187.5Q379 194 379.0 203.0Q379 212 385.0 218.0Q391 224 400 224Z" />
      </g>
    </svg>