<svg xmlns="http://www.w3.org/2000/svg" viewBox="64 -21 384 469">
      <g transform="scale(1 -1) translate(0 -427)">
        <path d="M405 21H107V363H149V299H363V363H405ZM256 405Q265 405 271.0 399.0Q277 393 277.0 384.0Q277 375 271.0 369.0Q265 363 256.0 363.0Q247 363 241.0 369.0Q235 375 235.0 384.0Q235 393 241.0 399.0Q247 405 256 405ZM405 405H316Q309 424 292.5 436.0Q276 448 256.0 448.0Q236 448 219.5 436.0Q203 424 196 405H107Q89 405 76.5 392.5Q64 380 64 363V21Q64 4 76.5 -8.5Q89 -21 107 -21H405Q423 -21 435.5 -8.5Q448 4 448 21V363Q448 380 435.5 392.5Q423 405 405 405Z" />
      </g>
    </svg>