<svg xmlns="http://www.w3.org/2000/svg" viewBox="21 85 470 214">
      <g transform="scale(1 -1) translate(0 -384)">
        <path d="M128 299H384Q413 299 437.5 284.5Q462 270 476.5 245.5Q491 221 491.0 192.0Q491 163 476.5 138.5Q462 114 437.5 99.5Q413 85 384 85Q358 85 336.0 96.5Q314 108 299 128H213Q198 108 176.0 96.5Q154 85 128 85Q99 85 74.5 99.5Q50 114 35.5 138.5Q21 163 21.0 192.0Q21 221 35.5 245.5Q50 270 74.5 284.5Q99 299 128 299ZM421 245Q410 245 402.5 237.5Q395 230 395.0 219.0Q395 208 402.5 200.0Q410 192 421.0 192.0Q432 192 440.0 200.0Q448 208 448.0 219.0Q448 230 440.0 237.5Q432 245 421 245ZM368 192Q357 192 349.0 184.0Q341 176 341.0 165.0Q341 154 349.0 146.5Q357 139 368.0 139.0Q379 139 387.0 146.5Q395 154 395.0 165.0Q395 176 387.0 184.0Q379 192 368 192ZM107 256V213H64V171H107V128H149V171H192V213H149V256Z" />
      </g>
    </svg>