<svg xmlns="http://www.w3.org/2000/svg" viewBox="43 -21 423 405">
      <g transform="scale(1 -1) translate(0 -363)">
        <path d="M85 43H213V0H85Q68 0 55.5 12.5Q43 25 43 43V341Q43 359 55.5 371.5Q68 384 85 384H341L427 299V253L384 211V281L324 341H85ZM299 235V320H107V235ZM436 186Q432 189 427.5 189.0Q423 189 419 186L398 164L442 121L463 142Q466 145 466.0 150.0Q466 155 463 158ZM256 23V-21H300L429 108L385 152ZM299 128Q299 155 280.0 173.5Q261 192 234.5 192.0Q208 192 189.5 173.5Q171 155 171.0 128.0Q171 101 189.5 82.5Q208 64 235 64H237L299 125Z" />
      </g>
    </svg>