<svg xmlns="http://www.w3.org/2000/svg" viewBox="64 -21 405 405">
      <g transform="scale(1 -1) translate(0 -363)">
        <path d="M107 384Q89 384 76.5 371.5Q64 359 64 341V43Q64 25 76.5 12.5Q89 0 107 0H273Q262 20 258 43H107V341H345L405 281V190Q428 186 448 175V299L363 384ZM128 320V235H320V320ZM256 192Q229 192 210.5 173.5Q192 155 192.0 128.0Q192 101 210.5 82.5Q229 64 256 64Q256 94 269.5 121.0Q283 148 307 166Q298 178 284.5 185.0Q271 192 256 192ZM363 149V85H299V43H363V-21H405V43H469V85H405V149Z" />
      </g>
    </svg>