<svg xmlns="http://www.w3.org/2000/svg" viewBox="43 -64 426 512">
      <g transform="scale(1 -1) translate(0 -384)">
        <path d="M427 448H85V405H427ZM85 -64H427V-21H85ZM427 363H85Q68 363 55.5 350.5Q43 338 43 320V64Q43 46 55.5 33.5Q68 21 85 21H427Q444 21 456.5 33.5Q469 46 469 64V320Q469 338 456.5 350.5Q444 363 427 363ZM256 304Q276 304 290.0 290.0Q304 276 304.0 256.0Q304 236 290.0 222.0Q276 208 256.0 208.0Q236 208 222.0 222.0Q208 236 208.0 256.0Q208 276 222.0 290.0Q236 304 256 304ZM363 85H149V117Q149 134 169 147Q186 158 213 165Q236 171 256.0 171.0Q276 171 299 165Q326 158 343 147Q363 134 363 117Z" />
      </g>
    </svg>