<svg xmlns="http://www.w3.org/2000/svg" viewBox="43 32 426 288">
      <g transform="scale(1 -1) translate(0 -352)">
        <path d="M170 107 107 43Q95 32 80.0 32.0Q65 32 54.0 43.0Q43 54 43 69V75L64 232Q67 269 94.5 294.5Q122 320 160 320H352Q390 320 417.5 294.5Q445 269 448 232L469 75V69Q469 54 458.0 43.0Q447 32 432.0 32.0Q417 32 405 43L342 107ZM149 277V235H107V213H149V171H171V213H213V235H171V277ZM352 277Q345 277 340.5 272.5Q336 268 336.0 261.5Q336 255 340.5 250.0Q345 245 352.0 245.0Q359 245 363.5 250.0Q368 255 368.0 261.5Q368 268 363.5 272.5Q359 277 352 277ZM315 240Q308 240 303.5 235.5Q299 231 299.0 224.0Q299 217 303.5 212.5Q308 208 314.5 208.0Q321 208 326.0 212.5Q331 217 331.0 224.0Q331 231 326.0 235.5Q321 240 315 240ZM389 240Q383 240 378.0 235.5Q373 231 373.0 224.0Q373 217 378.0 212.5Q383 208 389.5 208.0Q396 208 400.5 212.5Q405 217 405.0 224.0Q405 231 400.5 235.5Q396 240 389 240ZM352 203Q345 203 340.5 198.0Q336 193 336.0 186.5Q336 180 340.5 175.5Q345 171 352.0 171.0Q359 171 363.5 175.5Q368 180 368.0 186.5Q368 193 363.5 198.0Q359 203 352 203Z" />
      </g>
    </svg>