<svg xmlns="http://www.w3.org/2000/svg" viewBox="43 -21 426 426">
      <g transform="scale(1 -1) translate(0 -384)">
        <path d="M405 384 277 256 320 213 469 363V384ZM256 181Q252 181 248.5 184.5Q245 188 245.0 192.0Q245 196 248.5 199.5Q252 203 256.0 203.0Q260 203 263.5 199.5Q267 196 267.0 192.0Q267 188 263.5 184.5Q260 181 256 181ZM128 21Q110 21 97.5 33.5Q85 46 85.0 64.0Q85 82 97.5 94.5Q110 107 128.0 107.0Q146 107 158.5 94.5Q171 82 171.0 64.0Q171 46 158.5 33.5Q146 21 128 21ZM128 277Q110 277 97.5 289.5Q85 302 85.0 320.0Q85 338 97.5 350.5Q110 363 128.0 363.0Q146 363 158.5 350.5Q171 338 171.0 320.0Q171 302 158.5 289.5Q146 277 128 277ZM206 285Q213 302 213 320Q213 355 188.0 380.0Q163 405 128.0 405.0Q93 405 68.0 380.0Q43 355 43.0 320.0Q43 285 68.0 260.0Q93 235 128 235Q146 235 163 242L213 192L163 142Q146 149 128 149Q93 149 68.0 124.0Q43 99 43.0 64.0Q43 29 68.0 4.0Q93 -21 128.0 -21.0Q163 -21 188.0 4.0Q213 29 213 64Q213 82 206 99L256 149L405 0H469V21Z" />
      </g>
    </svg>