<svg xmlns="http://www.w3.org/2000/svg" viewBox="64 -64 384 469">
      <g transform="scale(1 -1) translate(0 -341)">
        <path d="M320 277V363H107V277ZM256 64Q283 64 301.5 82.5Q320 101 320.0 128.0Q320 155 301.5 173.5Q283 192 256.0 192.0Q229 192 210.5 173.5Q192 155 192.0 128.0Q192 101 210.5 82.5Q229 64 256 64ZM363 405 448 320V64Q448 46 435.5 33.5Q423 21 405 21H107Q89 21 76.5 33.5Q64 46 64 64V363Q64 380 76.5 392.5Q89 405 107 405ZM235 -21H277V-64H235ZM149 -21H192V-64H149ZM320 -21H363V-64H320Z" />
      </g>
    </svg>