<svg xmlns="http://www.w3.org/2000/svg" viewBox="21 0 470 384">
      <g transform="scale(1 -1) translate(0 -384)">
        <path d="M341 139Q341 126 331.5 116.5Q322 107 309.5 107.0Q297 107 287.0 116.5Q277 126 277.0 138.5Q277 151 287.0 161.0Q297 171 309.5 171.0Q322 171 331.5 161.0Q341 151 341 139ZM403 224Q405 213 405 192Q405 140 379.5 95.5Q354 51 310.0 25.5Q266 0 213.5 0.0Q161 0 117.0 25.5Q73 51 47.0 95.5Q21 140 21.0 192.0Q21 244 47.0 288.5Q73 333 117.0 358.5Q161 384 213 384L219 383Q225 382 229 378Q235 372 235 363V320H256L262 319Q268 318 272 314Q277 308 277 299V277H320H326Q332 275 336 271Q341 265 341 256V235H384L391 233Q399 231 403 224ZM363 192H331Q318 192 308.5 201.5Q299 211 299 224V235H267Q254 235 244.5 244.5Q235 254 235 267V277H224Q211 277 201.5 287.0Q192 297 192 309V339Q143 333 108.0 297.0Q73 261 66 211Q68 221 76.5 228.0Q85 235 97.0 235.0Q109 235 118.5 225.0Q128 215 128.0 202.5Q128 190 118.5 180.5Q109 171 96.0 171.0Q83 171 74.5 179.5Q66 188 64 201Q64 179 66 169Q72 126 102.5 93.0Q133 60 175 49Q160 60 160.0 73.5Q160 87 169.5 97.0Q179 107 192.0 107.0Q205 107 214.5 97.0Q224 87 224.0 75.5Q224 64 217.0 55.0Q210 46 198 43Q242 38 280.0 57.5Q318 77 340.5 113.0Q363 149 363 192ZM203 213Q190 213 180.5 203.5Q171 194 171.0 181.5Q171 169 180.5 159.0Q190 149 202.5 149.0Q215 149 225.0 159.0Q235 169 235.0 181.5Q235 194 225.0 203.5Q215 213 203 213ZM192 288Q192 301 182.5 310.5Q173 320 160.0 320.0Q147 320 137.5 310.5Q128 301 128.0 288.0Q128 275 137.5 265.5Q147 256 160.0 256.0Q173 256 182.5 265.5Q192 275 192 288ZM448 85H491V128H448ZM448 299V171H491V299Z" />
      </g>
    </svg>