<svg xmlns="http://www.w3.org/2000/svg" viewBox="21 0 470 384">
      <g transform="scale(1 -1) translate(0 -384)">
        <path d="M384 235H341V256Q341 269 331 275Q325 277 320 277H277V299Q277 312 267 317Q261 320 256 320H235V363Q235 376 224 381Q219 384 213 384Q161 384 117.0 358.5Q73 333 47.0 288.5Q21 244 21.0 192.0Q21 140 47.0 95.5Q73 51 117.0 25.5Q161 0 213.5 0.0Q266 0 310.0 25.5Q354 51 379.5 95.5Q405 140 405 192Q405 213 403 224Q399 231 391 233Q387 235 384 235ZM96 171Q83 171 73.5 180.5Q64 190 64.0 202.5Q64 215 73.5 225.0Q83 235 96.0 235.0Q109 235 118.5 225.0Q128 215 128.0 202.5Q128 190 118.5 180.5Q109 171 96 171ZM128 288Q128 301 137.5 310.5Q147 320 160.0 320.0Q173 320 182.5 310.5Q192 301 192.0 288.0Q192 275 182.5 265.5Q173 256 160.0 256.0Q147 256 137.5 265.5Q128 275 128 288ZM192 43Q179 43 169.5 52.5Q160 62 160.0 74.5Q160 87 169.5 97.0Q179 107 192.0 107.0Q205 107 214.5 97.0Q224 87 224.0 74.5Q224 62 214.5 52.5Q205 43 192 43ZM203 149Q190 149 180.5 159.0Q171 169 171.0 181.5Q171 194 180.5 203.5Q190 213 202.5 213.0Q215 213 225.0 203.5Q235 194 235.0 181.5Q235 169 225.0 159.0Q215 149 203 149ZM309 107Q297 107 287.0 116.5Q277 126 277.0 138.5Q277 151 287.0 161.0Q297 171 309.5 171.0Q322 171 331.5 161.0Q341 151 341.0 138.5Q341 126 331.5 116.5Q322 107 309 107ZM448 128H491V85H448ZM491 299V171H448V299Z" />
      </g>
    </svg>