<svg xmlns="http://www.w3.org/2000/svg" viewBox="64 -64 446 448">
      <g transform="scale(1 -1) translate(0 -320)">
        <path d="M448 186Q448 189 448 192Q448 209 445 224Q442 231 434 233Q430 235 427 235H384V256Q384 269 373 275Q368 277 363 277H320V299Q320 312 309 317Q304 320 299 320H277V363Q277 376 267 381Q261 384 256 384Q204 384 160.0 358.0Q116 332 90.0 288.0Q64 244 64.0 192.0Q64 140 90.0 96.0Q116 52 160.0 26.0Q204 0 256 0H262Q256 22 256 43V51Q247 43 234.0 43.0Q221 43 212.0 52.0Q203 61 203.0 74.5Q203 88 212.0 97.5Q221 107 235 107Q244 107 251.5 102.0Q259 97 263 89Q278 134 317.0 163.0Q356 192 405 192Q426 192 448 186ZM139 171Q125 171 116.0 180.0Q107 189 107.0 202.5Q107 216 116.0 225.5Q125 235 138.5 235.0Q152 235 161.5 225.5Q171 216 171.0 202.5Q171 189 161.5 180.0Q152 171 139 171ZM203 256Q189 256 180.0 265.5Q171 275 171.0 288.0Q171 301 180.0 310.5Q189 320 202.5 320.0Q216 320 225.5 310.5Q235 301 235.0 288.0Q235 275 225.5 265.5Q216 256 203 256ZM245 149Q232 149 222.5 158.5Q213 168 213.0 181.5Q213 195 222.5 204.0Q232 213 245.5 213.0Q259 213 268.0 204.0Q277 195 277.0 181.5Q277 168 268.0 158.5Q259 149 245 149ZM484 30V51L508 68Q512 73 510 75L489 111Q489 113 482 113L457 102Q444 111 437 113L433 141Q433 142 431.5 143.5Q430 145 429 145H386Q380 145 380 141L375 113L358 102L333 113Q329 113 326 111L305 75Q305 70 307 68L331 51V30L307 13Q303 9 305 6L326 -30Q329 -32 333 -32L358 -21Q366 -29 375 -32L380 -60Q384 -64 386 -64H429Q430 -64 431.5 -62.5Q433 -61 433 -60L437 -32L454 -21L480 -30Q484 -30 486 -28L508 9Q509 10 509.0 11.5Q509 13 508 13ZM405 11Q393 11 383.0 20.5Q373 30 373.0 42.5Q373 55 383.0 65.0Q393 75 405.5 75.0Q418 75 427.5 65.0Q437 55 437.0 42.5Q437 30 427.5 20.5Q418 11 405 11Z" />
      </g>
    </svg>