<svg xmlns="http://www.w3.org/2000/svg" viewBox="64 0 427 384">
      <g transform="scale(1 -1) translate(0 -384)">
        <path d="M320 235H309Q296 235 286.5 244.0Q277 253 277 267V277H267Q253 277 244.0 286.5Q235 296 235 309V340Q185 333 150.0 297.0Q115 261 108 212Q111 222 119.5 228.5Q128 235 139 235Q152 235 161.5 225.5Q171 216 171.0 202.5Q171 189 161.5 180.0Q152 171 139.0 171.0Q126 171 117.0 179.5Q108 188 107 200Q107 179 109 168Q115 125 145.0 92.0Q175 59 217 48Q203 58 203 75Q203 88 212.0 97.5Q221 107 234.5 107.0Q248 107 257.5 97.5Q267 88 267.0 75.5Q267 63 259.5 54.5Q252 46 241 44Q262 42 277 44V43Q277 22 284 2Q270 0 256 0Q204 0 160.0 26.0Q116 52 90.0 96.0Q64 140 64.0 192.0Q64 244 90.0 288.0Q116 332 160.0 358.0Q204 384 256 384L262 383Q268 382 272 378Q277 372 277 363V320H299L304 319Q311 318 314 314Q320 308 320 299V277H363H368Q375 275 378 271Q384 265 384 256V235H427L434 233Q442 231 445 224Q448 209 448 192Q448 178 446 164Q426 171 405 171H404Q405 182 405 192H373Q360 192 350.5 201.5Q341 211 341 224V235ZM320 139Q320 138 320 138Q342 157 369 166Q361 171 352 171Q339 171 329.5 161.5Q320 152 320 139ZM235 288Q235 301 225.5 310.5Q216 320 202.5 320.0Q189 320 180.0 310.5Q171 301 171.0 288.0Q171 275 180.0 265.5Q189 256 202.5 256.0Q216 256 225.5 265.5Q235 275 235 288ZM245 149Q259 149 268.0 158.5Q277 168 277.0 181.5Q277 195 268.0 204.0Q259 213 245.5 213.0Q232 213 222.5 204.0Q213 195 213.0 181.5Q213 168 222.5 158.5Q232 149 245 149ZM320 64V21H491V64Z" />
      </g>
    </svg>