<svg xmlns="http://www.w3.org/2000/svg" viewBox="64 -64 384 469">
      <g transform="scale(1 -1) translate(0 -341)">
        <path d="M445 245Q442 252 434 255L427 256H384V277Q384 291 373 296Q368 299 363 299H320V320Q320 333 309 339Q304 341 299 341H277V384Q277 393 272 399Q268 403 262 405H256Q204 405 160.0 379.5Q116 354 90.0 309.5Q64 265 64.0 213.0Q64 161 90.0 117.0Q116 73 160.0 47.0Q204 21 256.0 21.0Q308 21 352.0 47.0Q396 73 422.0 117.0Q448 161 448 213Q448 230 445 245ZM139 192Q125 192 116.0 201.5Q107 211 107.0 224.0Q107 237 116.0 246.5Q125 256 138.5 256.0Q152 256 161.5 246.5Q171 237 171.0 224.0Q171 211 161.5 201.5Q152 192 139 192ZM171 309Q171 323 180.0 332.0Q189 341 202.5 341.0Q216 341 225.5 332.0Q235 323 235.0 309.5Q235 296 225.5 286.5Q216 277 202.5 277.0Q189 277 180.0 286.5Q171 296 171 309ZM235 64Q221 64 212.0 73.5Q203 83 203.0 96.0Q203 109 212.0 118.5Q221 128 234.5 128.0Q248 128 257.5 118.5Q267 109 267.0 96.0Q267 83 257.5 73.5Q248 64 235 64ZM245 171Q232 171 222.5 180.0Q213 189 213.0 202.5Q213 216 222.5 225.5Q232 235 245.5 235.0Q259 235 268.0 225.5Q277 216 277.0 202.5Q277 189 268.0 180.0Q259 171 245 171ZM352 128Q339 128 329.5 137.5Q320 147 320.0 160.0Q320 173 329.5 182.5Q339 192 352.0 192.0Q365 192 374.5 182.5Q384 173 384.0 160.0Q384 147 374.5 137.5Q365 128 352 128ZM149 -21H192V-64H149ZM235 -21H277V-64H235ZM320 -21H363V-64H320Z" />
      </g>
    </svg>