<svg xmlns="http://www.w3.org/2000/svg" viewBox="64 -32 405 416">
      <g transform="scale(1 -1) translate(0 -352)">
        <path d="M235 107Q243 107 250.0 103.0Q257 99 262 92Q274 136 311.0 164.0Q348 192 395 192Q422 192 448 181V192Q448 209 445 224Q442 231 434 233Q430 235 427 235H384V256Q384 269 373 275Q368 277 363 277H320V299Q320 312 309 317Q304 320 299 320H277V363Q277 376 267 381Q261 384 256 384Q204 384 160.0 358.0Q116 332 90.0 288.0Q64 244 64.0 192.0Q64 140 90.0 96.0Q116 52 160.0 26.0Q204 0 256 0H267Q256 26 256 51Q247 43 234.0 43.0Q221 43 212.0 52.0Q203 61 203.0 74.5Q203 88 212.0 97.5Q221 107 235 107ZM277 181Q277 168 268.0 158.5Q259 149 245.5 149.0Q232 149 222.5 158.5Q213 168 213.0 181.5Q213 195 222.5 204.0Q232 213 245.5 213.0Q259 213 268.0 204.0Q277 195 277 181ZM139 171Q125 171 116.0 180.0Q107 189 107.0 202.5Q107 216 116.0 225.5Q125 235 138.5 235.0Q152 235 161.5 225.5Q171 216 171.0 202.5Q171 189 161.5 180.0Q152 171 139 171ZM171 288Q171 301 180.0 310.5Q189 320 202.5 320.0Q216 320 225.5 310.5Q235 301 235.0 288.0Q235 275 225.5 265.5Q216 256 202.5 256.0Q189 256 180.0 265.5Q171 275 171 288ZM384 53 422 91Q406 107 384.0 107.0Q362 107 346.5 91.0Q331 75 331.0 53.0Q331 31 346.5 15.5Q362 0 384 0Q397 0 408.0 5.5Q419 11 427 21H463Q454 -3 432.5 -17.5Q411 -32 384 -32Q349 -32 324.0 -7.0Q299 18 299.0 53.5Q299 89 324.0 114.0Q349 139 384.0 139.0Q419 139 444 114L469 139V53Z" />
      </g>
    </svg>