<svg xmlns="http://www.w3.org/2000/svg" viewBox="64 -21 405 405">
      <g transform="scale(1 -1) translate(0 -363)">
        <path d="M213 181Q213 195 222.5 204.0Q232 213 245.5 213.0Q259 213 268.0 204.0Q277 195 277.0 181.5Q277 168 268.0 158.5Q259 149 245.5 149.0Q232 149 222.5 158.5Q213 168 213 181ZM341 235V224Q341 211 350 202Q372 213 395 213Q423 213 448 197Q448 209 445 224Q442 231 434 233Q430 235 427 235H384V256Q384 269 373 275Q368 277 363 277H320V299Q320 312 309 317Q304 320 299 320H277V363Q277 376 267 381Q261 384 256 384Q204 384 160.0 358.0Q116 332 90.0 288.0Q64 244 64.0 192.0Q64 140 90.0 96.0Q116 52 160.0 26.0Q204 0 256 0Q270 0 277 1V44Q262 42 241 44Q252 46 259.5 54.5Q267 63 267.0 75.5Q267 88 257.5 97.5Q248 107 234.5 107.0Q221 107 212.0 97.5Q203 88 203 75Q203 58 217 48Q175 59 145.0 92.0Q115 125 109 168Q107 179 107 200Q108 188 117.0 179.5Q126 171 139.0 171.0Q152 171 161.5 180.0Q171 189 171.0 202.5Q171 216 161.5 225.5Q152 235 139 235Q128 235 119.5 228.5Q111 222 108 212Q115 261 150.0 297.0Q185 333 235 340V309Q235 296 244.0 286.5Q253 277 267 277H277V267Q277 253 286.5 244.0Q296 235 309 235ZM235 288Q235 301 225.5 310.5Q216 320 202.5 320.0Q189 320 180.0 310.5Q171 301 171.0 288.0Q171 275 180.0 265.5Q189 256 202.5 256.0Q216 256 225.5 265.5Q235 275 235 288ZM469 85V0Q469 -9 463.0 -15.0Q457 -21 448 -21H341Q333 -21 326.5 -15.0Q320 -9 320 0V85Q320 94 326.5 100.5Q333 107 341 107V117Q341 139 357.0 155.0Q373 171 395.0 171.0Q417 171 432.5 155.0Q448 139 448 117V107Q457 107 463.0 100.5Q469 94 469 85ZM427 117Q427 131 417.5 140.0Q408 149 394.5 149.0Q381 149 372.0 140.0Q363 131 363 117V107H427Z" />
      </g>
    </svg>