<svg xmlns="http://www.w3.org/2000/svg" viewBox="64 -64 384 469">
      <g transform="scale(1 -1) translate(0 -341)">
        <path d="M277 203Q277 189 268.0 180.0Q259 171 245.5 171.0Q232 171 222.5 180.0Q213 189 213.0 202.5Q213 216 222.5 225.5Q232 235 245.5 235.0Q259 235 268.0 225.5Q277 216 277 203ZM235 309Q235 323 225.5 332.0Q216 341 202.5 341.0Q189 341 180.0 332.0Q171 323 171.0 309.5Q171 296 180.0 286.5Q189 277 202.5 277.0Q216 277 225.5 286.5Q235 296 235 309ZM448 213Q448 161 422.0 117.0Q396 73 352.0 47.0Q308 21 256.0 21.0Q204 21 160.0 47.0Q116 73 90.0 117.0Q64 161 64.0 213.0Q64 265 90.0 309.5Q116 354 160.0 379.5Q204 405 256 405H262Q268 403 272 399Q277 393 277 384V341H299H304Q311 339 314 335Q320 329 320 320V299H363L368 298Q375 296 378 292Q384 287 384 277V256H427L434 255Q442 252 445 245Q448 230 448 213ZM405 213H373Q360 213 350.5 222.5Q341 232 341 245V256H309Q296 256 286.5 265.5Q277 275 277 288V299H267Q253 299 244.0 308.0Q235 317 235 331V361Q185 354 150.0 318.0Q115 282 108 233Q111 243 119.5 249.5Q128 256 139 256Q152 256 161.5 246.5Q171 237 171.0 224.0Q171 211 161.5 201.5Q152 192 139.0 192.0Q126 192 117.0 200.5Q108 209 107 221Q107 200 109 189Q115 147 145.0 114.0Q175 81 217 70Q203 79 203 96Q203 109 212.0 118.5Q221 128 234.5 128.0Q248 128 257.5 118.5Q267 109 267.0 97.0Q267 85 259.5 76.0Q252 67 241 65Q285 61 323.0 80.0Q361 99 383.0 134.5Q405 170 405 213ZM352 192Q339 192 329.5 182.5Q320 173 320.0 160.0Q320 147 329.5 137.5Q339 128 352.0 128.0Q365 128 374.5 137.5Q384 147 384.0 160.0Q384 173 374.5 182.5Q365 192 352 192ZM149 -64H192V-21H149ZM320 -64H363V-21H320ZM235 -64H277V-21H235Z" />
      </g>
    </svg>