<svg xmlns="http://www.w3.org/2000/svg" viewBox="24 -37 448 448">
      <g transform="scale(1 -1) translate(0 -374)">
        <path d="M191 326 159 357Q204 384 256 384L262 383Q268 382 272 378Q277 372 277 363V320H299L304 319Q311 318 314 314Q320 308 320 299V277H363H368Q375 275 378 271Q384 265 384 256V235H427L434 233Q442 231 445 224Q448 209 448 192Q448 140 421 95L390 126Q405 157 405 192H373Q360 192 350.5 201.5Q341 211 341 224V235H309Q296 235 286.5 244.0Q277 253 277 267V277H267Q253 277 244.0 286.5Q235 296 235 309V340Q212 336 191 326ZM197 319 234 283 235 288Q235 301 225.5 310.5Q216 320 203 320ZM347 170 383 133 384 139Q384 152 374.5 161.5Q365 171 352 171ZM472 -10 445 -37 370 38Q319 0 256 0Q204 0 160.0 26.0Q116 52 90.0 96.0Q64 140 64 192Q64 255 102 306L24 384L51 411ZM339 68 256 151Q251 149 245 149Q232 149 222.5 158.5Q213 168 213 181Q213 187 215 192L132 275Q112 245 108 212Q111 222 119.5 228.5Q128 235 139 235Q152 235 161.5 225.5Q171 216 171.0 202.5Q171 189 161.5 180.0Q152 171 139.0 171.0Q126 171 117.0 179.5Q108 188 107 200Q107 179 109 168Q115 125 145.0 92.0Q175 59 217 48Q203 58 203 75Q203 88 212.0 97.5Q221 107 234.5 107.0Q248 107 257.5 97.5Q267 88 267.0 75.5Q267 63 259.5 54.5Q252 46 241 44Q295 39 339 68Z" />
      </g>
    </svg>