<svg xmlns="http://www.w3.org/2000/svg" viewBox="64 -21 427 405">
      <g transform="scale(1 -1) translate(0 -363)">
        <path d="M322 127Q320 133 320 139Q320 152 329.5 161.5Q339 171 352 171Q357 171 363 169L414 219Q423 228 436 232Q433 234 430 234L384 235V256Q384 269 373 275Q368 277 363 277H320V299Q320 312 309 317Q304 320 299 320H277V363Q277 376 267 381Q261 384 256 384Q204 384 160.0 358.0Q116 332 90.0 288.0Q64 244 64 192Q64 143 86.5 101.5Q109 60 148.0 33.5Q187 7 235 1V40L238 43H235Q221 43 212.0 52.0Q203 61 203.0 74.5Q203 88 212.0 97.5Q221 107 234.5 107.0Q248 107 257.5 97.5Q267 88 267 75V72ZM139 171Q125 171 116.0 180.0Q107 189 107.0 202.5Q107 216 116.0 225.5Q125 235 138.5 235.0Q152 235 161.5 225.5Q171 216 171.0 202.5Q171 189 161.5 180.0Q152 171 139 171ZM203 256Q189 256 180.0 265.5Q171 275 171.0 288.0Q171 301 180.0 310.5Q189 320 202.5 320.0Q216 320 225.5 310.5Q235 301 235.0 288.0Q235 275 225.5 265.5Q216 256 203 256ZM245 149Q232 149 222.5 158.5Q213 168 213.0 181.5Q213 195 222.5 204.0Q232 213 245.5 213.0Q259 213 268.0 204.0Q277 195 277.0 181.5Q277 168 268.0 158.5Q259 149 245 149ZM487 145 467 124 423 168 444 189Q447 192 451.5 192.0Q456 192 459 189L487 161Q491 157 491.0 152.5Q491 148 487 145ZM408 153 452 109 321 -21H277V22Z" />
      </g>
    </svg>