<svg xmlns="http://www.w3.org/2000/svg" viewBox="64 -21 427 405">
      <g transform="scale(1 -1) translate(0 -363)">
        <path d="M203 320Q216 320 225.5 310.5Q235 301 235.0 288.0Q235 275 225.5 265.5Q216 256 202.5 256.0Q189 256 180.0 265.5Q171 275 171.0 288.0Q171 301 180.0 310.5Q189 320 203 320ZM245 213Q232 213 222.5 204.0Q213 195 213.0 181.5Q213 168 222.5 158.5Q232 149 245.5 149.0Q259 149 268.0 158.5Q277 168 277.0 181.5Q277 195 268.0 204.0Q259 213 245 213ZM235 107Q221 107 212.0 97.5Q203 88 203 75Q203 58 217 48Q175 59 145.0 92.0Q115 125 109 168Q107 179 107 200Q108 188 117.0 179.5Q126 171 139.0 171.0Q152 171 161.5 180.0Q171 189 171.0 202.5Q171 216 161.5 225.5Q152 235 139 235Q128 235 119.5 228.5Q111 222 108 212Q115 261 150.0 297.0Q185 333 235 340V309Q235 296 244.0 286.5Q253 277 267 277H277V267Q277 253 286.5 244.0Q296 235 309 235H341V224Q341 211 350.5 201.5Q360 192 373 192H387L414 219Q423 228 436 232Q433 234 430 234L384 235V256Q384 269 373 275Q368 277 363 277H320V299Q320 312 309 317Q304 320 299 320H277V363Q277 376 267 381Q261 384 256 384Q204 384 160.0 358.0Q116 332 90.0 288.0Q64 244 64 192Q64 143 86.5 101.5Q109 60 148.0 33.5Q187 7 235 1V40L266 71Q267 73 267 75Q267 88 257.5 97.5Q248 107 235 107ZM320 139Q320 133 322 127L363 169Q357 171 352 171Q339 171 329.5 161.5Q320 152 320 139ZM487 161 459 189Q456 192 451.5 192.0Q447 192 444 189L423 168L467 124L487 145Q491 148 491.0 152.5Q491 157 487 161ZM277 22V-21H321L452 109L408 153Z" />
      </g>
    </svg>