<svg xmlns="http://www.w3.org/2000/svg" viewBox="64 -64 446 448">
      <g transform="scale(1 -1) translate(0 -320)">
        <path d="M309 235Q296 235 286.5 244.0Q277 253 277 267V277H267Q253 277 244.0 286.5Q235 296 235 309V340Q185 333 150.0 297.0Q115 261 108 212Q111 222 119.5 228.5Q128 235 139 235Q152 235 161.5 225.5Q171 216 171.0 202.5Q171 189 161.5 180.0Q152 171 139.0 171.0Q126 171 117.0 179.5Q108 188 107 200Q107 179 109 168Q115 125 145.0 92.0Q175 59 217 48Q203 58 203 75Q203 88 212.0 97.5Q221 107 235 107Q244 107 251.5 102.0Q259 97 263 89Q258 73 256 52Q250 45 241 44Q246 43 256 43Q256 22 262 0H256Q204 0 160.0 26.0Q116 52 90.0 96.0Q64 140 64.0 192.0Q64 244 90.0 288.0Q116 332 160.0 358.0Q204 384 256 384L262 383Q268 382 272 378Q277 372 277 363V320H299L304 319Q311 318 314 314Q320 308 320 299V277H363H368Q375 275 378 271Q384 265 384 256V235H427L434 233Q442 231 445 224Q448 209 448 192V186Q426 192 405 192H373Q360 192 350.5 201.5Q341 211 341 224V235ZM245 213Q232 213 222.5 204.0Q213 195 213.0 181.5Q213 168 222.5 158.5Q232 149 245.5 149.0Q259 149 268.0 158.5Q277 168 277.0 181.5Q277 195 268.0 204.0Q259 213 245 213ZM235 288Q235 301 225.5 310.5Q216 320 202.5 320.0Q189 320 180.0 310.5Q171 301 171.0 288.0Q171 275 180.0 265.5Q189 256 202.5 256.0Q216 256 225.5 265.5Q235 275 235 288ZM508 13Q509 13 509.0 11.5Q509 10 508 9L486 -28Q484 -30 480 -30L454 -21L437 -32L433 -60Q433 -61 431.5 -62.5Q430 -64 429 -64H386Q384 -64 380 -60L375 -32Q366 -29 358 -21L333 -32Q329 -32 326 -30L305 6Q303 9 307 13L331 30V51L307 68Q305 70 305 75L326 111Q329 113 333 113L358 102L375 113L380 141Q380 145 386 145H429Q430 145 431.5 143.5Q433 142 433 141L437 113Q444 111 457 102L482 113Q489 113 489 111L510 75Q512 73 508 68L484 51V30ZM437 43Q437 55 427.5 65.0Q418 75 405.5 75.0Q393 75 383.0 65.0Q373 55 373.0 42.5Q373 30 383.0 20.5Q393 11 405.5 11.0Q418 11 427.5 20.5Q437 30 437 43Z" />
      </g>
    </svg>