<svg xmlns="http://www.w3.org/2000/svg" viewBox="43 -43 448 448">
      <g transform="scale(1 -1) translate(0 -362)">
        <path d="M181 277Q168 277 158.5 286.5Q149 296 149.0 309.5Q149 323 158.5 332.0Q168 341 181.5 341.0Q195 341 204.0 332.0Q213 323 213.0 309.5Q213 296 204.0 286.5Q195 277 181 277ZM352 192H320V85L397 39L413 65L352 101ZM491 107Q491 66 471.0 31.5Q451 -3 416.5 -23.0Q382 -43 341 -43Q304 -43 271.5 -25.5Q239 -8 218 22Q170 26 129.5 52.5Q89 79 66.0 121.5Q43 164 43 213Q43 265 68.5 309.5Q94 354 138.5 379.5Q183 405 235 405H240Q247 403 250 399Q256 393 256 384V341H277H283Q289 339 293 335Q299 329 299 320V299H341L347 298Q353 296 357 292Q363 287 363 277V256H405L412 255Q420 252 424 245Q426 236 426 230Q456 209 473.5 176.5Q491 144 491 107ZM195 70Q181 79 181 96Q181 110 193 120Q195 149 209 175Q201 179 196.5 186.5Q192 194 192 203Q192 216 201.5 225.5Q211 235 224.5 235.0Q238 235 248 223Q280 249 320 254V256H288Q275 256 265.5 265.5Q256 275 256 288V299H245Q232 299 222.5 308.0Q213 317 213 331V361Q164 354 128.5 318.0Q93 282 87 233Q90 243 98.5 249.5Q107 256 117 256Q131 256 140.0 246.5Q149 237 149.0 224.0Q149 211 140.0 201.5Q131 192 118.0 192.0Q105 192 95.5 200.5Q86 209 85 221Q85 200 87 189Q94 147 123.5 114.0Q153 81 195 70ZM448 107Q448 136 433.5 160.5Q419 185 394.5 199.0Q370 213 341.0 213.0Q312 213 287.5 199.0Q263 185 249.0 160.5Q235 136 235.0 107.0Q235 78 249.0 53.5Q263 29 287.5 14.5Q312 0 341.0 0.0Q370 0 394.5 14.5Q419 29 433.5 53.5Q448 78 448 107Z" />
      </g>
    </svg>