<svg xmlns="http://www.w3.org/2000/svg" viewBox="64 -21 405 405">
      <g transform="scale(1 -1) translate(0 -363)">
        <path d="M395 213Q423 213 448 197Q448 209 445 224Q442 231 434 233Q430 235 427 235H384V256Q384 269 373 275Q368 277 363 277H320V299Q320 312 309 317Q304 320 299 320H277V363Q277 376 267 381Q261 384 256 384Q204 384 160.0 358.0Q116 332 90.0 288.0Q64 244 64.0 192.0Q64 140 90.0 96.0Q116 52 160.0 26.0Q204 0 256 0Q270 0 277 1V85Q277 100 283.5 112.5Q290 125 300 134Q306 168 333.0 190.5Q360 213 395 213ZM139 171Q125 171 116.0 180.0Q107 189 107.0 202.5Q107 216 116.0 225.5Q125 235 138.5 235.0Q152 235 161.5 225.5Q171 216 171.0 202.5Q171 189 161.5 180.0Q152 171 139 171ZM171 288Q171 301 180.0 310.5Q189 320 202.5 320.0Q216 320 225.5 310.5Q235 301 235.0 288.0Q235 275 225.5 265.5Q216 256 202.5 256.0Q189 256 180.0 265.5Q171 275 171 288ZM235 43Q221 43 212.0 52.0Q203 61 203.0 74.5Q203 88 212.0 97.5Q221 107 234.5 107.0Q248 107 257.5 97.5Q267 88 267.0 74.5Q267 61 257.5 52.0Q248 43 235 43ZM245 149Q232 149 222.5 158.5Q213 168 213.0 181.5Q213 195 222.5 204.0Q232 213 245.5 213.0Q259 213 268.0 204.0Q277 195 277.0 181.5Q277 168 268.0 158.5Q259 149 245 149ZM448 107V117Q448 139 432.5 155.0Q417 171 395.0 171.0Q373 171 357.0 155.0Q341 139 341 117V107Q333 107 326.5 100.5Q320 94 320 85V0Q320 -9 326.5 -15.0Q333 -21 341 -21H448Q457 -21 463.0 -15.0Q469 -9 469 0V85Q469 94 463.0 100.5Q457 107 448 107ZM427 107H363V117Q363 131 372.0 140.0Q381 149 394.5 149.0Q408 149 417.5 140.0Q427 131 427 117Z" />
      </g>
    </svg>