<svg xmlns="http://www.w3.org/2000/svg" viewBox="24 -37 448 448">
      <g transform="scale(1 -1) translate(0 -374)">
        <path d="M197 319 159 357Q204 384 256 384L262 383Q268 382 272 378Q277 372 277 363V320H299L304 319Q311 318 314 314Q320 308 320 299V277H363H368Q375 275 378 271Q384 265 384 256V235H427L434 233Q442 231 445 224Q448 209 448 192Q448 140 421 95L383 133L384 139Q384 152 374.5 161.5Q365 171 352 171L347 170L234 283L235 288Q235 301 225.5 310.5Q216 320 203 320ZM472 -10 445 -37 370 38Q319 0 256 0Q204 0 160.0 26.0Q116 52 90.0 96.0Q64 140 64 192Q64 255 102 306L24 384L51 411ZM171 203Q171 216 161.5 225.5Q152 235 138.5 235.0Q125 235 116.0 225.5Q107 216 107.0 202.5Q107 189 116.0 180.0Q125 171 138.5 171.0Q152 171 161.5 180.0Q171 189 171 203ZM213 181Q213 168 222.5 158.5Q232 149 245 149Q251 149 256 151L215 192Q213 187 213 181ZM267 75Q267 88 257.5 97.5Q248 107 234.5 107.0Q221 107 212.0 97.5Q203 88 203.0 74.5Q203 61 212.0 52.0Q221 43 234.5 43.0Q248 43 257.5 52.0Q267 61 267 75Z" />
      </g>
    </svg>