<svg xmlns="http://www.w3.org/2000/svg" viewBox="0 -64 512 491">
      <g transform="scale(1 -1) translate(0 -363)">
        <path d="M245 427Q232 427 222.5 417.5Q213 408 213 395V139Q203 131 197.5 120.0Q192 109 192 96Q192 74 207.5 58.5Q223 43 245.0 43.0Q267 43 283.0 58.5Q299 74 299 96Q299 122 277 139V171H363V213H277V256H363V299H277V341H363V384H277V395Q277 408 268.0 417.5Q259 427 245 427ZM0 128V85Q9 85 13.0 83.0Q17 81 24 74L28 70Q55 43 85.5 43.0Q116 43 143 70L149 77V125Q131 119 113 100L110 97Q103 90 98.5 87.5Q94 85 85.5 85.0Q77 85 72.5 87.5Q68 90 61 97L58 100Q30 128 0 128ZM341 128V85Q350 85 354.5 83.0Q359 81 366 74L369 70Q396 43 426.5 43.0Q457 43 484 70L488 74Q495 81 499.0 83.0Q503 85 512 85V128Q482 128 454 100L451 97Q444 90 439.5 87.5Q435 85 426.5 85.0Q418 85 413.5 87.5Q409 90 402 97L399 100Q372 128 341 128ZM171 21Q140 21 113 -6L110 -10Q103 -17 98.5 -19.0Q94 -21 85.5 -21.0Q77 -21 72.5 -19.0Q68 -17 61 -10L58 -6Q40 12 21 18V-30L28 -36Q55 -64 85.5 -64.0Q116 -64 143 -36L146 -33Q153 -26 157.5 -23.5Q162 -21 170.5 -21.0Q179 -21 183.5 -23.5Q188 -26 195 -33L198 -36Q222 -60 245 -63Q249 -64 256 -64Q286 -64 314 -36L317 -33Q324 -26 328.5 -23.5Q333 -21 341.5 -21.0Q350 -21 354.5 -23.5Q359 -26 366 -33L369 -36Q396 -64 426.5 -64.0Q457 -64 484 -36L491 -30V18Q472 12 454 -6L451 -10Q444 -17 439.5 -19.0Q435 -21 426.5 -21.0Q418 -21 413.5 -19.0Q409 -17 402 -10L399 -6Q372 21 341.5 21.0Q311 21 284 -6L280 -10Q273 -17 269.0 -19.0Q265 -21 256 -21Q250 -21 245.0 -19.5Q240 -18 230 -8L228 -6Q201 21 171 21Z" />
      </g>
    </svg>