<svg xmlns="http://www.w3.org/2000/svg" viewBox="43 -12 426 408">
      <g transform="scale(1 -1) translate(0 -384)">
        <path d="M431 -12H361L366 47H332L327 -12H185L180 47H146L151 -12H81L43 240L140 396H372L469 240ZM353 318H291L295 289H217L221 318H159L120 240L140 85H372L392 240ZM319 137Q315 137 312.0 147.5Q309 158 309.0 173.0Q309 188 312.0 198.5Q315 209 319.0 209.0Q323 209 326.0 198.5Q329 188 329.0 173.0Q329 158 326.0 147.5Q323 137 319 137ZM197 134Q193 134 190.0 144.5Q187 155 187.0 170.0Q187 185 190.0 195.5Q193 206 197.0 206.0Q201 206 203.5 195.5Q206 185 206.0 170.0Q206 155 203.5 144.5Q201 134 197 134Z" />
      </g>
    </svg>