<svg xmlns="http://www.w3.org/2000/svg" viewBox="43 -21 426 426">
      <g transform="scale(1 -1) translate(0 -384)">
        <path d="M235 192H188Q213 176 235 156ZM149 213Q152 267 167.0 311.0Q182 355 205.0 380.0Q228 405 256.0 405.0Q284 405 307.5 379.5Q331 354 345.5 309.5Q360 265 363 211Q415 235 469 235Q431 218 406 177Q391 152 371 97Q356 57 347 39Q332 10 312 -4Q289 -21 257.0 -21.0Q225 -21 203 -5Q184 9 169 37Q161 55 146 94Q132 131 123 149Q109 179 92 199Q71 223 43 235Q96 235 149 213ZM235 213V256H176L171 213ZM235 277V320H193Q186 302 180 277ZM235 341V378Q218 367 203 341ZM256 384V341H277V320H256V277H299V256H256V213H320V192H256V149H299V128H261Q280 105 291.5 81.5Q303 58 305 38Q322 65 331.5 107.0Q341 149 341.0 198.0Q341 247 329.0 290.0Q317 333 297.5 358.5Q278 384 256 384Z" />
      </g>
    </svg>