<svg xmlns="http://www.w3.org/2000/svg" viewBox="23 -38 448 450">
      <g transform="scale(1 -1) translate(0 -374)">
        <path d="M471 -11 51 412 23 384 154 254Q149 228 149 213Q96 235 43 235Q82 217 109 175Q124 150 145 94Q160 55 169 37Q184 9 203 -5Q225 -21 256 -21Q293 -21 318 0Q338 17 354 53L446 -38ZM173 235 194 213H171ZM188 192H215L235 173V156Q205 181 188 192ZM305 38Q302 59 291 82Q279 107 260 128H279L324 83Q318 58 305 38ZM235 320V282L260 256H299V277H256V320H277V341H256V384Q278 384 297.0 358.5Q316 333 328.0 290.0Q340 247 341 196V175L384 132Q399 169 416 192Q438 221 469 235Q413 235 363 211Q361 266 346.5 310.5Q332 355 308.0 380.0Q284 405 256 405Q233 405 212.5 387.5Q192 370 177 339L196 320ZM235 378V341H203Q220 369 235 378ZM320 196 303 213H320Z" />
      </g>
    </svg>