<svg xmlns="http://www.w3.org/2000/svg" viewBox="43 -21 426 426">
      <g transform="scale(1 -1) translate(0 -384)">
        <path d="M469 405V363Q445 363 421 306Q407 272 384 190L383 186Q363 115 352 85Q334 34 313 9Q288 -21 256.0 -21.0Q224 -21 199 9Q178 34 160 85Q149 115 129 186L128 190Q105 272 91 306Q67 363 43 363V405Q75 405 100 375Q121 350 139 299Q150 269 170 198L171 194Q194 112 208 78Q232 21 256.0 21.0Q280 21 304 78Q318 112 341 194L342 198Q362 269 373 299Q391 350 412 375Q437 405 469 405Z" />
      </g>
    </svg>