<svg xmlns="http://www.w3.org/2000/svg" viewBox="43 21 426 342">
      <g transform="scale(1 -1) translate(0 -384)">
        <path d="M469 235H384V299Q384 325 365.5 344.0Q347 363 320.0 363.0Q293 363 274.5 344.0Q256 325 256 299H299Q299 307 305.0 313.5Q311 320 320.0 320.0Q329 320 335.0 313.5Q341 307 341 299V235H171Q188 235 200.5 247.5Q213 260 213 277V363H85V277Q85 260 97.5 247.5Q110 235 128 235H43V192H85V21H427V192H469ZM128 320H171V277H128ZM128 64V192H235V64ZM384 64H277V192H384Z" />
      </g>
    </svg>