<svg xmlns="http://www.w3.org/2000/svg" viewBox="23 -38 448 450">
      <g transform="scale(1 -1) translate(0 -374)">
        <path d="M471 -11 51 412 23 384 147 260 145 256Q132 272 111 279Q93 285 71 282Q47 279 42.5 267.0Q38 255 56.0 239.0Q74 223 92.0 219.5Q110 216 128 220V192Q128 172 135.0 152.0Q142 132 154 115Q128 90 128 64Q128 41 145.5 21.5Q163 2 192.0 -9.5Q221 -21 256 -21Q296 -21 328.5 -6.5Q361 8 375 32L446 -38ZM201 209Q192 203 192.0 192.5Q192 182 198.0 176.5Q204 171 214.5 171.0Q225 171 230 179L260 149H258Q221 149 192 137Q171 158 171 192Q171 214 179 228ZM341 64Q341 46 316.0 33.5Q291 21 256.0 21.0Q221 21 196.0 33.5Q171 46 171.0 64.0Q171 82 196.0 94.5Q221 107 256 107Q287 107 311 96L341 66ZM207 309 166 350Q185 375 213 384L211 382Q203 368 200 354Q196 330 207 309ZM241 275 207 309Q232 320 256.0 320.0Q280 320 305 309Q321 340 302 378L299 384Q328 374 344 351Q358 333 360 308Q361 287 354 273L367 256Q380 272 401 279Q419 285 441 282Q465 279 469.5 267.0Q474 255 456.0 239.0Q438 223 420.0 219.5Q402 216 384 220V192Q384 168 373 143L339 177Q339 179 340.0 184.5Q341 190 341 192Q341 227 316.0 252.0Q291 277 256 277Q245 277 241 275ZM299 53Q299 49 296.0 46.0Q293 43 288.0 43.0Q283 43 280.0 46.0Q277 49 277.0 53.5Q277 58 280.0 61.0Q283 64 288.0 64.0Q293 64 296.0 61.0Q299 58 299 53ZM235 53Q235 49 232.0 46.0Q229 43 224.0 43.0Q219 43 216.0 46.0Q213 49 213.0 53.5Q213 58 216.0 61.0Q219 64 224.0 64.0Q229 64 232.0 61.0Q235 58 235 53Z" />
      </g>
    </svg>