<svg xmlns="http://www.w3.org/2000/svg" viewBox="43 -21 424 405">
      <g transform="scale(1 -1) translate(0 -363)">
        <path d="M224 64Q228 64 231.5 61.0Q235 58 235.0 53.5Q235 49 231.5 46.0Q228 43 224.0 43.0Q220 43 216.5 46.0Q213 49 213.0 53.5Q213 58 216.5 61.0Q220 64 224 64ZM288 64Q292 64 295.5 61.0Q299 58 299.0 53.5Q299 49 295.5 46.0Q292 43 288.0 43.0Q284 43 280.5 46.0Q277 49 277.0 53.5Q277 58 280.5 61.0Q284 64 288 64ZM213 213Q222 213 228.5 207.0Q235 201 235.0 192.0Q235 183 228.5 177.0Q222 171 213.0 171.0Q204 171 198.0 177.0Q192 183 192.0 192.0Q192 201 198.0 207.0Q204 213 213 213ZM299 213Q308 213 314.0 207.0Q320 201 320.0 192.0Q320 183 314.0 177.0Q308 171 299.0 171.0Q290 171 283.5 177.0Q277 183 277.0 192.0Q277 201 283.5 207.0Q290 213 299 213ZM384 64Q384 41 367.0 21.5Q350 2 320.5 -9.5Q291 -21 256.0 -21.0Q221 -21 191.5 -9.5Q162 2 145.0 21.5Q128 41 128 64Q128 92 154 115Q128 149 128 192L131 218Q112 213 94.0 218.0Q76 223 58.5 238.5Q41 254 44.5 266.0Q48 278 70.5 281.5Q93 285 112 279Q121 277 130.5 270.5Q140 264 145 257L158 274Q150 287 152 308Q154 332 168 351Q184 374 213 384L211 381Q204 369 201 354Q196 331 206 310Q230 320 256.0 320.0Q282 320 306 310Q316 331 311 354Q308 369 301 381L299 384Q328 374 344 351Q358 332 360 308Q362 287 354 274L367 257Q372 264 381.5 270.5Q391 277 400 279Q419 285 441.5 281.5Q464 278 467.5 266.0Q471 254 453.5 238.5Q436 223 418.0 218.0Q400 213 381 218L384 192Q384 149 358 115Q384 92 384 64ZM256 107Q221 107 196.0 94.5Q171 82 171.0 64.0Q171 46 196.0 33.5Q221 21 256.0 21.0Q291 21 316.0 33.5Q341 46 341.0 64.0Q341 82 316.0 94.5Q291 107 256 107ZM256 149Q291 149 321 137Q341 161 341 192Q341 227 316.0 252.0Q291 277 256.0 277.0Q221 277 196.0 252.0Q171 227 171 192Q171 161 191 137Q221 149 256 149ZM301 381Z" />
      </g>
    </svg>