<svg xmlns="http://www.w3.org/2000/svg" viewBox="64 0 384 384">
      <g transform="scale(1 -1) translate(0 -384)">
        <path d="M192 384V341H149Q132 341 119.5 328.5Q107 316 107 299V256H64V213H107V171H64V128H107V85Q107 68 119.5 55.5Q132 43 149 43H192V0H235V43H277V0H320V43H363Q380 43 392.5 55.5Q405 68 405 85V128H448V171H405V213H448V256H405V299Q405 316 392.5 328.5Q380 341 363 341H320V384H277V341H235V384ZM171 256H245V224H181V208H224Q233 208 239.0 202.0Q245 196 245 187V149Q245 140 239.0 134.0Q233 128 224 128H171Q162 128 155.5 134.0Q149 140 149 149V235Q149 244 155.5 250.0Q162 256 171 256ZM267 256H299V213H331V256H363V128H331V181H267ZM181 176V160H213V176Z" />
      </g>
    </svg>