<svg xmlns="http://www.w3.org/2000/svg" viewBox="85 -21 344 384">
      <g transform="scale(1 -1) translate(0 -342)">
        <path d="M384 256H256V363H171Q135 363 110.0 338.0Q85 313 85 277V149Q85 132 97.5 119.5Q110 107 128 107H171V45Q145 62 134 73L105 43Q134 12 173.0 -4.5Q212 -21 256.0 -21.0Q300 -21 339.0 -5.0Q378 11 407 41L378 70Q363 55 343 43V107H386Q404 107 416.5 119.5Q429 132 429 149V213Q427 231 414.0 243.5Q401 256 384 256ZM299 26Q286 21 256 21Q239 21 213 26V107H299Z" />
      </g>
    </svg>