<svg xmlns="http://www.w3.org/2000/svg" viewBox="43 0 384 384">
      <g transform="scale(1 -1) translate(0 -384)">
        <path d="M427 320V341Q427 350 420.5 356.5Q414 363 405 363H192V384H128V363H107V320H128V128H107V171H64V128H43V85H64V0H107V85H213V0H256V85H277V128H256V171H213V128H192V320H363V221Q355 219 350.0 212.0Q345 205 345 197Q345 182 358 175V149H372Q377 149 381.0 145.5Q385 142 385.0 136.5Q385 131 381.0 127.0Q377 123 370.5 123.0Q364 123 360.5 128.5Q357 134 352.0 135.5Q347 137 342.5 134.5Q338 132 336.5 126.5Q335 121 337 116Q343 107 352.0 102.0Q361 97 372 97Q388 97 399.5 108.5Q411 120 411 136Q411 149 403.5 159.0Q396 169 385 173V175Q398 182 398.0 197.0Q398 212 384 220V320ZM171 157 149 135V166L171 187ZM171 220 149 198V228L171 250ZM149 262V292L171 314V284Z" />
      </g>
    </svg>