<svg xmlns="http://www.w3.org/2000/svg" viewBox="43 -21 426 426">
      <g transform="scale(1 -1) translate(0 -384)">
        <path d="M254 227 225 212Q221 222 214.0 226.0Q207 230 202 230Q173 230 173 192Q173 175 180.0 164.5Q187 154 202 154Q220 154 228 173L254 159Q246 144 231.0 135.0Q216 126 198 126Q169 126 151.5 143.5Q134 161 134.0 191.5Q134 222 152.0 240.0Q170 258 197 258Q237 258 254 227ZM377 227 349 212Q344 221 337.5 225.5Q331 230 324 230Q296 230 296 192Q296 176 303.5 165.0Q311 154 324 154Q343 154 351 173L378 159Q369 144 354.0 135.0Q339 126 321 126Q292 126 275.0 143.5Q258 161 258.0 191.5Q258 222 275.5 240.0Q293 258 320 258Q360 258 377 227ZM256 373Q292 373 325.5 359.5Q359 346 384.5 320.5Q410 295 423.5 261.5Q437 228 437.0 192.0Q437 156 423.5 122.5Q410 89 384.5 63.5Q359 38 325.5 24.5Q292 11 256.0 11.0Q220 11 186.5 24.5Q153 38 127.5 63.5Q102 89 88.5 122.5Q75 156 75.0 192.0Q75 228 88.5 261.5Q102 295 127.5 320.5Q153 346 186.5 359.5Q220 373 256 373ZM256 405Q214 405 174.5 389.0Q135 373 105.0 343.0Q75 313 59.0 273.5Q43 234 43.0 192.0Q43 150 59.0 110.5Q75 71 105.0 41.0Q135 11 174.5 -5.0Q214 -21 256.0 -21.0Q298 -21 337.5 -5.0Q377 11 407.0 41.0Q437 71 453.0 110.5Q469 150 469.0 192.0Q469 234 453.0 273.5Q437 313 407.0 343.0Q377 373 337.5 389.0Q298 405 256 405Z" />
      </g>
    </svg>