<svg xmlns="http://www.w3.org/2000/svg" viewBox="43 -32 426 395">
      <g transform="scale(1 -1) translate(0 -331)">
        <path d="M427 363H85Q68 363 55.5 350.5Q43 338 43 320V64Q43 46 55.5 33.5Q68 21 85 21H249Q245 39 245 53Q245 60 246 64H85V192H427V185Q450 178 469 162V320Q469 338 456.5 350.5Q444 363 427 363ZM427 277H85V320H427ZM444 114 469 139V53H384L422 91Q406 107 384.0 107.0Q362 107 346.5 91.0Q331 75 331.0 53.0Q331 31 346.5 15.5Q362 0 384 0Q397 0 408.0 5.5Q419 11 427 21H463Q454 -3 432.5 -17.5Q411 -32 384 -32Q349 -32 324.0 -7.0Q299 18 299.0 53.5Q299 89 324.0 114.0Q349 139 384.0 139.0Q419 139 444 114Z" />
      </g>
    </svg>