<svg xmlns="http://www.w3.org/2000/svg" viewBox="0 64 491 256">
      <g transform="scale(1 -1) translate(0 -384)">
        <path d="M64 277Q55 277 49.0 283.5Q43 290 43.0 298.5Q43 307 49.0 313.5Q55 320 64 320H118Q107 300 107 277ZM107 171H43Q34 171 27.5 177.0Q21 183 21.0 192.0Q21 201 27.5 207.0Q34 213 43 213H107ZM21 64Q13 64 6.5 70.5Q0 77 0.0 85.5Q0 94 6.5 100.5Q13 107 21 107H107Q107 84 118 64ZM448 320H192Q174 320 161.5 307.5Q149 295 149 277V107Q149 89 161.5 76.5Q174 64 192 64H448Q466 64 478.5 76.5Q491 89 491 107V277Q491 295 478.5 307.5Q466 320 448 320ZM448 192H192V256H448Z" />
      </g>
    </svg>