<svg xmlns="http://www.w3.org/2000/svg" viewBox="43 -30 456 393">
      <g transform="scale(1 -1) translate(0 -333)">
        <path d="M252 213Q227 187 218.0 152.0Q209 117 218.0 82.5Q227 48 252 21H85Q68 21 55.5 33.5Q43 46 43 64V320Q43 338 55.5 350.5Q68 363 85 363H427Q444 363 456.5 350.5Q469 338 469 320V191Q460 205 449.5 216.0Q439 227 427 234V277H85V213ZM499 0 469 -30 403 36Q379 21 352 21Q312 21 284.0 49.0Q256 77 256.0 117.0Q256 157 284.0 185.0Q312 213 352.0 213.0Q392 213 420.0 185.0Q448 157 448 117Q448 89 433 66ZM405 117Q405 139 389.5 155.0Q374 171 352.0 171.0Q330 171 314.5 155.0Q299 139 299.0 117.0Q299 95 314.5 79.5Q330 64 352.0 64.0Q374 64 389.5 79.5Q405 95 405 117Z" />
      </g>
    </svg>