<svg xmlns="http://www.w3.org/2000/svg" viewBox="43 0 448 363">
      <g transform="scale(1 -1) translate(0 -363)">
        <path d="M465 128V160Q465 182 446.5 197.5Q428 213 405.0 213.0Q382 213 364.0 197.5Q346 182 346 160V128Q336 128 328.0 120.0Q320 112 320 102V28Q320 17 328.0 8.5Q336 0 346 0H463Q474 0 482.5 8.0Q491 16 491 26V100Q491 111 483.0 119.5Q475 128 465 128ZM437 128H373V160Q373 172 382.5 180.0Q392 188 405.5 188.0Q419 188 428.0 180.0Q437 172 437 160ZM278 21H85Q68 21 55.5 33.5Q43 46 43 64V320Q43 338 55.5 350.5Q68 363 85 363H427Q444 363 456.5 350.5Q469 338 469 320V234Q449 249 427 254V277H85V213H321Q303 189 303 160V155Q291 145 284.0 131.0Q277 117 277 102V28Q277 23 278 21Z" />
      </g>
    </svg>