<svg xmlns="http://www.w3.org/2000/svg" viewBox="43 -43 448 406">
      <g transform="scale(1 -1) translate(0 -320)">
        <path d="M277 75Q277 47 288 21H85Q68 21 55.5 33.5Q43 46 43 64V320Q43 338 55.5 350.5Q68 363 85 363H427Q444 363 456.5 350.5Q469 338 469 320V203Q444 213 416 213H427V277H85V213H416Q378 213 346.5 194.5Q315 176 296.0 144.0Q277 112 277 75ZM405 21Q383 21 367.5 37.0Q352 53 352 75Q352 87 358 99L334 122Q320 100 320 75Q320 39 345.0 14.0Q370 -11 405 -11V-43L453 5L405 53ZM405 160V192L357 144L405 96V128Q427 128 443.0 112.5Q459 97 459 75Q459 62 453 51L476 28Q491 49 491 75Q491 110 466.0 135.0Q441 160 405 160Z" />
      </g>
    </svg>