<svg xmlns="http://www.w3.org/2000/svg" viewBox="0 -21 512 426">
      <g transform="scale(1 -1) translate(0 -384)">
        <path d="M43 363H128V405H43Q25 405 12.5 392.5Q0 380 0 363V277H43ZM469 405H384V363H469V277H512V363Q512 380 499.5 392.5Q487 405 469 405ZM43 107H0V21Q0 4 12.5 -8.5Q25 -21 43 -21H128V21H43ZM469 21H384V-21H469Q487 -21 499.5 -8.5Q512 4 512 21V107H469ZM85 277V107Q85 89 97.5 76.5Q110 64 128 64H384Q402 64 414.5 76.5Q427 89 427 107V277Q427 295 414.5 307.5Q402 320 384 320H128Q110 320 97.5 307.5Q85 295 85 277ZM128 107V192H384V107ZM384 277V235H128V277Z" />
      </g>
    </svg>