<svg xmlns="http://www.w3.org/2000/svg" viewBox="42 -21 427 426">
      <g transform="scale(1 -1) translate(0 -384)">
        <path d="M306 69 336 99 427 9 396 -21ZM395 405Q426 405 447.5 383.5Q469 362 469.0 331.0Q469 300 447.5 278.0Q426 256 395.0 256.0Q364 256 342.0 278.0Q320 300 320.0 331.0Q320 362 342.0 383.5Q364 405 395 405ZM48 296 108 357Q114 363 123.0 363.0Q132 363 139 357L319 176Q326 169 326.0 160.5Q326 152 319 145L259 85Q253 79 244.0 79.0Q235 79 229 85L48 266Q42 272 42.0 281.0Q42 290 48 296Z" />
      </g>
    </svg>