<svg xmlns="http://www.w3.org/2000/svg" viewBox="0 -64 512 512">
      <g transform="scale(1 -1) translate(0 -384)">
        <path d="M159 -11Q106 15 72.0 63.0Q38 111 32 171H0Q5 106 40.5 52.0Q76 -2 132.5 -33.0Q189 -64 255 -64Q264 -64 269 -63L188 18ZM257 448Q248 448 243 447L324 366L353 395Q406 369 440.0 321.0Q474 273 480 213H512Q507 278 471.5 332.0Q436 386 379.5 417.0Q323 448 257 448ZM341 149H384V277Q384 295 371.5 307.5Q359 320 341 320H213V277H341ZM171 107V363H128V320H85V277H128V107Q128 89 140.5 76.5Q153 64 171 64H341V21H384V64H427V107Z" />
      </g>
    </svg>