<svg xmlns="http://www.w3.org/2000/svg" viewBox="21 -43 470 470">
      <g transform="scale(1 -1) translate(0 -384)">
        <path d="M65 171H21V213H65Q70 257 93.5 294.0Q117 331 154.0 354.5Q191 378 235 383V427H277V383Q321 378 358.0 354.5Q395 331 418.5 294.0Q442 257 447 213H491V171H447Q442 127 418.5 90.0Q395 53 358.0 29.5Q321 6 277 1V-43H235V1Q191 6 154.0 29.5Q117 53 93.5 90.0Q70 127 65 171ZM256 341Q215 341 181.0 321.0Q147 301 127.0 267.0Q107 233 107.0 192.0Q107 151 127.0 117.0Q147 83 181.0 63.0Q215 43 256.0 43.0Q297 43 331.0 63.0Q365 83 385.0 117.0Q405 151 405.0 192.0Q405 233 385.0 267.0Q365 301 331.0 321.0Q297 341 256 341Z" />
      </g>
    </svg>