<svg xmlns="http://www.w3.org/2000/svg" viewBox="21 -43 470 470">
      <g transform="scale(1 -1) translate(0 -384)">
        <path d="M447 213Q442 257 418.5 294.0Q395 331 358.0 354.5Q321 378 277 383V427H235V383Q198 379 167 362L199 330Q227 341 256 341Q297 341 331.0 321.0Q365 301 385.0 267.0Q405 233 405 192Q405 163 395 135L427 103Q443 134 447 171H491V213ZM64 357 108 313Q71 269 65 213H21V171H65Q70 127 93.5 90.0Q117 53 154.0 29.5Q191 6 235 1V-43H277V1Q333 8 377 44L421 0L448 27L91 384ZM347 74Q307 43 256 43Q215 43 181.0 63.0Q147 83 127.0 117.0Q107 151 107 192Q107 243 138 283Z" />
      </g>
    </svg>