<svg xmlns="http://www.w3.org/2000/svg" viewBox="43 -21 426 426">
      <g transform="scale(1 -1) translate(0 -384)">
        <path d="M469 299 459 309H458Q425 277 409 264Q383 242 361 231Q342 221 323 218Q311 215 285 214L277 213L278 221Q279 247 282 259Q285 278 295 297Q306 319 328 345Q341 361 373 394V395L363 405Q309 366 256.0 366.0Q203 366 149 405L139 395V394Q171 361 184 345Q206 319 217 297Q227 278 230 259Q233 247 234 221L235 213L227 214Q201 215 189 218Q170 221 151 231Q129 242 102 264Q86 278 53 309L43 299Q82 245 82.0 192.0Q82 139 43 85L53 75H54Q87 107 103 120Q129 142 151 153Q170 163 189 166Q201 169 227 170L235 171L234 163Q233 137 230 125Q227 106 217 87Q206 65 184 39Q171 23 139 -10V-11L149 -21Q203 18 256.0 18.0Q309 18 363 -21L373 -11V-10Q341 23 328 39Q306 65 295 87Q285 106 282 125Q279 137 278 163L277 171L285 170Q311 169 323 166Q342 163 361 153Q383 142 409 120Q425 107 458 75H459L469 85Q430 139 430.0 192.0Q430 245 469 299Z" />
      </g>
    </svg>