<svg xmlns="http://www.w3.org/2000/svg" viewBox="42 21 426 342">
      <g transform="scale(1 -1) translate(0 -384)">
        <path d="M79 253Q73 259 65 259Q52 259 45.5 246.5Q39 234 49 223Q87 189 97 175Q110 158 110 123Q110 82 142 60Q160 46 181 39V122Q181 152 161 172ZM351 171Q331 151 331 122V38Q361 49 382.0 71.5Q403 94 403 123Q403 159 415 175Q418 181 426.0 188.5Q434 196 442 204L456 217L463 223Q469 229 469.0 238.0Q469 247 463.0 253.0Q457 259 448.0 259.0Q439 259 433 253ZM256 21Q279 21 299 27V103Q299 122 286.0 135.5Q273 149 256.0 149.0Q239 149 226.0 136.0Q213 123 213 105V27Q233 21 256 21ZM192 267Q192 253 182.5 244.0Q173 235 160.0 235.0Q147 235 137.5 244.0Q128 253 128.0 266.5Q128 280 137.5 289.5Q147 299 160.0 299.0Q173 299 182.5 289.5Q192 280 192 267ZM384 267Q384 253 374.5 244.0Q365 235 352.0 235.0Q339 235 329.5 244.0Q320 253 320.0 266.5Q320 280 329.5 289.5Q339 299 352.0 299.0Q365 299 374.5 289.5Q384 280 384 267ZM288 331Q288 317 278.5 308.0Q269 299 256.0 299.0Q243 299 233.5 308.0Q224 317 224.0 330.5Q224 344 233.5 353.5Q243 363 256.0 363.0Q269 363 278.5 353.5Q288 344 288 331ZM288 213Q288 200 278.5 190.5Q269 181 256.0 181.0Q243 181 233.5 190.5Q224 200 224.0 213.5Q224 227 233.5 236.0Q243 245 256.0 245.0Q269 245 278.5 236.0Q288 227 288 213Z" />
      </g>
    </svg>