<svg xmlns="http://www.w3.org/2000/svg" viewBox="22 88 469 208">
      <g transform="scale(1 -1) translate(0 -384)">
        <path d="M491 183ZM491 181Q491 175 477 161Q461 144 438 129Q410 111 380 102Q337 87 290 89Q238 91 207 113Q170 138 170 186Q170 221 195.0 246.5Q220 272 256.0 272.0Q292 272 317.0 246.5Q342 221 342 185Q342 168 335.5 152.0Q329 136 317 124Q338 124 361 131Q400 142 431 168Q439 175 441 180L442 181Q442 182 442 183Q442 188 432 202Q419 219 400 235Q376 256 347 270Q311 288 271 296Q320 294 364 279Q402 266 433 246Q459 229 476 210Q491 193 491 183ZM256 235Q236 235 221.5 220.5Q207 206 207.0 185.5Q207 165 221.5 151.0Q236 137 256.0 137.0Q276 137 290.5 151.0Q305 165 305.0 185.5Q305 206 290.5 220.5Q276 235 256 235ZM71 185Q71 184 71 183Q72 174 84 160Q101 141 129 124Q167 102 219 88Q158 93 109 113Q70 130 44 153Q23 172 22 183V185Q22 192 37 208Q54 226 80 243Q111 264 146 277Q189 292 233 295Q198 287 165 270Q137 255 114 235Q95 219 82 203Q71 189 71 185Z" />
      </g>
    </svg>