<svg xmlns="http://www.w3.org/2000/svg" viewBox="85 -21 352 416">
      <g transform="scale(1 -1) translate(0 -374)">
        <path d="M200 269 245 249 291 269 270 224 291 179 245 199 200 179 221 224ZM352 395 375 333 437 309 375 286 352 224 329 286 267 309 329 333ZM128 43H149V64Q149 73 155.5 79.0Q162 85 171 85H176Q139 106 117.5 143.0Q96 180 96.0 223.5Q96 267 117.5 304.0Q139 341 176.0 362.5Q213 384 256 384Q289 384 319 371L311 350L281 339Q269 341 256 341Q233 341 211.5 332.0Q190 323 173.5 306.5Q157 290 148.0 268.5Q139 247 139 224Q139 192 154.5 165.0Q170 138 197.0 122.5Q224 107 255.5 107.0Q287 107 313.0 121.5Q339 136 355.0 161.0Q371 186 373 216L393 269L408 274Q416 250 416 224Q416 180 394.5 143.0Q373 106 336 85H341Q350 85 356.5 79.0Q363 73 363 64V43H384Q402 43 414.5 30.5Q427 18 427 0V-21H85V0Q85 18 97.5 30.5Q110 43 128 43Z" />
      </g>
    </svg>