<svg xmlns="http://www.w3.org/2000/svg" viewBox="43 -21 426 426">
      <g transform="scale(1 -1) translate(0 -384)">
        <path d="M363 -21V21H427V85H469V11Q469 -2 459.5 -11.5Q450 -21 437 -21ZM149 -21H75Q62 -21 52.5 -11.5Q43 -2 43 11V85H85V21H149ZM363 405H437Q450 405 459.5 395.5Q469 386 469 373V299H427V363H363ZM149 405V363H85V299H43V373Q43 386 52.5 395.5Q62 405 75 405ZM277 80 363 129V227L277 178ZM256 215 341 264 256 314 171 264ZM149 129 235 80V178L149 227ZM389 286Q405 276 405 258V123Q405 105 389 95L272 27Q256 17 240 27L123 95Q107 105 107 123V258Q107 276 123 286L240 354Q248 358 256.0 358.0Q264 358 272 354Z" />
      </g>
    </svg>