<svg xmlns="http://www.w3.org/2000/svg" viewBox="42 -21 428 437">
      <g transform="scale(1 -1) translate(0 -395)">
        <path d="M256 416Q278 416 293.5 400.5Q309 385 309.0 363.0Q309 341 293.5 325.0Q278 309 256.0 309.0Q234 309 218.5 325.0Q203 341 203.0 363.0Q203 385 218.5 400.5Q234 416 256 416ZM339 341Q361 341 381.5 329.0Q402 317 414.5 297.0Q427 277 427 256Q447 256 458.5 243.5Q470 231 470.0 213.5Q470 196 458.5 183.5Q447 171 427 171H85Q65 171 53.5 183.5Q42 196 42.0 213.5Q42 231 53.5 243.5Q65 256 85 256Q85 277 97.5 297.0Q110 317 130.5 329.0Q151 341 173 341Q181 313 203.5 295.0Q226 277 256.0 277.0Q286 277 308.5 295.0Q331 313 339 341ZM107 128H171L192 -21H149ZM213 128H299L277 -21H235ZM341 128H405L363 -21H320Z" />
      </g>
    </svg>