<svg xmlns="http://www.w3.org/2000/svg" viewBox="43 0 405 384">
      <g transform="scale(1 -1) translate(0 -384)">
        <path d="M320 53Q281 53 248.0 73.5Q215 94 197 128H320L341 171H183Q181 182 181.0 192.0Q181 202 183 213H320L341 256H197Q215 290 248.0 310.5Q281 331 320 331Q371 331 410 297L448 335Q422 358 389.0 371.0Q356 384 320 384Q258 384 208.5 348.5Q159 313 139 256H64L43 213H129Q128 206 128.0 192.0Q128 178 129 171H64L43 128H139Q159 71 208.5 35.5Q258 0 320 0Q356 0 389.0 13.0Q422 26 448 49L410 87Q371 53 320 53Z" />
      </g>
    </svg>