<svg xmlns="http://www.w3.org/2000/svg" viewBox="128 0 256 384">
      <g transform="scale(1 -1) translate(0 -384)">
        <path d="M311 213H384V256H348Q363 279 363 299Q363 339 329 362Q299 384 256 384Q225 384 189 362Q171 350 156 335L186 305Q198 317 214 327Q238 341 256 341Q279 341 296 333Q320 321 320 299Q320 283 294 256H128V213H248Q219 188 201 171H128V128H164Q149 105 149 85Q149 45 183 22Q213 0 256 0Q287 0 323 22Q341 34 356 49L326 79Q315 68 298 57Q274 43 256 43Q233 43 216 51Q192 63 192 85Q192 101 218 128H384V171H264Z" />
      </g>
    </svg>