<svg xmlns="http://www.w3.org/2000/svg" viewBox="128 0 277 384">
      <g transform="scale(1 -1) translate(0 -384)">
        <path d="M364 201Q384 225 384.0 255.5Q384 286 366.0 308.5Q348 331 320 339V384H277V341H235V384H192V341H128V299H171V85H128V43H192V0H235V43H277V0H320V43Q355 43 380.0 68.0Q405 93 405 128Q405 151 394.0 170.5Q383 190 364 201ZM213 299H299Q316 299 328.5 286.5Q341 274 341.0 256.0Q341 238 328.5 225.5Q316 213 299 213H213ZM320 85H213V171H320Q338 171 350.5 158.5Q363 146 363.0 128.0Q363 110 350.5 97.5Q338 85 320 85Z" />
      </g>
    </svg>