<svg xmlns="http://www.w3.org/2000/svg" viewBox="149 0 214 384">
      <g transform="scale(1 -1) translate(0 -384)">
        <path d="M149 128H192Q192 111 211.0 98.0Q230 85 256.0 85.0Q282 85 301.0 98.0Q320 111 320.0 128.0Q320 145 303 154Q289 162 251 171Q219 179 204 185Q179 195 166 210Q149 229 149.0 256.5Q149 284 170.0 306.5Q191 329 224 337V384H288V337Q321 329 342.0 306.5Q363 284 363 256H320Q320 273 301.0 286.0Q282 299 256.0 299.0Q230 299 211.0 286.0Q192 273 192.0 256.0Q192 239 209 230Q223 222 261 213Q293 205 308 199Q333 189 346 174Q363 155 363.0 127.5Q363 100 342.0 77.5Q321 55 288 47V0H224V47Q191 55 170.0 77.5Q149 100 149 128Z" />
      </g>
    </svg>