<svg xmlns="http://www.w3.org/2000/svg" viewBox="24 -37 448 448">
      <g transform="scale(1 -1) translate(0 -374)">
        <path d="M472 -10 51 411 24 384 143 265 139 256H64L43 213H129Q128 206 128.0 192.0Q128 178 129 171H64L43 128H139Q159 71 208.5 35.5Q258 0 320 0Q357 0 393 15L445 -37ZM183 171Q181 182 181.0 192.0Q181 202 183 213H194L237 171ZM320 53Q281 53 248.0 73.5Q215 94 197 128H280L351 57Q334 53 320 53ZM260 256H341L320 213H303ZM224 292 186 330Q213 355 247.5 369.5Q282 384 319.0 384.0Q356 384 389.0 371.0Q422 358 448 335L410 297Q371 331 320 331Q293 331 268.5 320.5Q244 310 224 292Z" />
      </g>
    </svg>