<svg xmlns="http://www.w3.org/2000/svg" viewBox="109 0 277 383">
      <g transform="scale(1 -1) translate(0 -383)">
        <path d="M386 224V256H205V352Q205 365 195.5 374.5Q186 384 172.5 384.0Q159 384 150.0 374.5Q141 365 141.0 352.0Q141 339 150.0 329.5Q159 320 173 320V256H109V224H173V92Q173 54 199.5 27.0Q226 0 263.5 0.5Q301 1 327.0 27.5Q353 54 352 92Q352 117 340.5 140.0Q329 163 309 179Q302 185 294.5 188.5Q287 192 279 192Q268 192 258.5 186.0Q249 180 243.0 170.5Q237 161 237 149Q237 132 249.5 119.5Q262 107 280 107Q300 107 313 124Q320 109 320 92Q321 68 304.5 50.5Q288 33 263.5 32.5Q239 32 221.5 49.5Q204 67 205 92V224Z" />
      </g>
    </svg>