<svg xmlns="http://www.w3.org/2000/svg" viewBox="64 0 384 384">
      <g transform="scale(1 -1) translate(0 -384)">
        <path d="M64 357 91 384 448 27 421 0 343 78Q321 55 288 47V0H224V47Q191 55 170.0 77.5Q149 100 149 128H192Q192 111 211.0 98.0Q230 85 256 85Q274 85 289.0 91.5Q304 98 313 108L249 172Q218 179 203 186Q178 196 165 211Q149 229 149 256Q149 266 151 270ZM224 337V384H288V337Q321 329 342.0 306.5Q363 284 363 256H320Q320 273 301.0 286.0Q282 299 256 299Q245 299 234 296L201 329Z" />
      </g>
    </svg>