<svg xmlns="http://www.w3.org/2000/svg" viewBox="64 0 384 384">
      <g transform="scale(1 -1) translate(0 -384)">
        <path d="M94 384 64 354 121 297Q85 250 85.0 191.5Q85 133 121 87L64 30L94 0L151 57Q198 21 256.5 21.0Q315 21 361 57L418 0L448 30L391 87Q427 134 427.0 192.5Q427 251 391 297L448 354L418 384L361 327Q314 363 255.5 363.0Q197 363 151 327ZM256 320Q291 320 320.5 303.0Q350 286 367.0 256.5Q384 227 384.0 192.0Q384 157 367.0 127.5Q350 98 320.5 81.0Q291 64 256.0 64.0Q221 64 191.5 81.0Q162 98 145.0 127.5Q128 157 128.0 192.0Q128 227 145.0 256.5Q162 286 191.5 303.0Q221 320 256 320Z" />
      </g>
    </svg>