<svg xmlns="http://www.w3.org/2000/svg" viewBox="128 0 256 395">
      <g transform="scale(1 -1) translate(0 -395)">
        <path d="M299 0Q330 0 354.0 17.5Q378 35 384 64L347 83Q337 43 299 43H194Q226 81 226 128Q226 140 224 149H299V192H209Q204 202 192.5 219.5Q181 237 177 247Q171 261 171 277Q171 308 192.5 330.0Q214 352 245 352Q269 352 288.0 338.5Q307 325 315 303L355 320Q342 353 312.0 374.0Q282 395 245 395Q213 395 186.5 379.0Q160 363 144.0 336.0Q128 309 128 277Q128 253 137 231Q143 218 158 196L160 192H128V149H181Q183 139 183 128Q183 108 175 90Q168 76 156 64Q147 55 137 48L128 43V0Z" />
      </g>
    </svg>