<svg xmlns="http://www.w3.org/2000/svg" viewBox="43 21 426 342">
      <g transform="scale(1 -1) translate(0 -384)">
        <path d="M235 85H277V43H235ZM299 85H341V43H299ZM192 363H235V128Q235 93 210.0 68.0Q185 43 149 43H107Q80 43 61.5 61.5Q43 80 43 107V192H85V107Q85 98 91.5 91.5Q98 85 107 85H149Q167 85 179.5 97.5Q192 110 192 128ZM256 363H299V171H363V277H405V171Q405 153 392.5 140.5Q380 128 363 128H299Q281 128 268.5 140.5Q256 153 256 171ZM427 235H469V85Q469 59 450.5 40.0Q432 21 405 21H363V64H405Q414 64 420.5 70.0Q427 76 427 85Z" />
      </g>
    </svg>