<svg xmlns="http://www.w3.org/2000/svg" viewBox="24 -37 448 448">
      <g transform="scale(1 -1) translate(0 -374)">
        <path d="M163 353 129 388Q180 405 256 405Q292 405 326 401Q378 394 408 377Q448 356 448 320V68L385 131Q396 128 405 123V261Q362 239 281 235L239 277H256Q297 277 331.0 283.0Q365 289 385.0 298.5Q405 308 405.0 320.0Q405 332 385.0 341.5Q365 351 331.0 357.0Q297 363 256 363Q205 363 163 353ZM472 -10 445 -37 403 4Q373 -11 323 -17Q290 -21 255.0 -21.0Q220 -21 186 -17Q134 -10 104 7Q64 28 64 64V320Q64 329 68 340L24 384L51 411ZM107 123Q137 138 188 145Q221 149 256 149H258L165 243Q130 250 107 261ZM371 37 303 105Q278 107 256 107Q215 107 181.0 101.0Q147 95 127.0 85.5Q107 76 107.0 64.0Q107 52 127.0 42.5Q147 33 181.0 27.0Q215 21 256 21Q326 21 371 37Z" />
      </g>
    </svg>