<svg xmlns="http://www.w3.org/2000/svg" viewBox="64 -21 384 426">
      <g transform="scale(1 -1) translate(0 -384)">
        <path d="M256 405Q220 405 186 401Q134 394 104 377Q64 356 64 320V64Q64 28 104 7Q134 -10 186 -17Q220 -21 256.0 -21.0Q292 -21 326 -17Q378 -10 408 7Q448 28 448 64V320Q448 356 408 377Q378 394 326 401Q292 405 256 405ZM256 235Q291 235 324 239Q375 246 405 261V123Q375 138 324 145Q291 149 256.0 149.0Q221 149 188 145Q137 138 107 123V261Q137 246 188 239Q221 235 256 235ZM256 363Q297 363 331.0 357.0Q365 351 385.0 341.5Q405 332 405.0 320.0Q405 308 385.0 298.5Q365 289 331.0 283.0Q297 277 256.0 277.0Q215 277 181.0 283.0Q147 289 127.0 298.5Q107 308 107.0 320.0Q107 332 127.0 341.5Q147 351 181.0 357.0Q215 363 256 363ZM256 21Q215 21 181.0 27.0Q147 33 127.0 42.5Q107 52 107.0 64.0Q107 76 127.0 85.5Q147 95 181.0 101.0Q215 107 256.0 107.0Q297 107 331.0 101.0Q365 95 385.0 85.5Q405 76 405.0 64.0Q405 52 385.0 42.5Q365 33 331.0 27.0Q297 21 256 21Z" />
      </g>
    </svg>