<svg xmlns="http://www.w3.org/2000/svg" viewBox="65 -43 418 470">
      <g transform="scale(1 -1) translate(0 -384)">
        <path d="M256 427V405L240 419L166 331L235 288V338L230 341L256 372V-43H299V166L340 207Q378 201 420 218Q456 233 483 260L453 290Q434 270 402 258Q367 245 341 250L299 294V427ZM363 363Q345 363 332.5 350.5Q320 338 320.0 320.0Q320 302 332.5 289.5Q345 277 362.5 277.0Q380 277 392.5 289.5Q405 302 405.0 320.0Q405 338 392.5 350.5Q380 363 363 363ZM235 282 151 199Q121 169 104 142Q85 112 65 61L105 46Q121 86 135 110Q147 131 168 153L197 124L91 18L121 -12L235 102Z" />
      </g>
    </svg>