<svg xmlns="http://www.w3.org/2000/svg" viewBox="64 -21 384 426">
      <g transform="scale(1 -1) translate(0 -384)">
        <path d="M299 373Q299 360 289.5 350.5Q280 341 266.5 341.0Q253 341 244.0 350.5Q235 360 235.0 373.5Q235 387 244.0 396.0Q253 405 266.5 405.0Q280 405 289.5 396.0Q299 387 299 373ZM181 341Q168 341 158.5 332.0Q149 323 149.0 309.5Q149 296 158.5 286.5Q168 277 181.5 277.0Q195 277 204.0 286.5Q213 296 213.0 309.5Q213 323 204.0 332.0Q195 341 181 341ZM299 192 282 240H345L391 263Q397 266 399.0 272.0Q401 278 398.5 284.0Q396 290 389.5 292.5Q383 295 377 292L359 283L349 301Q344 311 334.0 316.5Q324 322 313 319L260 308Q249 305 242.0 296.0Q235 287 235 276V261L183 226Q179 223 178 220L159 183L121 164Q115 161 113.0 154.5Q111 148 114 142Q118 133 128 133Q132 133 135 135L183 159L205 203L235 171Q227 149 199 120Q176 98 141 72Q116 54 88 36L64 21L90 10Q123 -2 159 -10Q209 -21 256.0 -21.0Q303 -21 353 -10Q389 -2 422 10L448 21L419 47Q384 78 356 110Q318 154 299 192ZM359 211 353 208H327L328 205Q344 173 373 140L362 213Z" />
      </g>
    </svg>