<svg xmlns="http://www.w3.org/2000/svg" viewBox="24 -37 448 448">
      <g transform="scale(1 -1) translate(0 -374)">
        <path d="M51 411 24 384 90 318Q85 308 85 299V85Q85 62 108.0 42.5Q131 23 170.5 11.5Q210 0 256 0Q292 0 324.5 7.0Q357 14 381 27L445 -37L472 -10ZM128 242Q153 228 187 221L258 149H256Q217 149 183.0 158.0Q149 167 128 182ZM256 43Q218 43 186 51Q160 58 143 70Q128 79 128 85V133Q182 107 256 107Q276 107 299 109L349 59Q309 43 256 43ZM184 332 151 366Q198 384 256 384Q302 384 341.5 372.5Q381 361 404.0 341.5Q427 322 427 299V90L384 132V133L351 165Q371 173 384 182V242Q350 223 300 216L260 256Q297 257 328 265Q353 272 370 283Q384 293 384.0 299.0Q384 305 369 314Q352 326 326 333Q294 341 255.5 341.0Q217 341 184 332Z" />
      </g>
    </svg>