<svg xmlns="http://www.w3.org/2000/svg" viewBox="43 0 426 384">
      <g transform="scale(1 -1) translate(0 -384)">
        <path d="M384 299Q384 275 361.0 255.5Q338 236 299.0 224.5Q260 213 213.5 213.0Q167 213 128.0 224.5Q89 236 66.0 255.5Q43 275 43.0 298.5Q43 322 66.0 341.5Q89 361 128.0 372.5Q167 384 213.5 384.0Q260 384 299.0 372.5Q338 361 361.0 341.5Q384 322 384 299ZM213 64Q167 64 128.0 75.5Q89 87 66.0 106.5Q43 126 43 149V85Q43 62 66.0 42.5Q89 23 128.0 11.5Q167 0 213.5 0.0Q260 0 299.0 11.5Q338 23 361.0 42.5Q384 62 384 85V149Q384 126 361.0 106.5Q338 87 299.0 75.5Q260 64 213 64ZM213 171Q167 171 128.0 182.5Q89 194 66.0 213.5Q43 233 43 256V192Q43 169 66.0 149.5Q89 130 128.0 118.5Q167 107 213.5 107.0Q260 107 299.0 118.5Q338 130 361.0 149.5Q384 169 384 192V256Q384 233 361.0 213.5Q338 194 299.0 182.5Q260 171 213 171ZM427 85H469V128H427ZM427 299V171H469V299Z" />
      </g>
    </svg>