<svg xmlns="http://www.w3.org/2000/svg" viewBox="85 0 424 384">
      <g transform="scale(1 -1) translate(0 -384)">
        <path d="M381 64 403 43Q380 23 341.0 11.5Q302 0 256.0 0.0Q210 0 170.5 11.5Q131 23 108.0 42.5Q85 62 85 85V299Q85 322 108.0 341.5Q131 361 170.5 372.5Q210 384 256.0 384.0Q302 384 341.0 372.5Q380 361 403 341L381 320L373 311Q357 323 330 331Q297 341 256 341Q218 341 186 333Q160 326 143 314Q128 305 128.0 298.5Q128 292 143 283Q160 272 186 265Q218 256 257.0 256.0Q296 256 329 266L349 245H288V215Q271 213 256 213Q219 213 185.5 221.0Q152 229 128 242V182Q149 167 183.0 158.0Q217 149 256 149Q271 149 288 151V139H349L328 117L331 115Q294 107 256 107Q182 107 128 133V85Q128 79 143 70Q160 58 186 51Q218 43 256 43Q296 43 330 53Q357 60 373 72ZM404 297 373 267 427 213H320V171H427L373 117L404 87L509 192Z" />
      </g>
    </svg>