<svg xmlns="http://www.w3.org/2000/svg" viewBox="64 -43 427 427">
      <g transform="scale(1 -1) translate(0 -341)">
        <path d="M235 384Q281 384 320.0 372.5Q359 361 382.0 341.5Q405 322 405.0 298.5Q405 275 382.0 255.5Q359 236 320.0 224.5Q281 213 234.5 213.0Q188 213 149.0 224.5Q110 236 87.0 255.5Q64 275 64.0 298.5Q64 322 87.0 341.5Q110 361 149.0 372.5Q188 384 235 384ZM405 191Q375 188 352.5 168.0Q330 148 323 119Q282 107 235.0 107.0Q188 107 149.0 118.5Q110 130 87.0 149.5Q64 169 64 192V256Q64 233 87.0 213.5Q110 194 149.0 182.5Q188 171 234.5 171.0Q281 171 320.0 182.5Q359 194 382.0 213.5Q405 233 405 256ZM299 70V6Q268 0 235 0Q188 0 149.0 11.5Q110 23 87.0 42.5Q64 62 64 85V149Q64 126 87.0 106.5Q110 87 149.0 75.5Q188 64 235 64Q268 64 299 70ZM416 149Q438 149 453.5 133.5Q469 118 469 96V85Q478 85 484.5 79.0Q491 73 491 64V-21Q491 -30 484.5 -36.5Q478 -43 469 -43H363Q354 -43 347.5 -36.5Q341 -30 341 -21V64Q341 73 347.5 79.0Q354 85 363 85V96Q363 118 378.5 133.5Q394 149 416 149ZM416 128Q403 128 393.5 118.5Q384 109 384 96V85H448V96Q448 109 438.5 118.5Q429 128 416 128Z" />
      </g>
    </svg>