<svg xmlns="http://www.w3.org/2000/svg" viewBox="85 -43 406 427">
      <g transform="scale(1 -1) translate(0 -341)">
        <path d="M85 192V256Q85 233 108.0 213.5Q131 194 170.5 182.5Q210 171 256.0 171.0Q302 171 341.5 182.5Q381 194 404.0 213.5Q427 233 427 256V192Q427 180 416 162Q393 171 363 171Q323 171 286.5 154.5Q250 138 226 109Q165 114 125.0 137.0Q85 160 85 192ZM256 213Q302 213 341.5 224.5Q381 236 404.0 256.0Q427 276 427.0 299.0Q427 322 404.0 341.5Q381 361 341.5 372.5Q302 384 256.0 384.0Q210 384 170.5 372.5Q131 361 108.0 341.5Q85 322 85.0 299.0Q85 276 108.0 256.0Q131 236 170.5 224.5Q210 213 256 213ZM194 28 188 43 196 61Q198 65 198 68Q147 78 116.0 99.5Q85 121 85 149V85Q85 57 119.0 34.5Q153 12 207 4Q203 11 194 28ZM363 64Q353 64 347.0 58.0Q341 52 341.0 42.5Q341 33 347.0 27.0Q353 21 362.5 21.0Q372 21 378.0 27.0Q384 33 384.0 42.5Q384 52 378.0 58.0Q372 64 363 64ZM491 43Q476 5 440.5 -19.0Q405 -43 362.5 -43.0Q320 -43 284.5 -19.0Q249 5 235 43Q249 80 284.5 104.0Q320 128 362.5 128.0Q405 128 440.5 104.0Q476 80 491 43ZM416 43Q416 65 400.5 80.5Q385 96 362.5 96.0Q340 96 324.5 80.5Q309 65 309.0 42.5Q309 20 324.5 4.5Q340 -11 362.5 -11.0Q385 -11 400.5 4.5Q416 20 416 43Z" />
      </g>
    </svg>