<svg xmlns="http://www.w3.org/2000/svg" viewBox="85 -11 406 395">
      <g transform="scale(1 -1) translate(0 -373)">
        <path d="M256 384Q302 384 341.5 372.5Q381 361 404.0 341.5Q427 322 427.0 298.5Q427 275 404.0 255.5Q381 236 341.5 224.5Q302 213 256.0 213.0Q210 213 170.5 224.5Q131 236 108.0 255.5Q85 275 85.0 298.5Q85 322 108.0 341.5Q131 361 170.5 372.5Q210 384 256 384ZM85 256Q85 233 108.0 213.5Q131 194 170.5 182.5Q210 171 256 171Q292 171 323 177Q291 149 281 108L256 107Q210 107 170.5 118.5Q131 130 108.0 149.5Q85 169 85 192ZM427 256V213H403Q427 233 427 256ZM85 149Q85 126 108.0 106.5Q131 87 170.5 75.5Q210 64 256 64L277 65Q280 32 298 3L256 0Q210 0 170.5 11.5Q131 23 108.0 42.5Q85 62 85 85ZM405 160Q441 160 466 135L491 160V75H405L443 112Q428 128 405.5 128.0Q383 128 367.5 112.5Q352 97 352.0 75.0Q352 53 367.5 37.0Q383 21 405 21Q418 21 429.0 27.0Q440 33 448 43H484Q475 19 453.5 4.0Q432 -11 405 -11Q370 -11 345.0 14.0Q320 39 320.0 74.5Q320 110 345.0 135.0Q370 160 405 160Z" />
      </g>
    </svg>