<svg xmlns="http://www.w3.org/2000/svg" viewBox="85 0 342 384">
      <g transform="scale(1 -1) translate(0 -384)">
        <path d="M256 384Q210 384 170.5 372.5Q131 361 108.0 341.5Q85 322 85 299V85Q85 62 108.0 42.5Q131 23 170.5 11.5Q210 0 256.0 0.0Q302 0 341.5 11.5Q381 23 404.0 42.5Q427 62 427 85V299Q427 322 404.0 341.5Q381 361 341.5 372.5Q302 384 256 384ZM384 85Q384 79 369 70Q352 58 326 51Q294 43 256.0 43.0Q218 43 186 51Q160 58 143 70Q128 79 128 85V133Q182 107 256.0 107.0Q330 107 384 133ZM384 182Q363 167 329.0 158.0Q295 149 256.0 149.0Q217 149 183.0 158.0Q149 167 128 182V242Q152 229 185.5 221.0Q219 213 256.0 213.0Q293 213 326.5 221.0Q360 229 384 242ZM256 256Q218 256 186 265Q160 272 143 283Q128 292 128.0 298.5Q128 305 143 314Q160 326 186 333Q218 341 256.0 341.0Q294 341 326 333Q352 326 369 314Q384 305 384.0 298.5Q384 292 369 283Q352 272 326 265Q294 256 256 256Z" />
      </g>
    </svg>