<svg xmlns="http://www.w3.org/2000/svg" viewBox="43 -21 426 426">
      <g transform="scale(1 -1) translate(0 -384)">
        <path d="M43 405V-21H469V21H427V64H469V107H427V149H469V192H384V235H341V192H299V235H256V277H171V192H256V107H213V64H256V21H213V64H171V107H128V149H85V192H128V320H85V405ZM128 320H171V405H128ZM171 107H213V149H171ZM384 235H469V277H384ZM384 277V363H341V320H299V277ZM341 363V405H299V363ZM384 363H427V405H384ZM427 363V320H469V363ZM213 405V320H256V405ZM299 149H341V107H384V21H299ZM85 64H128V21H85Z" />
      </g>
    </svg>