<svg xmlns="http://www.w3.org/2000/svg" viewBox="64 -43 427 448">
      <g transform="scale(1 -1) translate(0 -362)">
        <path d="M352 101 413 65 397 39 320 85V192H352ZM491 107Q491 66 471.0 31.5Q451 -3 416.5 -23.0Q382 -43 341 -43Q304 -43 271.5 -25.5Q239 -8 219 21Q176 24 140.5 35.5Q105 47 84.5 66.0Q64 85 64 107V171Q64 141 100.5 118.0Q137 95 193 88Q192 100 192 107Q192 117 194 131Q138 138 101.0 161.0Q64 184 64 213V277Q64 255 84.5 236.5Q105 218 140.5 206.0Q176 194 219 192Q238 220 267 236Q249 235 235 235Q188 235 149.0 246.5Q110 258 87.0 277.5Q64 297 64.0 320.0Q64 343 87.0 362.5Q110 382 149.0 393.5Q188 405 234.5 405.0Q281 405 320.0 393.5Q359 382 382.0 362.5Q405 343 405 320Q405 301 389.5 284.5Q374 268 347 256Q371 255 393 246Q405 262 405 277V241Q444 223 467.5 187.0Q491 151 491 107ZM448 107Q448 136 433.5 160.5Q419 185 394.5 199.0Q370 213 341.0 213.0Q312 213 287.5 199.0Q263 185 249.0 160.5Q235 136 235.0 107.0Q235 78 249.0 53.5Q263 29 287.5 14.5Q312 0 341.0 0.0Q370 0 394.5 14.5Q419 29 433.5 53.5Q448 78 448 107Z" />
      </g>
    </svg>