<svg xmlns="http://www.w3.org/2000/svg" viewBox="85 -21 384 405">
      <g transform="scale(1 -1) translate(0 -363)">
        <path d="M128 182V242Q152 229 185.5 221.0Q219 213 256.0 213.0Q293 213 326.5 221.0Q360 229 384 242V212L395 213Q410 213 427 208V299Q427 322 404.0 341.5Q381 361 341.5 372.5Q302 384 256.0 384.0Q210 384 170.5 372.5Q131 361 108.0 341.5Q85 322 85 299V85Q85 62 108.0 42.5Q131 23 170.5 11.5Q210 0 256 0Q270 0 277 1V44Q271 43 256 43Q218 43 186 51Q160 58 143 70Q128 79 128 85V133Q182 107 256 107Q265 107 282 108Q288 124 300 134Q302 143 306 154Q282 149 256 149Q217 149 183.0 158.0Q149 167 128 182ZM256 341Q294 341 326 333Q352 326 369 314Q384 305 384.0 298.5Q384 292 369 283Q352 272 326 265Q294 256 256.0 256.0Q218 256 186 265Q160 272 143 283Q128 292 128.0 298.5Q128 305 143 314Q160 326 186 333Q218 341 256 341ZM448 107V117Q448 139 432.5 155.0Q417 171 395.0 171.0Q373 171 357.0 155.0Q341 139 341 117V107Q333 107 326.5 100.5Q320 94 320 85V0Q320 -9 326.5 -15.0Q333 -21 341 -21H448Q457 -21 463.0 -15.0Q469 -9 469 0V85Q469 94 463.0 100.5Q457 107 448 107ZM427 107H363V117Q363 131 372.0 140.0Q381 149 394.5 149.0Q408 149 417.5 140.0Q427 131 427 117Z" />
      </g>
    </svg>