<svg xmlns="http://www.w3.org/2000/svg" viewBox="85 -21 384 405">
      <g transform="scale(1 -1) translate(0 -363)">
        <path d="M85 299Q85 322 108.0 341.5Q131 361 170.5 372.5Q210 384 256.0 384.0Q302 384 341.5 372.5Q381 361 404.0 341.5Q427 322 427.0 298.5Q427 275 404.0 255.5Q381 236 341.5 224.5Q302 213 256.0 213.0Q210 213 170.5 224.5Q131 236 108.0 255.5Q85 275 85 299ZM421 170Q427 181 427 192V256Q427 233 404.0 213.5Q381 194 341.5 182.5Q302 171 256.0 171.0Q210 171 170.5 182.5Q131 194 108.0 213.5Q85 233 85 256V192Q85 169 108.0 149.5Q131 130 170.5 118.5Q210 107 256 107Q276 107 296 109Q313 137 342.0 154.0Q371 171 405 171Q416 171 421 170ZM279 65Q272 64 256 64Q210 64 170.5 75.5Q131 87 108.0 106.5Q85 126 85 149V85Q85 62 108.0 42.5Q131 23 170.5 11.5Q210 0 256 0Q275 0 284 1Q277 22 277 43Q277 53 279 65ZM384 64V107L320 43L384 -21V21H469V64Z" />
      </g>
    </svg>