<svg xmlns="http://www.w3.org/2000/svg" viewBox="64 -43 427 448">
      <g transform="scale(1 -1) translate(0 -362)">
        <path d="M352 101 413 65 397 39 320 85V192H352ZM491 107Q491 66 471.0 31.5Q451 -3 416.5 -23.0Q382 -43 341 -43Q304 -43 271.5 -25.5Q239 -8 219 21Q176 24 140.5 35.5Q105 47 84.5 66.0Q64 85 64 107V320Q64 343 87.0 362.5Q110 382 149.0 393.5Q188 405 234.5 405.0Q281 405 320.0 393.5Q359 382 382.0 362.5Q405 343 405 320V241Q444 223 467.5 187.0Q491 151 491 107ZM363 254V264Q355 259 346 256Q352 256 363 254ZM107 320Q107 314 122 304Q139 293 165 286Q197 277 234.5 277.0Q272 277 305 286Q331 293 348 304Q363 314 363.0 320.0Q363 326 348 336Q331 347 305 354Q272 363 234.5 363.0Q197 363 165 354Q139 347 122 336Q107 326 107 320ZM107 204Q124 191 150.0 183.0Q176 175 207 172Q227 213 268 236Q250 235 235 235Q197 235 164.0 242.5Q131 250 107 264ZM198 67Q192 88 192 107Q192 118 194 131Q143 137 107 154V107Q107 102 118.0 94.0Q129 86 148 79Q170 70 198 67ZM448 107Q448 136 433.5 160.5Q419 185 394.5 199.0Q370 213 341.0 213.0Q312 213 287.5 199.0Q263 185 249.0 160.5Q235 136 235.0 107.0Q235 78 249.0 53.5Q263 29 287.5 14.5Q312 0 341.0 0.0Q370 0 394.5 14.5Q419 29 433.5 53.5Q448 78 448 107Z" />
      </g>
    </svg>