<svg xmlns="http://www.w3.org/2000/svg" viewBox="85 -21 384 405">
      <g transform="scale(1 -1) translate(0 -363)">
        <path d="M405 171Q371 171 342.0 154.0Q313 137 296 109Q276 107 256 107Q210 107 170.5 118.5Q131 130 108.0 149.5Q85 169 85 192V256Q85 233 108.0 213.5Q131 194 170.5 182.5Q210 171 256.0 171.0Q302 171 341.5 182.5Q381 194 404.0 213.5Q427 233 427 256V192Q427 181 421 170Q416 171 405 171ZM256 213Q302 213 341.5 224.5Q381 236 404.0 255.5Q427 275 427.0 298.5Q427 322 404.0 341.5Q381 361 341.5 372.5Q302 384 256.0 384.0Q210 384 170.5 372.5Q131 361 108.0 341.5Q85 322 85.0 298.5Q85 275 108.0 255.5Q131 236 170.5 224.5Q210 213 256 213ZM279 65Q272 64 256 64Q210 64 170.5 75.5Q131 87 108.0 106.5Q85 126 85 149V85Q85 62 108.0 42.5Q131 23 170.5 11.5Q210 0 256 0Q275 0 284 1Q277 22 277 43Q277 53 279 65ZM405 128 341 64H384V-21H427V64H469Z" />
      </g>
    </svg>