<svg xmlns="http://www.w3.org/2000/svg" viewBox="85 -64 342 448">
      <g transform="scale(1 -1) translate(0 -320)">
        <path d="M149 -21H192V-64H149ZM235 -21H277V-64H235ZM320 -21H363V-64H320ZM256 384Q302 384 341.5 372.5Q381 361 404.0 341.5Q427 322 427.0 298.5Q427 275 404.0 255.5Q381 236 341.5 224.5Q302 213 256.0 213.0Q210 213 170.5 224.5Q131 236 108.0 255.5Q85 275 85.0 298.5Q85 322 108.0 341.5Q131 361 170.5 372.5Q210 384 256 384ZM85 256Q85 233 108.0 213.5Q131 194 170.5 182.5Q210 171 256.0 171.0Q302 171 341.5 182.5Q381 194 404.0 213.5Q427 233 427 256V192Q427 169 404.0 149.5Q381 130 341.5 118.5Q302 107 256.0 107.0Q210 107 170.5 118.5Q131 130 108.0 149.5Q85 169 85 192ZM85 149Q85 126 108.0 106.5Q131 87 170.5 75.5Q210 64 256.0 64.0Q302 64 341.5 75.5Q381 87 404.0 106.5Q427 126 427 149V85Q427 67 411.5 50.0Q396 33 369 21H143Q116 33 100.5 50.0Q85 67 85 85Z" />
      </g>
    </svg>