<svg xmlns="http://www.w3.org/2000/svg" viewBox="85 -43 406 427">
      <g transform="scale(1 -1) translate(0 -341)">
        <path d="M194 28 188 43 192 51Q164 59 145 70Q128 80 128 85V132Q170 113 226 107Q248 132 279 149H256Q218 149 183.5 158.0Q149 167 128 181V243Q154 230 185 222Q219 213 256 213Q334 213 384 243V183Q371 175 363 171Q395 171 427 158V299Q427 322 404.0 341.5Q381 361 341.5 372.5Q302 384 256.0 384.0Q210 384 170.5 372.5Q131 361 108.0 341.5Q85 322 85 299V85Q85 57 119.0 34.5Q153 12 207 4Q203 11 194 28ZM256 341Q294 341 326 333Q352 326 369 314Q384 305 384.0 298.5Q384 292 369 283Q352 272 326 265Q294 256 256.0 256.0Q218 256 186 265Q160 272 143 283Q128 292 128.0 298.5Q128 305 143 314Q160 326 186 333Q218 341 256 341ZM363 64Q372 64 378.0 58.0Q384 52 384.0 42.5Q384 33 378.0 27.0Q372 21 362.5 21.0Q353 21 347.0 27.0Q341 33 341.0 42.5Q341 52 347.0 58.0Q353 64 363 64ZM363 128Q320 128 284.5 104.0Q249 80 235 43Q249 5 284.5 -19.0Q320 -43 362.5 -43.0Q405 -43 440.5 -19.0Q476 5 491 43Q476 80 440.5 104.0Q405 128 363 128ZM363 -11Q340 -11 324.5 4.5Q309 20 309.0 42.5Q309 65 324.5 80.5Q340 96 362.5 96.0Q385 96 400.5 80.5Q416 65 416.0 42.5Q416 20 400.5 4.5Q385 -11 363 -11Z" />
      </g>
    </svg>