<svg xmlns="http://www.w3.org/2000/svg" viewBox="85 -12 396 396">
      <g transform="scale(1 -1) translate(0 -372)">
        <path d="M330 109 360 140 405 94 451 139 481 109 435 64 481 19 451 -12 405 34 360 -11 330 19 375 64ZM256 384Q302 384 341.5 372.5Q381 361 404.0 341.5Q427 322 427.0 298.5Q427 275 404.0 255.5Q381 236 341.5 224.5Q302 213 256.0 213.0Q210 213 170.5 224.5Q131 236 108.0 255.5Q85 275 85.0 298.5Q85 322 108.0 341.5Q131 361 170.5 372.5Q210 384 256 384ZM85 256Q85 233 108.0 213.5Q131 194 170.5 182.5Q210 171 256.0 171.0Q302 171 341.5 182.5Q381 194 404.0 213.5Q427 233 427 256V190L405 192Q364 192 331.5 168.5Q299 145 285 108L256 107Q210 107 170.5 118.5Q131 130 108.0 149.5Q85 169 85 192ZM85 149Q85 126 108.0 106.5Q131 87 170.5 75.5Q210 64 256 64H277Q277 31 293 2L256 0Q210 0 170.5 11.5Q131 23 108.0 42.5Q85 62 85 85Z" />
      </g>
    </svg>