<svg xmlns="http://www.w3.org/2000/svg" viewBox="85 -30 414 414">
      <g transform="scale(1 -1) translate(0 -354)">
        <path d="M235 44Q203 46 176 55Q154 62 141.0 71.0Q128 80 128 85V133Q164 115 213 109Q213 135 218 152Q160 159 128 182V242Q151 229 183.5 221.5Q216 214 252 213L254 215Q289 250 337.5 255.0Q386 260 427 234V299Q427 322 404.0 341.5Q381 361 341.5 372.5Q302 384 256.0 384.0Q210 384 170.5 372.5Q131 361 108.0 341.5Q85 322 85 299V85Q85 62 108.0 42.5Q131 23 170.5 11.5Q210 0 256 0Q271 0 277 1Q263 10 254 19Q242 31 235 44ZM256 341Q294 341 326 333Q352 326 369 314Q384 305 384.0 298.5Q384 292 369 283Q352 272 326 265Q294 256 256.0 256.0Q218 256 186 265Q160 272 143 283Q128 292 128.0 298.5Q128 305 143 314Q160 326 186 333Q218 341 256 341ZM433 66Q448 89 448 117Q448 157 420.0 185.0Q392 213 352.0 213.0Q312 213 284.0 185.0Q256 157 256.0 117.0Q256 77 284.0 49.0Q312 21 352 21Q379 21 403 36L469 -30L499 0ZM352 64Q330 64 314.5 79.5Q299 95 299.0 117.0Q299 139 314.5 155.0Q330 171 352.0 171.0Q374 171 389.5 155.0Q405 139 405.0 117.0Q405 95 389.5 79.5Q374 64 352 64Z" />
      </g>
    </svg>