<svg xmlns="http://www.w3.org/2000/svg" viewBox="43 -21 426 426">
      <g transform="scale(1 -1) translate(0 -384)">
        <path d="M427 190Q422 190 418 186L397 164L442 119L463 141Q466 144 466.0 149.5Q466 155 463 158L435 186Q431 190 427 190ZM386 151 256 23V-21H301L431 109ZM171 320H128V405H171ZM213 107H171V149H213ZM256 320H213V405H256ZM341 405V363H299V405ZM427 363H384V405H427ZM213 21V64H171V107H128V149H85V192H128V320H85V405H43V-21H213ZM128 21H85V64H128ZM469 235H384V277H469ZM427 320V363H469V320ZM384 363V277H299V320H341V363ZM213 64V107H256V192H171V277H256V235H299V192H341V235H384V211L322 149H299V126L237 64Z" />
      </g>
    </svg>