<svg xmlns="http://www.w3.org/2000/svg" viewBox="85 -64 425 448">
      <g transform="scale(1 -1) translate(0 -320)">
        <path d="M85 299Q85 322 108.0 341.5Q131 361 170.5 372.5Q210 384 256.0 384.0Q302 384 341.5 372.5Q381 361 404.0 341.5Q427 322 427.0 298.5Q427 275 404.0 255.5Q381 236 341.5 224.5Q302 213 256.0 213.0Q210 213 170.5 224.5Q131 236 108.0 255.5Q85 275 85 299ZM258 64H256Q210 64 170.5 75.5Q131 87 108.0 106.5Q85 126 85 149V85Q85 62 108.0 42.5Q131 23 170.5 11.5Q210 0 256 0H262Q256 22 256 43Q256 53 258 64ZM427 190Q427 191 427 192V256Q427 233 404.0 213.5Q381 194 341.5 182.5Q302 171 256.0 171.0Q210 171 170.5 182.5Q131 194 108.0 213.5Q85 233 85 256V192Q85 169 108.0 149.5Q131 130 170.5 118.5Q210 107 256 107H271Q289 145 325.5 168.5Q362 192 405 192Q415 192 427 190ZM508 13Q509 13 509.0 11.5Q509 10 508 9L486 -28Q484 -30 480 -30L454 -21L437 -32L433 -60Q433 -61 431.5 -62.5Q430 -64 429 -64H386Q384 -64 380 -60L375 -32Q366 -29 358 -21L333 -32Q329 -32 326 -30L305 6Q303 9 307 13L331 30V51L307 68Q305 70 305 75L326 111Q329 113 333 113L358 102L375 113L380 141Q380 145 386 145H429Q430 145 431.5 143.5Q433 142 433 141L437 113Q444 111 457 102L482 113Q489 113 489 111L510 75Q512 73 508 68L484 51V30ZM437 43Q437 55 427.5 65.0Q418 75 405.5 75.0Q393 75 383.0 65.0Q373 55 373.0 42.5Q373 30 383.0 20.5Q393 11 405.5 11.0Q418 11 427.5 20.5Q437 30 437 43Z" />
      </g>
    </svg>