<svg xmlns="http://www.w3.org/2000/svg" viewBox="0 -64 512 512">
      <g transform="scale(1 -1) translate(0 -384)">
        <path d="M43 405H128V448H43Q25 448 12.5 435.5Q0 423 0 405V320H43ZM469 448H384V405H469V320H512V405Q512 423 499.5 435.5Q487 448 469 448ZM43 64H0V-21Q0 -39 12.5 -51.5Q25 -64 43 -64H128V-21H43ZM469 -21H384V-64H469Q487 -64 499.5 -51.5Q512 -39 512 -21V64H469ZM171 320V363H213V320ZM213 149V192H256V149ZM341 363H384V320H341ZM384 320H427V277H384ZM384 149H427V107H384ZM427 192H341V64H427V21H85V363H128V320H171V235H128V192H171V149H213V107H256V64H299V107H256V149H299V235H213V320H256V363H299V277H341V235H427ZM171 64V107H128V64Z" />
      </g>
    </svg>