<svg xmlns="http://www.w3.org/2000/svg" viewBox="85 0 342 384">
      <g transform="scale(1 -1) translate(0 -384)">
        <path d="M256 384Q210 384 170.5 372.5Q131 361 108.0 341.5Q85 322 85.0 298.5Q85 275 108.0 255.5Q131 236 170.5 224.5Q210 213 256.0 213.0Q302 213 341.5 224.5Q381 236 404.0 255.5Q427 275 427.0 298.5Q427 322 404.0 341.5Q381 361 341.5 372.5Q302 384 256 384ZM85 256V192Q85 169 108.0 149.5Q131 130 170.5 118.5Q210 107 256.0 107.0Q302 107 341.5 118.5Q381 130 404.0 149.5Q427 169 427 192V256Q427 233 404.0 213.5Q381 194 341.5 182.5Q302 171 256.0 171.0Q210 171 170.5 182.5Q131 194 108.0 213.5Q85 233 85 256ZM85 149V85Q85 62 108.0 42.5Q131 23 170.5 11.5Q210 0 256.0 0.0Q302 0 341.5 11.5Q381 23 404.0 42.5Q427 62 427 85V149Q427 126 404.0 106.5Q381 87 341.5 75.5Q302 64 256.0 64.0Q210 64 170.5 75.5Q131 87 108.0 106.5Q85 126 85 149Z" />
      </g>
    </svg>