<svg xmlns="http://www.w3.org/2000/svg" viewBox="43 -32 437 437">
      <g transform="scale(1 -1) translate(0 -373)">
        <path d="M341 405V363H299V405ZM256 405H213V320H256ZM213 149H171V107H213ZM341 363V320H299V277H384V363ZM171 405H128V320H171ZM427 405H384V363H427ZM294 -21H43V405H85V320H128V192H85V149H128V107H171V64H213V21H256V64H213V107H256V192H171V277H256V235H299V192H341V235H384V192H469V154Q439 171 405 171Q367 171 335 149H299V113Q277 81 277 43Q277 9 294 -21ZM128 64H85V21H128ZM469 277H384V235H469ZM469 320V363H427V320ZM450 117 405 73 361 117 331 87 375 43 331 -2 361 -32 405 13 450 -32 480 -2 435 43 480 87Z" />
      </g>
    </svg>