<svg xmlns="http://www.w3.org/2000/svg" viewBox="85 -21 406 405">
      <g transform="scale(1 -1) translate(0 -363)">
        <path d="M256 107Q279 107 305 111L367 173Q346 162 317.0 155.5Q288 149 256 149Q217 149 183.0 158.0Q149 167 128 182V242Q152 229 185.5 221.0Q219 213 256.0 213.0Q293 213 326.5 221.0Q360 229 384 242V189L414 219Q419 224 427 228V299Q427 322 404.0 341.5Q381 361 341.5 372.5Q302 384 256.0 384.0Q210 384 170.5 372.5Q131 361 108.0 341.5Q85 322 85 299V85Q85 64 105.0 45.5Q125 27 159.0 15.0Q193 3 235 1V40L238 44Q206 45 178 54Q155 61 141 71Q128 80 128 85V133Q182 107 256 107ZM256 341Q294 341 326 333Q352 326 369 314Q384 305 384.0 298.5Q384 292 369 283Q352 272 326 265Q294 256 256.0 256.0Q218 256 186 265Q160 272 143 283Q128 292 128.0 298.5Q128 305 143 314Q160 326 186 333Q218 341 256 341ZM408 153 452 109 321 -21H277V22ZM487 145 467 124 423 168 444 189Q447 192 451.5 192.0Q456 192 459 189L487 161Q491 157 491.0 152.5Q491 148 487 145Z" />
      </g>
    </svg>