<svg xmlns="http://www.w3.org/2000/svg" viewBox="85 -43 406 427">
      <g transform="scale(1 -1) translate(0 -341)">
        <path d="M256 107Q265 107 282 108Q288 133 302 153Q279 149 256 149Q217 149 183.0 158.0Q149 167 128 182V242Q152 229 185.5 221.0Q219 213 256.0 213.0Q293 213 326.5 221.0Q360 229 384 242V209Q401 213 417 213Q423 213 427 213V299Q427 322 404.0 341.5Q381 361 341.5 372.5Q302 384 256.0 384.0Q210 384 170.5 372.5Q131 361 108.0 341.5Q85 322 85 299V85Q85 62 108.0 42.5Q131 23 170.5 11.5Q210 0 256 0Q277 0 297 3Q285 22 281 44Q273 43 256 43Q218 43 186 51Q160 58 143 70Q128 79 128 85V133Q182 107 256 107ZM256 341Q294 341 326 333Q352 326 369 314Q384 305 384.0 298.5Q384 292 369 283Q352 272 326 265Q294 256 256.0 256.0Q218 256 186 265Q160 272 143 283Q128 292 128.0 298.5Q128 305 143 314Q160 326 186 333Q218 341 256 341ZM491 75Q491 49 476 28L453 51Q459 62 459 75Q459 97 443.0 112.5Q427 128 405 128V96L357 144L405 192V160Q441 160 466.0 135.0Q491 110 491 75ZM405 53 453 5 405 -43V-11Q370 -11 345.0 14.0Q320 39 320 75Q320 100 334 122L358 99Q352 87 352 75Q352 53 367.5 37.0Q383 21 405 21Z" />
      </g>
    </svg>