<svg xmlns="http://www.w3.org/2000/svg" viewBox="24 -37 448 448">
      <g transform="scale(1 -1) translate(0 -374)">
        <path d="M407 109Q427 128 427 149V90ZM427 256Q427 232 402.0 212.0Q377 192 336 181L382 135Q403 146 415.0 161.0Q427 176 427 192ZM427 299Q427 322 404.0 341.5Q381 361 341.5 372.5Q302 384 256 384Q198 384 151 366L300 216Q355 224 391.0 246.5Q427 269 427 299ZM51 411 24 384 90 318Q85 308 85 299Q85 273 113.0 252.0Q141 231 187 221L236 171Q194 174 159.5 185.5Q125 197 105.0 215.5Q85 234 85 256V192Q85 169 108.0 149.5Q131 130 170.5 118.5Q210 107 256 107Q276 107 299 109L334 74Q298 64 256 64Q210 64 170.5 75.5Q131 87 108.0 106.5Q85 126 85 149V85Q85 62 108.0 42.5Q131 23 170.5 11.5Q210 0 256 0Q292 0 324.5 7.0Q357 14 381 27L445 -37L472 -10Z" />
      </g>
    </svg>