<svg xmlns="http://www.w3.org/2000/svg" viewBox="23 -45 468 457">
      <g transform="scale(1 -1) translate(0 -367)">
        <path d="M491 43Q486 34 484 32L390 126Q425 118 451.5 96.0Q478 74 491 43ZM256 341Q294 341 326 333Q352 326 369 314Q384 305 384.0 299.0Q384 293 369 283Q353 273 327 266Q297 257 260 256L301 215Q353 222 384 241V181Q371 173 363 169Q395 169 427 156V299Q427 322 404.0 341.5Q381 361 341.5 372.5Q302 384 256 384Q193 384 151 365L186 331Q214 341 256 341ZM471 -11 444 -38 431 -26Q393 -45 363 -45Q320 -45 284.5 -21.0Q249 3 235 41Q254 86 297 109L265 141Q250 132 224 107Q167 110 126 132V85Q126 79 143 69Q163 57 190 51L188 43L205 4Q153 12 119.0 34.5Q85 57 85 85V299Q85 305 90 318L23 384L51 412ZM258 149 186 222Q159 227 126 243V183Q146 168 180.0 159.5Q214 151 254 151Q255 150 257 150ZM401 6 378 30Q375 21 363 21Q353 21 347.0 27.0Q341 33 341.0 43.5Q341 54 350 60L326 83Q309 66 309.0 44.0Q309 22 324.5 6.5Q340 -9 363 -9Q374 -10 384.5 -6.0Q395 -2 401 6Z" />
      </g>
    </svg>