<svg xmlns="http://www.w3.org/2000/svg" viewBox="85 0 424 384">
      <g transform="scale(1 -1) translate(0 -384)">
        <path d="M256 384Q210 384 170.5 372.5Q131 361 108.0 341.5Q85 322 85.0 298.5Q85 275 108.0 255.5Q131 236 170.5 224.5Q210 213 256 213Q271 213 288 215V245H350L328 267L403 341Q380 361 341.0 372.5Q302 384 256 384ZM404 297 373 267 427 213H320V171H427L373 117L404 87L509 192ZM85 256V192Q85 169 108.0 149.5Q131 130 170.5 118.5Q210 107 256 107Q290 107 325 115L349 139H288V172Q271 171 256 171Q210 171 170.5 182.5Q131 194 108.0 213.5Q85 233 85 256ZM85 149V85Q85 62 108.0 42.5Q131 23 170.5 11.5Q210 0 256.0 0.0Q302 0 341.0 11.5Q380 23 403 43L363 83Q315 64 256 64Q210 64 170.5 75.5Q131 87 108.0 106.5Q85 126 85 149Z" />
      </g>
    </svg>