<svg xmlns="http://www.w3.org/2000/svg" viewBox="0 0 427 384">
      <g transform="scale(1 -1) translate(0 -384)">
        <path d="M189 192 84 87 53 117 107 171H0V213H107L53 267L84 297ZM256 384Q202 384 158.5 369.0Q115 354 97 329L107 320L129 297L128 299Q128 305 143 314Q160 326 186 333Q218 341 256.0 341.0Q294 341 326 333Q352 326 369 314Q384 305 384.0 298.5Q384 292 369 283Q352 272 326 265Q294 256 256.0 256.0Q218 256 185 265Q160 272 143 283L209 217Q233 213 256 213Q293 213 326.5 221.0Q360 229 384 242V182Q363 167 329.0 158.0Q295 149 256 149Q226 149 197 155L162 120Q206 107 256 107Q330 107 384 133V85Q384 79 369 70Q352 58 326 51Q294 43 256.0 43.0Q218 43 186 51Q160 58 143 70Q128 79 128 85V86L107 64L97 55Q116 30 159.0 15.0Q202 0 256 0Q302 0 341.5 11.5Q381 23 404.0 42.5Q427 62 427 85V299Q427 322 404.0 341.5Q381 361 341.5 372.5Q302 384 256 384Z" />
      </g>
    </svg>