<svg xmlns="http://www.w3.org/2000/svg" viewBox="85 -32 384 416">
      <g transform="scale(1 -1) translate(0 -352)">
        <path d="M128 182V242Q152 229 185.5 221.0Q219 213 256.0 213.0Q293 213 326.5 221.0Q360 229 384 242V191Q388 192 395 192Q409 192 427 188V299Q427 322 404.0 341.5Q381 361 341.5 372.5Q302 384 256.0 384.0Q210 384 170.5 372.5Q131 361 108.0 341.5Q85 322 85 299V85Q85 62 108.0 42.5Q131 23 170.5 11.5Q210 0 256 0H267Q259 19 257 43H256Q218 43 186 51Q160 58 143 70Q128 79 128 85V133Q182 107 256 107H267Q278 133 298 152Q277 149 256 149Q217 149 183.0 158.0Q149 167 128 182ZM256 341Q294 341 326 333Q352 326 369 314Q384 305 384.0 298.5Q384 292 369 283Q352 272 326 265Q294 256 256.0 256.0Q218 256 186 265Q160 272 143 283Q128 292 128.0 298.5Q128 305 143 314Q160 326 186 333Q218 341 256 341ZM384 53 422 91Q406 107 384.0 107.0Q362 107 346.5 91.0Q331 75 331.0 53.0Q331 31 346.5 15.5Q362 0 384 0Q397 0 408.0 5.5Q419 11 427 21H463Q454 -3 432.5 -17.5Q411 -32 384 -32Q349 -32 324.0 -7.0Q299 18 299.0 53.5Q299 89 324.0 114.0Q349 139 384.0 139.0Q419 139 444 114L469 139V53Z" />
      </g>
    </svg>