<svg xmlns="http://www.w3.org/2000/svg" viewBox="44 -21 424 426">
      <g transform="scale(1 -1) translate(0 -384)">
        <path d="M44 171H468Q466 149 460 128H299V85H363V43H320V0H267V-21H256Q202 -21 155.0 4.5Q108 30 78.5 73.5Q49 117 44 171ZM468 213H44Q49 267 78.5 310.5Q108 354 155.0 379.5Q202 405 256 405Q307 405 352 382V341H395V299H427V256H460Q466 235 468 213ZM256 304Q256 326 240.5 341.5Q225 357 203.0 357.0Q181 357 165.0 341.5Q149 326 149.0 304.0Q149 282 165.0 266.5Q181 251 203.0 251.0Q225 251 240.5 266.5Q256 282 256 304Z" />
      </g>
    </svg>