<svg xmlns="http://www.w3.org/2000/svg" viewBox="21 0 470 405">
      <g transform="scale(1 -1) translate(0 -405)">
        <path d="M256 405 21 0H491ZM272 203Q301 197 317.0 172.0Q333 147 326 117Q322 97 307.0 82.5Q292 68 272 63ZM240 64Q211 70 195.0 95.5Q179 121 186 149Q190 170 205.0 184.5Q220 199 240 204ZM360 134Q359 172 334.0 200.5Q309 229 272 235V314L435 32H279Q314 40 337.0 68.5Q360 97 360 133ZM240 314V235Q212 230 190.5 213.0Q169 196 159.0 170.0Q149 144 153 116Q158 85 180.0 61.5Q202 38 233 31H77Z" />
      </g>
    </svg>