<svg xmlns="http://www.w3.org/2000/svg" viewBox="79 -32 357 445">
      <g transform="scale(1 -1) translate(0 -381)">
        <path d="M395 223 390 215Q394 226 394 250V265L392 266Q391 294 370 323Q350 350 326 361Q307 370 281.0 371.5Q255 373 241 366Q242 367 247.0 368.5Q252 370 251 371Q239 370 233 368Q229 366 223 363Q215 358 206 355Q204 353 206 353L215 355Q215 355 211 352Q208 351 201.5 350.5Q195 350 191 349Q184 345 175 336Q176 335 180 337Q182 338 182 338L179 334Q167 335 145 314Q126 295 118 282L122 281Q119 274 112.5 262.0Q106 250 106 244L104 228Q101 202 101 190Q101 170 107 162L106 151L111 141H108Q112 128 115.0 124.5Q118 121 122.0 121.0Q126 121 128 118Q133 113 138 100Q133 102 130 107Q129 104 132.5 97.0Q136 90 141 84L139 81Q141 76 146 72L148 70Q141 74 147 64Q150 58 160 46L163 42L165 46Q164 39 176 24H183Q185 20 191.0 15.0Q197 10 201 9L197 4Q204 2 208.5 -1.5Q213 -5 222 -8L218 -2L226 -10Q235 -19 244.0 -22.5Q253 -26 263.5 -28.0Q274 -30 282 -32Q248 -32 236 -27Q194 -16 157.0 18.0Q120 52 99 98Q77 147 80 197Q79 205 80 224Q80 245 79 248V250Q89 284 100 306Q100 306 100 306Q103 303 108 311L111 318Q115 330 118 335H121Q122 341 130 351Q136 356 148 367Q157 375 160 378V375Q175 389 218 407L230 412Q228 409 230 409L238 411Q247 413 252 413L241 407Q248 409 254.5 407.5Q261 406 268 407Q257 406 258 404Q265 403 273.5 405.0Q282 407 290 404L289 408L305 403Q321 399 335 391Q338 391 341 392Q348 394 355 391L356 389Q357 385 368 378Q370 379 364 385L363 386Q385 374 404 352Q424 329 431 304Q427 311 426.5 310.0Q426 309 427.0 303.0Q428 297 427 297Q433 280 436 265L435 266Q427 297 417 310Q417 307 413.5 307.5Q410 308 409.5 306.0Q409 304 411 296Q413 293 414.0 295.0Q415 297 415.5 296.5Q416 296 419 291Q419 287 421 278L422 271Q421 271 419.0 275.0Q417 279 416 277Q419 264 423 261Q423 261 421.5 261.0Q420 261 420 256Q421 248 422.0 246.5Q423 245 425 246H427L424 239Q419 226 421 216L417 228Q417 224 417 218Q418 210 414 201Q417 210 417.0 216.5Q417 223 414 219Q415 209 407 193Q401 182 402 176L397 183Q391 173 391.5 169.5Q392 166 389 160Q390 162 389.5 163.5Q389 165 391 168Q390 168 382.5 160.5Q375 153 371 150Q347 131 318.5 127.0Q290 123 261 134Q261 136 258 138Q231 159 221 176Q209 198 213 232Q215 234 219 243Q225 259 231 263Q237 275 251.0 283.5Q265 292 280.5 292.5Q296 293 311 285Q323 279 332 268Q318 280 298.5 283.0Q279 286 261.0 277.5Q243 269 233.0 250.5Q223 232 224 212L225 213Q226 213 227 216Q226 190 242.0 170.0Q258 150 281.0 142.0Q304 134 325 144V143Q336 146 343 152Q347 156 351 159L349 156Q345 152 348.5 152.5Q352 153 373 172L378 176Q379 180 378.5 183.0Q378 186 381 191L387 194L390 201Q395 213 395 223Z" />
      </g>
    </svg>