<svg xmlns="http://www.w3.org/2000/svg" viewBox="46 64 454 256">
      <g transform="scale(1 -1) translate(0 -384)">
        <path d="M256 149Q274 149 286.5 136.5Q299 124 299.0 106.5Q299 89 286.5 76.5Q274 64 256.0 64.0Q238 64 225.5 76.5Q213 89 213.0 106.5Q213 124 225.5 136.5Q238 149 256 149ZM500 259 467 112 320 146 401 197Q378 234 339.5 255.5Q301 277 256 277Q215 277 179.0 258.5Q143 240 119.0 208.0Q95 176 88 136L46 143Q54 193 84.0 233.5Q114 274 159.0 297.0Q204 320 256 320Q312 320 360.0 292.5Q408 265 437 219Z" />
      </g>
    </svg>