<svg xmlns="http://www.w3.org/2000/svg" viewBox="64 21 384 320">
      <g transform="scale(1 -1) translate(0 -362)">
        <path d="M107 171V107H85L64 171Q64 180 70.0 186.0Q76 192 85.0 192.0Q94 192 100.5 186.0Q107 180 107 171ZM320 107V149L256 85L320 21V64H448V107ZM256 213Q256 187 237.5 168.0Q219 149 192.0 149.0Q165 149 146.5 168.0Q128 187 128 213V277Q128 304 146.5 322.5Q165 341 192.0 341.0Q219 341 237.5 322.5Q256 304 256 277ZM213 277Q213 286 207.0 292.5Q201 299 192.0 299.0Q183 299 177.0 292.5Q171 286 171 277V213Q171 204 177.0 198.0Q183 192 192.0 192.0Q201 192 207.0 198.0Q213 204 213 213Z" />
      </g>
    </svg>