<svg xmlns="http://www.w3.org/2000/svg" viewBox="64 21 405 320">
      <g transform="scale(1 -1) translate(0 -362)">
        <path d="M192 341Q165 341 146.5 322.5Q128 304 128 277V213Q128 187 146.5 168.0Q165 149 192.0 149.0Q219 149 237.5 168.0Q256 187 256 213V277Q256 304 237.5 322.5Q219 341 192 341ZM213 213Q213 204 207.0 198.0Q201 192 192.0 192.0Q183 192 177.0 198.0Q171 204 171 213V277Q171 286 177.0 292.5Q183 299 192.0 299.0Q201 299 207.0 292.5Q213 286 213 277ZM341 149Q368 149 386.5 168.0Q405 187 405 213V277Q405 304 386.5 322.5Q368 341 341.5 341.0Q315 341 296.0 322.5Q277 304 277 277V213Q277 187 296.0 168.0Q315 149 341 149ZM320 277Q320 286 326.0 292.5Q332 299 341.0 299.0Q350 299 356.5 292.5Q363 286 363 277V213Q363 204 356.5 198.0Q350 192 341.0 192.0Q332 192 326.0 198.0Q320 204 320 213ZM405 21V64H277V107H405V149L469 85ZM107 171V107H85L64 171Q64 180 70.0 186.0Q76 192 85.0 192.0Q94 192 100.5 186.0Q107 180 107 171Z" />
      </g>
    </svg>