<svg xmlns="http://www.w3.org/2000/svg" viewBox="85 64 342 235">
      <g transform="scale(1 -1) translate(0 -363)">
        <path d="M213 299Q240 299 258.5 280.0Q277 261 277 235V171Q277 144 258.5 125.5Q240 107 213.5 107.0Q187 107 168.0 125.5Q149 144 149 171V235Q149 261 168.0 280.0Q187 299 213 299ZM213 256Q204 256 198.0 250.0Q192 244 192 235V171Q192 162 198.0 155.5Q204 149 213.0 149.0Q222 149 228.5 155.5Q235 162 235 171V235Q235 244 228.5 250.0Q222 256 213 256ZM363 299Q389 299 408.0 280.0Q427 261 427 235V171Q427 144 408.0 125.5Q389 107 362.5 107.0Q336 107 317.5 125.5Q299 144 299 171V235Q299 261 317.5 280.0Q336 299 363 299ZM363 256Q354 256 347.5 250.0Q341 244 341 235V171Q341 162 347.5 155.5Q354 149 363.0 149.0Q372 149 378.0 155.5Q384 162 384 171V235Q384 244 378.0 250.0Q372 256 363 256ZM107 149Q98 149 91.5 143.0Q85 137 85 128L107 64H128V128Q128 137 122.0 143.0Q116 149 107 149Z" />
      </g>
    </svg>