<svg xmlns="http://www.w3.org/2000/svg" viewBox="85 107 342 192">
      <g transform="scale(1 -1) translate(0 -406)">
        <path d="M213 299Q187 299 168.0 280.0Q149 261 149 235V171Q149 144 168.0 125.5Q187 107 213.5 107.0Q240 107 258.5 125.5Q277 144 277 171V235Q277 261 258.5 280.0Q240 299 213 299ZM235 171Q235 162 228.5 155.5Q222 149 213.0 149.0Q204 149 198.0 155.5Q192 162 192 171V235Q192 244 198.0 250.0Q204 256 213.0 256.0Q222 256 228.5 250.0Q235 244 235 235ZM363 299Q336 299 317.5 280.0Q299 261 299 235V171Q299 144 317.5 125.5Q336 107 362.5 107.0Q389 107 408.0 125.5Q427 144 427 171V235Q427 261 408.0 280.0Q389 299 363 299ZM384 171Q384 162 378.0 155.5Q372 149 363.0 149.0Q354 149 347.5 155.5Q341 162 341 171V235Q341 244 347.5 250.0Q354 256 363.0 256.0Q372 256 378.0 250.0Q384 244 384 235ZM128 128Q128 119 122.0 113.0Q116 107 107.0 107.0Q98 107 91.5 113.0Q85 119 85.0 128.0Q85 137 91.5 143.0Q98 149 107.0 149.0Q116 149 122.0 143.0Q128 137 128 128Z" />
      </g>
    </svg>