<svg xmlns="http://www.w3.org/2000/svg" viewBox="64 21 405 320">
      <g transform="scale(1 -1) translate(0 -362)">
        <path d="M469 85 405 21V64H277V107H405V149ZM192 341Q219 341 237.5 322.5Q256 304 256 277V213Q256 187 237.5 168.0Q219 149 192.0 149.0Q165 149 146.5 168.0Q128 187 128 213V277Q128 304 146.5 322.5Q165 341 192 341ZM192 299Q183 299 177.0 292.5Q171 286 171 277V213Q171 204 177.0 198.0Q183 192 192.0 192.0Q201 192 207.0 198.0Q213 204 213 213V277Q213 286 207.0 292.5Q201 299 192 299ZM341 341Q368 341 386.5 322.5Q405 304 405 277V213Q405 187 386.5 168.0Q368 149 341.5 149.0Q315 149 296.0 168.0Q277 187 277 213V277Q277 304 296.0 322.5Q315 341 341 341ZM341 299Q332 299 326.0 292.5Q320 286 320 277V213Q320 204 326.0 198.0Q332 192 341.0 192.0Q350 192 356.5 198.0Q363 204 363 213V277Q363 286 356.5 292.5Q350 299 341 299ZM85 192Q94 192 100.5 186.0Q107 180 107.0 171.0Q107 162 100.5 155.5Q94 149 85.0 149.0Q76 149 70.0 155.5Q64 162 64.0 171.0Q64 180 70.0 186.0Q76 192 85 192Z" />
      </g>
    </svg>