<svg xmlns="http://www.w3.org/2000/svg" viewBox="107 -43 384 427">
      <g transform="scale(1 -1) translate(0 -341)">
        <path d="M320 171H352V111L404 80L388 53L320 92ZM491 107Q491 66 471.0 31.5Q451 -3 416.5 -23.0Q382 -43 341 -43Q311 -43 284.0 -31.5Q257 -20 237 0H171Q153 0 140.5 12.5Q128 25 128 43V299H384V250Q431 236 461.0 196.5Q491 157 491 107ZM341 213Q312 213 287.5 199.0Q263 185 249.0 160.5Q235 136 235.0 107.0Q235 78 249.0 53.5Q263 29 287.5 14.5Q312 0 341.0 0.0Q370 0 394.5 14.5Q419 29 433.5 53.5Q448 78 448.0 107.0Q448 136 433.5 160.5Q419 185 394.5 199.0Q370 213 341 213ZM405 363V320H107V363H181L203 384H309L331 363Z" />
      </g>
    </svg>