<svg xmlns="http://www.w3.org/2000/svg" viewBox="43 -21 426 426">
      <g transform="scale(1 -1) translate(0 -384)">
        <path d="M256 405Q314 405 363.0 376.5Q412 348 440.5 299.0Q469 250 469.0 192.0Q469 134 440.5 85.0Q412 36 363.0 7.5Q314 -21 256.0 -21.0Q198 -21 149.0 7.5Q100 36 71.5 85.0Q43 134 43.0 192.0Q43 250 71.5 299.0Q100 348 149.0 376.5Q198 405 256 405ZM363 299H309L288 320H224L203 299H149V256H363ZM192 64H320Q329 64 335.0 70.0Q341 76 341 85V235H171V85Q171 76 177.0 70.0Q183 64 192 64Z" />
      </g>
    </svg>