<svg xmlns="http://www.w3.org/2000/svg" viewBox="64 0 384 384">
      <g transform="scale(1 -1) translate(0 -384)">
        <path d="M107 384H405Q423 384 435.5 371.5Q448 359 448 341V43Q448 25 435.5 12.5Q423 0 405 0H107Q89 0 76.5 12.5Q64 25 64 43V341Q64 359 76.5 371.5Q89 384 107 384ZM320 341V43H405V341ZM107 341V256H277V341ZM107 213V171H149V213ZM171 213V171H213V213ZM235 213V171H277V213ZM107 149V107H149V149ZM171 149V107H213V149ZM235 149V107H277V149ZM235 85V43H277V85ZM171 85V43H213V85ZM107 85V43H149V85Z" />
      </g>
    </svg>