<svg xmlns="http://www.w3.org/2000/svg" viewBox="107 -21 384 426">
      <g transform="scale(1 -1) translate(0 -384)">
        <path d="M231 405 196 352 220 336 152 235H149Q132 235 119.5 222.5Q107 210 107 192Q107 177 116.5 165.5Q126 154 140 150L227 21H149V-21H363V21H277L182 165Q192 177 192 192Q192 202 188 211L256 312Q252 285 266.5 258.0Q281 231 308 213L403 355Q376 373 345.5 376.0Q315 379 291 365ZM391 299 356 245Q367 238 380.0 240.5Q393 243 400.0 254.0Q407 265 404.5 278.0Q402 291 391 299ZM463 180 418 225 433 240 478 195ZM491 299H427V320H491ZM341 149V213H363V149Z" />
      </g>
    </svg>