<svg xmlns="http://www.w3.org/2000/svg" viewBox="21 64 470 256">
      <g transform="scale(1 -1) translate(0 -384)">
        <path d="M469 64H363Q354 64 347.5 70.0Q341 76 341 85V299Q341 308 347.5 314.0Q354 320 363 320H469Q478 320 484.5 314.0Q491 308 491 299V85Q491 76 484.5 70.0Q478 64 469 64ZM469 277H363V256H469ZM469 235H363V213H469ZM192 128V85H213V64H107V85H128V128H43Q34 128 27.5 134.0Q21 140 21 149V299Q21 308 27.5 314.0Q34 320 43 320H277Q286 320 292.5 314.0Q299 308 299 299V149Q299 140 292.5 134.0Q286 128 277 128ZM256 277H64V171H256Z" />
      </g>
    </svg>