<svg xmlns="http://www.w3.org/2000/svg" viewBox="24 -37 448 448">
      <g transform="scale(1 -1) translate(0 -374)">
        <path d="M192 216 188 211Q192 202 192 192Q192 177 182 165L277 21H363V-21H149V21H227L140 150Q126 154 116.5 165.5Q107 177 107 192Q107 210 119.5 222.5Q132 235 149 235H152L161 247L24 384L51 411L472 -10L445 -37ZM391 299 356 245Q367 238 380.0 240.5Q393 243 400.0 254.0Q407 265 404.5 278.0Q402 291 391 299ZM204 312 235 281 256 312Q252 285 266.5 258.0Q281 231 308 213L403 355Q376 373 345.5 376.0Q315 379 291 365L231 405L196 352L220 336Z" />
      </g>
    </svg>