<svg xmlns="http://www.w3.org/2000/svg" viewBox="43 43 426 277">
      <g transform="scale(1 -1) translate(0 -363)">
        <path d="M64 320H448Q457 320 463.0 313.5Q469 307 469.0 298.5Q469 290 463.0 283.5Q457 277 448 277V43H405V85H320V43H277V277H107V43H64V277Q55 277 49.0 283.5Q43 290 43.0 298.5Q43 307 49.0 313.5Q55 320 64 320ZM341 224V213H384V224Q384 228 381.0 231.5Q378 235 373 235H352Q348 235 344.5 231.5Q341 228 341 224ZM341 139V128H384V139Q384 143 381.0 146.0Q378 149 373 149H352Q348 149 344.5 146.0Q341 143 341 139Z" />
      </g>
    </svg>