<svg xmlns="http://www.w3.org/2000/svg" viewBox="43 -21 426 426">
      <g transform="scale(1 -1) translate(0 -384)">
        <path d="M128 405Q110 405 97.5 392.5Q85 380 85 363V192Q85 174 97.5 161.5Q110 149 128 149H384Q402 149 414.5 161.5Q427 174 427 192V363Q427 380 414.5 392.5Q402 405 384 405ZM128 363H384V192H128ZM85 128Q68 128 55.5 115.5Q43 103 43 85V21Q43 4 55.5 -8.5Q68 -21 85 -21H427Q444 -21 456.5 -8.5Q469 4 469 21V85Q469 103 456.5 115.5Q444 128 427 128ZM171 85H427V21H171ZM192 69V37H277V69ZM320 69V37H405V69Z" />
      </g>
    </svg>