<svg xmlns="http://www.w3.org/2000/svg" viewBox="21 21 470 342">
      <g transform="scale(1 -1) translate(0 -384)">
        <path d="M64 320H448V363H64Q46 363 33.5 350.5Q21 338 21 320V64Q21 46 33.5 33.5Q46 21 64 21H149V64H64ZM277 192H192V154Q171 135 171.0 107.0Q171 79 192 59V21H277V59Q299 79 299.0 107.0Q299 135 277 154ZM235 75Q221 75 212.0 84.0Q203 93 203.0 106.5Q203 120 212.0 129.5Q221 139 234.5 139.0Q248 139 257.5 129.5Q267 120 267.0 106.5Q267 93 257.5 84.0Q248 75 235 75ZM469 277H341Q333 277 326.5 270.5Q320 264 320 256V43Q320 35 326.5 28.0Q333 21 341 21H469Q477 21 484.0 28.0Q491 35 491 43V256Q491 264 484.0 270.5Q477 277 469 277ZM448 64H363V235H448Z" />
      </g>
    </svg>