<svg xmlns="http://www.w3.org/2000/svg" viewBox="43 -21 426 426">
      <g transform="scale(1 -1) translate(0 -384)">
        <path d="M235 405V384Q180 378 137 343L120 359L90 329L107 313Q71 269 64 213H43V171H64Q71 116 107 73L90 57L120 27L136 43Q180 7 235 0V-21H277V0Q332 7 375 43L392 27L422 57L405 73Q441 115 448 171H469V213H448Q441 269 405 312L422 329L392 359L376 343Q333 377 277 384V405ZM235 341V277L213 267L167 313Q198 336 235 341ZM277 341Q315 335 346 313L299 267L277 277ZM137 282 181 235 171 213H107Q112 249 136 283ZM375 282Q399 252 405 213H341L331 235L376 282ZM256 235Q274 235 286.5 222.5Q299 210 299.0 192.0Q299 174 286.5 161.5Q274 149 256.0 149.0Q238 149 225.5 161.5Q213 174 213.0 192.0Q213 210 225.5 222.5Q238 235 256 235ZM107 171H171L183 149L136 103Q113 133 107 171ZM341 171H405Q399 133 376 103L331 149ZM213 117 235 107V43Q197 49 166 73ZM299 117 345 73Q311 47 277 43V107Z" />
      </g>
    </svg>