<svg xmlns="http://www.w3.org/2000/svg" viewBox="85 -43 342 470">
      <g transform="scale(1 -1) translate(0 -384)">
        <path d="M256 43Q238 43 225.5 30.5Q213 18 213.0 0.0Q213 -18 225.5 -30.5Q238 -43 256.0 -43.0Q274 -43 286.5 -30.5Q299 -18 299.0 0.0Q299 18 286.5 30.5Q274 43 256 43ZM128 427Q110 427 97.5 414.5Q85 402 85.0 384.0Q85 366 97.5 353.5Q110 341 128.0 341.0Q146 341 158.5 353.5Q171 366 171.0 384.0Q171 402 158.5 414.5Q146 427 128 427ZM128 299Q110 299 97.5 286.5Q85 274 85.0 256.0Q85 238 97.5 225.5Q110 213 128.0 213.0Q146 213 158.5 225.5Q171 238 171.0 256.0Q171 274 158.5 286.5Q146 299 128 299ZM128 171Q110 171 97.5 158.5Q85 146 85.0 128.0Q85 110 97.5 97.5Q110 85 128.0 85.0Q146 85 158.5 97.5Q171 110 171.0 128.0Q171 146 158.5 158.5Q146 171 128 171ZM384 341Q402 341 414.5 353.5Q427 366 427.0 384.0Q427 402 414.5 414.5Q402 427 384.0 427.0Q366 427 353.5 414.5Q341 402 341.0 384.0Q341 366 353.5 353.5Q366 341 384 341ZM256 171Q238 171 225.5 158.5Q213 146 213.0 128.0Q213 110 225.5 97.5Q238 85 256.0 85.0Q274 85 286.5 97.5Q299 110 299.0 128.0Q299 146 286.5 158.5Q274 171 256 171ZM384 171Q366 171 353.5 158.5Q341 146 341.0 128.0Q341 110 353.5 97.5Q366 85 384.0 85.0Q402 85 414.5 97.5Q427 110 427.0 128.0Q427 146 414.5 158.5Q402 171 384 171ZM384 299Q366 299 353.5 286.5Q341 274 341.0 256.0Q341 238 353.5 225.5Q366 213 384.0 213.0Q402 213 414.5 225.5Q427 238 427.0 256.0Q427 274 414.5 286.5Q402 299 384 299ZM256 299Q238 299 225.5 286.5Q213 274 213.0 256.0Q213 238 225.5 225.5Q238 213 256.0 213.0Q274 213 286.5 225.5Q299 238 299.0 256.0Q299 274 286.5 286.5Q274 299 256 299ZM256 427Q238 427 225.5 414.5Q213 402 213.0 384.0Q213 366 225.5 353.5Q238 341 256.0 341.0Q274 341 286.5 353.5Q299 366 299.0 384.0Q299 402 286.5 414.5Q274 427 256 427Z" />
      </g>
    </svg>