<svg xmlns="http://www.w3.org/2000/svg" viewBox="43 -34 426 452">
      <g transform="scale(1 -1) translate(0 -384)">
        <path d="M89 -10 117 30Q82 60 62.5 102.0Q43 144 43 192Q43 234 59.0 273.5Q75 313 105.0 343.0Q135 373 174.5 389.0Q214 405 256 405Q312 405 360 378L388 418L423 394L395 354Q430 324 449.5 282.0Q469 240 469 192Q469 150 453.0 110.5Q437 71 407.0 41.0Q377 11 337.5 -5.0Q298 -21 256 -21Q200 -21 152 6L124 -34ZM256 363Q210 363 170.5 340.0Q131 317 108.0 277.5Q85 238 85 192Q85 155 100.0 122.0Q115 89 141 65L336 343Q299 363 256 363ZM256 21Q302 21 341.5 44.0Q381 67 404.0 106.5Q427 146 427 192Q427 229 412.0 262.0Q397 295 371 319L176 41Q213 21 256 21Z" />
      </g>
    </svg>