<svg xmlns="http://www.w3.org/2000/svg" viewBox="43 -21 426 426">
      <g transform="scale(1 -1) translate(0 -384)">
        <path d="M256 405Q239 405 226 393L55 222Q43 210 43.0 192.0Q43 174 55 162L226 -9Q238 -21 256.0 -21.0Q274 -21 286 -9L457 162Q469 174 469.0 192.0Q469 210 457 222L286 393Q273 405 256 405ZM256 272Q277 272 292.0 258.5Q307 245 307 227Q307 216 301.5 206.5Q296 197 287 191Q298 184 304.5 174.0Q311 164 311 151Q311 132 295.0 118.5Q279 105 256.0 105.0Q233 105 217.0 118.5Q201 132 201 151Q201 164 207.5 174.0Q214 184 225 191Q205 204 205 227Q205 245 220.0 258.5Q235 272 256 272ZM256 245Q248 245 242.5 239.0Q237 233 237.0 224.0Q237 215 242.5 209.0Q248 203 256.0 203.0Q264 203 269.5 209.0Q275 215 275.0 224.0Q275 233 269.5 239.0Q264 245 256 245ZM256 178Q246 178 239.5 171.0Q233 164 233.0 154.5Q233 145 239.5 138.0Q246 131 256.0 131.0Q266 131 272.5 138.0Q279 145 279.0 154.5Q279 164 272.5 171.0Q266 178 256 178Z" />
      </g>
    </svg>