<svg xmlns="http://www.w3.org/2000/svg" viewBox="64 0 384 384">
      <g transform="scale(1 -1) translate(0 -384)">
        <path d="M405 341V43H107V341ZM405 384H107Q89 384 76.5 371.5Q64 359 64 341V43Q64 25 76.5 12.5Q89 0 107 0H405Q423 0 435.5 12.5Q448 25 448 43V341Q448 359 435.5 371.5Q423 384 405 384ZM256 224Q243 224 233.5 214.5Q224 205 224.0 192.0Q224 179 233.5 169.5Q243 160 256.0 160.0Q269 160 278.5 169.5Q288 179 288.0 192.0Q288 205 278.5 214.5Q269 224 256 224ZM160 320Q147 320 137.5 310.5Q128 301 128.0 288.0Q128 275 137.5 265.5Q147 256 160.0 256.0Q173 256 182.5 265.5Q192 275 192.0 288.0Q192 301 182.5 310.5Q173 320 160 320ZM352 128Q339 128 329.5 118.5Q320 109 320.0 96.0Q320 83 329.5 73.5Q339 64 352.0 64.0Q365 64 374.5 73.5Q384 83 384.0 96.0Q384 109 374.5 118.5Q365 128 352 128Z" />
      </g>
    </svg>