<svg xmlns="http://www.w3.org/2000/svg" viewBox="64 -21 384 426">
      <g transform="scale(1 -1) translate(0 -384)">
        <path d="M437 307 268 401Q263 405 256.0 405.0Q249 405 244 401L75 307Q64 301 64 288V96Q64 83 75 77L244 -17Q249 -21 256.0 -21.0Q263 -21 268 -17L437 77Q448 83 448 96V288Q448 301 437 307ZM244 108H135V130L154 149Q175 172 189 189Q208 213 208 223Q208 239 197 244Q192 247 186 246L181 245Q174 243 170 238Q164 231 163 220L131 218L132 227Q134 237 138 245Q145 257 156 263Q169 272 188 272Q221 272 233 252Q240 241 240.0 224.5Q240 208 223 184Q210 168 191 149L174 133H244ZM373 160Q373 138 357.0 122.0Q341 106 318.5 106.0Q296 106 280.0 122.0Q264 138 264 160V217Q264 240 280.0 256.0Q296 272 318.5 272.0Q341 272 357.0 256.0Q373 240 373 217ZM341 218V159Q341 150 334.5 143.5Q328 137 318.5 137.0Q309 137 302.5 143.5Q296 150 296 159V218Q296 228 302.5 234.5Q309 241 318.5 241.0Q328 241 334.5 234.5Q341 228 341 218Z" />
      </g>
    </svg>