<svg xmlns="http://www.w3.org/2000/svg" viewBox="64 -21 384 426">
      <g transform="scale(1 -1) translate(0 -384)">
        <path d="M448 96Q448 83 437 77L268 -17Q263 -21 256.0 -21.0Q249 -21 244 -17L75 77Q64 83 64 96V288Q64 301 75 307L244 401Q249 405 256.0 405.0Q263 405 268 401L437 307Q448 301 448 288ZM256 359 107 275V109L256 25L405 109V275ZM319 272Q341 272 357.0 255.5Q373 239 373 217V160Q373 138 357.0 122.0Q341 106 318.5 106.0Q296 106 280.0 122.0Q264 138 264 160V217Q264 239 280.0 255.5Q296 272 319 272ZM318 241Q309 241 302.5 234.5Q296 228 296 218V159Q296 150 302.5 143.5Q309 137 318.5 137.0Q328 137 334.5 143.5Q341 150 341 159V218Q341 228 334.5 234.5Q328 241 318 241ZM244 133V108H135V130L154 149Q175 172 189 189Q208 213 208 223Q208 239 197 244Q192 247 186 246L181 245Q174 243 170 238Q164 231 163 220L131 218L132 227Q134 237 138 245Q145 257 156 263Q169 272 188 272Q221 272 233 252Q240 241 240.0 224.5Q240 208 223 184Q210 168 191 149L174 133Z" />
      </g>
    </svg>