<svg xmlns="http://www.w3.org/2000/svg" viewBox="43 -21 426 426">
      <g transform="scale(1 -1) translate(0 -384)">
        <path d="M224 107H192V230L154 218V245L221 269H224ZM300 273Q323 273 339.0 257.0Q355 241 355 218V162Q355 139 339.0 123.0Q323 107 300.0 107.0Q277 107 261.0 123.0Q245 139 245 162V218Q245 241 261.0 257.0Q277 273 300 273ZM300 242Q291 242 284.0 235.5Q277 229 277 220V160Q277 151 284.0 144.5Q291 138 300.0 138.0Q309 138 316.0 144.5Q323 151 323 160V220Q323 229 316.0 235.5Q309 242 300 242ZM256 405Q239 405 226 393L55 222Q43 210 43.0 192.0Q43 174 55 162L226 -9Q238 -21 256.0 -21.0Q274 -21 286 -9L457 162Q469 174 469.0 192.0Q469 210 457 222L286 393Q273 405 256 405ZM256 363 427 192 256 21 85 192Z" />
      </g>
    </svg>