<svg xmlns="http://www.w3.org/2000/svg" viewBox="64 0 384 384">
      <g transform="scale(1 -1) translate(0 -384)">
        <path d="M107 384H405Q423 384 435.5 371.5Q448 359 448 341V43Q448 25 435.5 12.5Q423 0 405 0H107Q89 0 76.5 12.5Q64 25 64 43V341Q64 359 76.5 371.5Q89 384 107 384ZM107 341V43H405V341ZM286 245Q267 245 255 238Q245 233 239 224Q234 217 233 209L232 202L236 206Q241 210 247 212Q257 216 267 216Q282 216 294 205Q310 190 310.5 162.0Q311 134 292 118Q282 109 272 107L261 105Q247 105 235 109Q219 114 210 129Q198 147 198 178Q199 223 221 247Q237 264 263 269Q276 271 286 270ZM255 190Q248 191 242.5 187.5Q237 184 234 180L231 175V160Q231 148 238.5 140.0Q246 132 256.0 132.0Q266 132 272.0 140.0Q278 148 278.0 160.0Q278 172 271.5 181.0Q265 190 255 190Z" />
      </g>
    </svg>