<svg xmlns="http://www.w3.org/2000/svg" viewBox="64 0 384 384">
      <g transform="scale(1 -1) translate(0 -384)">
        <path d="M107 384H405Q423 384 435.5 371.5Q448 359 448 341V43Q448 25 435.5 12.5Q423 0 405 0H107Q89 0 76.5 12.5Q64 25 64 43V341Q64 359 76.5 371.5Q89 384 107 384ZM256 235Q238 235 225.5 222.5Q213 210 213.0 192.0Q213 174 225.5 161.5Q238 149 256.0 149.0Q274 149 286.5 161.5Q299 174 299.0 192.0Q299 210 286.5 222.5Q274 235 256 235ZM149 341Q132 341 119.5 328.5Q107 316 107.0 298.5Q107 281 119.5 268.5Q132 256 149.5 256.0Q167 256 179.5 268.5Q192 281 192.0 298.5Q192 316 179.5 328.5Q167 341 149 341ZM363 128Q345 128 332.5 115.5Q320 103 320.0 85.5Q320 68 332.5 55.5Q345 43 362.5 43.0Q380 43 392.5 55.5Q405 68 405.0 85.5Q405 103 392.5 115.5Q380 128 363 128Z" />
      </g>
    </svg>