<svg xmlns="http://www.w3.org/2000/svg" viewBox="64 0 384 384">
      <g transform="scale(1 -1) translate(0 -384)">
        <path d="M278 160Q278 148 272.0 140.0Q266 132 256.0 132.0Q246 132 238.5 140.0Q231 148 231 160V175L234 180Q237 184 242.5 187.5Q248 191 255 190Q265 190 271.5 181.0Q278 172 278 160ZM448 341V43Q448 25 435.5 12.5Q423 0 405 0H107Q89 0 76.5 12.5Q64 25 64 43V341Q64 359 76.5 371.5Q89 384 107 384H405Q423 384 435.5 371.5Q448 359 448 341ZM310 162Q310 190 294 205Q282 216 267 216Q257 216 247 212Q241 210 236 206L232 202L233 209Q234 217 239 224Q245 233 255 238Q267 245 286 245V270H272Q256 268 242 262Q223 253 212 235Q199 213 198 178Q198 147 210 129Q219 114 235 109Q247 105 261 105L272 107L283 111Q294 118 301 128Q311 142 310 162Z" />
      </g>
    </svg>