<svg xmlns="http://www.w3.org/2000/svg" viewBox="64 0 384 384">
      <g transform="scale(1 -1) translate(0 -384)">
        <path d="M299 277Q290 277 283.5 283.5Q277 290 277.0 298.5Q277 307 283.5 313.5Q290 320 298.5 320.0Q307 320 313.5 313.5Q320 307 320.0 298.5Q320 290 313.5 283.5Q307 277 299 277ZM256 192V43H107V192ZM273 235H90Q79 235 71.5 227.0Q64 219 64 209V26Q64 15 71.5 7.5Q79 0 90 0H273Q283 0 291.0 7.5Q299 15 299 26V209Q299 219 291.0 227.0Q283 235 273 235ZM422 384H239Q229 384 221.0 376.5Q213 369 213 358V277H256V341H405V192H341V149H422Q433 149 440.5 157.0Q448 165 448 175V358Q448 369 440.5 376.5Q433 384 422 384ZM363 277Q354 277 347.5 283.5Q341 290 341.0 298.5Q341 307 347.5 313.5Q354 320 362.5 320.0Q371 320 377.5 313.5Q384 307 384.0 298.5Q384 290 377.5 283.5Q371 277 363 277ZM363 213Q354 213 347.5 219.5Q341 226 341.0 234.5Q341 243 347.5 249.5Q354 256 362.5 256.0Q371 256 377.5 249.5Q384 243 384.0 234.5Q384 226 377.5 219.5Q371 213 363 213ZM149 128Q141 128 134.5 134.5Q128 141 128.0 149.5Q128 158 134.5 164.5Q141 171 149.5 171.0Q158 171 164.5 164.5Q171 158 171.0 149.5Q171 141 164.5 134.5Q158 128 149 128ZM213 64Q205 64 198.5 70.5Q192 77 192.0 85.5Q192 94 198.5 100.5Q205 107 213.5 107.0Q222 107 228.5 100.5Q235 94 235.0 85.5Q235 77 228.5 70.5Q222 64 213 64Z" />
      </g>
    </svg>