<svg xmlns="http://www.w3.org/2000/svg" viewBox="64 0 384 384">
      <g transform="scale(1 -1) translate(0 -384)">
        <path d="M107 384H405Q423 384 435.5 371.5Q448 359 448 341V43Q448 25 435.5 12.5Q423 0 405 0H107Q89 0 76.5 12.5Q64 25 64 43V341Q64 359 76.5 371.5Q89 384 107 384ZM149 341Q132 341 119.5 328.5Q107 316 107.0 298.5Q107 281 119.5 268.5Q132 256 149.5 256.0Q167 256 179.5 268.5Q192 281 192.0 298.5Q192 316 179.5 328.5Q167 341 149 341ZM363 128Q345 128 332.5 115.5Q320 103 320.0 85.5Q320 68 332.5 55.5Q345 43 362.5 43.0Q380 43 392.5 55.5Q405 68 405.0 85.5Q405 103 392.5 115.5Q380 128 363 128ZM363 235Q345 235 332.5 222.5Q320 210 320.0 192.0Q320 174 332.5 161.5Q345 149 362.5 149.0Q380 149 392.5 161.5Q405 174 405.0 192.0Q405 210 392.5 222.5Q380 235 363 235ZM363 341Q345 341 332.5 328.5Q320 316 320.0 298.5Q320 281 332.5 268.5Q345 256 362.5 256.0Q380 256 392.5 268.5Q405 281 405.0 298.5Q405 316 392.5 328.5Q380 341 363 341ZM149 235Q132 235 119.5 222.5Q107 210 107.0 192.0Q107 174 119.5 161.5Q132 149 149.5 149.0Q167 149 179.5 161.5Q192 174 192.0 192.0Q192 210 179.5 222.5Q167 235 149 235ZM149 128Q132 128 119.5 115.5Q107 103 107.0 85.5Q107 68 119.5 55.5Q132 43 149.5 43.0Q167 43 179.5 55.5Q192 68 192.0 85.5Q192 103 179.5 115.5Q167 128 149 128Z" />
      </g>
    </svg>