<svg xmlns="http://www.w3.org/2000/svg" viewBox="64 0 384 384">
      <g transform="scale(1 -1) translate(0 -384)">
        <path d="M422 384H239Q229 384 221.0 376.5Q213 369 213 358V277H341V149H422Q433 149 440.5 157.0Q448 165 448 175V358Q448 369 440.5 376.5Q433 384 422 384ZM265 306Q255 306 247.0 313.5Q239 321 239.0 332.0Q239 343 247.0 350.5Q255 358 265.5 358.0Q276 358 284.0 350.5Q292 343 292.0 332.0Q292 321 284.0 313.5Q276 306 265 306ZM396 175Q385 175 377.5 182.5Q370 190 369.5 201.0Q369 212 377.0 220.0Q385 228 395.5 228.0Q406 228 414.0 220.5Q422 213 422.0 202.0Q422 191 414.5 183.5Q407 176 396 175ZM396 306Q385 306 377.5 313.5Q370 321 369.5 332.0Q369 343 377.0 350.5Q385 358 395.5 358.0Q406 358 414.0 350.5Q422 343 422.0 332.0Q422 321 414.5 313.5Q407 306 396 306ZM90 235H273Q283 235 291.0 227.0Q299 219 299 209V26Q299 15 291.0 7.5Q283 0 273 0H90Q79 0 71.5 7.5Q64 15 64 26V209Q64 219 71.5 227.0Q79 235 90 235ZM181 143Q171 143 163.0 135.5Q155 128 155.0 117.5Q155 107 163.0 99.0Q171 91 181.5 91.0Q192 91 199.5 99.0Q207 107 207.0 117.5Q207 128 199.5 135.5Q192 143 181 143ZM116 209Q105 209 97.5 201.0Q90 193 90.0 182.5Q90 172 97.5 164.5Q105 157 116.0 157.0Q127 157 134.5 164.5Q142 172 142 183Q142 193 134.5 201.0Q127 209 116 209ZM246 78Q236 78 228.0 70.5Q220 63 220.0 52.5Q220 42 228.0 34.0Q236 26 246.5 26.0Q257 26 264.5 33.5Q272 41 272 52Q272 63 264.5 70.5Q257 78 247 78Z" />
      </g>
    </svg>