<svg xmlns="http://www.w3.org/2000/svg" viewBox="43 -21 426 426">
      <g transform="scale(1 -1) translate(0 -384)">
        <path d="M128 192H43Q43 250 71.5 299.0Q100 348 149.0 376.5Q198 405 256.0 405.0Q314 405 363.0 376.5Q412 348 440.5 299.0Q469 250 469.0 192.0Q469 134 440.5 85.0Q412 36 363.0 7.5Q314 -21 256 -21V64H171V149H256V64Q291 64 320.5 81.0Q350 98 367.0 127.5Q384 157 384.0 192.0Q384 227 367.0 256.5Q350 286 320.5 303.0Q291 320 256.0 320.0Q221 320 191.5 303.0Q162 286 145.0 256.5Q128 227 128 192ZM171 64V0H107V64ZM64 107H107V64H64Z" />
      </g>
    </svg>