<svg xmlns="http://www.w3.org/2000/svg" viewBox="43 21 426 342">
      <g transform="scale(1 -1) translate(0 -384)">
        <path d="M213 149Q196 149 183.5 161.5Q171 174 171.0 192.0Q171 210 183.5 222.5Q196 235 213.5 235.0Q231 235 243.5 222.5Q256 210 256.0 192.0Q256 174 243.5 161.5Q231 149 213 149ZM213 363Q167 363 128.0 340.0Q89 317 66.0 277.5Q43 238 43.0 192.0Q43 146 66.0 106.5Q89 67 128.0 44.0Q167 21 213.0 21.0Q259 21 298.5 44.0Q338 67 361.0 106.5Q384 146 384.0 192.0Q384 238 361.0 277.5Q338 317 298.5 340.0Q259 363 213 363ZM427 171H469V299H427ZM427 85H469V128H427Z" />
      </g>
    </svg>