<svg xmlns="http://www.w3.org/2000/svg" viewBox="43 -21 426 448">
      <g transform="scale(1 -1) translate(0 -406)">
        <path d="M309 227Q326 227 337.5 238.5Q349 250 349.0 266.5Q349 283 337.5 295.0Q326 307 309.5 307.0Q293 307 281.0 295.0Q269 283 269.0 266.5Q269 250 281.0 238.5Q293 227 309 227ZM309 427Q353 427 389.5 405.5Q426 384 447.5 347.0Q469 310 469 267Q469 233 455.5 202.5Q442 172 418 149H201Q177 172 163.0 202.5Q149 233 149 267Q149 310 170.5 347.0Q192 384 229.0 405.5Q266 427 309 427ZM128 0V-21H85V0H43V128H469V0H427V-21H384V0ZM85 64V43H277V64ZM320 85V43H363V85ZM405 85Q396 85 390.0 79.0Q384 73 384.0 64.0Q384 55 390.0 49.0Q396 43 405.0 43.0Q414 43 420.5 49.0Q427 55 427.0 64.0Q427 73 420.5 79.0Q414 85 405 85Z" />
      </g>
    </svg>