<svg xmlns="http://www.w3.org/2000/svg" viewBox="24 -37 448 448">
      <g transform="scale(1 -1) translate(0 -374)">
        <path d="M472 -10 51 411 24 384 85 322V21Q85 4 97.5 -8.5Q110 -21 128 -21H384Q403 -21 415 -7L445 -37ZM384 21H128V277H130L224 184Q218 174 213 164Q201 144 199.5 121.0Q198 98 215.0 81.0Q232 64 256.0 64.0Q280 64 297 81Q304 88 309 99L384 24ZM239 277H384V132L427 90V363Q427 380 414.5 392.5Q402 405 384 405H128Q121 405 114 403ZM213 363Q222 363 228.5 356.5Q235 350 235.0 341.5Q235 333 228.5 326.5Q222 320 213.5 320.0Q205 320 198.5 326.5Q192 333 192.0 341.5Q192 350 198.5 356.5Q205 363 213 363Z" />
      </g>
    </svg>