<svg xmlns="http://www.w3.org/2000/svg" viewBox="43 -21 426 426">
      <g transform="scale(1 -1) translate(0 -384)">
        <path d="M341 405H85Q68 405 55.5 392.5Q43 380 43 363V21Q43 4 55.5 -8.5Q68 -21 85 -21H341Q359 -21 371.5 -8.5Q384 4 384 21V363Q384 380 371.5 392.5Q359 405 341 405ZM171 363Q179 363 185.5 356.5Q192 350 192.0 341.5Q192 333 185.5 326.5Q179 320 170.5 320.0Q162 320 155.5 326.5Q149 333 149.0 341.5Q149 350 155.5 356.5Q162 363 171 363ZM107 363Q115 363 121.5 356.5Q128 350 128.0 341.5Q128 333 121.5 326.5Q115 320 106.5 320.0Q98 320 91.5 326.5Q85 333 85.0 341.5Q85 350 91.5 356.5Q98 363 107 363ZM341 21H85V277H341ZM270 121Q271 98 254.0 81.0Q237 64 213.5 64.0Q190 64 173.0 81.0Q156 98 157.5 121.0Q159 144 171 164Q182 190 199 213L213 235Q270 152 270 121ZM427 128H469V85H427ZM427 299H469V171H427Z" />
      </g>
    </svg>