<svg xmlns="http://www.w3.org/2000/svg" viewBox="85 -21 342 426">
      <g transform="scale(1 -1) translate(0 -384)">
        <path d="M384 405H128Q110 405 97.5 392.5Q85 380 85 363V21Q85 4 97.5 -8.5Q110 -21 128 -21H384Q402 -21 414.5 -8.5Q427 4 427 21V363Q427 380 414.5 392.5Q402 405 384 405ZM213 363Q222 363 228.5 356.5Q235 350 235.0 341.0Q235 332 228.5 326.0Q222 320 213.0 320.0Q204 320 198.0 326.0Q192 332 192.0 341.0Q192 350 198.0 356.5Q204 363 213 363ZM149 363Q158 363 164.5 356.5Q171 350 171.0 341.0Q171 332 164.5 326.0Q158 320 149.0 320.0Q140 320 134.0 326.0Q128 332 128.0 341.0Q128 350 134.0 356.5Q140 363 149 363ZM384 21H128V277H384ZM313 121Q314 98 297.0 81.0Q280 64 256.0 64.0Q232 64 215.0 81.0Q198 98 199.5 121.0Q201 144 213 164Q225 190 242 213L256 235Q313 152 313 121Z" />
      </g>
    </svg>