<svg xmlns="http://www.w3.org/2000/svg" viewBox="30 -21 439 426">
      <g transform="scale(1 -1) translate(0 -384)">
        <path d="M258 -21Q219 -21 184.0 -8.0Q149 5 121 29L30 17L65 103Q46 147 46 192Q46 250 74.5 299.0Q103 348 151.5 376.5Q200 405 257.5 405.0Q315 405 363.5 376.5Q412 348 440.5 299.0Q469 250 469.0 192.0Q469 134 440.5 85.0Q412 36 363.5 7.5Q315 -21 258 -21ZM373 193Q373 240 341.5 269.5Q310 299 255 299H174V85H254Q309 85 341.0 115.0Q373 145 373 193ZM256 138H232V246H256Q282 246 298.0 231.5Q314 217 314 192Q314 166 298.0 152.0Q282 138 256 138Z" />
      </g>
    </svg>