<svg xmlns="http://www.w3.org/2000/svg" viewBox="43 -21 426 426">
      <g transform="scale(1 -1) translate(0 -384)">
        <path d="M405 405V363H256Q238 363 225.5 350.5Q213 338 213 320V256H256V320H405V277L469 341ZM405 256V213H299V171H405V128L469 192ZM236 235Q218 235 205.5 222.5Q193 210 192.5 192.0Q192 174 204.5 161.5Q217 149 234.5 149.0Q252 149 264.5 161.5Q277 174 277.0 191.5Q277 209 265.0 221.5Q253 234 236 235ZM43 213V171H171V213ZM213 128V64Q213 46 225.5 33.5Q238 21 256 21H405V-21L469 43L405 107V64H256V128Z" />
      </g>
    </svg>