<svg xmlns="http://www.w3.org/2000/svg" viewBox="43 -21 426 426">
      <g transform="scale(1 -1) translate(0 -384)">
        <path d="M341 384H85Q68 384 55.5 371.5Q43 359 43 341V235Q43 217 55.5 204.5Q68 192 85 192H153Q159 192 164.5 188.5Q170 185 173 179Q178 162 194.0 154.0Q210 146 227 151Q247 158 254 179Q256 185 261.5 188.5Q267 192 274 192H341Q359 192 371.5 204.5Q384 217 384 235V341Q384 359 371.5 371.5Q359 384 341 384ZM341 235H242Q238 243 230.5 249.0Q223 255 213 256Q204 255 196.5 249.0Q189 243 185 235H85V341H341ZM469 405V117Q469 80 450.5 48.0Q432 16 400.0 -2.5Q368 -21 331 -21Q303 -21 278.0 -10.5Q253 0 233 19Q201 11 171.0 23.0Q141 35 122 61L163 79Q177 64 196.5 60.0Q216 56 235 64Q241 67 247 71Q260 81 267.0 96.0Q274 111 273 128L313 146Q320 116 309.5 87.0Q299 58 275 39Q300 21 331 21Q371 21 399.0 49.0Q427 77 427 117V405Z" />
      </g>
    </svg>