<svg xmlns="http://www.w3.org/2000/svg" viewBox="85 -21 384 405">
      <g transform="scale(1 -1) translate(0 -363)">
        <path d="M256 128Q277 128 293.5 116.0Q310 104 316 85H384Q419 85 444.0 60.0Q469 35 469 0V-21H427V0Q427 18 414.5 30.5Q402 43 384 43H316Q310 24 293.5 12.0Q277 0 256 0Q229 0 210.5 18.5Q192 37 192.0 64.0Q192 91 210.5 109.5Q229 128 256 128ZM256 85Q247 85 241.0 79.0Q235 73 235.0 64.0Q235 55 241.0 49.0Q247 43 256.0 43.0Q265 43 271.0 49.0Q277 55 277.0 64.0Q277 73 271.0 79.0Q265 85 256 85ZM384 384Q402 384 414.5 371.5Q427 359 427 341V235Q427 217 414.5 204.5Q402 192 384 192H317Q310 192 304.5 188.5Q299 185 297 179Q290 158 269 151Q253 146 237.0 154.0Q221 162 215 179Q213 185 207.5 188.5Q202 192 195 192H128Q110 192 97.5 204.5Q85 217 85 235V341Q85 359 97.5 371.5Q110 384 128 384ZM384 235V341H128V235H227Q231 243 239.0 249.0Q247 255 256 256Q265 255 273.0 249.0Q281 243 285 235Z" />
      </g>
    </svg>