<svg xmlns="http://www.w3.org/2000/svg" viewBox="85 -21 384 426">
      <g transform="scale(1 -1) translate(0 -384)">
        <path d="M341 192Q341 157 316.0 132.0Q291 107 256.0 107.0Q221 107 196.0 132.0Q171 157 171.0 192.0Q171 227 196.0 252.0Q221 277 256.0 277.0Q291 277 316.0 252.0Q341 227 341 192ZM415 280 385 265 391 256H427V128H391Q375 95 346 73Q401 55 420 24Q404 4 358.5 -8.5Q313 -21 256.0 -21.0Q199 -21 153.5 -8.5Q108 4 92 24Q111 55 166 73Q137 95 121 128H85V256H121Q144 304 192 327V363H320V327Q341 317 359 299L396 317Q416 328 422 350Q427 366 427 405H469Q469 375 467 359Q464 333 453 315Q440 292 415 280ZM363 192Q363 221 348.5 245.5Q334 270 309.5 284.5Q285 299 256.0 299.0Q227 299 202.5 284.5Q178 270 163.5 245.5Q149 221 149.0 192.0Q149 163 163.5 138.5Q178 114 202.5 99.5Q227 85 256.0 85.0Q285 85 309.5 99.5Q334 114 348.5 138.5Q363 163 363 192Z" />
      </g>
    </svg>