<svg xmlns="http://www.w3.org/2000/svg" viewBox="64 0 384 384">
      <g transform="scale(1 -1) translate(0 -384)">
        <path d="M363 171V213H149V171ZM405 384Q423 384 435.5 371.5Q448 359 448 341V43Q448 25 435.5 12.5Q423 0 405 0H107Q89 0 76.5 12.5Q64 25 64 43V341Q64 359 76.5 371.5Q89 384 107 384ZM256 299Q247 299 241.0 292.5Q235 286 235.0 277.0Q235 268 241.0 262.0Q247 256 256.0 256.0Q265 256 271.0 262.0Q277 268 277.0 277.0Q277 286 271.0 292.5Q265 299 256 299ZM256 128Q247 128 241.0 122.0Q235 116 235.0 107.0Q235 98 241.0 91.5Q247 85 256.0 85.0Q265 85 271.0 91.5Q277 98 277.0 107.0Q277 116 271.0 122.0Q265 128 256 128Z" />
      </g>
    </svg>