<svg xmlns="http://www.w3.org/2000/svg" viewBox="128 -21 277 426">
      <g transform="scale(1 -1) translate(0 -384)">
        <path d="M405 53Q405 31 389.5 15.5Q374 0 352.0 0.0Q330 0 314.5 15.5Q299 31 299 53Q299 70 307.5 83.0Q316 96 331 102V320H235V291Q254 282 265.5 264.0Q277 246 277 224V-21H128V224Q128 246 139.5 264.0Q151 282 171 291V320H128V363H171V373Q171 387 180.0 396.0Q189 405 202.5 405.0Q216 405 225.5 396.0Q235 387 235 373V363H331Q348 363 360.5 350.5Q373 338 373 320V102Q388 96 396.5 83.0Q405 70 405 53Z" />
      </g>
    </svg>