<svg xmlns="http://www.w3.org/2000/svg" viewBox="21 -43 470 448">
      <g transform="scale(1 -1) translate(0 -362)">
        <path d="M21 171Q21 188 33.5 200.5Q46 213 64.0 213.0Q82 213 94.5 200.5Q107 188 107.0 170.5Q107 153 94.5 140.5Q82 128 64.0 128.0Q46 128 33.5 140.5Q21 153 21 171ZM190 232 286 258 270 320 173 294Q160 291 153.5 279.5Q147 268 150.5 255.0Q154 242 165.5 235.5Q177 229 190 232ZM437 322 491 384 469 405 405 341 363 256 160 195Q147 192 138.5 182.0Q130 172 128 159L112 64L51 -17L85 -43L149 43L174 110L299 149L405 224Z" />
      </g>
    </svg>