<svg xmlns="http://www.w3.org/2000/svg" viewBox="107 43 298 298">
      <g transform="scale(1 -1) translate(0 -384)">
        <path d="M405 171H107V213H405ZM256 341Q274 341 286.5 328.5Q299 316 299.0 298.5Q299 281 286.5 268.5Q274 256 256.0 256.0Q238 256 225.5 268.5Q213 281 213.0 298.5Q213 316 225.5 328.5Q238 341 256 341ZM256 128Q274 128 286.5 115.5Q299 103 299.0 85.5Q299 68 286.5 55.5Q274 43 256.0 43.0Q238 43 225.5 55.5Q213 68 213.0 85.5Q213 103 225.5 115.5Q238 128 256 128Z" />
      </g>
    </svg>