<svg xmlns="http://www.w3.org/2000/svg" viewBox="21 -34 470 440">
      <g transform="scale(1 -1) translate(0 -372)">
        <path d="M433 370Q422 372 403.5 387.0Q385 402 375.0 404.5Q365 407 341.5 401.0Q318 395 308 397Q291 403 273.5 401.0Q256 399 241 390L239 85L235 64Q229 38 243.5 15.5Q258 -7 283.5 -12.5Q309 -18 331.5 -3.5Q354 11 360 36L364 58L491 335Q481 350 465.5 359.0Q450 368 433 370ZM318 46Q316 37 308.5 32.0Q301 27 292.0 29.0Q283 31 278.0 38.5Q273 46 275 55L294 139Q295 147 302.5 152.0Q310 157 318.5 156.0Q327 155 332.0 147.5Q337 140 336 131ZM207 -7Q195 13 192 35L176 107Q174 115 178.5 123.0Q183 131 192 133Q194 133 197 133V375Q188 375 171 379Q146 385 137.0 383.0Q128 381 110 367Q90 351 79 349Q62 347 46.5 338.0Q31 329 21 314L148 37L152 15Q158 -11 180.5 -25.0Q203 -39 228 -33H231Q216 -21 207 -7Z" />
      </g>
    </svg>