<svg xmlns="http://www.w3.org/2000/svg" viewBox="43 -21 405 426">
      <g transform="scale(1 -1) translate(0 -384)">
        <path d="M283 337H284Q290 343 299.0 342.5Q308 342 314 335L362 277H427Q435 277 441.5 271.0Q448 265 448.0 256.0Q448 247 441.5 241.0Q435 235 427 235H352Q341 235 334 244L302 282L248 232L311 188Q320 182 320 171V85Q320 77 313.5 70.5Q307 64 298.5 64.0Q290 64 283.5 70.5Q277 77 277 85V160L208 208Q193 218 192.0 236.5Q191 255 205 268ZM352 341Q365 341 374.5 350.5Q384 360 384.0 373.5Q384 387 374.5 396.0Q365 405 352.0 405.0Q339 405 329.5 396.0Q320 387 320.0 373.5Q320 360 329.5 350.5Q339 341 352 341ZM128 43H107Q80 43 61.5 24.0Q43 5 43 -21H128V11H320V43Z" />
      </g>
    </svg>