<svg xmlns="http://www.w3.org/2000/svg" viewBox="43 -21 426 426">
      <g transform="scale(1 -1) translate(0 -384)">
        <path d="M469 53Q469 31 453.5 15.5Q438 0 416.0 0.0Q394 0 378.5 15.5Q363 31 363 53Q363 70 371.5 83.0Q380 96 395 102V320H299V291Q318 282 329.5 264.0Q341 246 341 224V-21H43V224Q43 246 54.5 264.0Q66 282 85 291V320H43V363H85V373Q85 387 94.5 396.0Q104 405 117.5 405.0Q131 405 140.0 396.0Q149 387 149 373V363H235V373Q235 387 244.0 396.0Q253 405 266.5 405.0Q280 405 289.5 396.0Q299 387 299 373V363H395Q412 363 424.5 350.5Q437 338 437 320V102Q452 96 460.5 83.0Q469 70 469 53ZM235 291V320H149V291Q169 282 180.5 264.0Q192 246 192 224Q192 246 203.5 264.0Q215 282 235 291Z" />
      </g>
    </svg>