<svg xmlns="http://www.w3.org/2000/svg" viewBox="43 4 426 376">
      <g transform="scale(1 -1) translate(0 -384)">
        <path d="M456 180H274Q260 180 247.0 174.0Q234 168 226 158Q218 147 206.0 140.5Q194 134 179 134Q156 134 139.0 151.0Q122 168 122.0 192.0Q122 216 139.0 232.5Q156 249 179 249Q194 249 206.0 243.0Q218 237 226 225V226Q234 215 247.0 209.0Q260 203 274 203H454Q459 203 463 206Q469 210 469 220Q462 265 431.5 301.5Q401 338 355.5 359.0Q310 380 257 380Q209 380 166.0 362.0Q123 344 93 313Q85 301 99 300H216Q230 300 243.0 306.0Q256 312 264 322Q272 333 284.5 339.5Q297 346 311 346Q335 346 352.0 329.0Q369 312 369.0 288.0Q369 264 352.0 247.0Q335 230 311 230Q297 230 284.5 236.5Q272 243 264 255V254Q256 264 243.0 270.5Q230 277 216 277H88H89L83 276Q77 275 71 272Q63 268 58 261Q51 251 47.0 231.0Q43 211 43 192Q43 152 58 122Q64 112 77 108Q83 107 89 107H88H216Q230 107 243.0 113.0Q256 119 264 129Q272 140 284.5 146.5Q297 153 311 153Q335 153 352.0 136.5Q369 120 369.0 96.0Q369 72 352.0 55.0Q335 38 311 38Q297 38 284.5 44.5Q272 51 264 62V61Q256 72 243.0 78.0Q230 84 216 84H99Q86 82 92 72Q122 40 165.0 22.0Q208 4 257 4Q310 4 356.0 25.0Q402 46 432.0 82.5Q462 119 469 164Q469 172 465.0 176.0Q461 180 456 180Z" />
      </g>
    </svg>