<svg xmlns="http://www.w3.org/2000/svg" viewBox="85 -21 342 426">
      <g transform="scale(1 -1) translate(0 -384)">
        <path d="M85 405H128V363Q128 340 138.0 321.0Q148 302 168.5 281.5Q189 261 237 230L198 205Q161 230 139 252Q85 303 85 363ZM384 405H427V363Q427 303 373 252Q353 232 323 211Q305 198 268 174Q231 150 213 138Q185 119 168 102Q148 82 138.0 63.0Q128 44 128 21V-21H85V21Q85 81 139 132Q159 152 189 173Q207 186 244 210Q281 234 299 246Q327 265 344 282Q364 302 374.0 321.0Q384 340 384 363ZM314 179Q351 154 373 132Q427 81 427 21V-21H384V21Q384 44 374.0 63.0Q364 82 343.5 102.5Q323 123 275 154ZM149 384H363V363L361 352H151L149 363ZM164 320H348Q339 307 329 297L318 288H193L183 297Q173 307 164 320ZM194 96H319L329 87Q339 77 348 64H164Q173 77 183 87ZM151 32H361L363 21V0H149V21Z" />
      </g>
    </svg>