<svg xmlns="http://www.w3.org/2000/svg" viewBox="64 0 384 384">
      <g transform="scale(1 -1) translate(0 -384)">
        <path d="M149 256Q132 256 119.5 268.5Q107 281 107.0 298.5Q107 316 119.5 328.5Q132 341 149.5 341.0Q167 341 179.5 328.5Q192 316 192.0 298.5Q192 281 179.5 268.5Q167 256 149 256ZM427 384H85Q76 384 70.0 378.0Q64 372 64 363V235Q64 226 70.0 219.5Q76 213 85 213H427Q436 213 442.0 219.5Q448 226 448 235V363Q448 372 442.0 378.0Q436 384 427 384ZM149 43Q132 43 119.5 55.5Q107 68 107.0 85.5Q107 103 119.5 115.5Q132 128 149.5 128.0Q167 128 179.5 115.5Q192 103 192.0 85.5Q192 68 179.5 55.5Q167 43 149 43ZM427 171H85Q76 171 70.0 164.5Q64 158 64 149V21Q64 12 70.0 6.0Q76 0 85 0H427Q436 0 442.0 6.0Q448 12 448 21V149Q448 158 442.0 164.5Q436 171 427 171Z" />
      </g>
    </svg>