<svg xmlns="http://www.w3.org/2000/svg" viewBox="43 0 426 399">
      <g transform="scale(1 -1) translate(0 -399)">
        <path d="M299 277 363 213V0H320V128H171L128 64V0H85V128L107 149V213L43 277L64 299L107 256H149V192Q149 183 155.5 177.0Q162 171 171 171H256Q265 171 271.0 177.0Q277 183 277 192V256ZM405 341V384L320 299L384 235L405 256L427 235L469 277ZM245 245 96 395Q92 399 85.5 399.0Q79 399 75 395Q70 390 70.0 384.0Q70 378 75 373L224 224Q228 220 234.5 220.0Q241 220 245 224Q250 228 250.0 234.5Q250 241 245 245Z" />
      </g>
    </svg>