<svg xmlns="http://www.w3.org/2000/svg" viewBox="21 21 470 342">
      <g transform="scale(1 -1) translate(0 -384)">
        <path d="M384 363Q340 363 313 350Q286 363 256.0 363.0Q226 363 199 350Q172 363 128 363Q99 363 72 317Q50 280 35 224Q21 175 21 149Q21 136 40.0 125.0Q59 114 88 109Q99 73 142.5 48.5Q186 24 245 21V113Q213 133 213 149Q213 163 235 168Q245 171 256 171L267 170Q280 168 288 164Q299 159 299 149Q299 133 267 113V21Q326 24 369.5 48.5Q413 73 424 109Q453 114 472.0 125.0Q491 136 491 149Q491 175 477 224Q462 280 440 317Q413 363 384 363ZM89 152Q75 155 64 160Q67 188 79 226Q91 260 105.5 288.0Q120 316 129 320Q140 320 156 318H157Q128 285 108 231Q95 194 89 152ZM192 192Q183 192 177.0 198.0Q171 204 171.0 213.0Q171 222 177.0 228.5Q183 235 192.0 235.0Q201 235 207.0 228.5Q213 222 213.0 213.0Q213 204 207.0 198.0Q201 192 192 192ZM320 192Q311 192 305.0 198.0Q299 204 299.0 213.0Q299 222 305.0 228.5Q311 235 320.0 235.0Q329 235 335.0 228.5Q341 222 341.0 213.0Q341 204 335.0 198.0Q329 192 320 192ZM423 152Q417 194 404 231Q384 285 355 318H356Q372 320 383 320Q392 316 406.5 288.0Q421 260 433 226Q445 188 448 160Q438 155 423 152Z" />
      </g>
    </svg>