<svg xmlns="http://www.w3.org/2000/svg" viewBox="43 -21 405 426">
      <g transform="scale(1 -1) translate(0 -384)">
        <path d="M255 24Q239 18 223.0 25.5Q207 33 200.5 49.5Q194 66 201.5 82.0Q209 98 226.0 104.0Q243 110 259.0 102.5Q275 95 281.0 78.5Q287 62 279.5 46.0Q272 30 255 24ZM211 144Q178 132 163.0 100.0Q148 68 160.0 34.5Q172 1 204.5 -13.5Q237 -28 270.0 -16.0Q303 -4 318.0 28.0Q333 60 321.0 93.0Q309 126 276.5 141.0Q244 156 211 144ZM340 350 200 299 229 219 369 270ZM433 157 332 120Q337 111 340.5 101.0Q344 91 346 80L448 117ZM417 265 237 199 247 171Q288 168 318 138L446 185ZM43 405V363H109L185 155Q193 160 203.5 164.0Q214 168 225 169L139 405Z" />
      </g>
    </svg>