<svg xmlns="http://www.w3.org/2000/svg" viewBox="21 -21 470 426">
      <g transform="scale(1 -1) translate(0 -384)">
        <path d="M427 299Q426 305 425 312Q422 328 413 341Q402 360 382 371Q357 384 320 384Q274 384 235 373Q210 395 182 402Q129 416 85 372L140 317Q110 285 95 238Q83 201 80 155Q78 123 82 90L85 64L75 63Q63 60 53 53Q39 44 31 28Q21 8 21 -21L107 0L192 -21Q192 8 182 28Q174 44 160 53Q150 60 138 63L128 64L131 77Q135 93 143 109Q153 131 168 149Q187 171 211 186Q241 203 277 209V149Q306 149 322 172Q335 188 339 213H384Q443 213 469 227Q491 237 491 256Q491 271 467.5 285.0Q444 299 427 299ZM384 277Q375 277 369.0 283.5Q363 290 363.0 298.5Q363 307 369.0 313.5Q375 320 384.0 320.0Q393 320 399.0 313.5Q405 307 405.0 298.5Q405 290 399.0 283.5Q393 277 384 277Z" />
      </g>
    </svg>