<svg xmlns="http://www.w3.org/2000/svg" viewBox="43 -33 438 417">
      <g transform="scale(1 -1) translate(0 -351)">
        <path d="M256 299V384H43V0H285Q277 21 277 43H256V85H285Q290 100 299 113V128H256V171H299V213H256V256H427V169Q449 165 469 153V299ZM128 43H85V85H128ZM128 128H85V171H128ZM128 213H85V256H128ZM128 299H85V341H128ZM213 43H171V85H213ZM213 128H171V171H213ZM213 213H171V256H213ZM213 299H171V341H213ZM341 171H384V213H341ZM341 213V171H384V213ZM341 213V171H384V213ZM481 88 435 43 481 -3 451 -33 405 13 360 -33 330 -3 375 43 330 88 360 118 405 73 451 118Z" />
      </g>
    </svg>