<svg xmlns="http://www.w3.org/2000/svg" viewBox="64 107 384 192">
      <g transform="scale(1 -1) translate(0 -406)">
        <path d="M338 239Q319 240 305.0 230.0Q291 220 287 203Q287 197 305.0 191.5Q323 186 342 186Q355 186 367 190Q378 194 385.5 199.5Q393 205 393.0 208.0Q393 211 386.5 218.0Q380 225 369 231Q355 238 338 239ZM175 239Q157 238 143 231Q132 226 125.5 219.0Q119 212 119.0 208.5Q119 205 127.0 199.5Q135 194 147.0 190.0Q159 186 170 186Q188 186 206.5 191.5Q225 197 225 203Q221 220 206.0 230.5Q191 241 175 239ZM362 107Q348 107 333 114Q324 119 307.5 131.0Q291 143 283 147Q269 155 256.0 155.0Q243 155 229 147Q220 143 203.0 131.0Q186 119 178 114Q163 107 150 107Q112 107 88.0 140.5Q64 174 64 234Q64 260 70.5 273.5Q77 287 93.5 293.0Q110 299 143 299Q168 299 190 293Q202 290 221 282Q232 277 238 275Q247 272 256.0 272.0Q265 272 274 275Q280 277 292 282Q311 290 324 293Q345 299 369 299Q415 299 431.5 284.5Q448 270 448 234Q448 174 424.0 140.5Q400 107 362 107Z" />
      </g>
    </svg>