<svg xmlns="http://www.w3.org/2000/svg" viewBox="51 43 408 288">
      <g transform="scale(1 -1) translate(0 -374)">
        <path d="M455 227 454 229 384 299V320Q384 324 381.0 327.5Q378 331 373.5 331.0Q369 331 365 327L287 256H149Q138 256 128.5 251.0Q119 246 113 236L56 179Q51 172 52.0 163.5Q53 155 61 149Q66 145 73.0 145.0Q80 145 85 149L107 169V43H171V128H277V43H341V153Q341 171 354 183L384 213L427 192Q432 189 437 189Q447 190 454.0 197.0Q461 204 460.5 213.0Q460 222 455 227Z" />
      </g>
    </svg>