<svg xmlns="http://www.w3.org/2000/svg" viewBox="21 0 448 405">
      <g transform="scale(1 -1) translate(0 -405)">
        <path d="M341 213H384V171H341ZM256 384H405Q423 384 435.5 371.5Q448 359 448 341V43H469V0H43V43H213V341Q213 359 225.5 371.5Q238 384 256 384ZM256 341V43H405V341ZM132 341H60V352Q60 367 70.5 377.5Q81 388 96.0 388.0Q111 388 121.5 377.5Q132 367 132 352ZM149 341V352Q149 374 133.5 389.5Q118 405 96.0 405.0Q74 405 58.5 389.5Q43 374 43 352V341Q34 341 27.5 335.0Q21 329 21 320V235Q21 226 27.5 219.5Q34 213 43 213H149Q158 213 164.5 219.5Q171 226 171 235V320Q171 329 164.5 335.0Q158 341 149 341Z" />
      </g>
    </svg>