<svg xmlns="http://www.w3.org/2000/svg" viewBox="128 -21 256 426">
      <g transform="scale(1 -1) translate(0 -384)">
        <path d="M256 235Q238 235 225.5 222.5Q213 210 213.0 192.0Q213 174 225.5 161.5Q238 149 256.0 149.0Q274 149 286.5 161.5Q299 174 299.0 192.0Q299 210 286.5 222.5Q274 235 256 235ZM341 405H171Q153 405 140.5 392.5Q128 380 128 363V21Q128 4 140.5 -8.5Q153 -21 171 -21H341Q359 -21 371.5 -8.5Q384 4 384 21V363Q384 380 371.5 392.5Q359 405 341 405ZM341 21H171V363H341Z" />
      </g>
    </svg>