<svg xmlns="http://www.w3.org/2000/svg" viewBox="128 -21 256 426">
      <g transform="scale(1 -1) translate(0 -384)">
        <path d="M299 128Q299 110 286.5 97.5Q274 85 256.0 85.0Q238 85 225.5 97.5Q213 110 213.0 128.0Q213 146 225.5 158.5Q238 171 256.0 171.0Q274 171 286.5 158.5Q299 146 299 128ZM384 363V21Q384 4 371.5 -8.5Q359 -21 341 -21H171Q153 -21 140.5 -8.5Q128 4 128 21V363Q128 380 140.5 392.5Q153 405 171 405H341Q359 405 371.5 392.5Q384 380 384 363ZM224 299Q224 285 233.5 276.0Q243 267 256.0 267.0Q269 267 278.5 276.0Q288 285 288.0 298.5Q288 312 278.5 321.5Q269 331 256.0 331.0Q243 331 233.5 321.5Q224 312 224 299ZM341 235H171V21H341Z" />
      </g>
    </svg>