<svg xmlns="http://www.w3.org/2000/svg" viewBox="43 -43 448 427">
      <g transform="scale(1 -1) translate(0 -341)">
        <path d="M465 85V117Q465 139 446.5 155.0Q428 171 405.0 171.0Q382 171 364.0 155.0Q346 139 346 117V85Q336 85 328.0 77.0Q320 69 320 60V-15Q320 -26 328.0 -34.5Q336 -43 346 -43H463Q474 -43 482.5 -35.0Q491 -27 491 -17V58Q491 69 483.0 77.0Q475 85 465 85ZM437 85H373V117Q373 130 382.5 137.5Q392 145 405.5 145.0Q419 145 428.0 137.5Q437 130 437 117ZM277 213H320V171H277ZM192 171H149V213H192ZM277 43H256V341H363V204Q384 213 405 213V341Q405 359 392.5 371.5Q380 384 363 384H107Q89 384 76.5 371.5Q64 359 64 341V43H43V0H277ZM213 43H107V341H213Z" />
      </g>
    </svg>