<svg xmlns="http://www.w3.org/2000/svg" viewBox="213 21 86 342">
      <g transform="scale(1 -1) translate(0 -384)">
        <path d="M256 107Q274 107 286.5 94.5Q299 82 299.0 64.0Q299 46 286.5 33.5Q274 21 256.0 21.0Q238 21 225.5 33.5Q213 46 213.0 64.0Q213 82 225.5 94.5Q238 107 256 107ZM256 235Q274 235 286.5 222.5Q299 210 299.0 192.0Q299 174 286.5 161.5Q274 149 256.0 149.0Q238 149 225.5 161.5Q213 174 213.0 192.0Q213 210 225.5 222.5Q238 235 256 235ZM256 363Q274 363 286.5 350.5Q299 338 299.0 320.0Q299 302 286.5 289.5Q274 277 256.0 277.0Q238 277 225.5 289.5Q213 302 213.0 320.0Q213 338 225.5 350.5Q238 363 256 363Z" />
      </g>
    </svg>