<svg xmlns="http://www.w3.org/2000/svg" viewBox="85 21 342 342">
      <g transform="scale(1 -1) translate(0 -384)">
        <path d="M256 107Q274 107 286.5 94.5Q299 82 299.0 64.0Q299 46 286.5 33.5Q274 21 256.0 21.0Q238 21 225.5 33.5Q213 46 213.0 64.0Q213 82 225.5 94.5Q238 107 256 107ZM256 363Q274 363 286.5 350.5Q299 338 299.0 320.0Q299 302 286.5 289.5Q274 277 256.0 277.0Q238 277 225.5 289.5Q213 302 213.0 320.0Q213 338 225.5 350.5Q238 363 256 363ZM128 107Q146 107 158.5 94.5Q171 82 171.0 64.0Q171 46 158.5 33.5Q146 21 128.0 21.0Q110 21 97.5 33.5Q85 46 85.0 64.0Q85 82 97.5 94.5Q110 107 128 107ZM128 235Q146 235 158.5 222.5Q171 210 171.0 192.0Q171 174 158.5 161.5Q146 149 128.0 149.0Q110 149 97.5 161.5Q85 174 85.0 192.0Q85 210 97.5 222.5Q110 235 128 235ZM128 363Q146 363 158.5 350.5Q171 338 171.0 320.0Q171 302 158.5 289.5Q146 277 128.0 277.0Q110 277 97.5 289.5Q85 302 85.0 320.0Q85 338 97.5 350.5Q110 363 128 363ZM384 107Q402 107 414.5 94.5Q427 82 427.0 64.0Q427 46 414.5 33.5Q402 21 384.0 21.0Q366 21 353.5 33.5Q341 46 341.0 64.0Q341 82 353.5 94.5Q366 107 384 107ZM384 235Q402 235 414.5 222.5Q427 210 427.0 192.0Q427 174 414.5 161.5Q402 149 384.0 149.0Q366 149 353.5 161.5Q341 174 341.0 192.0Q341 210 353.5 222.5Q366 235 384 235ZM384 363Q402 363 414.5 350.5Q427 338 427.0 320.0Q427 302 414.5 289.5Q402 277 384.0 277.0Q366 277 353.5 289.5Q341 302 341.0 320.0Q341 338 353.5 350.5Q366 363 384 363Z" />
      </g>
    </svg>