<svg xmlns="http://www.w3.org/2000/svg" viewBox="21 -43 470 470">
      <g transform="scale(1 -1) translate(0 -384)">
        <path d="M256 43Q274 43 286.5 30.5Q299 18 299.0 0.0Q299 -18 286.5 -30.5Q274 -43 256.0 -43.0Q238 -43 225.5 -30.5Q213 -18 213.0 0.0Q213 18 225.5 30.5Q238 43 256 43ZM256 427Q274 427 286.5 414.5Q299 402 299.0 384.0Q299 366 286.5 353.5Q274 341 256.0 341.0Q238 341 225.5 353.5Q213 366 213.0 384.0Q213 402 225.5 414.5Q238 427 256 427ZM128 107Q146 107 158.5 94.5Q171 82 171.0 64.0Q171 46 158.5 33.5Q146 21 128.0 21.0Q110 21 97.5 33.5Q85 46 85.0 64.0Q85 82 97.5 94.5Q110 107 128 107ZM64 235Q82 235 94.5 222.5Q107 210 107.0 192.0Q107 174 94.5 161.5Q82 149 64.0 149.0Q46 149 33.5 161.5Q21 174 21.0 192.0Q21 210 33.5 222.5Q46 235 64 235ZM128 363Q146 363 158.5 350.5Q171 338 171.0 320.0Q171 302 158.5 289.5Q146 277 128.0 277.0Q110 277 97.5 289.5Q85 302 85.0 320.0Q85 338 97.5 350.5Q110 363 128 363ZM384 107Q402 107 414.5 94.5Q427 82 427.0 64.0Q427 46 414.5 33.5Q402 21 384.0 21.0Q366 21 353.5 33.5Q341 46 341.0 64.0Q341 82 353.5 94.5Q366 107 384 107ZM448 235Q466 235 478.5 222.5Q491 210 491.0 192.0Q491 174 478.5 161.5Q466 149 448.0 149.0Q430 149 417.5 161.5Q405 174 405.0 192.0Q405 210 417.5 222.5Q430 235 448 235ZM384 363Q402 363 414.5 350.5Q427 338 427.0 320.0Q427 302 414.5 289.5Q402 277 384.0 277.0Q366 277 353.5 289.5Q341 302 341.0 320.0Q341 338 353.5 350.5Q366 363 384 363Z" />
      </g>
    </svg>