<svg xmlns="http://www.w3.org/2000/svg" viewBox="43 -21 426 426">
      <g transform="scale(1 -1) translate(0 -384)">
        <path d="M43 192Q43 234 59.0 273.5Q75 313 105.0 343.0Q135 373 174.5 389.0Q214 405 256.0 405.0Q298 405 337.5 389.0Q377 373 407.0 343.0Q437 313 453.0 273.5Q469 234 469.0 192.0Q469 150 453.0 110.5Q437 71 407.0 41.0Q377 11 337.5 -5.0Q298 -21 256.0 -21.0Q214 -21 174.5 -5.0Q135 11 105.0 41.0Q75 71 59.0 110.5Q43 150 43 192ZM224 192Q224 179 233.5 169.5Q243 160 256.0 160.0Q269 160 278.5 169.5Q288 179 288.0 192.0Q288 205 278.5 214.5Q269 224 256.0 224.0Q243 224 233.5 214.5Q224 205 224 192ZM224 75Q224 61 233.5 52.0Q243 43 256.0 43.0Q269 43 278.5 52.0Q288 61 288.0 74.5Q288 88 278.5 97.5Q269 107 256.0 107.0Q243 107 233.5 97.5Q224 88 224 75ZM224 309Q224 296 233.5 286.5Q243 277 256.0 277.0Q269 277 278.5 286.5Q288 296 288.0 309.5Q288 323 278.5 332.0Q269 341 256.0 341.0Q243 341 233.5 332.0Q224 323 224 309Z" />
      </g>
    </svg>