<svg xmlns="http://www.w3.org/2000/svg" viewBox="43 -21 426 426">
      <g transform="scale(1 -1) translate(0 -384)">
        <path d="M224 192Q224 205 233.5 214.5Q243 224 256.0 224.0Q269 224 278.5 214.5Q288 205 288.0 192.0Q288 179 278.5 169.5Q269 160 256.0 160.0Q243 160 233.5 169.5Q224 179 224 192ZM224 96Q224 109 233.5 118.5Q243 128 256.0 128.0Q269 128 278.5 118.5Q288 109 288.0 96.0Q288 83 278.5 73.5Q269 64 256.0 64.0Q243 64 233.5 73.5Q224 83 224 96ZM224 288Q224 301 233.5 310.5Q243 320 256.0 320.0Q269 320 278.5 310.5Q288 301 288.0 288.0Q288 275 278.5 265.5Q269 256 256.0 256.0Q243 256 233.5 265.5Q224 275 224 288ZM256 405Q298 405 337.5 389.0Q377 373 407.0 343.0Q437 313 453.0 273.5Q469 234 469.0 192.0Q469 150 453.0 110.5Q437 71 407.0 41.0Q377 11 337.5 -5.0Q298 -21 256.0 -21.0Q214 -21 174.5 -5.0Q135 11 105.0 41.0Q75 71 59.0 110.5Q43 150 43.0 192.0Q43 234 59.0 273.5Q75 313 105.0 343.0Q135 373 174.5 389.0Q214 405 256 405ZM256 363Q210 363 170.5 340.0Q131 317 108.0 277.5Q85 238 85.0 192.0Q85 146 108.0 106.5Q131 67 170.5 44.0Q210 21 256.0 21.0Q302 21 341.5 44.0Q381 67 404.0 106.5Q427 146 427.0 192.0Q427 238 404.0 277.5Q381 317 341.5 340.0Q302 363 256 363Z" />
      </g>
    </svg>