<svg xmlns="http://www.w3.org/2000/svg" viewBox="85 21 342 342">
      <g transform="scale(1 -1) translate(0 -384)">
        <path d="M341 192Q341 210 353.5 222.5Q366 235 384.0 235.0Q402 235 414.5 222.5Q427 210 427.0 192.0Q427 174 414.5 161.5Q402 149 384.0 149.0Q366 149 353.5 161.5Q341 174 341 192ZM213 192Q213 210 225.5 222.5Q238 235 256.0 235.0Q274 235 286.5 222.5Q299 210 299.0 192.0Q299 174 286.5 161.5Q274 149 256.0 149.0Q238 149 225.5 161.5Q213 174 213 192ZM85 192Q85 210 97.5 222.5Q110 235 128.0 235.0Q146 235 158.5 222.5Q171 210 171.0 192.0Q171 174 158.5 161.5Q146 149 128.0 149.0Q110 149 97.5 161.5Q85 174 85 192ZM277 64Q277 82 289.5 94.5Q302 107 320.0 107.0Q338 107 350.5 94.5Q363 82 363.0 64.0Q363 46 350.5 33.5Q338 21 320.0 21.0Q302 21 289.5 33.5Q277 46 277 64ZM149 64Q149 82 161.5 94.5Q174 107 192.0 107.0Q210 107 222.5 94.5Q235 82 235.0 64.0Q235 46 222.5 33.5Q210 21 192.0 21.0Q174 21 161.5 33.5Q149 46 149 64ZM277 320Q277 338 289.5 350.5Q302 363 320.0 363.0Q338 363 350.5 350.5Q363 338 363.0 320.0Q363 302 350.5 289.5Q338 277 320.0 277.0Q302 277 289.5 289.5Q277 302 277 320ZM149 320Q149 338 161.5 350.5Q174 363 192.0 363.0Q210 363 222.5 350.5Q235 338 235.0 320.0Q235 302 222.5 289.5Q210 277 192.0 277.0Q174 277 161.5 289.5Q149 302 149 320Z" />
      </g>
    </svg>