<svg xmlns="http://www.w3.org/2000/svg" viewBox="85 21 342 342">
      <g transform="scale(1 -1) translate(0 -384)">
        <path d="M256 107Q274 107 286.5 94.5Q299 82 299.0 64.0Q299 46 286.5 33.5Q274 21 256.0 21.0Q238 21 225.5 33.5Q213 46 213.0 64.0Q213 82 225.5 94.5Q238 107 256 107ZM320 235Q338 235 350.5 222.5Q363 210 363.0 192.0Q363 174 350.5 161.5Q338 149 320.0 149.0Q302 149 289.5 161.5Q277 174 277.0 192.0Q277 210 289.5 222.5Q302 235 320 235ZM128 107Q146 107 158.5 94.5Q171 82 171.0 64.0Q171 46 158.5 33.5Q146 21 128.0 21.0Q110 21 97.5 33.5Q85 46 85.0 64.0Q85 82 97.5 94.5Q110 107 128 107ZM192 235Q210 235 222.5 222.5Q235 210 235.0 192.0Q235 174 222.5 161.5Q210 149 192.0 149.0Q174 149 161.5 161.5Q149 174 149.0 192.0Q149 210 161.5 222.5Q174 235 192 235ZM256 363Q274 363 286.5 350.5Q299 338 299.0 320.0Q299 302 286.5 289.5Q274 277 256.0 277.0Q238 277 225.5 289.5Q213 302 213.0 320.0Q213 338 225.5 350.5Q238 363 256 363ZM384 107Q402 107 414.5 94.5Q427 82 427.0 64.0Q427 46 414.5 33.5Q402 21 384.0 21.0Q366 21 353.5 33.5Q341 46 341.0 64.0Q341 82 353.5 94.5Q366 107 384 107Z" />
      </g>
    </svg>