<svg xmlns="http://www.w3.org/2000/svg" viewBox="43 -21 426 426">
      <g transform="scale(1 -1) translate(0 -384)">
        <path d="M256 405Q298 405 337.5 389.0Q377 373 407.0 343.0Q437 313 453.0 273.5Q469 234 469.0 192.0Q469 150 453.0 110.5Q437 71 407.0 41.0Q377 11 337.5 -5.0Q298 -21 256.0 -21.0Q214 -21 174.5 -5.0Q135 11 105.0 41.0Q75 71 59.0 110.5Q43 150 43.0 192.0Q43 234 59.0 273.5Q75 313 105.0 343.0Q135 373 174.5 389.0Q214 405 256 405ZM256 224Q243 224 233.5 214.5Q224 205 224.0 192.0Q224 179 233.5 169.5Q243 160 256.0 160.0Q269 160 278.5 169.5Q288 179 288.0 192.0Q288 205 278.5 214.5Q269 224 256 224ZM139 224Q125 224 116.0 214.5Q107 205 107.0 192.0Q107 179 116.0 169.5Q125 160 138.5 160.0Q152 160 161.5 169.5Q171 179 171.0 192.0Q171 205 161.5 214.5Q152 224 139 224ZM373 224Q360 224 350.5 214.5Q341 205 341.0 192.0Q341 179 350.5 169.5Q360 160 373.5 160.0Q387 160 396.0 169.5Q405 179 405.0 192.0Q405 205 396.0 214.5Q387 224 373 224Z" />
      </g>
    </svg>