<svg xmlns="http://www.w3.org/2000/svg" viewBox="43 -21 426 426">
      <g transform="scale(1 -1) translate(0 -384)">
        <path d="M256 405Q298 405 337.5 389.0Q377 373 407.0 343.0Q437 313 453.0 273.5Q469 234 469.0 192.0Q469 150 453.0 110.5Q437 71 407.0 41.0Q377 11 337.5 -5.0Q298 -21 256.0 -21.0Q214 -21 174.5 -5.0Q135 11 105.0 41.0Q75 71 59.0 110.5Q43 150 43.0 192.0Q43 234 59.0 273.5Q75 313 105.0 343.0Q135 373 174.5 389.0Q214 405 256 405ZM256 363Q210 363 170.5 340.0Q131 317 108.0 277.5Q85 238 85.0 192.0Q85 146 108.0 106.5Q131 67 170.5 44.0Q210 21 256.0 21.0Q302 21 341.5 44.0Q381 67 404.0 106.5Q427 146 427.0 192.0Q427 238 404.0 277.5Q381 317 341.5 340.0Q302 363 256 363ZM256 224Q269 224 278.5 214.5Q288 205 288.0 192.0Q288 179 278.5 169.5Q269 160 256.0 160.0Q243 160 233.5 169.5Q224 179 224.0 192.0Q224 205 233.5 214.5Q243 224 256 224ZM160 224Q173 224 182.5 214.5Q192 205 192.0 192.0Q192 179 182.5 169.5Q173 160 160.0 160.0Q147 160 137.5 169.5Q128 179 128.0 192.0Q128 205 137.5 214.5Q147 224 160 224ZM352 224Q365 224 374.5 214.5Q384 205 384.0 192.0Q384 179 374.5 169.5Q365 160 352.0 160.0Q339 160 329.5 169.5Q320 179 320.0 192.0Q320 205 329.5 214.5Q339 224 352 224Z" />
      </g>
    </svg>