<svg xmlns="http://www.w3.org/2000/svg" viewBox="107 -21 384 405">
      <g transform="scale(1 -1) translate(0 -363)">
        <path d="M469 107Q478 106 484.0 100.0Q490 94 491 85V0Q490 -9 484.0 -15.0Q478 -21 469 -21H363Q354 -21 348.0 -15.0Q342 -9 341 0V85Q342 94 348.0 100.0Q354 106 363 107V139Q363 161 378.5 176.5Q394 192 416.0 192.0Q438 192 453.5 176.5Q469 161 469 139ZM448 107V139Q448 152 438.5 161.5Q429 171 416.0 171.0Q403 171 393.5 161.5Q384 152 384 139V107ZM277 341V213H302L256 167L210 213H235V341ZM320 384H192V256H107L256 107L405 256H320ZM299 64H107V21H299Z" />
      </g>
    </svg>