<svg xmlns="http://www.w3.org/2000/svg" viewBox="42 0 405 384">
      <g transform="scale(1 -1) translate(0 -384)">
        <path d="M208 3Q234 14 235 40Q235 63 218 85Q206 103 185 120Q172 131 147 148Q117 167 97 192L96 193Q89 202 87 206Q84 213 91 215Q101 217 129 204L137 200Q168 187 193 172L215 208Q188 225 159 237Q127 251 99 255Q80 258 66 253Q50 246 45 229Q36 203 61 170Q73 155 90 140Q101 132 123 116Q156 93 170 79V78Q186 63 190 53Q193 46 192.0 44.5Q191 43 183 43Q166 43 141 55Q126 62 102 78L81 41Q117 19 142 10Q182 -6 208 3ZM445 336Q448 340 448.0 344.5Q448 349 445 353L417 381Q413 384 408.5 384.0Q404 384 400 381L378 359L423 314ZM235 215V171H279L410 302L366 346Z" />
      </g>
    </svg>