<svg xmlns="http://www.w3.org/2000/svg" viewBox="42 0 434 405">
      <g transform="scale(1 -1) translate(0 -405)">
        <path d="M208 3Q234 14 235 40Q235 63 218 85Q206 103 185 120Q172 131 147 148Q117 167 97 192L96 193Q89 202 87 206Q84 213 91 215Q101 217 129 204L137 200Q168 187 193 172L215 208Q188 225 159 237Q127 251 99 255Q80 258 66 253Q50 246 45 229Q36 203 61 170Q73 155 90 140Q101 132 123 116Q156 93 170 79V78Q186 63 190 53Q193 46 192.0 44.5Q191 43 183 43Q166 43 141 55Q126 62 102 78L81 41Q117 19 142 10Q182 -6 208 3ZM404 292 284 171H235V220L356 341ZM477 308Q477 302 463 289L410 235L391 253L447 308L434 321L420 307L371 356L417 401Q420 405 425.5 405.0Q431 405 435 401L465 371Q469 367 469.0 361.5Q469 356 465 353Q457 344 456.5 339.0Q456 334 465 327L466 326Q477 314 477 308Z" />
      </g>
    </svg>