<svg xmlns="http://www.w3.org/2000/svg" viewBox="43 -21 426 405">
      <g transform="scale(1 -1) translate(0 -363)">
        <path d="M469 213H448L427 256H293L341 181H299L229 256H85Q75 256 59.0 262.5Q43 269 43.0 276.5Q43 284 53.5 297.0Q64 310 79 319Q98 331 116.5 331.0Q135 331 148 325Q156 322 168 313Q182 303 192 299H448Q457 299 463.0 292.5Q469 286 469 277ZM229 309 299 384H341L293 309ZM384 213V245H421L405 213ZM64 43Q55 43 49.0 49.0Q43 55 43.0 64.0Q43 73 49.0 79.0Q55 85 64 85Q99 85 124.0 60.0Q149 35 149 0Q149 -9 143.0 -15.0Q137 -21 128.0 -21.0Q119 -21 113.0 -15.0Q107 -9 107 0Q107 18 94.5 30.5Q82 43 64 43ZM235 0Q235 -9 228.5 -15.0Q222 -21 213.0 -21.0Q204 -21 198.0 -15.0Q192 -9 192 0Q192 35 175.0 64.5Q158 94 128.5 111.0Q99 128 64 128Q55 128 49.0 134.0Q43 140 43.0 149.0Q43 158 49.0 164.5Q55 171 64 171Q110 171 149.5 148.0Q189 125 212.0 85.5Q235 46 235 0Z" />
      </g>
    </svg>