<svg xmlns="http://www.w3.org/2000/svg" viewBox="64 -21 384 438">
      <g transform="scale(1 -1) translate(0 -396)">
        <path d="M437 135Q437 124 433.0 109.0Q429 94 422.5 82.5Q416 71 410.0 67.0Q404 63 393 63Q389 63 380 70Q376 74 365 85Q352 98 346 103Q335 112 327.5 112.5Q320 113 308 106Q300 103 283 92Q258 77 245 71Q223 60 207 60Q180 60 166 70Q148 82 148 111Q148 136 169.0 155.0Q190 174 218 174Q237 174 258 164Q269 158 290 144Q304 134 310 131Q320 126 327.0 126.0Q334 126 346 133Q353 136 368.5 146.5Q384 157 391 161Q403 167 409 167Q423 170 431 158Q437 149 437 135ZM355 335Q343 342 321.5 352.5Q300 363 289 369Q273 380 241 417Q236 395 231.5 384.5Q227 374 218 367Q189 347 164 335Q132 318 108 289Q64 237 64 167Q64 114 92 70Q118 28 162.5 3.5Q207 -21 257.5 -21.0Q308 -21 352.0 2.5Q396 26 421 67Q448 111 448 165Q451 233 410 286Q389 313 356 334Z" />
      </g>
    </svg>