<svg xmlns="http://www.w3.org/2000/svg" viewBox="43 0 426 405">
      <g transform="scale(1 -1) translate(0 -405)">
        <path d="M181 341Q168 341 158.5 332.0Q149 323 149.0 309.5Q149 296 158.5 286.5Q168 277 181.5 277.0Q195 277 204.0 286.5Q213 296 213.0 309.5Q213 323 204.0 332.0Q195 341 181 341ZM213 405Q242 405 266.5 391.0Q291 377 305.5 352.5Q320 328 320 299Q320 272 307.5 249.0Q295 226 274 211Q336 205 384 181Q424 161 451 175Q464 181 469 192L466 172Q461 147 454 124Q443 92 428 68Q409 37 385 20Q356 0 320 0H192L175 2Q155 5 139 13Q115 25 102 45Q85 70 85 107Q85 127 94 147Q100 158 113.5 177.0Q127 196 130 205Q135 220 128 235Q99 235 79 246Q63 256 53 272Q47 284 44 298L43 309Q58 302 76.0 301.0Q94 300 107 306Q110 348 140.5 376.5Q171 405 213 405Z" />
      </g>
    </svg>