<svg xmlns="http://www.w3.org/2000/svg" viewBox="21 21 470 320">
      <g transform="scale(1 -1) translate(0 -362)">
        <path d="M427 277H405H320V149H43V85H64Q64 59 82.5 40.0Q101 21 128.0 21.0Q155 21 173.5 40.0Q192 59 192 85H320Q320 59 338.5 40.0Q357 21 384.0 21.0Q411 21 429.5 40.0Q448 59 448 85H491V192ZM128 53Q115 53 105.5 62.5Q96 72 96.0 85.5Q96 99 105.5 108.0Q115 117 128.0 117.0Q141 117 150.5 108.0Q160 99 160.0 85.5Q160 72 150.5 62.5Q141 53 128 53ZM384 53Q371 53 361.5 62.5Q352 72 352.0 85.5Q352 99 361.5 108.0Q371 117 384.0 117.0Q397 117 406.5 108.0Q416 99 416.0 85.5Q416 72 406.5 62.5Q397 53 384 53ZM363 192V245H416L458 192ZM384 299H299V171H64L33 277H21V320H277L299 341H384Z" />
      </g>
    </svg>