<svg xmlns="http://www.w3.org/2000/svg" viewBox="64 -21 384 443">
      <g transform="scale(1 -1) translate(0 -401)">
        <path d="M363 21Q354 21 346 25Q334 31 326.0 42.0Q318 53 310.0 75.0Q302 97 288 114Q279 124 259 139Q242 153 233 161Q220 175 209 193Q192 224 192 256Q192 285 206.0 309.5Q220 334 244.5 348.5Q269 363 298.5 363.0Q328 363 352.5 348.5Q377 334 391.0 309.5Q405 285 405 256H448Q448 297 428.0 331.5Q408 366 374.0 385.5Q340 405 298.5 405.0Q257 405 223.0 385.5Q189 366 169.0 331.5Q149 297 149.0 255.5Q149 214 172 173Q185 149 203 131Q214 120 233 106Q249 93 255 87Q265 76 269 62Q279 33 292.5 15.0Q306 -3 328 -14Q344 -21 363 -21Q398 -21 423.0 4.0Q448 29 448 64H405Q405 46 392.5 33.5Q380 21 363 21ZM163 392 133 422Q100 390 82.0 347.0Q64 304 64.0 256.0Q64 208 82.0 165.0Q100 122 133 90L163 120Q136 147 121.5 182.0Q107 217 107.0 256.0Q107 295 121.5 330.0Q136 365 163 392ZM245 256Q245 234 261.0 218.5Q277 203 299.0 203.0Q321 203 336.5 218.5Q352 234 352.0 256.0Q352 278 336.5 293.5Q321 309 299.0 309.0Q277 309 261.0 293.5Q245 278 245 256Z" />
      </g>
    </svg>