<svg xmlns="http://www.w3.org/2000/svg" viewBox="51 -43 418 454">
      <g transform="scale(1 -1) translate(0 -368)">
        <path d="M256 309Q234 309 218.5 293.5Q203 278 203.0 256.0Q203 234 218.5 218.5Q234 203 256.0 203.0Q278 203 293.5 218.5Q309 234 309.0 256.0Q309 278 293.5 293.5Q278 309 256 309ZM341 85V43H384V-43H427V43H469V85ZM249 161 78 -21 51 6 208 173Q227 162 249 161ZM405 256Q405 214 383 173Q369 149 352 131Q341 120 322 106Q306 93 300 87Q290 76 285 62Q276 33 262.5 15.0Q249 -3 227 -14Q210 -21 191.5 -21.0Q173 -21 156.5 -13.5Q140 -6 128 7L159 38Q171 21 192 21Q201 21 208 25Q220 31 228.5 42.0Q237 53 244.5 75.0Q252 97 267 114Q276 124 296 139Q313 153 321 161Q335 175 345 193Q363 224 363 256Q363 285 348.5 309.5Q334 334 309.5 348.5Q285 363 256.0 363.0Q227 363 202.5 348.5Q178 334 163.5 309.5Q149 285 149 256H107Q107 297 126.5 331.5Q146 366 180.5 385.5Q215 405 256.0 405.0Q297 405 331.5 385.5Q366 366 385.5 331.5Q405 297 405 256ZM392 360 442 411 469 384 412 326Q404 344 392 360Z" />
      </g>
    </svg>