<svg xmlns="http://www.w3.org/2000/svg" viewBox="21 -21 427 443">
      <g transform="scale(1 -1) translate(0 -401)">
        <path d="M21 357 49 384 427 6 400 -21 275 103Q262 92 256 85Q247 75 243 62Q233 33 219.5 15.0Q206 -3 184 -14Q168 -21 149 -21Q114 -21 89.0 4.0Q64 29 64 64H107Q107 46 119.5 33.5Q132 21 149 21Q158 21 166 25Q178 31 186.0 42.0Q194 53 202 75Q208 95 221 110Q230 121 245 133L108 271Q107 266 107 256H64Q64 282 72 306ZM303 193Q320 224 320 256Q320 285 306.0 309.5Q292 334 267.5 348.5Q243 363 213 363Q176 363 147 340L116 371Q158 405 213 405Q255 405 289.0 385.5Q323 366 343.0 331.5Q363 297 363.0 255.5Q363 214 340 173L330 157L299 188ZM349 392 379 422Q412 390 430.0 347.0Q448 304 448 256Q448 212 432.0 171.5Q416 131 388 99L358 129Q380 155 392.5 187.5Q405 220 405 256Q405 295 390.5 330.0Q376 365 349 392ZM267 256Q267 241 259 228L185 301Q198 309 213 309Q235 309 251.0 293.5Q267 278 267 256Z" />
      </g>
    </svg>