<svg xmlns="http://www.w3.org/2000/svg" viewBox="43 0 426 384">
      <g transform="scale(1 -1) translate(0 -384)">
        <path d="M107 384Q87 384 71 372Q58 362 50.5 347.0Q43 332 43 320V213Q43 201 50.5 186.0Q58 171 71 161Q87 149 106.5 149.0Q126 149 149 165V21Q149 13 155.5 6.5Q162 0 171 0H192Q201 0 207.0 6.5Q213 13 213 21V277Q213 298 195.5 323.5Q178 349 152.5 366.5Q127 384 107 384ZM171 230 126 201Q113 192 107 192Q97 192 90 202Q85 210 85 213V319Q85 324 90 331Q97 341 106.5 341.0Q116 341 131.5 329.0Q147 317 159.0 302.0Q171 287 171 277ZM352 128Q374 128 395 135V21Q395 13 388.5 6.5Q382 0 373 0H331Q322 0 315.5 6.5Q309 13 309 21V135Q330 128 352 128ZM352 384Q320 384 293.0 368.0Q266 352 250.5 325.5Q235 299 235.0 267.0Q235 235 250.5 208.0Q266 181 293.0 165.0Q320 149 352.0 149.0Q384 149 411.0 165.0Q438 181 453.5 208.0Q469 235 469.0 267.0Q469 299 453.5 325.5Q438 352 411.0 368.0Q384 384 352 384ZM352 192Q321 192 299.0 214.0Q277 236 277.0 267.0Q277 298 299.0 319.5Q321 341 352.0 341.0Q383 341 405.0 319.5Q427 298 427.0 267.0Q427 236 405.0 214.0Q383 192 352 192Z" />
      </g>
    </svg>