<svg xmlns="http://www.w3.org/2000/svg" viewBox="43 0 426 384">
      <g transform="scale(1 -1) translate(0 -384)">
        <path d="M213 277V21Q213 13 207.0 6.5Q201 0 192 0H171Q162 0 155.5 6.5Q149 13 149 21V165Q126 149 106.5 149.0Q87 149 71 161Q58 171 50.5 186.0Q43 201 43 213V320Q43 332 50.5 347.0Q58 362 71 372Q87 384 107.0 384.0Q127 384 152.5 366.5Q178 349 195.5 323.5Q213 298 213 277ZM352 384Q320 384 293.0 368.0Q266 352 250.5 325.5Q235 299 235.0 267.0Q235 235 250.5 208.0Q266 181 293.0 165.0Q320 149 352.0 149.0Q384 149 411.0 165.0Q438 181 453.5 208.0Q469 235 469.0 267.0Q469 299 453.5 325.5Q438 352 411.0 368.0Q384 384 352 384ZM309 135V21Q309 13 315.5 6.5Q322 0 331 0H373Q382 0 388.5 6.5Q395 13 395 21V135Q374 128 352.0 128.0Q330 128 309 135Z" />
      </g>
    </svg>