<svg xmlns="http://www.w3.org/2000/svg" viewBox="24 -37 448 448">
      <g transform="scale(1 -1) translate(0 -374)">
        <path d="M472 -10 395 67 301 161 142 320 51 411 24 384 54 353Q43 335 43 320V213Q43 201 50.5 186.0Q58 171 71 161Q87 149 106.5 149.0Q126 149 149 165V21Q149 13 155.5 6.5Q162 0 171 0H192Q201 0 207.0 6.5Q213 13 213 21V194L309 98V21Q309 13 315.5 6.5Q322 0 331 0H373Q380 0 385.5 4.0Q391 8 393 15L445 -37ZM171 230 126 201Q113 192 107 192Q97 192 90 202Q85 210 85 213V319Q85 321 86 322L171 237ZM289 228 236 281Q241 325 274.0 354.5Q307 384 352 384Q384 384 411.0 368.0Q438 352 453.5 325.5Q469 299 469 267Q469 222 439.5 188.5Q410 155 366 150L313 203Q331 192 352 192Q383 192 405.0 214.0Q427 236 427.0 267.0Q427 298 405.0 319.5Q383 341 352.0 341.0Q321 341 299.0 319.5Q277 298 277 267Q277 246 289 228Z" />
      </g>
    </svg>