<svg xmlns="http://www.w3.org/2000/svg" viewBox="24 -37 448 448">
      <g transform="scale(1 -1) translate(0 -374)">
        <path d="M213 249 247 215 301 161 472 -10 445 -37 393 14Q391 8 385.5 4.0Q380 0 373 0H331Q322 0 315.5 6.5Q309 13 309 21V98L213 194V21Q213 13 207.0 6.5Q201 0 192 0H171Q162 0 155.5 6.5Q149 13 149 21V165Q126 149 106.5 149.0Q87 149 71 161Q58 171 50.5 186.0Q43 201 43 213V320Q43 335 54 353L24 384L51 411L130 332ZM469 267Q469 299 453.5 325.5Q438 352 411.0 368.0Q384 384 352 384Q307 384 274.0 354.5Q241 325 236 281L366 150Q410 155 439.5 188.5Q469 222 469 267Z" />
      </g>
    </svg>