<svg xmlns="http://www.w3.org/2000/svg" viewBox="43 -21 426 426">
      <g transform="scale(1 -1) translate(0 -384)">
        <path d="M469 336 437 304Q469 253 469 192Q469 150 453.0 110.5Q437 71 407.0 41.0Q377 11 337.5 -5.0Q298 -21 256 -21Q195 -21 144 11L112 -21L85 6L442 363ZM382 77Q403 100 415.0 129.5Q427 159 427 192Q427 235 406 273L316 183Q320 177 320 171V107H341Q355 107 366.5 98.5Q378 90 382 77ZM235 23V64Q219 64 208 74L175 42Q203 27 235 23ZM320 350V341Q320 324 307.5 311.5Q295 299 277 299H235V256Q235 247 228.5 241.0Q222 235 213 235H171V192H217L173 147L90 230Q85 211 85 192Q85 137 117 92L87 62Q43 119 43 192Q43 234 59.0 273.5Q75 313 105.0 343.0Q135 373 174.5 389.0Q214 405 256 405Q329 405 386 361L356 331Q339 343 320 350Z" />
      </g>
    </svg>