<svg xmlns="http://www.w3.org/2000/svg" viewBox="64 -21 405 405">
      <g transform="scale(1 -1) translate(0 -363)">
        <path d="M363 149H405V85H469V43H405V-21H363V43H299V85H363ZM107 384H405Q423 384 435.5 371.5Q448 359 448 341V175Q428 187 405 190V341H337Q335 325 323.0 314.0Q311 303 294 303H252V260Q252 252 245.5 245.5Q239 239 230 239H188V196H316Q323 196 328.5 192.5Q334 189 336 183Q301 169 279.0 137.5Q257 106 256 68Q235 68 222.0 80.5Q209 93 209 111V132L107 228V43H258Q261 20 273 0H107Q89 0 76.5 12.5Q64 25 64 43V341Q64 359 76.5 371.5Q89 384 107 384Z" />
      </g>
    </svg>