<svg xmlns="http://www.w3.org/2000/svg" viewBox="64 -43 427 427">
      <g transform="scale(1 -1) translate(0 -341)">
        <path d="M491 357 448 314V43Q448 25 435.5 12.5Q423 0 405 0H134L91 -43L64 -15L463 384ZM107 384H409L367 341H337Q335 325 323.0 314.0Q311 303 294 303H252V260Q252 252 245.5 245.5Q239 239 230 239H188V196H221L182 157L107 228V81L64 39V341Q64 359 76.5 371.5Q89 384 107 384ZM252 43V68Q231 68 218 84L176 43ZM337 175V111H358Q373 111 387.0 102.5Q401 94 405 81V272L327 193Q337 187 337 175Z" />
      </g>
    </svg>