<svg xmlns="http://www.w3.org/2000/svg" viewBox="43 -21 426 426">
      <g transform="scale(1 -1) translate(0 -384)">
        <path d="M299 85H469V43H299ZM427 192Q427 245 397.5 288.0Q368 331 320 350V341Q320 324 307.5 311.5Q295 299 277 299H235V256Q235 247 228.5 241.0Q222 235 213 235H171V192H299Q307 192 312.5 187.0Q318 182 320 175Q291 158 273.5 128.5Q256 99 256 64Q256 17 287 -19L256 -21Q198 -21 149.0 7.5Q100 36 71.5 85.0Q43 134 43.0 192.0Q43 250 71.5 299.0Q100 348 149.0 376.5Q198 405 256.0 405.0Q314 405 363.0 376.5Q412 348 440.5 299.0Q469 250 469 192L467 161Q449 177 427 185ZM235 23V64Q217 64 204.5 76.5Q192 89 192 107V128L90 230Q85 211 85 192Q85 149 105.0 112.5Q125 76 159.0 52.0Q193 28 235 23Z" />
      </g>
    </svg>