<svg xmlns="http://www.w3.org/2000/svg" viewBox="43 -21 426 426">
      <g transform="scale(1 -1) translate(0 -384)">
        <path d="M405 0V43H320V85H405V128L469 64ZM256 64Q256 99 273.5 128.0Q291 157 320 175Q318 183 312.5 187.5Q307 192 299 192H171V235H213Q223 235 229.0 240.5Q235 246 235 256V299H277Q295 299 307.5 311.5Q320 324 320 341V350Q368 330 397.5 287.5Q427 245 427 192V186Q445 180 467 162Q469 171 469 192Q469 250 440.5 299.0Q412 348 363.0 376.5Q314 405 256.0 405.0Q198 405 149.0 376.5Q100 348 71.5 299.0Q43 250 43.0 192.0Q43 134 71.5 85.0Q100 36 149.0 7.5Q198 -21 256 -21Q277 -21 286 -19Q256 17 256 64ZM235 23Q192 29 158.0 52.5Q124 76 104.5 112.5Q85 149 85 192Q85 205 90 230L192 128V107Q192 89 204.5 76.5Q217 64 235 64Z" />
      </g>
    </svg>