<svg xmlns="http://www.w3.org/2000/svg" viewBox="64 0 384 384">
      <g transform="scale(1 -1) translate(0 -384)">
        <path d="M107 384Q89 384 76.5 371.5Q64 359 64 341V43Q64 25 76.5 12.5Q89 0 107 0H405Q423 0 435.5 12.5Q448 25 448 43V341Q448 359 435.5 371.5Q423 384 405 384ZM337 341H405V81Q401 94 387.0 102.5Q373 111 358 111H337V175Q337 184 331.0 190.0Q325 196 316 196H188V239H230Q239 239 245.5 245.5Q252 252 252 260V303H294Q311 303 323.0 314.0Q335 325 337 341ZM107 228 209 132V111Q209 93 221.5 80.5Q234 68 252 68V43H107Z" />
      </g>
    </svg>