<svg xmlns="http://www.w3.org/2000/svg" viewBox="43 -21 426 426">
      <g transform="scale(1 -1) translate(0 -384)">
        <path d="M382 77Q378 90 366.5 98.5Q355 107 341 107H320V171Q320 180 314.0 186.0Q308 192 299 192H171V235H213Q222 235 228.5 241.0Q235 247 235 256V299H277Q295 299 307.5 311.5Q320 324 320 341V350Q368 331 397.5 288.0Q427 245 427 192Q427 159 415.0 129.5Q403 100 382 77ZM235 23Q193 28 159.0 52.0Q125 76 105.0 112.5Q85 149 85 192Q85 211 90 230L192 128V107Q192 89 204.5 76.5Q217 64 235 64ZM256 405Q214 405 174.5 389.0Q135 373 105.0 343.0Q75 313 59.0 273.5Q43 234 43.0 192.0Q43 150 59.0 110.5Q75 71 105.0 41.0Q135 11 174.5 -5.0Q214 -21 256.0 -21.0Q298 -21 337.5 -5.0Q377 11 407.0 41.0Q437 71 453.0 110.5Q469 150 469.0 192.0Q469 234 453.0 273.5Q437 313 407.0 343.0Q377 373 337.5 389.0Q298 405 256 405Z" />
      </g>
    </svg>