<svg xmlns="http://www.w3.org/2000/svg" viewBox="64 -12 396 396">
      <g transform="scale(1 -1) translate(0 -372)">
        <path d="M308 109 339 140 384 94 429 139 460 109 414 64 460 19 429 -12 384 34 339 -12 308 19 354 64 309 109ZM107 384H405Q423 384 435.5 371.5Q448 359 448 341V175Q428 187 405 190V341H337Q335 325 323.0 314.0Q311 303 294 303H252V260Q252 252 245.5 245.5Q239 239 230 239H188V196H316Q323 196 328.5 192.5Q334 189 336 183Q301 169 279.0 137.5Q257 106 256 68Q235 68 222.0 80.5Q209 93 209 111V132L107 228V43H258Q261 20 273 0H107Q89 0 76.5 12.5Q64 25 64 43V341Q64 359 76.5 371.5Q89 384 107 384Z" />
      </g>
    </svg>