<svg xmlns="http://www.w3.org/2000/svg" viewBox="96 -21 320 426">
      <g transform="scale(1 -1) translate(0 -384)">
        <path d="M256 363Q280 363 308 323Q335 286 354.0 232.5Q373 179 373 139Q373 107 357.5 80.0Q342 53 315.0 37.0Q288 21 256.0 21.0Q224 21 197.0 37.0Q170 53 154.5 80.0Q139 107 139 139Q139 179 158.0 232.5Q177 286 204 323Q232 363 256 363ZM256 405Q215 405 175 356Q141 313 118 247Q96 185 96 139Q96 95 117.5 58.5Q139 22 176.0 0.5Q213 -21 256.0 -21.0Q299 -21 336.0 0.5Q373 22 394.5 58.5Q416 95 416 139Q416 185 394 247Q371 313 337 356Q297 405 256 405Z" />
      </g>
    </svg>