<svg xmlns="http://www.w3.org/2000/svg" viewBox="24 -37 448 448">
      <g transform="scale(1 -1) translate(0 -374)">
        <path d="M472 -10 51 411 24 384 130 277Q114 241 105.0 204.0Q96 167 96 139Q96 95 117.5 58.5Q139 22 176.0 0.5Q213 -21 256 -21Q291 -21 322.0 -7.0Q353 7 375 32L445 -37ZM256 21Q224 21 197.0 37.0Q170 53 154.5 80.0Q139 107 139 139Q139 183 163 245L345 63Q328 43 305.0 32.0Q282 21 256 21ZM200 317 169 347Q211 405 256 405Q297 405 337 356Q371 313 394 247Q416 185 416 139Q416 122 412 104L373 143Q372 183 352.5 235.5Q333 288 307 324Q279 363 256 363Q243 363 228.5 350.5Q214 338 200 317Z" />
      </g>
    </svg>