<svg xmlns="http://www.w3.org/2000/svg" viewBox="96 -21 320 426">
      <g transform="scale(1 -1) translate(0 -384)">
        <path d="M147 312Q170 355 196 378Q226 405 256.0 405.0Q286 405 316 378Q342 355 365 312Q336 305 320 282Q301 309 268.5 314.0Q236 319 209 299Q199 292 192 282Q176 305 147 312ZM320 63 256 127 192 63 128 127 101 100Q112 57 141.5 27.0Q171 -3 212.0 -15.0Q253 -27 295.5 -16.0Q338 -5 369.0 26.0Q400 57 411 100L384 127ZM192 108 256 172 320 108 384 172 416 140Q412 215 380 282Q361 281 348.5 267.0Q336 253 336 235H304Q304 255 290.0 269.0Q276 283 256.0 283.0Q236 283 222.0 269.0Q208 255 208 235H176Q176 253 163.5 267.0Q151 281 132 282Q100 215 96 140L128 172Z" />
      </g>
    </svg>