<svg xmlns="http://www.w3.org/2000/svg" viewBox="64 0 384 384">
      <g transform="scale(1 -1) translate(0 -384)">
        <path d="M256 352Q278 352 291.0 348.0Q304 344 313 335Q319 330 330 314L331 313Q347 291 361 276Q372 266 388 251H389Q402 239 406 234Q412 227 414.0 218.5Q416 210 416 192Q416 156 415 144Q413 127 406.5 115.5Q400 104 383 87L381 85Q357 62 348 54Q333 42 317.5 37.0Q302 32 277 32Q261 32 251 37Q244 40 233 49L232 50Q218 61 208 66Q191 75 171 75Q128 75 109 117Q96 146 96 192Q96 217 105 237Q116 261 138 268Q163 277 183 294Q195 304 212 324Q227 341 233 345Q243 352 256 352ZM256 384Q233 384 216 372Q205 365 188 345Q173 327 163 319Q148 305 128 299Q96 288 79 256Q64 227 64 192Q64 132 85 93Q113 43 171 43Q184 43 194 37Q201 34 212 25Q227 13 237 8Q254 0 277 0Q308 0 328.5 7.0Q349 14 367 28Q379 38 405 64Q426 85 435.0 101.5Q444 118 446 140Q448 154 448 192Q448 216 444.0 230.0Q440 244 431 255Q425 261 409.5 275.0Q394 289 384 299Q373 310 356 332Q343 351 335 358Q322 371 305 377Q285 384 256 384ZM256 277Q221 277 196.0 252.0Q171 227 171.0 192.0Q171 157 196.0 132.0Q221 107 256.0 107.0Q291 107 316.0 132.0Q341 157 341.0 192.0Q341 227 316.0 252.0Q291 277 256 277ZM256 235Q238 235 225.5 222.5Q213 210 213 192H192Q192 218 211.0 237.0Q230 256 256 256Z" />
      </g>
    </svg>