<svg xmlns="http://www.w3.org/2000/svg" viewBox="21 128 470 216">
      <g transform="scale(1 -1) translate(0 -472)">
        <path d="M21 213H68Q74 232 90.5 244.0Q107 256 127.5 256.0Q148 256 165 244L308 344L332 309L190 209Q192 201 192 192Q192 165 173.5 146.5Q155 128 128 128Q107 128 90.5 140.0Q74 152 68 171H21ZM491 213V171H444Q438 152 421.5 140.0Q405 128 384 128Q357 128 338.5 146.5Q320 165 320.0 192.0Q320 219 338.5 237.5Q357 256 384 256Q405 256 421.5 244.0Q438 232 444 213ZM128 213Q119 213 113.0 207.0Q107 201 107.0 192.0Q107 183 113.0 177.0Q119 171 128.0 171.0Q137 171 143.0 177.0Q149 183 149.0 192.0Q149 201 143.0 207.0Q137 213 128 213ZM384 213Q375 213 369.0 207.0Q363 201 363.0 192.0Q363 183 369.0 177.0Q375 171 384.0 171.0Q393 171 399.0 177.0Q405 183 405.0 192.0Q405 201 399.0 207.0Q393 213 384 213Z" />
      </g>
    </svg>