<svg xmlns="http://www.w3.org/2000/svg" viewBox="43 43 426 298">
      <g transform="scale(1 -1) translate(0 -384)">
        <path d="M416 117Q416 113 413.0 110.0Q410 107 405.5 107.0Q401 107 398.0 110.0Q395 113 395 117V267Q395 287 382.5 304.0Q370 321 350.0 331.0Q330 341 309 341H128Q93 341 68.0 316.0Q43 291 43 256V43H128V128H235V43H320V139Q320 143 323.0 146.0Q326 149 330.5 149.0Q335 149 338.0 146.0Q341 143 341 139V107Q341 80 360.0 61.5Q379 43 405.5 43.0Q432 43 450.5 61.5Q469 80 469 107V149H416Z" />
      </g>
    </svg>