<svg xmlns="http://www.w3.org/2000/svg" viewBox="64 0 384 384">
      <g transform="scale(1 -1) translate(0 -384)">
        <path d="M405 384H107Q89 384 76.5 371.5Q64 359 64 341V43Q64 25 76.5 12.5Q89 0 107 0H405Q423 0 435.5 12.5Q448 25 448 43V341Q448 359 435.5 371.5Q423 384 405 384ZM181 320Q192 320 200.0 312.0Q208 304 208.0 293.0Q208 282 200.0 274.5Q192 267 181.0 267.0Q170 267 162.5 274.5Q155 282 155.0 293.0Q155 304 162.5 312.0Q170 320 181 320ZM235 149H213V64H149V149H128V203Q128 220 140.5 232.5Q153 245 171 245H192Q210 245 222.5 232.5Q235 220 235 203ZM331 85 277 171H384ZM277 213 331 299 384 213Z" />
      </g>
    </svg>