<svg xmlns="http://www.w3.org/2000/svg" viewBox="64 0 384 384">
      <g transform="scale(1 -1) translate(0 -384)">
        <path d="M405 341V43H107V341ZM405 384H107Q89 384 76.5 371.5Q64 359 64 341V43Q64 25 76.5 12.5Q89 0 107 0H405Q423 0 435.5 12.5Q448 25 448 43V341Q448 359 435.5 371.5Q423 384 405 384ZM213 64V149H235V203Q235 220 222.5 232.5Q210 245 192 245H171Q153 245 140.5 232.5Q128 220 128 203V149H149V64ZM181 267Q192 267 200.0 274.5Q208 282 208.0 293.0Q208 304 200.0 312.0Q192 320 181.0 320.0Q170 320 162.5 312.0Q155 304 155.0 293.0Q155 282 162.5 274.5Q170 267 181 267ZM384 213 331 299 277 213ZM277 171 331 85 384 171Z" />
      </g>
    </svg>