<svg xmlns="http://www.w3.org/2000/svg" viewBox="43 21 426 342">
      <g transform="scale(1 -1) translate(0 -384)">
        <path d="M256 320Q302 320 341.5 303.0Q381 286 404.0 256.5Q427 227 427.0 192.0Q427 157 404.0 127.5Q381 98 341.5 81.0Q302 64 256.0 64.0Q210 64 170.5 81.0Q131 98 108.0 127.5Q85 157 85.0 192.0Q85 227 108.0 256.5Q131 286 170.5 303.0Q210 320 256 320ZM256 363Q198 363 149.0 340.0Q100 317 71.5 277.5Q43 238 43.0 192.0Q43 146 71.5 106.5Q100 67 149.0 44.0Q198 21 256.0 21.0Q314 21 363.0 44.0Q412 67 440.5 106.5Q469 146 469.0 192.0Q469 238 440.5 277.5Q412 317 363.0 340.0Q314 363 256 363Z" />
      </g>
    </svg>