<svg xmlns="http://www.w3.org/2000/svg" viewBox="43 -43 426 406">
      <g transform="scale(1 -1) translate(0 -320)">
        <path d="M256 60Q256 75 263.0 88.5Q270 102 282 112V117Q282 143 296.0 165.0Q310 187 333.5 200.0Q357 213 383.5 213.0Q410 213 432.5 201.0Q455 189 469 169V320Q469 338 456.5 350.5Q444 363 427 363H85Q68 363 55.5 350.5Q43 338 43 320V64Q43 46 55.5 33.5Q68 21 85 21H256ZM85 320 256 213 427 320V277L256 171L85 277ZM444 85V117Q444 139 425.5 155.0Q407 171 384.0 171.0Q361 171 342.5 155.0Q324 139 324 117V85Q315 85 307.0 77.0Q299 69 299 60V-15Q299 -26 306.5 -34.5Q314 -43 324 -43H442Q453 -43 461.0 -35.0Q469 -27 469 -17V58Q469 69 461.5 77.0Q454 85 444 85ZM416 85H352V117Q352 130 361.5 137.5Q371 145 384.0 145.0Q397 145 406.5 137.5Q416 130 416 117Z" />
      </g>
    </svg>