<svg xmlns="http://www.w3.org/2000/svg" viewBox="21 -30 478 393">
      <g transform="scale(1 -1) translate(0 -333)">
        <path d="M352 213Q392 213 420.0 185.0Q448 157 448 117Q448 89 433 66L499 0L469 -30L403 36Q379 21 352 21Q312 21 284.0 49.0Q256 77 256.0 117.0Q256 157 284.0 185.0Q312 213 352 213ZM352 171Q330 171 314.5 155.0Q299 139 299.0 117.0Q299 95 314.5 79.5Q330 64 352.0 64.0Q374 64 389.5 79.5Q405 95 405.0 117.0Q405 139 389.5 155.0Q374 171 352 171ZM224 64H64V277L227 176Q243 212 277.0 234.0Q311 256 352 256Q364 256 369 255L405 277V245Q428 236 448 217V320Q448 338 435.5 350.5Q423 363 405 363H64Q46 363 33.5 350.5Q21 338 21 320V64Q21 46 33.5 33.5Q46 21 64 21H252Q234 40 224 64ZM405 320 235 213 64 320Z" />
      </g>
    </svg>