<svg xmlns="http://www.w3.org/2000/svg" viewBox="43 -21 444 384">
      <g transform="scale(1 -1) translate(0 -342)">
        <path d="M448 189Q443 189 440 186L418 164L462 122L483 143Q487 146 487.0 151.0Q487 156 483 159L457 186Q454 189 449 189ZM406 152 277 23V-21H321L451 108ZM427 363H85Q68 363 55.5 350.5Q43 338 43 320V64Q43 46 55.5 33.5Q68 21 85 21H235V40L410 216Q426 232 449 232Q460 232 470 228V320Q470 338 457.5 350.5Q445 363 427 363ZM427 277 256 171 85 277V320L256 213L427 320Z" />
      </g>
    </svg>