<svg xmlns="http://www.w3.org/2000/svg" viewBox="21 -30 478 393">
      <g transform="scale(1 -1) translate(0 -333)">
        <path d="M64 363H405Q423 363 435.5 350.5Q448 338 448 320V217Q415 249 369 255L405 277V320L235 213L64 320V277L227 176Q213 148 213 117Q213 90 223.0 65.5Q233 41 252 21H64Q46 21 33.5 33.5Q21 46 21 64V320Q21 338 33.5 350.5Q46 363 64 363ZM352 213Q392 213 420.0 185.0Q448 157 448 117Q448 89 433 66L499 0L469 -30L403 36Q379 21 352 21Q312 21 284.0 49.0Q256 77 256.0 117.0Q256 157 284.0 185.0Q312 213 352 213ZM352 171Q330 171 314.5 155.0Q299 139 299.0 117.0Q299 95 314.5 79.5Q330 64 352.0 64.0Q374 64 389.5 79.5Q405 95 405.0 117.0Q405 139 389.5 155.0Q374 171 352 171Z" />
      </g>
    </svg>