<svg xmlns="http://www.w3.org/2000/svg" viewBox="64 0 384 384">
      <g transform="scale(1 -1) translate(0 -384)">
        <path d="M107 384Q89 384 76.5 371.5Q64 359 64 341V43Q64 25 76.5 12.5Q89 0 107 0H405Q423 0 435.5 12.5Q448 25 448 43V341Q448 359 435.5 371.5Q423 384 405 384ZM137 309H375Q388 309 396.5 300.5Q405 292 405 279V105Q405 92 396.5 83.5Q388 75 375 75H137Q124 75 115.5 83.5Q107 92 107 105V279Q107 292 115.5 300.5Q124 309 137 309ZM128 277V235L256 149L384 235V277L256 192Z" />
      </g>
    </svg>