<svg xmlns="http://www.w3.org/2000/svg" viewBox="42 -13 427 409">
      <g transform="scale(1 -1) translate(0 -383)">
        <path d="M469 145Q456 136 443 127Q410 107 382 95Q341 77 314 77Q276 76 263 96Q257 106 259 116L282 125Q310 138 334 153Q369 175 392 199Q421 230 430 263Q440 303 423 346Q403 374 378.0 385.5Q353 397 318 396Q279 396 246 372Q206 343 180 286Q169 260 162 229Q158 211 154 181L143 180Q129 179 118 181Q102 183 92 191Q79 202 68 198Q62 196 59 191L51 179Q43 164 42 153Q42 137 59 131Q81 122 119 115L152 111Q157 86 170 63Q187 31 217 9Q240 -9 276 -12Q304 -15 340 -9Q365 -4 391 5L412 13ZM248 185Q249 222 261 253Q271 280 288 298Q303 314 319.0 318.5Q335 323 345 314Q357 303 357.5 284.0Q358 265 347.0 245.0Q336 225 315.0 210.5Q294 196 277 190Q265 185 255 184Z" />
      </g>
    </svg>