<svg xmlns="http://www.w3.org/2000/svg" viewBox="56 -21 408 426">
      <g transform="scale(1 -1) translate(0 -384)">
        <path d="M242 405Q236 405 225.5 398.0Q215 391 201 375Q186 357 179 339Q169 313 175 289Q163 287 151 282Q140 277 129 264Q116 246 115 225Q114 208 119 192Q107 189 97 183H96Q91 181 84.0 176.0Q77 171 75 168Q64 156 59.5 138.5Q55 121 56.5 102.0Q58 83 67 68Q78 46 91 33Q112 12 149 -1Q176 -10 216 -17Q300 -31 368 -3Q414 16 441 49Q457 69 461.5 88.0Q466 107 463 128Q461 144 457 152Q448 170 432 178Q421 185 410 188Q418 214 397 236Q387 247 374 253Q368 255 364 256Q373 274 369 292Q364 312 346 323Q333 331 307 335L306 336Q271 342 260 357Q254 366 250 391Q249 399 248 401Q246 405 242 405ZM341 243Q342 243 344 243H345Q368 240 382.5 221.0Q397 202 394.0 177.5Q391 153 373.0 137.5Q355 122 332 124Q309 127 295.0 146.0Q281 165 283.5 189.0Q286 213 303.0 228.5Q320 244 341 243ZM184 243Q205 242 220.5 226.0Q236 210 238.0 186.5Q240 163 225.0 144.5Q210 126 187 124Q164 122 146.5 138.5Q129 155 127 179Q125 204 140.0 222.5Q155 241 178 243ZM184 207Q183 207 182 207Q173 205 167.5 198.0Q162 191 163.0 182.5Q164 174 171.0 168.5Q178 163 187.0 164.0Q196 165 201.5 172.0Q207 179 206.0 187.5Q205 196 199.0 201.5Q193 207 184 207ZM340 206Q332 206 326.0 200.0Q320 194 319.5 185.5Q319 177 324.5 170.5Q330 164 339.5 163.5Q349 163 355.5 169.0Q362 175 362.5 183.5Q363 192 357.0 199.0Q351 206 342 206ZM186 103Q190 104 199 102L203 101Q231 95 260.0 95.0Q289 95 317 101L321 102Q329 103 333 103Q339 104 344 101Q351 96 347.0 80.5Q343 65 331 53Q302 23 260.0 23.0Q218 23 189 53Q177 65 173.0 80.5Q169 96 176 101Q181 103 186 103Z" />
      </g>
    </svg>