<svg xmlns="http://www.w3.org/2000/svg" viewBox="43 -21 426 426">
      <g transform="scale(1 -1) translate(0 -384)">
        <path d="M110 73Q110 89 126 119Q139 145 161 175Q184 145 197 119Q213 89 213 73Q213 52 198.0 36.5Q183 21 161.5 21.0Q140 21 125.0 36.5Q110 52 110 73ZM469 192Q469 150 453.0 110.5Q437 71 407.0 41.0Q377 11 337.5 -5.0Q298 -21 256 -21Q228 -21 199 -13Q225 -2 240.5 21.0Q256 44 256 73Q256 87 249 107H256Q276 107 292.0 99.5Q308 92 315 80L345 111Q331 128 307.5 138.5Q284 149 256 149Q243 149 231 147Q216 173 196 200L186 213Q197 215 205.0 224.5Q213 234 213.0 246.0Q213 258 203.5 267.5Q194 277 181.5 277.0Q169 277 159.0 267.5Q149 258 149 245Q149 240 152 234L127 200Q78 133 69 89Q43 137 43 192Q43 234 59.0 273.5Q75 313 105.0 343.0Q135 373 174.5 389.0Q214 405 256.0 405.0Q298 405 337.5 389.0Q377 373 407.0 343.0Q437 313 453.0 273.5Q469 234 469 192ZM363 245Q363 258 353.0 267.5Q343 277 330.5 277.0Q318 277 308.5 267.5Q299 258 299.0 245.5Q299 233 308.5 223.0Q318 213 330.5 213.0Q343 213 353.0 223.0Q363 233 363 245Z" />
      </g>
    </svg>