<svg xmlns="http://www.w3.org/2000/svg" viewBox="43 -21 426 426">
      <g transform="scale(1 -1) translate(0 -384)">
        <path d="M427 192Q427 244 398.0 287.0Q369 330 321.0 349.5Q273 369 222.5 359.0Q172 349 135.5 312.5Q99 276 89.0 225.5Q79 175 98.5 127.0Q118 79 161.0 50.0Q204 21 256 21Q302 21 341.5 44.0Q381 67 404.0 106.5Q427 146 427 192ZM469 192Q469 134 440.5 85.0Q412 36 363.0 7.5Q314 -21 256.0 -21.0Q198 -21 149.0 7.5Q100 36 71.5 85.0Q43 134 43.0 192.0Q43 250 71.5 299.0Q100 348 149.0 376.5Q198 405 256 405Q298 405 337.5 389.0Q377 373 407.0 343.0Q437 313 453.0 273.5Q469 234 469 192ZM331 277Q344 277 353.5 268.0Q363 259 363.0 245.5Q363 232 353.5 222.5Q344 213 330.5 213.0Q317 213 308.0 222.5Q299 232 299.0 245.0Q299 258 308.5 267.5Q318 277 331 277ZM213 245Q213 232 204.0 222.5Q195 213 181.5 213.0Q168 213 158.5 222.5Q149 232 149.0 245.5Q149 259 158.5 268.0Q168 277 181.0 277.0Q194 277 203.5 267.5Q213 258 213 245ZM363 128H277Q254 128 234.5 116.5Q215 105 203 85L166 107Q184 136 213.5 153.5Q243 171 277 171H363Z" />
      </g>
    </svg>