<svg xmlns="http://www.w3.org/2000/svg" viewBox="43 -21 426 426">
      <g transform="scale(1 -1) translate(0 -384)">
        <path d="M256 405Q198 405 149.0 376.5Q100 348 71.5 299.0Q43 250 43.0 192.0Q43 134 71.5 85.0Q100 36 149.0 7.5Q198 -21 256.0 -21.0Q314 -21 363.0 7.5Q412 36 440.5 85.0Q469 134 469.0 192.0Q469 250 440.5 299.0Q412 348 363.0 376.5Q314 405 256 405ZM331 277Q344 277 353.5 268.0Q363 259 363.0 245.5Q363 232 353.5 222.5Q344 213 330.5 213.0Q317 213 308.0 222.5Q299 232 299.0 245.5Q299 259 308.0 268.0Q317 277 331 277ZM181 277Q195 277 204.0 268.0Q213 259 213.0 245.5Q213 232 204.0 222.5Q195 213 181.5 213.0Q168 213 158.5 222.5Q149 232 149.0 245.5Q149 259 158.5 268.0Q168 277 181 277ZM147 85Q160 119 189.5 139.5Q219 160 256.0 160.0Q293 160 322.5 139.5Q352 119 365 85Z" />
      </g>
    </svg>