<svg xmlns="http://www.w3.org/2000/svg" viewBox="43 -21 426 426">
      <g transform="scale(1 -1) translate(0 -384)">
        <path d="M256 405Q214 405 174.5 389.0Q135 373 105.0 343.0Q75 313 59.0 273.5Q43 234 43.0 192.0Q43 150 59.0 110.5Q75 71 105.0 41.0Q135 11 174.5 -5.0Q214 -21 256.0 -21.0Q298 -21 337.5 -5.0Q377 11 407.0 41.0Q437 71 453.0 110.5Q469 150 469.0 192.0Q469 234 453.0 273.5Q437 313 407.0 343.0Q377 373 337.5 389.0Q298 405 256 405ZM149 245Q149 258 159.0 267.5Q169 277 181.5 277.0Q194 277 203.5 267.5Q213 258 213.0 245.5Q213 233 203.5 223.0Q194 213 181.5 213.0Q169 213 159.0 223.0Q149 233 149 245ZM315 80Q308 92 292.0 99.5Q276 107 256.0 107.0Q236 107 220.0 99.5Q204 92 197 80L167 111Q181 128 204.5 138.5Q228 149 256.0 149.0Q284 149 307.5 138.5Q331 128 345 111ZM331 213Q318 213 308.5 223.0Q299 233 299.0 245.5Q299 258 308.5 267.5Q318 277 330.5 277.0Q343 277 353.0 267.5Q363 258 363.0 245.5Q363 233 353.0 223.0Q343 213 331 213Z" />
      </g>
    </svg>