<svg xmlns="http://www.w3.org/2000/svg" viewBox="21 -21 454 426">
      <g transform="scale(1 -1) translate(0 -384)">
        <path d="M403 44 340 107Q332 116 332.0 127.0Q332 138 340.0 146.5Q348 155 359.5 155.0Q371 155 379 146L403 122L427 147Q435 155 446.5 155.0Q458 155 466.5 146.5Q475 138 475.0 126.5Q475 115 467 107ZM372 29Q344 5 308.5 -8.0Q273 -21 235 -21Q192 -21 153.0 -5.0Q114 11 84.0 41.0Q54 71 37.5 110.5Q21 150 21.0 192.0Q21 234 37.5 273.5Q54 313 84.0 343.0Q114 373 153.0 389.0Q192 405 234.5 405.0Q277 405 316.5 389.0Q356 373 386.0 343.0Q416 313 432.0 273.5Q448 234 448 192Q448 188 447 187Q423 187 405 169L403 168L402 169Q385 187 360.0 187.0Q335 187 317.5 169.5Q300 152 300.0 127.0Q300 102 317 85ZM277 245Q277 233 287.0 223.0Q297 213 309.5 213.0Q322 213 331.5 223.0Q341 233 341.0 245.5Q341 258 331.5 267.5Q322 277 309.5 277.0Q297 277 287.0 267.5Q277 258 277 245ZM192 245Q192 258 182.5 267.5Q173 277 160.0 277.0Q147 277 137.5 267.5Q128 258 128.0 245.5Q128 233 137.5 223.0Q147 213 160.0 213.0Q173 213 182.5 223.0Q192 233 192 245ZM276 124 299 147 253 192 231 169 253 147 231 124 253 102 231 79 253 56 299 102Z" />
      </g>
    </svg>