<svg xmlns="http://www.w3.org/2000/svg" viewBox="56 -21 408 426">
      <g transform="scale(1 -1) translate(0 -384)">
        <path d="M457 152Q448 170 432 178Q421 185 410 188Q418 214 397 236Q387 247 374 253Q368 255 364 256Q373 274 369 292Q364 312 346 323Q333 331 307 335L306 336Q271 342 260 357Q254 366 250 391Q249 399 248 401Q246 405 242 405Q236 405 225.5 398.0Q215 391 201 375Q186 357 179 339Q169 313 175 289Q163 287 151 282Q140 277 129 264Q116 246 115 225Q114 214 117 197V191Q106 188 97 183H96Q91 181 84.0 176.0Q77 171 75 168Q64 156 59.5 138.5Q55 121 56.5 102.0Q58 83 67 68Q78 46 91 33Q112 12 149 -1Q176 -10 216 -17Q243 -21 269 -21Q323 -21 368.5 -2.5Q414 16 441 49Q457 69 461.5 88.0Q466 107 463 128Q461 144 457 152ZM342 206Q351 206 357.0 199.0Q363 192 362.5 183.5Q362 175 355.5 169.0Q349 163 339.5 163.5Q330 164 324.5 170.5Q319 177 319.5 185.5Q320 194 326.0 200.0Q332 206 340 206ZM431 95Q430 95 430 95Q427 82 416 69Q395 43 356.0 27.0Q317 11 269 11Q245 11 221 15Q142 27 113 56Q104 66 95 83Q90 93 88.5 105.5Q87 118 90 131Q93 140 99 147Q102 150 107 153L112 155Q115 157 121 159Q128 139 145.5 126.0Q163 113 183 113H188Q216 115 233.5 137.5Q251 160 249.0 187.5Q247 215 228.5 234.0Q210 253 184 254L177 253Q169 253 159 249Q162 252 163 253Q171 256 180 258L213 264L206 297Q203 311 209 328Q213 339 226 355Q229 345 235 338Q253 312 300 304H301Q322 300 330 295Q336 292 337.5 285.0Q339 278 336 271L324 252Q304 247 289.5 230.0Q275 213 273 191Q270 162 286.5 139.5Q303 117 331 113H338Q362 113 380 129Q393 140 400 157H403Q408 156 415 151L417 149Q424 147 428 139Q430 134 431 123Q433 108 431 95ZM163 182Q162 191 167.5 198.0Q173 205 182 207H184Q193 207 199.0 201.5Q205 196 206.0 187.5Q207 179 201.5 172.0Q196 165 187.0 164.0Q178 163 171.0 168.5Q164 174 163 182ZM186 103Q190 104 199 102L203 101Q231 95 260.0 95.0Q289 95 317 101L321 102Q329 103 333 103Q339 104 344 101Q351 96 347.0 80.5Q343 65 331 53Q302 23 260.0 23.0Q218 23 189 53Q177 65 173.0 80.5Q169 96 176 101Q181 103 186 103Z" />
      </g>
    </svg>