<svg xmlns="http://www.w3.org/2000/svg" viewBox="42 -21 427 427">
      <g transform="scale(1 -1) translate(0 -385)">
        <path d="M321 257V343Q322 368 336 390Q276 414 213.5 401.0Q151 388 105.5 342.5Q60 297 47.0 234.5Q34 172 58 113Q80 127 105 127H191V41Q191 16 177 -6Q236 -30 298.5 -17.0Q361 -4 406.5 41.5Q452 87 465.0 149.5Q478 212 454 272Q432 258 407 257ZM235 320H267V288H299V256H235ZM160 149V181H128V213H192V149ZM339 109Q313 83 277.5 77.0Q242 71 209 85L363 239Q377 206 370.5 170.5Q364 135 339 109ZM104 -2Q87 -2 74.5 10.5Q62 23 62.0 41.0Q62 59 74.5 71.5Q87 84 104 84H147V41Q147 24 135.0 11.5Q123 -1 105 -1ZM407 385Q424 385 436.5 372.5Q449 360 449.0 342.5Q449 325 436.5 312.5Q424 300 407 300H364V343Q364 360 376.5 372.5Q389 385 407 385Z" />
      </g>
    </svg>