<svg xmlns="http://www.w3.org/2000/svg" viewBox="43 -21 426 426">
      <g transform="scale(1 -1) translate(0 -384)">
        <path d="M161 21Q140 21 125.0 36.5Q110 52 110 73Q110 89 126 119Q139 145 161 175Q184 145 197 119Q213 89 213 73Q213 52 198.0 36.5Q183 21 161 21ZM256 405Q214 405 174.5 389.0Q135 373 105.0 343.0Q75 313 59.0 273.5Q43 234 43 192Q43 137 69 89Q74 113 92 146Q85 168 85 192Q85 238 108.0 277.5Q131 317 170.5 340.0Q210 363 256.0 363.0Q302 363 341.5 340.0Q381 317 404.0 277.5Q427 238 427.0 192.0Q427 146 404.0 106.5Q381 67 341.5 44.0Q302 21 256 21Q246 21 241 22Q226 -2 199 -13Q227 -21 256 -21Q298 -21 337.5 -5.0Q377 11 407.0 41.0Q437 71 453.0 110.5Q469 150 469.0 192.0Q469 234 453.0 273.5Q437 313 407.0 343.0Q377 373 337.5 389.0Q298 405 256 405ZM256 149Q243 149 231 147Q243 125 249 107H256Q276 107 292.0 99.5Q308 92 315 80L345 111Q331 128 307.5 138.5Q284 149 256 149ZM331 277Q318 277 308.5 267.5Q299 258 299.0 245.5Q299 233 308.5 223.0Q318 213 330.5 213.0Q343 213 353.0 223.0Q363 233 363.0 245.5Q363 258 353.0 267.5Q343 277 331 277ZM213 245Q213 258 203.5 267.5Q194 277 181.5 277.0Q169 277 159.0 267.5Q149 258 149.0 245.5Q149 233 159.0 223.0Q169 213 181.5 213.0Q194 213 203.5 223.0Q213 233 213 245Z" />
      </g>
    </svg>