<svg xmlns="http://www.w3.org/2000/svg" viewBox="43 -21 426 426">
      <g transform="scale(1 -1) translate(0 -384)">
        <path d="M256 405Q198 405 149.0 376.5Q100 348 71.5 299.0Q43 250 43.0 192.0Q43 134 71.5 85.0Q100 36 149.0 7.5Q198 -21 256 -21Q298 -21 337.5 -5.0Q377 11 407.0 41.0Q437 71 453.0 110.5Q469 150 469 192Q469 250 440.5 299.0Q412 348 363.0 376.5Q314 405 256 405ZM144 260 167 282 189 260 212 282 235 260 212 237 235 215 212 192 189 215 167 192 144 215 167 237ZM147 75Q160 108 189.5 128.5Q219 149 256.0 149.0Q293 149 322.5 128.5Q352 108 365 75ZM368 215 345 192 323 215 300 192 277 215 300 237 277 260 300 282 323 260 345 282 368 260 345 237Z" />
      </g>
    </svg>