<svg xmlns="http://www.w3.org/2000/svg" viewBox="43 -21 426 426">
      <g transform="scale(1 -1) translate(0 -384)">
        <path d="M427 192Q427 238 404.0 277.5Q381 317 341.5 340.0Q302 363 256.0 363.0Q210 363 170.5 340.0Q131 317 108.0 277.5Q85 238 85.0 192.0Q85 146 108.0 106.5Q131 67 170.5 44.0Q210 21 256.0 21.0Q302 21 341.5 44.0Q381 67 404.0 106.5Q427 146 427 192ZM469 192Q469 150 453.0 110.5Q437 71 407.0 41.0Q377 11 337.5 -5.0Q298 -21 256.0 -21.0Q214 -21 174.5 -5.0Q135 11 105.0 41.0Q75 71 59.0 110.5Q43 150 43.0 192.0Q43 234 59.0 273.5Q75 313 105.0 343.0Q135 373 174.5 389.0Q214 405 256.0 405.0Q298 405 337.5 389.0Q377 373 407.0 343.0Q437 313 453.0 273.5Q469 234 469 192ZM331 277Q343 277 353.0 267.5Q363 258 363.0 245.5Q363 233 353.0 223.0Q343 213 330.5 213.0Q318 213 308.5 223.0Q299 233 299.0 245.5Q299 258 308.5 267.5Q318 277 331 277ZM213 245Q213 233 203.5 223.0Q194 213 181.5 213.0Q169 213 159.0 223.0Q149 233 149.0 245.5Q149 258 159.0 267.5Q169 277 181.5 277.0Q194 277 203.5 267.5Q213 258 213 245ZM256 149Q284 149 307.5 138.5Q331 128 345 111L315 80Q308 92 292.0 99.5Q276 107 256.0 107.0Q236 107 220.0 99.5Q204 92 197 80L167 111Q181 128 204.5 138.5Q228 149 256 149Z" />
      </g>
    </svg>