<svg xmlns="http://www.w3.org/2000/svg" viewBox="43 -21 448 426">
      <g transform="scale(1 -1) translate(0 -384)">
        <path d="M448 256Q430 256 417.5 268.5Q405 281 405 299Q405 309 416 331Q424 347 437 367L448 384L459 367Q472 347 480 331Q491 309 491 299Q491 281 478.5 268.5Q466 256 448 256ZM373 299Q373 319 393 355Q365 379 329.5 392.0Q294 405 256 405Q198 405 149.0 376.5Q100 348 71.5 299.0Q43 250 43.0 192.0Q43 134 71.5 85.0Q100 36 149.0 7.5Q198 -21 256.0 -21.0Q314 -21 363.0 7.5Q412 36 440.5 85.0Q469 134 469 192Q469 207 466 227Q456 224 448 224Q417 224 395.0 246.0Q373 268 373 299ZM333 291 356 268 333 245 356 223 333 200 288 245ZM156 268 179 291 224 245 179 200 156 223 179 245ZM329 85Q318 105 298.5 116.5Q279 128 256.0 128.0Q233 128 213.5 116.5Q194 105 183 85H147Q156 109 175 128L112 164Q104 160 96.0 160.0Q88 160 80 164Q69 171 65.5 183.5Q62 196 68.5 207.5Q75 219 87.5 222.5Q100 226 112 220Q120 215 124.0 207.5Q128 200 128 192L204 148Q228 160 256 160Q293 160 322.5 139.5Q352 119 365 85Z" />
      </g>
    </svg>