<svg xmlns="http://www.w3.org/2000/svg" viewBox="43 -21 426 426">
      <g transform="scale(1 -1) translate(0 -384)">
        <path d="M256 405Q198 405 149.0 376.5Q100 348 71.5 299.0Q43 250 43.0 192.0Q43 134 71.5 85.0Q100 36 149.0 7.5Q198 -21 256.0 -21.0Q314 -21 363.0 7.5Q412 36 440.5 85.0Q469 134 469 192Q469 234 453.0 273.5Q437 313 407.0 343.0Q377 373 337.5 389.0Q298 405 256 405ZM181 277Q195 277 204.0 268.0Q213 259 213.0 245.5Q213 232 204.0 222.5Q195 213 181.5 213.0Q168 213 158.5 222.5Q149 232 149.5 245.0Q150 258 159.0 267.5Q168 277 181 277ZM363 107H277Q254 107 234.5 95.5Q215 84 203 64L166 85Q184 115 213.5 132.0Q243 149 277 149H363ZM331 213Q317 213 308.0 222.5Q299 232 299.0 245.5Q299 259 308.0 268.0Q317 277 330.5 277.0Q344 277 353.5 268.0Q363 259 362.5 245.5Q362 232 353.0 223.0Q344 214 331 213Z" />
      </g>
    </svg>