<svg xmlns="http://www.w3.org/2000/svg" viewBox="32 -21 448 426">
      <g transform="scale(1 -1) translate(0 -384)">
        <path d="M480 403Q452 375 391 357Q363 380 328.5 392.5Q294 405 256.0 405.0Q218 405 183.5 392.5Q149 380 121 357Q60 375 32 403Q33 352 79 311Q43 258 43 192Q43 150 59.0 110.5Q75 71 105.0 41.0Q135 11 174.5 -5.0Q214 -21 256.0 -21.0Q298 -21 337.5 -5.0Q377 11 407.0 41.0Q437 71 453.0 110.5Q469 150 469 192Q469 258 433 311Q479 352 480 403ZM160 267 224 235Q224 222 214.5 212.5Q205 203 192.0 203.0Q179 203 169.5 212.5Q160 222 160 235ZM256 80Q229 80 205.0 90.5Q181 101 167 119L197 149Q204 138 220.0 130.5Q236 123 256.0 123.0Q276 123 292.0 130.5Q308 138 315 149L345 119Q331 101 307.0 90.5Q283 80 256 80ZM352 235Q352 222 342.5 212.5Q333 203 320.0 203.0Q307 203 297.5 212.5Q288 222 288 235L352 267Z" />
      </g>
    </svg>