<svg xmlns="http://www.w3.org/2000/svg" viewBox="43 -21 426 426">
      <g transform="scale(1 -1) translate(0 -384)">
        <path d="M405 235Q405 214 379 197Q355 181 331.5 181.0Q308 181 290.0 197.0Q272 213 272 235H240Q240 213 222.0 197.0Q204 181 180.5 181.0Q157 181 133 197Q107 214 107 235H91Q85 213 85 192Q85 146 108.0 106.5Q131 67 170.5 44.0Q210 21 256.0 21.0Q302 21 341.5 44.0Q381 67 404.0 106.5Q427 146 427 192Q427 213 421 235ZM256 363Q209 363 170.0 339.5Q131 316 108 277H404Q381 316 342.0 339.5Q303 363 256 363ZM469 192Q469 150 453.0 110.5Q437 71 407.0 41.0Q377 11 337.5 -5.0Q298 -21 256.0 -21.0Q214 -21 174.5 -5.0Q135 11 105.0 41.0Q75 71 59.0 110.5Q43 150 43.0 192.0Q43 234 59.0 273.5Q75 313 105.0 343.0Q135 373 174.5 389.0Q214 405 256.0 405.0Q298 405 337.5 389.0Q377 373 407.0 343.0Q437 313 453.0 273.5Q469 234 469 192ZM256 80Q229 80 205.0 90.5Q181 101 167 119L197 149Q204 138 220.0 130.5Q236 123 256.0 123.0Q276 123 292.0 130.5Q308 138 315 149L345 119Q331 101 307.0 90.5Q283 80 256 80Z" />
      </g>
    </svg>