<svg xmlns="http://www.w3.org/2000/svg" viewBox="47 -21 444 426">
      <g transform="scale(1 -1) translate(0 -384)">
        <path d="M156 223 179 245 156 268 179 291 224 245 179 200ZM96 256Q97 256 98 256Q117 304 160.0 333.5Q203 363 256 363Q290 363 321.0 350.0Q352 337 376 314Q380 332 393 355Q365 379 329.5 392.0Q294 405 256 405Q205 405 160.5 382.5Q116 360 86.0 320.5Q56 281 47 232Q56 243 69.0 249.5Q82 256 96 256ZM448 224Q436 224 423 229Q427 210 427 192Q427 146 404.0 106.5Q381 67 341.5 44.0Q302 21 256 21Q203 21 160.0 50.5Q117 80 98 128H96Q79 128 64 137Q54 142 47 151Q56 103 86.0 63.5Q116 24 160.5 1.5Q205 -21 256 -21Q314 -21 363.0 7.5Q412 36 440.5 85.0Q469 134 469 192Q469 207 466 227Q456 224 448 224ZM448 384Q442 376 437 367Q424 347 416 331Q405 309 405 299Q405 281 417.5 268.5Q430 256 448.0 256.0Q466 256 478.5 268.5Q491 281 491 299Q491 313 469 350Q459 369 448 384ZM333 291 288 245 333 200 356 223 333 245 356 268ZM183 85Q194 105 213.5 116.5Q233 128 256.0 128.0Q279 128 298.5 116.5Q318 105 329 85H365Q352 119 322.5 139.5Q293 160 256 160Q228 160 204 148L128 192Q128 200 124.0 207.5Q120 215 112 220Q100 226 87.5 222.5Q75 219 68.5 207.5Q62 196 65.0 183.5Q68 171 80 164Q87 160 96.0 160.0Q105 160 112 164L175 127Q157 110 147 85Z" />
      </g>
    </svg>