<svg xmlns="http://www.w3.org/2000/svg" viewBox="42 -21 427 427">
      <g transform="scale(1 -1) translate(0 -385)">
        <path d="M128 213V181H160V149H192V213ZM267 320H235V256H299V288H267ZM209 85Q242 72 277.0 78.5Q312 85 337.5 110.5Q363 136 369.5 171.0Q376 206 363 239ZM135 313Q172 349 223.0 359.0Q274 369 322 349Q324 371 336 390Q276 414 213.5 401.0Q151 388 105.5 342.5Q60 297 47.0 234.5Q34 172 58 113Q77 125 99 127Q79 174 89.0 225.0Q99 276 135 313ZM377 71Q340 35 289.0 25.0Q238 15 190 35Q188 13 176 -6Q236 -30 298.5 -17.0Q361 -4 406.5 41.5Q452 87 465.0 149.5Q478 212 454 271Q435 259 413 257Q433 210 423.0 159.0Q413 108 377 71ZM128 213V181H160V149H192V213ZM209 85Q242 72 277.0 78.5Q312 85 337.5 110.5Q363 136 369.5 171.0Q376 206 363 239ZM267 320H235V256H299V288H267ZM128 213V181H160V149H192V213ZM267 320H235V256H299V288H267ZM209 85Q242 72 277.0 78.5Q312 85 337.5 110.5Q363 136 369.5 171.0Q376 206 363 239ZM105 0Q88 0 75.5 12.5Q63 25 63.0 42.5Q63 60 75.5 72.5Q88 85 105 85H148V43Q148 25 135.5 11.5Q123 -2 105 -1ZM407 385Q424 385 436.5 372.5Q449 360 449.0 342.5Q449 325 436.5 312.5Q424 300 407 300H364V343Q364 360 376.5 372.5Q389 385 407 385Z" />
      </g>
    </svg>