<svg xmlns="http://www.w3.org/2000/svg" viewBox="43 -21 426 426">
      <g transform="scale(1 -1) translate(0 -384)">
        <path d="M256 405Q198 405 149.0 376.5Q100 348 71.5 299.0Q43 250 43.0 192.0Q43 134 71.5 85.0Q100 36 149.0 7.5Q198 -21 256.0 -21.0Q314 -21 363.0 7.5Q412 36 440.5 85.0Q469 134 469.0 192.0Q469 250 440.5 299.0Q412 348 363.0 376.5Q314 405 256 405ZM256 21Q210 21 170.5 44.0Q131 67 108.0 106.5Q85 146 85.0 192.0Q85 238 108.0 277.5Q131 317 170.5 340.0Q210 363 256.0 363.0Q302 363 341.5 340.0Q381 317 404.0 277.5Q427 238 427.0 192.0Q427 146 404.0 106.5Q381 67 341.5 44.0Q302 21 256 21ZM331 213Q344 213 353.5 222.5Q363 232 363.0 245.5Q363 259 353.5 268.0Q344 277 330.5 277.0Q317 277 308.0 268.0Q299 259 299.0 245.5Q299 232 308.0 222.5Q317 213 331 213ZM181 213Q195 213 204.0 222.5Q213 232 213.0 245.5Q213 259 204.0 268.0Q195 277 181.5 277.0Q168 277 158.5 268.0Q149 259 149.0 245.5Q149 232 158.5 222.5Q168 213 181 213ZM256 160Q219 160 189.5 139.5Q160 119 147 85H365Q352 119 322.5 139.5Q293 160 256 160Z" />
      </g>
    </svg>