<svg xmlns="http://www.w3.org/2000/svg" viewBox="21 -21 470 426">
      <g transform="scale(1 -1) translate(0 -384)">
        <path d="M192 245Q192 233 182.5 223.0Q173 213 160.0 213.0Q147 213 137.5 223.0Q128 233 128.0 245.5Q128 258 137.5 267.5Q147 277 160.0 277.0Q173 277 182.5 267.5Q192 258 192 245ZM341 245Q341 233 331.5 223.0Q322 213 309.5 213.0Q297 213 287.0 223.0Q277 233 277.0 245.5Q277 258 287.0 267.5Q297 277 309.5 277.0Q322 277 331.5 267.5Q341 258 341 245ZM299 147 253 192 231 169 253 147 231 124 253 102 231 79 253 56 299 102 276 124ZM359 171Q341 171 328.5 158.0Q316 145 316.0 127.0Q316 109 329 96L403 21L478 96Q491 109 491.0 127.0Q491 145 478.0 158.0Q465 171 447.0 171.0Q429 171 416 158L403 145L390 158Q378 171 359 171ZM320 44Q280 21 234.0 21.0Q188 21 149.0 44.0Q110 67 87.0 106.5Q64 146 64.0 192.0Q64 238 87.0 277.5Q110 317 149.0 340.0Q188 363 233.5 363.0Q279 363 317.0 341.5Q355 320 378.5 283.5Q402 247 405 203Q425 213 447 213Q442 267 412.0 310.5Q382 354 335.5 379.5Q289 405 235 405Q192 405 153.0 389.0Q114 373 84.0 343.0Q54 313 37.5 273.5Q21 234 21.0 192.0Q21 150 37.5 110.5Q54 71 84.0 41.0Q114 11 153.0 -5.0Q192 -21 235 -21Q298 -21 351 13Z" />
      </g>
    </svg>