<svg xmlns="http://www.w3.org/2000/svg" viewBox="43 -21 426 426">
      <g transform="scale(1 -1) translate(0 -384)">
        <path d="M69 294Q96 345 146.0 375.0Q196 405 256.0 405.0Q316 405 366.0 375.0Q416 345 443 294L427 277H85ZM457 265Q469 228 469 192Q469 150 453.0 110.5Q437 71 407.0 41.0Q377 11 337.5 -5.0Q298 -21 256.0 -21.0Q214 -21 174.5 -5.0Q135 11 105.0 41.0Q75 71 59.0 110.5Q43 150 43 192Q43 228 55 265L85 235H107Q107 214 133 197Q157 181 180.5 181.0Q204 181 222.0 197.0Q240 213 240 235H272Q272 213 290.0 197.0Q308 181 331.5 181.0Q355 181 379 197Q405 214 405 235H427ZM345 119 315 149Q308 138 292.0 130.5Q276 123 256.0 123.0Q236 123 220.0 130.5Q204 138 197 149L167 119Q181 101 205.0 90.5Q229 80 256.0 80.0Q283 80 307.0 90.5Q331 101 345 119Z" />
      </g>
    </svg>