<svg xmlns="http://www.w3.org/2000/svg" viewBox="43 -21 426 426">
      <g transform="scale(1 -1) translate(0 -384)">
        <path d="M256 405Q214 405 174.5 389.0Q135 373 105.0 343.0Q75 313 59.0 273.5Q43 234 43.0 192.0Q43 150 59.0 110.5Q75 71 105.0 41.0Q135 11 174.5 -5.0Q214 -21 256.0 -21.0Q298 -21 337.5 -5.0Q377 11 407.0 41.0Q437 71 453.0 110.5Q469 150 469.0 192.0Q469 234 453.0 273.5Q437 313 407.0 343.0Q377 373 337.5 389.0Q298 405 256 405ZM256 21Q210 21 170.5 44.0Q131 67 108.0 106.5Q85 146 85.0 192.0Q85 238 108.0 277.5Q131 317 170.5 340.0Q210 363 256.0 363.0Q302 363 341.5 340.0Q381 317 404.0 277.5Q427 238 427.0 192.0Q427 146 404.0 106.5Q381 67 341.5 44.0Q302 21 256 21ZM181 213Q168 213 158.5 222.5Q149 232 149.0 245.5Q149 259 158.5 268.0Q168 277 181.5 277.0Q195 277 204.0 268.0Q213 259 213.0 245.5Q213 232 204.0 222.5Q195 213 181 213ZM363 245Q363 232 353.5 222.5Q344 213 330.5 213.0Q317 213 308.0 222.5Q299 232 299.0 245.5Q299 259 308.0 268.0Q317 277 330.5 277.0Q344 277 353.5 268.0Q363 259 363 245ZM341 149V107H171V149Z" />
      </g>
    </svg>