<svg xmlns="http://www.w3.org/2000/svg" viewBox="171 43 192 298">
      <g transform="scale(1 -1) translate(0 -384)">
        <path d="M321 282 345 316 336 323Q325 330 311 335Q293 341 272 341Q230 341 203 317Q178 293 178 261Q178 236 197 215Q206 204 215 199L208 195Q200 191 193 184Q183 175 178 163Q171 147 171 128Q171 88 200 64Q226 43 265.5 43.0Q305 43 338 64Q354 74 363 84L333 117L324 110Q312 101 300 96Q283 88 269 88Q241 88 228 103Q218 114 218 130Q218 151 230 162Q248 178 295 178V218H284Q270 218 259 221Q243 225 234 233Q223 244 223 261Q223 283 240 293Q253 300 270 300Q292 300 308 291Q317 287 321 282Z" />
      </g>
    </svg>