<svg xmlns="http://www.w3.org/2000/svg" viewBox="43 0 430 363">
      <g transform="scale(1 -1) translate(0 -363)">
        <path d="M427 277H404L148 21H85Q68 21 55.5 33.5Q43 46 43.0 64.0Q43 82 55.5 94.5Q68 107 85 107H113L149 143V235Q149 243 155.5 249.5Q162 256 171 256H192Q201 256 207.0 249.5Q213 243 213 235V207L369 363H427Q444 363 456.5 350.5Q469 338 469.0 320.0Q469 302 456.5 289.5Q444 277 427 277ZM181 341Q195 341 204.0 332.0Q213 323 213.0 309.5Q213 296 204.0 286.5Q195 277 181.5 277.0Q168 277 158.5 286.5Q149 296 149.0 309.5Q149 323 158.5 332.0Q168 341 181 341ZM316 78 434 196 473 157 355 39 395 0H277V117Z" />
      </g>
    </svg>