<svg xmlns="http://www.w3.org/2000/svg" viewBox="37 0 438 384">
      <g transform="scale(1 -1) translate(0 -384)">
        <path d="M170 244 253 292Q256 294 259 292L342 244Q346 242 346 239V143Q346 139 342 137L259 89Q256 87 253 89L170 137Q166 139 166 143V239Q166 242 170 244ZM472 201Q478 191 472 181L373 9Q367 0 355 0H157Q145 0 139 9L40 181Q34 191 40 201L139 373Q146 384 157 384H355Q366 384 373 373ZM390 117V263Q390 268 386 270L259 342Q256 345 252 342L126 270Q122 268 122 263V117Q122 113 126 111L253 39Q256 37 260 39L386 111Q390 113 390 117Z" />
      </g>
    </svg>