<svg xmlns="http://www.w3.org/2000/svg" viewBox="43 -10 448 373">
      <g transform="scale(1 -1) translate(0 -353)">
        <path d="M491 261 463 294Q456 289 446 284Q432 277 421.5 277.0Q411 277 373 287L371 288Q328 299 311.5 299.0Q295 299 276 291Q271 322 247.5 342.5Q224 363 192 363Q146 363 111 339Q78 317 60.5 278.5Q43 240 43.0 193.0Q43 146 66 111Q88 78 127.0 60.5Q166 43 213 43Q281 43 327 77L320 -6L363 -10L384 240Q408 235 422 235Q444 235 468 247Q482 254 491 261ZM192 320Q210 320 222.5 307.5Q235 295 235.0 277.5Q235 260 222.5 247.5Q210 235 192 235H90Q100 274 125 296Q152 320 192 320ZM213 85Q158 85 123 112Q85 141 85 192H192Q217 192 236.5 204.0Q256 216 267 237Q274 242 285 248Q301 256 311.0 256.0Q321 256 342 251L334 152Q321 120 288.5 102.5Q256 85 213 85Z" />
      </g>
    </svg>