<svg xmlns="http://www.w3.org/2000/svg" viewBox="43 -21 426 426">
      <g transform="scale(1 -1) translate(0 -384)">
        <path d="M160 245Q138 245 122.5 229.5Q107 214 107.0 192.0Q107 170 122.5 154.5Q138 139 160.0 139.0Q182 139 197.5 154.5Q213 170 213.0 192.0Q213 214 197.5 229.5Q182 245 160 245ZM352 245Q330 245 314.5 229.5Q299 214 299.0 192.0Q299 170 314.5 154.5Q330 139 352.0 139.0Q374 139 389.5 154.5Q405 170 405.0 192.0Q405 214 389.5 229.5Q374 245 352 245ZM256 363Q302 363 341.5 340.0Q381 317 404.0 277.5Q427 238 427.0 192.0Q427 146 404.0 106.5Q381 67 341.5 44.0Q302 21 256.0 21.0Q210 21 170.5 44.0Q131 67 108.0 106.5Q85 146 85.0 192.0Q85 238 108.0 277.5Q131 317 170.5 340.0Q210 363 256 363ZM256 405Q198 405 149.0 376.5Q100 348 71.5 299.0Q43 250 43.0 192.0Q43 134 71.5 85.0Q100 36 149.0 7.5Q198 -21 256.0 -21.0Q314 -21 363.0 7.5Q412 36 440.5 85.0Q469 134 469.0 192.0Q469 250 440.5 299.0Q412 348 363.0 376.5Q314 405 256 405ZM256 341Q234 341 218.5 325.5Q203 310 203.0 288.0Q203 266 218.5 250.5Q234 235 256.0 235.0Q278 235 293.5 250.5Q309 266 309.0 288.0Q309 310 293.5 325.5Q278 341 256 341ZM288 288Q288 284 284 275L271 288L284 301Q288 292 288 288ZM269 316 256 303 243 316Q252 320 256.0 320.0Q260 320 269 316ZM228 275Q224 284 224.0 288.0Q224 292 228 301L241 288ZM243 260 256 273 269 260Q260 256 256.0 256.0Q252 256 243 260ZM256 149Q234 149 218.5 133.5Q203 118 203.0 96.0Q203 74 218.5 58.5Q234 43 256.0 43.0Q278 43 293.5 58.5Q309 74 309.0 96.0Q309 118 293.5 133.5Q278 149 256 149ZM288 96Q288 92 284 83L271 96L284 109Q288 100 288 96ZM269 124 256 111 243 124Q252 128 256.0 128.0Q260 128 269 124ZM228 83Q224 92 224.0 96.0Q224 100 228 109L241 96ZM243 68 256 81 269 68Q260 64 256.0 64.0Q252 64 243 68Z" />
      </g>
    </svg>