<svg xmlns="http://www.w3.org/2000/svg" viewBox="43 -64 426 512">
      <g transform="scale(1 -1) translate(0 -384)">
        <path d="M160 21Q160 9 150.5 -1.0Q141 -11 128.0 -11.0Q115 -11 105.5 -1.0Q96 9 96.0 21.5Q96 34 105.5 43.5Q115 53 128.0 53.0Q141 53 150.5 43.5Q160 34 160 21ZM384 53Q371 53 361.5 43.5Q352 34 352.0 21.5Q352 9 361.5 -1.0Q371 -11 384.0 -11.0Q397 -11 406.5 -1.0Q416 9 416.0 21.5Q416 34 406.5 43.5Q397 53 384 53ZM469 21Q469 -14 444.0 -39.0Q419 -64 384 -64H128Q93 -64 68.0 -39.0Q43 -14 43.0 21.5Q43 57 68.0 82.0Q93 107 128 107H134Q102 133 83.0 172.5Q64 212 64 256Q64 308 89.5 352.5Q115 397 159.5 422.5Q204 448 256.0 448.0Q308 448 352.5 422.5Q397 397 422.5 352.5Q448 308 448 256Q448 212 429.0 172.5Q410 133 378 107H384Q419 107 444.0 82.0Q469 57 469 21ZM256 107Q297 107 331.0 127.0Q365 147 385.0 181.0Q405 215 405.0 256.0Q405 297 385.0 331.0Q365 365 331.0 385.0Q297 405 256.0 405.0Q215 405 181.0 385.0Q147 365 127.0 331.0Q107 297 107.0 256.0Q107 215 127.0 181.0Q147 147 181.0 127.0Q215 107 256 107ZM427 21Q427 39 414.5 51.5Q402 64 384 64H128Q110 64 97.5 51.5Q85 39 85.0 21.5Q85 4 97.5 -8.5Q110 -21 128 -21H384Q402 -21 414.5 -8.5Q427 4 427 21ZM275 314Q275 330 286.5 341.0Q298 352 314.0 352.0Q330 352 341.0 341.0Q352 330 352.0 314.0Q352 298 341.0 286.5Q330 275 314.0 275.0Q298 275 286.5 286.5Q275 298 275 314ZM160 314Q160 330 171.0 341.0Q182 352 198.0 352.0Q214 352 225.5 341.0Q237 330 237.0 314.0Q237 298 225.5 286.5Q214 275 198.0 275.0Q182 275 171.0 286.5Q160 298 160 314ZM198 230Q198 221 191.5 214.0Q185 207 175.0 207.0Q165 207 158.0 214.0Q151 221 151.0 230.5Q151 240 157.5 248.0Q164 256 174.0 256.0Q184 256 191.0 248.0Q198 240 198 230ZM294 177Q294 161 283.0 150.0Q272 139 256.0 139.0Q240 139 229.0 150.0Q218 161 218.0 177.0Q218 193 229.0 204.0Q240 215 256.0 215.0Q272 215 283.0 204.0Q294 193 294 177ZM363 230Q363 221 356.0 214.0Q349 207 339.5 207.0Q330 207 323.0 214.0Q316 221 316.0 231.0Q316 241 322.5 248.5Q329 256 339.0 256.0Q349 256 356.0 248.0Q363 240 363 230Z" />
      </g>
    </svg>