<svg xmlns="http://www.w3.org/2000/svg" viewBox="43 -21 426 426">
      <g transform="scale(1 -1) translate(0 -384)">
        <path d="M277 256Q277 238 289.5 225.5Q302 213 320.0 213.0Q338 213 350.5 225.5Q363 238 363.0 256.0Q363 274 350.5 286.5Q338 299 320.0 299.0Q302 299 289.5 286.5Q277 274 277 256ZM149 256Q149 238 161.5 225.5Q174 213 192.0 213.0Q210 213 222.5 225.5Q235 238 235.0 256.0Q235 274 222.5 286.5Q210 299 192.0 299.0Q174 299 161.5 286.5Q149 274 149 256ZM192 166Q192 176 184.0 184.0Q176 192 166.5 192.0Q157 192 149.0 184.0Q141 176 141.0 166.5Q141 157 149.0 149.0Q157 141 166.5 141.0Q176 141 184.0 148.5Q192 156 192 166ZM299 107Q299 124 286.5 136.5Q274 149 256.0 149.0Q238 149 225.5 136.5Q213 124 213.0 106.5Q213 89 225.5 76.5Q238 64 256.0 64.0Q274 64 286.5 76.5Q299 89 299 107ZM256 363Q302 363 341.5 340.0Q381 317 404.0 277.5Q427 238 427.0 192.0Q427 146 404.0 106.5Q381 67 341.5 44.0Q302 21 256.0 21.0Q210 21 170.5 44.0Q131 67 108.0 106.5Q85 146 85.0 192.0Q85 238 108.0 277.5Q131 317 170.5 340.0Q210 363 256 363ZM256 405Q198 405 149.0 376.5Q100 348 71.5 299.0Q43 250 43.0 192.0Q43 134 71.5 85.0Q100 36 149.0 7.5Q198 -21 256.0 -21.0Q314 -21 363.0 7.5Q412 36 440.5 85.0Q469 134 469.0 192.0Q469 250 440.5 299.0Q412 348 363.0 376.5Q314 405 256 405ZM373 166Q373 177 365.5 184.5Q358 192 347.5 192.0Q337 192 329.5 184.0Q322 176 322.0 166.5Q322 157 330.0 149.0Q338 141 347.5 140.0Q357 139 365.0 147.0Q373 155 373 166Z" />
      </g>
    </svg>