<svg xmlns="http://www.w3.org/2000/svg" viewBox="43 0 426 384">
      <g transform="scale(1 -1) translate(0 -384)">
        <path d="M369 341Q397 317 412.0 284.0Q427 251 427 213Q427 167 404.0 128.0Q381 89 341.5 66.0Q302 43 256.0 43.0Q210 43 170.5 66.0Q131 89 108.0 128.0Q85 167 85 213Q85 250 101 285Q116 316 143 341ZM384 384H128L115 373Q80 343 61.5 301.5Q43 260 43 213Q43 156 71.5 107.0Q100 58 149.0 29.0Q198 0 256.0 0.0Q314 0 363.0 29.0Q412 58 440.5 107.0Q469 156 469 213Q469 260 450.5 301.5Q432 343 397 373ZM277 288Q277 275 287.0 265.5Q297 256 309.5 256.0Q322 256 331.5 265.5Q341 275 341.0 288.0Q341 301 331.5 310.5Q322 320 309.5 320.0Q297 320 287.0 310.5Q277 301 277 288ZM171 288Q171 275 180.5 265.5Q190 256 202.5 256.0Q215 256 225.0 265.5Q235 275 235.0 288.0Q235 301 225.0 310.5Q215 320 202.5 320.0Q190 320 180.5 310.5Q171 301 171 288ZM149 171Q167 171 179.5 183.5Q192 196 192.0 213.5Q192 231 179.5 243.5Q167 256 149.5 256.0Q132 256 119.5 243.5Q107 231 107.0 213.5Q107 196 119.5 183.5Q132 171 149 171ZM245 128Q245 146 232.5 158.5Q220 171 202.5 171.0Q185 171 172.5 158.5Q160 146 160.0 128.0Q160 110 172.5 97.5Q185 85 202.5 85.0Q220 85 232.5 97.5Q245 110 245 128ZM256 171Q274 171 286.5 183.5Q299 196 299.0 213.5Q299 231 286.5 243.5Q274 256 256.0 256.0Q238 256 225.5 243.5Q213 231 213.0 213.5Q213 196 225.5 183.5Q238 171 256 171ZM352 128Q352 146 339.5 158.5Q327 171 309.5 171.0Q292 171 279.5 158.5Q267 146 267.0 128.0Q267 110 279.5 97.5Q292 85 309.5 85.0Q327 85 339.5 97.5Q352 110 352 128ZM405 213Q405 231 392.5 243.5Q380 256 362.5 256.0Q345 256 332.5 243.5Q320 231 320.0 213.5Q320 196 332.5 183.5Q345 171 362.5 171.0Q380 171 392.5 183.5Q405 196 405 213Z" />
      </g>
    </svg>