<svg xmlns="http://www.w3.org/2000/svg" viewBox="43 21 426 342">
      <g transform="scale(1 -1) translate(0 -384)">
        <path d="M128 256Q128 265 134.5 271.0Q141 277 149.5 277.0Q158 277 164.5 271.0Q171 265 171.0 256.0Q171 247 164.5 241.0Q158 235 149.5 235.0Q141 235 134.5 241.0Q128 247 128 256ZM363 235Q371 235 377.5 241.0Q384 247 384.0 256.0Q384 265 377.5 271.0Q371 277 362.5 277.0Q354 277 347.5 271.0Q341 265 341.0 256.0Q341 247 347.5 241.0Q354 235 363 235ZM469 236V213Q469 161 443.5 117.0Q418 73 373.5 47.0Q329 21 277 21H235Q182 21 138.0 47.0Q94 73 68.5 117.0Q43 161 43 213V236Q43 271 60.0 300.0Q77 329 106.0 346.0Q135 363 169 363H343Q377 363 406.0 346.0Q435 329 452.0 300.0Q469 271 469 236ZM309 256Q309 234 325.0 218.5Q341 203 363.0 203.0Q385 203 400.5 218.5Q416 234 416.0 256.0Q416 278 400.5 293.5Q385 309 363.0 309.0Q341 309 325.0 293.5Q309 278 309 256ZM96 256Q96 234 111.5 218.5Q127 203 149.0 203.0Q171 203 187.0 218.5Q203 234 203.0 256.0Q203 278 187.0 293.5Q171 309 149.0 309.0Q127 309 111.5 293.5Q96 278 96 256ZM192 85Q192 94 185.5 100.5Q179 107 170.5 107.0Q162 107 155.5 100.5Q149 94 149.0 85.5Q149 77 155.5 70.5Q162 64 170.5 64.0Q179 64 185.5 70.5Q192 77 192 85ZM288 85Q288 99 278.5 108.0Q269 117 256.0 117.0Q243 117 233.5 108.0Q224 99 224.0 85.5Q224 72 233.5 62.5Q243 53 256.0 53.0Q269 53 278.5 62.5Q288 72 288 85ZM363 85Q363 94 356.5 100.5Q350 107 341.5 107.0Q333 107 326.5 100.5Q320 94 320.0 85.5Q320 77 326.5 70.5Q333 64 341.5 64.0Q350 64 356.5 70.5Q363 77 363 85ZM426 199Q401 171 363 171Q327 171 302.0 196.0Q277 221 277 256Q277 275 285.0 291.5Q293 308 307 320H205Q219 308 227.0 291.5Q235 275 235 256Q235 221 210.0 196.0Q185 171 149 171Q131 171 114.5 178.5Q98 186 86 199Q91 146 129 108Q186 149 256.0 149.0Q326 149 383 108Q421 146 426 199Z" />
      </g>
    </svg>