<svg xmlns="http://www.w3.org/2000/svg" viewBox="43 -43 426 470">
      <g transform="scale(1 -1) translate(0 -384)">
        <path d="M160 43Q160 30 150.5 20.5Q141 11 128.0 11.0Q115 11 105.5 20.5Q96 30 96.0 42.5Q96 55 105.5 65.0Q115 75 128.0 75.0Q141 75 150.5 65.0Q160 55 160 43ZM384 75Q371 75 361.5 65.0Q352 55 352.0 42.5Q352 30 361.5 20.5Q371 11 384.0 11.0Q397 11 406.5 20.5Q416 30 416.0 42.5Q416 55 406.5 65.0Q397 75 384 75ZM384 128H378Q410 154 429.0 193.5Q448 233 448.0 277.5Q448 322 429.0 361.5Q410 401 378 427H134Q102 401 83.0 361.5Q64 322 64.0 277.5Q64 233 83.0 193.5Q102 154 134 128H128Q93 128 68.0 103.0Q43 78 43.0 42.5Q43 7 68.0 -18.0Q93 -43 128 -43H384Q419 -43 444.0 -18.0Q469 7 469.0 42.5Q469 78 444.0 103.0Q419 128 384 128ZM107 277Q107 307 118.5 335.0Q130 363 151 384H361Q382 363 393.5 335.0Q405 307 405 277Q405 236 385.0 202.0Q365 168 331.0 148.0Q297 128 256.0 128.0Q215 128 181.0 148.0Q147 168 127.0 202.0Q107 236 107 277ZM384 0H128Q110 0 97.5 12.5Q85 25 85.0 42.5Q85 60 97.5 72.5Q110 85 128 85H384Q402 85 414.5 72.5Q427 60 427.0 42.5Q427 25 414.5 12.5Q402 0 384 0ZM275 335Q275 324 283.5 315.5Q292 307 303.0 307.0Q314 307 322.5 315.5Q331 324 331.0 335.0Q331 346 322.0 354.5Q313 363 301.5 363.0Q290 363 282.5 354.5Q275 346 275 335ZM183 335Q183 324 191.5 315.5Q200 307 211.0 307.0Q222 307 230.5 315.5Q239 324 239.0 335.0Q239 346 230.5 354.5Q222 363 210.5 363.0Q199 363 191.0 355.0Q183 347 183 335ZM164 235Q180 235 190.5 245.5Q201 256 201.0 270.5Q201 285 190.0 296.0Q179 307 164.0 307.0Q149 307 138.5 297.0Q128 287 128.0 272.0Q128 257 139.0 246.0Q150 235 164 235ZM247 198Q247 213 236.5 224.0Q226 235 211.0 235.0Q196 235 185.5 224.0Q175 213 175.0 198.0Q175 183 185.5 172.5Q196 162 211.0 162.0Q226 162 236.5 172.5Q247 183 247 198ZM256 235Q272 235 282.0 245.5Q292 256 292.0 270.5Q292 285 281.0 296.0Q270 307 256.0 307.0Q242 307 231.0 296.0Q220 285 220.0 271.0Q220 257 231.0 246.0Q242 235 256 235ZM339 198Q339 213 328.0 224.0Q317 235 302.0 235.0Q287 235 277.0 224.0Q267 213 267.0 198.0Q267 183 277.5 172.5Q288 162 303.0 162.0Q318 162 328.5 172.5Q339 183 339 198ZM384 271Q384 285 373.0 296.0Q362 307 347.0 307.0Q332 307 321.5 296.5Q311 286 311.0 270.5Q311 255 322.0 245.0Q333 235 347.5 235.0Q362 235 373.0 246.0Q384 257 384 271Z" />
      </g>
    </svg>