<svg xmlns="http://www.w3.org/2000/svg" viewBox="73 -21 366 426">
      <g transform="scale(1 -1) translate(0 -384)">
        <path d="M322 200Q323 203 324 207Q326 215 329 220Q335 227 341 227Q351 227 366 209Q374 200 379 191L354 195Q327 200 322 200ZM405 348Q400 357 377.5 366.0Q355 375 339 375H288L282 383Q274 392 264 398Q249 405 232 405Q208 405 200 396Q195 390 196 376V313L178 295H96L90 289Q83 282 79 274Q73 261 73 247Q73 222 79 193Q86 153 101 127Q121 93 152 89Q188 83 213 90Q231 95 240 106Q247 113 247 118V166L255 154Q265 141 276 133Q291 121 307 121Q333 121 348.5 108.5Q364 96 364 79V40L363 34Q361 26 357 22Q351 15 341 15H296L289 23Q282 33 282 43Q282 63 297 63Q305 63 313 62V95H302Q289 93 279 89Q264 84 255 74Q245 62 245 44Q245 9 266 -8Q283 -21 308 -21H355L363 -19Q374 -15 384 -7Q398 4 409 21Q423 43 430 73Q439 108 439 155Q439 250 427 299Q421 326 408 343ZM160 313H91L177 401V331Z" />
      </g>
    </svg>