<svg xmlns="http://www.w3.org/2000/svg" viewBox="40 -21 428 426">
      <g transform="scale(1 -1) translate(0 -384)">
        <path d="M395 53Q403 53 409.5 47.0Q416 41 416.0 32.0Q416 23 409.5 17.0Q403 11 395 11H139Q130 11 123.5 17.0Q117 23 117.0 32.0Q117 41 123.5 47.0Q130 53 139 53ZM395 85H139Q117 85 101.0 69.5Q85 54 85.0 32.0Q85 10 101.0 -5.5Q117 -21 139 -21H395Q417 -21 432.5 -5.5Q448 10 448.0 32.0Q448 54 432.5 69.5Q417 85 395 85ZM448 213H384V299H277L213 213V107H469ZM246 213 288 267H341V213ZM208 375 102 405 43 196Q37 175 47.5 156.5Q58 138 79 132L104 125L174 186L91 209L131 353L191 336Q202 330 216 319Q234 305 245 291L267 320H276Q260 341 234 359Q221 368 209 375Z" />
      </g>
    </svg>