<svg xmlns="http://www.w3.org/2000/svg" viewBox="85 -43 363 470">
      <g transform="scale(1 -1) translate(0 -384)">
        <path d="M285 274Q270 274 259.5 284.5Q249 295 249.0 310.0Q249 325 259.5 335.5Q270 346 285.0 346.0Q300 346 310.5 335.5Q321 325 321.0 310.0Q321 295 310.5 284.5Q300 274 285 274ZM220 23 93 48 100 84 189 66 218 212 185 200V139H149V223L243 263L257 265Q276 265 288 247L306 218Q317 198 338.0 186.5Q359 175 384 175V139Q355 139 329.0 151.0Q303 163 285 183L274 129L312 93V-43H276V66L238 102ZM448 -43H405V384H128V104L85 113V427H448ZM128 -43H85V26L128 17Z" />
      </g>
    </svg>