<svg xmlns="http://www.w3.org/2000/svg" viewBox="64 0 384 384">
      <g transform="scale(1 -1) translate(0 -384)">
        <path d="M107 384Q89 384 76.5 371.5Q64 359 64 341V43Q64 25 76.5 12.5Q89 0 107 0H405Q423 0 435.5 12.5Q448 25 448 43V341Q448 359 435.5 371.5Q423 384 405 384ZM294 320H328L352 265L375 320H410L389 267Q365 209 351 185Q345 176 334.0 170.5Q323 165 309 165V197Q322 197 331 211Q333 213 336 220V221ZM137 243 196 184 256 243 286 213 227 154 286 94 256 64 196 124 137 64 107 94 166 154 107 213Z" />
      </g>
    </svg>