<svg xmlns="http://www.w3.org/2000/svg" viewBox="21 -21 470 405">
      <g transform="scale(1 -1) translate(0 -363)">
        <path d="M252 256 320 189V192Q320 219 301.5 237.5Q283 256 256 256ZM161 239 194 206Q192 199 192 192Q192 165 210.5 146.5Q229 128 256 128Q263 128 270 130L303 97Q280 85 256 85Q227 85 202.5 99.5Q178 114 163.5 138.5Q149 163 149 192Q149 216 161 239ZM43 357 91 308 101 299Q46 255 21 192Q49 121 113.0 76.5Q177 32 256 32Q305 32 349 50L421 -21L448 6L70 384ZM256 299Q285 299 309.5 284.5Q334 270 348.5 245.5Q363 221 363 192Q363 172 355 153L417 91Q467 132 491 192Q463 263 399.0 307.5Q335 352 256 352Q212 352 171 337L217 291Q236 299 256 299Z" />
      </g>
    </svg>