<svg xmlns="http://www.w3.org/2000/svg" viewBox="21 -21 480 373">
      <g transform="scale(1 -1) translate(0 -331)">
        <path d="M501 85 395 -21 320 53 352 85 395 43 469 117ZM256 256Q283 256 301.5 237.5Q320 219 320.0 192.0Q320 165 301.5 146.5Q283 128 256.0 128.0Q229 128 210.5 146.5Q192 165 192.0 192.0Q192 219 210.5 237.5Q229 256 256 256ZM256 85Q272 85 286 90Q277 66 277 43V33L256 32Q177 32 113.0 76.5Q49 121 21 192Q49 263 113.0 307.5Q177 352 256.0 352.0Q335 352 399.0 307.5Q463 263 491 192Q483 172 471 153Q441 171 405 171Q382 171 358 162Q363 176 363 192Q363 221 348.5 245.5Q334 270 309.5 284.5Q285 299 256.0 299.0Q227 299 202.5 284.5Q178 270 163.5 245.5Q149 221 149.0 192.0Q149 163 163.5 138.5Q178 114 202.5 99.5Q227 85 256 85Z" />
      </g>
    </svg>