<svg xmlns="http://www.w3.org/2000/svg" viewBox="43 -21 426 426">
      <g transform="scale(1 -1) translate(0 -384)">
        <path d="M256 245Q234 245 218.5 229.5Q203 214 203.0 192.0Q203 170 218.5 154.5Q234 139 256.0 139.0Q278 139 293.5 154.5Q309 170 309.0 192.0Q309 214 293.5 229.5Q278 245 256 245ZM256 171Q247 171 241.0 177.0Q235 183 235.0 192.0Q235 201 241.0 207.0Q247 213 256.0 213.0Q265 213 271.0 207.0Q277 201 277.0 192.0Q277 183 271.0 177.0Q265 171 256 171ZM256 245Q234 245 218.5 229.5Q203 214 203.0 192.0Q203 170 218.5 154.5Q234 139 256.0 139.0Q278 139 293.5 154.5Q309 170 309.0 192.0Q309 214 293.5 229.5Q278 245 256 245ZM256 171Q247 171 241.0 177.0Q235 183 235.0 192.0Q235 201 241.0 207.0Q247 213 256.0 213.0Q265 213 271.0 207.0Q277 201 277.0 192.0Q277 183 271.0 177.0Q265 171 256 171ZM256 405Q214 405 174.5 389.0Q135 373 105.0 343.0Q75 313 59.0 273.5Q43 234 43.0 192.0Q43 150 59.0 110.5Q75 71 105.0 41.0Q135 11 174.5 -5.0Q214 -21 256.0 -21.0Q298 -21 337.5 -5.0Q377 11 407.0 41.0Q437 71 453.0 110.5Q469 150 469.0 192.0Q469 234 453.0 273.5Q437 313 407.0 343.0Q377 373 337.5 389.0Q298 405 256 405ZM256 107Q214 107 179.0 130.0Q144 153 128 192Q142 227 171.5 249.0Q201 271 238.0 276.0Q275 281 309 267Q335 256 354.0 236.5Q373 217 384 192Q368 153 333.0 130.0Q298 107 256 107ZM256 245Q234 245 218.5 229.5Q203 214 203.0 192.0Q203 170 218.5 154.5Q234 139 256.0 139.0Q278 139 293.5 154.5Q309 170 309.0 192.0Q309 214 293.5 229.5Q278 245 256 245ZM256 171Q247 171 241.0 177.0Q235 183 235.0 192.0Q235 201 241.0 207.0Q247 213 256.0 213.0Q265 213 271.0 207.0Q277 201 277.0 192.0Q277 183 271.0 177.0Q265 171 256 171Z" />
      </g>
    </svg>