<svg xmlns="http://www.w3.org/2000/svg" viewBox="21 -32 470 384">
      <g transform="scale(1 -1) translate(0 -320)">
        <path d="M256 256Q283 256 301.5 237.5Q320 219 320.0 192.0Q320 165 301.5 146.5Q283 128 256.0 128.0Q229 128 210.5 146.5Q192 165 192.0 192.0Q192 219 210.5 237.5Q229 256 256 256ZM384 53 422 92Q404 107 384 107Q362 107 346.5 91.5Q331 76 331.0 53.5Q331 31 346.5 15.5Q362 0 384 0Q409 0 427 21H463Q453 -3 432.0 -17.5Q411 -32 384 -32Q349 -32 324.0 -7.0Q299 18 299.0 53.5Q299 89 324.0 114.0Q349 139 385.0 139.0Q421 139 444 113L469 139V53ZM256 53Q256 68 258 75H256Q195 75 144.5 106.5Q94 138 68 192Q94 246 144.5 277.5Q195 309 256.0 309.0Q317 309 367.5 277.5Q418 246 444 192Q442 191 441 188L439 183Q459 177 478 164L491 192Q463 263 399.0 307.5Q335 352 256.0 352.0Q177 352 113.0 307.5Q49 263 21 192Q49 121 113.0 76.5Q177 32 256 32H258Q256 38 256 53Z" />
      </g>
    </svg>