<svg xmlns="http://www.w3.org/2000/svg" viewBox="21 -21 480 373">
      <g transform="scale(1 -1) translate(0 -331)">
        <path d="M501 85 395 -21 320 53 352 85 395 43 469 117ZM256 256Q283 256 301.5 237.5Q320 219 320.0 192.0Q320 165 301.5 146.5Q283 128 256.0 128.0Q229 128 210.5 146.5Q192 165 192.0 192.0Q192 219 210.5 237.5Q229 256 256 256ZM256 352Q335 352 399.0 307.5Q463 263 491 192Q483 172 471 153Q452 164 431 168L444 192Q418 246 367.0 277.5Q316 309 256.0 309.0Q196 309 145.0 277.5Q94 246 68 192Q94 138 145.0 106.5Q196 75 256 75L282 76Q277 60 277 43V33L256 32Q177 32 113.0 76.5Q49 121 21 192Q49 263 113.0 307.5Q177 352 256 352Z" />
      </g>
    </svg>