<svg xmlns="http://www.w3.org/2000/svg" viewBox="21 -33 470 385">
      <g transform="scale(1 -1) translate(0 -319)">
        <path d="M481 88 435 43 481 -3 451 -33 405 13 360 -33 330 -3 375 43 330 88 360 118 405 73 451 118ZM256 256Q229 256 210.5 237.5Q192 219 192.0 192.0Q192 165 210.5 146.5Q229 128 256.0 128.0Q283 128 301.5 146.5Q320 165 320.0 192.0Q320 219 301.5 237.5Q283 256 256 256ZM256 85Q227 85 202.5 99.5Q178 114 163.5 138.5Q149 163 149.0 192.0Q149 221 163.5 245.5Q178 270 202.5 284.5Q227 299 256.0 299.0Q285 299 309.5 284.5Q334 270 348.5 245.5Q363 221 363 192Q363 178 358 161Q381 171 405 171Q440 171 471 153Q482 171 491 192Q463 263 399.0 307.5Q335 352 256.0 352.0Q177 352 113.0 307.5Q49 263 21 192Q49 121 113.0 76.5Q177 32 256 32Q271 32 278 33Q277 36 277 43Q277 67 287 90Q270 85 256 85Z" />
      </g>
    </svg>