<svg xmlns="http://www.w3.org/2000/svg" viewBox="21 0 470 352">
      <g transform="scale(1 -1) translate(0 -352)">
        <path d="M256 352Q177 352 113.0 307.5Q49 263 21 192Q49 121 113.0 76.5Q177 32 256 32Q271 32 279 33Q277 44 277.0 54.0Q277 64 279 76Q264 75 256 75Q196 75 145.0 106.5Q94 138 68 192Q94 246 145.0 277.5Q196 309 256.0 309.0Q316 309 367.0 277.5Q418 246 444 192L436 177Q458 172 476 160Q485 177 491 192Q463 263 399.0 307.5Q335 352 256 352ZM256 256Q229 256 210.5 237.5Q192 219 192.0 192.0Q192 165 210.5 146.5Q229 128 256.0 128.0Q283 128 301.5 146.5Q320 165 320.0 192.0Q320 219 301.5 237.5Q283 256 256 256ZM384 128V85H469V43H384V0L320 64Z" />
      </g>
    </svg>