<svg xmlns="http://www.w3.org/2000/svg" viewBox="21 -64 470 416">
      <g transform="scale(1 -1) translate(0 -288)">
        <path d="M256 256Q229 256 210.5 237.5Q192 219 192.0 192.0Q192 165 210.5 146.5Q229 128 256.0 128.0Q283 128 301.5 146.5Q320 165 320.0 192.0Q320 219 301.5 237.5Q283 256 256 256ZM256 85Q227 85 202.5 99.5Q178 114 163.5 138.5Q149 163 149.0 192.0Q149 221 163.5 245.5Q178 270 202.5 284.5Q227 299 256.0 299.0Q285 299 309.5 284.5Q334 270 348.5 245.5Q363 221 363.0 192.0Q363 163 348.5 138.5Q334 114 309.5 99.5Q285 85 256 85ZM256 352Q178 352 114.0 308.0Q50 264 21 192Q46 128 99.0 86.5Q152 45 218.5 35.0Q285 25 348 50Q397 69 434.0 106.0Q471 143 491 192Q462 264 398.0 308.0Q334 352 256 352ZM149 -21H192V-64H149ZM235 -21H277V-64H235ZM320 -21H363V-64H320Z" />
      </g>
    </svg>