<svg xmlns="http://www.w3.org/2000/svg" viewBox="43 -21 426 426">
      <g transform="scale(1 -1) translate(0 -384)">
        <path d="M256 -21Q214 -21 174.5 -5.0Q135 11 105.0 41.0Q75 71 59.0 110.5Q43 150 43.0 192.0Q43 234 59.0 273.5Q75 313 105.0 343.0Q135 373 174.5 389.0Q214 405 256.0 405.0Q298 405 337.5 389.0Q377 373 407.0 343.0Q437 313 453.0 273.5Q469 234 469.0 192.0Q469 150 453.0 110.5Q437 71 407.0 41.0Q377 11 337.5 -5.0Q298 -21 256 -21ZM256 21Q302 21 341.5 44.0Q381 67 404.0 106.5Q427 146 427.0 192.0Q427 238 404.0 277.5Q381 317 341.5 340.0Q302 363 256.0 363.0Q210 363 170.5 340.0Q131 317 108.0 277.5Q85 238 85.0 192.0Q85 146 108.0 106.5Q131 67 170.5 44.0Q210 21 256 21ZM256 213Q265 213 271.0 207.0Q277 201 277.0 192.0Q277 183 271.0 177.0Q265 171 256.0 171.0Q247 171 241.0 177.0Q235 183 235.0 192.0Q235 201 241.0 207.0Q247 213 256 213ZM256 277Q298 277 333.0 254.0Q368 231 384 192Q370 157 340.5 135.0Q311 113 274.0 108.0Q237 103 203 117Q177 128 158.0 147.5Q139 167 128 192Q144 231 179.0 254.0Q214 277 256 277ZM256 245Q234 245 218.5 229.5Q203 214 203.0 192.0Q203 170 218.5 154.5Q234 139 256.0 139.0Q278 139 293.5 154.5Q309 170 309.0 192.0Q309 214 293.5 229.5Q278 245 256 245Z" />
      </g>
    </svg>