<svg xmlns="http://www.w3.org/2000/svg" viewBox="21 32 470 320">
      <g transform="scale(1 -1) translate(0 -384)">
        <path d="M256 352Q178 352 114.0 308.0Q50 264 21 192Q50 120 114.0 76.0Q178 32 256 32H279Q277 43 277 53Q278 72 282 90L256 85Q224 85 197.0 103.0Q170 121 157.5 151.0Q145 181 151.5 213.0Q158 245 180.5 267.5Q203 290 235.0 296.5Q267 303 297.0 290.5Q327 278 345.0 251.0Q363 224 363 192Q363 182 361 173Q382 182 405 181Q444 182 476 160Q485 175 491 192Q462 264 398.0 308.0Q334 352 256 352ZM256 256Q229 256 210.5 237.5Q192 219 192.0 192.0Q192 165 210.5 146.5Q229 128 256.0 128.0Q283 128 301.5 146.5Q320 165 320.5 192.0Q321 219 302.0 238.0Q283 257 256 256ZM320 75V32H491V75Z" />
      </g>
    </svg>