<svg xmlns="http://www.w3.org/2000/svg" viewBox="21 0 470 352">
      <g transform="scale(1 -1) translate(0 -352)">
        <path d="M256 352Q177 352 113.0 307.5Q49 263 21 192Q49 121 113.0 76.5Q177 32 256 32Q271 32 279 33Q277 44 277 53Q277 71 282 89Q268 85 256 85Q227 85 202.5 99.5Q178 114 163.5 138.5Q149 163 149.0 192.0Q149 221 163.5 245.5Q178 270 202.5 284.5Q227 299 256.0 299.0Q285 299 309.5 284.5Q334 270 348.5 245.5Q363 221 363 192Q363 183 361 173Q382 181 405 181Q444 181 476 160Q485 177 491 192Q463 263 399.0 307.5Q335 352 256 352ZM256 256Q229 256 210.5 237.5Q192 219 192.0 192.0Q192 165 210.5 146.5Q229 128 256.0 128.0Q283 128 301.5 146.5Q320 165 320.0 192.0Q320 219 301.5 237.5Q283 256 256 256ZM384 128V85H469V43H384V0L320 64Z" />
      </g>
    </svg>