<svg xmlns="http://www.w3.org/2000/svg" viewBox="21 -32 470 384">
      <g transform="scale(1 -1) translate(0 -320)">
        <path d="M256 256Q229 256 210.5 237.5Q192 219 192.0 192.0Q192 165 210.5 146.5Q229 128 256.0 128.0Q283 128 301.5 146.5Q320 165 320.0 192.0Q320 219 301.5 237.5Q283 256 256 256ZM384 53 422 92Q404 107 384 107Q362 107 346.5 91.5Q331 76 331.0 53.5Q331 31 346.5 15.5Q362 0 384 0Q409 0 427 21H463Q453 -3 432.0 -17.5Q411 -32 384 -32Q349 -32 324.0 -7.0Q299 18 299.0 53.5Q299 89 324.0 114.0Q349 139 385.0 139.0Q421 139 444 113L469 139V53ZM258 32Q258 32 257 32H258Q178 32 113.5 76.5Q49 121 21 192Q49 263 113.0 307.5Q177 352 256.0 352.0Q335 352 399.0 307.5Q463 263 491 192L478 164Q440 192 395 192Q384 192 363 188V192Q363 221 348.5 245.5Q334 270 309.5 284.5Q285 299 256.0 299.0Q227 299 202.5 284.5Q178 270 163.5 245.5Q149 221 149.0 192.0Q149 163 163.5 138.5Q178 114 202.5 99.5Q227 85 256 85H260Q256 64 256 53Q256 38 258 32Z" />
      </g>
    </svg>