<svg xmlns="http://www.w3.org/2000/svg" viewBox="21 32 470 320">
      <g transform="scale(1 -1) translate(0 -384)">
        <path d="M256 352Q178 352 114.0 308.0Q50 264 21 192Q50 120 114.0 76.0Q178 32 256 32H279Q277 43 277.0 54.0Q277 65 279 77H256Q196 76 145.0 107.0Q94 138 68 192Q94 246 145.0 278.0Q196 310 256.0 310.0Q316 310 367.0 278.0Q418 246 444 192L435 177Q457 173 476 160Q485 175 491 192Q462 264 398.0 308.0Q334 352 256 352ZM256 256Q229 256 210.5 237.5Q192 219 192.0 192.0Q192 165 210.5 146.5Q229 128 256.0 128.0Q283 128 301.5 146.5Q320 165 320.5 192.0Q321 219 302.0 238.0Q283 257 256 256ZM320 75V32H491V75Z" />
      </g>
    </svg>