<svg xmlns="http://www.w3.org/2000/svg" viewBox="21 43 470 277">
      <g transform="scale(1 -1) translate(0 -363)">
        <path d="M432 320Q409 320 392.0 304.0Q375 288 373 265L268 295Q256 299 244 295L139 265Q137 288 120.0 304.0Q103 320 79.5 320.0Q56 320 38.5 303.0Q21 286 21 261V187Q21 162 38.5 145.0Q56 128 80 128H121Q140 90 176.0 66.5Q212 43 256.0 43.0Q300 43 336.0 66.5Q372 90 391 128H432Q456 128 473.5 145.0Q491 162 491 187V261Q491 286 473.5 303.0Q456 320 432 320ZM107 160H80Q69 160 61.0 168.0Q53 176 53 187V261Q53 272 61.0 280.0Q69 288 80.0 288.0Q91 288 99.0 280.0Q107 272 107 261ZM320 192 265 207Q254 210 247 207L192 192V213L241 228Q254 232 271 228L320 213ZM459 187Q459 176 451.0 168.0Q443 160 432 160H405V261Q405 272 413.0 280.0Q421 288 432.0 288.0Q443 288 451.0 280.0Q459 272 459 261Z" />
      </g>
    </svg>