<svg xmlns="http://www.w3.org/2000/svg" viewBox="43 -21 426 426">
      <g transform="scale(1 -1) translate(0 -384)">
        <path d="M368 171Q368 160 360.0 152.0Q352 144 341.0 144.0Q330 144 322.5 152.0Q315 160 315.0 171.0Q315 182 322.5 189.5Q330 197 341.0 197.0Q352 197 360.0 189.5Q368 182 368 171ZM469 192Q469 134 440.5 85.0Q412 36 363.0 7.5Q314 -21 256 -21H43V192Q43 250 71.5 299.0Q100 348 149.0 376.5Q198 405 256.0 405.0Q314 405 363.0 376.5Q412 348 440.5 299.0Q469 250 469 192ZM149 64Q198 21 256 21Q302 21 341.5 44.0Q381 67 404.0 106.5Q427 146 427 192Q427 216 420 240Q396 235 372 235Q309 235 256 269L250 251Q243 230 234 214Q221 190 207 179Q190 165 171 171Q161 174 155.0 167.5Q149 161 149 149Z" />
      </g>
    </svg>