<svg xmlns="http://www.w3.org/2000/svg" viewBox="43 -20 426 424">
      <g transform="scale(1 -1) translate(0 -384)">
        <path d="M256 404Q198 404 149.0 375.5Q100 347 71.5 298.0Q43 249 43 191Q43 138 66.5 92.5Q90 47 131.0 17.0Q172 -13 223 -20V129H169V191H223V238Q223 277 244.5 299.0Q266 321 303 321Q327 321 351 317V264H324Q306 264 297 254Q289 245 289 231V191H349L339 129H289V-20Q341 -12 382.0 18.0Q423 48 446.0 93.5Q469 139 469 191Q469 249 440.5 298.0Q412 347 363.0 375.5Q314 404 256 404Z" />
      </g>
    </svg>