<svg xmlns="http://www.w3.org/2000/svg" viewBox="43 -21 448 448">
      <g transform="scale(1 -1) translate(0 -406)">
        <path d="M416 427 393 375 341 352 393 329 416 277 439 329 491 352 439 375ZM256 405Q198 405 149.0 376.5Q100 348 71.5 299.0Q43 250 43.0 192.0Q43 134 71.5 85.0Q100 36 149.0 7.5Q198 -21 256.0 -21.0Q314 -21 363.0 7.5Q412 36 440.5 85.0Q469 134 469 192Q469 238 450 280L424 223Q427 207 427 192Q427 146 404.0 106.5Q381 67 341.5 44.0Q302 21 256.0 21.0Q210 21 170.5 44.0Q131 67 108.0 106.5Q85 146 85 192V195Q127 211 159.0 241.5Q191 272 208 313Q238 276 281.5 255.5Q325 235 373 235Q388 235 402 237L383 277H373Q328 277 289.5 299.5Q251 322 227 360Q244 363 257.0 363.0Q270 363 286 360L344 386Q302 405 256 405ZM173 341Q163 311 142.5 286.0Q122 261 94 245Q104 276 124.5 300.5Q145 325 173 341ZM192 197Q181 197 173.0 189.5Q165 182 165.0 171.0Q165 160 173.0 152.0Q181 144 192.0 144.0Q203 144 211.0 152.0Q219 160 219.0 171.0Q219 182 211.0 189.5Q203 197 192 197ZM320 197Q309 197 301.0 189.5Q293 182 293.0 171.0Q293 160 301.0 152.0Q309 144 320.0 144.0Q331 144 339.0 152.0Q347 160 347.0 171.0Q347 182 339.0 189.5Q331 197 320 197Z" />
      </g>
    </svg>