<svg xmlns="http://www.w3.org/2000/svg" viewBox="43 -21 426 426">
      <g transform="scale(1 -1) translate(0 -384)">
        <path d="M256 405Q197 405 148.0 378.0Q99 351 71.0 304.0Q43 257 43 198Q43 153 60.5 113.5Q78 74 110 45Q115 41 115 33L116 -5Q117 -14 124.5 -19.0Q132 -24 141 -20L183 -1Q189 1 194 0Q223 -9 256 -9Q315 -9 364.0 18.0Q413 45 441.0 92.5Q469 140 469.0 198.5Q469 257 441.0 304.0Q413 351 364.0 378.0Q315 405 256 405ZM384 246 321 147Q314 135 300.0 132.5Q286 130 275 139L225 176Q222 178 217.5 178.0Q213 178 210 176L143 124Q136 119 129.5 124.5Q123 130 128 138L191 237Q198 249 212.0 251.5Q226 254 237 246L287 208Q295 203 302 208L369 260Q376 265 382.5 259.5Q389 254 384 246Z" />
      </g>
    </svg>