<svg xmlns="http://www.w3.org/2000/svg" viewBox="43 -21 426 426">
      <g transform="scale(1 -1) translate(0 -384)">
        <path d="M293 171Q293 182 301.0 189.5Q309 197 320.0 197.0Q331 197 339.0 189.5Q347 182 347.0 171.0Q347 160 339.0 152.0Q331 144 320.0 144.0Q309 144 301.0 152.0Q293 160 293 171ZM469 192V-21H43V192Q43 250 71.5 299.0Q100 348 149.0 376.5Q198 405 256.0 405.0Q314 405 363.0 376.5Q412 348 440.5 299.0Q469 250 469 192ZM85 192Q85 146 108.0 106.5Q131 67 170.5 44.0Q210 21 256.0 21.0Q302 21 341.5 44.0Q381 67 404.0 106.5Q427 146 427 192Q427 216 420 240Q396 235 372 235Q319 235 273.0 259.0Q227 283 198 325Q182 287 153.0 257.0Q124 227 86 210Q85 204 85 192ZM192 144Q203 144 211.0 152.0Q219 160 219.0 171.0Q219 182 211.0 189.5Q203 197 192.0 197.0Q181 197 173.0 189.5Q165 182 165.0 171.0Q165 160 173.0 152.0Q181 144 192 144Z" />
      </g>
    </svg>