<svg xmlns="http://www.w3.org/2000/svg" viewBox="56 -21 402 426">
      <g transform="scale(1 -1) translate(0 -384)">
        <path d="M420 104Q405 87 389.0 87.0Q373 87 364 97Q358 104 351 121L317 205L282 119Q276 104 271 98Q262 87 246.5 87.0Q231 87 221 97Q216 103 210 118L152 262H200L246 146L281 233Q287 247 292 253Q302 264 317.0 264.0Q332 264 341 253Q347 247 353 233L391 139Q405 160 411.0 185.5Q417 211 413.5 237.0Q410 263 397.5 286.0Q385 309 365.5 326.0Q346 343 321.5 352.0Q297 361 271 361Q217 362 171.5 329.0Q126 296 109.0 244.0Q92 192 109.0 139.5Q126 87 171.0 54.5Q216 22 271 23Q295 23 317 29V-16Q294 -21 271 -21Q202 -21 145.5 19.5Q89 60 67.5 126.0Q46 192 67.5 258.0Q89 324 145.0 364.5Q201 405 271 405Q322 405 365.0 380.0Q408 355 433.5 312.0Q459 269 459 218Q459 155 420 104Z" />
      </g>
    </svg>