<svg xmlns="http://www.w3.org/2000/svg" viewBox="43 -21 426 426">
      <g transform="scale(1 -1) translate(0 -384)">
        <path d="M219 171Q219 160 211.0 152.0Q203 144 192.0 144.0Q181 144 173.0 152.0Q165 160 165.0 171.0Q165 182 173.0 189.5Q181 197 192.0 197.0Q203 197 211.0 189.5Q219 182 219 171ZM320 197Q309 197 301.0 189.5Q293 182 293.0 171.0Q293 160 301.0 152.0Q309 144 320.0 144.0Q331 144 339.0 152.0Q347 160 347.0 171.0Q347 182 339.0 189.5Q331 197 320 197ZM469 192Q469 150 453.0 110.5Q437 71 407.0 41.0Q377 11 337.5 -5.0Q298 -21 256.0 -21.0Q214 -21 174.5 -5.0Q135 11 105.0 41.0Q75 71 59.0 110.5Q43 150 43.0 192.0Q43 234 59.0 273.5Q75 313 105.0 343.0Q135 373 174.5 389.0Q214 405 256.0 405.0Q298 405 337.5 389.0Q377 373 407.0 343.0Q437 313 453.0 273.5Q469 234 469 192ZM227 360Q250 322 289.0 299.5Q328 277 373 277Q386 277 402 280Q379 318 340.5 340.5Q302 363 256 363Q243 363 227 360ZM94 246Q122 262 142.0 286.5Q162 311 172 341Q145 325 124.5 300.5Q104 276 94 246ZM427 192Q427 216 420 240Q396 235 373 235Q324 235 281.0 256.0Q238 277 208 313Q191 272 159.0 241.5Q127 211 85 195V192Q85 146 108.0 106.5Q131 67 170.5 44.0Q210 21 256.0 21.0Q302 21 341.5 44.0Q381 67 404.0 106.5Q427 146 427 192Z" />
      </g>
    </svg>