<svg xmlns="http://www.w3.org/2000/svg" viewBox="43 -21 426 426">
      <g transform="scale(1 -1) translate(0 -384)">
        <path d="M192 197Q181 197 173.0 189.5Q165 182 165.0 171.0Q165 160 173.0 152.0Q181 144 192.0 144.0Q203 144 211.0 152.0Q219 160 219.0 171.0Q219 182 211.0 189.5Q203 197 192 197ZM320 197Q309 197 301.0 189.5Q293 182 293.0 171.0Q293 160 301.0 152.0Q309 144 320.0 144.0Q331 144 339.0 152.0Q347 160 347.0 171.0Q347 182 339.0 189.5Q331 197 320 197ZM256 405Q214 405 174.5 389.0Q135 373 105.0 343.0Q75 313 59.0 273.5Q43 234 43.0 192.0Q43 150 59.0 110.5Q75 71 105.0 41.0Q135 11 174.5 -5.0Q214 -21 256.0 -21.0Q298 -21 337.5 -5.0Q377 11 407.0 41.0Q437 71 453.0 110.5Q469 150 469.0 192.0Q469 234 453.0 273.5Q437 313 407.0 343.0Q377 373 337.5 389.0Q298 405 256 405ZM256 21Q210 21 170.5 44.0Q131 67 108.0 106.5Q85 146 85 192Q85 204 86 210Q124 227 153.0 257.0Q182 287 198 325Q227 283 273.0 259.0Q319 235 372 235Q396 235 420 240Q427 216 427 192Q427 146 404.0 106.5Q381 67 341.5 44.0Q302 21 256 21Z" />
      </g>
    </svg>