<svg xmlns="http://www.w3.org/2000/svg" viewBox="43 -21 426 426">
      <g transform="scale(1 -1) translate(0 -384)">
        <path d="M256 405Q214 405 174.5 389.0Q135 373 105.0 343.0Q75 313 59.0 273.5Q43 234 43.0 192.0Q43 150 59.0 110.5Q75 71 105.0 41.0Q135 11 174.5 -5.0Q214 -21 256.0 -21.0Q298 -21 337.5 -5.0Q377 11 407.0 41.0Q437 71 453.0 110.5Q469 150 469.0 192.0Q469 234 453.0 273.5Q437 313 407.0 343.0Q377 373 337.5 389.0Q298 405 256 405ZM256 269Q309 235 372 235Q396 235 420 240Q427 216 427 192Q427 146 404.0 106.5Q381 67 341.5 44.0Q302 21 255.5 21.0Q209 21 169.0 45.0Q129 69 107 109L144 149V171Q144 182 152.0 189.5Q160 197 171.0 197.0Q182 197 189.5 189.5Q197 182 197 171V149H256ZM341 197Q330 197 322.5 189.5Q315 182 315.0 171.0Q315 160 322.5 152.0Q330 144 341.0 144.0Q352 144 360.0 152.0Q368 160 368.0 171.0Q368 182 360.0 189.5Q352 197 341 197Z" />
      </g>
    </svg>