<svg xmlns="http://www.w3.org/2000/svg" viewBox="11 -43 490 470">
      <g transform="scale(1 -1) translate(0 -384)">
        <path d="M256 427Q234 427 218.5 411.0Q203 395 203 373Q203 357 211.5 344.0Q220 331 235 324V299H149Q132 299 119.5 286.5Q107 274 107 256V241Q92 234 83.5 221.0Q75 208 75.0 192.0Q75 176 83.5 163.0Q92 150 107 143V128H85Q68 128 55.5 115.5Q43 103 43 85V60Q28 53 19.5 40.0Q11 27 11 11Q11 -11 26.5 -27.0Q42 -43 64.0 -43.0Q86 -43 101.5 -27.0Q117 -11 117 11Q117 27 108.5 40.0Q100 53 85 60V85H171V60Q156 53 147.5 40.0Q139 27 139 11Q139 -11 154.5 -27.0Q170 -43 192.0 -43.0Q214 -43 229.5 -27.0Q245 -11 245 11Q245 27 236.5 40.0Q228 53 213 60V85Q213 103 200.5 115.5Q188 128 171 128H149V143Q164 150 172.5 163.0Q181 176 181.0 192.0Q181 208 172.5 221.0Q164 234 149 241V256H363V241Q348 234 339.5 221.0Q331 208 331.0 192.0Q331 176 339.5 163.0Q348 150 363 143V128H341Q324 128 311.5 115.5Q299 103 299 85V60Q284 53 275.5 40.0Q267 27 267 11Q267 -11 282.5 -27.0Q298 -43 320.0 -43.0Q342 -43 357.5 -27.0Q373 -11 373 11Q373 27 364.5 40.0Q356 53 341 60V85H427V60Q412 53 403.5 40.0Q395 27 395 11Q395 -11 410.5 -27.0Q426 -43 448.0 -43.0Q470 -43 485.5 -27.0Q501 -11 501 11Q501 27 492.5 40.0Q484 53 469 60V85Q469 103 456.5 115.5Q444 128 427 128H405V143Q420 150 428.5 163.0Q437 176 437.0 192.0Q437 208 428.5 221.0Q420 234 405 241V256Q405 274 392.5 286.5Q380 299 363 299H277V324Q292 331 300.5 344.0Q309 357 309 373Q309 395 293.5 411.0Q278 427 256 427ZM256 395Q265 395 271.0 388.5Q277 382 277.0 373.0Q277 364 271.0 358.0Q265 352 256.0 352.0Q247 352 241.0 358.0Q235 364 235.0 373.0Q235 382 241.0 388.5Q247 395 256 395ZM128 213Q137 213 143.0 207.0Q149 201 149.0 192.0Q149 183 143.0 177.0Q137 171 128.0 171.0Q119 171 113.0 177.0Q107 183 107.0 192.0Q107 201 113.0 207.0Q119 213 128 213ZM384 213Q393 213 399.0 207.0Q405 201 405.0 192.0Q405 183 399.0 177.0Q393 171 384.0 171.0Q375 171 369.0 177.0Q363 183 363.0 192.0Q363 201 369.0 207.0Q375 213 384 213ZM64 32Q73 32 79.0 26.0Q85 20 85.0 11.0Q85 2 79.0 -4.5Q73 -11 64.0 -11.0Q55 -11 49.0 -4.5Q43 2 43.0 11.0Q43 20 49.0 26.0Q55 32 64 32ZM192 32Q201 32 207.0 26.0Q213 20 213.0 11.0Q213 2 207.0 -4.5Q201 -11 192.0 -11.0Q183 -11 177.0 -4.5Q171 2 171.0 11.0Q171 20 177.0 26.0Q183 32 192 32ZM320 32Q329 32 335.0 26.0Q341 20 341.0 11.0Q341 2 335.0 -4.5Q329 -11 320.0 -11.0Q311 -11 305.0 -4.5Q299 2 299.0 11.0Q299 20 305.0 26.0Q311 32 320 32ZM448 32Q457 32 463.0 26.0Q469 20 469.0 11.0Q469 2 463.0 -4.5Q457 -11 448.0 -11.0Q439 -11 433.0 -4.5Q427 2 427.0 11.0Q427 20 433.0 26.0Q439 32 448 32Z" />
      </g>
    </svg>