<svg xmlns="http://www.w3.org/2000/svg" viewBox="0 -21 512 426">
      <g transform="scale(1 -1) translate(0 -384)">
        <path d="M213 213Q204 213 198.0 207.0Q192 201 192.0 192.0Q192 183 198.0 177.0Q204 171 213.0 171.0Q222 171 228.5 177.0Q235 183 235.0 192.0Q235 201 228.5 207.0Q222 213 213 213ZM224 405Q258 405 279 393Q298 382 302.5 364.5Q307 347 298.5 330.0Q290 313 272 304Q245 291 237 251Q252 245 263 232Q302 253 340.0 254.5Q378 256 402.5 237.0Q427 218 427 181Q427 147 414 126Q404 108 386.5 103.0Q369 98 352.0 106.5Q335 115 326 134Q312 160 272 168Q266 153 253 142Q274 103 275.5 65.0Q277 27 258.0 3.0Q239 -21 203 -21Q169 -21 148 -9Q129 2 124.0 19.5Q119 37 127.5 54.0Q136 71 155 80Q181 93 189 132Q173 139 163 152Q124 131 86.0 129.5Q48 128 24.0 147.0Q0 166 0 203Q0 237 12 258Q23 276 40.5 281.0Q58 286 75.0 277.5Q92 269 101 250Q114 224 154 216Q160 232 173 242Q152 281 150.5 319.0Q149 357 168.0 381.0Q187 405 224 405ZM469 171V299H512V171ZM469 85V128H512V85Z" />
      </g>
    </svg>