<svg xmlns="http://www.w3.org/2000/svg" viewBox="43 -21 427 426">
      <g transform="scale(1 -1) translate(0 -384)">
        <path d="M267 405Q222 405 204 370Q186 337 198 289L320 167Q356 159 369 134Q378 115 395.0 106.5Q412 98 429.5 103.0Q447 108 458 126Q470 147 470 181Q470 218 446.0 237.0Q422 256 383.5 254.5Q345 253 306 232Q296 245 280 251Q288 291 315 304Q333 313 341.5 330.0Q350 347 345.0 364.5Q340 382 322 393Q301 405 267 405ZM70 363 43 336 95 283Q73 283 59 264Q43 242 43 203Q43 166 67.0 147.0Q91 128 129.0 129.5Q167 131 206 152Q216 139 232 132Q224 93 198 80Q179 71 170.5 54.0Q162 37 167.0 19.5Q172 2 190 -9Q211 -21 246.0 -21.0Q281 -21 300.0 1.5Q319 24 319 60L400 -21L427 6Z" />
      </g>
    </svg>