<svg xmlns="http://www.w3.org/2000/svg" viewBox="43 -21 427 426">
      <g transform="scale(1 -1) translate(0 -384)">
        <path d="M256 213Q247 213 241.0 207.0Q235 201 235.0 192.0Q235 183 241.0 177.0Q247 171 256.0 171.0Q265 171 271.0 177.0Q277 183 277.0 192.0Q277 201 271.0 207.0Q265 213 256 213ZM267 405Q301 405 322 393Q340 382 345.0 364.5Q350 347 341.5 330.0Q333 313 315 304Q288 291 280 251Q296 245 306 232Q345 253 383.5 254.5Q422 256 446.0 237.0Q470 218 470 181Q470 147 458 126Q447 108 429.5 103.0Q412 98 395.0 106.5Q378 115 369 134Q355 160 316 168Q309 153 296 142Q317 103 318.5 65.0Q320 27 301.0 3.0Q282 -21 245 -21Q211 -21 190 -9Q172 2 167.0 19.5Q162 37 170.5 54.0Q179 71 198 80Q224 93 232 132Q216 139 206 152Q167 131 129.0 129.5Q91 128 67.0 147.0Q43 166 43 203Q43 237 55 258Q66 276 83.5 281.0Q101 286 117.5 277.5Q134 269 144 250Q157 224 197 216Q203 232 216 242Q195 281 193.5 319.0Q192 357 211.0 381.0Q230 405 267 405Z" />
      </g>
    </svg>