<svg xmlns="http://www.w3.org/2000/svg" viewBox="33 -21 415 405">
      <g transform="scale(1 -1) translate(0 -363)">
        <path d="M213 192V-21H171V149H128V192ZM384 149V21Q384 4 371.5 -8.5Q359 -21 341 -21H299Q281 -21 268.5 -8.5Q256 4 256 21V149Q256 167 268.5 179.5Q281 192 299 192H341Q359 192 371.5 179.5Q384 167 384 149ZM299 149V21H341V149ZM245 384Q287 384 324.5 369.5Q362 355 393 329L448 384V235H299L355 291Q307 331 245 331Q189 331 144.5 298.0Q100 265 83 213L33 230Q55 298 113.5 341.0Q172 384 245 384Z" />
      </g>
    </svg>