<svg xmlns="http://www.w3.org/2000/svg" viewBox="32 -21 416 405">
      <g transform="scale(1 -1) translate(0 -363)">
        <path d="M245 384Q286 384 323.5 369.5Q361 355 393 329L448 384V235H299L354 290Q331 310 303.0 320.5Q275 331 245 331Q190 331 144.5 298.0Q99 265 83 213L32 230Q55 299 113.0 341.5Q171 384 245 384ZM277 192H405V149H320V107H363Q380 107 392.5 94.5Q405 82 405 64V21Q405 4 392.5 -8.5Q380 -21 363 -21H277V21H363V64H277ZM107 192V64H192V-21H235V192H192V107H149V192Z" />
      </g>
    </svg>