<svg xmlns="http://www.w3.org/2000/svg" viewBox="64 0 384 384">
      <g transform="scale(1 -1) translate(0 -384)">
        <path d="M448 0H64Q64 18 76.5 30.5Q89 43 107 43H405Q423 43 435.5 30.5Q448 18 448 0ZM405 299Q405 318 397 336Q388 357 370 370Q349 384 320.0 384.0Q291 384 270 370Q252 357 243 336Q235 318 235 299V64H277V299Q277 313 284 324Q295 341 320.0 341.0Q345 341 356 324Q363 313 363 299H352V256H416V299ZM149 192Q141 192 134.5 185.5Q128 179 128 171V149H64V128H128V64H171V171Q171 179 164.5 185.5Q158 192 149 192ZM448 149H384V171Q384 179 377.5 185.5Q371 192 362.5 192.0Q354 192 347.5 185.5Q341 179 341 171V64H384V128H448Z" />
      </g>
    </svg>