<svg xmlns="http://www.w3.org/2000/svg" viewBox="43 0 426 363">
      <g transform="scale(1 -1) translate(0 -363)">
        <path d="M405 256H384V363H171V21H469V192Q469 219 450.5 237.5Q432 256 405 256ZM213 320H341V256H213ZM299 85H213V192H299ZM341 85Q333 85 326.5 91.5Q320 98 320.0 106.5Q320 115 326.5 121.5Q333 128 341.5 128.0Q350 128 356.5 121.5Q363 115 363.0 106.5Q363 98 356.5 91.5Q350 85 341 85ZM341 149Q333 149 326.5 155.5Q320 162 320.0 170.5Q320 179 326.5 185.5Q333 192 341.5 192.0Q350 192 356.5 185.5Q363 179 363.0 170.5Q363 162 356.5 155.5Q350 149 341 149ZM405 85Q397 85 390.5 91.5Q384 98 384.0 106.5Q384 115 390.5 121.5Q397 128 405.5 128.0Q414 128 420.5 121.5Q427 115 427.0 106.5Q427 98 420.5 91.5Q414 85 405 85ZM405 149Q397 149 390.5 155.5Q384 162 384.0 170.5Q384 179 390.5 185.5Q397 192 405.5 192.0Q414 192 420.5 185.5Q427 179 427.0 170.5Q427 162 420.5 155.5Q414 149 405 149ZM96 277Q74 277 58.5 261.5Q43 246 43 224V53Q43 31 58.5 15.5Q74 0 96.0 0.0Q118 0 133.5 15.5Q149 31 149 53V224Q149 246 133.5 261.5Q118 277 96 277Z" />
      </g>
    </svg>