<svg xmlns="http://www.w3.org/2000/svg" viewBox="43 -21 426 426">
      <g transform="scale(1 -1) translate(0 -384)">
        <path d="M469 405Q460 405 451 405Q428 403 404 397Q369 388 336 372Q294 353 258 322Q214 287 178 237Q144 191 115 140Q92 99 73 57Q60 27 50 0L43 -21L84 0Q107 40 122.5 61.5Q138 83 161 107Q206 93 242 101Q286 110 320 149Q291 158 259 158Q238 158 193 153Q235 182 268.0 190.5Q301 199 341 192L363 235Q333 240 310.5 240.0Q288 240 261 234Q296 259 319 268Q348 279 384 277L410 319Q386 320 366 318Q349 315 318 308Q344 331 370.0 342.5Q396 354 430 356L443 377Q459 400 469 405Z" />
      </g>
    </svg>