<svg xmlns="http://www.w3.org/2000/svg" viewBox="43 -21 435 426">
      <g transform="scale(1 -1) translate(0 -384)">
        <path d="M427 21Q427 4 414.5 -8.5Q402 -21 384 -21H85Q68 -21 55.5 -8.5Q43 4 43 21V320Q43 338 55.5 350.5Q68 363 85 363H203Q192 334 192 309Q192 272 210.5 240.0Q229 208 261.0 189.5Q293 171 331 171Q358 171 375 179L427 128ZM412 258Q427 284 427 309Q427 349 399.0 377.0Q371 405 331.0 405.0Q291 405 263.0 377.0Q235 349 235.0 309.0Q235 269 263.0 241.0Q291 213 331 213Q356 213 382 228L448 162L478 192ZM331 256Q308 256 292.5 271.5Q277 287 277.0 309.5Q277 332 292.5 347.5Q308 363 330.5 363.0Q353 363 368.5 347.5Q384 332 384.0 309.5Q384 287 368.5 271.5Q353 256 331 256Z" />
      </g>
    </svg>