<svg xmlns="http://www.w3.org/2000/svg" viewBox="43 -21 435 426">
      <g transform="scale(1 -1) translate(0 -384)">
        <path d="M331 405Q291 405 263.0 377.0Q235 349 235.0 309.0Q235 269 263.0 241.0Q291 213 331 213Q356 213 382 228L448 162L478 192L412 258Q427 284 427 309Q427 349 399.0 377.0Q371 405 331 405ZM85 363Q68 363 55.5 350.5Q43 338 43 320V21Q43 4 55.5 -8.5Q68 -21 85 -21H384Q402 -21 414.5 -8.5Q427 4 427 21V128L384 171V21H85V320H193Q194 340 203 363ZM331 363Q353 363 368.5 347.5Q384 332 384.0 309.5Q384 287 368.5 271.5Q353 256 330.5 256.0Q308 256 292.5 271.5Q277 287 277.0 309.5Q277 332 292.5 347.5Q308 363 331 363Z" />
      </g>
    </svg>