<svg xmlns="http://www.w3.org/2000/svg" viewBox="43 -21 426 426">
      <g transform="scale(1 -1) translate(0 -384)">
        <path d="M256 405Q198 405 149.0 376.5Q100 348 71.5 299.0Q43 250 43 192V27Q43 7 57.0 -7.0Q71 -21 91 -21H256Q314 -21 363.0 7.5Q412 36 440.5 85.0Q469 134 469.0 192.0Q469 250 440.5 299.0Q412 348 363.0 376.5Q314 405 256 405ZM299 317Q327 317 348.0 298.5Q369 280 369 252L368 241Q368 234 362.0 229.0Q356 224 348.5 225.0Q341 226 336.5 232.5Q332 239 333 246V252Q333 267 323.0 274.5Q313 282 300.0 282.0Q287 282 277.5 273.0Q268 264 268 252V198H299Q310 198 314.5 189.0Q319 180 314.5 171.0Q310 162 299 162H268V111Q265 81 242.0 60.0Q219 39 187.5 39.0Q156 39 133.0 62.5Q110 86 110.5 119.0Q111 152 134.5 175.0Q158 198 192 198H217V162H191Q172 161 158.5 149.0Q145 137 145.0 118.5Q145 100 158.0 87.5Q171 75 189.0 75.0Q207 75 219.5 87.0Q232 99 232 118V252L233 260Q236 284 255.0 300.5Q274 317 299 317Z" />
      </g>
    </svg>