<svg xmlns="http://www.w3.org/2000/svg" viewBox="43 0 426 363">
      <g transform="scale(1 -1) translate(0 -363)">
        <path d="M96 76 119 53 70 5Q65 0 58.5 0.0Q52 0 47.5 4.5Q43 9 43.0 16.0Q43 23 47 27ZM390 332V363L256 228L122 363V332L241 213L160 132Q141 146 117.5 144.0Q94 142 77 125L168 35Q185 51 186.5 74.5Q188 98 175 117ZM465 27 416 76 393 53 442 5Q447 0 453.5 0.0Q460 0 464.5 4.5Q469 9 469.0 16.0Q469 23 465 27ZM352 132 286 198 271 183 337 117Q324 98 325.5 74.5Q327 51 344 35L435 125Q418 142 394.5 144.0Q371 146 352 132Z" />
      </g>
    </svg>