<svg xmlns="http://www.w3.org/2000/svg" viewBox="42 -43 426 470">
      <g transform="scale(1 -1) translate(0 -384)">
        <path d="M128 320H384V236L256 277L128 236ZM84 43H85Q110 43 133 55Q153 66 171 85Q188 66 209 55Q232 43 256.0 43.0Q280 43 303 55Q324 66 341 85Q359 66 379 55Q402 43 427 43H428L468 185Q471 193 467.0 201.5Q463 210 454 212L427 221V320Q427 338 414.5 350.5Q402 363 384 363H320V427H192V363H128Q110 363 97.5 350.5Q85 338 85 320V221L58 212Q49 210 45.0 201.5Q41 193 44 185ZM427 0Q382 0 341 28Q302 1 256.0 1.0Q210 1 171 28Q130 0 85 0H43V-43H85Q129 -43 171 -21Q211 -42 256.0 -42.0Q301 -42 341 -21Q383 -43 427 -43H469V0Z" />
      </g>
    </svg>