<svg xmlns="http://www.w3.org/2000/svg" viewBox="85 -43 363 448">
      <g transform="scale(1 -1) translate(0 -362)">
        <path d="M235 75Q235 112 253.5 144.0Q272 176 304.0 194.5Q336 213 373 213Q398 213 427 203V277L299 405H128Q110 405 97.5 392.5Q85 380 85 363V21Q85 4 97.5 -8.5Q110 -21 128 -21H273Q255 -2 245.0 23.0Q235 48 235 75ZM277 373 395 256H277ZM363 192V160Q398 160 423.0 135.0Q448 110 448 75Q448 46 433 28L410 51Q416 61 416 75Q416 97 400.5 112.5Q385 128 363 128V96L316 143ZM363 -43V-11Q327 -11 302.0 14.0Q277 39 277 75Q277 104 292 122L316 98Q309 89 309 75Q309 52 324.5 36.5Q340 21 363 21V53L410 6Z" />
      </g>
    </svg>