<svg xmlns="http://www.w3.org/2000/svg" viewBox="21 -21 472 426">
      <g transform="scale(1 -1) translate(0 -384)">
        <path d="M420 173 299 51H250V100L371 222ZM493 190Q493 183 480 171L427 117L407 137L463 192L450 205L435 190L386 239L433 284Q436 287 441.5 287.0Q447 287 452 284L482 254Q485 251 485.0 245.0Q485 239 482 235Q474 226 474.0 222.0Q474 218 482 209Q489 203 491 199Q494 194 493 190ZM64 21V363H213V256H320V224L363 267V277L235 405H64Q46 405 33.5 392.5Q21 380 21 363V21Q21 4 33.5 -8.5Q46 -21 64 -21H320Q338 -21 350.5 -8.5Q363 4 363 21ZM235 83Q232 83 228 82L224 81L213 128H181L137 92L149 149H117L96 43H128L190 98L203 49H224L235 51Z" />
      </g>
    </svg>