<svg xmlns="http://www.w3.org/2000/svg" viewBox="85 -21 342 426">
      <g transform="scale(1 -1) translate(0 -384)">
        <path d="M277 256H395L277 373ZM128 405H299L427 277V21Q427 4 414.5 -8.5Q402 -21 384 -21H128Q110 -21 97.5 -8.5Q85 4 85 21V363Q85 380 97.5 392.5Q110 405 128 405ZM128 21H320H384V192L299 107L256 149ZM171 256Q153 256 140.5 243.5Q128 231 128.0 213.5Q128 196 140.5 183.5Q153 171 170.5 171.0Q188 171 200.5 183.5Q213 196 213.0 213.5Q213 231 200.5 243.5Q188 256 171 256Z" />
      </g>
    </svg>