<svg xmlns="http://www.w3.org/2000/svg" viewBox="85 -21 342 426">
      <g transform="scale(1 -1) translate(0 -384)">
        <path d="M192 171Q192 144 210.5 125.5Q229 107 256.0 107.0Q283 107 301.5 125.5Q320 144 320.0 170.5Q320 197 301.5 216.0Q283 235 256.0 235.0Q229 235 210.5 216.0Q192 197 192 171ZM427 30V277L299 405H128Q110 405 97.5 392.5Q85 380 85 363V21Q85 4 97.5 -8.5Q110 -21 128 -21H384Q398 -21 409 -13L315 82Q288 64 256 64Q235 64 215.5 72.0Q196 80 181.0 95.0Q166 110 157.5 129.5Q149 149 149.0 170.5Q149 192 157.5 211.5Q166 231 181.0 246.0Q196 261 215.5 269.0Q235 277 256 277Q285 277 309.5 263.0Q334 249 348.5 224.5Q363 200 363 171Q363 139 345 112Z" />
      </g>
    </svg>