<svg xmlns="http://www.w3.org/2000/svg" viewBox="85 -21 342 426">
      <g transform="scale(1 -1) translate(0 -384)">
        <path d="M299 405 427 277V21Q427 4 414.5 -8.5Q402 -21 384 -21H128Q110 -21 97.5 -8.5Q85 4 85 21V363Q85 380 97.5 392.5Q110 405 128 405ZM157 21 320 185 291 213 128 50ZM277 256H395L277 373ZM160 213Q147 213 137.5 204.0Q128 195 128.0 181.5Q128 168 137.5 158.5Q147 149 160.0 149.0Q173 149 182.5 158.5Q192 168 192.0 181.5Q192 195 182.5 204.0Q173 213 160 213ZM288 85Q275 85 265.5 76.0Q256 67 256.0 53.5Q256 40 265.5 30.5Q275 21 288.0 21.0Q301 21 310.5 30.5Q320 40 320.0 53.5Q320 67 310.5 76.0Q301 85 288 85Z" />
      </g>
    </svg>