<svg xmlns="http://www.w3.org/2000/svg" viewBox="43 -43 448 448">
      <g transform="scale(1 -1) translate(0 -362)">
        <path d="M85 405Q68 405 55.5 392.5Q43 380 43 363V21Q43 4 55.5 -8.5Q68 -21 85 -21H265Q300 -43 341.0 -43.0Q382 -43 416.0 -22.5Q450 -2 470.5 32.0Q491 66 491 107Q491 156 461.0 195.5Q431 235 384 250V277L256 405ZM85 363H235V256H341Q301 256 266.5 236.0Q232 216 212.0 181.5Q192 147 192 107Q192 60 219 21H85ZM341 213Q370 213 394.5 199.0Q419 185 433.5 160.5Q448 136 448.0 107.0Q448 78 433.5 53.5Q419 29 394.5 14.5Q370 0 341.0 0.0Q312 0 287.5 14.5Q263 29 249.0 53.5Q235 78 235.0 107.0Q235 136 249.0 160.5Q263 185 287.5 199.0Q312 213 341 213ZM320 192V85L397 39L413 65L352 101V192Z" />
      </g>
    </svg>