<svg xmlns="http://www.w3.org/2000/svg" viewBox="85 -21 342 426">
      <g transform="scale(1 -1) translate(0 -384)">
        <path d="M277 256H395L277 373ZM128 405H299L427 277V21Q427 4 414.5 -8.5Q402 -21 384 -21H128Q110 -21 97.5 -8.5Q85 4 85 21V363Q85 380 97.5 392.5Q110 405 128 405ZM299 21V43Q299 62 267 75Q240 85 213.5 85.0Q187 85 160 75Q128 62 128 43V21ZM213 192Q196 192 183.5 179.5Q171 167 171.0 149.5Q171 132 183.5 119.5Q196 107 213.5 107.0Q231 107 243.5 119.5Q256 132 256.0 149.5Q256 167 243.5 179.5Q231 192 213 192Z" />
      </g>
    </svg>