<svg xmlns="http://www.w3.org/2000/svg" viewBox="64 0 384 384">
      <g transform="scale(1 -1) translate(0 -384)">
        <path d="M405 384H107Q89 384 76.5 371.5Q64 359 64 341V43Q64 25 76.5 12.5Q89 0 107 0H405Q423 0 435.5 12.5Q448 25 448 43V341Q448 359 435.5 371.5Q423 384 405 384ZM192 160Q192 143 180.0 135.5Q168 128 149.0 128.0Q130 128 118.5 135.5Q107 143 107 160V192H139V160H160V256H192ZM299 203Q299 190 289.0 180.5Q279 171 267 171H245V128H213V256H267Q279 256 289.0 246.5Q299 237 299 224ZM405 224H352V160H373V192H405V156Q405 144 397.5 136.0Q390 128 378 128H350Q338 128 330.0 136.5Q322 145 322 156V226Q320 238 327.5 247.0Q335 256 348 256H375Q388 256 395.5 247.5Q403 239 403 228V224ZM245 224H267V203H245Z" />
      </g>
    </svg>