<svg xmlns="http://www.w3.org/2000/svg" viewBox="85 -21 384 426">
      <g transform="scale(1 -1) translate(0 -384)">
        <path d="M181 192Q168 192 158.5 201.5Q149 211 149.0 224.0Q149 237 158.5 246.5Q168 256 181.5 256.0Q195 256 204.0 246.5Q213 237 213.0 224.0Q213 211 204.0 201.5Q195 192 181 192ZM299 43Q277 85 277 117Q277 124 278 127L256 149L149 43ZM128 21V363H277V256H384V234Q388 235 395 235Q410 235 427 230V277L299 405H128Q110 405 97.5 392.5Q85 380 85 363V21Q85 4 97.5 -8.5Q110 -21 128 -21H339Q320 5 310 21ZM469 117Q469 83 432 27Q413 -1 395 -21L375 2Q353 31 339 57Q320 93 320 117Q320 148 342.0 170.0Q364 192 394.5 192.0Q425 192 447.0 170.0Q469 148 469 117ZM420 115Q420 125 412.0 133.0Q404 141 394.5 141.0Q385 141 377.0 133.5Q369 126 369.0 115.5Q369 105 376.5 97.5Q384 90 395.0 90.0Q406 90 414.0 98.0Q422 106 420 115Z" />
      </g>
    </svg>