<svg xmlns="http://www.w3.org/2000/svg" viewBox="85 -21 342 426">
      <g transform="scale(1 -1) translate(0 -384)">
        <path d="M128 405Q110 405 97.5 392.5Q85 380 85 363V21Q85 4 97.5 -8.5Q110 -21 128 -21H384Q402 -21 414.5 -8.5Q427 4 427 21V277L299 405ZM277 373 395 256H277ZM256 213Q283 213 301.5 194.5Q320 176 320 149Q320 136 312 124Q307 118 295.0 107.5Q283 97 279 91Q272 81 272 69H240Q240 89 249 102Q255 110 268 120Q278 128 282 132Q288 140 288 149Q288 163 278.5 172.0Q269 181 256.0 181.0Q243 181 233.5 172.0Q224 163 224 149H192Q192 176 210.5 194.5Q229 213 256 213ZM240 53H272V21H240Z" />
      </g>
    </svg>