<svg xmlns="http://www.w3.org/2000/svg" viewBox="107 -43 298 448">
      <g transform="scale(1 -1) translate(0 -362)">
        <path d="M299 171V213L256 192L213 213V171L171 149L213 128V85L256 107L299 85V128L341 149ZM299 405H149Q132 405 119.5 392.5Q107 380 107 363V64Q107 46 119.5 33.5Q132 21 149 21H171V64H149V363H277V277H363V64H341V21H363Q380 21 392.5 33.5Q405 46 405 64V299ZM299 171V213L256 192L213 213V171L171 149L213 128V85L256 107L299 85V128L341 149ZM213 -43 256 -21 299 -43V64H213ZM299 171V213L256 192L213 213V171L171 149L213 128V85L256 107L299 85V128L341 149Z" />
      </g>
    </svg>