<svg xmlns="http://www.w3.org/2000/svg" viewBox="21 -43 470 470">
      <g transform="scale(1 -1) translate(0 -384)">
        <path d="M64 341V0H405V-43H64Q46 -43 33.5 -30.5Q21 -18 21 0V341ZM448 427H149Q132 427 119.5 414.5Q107 402 107 384V85Q107 68 119.5 55.5Q132 43 149 43H448Q466 43 478.5 55.5Q491 68 491 85V384Q491 402 478.5 414.5Q466 427 448 427ZM235 107H171V149H235ZM235 171H171V213H235ZM235 235H171V277H235ZM320 107H256V149H320ZM320 171H256V213H320ZM320 235H256V277H320Z" />
      </g>
    </svg>