<svg xmlns="http://www.w3.org/2000/svg" viewBox="85 -21 342 426">
      <g transform="scale(1 -1) translate(0 -384)">
        <path d="M299 405H128Q110 405 97.5 392.5Q85 380 85 363V21Q85 4 97.5 -8.5Q110 -21 128 -21H384Q402 -21 414.5 -8.5Q427 4 427 21V277ZM384 21H128V363H277V256H384ZM274 128Q266 150 246.0 162.0Q226 174 203.0 170.0Q180 166 164.5 148.0Q149 130 149.0 106.5Q149 83 164.5 65.5Q180 48 203.0 44.0Q226 40 246.0 51.5Q266 63 274 85H299V43H341V85H363V128ZM213 85Q204 85 198.0 91.5Q192 98 192.0 107.0Q192 116 198.0 122.0Q204 128 213.0 128.0Q222 128 228.5 122.0Q235 116 235.0 107.0Q235 98 228.5 91.5Q222 85 213 85Z" />
      </g>
    </svg>