<svg xmlns="http://www.w3.org/2000/svg" viewBox="85 -43 384 448">
      <g transform="scale(1 -1) translate(0 -362)">
        <path d="M469 58V-17Q469 -27 461.0 -35.0Q453 -43 442 -43H324Q314 -43 306.5 -34.5Q299 -26 299 -15V60Q299 69 307.0 77.0Q315 85 324 85V139Q324 161 342.5 176.5Q361 192 384.0 192.0Q407 192 425.5 176.5Q444 161 444 139V128H416V139Q416 151 406.5 158.5Q397 166 384.0 166.0Q371 166 361.5 158.5Q352 151 352 139V85H444Q454 85 461.5 77.0Q469 69 469 58ZM128 405Q110 405 97.5 392.5Q85 380 85 363V21Q85 4 97.5 -8.5Q110 -21 128 -21H256V60Q256 89 277 107L280 108Q282 110 282 111V139Q282 166 296.5 188.0Q311 210 334.5 222.5Q358 235 384 235Q401 235 427 226V277L299 405ZM277 373 395 256H277Z" />
      </g>
    </svg>