<svg xmlns="http://www.w3.org/2000/svg" viewBox="85 -51 414 456">
      <g transform="scale(1 -1) translate(0 -354)">
        <path d="M299 405H128Q110 405 97.5 392.5Q85 380 85 363V21Q85 4 97.5 -8.5Q110 -21 128 -21H277Q264 -13 253.5 -2.5Q243 8 235 21H128V363H277V256H384V231Q408 226 427 213V277ZM433 45Q447 67 448.0 92.5Q449 118 437.0 141.0Q425 164 403.0 177.5Q381 191 355.5 192.0Q330 193 307.0 181.0Q284 169 270.5 147.5Q257 126 256.0 100.0Q255 74 267.0 51.5Q279 29 301.5 14.5Q324 0 351.5 0.0Q379 0 403 15L469 -51L499 -21ZM352 43Q330 43 314.5 58.5Q299 74 299.0 96.0Q299 118 314.5 133.5Q330 149 352.0 149.0Q374 149 389.5 133.5Q405 118 405.0 96.0Q405 74 389.5 58.5Q374 43 352 43Z" />
      </g>
    </svg>