<svg xmlns="http://www.w3.org/2000/svg" viewBox="64 0 384 384">
      <g transform="scale(1 -1) translate(0 -384)">
        <path d="M107 384Q89 384 76.5 371.5Q64 359 64 341V43Q64 25 76.5 12.5Q89 0 107 0H405Q423 0 435.5 12.5Q448 25 448 43V341Q448 359 435.5 371.5Q423 384 405 384ZM107 341H405V43H107ZM322 280Q311 290 298.5 294.5Q286 299 262 299H171V85H209V162H262Q285 162 298.0 166.0Q311 170 322 180Q341 196 341.0 229.0Q341 262 322 280ZM290 203Q279 192 261 192H209V269H258Q278 269 289.5 257.0Q301 245 301.0 229.0Q301 213 290 203Z" />
      </g>
    </svg>