<svg xmlns="http://www.w3.org/2000/svg" viewBox="85 -21 342 426">
      <g transform="scale(1 -1) translate(0 -384)">
        <path d="M299 405H128Q110 405 97.5 392.5Q85 380 85 363V21Q85 4 97.5 -8.5Q110 -21 128 -21H384Q402 -21 414.5 -8.5Q427 4 427 21V277ZM384 21H128V363H277L384 256ZM363 166Q363 138 349.0 114.5Q335 91 312.0 77.5Q289 64 261 64Q230 64 205.0 81.0Q180 98 168 125H203Q213 111 228.0 103.0Q243 95 261 95Q291 95 311.5 115.5Q332 136 332.0 165.5Q332 195 311.5 216.0Q291 237 261 237Q241 237 224.5 226.5Q208 216 198 198L231 166H149V247L176 220Q190 242 212.0 254.5Q234 267 261.5 267.0Q289 267 312.0 253.5Q335 240 349.0 216.5Q363 193 363 166Z" />
      </g>
    </svg>