<svg xmlns="http://www.w3.org/2000/svg" viewBox="85 -21 342 426">
      <g transform="scale(1 -1) translate(0 -384)">
        <path d="M235 107Q235 97 229.0 91.0Q223 85 213.5 85.0Q204 85 198.0 91.0Q192 97 192.0 106.5Q192 116 198.0 122.0Q204 128 213.5 128.0Q223 128 229.0 122.0Q235 116 235 107ZM427 277V21Q427 4 414.5 -8.5Q402 -21 384 -21H128Q110 -21 97.5 -8.5Q85 4 85 21V363Q85 380 97.5 392.5Q110 405 128 405H299ZM384 128H273Q263 154 239.5 165.0Q216 176 191.0 166.5Q166 157 155.0 133.0Q144 109 153.5 85.0Q163 61 187.0 49.0Q211 37 235 47Q262 56 273 85H299V43H341V85H384ZM395 256 277 373V256Z" />
      </g>
    </svg>