<svg xmlns="http://www.w3.org/2000/svg" viewBox="64 0 384 384">
      <g transform="scale(1 -1) translate(0 -384)">
        <path d="M405 384H107Q89 384 76.5 371.5Q64 359 64 341V43Q64 25 76.5 12.5Q89 0 107 0H405Q423 0 435.5 12.5Q448 25 448 43V341Q448 359 435.5 371.5Q423 384 405 384ZM192 203Q192 190 182.5 180.5Q173 171 160 171H139V128H107V256H160Q173 256 182.5 246.5Q192 237 192 224ZM299 128H267L245 181V128H213V256H245L267 203V256H299ZM405 224H352V160H373V192H405V156Q405 144 397.5 136.0Q390 128 378 128H350Q338 128 330.0 136.5Q322 145 322 156V226Q320 238 327.5 247.0Q335 256 348 256H375Q388 256 395.5 247.5Q403 239 403 228V224ZM139 224H160V203H139Z" />
      </g>
    </svg>