<svg xmlns="http://www.w3.org/2000/svg" viewBox="85 -32 384 437">
      <g transform="scale(1 -1) translate(0 -373)">
        <path d="M384 139Q419 139 444 114L469 139V53H384L422 91Q406 107 384.0 107.0Q362 107 346.5 91.0Q331 75 331.0 53.0Q331 31 346.5 15.5Q362 0 384 0Q397 0 408.0 5.5Q419 11 427 21H463Q454 -3 432.5 -17.5Q411 -32 384 -32Q349 -32 324.0 -7.0Q299 18 299.0 53.5Q299 89 324.0 114.0Q349 139 384 139ZM277 256H395L277 373ZM128 405H299L427 277V188Q410 192 395 192Q357 192 325.0 173.5Q293 155 274.5 123.0Q256 91 256 53Q256 13 277 -21H128Q110 -21 97.5 -8.5Q85 4 85 21V363Q85 380 97.5 392.5Q110 405 128 405Z" />
      </g>
    </svg>