<svg xmlns="http://www.w3.org/2000/svg" viewBox="85 -43 384 448">
      <g transform="scale(1 -1) translate(0 -362)">
        <path d="M384 171Q361 171 342.5 155.0Q324 139 324 117V85Q315 85 307.0 77.0Q299 69 299 60V-15Q299 -26 306.5 -34.5Q314 -43 324 -43H442Q453 -43 461.0 -35.0Q469 -27 469 -17V58Q469 69 461.5 77.0Q454 85 444 85V117Q444 139 425.5 155.0Q407 171 384 171ZM384 145Q397 145 406.5 137.5Q416 130 416 117V85H352V117Q352 130 361.5 137.5Q371 145 384 145ZM128 405Q110 405 97.5 392.5Q85 380 85 363V21Q85 4 97.5 -8.5Q110 -21 128 -21H256V21H128V363H277V256H384V213Q401 213 427 205V277L299 405Z" />
      </g>
    </svg>