<svg xmlns="http://www.w3.org/2000/svg" viewBox="85 -21 342 426">
      <g transform="scale(1 -1) translate(0 -384)">
        <path d="M128 405Q110 405 97.5 392.5Q85 380 85 363V21Q85 4 97.5 -8.5Q110 -21 128 -21H384Q402 -21 414.5 -8.5Q427 4 427 21V277L299 405ZM277 373 395 256H277ZM211 251H237V231Q248 231 256.0 223.0Q264 215 264 204V160L262 157L281 124Q291 141 291 160H317Q317 126 295 99L331 37V11L308 24L275 81Q252 66 224.0 66.0Q196 66 173 81L140 24L117 11V37L186 157L184 160V204Q184 215 192.0 223.0Q200 231 211 231ZM224 204Q213 204 208.5 193.5Q204 183 212.0 175.5Q220 168 230.5 172.0Q241 176 241 187Q241 194 236.0 199.0Q231 204 224 204ZM206 138 187 104Q204 93 224.0 93.0Q244 93 261 104L242 138Q234 130 224.0 130.0Q214 130 206 138Z" />
      </g>
    </svg>