<svg xmlns="http://www.w3.org/2000/svg" viewBox="85 -21 342 426">
      <g transform="scale(1 -1) translate(0 -384)">
        <path d="M299 405 427 277V21Q427 4 414.5 -8.5Q402 -21 384 -21H128Q110 -21 97.5 -8.5Q85 4 85 21V363Q85 380 97.5 392.5Q110 405 128 405ZM384 21V256H277V363H128V21ZM363 171V43H149L256 149L299 107ZM213 224Q213 211 204.0 201.5Q195 192 181.5 192.0Q168 192 158.5 201.5Q149 211 149.0 224.0Q149 237 158.5 246.5Q168 256 181.5 256.0Q195 256 204.0 246.5Q213 237 213 224Z" />
      </g>
    </svg>