<svg xmlns="http://www.w3.org/2000/svg" viewBox="85 -33 396 438">
      <g transform="scale(1 -1) translate(0 -372)">
        <path d="M149 43 256 149 296 109Q277 78 277 43ZM213 224Q213 237 204.0 246.5Q195 256 181.5 256.0Q168 256 158.5 246.5Q149 237 149.0 224.0Q149 211 158.5 201.5Q168 192 181.5 192.0Q195 192 204.0 201.5Q213 211 213 224ZM279 21H128V363H277V256H384V169Q397 171 405.5 171.0Q414 171 427 169V277L299 405H128Q110 405 97.5 392.5Q85 380 85 363V21Q85 4 97.5 -8.5Q110 -21 128 -21H295Q283 -1 279 21ZM451 118 405 73 360 118 330 88 375 43 330 -3 360 -33 405 13 451 -33 481 -3 435 43 481 88Z" />
      </g>
    </svg>