<svg xmlns="http://www.w3.org/2000/svg" viewBox="85 -21 342 426">
      <g transform="scale(1 -1) translate(0 -384)">
        <path d="M277 256H395L277 373ZM128 405H299L427 277V21Q427 4 414.5 -8.5Q402 -21 384 -21H128Q110 -21 97.5 -8.5Q85 4 85 21V363Q85 380 97.5 392.5Q110 405 128 405ZM224 213Q184 213 156.0 185.0Q128 157 128.0 117.0Q128 77 156.0 49.0Q184 21 224.0 21.0Q264 21 292.0 49.0Q320 77 320.0 117.0Q320 157 292.0 185.0Q264 213 224 213ZM224 181Q251 181 269.5 162.5Q288 144 288 117Q288 99 279 85L192 172Q206 181 224 181ZM160 117Q160 135 169 149L256 62Q242 53 224 53Q197 53 178.5 72.0Q160 91 160 117Z" />
      </g>
    </svg>