<svg xmlns="http://www.w3.org/2000/svg" viewBox="85 -21 342 426">
      <g transform="scale(1 -1) translate(0 -384)">
        <path d="M299 405H128Q110 405 97.5 392.5Q85 380 85 363V21Q85 4 97.5 -8.5Q110 -21 128 -21H384Q402 -21 414.5 -8.5Q427 4 427 21V277ZM363 33Q363 28 359.5 24.5Q356 21 351 21Q296 21 250.0 48.5Q204 76 176.5 122.0Q149 168 149 223Q149 228 152.5 231.5Q156 235 161 235H203Q208 235 211.5 231.5Q215 228 215 223Q215 201 221 180Q223 174 218 168L192 142Q219 91 270 64L297 90Q301 95 308 93Q330 86 351 86Q356 86 359.5 83.0Q363 80 363 75ZM277 256V373L395 256Z" />
      </g>
    </svg>