<svg xmlns="http://www.w3.org/2000/svg" viewBox="64 0 384 384">
      <g transform="scale(1 -1) translate(0 -384)">
        <path d="M107 384Q89 384 76.5 371.5Q64 359 64 341V43Q64 25 76.5 12.5Q89 0 107 0H405Q423 0 435.5 12.5Q448 25 448 43V341Q448 359 435.5 371.5Q423 384 405 384ZM240 336H272V312Q285 312 294.5 302.5Q304 293 304 280V227L301 224L324 184Q336 204 336 227H368Q368 186 341 154L384 80V48L356 64L317 133Q289 115 256.0 115.0Q223 115 195 133L156 64L128 48V80L211 224L208 227V280Q208 293 217.5 302.5Q227 312 240 312ZM256 280Q247 280 241.5 274.0Q236 268 236.0 260.0Q236 252 242.0 245.5Q248 239 256.0 239.5Q264 240 270.0 245.5Q276 251 276.0 259.5Q276 268 270.0 274.0Q264 280 256 280ZM235 201 211 160Q232 146 256.0 146.0Q280 146 301 160L277 201Q268 192 256.0 192.0Q244 192 235 201Z" />
      </g>
    </svg>