<svg xmlns="http://www.w3.org/2000/svg" viewBox="85 -21 342 426">
      <g transform="scale(1 -1) translate(0 -384)">
        <path d="M299 405 427 277V21Q427 4 414.5 -8.5Q402 -21 384 -21H128Q110 -21 97.5 -8.5Q85 4 85 21V363Q85 380 97.5 392.5Q110 405 128 405ZM384 21V256H277V363H128V21ZM245 235Q285 235 313.0 207.0Q341 179 341.0 139.0Q341 99 313.0 71.0Q285 43 245.0 43.0Q205 43 177.0 71.0Q149 99 149.0 139.0Q149 179 177.0 207.0Q205 235 245 235ZM245 203Q227 203 213 194L300 107Q309 121 309 139Q309 165 290.5 184.0Q272 203 245 203ZM181 139Q181 112 200.0 93.5Q219 75 245 75Q263 75 277 84L190 171Q181 157 181 139Z" />
      </g>
    </svg>