<svg xmlns="http://www.w3.org/2000/svg" viewBox="85 -33 396 438">
      <g transform="scale(1 -1) translate(0 -372)">
        <path d="M279 21H128L256 149L296 109Q317 142 350 158L384 192V169Q397 171 405.5 171.0Q414 171 427 169V277L299 405H128Q110 405 97.5 392.5Q85 380 85 363V21Q85 4 97.5 -8.5Q110 -21 128 -21H295Q283 -1 279 21ZM277 373 395 256H277ZM171 256Q188 256 200.5 243.5Q213 231 213.0 213.5Q213 196 200.5 183.5Q188 171 170.5 171.0Q153 171 140.5 183.5Q128 196 128.0 213.5Q128 231 140.5 243.5Q153 256 171 256ZM481 88 435 43 481 -3 451 -33 405 13 360 -33 330 -3 375 43 330 88 360 118 405 73 451 118Z" />
      </g>
    </svg>