<svg xmlns="http://www.w3.org/2000/svg" viewBox="85 -64 423 469">
      <g transform="scale(1 -1) translate(0 -341)">
        <path d="M128 405Q110 405 97.5 392.5Q85 380 85 363V21Q85 4 97.5 -8.5Q110 -21 128 -21H256V21H128V363H277V256H384V192H427V277L299 405ZM384 149Q379 149 378 145L374 117Q365 112 356 107L330 117Q325 117 323 115L302 78Q300 74 303 71L326 53Q325 48 325.0 42.5Q325 37 326 32L303 15Q300 12 302 8L323 -29Q324 -32 330 -32L356 -21Q366 -28 374 -31L378 -60Q379 -64 384 -64H427Q431 -64 432 -60L436 -31Q444 -28 454 -21L480 -32Q486 -32 487 -29L508 8Q510 12 507 15L484 32L485 43Q485 48 484 53L507 71Q510 74 508 78L487 115Q486 117 480 117L454 107Q443 114 436 117L432 145Q431 149 427 149ZM405 75Q419 75 428.0 65.5Q437 56 437.0 42.5Q437 29 428.0 20.0Q419 11 405.5 11.0Q392 11 382.5 20.0Q373 29 373.0 42.5Q373 56 382.5 65.5Q392 75 405 75Z" />
      </g>
    </svg>