<svg xmlns="http://www.w3.org/2000/svg" viewBox="85 -43 406 448">
      <g transform="scale(1 -1) translate(0 -362)">
        <path d="M363 64Q372 64 378.0 58.0Q384 52 384.0 43.0Q384 34 378.0 27.5Q372 21 363.0 21.0Q354 21 347.5 27.5Q341 34 341.0 43.0Q341 52 347.5 58.0Q354 64 363 64ZM363 128Q320 128 285.0 104.5Q250 81 235 43Q250 5 285.0 -19.0Q320 -43 363.0 -43.0Q406 -43 440.5 -19.0Q475 5 491 43Q475 81 440.5 104.5Q406 128 363 128ZM363 -11Q341 -11 325.0 5.0Q309 21 309.0 43.0Q309 65 325.0 80.5Q341 96 363.0 96.0Q385 96 400.5 80.5Q416 65 416.0 43.0Q416 21 400.5 5.0Q385 -11 363 -11ZM195 27 189 43 195 58Q216 110 261.5 140.5Q307 171 363 171Q395 171 427 159V277L299 405H128Q110 405 97.5 392.5Q85 380 85 363V21Q85 4 97.5 -8.5Q110 -21 128 -21H224Q207 -1 195 27ZM277 373 395 256H277Z" />
      </g>
    </svg>