<svg xmlns="http://www.w3.org/2000/svg" viewBox="85 -21 342 426">
      <g transform="scale(1 -1) translate(0 -384)">
        <path d="M277 256H299V213H235V299H277ZM395 256 349 301 376 328 427 277V235H384V213H320V256ZM277 373V405H256V363H277V320H235V363H192V405H171V363H128V341H85V363Q85 380 97.5 392.5Q110 405 128 405H299L349 355L322 328ZM427 21Q427 4 414.5 -8.5Q402 -21 384 -21H341V21H384V43H427ZM384 128H427V64H384ZM256 -21V21H320V-21ZM171 -21V21H235V-21ZM128 -21Q110 -21 97.5 -8.5Q85 4 85 21V64H128V21H149V-21ZM85 149H128V85H85ZM85 235H128V171H85ZM384 213H427V149H384ZM85 320H128V256H85Z" />
      </g>
    </svg>