<svg xmlns="http://www.w3.org/2000/svg" viewBox="85 -21 342 426">
      <g transform="scale(1 -1) translate(0 -384)">
        <path d="M299 405H128Q110 405 97.5 392.5Q85 380 85 363V21Q85 4 97.5 -8.5Q110 -21 128 -21H384Q402 -21 414.5 -8.5Q427 4 427 21V277ZM384 21H128V363H277V256H384ZM213 203Q213 189 204.0 180.0Q195 171 181.5 171.0Q168 171 158.5 180.0Q149 189 149.0 202.5Q149 216 158.5 225.5Q168 235 181.5 235.0Q195 235 204.0 225.5Q213 216 213 203ZM341 75Q341 61 332.0 52.0Q323 43 309.5 43.0Q296 43 286.5 52.0Q277 61 277.0 74.5Q277 88 286.5 97.5Q296 107 309.5 107.0Q323 107 332.0 97.5Q341 88 341 75ZM341 206 179 43 149 71 313 235Z" />
      </g>
    </svg>