<svg xmlns="http://www.w3.org/2000/svg" viewBox="85 -21 384 426">
      <g transform="scale(1 -1) translate(0 -384)">
        <path d="M128 21 256 149 278 127Q281 157 297.0 181.5Q313 206 339.0 220.5Q365 235 395 235Q410 235 427 230V277L299 405H128Q110 405 97.5 392.5Q85 380 85 363V21Q85 4 97.5 -8.5Q110 -21 128 -21H339Q320 5 310 21ZM277 373 395 256H277ZM171 256Q188 256 200.5 243.5Q213 231 213.0 213.5Q213 196 200.5 183.5Q188 171 170.5 171.0Q153 171 140.5 183.5Q128 196 128.0 213.5Q128 231 140.5 243.5Q153 256 171 256ZM395 192Q364 192 342.0 170.0Q320 148 320 117Q320 93 339 57Q353 31 375 2L395 -21L414 2Q436 31 450 57Q469 93 469 117Q469 148 447.0 170.0Q425 192 395 192ZM395 90Q384 90 376.5 97.5Q369 105 369.0 115.5Q369 126 377.0 133.5Q385 141 394.5 141.0Q404 141 412.0 133.0Q420 125 421.0 115.5Q422 106 414.0 98.0Q406 90 395 90Z" />
      </g>
    </svg>