<svg xmlns="http://www.w3.org/2000/svg" viewBox="64 0 384 384">
      <g transform="scale(1 -1) translate(0 -384)">
        <path d="M405 384H107Q89 384 76.5 371.5Q64 359 64 341V43Q64 25 76.5 12.5Q89 0 107 0H405Q423 0 435.5 12.5Q448 25 448 43V341Q448 359 435.5 371.5Q423 384 405 384ZM213 224H160V160H181V192H213V156Q213 144 205.5 136.0Q198 128 186 128H156Q144 128 136.0 136.5Q128 145 128 156V226Q128 238 135.5 247.0Q143 256 156 256H183Q197 256 205.0 247.5Q213 239 213 228ZM277 128H245V256H277ZM373 224H341V203H373V171H341V128H309V256H373Z" />
      </g>
    </svg>