<svg xmlns="http://www.w3.org/2000/svg" viewBox="64 0 384 384">
      <g transform="scale(1 -1) translate(0 -384)">
        <path d="M209 162H262Q285 162 298.0 166.0Q311 170 322 180Q341 196 341.0 229.0Q341 262 322 280Q311 290 298.5 294.5Q286 299 262 299H171V85H209ZM405 384Q423 384 435.5 371.5Q448 359 448 341V43Q448 25 435.5 12.5Q423 0 405 0H107Q89 0 76.5 12.5Q64 25 64 43V341Q64 359 76.5 371.5Q89 384 107 384ZM209 192V269H258Q278 269 289.5 257.0Q301 245 301.0 229.0Q301 213 290.0 202.5Q279 192 261 192Z" />
      </g>
    </svg>