<svg xmlns="http://www.w3.org/2000/svg" viewBox="43 -21 426 426">
      <g transform="scale(1 -1) translate(0 -384)">
        <path d="M85 320H43V21Q43 4 55.5 -8.5Q68 -21 85 -21H384V21H85ZM427 405H171Q153 405 140.5 392.5Q128 380 128 363V107Q128 89 140.5 76.5Q153 64 171 64H427Q444 64 456.5 76.5Q469 89 469 107V363Q469 380 456.5 392.5Q444 405 427 405ZM213 128H171V171H213ZM213 213H171V256H213ZM213 299H171V341H213ZM427 128H384V171H427ZM427 213H384V256H427ZM427 299H384V341H427Z" />
      </g>
    </svg>