<svg xmlns="http://www.w3.org/2000/svg" viewBox="43 -21 426 448">
      <g transform="scale(1 -1) translate(0 -406)">
        <path d="M75 384H107V410Q107 417 112.0 422.0Q117 427 124 427H218Q225 427 230.0 422.0Q235 417 235 410V384H267Q280 384 289.5 374.5Q299 365 299 352V341H469V21H299V11Q299 -3 289.5 -12.0Q280 -21 267 -21H75Q61 -21 52.0 -12.0Q43 -3 43 11V352Q43 365 52.0 374.5Q61 384 75 384ZM384 299V256H427V299ZM299 299V256H341V299ZM213 299V256H256V299ZM299 107V64H341V107ZM384 107V64H427V107ZM213 107V64H256V107Z" />
      </g>
    </svg>