<svg xmlns="http://www.w3.org/2000/svg" viewBox="52 -21 416 405">
      <g transform="scale(1 -1) translate(0 -363)">
        <path d="M74 341Q67 341 60.5 336.0Q54 331 53.0 322.5Q52 314 57 307L171 162V34L220 -15Q226 -21 235.0 -21.0Q244 -21 250.0 -15.0Q256 -9 256.0 0.0Q256 9 250 15L213 51V176L91 333Q85 341 74 341ZM341 192V24Q343 13 336.0 6.5Q329 0 320.0 0.0Q311 0 305 6L262 49Q255 57 256 67V192H255L132 349Q127 356 128.0 365.0Q129 374 135.5 379.0Q142 384 149 384H448Q455 384 461.5 379.0Q468 374 469.0 365.0Q470 356 465 349L342 192Z" />
      </g>
    </svg>