<svg xmlns="http://www.w3.org/2000/svg" viewBox="52 -21 416 405">
      <g transform="scale(1 -1) translate(0 -363)">
        <path d="M74 341Q67 341 60.5 336.0Q54 331 53.0 322.5Q52 314 57 307L149 189V63L227 -15Q233 -21 242.0 -21.0Q251 -21 257 -15Q263 -9 263.0 0.0Q263 9 257 15L192 81V204L91 333Q85 341 74 341ZM461 379Q455 384 448 384H149Q142 384 135.5 379.0Q129 374 128.0 365.0Q127 356 132 349L235 219V109Q233 99 241 92L326 6Q333 0 341.5 0.0Q350 0 357.0 6.5Q364 13 363 24V219L465 349Q470 356 469.0 365.0Q468 374 461 379ZM320 234V73L277 116V233L193 341H404Z" />
      </g>
    </svg>