<svg xmlns="http://www.w3.org/2000/svg" viewBox="85 -11 374 374">
      <g transform="scale(1 -1) translate(0 -352)">
        <path d="M235 320Q256 320 275.5 312.0Q295 304 310 289L256 235H384V363L340 319Q320 340 292.5 351.5Q265 363 235 363Q198 363 166.0 346.0Q134 329 113.0 299.5Q92 270 87 235H130Q138 271 167.0 295.5Q196 320 235 320ZM355 125Q377 155 382 192H339Q332 155 302.5 131.0Q273 107 235 107Q213 107 193.5 115.0Q174 123 159 138L213 192H85V64L129 108Q150 87 177.0 75.5Q204 64 235 64Q285 64 323 93L427 -11L459 21Z" />
      </g>
    </svg>