<svg xmlns="http://www.w3.org/2000/svg" viewBox="32 -32 415 437">
      <g transform="scale(1 -1) translate(0 -373)">
        <path d="M32 346 59 373 437 -5 410 -32 356 23Q321 24 295 42Q271 58 257.5 82.5Q244 107 244 134L219 159Q211 149 211 135Q211 108 221.5 83.0Q232 58 251 39Q266 24 282.0 15.0Q298 6 321 0Q325 -1 327.0 -5.0Q329 -9 328.0 -13.0Q327 -17 324.5 -19.0Q322 -21 318 -21H315Q290 -14 271.5 -3.5Q253 7 236 24Q214 46 202.0 75.0Q190 104 190 135Q190 157 204 174L181 197Q157 170 157 135Q157 88 176 53Q186 36 195 24Q202 15 216 1Q219 -2 219.0 -6.0Q219 -10 215.5 -13.5Q212 -17 208.0 -17.0Q204 -17 201 -14Q186 1 177.0 12.5Q168 24 158 43Q135 83 135 135Q135 157 143.5 177.0Q152 197 166 212L143 235Q125 218 114 195Q102 169 102 135Q102 96 116 58Q117 54 115.5 50.0Q114 46 109.5 44.5Q105 43 101.0 45.0Q97 47 96 51Q80 92 80 135Q80 174 95 204Q108 231 128 250L106 272Q94 260 83 245Q80 241 75 241L68 243Q65 245 64.0 249.5Q63 254 66 257Q78 274 91 287ZM380 353 375 354Q344 370 316.0 377.0Q288 384 256 384Q192 384 137 354L134 353L122 365Q122 370 127 373Q186 405 256 405Q290 405 321.0 397.5Q352 390 385 373Q389 371 390.0 366.5Q391 362 389 359Q386 353 380 353ZM366 327Q414 303 446 258Q448 255 447.5 250.5Q447 246 443.5 243.5Q440 241 435.5 241.5Q431 242 428 245Q400 286 357.0 308.0Q314 330 264.5 332.0Q215 334 171 316L155 332Q204 354 261.0 353.0Q318 352 366 327ZM256 250Q289 250 316.5 234.5Q344 219 360.5 192.5Q377 166 377 135Q377 131 373.5 128.0Q370 125 366 125L361 126L357 130L355 135Q355 173 326.5 200.5Q298 228 258 229L238 249ZM307 59Q317 52 330 48L269 109Q279 78 307 59ZM410 135Q410 175 389.0 208.5Q368 242 332.5 261.5Q297 281 255 281Q233 281 212 275L195 292Q225 303 255 303Q303 303 343.5 280.5Q384 258 407.5 219.5Q431 181 431 135Q431 120 423.5 106.5Q416 93 403 84L388 99Q398 105 404.0 114.5Q410 124 410 135Z" />
      </g>
    </svg>