<svg xmlns="http://www.w3.org/2000/svg" viewBox="63 -21 383 426">
      <g transform="scale(1 -1) translate(0 -384)">
        <path d="M380 353Q377 353 375 354Q344 370 316.0 377.0Q288 384 256 384Q192 384 137 354Q134 352 129.5 353.0Q125 354 123.0 358.0Q121 362 122.0 366.5Q123 371 127 373Q186 405 256 405Q290 405 321.0 397.5Q352 390 385 373Q389 371 390.0 366.5Q391 362 389 359Q386 353 380 353ZM75 241Q71 241 68.0 243.0Q65 245 64.0 249.5Q63 254 66 257Q98 303 146 327Q197 353 256.5 353.0Q316 353 365.0 328.0Q414 303 446 258Q448 255 447.5 250.5Q447 246 443.5 243.5Q440 241 435.5 241.5Q431 242 428 245Q400 286 356 308Q310 332 255.5 332.0Q201 332 156 308Q112 286 83 245Q80 241 75 241ZM208 -17Q204 -17 201 -14Q186 1 177.0 12.5Q168 24 158 43Q135 83 135 135Q135 166 151.5 192.5Q168 219 195.5 234.5Q223 250 256.0 250.0Q289 250 316.5 234.5Q344 219 360.5 192.5Q377 166 377 135Q377 131 373.5 128.0Q370 125 366.0 125.0Q362 125 358.5 128.0Q355 131 355 135Q355 161 342.0 182.5Q329 204 306.0 216.5Q283 229 256.0 229.0Q229 229 206.0 216.5Q183 204 170.0 182.5Q157 161 157 135Q157 88 176 53Q186 36 195 24Q202 15 216 1Q219 -2 219.0 -6.0Q219 -10 215.5 -13.5Q212 -17 208 -17ZM361 23Q323 23 295 42Q271 58 257.5 82.5Q244 107 244 135Q244 140 247.0 143.0Q250 146 254.5 146.0Q259 146 262.0 143.0Q265 140 265 135Q265 113 276.0 92.5Q287 72 307 59Q329 44 361 44Q371 44 383 46Q388 47 391.5 44.5Q395 42 395.5 37.5Q396 33 393.5 29.5Q391 26 387 25Q374 23 361 23ZM318 -21Q317 -21 315 -21Q290 -14 271.5 -3.5Q253 7 236 24Q214 46 202.0 75.0Q190 104 190 135Q190 161 209.0 179.5Q228 198 255.5 198.0Q283 198 302.0 179.5Q321 161 321 135Q321 118 334.0 106.0Q347 94 365.5 94.0Q384 94 397.0 106.0Q410 118 410 135Q410 175 389.0 208.5Q368 242 332.5 261.5Q297 281 255 281Q210 281 171.0 257.5Q132 234 114 195Q102 169 102 135Q102 96 116 58Q117 54 115.5 50.0Q114 46 109.5 44.5Q105 43 101.0 45.0Q97 47 96 51Q80 92 80 135Q80 174 95 204Q116 249 159.5 276.0Q203 303 255 303Q303 303 343.5 280.5Q384 258 407.5 219.5Q431 181 431 135Q431 110 412.0 91.5Q393 73 365.5 73.0Q338 73 319.0 91.5Q300 110 300 135Q300 153 287.0 165.0Q274 177 255.5 177.0Q237 177 224.0 165.0Q211 153 211 135Q211 108 221.5 83.0Q232 58 251 39Q266 24 282.0 15.0Q298 6 321 0Q325 -1 327.0 -5.0Q329 -9 328.0 -13.0Q327 -17 324.5 -19.0Q322 -21 318 -21Z" />
      </g>
    </svg>