<svg xmlns="http://www.w3.org/2000/svg" viewBox="21 -21 470 426">
      <g transform="scale(1 -1) translate(0 -384)">
        <path d="M364 405Q357 405 352 402L119 267H204L373 366Q381 370 383.0 378.5Q385 387 381 395Q375 405 364 405ZM341 277V235H64Q46 235 33.5 222.5Q21 210 21 192H43V128H21V43H64Q64 16 82.5 -2.5Q101 -21 128.0 -21.0Q155 -21 173.5 -2.5Q192 16 192 43H320Q320 16 338.5 -2.5Q357 -21 384.0 -21.0Q411 -21 429.5 -2.5Q448 16 448 43H491V181L416 277ZM384 245H405L459 181V160H384ZM85 192H149V128H85ZM192 192H256V128H192ZM299 192H341V128H299ZM128 75Q141 75 150.5 65.5Q160 56 160.0 42.5Q160 29 150.5 20.0Q141 11 128.0 11.0Q115 11 105.5 20.0Q96 29 96.0 42.5Q96 56 105.5 65.5Q115 75 128 75ZM384 75Q397 75 406.5 65.5Q416 56 416.0 42.5Q416 29 406.5 20.0Q397 11 384.0 11.0Q371 11 361.5 20.0Q352 29 352.0 42.5Q352 56 361.5 65.5Q371 75 384 75Z" />
      </g>
    </svg>