<svg xmlns="http://www.w3.org/2000/svg" viewBox="24 -37 448 448">
      <g transform="scale(1 -1) translate(0 -374)">
        <path d="M472 -10 51 411 24 384 151 256Q129 234 117.0 203.0Q105 172 107 139Q109 118 113 107Q117 90 128 70Q145 43 173.5 24.5Q202 6 234 2Q270 -3 303 5Q338 13 363 36L367 40L445 -37ZM188 148Q180 145 174 151Q172 152 171 154Q155 175 150.5 201.5Q146 228 155 253L183 225Q183 193 193 166Q195 162 195 159Q195 151 188 148ZM309 75Q298 65 286 62Q269 56 251 62Q236 67 224 79Q242 84 253.5 96.0Q265 108 269 123Q270 129 270 138L320 88Q314 79 309 75ZM404 113 206 310Q222 337 244 356Q272 378 298 384Q282 354 287.0 319.5Q292 285 316 262Q324 255 340 242Q354 232 360 227L363 224Q373 214 377 209L383 199Q390 188 393 182L396 177Q408 147 404 113Z" />
      </g>
    </svg>