<svg xmlns="http://www.w3.org/2000/svg" viewBox="24 -37 448 448">
      <g transform="scale(1 -1) translate(0 -374)">
        <path d="M445 -37 472 -10 51 411 24 384 171 237V21Q153 21 140.5 8.5Q128 -4 128 -21H384Q384 -4 371.5 8.5Q359 21 341 21V66ZM218 190 275 133Q266 128 256 128Q238 128 225.5 140.5Q213 153 213 171Q213 181 218 190ZM239 277 180 336Q188 353 202.5 364.5Q217 376 235 381V405H277V381Q300 375 316.5 358.5Q333 342 338 320H384V277ZM405 213V192H427V149H405V128H388L363 154V213ZM107 128V149H85V192H107V213H149V128ZM341 175 260 256H341Z" />
      </g>
    </svg>