<svg xmlns="http://www.w3.org/2000/svg" viewBox="60 -21 390 409">
      <g transform="scale(1 -1) translate(0 -367)">
        <path d="M256 235Q274 235 286.5 222.5Q299 210 299.0 192.0Q299 174 286.5 161.5Q274 149 256.0 149.0Q238 149 225.5 161.5Q213 174 213.0 192.0Q213 210 225.5 222.5Q238 235 256 235ZM256 277Q221 277 196.0 252.0Q171 227 171.0 192.0Q171 157 196.0 132.0Q221 107 256.0 107.0Q291 107 316.0 132.0Q341 157 341.0 192.0Q341 227 316.0 252.0Q291 277 256 277ZM320 85H192V43H320ZM320 21H192V-21H320ZM134 222 224 311 196 343 105 252ZM90 267 179 356 151 388 60 297ZM320 85H192V43H320ZM286 314 375 224 450 299 361 388Z" />
      </g>
    </svg>