<svg xmlns="http://www.w3.org/2000/svg" viewBox="43 -21 426 426">
      <g transform="scale(1 -1) translate(0 -384)">
        <path d="M469 299H427V171H469ZM469 128H427V85H469ZM64 128V149H43V192H64V213H107V128ZM363 192V213H320V128H363V149H384V192ZM341 320H296Q290 342 273.5 358.5Q257 375 235 381V405H192V381Q170 375 153.5 358.5Q137 342 131 320H85V277H341ZM341 -21H85Q85 -4 97.5 8.5Q110 21 128 21V256H299V21Q316 21 328.5 8.5Q341 -4 341 -21ZM171 171Q171 153 183.5 140.5Q196 128 213.5 128.0Q231 128 243.5 140.5Q256 153 256.0 170.5Q256 188 243.5 200.5Q231 213 213.5 213.0Q196 213 183.5 200.5Q171 188 171 171Z" />
      </g>
    </svg>