<svg xmlns="http://www.w3.org/2000/svg" viewBox="43 -28 426 440">
      <g transform="scale(1 -1) translate(0 -384)">
        <path d="M198 279Q198 279 198 279ZM146 304Q146 304 146 304ZM454 265Q447 281 434.5 297.0Q422 313 411 319Q428 286 433 254V253Q423 277 407 299Q398 313 377 337Q348 370 334 391L327 403Q324 409 324 412Q324 412 323 412Q290 394 271 360Q255 333 250 305Q228 304 208 294Q204 292 205 287Q206 285 208.0 284.0Q210 283 212 284Q230 292 250 294H256Q271 294 287 290L293 288L304 283L313 278Q337 263 350 240Q340 246 327 250Q312 254 299 252Q326 238 337.5 210.0Q349 182 342.0 152.5Q335 123 312 105Q286 85 248 86Q235 87 221 92Q217 93 214 94L211 96Q190 107 176.0 125.0Q162 143 160 166L163 172Q166 178 173 184Q182 192 194 197Q210 203 231 203Q236 203 246.0 212.5Q256 222 257 226Q257 227 246 232Q215 248 205 257L190 271L185 275Q177 301 184 327Q157 315 133 288Q127 295 126 316Q125 329 125 341Q124 341 118 337Q107 330 97 320Q86 308 77 296Q55 263 49 231L48 230Q46 220 45 211L43 194V185Q43 127 71.5 78.0Q100 29 149.0 0.5Q198 -28 256 -28Q308 -28 353.0 -5.0Q398 18 428.0 58.5Q458 99 467 149L468 157Q475 215 454 265Z" />
      </g>
    </svg>