<svg xmlns="http://www.w3.org/2000/svg" viewBox="85 -21 342 426">
      <g transform="scale(1 -1) translate(0 -384)">
        <path d="M107 128V149H85V192H107V213H149V128ZM405 192V213H363V128H405V149H427V192ZM384 320H338Q333 342 316.5 358.5Q300 375 277 381V405H235V381Q212 375 195.5 358.5Q179 342 174 320H128V277H384ZM384 -21H128Q128 -4 140.5 8.5Q153 21 171 21V256H341V21Q359 21 371.5 8.5Q384 -4 384 -21ZM213 171Q213 153 225.5 140.5Q238 128 256.0 128.0Q274 128 286.5 140.5Q299 153 299.0 170.5Q299 188 286.5 200.5Q274 213 256.0 213.0Q238 213 225.5 200.5Q213 188 213 171Z" />
      </g>
    </svg>