<svg xmlns="http://www.w3.org/2000/svg" viewBox="43 -21 426 426">
      <g transform="scale(1 -1) translate(0 -384)">
        <path d="M313 145Q314 142 314 139Q314 128 310.0 118.0Q306 108 298.0 101.0Q290 94 280 91Q267 86 252 91Q241 95 231 104Q245 108 254.5 117.0Q264 126 267 139Q268 148 264 164L262 175Q259 194 265 209Q271 197 275.5 191.5Q280 186 290.0 177.0Q300 168 304 163Q311 155 313 145ZM469 192Q469 134 440.5 85.0Q412 36 363.0 7.5Q314 -21 256.0 -21.0Q198 -21 149.0 7.5Q100 36 71.5 85.0Q43 134 43.0 192.0Q43 250 71.5 299.0Q100 348 149.0 376.5Q198 405 256.0 405.0Q314 405 363.0 376.5Q412 348 440.5 299.0Q469 250 469 192ZM366 180 364 184Q361 192 351 205Q348 209 340 217L338 219Q333 223 322 231Q309 241 303 246Q285 265 281.0 291.5Q277 318 289 341Q268 336 247 319Q214 293 203.0 252.0Q192 211 207 172Q208 168 208 166Q208 161 202.0 158.5Q196 156 192 160Q190 161 189 163Q175 180 172.5 203.5Q170 227 180 248Q159 231 148.0 204.5Q137 178 139 151V147Q141 133 144 126Q147 114 156 97Q169 76 191.5 61.5Q214 47 239 44Q267 40 293 46Q321 53 340 70Q364 91 371.0 121.5Q378 152 366 180Z" />
      </g>
    </svg>