<svg xmlns="http://www.w3.org/2000/svg" viewBox="43 -21 426 405">
      <g transform="scale(1 -1) translate(0 -363)">
        <path d="M469 -21H43V21H469ZM469 320H43V384H469ZM427 299V43H363V213L347 219Q327 225 307 229Q280 235 256.0 235.0Q232 235 205 229Q185 225 165 219L149 213V43H85V299ZM309 135 317 121Q324 105 320.0 88.0Q316 71 303 59Q292 49 277.5 45.5Q263 42 248.0 43.5Q233 45 221.0 53.5Q209 62 202 74Q197 81 195 90L192 104Q191 120 197.0 135.0Q203 150 215 159Q209 148 210.5 134.5Q212 121 220 111L221 109Q224 107 227.0 108.5Q230 110 230 113V116Q221 138 227.5 161.5Q234 185 252 200Q263 209 275 212Q268 199 270.0 184.0Q272 169 283 159L302 143ZM280 76Q289 85 288 97V101Q286 110 276 119Q269 124 267 128L262 138Q258 129 260 118L261 112Q263 103 262.0 97.0Q261 91 256.0 85.5Q251 80 243 78Q248 73 255.0 70.5Q262 68 270 70Z" />
      </g>
    </svg>