<svg xmlns="http://www.w3.org/2000/svg" viewBox="43 21 426 320">
      <g transform="scale(1 -1) translate(0 -362)">
        <path d="M256 21 272 85Q220 89 178.0 109.0Q136 129 123 158Q119 141 114 132Q104 115 84 110Q71 107 43 107Q59 107 67 129Q75 148 75.0 181.5Q75 215 67 234Q59 256 43 256Q71 256 84 253Q104 248 114 231Q119 222 123 204Q133 227 161.0 244.5Q189 262 227 271L192 341Q235 341 254 340Q287 337 306 327Q322 319 335 303Q345 291 356 269Q405 258 436 234Q469 210 469.0 181.0Q469 152 435 127Q402 104 352 93Q319 49 302 36Q290 26 278 23Q270 21 256 21ZM363 213Q354 213 347.5 207.0Q341 201 341.0 192.0Q341 183 347.5 177.0Q354 171 363.0 171.0Q372 171 378.0 177.0Q384 183 384.0 192.0Q384 201 378.0 207.0Q372 213 363 213Z" />
      </g>
    </svg>