<svg xmlns="http://www.w3.org/2000/svg" viewBox="23 -36 448 448">
      <g transform="scale(1 -1) translate(0 -376)">
        <path d="M444 -36 335 73 332 69Q311 44 301 36Q289 26 278 23Q270 21 256 21L273 85Q220 89 178.5 109.0Q137 129 124 158Q120 140 115 132Q105 115 84 110Q71 107 43 107Q59 107 67 129Q75 148 75.0 181.5Q75 215 67 234Q59 256 43 256Q71 256 83 253Q105 247 113 230Q117 225 121 208L122 205Q132 228 162 245L23 384L51 412L471 -9ZM209 307 192 341Q235 341 254 339Q287 336 305 326Q321 318 335 302Q345 289 356 269Q405 257 436 234Q469 209 469 181Q469 161 452.0 142.5Q435 124 405 111ZM341 192Q341 182 347.0 176.5Q353 171 362.5 171.0Q372 171 378.0 176.5Q384 182 384.0 192.0Q384 202 378.0 207.5Q372 213 362.5 213.0Q353 213 347.0 207.5Q341 202 341 192Z" />
      </g>
    </svg>