<svg xmlns="http://www.w3.org/2000/svg" viewBox="43 0 426 384">
      <g transform="scale(1 -1) translate(0 -384)">
        <path d="M408 341H448V384H64V341H104Q75 312 59.0 273.5Q43 235 43 192Q43 129 76.0 77.5Q109 26 163 0H349Q403 26 436.0 77.5Q469 129 469 192Q469 235 453.0 273.5Q437 312 408 341ZM283 85Q248 85 220 103Q211 91 190 88Q178 85 149 85Q166 85 173.5 100.0Q181 115 181.0 139.0Q181 163 173.5 177.5Q166 192 149 192Q178 192 190 190Q211 186 221 173Q246 192 283 192Q316 192 339.5 176.5Q363 161 363.0 139.0Q363 117 339.5 101.0Q316 85 283 85ZM341 299Q302 271 256.0 271.0Q210 271 171 299Q140 277 106 272Q117 294 135 311L164 341H348L377 311Q395 294 406 272Q372 277 341 299Z" />
      </g>
    </svg>