<svg xmlns="http://www.w3.org/2000/svg" viewBox="107 -32 373 416">
      <g transform="scale(1 -1) translate(0 -352)">
        <path d="M128 384Q138 384 143.5 378.0Q149 372 149 363V343Q192 363 235 363Q258 363 275 355Q285 350 300 338Q311 329 318 325Q328 320 341 320Q381 320 408 341Q421 352 427 363V192L422 185Q416 177 408 171Q396 161 382 156Q363 149 340.5 149.0Q318 149 301 157Q291 162 276 174Q265 183 258 187Q248 192 235 192Q213 192 194 185Q180 180 168 171Q160 164 154 156L149 149V0H107V363Q107 372 112.5 378.0Q118 384 128 384ZM450 117 405 73 361 117 331 87 375 43 331 -2 361 -32 405 13 450 -32 480 -2 435 43 480 87Z" />
      </g>
    </svg>