<svg xmlns="http://www.w3.org/2000/svg" viewBox="107 0 384 384">
      <g transform="scale(1 -1) translate(0 -384)">
        <path d="M128 384Q138 384 143.5 378.0Q149 372 149 363V343Q192 363 235 363Q258 363 275 355Q285 350 300 338Q311 329 318 325Q328 320 341 320Q381 320 408 341Q421 352 427 363V192L422 185Q416 177 408 171Q396 161 382 156Q363 149 340.5 149.0Q318 149 301 157Q291 162 276 174Q265 183 258 187Q248 192 235 192Q213 192 194 185Q180 180 168 171Q160 164 154 156L149 149V0H107V363Q107 372 112.5 378.0Q118 384 128 384ZM149 294V205L162 213Q178 223 194 229Q216 237 235 237Q249 237 263 230Q272 226 288.0 215.5Q304 205 313 201Q327 194 341 194Q360 194 371 200Q379 204 382 210L384 215V288L371 283Q355 277 341.0 277.0Q327 277 313 284Q304 288 288.0 298.5Q272 309 263 313Q249 320 235 320Q216 320 194 313Q178 309 162 301ZM320 64V21H491V64Z" />
      </g>
    </svg>