<svg xmlns="http://www.w3.org/2000/svg" viewBox="107 0 320 384">
      <g transform="scale(1 -1) translate(0 -384)">
        <path d="M128 384Q137 384 143.0 378.0Q149 372 149 363V344Q195 363 235 363Q258 363 275 355Q285 350 300 338Q311 329 318 325Q328 320 341 320Q381 320 408 341Q421 352 427 363V192L422 185Q416 177 408 171Q396 161 382 156Q363 149 340.5 149.0Q318 149 301 157Q291 162 276 174Q265 183 258 187Q248 192 235 192Q213 192 194 185Q180 180 168 171Q160 164 154 156L149 149V0H107V363Q107 372 113.0 378.0Q119 384 128 384Z" />
      </g>
    </svg>