<svg xmlns="http://www.w3.org/2000/svg" viewBox="21 -43 470 470">
      <g transform="scale(1 -1) translate(0 -384)">
        <path d="M149 213H21V171H149ZM196 282 150 328 120 298 166 252ZM277 427H235V299H277ZM392 298 362 328 316 282 346 252ZM363 213V171H491V213ZM256 256Q229 256 210.5 237.5Q192 219 192.0 192.0Q192 165 210.5 146.5Q229 128 256.0 128.0Q283 128 301.5 146.5Q320 165 320.0 192.0Q320 219 301.5 237.5Q283 256 256 256ZM316 102 362 56 392 86 346 132ZM120 86 150 56 196 102 166 132ZM235 -43H277V85H235Z" />
      </g>
    </svg>