<svg xmlns="http://www.w3.org/2000/svg" viewBox="64 -21 427 426">
      <g transform="scale(1 -1) translate(0 -384)">
        <path d="M491 85V43H320V85ZM107 43Q107 34 113.0 27.5Q119 21 128 21H285Q293 -3 310 -21H128Q101 -21 82.5 -2.5Q64 16 64 43Q64 62 75 78L192 281V320Q183 320 177.0 326.5Q171 333 171 341V363Q171 380 183.5 392.5Q196 405 213 405H299Q316 405 328.5 392.5Q341 380 341 363V341Q341 333 335.0 326.5Q329 320 320 320V281L373 188Q352 183 335 171L277 270V363H235V270L111 55Q107 49 107 43Z" />
      </g>
    </svg>