<svg xmlns="http://www.w3.org/2000/svg" viewBox="107 -21 298 426">
      <g transform="scale(1 -1) translate(0 -384)">
        <path d="M405 128Q405 87 385.0 53.0Q365 19 331.0 -1.0Q297 -21 256.0 -21.0Q215 -21 181.0 -1.0Q147 19 127.0 53.0Q107 87 107 128Q107 172 130.5 208.5Q154 245 192 263V341Q192 350 198.5 356.5Q205 363 213 363H224L203 405H309L288 363H299Q307 363 313.5 356.5Q320 350 320 341V263Q358 245 381.5 208.5Q405 172 405 128ZM235 320V233Q198 225 173.5 195.5Q149 166 149 128L151 109L192 151L279 64L361 146Q356 179 332.5 202.5Q309 226 277 233V320ZM279 192Q288 192 294.0 185.5Q300 179 300.0 170.5Q300 162 294.0 155.5Q288 149 279.0 149.0Q270 149 263.5 155.5Q257 162 257.0 171.0Q257 180 263.5 186.0Q270 192 279 192Z" />
      </g>
    </svg>