<svg xmlns="http://www.w3.org/2000/svg" viewBox="23 -36 448 448">
      <g transform="scale(1 -1) translate(0 -376)">
        <path d="M471 -11 51 412 23 384 169 239 75 77Q64 63 64 43Q64 15 82.5 -3.0Q101 -21 128 -21H384Q404 -21 418 -11L444 -36ZM384 21H128Q118 21 112.5 27.0Q107 33 107 43Q107 47 111 55L192 194L299 85L311 98L384 21H385ZM171 346V363Q171 380 183.5 392.5Q196 405 213 405H299Q316 405 328.5 392.5Q341 380 341 363V341Q341 332 335.5 326.0Q330 320 320 320V282L435 81Z" />
      </g>
    </svg>