<svg xmlns="http://www.w3.org/2000/svg" viewBox="64 -21 384 426">
      <g transform="scale(1 -1) translate(0 -384)">
        <path d="M107 43Q107 34 113.0 27.5Q119 21 128 21H384Q393 21 399.0 27.5Q405 34 405 43Q405 49 401 55L277 270V363H235V270L111 55Q107 49 107 43ZM128 -21Q101 -21 82.5 -2.5Q64 16 64 43Q64 62 75 77L192 281V320Q183 320 177.0 326.0Q171 332 171 341V363Q171 380 183.5 392.5Q196 405 213 405H299Q316 405 328.5 392.5Q341 380 341 363V341Q341 332 335.0 326.0Q329 320 320 320V281L437 77Q448 62 448 43Q448 16 429.5 -2.5Q411 -21 384 -21ZM277 107 306 135 347 64H165L222 162ZM267 192Q271 192 274.0 189.0Q277 186 277.0 181.5Q277 177 274.0 174.0Q271 171 266.5 171.0Q262 171 259.0 174.0Q256 177 256.0 181.5Q256 186 259.0 189.0Q262 192 267 192Z" />
      </g>
    </svg>