<svg xmlns="http://www.w3.org/2000/svg" viewBox="64 -21 384 426">
      <g transform="scale(1 -1) translate(0 -384)">
        <path d="M128 -21Q101 -21 82.5 -2.5Q64 16 64 43Q64 62 75 77L192 281V320Q183 320 177.0 326.0Q171 332 171 341V363Q171 380 183.5 392.5Q196 405 213 405H299Q316 405 328.5 392.5Q341 380 341 363V341Q341 332 335.0 326.0Q329 320 320 320V281L437 77Q448 62 448 43Q448 16 429.5 -2.5Q411 -21 384 -21ZM107 43Q107 34 113.0 27.5Q119 21 128 21H384Q393 21 399.0 27.5Q405 34 405 43Q405 49 401 55L353 139L299 85L191 193L111 55Q107 49 107 43ZM277 235Q268 235 262.0 228.5Q256 222 256.0 213.0Q256 204 262.0 198.0Q268 192 277.0 192.0Q286 192 292.5 198.0Q299 204 299.0 213.0Q299 222 292.5 228.5Q286 235 277 235Z" />
      </g>
    </svg>