<svg xmlns="http://www.w3.org/2000/svg" viewBox="107 -21 298 426">
      <g transform="scale(1 -1) translate(0 -384)">
        <path d="M320 128Q320 101 301.5 82.5Q283 64 256.0 64.0Q229 64 210.5 82.5Q192 101 192 128V149H235V128Q235 119 241.0 113.0Q247 107 256.0 107.0Q265 107 271.0 113.0Q277 119 277 128V149H320ZM405 128Q405 87 385.0 53.0Q365 19 331.0 -1.0Q297 -21 256.0 -21.0Q215 -21 181.0 -1.0Q147 19 127.0 53.0Q107 87 107 128Q107 172 130.5 208.5Q154 245 192 263V341Q192 350 198.5 356.5Q205 363 213 363H224L203 405H309L288 363H299Q307 363 313.5 356.5Q320 350 320 341V263Q358 245 381.5 208.5Q405 172 405 128ZM235 320V233Q198 225 173.5 195.5Q149 166 149 128Q149 99 163.5 74.5Q178 50 202.5 35.5Q227 21 256.0 21.0Q285 21 309.5 35.5Q334 50 348.5 74.5Q363 99 363 128Q363 166 338.5 195.5Q314 225 277 233V320Z" />
      </g>
    </svg>