<svg xmlns="http://www.w3.org/2000/svg" viewBox="64 -43 405 448">
      <g transform="scale(1 -1) translate(0 -362)">
        <path d="M341 341Q332 341 326.0 335.0Q320 329 320.0 320.0Q320 311 326.0 305.0Q332 299 341.0 299.0Q350 299 356.5 305.0Q363 311 363.0 320.0Q363 329 356.5 335.0Q350 341 341 341ZM341 405Q298 405 263.5 381.5Q229 358 213 320Q229 282 263.5 258.5Q298 235 341.0 235.0Q384 235 419.0 258.5Q454 282 469 320Q454 358 419.0 381.5Q384 405 341 405ZM341 373Q363 373 379.0 357.5Q395 342 395.0 320.0Q395 298 379.0 282.5Q363 267 341.0 267.0Q319 267 303.5 282.5Q288 298 288.0 320.0Q288 342 303.5 357.5Q319 373 341 373ZM64 405V149H128V-43L277 213H192L216 267Q193 292 181 320Q192 347 212.0 369.0Q232 391 258 405Z" />
      </g>
    </svg>