<svg xmlns="http://www.w3.org/2000/svg" viewBox="64 -21 384 426">
      <g transform="scale(1 -1) translate(0 -384)">
        <path d="M256 405Q251 402 246 398Q234 388 224 376Q210 360 202 342Q192 321 192.0 300.0Q192 279 198 257Q201 243 211 217Q223 185 227 167Q235 137 235 107H213V119Q211 135 207 151Q201 173 192 192Q177 222 154 234Q134 244 113.0 237.5Q92 231 78.0 212.5Q64 194 64.0 171.5Q64 149 71 134Q76 122 85 115Q92 110 100 108L107 107Q107 129 118.0 142.0Q129 155 144.0 155.0Q159 155 170.0 142.0Q181 129 181 107H149V64H224L192 21L198 17Q206 12 214 12Q225 12 235 21L256 -21L277 21Q287 12 298 12Q306 12 314 17L320 21L288 64H363V107H331Q331 129 342.0 142.0Q353 155 368.0 155.0Q383 155 394.0 142.0Q405 129 405 107L412 108Q420 110 427 115Q436 122 441 134Q448 149 448.0 171.5Q448 194 434.0 212.5Q420 231 399.0 237.5Q378 244 358 234Q335 222 320 192Q307 165 301 133Q299 117 299 107H277Q277 137 285 167Q289 185 301 217Q311 243 314 257Q320 279 320 299Q320 339 288 376Q272 395 256 405Z" />
      </g>
    </svg>