<svg xmlns="http://www.w3.org/2000/svg" viewBox="64 0 384 384">
      <g transform="scale(1 -1) translate(0 -384)">
        <path d="M320 85H363V128H320ZM320 341H363V384H320ZM107 299H64V43Q64 25 76.5 12.5Q89 0 107 0H363V43H107ZM405 85Q423 85 435.5 97.5Q448 110 448 128H405ZM405 256H448V299H405ZM405 171H448V213H405ZM192 85V128H149Q149 110 161.5 97.5Q174 85 192 85ZM277 384H235V341H277ZM405 384V341H448Q448 359 435.5 371.5Q423 384 405 384ZM277 128H235V85H277ZM192 384Q174 384 161.5 371.5Q149 359 149 341H192ZM192 213H149V171H192ZM192 299H149V256H192Z" />
      </g>
    </svg>