<svg xmlns="http://www.w3.org/2000/svg" viewBox="85 -21 342 426">
      <g transform="scale(1 -1) translate(0 -384)">
        <path d="M393 176Q393 198 377.0 213.5Q361 229 339 229Q322 229 309 220V224Q309 246 293.5 261.5Q278 277 256.0 277.0Q234 277 218.5 261.5Q203 246 203 224V220Q190 229 173 229Q151 229 135.0 213.5Q119 198 119 176Q119 160 127.5 147.5Q136 135 150 128Q136 121 127.5 108.5Q119 96 119 80Q119 58 135.0 42.5Q151 27 173 27Q189 27 203 36V32Q203 10 218.5 -5.5Q234 -21 256.0 -21.0Q278 -21 293.5 -5.5Q309 10 309 32V36Q323 27 339 27Q361 27 377.0 42.5Q393 58 393 80Q393 96 384.5 108.5Q376 121 362 128Q376 135 384.5 147.5Q393 160 393 176ZM256 75Q234 75 218.5 90.5Q203 106 203.0 128.0Q203 150 218.5 165.5Q234 181 256.0 181.0Q278 181 293.5 165.5Q309 150 309.0 128.0Q309 106 293.5 90.5Q278 75 256 75ZM235 320Q235 329 241.0 335.0Q247 341 256.0 341.0Q265 341 271.0 335.0Q277 329 277.0 320.0Q277 311 271.0 305.0Q265 299 256.0 299.0Q247 299 241.0 305.0Q235 311 235 320ZM149 277Q149 286 155.5 292.5Q162 299 170.5 299.0Q179 299 185.5 292.5Q192 286 192.0 277.5Q192 269 185.5 262.5Q179 256 170.5 256.0Q162 256 155.5 262.5Q149 269 149 277ZM107 320Q98 320 91.5 326.5Q85 333 85.0 341.5Q85 350 91.5 356.5Q98 363 106.5 363.0Q115 363 121.5 356.5Q128 350 128.0 341.5Q128 333 121.5 326.5Q115 320 107 320ZM171 384Q171 393 177.0 399.0Q183 405 192.0 405.0Q201 405 207.0 399.0Q213 393 213.0 384.0Q213 375 207.0 369.0Q201 363 192.0 363.0Q183 363 177.0 369.0Q171 375 171 384ZM299 384Q299 393 305.0 399.0Q311 405 320.0 405.0Q329 405 335.0 399.0Q341 393 341.0 384.0Q341 375 335.0 369.0Q329 363 320.0 363.0Q311 363 305.0 369.0Q299 375 299 384ZM427 341Q427 333 420.5 326.5Q414 320 405.5 320.0Q397 320 390.5 326.5Q384 333 384.0 341.5Q384 350 390.5 356.5Q397 363 405.5 363.0Q414 363 420.5 356.5Q427 350 427 341ZM341 299Q350 299 356.5 292.5Q363 286 363.0 277.5Q363 269 356.5 262.5Q350 256 341.5 256.0Q333 256 326.5 262.5Q320 269 320.0 277.5Q320 286 326.5 292.5Q333 299 341 299Z" />
      </g>
    </svg>