<svg xmlns="http://www.w3.org/2000/svg" viewBox="64 -21 384 448">
      <g transform="scale(1 -1) translate(0 -406)">
        <path d="M64 171Q64 119 90.0 74.5Q116 30 160.0 4.5Q204 -21 256 -21Q256 31 230.0 75.0Q204 119 160.0 145.0Q116 171 64 171ZM256 331Q278 331 293.5 315.0Q309 299 309.0 277.0Q309 255 293.5 239.5Q278 224 256.0 224.0Q234 224 218.5 239.5Q203 255 203.0 277.0Q203 299 218.5 315.0Q234 331 256 331ZM119 229Q119 207 135.0 191.5Q151 176 173 176Q189 176 203 185V181Q203 159 218.5 143.5Q234 128 256.0 128.0Q278 128 293.5 143.5Q309 159 309 181V185Q323 176 339 176Q361 176 377.0 191.5Q393 207 393 229Q393 245 384.5 258.0Q376 271 362 277Q376 284 384.5 297.0Q393 310 393 325Q393 347 377.0 363.0Q361 379 339 379Q322 379 309 369V373Q309 395 293.5 411.0Q278 427 256.0 427.0Q234 427 218.5 411.0Q203 395 203 373V369Q190 379 173 379Q151 379 135.0 363.0Q119 347 119 325Q119 310 127.5 297.0Q136 284 150 277Q136 271 127.5 258.0Q119 245 119 229ZM256 -21Q308 -21 352.0 4.5Q396 30 422.0 74.5Q448 119 448 171Q396 171 351.5 145.0Q307 119 281.5 75.0Q256 31 256 -21Z" />
      </g>
    </svg>