<svg xmlns="http://www.w3.org/2000/svg" viewBox="43 -21 426 426">
      <g transform="scale(1 -1) translate(0 -384)">
        <path d="M395 192Q426 192 447.5 214.0Q469 236 469 267Q469 304 450.5 336.0Q432 368 400.0 386.5Q368 405 331 405Q300 405 278.0 383.5Q256 362 256 331Q256 362 234.0 383.5Q212 405 181 405Q144 405 112.0 386.5Q80 368 61.5 336.0Q43 304 43 267Q43 236 64.5 214.0Q86 192 117 192Q86 192 64.5 170.0Q43 148 43 117Q43 80 61.5 48.0Q80 16 112.0 -2.5Q144 -21 181 -21Q212 -21 234.0 0.5Q256 22 256 53Q256 22 278.0 0.5Q300 -21 331 -21Q368 -21 400.0 -2.5Q432 16 450.5 48.0Q469 80 469 117Q469 148 447.5 170.0Q426 192 395 192ZM256 107Q221 107 196.0 132.0Q171 157 171.0 192.0Q171 227 196.0 252.0Q221 277 256.0 277.0Q291 277 316.0 252.0Q341 227 341.0 192.0Q341 157 316.0 132.0Q291 107 256 107ZM309 192Q309 170 293.5 154.5Q278 139 256.0 139.0Q234 139 218.5 154.5Q203 170 203.0 192.0Q203 214 218.5 229.5Q234 245 256.0 245.0Q278 245 293.5 229.5Q309 214 309 192Z" />
      </g>
    </svg>