<svg xmlns="http://www.w3.org/2000/svg" viewBox="85 -21 342 426">
      <g transform="scale(1 -1) translate(0 -384)">
        <path d="M235 320Q235 329 241.0 335.0Q247 341 256.0 341.0Q265 341 271.0 335.0Q277 329 277.0 320.0Q277 311 271.0 305.0Q265 299 256.0 299.0Q247 299 241.0 305.0Q235 311 235 320ZM171 256Q179 256 185.5 262.5Q192 269 192.0 277.5Q192 286 185.5 292.5Q179 299 170.5 299.0Q162 299 155.5 292.5Q149 286 149.0 277.5Q149 269 155.5 262.5Q162 256 171 256ZM128 341Q128 350 121.5 356.5Q115 363 106.5 363.0Q98 363 91.5 356.5Q85 350 85.0 341.5Q85 333 91.5 326.5Q98 320 106.5 320.0Q115 320 121.5 326.5Q128 333 128 341ZM192 363Q201 363 207.0 369.0Q213 375 213.0 384.0Q213 393 207.0 399.0Q201 405 192.0 405.0Q183 405 177.0 399.0Q171 393 171.0 384.0Q171 375 177.0 369.0Q183 363 192 363ZM320 363Q329 363 335.0 369.0Q341 375 341.0 384.0Q341 393 335.0 399.0Q329 405 320.0 405.0Q311 405 305.0 399.0Q299 393 299.0 384.0Q299 375 305.0 369.0Q311 363 320 363ZM405 363Q397 363 390.5 356.5Q384 350 384.0 341.5Q384 333 390.5 326.5Q397 320 405.5 320.0Q414 320 420.5 326.5Q427 333 427.0 341.5Q427 350 420.5 356.5Q414 363 405 363ZM320 277Q320 269 326.5 262.5Q333 256 341.5 256.0Q350 256 356.5 262.5Q363 269 363.0 277.5Q363 286 356.5 292.5Q350 299 341.5 299.0Q333 299 326.5 292.5Q320 286 320 277ZM395 169Q395 146 380 128Q395 109 395 87Q395 59 375.0 39.5Q355 20 327 20H318Q310 2 293.5 -9.5Q277 -21 256.0 -21.0Q235 -21 218.5 -9.5Q202 2 194 20H185Q157 20 137.0 39.5Q117 59 117 87Q117 110 132 128Q117 147 117 169Q117 197 137.0 216.5Q157 236 185 236H194Q202 254 218.5 265.5Q235 277 256.0 277.0Q277 277 293.5 265.5Q310 254 318 236H327Q355 236 375.0 216.5Q395 197 395 169ZM160 169Q160 162 164.0 156.0Q168 150 174 147L193 139Q197 162 216 177L198 189Q192 193 185 193Q175 193 167.5 186.0Q160 179 160 169ZM216 79Q197 94 193 117L174 109Q168 106 164.0 100.0Q160 94 160 87Q160 77 167.5 70.0Q175 63 185 63Q193 63 199 67ZM280 45 278 68Q267 64 256.0 64.0Q245 64 235 68L232 45Q232 35 239.0 28.0Q246 21 256.0 21.0Q266 21 273.0 28.0Q280 35 280 45ZM280 211Q280 221 273.0 228.0Q266 235 256.0 235.0Q246 235 239.0 228.0Q232 221 232 211L235 188Q245 192 256.0 192.0Q267 192 278 188ZM352 87Q352 94 348.0 100.0Q344 106 338 109L319 118Q315 94 296 79L314 67Q320 63 327 63Q337 63 344.5 70.0Q352 77 352 87ZM352 169Q352 179 344.5 186.0Q337 193 327 193Q320 193 313 189L296 177Q315 162 319 139L337 147Q344 150 348.0 156.0Q352 162 352 169Z" />
      </g>
    </svg>