<svg xmlns="http://www.w3.org/2000/svg" viewBox="64 -21 384 426">
      <g transform="scale(1 -1) translate(0 -384)">
        <path d="M64 171Q64 119 90.0 74.5Q116 30 160.0 4.5Q204 -21 256 -21Q256 31 230.0 75.0Q204 119 160.0 145.0Q116 171 64 171ZM256 -21Q308 -21 352.0 4.5Q396 30 422.0 74.5Q448 119 448 171Q396 171 352.0 145.0Q308 119 282.0 75.0Q256 31 256 -21ZM384 384V277Q384 252 374.5 228.5Q365 205 347.0 187.0Q329 169 305.0 159.0Q281 149 256.0 149.0Q231 149 207.0 159.0Q183 169 165.0 187.0Q147 205 137.5 228.5Q128 252 128 277V384Q153 384 174 376Q192 368 205 354L256 405L307 354Q320 368 338 376Q359 384 384 384Z" />
      </g>
    </svg>