<svg xmlns="http://www.w3.org/2000/svg" viewBox="64 -21 384 426">
      <g transform="scale(1 -1) translate(0 -384)">
        <path d="M64 171Q64 119 90.0 74.5Q116 30 160.0 4.5Q204 -21 256 -21Q256 31 230.0 75.0Q204 119 160.0 145.0Q116 171 64 171ZM116 119Q147 107 170.0 84.0Q193 61 204 31Q173 42 150.0 65.0Q127 88 116 119ZM256 -21Q308 -21 352.0 4.5Q396 30 422.0 74.5Q448 119 448 171Q396 171 352.0 145.0Q308 119 282.0 75.0Q256 31 256 -21ZM308 31Q319 61 342.0 84.5Q365 108 396 119Q385 88 361.5 65.0Q338 42 308 31ZM256 149Q281 149 305.0 159.0Q329 169 347.0 187.0Q365 205 374.5 228.5Q384 252 384 277V384Q359 384 338 376Q320 368 307 354L256 405L205 354Q192 368 174 376Q153 384 128 384V277Q128 252 137.5 228.5Q147 205 165.0 187.0Q183 169 207.0 159.0Q231 149 256 149ZM171 328 204 293 256 345 308 293 341 328V277Q341 242 316.0 217.0Q291 192 256.0 192.0Q221 192 196.0 217.0Q171 242 171 277Z" />
      </g>
    </svg>