<svg xmlns="http://www.w3.org/2000/svg" viewBox="64 0 384 384">
      <g transform="scale(1 -1) translate(0 -384)">
        <path d="M405 43H320V0H405Q423 0 435.5 12.5Q448 25 448 43V128H405ZM405 384H320V341H405V256H448V341Q448 359 435.5 371.5Q423 384 405 384ZM107 341H192V384H107Q89 384 76.5 371.5Q64 359 64 341V256H107ZM107 128H64V43Q64 25 76.5 12.5Q89 0 107 0H192V43H107ZM171 299Q153 299 140.5 286.5Q128 274 128 256V85H171V171H213V85H256V256Q256 274 243.5 286.5Q231 299 213 299ZM171 256H213V213H171ZM277 299V85H320V171H363V213H320V256H384V299Z" />
      </g>
    </svg>