<svg xmlns="http://www.w3.org/2000/svg" viewBox="43 -43 426 427">
      <g transform="scale(1 -1) translate(0 -341)">
        <path d="M192 277Q165 277 146.5 259.0Q128 241 128.0 213.5Q128 186 146.5 167.5Q165 149 192 149Q213 149 229.0 161.0Q245 173 252 192H299V149H341V192H384V235H252Q245 254 229.0 265.5Q213 277 192 277ZM192 192Q182 192 176.5 198.0Q171 204 171.0 213.5Q171 223 176.5 229.0Q182 235 192.0 235.0Q202 235 207.5 229.0Q213 223 213.0 213.5Q213 204 207.5 198.0Q202 192 192 192ZM320 21Q320 30 314.0 36.5Q308 43 299 43H277V85H405Q423 85 435.5 97.5Q448 110 448 128V299Q448 316 435.5 328.5Q423 341 405 341H277L235 384H107Q89 384 76.5 371.5Q64 359 64 341V128Q64 110 76.5 97.5Q89 85 107 85H235V43H213Q204 43 198.0 36.5Q192 30 192 21H43V-21H192Q192 -30 198.0 -36.5Q204 -43 213 -43H299Q308 -43 314.0 -36.5Q320 -30 320 -21H469V21ZM107 128V299H405V128Z" />
      </g>
    </svg>