<svg xmlns="http://www.w3.org/2000/svg" viewBox="43 21 426 342">
      <g transform="scale(1 -1) translate(0 -384)">
        <path d="M427 320H256L213 363H85Q68 363 55.5 350.5Q43 338 43 320V64Q43 46 55.5 33.5Q68 21 85 21H427Q444 21 456.5 33.5Q469 46 469 64V277Q469 295 456.5 307.5Q444 320 427 320ZM358 64H326V96H358ZM358 111H326Q326 130 335 143Q341 151 354 162Q364 170 367 175Q373 183 373 192Q373 205 363.5 214.5Q354 224 341.5 224.0Q329 224 319.0 214.5Q309 205 309 192H277Q277 219 295.5 237.5Q314 256 341.5 256.0Q369 256 387.0 237.5Q405 219 405 192Q405 178 398 167Q393 160 381.5 149.5Q370 139 365 133Q358 123 358 111Z" />
      </g>
    </svg>