<svg xmlns="http://www.w3.org/2000/svg" viewBox="43 21 426 342">
      <g transform="scale(1 -1) translate(0 -384)">
        <path d="M325 171H368L357 128H315ZM469 277V64Q469 46 456.5 33.5Q444 21 427 21H85Q68 21 55.5 33.5Q43 46 43 64V320Q43 338 55.5 350.5Q68 363 85 363H213L256 320H427Q444 320 456.5 307.5Q469 295 469 277ZM427 192H395L405 235H384L373 192H331L341 235H320L309 192H277V171H304L293 128H256V107H288L277 64H299L309 107H352L341 64H363L373 107H405V128H379L389 171H427Z" />
      </g>
    </svg>