<svg xmlns="http://www.w3.org/2000/svg" viewBox="21 -43 470 406">
      <g transform="scale(1 -1) translate(0 -320)">
        <path d="M320 192H363V85H320ZM320 64H363V21H320ZM341 256Q375 256 405 242V277H64V64H198Q192 85 192 107Q192 147 212.0 181.5Q232 216 266.5 236.0Q301 256 341 256ZM491 107Q491 66 470.5 32.0Q450 -2 416.0 -22.5Q382 -43 341 -43Q304 -43 271.5 -25.5Q239 -8 219 21H64Q46 21 33.5 33.5Q21 46 21 64V320Q21 338 33.5 350.5Q46 363 64 363H192L235 320H405Q423 320 435.5 307.5Q448 295 448 277V211Q468 191 479.5 164.0Q491 137 491 107ZM341 213Q312 213 287.5 199.0Q263 185 249.0 160.5Q235 136 235.0 107.0Q235 78 249.0 53.5Q263 29 287.5 14.5Q312 0 341.0 0.0Q370 0 394.5 14.5Q419 29 433.5 53.5Q448 78 448.0 107.0Q448 136 433.5 160.5Q419 185 394.5 199.0Q370 213 341 213Z" />
      </g>
    </svg>