<svg xmlns="http://www.w3.org/2000/svg" viewBox="43 -21 448 384">
      <g transform="scale(1 -1) translate(0 -342)">
        <path d="M85 64H277V21H85Q68 21 55.5 33.5Q43 46 43 64V320Q43 338 55.5 350.5Q68 363 85 363H213L256 320H427Q444 320 456.5 307.5Q469 295 469 277V234Q449 249 427 254V277H85ZM465 107H373V160Q373 172 382.5 180.0Q392 188 405.5 188.0Q419 188 428.0 180.0Q437 172 437 160V149H465V160Q465 182 446.5 197.5Q428 213 405.0 213.0Q382 213 364.0 197.5Q346 182 346 160V107Q336 107 328.0 99.0Q320 91 320 81V6Q320 -5 328.0 -13.0Q336 -21 346 -21H463Q474 -21 482.5 -13.5Q491 -6 491 4V79Q491 90 483.0 98.5Q475 107 465 107Z" />
      </g>
    </svg>