<svg xmlns="http://www.w3.org/2000/svg" viewBox="43 21 426 342">
      <g transform="scale(1 -1) translate(0 -384)">
        <path d="M405 85H235V107Q235 126 267 139Q293 149 320.0 149.0Q347 149 373 139Q405 126 405 107ZM320 256Q338 256 350.5 243.5Q363 231 363.0 213.5Q363 196 350.5 183.5Q338 171 320.0 171.0Q302 171 289.5 183.5Q277 196 277.0 213.5Q277 231 289.5 243.5Q302 256 320 256ZM427 320H256L213 363H85Q68 363 55.5 350.5Q43 338 43 320V64Q43 46 55.5 33.5Q68 21 85 21H427Q444 21 456.5 33.5Q469 46 469 64V277Q469 295 456.5 307.5Q444 320 427 320Z" />
      </g>
    </svg>