<svg xmlns="http://www.w3.org/2000/svg" viewBox="43 21 426 342">
      <g transform="scale(1 -1) translate(0 -384)">
        <path d="M427 64H85V277H427ZM427 320H256L213 363H85Q68 363 55.5 350.5Q43 338 43 320V64Q43 46 55.5 33.5Q68 21 85 21H427Q444 21 456.5 33.5Q469 46 469 64V277Q469 295 456.5 307.5Q444 320 427 320ZM405 192V213H373L384 256H363L352 213H309L320 256H299L288 213H256V192H283L272 149H235V128H267L256 85H277L288 128H331L320 85H341L352 128H384V149H357L368 192ZM336 149H293L304 192H347Z" />
      </g>
    </svg>