<svg xmlns="http://www.w3.org/2000/svg" viewBox="21 -43 470 406">
      <g transform="scale(1 -1) translate(0 -320)">
        <path d="M448 211V277Q448 295 435.5 307.5Q423 320 405 320H235L192 363H64Q46 363 33.5 350.5Q21 338 21 320V64Q21 46 33.5 33.5Q46 21 64 21H218Q237 -8 270.0 -25.5Q303 -43 341 -43Q382 -43 416.5 -23.0Q451 -3 471.0 31.5Q491 66 491 107Q491 136 479.5 163.0Q468 190 448 211ZM198 64H64V277H405V241Q378 256 341 256Q300 256 266.0 236.0Q232 216 212.0 182.0Q192 148 192 107Q192 83 198 64ZM341 0Q312 0 287.5 14.0Q263 28 249.0 52.5Q235 77 235.0 106.5Q235 136 249.0 160.5Q263 185 287.5 199.0Q312 213 341.5 213.0Q371 213 395.5 199.0Q420 185 434.0 160.5Q448 136 448.0 106.5Q448 77 434.0 52.5Q420 28 395.5 14.0Q371 0 341 0ZM363 149H320V192H363ZM363 21H320V128H363Z" />
      </g>
    </svg>