<svg xmlns="http://www.w3.org/2000/svg" viewBox="43 21 426 342">
      <g transform="scale(1 -1) translate(0 -384)">
        <path d="M427 64H85V277H427ZM427 320H256L213 363H85Q68 363 55.5 350.5Q43 338 43 320V64Q43 46 55.5 33.5Q68 21 85 21H427Q444 21 456.5 33.5Q469 46 469 64V277Q469 295 456.5 307.5Q444 320 427 320ZM405 198Q405 186 398 176Q394 170 383.5 161.0Q373 152 369 147Q363 138 363 128H335Q335 146 343 157Q348 164 360 174Q369 180 372 184Q378 190 378 198Q378 210 369.5 218.0Q361 226 350.0 226.0Q339 226 330.5 218.0Q322 210 322 198H294Q294 222 311.0 239.0Q328 256 352.0 256.0Q376 256 390.5 239.5Q405 223 405 198ZM363 113V85H335V113Z" />
      </g>
    </svg>