<svg xmlns="http://www.w3.org/2000/svg" viewBox="43 21 426 342">
      <g transform="scale(1 -1) translate(0 -384)">
        <path d="M427 64H85V277H427ZM427 320H256L213 363H85Q68 363 55.5 350.5Q43 338 43 320V64Q43 46 55.5 33.5Q68 21 85 21H427Q444 21 456.5 33.5Q469 46 469 64V277Q469 295 456.5 307.5Q444 320 427 320ZM273 192Q267 211 250.5 223.0Q234 235 213 235Q186 235 167.5 216.5Q149 198 149.0 170.5Q149 143 167.5 125.0Q186 107 213 107Q234 107 250.5 118.5Q267 130 273 149H320V107H363V149H405V192ZM213 149Q204 149 198.0 155.0Q192 161 192.0 170.5Q192 180 198.0 186.0Q204 192 213.5 192.0Q223 192 229.0 186.0Q235 180 235.0 170.5Q235 161 229.0 155.0Q223 149 213 149Z" />
      </g>
    </svg>