<svg xmlns="http://www.w3.org/2000/svg" viewBox="43 21 426 342">
      <g transform="scale(1 -1) translate(0 -384)">
        <path d="M320 149Q347 149 373 139Q405 126 405 107V85H235V107Q235 126 267 139Q293 149 320 149ZM320 171Q338 171 350.5 183.5Q363 196 363.0 213.5Q363 231 350.5 243.5Q338 256 320.0 256.0Q302 256 289.5 243.5Q277 231 277.0 213.5Q277 196 289.5 183.5Q302 171 320 171ZM469 277V64Q469 46 456.5 33.5Q444 21 427 21H85Q68 21 55.5 33.5Q43 46 43 64V320Q43 338 55.5 350.5Q68 363 85 363H213L256 320H427Q444 320 456.5 307.5Q469 295 469 277ZM427 277H85V64H427Z" />
      </g>
    </svg>