<svg xmlns="http://www.w3.org/2000/svg" viewBox="43 21 426 342">
      <g transform="scale(1 -1) translate(0 -384)">
        <path d="M427 320H256L213 363H85Q68 363 55.5 350.5Q43 338 43 320V64Q43 46 55.5 33.5Q68 21 85 21H427Q444 21 456.5 33.5Q469 46 469 64V277Q469 295 456.5 307.5Q444 320 427 320ZM393 160 320 85 247 160Q235 173 235.0 191.0Q235 209 247.5 222.0Q260 235 277.5 235.0Q295 235 308 222L320 209L333 222Q345 235 362.5 235.0Q380 235 392.5 222.0Q405 209 405.0 191.0Q405 173 393 160Z" />
      </g>
    </svg>