<svg xmlns="http://www.w3.org/2000/svg" viewBox="43 -43 426 384">
      <g transform="scale(1 -1) translate(0 -298)">
        <path d="M128 341Q110 341 97.5 328.5Q85 316 85 299V128Q85 110 97.5 97.5Q110 85 128 85H235V43H213Q204 43 198.0 37.0Q192 31 192 21H43V-21H192Q192 -31 198.0 -37.0Q204 -43 213 -43H299Q308 -43 314.0 -37.0Q320 -31 320 -21H469V21H320Q320 31 314.0 37.0Q308 43 299 43H277V85H384Q402 85 414.5 97.5Q427 110 427 128V256Q427 274 414.5 286.5Q402 299 384 299H256L213 341ZM192 256Q213 256 229.0 244.5Q245 233 252 213H384V171H341V128H299V171H252Q245 151 229.0 139.5Q213 128 192 128Q165 128 146.5 146.5Q128 165 128.0 192.0Q128 219 146.5 237.5Q165 256 192 256ZM192 213Q182 213 176.5 207.5Q171 202 171.0 192.0Q171 182 176.5 176.5Q182 171 192.0 171.0Q202 171 207.5 176.5Q213 182 213.0 192.0Q213 202 207.5 207.5Q202 213 192 213Z" />
      </g>
    </svg>