<svg xmlns="http://www.w3.org/2000/svg" viewBox="43 -43 448 406">
      <g transform="scale(1 -1) translate(0 -320)">
        <path d="M256 53Q256 39 260 21H85Q68 21 55.5 33.5Q43 46 43 64V320Q43 338 55.5 350.5Q68 363 85 363H213L256 320H427Q444 320 456.5 307.5Q469 295 469 277V170Q450 182 427 188V277H85V64H257Q256 60 256 53ZM491 53Q491 13 463.0 -15.0Q435 -43 395.0 -43.0Q355 -43 327.0 -15.0Q299 13 299.0 53.0Q299 93 327.0 121.0Q355 149 395.0 149.0Q435 149 463.0 121.0Q491 93 491 53ZM427 -2 340 85Q331 71 331 53Q331 27 349.5 8.0Q368 -11 395 -11Q413 -11 427 -2ZM459 53Q459 80 440.0 98.5Q421 117 395 117Q377 117 363 108L450 21Q459 35 459 53Z" />
      </g>
    </svg>