<svg xmlns="http://www.w3.org/2000/svg" viewBox="43 21 426 342">
      <g transform="scale(1 -1) translate(0 -384)">
        <path d="M85 363Q68 363 55.5 350.5Q43 338 43 320V64Q43 46 55.5 33.5Q68 21 85 21H427Q444 21 456.5 33.5Q469 46 469 64V277Q469 295 456.5 307.5Q444 320 427 320H256L213 363ZM235 235Q255 235 271.5 223.0Q288 211 294 192H427V149H384V107H341V149H294Q288 130 271.5 118.5Q255 107 235 107Q207 107 189.0 125.0Q171 143 171.0 170.5Q171 198 189.0 216.5Q207 235 235 235ZM235 192Q225 192 219.0 186.0Q213 180 213.0 170.5Q213 161 219.0 155.0Q225 149 234.5 149.0Q244 149 250.0 155.0Q256 161 256.0 170.5Q256 180 250.0 186.0Q244 192 235 192Z" />
      </g>
    </svg>