<svg xmlns="http://www.w3.org/2000/svg" viewBox="43 -43 426 427">
      <g transform="scale(1 -1) translate(0 -341)">
        <path d="M64 128V341Q64 359 76.5 371.5Q89 384 107 384H235L277 341H405Q423 341 435.5 328.5Q448 316 448 299V128Q448 110 435.5 97.5Q423 85 405 85H277V43H299Q308 43 314.0 36.5Q320 30 320 21H469V-21H320Q320 -30 314.0 -36.5Q308 -43 299 -43H213Q204 -43 198.0 -36.5Q192 -30 192 -21H43V21H192Q192 30 198.0 36.5Q204 43 213 43H235V85H107Q89 85 76.5 97.5Q64 110 64 128Z" />
      </g>
    </svg>