<svg xmlns="http://www.w3.org/2000/svg" viewBox="21 -51 478 414">
      <g transform="scale(1 -1) translate(0 -312)">
        <path d="M352 192Q392 192 420.0 164.0Q448 136 448 96Q448 68 433 45L499 -21L469 -51L403 15Q379 0 352 0Q312 0 284.0 28.0Q256 56 256.0 96.0Q256 136 284.0 164.0Q312 192 352 192ZM352 149Q330 149 314.5 133.5Q299 118 299.0 96.0Q299 74 314.5 58.5Q330 43 352.0 43.0Q374 43 389.5 58.5Q405 74 405.0 96.0Q405 118 389.5 133.5Q374 149 352 149ZM192 363 235 320H405Q423 320 435.5 307.5Q448 295 448 277V196Q429 214 404.0 224.5Q379 235 352 235Q314 235 282.5 216.0Q251 197 232.0 165.5Q213 134 213 96Q213 55 235 21H64Q46 21 33.5 33.5Q21 46 21 64V320Q21 338 33.5 350.5Q46 363 64 363Z" />
      </g>
    </svg>