<svg xmlns="http://www.w3.org/2000/svg" viewBox="43 -64 465 427">
      <g transform="scale(1 -1) translate(0 -299)">
        <path d="M85 363Q68 363 55.5 350.5Q43 338 43 320V64Q43 46 55.5 33.5Q68 21 85 21H258Q256 32 256 43Q256 83 276.0 117.5Q296 152 330.5 172.0Q365 192 405 192Q439 192 469 177V277Q469 295 456.5 307.5Q444 320 427 320H256L213 363ZM384 149Q379 149 378 145L374 117Q365 112 356 107L330 117Q325 117 323 115L302 78Q300 74 303 71L326 53Q325 48 325.0 42.5Q325 37 326 32L303 15Q300 12 302 8L323 -29Q324 -32 330 -32L356 -21Q366 -28 374 -31L378 -60Q379 -64 384 -64H427Q431 -64 432 -60L436 -31Q444 -28 454 -21L480 -32Q486 -32 487 -29L508 8Q510 12 507 15L484 32L485 43Q485 48 484 53L507 71Q510 74 508 78L487 115Q486 117 480 117L454 107Q443 114 436 117L432 145Q431 149 427 149ZM405 75Q419 75 428.0 65.5Q437 56 437.0 42.5Q437 29 428.0 20.0Q419 11 405.5 11.0Q392 11 382.5 20.0Q373 29 373.0 42.5Q373 56 382.5 65.5Q392 75 405 75Z" />
      </g>
    </svg>