<svg xmlns="http://www.w3.org/2000/svg" viewBox="43 -43 447 406">
      <g transform="scale(1 -1) translate(0 -320)">
        <path d="M278 21H85Q68 21 55.5 33.5Q43 46 43 64V320Q43 338 55.5 350.5Q68 363 85 363H213L256 320H427Q444 320 456.5 307.5Q469 295 469 277V75L447 97L448 107Q448 141 427 170V277H85V64H244Q255 38 278 21ZM488 -4 400 84Q407 100 403.0 118.5Q399 137 385.5 150.5Q372 164 352.0 167.5Q332 171 314 163L356 121L327 92L285 134Q276 116 279.5 96.5Q283 77 297.0 63.0Q311 49 329.0 45.0Q347 41 364 48L451 -40Q454 -43 458.0 -43.0Q462 -43 465 -40L487 -18Q490 -15 490.5 -10.5Q491 -6 488 -4Z" />
      </g>
    </svg>