<svg xmlns="http://www.w3.org/2000/svg" viewBox="43 21 426 342">
      <g transform="scale(1 -1) translate(0 -384)">
        <path d="M192 363V277H128V363ZM85 107V171H43V107ZM43 192H85V256H43ZM384 277H469Q469 295 456.5 307.5Q444 320 427 320H384ZM469 171H427V107H469ZM427 256V192H469V256ZM192 21V64H128V21ZM107 64H85V85H43V64Q43 46 55.5 33.5Q68 21 85 21H107ZM427 85V64H384V21H427Q444 21 456.5 33.5Q469 46 469 64V85ZM85 277H107V363H85Q68 363 55.5 350.5Q43 338 43 320V277ZM363 64H299V21H363ZM277 64H213V21H277ZM363 320H299V277H363ZM213 277H277V320H256L213 363Z" />
      </g>
    </svg>