<svg xmlns="http://www.w3.org/2000/svg" viewBox="43 -43 448 406">
      <g transform="scale(1 -1) translate(0 -320)">
        <path d="M213 363 256 320H427Q444 320 456.5 307.5Q469 295 469 277V203Q449 211 427 213V277H85V64H277Q280 41 288 21H85Q68 21 55.5 33.5Q43 46 43 64V320Q43 338 55.5 350.5Q68 363 85 363ZM405 192V160Q441 160 466.0 135.0Q491 110 491 75Q491 49 476 28L453 51Q459 62 459 75Q459 97 443.0 112.5Q427 128 405 128V96L357 145Q362 149 405 192ZM405 -43V-11Q370 -11 345.0 14.0Q320 39 320 75Q320 100 334 122L358 99Q352 87 352 75Q352 53 367.5 37.0Q383 21 405 21V53L454 5Q449 1 405 -43Z" />
      </g>
    </svg>