<svg xmlns="http://www.w3.org/2000/svg" viewBox="43 -21 426 426">
      <g transform="scale(1 -1) translate(0 -384)">
        <path d="M422 405H90Q71 405 57.0 391.0Q43 377 43 358V26Q43 7 57.0 -7.0Q71 -21 90 -21H422Q441 -21 455.0 -7.0Q469 7 469 26V358Q469 377 455.0 391.0Q441 405 422 405ZM378 135Q378 130 371 127Q341 114 320 114Q308 114 289 122Q267 130 251 130Q223 130 187 113L184 112V69Q184 66 183 65V63Q181 57 176.0 53.5Q171 50 164.0 50.0Q157 50 151.0 55.5Q145 61 145 69V277Q133 287 133.0 301.5Q133 316 142.5 325.0Q152 334 165.0 334.0Q178 334 187.5 325.0Q197 316 197 302Q197 287 184 277V260L189 262Q222 276 248 276Q263 276 278 272Q289 269 306 263Q312 260 319 260Q333 260 359 272Q368 276 370.5 276.0Q373 276 375.5 273.5Q378 271 378 268Z" />
      </g>
    </svg>