<svg xmlns="http://www.w3.org/2000/svg" viewBox="43 -21 425 426">
      <g transform="scale(1 -1) translate(0 -384)">
        <path d="M430 176Q459 206 466.5 245.5Q474 285 458.5 323.0Q443 361 407 384Q375 405 335.5 405.5Q296 406 264 385Q236 367 220.5 340.5Q205 314 202 284Q197 239 169 210L168 209Q150 191 149.5 166.0Q149 141 167 124L188 103Q205 85 230.0 85.0Q255 85 272 103Q302 133 349.0 138.0Q396 143 430 176ZM134 24Q138 15 136.5 5.0Q135 -5 127 -12Q118 -21 105.0 -21.0Q92 -21 83.0 -12.0Q74 -3 73 9Q61 10 52.0 19.0Q43 28 43.0 41.0Q43 54 52 63Q59 71 69.0 72.5Q79 74 88 70L141 121H142Q148 112 151 109L173 88Q180 80 187 77Z" />
      </g>
    </svg>