<svg xmlns="http://www.w3.org/2000/svg" viewBox="75 -21 361 416">
      <g transform="scale(1 -1) translate(0 -374)">
        <path d="M427 235Q442 212 434 168Q427 129 405 83Q385 40 360.5 9.5Q336 -21 319.5 -21.0Q303 -21 292 -17Q285 -14 276 -8Q270 -4 266.0 -2.0Q262 0 256.0 0.0Q250 0 246.0 -2.0Q242 -4 236 -8Q227 -14 220 -17Q209 -21 192.5 -21.0Q176 -21 151.5 9.5Q127 40 107 83Q85 129 78 168Q70 212 85 235Q115 279 160 288Q198 296 235 277V341Q201 323 173 319Q150 315 131 322Q116 328 105 339Q97 348 91 358L88 367L94 375Q103 383 113 388Q128 395 144 395Q164 395 185 383Q209 370 235 341V384H277V277Q314 296 352 288Q397 279 427 235Z" />
      </g>
    </svg>