<svg xmlns="http://www.w3.org/2000/svg" viewBox="43 0 405 405">
      <g transform="scale(1 -1) translate(0 -405)">
        <path d="M116 278 127 289Q136 299 149.5 298.5Q163 298 173 289V288Q188 273 213 271Q229 269 243.0 260.5Q257 252 267 238Q278 220 277.5 199.0Q277 178 266 161Q253 142 233.0 133.5Q213 125 192.0 129.5Q171 134 155 149Q138 167 135.0 192.0Q132 217 116 233Q107 242 107.0 255.5Q107 269 116 278ZM206 107Q167 107 140 134Q117 158 113 189Q112 202 106 212Q85 184 85 149Q85 124 97.0 101.5Q109 79 129 64H405V85Q405 142 371.5 187.0Q338 232 285 249Q299 226 298.5 198.5Q298 171 284 149Q271 129 250.0 118.0Q229 107 206 107ZM315 287H342Q357 287 367.0 277.0Q377 267 377 250V235H404V256Q404 280 386.0 296.0Q368 312 342 312H315Q302 312 292.0 323.0Q282 334 282.0 347.5Q282 361 292.0 370.0Q302 379 315 379V405Q291 405 273.5 388.0Q256 371 256.0 346.0Q256 321 273.5 304.0Q291 287 315 287ZM96 287Q98 290 101 293L112 304Q114 306 118 309L88 340Q90 344 89.5 349.0Q89 354 85.0 358.5Q81 363 74.0 363.0Q67 363 62.5 358.5Q58 354 58 348Q52 347 47.5 342.5Q43 338 43.0 331.5Q43 325 47.0 320.5Q51 316 56.0 315.5Q61 315 65 317ZM392 354Q410 372 410 396H383Q383 383 373.5 373.5Q364 364 351 364V337Q380 337 401.0 316.0Q422 295 422 265V213H448V265Q448 294 432.5 318.0Q417 342 392 354ZM107 0H405Q423 0 435.5 12.5Q448 25 448 43H64Q64 25 76.5 12.5Q89 0 107 0Z" />
      </g>
    </svg>