<svg xmlns="http://www.w3.org/2000/svg" viewBox="106 -21 298 426">
      <g transform="scale(1 -1) translate(0 -384)">
        <path d="M254 405Q213 405 179.0 383.5Q145 362 125.5 326.5Q106 291 107.0 250.0Q108 209 129.5 175.5Q151 142 186 124Q208 113 221.5 92.0Q235 71 235 47V43Q235 15 253.0 -3.0Q271 -21 299 -21Q340 -21 364 13Q387 44 397 108Q405 165 405 256L404 272Q402 291 396 309Q387 334 373 353Q354 377 328 390Q296 405 254 405ZM299 21Q289 21 283.0 27.0Q277 33 277 43V47Q277 82 258.0 113.0Q239 144 207 162Q181 175 166.0 199.0Q151 223 149 252Q149 273 157.0 294.0Q165 315 179.0 330.5Q193 346 212.5 354.5Q232 363 252 363Q299 363 327 339Q348 321 357 291Q363 273 363 256Q363 158 352 101Q344 54 328 35Q316 21 299 21ZM337 286 177 228Q171 238 171.0 255.0Q171 272 181 297L292 337Q326 320 337 286ZM275 126 335 147Q333 114 322 77L294 66Q294 97 275 126ZM341 252Q341 203 339 183L254 151Q234 171 215 179Q203 186 192 196Z" />
      </g>
    </svg>