<svg xmlns="http://www.w3.org/2000/svg" viewBox="75 -21 361 416">
      <g transform="scale(1 -1) translate(0 -374)">
        <path d="M427 235Q412 260 387.0 274.5Q362 289 333.0 290.0Q304 291 277 277V384H235V277Q208 291 179.0 290.0Q150 289 125.0 274.5Q100 260 85 235Q70 212 78 168Q85 129 107 83Q127 40 151.5 9.5Q176 -21 192.5 -21.0Q209 -21 220 -17Q227 -14 236 -8Q242 -4 246.0 -2.0Q250 0 256.0 0.0Q262 0 266.0 -2.0Q270 -4 276 -8Q285 -14 292 -17Q303 -21 319.5 -21.0Q336 -21 360.5 9.5Q385 40 405 83Q427 129 434 168Q442 212 427 235ZM389 163Q369 83 314 21Q307 21 301 27Q281 43 256.0 43.0Q231 43 211 27Q205 21 198 21Q142 83 123 162Q114 187 121 211Q130 227 146.0 237.0Q162 247 181.0 247.0Q200 247 216 239L235 230H277L296 239Q312 247 331.0 247.0Q350 247 366.0 237.0Q382 227 391 211Q398 187 389 163ZM235 341Q201 323 173 319Q150 315 131 322Q116 328 105 339Q97 348 91 358L88 367L94 375Q103 383 113 388Q128 395 144 395Q164 395 185 383Q209 370 235 341Z" />
      </g>
    </svg>