<svg xmlns="http://www.w3.org/2000/svg" viewBox="24 -37 448 448">
      <g transform="scale(1 -1) translate(0 -374)">
        <path d="M51 411 24 384 112 295Q107 275 107 250Q108 210 130.0 176.0Q152 142 186 124Q209 112 222.0 91.5Q235 71 235 47V43Q235 16 253.5 -2.5Q272 -21 299 -21Q350 -21 375 32L445 -37L472 -10ZM299 21Q290 21 283.5 27.5Q277 34 277 43V47Q277 83 258.0 113.5Q239 144 206 162Q181 175 165.5 199.5Q150 224 149 252V258L174 234L176 227L179 228L205 203L194 198Q204 187 216 181Q237 170 254 153H255L281 127L276 125Q293 98 297 67L324 77L326 82L343 65Q334 40 321 29Q312 21 299 21ZM337 286 259 257 211 305 292 335Q326 322 337 286ZM183 333 153 363Q173 383 199.0 394.0Q225 405 253 405Q296 405 328 390Q354 377 373 353Q387 334 396 309Q402 291 404 272L405 256Q405 173 398 118L359 157Q363 201 363 256Q363 273 357 291Q348 321 327 339Q300 363 253 363Q214 363 183 333ZM335 181 285 231 341 252Q341 216 340 183Z" />
      </g>
    </svg>