<svg xmlns="http://www.w3.org/2000/svg" viewBox="23 -36 448 448">
      <g transform="scale(1 -1) translate(0 -376)">
        <path d="M444 -36 290 117Q277 109 271 102Q253 85 228.0 85.0Q203 85 186 102L164 124Q147 141 147.0 166.5Q147 192 166 209Q171 213 179 226L23 384L51 412L471 -9ZM173 87 151 109 141 122 87 70Q68 80 51 64Q42 54 42.0 41.5Q42 29 51.0 20.0Q60 11 73 11Q73 2 81 -11Q91 -20 103.5 -20.0Q116 -20 126 -11Q142 6 132 26L186 77Q181 79 173 87ZM431 177Q460 206 467.5 246.0Q475 286 459.5 323.5Q444 361 407 384Q375 405 336.0 405.0Q297 405 265 384Q220 355 207 309L373 143Q407 153 431 177Z" />
      </g>
    </svg>