<svg xmlns="http://www.w3.org/2000/svg" viewBox="21 43 470 298">
      <g transform="scale(1 -1) translate(0 -384)">
        <path d="M149 341V128Q149 110 136.5 97.5Q124 85 107 85H85Q77 85 70.5 91.5Q64 98 64 107V171H21V107Q21 80 40.0 61.5Q59 43 85 43H107Q142 43 167.0 68.0Q192 93 192 128V341ZM491 163 464 189Q440 213 405 213H363V171H405Q423 171 434 159L442 151L416 137Q401 128 384 128H363Q354 128 347.5 134.0Q341 140 341 149V320H299V239L285 253Q275 265 259.0 271.0Q243 277 226 277H213V235H226Q247 235 262 220L299 183V149Q299 131 286.5 119.0Q274 107 256 107H213V64H256Q277 64 295.0 74.0Q313 84 324 102Q339 85 363 85H384Q413 85 437 100L491 130Z" />
      </g>
    </svg>