<svg xmlns="http://www.w3.org/2000/svg" viewBox="21 85 470 214">
      <g transform="scale(1 -1) translate(0 -384)">
        <path d="M21 299V256H64Q73 256 79.0 250.0Q85 244 85 235V85H128V235Q128 261 109.0 280.0Q90 299 64 299ZM149 299V149Q149 123 168.0 104.0Q187 85 213 85H299Q325 85 344.0 104.0Q363 123 363 149V299H320V149Q320 140 314.0 134.0Q308 128 299 128H213Q204 128 198.0 134.0Q192 140 192 149V171H213Q240 171 258.5 189.5Q277 208 277 235V299H235V235Q235 226 228.5 219.5Q222 213 213 213H192V299ZM384 299V256H427Q436 256 442.0 250.0Q448 244 448 235V149Q448 140 442.0 134.0Q436 128 427 128H384V85H427Q453 85 472.0 104.0Q491 123 491 149V235Q491 261 472.0 280.0Q453 299 427 299Z" />
      </g>
    </svg>