<svg xmlns="http://www.w3.org/2000/svg" viewBox="21 -43 470 470">
      <g transform="scale(1 -1) translate(0 -384)">
        <path d="M385 -43H421Q434 -43 444.0 -34.0Q454 -25 455 -11L491 340H384V427H342V340H236L242 290Q270 283 294.0 270.0Q318 257 333 242Q359 217 371 194Q385 165 385 129ZM21 -21V0H342V-21Q342 -30 335.5 -36.5Q329 -43 320 -43H43Q34 -43 27.5 -36.5Q21 -30 21 -21ZM342 128Q342 177 309 210Q279 240 230.5 250.5Q182 261 133.5 250.5Q85 240 55 210Q21 177 21 128ZM21 85H341V43H21Z" />
      </g>
    </svg>