<svg xmlns="http://www.w3.org/2000/svg" viewBox="43 0 426 384">
      <g transform="scale(1 -1) translate(0 -384)">
        <path d="M64 384Q55 384 49.0 378.0Q43 372 43 363V245Q43 219 57.5 197.5Q72 176 96 166V32Q96 19 105.5 9.5Q115 0 128.0 0.0Q141 0 150.5 9.5Q160 19 160 32V166Q184 176 198.5 197.5Q213 219 213 245V363Q213 372 207.0 378.0Q201 384 192.0 384.0Q183 384 177.0 378.0Q171 372 171 363V277Q171 273 167.5 270.0Q164 267 160.0 267.0Q156 267 152.5 270.0Q149 273 149 277V363Q149 372 143.0 378.0Q137 384 128.0 384.0Q119 384 113.0 378.0Q107 372 107 363V277Q107 273 103.5 270.0Q100 267 96.0 267.0Q92 267 88.5 270.0Q85 273 85 277V363Q85 372 79.0 378.0Q73 384 64 384ZM424 384Q422 384 417 381L341 336V256H256V213H277L299 0H427L448 213H469V256H384V313L437 345Q445 349 447.0 357.0Q449 365 445 373Q437 386 424 384Z" />
      </g>
    </svg>