<svg xmlns="http://www.w3.org/2000/svg" viewBox="21 -43 470 470">
      <g transform="scale(1 -1) translate(0 -384)">
        <path d="M21 -21Q21 -30 27.5 -36.5Q34 -43 43 -43H320Q329 -43 335.0 -36.5Q341 -30 341 -21V0H21ZM181 256Q140 256 104 242Q67 227 45 199Q21 169 21 128H341Q341 169 318 199Q296 227 258 242Q223 256 181 256ZM77 171Q93 193 127 204Q153 213 181.0 213.0Q209 213 236 204Q269 193 285 171ZM21 85H341V43H21ZM384 341V427H341V341H235L240 299H444L414 0H384V-43H421Q434 -43 444.0 -34.0Q454 -25 455 -11L491 341Z" />
      </g>
    </svg>