<svg xmlns="http://www.w3.org/2000/svg" viewBox="43 0 426 384">
      <g transform="scale(1 -1) translate(0 -384)">
        <path d="M288 192Q275 192 265.5 182.5Q256 173 256.0 160.0Q256 147 265.5 137.5Q275 128 288.0 128.0Q301 128 310.5 137.5Q320 147 320.0 160.0Q320 173 310.5 182.5Q301 192 288 192ZM288 384Q337 384 379.0 361.0Q421 338 445.0 299.0Q469 260 469 213Q469 180 467 163Q463 135 450 107Q420 107 393 92Q377 84 351 62Q326 41 313 34Q291 21 267 21Q233 21 214 46Q197 68 193 107H176L148 15Q146 7 139.0 3.0Q132 -1 125 0H64Q55 0 49.0 6.0Q43 12 43.0 21.0Q43 30 49.0 36.5Q55 43 64 43V107Q55 107 49.0 113.0Q43 119 43.0 128.0Q43 137 49.0 143.0Q55 149 64 149H144L154 184Q137 192 117 192H108L107 213Q107 260 131.0 299.0Q155 338 197.0 361.0Q239 384 288 384ZM107 107V43H112L131 107Z" />
      </g>
    </svg>