<svg xmlns="http://www.w3.org/2000/svg" viewBox="128 -21 255 426">
      <g transform="scale(1 -1) translate(0 -384)">
        <path d="M341 405Q354 405 365.0 398.0Q376 391 381.0 379.0Q386 367 383.5 354.5Q381 342 371.5 332.5Q362 323 349.5 320.5Q337 318 325.0 323.0Q313 328 306.0 339.0Q299 350 299 363Q299 380 311.5 392.5Q324 405 341 405ZM257 384Q270 384 279.5 374.5Q289 365 289.0 352.0Q289 339 279.5 329.5Q270 320 257.0 320.0Q244 320 234.5 329.5Q225 339 225.0 352.0Q225 365 234.5 374.5Q244 384 257 384ZM194 352Q203 352 209.0 346.0Q215 340 215.0 331.0Q215 322 209.0 315.5Q203 309 194.0 309.0Q185 309 179.0 315.5Q173 322 173.0 331.0Q173 340 179.0 346.0Q185 352 194 352ZM150 320Q159 320 165.5 314.0Q172 308 172.0 299.0Q172 290 165.5 283.5Q159 277 150.0 277.0Q141 277 135.0 283.5Q129 290 129.0 299.0Q129 308 135.0 314.0Q141 320 150 320ZM310 192Q334 192 349.5 209.5Q365 227 363 251Q360 272 344.0 285.5Q328 299 307 299H254Q211 299 176.5 272.5Q142 246 131 205Q126 189 133 175Q147 145 146.5 112.5Q146 80 133 52Q124 33 134 15Q148 -6 170.5 -15.5Q193 -25 217 -19Q235 -15 249.0 -3.5Q263 8 270.0 25.0Q277 42 275.0 60.0Q273 78 263.0 93.5Q253 109 254 128Q253 144 259 160Q272 192 310 192Z" />
      </g>
    </svg>