<svg xmlns="http://www.w3.org/2000/svg" viewBox="43 21 426 342">
      <g transform="scale(1 -1) translate(0 -384)">
        <path d="M128 363V213H85Q68 213 55.5 200.5Q43 188 43 171V85Q43 59 61.5 40.0Q80 21 106.5 21.0Q133 21 152.0 40.0Q171 59 171 85H213Q213 59 232.0 40.0Q251 21 277.5 21.0Q304 21 322.5 40.0Q341 59 341 85V171L256 363ZM363 341V43H469V75H395V341ZM160 331H239L309 171H160ZM107 117Q120 117 129.5 108.0Q139 99 139.0 85.5Q139 72 129.5 62.5Q120 53 106.5 53.0Q93 53 84.0 62.5Q75 72 75.0 85.5Q75 99 84.0 108.0Q93 117 107 117ZM277 117Q291 117 300.0 108.0Q309 99 309.0 85.5Q309 72 300.0 62.5Q291 53 277.5 53.0Q264 53 254.5 62.5Q245 72 245.0 85.5Q245 99 254.5 108.0Q264 117 277 117Z" />
      </g>
    </svg>