<svg xmlns="http://www.w3.org/2000/svg" viewBox="149 64 230 299">
      <g transform="scale(1 -1) translate(0 -427)">
        <path d="M288 117H213V181H288Q301 181 310.5 172.0Q320 163 320.0 149.5Q320 136 310.5 126.5Q301 117 288 117ZM213 309H277Q291 309 300.0 300.0Q309 291 309.0 277.5Q309 264 300.0 254.5Q291 245 277 245H213ZM333 218Q348 229 358.0 245.0Q368 261 368 277Q368 313 343.5 338.0Q319 363 283 363H149V64H300Q333 64 356.0 87.5Q379 111 379 145Q379 169 366.5 188.5Q354 208 333 218Z" />
      </g>
    </svg>