<svg xmlns="http://www.w3.org/2000/svg" viewBox="43 -21 426 426">
      <g transform="scale(1 -1) translate(0 -384)">
        <path d="M363 299H469V85H363V43Q363 34 369.0 27.5Q375 21 384 21H427V-21H373Q364 -21 352.5 -14.5Q341 -8 341 0Q341 -8 330.0 -14.5Q319 -21 309 -21H256V21H299Q308 21 314.0 27.5Q320 34 320 43V341Q320 350 314.0 356.5Q308 363 299 363H256V405H309Q319 405 330.0 398.5Q341 392 341 384Q341 392 352.5 398.5Q364 405 373 405H427V363H384Q375 363 369.0 356.5Q363 350 363 341ZM43 299H277V256H85V128H277V85H43ZM427 128V256H363V128Z" />
      </g>
    </svg>