<svg xmlns="http://www.w3.org/2000/svg" viewBox="18 -21 451 453">
      <g transform="scale(1 -1) translate(0 -411)">
        <path d="M157 311 18 173 157 35 295 173ZM79 173 157 251 235 173 157 95ZM413 306Q386 334 350.5 348.5Q315 363 277 363V432L187 341L277 251V320Q307 320 334.0 309.0Q361 298 383 276Q412 248 422.0 209.5Q432 171 422.0 132.5Q412 94 383 65Q361 44 334.0 32.5Q307 21 276.5 21.0Q246 21 217 34L185 3Q228 -21 277 -21Q315 -21 350.5 -7.0Q386 7 413 35Q450 72 463.0 121.5Q476 171 463.0 220.5Q450 270 413 306Z" />
      </g>
    </svg>