<svg xmlns="http://www.w3.org/2000/svg" viewBox="41 61 419 259">
      <g transform="scale(1 -1) translate(0 -381)">
        <path d="M428 64Q425 73 424 83Q402 61 372 61Q346 61 328.5 75.5Q311 90 311 114Q311 142 332.5 157.5Q354 173 393 173H423V187Q423 203 413.5 212.0Q404 221 385 221Q369 221 357.5 213.0Q346 205 346 194H315Q315 208 324.0 220.5Q333 233 351.0 240.5Q369 248 387 248Q418 248 435.5 232.5Q453 217 454 190V107Q454 81 460 67V64ZM377 88Q391 88 404.0 95.0Q417 102 423 112V146H399Q342 146 342 116Q342 103 352.0 95.5Q362 88 377 88ZM116 156H203L160 271ZM142 320H178L279 64H238L217 119H103L82 64H41Z" />
      </g>
    </svg>