<svg xmlns="http://www.w3.org/2000/svg" viewBox="85 64 381 341">
      <g transform="scale(1 -1) translate(0 -469)">
        <path d="M341 290 243 192 341 94 311 64 213 162 115 64 85 94 183 192 85 290 115 320 213 222 311 320ZM466 256H362V277L381 295Q405 315 417.0 329.5Q429 344 429 356Q430 365 424.0 371.0Q418 377 405 377Q396 377 387 373L373 365L364 390Q372 397 384.0 401.0Q396 405 412 405Q437 405 450.0 392.0Q463 379 463 359Q463 341 452.0 325.5Q441 310 425 297L411 286V285H466Z" />
      </g>
    </svg>