<svg xmlns="http://www.w3.org/2000/svg" viewBox="43 -21 426 426">
      <g transform="scale(1 -1) translate(0 -384)">
        <path d="M363 299H469V85H363V43Q363 34 369.0 27.5Q375 21 384 21H427V-21H373Q364 -21 352.5 -14.5Q341 -8 341 0Q341 -8 330.0 -14.5Q319 -21 309 -21H256V21H299Q308 21 314.0 27.5Q320 34 320 43V341Q320 350 314.0 356.5Q308 363 299 363H256V405H309Q319 405 330.0 398.5Q341 392 341 384Q341 392 352.5 398.5Q364 405 373 405H427V363H384Q375 363 369.0 356.5Q363 350 363 341ZM43 299H277V256H85V128H277V85H43ZM427 128V256H363V128ZM181 192Q181 205 172.0 214.5Q163 224 149.5 224.0Q136 224 126.5 214.5Q117 205 117.0 192.0Q117 179 126.5 169.5Q136 160 149.5 160.0Q163 160 172.0 169.5Q181 179 181 192ZM277 216Q268 225 254.5 224.0Q241 223 232.0 213.5Q223 204 224.0 190.5Q225 177 234.0 168.5Q243 160 255.5 160.0Q268 160 277 168Z" />
      </g>
    </svg>