<svg xmlns="http://www.w3.org/2000/svg" viewBox="141 -21 230 426">
      <g transform="scale(1 -1) translate(0 -384)">
        <path d="M334 354Q303 373 266 372Q240 372 223.0 360.5Q206 349 206.0 329.0Q206 309 226 296Q239 287 277 274Q323 259 344 242Q371 219 371 184Q371 163 360.5 145.0Q350 127 333 115Q354 95 354 65Q354 23 320 -1Q290 -21 245 -21Q198 -23 157 3L171 35Q205 12 246 12Q274 12 292.0 24.5Q310 37 310.0 58.0Q310 79 295.0 92.0Q280 105 240 118Q190 136 168 153Q141 175 141 209Q142 230 153.5 248.0Q165 266 183 276Q162 295 162 324Q162 361 192.0 383.0Q222 405 267 405Q310 405 346 386ZM242 162Q277 151 307 134Q318 142 323.5 153.5Q329 165 329 178Q329 214 277 232Q241 244 207 261Q195 254 188.0 241.5Q181 229 181.0 214.0Q181 199 195.0 186.0Q209 173 242 162Z" />
      </g>
    </svg>