<svg xmlns="http://www.w3.org/2000/svg" viewBox="43 -43 448 448">
      <g transform="scale(1 -1) translate(0 -362)">
        <path d="M277 256H85V-43H43V299H277ZM491 256V299H363V341Q363 350 369.0 356.5Q375 363 384 363H427V405H373Q364 405 352.5 398.5Q341 392 341 384Q341 392 330.0 398.5Q319 405 309 405H256V363H299Q308 363 314.0 356.5Q320 350 320 341V43Q320 34 314.0 27.5Q308 21 299 21H256V-21H309Q319 -21 330.0 -14.5Q341 -8 341 0Q341 -8 352.5 -14.5Q364 -21 373 -21H427V21H384Q375 21 369.0 27.5Q363 34 363 43V256Z" />
      </g>
    </svg>