<svg xmlns="http://www.w3.org/2000/svg" viewBox="64 85 384 363">
      <g transform="scale(1 -1) translate(0 -533)">
        <path d="M405 203Q400 196 394 190Q382 174 374 160Q363 141 363 128Q363 110 375.5 97.5Q388 85 405.5 85.0Q423 85 435.5 97.5Q448 110 448 128Q448 141 437 160Q429 174 416 190ZM111 235 213 337 316 235ZM353 257 163 448 132 418 183 367 73 257Q64 248 64.0 234.5Q64 221 73 212L191 95Q200 85 213.5 85.0Q227 85 236 95L353 212Q363 221 363.0 234.5Q363 248 353 257Z" />
      </g>
    </svg>