<svg xmlns="http://www.w3.org/2000/svg" viewBox="53 32 395 320">
      <g transform="scale(1 -1) translate(0 -384)">
        <path d="M149 341H448V299H149ZM149 171V213H448V171ZM85 352Q99 352 108.0 342.5Q117 333 117.0 320.0Q117 307 108.0 297.5Q99 288 85.5 288.0Q72 288 62.5 297.5Q53 307 53.0 320.0Q53 333 62.5 342.5Q72 352 85 352ZM85 224Q99 224 108.0 214.5Q117 205 117.0 192.0Q117 179 108.0 169.5Q99 160 85.5 160.0Q72 160 62.5 169.5Q53 179 53.0 192.0Q53 205 62.5 214.5Q72 224 85 224ZM149 43V85H448V43ZM85 96Q99 96 108.0 86.5Q117 77 117.0 64.0Q117 51 108.0 41.5Q99 32 85.5 32.0Q72 32 62.5 41.5Q53 51 53.0 64.0Q53 77 62.5 86.5Q72 96 85 96Z" />
      </g>
    </svg>