<svg xmlns="http://www.w3.org/2000/svg" viewBox="43 85 405 311">
      <g transform="scale(1 -1) translate(0 -481)">
        <path d="M352 277Q312 277 284.0 249.0Q256 221 256.0 181.0Q256 141 284.0 113.0Q312 85 352.0 85.0Q392 85 420.0 113.0Q448 141 448.0 181.0Q448 221 420.0 249.0Q392 277 352 277ZM352 117Q325 117 306.5 135.5Q288 154 288 181Q288 196 297 213L384 126Q367 117 352 117ZM407 149 320 237Q331 245 352 245Q379 245 397.5 227.0Q416 209 416 181Q416 166 407 149ZM258 284 226 316 297 386Q306 396 319.0 396.0Q332 396 341 386L388 341Q400 330 397 314Q378 320 354 320Q302 320 258 284ZM224 130 192 100Q182 91 169.5 91.0Q157 91 147 100L132 85H43L102 145Q93 155 93.0 167.5Q93 180 102 190L203 290L237 256Q213 222 213 181Q213 159 224 130Z" />
      </g>
    </svg>