<svg xmlns="http://www.w3.org/2000/svg" viewBox="64 21 384 342">
      <g transform="scale(1 -1) translate(0 -384)">
        <path d="M448 43V85H171V43ZM448 171V213H171V171ZM171 299H448V341H171ZM85 341V299H128V341ZM64 341Q64 350 70.0 356.5Q76 363 85 363H128Q137 363 143.0 356.5Q149 350 149 341V299Q149 290 143.0 283.5Q137 277 128 277H85Q76 277 70.0 283.5Q64 290 64 299ZM85 213V171H128V213ZM64 213Q64 222 70.0 228.5Q76 235 85 235H128Q137 235 143.0 228.5Q149 222 149 213V171Q149 162 143.0 155.5Q137 149 128 149H85Q76 149 70.0 155.5Q64 162 64 171ZM85 85V43H128V85ZM64 85Q64 94 70.0 100.5Q76 107 85 107H128Q137 107 143.0 100.5Q149 94 149 85V43Q149 34 143.0 27.5Q137 21 128 21H85Q76 21 70.0 27.5Q64 34 64 43Z" />
      </g>
    </svg>