<svg xmlns="http://www.w3.org/2000/svg" viewBox="21 -21 470 429">
      <g transform="scale(1 -1) translate(0 -387)">
        <path d="M491 192V149H397Q406 130 407 103Q408 73 396 47Q382 16 352 -1Q318 -21 264 -21Q185 -22 141 14Q109 40 98 81Q92 102 93 117L178 116Q178 70 214 53Q234 44 259 45H262Q285 47 299 54Q325 66 327.0 95.5Q329 125 280 149H21V192ZM414 280H329V290Q327 301 322 310Q315 323 301 330Q285 340 259 340Q215 340 199 318Q191 306 192 288V287Q194 276 203 265Q220 246 256 237H122L116 252Q109 271 107 289Q105 315 113 336Q123 361 148 378Q178 398 229 405Q263 410 290 407Q316 405 336 396Q355 389 369 377Q382 366 391 352Q399 340 405 326Q409 315 411 303Q413 294 413.5 286.5Q414 279 414 280Z" />
      </g>
    </svg>