<svg xmlns="http://www.w3.org/2000/svg" viewBox="43 -43 448 448">
      <g transform="scale(1 -1) translate(0 -362)">
        <path d="M43 299H128V256H85V128H128V85H43ZM213 299H469V192Q450 206 427 211V256H213V128H304Q293 128 285.0 120.0Q277 112 277 101V85H213V43Q213 34 219.5 27.5Q226 21 235 21H277V-21H224Q214 -21 203.0 -14.5Q192 -8 192 0Q192 -8 181.0 -14.5Q170 -21 160 -21H107V21H149Q158 21 164.5 27.5Q171 34 171 43V341Q171 350 164.5 356.5Q158 363 149 363H107V405H160Q170 405 181.0 398.5Q192 392 192 384Q192 392 203.0 398.5Q214 405 224 405H277V363H235Q226 363 219.5 356.5Q213 350 213 341ZM465 85Q475 85 483.0 77.0Q491 69 491 58V-17Q491 -27 482.5 -35.0Q474 -43 463 -43H346Q336 -43 328.0 -34.5Q320 -26 320 -15V60Q320 69 328.0 77.0Q336 85 346 85V117Q346 139 364.0 155.0Q382 171 405.0 171.0Q428 171 446.5 155.0Q465 139 465 117ZM437 85V117Q437 130 428.0 137.5Q419 145 405.5 145.0Q392 145 382.5 137.5Q373 130 373 117V85Z" />
      </g>
    </svg>