<svg xmlns="http://www.w3.org/2000/svg" viewBox="43 -21 426 426">
      <g transform="scale(1 -1) translate(0 -384)">
        <path d="M160 405Q128 405 101.0 389.5Q74 374 58.5 347.0Q43 320 43 288V277H85V288Q85 319 107.0 341.0Q129 363 160 363Q184 363 202.5 349.5Q221 336 230 315Q217 320 203 320Q181 320 162.5 308.5Q144 297 135 277L172 256Q176 265 184.0 271.0Q192 277 203 277Q216 277 225.5 268.0Q235 259 235 245V213H277V245Q277 259 286.5 268.0Q296 277 309 277Q320 277 328.0 271.0Q336 265 340 256L377 277Q368 297 349.5 308.5Q331 320 309 320Q295 320 282 315Q291 336 309.5 349.5Q328 363 352 363Q383 363 405.0 341.0Q427 319 427 288V277H469V288Q469 311 460.0 332.5Q451 354 434.5 370.5Q418 387 396.5 396.0Q375 405 352 405Q323 405 297.5 391.5Q272 378 256 355Q240 378 214.5 391.5Q189 405 160 405ZM128 192V149H158Q166 131 180.5 117.0Q195 103 213 95V43H43L73 -2Q79 -11 88.0 -16.0Q97 -21 108 -21H404Q415 -21 424.0 -16.0Q433 -11 439 -2L469 43H299V95Q317 103 331.5 117.0Q346 131 354 149H384V192Z" />
      </g>
    </svg>