<svg xmlns="http://www.w3.org/2000/svg" viewBox="43 -43 448 448">
      <g transform="scale(1 -1) translate(0 -362)">
        <path d="M384 128H128L43 43V384Q43 393 49.0 399.0Q55 405 64 405H384Q393 405 399.0 399.0Q405 393 405 384V149Q405 140 399.0 134.0Q393 128 384 128ZM491 256V-43L405 43H171Q162 43 155.5 49.0Q149 55 149 64V85H448V277H469Q478 277 484.5 271.0Q491 265 491 256ZM175 363Q147 363 130.0 350.0Q113 337 113 312H155Q155 321 161.0 326.0Q167 331 176.0 331.0Q185 331 190.5 325.0Q196 319 196.0 309.0Q196 299 191.5 292.0Q187 285 178 279Q162 268 155.5 259.5Q149 251 149 235H192Q192 245 195.0 251.0Q198 257 206 262Q221 270 230.0 282.0Q239 294 239 309Q239 334 221.5 348.5Q204 363 175 363ZM149 213V171H192V213ZM277 171H320V213H277ZM277 363V235H320V363Z" />
      </g>
    </svg>