<svg xmlns="http://www.w3.org/2000/svg" viewBox="107 -21 298 448">
      <g transform="scale(1 -1) translate(0 -406)">
        <path d="M299 192Q299 174 286.5 161.5Q274 149 256.0 149.0Q238 149 225.5 161.5Q213 174 213.0 192.0Q213 210 225.5 222.5Q238 235 256.0 235.0Q274 235 286.5 222.5Q299 210 299 192ZM149 235Q132 235 119.5 222.5Q107 210 107.0 192.0Q107 174 119.5 161.5Q132 149 149.5 149.0Q167 149 179.5 161.5Q192 174 192.0 192.0Q192 210 179.5 222.5Q167 235 149 235ZM363 235Q345 235 332.5 222.5Q320 210 320.0 192.0Q320 174 332.5 161.5Q345 149 362.5 149.0Q380 149 392.5 161.5Q405 174 405.0 192.0Q405 210 392.5 222.5Q380 235 363 235ZM309 320Q292 320 279.5 307.5Q267 295 267.0 277.5Q267 260 279.5 247.5Q292 235 309.5 235.0Q327 235 339.5 247.5Q352 260 352.0 277.5Q352 295 339.5 307.5Q327 320 309 320ZM203 320Q185 320 172.5 307.5Q160 295 160.0 277.5Q160 260 172.5 247.5Q185 235 202.5 235.0Q220 235 232.5 247.5Q245 260 245.0 277.5Q245 295 232.5 307.5Q220 320 203 320ZM309 149Q292 149 279.5 136.5Q267 124 267.0 106.5Q267 89 279.5 76.5Q292 64 309.5 64.0Q327 64 339.5 76.5Q352 89 352.0 106.5Q352 124 339.5 136.5Q327 149 309 149ZM203 149Q185 149 172.5 136.5Q160 124 160.0 106.5Q160 89 172.5 76.5Q185 64 202.5 64.0Q220 64 232.5 76.5Q245 89 245.0 106.5Q245 124 232.5 136.5Q220 149 203 149ZM256 64Q238 64 225.5 51.5Q213 39 213.0 21.5Q213 4 225.5 -8.5Q238 -21 256.0 -21.0Q274 -21 286.5 -8.5Q299 4 299.0 21.5Q299 39 286.5 51.5Q274 64 256 64ZM307 401 290 427Q260 413 247 369Q239 342 239 320H271V321Q280 391 307 401Z" />
      </g>
    </svg>