<svg xmlns="http://www.w3.org/2000/svg" viewBox="85 0 342 407">
      <g transform="scale(1 -1) translate(0 -407)">
        <path d="M341 171H331Q321 189 311 218Q305 235 294 271L314 252Q350 224 390 217Q410 213 422 215L424 229Q425 245 423 261Q420 284 411 302Q400 325 380 339Q348 364 313 373Q289 378 273 375L271 391Q270 403 269 407L239 405Q239 361 208 278Q189 228 162 171Q130 167 107.5 143.0Q85 119 85.0 84.5Q85 50 110.0 25.0Q135 0 170.0 0.0Q205 0 228 23Q213 57 213.0 85.5Q213 114 228 147Q218 158 196 166Q234 248 254 311Q260 274 272.5 233.5Q285 193 301 160Q281 148 268.5 128.5Q256 109 256 85Q256 50 281.0 25.0Q306 0 341.5 0.0Q377 0 402.0 25.0Q427 50 427.0 85.5Q427 121 402.0 146.0Q377 171 341 171ZM171 117Q158 117 148.5 107.5Q139 98 139 85H117Q117 108 132.5 123.5Q148 139 171 139ZM341 117Q329 117 319.0 107.5Q309 98 309 85H288Q288 108 303.5 123.5Q319 139 341 139Z" />
      </g>
    </svg>