<svg xmlns="http://www.w3.org/2000/svg" viewBox="43 -22 425 427">
      <g transform="scale(1 -1) translate(0 -383)">
        <path d="M350 98Q386 134 398.5 181.5Q411 229 398.5 276.5Q386 324 350 358L90 98Q124 62 171.5 49.5Q219 37 266.5 49.5Q314 62 350 98ZM341 299Q351 299 357.0 293.0Q363 287 363.0 277.5Q363 268 357.0 262.0Q351 256 341.5 256.0Q332 256 326.0 262.0Q320 268 320.0 277.5Q320 287 326.0 293.0Q332 299 341 299ZM341 213Q351 213 357.0 207.5Q363 202 363.0 192.0Q363 182 357.0 176.5Q351 171 341.5 171.0Q332 171 326.0 176.5Q320 182 320.0 192.0Q320 202 326.0 207.5Q332 213 341 213ZM256 213Q266 213 271.5 207.5Q277 202 277.0 192.0Q277 182 271.5 176.5Q266 171 256.0 171.0Q246 171 240.5 176.5Q235 182 235.0 192.0Q235 202 240.5 207.5Q246 213 256 213ZM256 128Q266 128 271.5 122.0Q277 116 277.0 106.5Q277 97 271.5 91.0Q266 85 256.0 85.0Q246 85 240.5 91.0Q235 97 235.0 106.5Q235 116 240.5 122.0Q246 128 256 128ZM171 85Q161 85 155.0 91.0Q149 97 149.0 106.5Q149 116 155.0 122.0Q161 128 170.5 128.0Q180 128 186.0 122.0Q192 116 192.0 106.5Q192 97 186.0 91.0Q180 85 171 85ZM397 51Q349 3 284.5 -14.0Q220 -31 155.5 -14.0Q91 3 43 51L73 81Q112 41 165.5 27.0Q219 13 272.0 27.0Q325 41 365.0 81.0Q405 121 419.0 174.0Q433 227 419.0 280.0Q405 333 365 373L397 405Q444 357 460.5 292.5Q477 228 460.5 163.5Q444 99 397 51Z" />
      </g>
    </svg>