<svg xmlns="http://www.w3.org/2000/svg" viewBox="23 -36 448 448">
      <g transform="scale(1 -1) translate(0 -376)">
        <path d="M471 -11 51 412 23 384 186 222Q171 186 162 171Q130 167 107.5 143.0Q85 119 85.0 84.5Q85 50 110.0 25.0Q135 0 170.0 0.0Q205 0 228 23Q213 57 213.0 85.5Q213 114 228 147Q218 158 196 166L211 198L273 137Q256 113 256 85Q256 50 281.0 25.0Q306 0 341 0Q370 0 390 17L444 -36ZM171 117Q158 117 148.5 107.5Q139 98 139 85H117Q117 108 132.5 123.5Q148 139 171 139ZM309 85H288Q288 100 294 113L311 96Q309 92 309 85ZM427 90 346 171Q378 169 401.5 145.5Q425 122 427 90ZM241 275 215 301Q239 371 239 405L269 407Q270 403 271 391L273 375Q289 378 313 373Q348 364 380 339Q416 313 423 261Q426 236 422 215H414Q402 215 390 217Q372 220 355 227Q333 236 314 252L294 271Q304 234 318 198L269 247Q262 269 254 311Q245 286 241 275Z" />
      </g>
    </svg>