<svg xmlns="http://www.w3.org/2000/svg" viewBox="128 -21 256 416">
      <g transform="scale(1 -1) translate(0 -374)">
        <path d="M384 107Q384 72 367.0 42.5Q350 13 320.5 -4.0Q291 -21 256.0 -21.0Q221 -21 191.5 -4.0Q162 13 145.0 42.5Q128 72 128 107Q128 128 135 145Q139 155 149.5 171.0Q160 187 164 197Q171 213 171.0 235.5Q171 258 182.0 278.0Q193 298 213 309Q226 317 240 319V341Q240 352 235.0 357.5Q230 363 213 363V395Q243 395 257.5 380.0Q272 365 272 341V319Q287 316 299 309Q319 298 330.0 278.0Q341 258 341.0 235.5Q341 213 348 197Q352 187 362.5 171.0Q373 155 377 145Q384 128 384 107Z" />
      </g>
    </svg>