<svg xmlns="http://www.w3.org/2000/svg" viewBox="23 -36 448 448">
      <g transform="scale(1 -1) translate(0 -376)">
        <path d="M471 -11 51 412 23 384 94 314Q63 277 60 230Q48 222 44.0 210.0Q40 198 45.0 185.5Q50 173 61.0 165.5Q72 158 85 158Q103 137 130.5 124.5Q158 112 192 109Q195 149 220 188L252 156Q235 128 235.0 96.5Q235 65 251.0 38.0Q267 11 294.0 -5.0Q321 -21 352.5 -21.0Q384 -21 412 -4L444 -36ZM277 96Q277 110 284 126L320 90L284 64Q277 80 277 96ZM297 47 335 73 341 66V21Q312 29 297 47ZM363 23V45L380 28L376 26Q368 23 363 23ZM427 90V96Q427 112 420 128L401 115L386 130L407 145Q392 163 363 171V154L311 205Q337 213 352 213Q383 213 410.0 197.0Q437 181 453.0 154.0Q469 127 469 96Q469 73 461 55ZM277 239 151 365Q176 380 207 390Q272 413 333.0 402.0Q394 391 427 354Q440 354 451.0 346.5Q462 339 467.0 326.5Q472 314 468.0 302.0Q464 290 452 282Q452 256 439 230Q396 256 352 256Q315 256 277 239Z" />
      </g>
    </svg>