<svg xmlns="http://www.w3.org/2000/svg" viewBox="107 -43 298 470">
      <g transform="scale(1 -1) translate(0 -384)">
        <path d="M405 192Q405 214 392.0 231.0Q379 248 358 253Q363 265 363 277Q363 304 344.0 322.5Q325 341 299 341Q286 341 273 336Q283 392 307 401L290 427Q266 416 253 384Q243 363 240 335Q227 341 213 341Q187 341 168.0 322.5Q149 304 149 277Q149 265 154 253Q133 248 120.0 231.0Q107 214 107.0 192.0Q107 170 120.0 153.0Q133 136 154 131Q149 119 149 107Q149 85 162.5 68.0Q176 51 197 45Q192 33 192 21Q192 -5 210.5 -24.0Q229 -43 256.0 -43.0Q283 -43 301.5 -24.0Q320 -5 320 21Q320 33 315 45Q336 51 349.5 68.0Q363 85 363 107Q363 119 358 131Q379 136 392.0 153.0Q405 170 405 192ZM348 237ZM299 309Q312 309 321.5 300.0Q331 291 331.0 277.5Q331 264 321.5 254.5Q312 245 298.5 245.0Q285 245 276.0 254.5Q267 264 267.0 277.5Q267 291 276.0 300.0Q285 309 299 309ZM288 192Q288 179 278.5 169.5Q269 160 256.0 160.0Q243 160 233.5 169.5Q224 179 224.0 192.0Q224 205 233.5 214.5Q243 224 256.0 224.0Q269 224 278.5 214.5Q288 205 288 192ZM213 309Q227 309 236.0 300.0Q245 291 245.0 277.5Q245 264 236.0 254.5Q227 245 213.5 245.0Q200 245 190.5 254.5Q181 264 181.0 277.5Q181 291 190.5 300.0Q200 309 213 309ZM139 192Q139 205 148.0 214.5Q157 224 170.5 224.0Q184 224 193.5 214.5Q203 205 203.0 192.0Q203 179 193.5 169.5Q184 160 170.5 160.0Q157 160 148.0 169.5Q139 179 139 192ZM181 107Q181 120 190.5 129.5Q200 139 213.5 139.0Q227 139 236.0 129.5Q245 120 245.0 106.5Q245 93 236.0 84.0Q227 75 213.5 75.0Q200 75 190.5 84.0Q181 93 181 107ZM256 -11Q243 -11 233.5 -1.5Q224 8 224.0 21.5Q224 35 233.5 44.0Q243 53 256.0 53.0Q269 53 278.5 44.0Q288 35 288.0 21.5Q288 8 278.5 -1.5Q269 -11 256 -11ZM299 75Q285 75 276.0 84.0Q267 93 267.0 106.5Q267 120 276.0 129.5Q285 139 298.5 139.0Q312 139 321.5 129.5Q331 120 331.0 106.5Q331 93 321.5 84.0Q312 75 299 75ZM341 160Q328 160 318.5 169.5Q309 179 309.0 192.0Q309 205 318.5 214.5Q328 224 341.5 224.0Q355 224 364.0 214.5Q373 205 373.0 192.0Q373 179 364.0 169.5Q355 160 341 160Z" />
      </g>
    </svg>