<svg xmlns="http://www.w3.org/2000/svg" viewBox="43 -21 426 405">
      <g transform="scale(1 -1) translate(0 -363)">
        <path d="M128 384V341H85Q68 341 55.5 328.5Q43 316 43 299V85Q43 68 55.5 55.5Q68 43 85 43V21Q85 4 97.5 -8.5Q110 -21 128 -21H149Q167 -21 179.5 -8.5Q192 4 192 21V43H320V21Q320 4 332.5 -8.5Q345 -21 363 -21H384Q402 -21 414.5 -8.5Q427 4 427 21V43Q444 43 456.5 55.5Q469 68 469 85H235V341H171V384ZM341 384V341H277V299H469Q469 316 456.5 328.5Q444 341 427 341H384V384ZM149 299V213H192L128 85V171H85ZM277 256V213H469V256ZM277 171V128H469V171Z" />
      </g>
    </svg>