<svg xmlns="http://www.w3.org/2000/svg" viewBox="110 5 292 372">
      <g transform="scale(1 -1) translate(0 -382)">
        <path d="M333 335Q315 337 301.5 325.5Q288 314 287 296L281 235H341V192H277L268 84Q265 49 238.0 26.0Q211 3 176 6Q155 8 138.0 18.5Q121 29 110 46L142 78Q146 66 156.0 58.0Q166 50 179 49Q197 47 210.5 58.5Q224 70 225 88L235 192H171V235H238L244 300Q247 335 274.0 358.0Q301 381 336 378Q357 376 374.0 365.5Q391 355 402 338L370 306Q366 318 356.0 326.0Q346 334 333 335Z" />
      </g>
    </svg>