<svg xmlns="http://www.w3.org/2000/svg" viewBox="43 5 426 372">
      <g transform="scale(1 -1) translate(0 -382)">
        <path d="M265 335Q247 337 233.5 325.5Q220 314 219 296L213 235H273V192H209L200 84Q197 49 170.0 26.0Q143 3 108 6Q87 8 70.0 18.5Q53 29 43 46L75 78Q80 61 95.5 53.0Q111 45 128 51Q140 54 148.5 64.5Q157 75 158 88L167 192H103V235H171L176 300Q179 335 206.0 358.0Q233 381 269 378Q289 376 306.5 365.5Q324 355 334 338L302 306Q298 318 288.0 326.0Q278 334 265 335ZM469 157 439 187 379 127 319 187 288 157 349 96 288 36 319 6 379 66 439 6 469 36 409 96Z" />
      </g>
    </svg>