<svg xmlns="http://www.w3.org/2000/svg" viewBox="107 -30 298 435">
      <g transform="scale(1 -1) translate(0 -375)">
        <path d="M181 405Q159 405 143.5 389.5Q128 374 128.0 352.0Q128 330 143.5 314.5Q159 299 181.0 299.0Q203 299 219.0 314.5Q235 330 235.0 352.0Q235 374 219.0 389.5Q203 405 181 405ZM331 405Q309 405 293.0 389.5Q277 374 277.0 352.0Q277 330 293.0 314.5Q309 299 331.0 299.0Q353 299 368.5 314.5Q384 330 384.0 352.0Q384 374 368.5 389.5Q353 405 331 405ZM235 277V235H107V192H319Q312 174 296.5 153.0Q281 132 259 114Q228 141 209 171H160Q180 128 227 86L123 3L149 -30L260 58L370 -30L396 3L293 86Q354 142 364 192H405V235H277V277Z" />
      </g>
    </svg>