<svg xmlns="http://www.w3.org/2000/svg" viewBox="43 34 426 307">
      <g transform="scale(1 -1) translate(0 -375)">
        <path d="M171 341V299H43V256H255Q248 238 232.5 217.0Q217 196 195 178Q164 205 145 235H96Q116 192 163 150L59 67L85 34L196 122L306 34L332 67L229 150Q290 206 300 256H341V299H213V341ZM416 320Q394 320 378.5 304.5Q363 289 363.0 267.0Q363 245 378.5 229.0Q394 213 416.0 213.0Q438 213 453.5 229.0Q469 245 469.0 267.0Q469 289 453.5 304.5Q438 320 416 320ZM415 171Q393 171 377.5 155.0Q362 139 362.0 117.0Q362 95 377.5 79.5Q393 64 415.0 64.0Q437 64 453.0 79.5Q469 95 469.0 117.0Q469 139 453.0 155.0Q437 171 415 171Z" />
      </g>
    </svg>