<svg xmlns="http://www.w3.org/2000/svg" viewBox="43 -21 426 426">
      <g transform="scale(1 -1) translate(0 -384)">
        <path d="M85 277H171V363Q171 380 183.5 392.5Q196 405 213 405H299Q316 405 328.5 392.5Q341 380 341 363V277H427Q444 277 456.5 264.5Q469 252 469 235V149Q469 132 456.5 119.5Q444 107 427 107H341V21Q341 4 328.5 -8.5Q316 -21 299 -21H213Q196 -21 183.5 -8.5Q171 4 171 21V107H85Q68 107 55.5 119.5Q43 132 43 149V235Q43 252 55.5 264.5Q68 277 85 277ZM85 235V149H171V235Z" />
      </g>
    </svg>