<svg xmlns="http://www.w3.org/2000/svg" viewBox="21 64 470 256">
      <g transform="scale(1 -1) translate(0 -384)">
        <path d="M448 320H64Q46 320 33.5 307.5Q21 295 21 277V107Q21 89 33.5 76.5Q46 64 64 64H448Q466 64 478.5 76.5Q491 89 491 107V277Q491 295 478.5 307.5Q466 320 448 320ZM448 107H64V277H448ZM128 128H171V171H213V213H171V256H128V213H85V171H128ZM309 192Q323 192 332.0 182.5Q341 173 341.0 160.0Q341 147 332.0 137.5Q323 128 309.5 128.0Q296 128 286.5 137.5Q277 147 277.0 160.0Q277 173 286.5 182.5Q296 192 309 192ZM395 256Q408 256 417.5 246.5Q427 237 427.0 224.0Q427 211 417.5 201.5Q408 192 394.5 192.0Q381 192 372.0 201.5Q363 211 363.0 224.0Q363 237 372.0 246.5Q381 256 395 256Z" />
      </g>
    </svg>