<svg xmlns="http://www.w3.org/2000/svg" viewBox="21 -43 470 470">
      <g transform="scale(1 -1) translate(0 -384)">
        <path d="M107 277Q142 277 167.0 252.0Q192 227 192.0 192.0Q192 157 167.0 132.0Q142 107 106.5 107.0Q71 107 46.0 132.0Q21 157 21.0 192.0Q21 227 46.0 252.0Q71 277 107 277ZM256 427Q291 427 316.0 402.0Q341 377 341.0 341.5Q341 306 316.0 281.0Q291 256 256.0 256.0Q221 256 196.0 281.0Q171 306 171.0 341.5Q171 377 196.0 402.0Q221 427 256 427ZM256 128Q291 128 316.0 103.0Q341 78 341.0 42.5Q341 7 316.0 -18.0Q291 -43 256.0 -43.0Q221 -43 196.0 -18.0Q171 7 171.0 42.5Q171 78 196.0 103.0Q221 128 256 128ZM405 277Q441 277 466.0 252.0Q491 227 491.0 192.0Q491 157 466.0 132.0Q441 107 405.5 107.0Q370 107 345.0 132.0Q320 157 320.0 192.0Q320 227 345.0 252.0Q370 277 405 277Z" />
      </g>
    </svg>