<svg xmlns="http://www.w3.org/2000/svg" viewBox="21 64 470 256">
      <g transform="scale(1 -1) translate(0 -384)">
        <path d="M149 320H363Q397 320 426.5 303.0Q456 286 473.5 256.5Q491 227 491.0 192.0Q491 157 473.5 127.5Q456 98 426.5 81.0Q397 64 363 64Q335 64 310.0 75.5Q285 87 267 107H245Q227 87 202.0 75.5Q177 64 149 64Q115 64 85.5 81.0Q56 98 38.5 127.5Q21 157 21.0 192.0Q21 227 38.5 256.5Q56 286 85.5 303.0Q115 320 149 320ZM128 256V213H85V171H128V128H171V171H213V213H171V256ZM331 192Q317 192 308.0 182.5Q299 173 299.0 160.0Q299 147 308.0 137.5Q317 128 330.5 128.0Q344 128 353.5 137.5Q363 147 363.0 160.0Q363 173 353.5 182.5Q344 192 331 192ZM395 256Q381 256 372.0 246.5Q363 237 363.0 224.0Q363 211 372.0 201.5Q381 192 394.5 192.0Q408 192 417.5 201.5Q427 211 427.0 224.0Q427 237 417.5 246.5Q408 256 395 256Z" />
      </g>
    </svg>