<svg xmlns="http://www.w3.org/2000/svg" viewBox="21 64 470 256">
      <g transform="scale(1 -1) translate(0 -384)">
        <path d="M448 320H64Q46 320 33.5 307.5Q21 295 21 277V107Q21 89 33.5 76.5Q46 64 64 64H448Q466 64 478.5 76.5Q491 89 491 107V277Q491 295 478.5 307.5Q466 320 448 320ZM235 171H171V107H128V171H64V213H128V277H171V213H235ZM331 128Q317 128 308.0 137.5Q299 147 299.0 160.0Q299 173 308.0 182.5Q317 192 330.5 192.0Q344 192 353.5 182.5Q363 173 363.0 160.0Q363 147 353.5 137.5Q344 128 331 128ZM416 192Q403 192 393.5 201.5Q384 211 384.0 224.0Q384 237 393.5 246.5Q403 256 416.0 256.0Q429 256 438.5 246.5Q448 237 448.0 224.0Q448 211 438.5 201.5Q429 192 416 192Z" />
      </g>
    </svg>