<svg xmlns="http://www.w3.org/2000/svg" viewBox="21 -43 470 470">
      <g transform="scale(1 -1) translate(0 -384)">
        <path d="M107 277Q142 277 167.0 252.0Q192 227 192.0 192.0Q192 157 167.0 132.0Q142 107 106.5 107.0Q71 107 46.0 132.0Q21 157 21.0 192.0Q21 227 46.0 252.0Q71 277 107 277ZM256 427Q291 427 316.0 402.0Q341 377 341.0 341.5Q341 306 316.0 281.0Q291 256 256.0 256.0Q221 256 196.0 281.0Q171 306 171.0 341.5Q171 377 196.0 402.0Q221 427 256 427ZM256 128Q291 128 316.0 103.0Q341 78 341.0 42.5Q341 7 316.0 -18.0Q291 -43 256.0 -43.0Q221 -43 196.0 -18.0Q171 7 171.0 42.5Q171 78 196.0 103.0Q221 128 256 128ZM405 277Q441 277 466.0 252.0Q491 227 491.0 192.0Q491 157 466.0 132.0Q441 107 405.5 107.0Q370 107 345.0 132.0Q320 157 320.0 192.0Q320 227 345.0 252.0Q370 277 405 277ZM405 235Q388 235 375.5 222.5Q363 210 363.0 192.0Q363 174 375.5 161.5Q388 149 405.5 149.0Q423 149 435.5 161.5Q448 174 448.0 192.0Q448 210 435.5 222.5Q423 235 405 235ZM256 85Q238 85 225.5 72.5Q213 60 213.0 42.5Q213 25 225.5 12.5Q238 0 256.0 0.0Q274 0 286.5 12.5Q299 25 299.0 42.5Q299 60 286.5 72.5Q274 85 256 85ZM256 384Q238 384 225.5 371.5Q213 359 213.0 341.5Q213 324 225.5 311.5Q238 299 256.0 299.0Q274 299 286.5 311.5Q299 324 299.0 341.5Q299 359 286.5 371.5Q274 384 256 384Z" />
      </g>
    </svg>