<svg xmlns="http://www.w3.org/2000/svg" viewBox="43 -21 426 405">
      <g transform="scale(1 -1) translate(0 -363)">
        <path d="M448 320H469V363H448V384H384V363H128V384H64V363H43V320H64V21H43V-21H149V21H128V320H235V299H245V221Q237 219 232.5 212.0Q228 205 228 197Q228 182 241 175V149H254Q260 149 264.0 145.5Q268 142 268.0 136.5Q268 131 264.0 127.0Q260 123 253.5 123.0Q247 123 243 129Q240 134 235.0 135.5Q230 137 225.0 134.5Q220 132 218.5 126.5Q217 121 220 116Q225 107 234.5 102.0Q244 97 254 97Q271 97 282.0 108.5Q293 120 293 137Q293 149 286.0 159.0Q279 169 267 173V175Q277 180 280.0 190.0Q283 200 278 209Q274 216 267 220V299H277V320H384V21H363V-21H469V21H448ZM107 122V92L85 70V100ZM85 21V38L107 59V29L99 21ZM85 292 107 314V284L85 262ZM85 228 107 250V220L85 198ZM85 164 107 186V156L85 134V166ZM427 122V92L405 70V100ZM405 21V38L427 59V29L419 21ZM405 292 427 314V284L405 262ZM405 228 427 250V220L405 198ZM405 164 427 186V156L405 134V166Z" />
      </g>
    </svg>