<svg xmlns="http://www.w3.org/2000/svg" viewBox="43 -21 448 362">
      <g transform="scale(1 -1) translate(0 -320)">
        <path d="M465 107V139Q465 161 446.5 176.5Q428 192 405.0 192.0Q382 192 364.0 176.5Q346 161 346 139V107Q336 107 328.0 99.0Q320 91 320 81V6Q320 -5 328.0 -13.0Q336 -21 346 -21H463Q474 -21 482.5 -13.5Q491 -6 491 4V79Q491 90 483.0 98.5Q475 107 465 107ZM437 107H373V139Q373 151 382.5 158.5Q392 166 405.5 166.0Q419 166 428.0 158.5Q437 151 437 139ZM107 192H321Q307 173 304 149H107ZM343 213H85V21H43V256L256 341L469 256V212Q441 235 406.0 235.0Q371 235 343 213ZM277 21H107V64H277ZM107 128H298Q280 110 277 85H107Z" />
      </g>
    </svg>