<svg xmlns="http://www.w3.org/2000/svg" viewBox="43 -21 426 362">
      <g transform="scale(1 -1) translate(0 -320)">
        <path d="M444 107V139Q444 161 425.5 176.5Q407 192 384.0 192.0Q361 192 342.5 176.5Q324 161 324 139V107Q315 107 307.0 99.0Q299 91 299 81V6Q299 -5 306.5 -13.0Q314 -21 324 -21H442Q453 -21 461.0 -13.5Q469 -6 469 4V79Q469 90 461.5 98.5Q454 107 444 107ZM416 107H352V139Q352 151 361.5 158.5Q371 166 384.0 166.0Q397 166 406.5 158.5Q416 151 416 139ZM107 192H277V149H107ZM107 128H276Q259 110 256 85H107ZM256 21H107V64H256ZM299 213H85V21H43V256L192 341L341 256V225Q315 214 299 191Z" />
      </g>
    </svg>