<svg xmlns="http://www.w3.org/2000/svg" viewBox="85 -21 342 410">
      <g transform="scale(1 -1) translate(0 -368)">
        <path d="M344 260Q351 252 356 241L358 237Q369 210 362.5 181.5Q356 153 335 133Q317 116 291 110Q267 104 241 108Q218 111 197.5 124.5Q177 138 165 158Q157 173 154 186Q151 194 149 209Q148 235 158.0 260.0Q168 285 187 301Q178 281 180.0 259.0Q182 237 195 220L198 218Q202 213 207.5 215.5Q213 218 213 224L212 229Q198 266 208.5 305.0Q219 344 249 369Q268 384 287 389Q276 367 279.5 341.5Q283 316 301 300Q306 294 318 285Q328 278 332 273ZM296 161 295 162Q303 168 306.5 177.5Q310 187 310 197L309 204Q307 213 301 221Q298 226 288.5 234.0Q279 242 274.0 248.5Q269 255 265 265Q259 250 262 232L264 222Q268 206 267 197Q264 186 255.5 177.0Q247 168 233 165Q242 156 254.5 152.0Q267 148 279 152Q288 155 296 161ZM235 64V43Q235 34 241.0 27.5Q247 21 256.0 21.0Q265 21 271.0 27.5Q277 34 277 43V64H320V43Q320 34 326.5 27.5Q333 21 341.5 21.0Q350 21 356.5 27.5Q363 34 363 43V64Q382 64 404 51Q427 38 427 21V-21H85V21Q85 38 109 51Q130 64 149 64V43Q149 34 155.5 27.5Q162 21 170.5 21.0Q179 21 185.5 27.5Q192 34 192 43V64Z" />
      </g>
    </svg>