<svg xmlns="http://www.w3.org/2000/svg" viewBox="43 21 426 342">
      <g transform="scale(1 -1) translate(0 -384)">
        <path d="M43 363Q75 298 85.5 245.0Q96 192 85.5 139.0Q75 86 43 21H85Q118 86 128.5 139.0Q139 192 129.0 245.0Q119 298 87 363ZM128 363Q161 298 171.0 245.0Q181 192 171.0 139.0Q161 86 128 21H192Q238 21 285 63Q318 93 356 149Q375 128 405 128Q432 128 450.5 146.5Q469 165 469.0 192.0Q469 219 450.5 237.5Q432 256 405 256Q375 256 356 235Q314 294 284 321Q238 363 192 363ZM192 320Q226 320 260 286Q280 267 312 219Q325 200 331 192Q325 184 312 165Q280 117 260 98Q226 64 192 64Q243 192 192 320ZM405 213Q413 213 420.0 206.5Q427 200 427.0 192.0Q427 184 420.0 177.5Q413 171 404.5 171.0Q396 171 390.0 177.0Q384 183 384.0 191.5Q384 200 390.5 206.5Q397 213 405 213Z" />
      </g>
    </svg>