<svg xmlns="http://www.w3.org/2000/svg" viewBox="43 21 426 342">
      <g transform="scale(1 -1) translate(0 -384)">
        <path d="M43 363Q75 298 85.5 245.0Q96 192 85.5 139.0Q75 86 43 21H107Q175 21 237 57Q294 89 354 156Q363 143 376.5 135.5Q390 128 405 128Q432 128 450.5 146.5Q469 165 469.0 192.0Q469 219 450.5 237.5Q432 256 405 256Q390 256 376.5 248.5Q363 241 354 228Q294 295 237 327Q175 363 107 363ZM107 320Q166 320 221 287Q272 256 326 192Q272 128 221 97Q166 64 107 64Q155 192 107 320ZM405 213Q413 213 420.0 206.5Q427 200 427.0 192.0Q427 184 420.0 177.5Q413 171 404.5 171.0Q396 171 390.0 177.0Q384 183 384.0 191.5Q384 200 390.5 206.5Q397 213 405 213Z" />
      </g>
    </svg>