<svg xmlns="http://www.w3.org/2000/svg" viewBox="43 21 426 342">
      <g transform="scale(1 -1) translate(0 -384)">
        <path d="M43 363V21L346 171Q352 152 368.5 140.0Q385 128 405 128Q432 128 450.5 146.5Q469 165 469.0 192.0Q469 219 450.5 237.5Q432 256 405 256Q385 256 368.5 244.0Q352 232 346 213ZM85 292 292 192 85 92ZM405 213Q413 213 420.0 206.5Q427 200 427.0 192.0Q427 184 420.0 177.5Q413 171 404.5 171.0Q396 171 390.0 177.0Q384 183 384.0 191.5Q384 200 390.5 206.5Q397 213 405 213Z" />
      </g>
    </svg>