<svg xmlns="http://www.w3.org/2000/svg" viewBox="43 21 426 342">
      <g transform="scale(1 -1) translate(0 -384)">
        <path d="M43 363V21H213Q268 21 313.0 53.0Q358 85 375 137Q393 128 405 128Q432 128 450.5 146.5Q469 165 469.0 192.0Q469 219 450.5 237.5Q432 256 405 256Q390 256 375 247Q358 299 313.0 331.0Q268 363 213 363ZM85 320H213Q239 320 262.5 310.5Q286 301 304.0 283.0Q322 265 331.5 241.0Q341 217 341.0 192.0Q341 167 331.5 143.0Q322 119 304.0 101.0Q286 83 262.5 73.5Q239 64 213 64H85ZM405 213Q413 213 420.0 206.5Q427 200 427.0 192.0Q427 184 420.0 177.5Q413 171 404.5 171.0Q396 171 390.0 177.0Q384 183 384.0 191.5Q384 200 390.5 206.5Q397 213 405 213Z" />
      </g>
    </svg>