<svg xmlns="http://www.w3.org/2000/svg" viewBox="43 -21 426 426">
      <g transform="scale(1 -1) translate(0 -384)">
        <path d="M256 405Q298 405 337.5 389.0Q377 373 407.0 343.0Q437 313 453.0 273.5Q469 234 469.0 192.0Q469 150 453.0 110.5Q437 71 407.0 41.0Q377 11 337.5 -5.0Q298 -21 256.0 -21.0Q214 -21 174.5 -5.0Q135 11 105.0 41.0Q75 71 59.0 110.5Q43 150 43.0 192.0Q43 234 59.0 273.5Q75 313 105.0 343.0Q135 373 174.5 389.0Q214 405 256 405ZM256 363Q197 363 151.0 326.5Q105 290 91 235L299 27Q354 41 390.5 87.0Q427 133 427 192H315V160H388Q380 128 358.0 102.5Q336 77 305 65L129 241Q145 280 179.0 304.0Q213 328 256 328Q289 328 318.0 313.0Q347 298 367 271L393 294Q369 326 333.0 344.5Q297 363 256 363ZM85 192Q85 146 108.0 106.5Q131 67 170.5 44.0Q210 21 256 21Q258 21 85 192Z" />
      </g>
    </svg>