<svg xmlns="http://www.w3.org/2000/svg" viewBox="43 -21 426 426">
      <g transform="scale(1 -1) translate(0 -384)">
        <path d="M256 405Q298 405 337.5 389.0Q377 373 407.0 343.0Q437 313 453.0 273.5Q469 234 469.0 192.0Q469 150 453.0 110.5Q437 71 407.0 41.0Q377 11 337.5 -5.0Q298 -21 256.0 -21.0Q214 -21 174.5 -5.0Q135 11 105.0 41.0Q75 71 59.0 110.5Q43 150 43.0 192.0Q43 234 59.0 273.5Q75 313 105.0 343.0Q135 373 174.5 389.0Q214 405 256 405ZM256 363Q210 363 170.5 340.0Q131 317 108.0 277.5Q85 238 85 192Q85 154 100.0 121.0Q115 88 143 64Q165 85 194.5 96.0Q224 107 256 107Q320 107 369 64Q397 88 412.0 121.0Q427 154 427 192Q427 238 404.0 277.5Q381 317 341.5 340.0Q302 363 256 363ZM299 320Q308 320 314.0 314.0Q320 308 320.0 299.0Q320 290 314.0 283.5Q308 277 299.0 277.0Q290 277 283.5 283.5Q277 290 277.0 299.0Q277 308 283.5 314.0Q290 320 299 320ZM213 320Q222 320 228.5 314.0Q235 308 235.0 299.0Q235 290 228.5 283.5Q222 277 213.0 277.0Q204 277 198.0 283.5Q192 290 192.0 299.0Q192 308 198.0 314.0Q204 320 213 320ZM147 257Q150 257 155 256L230 225Q239 232 250.5 234.0Q262 236 272 231Q288 225 295.0 208.5Q302 192 295.5 176.0Q289 160 272.5 153.0Q256 146 240 153Q229 157 222.0 166.0Q215 175 213 186L139 216Q131 219 127.5 227.5Q124 236 127 244Q130 250 135.5 253.5Q141 257 147 257ZM363 256Q372 256 378.0 250.0Q384 244 384.0 235.0Q384 226 378.0 219.5Q372 213 363.0 213.0Q354 213 347.5 219.5Q341 226 341.0 235.0Q341 244 347.5 250.0Q354 256 363 256Z" />
      </g>
    </svg>