<svg xmlns="http://www.w3.org/2000/svg" viewBox="43 -21 426 426">
      <g transform="scale(1 -1) translate(0 -384)">
        <path d="M256 405Q298 405 337.5 389.0Q377 373 407.0 343.0Q437 313 453.0 273.5Q469 234 469.0 192.0Q469 150 453.0 110.5Q437 71 407.0 41.0Q377 11 337.5 -5.0Q298 -21 256.0 -21.0Q214 -21 174.5 -5.0Q135 11 105.0 41.0Q75 71 59.0 110.5Q43 150 43.0 192.0Q43 234 59.0 273.5Q75 313 105.0 343.0Q135 373 174.5 389.0Q214 405 256 405ZM256 363Q210 363 170.5 340.0Q131 317 108.0 277.5Q85 238 85 192Q85 154 100.0 121.0Q115 88 143 64Q165 85 194.5 96.0Q224 107 256 107Q320 107 369 64Q397 88 412.0 121.0Q427 154 427 192Q427 238 404.0 277.5Q381 317 341.5 340.0Q302 363 256 363ZM213 322Q219 322 224.5 318.5Q230 315 233 308L262 235Q274 233 282.5 225.5Q291 218 296 208Q302 191 295.0 175.0Q288 159 271.5 152.5Q255 146 239.0 153.0Q223 160 216 176Q212 187 214.0 198.0Q216 209 223 218L193 293Q189 301 192.5 309.0Q196 317 205 321Q208 322 213 322ZM299 320Q308 320 314.0 314.0Q320 308 320.0 299.0Q320 290 314.0 283.5Q308 277 299.0 277.0Q290 277 283.5 283.5Q277 290 277.0 299.0Q277 308 283.5 314.0Q290 320 299 320ZM363 256Q372 256 378.0 250.0Q384 244 384.0 235.0Q384 226 378.0 219.5Q372 213 363.0 213.0Q354 213 347.5 219.5Q341 226 341.0 235.0Q341 244 347.5 250.0Q354 256 363 256ZM149 256Q158 256 164.5 250.0Q171 244 171.0 235.0Q171 226 164.5 219.5Q158 213 149.0 213.0Q140 213 134.0 219.5Q128 226 128.0 235.0Q128 244 134.0 250.0Q140 256 149 256Z" />
      </g>
    </svg>