<svg xmlns="http://www.w3.org/2000/svg" viewBox="43 -21 426 426">
      <g transform="scale(1 -1) translate(0 -384)">
        <path d="M256 405Q214 405 174.5 389.0Q135 373 105.0 343.0Q75 313 59.0 273.5Q43 234 43.0 192.0Q43 150 59.0 110.5Q75 71 105.0 41.0Q135 11 174.5 -5.0Q214 -21 256.0 -21.0Q298 -21 337.5 -5.0Q377 11 407.0 41.0Q437 71 453.0 110.5Q469 150 469.0 192.0Q469 234 453.0 273.5Q437 313 407.0 343.0Q377 373 337.5 389.0Q298 405 256 405ZM256 363Q302 363 341.5 340.0Q381 317 404.0 277.5Q427 238 427 192Q427 154 412.0 121.0Q397 88 369 64Q347 85 317.5 96.0Q288 107 256 107Q192 107 143 64Q115 88 100.0 121.0Q85 154 85 192Q85 238 108.0 277.5Q131 317 170.5 340.0Q210 363 256 363ZM299 322Q293 322 287.5 318.5Q282 315 279 308L250 235Q238 233 229.5 225.5Q221 218 216 208Q210 191 217.0 175.0Q224 159 240.5 152.5Q257 146 273.0 153.0Q289 160 296 176Q300 187 298.0 198.0Q296 209 289 218L319 293Q323 301 319.5 309.0Q316 317 307 321Q304 322 299 322ZM213 320Q204 320 198.0 314.0Q192 308 192.0 299.0Q192 290 198.0 283.5Q204 277 213.0 277.0Q222 277 228.5 283.5Q235 290 235.0 299.0Q235 308 228.5 314.0Q222 320 213 320ZM149 256Q140 256 134.0 250.0Q128 244 128.0 235.0Q128 226 134.0 219.5Q140 213 149.0 213.0Q158 213 164.5 219.5Q171 226 171.0 235.0Q171 244 164.5 250.0Q158 256 149 256ZM363 256Q354 256 347.5 250.0Q341 244 341.0 235.0Q341 226 347.5 219.5Q354 213 363.0 213.0Q372 213 378.0 219.5Q384 226 384.0 235.0Q384 244 378.0 250.0Q372 256 363 256Z" />
      </g>
    </svg>