<svg xmlns="http://www.w3.org/2000/svg" viewBox="43 -21 426 426">
      <g transform="scale(1 -1) translate(0 -384)">
        <path d="M256 405Q214 405 174.5 389.0Q135 373 105.0 343.0Q75 313 59.0 273.5Q43 234 43.0 192.0Q43 150 59.0 110.5Q75 71 105.0 41.0Q135 11 174.5 -5.0Q214 -21 256.0 -21.0Q298 -21 337.5 -5.0Q377 11 407.0 41.0Q437 71 453.0 110.5Q469 150 469.0 192.0Q469 234 453.0 273.5Q437 313 407.0 343.0Q377 373 337.5 389.0Q298 405 256 405ZM256 363Q302 363 341.5 340.0Q381 317 404.0 277.5Q427 238 427 192Q427 154 412.0 121.0Q397 88 369 64Q347 85 317.5 96.0Q288 107 256 107Q192 107 143 64Q115 88 100.0 121.0Q85 154 85 192Q85 238 108.0 277.5Q131 317 170.5 340.0Q210 363 256 363ZM213 320Q204 320 198.0 314.0Q192 308 192.0 299.0Q192 290 198.0 283.5Q204 277 213.0 277.0Q222 277 228.5 283.5Q235 290 235.0 299.0Q235 308 228.5 314.0Q222 320 213 320ZM299 320Q290 320 283.5 314.0Q277 308 277.0 299.0Q277 290 283.5 283.5Q290 277 299.0 277.0Q308 277 314.0 283.5Q320 290 320.0 299.0Q320 308 314.0 314.0Q308 320 299 320ZM365 257Q362 257 357 256L282 225Q273 232 261.5 234.0Q250 236 240 231Q224 225 217.0 208.5Q210 192 216.5 176.0Q223 160 239.5 153.0Q256 146 272 153Q283 157 290.0 166.0Q297 175 299 186L373 216Q381 219 384.5 227.5Q388 236 385 244Q382 250 376.5 253.5Q371 257 365 257ZM149 256Q140 256 134.0 250.0Q128 244 128.0 235.0Q128 226 134.0 219.5Q140 213 149.0 213.0Q158 213 164.5 219.5Q171 226 171.0 235.0Q171 244 164.5 250.0Q158 256 149 256Z" />
      </g>
    </svg>