<svg xmlns="http://www.w3.org/2000/svg" viewBox="43 -21 428 429">
      <g transform="scale(1 -1) translate(0 -387)">
        <path d="M49 15 254 220 224 250 209 235Q202 229 193.5 229.0Q185 229 179 235L163 250Q157 257 157.0 265.5Q157 274 163 281L284 401Q290 408 299.0 408.0Q308 408 314 401L329 386Q336 380 336.0 371.0Q336 362 329 356L314 341L345 311Q351 317 359.5 317.0Q368 317 374.5 311.0Q381 305 381.0 296.0Q381 287 375 281L405 250L420 266Q426 272 435.0 272.0Q444 272 450 266L465 250Q471 244 471.0 235.0Q471 226 465 220L345 100Q338 93 329.0 93.0Q320 93 314 100L299 115Q293 121 293.0 130.0Q293 139 299 145L314 160L284 190L79 -15Q73 -21 64.0 -21.0Q55 -21 49.0 -15.0Q43 -9 43.0 0.0Q43 9 49 15ZM427 43Q444 43 456.5 30.5Q469 18 469 0V-21H256V0Q256 18 268.5 30.5Q281 43 299 43Z" />
      </g>
    </svg>