<svg xmlns="http://www.w3.org/2000/svg" viewBox="128 -21 256 384">
      <g transform="scale(1 -1) translate(0 -342)">
        <path d="M256 363Q291 363 320.5 345.5Q350 328 367.0 298.5Q384 269 384 235Q384 187 353.5 151.5Q323 116 277 108V64H320V21H277V-21H235V21H192V64H235V108Q189 116 158.5 151.5Q128 187 128 235Q128 269 145.0 298.5Q162 328 191.5 345.5Q221 363 256 363ZM256 320Q221 320 196.0 295.0Q171 270 171.0 234.5Q171 199 196.0 174.0Q221 149 256.0 149.0Q291 149 316.0 174.0Q341 199 341.0 234.5Q341 270 316.0 295.0Q291 320 256 320Z" />
      </g>
    </svg>