<svg xmlns="http://www.w3.org/2000/svg" viewBox="149 -21 214 405">
      <g transform="scale(1 -1) translate(0 -363)">
        <path d="M277 384H235V336L193 360L172 323L213 299L172 275L193 237L235 262V190Q198 182 173.5 153.0Q149 124 149 85Q149 56 163.5 31.5Q178 7 202.5 -7.0Q227 -21 256.0 -21.0Q285 -21 309.5 -7.0Q334 7 348.5 31.5Q363 56 363 85Q363 124 338.5 153.0Q314 182 277 190V262L319 237L340 275L299 299L340 323L319 360L277 336ZM256 21Q230 21 211.0 40.0Q192 59 192.0 85.5Q192 112 211.0 130.5Q230 149 256.0 149.0Q282 149 301.0 130.5Q320 112 320.0 85.5Q320 59 301.0 40.0Q282 21 256 21Z" />
      </g>
    </svg>