<svg xmlns="http://www.w3.org/2000/svg" viewBox="64 0 384 384">
      <g transform="scale(1 -1) translate(0 -384)">
        <path d="M192 256Q233 256 266 232L375 341H277V384H448V213H405V311L296 203Q320 169 320 128Q320 93 303.0 63.5Q286 34 256.5 17.0Q227 0 192.0 0.0Q157 0 127.5 17.0Q98 34 81.0 63.5Q64 93 64.0 128.0Q64 163 81.0 192.5Q98 222 127.5 239.0Q157 256 192 256ZM192 213Q157 213 132.0 188.0Q107 163 107.0 128.0Q107 93 132.0 68.0Q157 43 192.0 43.0Q227 43 252.0 68.0Q277 93 277.0 128.0Q277 163 252.0 188.0Q227 213 192 213Z" />
      </g>
    </svg>