<svg xmlns="http://www.w3.org/2000/svg" viewBox="149 -21 214 405">
      <g transform="scale(1 -1) translate(0 -363)">
        <path d="M149 384Q149 359 160.5 336.5Q172 314 192 299Q172 284 160.5 261.5Q149 239 149 213Q149 175 173.0 145.5Q197 116 235 109V64H192V21H235V-21H277V21H320V64H277V109Q315 116 339.0 145.5Q363 175 363 213Q363 239 351.5 261.5Q340 284 320 299Q340 314 351.5 336.5Q363 359 363 384H320Q320 357 301.5 338.5Q283 320 256.0 320.0Q229 320 210.5 338.5Q192 357 192 384ZM256 277Q283 277 301.5 258.5Q320 240 320.0 213.5Q320 187 301.5 168.0Q283 149 256.0 149.0Q229 149 210.5 168.0Q192 187 192.0 213.5Q192 240 210.5 258.5Q229 277 256 277Z" />
      </g>
    </svg>