<svg xmlns="http://www.w3.org/2000/svg" viewBox="52 -21 408 426">
      <g transform="scale(1 -1) translate(0 -384)">
        <path d="M219 405Q207 405 197 403Q160 397 128 374Q100 355 81.5 328.0Q63 301 60.5 277.5Q58 254 77 233Q86 223 103 213Q113 206 135 196L151 187Q110 153 89 131Q72 113 62.0 95.5Q52 78 52 65V63Q52 39 59 26V25Q71 2 95.0 -11.5Q119 -25 153 -20Q200 -14 265 23Q320 55 374 99Q403 123 426 147Q447 169 454 181Q459 191 460.0 206.0Q461 221 457 233Q452 253 423.0 285.0Q394 317 355 346Q313 377 276 394Q250 405 219 405ZM242 343Q250 343 256 341Q277 336 298 318Q321 297 318 279Q315 253 295.0 241.5Q275 230 247 234Q235 236 221 244Q206 253 197 266Q186 282 187 301Q189 323 207 334Q222 343 242 343ZM241 306Q232 306 229 301Q216 282 233 268Q234 272 243.5 271.5Q253 271 262.5 267.5Q272 264 272 260Q286 271 283.0 281.5Q280 292 266.5 299.0Q253 306 241 306Z" />
      </g>
    </svg>