<svg xmlns="http://www.w3.org/2000/svg" viewBox="107 -43 298 427">
      <g transform="scale(1 -1) translate(0 -341)">
        <path d="M213 256Q213 265 219.5 271.0Q226 277 235.0 277.0Q244 277 250.0 271.0Q256 265 256 256V161L282 158L387 111Q396 107 400.5 99.5Q405 92 405 82V-11Q405 -24 395.5 -33.0Q386 -42 373 -43H235Q222 -43 213 -33L109 56L125 73Q131 79 140 79H145L213 43ZM235 341Q270 341 295.0 316.0Q320 291 320 256Q320 232 308.5 212.5Q297 193 277 182V208Q299 227 299.0 255.0Q299 283 280.0 301.5Q261 320 234.5 320.0Q208 320 189.5 301.5Q171 283 171.0 255.0Q171 227 192 208V182Q172 193 160.5 212.5Q149 232 149 256Q149 291 174.0 316.0Q199 341 235 341ZM235 384Q269 384 298.5 367.0Q328 350 345.5 320.5Q363 291 363 256Q363 229 352.5 205.5Q342 182 323 164L302 173Q320 188 330.5 209.5Q341 231 341 256Q341 285 327.0 309.5Q313 334 288.5 348.5Q264 363 235.0 363.0Q206 363 181.5 348.5Q157 334 142.5 309.5Q128 285 128 256Q128 224 145.5 197.5Q163 171 192 158V135Q154 149 130.5 182.0Q107 215 107 256Q107 291 124.0 320.5Q141 350 170.5 367.0Q200 384 235 384Z" />
      </g>
    </svg>