<svg xmlns="http://www.w3.org/2000/svg" viewBox="109 -43 296 427">
      <g transform="scale(1 -1) translate(0 -341)">
        <path d="M405 125V-11Q405 -24 395.5 -33.0Q386 -42 373 -43H235Q222 -43 213 -33L109 56L125 73Q131 79 140 79H145L213 43V256Q213 265 219.5 271.0Q226 277 235.0 277.0Q244 277 250.0 271.0Q256 265 256 256V299Q256 308 262.0 314.0Q268 320 277.0 320.0Q286 320 292.5 314.0Q299 308 299 299V192L387 153Q395 149 400.0 141.5Q405 134 405 125ZM320 225V251Q327 257 332 266Q341 281 341 299Q341 325 322.5 344.0Q304 363 278.5 363.0Q253 363 234 345L231 342Q226 338 223.0 333.0Q220 328 218 322L216 317Q196 311 183.5 294.0Q171 277 171.0 255.5Q171 234 184 217Q186 214 191 209L192 208V182Q172 193 160.5 212.5Q149 232 149.0 256.5Q149 281 163.0 302.0Q177 323 199 334Q210 356 231.0 370.0Q252 384 277 384Q313 384 338.0 359.0Q363 334 363 299Q363 275 351.5 255.5Q340 236 320 225Z" />
      </g>
    </svg>