<svg xmlns="http://www.w3.org/2000/svg" viewBox="43 -43 426 470">
      <g transform="scale(1 -1) translate(0 -384)">
        <path d="M429 365 469 405V299H363L407 343Q390 365 349.5 380.0Q309 395 256.0 395.0Q203 395 162.5 380.0Q122 365 105 343L149 299H43V405L83 365Q107 393 153.0 410.0Q199 427 256.0 427.0Q313 427 359.0 410.0Q405 393 429 365ZM421 101V97L405 -15Q403 -27 394.5 -35.0Q386 -43 374 -43H229Q216 -43 207 -33L101 72L118 89Q125 96 135 96H140L213 80V309Q213 322 222.5 331.5Q232 341 245.0 341.0Q258 341 267.5 331.5Q277 322 277 309V181H294Q296 181 302 180L305 179L402 131Q421 122 421 101Z" />
      </g>
    </svg>