<svg xmlns="http://www.w3.org/2000/svg" viewBox="43 -21 426 426">
      <g transform="scale(1 -1) translate(0 -384)">
        <path d="M427 405H85Q68 405 55.5 392.5Q43 380 43 363V21Q43 4 55.5 -8.5Q68 -21 85 -21H427Q444 -21 456.5 -8.5Q469 4 469 21V363Q469 380 456.5 392.5Q444 405 427 405ZM235 363Q270 363 295.0 338.0Q320 313 320 277Q320 254 308.5 234.5Q297 215 277 204V230Q299 249 299.0 276.5Q299 304 280.0 322.5Q261 341 234.5 341.0Q208 341 189.5 322.5Q171 304 171.0 276.5Q171 249 192 230V204Q172 215 160.5 234.5Q149 254 149 277Q149 313 174.0 338.0Q199 363 235 363ZM384 53Q384 40 374.5 31.0Q365 22 352 21H235Q222 21 213 31L128 120L144 137Q150 143 160 143H164L213 107V277Q213 286 219.5 292.5Q226 299 234.5 299.0Q243 299 249.5 292.5Q256 286 256 277V182L282 179L366 132Q374 129 379.0 121.0Q384 113 384 104Z" />
      </g>
    </svg>