<svg xmlns="http://www.w3.org/2000/svg" viewBox="61 0 387 384">
      <g transform="scale(1 -1) translate(0 -384)">
        <path d="M98 301Q127 330 134.0 327.0Q141 324 138 313Q135 307 128 295L124 288Q67 205 67 160Q67 118 96 96Q108 87 123.0 84.5Q138 82 152.5 86.5Q167 91 184 108Q195 118 217 145V146Q245 179 260 194Q286 219 304 219Q326 219 334 207Q339 201 341 184V181Q304 175 276 153Q252 135 239 109Q227 86 227 66Q227 39 247.0 19.5Q267 0 295 0Q316 0 335 11Q359 25 374 51Q392 83 396 131H448V184H395Q392 218 375 242Q351 273 309 273Q278 273 245 251Q222 235 204 213Q196 203 177 180Q160 160 155 155L153 152Q139 137 131.5 137.0Q124 137 121.0 149.0Q118 161 123.5 177.0Q129 193 143 219Q154 239 163 253Q178 275 183 286Q191 303 191 323Q191 354 171 371Q156 384 137.5 384.0Q119 384 100 373Q88 366 79 357Q65 343 61 337ZM296 52Q291 52 285.5 56.5Q280 61 280.0 68.0Q280 75 286 86Q293 99 305 109Q320 121 341 127Q337 88 322 68Q310 52 296 52Z" />
      </g>
    </svg>