<svg xmlns="http://www.w3.org/2000/svg" viewBox="21 -43 448 470">
      <g transform="scale(1 -1) translate(0 -384)">
        <path d="M85 427 149 363H107V299H64V363H21ZM85 128 21 192H64V256H107V192H149ZM277 256Q277 265 283.5 271.0Q290 277 299.0 277.0Q308 277 314.0 271.0Q320 265 320 256V161L346 158L451 111Q460 107 464.5 99.5Q469 92 469 82V-11Q469 -24 459.5 -33.0Q450 -42 437 -43H299Q286 -43 277 -33L173 56L189 73Q195 79 204 79H209L277 43ZM299 341Q321 341 341.0 329.5Q361 318 372 299Q390 268 381.0 234.0Q372 200 341 182V208Q363 227 363 256Q363 283 344.0 301.5Q325 320 298.5 320.0Q272 320 253.5 301.5Q235 283 235 256Q235 227 256 208V182Q236 194 224.5 213.5Q213 233 213 256Q213 291 238.0 316.0Q263 341 299 341ZM192 149Q215 149 235 138V112Q216 128 190.5 128.0Q165 128 146.5 109.5Q128 91 128 64Q128 48 135.0 34.5Q142 21 154 12L199 -21H192Q157 -21 132.0 4.0Q107 29 107.0 64.0Q107 99 132.0 124.0Q157 149 192 149Z" />
      </g>
    </svg>