<svg xmlns="http://www.w3.org/2000/svg" viewBox="109 -43 296 384">
      <g transform="scale(1 -1) translate(0 -298)">
        <path d="M213 256Q213 265 219.5 271.0Q226 277 235.0 277.0Q244 277 250.0 271.0Q256 265 256 256V161L282 158L387 111Q396 107 400.5 99.5Q405 92 405 82V-11Q405 -24 395.5 -33.0Q386 -42 373 -43H235Q222 -43 213 -33L109 56L125 73Q131 79 140 79H145L213 43ZM235 341Q270 341 295.0 316.0Q320 291 320 256Q320 232 308.5 212.5Q297 193 277 182V208Q299 227 299.0 255.0Q299 283 280.0 301.5Q261 320 234.5 320.0Q208 320 189.5 301.5Q171 283 171.0 255.0Q171 227 192 208V182Q172 193 160.5 212.5Q149 232 149 256Q149 291 174.0 316.0Q199 341 235 341Z" />
      </g>
    </svg>