<svg xmlns="http://www.w3.org/2000/svg" viewBox="43 -21 426 426">
      <g transform="scale(1 -1) translate(0 -384)">
        <path d="M277 341Q313 341 338.0 316.0Q363 291 363 256Q363 232 351.5 212.5Q340 193 320 182V208Q341 227 341.0 255.0Q341 283 322.5 301.5Q304 320 277.5 320.0Q251 320 232.0 301.5Q213 283 213.0 255.0Q213 227 235 208V182Q215 193 203.5 212.5Q192 232 192 256Q192 291 217.0 316.0Q242 341 277 341ZM427 11Q426 -2 417.0 -11.5Q408 -21 395 -21H277Q265 -21 256 -12L171 77L186 94Q193 101 203 101H207L256 64V256Q256 265 262.5 271.0Q269 277 277.5 277.0Q286 277 292.5 271.0Q299 265 299 256V161L324 158L409 111Q417 107 422.0 99.5Q427 92 427 82ZM427 405H85Q68 405 55.5 392.5Q43 380 43 363V192Q43 174 55.5 161.5Q68 149 85 149H171V192H85V363H427V192H384V149H427V150L428 149Q445 149 457.0 161.5Q469 174 469 192V363Q469 380 456.5 392.5Q444 405 427 405Z" />
      </g>
    </svg>