<svg xmlns="http://www.w3.org/2000/svg" viewBox="109 -43 296 384">
      <g transform="scale(1 -1) translate(0 -298)">
        <path d="M213 256Q213 265 219.5 271.0Q226 277 235.0 277.0Q244 277 250.0 271.0Q256 265 256 256V161L282 158L387 111Q396 107 400.5 99.5Q405 92 405 82V-11Q405 -24 395.5 -33.0Q386 -42 373 -43H235Q222 -43 213 -33L109 56L125 73Q131 79 140 79H145L213 43ZM192 183V256Q192 274 204.5 286.5Q217 299 234.5 299.0Q252 299 264.5 286.5Q277 274 277 256V183Q297 194 308.5 213.5Q320 233 320 256Q320 291 295.0 316.0Q270 341 234.5 341.0Q199 341 174.0 316.0Q149 291 149 256Q149 233 161.0 213.5Q173 194 192 183Z" />
      </g>
    </svg>