<svg xmlns="http://www.w3.org/2000/svg" viewBox="107 -43 298 470">
      <g transform="scale(1 -1) translate(0 -384)">
        <path d="M405 125V-11Q405 -24 395.5 -33.0Q386 -42 373 -43H235Q222 -43 213 -33L109 56L125 73Q131 79 140 79H145L213 43V256Q213 265 219.5 271.0Q226 277 235.0 277.0Q244 277 250.0 271.0Q256 265 256 256V299Q256 308 262.0 314.0Q268 320 277.0 320.0Q286 320 292.5 314.0Q299 308 299 299V192L387 153Q395 149 400.0 141.5Q405 134 405 125ZM277 384Q313 384 338.0 359.0Q363 334 363 299Q363 275 351.5 255.5Q340 236 320 225V251Q341 270 341.0 297.5Q341 325 322.5 344.0Q304 363 277 363Q256 363 239.0 350.0Q222 337 216 317Q196 311 183.5 294.0Q171 277 171 256Q171 227 192 208V182Q172 193 160.5 212.5Q149 232 149.0 256.5Q149 281 163.0 302.0Q177 323 199 334Q210 356 231.0 370.0Q252 384 277 384ZM277 427Q312 427 341.5 409.5Q371 392 388.0 362.5Q405 333 405 299Q405 266 390.0 238.0Q375 210 349 193L326 204Q352 217 368.0 242.5Q384 268 384.0 298.0Q384 328 369.5 352.5Q355 377 330.5 391.0Q306 405 277.0 405.0Q248 405 222.5 390.0Q197 375 184 350Q158 336 143.0 311.0Q128 286 128 256Q128 224 145.5 197.5Q163 171 192 158V135Q154 149 130.5 182.0Q107 215 107 256Q107 290 123.5 319.0Q140 348 168 365Q185 393 214.0 410.0Q243 427 277 427Z" />
      </g>
    </svg>