<svg xmlns="http://www.w3.org/2000/svg" viewBox="24 -37 448 448">
      <g transform="scale(1 -1) translate(0 -374)">
        <path d="M177 339 146 370Q196 405 256 405Q308 405 352.0 379.5Q396 354 422.0 309.5Q448 265 448 213V68L405 111V213Q405 254 385.0 288.0Q365 322 330.5 342.5Q296 363 256 363Q213 363 177 339ZM472 -10 445 -37 375 33 320 -21 256 43 192 -21 128 43 64 -21V213Q64 268 93 315L24 384L51 411ZM344 63 211 197Q202 192 192 192Q174 192 161.5 204.5Q149 217 149 235Q149 245 154 254L124 284Q107 251 107 213V82L128 103L192 39L256 103L320 39ZM320 277Q303 277 291.0 266.0Q279 255 277 239L324 192Q340 194 351.5 206.0Q363 218 363.0 235.0Q363 252 350.5 264.5Q338 277 320 277Z" />
      </g>
    </svg>