<svg xmlns="http://www.w3.org/2000/svg" viewBox="64 -21 384 426">
      <g transform="scale(1 -1) translate(0 -384)">
        <path d="M256 405Q204 405 160.0 379.5Q116 354 90.0 309.5Q64 265 64 213V-21L128 43L192 -21L256 43L320 -21L384 43L448 -21V213Q448 265 422.0 309.5Q396 354 352.0 379.5Q308 405 256 405ZM192 277Q210 277 222.5 264.5Q235 252 235.0 234.5Q235 217 222.5 204.5Q210 192 192.0 192.0Q174 192 161.5 204.5Q149 217 149.0 234.5Q149 252 161.5 264.5Q174 277 192 277ZM320 277Q338 277 350.5 264.5Q363 252 363.0 234.5Q363 217 350.5 204.5Q338 192 320.0 192.0Q302 192 289.5 204.5Q277 217 277.0 234.5Q277 252 289.5 264.5Q302 277 320 277Z" />
      </g>
    </svg>