<svg xmlns="http://www.w3.org/2000/svg" viewBox="21 -21 470 426">
      <g transform="scale(1 -1) translate(0 -384)">
        <path d="M469 192V21Q469 4 456.5 -8.5Q444 -21 427 -21H85Q68 -21 55.5 -8.5Q43 4 43 21V192Q34 192 27.5 198.0Q21 204 21 213V277Q21 295 33.5 307.5Q46 320 64 320H132Q128 330 128 341Q128 368 146.5 386.5Q165 405 192 405Q208 405 221.5 398.0Q235 391 244 379L256 363L268 379Q277 391 290.5 398.0Q304 405 320 405Q347 405 365.5 386.5Q384 368 384 341Q384 330 380 320H448Q466 320 478.5 307.5Q491 295 491 277V213Q491 204 484.5 198.0Q478 192 469 192ZM85 21H235V192H85ZM427 21V192H277V21ZM192 363Q183 363 177.0 356.5Q171 350 171.0 341.0Q171 332 177.0 326.0Q183 320 192.0 320.0Q201 320 207.0 326.0Q213 332 213.0 341.0Q213 350 207.0 356.5Q201 363 192 363ZM320 363Q311 363 305.0 356.5Q299 350 299.0 341.0Q299 332 305.0 326.0Q311 320 320.0 320.0Q329 320 335.0 326.0Q341 332 341.0 341.0Q341 350 335.0 356.5Q329 363 320 363ZM64 277V235H235V277ZM277 277V235H448V277Z" />
      </g>
    </svg>