<svg xmlns="http://www.w3.org/2000/svg" viewBox="21 -52 470 463">
      <g transform="scale(1 -1) translate(0 -359)">
        <path d="M24 384 88 319H64Q46 319 33.5 306.5Q21 294 21 276V234Q21 225 27.5 218.5Q34 212 43 212H195L217 191H43V20Q43 3 55.5 -9.5Q68 -22 85 -22H427Q428 -22 429 -21L460 -52L487 -25L51 411ZM235 173 277 130V20H235ZM469 191V47L325 191ZM448 319H380Q389 344 380.0 365.5Q371 387 350.0 397.5Q329 408 306.5 404.0Q284 400 268 378L256 362L244 378Q225 405 193 406Q178 406 163.0 398.5Q148 391 139 378L172 345Q173 352 178.5 357.0Q184 362 192.5 362.0Q201 362 207.0 355.5Q213 349 213.5 340.5Q214 332 207.5 326.0Q201 320 196 320L240 276H277V239L304 212H469Q478 212 484.5 218.5Q491 225 491 234V276Q491 294 478.5 306.5Q466 319 448 319ZM335 325Q329 319 320.0 319.0Q311 319 305.0 325.0Q299 331 299.0 340.0Q299 349 305.0 355.5Q311 362 320.0 362.0Q329 362 335.0 355.5Q341 349 341.5 340.5Q342 332 335 325Z" />
      </g>
    </svg>