<svg xmlns="http://www.w3.org/2000/svg" viewBox="43 -21 448 447">
      <g transform="scale(1 -1) translate(0 -405)">
        <path d="M469 215 411 249Q431 266 433.5 289.0Q436 312 423.5 332.0Q411 352 389.0 359.5Q367 367 343 356L324 348L322 369Q319 401 292 418Q275 428 253.5 426.5Q232 425 215.5 411.5Q199 398 195 373L137 407Q121 416 104.0 411.5Q87 407 79 391L57 355Q53 347 55.0 338.5Q57 330 65 325L231 229L263 285L300 263L268 208L434 112Q442 108 450.5 110.0Q459 112 464 120L485 157Q494 172 489.5 189.0Q485 206 469 215ZM264 341Q255 339 247.5 343.5Q240 348 237.5 356.0Q235 364 239.5 372.0Q244 380 252.5 382.5Q261 385 269.0 380.5Q277 376 279.0 367.5Q281 359 277.0 351.0Q273 343 264 341ZM375 277Q366 275 358.5 279.5Q351 284 348.5 292.0Q346 300 350.5 308.0Q355 316 363.5 318.5Q372 321 380.0 316.5Q388 312 390.0 303.5Q392 295 387.5 287.0Q383 279 375 277ZM445 88Q458 88 469 96V21Q469 4 456.5 -8.5Q444 -21 427 -21H85Q68 -21 55.5 -8.5Q43 4 43 21V213H217L235 203V21H277V178L424 94Q433 88 445 88Z" />
      </g>
    </svg>