<svg xmlns="http://www.w3.org/2000/svg" viewBox="43 -21 426 426">
      <g transform="scale(1 -1) translate(0 -384)">
        <path d="M55 222 179 346 215 309Q211 296 216.5 282.5Q222 269 235 262V144Q225 138 219.0 128.0Q213 118 213 107Q213 89 225.5 76.5Q238 64 256.0 64.0Q274 64 286.5 76.5Q299 89 299 107Q299 118 293.0 128.0Q287 138 277 144V247L321 203Q320 199 320 192Q320 174 332.5 161.5Q345 149 362.5 149.0Q380 149 392.5 161.5Q405 174 405.0 192.0Q405 210 392.5 222.5Q380 235 363 235Q355 235 352 233L297 288Q301 303 294.0 317.5Q287 332 272.5 337.5Q258 343 245 340L209 376L226 393Q238 405 256.0 405.0Q274 405 286 393L457 222Q469 210 469.0 192.0Q469 174 457 162L286 -9Q274 -21 256.0 -21.0Q238 -21 226 -9L55 162Q43 174 43.0 192.0Q43 210 55 222Z" />
      </g>
    </svg>