<svg xmlns="http://www.w3.org/2000/svg" viewBox="42 -5 427 394">
      <g transform="scale(1 -1) translate(0 -384)">
        <path d="M468 168 446 237 400 377Q398 382 393.5 385.5Q389 389 383.0 389.0Q377 389 372.5 385.5Q368 382 366 377L324 245H189L146 377Q144 382 139.5 385.5Q135 389 129 389Q123 389 118.5 385.5Q114 382 112 377L44 168Q41 160 43.5 152.5Q46 145 53 140L250 -3Q256 -8 262 -3L459 140Q466 145 468.5 152.5Q471 160 468 168ZM174 225 229 56 97 225ZM283 56 336 218 338 225H415L296 72ZM383 364 422 245H345ZM317 225 279 108 256 38 195 225ZM129 364 167 245H90ZM65 156Q62 159 63 162L80 214L204 55ZM447 156 308 55 432 214 449 162Q450 159 447 156Z" />
      </g>
    </svg>