<svg xmlns="http://www.w3.org/2000/svg" viewBox="162 -21 186 426">
      <g transform="scale(1 -1) translate(0 -384)">
        <path d="M171 405H341Q334 391 332 381Q329 365 332 341Q334 331 339 308Q346 275 348 260Q351 233 347 219Q344 209 335 200Q330 195 318.0 186.5Q306 178 300 172Q290 163 284 152Q272 128 270.5 87.5Q269 47 279 23Q286 6 300 0Q308 -4 323 -5H329Q337 -6 340 -11Q341 -14 341 -21H171Q171 -14 172 -11Q175 -6 183 -5H189Q204 -4 212 0Q226 6 233 23Q243 47 241.5 87.5Q240 128 228 152Q222 163 212 172Q206 178 194.0 186.5Q182 195 177 200Q168 209 165 219Q161 233 164 260Q166 275 173 308Q178 331 180 341Q183 365 180 381Q178 391 171 405ZM213 363Q213 332 206 299H304Q299 333 299 363Z" />
      </g>
    </svg>