<svg xmlns="http://www.w3.org/2000/svg" viewBox="24 -37 448 448">
      <g transform="scale(1 -1) translate(0 -374)">
        <path d="M180 336 149 367Q173 384 203 384Q236 384 263 363H299Q334 363 359.0 338.0Q384 313 384 277V235H427Q435 235 441.5 228.5Q448 222 448 213V68L405 111V192H363V154L240 276Q245 277 256 277H341Q341 295 328.5 307.5Q316 320 299 320H245Q238 330 226.5 335.5Q215 341 203.0 341.0Q191 341 180 336ZM472 -10 445 -37 386 21H363V-21H128V149Q93 149 68.0 174.0Q43 199 43 235Q43 260 57.0 281.5Q71 303 95 313L24 384L51 411ZM183 224 130 277H128Q110 277 97.5 264.5Q85 252 85.0 234.5Q85 217 97.5 204.5Q110 192 128 192H138Q150 194 160 199Q174 207 181 221Z" />
      </g>
    </svg>