<svg xmlns="http://www.w3.org/2000/svg" viewBox="149 -21 214 426">
      <g transform="scale(1 -1) translate(0 -384)">
        <path d="M331 -6 313 -4Q301 -3 291.0 4.5Q281 12 277 24Q260 88 277 152Q315 160 339.0 189.0Q363 218 363 256Q363 275 352 314Q344 341 331 376L320 405H192L181 376Q168 341 160 314Q149 275 149 256Q149 218 173.0 188.5Q197 159 235 151Q252 87 235 23Q231 12 221.5 4.5Q212 -3 200 -4L179 -7Q175 -8 173.0 -11.5Q171 -15 171 -21H341Q341 -12 336 -8Q333 -6 331 -6ZM201 299 223 363H289L311 299Z" />
      </g>
    </svg>