<svg xmlns="http://www.w3.org/2000/svg" viewBox="5 85 501 192">
      <g transform="scale(1 -1) translate(0 -362)">
        <path d="M64 235Q56 235 51.5 229.5Q47 224 48 216L58 153Q60 142 68.0 135.0Q76 128 85 128H149Q160 128 169.5 135.5Q179 143 181 153L204 221Q205 226 202.0 230.5Q199 235 192 235ZM149 85H85Q59 85 39.0 103.0Q19 121 16 146L6 210Q2 238 19.5 257.5Q37 277 64 277H192Q220 277 236 257Q240 252 242 246Q256 249 270 246Q272 252 276 257Q292 277 320 277H448Q475 277 492.5 257.5Q510 238 506 211L496 145Q493 120 472.5 102.5Q452 85 427 85H363Q338 85 316.5 102.0Q295 119 289 143L270 201Q264 205 256.0 205.0Q248 205 242 201L223 141Q217 118 195.5 101.5Q174 85 149 85ZM320 235Q313 235 310.0 230.5Q307 226 308 220L330 155Q333 144 342.5 136.0Q352 128 363 128H427Q436 128 444.0 135.0Q452 142 453 152L464 217Q465 224 460.5 229.5Q456 235 448 235Z" />
      </g>
    </svg>