<svg xmlns="http://www.w3.org/2000/svg" viewBox="171 -21 170 426">
      <g transform="scale(1 -1) translate(0 -384)">
        <path d="M171 405H341Q334 343 330 312Q323 264 315 238Q309 220 295 195Q280 167 276 148Q269 119 269.5 80.5Q270 42 279 21Q286 6 300 0Q308 -4 322 -5H329Q337 -6 340 -11Q341 -14 341 -21H171Q171 -14 172 -11Q175 -6 183 -5H190Q204 -4 212 0Q226 6 233 21Q242 42 242.5 80.5Q243 119 236 148Q232 167 217 195Q203 220 197 238Q189 264 182 312Q178 343 171 405ZM213 363Q216 325 218 299H294Q296 325 299 363Z" />
      </g>
    </svg>