<svg xmlns="http://www.w3.org/2000/svg" viewBox="107 -21 298 426">
      <g transform="scale(1 -1) translate(0 -384)">
        <path d="M277 276V405H235V276Q199 270 169.5 249.5Q140 229 123.5 197.0Q107 165 107 128Q107 87 127.0 53.0Q147 19 181.0 -1.0Q215 -21 256.0 -21.0Q297 -21 331.0 -1.0Q365 19 385.0 53.0Q405 87 405 128Q405 165 388.5 197.0Q372 229 342.5 249.5Q313 270 277 276ZM256 21Q227 21 202.5 35.5Q178 50 163.5 74.5Q149 99 149 128Q149 163 171 192H341Q363 163 363 128Q363 99 348.5 74.5Q334 50 309.5 35.5Q285 21 256 21Z" />
      </g>
    </svg>