<svg xmlns="http://www.w3.org/2000/svg" viewBox="99 -21 328 413">
      <g transform="scale(1 -1) translate(0 -371)">
        <path d="M370 392 340 361Q361 340 372.5 313.0Q384 286 384 256Q384 215 364.0 181.0Q344 147 309.5 127.0Q275 107 235 107Q205 107 177.5 118.0Q150 129 129 150L99 120Q122 97 151.5 83.0Q181 69 213 65V21H128V-21H341V21H256V65Q304 71 343.0 97.5Q382 124 404.5 166.0Q427 208 427 256Q427 294 412.0 329.5Q397 365 370 392ZM235 373Q211 373 189.5 364.0Q168 355 151.5 338.5Q135 322 126.0 300.5Q117 279 117.0 256.0Q117 233 126.0 211.5Q135 190 151.5 173.5Q168 157 189.5 148.0Q211 139 235 139Q267 139 293.5 154.5Q320 170 336.0 197.0Q352 224 352 256Q352 279 343.0 300.5Q334 322 317.5 338.5Q301 355 279.5 364.0Q258 373 235 373ZM235 331Q266 331 287.5 309.0Q309 287 309.0 256.0Q309 225 287.5 203.0Q266 181 235.0 181.0Q204 181 182.0 203.0Q160 225 160.0 256.0Q160 287 182.0 309.0Q204 331 235 331Z" />
      </g>
    </svg>