<svg xmlns="http://www.w3.org/2000/svg" viewBox="82 -21 347 426">
      <g transform="scale(1 -1) translate(0 -384)">
        <path d="M393 405Q362 405 340 386Q321 369 313.5 343.0Q306 317 313.0 298.0Q320 279 338.0 279.0Q356 279 379.5 298.0Q403 317 418.0 343.0Q433 369 429 386Q424 405 393 405ZM256 390Q253 390 251 390Q234 387 226 372Q218 359 219.5 341.0Q221 323 228.5 309.0Q236 295 245.5 294.5Q255 294 264.0 308.5Q273 323 277.0 342.5Q281 362 276.0 376.0Q271 390 256 390ZM169 355Q165 355 161 353Q142 346 142 324Q142 306 154.0 288.5Q166 271 176.5 273.0Q187 275 191.0 296.0Q195 317 190 335Q184 356 169 355ZM105 302Q100 302 94 298Q79 288 83 269Q87 252 100.5 239.0Q114 226 123.0 230.0Q132 234 132.0 252.0Q132 270 124.5 285.5Q117 301 105 302ZM284 261Q248 261 213 249Q175 237 149 215Q121 190 113 158Q105 121 127.0 79.0Q149 37 187 8Q229 -21 272 -21Q294 -21 316.5 -9.0Q339 3 355.5 23.5Q372 44 377 69Q379 82 367.0 88.0Q355 94 337.5 92.0Q320 90 306.5 83.0Q293 76 295 67Q297 52 290.0 42.5Q283 33 271.0 32.0Q259 31 246 41Q226 56 228 71Q229 84 247 98Q258 107 288 125Q330 151 346 167Q373 193 368 220Q365 240 341.5 250.5Q318 261 284 261Z" />
      </g>
    </svg>