<svg xmlns="http://www.w3.org/2000/svg" viewBox="21 21 470 311">
      <g transform="scale(1 -1) translate(0 -353)">
        <path d="M384 235H331L307 271L337 292L314 327L218 263L241 228L272 248L296 211L277 192H218L124 332L89 308L125 254Q80 245 50.5 209.5Q21 174 21 128V85H64Q64 59 82.5 40.0Q101 21 128.0 21.0Q155 21 173.5 40.0Q192 59 192 85H320Q320 59 338.5 40.0Q357 21 384.0 21.0Q411 21 429.5 40.0Q448 59 448 85H491V128Q491 157 476.5 181.5Q462 206 437.5 220.5Q413 235 384 235ZM128 53Q115 53 105.5 62.5Q96 72 96.0 85.5Q96 99 105.5 108.0Q115 117 128.0 117.0Q141 117 150.5 108.0Q160 99 160.0 85.5Q160 72 150.5 62.5Q141 53 128 53ZM384 53Q371 53 361.5 62.5Q352 72 352.0 85.5Q352 99 361.5 108.0Q371 117 384.0 117.0Q397 117 406.5 108.0Q416 99 416.0 85.5Q416 72 406.5 62.5Q397 53 384 53Z" />
      </g>
    </svg>