<svg xmlns="http://www.w3.org/2000/svg" viewBox="0 -21 469 426">
      <g transform="scale(1 -1) translate(0 -384)">
        <path d="M469 331Q469 362 447.5 383.5Q426 405 395.0 405.0Q364 405 342.0 383.5Q320 362 320 331V320Q320 293 301.5 274.5Q283 256 256 256Q243 256 230 264Q222 269 206 283Q185 301 172 308Q151 320 128 320Q93 320 68.0 295.0Q43 270 43 235V213H85V235Q85 252 97.5 264.5Q110 277 128 277Q141 277 152 270Q161 265 177 251Q193 234 213.5 224.5Q234 215 256 213Q285 213 309.5 227.5Q334 242 348.5 266.5Q363 291 363 320V331Q363 344 372.0 353.5Q381 363 394.5 363.0Q408 363 417.5 353.5Q427 344 427 331Q422 303 409 279Q388 238 384 192Q387 147 410 109Q423 88 427 64Q427 46 414.5 33.5Q402 21 384.0 21.0Q366 21 353.5 33.5Q341 46 341 64Q341 97 317.5 120.5Q294 144 261.0 144.0Q228 144 204.5 120.5Q181 97 181 64V53Q181 40 172.0 30.5Q163 21 149 21Q123 21 104.0 40.0Q85 59 85 85V128H128V171H0V128H43V85Q43 56 57.0 31.5Q71 7 95.5 -7.0Q120 -21 150.0 -21.0Q180 -21 202.0 0.5Q224 22 224 53V64Q224 79 235.0 90.0Q246 101 261.5 101.0Q277 101 288.0 90.0Q299 79 299 64Q299 29 324.0 4.0Q349 -21 384.0 -21.0Q419 -21 444.0 4.0Q469 29 469 64Q469 79 462 97Q458 107 447 130Q437 150 433 161Q427 178 427.0 192.0Q427 206 433 226Q437 237 448.0 261.0Q459 285 463 297Q469 316 469 331Z" />
      </g>
    </svg>