<svg xmlns="http://www.w3.org/2000/svg" viewBox="43 0 426 384">
      <g transform="scale(1 -1) translate(0 -384)">
        <path d="M85 384H427Q444 384 456.5 371.5Q469 359 469 341V43Q469 25 456.5 12.5Q444 0 427 0H85Q68 0 55.5 12.5Q43 25 43 43V341Q43 359 55.5 371.5Q68 384 85 384ZM223 330Q215 330 209.5 324.0Q204 318 204 310V244Q204 236 209.5 230.5Q215 225 223 225H289Q297 225 302.5 230.5Q308 236 308 244V310Q308 318 302.5 324.0Q297 330 289 330ZM236 304H276Q278 304 280.0 302.0Q282 300 282 297V258Q282 255 280.0 253.0Q278 251 276 251H236Q234 251 232.0 253.0Q230 255 230 258V297Q230 300 232.0 302.0Q234 304 236 304ZM105 330Q97 330 91.0 324.0Q85 318 85 310V244Q85 236 91.0 230.5Q97 225 105 225H151V251H118Q115 251 113.5 253.0Q112 255 112 258V297Q112 300 113.5 302.0Q115 304 118 304H157Q160 304 162.0 302.0Q164 300 164 297V218Q164 216 162.0 214.0Q160 212 157 212H85V185H171Q179 185 184.5 191.0Q190 197 190 205V310Q190 318 184.5 324.0Q179 330 171 330ZM341 330Q333 330 327.5 324.0Q322 318 322 310V244Q322 236 327.5 230.5Q333 225 341 225H387V251H355Q352 251 350.0 253.0Q348 255 348 258V297Q348 300 350.0 302.0Q352 304 355 304H394Q397 304 398.5 302.0Q400 300 400 297V218Q400 216 398.5 214.0Q397 212 394 212H322V185H407Q415 185 421.0 191.0Q427 197 427 205V310Q427 318 421.0 324.0Q415 330 407 330ZM210 159Q202 159 196.0 153.5Q190 148 190 140V74Q190 66 196.0 60.0Q202 54 210 54H276Q284 54 289.5 60.0Q295 66 295 74V140Q295 148 289.5 153.5Q284 159 276 159ZM223 133H263Q266 133 267.5 131.0Q269 129 269 126V87Q269 84 267.0 82.0Q265 80 263 80H223Q220 80 218.5 82.0Q217 84 217 87V126Q217 129 218.5 131.0Q220 133 223 133ZM105 159Q97 159 91.0 153.5Q85 148 85 140V74Q85 66 91.0 60.0Q97 54 105 54H177V80H118Q115 80 113.5 82.0Q112 84 112 87V126Q112 129 113.5 131.0Q115 133 118 133H177V159ZM328 159Q320 159 314.0 153.5Q308 148 308 140V54H335V126Q335 129 337.0 131.0Q339 133 341 133H355V54H381V133H400V54H427V159Z" />
      </g>
    </svg>