<svg xmlns="http://www.w3.org/2000/svg" viewBox="21 -21 470 405">
      <g transform="scale(1 -1) translate(0 -363)">
        <path d="M424 184 389 341H405V384H64V299H21V256H64V180Q44 162 32.5 137.5Q21 113 21 85V43H64Q64 16 82.5 -2.5Q101 -21 128.0 -21.0Q155 -21 173.5 -2.5Q192 16 192 43H320Q320 16 338.5 -2.5Q357 -21 384.0 -21.0Q411 -21 429.5 -2.5Q448 16 448 43H491V85Q491 118 472.5 145.0Q454 172 424 184ZM128 11Q115 11 105.5 20.0Q96 29 96.0 42.5Q96 56 105.5 65.5Q115 75 128.0 75.0Q141 75 150.5 65.5Q160 56 160.0 42.5Q160 29 150.5 20.0Q141 11 128 11ZM331 192 307 229 337 249 314 284 218 220 241 185 272 205 296 168 277 149H218L107 299V341H346L379 192ZM384 11Q371 11 361.5 20.0Q352 29 352.0 42.5Q352 56 361.5 65.5Q371 75 384.0 75.0Q397 75 406.5 65.5Q416 56 416.0 42.5Q416 29 406.5 20.0Q397 11 384 11Z" />
      </g>
    </svg>