<svg xmlns="http://www.w3.org/2000/svg" viewBox="107 -21 294 424">
      <g transform="scale(1 -1) translate(0 -382)">
        <path d="M149 43V85H363V43H320Q303 43 290.0 30.0Q277 17 277 0V-21H235V0Q235 17 222.0 30.0Q209 43 192 43ZM235 320Q235 329 241.0 335.0Q247 341 256.0 341.0Q265 341 271.0 335.0Q277 329 277.0 320.0Q277 311 271.0 305.0Q265 299 256.0 299.0Q247 299 241.0 305.0Q235 311 235 320ZM277 277Q277 286 283.5 292.5Q290 299 298.5 299.0Q307 299 313.5 292.5Q320 286 320.0 277.5Q320 269 313.5 262.5Q307 256 298.5 256.0Q290 256 283.5 262.5Q277 269 277 277ZM192 277Q192 286 198.5 292.5Q205 299 213.5 299.0Q222 299 228.5 292.5Q235 286 235.0 277.5Q235 269 228.5 262.5Q222 256 213.5 256.0Q205 256 198.5 262.5Q192 269 192 277ZM361 361Q318 403 256.0 403.0Q194 403 151 361Q130 339 118.5 312.5Q107 286 107 256Q107 194 149.5 151.5Q192 109 254.0 109.0Q316 109 358.5 151.5Q401 194 401 256Q401 323 361 361ZM331 181Q299 149 256 149Q235 149 215.0 157.5Q195 166 181 181Q149 217 149 256Q149 302 181 331Q217 363 256 363Q302 363 331 331Q363 295 363 256Q363 210 331 181Z" />
      </g>
    </svg>