<svg xmlns="http://www.w3.org/2000/svg" viewBox="139 0 245 384">
      <g transform="scale(1 -1) translate(0 -384)">
        <path d="M363 176Q346 149 319.0 133.0Q292 117 261 117Q228 117 200.0 135.0Q172 153 155.5 183.5Q139 214 139.0 250.5Q139 287 155.5 317.5Q172 348 200.0 366.0Q228 384 261 384Q292 384 319.0 368.5Q346 353 363 326V384H384V123Q384 68 362 39Q345 15 310 6Q287 0 245 0Q207 0 182 24Q159 47 152 85H174Q180 56 197 39Q215 21 245 21H247Q281 21 298 25Q327 32 343 51Q363 76 363 123ZM261 363Q234 363 210.5 348.0Q187 333 173.5 307.0Q160 281 160.0 250.5Q160 220 173.5 194.5Q187 169 210.5 154.0Q234 139 261.5 139.0Q289 139 312.0 154.0Q335 169 349.0 194.5Q363 220 363.0 250.5Q363 281 349.0 307.0Q335 333 312.0 348.0Q289 363 261 363Z" />
      </g>
    </svg>