<svg xmlns="http://www.w3.org/2000/svg" viewBox="43 0 426 405">
      <g transform="scale(1 -1) translate(0 -405)">
        <path d="M384 43Q366 43 353.5 55.5Q341 68 341.0 85.5Q341 103 353.5 115.5Q366 128 384.0 128.0Q402 128 414.5 115.5Q427 103 427.0 85.5Q427 68 414.5 55.5Q402 43 384 43ZM384 171Q349 171 324.0 146.0Q299 121 299.0 85.5Q299 50 324.0 25.0Q349 0 384.0 0.0Q419 0 444.0 25.0Q469 50 469.0 85.5Q469 121 444.0 146.0Q419 171 384 171ZM256 211Q239 211 227.0 199.0Q215 187 215.0 170.5Q215 154 227.0 142.0Q239 130 256.0 130.0Q273 130 285.0 142.0Q297 154 297.0 170.5Q297 187 285.0 199.0Q273 211 256 211ZM128 43Q110 43 97.5 55.5Q85 68 85.0 85.5Q85 103 97.5 115.5Q110 128 128.0 128.0Q146 128 158.5 115.5Q171 103 171.0 85.5Q171 68 158.5 55.5Q146 43 128 43ZM128 171Q93 171 68.0 146.0Q43 121 43.0 85.5Q43 50 68.0 25.0Q93 0 128.0 0.0Q163 0 188.0 25.0Q213 50 213.0 85.5Q213 121 188.0 146.0Q163 171 128 171ZM256 363Q274 363 286.5 350.5Q299 338 299.0 320.0Q299 302 286.5 289.5Q274 277 256.0 277.0Q238 277 225.5 289.5Q213 302 213.0 320.0Q213 338 225.5 350.5Q238 363 256 363ZM256 235Q291 235 316.0 260.0Q341 285 341.0 320.0Q341 355 316.0 380.0Q291 405 256.0 405.0Q221 405 196.0 380.0Q171 355 171.0 320.0Q171 285 196.0 260.0Q221 235 256 235Z" />
      </g>
    </svg>