<svg xmlns="http://www.w3.org/2000/svg" viewBox="21 -43 491 470">
      <g transform="scale(1 -1) translate(0 -384)">
        <path d="M107 235Q89 235 76.5 222.5Q64 210 64.0 192.0Q64 174 76.5 161.5Q89 149 106.5 149.0Q124 149 136.5 161.5Q149 174 149.0 192.0Q149 210 136.5 222.5Q124 235 107 235ZM107 107Q71 107 46.0 132.0Q21 157 21.0 192.0Q21 227 46.0 252.0Q71 277 106.5 277.0Q142 277 167.0 252.0Q192 227 192.0 192.0Q192 157 167.0 132.0Q142 107 107 107ZM224 213H299V277L384 192L299 107V171H224ZM107 320Q93 320 79 317Q110 367 163.0 397.0Q216 427 278.5 427.0Q341 427 395.0 395.5Q449 364 480.5 310.0Q512 256 512.0 192.0Q512 128 480.5 74.0Q449 20 395.0 -11.5Q341 -43 278.5 -43.0Q216 -43 163.0 -13.0Q110 17 79 67Q93 64 107 64Q132 64 155 73Q178 49 210.0 35.0Q242 21 277 21Q324 21 363.0 44.0Q402 67 425.0 106.5Q448 146 448.0 192.0Q448 238 425.0 277.5Q402 317 363.0 340.0Q324 363 277 363Q242 363 210.0 349.0Q178 335 155 311Q132 320 107 320Z" />
      </g>
    </svg>