<svg xmlns="http://www.w3.org/2000/svg" viewBox="43 -21 426 426">
      <g transform="scale(1 -1) translate(0 -384)">
        <path d="M85 405H427Q444 405 456.5 392.5Q469 380 469 363V78L370 -21H85Q68 -21 55.5 -8.5Q43 4 43 21V363Q43 380 55.5 392.5Q68 405 85 405ZM363 85V16L432 85ZM213 43H299V64H320V171Q340 186 351.5 208.0Q363 230 363 256Q363 285 348.5 309.5Q334 334 309.5 348.5Q285 363 256.0 363.0Q227 363 202.5 348.5Q178 334 163.5 309.5Q149 285 149 256Q149 230 160.5 208.0Q172 186 192 171V64H213ZM299 85H213V128H299ZM256 341Q291 341 316.0 316.0Q341 291 341 256Q341 232 329.5 212.5Q318 193 299 182V149H213V182Q194 193 182.5 212.5Q171 232 171 256Q171 291 196.0 316.0Q221 341 256 341Z" />
      </g>
    </svg>