<svg xmlns="http://www.w3.org/2000/svg" viewBox="43 -21 426 426">
      <g transform="scale(1 -1) translate(0 -384)">
        <path d="M320 192Q302 192 289.5 179.5Q277 167 277.0 149.5Q277 132 289.5 119.5Q302 107 320.0 107.0Q338 107 350.5 119.5Q363 132 363.0 149.5Q363 167 350.5 179.5Q338 192 320 192ZM256 21Q210 21 170.5 44.0Q131 67 108.0 106.5Q85 146 85.0 192.0Q85 238 108.0 277.5Q131 317 170.5 340.0Q210 363 256.0 363.0Q302 363 341.5 340.0Q381 317 404.0 277.5Q427 238 427.0 192.0Q427 146 404.0 106.5Q381 67 341.5 44.0Q302 21 256 21ZM256 405Q214 405 174.5 389.0Q135 373 105.0 343.0Q75 313 59.0 273.5Q43 234 43.0 192.0Q43 150 59.0 110.5Q75 71 105.0 41.0Q135 11 174.5 -5.0Q214 -21 256.0 -21.0Q298 -21 337.5 -5.0Q377 11 407.0 41.0Q437 71 453.0 110.5Q469 150 469.0 192.0Q469 234 453.0 273.5Q437 313 407.0 343.0Q377 373 337.5 389.0Q298 405 256 405ZM299 256Q299 274 286.5 286.5Q274 299 256.0 299.0Q238 299 225.5 286.5Q213 274 213.0 256.0Q213 238 225.5 225.5Q238 213 256.0 213.0Q274 213 286.5 225.5Q299 238 299 256ZM192 192Q174 192 161.5 179.5Q149 167 149.0 149.5Q149 132 161.5 119.5Q174 107 192.0 107.0Q210 107 222.5 119.5Q235 132 235.0 149.5Q235 167 222.5 179.5Q210 192 192 192Z" />
      </g>
    </svg>