<svg xmlns="http://www.w3.org/2000/svg" viewBox="21 0 470 384">
      <g transform="scale(1 -1) translate(0 -384)">
        <path d="M491 133Q491 97 473.0 66.5Q455 36 424.5 18.0Q394 0 357 0H155Q118 0 87.5 18.0Q57 36 39.0 66.5Q21 97 21 133Q21 167 37.0 196.0Q53 225 79 243Q88 283 114.0 315.0Q140 347 177.0 365.5Q214 384 256.0 384.0Q298 384 335.0 365.5Q372 347 398.0 315.0Q424 283 433 243Q460 225 475.5 196.0Q491 167 491 133ZM355 85Q376 85 390.5 100.0Q405 115 405.0 135.5Q405 156 391.0 171.0Q377 186 357 187V197Q357 225 343.5 248.0Q330 271 306.5 285.0Q283 299 256 299Q234 299 214.0 289.5Q194 280 180 264Q228 255 259 216L203 160Q196 172 184.0 179.5Q172 187 157 187Q136 187 121.5 172.0Q107 157 107.0 136.5Q107 116 121.0 101.0Q135 86 155 85Z" />
      </g>
    </svg>