<svg xmlns="http://www.w3.org/2000/svg" viewBox="0 -21 512 426">
      <g transform="scale(1 -1) translate(0 -384)">
        <path d="M491 405H21Q12 405 6.0 399.0Q0 393 0 384V0Q0 -9 6.0 -15.0Q12 -21 21 -21H491Q500 -21 506.0 -15.0Q512 -9 512 0V384Q512 393 506.0 399.0Q500 405 491 405ZM469 21H427V43H320V21H43V363H469ZM220 241Q220 256 230.5 266.5Q241 277 256.0 277.0Q271 277 281.5 266.5Q292 256 292.0 241.0Q292 226 281.5 215.0Q271 204 256.0 204.0Q241 204 230.5 215.0Q220 226 220 241ZM122 207Q122 219 130.0 227.0Q138 235 149.5 235.0Q161 235 169.0 227.0Q177 219 177.0 207.5Q177 196 169.0 188.0Q161 180 149.5 180.0Q138 180 130.0 188.0Q122 196 122 207ZM335 207Q335 219 343.0 227.0Q351 235 362.5 235.0Q374 235 382.0 227.0Q390 219 390.0 207.5Q390 196 382.0 188.0Q374 180 362.5 180.0Q351 180 343.0 188.0Q335 196 335 207ZM427 125V107H85V125Q85 140 105.0 150.5Q125 161 149 161Q167 161 183 155Q196 166 215.5 173.0Q235 180 256.0 180.0Q277 180 296.5 173.0Q316 166 329 155Q345 161 363 161Q387 161 407.0 150.5Q427 140 427 125Z" />
      </g>
    </svg>