<svg xmlns="http://www.w3.org/2000/svg" viewBox="43 -1 426 364">
      <g transform="scale(1 -1) translate(0 -362)">
        <path d="M363 363Q392 363 416.5 348.5Q441 334 455.0 309.5Q469 285 469 256Q469 234 461.0 214.5Q453 195 438 180L256 -1L74 180Q59 195 51.0 214.5Q43 234 43 256Q43 285 57.0 309.5Q71 334 95.5 348.5Q120 363 149 363Q171 363 190.5 354.5Q210 346 225 332L256 300L287 332Q302 346 321.5 354.5Q341 363 363 363ZM333 286 196 149 256 89 393 226Q405 238 405.0 256.0Q405 274 392.5 286.5Q380 299 362.5 299.0Q345 299 333 286ZM179 286Q167 299 149.5 299.0Q132 299 119.5 286.5Q107 274 107.0 256.0Q107 238 119 226L150 195L211 255Z" />
      </g>
    </svg>