<svg xmlns="http://www.w3.org/2000/svg" viewBox="43 -21 426 426">
      <g transform="scale(1 -1) translate(0 -384)">
        <path d="M256 189Q227 233 195.0 252.0Q163 271 139.0 265.5Q115 260 99 239Q85 221 85 196V192Q85 166 93 141Q94 137 95.0 137.0Q96 137 97 141Q101 161 115.5 170.0Q130 179 153.5 169.5Q177 160 201 129Q242 74 297 62Q368 52 404 107Q415 129 419 141Q422 150 416 143Q401 123 376.0 117.0Q351 111 317.0 129.0Q283 147 256 189ZM362 274Q313 348 254 359Q208 366 154 327Q147 322 147.5 321.5Q148 321 156 325Q236 364 310 243Q326 216 343.5 201.0Q361 186 377.0 183.0Q393 180 405.0 184.0Q417 188 427 197Q427 218 420 239Q404 235 392.0 241.0Q380 247 362 274ZM256 405Q343 405 406.0 342.0Q469 279 469.0 192.0Q469 105 406.0 42.0Q343 -21 256.0 -21.0Q169 -21 106.0 42.0Q43 105 43.0 192.0Q43 279 106.0 342.0Q169 405 256 405Z" />
      </g>
    </svg>