<svg xmlns="http://www.w3.org/2000/svg" viewBox="43 43 426 277">
      <g transform="scale(1 -1) translate(0 -363)">
        <path d="M442 320H68Q58 320 50.5 312.0Q43 304 43 293V70Q43 59 50.5 51.0Q58 43 69 43H171Q179 43 186.0 47.5Q193 52 195 60L225 134Q229 143 237.5 149.0Q246 155 256.0 155.0Q266 155 274.5 149.0Q283 143 287 134L317 60Q320 52 326.5 47.5Q333 43 340 43H442Q454 43 461.5 51.0Q469 59 469 70V293Q469 304 461.5 312.0Q454 320 442 320ZM154 137Q135 137 121.0 151.5Q107 166 107.0 186.0Q107 206 120.5 220.5Q134 235 154.0 235.0Q174 235 187.5 220.5Q201 206 201.0 186.0Q201 166 187.5 151.5Q174 137 154 137ZM358 137Q338 137 324.5 151.5Q311 166 311.0 186.0Q311 206 324.5 220.5Q338 235 357.5 235.0Q377 235 391.0 220.5Q405 206 405.0 186.0Q405 166 391.0 151.5Q377 137 358 137Z" />
      </g>
    </svg>