<svg xmlns="http://www.w3.org/2000/svg" viewBox="43 -21 426 426">
      <g transform="scale(1 -1) translate(0 -384)">
        <path d="M377 294V264Q377 253 369.5 245.5Q362 238 350.5 238.0Q339 238 331.5 245.5Q324 253 324 264V294Q324 305 331.5 313.0Q339 321 350.5 321.0Q362 321 369.5 313.0Q377 305 377 294ZM283 270V115Q283 104 275.0 96.0Q267 88 256.0 88.0Q245 88 237.0 96.0Q229 104 229 115V270Q229 281 237.0 288.5Q245 296 256.0 296.0Q267 296 275.0 288.5Q283 281 283 270ZM469 207V177Q469 166 461.5 158.5Q454 151 443.0 151.0Q432 151 424.0 158.5Q416 166 416 177V207Q416 218 424.0 225.5Q432 233 443.0 233.0Q454 233 461.5 225.5Q469 218 469 207ZM96 207V177Q96 166 88.0 158.5Q80 151 69.0 151.0Q58 151 50.5 158.5Q43 166 43 177V207Q43 218 50.5 225.5Q58 233 69.0 233.0Q80 233 88.0 225.5Q96 218 96 207ZM188 120V90Q188 79 180.5 71.5Q173 64 161.5 64.0Q150 64 142.5 71.5Q135 79 135 90V120Q135 131 142.5 139.0Q150 147 161.5 147.0Q173 147 180.5 139.0Q188 131 188 120ZM283 35V5Q283 -6 275.0 -13.5Q267 -21 256.0 -21.0Q245 -21 237.0 -13.5Q229 -6 229 5V35Q229 46 237.0 54.0Q245 62 256.0 62.0Q267 62 275.0 54.0Q283 46 283 35ZM283 379V349Q283 338 275.0 330.0Q267 322 256.0 322.0Q245 322 237.0 330.0Q229 338 229 349V379Q229 390 237.0 397.5Q245 405 256.0 405.0Q267 405 275.0 397.5Q283 390 283 379ZM377 185V90Q377 79 369.5 71.5Q362 64 350.5 64.0Q339 64 331.5 71.5Q324 79 324 90V185Q324 196 331.5 203.5Q339 211 350.5 211.0Q362 211 369.5 203.5Q377 196 377 185ZM188 294V199Q188 188 180.5 180.5Q173 173 161.5 173.0Q150 173 142.5 180.5Q135 188 135 199V294Q135 305 142.5 313.0Q150 321 161.5 321.0Q173 321 180.5 313.0Q188 305 188 294Z" />
      </g>
    </svg>