<svg xmlns="http://www.w3.org/2000/svg" viewBox="43 -21 426 426">
      <g transform="scale(1 -1) translate(0 -384)">
        <path d="M469 267Q469 245 453.5 229.0Q438 213 416.0 213.0Q394 213 378.5 229.0Q363 245 363 267Q363 245 347.0 229.0Q331 213 309.0 213.0Q287 213 271.5 229.0Q256 245 256 267Q256 245 240.5 229.0Q225 213 203.0 213.0Q181 213 165.0 229.0Q149 245 149 267Q149 245 133.5 229.0Q118 213 96.0 213.0Q74 213 58.5 229.0Q43 245 43 267L72 382L75 388Q78 395 83 399Q91 405 100 405H412Q421 405 429 399Q434 395 437 388L440 382ZM448 188V21Q448 4 435.5 -8.5Q423 -21 405 -21H107Q89 -21 76.5 -8.5Q64 4 64 21V188Q79 181 96 181Q126 181 149 200Q173 181 203.0 181.0Q233 181 256 200Q280 181 309.5 181.0Q339 181 363 200Q386 181 416 181Q433 181 448 188ZM405 78Q405 87 404 92V95H340V70H379Q376 61 372 57Q361 46 345.0 46.0Q329 46 317.5 57.5Q306 69 306.0 85.5Q306 102 317.0 113.0Q328 124 344.0 124.0Q360 124 371 114L374 111L392 129L389 132Q370 149 345 149H344Q318 149 298.5 130.0Q279 111 279.0 85.0Q279 59 298 41Q318 21 345 21H346Q372 21 389 38Q396 46 400.5 57.0Q405 68 405 78Z" />
      </g>
    </svg>