<svg xmlns="http://www.w3.org/2000/svg" viewBox="144 -21 223 426">
      <g transform="scale(1 -1) translate(0 -384)">
        <path d="M255 250Q287 250 310.0 273.0Q333 296 333.0 328.0Q333 360 310.0 382.5Q287 405 255.0 405.0Q223 405 200.0 382.5Q177 360 177.0 328.0Q177 296 200.0 273.0Q223 250 255 250ZM200 171Q193 155 187 138Q174 103 170 96L169 94Q168 92 167.0 91.0Q166 90 162.5 90.0Q159 90 153 93L147 96L145 98Q144 101 145 104Q148 114 167 188L178 229Q181 238 185.0 242.0Q189 246 194 247L198 248H212L257 170L302 248H318L322 247Q327 245 330 241Q335 235 336 225L367 106Q368 101 367.5 99.0Q367 97 365 96L351 92Q346 90 343 94Q342 95 341 97L314 170L310 -21H269L262 88L261 89Q259 90 256.5 90.0Q254 90 253 89L252 88L244 -21H203Z" />
      </g>
    </svg>