<svg xmlns="http://www.w3.org/2000/svg" viewBox="64 -32 363 437">
      <g transform="scale(1 -1) translate(0 -373)">
        <path d="M320 213 299 171H267L288 213H256V277H320ZM235 213 213 171H181L203 213H171V277H235ZM245 405Q209 405 176.0 391.5Q143 378 117.5 352.5Q92 327 78.0 293.5Q64 260 64.0 224.0Q64 188 78.0 154.5Q92 121 117.5 95.5Q143 70 176.0 56.5Q209 43 245 43H256V-32Q307 -8 346 35Q384 76 405.5 126.0Q427 176 427.0 224.5Q427 273 402.5 315.0Q378 357 336.5 381.0Q295 405 245 405Z" />
      </g>
    </svg>