<svg xmlns="http://www.w3.org/2000/svg" viewBox="72 -21 368 426">
      <g transform="scale(1 -1) translate(0 -384)">
        <path d="M338 354V34Q338 9 353.0 -6.0Q368 -21 389.0 -21.0Q410 -21 424 -8Q440 7 440 34V352Q440 376 425.0 390.5Q410 405 389.5 405.0Q369 405 353.5 390.0Q338 375 338 354ZM205 192V34Q205 9 220.0 -6.0Q235 -21 255.5 -21.0Q276 -21 291 -8Q307 7 307 34V190Q307 213 292.0 228.0Q277 243 256.5 243.0Q236 243 220.5 228.0Q205 213 205 192ZM123 80Q144 80 159.0 65.5Q174 51 174.0 30.0Q174 9 159.0 -6.0Q144 -21 123.0 -21.0Q102 -21 87.0 -6.0Q72 9 72.0 30.0Q72 51 87.0 65.5Q102 80 123 80Z" />
      </g>
    </svg>