<svg xmlns="http://www.w3.org/2000/svg" viewBox="43 -21 426 426">
      <g transform="scale(1 -1) translate(0 -384)">
        <path d="M256 21 330 149Q341 170 341 192Q341 211 333.5 227.5Q326 244 312 256H414Q427 225 427 192Q427 146 404.0 106.5Q381 67 341.5 44.0Q302 21 256 21ZM85 192Q85 238 108 277L182 149Q194 130 213.5 118.5Q233 107 256 107Q269 107 284 112L232 23Q191 29 157.5 53.0Q124 77 104.5 113.5Q85 150 85 192ZM320 192Q320 165 301.5 146.5Q283 128 256.0 128.0Q229 128 210.5 146.5Q192 165 192.0 192.0Q192 219 210.5 237.5Q229 256 256.0 256.0Q283 256 301.5 237.5Q320 219 320 192ZM256 363Q303 363 342.0 339.5Q381 316 404 277H256Q225 277 201.5 257.5Q178 238 172 209L122 297Q145 327 180.5 345.0Q216 363 256 363ZM256 405Q214 405 174.5 389.0Q135 373 105.0 343.0Q75 313 59.0 273.5Q43 234 43.0 192.0Q43 150 59.0 110.5Q75 71 105.0 41.0Q135 11 174.5 -5.0Q214 -21 256.0 -21.0Q298 -21 337.5 -5.0Q377 11 407.0 41.0Q437 71 453.0 110.5Q469 150 469.0 192.0Q469 234 453.0 273.5Q437 313 407.0 343.0Q377 373 337.5 389.0Q298 405 256 405Z" />
      </g>
    </svg>