<svg xmlns="http://www.w3.org/2000/svg" viewBox="21 43 470 298">
      <g transform="scale(1 -1) translate(0 -384)">
        <path d="M491 213H448V256H405V213H363V171H405V128H448V171H491ZM171 213V162H256Q251 139 234 122Q210 98 171.0 98.0Q132 98 105.5 125.5Q79 153 79.0 192.0Q79 231 105.5 258.5Q132 286 169.5 286.0Q207 286 230 262L271 301Q230 341 171 341Q130 341 95.5 321.0Q61 301 41.0 267.0Q21 233 21.0 192.0Q21 151 41.0 117.0Q61 83 95.5 63.0Q130 43 171.5 43.0Q213 43 245.5 61.0Q278 79 296.0 112.0Q314 145 314 188Q314 205 311 213Z" />
      </g>
    </svg>