<svg xmlns="http://www.w3.org/2000/svg" viewBox="21 -21 470 426">
      <g transform="scale(1 -1) translate(0 -384)">
        <path d="M149 405Q115 405 85.5 388.0Q56 371 38.5 341.5Q21 312 21 277Q21 252 31.0 228.5Q41 205 59.0 187.0Q77 169 100.5 159.0Q124 149 149.5 149.0Q175 149 198.5 159.0Q222 169 240.0 187.0Q258 205 267.5 228.5Q277 252 277 277Q277 312 260.0 341.5Q243 371 213.5 388.0Q184 405 149 405ZM459 320Q445 320 436.0 310.5Q427 301 427.0 288.0Q427 275 436.0 265.5Q445 256 458.5 256.0Q472 256 481.5 265.5Q491 275 491.0 288.0Q491 301 481.5 310.5Q472 320 459 320ZM363 277Q336 277 317.5 258.5Q299 240 299.0 213.5Q299 187 317.5 168.0Q336 149 362.5 149.0Q389 149 408.0 168.0Q427 187 427.0 213.5Q427 240 408.0 258.5Q389 277 363 277ZM363 128Q332 128 310.0 106.0Q288 84 288.0 53.0Q288 22 310.0 0.5Q332 -21 363.0 -21.0Q394 -21 415.5 0.5Q437 22 437.0 53.0Q437 84 415.5 106.0Q394 128 363 128Z" />
      </g>
    </svg>