<svg xmlns="http://www.w3.org/2000/svg" viewBox="43 -21 426 426">
      <g transform="scale(1 -1) translate(0 -384)">
        <path d="M427 341H232L213 405H85Q68 405 55.5 392.5Q43 380 43 363V85Q43 68 55.5 55.5Q68 43 85 43H235L256 -21H427Q444 -21 456.5 -8.5Q469 4 469 21V299Q469 316 456.5 328.5Q444 341 427 341ZM153 137Q117 137 91.5 162.5Q66 188 66.0 224.0Q66 260 91.5 285.5Q117 311 152.0 311.0Q187 311 211 288L213 287L187 262L185 263Q172 276 152.0 276.0Q132 276 117.0 260.5Q102 245 102.0 224.0Q102 203 117.0 187.5Q132 172 152.5 172.0Q173 172 185 183Q195 192 198 204H151V237H235L236 235Q237 230 237 222Q237 184 213.5 160.5Q190 137 153 137ZM282 173Q291 155 307 137L295 126ZM298 189H277L270 212H355L353 203Q348 193 342 182Q334 167 322 153Q308 170 298 189ZM448 21Q448 12 442.0 6.0Q436 0 427 0H277L320 43L303 102L322 121L380 64L395 80L337 137Q368 172 378 212H405V234H328V256H305V234H264L239 320H427Q436 320 442.0 314.0Q448 308 448 299Z" />
      </g>
    </svg>