<svg xmlns="http://www.w3.org/2000/svg" viewBox="43 -21 426 426">
      <g transform="scale(1 -1) translate(0 -384)">
        <path d="M128 405H384Q419 405 444.0 380.0Q469 355 469 320V192H427V320Q427 338 414.5 350.5Q402 363 384 363H128Q110 363 97.5 350.5Q85 338 85 320V64Q85 46 97.5 33.5Q110 21 128 21H256V-21H128Q93 -21 68.0 4.0Q43 29 43 64V320Q43 355 68.0 380.0Q93 405 128 405ZM256 277Q291 277 316.0 252.0Q341 227 341.0 192.0Q341 157 316.0 132.0Q291 107 256.0 107.0Q221 107 196.0 132.0Q171 157 171.0 192.0Q171 227 196.0 252.0Q221 277 256 277ZM384 107Q402 107 414.5 94.5Q427 82 427.0 64.0Q427 46 414.5 33.5Q402 21 384.0 21.0Q366 21 353.5 33.5Q341 46 341.0 64.0Q341 82 353.5 94.5Q366 107 384 107Z" />
      </g>
    </svg>