<svg xmlns="http://www.w3.org/2000/svg" viewBox="64 0 384 384">
      <g transform="scale(1 -1) translate(0 -384)">
        <path d="M192 171V213H235V171ZM235 128V171H277V128ZM235 213V256H277V213ZM192 256V299H235V256ZM192 85V128H235V85ZM64 341V43Q64 25 76.5 12.5Q89 0 107 0H405Q423 0 435.5 12.5Q448 25 448 43V341Q448 359 435.5 371.5Q423 384 405 384H107Q89 384 76.5 371.5Q64 359 64 341ZM384 128V85H341V128ZM384 213V171H341V213ZM384 299V256H341V299ZM235 341V299H277V341H320V299H277V256H320V213H277V171H320V128H277V85H320V43H277V85H235V43H107V341Z" />
      </g>
    </svg>