<svg xmlns="http://www.w3.org/2000/svg" viewBox="64 0 384 384">
      <g transform="scale(1 -1) translate(0 -384)">
        <path d="M235 256H277V213H235ZM192 213H235V171H192ZM277 213H320V171H277ZM320 256H363V213H320ZM149 256H192V213H149ZM405 384H107Q89 384 76.5 371.5Q64 359 64 341V43Q64 25 76.5 12.5Q89 0 107 0H405Q423 0 435.5 12.5Q448 25 448 43V341Q448 359 435.5 371.5Q423 384 405 384ZM192 64H149V107H192ZM277 64H235V107H277ZM363 64H320V107H363ZM405 213H363V171H405V128H363V171H320V128H277V171H235V128H192V171H149V128H107V171H149V213H107V341H405Z" />
      </g>
    </svg>