<svg xmlns="http://www.w3.org/2000/svg" viewBox="85 21 342 342">
      <g transform="scale(1 -1) translate(0 -384)">
        <path d="M213 192Q196 192 183.5 179.5Q171 167 171.0 149.5Q171 132 183.5 119.5Q196 107 213.5 107.0Q231 107 243.5 119.5Q256 132 256.0 149.5Q256 167 243.5 179.5Q231 192 213 192ZM128 277Q110 277 97.5 264.5Q85 252 85.0 234.5Q85 217 97.5 204.5Q110 192 128.0 192.0Q146 192 158.5 204.5Q171 217 171.0 234.5Q171 252 158.5 264.5Q146 277 128 277ZM128 107Q110 107 97.5 94.5Q85 82 85.0 64.0Q85 46 97.5 33.5Q110 21 128.0 21.0Q146 21 158.5 33.5Q171 46 171.0 64.0Q171 82 158.5 94.5Q146 107 128 107ZM384 277Q402 277 414.5 289.5Q427 302 427.0 320.0Q427 338 414.5 350.5Q402 363 384.0 363.0Q366 363 353.5 350.5Q341 338 341.0 320.0Q341 302 353.5 289.5Q366 277 384 277ZM299 107Q281 107 268.5 94.5Q256 82 256.0 64.0Q256 46 268.5 33.5Q281 21 298.5 21.0Q316 21 328.5 33.5Q341 46 341.0 64.0Q341 82 328.5 94.5Q316 107 299 107ZM384 192Q366 192 353.5 179.5Q341 167 341.0 149.5Q341 132 353.5 119.5Q366 107 384.0 107.0Q402 107 414.5 119.5Q427 132 427.0 149.5Q427 167 414.5 179.5Q402 192 384 192ZM299 277Q281 277 268.5 264.5Q256 252 256.0 234.5Q256 217 268.5 204.5Q281 192 298.5 192.0Q316 192 328.5 204.5Q341 217 341.0 234.5Q341 252 328.5 264.5Q316 277 299 277ZM213 363Q196 363 183.5 350.5Q171 338 171.0 320.0Q171 302 183.5 289.5Q196 277 213.5 277.0Q231 277 243.5 289.5Q256 302 256.0 320.0Q256 338 243.5 350.5Q231 363 213 363Z" />
      </g>
    </svg>