<svg xmlns="http://www.w3.org/2000/svg" viewBox="43 -21 426 426">
      <g transform="scale(1 -1) translate(0 -384)">
        <path d="M416 85Q410 85 408 84L373 154Q389 170 389.0 192.0Q389 214 373.5 229.5Q358 245 336 245Q331 245 327 244L293 314Q309 329 309.0 351.5Q309 374 293.5 389.5Q278 405 256.0 405.0Q234 405 218.5 389.5Q203 374 203.0 351.5Q203 329 219 314L185 244Q181 245 176 245Q154 245 138.5 229.5Q123 214 123.0 191.5Q123 169 139 154L104 84Q102 85 96 85Q74 85 58.5 69.5Q43 54 43.0 32.0Q43 10 58.5 -5.5Q74 -21 96.0 -21.0Q118 -21 133.5 -5.5Q149 10 149.0 32.5Q149 55 133 70L168 140Q171 139 176.0 139.0Q181 139 184 140L219 70Q203 55 203.0 32.5Q203 10 218.5 -5.5Q234 -21 256.0 -21.0Q278 -21 293.5 -5.5Q309 10 309.0 32.0Q309 54 293.5 69.5Q278 85 256 85Q250 85 248 84L213 154Q229 170 229.0 192.0Q229 214 213 230L248 300Q250 299 256.0 299.0Q262 299 264 300L299 230Q283 215 283.0 192.5Q283 170 298.5 154.5Q314 139 336 139Q341 139 344 140L379 70Q363 55 363.0 32.5Q363 10 378.5 -5.5Q394 -21 416.0 -21.0Q438 -21 453.5 -5.5Q469 10 469.0 32.0Q469 54 453.5 69.5Q438 85 416 85ZM96 11Q87 11 81.0 17.0Q75 23 75.0 32.0Q75 41 81.0 47.0Q87 53 96.0 53.0Q105 53 111.0 47.0Q117 41 117.0 32.0Q117 23 111.0 17.0Q105 11 96 11ZM277 32Q277 23 271.0 17.0Q265 11 256.0 11.0Q247 11 241.0 17.0Q235 23 235.0 32.0Q235 41 241.0 47.0Q247 53 256.0 53.0Q265 53 271.0 47.0Q277 41 277 32ZM155 192Q155 201 161.0 207.0Q167 213 176.0 213.0Q185 213 191.0 207.0Q197 201 197.0 192.0Q197 183 191.0 177.0Q185 171 176.0 171.0Q167 171 161.0 177.0Q155 183 155 192ZM235 352Q235 361 241.0 367.0Q247 373 256.0 373.0Q265 373 271.0 367.0Q277 361 277.0 352.0Q277 343 271.0 337.0Q265 331 256.0 331.0Q247 331 241.0 337.0Q235 343 235 352ZM315 192Q315 201 321.0 207.0Q327 213 336.0 213.0Q345 213 351.0 207.0Q357 201 357.0 192.0Q357 183 351.0 177.0Q345 171 336.0 171.0Q327 171 321.0 177.0Q315 183 315 192ZM416 11Q407 11 401.0 17.0Q395 23 395.0 32.0Q395 41 401.0 47.0Q407 53 416.0 53.0Q425 53 431.0 47.0Q437 41 437.0 32.0Q437 23 431.0 17.0Q425 11 416 11Z" />
      </g>
    </svg>