<svg xmlns="http://www.w3.org/2000/svg" viewBox="43 -21 426 426">
      <g transform="scale(1 -1) translate(0 -384)">
        <path d="M416 85Q410 85 408 84L373 154Q389 170 389.0 192.0Q389 214 373.5 229.5Q358 245 336 245Q331 245 328 244L293 314Q309 329 309.0 351.5Q309 374 293.5 389.5Q278 405 256.0 405.0Q234 405 218.5 389.5Q203 374 203.0 351.5Q203 329 219 314L184 244Q181 245 176 245Q154 245 138.5 229.5Q123 214 123.0 192.0Q123 170 139 154L104 84Q102 85 96 85Q74 85 58.5 69.5Q43 54 43.0 32.0Q43 10 58.5 -5.5Q74 -21 96.0 -21.0Q118 -21 133.5 -5.5Q149 10 149.0 32.5Q149 55 133 70L168 140Q171 139 176.0 139.0Q181 139 184 140L219 70Q203 54 203.0 32.0Q203 10 218.5 -5.5Q234 -21 256.0 -21.0Q278 -21 293.5 -5.5Q309 10 309.0 32.0Q309 54 293.5 69.5Q278 85 256 85Q250 85 248 84L213 154Q229 169 229.0 192.0Q229 215 213 230L248 300Q250 299 256.0 299.0Q262 299 264 300L299 230Q283 214 283.0 192.0Q283 170 298.5 154.5Q314 139 336 139Q341 139 344 140L379 70Q363 54 363.0 32.0Q363 10 378.5 -5.5Q394 -21 416.0 -21.0Q438 -21 453.5 -5.5Q469 10 469.0 32.0Q469 54 453.5 69.5Q438 85 416 85Z" />
      </g>
    </svg>