<svg xmlns="http://www.w3.org/2000/svg" viewBox="0 -64 480 480">
      <g transform="scale(1 -1) translate(0 -352)">
        <path d="M0 389 27 416 480 -37 453 -64 410 -21H85Q68 -21 55.5 -8.5Q43 4 43 21V346ZM213 363V284L171 327V363H135L92 405H427Q444 405 456.5 392.5Q469 380 469 363V28L427 70V107H391L348 149H427V235H341V156L299 199V235H263L220 277H299V363ZM341 363V277H427V363ZM341 21H368L341 48ZM85 277H112L85 304ZM213 149H240L213 176ZM299 21V90L282 107H213V21ZM171 21V107H85V21ZM171 149V218L154 235H85V149Z" />
      </g>
    </svg>