<svg xmlns="http://www.w3.org/2000/svg" viewBox="107 -21 320 426">
      <g transform="scale(1 -1) translate(0 -384)">
        <path d="M172 405Q166 368 191 342Q207 326 201 299H222Q226 316 223.0 329.5Q220 343 203 362Q188 380 193 405ZM225 405Q219 368 244 342Q260 326 254 299H275Q279 317 276.0 330.0Q273 343 256 362Q241 380 246 405ZM279 405Q273 368 298 342Q314 326 307 299H329Q333 315 330.0 328.5Q327 342 310 362Q295 380 300 405ZM107 277Q107 232 131.0 195.5Q155 159 195 141L110 12Q107 8 107 0Q107 -13 116 -18Q120 -21 128 -21Q141 -21 146 -12L167 22H303Q310 3 326.0 -9.0Q342 -21 363 -21Q389 -21 408.0 -2.0Q427 17 427.0 43.0Q427 69 408.0 88.0Q389 107 363 107Q341 107 325.5 95.0Q310 83 303 64H195L237 129Q240 128 256.0 128.0Q272 128 275 129L296 96Q309 114 330 122L318 141Q354 157 379.5 197.5Q405 238 405 277ZM363 64Q372 64 378.0 58.0Q384 52 384.0 43.0Q384 34 378.0 27.5Q372 21 363.0 21.0Q354 21 347.5 27.5Q341 34 341.0 43.0Q341 52 347.5 58.0Q354 64 363 64Z" />
      </g>
    </svg>