<svg xmlns="http://www.w3.org/2000/svg" viewBox="107 -21 319 426">
      <g transform="scale(1 -1) translate(0 -384)">
        <path d="M363 -21Q387 -21 405.5 -5.0Q424 11 426.5 35.5Q429 60 415.0 80.0Q401 100 377.0 105.5Q353 111 332.0 99.0Q311 87 303 64H195L237 129Q256 127 275 129L296 96Q311 114 331 122L318 141Q358 160 381.5 196.5Q405 233 405 277H107Q107 233 130.5 196.5Q154 160 195 141L110 12Q106 4 108.0 -4.0Q110 -12 117.0 -16.5Q124 -21 132.5 -19.5Q141 -18 146 -12L167 21H303Q309 2 325.5 -9.5Q342 -21 363 -21ZM363 64Q372 64 378.0 58.0Q384 52 384.0 43.0Q384 34 377.5 27.5Q371 21 362.5 21.0Q354 21 347.5 27.5Q341 34 341.0 43.0Q341 52 347.5 58.0Q354 64 363 64ZM158 235H354Q341 206 314.5 188.5Q288 171 256.0 171.0Q224 171 197.5 188.5Q171 206 158 235ZM201 299H222V300Q225 320 223 329Q219 343 203 362L202 363Q195 372 193 378Q190 388 193 405H172Q168 388 173.0 371.0Q178 354 191 342L192 341Q199 334 201 328Q205 316 201 299ZM254 299H275V300Q278 320 276 329Q272 343 256 362H255Q248 372 246 378Q243 387 246 405H225Q221 388 226.0 371.0Q231 354 244 342L245 341Q252 334 254 328Q258 316 254 299ZM307 299H329V300Q332 320 329 329Q326 343 309 362L308 363Q301 372 299 378Q297 388 300 405H279Q275 388 280.0 371.0Q285 354 298 342L299 341Q305 334 308 328Q312 316 307 299Z" />
      </g>
    </svg>