<svg xmlns="http://www.w3.org/2000/svg" viewBox="71 -21 369 426">
      <g transform="scale(1 -1) translate(0 -384)">
        <path d="M405 361Q379 384 337 395Q329 397 307 401Q280 405 260 405H252Q232 405 203 401Q180 397 173 395Q133 384 107 361Q76 333 72 291Q68 253 85 213Q119 130 162 66L173 50Q197 15 210 2Q233 -21 255.5 -21.0Q278 -21 300 0Q314 13 337 46L352 66Q393 123 429 213Q445 253 440 291Q435 333 405 361ZM388 230Q353 143 316 92Q314 90 310.5 84.5Q307 79 305 77Q293 57 281 43Q264 21 256 21Q247 21 231 40Q222 51 206 74L205 77Q203 79 199.5 84.5Q196 90 194 92Q153 154 122 230L121 232Q114 258 114 276Q113 311 134 331Q147 343 183 354Q187 354 203 357Q237 363 252 363H258Q274 363 298 359Q317 356 326 354Q363 343 375 331Q399 310 398 274Q397 251 388 230Z" />
      </g>
    </svg>