<svg xmlns="http://www.w3.org/2000/svg" viewBox="64 0 405 384">
      <g transform="scale(1 -1) translate(0 -384)">
        <path d="M418 384H469V341H435L345 251Q333 269 315 281ZM256 277Q291 277 316.0 252.0Q341 227 341 192Q341 163 323.5 140.0Q306 117 277 109V107Q277 78 263.0 53.5Q249 29 224.5 14.5Q200 0 171 0Q149 0 129.5 8.0Q110 16 95.0 31.0Q80 46 72.0 65.5Q64 85 64.0 106.5Q64 128 72.0 147.5Q80 167 95.0 182.0Q110 197 129.5 205.0Q149 213 171 213H173Q181 242 204.0 259.5Q227 277 256 277ZM256 224Q243 224 233.5 214.5Q224 205 224.0 192.0Q224 179 233.5 169.5Q243 160 256.0 160.0Q269 160 278.5 169.5Q288 179 288.0 192.0Q288 205 278.5 214.5Q269 224 256 224ZM148 144 133 129 193 69 208 84Z" />
      </g>
    </svg>