<svg xmlns="http://www.w3.org/2000/svg" viewBox="64 -21 384 426">
      <g transform="scale(1 -1) translate(0 -384)">
        <path d="M448 171Q448 119 422.0 74.5Q396 30 352.0 4.5Q308 -21 256.0 -21.0Q204 -21 160.0 4.5Q116 30 90.0 74.5Q64 119 64 171L65 353Q153 405 256.0 405.0Q359 405 448 355ZM277 23Q313 28 342.5 49.0Q372 70 388.5 102.0Q405 134 405 171V329Q335 363 256.0 363.0Q177 363 105 327L107 171Q107 134 124.0 102.0Q141 70 170.0 49.0Q199 28 235 23V64H277ZM235 107H171L128 171L192 149H213L235 171H277L299 149H320L384 171L341 107H277L256 128ZM128 255Q149 276 181.0 276.0Q213 276 235 255Q213 235 181.0 235.0Q149 235 128 255ZM277 255Q299 276 330.5 276.0Q362 276 384 255Q362 235 330.5 235.0Q299 235 277 255Z" />
      </g>
    </svg>