<svg xmlns="http://www.w3.org/2000/svg" viewBox="85 -21 320 426">
      <g transform="scale(1 -1) translate(0 -384)">
        <path d="M85 107H149V-21H85ZM405 397Q403 350 381.0 316.0Q359 282 320 269V-21H277V107H235V-21H192V233Q182 230 179 226Q149 202 149 160V149H107V160Q107 223 152 262Q196 299 256 299Q300 299 330 321Q363 348 363 395V405H405ZM256 405Q274 405 286.5 392.5Q299 380 299.0 362.5Q299 345 286.5 332.5Q274 320 256.0 320.0Q238 320 225.5 332.5Q213 345 213.0 362.5Q213 380 225.5 392.5Q238 405 256 405Z" />
      </g>
    </svg>