<svg xmlns="http://www.w3.org/2000/svg" viewBox="42 -64 426 469">
      <g transform="scale(1 -1) translate(0 -341)">
        <path d="M469 256Q444 255 422 268Q404 278 384 277V299Q409 299 431 287Q449 277 469 277ZM469 320Q449 319 431 330Q409 342 384 341V320Q404 321 422 310Q444 298 469 299ZM469 235Q449 234 431 244Q409 257 384 256V235Q404 235 422 225Q444 213 469 213ZM213 176Q289 191 363 213V363L324 374Q279 386 241 394Q188 405 160 405Q116 405 83.0 376.0Q50 347 44.0 303.0Q38 259 63.0 222.5Q88 186 131 175L149 43H171Q172 27 180.0 14.0Q188 1 202.5 -7.5Q217 -16 225.5 -31.0Q234 -46 235 -64H256Q256 -42 245.0 -22.0Q234 -2 215 10Q203 20 198 25Q192 33 192 43H213ZM160 235Q138 235 122.5 250.5Q107 266 107.0 288.0Q107 310 122.5 325.5Q138 341 160.0 341.0Q182 341 197.5 325.5Q213 310 213.0 288.0Q213 266 197.5 250.5Q182 235 160 235Z" />
      </g>
    </svg>