<svg xmlns="http://www.w3.org/2000/svg" viewBox="43 0 426 405">
      <g transform="scale(1 -1) translate(0 -405)">
        <path d="M139 320Q170 320 194 291Q213 310 235 317V363Q235 380 247.5 392.5Q260 405 277 405H320V363H277V317Q299 310 318 291Q342 320 373 320Q400 320 422.0 298.5Q444 277 456.5 240.0Q469 203 469.0 160.0Q469 117 456.5 80.0Q444 43 422.0 21.5Q400 0 373 0Q342 0 318 29Q291 0 256.0 0.0Q221 0 194 29Q170 0 139 0Q112 0 90.0 21.5Q68 43 55.5 80.0Q43 117 43.0 160.0Q43 203 55.5 240.0Q68 277 90.0 298.5Q112 320 139 320ZM192 235 165 187H219ZM320 235 293 187H347ZM171 85H213L235 107L256 85H299L320 107L341 85L373 149L297 136L277 107L256 128H213L192 107L171 128L128 149Z" />
      </g>
    </svg>