<svg xmlns="http://www.w3.org/2000/svg" viewBox="24 -37 448 448">
      <g transform="scale(1 -1) translate(0 -374)">
        <path d="M427 213Q444 213 456.5 200.5Q469 188 469.0 170.5Q469 153 456.5 140.5Q444 128 427 128H388L303 213ZM436 26 334 128 51 411 24 384 88 320Q77 306 71 289Q67 277 65 265L64 256H152L194 213H85Q68 213 55.5 200.5Q43 188 43.0 170.5Q43 153 55.5 140.5Q68 128 85 128H280L322 85H64V64Q64 37 82.5 18.5Q101 0 128 0H384Q394 0 404 4L445 -37L472 -10ZM448 256Q447 263 446 269Q443 286 436 301Q425 323 407 339Q383 359 350 371Q310 384 256 384Q194 384 150 366L260 256Z" />
      </g>
    </svg>