<svg xmlns="http://www.w3.org/2000/svg" viewBox="43 0 426 384">
      <g transform="scale(1 -1) translate(0 -384)">
        <path d="M469 171Q469 153 456.5 140.5Q444 128 427 128H85Q68 128 55.5 140.5Q43 153 43.0 170.5Q43 188 55.5 200.5Q68 213 85 213H277L331 171L384 213H427Q444 213 456.5 200.5Q469 188 469 171ZM256 384Q202 384 162 371Q129 359 105 339Q87 323 76 301Q69 286 66 269L64 256H448L446 269Q443 286 436 301Q425 323 407 339Q383 359 350 371Q310 384 256 384ZM64 64Q64 37 82.5 18.5Q101 0 128 0H384Q411 0 429.5 18.5Q448 37 448 64V85H64Z" />
      </g>
    </svg>