<svg xmlns="http://www.w3.org/2000/svg" viewBox="43 -33 438 417">
      <g transform="scale(1 -1) translate(0 -351)">
        <path d="M448 256H64L66 269Q69 286 76 301Q87 323 105 339Q129 359 162 371Q202 384 256.0 384.0Q310 384 350 371Q383 359 407 339Q425 323 436 301Q443 286 446 269ZM285 85H64V64Q64 37 82.5 18.5Q101 0 128 0H285Q277 21 277.0 42.5Q277 64 285 85ZM466 155Q469 163 469 171Q469 188 456.5 200.5Q444 213 427 213H235L181 171L128 213H85Q68 213 55.5 200.5Q43 188 43.0 170.5Q43 153 55.5 140.5Q68 128 85 128H310Q328 148 353.0 159.5Q378 171 405 171Q438 171 466 155ZM481 88 451 118 405 73 360 118 330 88 375 43 330 -3 360 -33 405 13 451 -33 481 -3 435 43Z" />
      </g>
    </svg>