<svg xmlns="http://www.w3.org/2000/svg" viewBox="43 -21 426 426">
      <g transform="scale(1 -1) translate(0 -384)">
        <path d="M469 9 439 -21 372 46Q352 32 334 26Q279 7 225 24Q193 33 165 56L97 -12Q88 -21 74.5 -21.0Q61 -21 52.0 -12.0Q43 -3 43.0 10.5Q43 24 52 33L124 105L181 116Q204 87 241.5 75.0Q279 63 317 76Q327 79 335 83L162 256L124 218L64 278L170 384L260 354L192 286L369 109Q374 114 380 121Q404 152 405.5 195.5Q407 239 386 277Q347 349 256 405Q303 389 341 362Q388 329 412 293Q444 248 448 196Q450 169 442.5 142.0Q435 115 420 93Q417 86 408 76L405 73Z" />
      </g>
    </svg>