<svg xmlns="http://www.w3.org/2000/svg" viewBox="45 -6 422 396">
      <g transform="scale(1 -1) translate(0 -384)">
        <path d="M294 122 422 -6 467 40 339 168ZM373 233Q359 233 349 237L106 -5L61 40L219 198L181 236L166 221L135 251V190L120 175L45 251L60 266H120L90 296L166 372Q185 390 211.0 390.0Q237 390 256 372L211 326L241 296L226 281L264 243L303 283Q299 293 299 307Q299 338 320.5 360.0Q342 382 373 382Q392 382 407 373L350 316L382 284L439 341Q448 326 448 307Q448 276 426.0 254.5Q404 233 373 233Z" />
      </g>
    </svg>