<svg xmlns="http://www.w3.org/2000/svg" viewBox="43 -21 426 405">
      <g transform="scale(1 -1) translate(0 -363)">
        <path d="M432 304Q403 333 363.0 339.5Q323 346 286 329L266 349Q260 355 251.0 355.0Q242 355 236 349L234 347Q232 363 220.0 373.5Q208 384 191.0 384.0Q174 384 161.5 371.5Q149 359 149 341Q149 337 150 336Q140 330 134.0 320.0Q128 310 128 299Q128 285 137 273Q128 266 128 256V227Q90 214 66.5 181.0Q43 148 43 107Q43 72 60.0 42.5Q77 13 106.5 -4.0Q136 -21 170.5 -21.0Q205 -21 234.5 -4.0Q264 13 281.5 42.5Q299 72 299 107Q299 148 275.0 181.0Q251 214 213 227V256Q213 266 204 273Q213 285 213 299Q213 303 213 304Q216 306 222 312H223Q238 304 247.0 289.0Q256 274 256 256V254L264 249Q271 264 281 274Q306 299 341.5 299.0Q377 299 402.0 274.0Q427 249 427.0 213.5Q427 178 402.0 153.0Q377 128 340 128Q341 121 341 107Q341 98 340 85Q366 85 389.5 94.5Q413 104 432 123Q456 147 465.0 180.0Q474 213 465.0 246.0Q456 279 432 304ZM192 363Q201 363 207.0 356.5Q213 350 213.0 340.5Q213 331 204 324Q192 341 171 341Q171 350 177.0 356.5Q183 363 192 363ZM158 316Q171 299 192 299Q192 290 185.5 283.5Q179 277 170.5 277.0Q162 277 155.5 283.5Q149 290 149.0 299.5Q149 309 158 316ZM256 107Q256 71 231.0 46.0Q206 21 170.5 21.0Q135 21 110.0 46.0Q85 71 85.0 106.5Q85 142 110.0 167.0Q135 192 170.5 192.0Q206 192 231.0 167.0Q256 142 256 107Z" />
      </g>
    </svg>