<svg xmlns="http://www.w3.org/2000/svg" viewBox="64 -64 394 512">
      <g transform="scale(1 -1) translate(0 -384)">
        <path d="M64 107Q64 60 87.0 21.0Q110 -18 149.0 -41.0Q188 -64 235 -64Q290 -64 335.0 -33.0Q380 -2 400 48L455 186Q459 196 458.5 207.0Q458 218 452 227Q444 239 431.5 244.0Q419 249 405 245L389 240Q374 237 363 226V352Q363 374 347.0 389.5Q331 405 309 405Q301 405 298 404Q294 423 279.5 435.5Q265 448 245 448Q229 448 215.5 438.5Q202 429 196 414Q189 416 181 416Q159 416 143.5 400.5Q128 385 128 363V351Q125 352 117 352Q95 352 79.5 336.5Q64 321 64 299ZM107 299Q107 303 110.0 306.0Q113 309 117.5 309.0Q122 309 125.0 306.0Q128 303 128 299V192H171V363Q171 367 174.0 370.0Q177 373 181.5 373.0Q186 373 189.0 370.0Q192 367 192 363V192H235V395Q235 399 238.0 402.0Q241 405 245.5 405.0Q250 405 253.0 402.0Q256 399 256 395V192H299V352Q299 356 302.0 359.5Q305 363 309.5 363.0Q314 363 317.0 359.5Q320 356 320 352V128H363L384 181Q389 197 405 201L416 204L361 64Q345 25 310.5 2.0Q276 -21 235 -21Q200 -21 170.5 -4.0Q141 13 124.0 42.5Q107 72 107 107Z" />
      </g>
    </svg>