<svg xmlns="http://www.w3.org/2000/svg" viewBox="24 -64 448 512">
      <g transform="scale(1 -1) translate(0 -384)">
        <path d="M472 -10 51 411 24 384 68 339Q64 332 64 325V107Q64 60 87.0 21.0Q110 -18 149.0 -41.0Q188 -64 234.5 -64.0Q281 -64 321.0 -40.0Q361 -16 383 24L445 -37ZM117 192V290L139 269V192ZM213 192H192V216L213 194ZM341 175 288 228V379Q288 390 296.0 397.5Q304 405 315.0 405.0Q326 405 333.5 397.5Q341 390 341 379ZM416 101 366 150 387 203Q395 222 414 228L431 234Q444 238 453.0 228.0Q462 218 457 205ZM192 324 139 378V389Q139 400 146.5 408.0Q154 416 165.0 416.0Q176 416 184.0 408.0Q192 400 192 389ZM267 250 213 303V421Q213 432 221.0 440.0Q229 448 240.0 448.0Q251 448 259.0 440.0Q267 432 267 421Z" />
      </g>
    </svg>