<svg xmlns="http://www.w3.org/2000/svg" viewBox="24 -64 448 512">
      <g transform="scale(1 -1) translate(0 -384)">
        <path d="M472 -10 51 411 24 384 149 258V226Q138 237 123 240L107 245Q93 249 80.5 244.0Q68 239 60 227Q54 218 53.5 207.0Q53 196 57 186L112 48Q132 -2 177.0 -33.0Q222 -64 277 -64Q317 -64 351.0 -47.5Q385 -31 409 -1L445 -37ZM277 -21Q236 -21 201.5 2.0Q167 25 151 64L96 204L107 201Q123 197 128 181L149 128H192V216L379 29Q361 6 334.5 -7.5Q308 -21 277 -21ZM192 324 151 365Q156 383 170.0 394.0Q184 405 203 405Q211 405 214 404Q218 423 232.5 435.5Q247 448 267 448Q283 448 296.5 438.5Q310 429 316 414Q323 416 331 416Q353 416 368.5 400.5Q384 385 384 363V351Q387 352 395 352Q417 352 432.5 336.5Q448 321 448 299V107Q448 89 444 72L405 111V299Q405 303 402.0 306.0Q399 309 394.5 309.0Q390 309 387.0 306.0Q384 303 384 299V192H341V363Q341 367 338.0 370.0Q335 373 330.5 373.0Q326 373 323.0 370.0Q320 367 320 363V196L277 239V395Q277 399 274.0 402.0Q271 405 266.5 405.0Q262 405 259.0 402.0Q256 399 256 395V260L213 303V352Q213 356 210.0 359.5Q207 363 202.5 363.0Q198 363 195.0 359.5Q192 356 192 352Z" />
      </g>
    </svg>