<svg xmlns="http://www.w3.org/2000/svg" viewBox="21 21 470 319">
      <g transform="scale(1 -1) translate(0 -361)">
        <path d="M416 171Q395 171 378.0 160.5Q361 150 351 132L282 188L234 171L211 207L239 199L296 245L276 270L233 234L170 256Q155 261 143 253Q132 246 129.0 234.5Q126 223 131 212Q124 213 117 213Q77 213 49.0 185.0Q21 157 21.0 117.0Q21 77 49.0 49.0Q77 21 117.0 21.0Q157 21 185.0 49.0Q213 77 213 117L212 125L277 149L341 96Q341 65 363.0 43.0Q385 21 416.0 21.0Q447 21 469.0 43.0Q491 65 491.0 96.0Q491 127 469.0 149.0Q447 171 416 171ZM117 53Q91 53 72.0 72.0Q53 91 53.0 117.5Q53 144 72.0 162.5Q91 181 117.5 181.0Q144 181 162.5 162.5Q181 144 181.0 117.5Q181 91 162.5 72.0Q144 53 117 53ZM416 53Q398 53 385.5 65.5Q373 78 373.0 96.0Q373 114 385.5 126.5Q398 139 416.0 139.0Q434 139 446.5 126.5Q459 114 459.0 96.0Q459 78 446.5 65.5Q434 53 416 53ZM137 287Q128 296 128.0 309.0Q128 322 137.5 331.0Q147 340 160.0 340.0Q173 340 182.5 331.0Q192 322 192.0 309.0Q192 296 182.5 286.5Q173 277 160.0 277.0Q147 277 137 287Z" />
      </g>
    </svg>