<svg xmlns="http://www.w3.org/2000/svg" viewBox="52 -12 408 409">
      <g transform="scale(1 -1) translate(0 -385)">
        <path d="M235 320H299L369 390Q375 397 384.0 397.0Q393 397 399 390L454 335Q460 329 460.0 320.0Q460 311 454 305L405 256H235V213Q235 204 228.5 198.0Q222 192 213.0 192.0Q204 192 198.0 198.0Q192 204 192 213V277Q192 295 204.5 307.5Q217 320 235 320ZM107 213V128L58 79Q52 73 52.0 64.0Q52 55 58 49L113 -6Q119 -12 128.0 -12.0Q137 -12 143 -6L235 85H320Q329 85 335.0 91.5Q341 98 341 107V128H363Q372 128 378.0 134.0Q384 140 384 149V171H405Q414 171 420.5 177.0Q427 183 427 192V213H277V192Q277 174 264.5 161.5Q252 149 235 149H192Q174 149 161.5 161.5Q149 174 149 192V256Z" />
      </g>
    </svg>