<svg xmlns="http://www.w3.org/2000/svg" viewBox="64 -64 352 512">
      <g transform="scale(1 -1) translate(0 -384)">
        <path d="M64 251V112Q64 64 87.5 23.5Q111 -17 151.5 -40.5Q192 -64 240.0 -64.0Q288 -64 328.5 -40.5Q369 -17 392.5 23.5Q416 64 416 112V325Q416 336 408.0 344.0Q400 352 389.0 352.0Q378 352 370.5 344.0Q363 336 363 325V192H341V389Q341 400 333.5 408.0Q326 416 315.0 416.0Q304 416 296.0 408.0Q288 400 288 389V213H267V421Q267 432 259.0 440.0Q251 448 240.0 448.0Q229 448 221.0 440.0Q213 432 213 421V213H192V379Q192 390 184.0 397.5Q176 405 165.0 405.0Q154 405 146.5 397.5Q139 390 139 379V149Q170 145 191.5 120.5Q213 96 213 64H192Q192 90 173.0 109.0Q154 128 128 128H117V251Q117 262 109.5 269.5Q102 277 91.0 277.0Q80 277 72.0 269.5Q64 262 64 251Z" />
      </g>
    </svg>