<svg xmlns="http://www.w3.org/2000/svg" viewBox="24 -64 448 512">
      <g transform="scale(1 -1) translate(0 -384)">
        <path d="M445 -37 409 -1Q385 -31 351.0 -47.5Q317 -64 277 -64Q225 -64 182.0 -34.5Q139 -5 119 43L55 205Q50 218 59.0 228.0Q68 238 81 234L98 228Q117 222 125 203L155 128H171V237L24 384L51 411L472 -10ZM299 421Q299 432 291.0 440.0Q283 448 272.0 448.0Q261 448 253.0 440.0Q245 432 245 421V271L299 218ZM448 107V325Q448 336 440.0 344.0Q432 352 421.0 352.0Q410 352 402.5 344.0Q395 336 395 325V192H373V389Q373 400 365.5 408.0Q358 416 347.0 416.0Q336 416 328.0 408.0Q320 400 320 389V196L444 72Q448 89 448 107ZM224 379Q224 390 216.0 397.5Q208 405 197.0 405.0Q186 405 178.5 397.5Q171 390 171 379V346L224 292Z" />
      </g>
    </svg>