<svg xmlns="http://www.w3.org/2000/svg" viewBox="21 -21 448 426">
      <g transform="scale(1 -1) translate(0 -384)">
        <path d="M363 341 376 312 405 299 376 285 363 256 349 285 320 299 349 312ZM235 317V363H277Q295 363 310 353L341 384Q312 405 277 405H160V363H192V317Q164 311 142.5 292.0Q121 273 112 245H197L320 199V213Q320 251 295.5 280.5Q271 310 235 317ZM21 -21H107V213H21ZM427 85H277L233 101L240 121L277 107H337Q348 107 355.5 114.0Q363 121 363 132Q363 140 358.5 146.5Q354 153 346 156L191 213H149V21L299 -21L469 43Q469 60 456.5 72.5Q444 85 427 85ZM427 149Q444 149 456.5 161.5Q469 174 469 192Q469 207 448 243Q437 262 427 277L416 260Q403 240 395 225Q384 202 384 192Q384 174 396.5 161.5Q409 149 427 149Z" />
      </g>
    </svg>