<svg xmlns="http://www.w3.org/2000/svg" viewBox="53 -64 394 512">
      <g transform="scale(1 -1) translate(0 -384)">
        <path d="M448 299Q448 321 432.5 336.5Q417 352 395 352Q387 352 384 351V363Q384 385 368.5 400.5Q353 416 331 416Q323 416 316 414Q310 429 296.5 438.5Q283 448 267 448Q247 448 232.5 435.5Q218 423 214 404Q211 405 203 405Q181 405 165.0 389.5Q149 374 149 352V226Q138 237 123 240L107 245Q93 249 80.5 244.0Q68 239 60 227Q54 218 53.5 207.0Q53 196 57 186L112 48Q132 -2 177.0 -33.0Q222 -64 277 -64Q324 -64 363.0 -41.0Q402 -18 425.0 21.0Q448 60 448 107ZM405 107Q405 72 388.0 42.5Q371 13 341.5 -4.0Q312 -21 277 -21Q236 -21 201.5 2.0Q167 25 151 64L96 204L107 201Q123 197 128 181L149 128H192V352Q192 356 195.0 359.5Q198 363 202.5 363.0Q207 363 210.0 359.5Q213 356 213 352V192H256V395Q256 399 259.0 402.0Q262 405 266.5 405.0Q271 405 274.0 402.0Q277 399 277 395V192H320V363Q320 367 323.0 370.0Q326 373 330.5 373.0Q335 373 338.0 370.0Q341 367 341 363V192H384V299Q384 303 387.0 306.0Q390 309 394.5 309.0Q399 309 402.0 306.0Q405 303 405 299Z" />
      </g>
    </svg>