<svg xmlns="http://www.w3.org/2000/svg" viewBox="21 -43 470 470">
      <g transform="scale(1 -1) translate(0 -384)">
        <path d="M491 85Q491 51 473.5 21.5Q456 -8 426.5 -25.5Q397 -43 363 -43V-11Q403 -11 431.0 17.0Q459 45 459 85ZM21 299Q21 333 38.5 362.5Q56 392 85.5 409.5Q115 427 149 427V395Q109 395 81.0 367.0Q53 339 53 299ZM171 356 73 258Q39 224 27.0 178.5Q15 133 27.0 88.0Q39 43 73.0 9.0Q107 -25 152.0 -37.0Q197 -49 242.5 -37.0Q288 -25 322 9L473 160Q480 168 480.0 178.5Q480 189 472.5 197.0Q465 205 454.0 205.0Q443 205 435 197L340 103L325 118L465 258Q473 266 473.0 277.0Q473 288 465.0 295.5Q457 303 446.0 303.0Q435 303 427 295L303 171L288 186L435 333Q442 341 442.0 352.0Q442 363 434.5 371.0Q427 379 416.0 379.0Q405 379 397 371L250 224L235 239L352 356Q360 364 360.0 375.0Q360 386 352.0 393.5Q344 401 333.0 401.0Q322 401 314 394L152 231Q171 206 169.5 173.5Q168 141 145 118L129 134Q148 152 148.0 178.5Q148 205 129 224L122 231L209 318Q217 326 217.0 337.0Q217 348 209.0 356.0Q201 364 190.0 364.0Q179 364 171 356Z" />
      </g>
    </svg>