<svg xmlns="http://www.w3.org/2000/svg" viewBox="21 -32 448 437">
      <g transform="scale(1 -1) translate(0 -373)">
        <path d="M341 379Q364 405 399 405Q428 405 448.0 384.0Q468 363 469 335Q469 313 448.0 282.5Q427 252 406.0 231.5Q385 211 341 171Q297 211 276.0 231.5Q255 252 234.0 282.0Q213 312 213 335Q213 364 234.0 384.0Q255 404 284 405Q318 405 341 379ZM469 43V21L299 -32L149 9V-21H21V213H191L323 164Q341 158 352.0 142.0Q363 126 363 107H405Q432 107 450.5 88.0Q469 69 469 43ZM107 21V171H64V21ZM425 52Q422 57 416.5 60.5Q411 64 405 64H291Q273 64 257 69L207 86L220 127L271 110Q275 109 298 107H320Q320 113 316.5 117.5Q313 122 308 124L184 171H149V53L298 13Z" />
      </g>
    </svg>