<svg xmlns="http://www.w3.org/2000/svg" viewBox="96 -64 352 512">
      <g transform="scale(1 -1) translate(0 -384)">
        <path d="M421 277Q410 277 402.5 269.5Q395 262 395 251V128H384Q358 128 339.0 109.0Q320 90 320 64H299Q299 96 320.5 120.5Q342 145 373 149V379Q373 390 365.5 397.5Q358 405 347.0 405.0Q336 405 328.0 397.5Q320 390 320 379V213H299V421Q299 432 291.0 440.0Q283 448 272.0 448.0Q261 448 253.0 440.0Q245 432 245 421V213H224V389Q224 400 216.0 408.0Q208 416 197.0 416.0Q186 416 178.5 408.0Q171 400 171 389V192H149V325Q149 336 141.5 344.0Q134 352 123.0 352.0Q112 352 104.0 344.0Q96 336 96 325V112Q96 64 119.5 23.5Q143 -17 183.5 -40.5Q224 -64 272.0 -64.0Q320 -64 360.5 -40.5Q401 -17 424.5 23.5Q448 64 448 112V251Q448 262 440.0 269.5Q432 277 421 277Z" />
      </g>
    </svg>