<svg xmlns="http://www.w3.org/2000/svg" viewBox="61 -8 388 400">
      <g transform="scale(1 -1) translate(0 -384)">
        <path d="M284 37 404 158 450 112 329 -8ZM352 211 286 276Q282 280 277 282L253 374Q251 383 243.5 387.5Q236 392 227.5 389.5Q219 387 214.5 379.5Q210 372 212 364L235 277L185 380Q181 388 173.0 391.0Q165 394 157.0 390.0Q149 386 146.0 378.0Q143 370 147 362L183 286L111 357Q104 364 95.5 364.0Q87 364 80.5 357.5Q74 351 74.0 342.0Q74 333 81 327L160 248L122 233L81 205L72 193Q63 179 62.0 173.0Q61 167 70 141L80 115Q82 110 87.0 106.5Q92 103 99 103Q108 103 114.0 109.0Q120 115 120 124Q120 126 119 129V130L107 167L133 188L175 185Q195 167 200 152Q204 139 198 129Q194 122 186 116L178 112L104 90L101 87Q94 81 94 71L95 48L232 59Q244 58 254 67L352 165Q361 174 361.0 188.0Q361 202 352 211Z" />
      </g>
    </svg>