<svg xmlns="http://www.w3.org/2000/svg" viewBox="24 -42 448 469">
      <g transform="scale(1 -1) translate(0 -385)">
        <path d="M472 -10 51 411 24 384 63 344Q53 340 53 331L43 196Q41 164 54.0 134.5Q67 105 93 85Q92 115 102 142L145 263L170 238L132 131Q118 94 128.0 55.0Q138 16 169 -10Q195 -34 229.5 -40.5Q264 -47 297.0 -36.0Q330 -25 353 2L378 30L445 -37ZM107 238 96 243 100 307 127 280ZM205 155 195 163 208 199 227 180ZM319 198 396 285Q402 292 410.5 292.5Q419 293 425.5 287.5Q432 282 432.5 273.5Q433 265 427 258L348 169ZM423 229Q429 236 437.5 236.5Q446 237 452.0 231.5Q458 226 458.5 217.5Q459 209 454 203L388 128L359 157ZM463 156Q469 151 469.5 142.5Q470 134 464 128L429 87L400 116L433 154Q439 161 447.5 161.5Q456 162 463 156ZM332 299Q337 305 345.5 305.5Q354 306 360.5 300.5Q367 295 367.5 286.5Q368 278 363 272L307 209L278 238ZM249 268 298 368Q301 376 309.5 378.5Q318 381 325.5 377.5Q333 374 335.5 366.0Q338 358 335 350L326 333Q316 329 308 320L256 261ZM194 323 163 353 191 411Q195 419 203.0 421.5Q211 424 218.5 420.5Q226 417 229.0 409.0Q232 401 228 393ZM206 310 257 415Q261 423 269.0 425.5Q277 428 284.5 424.5Q292 421 295.0 413.0Q298 405 294 397L236 280Z" />
      </g>
    </svg>