<svg xmlns="http://www.w3.org/2000/svg" viewBox="64 -64 394 512">
      <g transform="scale(1 -1) translate(0 -384)">
        <path d="M64 107V325Q64 336 72.0 344.0Q80 352 91.0 352.0Q102 352 109.5 344.0Q117 336 117 325V192H139V389Q139 400 146.5 408.0Q154 416 165.0 416.0Q176 416 184.0 408.0Q192 400 192 389V192H213V421Q213 432 221.0 440.0Q229 448 240.0 448.0Q251 448 259.0 440.0Q267 432 267 421V192H288V379Q288 390 296.0 397.5Q304 405 315.0 405.0Q326 405 333.5 397.5Q341 390 341 379V128H357L387 203Q395 222 414 228L431 234Q444 238 453.0 228.0Q462 218 457 205L393 43Q373 -5 330.0 -34.5Q287 -64 235 -64Q188 -64 149.0 -41.0Q110 -18 87.0 21.0Q64 60 64 107Z" />
      </g>
    </svg>