<svg xmlns="http://www.w3.org/2000/svg" viewBox="21 -32 448 437">
      <g transform="scale(1 -1) translate(0 -373)">
        <path d="M341 405Q312 405 287.5 391.0Q263 377 249.0 352.5Q235 328 235.0 299.0Q235 270 249.0 245.5Q263 221 287.5 206.5Q312 192 341.0 192.0Q370 192 394.5 206.5Q419 221 433.5 245.5Q448 270 448.0 299.0Q448 328 433.5 352.5Q419 377 394.5 391.0Q370 405 341 405ZM341 235Q315 235 296.0 253.5Q277 272 277.0 298.5Q277 325 296.0 344.0Q315 363 341.5 363.0Q368 363 386.5 344.0Q405 325 405.0 298.5Q405 272 386.5 253.5Q368 235 341 235ZM405 107H363Q363 126 352.0 142.0Q341 158 323 164L191 213H21V-21H149V9L299 -32L469 21V43Q469 69 450.5 88.0Q432 107 405 107ZM107 21H64V171H107ZM298 13 149 53V171H184L308 124Q313 122 316.5 117.5Q320 113 320 107H298Q275 109 271 110L220 127L207 86L257 69Q273 64 291 64H405Q411 64 416.5 60.5Q422 57 425 52Z" />
      </g>
    </svg>