<svg xmlns="http://www.w3.org/2000/svg" viewBox="24 -64 448 512">
      <g transform="scale(1 -1) translate(0 -384)">
        <path d="M472 -10 51 411 24 384 76 332Q64 317 64 299V107Q64 60 87.0 21.0Q110 -18 149.0 -41.0Q188 -64 234.5 -64.0Q281 -64 321.5 -41.0Q362 -18 387 21L445 -37ZM235 -21Q200 -21 170.5 -4.0Q141 13 124.0 42.5Q107 72 107 107V301L128 280V192H171V237L192 216V192H216L355 52Q338 19 305.5 -1.0Q273 -21 235 -21ZM171 346 132 384Q139 398 152.0 407.0Q165 416 181 416Q189 416 196 414Q202 429 215.5 438.5Q229 448 245 448Q265 448 279.5 435.5Q294 423 298 404Q301 405 309 405Q331 405 347.0 389.5Q363 374 363 352V226Q374 237 389 240L405 245Q419 249 431.5 244.0Q444 239 452 227Q458 218 458.5 207.0Q459 196 455 186L420 97L387 129L416 204L405 201Q389 197 384 181L370 146L320 196V352Q320 356 317.0 359.5Q314 363 309.5 363.0Q305 363 302.0 359.5Q299 356 299 352V218L256 260V395Q256 399 253.0 402.0Q250 405 245.5 405.0Q241 405 238.0 402.0Q235 399 235 395V282L192 324V363Q192 367 189.0 370.0Q186 373 181.5 373.0Q177 373 174.0 370.0Q171 367 171 363Z" />
      </g>
    </svg>