<svg xmlns="http://www.w3.org/2000/svg" viewBox="85 -64 363 512">
      <g transform="scale(1 -1) translate(0 -384)">
        <path d="M395 277Q387 277 384 276V352Q384 374 368.5 389.5Q353 405 331 405Q323 405 319 404Q316 423 301.0 435.5Q286 448 267 448Q250 448 236.5 438.5Q223 429 217 414Q210 416 203 416Q181 416 165.0 400.5Q149 385 149 363V351Q146 352 139 352Q117 352 101.0 336.5Q85 321 85 299V117Q85 68 109.5 26.5Q134 -15 175.5 -39.5Q217 -64 266.5 -64.0Q316 -64 357.5 -39.5Q399 -15 423.5 26.5Q448 68 448 117V224Q448 246 432.5 261.5Q417 277 395 277ZM405 117Q405 80 386.5 48.0Q368 16 336.0 -2.5Q304 -21 266.5 -21.0Q229 -21 197.0 -2.5Q165 16 146.5 48.0Q128 80 128 117V299Q128 303 131.0 306.0Q134 309 138.5 309.0Q143 309 146.0 306.0Q149 303 149 299V192H192V363Q192 367 195.0 370.0Q198 373 202.5 373.0Q207 373 210.0 370.0Q213 367 213 363V213H256V395Q256 399 259.0 402.0Q262 405 266.5 405.0Q271 405 274.0 402.0Q277 399 277 395V213H320V352Q320 356 323.0 359.5Q326 363 330.5 363.0Q335 363 338.0 359.5Q341 356 341 352V162Q313 149 295.0 122.5Q277 96 277 64H320Q320 91 338.5 109.5Q357 128 384 128V224Q384 228 387.0 231.5Q390 235 394.5 235.0Q399 235 402.0 231.5Q405 228 405 224Z" />
      </g>
    </svg>