<svg xmlns="http://www.w3.org/2000/svg" viewBox="64 -64 363 512">
      <g transform="scale(1 -1) translate(0 -384)">
        <path d="M64 224V117Q64 68 88.5 26.5Q113 -15 154.5 -39.5Q196 -64 245.5 -64.0Q295 -64 336.5 -39.5Q378 -15 402.5 26.5Q427 68 427 117V299Q427 321 411.0 336.5Q395 352 373 352Q366 352 363 351V363Q363 385 347.0 400.5Q331 416 309 416Q302 416 295 414Q289 429 275.5 438.5Q262 448 245 448Q226 448 211.0 435.5Q196 423 193 404Q189 405 181 405Q159 405 143.5 389.5Q128 374 128 352V276Q125 277 117 277Q95 277 79.5 261.5Q64 246 64 224ZM107 224Q107 228 110.0 231.5Q113 235 117.5 235.0Q122 235 125.0 231.5Q128 228 128 224V128Q155 128 173.5 109.5Q192 91 192 64H235Q235 96 217.0 122.5Q199 149 171 162V352Q171 356 174.0 359.5Q177 363 181.5 363.0Q186 363 189.0 359.5Q192 356 192 352V213H235V395Q235 399 238.0 402.0Q241 405 245.5 405.0Q250 405 253.0 402.0Q256 399 256 395V213H299V363Q299 367 302.0 370.0Q305 373 309.5 373.0Q314 373 317.0 370.0Q320 367 320 363V192H363V299Q363 303 366.0 306.0Q369 309 373.5 309.0Q378 309 381.0 306.0Q384 303 384 299V117Q384 80 365.5 48.0Q347 16 315.0 -2.5Q283 -21 245.5 -21.0Q208 -21 176.0 -2.5Q144 16 125.5 48.0Q107 80 107 117Z" />
      </g>
    </svg>