<svg xmlns="http://www.w3.org/2000/svg" viewBox="43 -32 426 459">
      <g transform="scale(1 -1) translate(0 -395)">
        <path d="M372 -32H114Q84 -32 63.5 -11.0Q43 10 43 39V169Q43 199 64 220L184 338L206 315Q212 309 212 301Q212 295 209 290L171 235H398Q409 235 417.0 227.0Q425 219 425.0 208.0Q425 197 417.0 189.0Q409 181 398 181H274V164H443Q454 164 461.5 156.0Q469 148 469.0 137.0Q469 126 461.5 118.0Q454 110 443 110H274V92H425Q436 92 444.0 84.5Q452 77 452.0 66.0Q452 55 444.0 47.0Q436 39 425 39H274V21H372Q383 21 390.5 13.5Q398 6 398.0 -5.0Q398 -16 390.5 -24.0Q383 -32 372 -32ZM288 346Q284 341 280 336Q270 323 264 313Q256 298 256 288Q256 268 272.0 260.0Q288 252 304.0 260.0Q320 268 320 288Q320 298 312 313Q306 323 296 336ZM395 427Q388 418 381 410Q365 390 355 372Q341 347 341 331Q341 306 358 291Q373 277 394.5 277.0Q416 277 431 291Q448 306 448.0 330.0Q448 354 421 393Q408 412 395 427Z" />
      </g>
    </svg>