<svg xmlns="http://www.w3.org/2000/svg" viewBox="53 -64 394 512">
      <g transform="scale(1 -1) translate(0 -384)">
        <path d="M277 -64Q225 -64 182.0 -34.5Q139 -5 119 43L55 205Q50 218 59.0 228.0Q68 238 81 234L98 228Q117 222 125 203L155 128H171V379Q171 390 178.5 397.5Q186 405 197.0 405.0Q208 405 216.0 397.5Q224 390 224 379V192H245V421Q245 432 253.0 440.0Q261 448 272.0 448.0Q283 448 291.0 440.0Q299 432 299 421V192H320V389Q320 400 328.0 408.0Q336 416 347.0 416.0Q358 416 365.5 408.0Q373 400 373 389V192H395V325Q395 336 402.5 344.0Q410 352 421.0 352.0Q432 352 440.0 344.0Q448 336 448 325V107Q448 60 425.0 21.0Q402 -18 363.0 -41.0Q324 -64 277 -64Z" />
      </g>
    </svg>