<svg xmlns="http://www.w3.org/2000/svg" viewBox="21 -21 449 426">
      <g transform="scale(1 -1) translate(0 -384)">
        <path d="M341 192Q370 192 394.5 206.5Q419 221 433.5 245.5Q448 270 448.0 299.0Q448 328 433.5 352.5Q419 377 394.5 391.0Q370 405 341.0 405.0Q312 405 287.5 391.0Q263 377 249.0 352.5Q235 328 235.0 299.0Q235 270 249.0 245.5Q263 221 287.5 206.5Q312 192 341 192ZM458 73Q445 85 427 85H277L233 101L240 121L277 107H337Q348 107 355.5 114.5Q363 122 363 132Q363 149 346 156L191 213H149V21L299 -21L470 43Q470 60 458 73ZM107 213H21V-21H107Z" />
      </g>
    </svg>