<svg xmlns="http://www.w3.org/2000/svg" viewBox="43 21 426 342">
      <g transform="scale(1 -1) translate(0 -384)">
        <path d="M256 363Q225 363 203.0 341.0Q181 319 181 288H224Q224 301 233.5 310.5Q243 320 256.0 320.0Q269 320 278.5 310.5Q288 301 288.0 288.0Q288 275 278.5 265.5Q269 256 256 256Q247 256 241.0 249.5Q235 243 235 235V197L51 60Q46 56 44.0 49.0Q42 42 44.0 35.5Q46 29 51.5 25.0Q57 21 64 21H448Q455 21 460.5 25.0Q466 29 468.0 35.5Q470 42 468.0 49.0Q466 56 461 60L277 197V217Q301 224 316.0 243.5Q331 263 331 288Q331 319 309.0 341.0Q287 363 256 363ZM256 160 384 64H128Z" />
      </g>
    </svg>