<svg xmlns="http://www.w3.org/2000/svg" viewBox="85 -21 342 426">
      <g transform="scale(1 -1) translate(0 -384)">
        <path d="M128 405H384Q402 405 414.5 392.5Q427 380 427 363V21Q427 4 414.5 -8.5Q402 -21 384 -21H128Q110 -21 97.5 -8.5Q85 4 85 21V363Q85 380 97.5 392.5Q110 405 128 405ZM256 363Q221 363 191.5 345.5Q162 328 145.0 298.5Q128 269 128.0 234.5Q128 200 145.5 170.5Q163 141 192.5 124.0Q222 107 258 107L239 154Q235 162 237.5 170.5Q240 179 247 183L266 194Q273 198 281.5 196.0Q290 194 295 186L336 135Q358 153 371.0 179.0Q384 205 384 235Q384 269 367.0 298.5Q350 328 320.5 345.5Q291 363 256 363ZM256 256Q265 256 271.0 250.0Q277 244 277.0 235.0Q277 226 271.0 219.5Q265 213 256.0 213.0Q247 213 241.0 219.5Q235 226 235.0 235.0Q235 244 241.0 250.0Q247 256 256 256ZM149 64Q140 64 134.0 58.0Q128 52 128.0 43.0Q128 34 134.0 27.5Q140 21 149.0 21.0Q158 21 164.5 27.5Q171 34 171.0 43.0Q171 52 164.5 58.0Q158 64 149 64ZM258 165 311 30 366 62 276 176Z" />
      </g>
    </svg>