<svg xmlns="http://www.w3.org/2000/svg" viewBox="43 64 426 256">
      <g transform="scale(1 -1) translate(0 -384)">
        <path d="M211 189 192 310Q256 331 320 310L301 189Q300 181 294.0 176.0Q288 171 280 171H232Q224 171 218.0 176.0Q212 181 211 189ZM469 107Q469 119 462.0 129.5Q455 140 444 146Q436 183 415.0 214.0Q394 245 363 267L325 163Q323 157 317.5 153.0Q312 149 305 149H207Q200 149 194.5 153.0Q189 157 187 163L149 267Q118 245 97.0 214.0Q76 183 68 146Q57 140 50.0 129.5Q43 119 43 107L180 67Q193 64 204 64H308Q319 64 331 67Z" />
      </g>
    </svg>