<svg xmlns="http://www.w3.org/2000/svg" viewBox="31 -33 396 438">
      <g transform="scale(1 -1) translate(0 -372)">
        <path d="M256 256Q247 256 241.0 250.0Q235 244 235.0 235.0Q235 226 241.0 219.5Q247 213 256.0 213.0Q265 213 271.0 219.5Q277 226 277.0 235.0Q277 244 271.0 250.0Q265 256 256 256ZM256 256Q247 256 241.0 250.0Q235 244 235.0 235.0Q235 226 241.0 219.5Q247 213 256.0 213.0Q265 213 271.0 219.5Q277 226 277.0 235.0Q277 244 271.0 250.0Q265 256 256 256ZM384 405H128Q110 405 97.5 392.5Q85 380 85 363V169Q96 171 107 171Q129 171 149 163Q130 191 127.5 224.5Q125 258 139.0 288.5Q153 319 181.0 339.0Q209 359 242.0 362.0Q275 365 306.0 352.0Q337 339 357.5 312.0Q378 285 382.0 251.5Q386 218 374.0 187.0Q362 156 335 135L294 186Q290 194 281.5 196.5Q273 199 265 194L247 183Q239 179 236.5 170.5Q234 162 239 154L258 107Q235 107 213 115Q234 84 235.0 47.0Q236 10 217 -21H384Q402 -21 414.5 -8.5Q427 4 427 21V363Q427 380 414.5 392.5Q402 405 384 405ZM311 30 258 165 276 176 366 62ZM256 213Q265 213 271.0 219.5Q277 226 277.0 235.0Q277 244 271.0 250.0Q265 256 256.0 256.0Q247 256 241.0 250.0Q235 244 235.0 235.0Q235 226 241.0 219.5Q247 213 256 213ZM152 -33 107 13 61 -33 31 -3 77 43 31 88 61 118 107 73 152 118 182 88 137 43 182 -3Z" />
      </g>
    </svg>