<svg xmlns="http://www.w3.org/2000/svg" viewBox="43 33 426 327">
      <g transform="scale(1 -1) translate(0 -393)">
        <path d="M408 194Q408 200 408 207Q408 243 399.5 278.5Q391 314 376.5 337.0Q362 360 347 360Q337 360 324 355Q317 352 301.5 344.5Q286 337 279 334Q266 329 256.0 329.0Q246 329 233 334Q225 337 210.0 344.5Q195 352 187 355Q175 360 164 360Q150 360 135.5 337.5Q121 315 112.5 279.5Q104 244 104 207V194Q180 177 257.0 177.0Q334 177 408 194ZM74 60Q163 33 256.0 33.0Q349 33 438 60Q452 65 460.5 77.0Q469 89 469.0 103.0Q469 117 460.5 129.5Q452 142 439 146Q351 118 256.0 118.0Q161 118 73 146Q60 142 51.5 130.0Q43 118 43.0 103.0Q43 88 51.5 76.5Q60 65 74 60Z" />
      </g>
    </svg>