<svg xmlns="http://www.w3.org/2000/svg" viewBox="84 0 342 384">
      <g transform="scale(1 -1) translate(0 -384)">
        <path d="M277 384Q238 384 204.5 365.0Q171 346 150.5 313.5Q130 281 128 242L87 188Q83 183 86.0 177.0Q89 171 96 171H128V107Q128 89 140.5 76.5Q153 64 171 64H192V0H341V100Q380 118 403.5 154.5Q427 191 427 235Q427 275 407.0 309.5Q387 344 352.5 364.0Q318 384 277 384ZM363 260Q363 237 343 213Q330 197 290 161L277 149L265 161Q225 197 212 213Q192 237 192 260Q192 279 205.5 292.5Q219 306 238 307H239Q262 307 277 289Q293 307 316 307Q335 307 349.0 293.5Q363 280 363 260Z" />
      </g>
    </svg>