<svg xmlns="http://www.w3.org/2000/svg" viewBox="42 -43 426 470">
      <g transform="scale(1 -1) translate(0 -384)">
        <path d="M277 384Q318 384 352.5 364.0Q387 344 407.0 309.5Q427 275 427 235Q427 191 403.5 154.5Q380 118 341 100V0H192V64H171Q153 64 140.5 76.5Q128 89 128 107V171H96Q89 171 86.0 177.0Q83 183 87 188L128 242Q130 281 150.5 313.5Q171 346 204.5 365.0Q238 384 277 384ZM277 427Q229 427 187.5 404.5Q146 382 119.0 343.5Q92 305 87 258L53 213Q44 202 42.5 187.0Q41 172 48 158Q60 134 85 129V107Q85 77 103.5 54.0Q122 31 149 24V-43H384V75Q424 102 446.5 144.0Q469 186 469 235Q469 287 443.5 331.0Q418 375 373.5 401.0Q329 427 277 427ZM266 171 192 245 222 275 266 231 354 320 384 290Z" />
      </g>
    </svg>