<svg xmlns="http://www.w3.org/2000/svg" viewBox="41 -43 427 470">
      <g transform="scale(1 -1) translate(0 -384)">
        <path d="M277 384Q318 384 352.5 364.0Q387 344 407.0 309.5Q427 275 427 235Q427 191 403.5 154.5Q380 118 341 100V0H192V64H171Q153 64 140.5 76.5Q128 89 128 107V171H96Q89 171 86.0 177.0Q83 183 87 188L128 242Q130 281 150.5 313.5Q171 346 204.5 365.0Q238 384 277 384ZM277 427Q229 427 187.5 404.5Q146 382 119.0 343.5Q92 305 87 258L53 213H52Q43 201 42.0 186.0Q41 171 48 157Q60 134 85 129V107Q85 77 103.5 54.0Q122 31 149 24V-43H384V75Q424 101 446.5 143.5Q469 186 469 235Q469 287 443.5 331.0Q418 375 373.5 401.0Q329 427 277 427ZM299 128V160Q263 160 238.0 185.0Q213 210 213 245Q213 271 228 292L251 269Q245 258 245 245Q245 223 261.0 207.5Q277 192 299 192V224L347 176ZM370 198 346 221Q352 233 352 245Q352 267 336.5 283.0Q321 299 299 299V267L251 315L299 363V331Q334 331 359.0 306.0Q384 281 384 245Q384 220 370 198Z" />
      </g>
    </svg>