<svg xmlns="http://www.w3.org/2000/svg" viewBox="84 0 342 384">
      <g transform="scale(1 -1) translate(0 -384)">
        <path d="M277 384Q238 384 204.5 365.0Q171 346 150.5 313.5Q130 281 128 242L87 188Q83 183 86.0 177.0Q89 171 96 171H128V107Q128 89 140.5 76.5Q153 64 171 64H192V0H341V100Q380 118 403.5 154.5Q427 191 427 235Q427 275 407.0 309.5Q387 344 352.5 364.0Q318 384 277 384ZM277 128V160Q242 160 217.0 185.0Q192 210 192 245Q192 271 206 292L230 269Q224 258 224 245Q224 223 239.5 207.5Q255 192 277 192V224L325 176ZM348 198 325 221Q331 233 331 245Q331 267 315.0 283.0Q299 299 277 299V267L229 315L277 363V331Q313 331 338.0 306.0Q363 281 363 245Q363 220 348 198Z" />
      </g>
    </svg>