<svg xmlns="http://www.w3.org/2000/svg" viewBox="64 -43 384 470">
      <g transform="scale(1 -1) translate(0 -384)">
        <path d="M256 427Q204 427 159.5 401.0Q115 375 89.5 331.0Q64 287 64 235V85Q64 59 82.5 40.0Q101 21 128 21H192V192H107V235Q107 275 127.0 309.5Q147 344 181.0 364.0Q215 384 256.0 384.0Q297 384 331.0 364.0Q365 344 385.0 309.5Q405 275 405 235V192H320V21H405V0H256V-43H384Q411 -43 429.5 -24.0Q448 -5 448 21V235Q448 287 422.0 331.0Q396 375 352.0 401.0Q308 427 256 427Z" />
      </g>
    </svg>