<svg xmlns="http://www.w3.org/2000/svg" viewBox="64 0 384 384">
      <g transform="scale(1 -1) translate(0 -384)">
        <path d="M154 64Q143 64 135.5 71.5Q128 79 128 90V192Q128 227 145.0 256.5Q162 286 191.5 303.0Q221 320 256.0 320.0Q291 320 320.5 303.0Q350 286 367.0 256.5Q384 227 384 192V90Q384 79 376.5 71.5Q369 64 358 64H299V149H341V192Q341 227 316.0 252.0Q291 277 256.0 277.0Q221 277 196.0 252.0Q171 227 171 192V149H213V64ZM405 384H107Q89 384 76.5 371.5Q64 359 64 341V43Q64 25 76.5 12.5Q89 0 107 0H405Q423 0 435.5 12.5Q448 25 448 43V341Q448 359 435.5 371.5Q423 384 405 384Z" />
      </g>
    </svg>