<svg xmlns="http://www.w3.org/2000/svg" viewBox="64 -64 384 491">
      <g transform="scale(1 -1) translate(0 -363)">
        <path d="M256 427Q308 427 352.0 401.0Q396 375 422.0 331.0Q448 287 448 235V85Q448 59 429.5 40.0Q411 21 384 21H320V192H405V235Q405 275 385.0 309.5Q365 344 331.0 364.0Q297 384 256.0 384.0Q215 384 181.0 364.0Q147 344 127.0 309.5Q107 275 107 235V192H192V21H128Q101 21 82.5 40.0Q64 59 64 85V235Q64 287 90.0 331.0Q116 375 160.0 401.0Q204 427 256 427ZM320 -64V-21H363V-64ZM235 -64V-21H277V-64ZM149 -64V-21H192V-64Z" />
      </g>
    </svg>