<svg xmlns="http://www.w3.org/2000/svg" viewBox="41 -43 427 470">
      <g transform="scale(1 -1) translate(0 -384)">
        <path d="M277 384Q318 384 352.5 364.0Q387 344 407.0 309.5Q427 275 427 235Q427 191 403.5 154.5Q380 118 341 100V0H192V64H171Q153 64 140.5 76.5Q128 89 128 107V171H96Q89 171 86.0 177.0Q83 183 87 188L128 242Q130 281 150.5 313.5Q171 346 204.5 365.0Q238 384 277 384ZM220 290H261Q262 300 267.5 305.0Q273 310 282.0 310.0Q291 310 297.0 304.0Q303 298 303.0 288.0Q303 278 298.5 270.5Q294 263 285 258Q269 247 262.5 238.5Q256 230 256 213H299Q299 224 301.5 229.5Q304 235 312 240Q327 248 336.0 260.5Q345 273 345 288Q345 312 328.0 326.5Q311 341 282.5 341.0Q254 341 237.0 328.5Q220 316 220 291ZM256 149H299V192H256ZM277 427Q229 427 187.5 404.5Q146 382 119.0 343.5Q92 305 87 258L53 213H52Q43 201 42.0 186.0Q41 171 48 157Q60 134 85 129V107Q85 77 103.5 54.0Q122 31 149 24V-43H384V75Q424 101 446.5 143.5Q469 186 469 235Q469 287 443.5 331.0Q418 375 373.5 401.0Q329 427 277 427Z" />
      </g>
    </svg>