<svg xmlns="http://www.w3.org/2000/svg" viewBox="43 21 426 342">
      <g transform="scale(1 -1) translate(0 -384)">
        <path d="M43 64H192V317Q164 310 146.0 287.0Q128 264 128 235V213H171V85H128Q110 85 97.5 97.5Q85 110 85 128V235Q85 269 102.5 298.5Q120 328 149.5 345.5Q179 363 213 363H235Q269 363 298.5 345.5Q328 328 345.5 298.5Q363 269 363 235V192H384V256H427V192Q427 174 414.5 161.5Q402 149 384 149H363V128Q363 110 350.5 97.5Q338 85 320 85H277V213H320V235Q320 264 302.0 287.0Q284 310 256 317V64H469V21H43Z" />
      </g>
    </svg>