<svg xmlns="http://www.w3.org/2000/svg" viewBox="84 0 342 384">
      <g transform="scale(1 -1) translate(0 -384)">
        <path d="M277 265Q290 265 299.0 256.0Q308 247 308.0 234.5Q308 222 299.0 213.0Q290 204 277.5 204.0Q265 204 256.0 213.0Q247 222 247.0 234.5Q247 247 255.5 256.0Q264 265 277 265ZM277 384Q318 384 352.5 364.0Q387 344 407.0 309.5Q427 275 427 235Q427 191 403.5 154.5Q380 118 341 100V0H192V64H171Q153 64 140.5 76.5Q128 89 128 107V171H96Q89 171 86.0 177.0Q83 183 87 188L128 242Q130 281 150.5 313.5Q171 346 204.5 365.0Q238 384 277 384ZM341 235Q341 240 340 243L359 257Q360 258 360.5 260.0Q361 262 360 263L343 292Q342 294 340.0 294.5Q338 295 337 294L316 285Q311 291 302 294L299 316Q298 320 294 320H260Q256 320 256 316L253 294Q245 291 239 285L217 294Q214 295 212 292L195 263Q193 258 196 257L214 243L213 235L214 226L196 212Q193 211 195 207L212 177Q213 175 217 175L238 184Q245 179 253 176L256 153Q256 149 260 149H294Q297 149 299 153L302 176Q312 180 316 184L337 175Q342 175 343 177L360 207Q361 210 359 212L341 226Z" />
      </g>
    </svg>