<svg xmlns="http://www.w3.org/2000/svg" viewBox="42 -43 426 470">
      <g transform="scale(1 -1) translate(0 -384)">
        <path d="M277 384Q318 384 352.5 364.0Q387 344 407.0 310.0Q427 276 427 235Q427 190 403.5 154.0Q380 118 341 100V0H192V64H171Q153 64 140.5 76.5Q128 89 128 107V171H96Q89 171 86.0 177.0Q83 183 87 188L128 241Q130 281 150.5 313.5Q171 346 204.0 365.0Q237 384 277 384ZM277 427Q229 427 187.5 405.0Q146 383 119.5 344.5Q93 306 87 258L53 213Q44 201 43.0 186.0Q42 171 49 158Q63 133 85 130V107Q85 77 103.0 54.5Q121 32 149 23V-43H384V75Q424 102 446.5 144.0Q469 186 469 235Q469 287 443.5 331.0Q418 375 374.0 401.0Q330 427 277 427ZM299 128H256V171H299ZM299 213H256V341H299Z" />
      </g>
    </svg>