<svg xmlns="http://www.w3.org/2000/svg" viewBox="41 -43 427 470">
      <g transform="scale(1 -1) translate(0 -384)">
        <path d="M277 384Q318 384 352.5 364.0Q387 344 407.0 309.5Q427 275 427 235Q427 191 403.5 154.5Q380 118 341 100V0H192V64H171Q153 64 140.5 76.5Q128 89 128 107V171H96Q89 171 86.0 177.0Q83 183 87 188L128 242Q130 281 150.5 313.5Q171 346 204.5 365.0Q238 384 277 384ZM277 427Q229 427 187.5 404.5Q146 382 119.0 343.5Q92 305 87 258L53 213H52Q43 201 42.0 186.0Q41 171 48 157Q60 134 85 129V107Q85 77 103.5 54.0Q122 31 149 24V-43H384V75Q424 101 446.5 143.5Q469 186 469 235Q469 287 443.5 331.0Q418 375 373.5 401.0Q329 427 277 427ZM370 250 328 239 359 208Q364 202 364.0 194.0Q364 186 358.5 180.5Q353 175 345.0 175.0Q337 175 332 180L301 211L289 169Q288 162 281.0 158.0Q274 154 266.5 156.0Q259 158 255.0 165.0Q251 172 253 179L264 221L222 210Q214 208 207.0 212.0Q200 216 198.0 223.5Q196 231 200.0 238.0Q204 245 212 247L254 258L223 289Q218 294 218.0 302.0Q218 310 223.5 316.0Q229 322 237.0 322.0Q245 322 250 316L281 285L292 327Q294 335 301.0 339.0Q308 343 315.5 341.0Q323 339 327.0 332.0Q331 325 329 317L318 275L360 287Q368 289 374.5 285.0Q381 281 383.0 273.0Q385 265 381.0 258.5Q377 252 370 250Z" />
      </g>
    </svg>