<svg xmlns="http://www.w3.org/2000/svg" viewBox="84 0 342 384">
      <g transform="scale(1 -1) translate(0 -384)">
        <path d="M277 384Q238 384 204.5 365.0Q171 346 150.5 313.5Q130 281 128 242L87 188Q83 183 86.0 177.0Q89 171 96 171H128V107Q128 89 140.5 76.5Q153 64 171 64H192V0H341V100Q380 118 403.5 154.5Q427 191 427 235Q427 275 407.0 309.5Q387 344 352.5 364.0Q318 384 277 384ZM299 149H256V171H299ZM333 245Q324 231 309 222V192H245V222Q222 236 215.5 261.5Q209 287 222.0 309.5Q235 332 261.0 339.0Q287 346 309.5 333.0Q332 320 339.0 294.5Q346 269 333 245Z" />
      </g>
    </svg>