<svg xmlns="http://www.w3.org/2000/svg" viewBox="32 -43 416 470">
      <g transform="scale(1 -1) translate(0 -384)">
        <path d="M32 346 76 302Q64 270 64 235V21Q64 -5 82.5 -24.0Q101 -43 128 -43H256V0H107V21H192V186L320 58V21H357L410 -32L437 -5L59 373ZM256 427Q216 427 180.5 411.5Q145 396 118 369L148 338Q169 360 197.0 372.0Q225 384 256 384Q297 384 331.0 364.0Q365 344 385.0 309.5Q405 275 405 235V192H320V167L437 50Q448 66 448 85V235Q448 287 422.0 331.0Q396 375 352.0 401.0Q308 427 256 427ZM107 192V235Q107 251 110 268L186 192Z" />
      </g>
    </svg>