<svg xmlns="http://www.w3.org/2000/svg" viewBox="43 64 434 256">
      <g transform="scale(1 -1) translate(0 -384)">
        <path d="M171 320Q136 320 106.5 303.0Q77 286 60.0 256.5Q43 227 43 192V90Q43 79 50.5 71.5Q58 64 68 64H128V149H85V192Q85 227 110.0 252.0Q135 277 170.5 277.0Q206 277 231.0 252.0Q256 227 256 192V149H213V64H273Q284 64 291.5 71.5Q299 79 299 90V192Q299 227 281.5 256.5Q264 286 234.5 303.0Q205 320 171 320ZM405 299V218L356 267L341 252L401 192L341 132L356 117L405 166V85H416L477 146L431 192L477 238L416 299ZM427 258 447 238 427 218ZM427 166 447 146 427 126Z" />
      </g>
    </svg>