<svg xmlns="http://www.w3.org/2000/svg" viewBox="32 -32 416 459">
      <g transform="scale(1 -1) translate(0 -395)">
        <path d="M256 427Q308 427 352.0 401.0Q396 375 422.0 331.0Q448 287 448 235V85Q448 66 437 50L320 167V192H405V235Q405 275 385.0 309.5Q365 344 331.0 364.0Q297 384 256 384Q225 384 197.0 372.0Q169 360 148 338L118 369Q145 396 180.5 411.5Q216 427 256 427ZM59 373 437 -5 410 -32 357 21H320V58L192 186V21H128Q101 21 82.5 40.0Q64 59 64 85V235Q64 270 76 302L32 346ZM110 268Q107 251 107 235V192H186Z" />
      </g>
    </svg>