<svg xmlns="http://www.w3.org/2000/svg" viewBox="11 -30 490 444">
      <g transform="scale(1 -1) translate(0 -384)">
        <path d="M288 21Q286 23 283 26Q199 104 168 135Q119 185 98 220Q75 259 75 297Q75 329 90.5 356.0Q106 383 132.5 398.5Q159 414 192 414Q219 414 244.5 402.0Q270 390 288 369Q306 390 331.5 402.0Q357 414 384 414Q417 414 443.5 398.5Q470 383 485.5 356.0Q501 329 501 297Q501 258 477 218Q456 182 406 132Q374 100 288 21ZM256 -2Q169 76 135 110Q83 163 59 204Q32 251 32 299V311Q11 279 11 243Q11 204 35 164Q56 128 106 79Q139 46 224 -30Z" />
      </g>
    </svg>