<svg xmlns="http://www.w3.org/2000/svg" viewBox="43 -64 426 448">
      <g transform="scale(1 -1) translate(0 -320)">
        <path d="M149 -21H192V-64H149ZM235 -64H277V-21H235ZM320 -64H363V-21H320ZM469 267Q469 228 446 189Q426 155 383 111Q356 83 287 21L256 -7L225 21Q156 83 129 111Q86 155 66 189Q43 228 43 267Q43 299 58.5 326.0Q74 353 101.0 368.5Q128 384 160 384Q188 384 213.0 372.0Q238 360 256 340Q274 360 299.0 372.0Q324 384 352 384Q384 384 411.0 368.5Q438 353 453.5 326.0Q469 299 469 267ZM427 267Q427 299 405.5 320.0Q384 341 352 341Q327 341 305.5 327.0Q284 313 276 291H236Q228 313 206.5 327.0Q185 341 160 341Q128 341 106.5 320.0Q85 299 85 267Q85 237 106 204Q125 175 165 135Q190 110 254 52L256 50L258 52Q322 110 347 135Q387 175 406 204Q427 237 427 267Z" />
      </g>
    </svg>