<svg xmlns="http://www.w3.org/2000/svg" viewBox="64 0 384 384">
      <g transform="scale(1 -1) translate(0 -384)">
        <path d="M256 85 241 99 240 100Q190 145 174 165Q149 195 149 223Q149 247 166.0 264.0Q183 281 208 281Q222 281 234.5 275.0Q247 269 256 259Q265 269 277.5 275.0Q290 281 304 281Q329 281 346.0 264.0Q363 247 363 223Q363 195 338 165Q322 145 272 100ZM107 384H405Q423 384 435.5 371.5Q448 359 448 341V43Q448 25 435.5 12.5Q423 0 405 0H107Q89 0 76.5 12.5Q64 25 64 43V341Q64 359 76.5 371.5Q89 384 107 384ZM107 341V43H405V341Z" />
      </g>
    </svg>