<svg xmlns="http://www.w3.org/2000/svg" viewBox="43 -21 426 426">
      <g transform="scale(1 -1) translate(0 -384)">
        <path d="M256 405Q198 405 149.0 376.5Q100 348 71.5 299.0Q43 250 43 192Q43 150 59.0 110.5Q75 71 105.0 41.0Q135 11 174.5 -5.0Q214 -21 256.0 -21.0Q298 -21 337.5 -5.0Q377 11 407.0 41.0Q437 71 453.0 110.5Q469 150 469.0 192.0Q469 234 453.0 273.5Q437 313 407.0 343.0Q377 373 337.5 389.0Q298 405 256 405ZM208 281Q222 281 234.5 275.0Q247 269 256 259Q265 269 277.5 275.0Q290 281 304 281Q329 281 346.0 264.0Q363 247 363 223Q363 195 338 165Q322 145 272 100L256 85L240 100Q190 145 174 165Q149 195 149 223Q149 247 166.0 264.0Q183 281 208 281Z" />
      </g>
    </svg>