<svg xmlns="http://www.w3.org/2000/svg" viewBox="43 7 426 355">
      <g transform="scale(1 -1) translate(0 -369)">
        <path d="M160 363Q128 363 101.0 347.0Q74 331 58.5 304.0Q43 277 43 245Q43 231 47 213H134L161 285Q165 294 173.0 297.0Q181 300 189.0 297.0Q197 294 201 285L245 171L258 201Q260 206 265.5 209.5Q271 213 277 213H465Q469 231 469 245Q469 277 453.5 304.0Q438 331 411.0 347.0Q384 363 352 363Q323 363 297.5 349.5Q272 336 256 313Q240 336 214.5 349.5Q189 363 160 363ZM64 181Q55 181 49.0 175.0Q43 169 43.0 160.0Q43 151 49.0 145.0Q55 139 64 139H116L235 21Q247 11 251.5 8.5Q256 6 260.5 8.5Q265 11 277 21L396 139H448Q457 139 463.0 145.0Q469 151 469.0 160.0Q469 169 463.0 175.0Q457 181 448 181H286L266 132Q262 122 253.5 118.5Q245 115 237.0 119.0Q229 123 225 132L181 245L161 196Q158 189 153.0 185.0Q148 181 141 181Z" />
      </g>
    </svg>