<svg xmlns="http://www.w3.org/2000/svg" viewBox="43 -64 465 448">
      <g transform="scale(1 -1) translate(0 -320)">
        <path d="M352 341Q327 341 305.5 327.0Q284 313 276 291H236Q228 313 206.5 327.0Q185 341 160 341Q128 341 106.5 320.0Q85 299 85 267Q85 237 106 204Q125 175 165 135Q190 110 254 52L256 50V51V43Q256 21 263 -1L256 -7L225 21Q156 83 129 111Q86 155 66 189Q43 228 43 267Q43 299 58.5 326.0Q74 353 101.0 368.5Q128 384 160 384Q188 384 213.0 372.0Q238 360 256 340Q274 360 299.0 372.0Q324 384 352 384Q384 384 411.0 368.5Q438 353 453.5 326.0Q469 299 469 267Q469 228 445 187Q425 192 405 192H397Q427 232 427 267Q427 299 405.5 320.0Q384 341 352 341ZM508 8 487 -29Q486 -32 480 -32L454 -21Q444 -28 436 -31L432 -60Q431 -64 427 -64H384Q379 -64 378 -60L374 -31Q366 -28 356 -21L330 -32Q324 -32 323 -29L302 8Q300 12 303 15L326 32Q325 37 325.0 42.5Q325 48 326 53L303 71Q300 74 302 78L323 115Q325 117 330 117L356 107Q365 112 374 117L378 145Q379 149 384 149H427Q431 149 432 145L436 117Q443 114 454 107L480 117Q486 117 487 115L508 78Q510 74 507 71L484 53Q485 48 485 43L484 32L507 15Q510 12 508 8ZM437 43Q437 56 428.0 65.5Q419 75 405.5 75.0Q392 75 382.5 65.5Q373 56 373.0 42.5Q373 29 382.5 20.0Q392 11 405.5 11.0Q419 11 428.0 20.0Q437 29 437 43Z" />
      </g>
    </svg>