<svg xmlns="http://www.w3.org/2000/svg" viewBox="43 -9 426 393">
      <g transform="scale(1 -1) translate(0 -375)">
        <path d="M160 341Q169 341 173 339L224 252L145 154Q115 189 102 213Q85 241 85 267Q85 299 106.5 320.0Q128 341 160 341ZM160 384Q127 384 100.5 368.5Q74 353 58.5 326.0Q43 299 43 267Q43 228 66 189Q86 154 129 111Q158 81 226 21L256 -6L192 143L277 250L201 378Q181 384 160 384ZM352 341Q384 341 405.5 320.0Q427 299 427 267Q427 228 388 181Q360 145 286 79L279 128L382 241L333 337Q339 341 352 341ZM352 384Q332 384 311.5 376.5Q291 369 275 356L331 247L235 141L256 -9L286 19Q355 82 383 110Q426 154 446 188Q469 227 469 265Q469 298 453.5 325.5Q438 353 411.5 368.5Q385 384 352 384Z" />
      </g>
    </svg>