<svg xmlns="http://www.w3.org/2000/svg" viewBox="43 -7 426 391">
      <g transform="scale(1 -1) translate(0 -377)">
        <path d="M256 64Q256 33 270 6L256 -7L225 21Q156 83 129 111Q86 155 66 189Q43 228 43 267Q43 299 58.5 326.0Q74 353 101.0 368.5Q128 384 160 384Q188 384 213.0 372.0Q238 360 256 340Q274 360 299.0 372.0Q324 384 352 384Q384 384 411.0 368.5Q438 353 453.5 326.0Q469 299 469 267Q469 224 440 179Q413 192 384 192Q349 192 319.5 175.0Q290 158 273.0 128.5Q256 99 256 64ZM299 85V43H469V85Z" />
      </g>
    </svg>