<svg xmlns="http://www.w3.org/2000/svg" viewBox="43 -64 426 448">
      <g transform="scale(1 -1) translate(0 -320)">
        <path d="M320 -21H363V-64H320ZM235 -64H277V-21H235ZM149 -64H192V-21H149ZM352 384Q324 384 299.0 372.0Q274 360 256 340Q238 360 213.0 372.0Q188 384 160 384Q128 384 101.0 368.5Q74 353 58.5 326.0Q43 299 43 267Q43 228 66 189Q86 155 129 111Q156 83 225 21L256 -7L287 21Q356 83 383 111Q426 155 446 189Q469 228 469 267Q469 299 453.5 326.0Q438 353 411.0 368.5Q384 384 352 384Z" />
      </g>
    </svg>