<svg xmlns="http://www.w3.org/2000/svg" viewBox="11 -30 490 446">
      <g transform="scale(1 -1) translate(0 -386)">
        <path d="M256 -2 224 -30Q139 46 106 79Q56 128 35 164Q11 204 11 243Q11 279 32 311V299Q32 251 59 204Q83 163 135 110Q169 76 256 -2ZM290 85Q294 89 303 97Q362 151 385 174Q422 211 440 239Q460 271 461 299Q461 331 439.5 352.0Q418 373 386 373Q361 373 339.0 359.0Q317 345 309 322H269Q259 345 237.5 359.0Q216 373 192 373Q160 373 138.5 352.0Q117 331 117 299Q117 269 138 236Q157 207 197 168Q222 142 286 85L288 83ZM384 416Q417 416 443.5 400.5Q470 385 485.5 358.0Q501 331 501 299Q501 261 477 221Q456 186 406 136Q374 104 288 26Q203 101 170 134Q120 184 99 220Q75 260 75 299Q75 331 90.5 358.0Q106 385 132.5 400.5Q159 416 192 416Q219 416 244.5 404.0Q270 392 288 371Q306 392 331.5 404.0Q357 416 384 416Z" />
      </g>
    </svg>