<svg xmlns="http://www.w3.org/2000/svg" viewBox="64 0 384 384">
      <g transform="scale(1 -1) translate(0 -384)">
        <path d="M107 384H405Q423 384 435.5 371.5Q448 359 448 341V43Q448 25 435.5 12.5Q423 0 405 0H107Q89 0 76.5 12.5Q64 25 64 43V341Q64 359 76.5 371.5Q89 384 107 384ZM256 85 271 99 272 100Q322 145 338 165Q363 195 363 223Q363 247 346.0 264.0Q329 281 304 281Q290 281 277.5 275.0Q265 269 256 259Q247 269 234.5 275.0Q222 281 208 281Q183 281 166.0 264.0Q149 247 149 223Q149 195 174 165Q190 145 240 100Z" />
      </g>
    </svg>