<svg xmlns="http://www.w3.org/2000/svg" viewBox="43 -21 426 426">
      <g transform="scale(1 -1) translate(0 -384)">
        <path d="M405 85Q429 85 447 100Q469 117 469.0 149.0Q469 181 447 199Q429 213 405 213H363V256H405Q437 256 455 278Q469 296 469 320Q469 352 447 370Q429 384 405 384H363V405H341V384H171V405H149V384H43V341H149V299H107Q83 299 65 284Q43 267 43.0 235.0Q43 203 65 185Q83 171 107 171H149V128H107Q83 128 65 114Q43 96 43.0 64.0Q43 32 65 14Q83 0 107 0H149V-21H171V0H341V-21H363V0H469V43H363V85ZM405 171Q414 171 420.5 166.0Q427 161 427.0 149.5Q427 138 420.5 133.0Q414 128 405 128H363V171ZM341 213H171V256H341ZM405 341Q414 341 420.5 336.5Q427 332 427 320Q427 311 422.0 305.0Q417 299 405 299H363V341ZM171 341H341V299H171ZM107 213Q98 213 91.5 218.0Q85 223 85.0 234.5Q85 246 91.5 251.0Q98 256 107 256H149V213ZM171 171H341V128H171ZM107 43Q98 43 91.5 47.5Q85 52 85.0 64.0Q85 76 91.5 80.5Q98 85 107 85H149V43ZM341 43H171V85H341Z" />
      </g>
    </svg>