<svg xmlns="http://www.w3.org/2000/svg" viewBox="64 0 384 384">
      <g transform="scale(1 -1) translate(0 -384)">
        <path d="M405 384H107Q89 384 76.5 371.5Q64 359 64 341V43Q64 25 76.5 12.5Q89 0 107 0H405Q423 0 435.5 12.5Q448 25 448 43V341Q448 359 435.5 371.5Q423 384 405 384ZM272 297Q299 293 319 277L272 231ZM240 297V231L193 277Q213 293 240 297ZM171 255 217 208H151Q155 235 171 255ZM151 176H217L171 129Q155 149 151 176ZM240 87Q213 91 193 107L240 153ZM256 171Q247 171 241.0 177.0Q235 183 235.0 192.0Q235 201 241.0 207.0Q247 213 256.0 213.0Q265 213 271.0 207.0Q277 201 277.0 192.0Q277 183 271.0 177.0Q265 171 256 171ZM272 87V153L319 107Q299 91 272 87ZM341 129 295 176H361Q357 149 341 129ZM295 208 341 255Q357 235 361 208Z" />
      </g>
    </svg>