<svg xmlns="http://www.w3.org/2000/svg" viewBox="21 0 470 384">
      <g transform="scale(1 -1) translate(0 -384)">
        <path d="M64 384H363V341H64ZM491 320V224L315 188Q320 174 320 160Q320 138 308.5 120.0Q297 102 277 93V43H341V0H85Q59 0 40.0 18.5Q21 37 21 64V85H64V64Q64 55 70.0 49.0Q76 43 85 43H107V91Q78 101 60.5 125.5Q43 150 43 181Q43 221 71.0 249.0Q99 277 139 277H192V320H235V277H448V320ZM235 43V85H149V43ZM160 235Q138 235 122.5 222.5Q107 210 107.0 192.0Q107 174 122.5 161.5Q138 149 160.0 149.0Q182 149 197.5 161.5Q213 174 213.0 192.0Q213 210 197.5 222.5Q182 235 160 235Z" />
      </g>
    </svg>