<svg xmlns="http://www.w3.org/2000/svg" viewBox="43 -21 426 426">
      <g transform="scale(1 -1) translate(0 -384)">
        <path d="M235 117H267V85H235ZM256 300Q284 299 301.5 282.0Q319 265 320.0 241.0Q321 217 305 196Q300 191 289.0 182.5Q278 174 273.5 168.5Q269 163 268 154Q267 149 267 139H235Q235 156 236 163Q237 175 242.0 182.5Q247 190 263 200L272 207Q285 219 287.5 232.5Q290 246 281.5 256.0Q273 266 256 268Q243 268 233.5 258.5Q224 249 224 235H192Q192 262 211.0 281.0Q230 300 256 300ZM256 405Q239 405 226 393L55 222Q43 210 43.0 192.0Q43 174 55 162L226 -9Q238 -21 256.0 -21.0Q274 -21 286 -9L457 162Q469 174 469.0 192.0Q469 210 457 222L286 393Q273 405 256 405ZM256 363 427 192 256 21 85 192Z" />
      </g>
    </svg>