<svg xmlns="http://www.w3.org/2000/svg" viewBox="43 -21 426 426">
      <g transform="scale(1 -1) translate(0 -384)">
        <path d="M235 64H277V107H235ZM256 405Q214 405 174.5 389.0Q135 373 105.0 343.0Q75 313 59.0 273.5Q43 234 43.0 192.0Q43 150 59.0 110.5Q75 71 105.0 41.0Q135 11 174.5 -5.0Q214 -21 256.0 -21.0Q298 -21 337.5 -5.0Q377 11 407.0 41.0Q437 71 453.0 110.5Q469 150 469.0 192.0Q469 234 453.0 273.5Q437 313 407.0 343.0Q377 373 337.5 389.0Q298 405 256 405ZM256 21Q210 21 170.5 44.0Q131 67 108.0 106.5Q85 146 85.0 192.0Q85 238 108.0 277.5Q131 317 170.5 340.0Q210 363 256.0 363.0Q302 363 341.5 340.0Q381 317 404.0 277.5Q427 238 427.0 192.0Q427 146 404.0 106.5Q381 67 341.5 44.0Q302 21 256 21ZM256 320Q221 320 196.0 295.0Q171 270 171 235H213Q213 252 225.5 264.5Q238 277 256.0 277.0Q274 277 286.5 264.5Q299 252 299 235Q299 222 291 212Q286 206 272 196Q254 182 247 171Q235 154 235 128H277Q277 144 287 157Q293 165 309.0 179.0Q325 193 331 202Q341 216 341 235Q341 270 316.0 295.0Q291 320 256 320Z" />
      </g>
    </svg>