<svg xmlns="http://www.w3.org/2000/svg" viewBox="128 -21 254 426">
      <g transform="scale(1 -1) translate(0 -384)">
        <path d="M213 43H277V-21H213ZM256 405Q311 403 347 369Q380 337 382.5 289.0Q385 241 352 199Q343 188 320 171Q299 154 292 146Q282 134 279 117Q277 107 277 85H213Q213 120 215 134Q218 158 228 172Q234 182 246 192Q253 197 267.5 206.5Q282 216 288 220Q313 244 318.0 271.5Q323 299 306.5 319.0Q290 339 256 341Q229 341 210.5 322.5Q192 304 192 277H128Q128 312 145.0 341.5Q162 371 191.5 388.0Q221 405 256 405Z" />
      </g>
    </svg>