<svg xmlns="http://www.w3.org/2000/svg" viewBox="43 -21 426 426">
      <g transform="scale(1 -1) translate(0 -384)">
        <path d="M321 208 302 188Q289 175 284 164Q277 150 277 128H235V139Q235 174 260 199L286 226Q299 238 299.0 256.0Q299 274 286.5 286.5Q274 299 256.0 299.0Q238 299 225.5 286.5Q213 274 213 256H171Q171 291 196.0 316.0Q221 341 256.0 341.0Q291 341 316.0 316.0Q341 291 341 256Q341 228 321 208ZM277 43H235V85H277ZM256 405Q214 405 174.5 389.0Q135 373 105.0 343.0Q75 313 59.0 273.5Q43 234 43.0 192.0Q43 150 59.0 110.5Q75 71 105.0 41.0Q135 11 174.5 -5.0Q214 -21 256.0 -21.0Q298 -21 337.5 -5.0Q377 11 407.0 41.0Q437 71 453.0 110.5Q469 150 469 192Q469 250 440.5 299.0Q412 348 363.0 376.5Q314 405 256 405Z" />
      </g>
    </svg>