<svg xmlns="http://www.w3.org/2000/svg" viewBox="64 0 384 384">
      <g transform="scale(1 -1) translate(0 -384)">
        <path d="M235 64H277V107H235ZM256 320Q221 320 196.0 295.0Q171 270 171 235H213Q213 252 225.5 264.5Q238 277 256.0 277.0Q274 277 286.5 264.5Q299 252 299 235Q299 222 291 212Q286 206 272 196Q254 182 247 171Q235 154 235 128H277Q277 144 287 157Q293 165 309.0 179.0Q325 193 331 202Q341 216 341 235Q341 270 316.0 295.0Q291 320 256 320ZM107 384H405Q423 384 435.5 371.5Q448 359 448 341V43Q448 25 435.5 12.5Q423 0 405 0H107Q89 0 76.5 12.5Q64 25 64 43V341Q64 359 76.5 371.5Q89 384 107 384Z" />
      </g>
    </svg>