<svg xmlns="http://www.w3.org/2000/svg" viewBox="43 -43 426 427">
      <g transform="scale(1 -1) translate(0 -341)">
        <path d="M363 384Q380 384 392.5 371.5Q405 359 405 341V128Q405 110 392.5 97.5Q380 85 363 85H277V43H299Q308 43 314.0 36.5Q320 30 320 21H469V-21H320Q320 -30 314.0 -36.5Q308 -43 299 -43H213Q204 -43 198.0 -36.5Q192 -30 192 -21H43V21H192Q192 30 198.0 36.5Q204 43 213 43H235V85H149Q132 85 119.5 97.5Q107 110 107 128V341Q107 359 119.5 371.5Q132 384 149 384ZM260 341Q232 341 215.0 328.5Q198 316 199 291V290H240Q240 300 246.0 305.0Q252 310 261.0 310.0Q270 310 276.0 304.0Q282 298 282.0 288.0Q282 278 277.0 270.5Q272 263 264 258Q247 247 241.0 238.5Q235 230 235 213H277Q277 224 280.0 229.5Q283 235 291 240Q306 248 315.0 260.5Q324 273 324 288Q324 312 307.0 326.5Q290 341 260 341ZM235 192V149H277V192Z" />
      </g>
    </svg>