<svg xmlns="http://www.w3.org/2000/svg" viewBox="64 -21 411 426">
      <g transform="scale(1 -1) translate(0 -384)">
        <path d="M219 405Q225 405 228 400L275 315L277 309L275 303L228 219Q225 213 219 213H123Q116 213 113 219L66 303L64 309L66 315L113 400Q116 405 123 405ZM219 171Q225 171 228 165L275 81L277 75L275 69L228 -16Q225 -21 219 -21H123Q116 -21 113 -16L66 69L64 75L66 81L113 165Q116 171 123 171ZM416 288Q422 288 425 282L473 198L475 192L473 186L425 102Q422 96 416 96H320Q314 96 311 102L263 186L261 192L263 198L311 282Q314 288 320 288Z" />
      </g>
    </svg>