<svg xmlns="http://www.w3.org/2000/svg" viewBox="64 -21 411 426">
      <g transform="scale(1 -1) translate(0 -384)">
        <path d="M200 363 230 309 200 256H141L112 309L141 363ZM219 405H123Q116 405 113 400L66 315L64 309L66 303L113 219Q116 213 123 213H219Q225 213 228 219L275 303L277 309L275 315L228 400Q225 405 219 405ZM397 245 427 192 397 139H339L309 192L339 245ZM416 288H320Q314 288 311 282L263 198L261 192L263 186L311 102Q314 96 320 96H416Q422 96 425 102L473 186L475 192L473 198L425 282Q422 288 416 288ZM200 128 230 75 200 21H141L112 75L141 128ZM219 171H123Q116 171 113 165L66 81L64 75L66 69L113 -16Q116 -21 123 -21H219Q225 -21 228 -16L275 69L277 75L275 81L228 165Q225 171 219 171Z" />
      </g>
    </svg>