<svg xmlns="http://www.w3.org/2000/svg" viewBox="21 0 448 384">
      <g transform="scale(1 -1) translate(0 -384)">
        <path d="M288 277H256V171L347 116L363 142L288 187ZM277 384Q225 384 181.0 358.0Q137 332 111.0 288.0Q85 244 85 192H21L106 106L192 192H128Q128 233 148.0 267.0Q168 301 202.5 321.0Q237 341 277 341Q307 341 334.5 330.0Q362 319 383.0 298.0Q404 277 415.5 249.5Q427 222 427 192Q427 151 406.5 117.0Q386 83 352.0 63.0Q318 43 277 43Q247 43 220.0 54.5Q193 66 172 87L142 56Q168 30 203.0 15.0Q238 0 277 0Q329 0 373.5 26.0Q418 52 443.5 96.0Q469 140 469.0 192.0Q469 244 443.5 288.0Q418 332 373.5 358.0Q329 384 277 384Z" />
      </g>
    </svg>