<svg xmlns="http://www.w3.org/2000/svg" viewBox="43 21 426 320">
      <g transform="scale(1 -1) translate(0 -362)">
        <path d="M256 341Q198 341 149.0 331.0Q100 321 71.5 304.0Q43 287 43.0 266.5Q43 246 71.5 229.0Q100 212 149.0 202.0Q198 192 256.0 192.0Q314 192 363.0 202.0Q412 212 440.5 229.0Q469 246 469.0 266.5Q469 287 440.5 304.0Q412 321 363.0 331.0Q314 341 256 341ZM43 197V96Q43 76 71.5 58.5Q100 41 149.0 31.0Q198 21 256.0 21.0Q314 21 363.0 31.0Q412 41 440.5 58.5Q469 76 469 96V197Q449 183 421 174Q352 149 256.0 149.0Q160 149 91 174Q63 183 43 197Z" />
      </g>
    </svg>