<svg xmlns="http://www.w3.org/2000/svg" viewBox="42 64 426 213">
      <g transform="scale(1 -1) translate(0 -341)">
        <path d="M256 277Q273 277 289 276Q329 274 363 269Q409 262 436 250Q469 235 469 213V178Q469 143 464 144Q459 168 425 184Q398 197 354 205Q323 210 286 212L256 213L226 212Q189 210 158 205Q114 197 87 184Q54 168 48 144Q43 143 43 178Q42 195 43 213Q43 242 98 258Q137 270 201 275Q232 277 256 277ZM256 192Q304 192 341 187Q372 183 395 175Q414 169 426 161Q435 155 440 149L443 144Q431 110 420 95Q407 77 385.0 70.5Q363 64 320 64Q293 64 281 72Q274 76 269 86Q266 91 263.5 93.5Q261 96 256.0 96.0Q251 96 248.5 93.5Q246 91 243 86Q238 76 231 72Q219 64 192 64Q149 64 127.0 70.5Q105 77 92 95Q81 110 69 144L72 149Q77 155 86 161Q98 169 117 175Q140 183 171 187Q208 192 256 192Z" />
      </g>
    </svg>