<svg xmlns="http://www.w3.org/2000/svg" viewBox="43 21 426 363">
      <g transform="scale(1 -1) translate(0 -405)">
        <path d="M256 384 43 192H107V21H405V192H469ZM256 267Q293 267 326.0 253.0Q359 239 384 215L358 189Q339 209 312.5 220.0Q286 231 256.0 231.0Q226 231 199.5 220.0Q173 209 154 189L128 215Q153 239 186.0 253.0Q219 267 256 267ZM256 196Q278 196 298.0 187.5Q318 179 333 164L307 139Q286 160 256.0 160.0Q226 160 205 139L179 164Q194 179 214.0 187.5Q234 196 256 196ZM256 124Q271 124 281.5 114.0Q292 104 292.0 89.0Q292 74 281.5 63.5Q271 53 256.0 53.0Q241 53 230.5 63.5Q220 74 220.0 89.0Q220 104 230.5 114.0Q241 124 256 124Z" />
      </g>
    </svg>