<svg xmlns="http://www.w3.org/2000/svg" viewBox="43 21 426 363">
      <g transform="scale(1 -1) translate(0 -405)">
        <path d="M256 384 43 192H107V21H405V192H469ZM256 284Q290 284 313.5 260.0Q337 236 337 203Q337 163 297 109Q276 83 256 64L243 77Q228 93 215 109Q198 133 188 154Q175 181 175 203Q175 236 198.5 260.0Q222 284 256 284ZM256 235Q243 235 233.5 225.5Q224 216 224.0 202.5Q224 189 233.5 180.0Q243 171 256.0 171.0Q269 171 278.5 180.0Q288 189 288.0 202.5Q288 216 278.5 225.5Q269 235 256 235Z" />
      </g>
    </svg>