<svg xmlns="http://www.w3.org/2000/svg" viewBox="21 -43 470 427">
      <g transform="scale(1 -1) translate(0 -341)">
        <path d="M352 101 413 65 397 39 320 85V192H352ZM491 107Q491 66 471.0 31.5Q451 -3 416.5 -23.0Q382 -43 341 -43Q304 -43 272.0 -25.5Q240 -8 219 21H85V192H21L235 384L384 250Q431 236 461.0 196.5Q491 157 491 107ZM448 107Q448 136 433.5 160.5Q419 185 394.5 199.0Q370 213 341.0 213.0Q312 213 287.5 199.0Q263 185 249.0 160.5Q235 136 235.0 107.0Q235 78 249.0 53.5Q263 29 287.5 14.5Q312 0 341.0 0.0Q370 0 394.5 14.5Q419 29 433.5 53.5Q448 78 448 107Z" />
      </g>
    </svg>