<svg xmlns="http://www.w3.org/2000/svg" viewBox="30 0 451 398">
      <g transform="scale(1 -1) translate(0 -398)">
        <path d="M465 171H427V0H277V71L337 131L352 128Q371 128 384.0 141.0Q397 154 397.0 172.5Q397 191 384.0 204.5Q371 218 352.0 218.0Q333 218 320.0 204.5Q307 191 307 173L309 158L277 125V242Q288 248 294.5 258.5Q301 269 301 282Q301 300 288.0 313.0Q275 326 256.0 326.0Q237 326 224.0 313.0Q211 300 211 282Q211 269 217.5 258.5Q224 248 235 242V125L203 158L205 173Q205 191 192.0 204.5Q179 218 160.0 218.0Q141 218 128.0 204.5Q115 191 115.0 172.5Q115 154 128.0 141.0Q141 128 160 128L175 131L235 71V0H85V171H48Q39 171 36 171Q30 172 30.5 176.0Q31 180 49 198L235 384Q242 391 245 394Q251 398 256.0 398.0Q261 398 267 394Q270 391 277 384L363 299V320H405V256L465 197Q482 179 482.0 175.5Q482 172 478.0 171.5Q474 171 465 171ZM160 192Q168 192 173.5 186.5Q179 181 179.0 173.0Q179 165 173.5 159.5Q168 154 160.0 154.0Q152 154 146.5 159.5Q141 165 141.0 173.0Q141 181 146.5 186.5Q152 192 160 192ZM352 192Q360 192 365.5 186.5Q371 181 371.0 173.0Q371 165 365.5 159.5Q360 154 352.0 154.0Q344 154 338.5 159.5Q333 165 333.0 173.0Q333 181 338.5 186.5Q344 192 352 192ZM256 301Q264 301 269.5 295.5Q275 290 275.0 282.0Q275 274 269.5 268.0Q264 262 256.0 262.0Q248 262 242.5 268.0Q237 274 237.0 282.0Q237 290 242.5 295.5Q248 301 256 301Z" />
      </g>
    </svg>