<svg xmlns="http://www.w3.org/2000/svg" viewBox="42 -22 428 428">
      <g transform="scale(1 -1) translate(0 -384)">
        <path d="M407 343Q377 374 338.0 390.0Q299 406 256.0 406.0Q213 406 174.0 390.0Q135 374 105.0 343.5Q75 313 58.5 274.0Q42 235 42.0 192.0Q42 149 58.0 110.0Q74 71 104.5 41.0Q135 11 174.0 -5.5Q213 -22 256.0 -22.0Q299 -22 338.0 -6.0Q377 10 407.0 40.5Q437 71 453.5 110.0Q470 149 470.0 192.0Q470 235 454.0 274.0Q438 313 407 343ZM363 192V64H288V171H224V64H149V192H107L256 341L416 192Z" />
      </g>
    </svg>