<svg xmlns="http://www.w3.org/2000/svg" viewBox="43 -21 426 405">
      <g transform="scale(1 -1) translate(0 -363)">
        <path d="M405 277Q423 277 435.5 264.5Q448 252 448 235V90Q469 71 469.0 43.5Q469 16 450.5 -2.5Q432 -21 405.5 -21.0Q379 -21 360.0 -2.5Q341 16 341.0 43.5Q341 71 363 90V235Q363 252 375.5 264.5Q388 277 405 277ZM405 256Q397 256 390.5 249.5Q384 243 384 235V213H427V235Q427 243 420.5 249.5Q414 256 405 256ZM107 21V192H43L256 384L350 300Q336 288 328.0 271.0Q320 254 320 235V107Q299 79 299 43L301 21Z" />
      </g>
    </svg>