<svg xmlns="http://www.w3.org/2000/svg" viewBox="0 -21 512 426">
      <g transform="scale(1 -1) translate(0 -384)">
        <path d="M427 0H363V43H427ZM427 85H363V128H427ZM427 171H363V213H427ZM512 282Q508 316 488.5 344.5Q469 373 438.5 389.0Q408 405 373 405Q346 405 320.0 394.5Q294 384 275 365Q252 341 243 316L333 256H469V-21H512ZM284 299Q293 327 318.0 345.0Q343 363 373.5 363.0Q404 363 428.5 345.0Q453 327 463 299ZM160 320 0 213V-21H320V213ZM277 21H213V149H107V21H43V192L160 267L277 192Z" />
      </g>
    </svg>