<svg xmlns="http://www.w3.org/2000/svg" viewBox="107 -21 277 426">
      <g transform="scale(1 -1) translate(0 -384)">
        <path d="M384 320Q384 291 366.0 268.0Q348 245 320 238V85Q320 64 312.0 44.5Q304 25 289.0 10.0Q274 -5 254.5 -13.0Q235 -21 213 -21Q184 -21 159.5 -7.0Q135 7 121.0 31.5Q107 56 107 85V192L213 85H149Q149 59 168.0 40.0Q187 21 213.5 21.0Q240 21 258.5 40.0Q277 59 277 85V238Q249 245 231.0 268.0Q213 291 213 321Q213 356 238.0 380.5Q263 405 298.5 405.0Q334 405 359.0 380.0Q384 355 384 320ZM299 277Q316 277 328.5 289.5Q341 302 341.0 320.0Q341 338 328.5 350.5Q316 363 298.5 363.0Q281 363 268.5 350.5Q256 338 256.0 320.0Q256 302 268.5 289.5Q281 277 299 277Z" />
      </g>
    </svg>