<svg xmlns="http://www.w3.org/2000/svg" viewBox="64 -16 384 421">
      <g transform="scale(1 -1) translate(0 -389)">
        <path d="M448 192Q439 195 429 198Q406 206 384 218Q354 235 330 257Q301 284 286 318Q267 358 267 405L286 404Q309 400 330 392Q361 380 384 359Q413 334 429 296Q448 252 448 192ZM64 192Q64 252 83 296Q99 334 128 359Q151 380 182 392Q203 400 226 404L245 405Q245 329 198 274Q165 235 111 209Q84 197 64 192ZM256 309Q260 303 263 296Q273 279 284 264Q301 241 320 224Q318 197 308 173Q300 153 286 136Q276 124 265 114L256 107L247 114Q236 124 226 136Q212 153 204 173Q194 197 192 224Q219 249 240 281Q251 298 256 309ZM443 165Q440 154 437 143Q429 116 418 93Q403 62 384 43L369 54Q352 68 337 85Q317 108 306 132Q324 164 336 211Q386 172 443 165ZM331 59Q321 40 302 20Q288 7 271 -6L256 -16L241 -6Q224 7 210 20Q191 40 181 59L188 65Q196 73 203 83Q214 96 221 111Q237 91 256 85Q275 91 291 111Q301 90 317 72Q325 64 331 59ZM69 165Q126 172 176 211Q188 164 206 132Q190 98 158 67Q141 51 128 43Q101 69 83 120Q73 145 69 165Z" />
      </g>
    </svg>