<svg xmlns="http://www.w3.org/2000/svg" viewBox="43 -21 426 426">
      <g transform="scale(1 -1) translate(0 -384)">
        <path d="M256 149 171 235 85 149H151Q156 101 171.0 62.0Q186 23 208.5 1.0Q231 -21 256.0 -21.0Q281 -21 303.5 1.0Q326 23 341.0 62.0Q356 101 361 149H318Q313 93 295.5 57.0Q278 21 256.0 21.0Q234 21 216.5 57.0Q199 93 194 149ZM256 363Q278 363 295.5 327.0Q313 291 318 235H361Q356 283 341.0 322.0Q326 361 303.5 383.0Q281 405 256 405Q222 405 194.5 366.0Q167 327 156 265L171 280L196 254Q203 302 219.5 332.5Q236 363 256 363ZM469 171V213H235L277 171ZM43 171H64L107 213H43Z" />
      </g>
    </svg>