<svg xmlns="http://www.w3.org/2000/svg" viewBox="43 -21 426 426">
      <g transform="scale(1 -1) translate(0 -384)">
        <path d="M256 235H194Q199 291 216.5 327.0Q234 363 256.0 363.0Q278 363 295.5 327.0Q313 291 318 235H361Q356 283 341.0 322.0Q326 361 303.5 383.0Q281 405 256.0 405.0Q231 405 208.5 383.0Q186 361 171.0 322.0Q156 283 151 235H85L171 149ZM256 21Q236 21 219.5 51.5Q203 82 196 130L171 104L156 119Q167 57 194.5 18.0Q222 -21 256 -21Q281 -21 303.5 1.0Q326 23 341.0 62.0Q356 101 361 149H318Q313 93 295.5 57.0Q278 21 256 21ZM469 213H277L235 171H469ZM43 171H107L64 213H43Z" />
      </g>
    </svg>