<svg xmlns="http://www.w3.org/2000/svg" viewBox="21 0 470 384">
      <g transform="scale(1 -1) translate(0 -384)">
        <path d="M491 277V107L427 85L361 203Q357 210 348.5 207.5Q340 205 341 196L363 0L149 85L174 257Q179 293 200.0 322.0Q221 351 252.5 367.5Q284 384 320 384H491L457 333Q472 325 481.5 310.0Q491 295 491 277ZM85 341H162Q177 365 201 384H85Q77 384 70.5 377.5Q64 371 64.0 362.5Q64 354 70.5 347.5Q77 341 85 341ZM125 213H43Q34 213 27.5 207.0Q21 201 21.0 192.0Q21 183 27.5 177.0Q34 171 43 171H118ZM64 256H131L132 263Q134 281 140 299H64Q55 299 49.0 292.5Q43 286 43.0 277.5Q43 269 49.0 262.5Q55 256 64 256Z" />
      </g>
    </svg>