<svg xmlns="http://www.w3.org/2000/svg" viewBox="42 0 426 384">
      <g transform="scale(1 -1) translate(0 -384)">
        <path d="M469 320V245L437 235L404 287Q402 291 398.5 289.5Q395 288 395 284V208Q395 177 373 154V0H320V128H315Q310 128 301 129L207 145L183 102L203 0H149L128 101Q127 112 131 120L153 158Q137 167 127.5 183.0Q118 199 117 217Q116 212 117 203V195Q119 176 118.5 164.5Q118 153 113.0 142.0Q108 131 101 122Q89 108 71 99L57 114L58 118Q65 134 65 141Q67 151 63 161L52 186Q41 210 43 231Q43 245 51.0 260.5Q59 276 72 286Q98 303 129 297Q145 294 160 282Q172 288 187 288H309V299Q309 334 334.0 359.0Q359 384 395 384H469L450 355Q459 350 464.0 340.5Q469 331 469 320Z" />
      </g>
    </svg>