<svg xmlns="http://www.w3.org/2000/svg" viewBox="42 -21 426 426">
      <g transform="scale(1 -1) translate(0 -384)">
        <path d="M213 373Q213 387 222.5 396.0Q232 405 245.5 405.0Q259 405 268.0 396.0Q277 387 277.0 373.5Q277 360 268.0 350.5Q259 341 245.5 341.0Q232 341 222.5 350.5Q213 360 213 373ZM469 277V203L447 195Q445 176 430.0 162.5Q415 149 395 149H393Q389 128 373 111V-21H320V85H315Q310 85 301 87L207 102L183 60L199 -21H145L128 59Q127 70 131 77L153 116Q137 125 127.5 140.5Q118 156 117 175Q116 169 117 160V153Q119 133 118.5 121.5Q118 110 113.0 99.0Q108 88 101 80Q89 66 71 57L57 71L58 75Q65 92 65 99Q67 109 63 119L52 143Q41 168 43 188Q43 203 51.0 218.5Q59 234 72 243Q99 261 129 254Q145 251 160 240Q172 245 187 245H192V275Q192 291 202.0 304.0Q212 317 227 319Q247 323 262.0 310.0Q277 297 277 277V245H309V256Q309 291 334.0 316.0Q359 341 395 341H469L450 313Q459 307 464.0 297.5Q469 288 469 277ZM427 209 404 244Q402 248 398.5 247.0Q395 246 395 242V171Q408 171 417.5 180.0Q427 189 427 203Z" />
      </g>
    </svg>