<svg xmlns="http://www.w3.org/2000/svg" viewBox="43 -21 426 405">
      <g transform="scale(1 -1) translate(0 -363)">
        <path d="M149 363Q167 363 179.5 350.5Q192 338 192.0 320.0Q192 302 179.5 289.5Q167 277 149.5 277.0Q132 277 119.5 289.5Q107 302 107.0 320.0Q107 338 119.5 350.5Q132 363 149 363ZM238 192H469V21Q469 4 456.5 -8.5Q444 -21 427 -21H85Q68 -21 55.5 -8.5Q43 4 43 21V192H107V208Q107 228 121.0 242.0Q135 256 155 256Q166 256 175.5 251.5Q185 247 191 240L220 207Q227 199 238 192ZM149 21V149H107V21ZM235 21V149H192V21ZM320 21V149H277V21ZM405 21V149H363V21ZM398 323Q414 307 421.5 286.5Q429 266 426 244L424 235H384L386 247Q391 274 372 294L370 295Q354 312 346.5 332.5Q339 353 342 375L344 384H384L382 371Q377 345 396 324ZM313 323Q329 307 336.5 286.5Q344 266 340 244L339 235H299L301 247Q306 274 286 294L285 295Q268 312 261.0 332.5Q254 353 257 375L258 384H299L297 371Q292 345 311 324Z" />
      </g>
    </svg>