<svg xmlns="http://www.w3.org/2000/svg" viewBox="43 -21 426 426">
      <g transform="scale(1 -1) translate(0 -384)">
        <path d="M277 404V361Q319 356 353.0 332.0Q387 308 407.0 271.5Q427 235 427 192Q427 141 399.0 99.0Q371 57 326 37L277 85V-21H384L358 5Q409 32 439.0 82.5Q469 133 469 192Q469 246 443.5 293.0Q418 340 374.5 369.5Q331 399 277 404ZM235 405Q171 399 121 358L151 328Q188 356 235 363ZM90 327Q49 277 43 213H85Q92 260 120 297ZM128 277V235H192V213H171Q153 213 140.5 200.5Q128 188 128 171V107H235V149H171V171H192Q210 171 222.5 183.5Q235 196 235 213V235Q235 252 222.5 264.5Q210 277 192 277ZM256 277V171H320V107H363V171H384V213H363V277H320V213H299V277ZM43 171Q49 107 90 57L120 87Q92 124 85 171ZM152 56 121 26Q171 -15 235 -21V21Q188 28 152 56Z" />
      </g>
    </svg>