<svg xmlns="http://www.w3.org/2000/svg" viewBox="85 -21 363 426">
      <g transform="scale(1 -1) translate(0 -384)">
        <path d="M160 405Q178 405 190.5 392.5Q203 380 203.0 362.5Q203 345 190.5 332.5Q178 320 160.0 320.0Q142 320 129.5 332.5Q117 345 117.0 362.5Q117 380 129.5 392.5Q142 405 160 405ZM128 299H192Q210 299 222.5 286.5Q235 274 235 256V139H203V-21H117V139H85V256Q85 274 97.5 286.5Q110 299 128 299ZM352 405Q370 405 382.5 392.5Q395 380 395.0 362.5Q395 345 382.5 332.5Q370 320 352.0 320.0Q334 320 321.5 332.5Q309 345 309.0 362.5Q309 380 321.5 392.5Q334 405 352 405ZM320 -21V107H256L311 269Q315 282 326.5 290.5Q338 299 352.0 299.0Q366 299 377.5 290.5Q389 282 393 269L448 107H384V-21Z" />
      </g>
    </svg>