<svg xmlns="http://www.w3.org/2000/svg" viewBox="64 -21 422 426">
      <g transform="scale(1 -1) translate(0 -384)">
        <path d="M181 363Q181 345 168.5 332.5Q156 320 138.5 320.0Q121 320 108.5 332.5Q96 345 96.0 362.5Q96 380 108.5 392.5Q121 405 138.5 405.0Q156 405 168.5 392.5Q181 380 181 363ZM107 299Q89 299 76.5 286.5Q64 274 64 256V128H107V-21H184Q162 0 150.5 27.5Q139 55 139 85Q139 125 159.0 159.5Q179 194 213 214V256Q213 274 200.5 286.5Q188 299 171 299ZM277 277V107H395L452 30L486 55L416 149H320V277ZM256 187Q223 177 202.0 148.5Q181 120 181 85Q181 64 189.5 44.5Q198 25 213.0 10.0Q228 -5 247.5 -13.0Q267 -21 288 -21Q317 -21 341.5 -7.0Q366 7 380.5 31.5Q395 56 395 85H352Q352 59 333.5 40.0Q315 21 288.0 21.0Q261 21 242.5 40.0Q224 59 224 85Q224 102 232.5 117.0Q241 132 256 141Z" />
      </g>
    </svg>