<svg xmlns="http://www.w3.org/2000/svg" viewBox="32 -21 437 426">
      <g transform="scale(1 -1) translate(0 -384)">
        <path d="M427 85Q444 85 456.5 97.5Q469 110 469 128V363Q469 380 456.5 392.5Q444 405 427 405H202Q213 385 213 363H427V128H235V85ZM320 299V256H192V-21H149V107H107V-21H64V149H32V256Q32 274 44.5 286.5Q57 299 75 299ZM171 363Q171 345 158.5 332.5Q146 320 128.0 320.0Q110 320 97.5 332.5Q85 345 85.0 362.5Q85 380 97.5 392.5Q110 405 128.0 405.0Q146 405 158.5 392.5Q171 380 171 363Z" />
      </g>
    </svg>