<svg xmlns="http://www.w3.org/2000/svg" viewBox="43 -21 426 421">
      <g transform="scale(1 -1) translate(0 -379)">
        <path d="M352 400Q365 400 374.5 390.5Q384 381 384.0 368.0Q384 355 374.5 345.5Q365 336 352.0 336.0Q339 336 329.5 345.5Q320 355 320.0 368.0Q320 381 329.5 390.5Q339 400 352 400ZM427 64Q444 64 456.5 51.5Q469 39 469.0 21.5Q469 4 456.5 -8.5Q444 -21 427 -21Q415 -21 405.0 -15.5Q395 -10 390 0H186Q181 -10 171.0 -15.5Q161 -21 149 -21Q132 -21 119.5 -8.5Q107 4 107.0 21.5Q107 39 119.5 51.5Q132 64 149 64Q161 64 171.0 58.0Q181 52 186 43H277V160L208 208L144 149Q138 143 129.0 143.5Q120 144 114 151L49 221Q43 227 43.0 236.0Q43 245 49.5 251.0Q56 257 65.0 256.5Q74 256 80 250L131 195L284 337Q290 343 299.0 342.5Q308 342 314 335L362 277H427Q435 277 441.5 271.0Q448 265 448.0 256.0Q448 247 441.5 241.0Q435 235 427 235H352Q341 235 334 244L302 282L248 232L311 188Q320 182 320 171V43H333Q340 73 363.5 93.5Q387 114 418 117L401 213H433L456 78Q442 85 427 85Q406 85 389.5 73.5Q373 62 366 43H390Q395 52 405.0 58.0Q415 64 427 64Z" />
      </g>
    </svg>