<svg xmlns="http://www.w3.org/2000/svg" viewBox="43 -21 426 426">
      <g transform="scale(1 -1) translate(0 -384)">
        <path d="M107 320Q89 320 76.5 307.5Q64 295 64.0 277.5Q64 260 76.5 247.5Q89 235 106.5 235.0Q124 235 136.5 247.5Q149 260 149.0 277.5Q149 295 136.5 307.5Q124 320 107 320ZM256 363Q238 363 225.5 350.5Q213 338 213.0 320.0Q213 302 225.5 289.5Q238 277 256.0 277.0Q274 277 286.5 289.5Q299 302 299.0 320.0Q299 338 286.5 350.5Q274 363 256 363ZM405 405Q388 405 375.5 392.5Q363 380 363.0 362.5Q363 345 375.5 332.5Q388 320 405.5 320.0Q423 320 435.5 332.5Q448 345 448.0 362.5Q448 380 435.5 392.5Q423 405 405 405ZM75 213Q61 213 52.0 204.0Q43 195 43 181V85H64V-21H149V85H171V181Q171 195 161.5 204.0Q152 213 139 213ZM224 256Q211 256 201.5 246.5Q192 237 192 224V128H213V21H299V128H320V224Q320 237 310.5 246.5Q301 256 288 256ZM373 299Q360 299 350.5 289.5Q341 280 341 267V171H363V64H448V171H469V267Q469 280 460.0 289.5Q451 299 437 299Z" />
      </g>
    </svg>