<svg xmlns="http://www.w3.org/2000/svg" viewBox="75 -21 373 426">
      <g transform="scale(1 -1) translate(0 -384)">
        <path d="M149 405Q168 405 180.0 392.5Q192 380 192.5 362.5Q193 345 180.0 332.0Q167 319 149.5 319.5Q132 320 119.5 332.0Q107 344 107.0 362.0Q107 380 119.5 392.5Q132 405 149 405ZM117 299H181Q199 299 211.5 286.5Q224 274 224 256V139H192V-21H107V139H75V256Q75 274 87.5 286.5Q100 299 117 299ZM448 277H320V235H448ZM448 213H384V171H448ZM448 405H320V363H448ZM448 341H384V299H448ZM448 149H320V107H448ZM448 21H320V-21H448ZM448 85H384V43H448Z" />
      </g>
    </svg>