<svg xmlns="http://www.w3.org/2000/svg" viewBox="64 -43 424 448">
      <g transform="scale(1 -1) translate(0 -362)">
        <path d="M407 131 451 87 321 -43H277V1ZM449 168Q453 168 457 164L484 137Q488 134 488.0 129.0Q488 124 484 121L463 99L419 143L441 164Q444 168 449 168ZM448 256H320V107L277 64V107H235V-21H192V256H64V299H448ZM256 405Q274 405 286.5 392.5Q299 380 299.0 362.5Q299 345 286.5 332.5Q274 320 256.0 320.0Q238 320 225.5 332.5Q213 345 213.0 362.5Q213 380 225.5 392.5Q238 405 256 405Z" />
      </g>
    </svg>