<svg xmlns="http://www.w3.org/2000/svg" viewBox="64 -21 377 426">
      <g transform="scale(1 -1) translate(0 -384)">
        <path d="M171 363Q171 380 183.5 392.5Q196 405 213.5 405.0Q231 405 243.5 392.5Q256 380 256.0 362.5Q256 345 243.5 332.5Q231 320 213.5 320.0Q196 320 183.5 332.5Q171 345 171 363ZM441 -11 309 217Q289 217 270.0 229.0Q251 241 241 260L225 294Q220 305 210.0 310.5Q200 316 190.0 316.0Q180 316 171 311L64 251V157H104V228L133 244L126 211Q123 194 123 177V72L72 3L104 -21L163 59L167 128L203 78V-21H242V108L203 164V177Q203 196 205 205L212 231Q223 215 242 200Q256 189 270.5 184.0Q285 179 306 180L422 -21Z" />
      </g>
    </svg>