<svg xmlns="http://www.w3.org/2000/svg" viewBox="107 -21 298 448">
      <g transform="scale(1 -1) translate(0 -406)">
        <path d="M107 427Q107 383 130.0 346.5Q153 310 192 292V-21H235V128H277V-21H320V292Q359 310 382.0 346.5Q405 383 405 427H363Q363 398 348.5 373.5Q334 349 309.5 334.5Q285 320 256.0 320.0Q227 320 202.5 334.5Q178 349 163.5 373.5Q149 398 149 427ZM256 427Q238 427 225.5 414.5Q213 402 213.0 384.0Q213 366 225.5 353.5Q238 341 256.0 341.0Q274 341 286.5 353.5Q299 366 299.0 384.0Q299 402 286.5 414.5Q274 427 256 427Z" />
      </g>
    </svg>