<svg xmlns="http://www.w3.org/2000/svg" viewBox="107 -21 277 426">
      <g transform="scale(1 -1) translate(0 -384)">
        <path d="M384 187V-21H364V187Q364 190 361 194Q358 197 354.0 197.0Q350 197 347.0 194.0Q344 191 344 187V167H325V181Q302 187 284.5 200.0Q267 213 255 231L248 205Q245 196 245 177V164L285 108V-21H245V78L209 128L206 59L146 -21L115 3L166 72V177Q166 194 169 211L176 244L146 228V157H107V251L213 311Q223 316 233.0 316.0Q243 316 252.5 310.5Q262 305 268 294L284 260Q293 241 312.0 229.0Q331 217 355 217Q366 217 375.0 208.5Q384 200 384 187ZM256 405Q274 405 286.5 392.5Q299 380 299.0 362.5Q299 345 286.5 332.5Q274 320 256.0 320.0Q238 320 225.5 332.5Q213 345 213.0 362.5Q213 380 225.5 392.5Q238 405 256 405Z" />
      </g>
    </svg>