<svg xmlns="http://www.w3.org/2000/svg" viewBox="85 -21 342 426">
      <g transform="scale(1 -1) translate(0 -384)">
        <path d="M160 405Q178 405 190.5 392.5Q203 380 203.0 362.5Q203 345 190.5 332.5Q178 320 160.0 320.0Q142 320 129.5 332.5Q117 345 117.0 362.5Q117 380 129.5 392.5Q142 405 160 405ZM128 299H192Q210 299 222.5 286.5Q235 274 235 256V139H203V-21H117V139H85V256Q85 274 97.5 286.5Q110 299 128 299ZM352 405Q370 405 382.5 392.5Q395 380 395.0 362.5Q395 345 382.5 332.5Q370 320 352.0 320.0Q334 320 321.5 332.5Q309 345 309.0 362.5Q309 380 321.5 392.5Q334 405 352 405ZM320 299H384Q402 299 414.5 286.5Q427 274 427 256V139H395V-21H309V139H277V256Q277 274 289.5 286.5Q302 299 320 299Z" />
      </g>
    </svg>