<svg xmlns="http://www.w3.org/2000/svg" viewBox="47 11 390 394">
      <g transform="scale(1 -1) translate(0 -416)">
        <path d="M256 405Q274 405 286.5 392.5Q299 380 299.0 362.5Q299 345 286.5 332.5Q274 320 256.0 320.0Q238 320 225.5 332.5Q213 345 213.0 362.5Q213 380 225.5 392.5Q238 405 256 405ZM422 70 410 207Q408 220 399.0 227.5Q390 235 378 235H341Q317 235 296.0 242.5Q275 250 260 265L218 307Q216 311 207.5 315.5Q199 320 188 320Q171 320 158 307L87 237Q80 226 79.0 213.0Q78 200 83 192L113 132L47 47L81 21L160 122L154 149L171 132V21H213V151L169 196L220 247L223 244Q241 226 252 218Q271 205 297 198L277 21H309L318 96H386L388 70Q373 59 373 43Q373 30 383.0 20.5Q393 11 405.5 11.0Q418 11 427.5 20.5Q437 30 437 43Q437 50 433.0 57.5Q429 65 422 70ZM322 128 331 203H373L382 128Z" />
      </g>
    </svg>