<svg xmlns="http://www.w3.org/2000/svg" viewBox="75 -21 394 426">
      <g transform="scale(1 -1) translate(0 -384)">
        <path d="M149 405Q168 405 180.0 392.5Q192 380 192.5 362.5Q193 345 180.0 332.0Q167 319 149.5 319.5Q132 320 119.5 332.0Q107 344 107.0 362.0Q107 380 119.5 392.5Q132 405 149 405ZM117 299H181Q199 299 211.5 286.5Q224 274 224 256V139H192V-21H107V139H75V256Q75 274 87.5 286.5Q100 299 117 299ZM405 277H448L384 363L320 277H363V107H320L384 21L448 107H405ZM469 405H299V363H469ZM469 21H299V-21H469Z" />
      </g>
    </svg>