<svg xmlns="http://www.w3.org/2000/svg" viewBox="107 -43 298 448">
      <g transform="scale(1 -1) translate(0 -362)">
        <path d="M363 85H320V-43H277V85H232L199 44L250 -6L220 -36L169 14Q158 25 157.0 41.5Q156 58 166 71L177 85H149L192 171V235Q172 219 160.5 197.0Q149 175 149 149H107Q107 179 118.0 206.5Q129 234 150.0 255.0Q171 276 198.5 287.5Q226 299 256 299Q277 299 296.5 307.0Q316 315 331.0 330.0Q346 345 354.5 364.5Q363 384 363 405H405Q405 362 382.0 325.5Q359 289 320 271V171ZM299 363Q299 350 291.5 339.0Q284 328 272.0 323.0Q260 318 247.5 320.5Q235 323 226.0 332.5Q217 342 214.5 354.5Q212 367 216.5 379.0Q221 391 232.0 398.0Q243 405 256 405Q274 405 286.5 392.5Q299 380 299 363Z" />
      </g>
    </svg>