<svg xmlns="http://www.w3.org/2000/svg" viewBox="43 -21 426 426">
      <g transform="scale(1 -1) translate(0 -384)">
        <path d="M235 149H192Q192 201 218.0 245.5Q244 290 288.0 315.5Q332 341 384 341V299Q343 299 309.0 279.0Q275 259 255.0 224.5Q235 190 235 149ZM384 213V256Q355 256 330.5 241.5Q306 227 291.5 202.5Q277 178 277 149H320Q320 176 338.5 194.5Q357 213 384 213ZM149 363Q149 380 136.5 392.5Q124 405 106.5 405.0Q89 405 76.5 392.5Q64 380 64.0 362.5Q64 345 76.5 332.5Q89 320 106.5 320.0Q124 320 136.5 332.5Q149 345 149 363ZM244 352H202Q198 329 180.0 314.0Q162 299 139 299H75Q61 299 52.0 289.5Q43 280 43 267V213H171V262Q201 271 221.0 295.5Q241 320 244 352ZM405 85Q423 85 435.5 97.5Q448 110 448.0 128.0Q448 146 435.5 158.5Q423 171 405.5 171.0Q388 171 375.5 158.5Q363 146 363.0 128.0Q363 110 375.5 97.5Q388 85 405 85ZM437 64H373Q350 64 332.0 79.0Q314 94 310 117H268Q271 86 291.0 61.0Q311 36 341 27V-21H469V32Q469 45 460.0 54.5Q451 64 437 64Z" />
      </g>
    </svg>