<svg xmlns="http://www.w3.org/2000/svg" viewBox="85 -21 350 426">
      <g transform="scale(1 -1) translate(0 -384)">
        <path d="M256 405Q274 405 286.5 392.5Q299 380 299.0 362.5Q299 345 286.5 332.5Q274 320 256.0 320.0Q238 320 225.5 332.5Q213 345 213.0 362.5Q213 380 225.5 392.5Q238 405 256 405ZM339 275Q329 285 321 290Q306 299 288 299H235Q205 299 180.5 313.0Q156 327 142.0 351.5Q128 376 128 405H85Q85 355 115.0 316.0Q145 277 192 262V-21H235V107H277V-21H320V233L405 149L435 179Z" />
      </g>
    </svg>