<svg xmlns="http://www.w3.org/2000/svg" viewBox="21 -21 469 426">
      <g transform="scale(1 -1) translate(0 -384)">
        <path d="M358 -18Q342 -25 325.5 -18.5Q309 -12 302.0 4.5Q295 21 301.5 37.5Q308 54 324.5 60.5Q341 67 357.5 60.5Q374 54 380.5 38.0Q387 22 380.5 5.5Q374 -11 358 -18ZM163 320Q180 320 192.5 332.5Q205 345 205.0 362.5Q205 380 192.5 392.5Q180 405 162.5 405.0Q145 405 132.5 392.5Q120 380 120.0 362.5Q120 345 132.5 332.5Q145 320 163 320ZM470 99 388 64Q396 56 400.0 47.0Q404 38 405 25L487 60ZM217 261 233 222Q225 225 219 229Q200 241 191 260L175 294Q168 305 158.5 310.5Q149 316 139.5 316.0Q130 316 120 311Q101 297 90 269Q84 255 83 244L75 211Q72 194 72 177V72L21 3L53 -21L112 59L116 128L152 78V-21H191V108L152 164V177Q152 196 154 205L162 231Q174 213 191 200Q199 194 216 186Q235 178 253 174L299 68Q306 76 316 80Q324 84 337 85L256 277ZM328 189 369 91 490 143 448 241Z" />
      </g>
    </svg>