<svg xmlns="http://www.w3.org/2000/svg" viewBox="64 -21 384 437">
      <g transform="scale(1 -1) translate(0 -395)">
        <path d="M139 318Q126 318 115.5 310.0Q105 302 101 290L64 189V-21H149V174L180 257L228 235H299V277H238L156 316Q147 319 139 318ZM192 85H448V43H192ZM213 373Q213 356 200.5 343.5Q188 331 170.5 331.0Q153 331 140.5 343.5Q128 356 128.0 373.5Q128 391 140.5 403.5Q153 416 170.5 416.0Q188 416 200.5 403.5Q213 391 213 373ZM448 139Q448 125 438.5 116.0Q429 107 416.0 107.0Q403 107 393.5 116.0Q384 125 384.0 138.5Q384 152 393.5 161.5Q403 171 416.0 171.0Q429 171 438.5 161.5Q448 152 448 139ZM192 213V171H235V149Q235 132 247.5 119.5Q260 107 277 107H320Q338 107 350.5 119.5Q363 132 363 149V213H320V171H277V192Q277 201 271.0 207.0Q265 213 256 213Z" />
      </g>
    </svg>