<svg xmlns="http://www.w3.org/2000/svg" viewBox="64 -21 352 426">
      <g transform="scale(1 -1) translate(0 -384)">
        <path d="M160 405Q178 405 190.5 392.5Q203 380 203.0 362.5Q203 345 190.5 332.5Q178 320 160.0 320.0Q142 320 129.5 332.5Q117 345 117.0 362.5Q117 380 129.5 392.5Q142 405 160 405ZM128 -21V107H64L119 269Q124 282 135.0 290.5Q146 299 160.0 299.0Q174 299 185.5 290.5Q197 282 201 269L256 107H192V-21ZM309 192Q309 210 321.5 222.5Q334 235 352.0 235.0Q370 235 382.5 222.5Q395 210 395.0 192.0Q395 174 382.5 161.5Q370 149 352.0 149.0Q334 149 321.5 161.5Q309 174 309 192ZM320 128H384L416 43H384V-21H320V43H288Z" />
      </g>
    </svg>