<svg xmlns="http://www.w3.org/2000/svg" viewBox="24 -37 448 448">
      <g transform="scale(1 -1) translate(0 -374)">
        <path d="M472 -10 51 411 24 384 64 344V0H408L445 -37ZM256 64Q221 64 191.5 81.0Q162 98 145.0 127.5Q128 157 128.0 193.0Q128 229 148 260L180 228Q173 215 172 203H205L226 181H172Q174 165 183 149H258L280 128H200Q225 107 256 107Q274 107 292 115L324 84Q293 64 256 64ZM256 277Q287 277 312 256H260L240 276Q249 277 256 277ZM206 310 132 384H448V68L374 142Q384 166 384 192Q384 227 367.0 256.5Q350 286 320.5 303.0Q291 320 256 320Q230 320 206 310ZM340 203H314L282 235H329Q338 219 340 203Z" />
      </g>
    </svg>