<svg xmlns="http://www.w3.org/2000/svg" viewBox="43 -21 426 426">
      <g transform="scale(1 -1) translate(0 -384)">
        <path d="M192 64Q165 64 146.5 82.5Q128 101 128.0 128.0Q128 155 160 201Q176 225 192 243L209 222Q228 198 239 177Q256 147 256 128Q256 101 237.5 82.5Q219 64 192 64ZM299 363V21H85V363H43V21Q43 4 55.5 -8.5Q68 -21 85 -21H299Q316 -21 328.5 -8.5Q341 4 341 21V363ZM213 320V405H171V320H107V277H277V320ZM448 75V331Q448 344 438.5 353.5Q429 363 416.0 363.0Q403 363 393.5 353.5Q384 344 384 331V75Q374 67 368.5 56.0Q363 45 363 32Q363 10 378.5 -5.5Q394 -21 416.0 -21.0Q438 -21 453.5 -5.5Q469 10 469 32Q469 58 448 75ZM427 171H405V320H427Z" />
      </g>
    </svg>