<svg xmlns="http://www.w3.org/2000/svg" viewBox="85 0 352 384">
      <g transform="scale(1 -1) translate(0 -384)">
        <path d="M128 384Q110 384 97.5 371.5Q85 359 85 341V0H299V160H331V53Q331 31 346.5 15.5Q362 0 384.0 0.0Q406 0 421.5 15.5Q437 31 437 53V256Q437 278 422 294L343 373L320 351L365 306Q350 300 340.5 286.5Q331 273 331 256Q331 234 346.5 218.5Q362 203 384 203Q395 203 405 207V53Q405 45 399.0 38.5Q393 32 384.0 32.0Q375 32 369.0 38.5Q363 45 363 53V149Q363 167 350.5 179.5Q338 192 320 192H299V341Q299 359 286.5 371.5Q274 384 256 384ZM128 299H171V213H213V299H256V85H213V171H171V85H128ZM384 277Q393 277 399.0 271.0Q405 265 405.0 256.0Q405 247 399.0 241.0Q393 235 384.0 235.0Q375 235 369.0 241.0Q363 247 363.0 256.0Q363 265 369.0 271.0Q375 277 384 277Z" />
      </g>
    </svg>