<svg xmlns="http://www.w3.org/2000/svg" viewBox="21 0 470 384">
      <g transform="scale(1 -1) translate(0 -384)">
        <path d="M448 128H491V85H448ZM448 213H491V171H448ZM491 43H448V0Q464 0 477.5 13.5Q491 27 491 43ZM277 384H320V341H277ZM448 299H491V256H448ZM448 384V341H491Q491 357 477.5 370.5Q464 384 448 384ZM21 299H64V256H21ZM363 384H405V341H363ZM363 43H405V0H363ZM64 384Q48 384 34.5 370.5Q21 357 21 341H64ZM192 384H235V341H192ZM107 384H149V341H107ZM21 213V43Q21 25 33.5 12.5Q46 0 64 0H320V213ZM64 43 117 111 156 65 209 134 277 43Z" />
      </g>
    </svg>