<svg xmlns="http://www.w3.org/2000/svg" viewBox="21 0 470 384">
      <g transform="scale(1 -1) translate(0 -384)">
        <path d="M491 128H448V85H491ZM491 213H448V171H491ZM491 43H448V0Q464 0 477.5 13.5Q491 27 491 43ZM320 384H277V341H320ZM491 299H448V256H491ZM448 384V341H491Q491 357 477.5 370.5Q464 384 448 384ZM64 0H235V128H21V43Q21 25 33.5 12.5Q46 0 64 0ZM64 299H21V256H64ZM320 43H277V0H320ZM405 384H363V341H405ZM405 43H363V0H405ZM64 384Q48 384 34.5 370.5Q21 357 21 341H64ZM64 213H21V171H64ZM235 384H192V341H235ZM149 384H107V341H149Z" />
      </g>
    </svg>