<svg xmlns="http://www.w3.org/2000/svg" viewBox="64 0 384 384">
      <g transform="scale(1 -1) translate(0 -384)">
        <path d="M256 256Q229 256 210.5 237.5Q192 219 192.0 192.0Q192 165 210.5 146.5Q229 128 256.0 128.0Q283 128 301.5 146.5Q320 165 320.0 192.0Q320 219 301.5 237.5Q283 256 256 256ZM405 43H320V0H405Q423 0 435.5 12.5Q448 25 448 43V128H405ZM405 384H320V341H405V256H448V341Q448 359 435.5 371.5Q423 384 405 384ZM107 341H192V384H107Q89 384 76.5 371.5Q64 359 64 341V256H107ZM107 128H64V43Q64 25 76.5 12.5Q89 0 107 0H192V43H107Z" />
      </g>
    </svg>