<svg xmlns="http://www.w3.org/2000/svg" viewBox="64 0 384 384">
      <g transform="scale(1 -1) translate(0 -384)">
        <path d="M363 192Q363 226 344.5 252.0Q326 278 297.0 290.5Q268 303 237 297Q205 292 180.5 267.5Q156 243 151 211Q145 180 157.5 151.0Q170 122 195 104Q222 85 256 85Q285 85 309.5 99.5Q334 114 348.5 138.5Q363 163 363 192ZM256 128Q229 128 211.0 147.0Q193 166 192.0 192.0Q191 218 210.5 237.5Q230 257 256.0 256.0Q282 255 301.0 237.0Q320 219 320.0 192.0Q320 165 301.5 146.5Q283 128 256 128ZM107 128H64V43Q64 25 76.5 12.5Q89 0 107 0H192V43H107ZM107 341H192V384H107Q89 384 76.5 371.5Q64 359 64 341V256H107ZM405 384H320V341H405V256H448V341Q448 359 435.5 371.5Q423 384 405 384ZM405 43H320V0H405Q423 0 435.5 12.5Q448 25 448 43V128H405Z" />
      </g>
    </svg>