<svg xmlns="http://www.w3.org/2000/svg" viewBox="64 -32 405 416">
      <g transform="scale(1 -1) translate(0 -352)">
        <path d="M313 165Q293 151 279.5 130.5Q266 110 260 85H139L197 161L239 110L298 186ZM107 43V341H405V191Q429 189 448 181V341Q448 359 435.5 371.5Q423 384 405 384H107Q89 384 76.5 371.5Q64 359 64 341V43Q64 25 76.5 12.5Q89 0 107 0H267Q259 19 257 43ZM469 53V139L444 114Q419 139 384.0 139.0Q349 139 324.0 114.0Q299 89 299.0 53.5Q299 18 324.0 -7.0Q349 -32 384 -32Q411 -32 432.5 -17.5Q454 -3 463 21H427Q419 11 408.0 5.5Q397 0 384 0Q362 0 346.5 15.5Q331 31 331.0 53.0Q331 75 346.5 91.0Q362 107 384.0 107.0Q406 107 422 91L384 53Z" />
      </g>
    </svg>