<svg xmlns="http://www.w3.org/2000/svg" viewBox="64 -43 427 427">
      <g transform="scale(1 -1) translate(0 -341)">
        <path d="M181 160 107 64H278Q280 30 299 0H107Q89 0 76.5 12.5Q64 25 64 43V341Q64 359 76.5 371.5Q89 384 107 384H405Q423 384 435.5 371.5Q448 359 448 341V209Q431 213 416 213Q389 213 364.5 203.5Q340 194 321 176L309 192L235 96ZM405 21Q383 21 367.5 37.0Q352 53 352 75Q352 87 358 99L334 122Q320 100 320 75Q320 39 345.0 14.0Q370 -11 405 -11V-43L453 5L405 53ZM405 160V192L357 144L405 96V128Q427 128 443.0 112.5Q459 97 459 75Q459 62 453 51L476 28Q491 49 491 75Q491 110 466.0 135.0Q441 160 405 160Z" />
      </g>
    </svg>