<svg xmlns="http://www.w3.org/2000/svg" viewBox="43 -21 435 426">
      <g transform="scale(1 -1) translate(0 -384)">
        <path d="M331 405Q371 405 399.0 377.0Q427 349 427 309Q427 281 412 258L478 192L448 162L381 228Q358 213 331 213Q291 213 263.0 241.0Q235 269 235.0 309.0Q235 349 263.0 377.0Q291 405 331 405ZM331 363Q309 363 293.0 347.0Q277 331 277.0 309.0Q277 287 293.0 271.5Q309 256 331.0 256.0Q353 256 368.5 271.5Q384 287 384.0 309.0Q384 331 368.5 347.0Q353 363 331 363ZM160 139 85 43H384L288 171L213 75ZM427 21Q427 4 414.5 -8.5Q402 -21 384 -21H85Q68 -21 55.5 -8.5Q43 4 43 21V320Q43 338 55.5 350.5Q68 363 85 363H203Q192 337 192 309Q192 272 210.5 240.0Q229 208 261.0 189.5Q293 171 331 171Q352 171 372 177L427 123Z" />
      </g>
    </svg>