<svg xmlns="http://www.w3.org/2000/svg" viewBox="64 -21 405 405">
      <g transform="scale(1 -1) translate(0 -363)">
        <path d="M299 43Q309 22 324 0H107Q89 0 76.5 12.5Q64 25 64 43V341Q64 359 76.5 371.5Q89 384 107 384H405Q423 384 435.5 371.5Q448 359 448 341V221Q428 232 405 234V341H107V43ZM298 186 239 110 197 161 139 85H282Q277 103 277 117Q277 153 299 184ZM469 117Q469 83 432 27Q413 -1 395 -21L375 2Q353 31 339 57Q320 93 320 117Q320 148 342.0 170.0Q364 192 394.5 192.0Q425 192 447.0 170.0Q469 148 469 117ZM420 115Q420 125 412.0 133.0Q404 141 394.5 141.0Q385 141 377.0 133.5Q369 126 369.0 115.5Q369 105 376.5 97.5Q384 90 395.0 90.0Q406 90 414.0 98.0Q422 106 420 115Z" />
      </g>
    </svg>