<svg xmlns="http://www.w3.org/2000/svg" viewBox="64 -21 427 405">
      <g transform="scale(1 -1) translate(0 -363)">
        <path d="M465 107V139Q465 161 446.5 176.5Q428 192 405.0 192.0Q382 192 364.0 176.5Q346 161 346 139V107Q336 107 328.0 99.0Q320 91 320 81V6Q320 -5 328.0 -13.0Q336 -21 346 -21H463Q474 -21 482.5 -13.5Q491 -6 491 4V79Q491 90 483.0 98.5Q475 107 465 107ZM437 107H373V139Q373 151 382.5 158.5Q392 166 405.5 166.0Q419 166 428.0 158.5Q437 151 437 139ZM107 384Q89 384 76.5 371.5Q64 359 64 341V43Q64 25 76.5 12.5Q89 0 107 0H278Q277 2 277 6V64H107L181 160L235 96L309 192L315 184Q328 208 352.5 221.5Q377 235 405 235Q426 235 448 226V341Q448 359 435.5 371.5Q423 384 405 384Z" />
      </g>
    </svg>