<svg xmlns="http://www.w3.org/2000/svg" viewBox="64 0 384 384">
      <g transform="scale(1 -1) translate(0 -384)">
        <path d="M256 277Q219 277 195.0 252.0Q171 227 170.5 192.5Q170 158 196.0 132.0Q222 106 256.5 106.5Q291 107 316.0 131.0Q341 155 341.0 191.0Q341 227 316.0 252.0Q291 277 256 277ZM107 128H64V43Q64 25 76.5 12.5Q89 0 107 0H192V43H107ZM107 341H192V384H107Q89 384 76.5 371.5Q64 359 64 341V256H107ZM405 384H320V341H405V256H448V341Q448 359 435.5 371.5Q423 384 405 384ZM405 43H320V0H405Q423 0 435.5 12.5Q448 25 448 43V128H405Z" />
      </g>
    </svg>