<svg xmlns="http://www.w3.org/2000/svg" viewBox="64 0 384 384">
      <g transform="scale(1 -1) translate(0 -384)">
        <path d="M405 384Q423 384 435.5 371.5Q448 359 448 341V213H405V171H363V128H320V85H277V43H235V0H107Q89 0 76.5 12.5Q64 25 64 43V341Q64 359 76.5 371.5Q89 384 107 384ZM448 128V43Q448 25 435.5 12.5Q423 0 405 0H320V43H363V85H405V128ZM405 267Q405 271 402.0 274.0Q399 277 395 277H117Q113 277 110.0 274.0Q107 271 107 267V117Q107 113 110.0 110.0Q113 107 117 107H235V128H277V171H320V213H363V256H405Z" />
      </g>
    </svg>