<svg xmlns="http://www.w3.org/2000/svg" viewBox="64 -21 423 405">
      <g transform="scale(1 -1) translate(0 -363)">
        <path d="M484 143 463 122 420 164 442 186Q446 190 450.0 190.0Q454 190 459 186L486 158Q488 154 487.5 150.0Q487 146 484 143ZM277 23V-21H322L452 109L410 151ZM239 110 197 161 139 85H280L334 138L298 186ZM235 23V42L236 43H107V341H405V207L448 248V341Q448 359 435.5 371.5Q423 384 405 384H107Q89 384 76.5 371.5Q64 359 64 341V43Q64 25 76.5 12.5Q89 0 107 0H235Z" />
      </g>
    </svg>