<svg xmlns="http://www.w3.org/2000/svg" viewBox="64 0 384 384">
      <g transform="scale(1 -1) translate(0 -384)">
        <path d="M107 128H64V43Q64 25 76.5 12.5Q89 0 107 0H192V43H107ZM107 341H192V384H107Q89 384 76.5 371.5Q64 359 64 341V256H107ZM405 384H320V341H405V256H448V341Q448 359 435.5 371.5Q423 384 405 384ZM405 43H320V0H405Q423 0 435.5 12.5Q448 25 448 43V128H405ZM256 277Q221 277 196.0 252.0Q171 227 171.0 192.0Q171 157 196.0 132.0Q221 107 256.0 107.0Q291 107 316.0 132.0Q341 157 341.0 192.0Q341 227 316.0 252.0Q291 277 256 277ZM256 149Q238 149 225.5 161.5Q213 174 213.0 192.0Q213 210 225.5 222.5Q238 235 256.0 235.0Q274 235 286.5 222.5Q299 210 299.0 192.0Q299 174 286.5 161.5Q274 149 256 149Z" />
      </g>
    </svg>