<svg xmlns="http://www.w3.org/2000/svg" viewBox="44 -20 424 424">
      <g transform="scale(1 -1) translate(0 -384)">
        <path d="M121 27Q171 -14 235 -20V23Q189 28 151 57ZM277 23V-20Q341 -14 391 27L360 57Q323 29 277 23ZM391 87 421 57Q462 107 468 171H425Q420 125 391 87ZM320 192Q320 219 301.5 237.5Q283 256 256.0 256.0Q229 256 210.5 237.5Q192 219 192.0 192.0Q192 165 210.5 146.5Q229 128 256.0 128.0Q283 128 301.5 146.5Q320 165 320 192ZM87 171H44Q50 107 91 57L121 88Q93 125 87 171ZM121 297 91 327Q50 277 44 213H87Q92 259 121 297ZM425 213H468Q462 277 421 327L391 297Q420 259 425 213ZM391 357Q341 398 277 404V361Q323 356 361 327ZM235 361V404Q171 398 121 357L151 327Q189 356 235 361Z" />
      </g>
    </svg>