<svg xmlns="http://www.w3.org/2000/svg" viewBox="43 -21 435 426">
      <g transform="scale(1 -1) translate(0 -384)">
        <path d="M331 256Q353 256 368.5 271.5Q384 287 384.0 309.0Q384 331 368.5 347.0Q353 363 330.5 363.0Q308 363 292.5 347.5Q277 332 277.0 309.5Q277 287 293.0 271.5Q309 256 331 256ZM412 258 478 192 448 162 381 228Q357 213 330 213Q290 213 262.5 241.0Q235 269 235.0 309.0Q235 349 263.0 377.0Q291 405 331.0 405.0Q371 405 399.0 377.5Q427 350 427 309Q427 282 412 258ZM352 64H117L176 139L218 89L276 164ZM384 171 427 128V21Q427 4 414.0 -8.5Q401 -21 384 -21H85Q69 -21 56.0 -8.0Q43 5 43 21V320Q43 337 55.5 350.0Q68 363 85 363H203Q193 342 192 320H85V21H384Z" />
      </g>
    </svg>