<svg xmlns="http://www.w3.org/2000/svg" viewBox="64 0 384 384">
      <g transform="scale(1 -1) translate(0 -384)">
        <path d="M405 277V341H107V277H192Q192 251 210.5 232.0Q229 213 256.0 213.0Q283 213 301.5 232.0Q320 251 320 277ZM405 384Q423 384 435.5 371.5Q448 359 448 341V192Q448 174 435.5 161.5Q423 149 405 149H107Q89 149 76.5 161.5Q64 174 64 192V341Q64 359 76.5 371.5Q89 384 107 384ZM64 128H192Q192 101 210.5 82.5Q229 64 256.0 64.0Q283 64 301.5 82.5Q320 101 320 128H448V43Q448 25 435.5 12.5Q423 0 405 0H107Q89 0 76.5 12.5Q64 25 64 43Z" />
      </g>
    </svg>