<svg xmlns="http://www.w3.org/2000/svg" viewBox="64 0 384 384">
      <g transform="scale(1 -1) translate(0 -384)">
        <path d="M405 384Q423 384 435.5 371.5Q448 359 448 341V192Q448 174 435.5 161.5Q423 149 405 149H107Q89 149 76.5 161.5Q64 174 64 192V341Q64 359 76.5 371.5Q89 384 107 384ZM107 235V192H201Q180 210 173 235ZM405 192V235H339Q332 210 311 192ZM405 277V341H107V277H213V256Q213 239 226.0 226.0Q239 213 256.0 213.0Q273 213 286.0 226.0Q299 239 299 256V277ZM448 43Q448 25 435.5 12.5Q423 0 405 0H107Q89 0 76.5 12.5Q64 25 64 43V128H213V107Q213 90 226.0 77.0Q239 64 256.0 64.0Q273 64 286.0 77.0Q299 90 299 107V128H448ZM107 85V43H201Q180 61 173 85ZM405 43V85H339Q332 61 311 43Z" />
      </g>
    </svg>