<svg xmlns="http://www.w3.org/2000/svg" viewBox="64 0 384 384">
      <g transform="scale(1 -1) translate(0 -384)">
        <path d="M405 128H320Q320 101 301.5 82.5Q283 64 256.0 64.0Q229 64 210.5 82.5Q192 101 192 128H107V341H405ZM405 384H107Q89 384 76.5 371.5Q64 359 64 341V43Q64 25 76.5 12.5Q89 0 107 0H405Q423 0 435.5 12.5Q448 25 448 43V341Q448 359 435.5 371.5Q423 384 405 384ZM301 309 331 279 286 235 331 190 301 160 256 205 211 160 181 190 226 235 181 279 211 309 256 265Z" />
      </g>
    </svg>