<svg xmlns="http://www.w3.org/2000/svg" viewBox="64 0 384 384">
      <g transform="scale(1 -1) translate(0 -384)">
        <path d="M405 384Q423 384 435.5 371.5Q448 359 448 341V43Q448 25 435.5 12.5Q423 0 405 0H107Q89 0 76.5 12.5Q64 25 64 43V341Q64 359 76.5 371.5Q89 384 107 384ZM107 43H201Q181 60 173 85H107ZM405 43V85H339Q331 60 311 43ZM405 128V341H107V128H213V107Q213 86 226.0 75.0Q239 64 256.0 64.0Q273 64 286.0 75.0Q299 86 299 107V128ZM149 299H363V256H149ZM363 213V171H149V213Z" />
      </g>
    </svg>