<svg xmlns="http://www.w3.org/2000/svg" viewBox="24 -37 448 448">
      <g transform="scale(1 -1) translate(0 -374)">
        <path d="M472 -10 51 411 24 384 87 321Q43 264 43 192Q43 134 71.5 85.0Q100 36 149.0 7.5Q198 -21 256 -21Q328 -21 385 23L445 -37ZM191 217H178L181 226ZM132 203H205L219 188H132ZM318 78Q299 78 285.5 91.0Q272 104 270 122Q256 132 242 123Q240 104 226.5 91.0Q213 78 193.5 78.0Q174 78 159.5 92.5Q145 107 145.0 127.0Q145 147 159.5 161.0Q174 175 194 175Q211 175 224.0 164.5Q237 154 241 138Q255 144 270 138L284 124Q285 111 294.0 102.0Q303 93 315 92L328 80Q322 78 318 78ZM212 304 143 373Q195 405 256 405Q314 405 363.0 376.5Q412 348 440.5 299.0Q469 250 469 192Q469 131 437 79L328 188H380V203H314L299 217H334L302 301Q299 306 294.5 308.0Q290 310 285 309L256 299L227 309H226Q218 311 212 304ZM228 127Q228 112 218.0 102.0Q208 92 193.5 92.0Q179 92 169.0 102.0Q159 112 159.0 126.5Q159 141 169.0 151.0Q179 161 193.5 161.0Q208 161 218.0 151.0Q228 141 228 127Z" />
      </g>
    </svg>