<svg xmlns="http://www.w3.org/2000/svg" viewBox="43 -21 426 426">
      <g transform="scale(1 -1) translate(0 -384)">
        <path d="M256 405Q314 405 363.0 376.5Q412 348 440.5 299.0Q469 250 469.0 192.0Q469 134 440.5 85.0Q412 36 363.0 7.5Q314 -21 256.0 -21.0Q198 -21 149.0 7.5Q100 36 71.5 85.0Q43 134 43.0 192.0Q43 250 71.5 299.0Q100 348 149.0 376.5Q198 405 256 405ZM318 175Q301 175 288.0 164.5Q275 154 271 137Q256 144 241 138Q237 154 224.0 164.5Q211 175 194 175Q174 175 159.5 161.0Q145 147 145.0 127.0Q145 107 159.5 92.5Q174 78 193.5 78.0Q213 78 226.5 91.0Q240 104 242 123Q256 132 270 122Q272 104 285.5 91.0Q299 78 318.5 78.0Q338 78 352.5 92.5Q367 107 367.0 127.0Q367 147 352.5 161.0Q338 175 318 175ZM194 161Q208 161 218.0 151.0Q228 141 228.0 126.5Q228 112 218.0 102.0Q208 92 193.5 92.0Q179 92 169.0 102.0Q159 112 159.0 126.5Q159 141 169.0 151.0Q179 161 194 161ZM318 161Q333 161 343.0 151.0Q353 141 353.0 126.5Q353 112 343.0 102.0Q333 92 318.5 92.0Q304 92 294.0 102.0Q284 112 284.0 126.5Q284 141 294.0 151.0Q304 161 318 161ZM380 203H132V188H380ZM302 301Q299 306 294.5 308.0Q290 310 285 309L256 299L227 309H226Q221 310 216.5 307.5Q212 305 210 300L178 217H334Z" />
      </g>
    </svg>