<svg xmlns="http://www.w3.org/2000/svg" viewBox="24 -37 448 448">
      <g transform="scale(1 -1) translate(0 -374)">
        <path d="M472 -10 51 411 24 384 135 273 128 256H152L184 224H43V192H216L288 120Q285 113 282 105Q255 116 230 105Q223 133 200.0 152.0Q177 171 148 171Q113 171 88.5 146.0Q64 121 64.0 85.5Q64 50 88.5 25.0Q113 0 147.0 0.0Q181 0 205.0 22.5Q229 45 231 79Q240 85 250 86Q266 88 281 78Q284 45 307.5 22.5Q331 0 364 0Q383 0 399 8L445 -37ZM148 24Q123 24 105.5 42.0Q88 60 88.0 85.5Q88 111 105.5 128.5Q123 146 148.0 146.0Q173 146 190.5 128.5Q208 111 208.0 85.5Q208 60 190.5 42.0Q173 24 148 24ZM364 24Q339 24 321.5 42.0Q304 60 304 85Q304 93 306 101L381 27Q372 24 364 24ZM469 192H324L292 224H469ZM364 171Q399 171 423.5 146.0Q448 121 448 85Q448 78 447 70L423 93Q421 114 406.0 128.5Q391 143 371 146L348 169Q356 171 364 171ZM260 256 165 352 180 391Q183 399 191.0 403.0Q199 407 207 404L256 388L303 404Q312 407 320.0 403.5Q328 400 332 392L384 256Z" />
      </g>
    </svg>