<svg xmlns="http://www.w3.org/2000/svg" viewBox="43 0 426 405">
      <g transform="scale(1 -1) translate(0 -405)">
        <path d="M364 171Q334 171 311.5 152.0Q289 133 282 105Q256 116 230 105Q223 133 200.0 152.0Q177 171 148 171Q113 171 88.5 146.0Q64 121 64.0 85.5Q64 50 88.5 25.0Q113 0 147.0 0.0Q181 0 205.0 22.5Q229 45 231 79Q240 85 250 86Q266 88 281 78Q284 45 307.5 22.5Q331 0 365.0 0.0Q399 0 423.5 25.0Q448 50 448.0 85.5Q448 121 423.5 146.0Q399 171 364 171ZM148 24Q123 24 105.5 42.0Q88 60 88.0 85.5Q88 111 105.5 128.5Q123 146 148.0 146.0Q173 146 190.5 128.5Q208 111 208.0 85.5Q208 60 190.5 42.0Q173 24 148 24ZM364 24Q339 24 321.5 42.0Q304 60 304.0 85.5Q304 111 321.5 128.5Q339 146 364.0 146.0Q389 146 406.5 128.5Q424 111 424.0 85.5Q424 60 406.5 42.0Q389 24 364 24ZM469 224H43V192H469ZM331 392Q328 400 320.0 403.5Q312 407 303 404L256 388L207 404Q199 407 191.0 403.0Q183 399 180 391L128 256H384Z" />
      </g>
    </svg>