<svg xmlns="http://www.w3.org/2000/svg" viewBox="23 -36 448 448">
      <g transform="scale(1 -1) translate(0 -376)">
        <path d="M471 -11 51 412 23 384 87 320Q66 294 54.5 261.0Q43 228 43 192Q43 134 71.5 85.0Q100 36 149.0 7.5Q198 -21 256 -21Q292 -21 325.0 -9.5Q358 2 384 23L444 -36ZM256 21Q210 21 170.5 44.0Q131 67 108.0 106.5Q85 146 85 192Q85 244 117 290L235 173V85H277V130L354 53Q308 21 256 21ZM175 341 143 373Q200 405 257.0 405.0Q314 405 363.0 376.5Q412 348 440.5 299.0Q469 250 469.0 193.0Q469 136 437 79L405 111Q427 150 427 192Q427 238 404.0 277.5Q381 317 341.5 340.0Q302 363 256 363Q214 363 175 341ZM235 299H277V256H235Z" />
      </g>
    </svg>