<svg xmlns="http://www.w3.org/2000/svg" viewBox="183 20 137 342">
      <g transform="scale(1 -1) translate(0 -382)">
        <path d="M288 363Q275 363 265.5 353.5Q256 344 256.0 330.5Q256 317 265.5 308.0Q275 299 288.0 299.0Q301 299 310.5 308.0Q320 317 320.0 330.5Q320 344 310.5 353.5Q301 363 288 363ZM280 261Q269 260 244 245Q227 234 205 218L186 204Q183 202 183.0 201.0Q183 200 184 197L187 193Q189 190 189.5 189.5Q190 189 193 191L216 206Q230 215 234.5 211.5Q239 208 236 193Q235 184 227 154Q211 94 204 55Q199 19 224 21Q239 23 260 36L310 71Q313 72 312.5 74.0Q312 76 310 79L308 82Q305 85 303 83L297 79Q282 69 275 65Q262 60 260.0 66.0Q258 72 265 101Q269 118 281 163L297 221Q300 239 298 247Q296 262 280 261Z" />
      </g>
    </svg>