<svg xmlns="http://www.w3.org/2000/svg" viewBox="43 -21 426 426">
      <g transform="scale(1 -1) translate(0 -384)">
        <path d="M166 405H346Q379 405 407.5 388.5Q436 372 452.5 343.5Q469 315 469 282V102Q469 69 452.5 40.5Q436 12 407.5 -4.5Q379 -21 346 -21H166Q133 -21 104.5 -4.5Q76 12 59.5 40.5Q43 69 43 102V282Q43 315 59.5 343.5Q76 372 104.5 388.5Q133 405 166 405ZM162 363Q130 363 107.5 340.5Q85 318 85 286V98Q85 66 107.5 43.5Q130 21 162 21H350Q382 21 404.5 43.5Q427 66 427 98V286Q427 318 404.5 340.5Q382 363 350 363ZM368 331Q379 331 387.0 323.0Q395 315 395.0 304.0Q395 293 387.0 285.0Q379 277 368.0 277.0Q357 277 349.0 285.0Q341 293 341.0 304.0Q341 315 349.0 323.0Q357 331 368 331ZM256 299Q285 299 309.5 284.5Q334 270 348.5 245.5Q363 221 363.0 192.0Q363 163 348.5 138.5Q334 114 309.5 99.5Q285 85 256.0 85.0Q227 85 202.5 99.5Q178 114 163.5 138.5Q149 163 149.0 192.0Q149 221 163.5 245.5Q178 270 202.5 284.5Q227 299 256 299ZM256 256Q229 256 210.5 237.5Q192 219 192.0 192.0Q192 165 210.5 146.5Q229 128 256.0 128.0Q283 128 301.5 146.5Q320 165 320.0 192.0Q320 219 301.5 237.5Q283 256 256 256Z" />
      </g>
    </svg>