<svg xmlns="http://www.w3.org/2000/svg" viewBox="64 -32 384 432">
      <g transform="scale(1 -1) translate(0 -368)">
        <path d="M441 3 390 53 180 263 149 293 91 352 64 325 123 266Q96 233 88.5 191.5Q81 150 93.0 109.0Q105 68 135 38Q160 13 191.5 0.5Q223 -12 256 -12Q317 -12 363 26L421 -32L448 -5ZM256 30Q230 30 207.0 39.5Q184 49 165.5 67.5Q147 86 137.5 109.0Q128 132 128 158Q128 202 154 235L256 133ZM256 339V241L411 87Q433 134 424.0 187.0Q415 240 377 279L256 400L177 321L207 291Z" />
      </g>
    </svg>