<svg xmlns="http://www.w3.org/2000/svg" viewBox="45 -21 422 426">
      <g transform="scale(1 -1) translate(0 -384)">
        <path d="M256 405Q241 405 224 403V345Q240 348 256.0 348.0Q272 348 288 345V403Q272 405 256 405ZM209 400Q163 389 125.5 359.0Q88 329 66.5 285.5Q45 242 45 192Q45 134 73.5 85.0Q102 36 150.5 7.5Q199 -21 256.0 -21.0Q313 -21 361.5 7.5Q410 36 438.5 85.0Q467 134 467 192Q467 242 445.5 285.5Q424 329 386.5 359.0Q349 389 303 400V341Q351 326 382.0 285.0Q413 244 413 192Q413 150 391.5 114.0Q370 78 334.0 57.0Q298 36 256.0 36.0Q214 36 178.0 57.0Q142 78 121.0 114.0Q100 150 100 192Q100 244 130.5 285.0Q161 326 209 341ZM256 332Q239 332 224 328V58Q240 55 256.5 55.0Q273 55 288 58V328Q273 332 256 332Z" />
      </g>
    </svg>