<svg xmlns="http://www.w3.org/2000/svg" viewBox="43 -43 426 427">
      <g transform="scale(1 -1) translate(0 -341)">
        <path d="M320 256H277V299H320ZM469 21V-21H320Q320 -30 314.0 -36.5Q308 -43 299 -43H213Q204 -43 198.0 -36.5Q192 -30 192 -21H43V21H192Q192 30 198.0 36.5Q204 43 213 43H235V85H149Q132 85 119.5 97.5Q107 110 107 128V341Q107 359 119.5 371.5Q132 384 149 384H363Q380 384 392.5 371.5Q405 359 405 341V128Q405 110 392.5 97.5Q380 85 363 85H277V43H299Q308 43 314.0 36.5Q320 30 320 21ZM192 341H149V128H192ZM235 128H277V213H320Q338 213 350.5 225.5Q363 238 363 256V299Q363 316 350.5 328.5Q338 341 320 341H235Z" />
      </g>
    </svg>