<svg xmlns="http://www.w3.org/2000/svg" viewBox="107 -21 298 426">
      <g transform="scale(1 -1) translate(0 -384)">
        <path d="M149 405Q132 405 119.5 392.5Q107 380 107 363V21Q107 4 119.5 -8.5Q132 -21 149 -21H363Q380 -21 392.5 -8.5Q405 4 405 21V363Q405 380 392.5 392.5Q380 405 363 405ZM149 363H363V235H149ZM256 192Q291 192 316.0 167.0Q341 142 341.0 106.5Q341 71 316.0 46.0Q291 21 256.0 21.0Q221 21 196.0 46.0Q171 71 171.0 106.5Q171 142 196.0 167.0Q221 192 256 192ZM256 149Q238 149 225.5 136.5Q213 124 213.0 106.5Q213 89 225.5 76.5Q238 64 256.0 64.0Q274 64 286.5 76.5Q299 89 299.0 106.5Q299 124 286.5 136.5Q274 149 256 149Z" />
      </g>
    </svg>