<svg xmlns="http://www.w3.org/2000/svg" viewBox="64 -21 384 426">
      <g transform="scale(1 -1) translate(0 -384)">
        <path d="M405 320H341V346Q341 364 349.5 379.5Q358 395 373 405Q388 395 396.5 379.5Q405 364 405 346ZM326 157 418 43Q431 42 439.5 32.5Q448 23 448.0 10.0Q448 -3 438.5 -12.0Q429 -21 416.0 -21.0Q403 -21 393.5 -12.0Q384 -3 384 11V16L299 123L213 16V11Q213 -3 204.0 -12.0Q195 -21 181.5 -21.0Q168 -21 158.5 -12.0Q149 -3 149.0 10.0Q149 23 158.0 32.5Q167 42 179 43L271 157L192 256H64V299H448V256H405ZM299 192 350 256H247Z" />
      </g>
    </svg>