<svg xmlns="http://www.w3.org/2000/svg" viewBox="43 64 426 256">
      <g transform="scale(1 -1) translate(0 -384)">
        <path d="M448 320Q421 320 402.5 301.5Q384 283 384 256V171Q384 162 377.5 155.5Q371 149 363 149V235Q363 261 344.0 280.0Q325 299 299 299H213Q187 299 168.0 280.0Q149 261 149 235H192Q192 243 198.5 249.5Q205 256 213 256H299Q307 256 313.5 249.5Q320 243 320 235V213H128Q93 213 68.0 188.0Q43 163 43 128V64H363V107Q389 107 408.0 125.5Q427 144 427 171V256Q427 265 433.0 271.0Q439 277 448 277H469V320ZM320 107H85V128Q85 146 97.5 158.5Q110 171 128 171H320Z" />
      </g>
    </svg>