<svg xmlns="http://www.w3.org/2000/svg" viewBox="107 -43 298 470">
      <g transform="scale(1 -1) translate(0 -384)">
        <path d="M299 427H213Q177 427 152 420Q132 415 120 405Q112 399 108 391L107 384V128L108 121Q112 113 120 107Q132 97 152 92Q177 85 213 85V43H235V21Q235 -2 249 -20Q267 -43 299 -43H384V0H299Q287 0 282.0 6.5Q277 13 277 21V43H299V85Q335 85 360 92Q380 97 392 107Q400 113 404 121L405 128V384L404 391Q400 399 392 405Q380 415 360 420Q335 427 299 427ZM363 192H299V213H363ZM363 341H299V320H363V277H299V256H363V235H149V373Q167 384 213 384H299Q345 384 363 373Z" />
      </g>
    </svg>