<svg xmlns="http://www.w3.org/2000/svg" viewBox="104 -21 285 426">
      <g transform="scale(1 -1) translate(0 -384)">
        <path d="M112 326Q104 328 104 352Q104 364 107 380Q107 380 108 381Q132 392 160 399Q213 411 258 400Q319 384 357.0 325.0Q395 266 389 217Q385 179 355 148Q338 130 303 109L298 105Q276 91 271 63Q268 48 271 25L272 19Q272 11 265.0 7.5Q258 4 256 13Q251 38 253 62Q256 106 284 125Q345 165 358.5 208.5Q372 252 341 311Q324 344 281 360Q246 372 203 371Q166 369 150 361Q136 354 125 336Q121 330 118.5 327.5Q116 325 112 326ZM199 179 194 189Q195 203 190.5 210.0Q186 217 180.5 214.5Q175 212 172.0 198.5Q169 185 172 164Q174 156 171.0 153.5Q168 151 163.5 152.5Q159 154 159 155Q150 191 157.0 210.0Q164 229 182 225Q193 223 198 215Q202 210 203 202V196Q205 198 212 205Q222 214 230 217Q241 222 245 215Q259 195 246 168Q239 154 224 138L221 134Q218 131 216.0 130.0Q214 129 211.0 132.0Q208 135 208.0 137.5Q208 140 211 144Q238 184 236 195Q235 203 219.0 194.0Q203 185 199 179ZM139 121 145 112Q152 102 162 94Q175 83 189 80Q207 76 226 84Q232 86 235.0 84.0Q238 82 239 80Q241 73 232 70Q203 60 176 67Q155 72 137 86Q124 96 120 104Q113 117 123 123Q128 127 139 121ZM128 75Q131 71 135 68Q143 61 154 55Q169 47 186 43Q207 39 230 43Q238 44 240.0 35.0Q242 26 233.5 23.0Q225 20 207 21Q181 22 159 31Q128 43 109 70Q108 72 111.0 75.0Q114 78 116.5 78.0Q119 78 124.0 76.5Q129 75 128 75ZM127 34Q143 13 167 3Q188 -6 209.0 -5.5Q230 -5 241 3Q244 5 246.5 1.5Q249 -2 247 -4Q228 -23 196 -21Q170 -20 142 -6Q118 6 112 14Q110 19 110.0 24.5Q110 30 113.0 33.0Q116 36 120.5 35.5Q125 35 127 34Z" />
      </g>
    </svg>