<svg xmlns="http://www.w3.org/2000/svg" viewBox="43 0 426 363">
      <g transform="scale(1 -1) translate(0 -363)">
        <path d="M405 171V299H427V363H85V299H107V171H43Q43 155 51.0 144.0Q59 133 75 129V21Q75 12 81.0 6.0Q87 0 96 0H117Q126 0 132.5 6.0Q139 12 139 21V43H373V21Q373 12 379.5 6.0Q386 0 395 0H416Q425 0 431.0 6.0Q437 12 437 21V129Q453 133 461.0 144.0Q469 155 469 171ZM171 128Q157 128 148.0 137.5Q139 147 139.0 160.0Q139 173 148.0 182.5Q157 192 170.5 192.0Q184 192 193.5 182.5Q203 173 203.0 160.0Q203 147 193.5 137.5Q184 128 171 128ZM341 128Q328 128 318.5 137.5Q309 147 309.0 160.0Q309 173 318.5 182.5Q328 192 341.5 192.0Q355 192 364.0 182.5Q373 173 373.0 160.0Q373 147 364.0 137.5Q355 128 341 128ZM373 224Q321 235 256 235Q189 235 139 224V299H373Z" />
      </g>
    </svg>