<svg xmlns="http://www.w3.org/2000/svg" viewBox="74 -21 362 426">
      <g transform="scale(1 -1) translate(0 -384)">
        <path d="M256 363Q296 363 327.5 344.5Q359 326 377.0 293.0Q395 260 395 218Q328 192 256.0 192.0Q184 192 117 218Q117 260 135.0 293.0Q153 326 184.5 344.5Q216 363 256 363ZM256 405Q206 405 164.5 381.5Q123 358 99 316Q75 272 75 215Q76 203 83.5 192.5Q91 182 102 177L139 166V117Q139 113 135.5 110.0Q132 107 128.0 107.0Q124 107 120.5 110.0Q117 113 117 117Q118 127 111.5 133.5Q105 140 96 139Q87 140 80.5 133.5Q74 127 75 117Q74 96 89.0 80.0Q104 64 126 64H128Q151 63 166.5 79.0Q182 95 181 117V156H203V34Q203 27 197.5 24.5Q192 22 186.5 24.5Q181 27 181 34Q182 43 175.5 50.0Q169 57 160 55Q151 57 144.5 50.0Q138 43 139 34Q137 12 152.0 -4.5Q167 -21 190 -21H192Q215 -22 230.5 -6.5Q246 9 245 32V149H267V32Q266 9 281.5 -6.5Q297 -22 320 -21H322Q344 -21 359.0 -5.5Q374 10 373 32Q373 45 362.5 50.5Q352 56 341.5 50.5Q331 45 331 32Q331 25 325.5 22.5Q320 20 314.5 22.5Q309 25 309 32V154H331V115Q331 93 346.5 78.0Q362 63 384 64H386Q408 64 423.0 80.0Q438 96 437 117Q437 131 426.5 136.0Q416 141 405.5 136.0Q395 131 395 117Q395 111 389.5 108.0Q384 105 378.5 108.0Q373 111 373 117V166L410 177Q421 183 428.5 193.0Q436 203 437 215Q437 272 413 316Q389 358 347.5 381.5Q306 405 256 405ZM256 316Q232 309 212.5 295.0Q193 281 179 260Q175 255 169.0 256.0Q163 257 160.5 262.5Q158 268 162 273Q178 297 201.0 313.5Q224 330 252 337Q256 338 260.0 335.5Q264 333 265 329Q268 320 256 316Z" />
      </g>
    </svg>