<svg xmlns="http://www.w3.org/2000/svg" viewBox="43 -21 426 426">
      <g transform="scale(1 -1) translate(0 -384)">
        <path d="M246 405Q246 367 273.5 340.0Q301 313 339 313H377V276Q377 238 404.0 211.0Q431 184 469 183V387Q469 395 464.0 400.0Q459 405 451 405ZM144 303Q145 265 172.0 238.0Q199 211 237 210H275V174Q276 135 303.0 108.0Q330 81 368 81V285Q368 293 363.0 298.0Q358 303 350 303ZM43 201Q43 162 70.0 135.0Q97 108 135 108H173V71Q174 33 201.0 6.0Q228 -21 266 -21V183Q266 190 261.0 195.5Q256 201 248 201Z" />
      </g>
    </svg>