<svg xmlns="http://www.w3.org/2000/svg" viewBox="44 43 425 298">
      <g transform="scale(1 -1) translate(0 -384)">
        <path d="M370 156Q370 135 354.5 120.5Q339 106 317 106Q300 106 281 119Q270 128 251 148L245 154L244 156Q230 171 221 177Q207 187 196 187Q182 187 172.0 178.0Q162 169 162.0 156.0Q162 143 172.0 133.5Q182 124 196 124Q207 124 215 130Q220 132 226 139L228 141Q231 144 235.0 144.0Q239 144 241.5 141.5Q244 139 244.0 135.5Q244 132 242 129L240 127Q232 118 225 114Q212 106 196 106Q174 106 159.0 120.5Q144 135 144.0 156.0Q144 177 159.5 191.5Q175 206 196 206Q214 206 232 192Q243 184 263 163L268 158L269 156Q283 141 293 134Q306 124 317 124Q331 124 341.0 133.5Q351 143 351.0 156.0Q351 169 341.0 178.0Q331 187 317 187Q307 187 298 182Q293 179 287 172L285 171Q283 168 279.0 167.5Q275 167 272.0 170.0Q269 173 269.0 176.5Q269 180 272 183L273 184Q281 193 289 198Q301 206 317 206Q339 206 354.5 191.5Q370 177 370 156ZM469 131Q469 95 443.0 69.0Q417 43 381 43H134Q97 43 70.5 69.5Q44 96 44 133Q44 155 54.5 175.0Q65 195 83 207Q82 213 82 220Q82 246 101.0 265.0Q120 284 147 284Q163 284 177 277Q195 307 225.0 324.0Q255 341 290.0 341.0Q325 341 355.0 323.5Q385 306 402.5 276.5Q420 247 420 212V210Q443 199 456.0 177.5Q469 156 469 131ZM451 131Q451 153 439.0 170.5Q427 188 407 196Q401 199 401 205L402 212Q402 242 387.0 267.5Q372 293 346.5 308.0Q321 323 289.5 323.0Q258 323 230.5 305.5Q203 288 189 260Q188 256 183.5 254.5Q179 253 175 256Q163 266 147 266Q128 266 114.0 252.5Q100 239 100 220Q100 212 102.5 205.5Q105 199 98 195Q82 185 72.5 169.0Q63 153 63 133Q63 104 84.0 83.0Q105 62 134 61H380Q410 61 430.5 81.5Q451 102 451 131Z" />
      </g>
    </svg>