<svg xmlns="http://www.w3.org/2000/svg" viewBox="43 0 426 384">
      <g transform="scale(1 -1) translate(0 -384)">
        <path d="M422 307 405 278V234L377 200L369 165L341 149L331 168L351 179L358 210L373 228Q376 231 375.5 235.5Q375 240 371.5 243.0Q368 246 363.5 245.5Q359 245 356 242L338 220L332 193H330Q323 192 320 192Q298 192 282 205Q281 184 274.5 167.0Q268 150 259 140L224 103L212 26L172 0L161 18L193 39L203 108L213 138Q196 153 189 186L182 173Q169 149 161 137L159 134Q150 121 144 115Q135 104 123 97Q116 93 106.5 91.0Q97 89 89 91Q72 95 61 109Q53 120 49 133Q46 142 43 157L63 163Q73 137 83.5 128.0Q94 119 103.0 127.0Q112 135 122 159Q128 171 137 199L141 210Q160 263 176.0 291.5Q192 320 212 337Q242 363 277 363Q296 363 319 347Q338 333 354 313Q360 304 371.5 305.0Q383 306 389 316L408 349Q404 351 401 354Q395 361 395.0 369.5Q395 378 401 384L425 360H427Q440 360 446 348L469 299L448 288Z" />
      </g>
    </svg>