<svg xmlns="http://www.w3.org/2000/svg" viewBox="0 -43 512 448">
      <g transform="scale(1 -1) translate(0 -362)">
        <path d="M469 -43V0Q444 -1 425 3Q402 8 384 21Q356 1 320.0 1.0Q284 1 256 21Q228 1 192.0 1.0Q156 1 128 21Q110 8 87 3Q68 -1 43 0V-43Q97 -45 128 -27Q157 -43 192.0 -43.0Q227 -43 256 -27Q285 -43 320.0 -43.0Q355 -43 384 -27Q415 -45 469 -43ZM499 81Q423 112 334 123L413 301L441 311L469 375L401 405L373 342L384 314L348 235L288 203L235 230Q233 232 229 233Q215 239 200.5 231.0Q186 223 181 208L152 119Q145 122 84 104Q31 88 20 83L0 75Q44 57 84 45Q107 52 128 75Q144 55 168.0 47.5Q192 40 216.0 47.5Q240 55 256 75Q272 55 296.0 47.5Q320 40 344.0 47.5Q368 55 384 75Q405 52 428 45L490 66L512 75ZM300 126Q279 128 236 128L251 174L288 154L320 172ZM299 288Q299 270 286.5 257.5Q274 245 256.0 245.0Q238 245 225.5 257.5Q213 270 213.0 288.0Q213 306 225.5 318.5Q238 331 256.0 331.0Q274 331 286.5 318.5Q299 306 299 288Z" />
      </g>
    </svg>