<svg xmlns="http://www.w3.org/2000/svg" viewBox="21 -21 470 405">
      <g transform="scale(1 -1) translate(0 -363)">
        <path d="M203 384Q153 384 111.5 366.5Q70 349 45.5 320.0Q21 291 21 256Q21 219 51 186Q21 146 21 96V21Q21 4 33.5 -8.5Q46 -21 64 -21H341Q359 -21 371.5 -8.5Q384 4 384 21V96Q384 137 363 171L405 213L341 277L297 233Q250 258 196.5 256.5Q143 255 98 226Q85 239 85.0 257.0Q85 275 101.0 291.0Q117 307 144.0 316.5Q171 326 203 326Q225 326 246.0 320.5Q267 315 284 305L326 348Q275 384 203 384ZM203 213Q239 213 272 195Q303 178 322.0 150.5Q341 123 341 96V21H64V96Q64 123 83.5 150.5Q103 178 134 195Q167 213 203 213ZM213 181Q164 181 135.5 156.5Q107 132 107 85V64H149V85Q149 115 157 133Q172 168 213 181ZM448 171V299H491V171ZM448 85V128H491V85Z" />
      </g>
    </svg>