<svg xmlns="http://www.w3.org/2000/svg" viewBox="21 -21 470 448">
      <g transform="scale(1 -1) translate(0 -406)">
        <path d="M405 213 341 277 297 233Q254 256 203 256Q145 256 97 226Q85 240 85 256Q85 275 101.0 291.0Q117 307 144.0 316.0Q171 325 203 325Q250 325 284 306L327 349Q302 366 270.0 375.0Q238 384 203 384Q153 384 111.5 367.0Q70 350 45.5 320.5Q21 291 21 256Q21 217 52 185Q21 145 21 96V21Q21 4 33.5 -8.5Q46 -21 64 -21H341Q359 -21 371.5 -8.5Q384 4 384 21V96Q384 136 363 171ZM107 75V21H64V75Q64 112 82.5 144.0Q101 176 133.0 194.5Q165 213 203 213Q211 213 224 211Q174 204 140.5 165.0Q107 126 107 75ZM491 292Q491 266 475.0 243.0Q459 220 435 214L405 243H421Q436 243 447.5 260.0Q459 277 459.0 294.0Q459 311 447.0 324.5Q435 338 419 338V370Q448 370 469.5 346.0Q491 322 491 292ZM377 304Q355 325 355.0 355.0Q355 385 376.0 406.0Q397 427 427 427V395Q411 395 399.0 383.0Q387 371 387.0 355.0Q387 339 399.0 327.5Q411 316 427 316V284Q401 284 380 269L357 292Q366 299 377 304Z" />
      </g>
    </svg>