<svg xmlns="http://www.w3.org/2000/svg" viewBox="21 -21 470 448">
      <g transform="scale(1 -1) translate(0 -406)">
        <path d="M203 384Q153 384 111.5 366.5Q70 349 45.5 320.0Q21 291 21 256Q21 219 51 186Q37 166 29.0 143.0Q21 120 21 96V21Q21 4 33.5 -8.5Q46 -21 64 -21H341Q359 -21 371.5 -8.5Q384 4 384 21V96Q384 137 363 171L405 213L341 277L297 233Q250 258 196.5 256.5Q143 255 98 226Q85 239 85.0 257.0Q85 275 101.0 291.0Q117 307 144.0 316.5Q171 326 203 326Q225 326 246.0 320.5Q267 315 284 305L326 348Q271 385 203 384ZM203 213Q239 213 272 195Q303 178 322.0 150.5Q341 123 341 96V21H64V96Q64 123 83.5 150.5Q103 178 134 195Q167 213 203 213ZM213 181Q164 181 135.5 156.5Q107 132 107 85V64H149V85Q149 115 157 133Q172 168 213 181ZM491 292Q491 266 475.0 243.0Q459 220 435 214L405 243H421Q436 243 447.5 260.0Q459 277 459.0 294.0Q459 311 447.0 324.5Q435 338 419 338V370Q448 370 469.5 346.0Q491 322 491 292ZM377 304Q355 325 355.0 355.0Q355 385 376.0 406.0Q397 427 427 427V395Q411 395 399.0 383.0Q387 371 387.0 355.0Q387 339 399.0 327.5Q411 316 427 316V284Q401 284 380 269L357 292Q366 299 377 304Z" />
      </g>
    </svg>