<svg xmlns="http://www.w3.org/2000/svg" viewBox="85 -21 384 405">
      <g transform="scale(1 -1) translate(0 -363)">
        <path d="M267 384Q217 384 175.5 367.0Q134 350 109.5 320.5Q85 291 85 256Q85 217 116 185Q85 145 85 96V21Q85 4 97.5 -8.5Q110 -21 128 -21H405Q423 -21 435.5 -8.5Q448 4 448 21V96Q448 136 427 171L469 213L405 277L361 233Q318 256 267 256Q209 256 161 226Q149 240 149 256Q149 275 165.0 291.0Q181 307 208.0 316.0Q235 325 267 325Q314 325 348 306L391 349Q366 366 334.0 375.0Q302 384 267 384ZM267 213Q275 213 288 211Q238 204 204.5 165.0Q171 126 171 75V21H128V75Q128 112 146.5 144.0Q165 176 197.0 194.5Q229 213 267 213Z" />
      </g>
    </svg>