<svg xmlns="http://www.w3.org/2000/svg" viewBox="21 -21 470 405">
      <g transform="scale(1 -1) translate(0 -363)">
        <path d="M203 384Q153 384 111.5 366.5Q70 349 45.5 320.0Q21 291 21 256Q21 219 51 186Q21 146 21 96V21Q21 4 33.5 -8.5Q46 -21 64 -21H341Q359 -21 371.5 -8.5Q384 4 384 21V96Q384 137 363 171L405 213L341 277L297 233Q253 256 203 256Q174 256 146.5 248.0Q119 240 98 226Q85 239 85.0 257.0Q85 275 101.0 290.5Q117 306 144.0 315.0Q171 324 203 324Q252 324 284 305L326 348Q303 365 270.5 374.5Q238 384 203 384ZM203 213Q218 213 224 211Q174 203 140.5 165.0Q107 127 107 75V21H64V75Q64 112 82.5 144.0Q101 176 133.0 194.5Q165 213 203 213ZM448 171V299H491V171ZM448 85V128H491V85Z" />
      </g>
    </svg>