<svg xmlns="http://www.w3.org/2000/svg" viewBox="23 -36 448 448">
      <g transform="scale(1 -1) translate(0 -376)">
        <path d="M471 -11 51 412 23 384 100 307Q85 281 85 256Q85 219 115 186Q85 146 85 96V21Q85 4 97.5 -8.5Q110 -21 128 -21H405Q412 -21 425 -17L444 -36ZM175 233 162 226Q149 239 149 256V258ZM171 75V21H128V75Q128 116 149.5 149.5Q171 183 207 201L224 183Q199 164 185.0 135.5Q171 107 171 75ZM361 233 405 277 469 213 427 171Q448 137 448 96V68L260 256H267Q317 256 361 233ZM203 314 158 358Q209 384 267 384Q302 384 334.5 374.5Q367 365 390 348L348 305Q316 324 267 324Q227 324 203 314Z" />
      </g>
    </svg>