<svg xmlns="http://www.w3.org/2000/svg" viewBox="85 -21 384 405">
      <g transform="scale(1 -1) translate(0 -363)">
        <path d="M267 384Q217 384 175.5 366.5Q134 349 109.5 320.0Q85 291 85 256Q85 219 115 186Q85 146 85 96V21Q85 4 97.5 -8.5Q110 -21 128 -21H405Q423 -21 435.5 -8.5Q448 4 448 21V96Q448 137 427 171L469 213L405 277L361 233Q314 258 260.5 256.5Q207 255 162 226Q150 238 149.5 256.5Q149 275 165.0 291.0Q181 307 208.0 316.5Q235 326 267 326Q289 326 310.0 320.5Q331 315 348 305L390 348Q334 385 267 384ZM267 213Q303 213 336 195Q367 178 386.0 150.5Q405 123 405 96V21H128V96Q128 123 147.5 150.5Q167 178 198 195Q231 213 267 213ZM277 181Q228 181 199.5 156.5Q171 132 171 85V64H213V85Q213 115 221 133Q236 168 277 181Z" />
      </g>
    </svg>