<svg xmlns="http://www.w3.org/2000/svg" viewBox="64 0 405 363">
      <g transform="scale(1 -1) translate(0 -363)">
        <path d="M213 363Q204 363 198.0 357.0Q192 351 192 341V320H299V341Q299 351 293.0 357.0Q287 363 277 363ZM64 299 87 147Q91 122 109 105Q121 89 149 85Q149 76 155.0 70.0Q161 64 171 64H341Q351 64 357.0 70.0Q363 76 363 85L320 213H363L433 107L469 128L399 235L427 252L405 288L350 256H320V299H171V213L154 107Q134 110 124 119Q112 131 109 151L85 299ZM85 43V0H427V43Z" />
      </g>
    </svg>