<svg xmlns="http://www.w3.org/2000/svg" viewBox="85 -21 342 426">
      <g transform="scale(1 -1) translate(0 -384)">
        <path d="M85 309Q85 349 113.0 377.0Q141 405 181.0 405.0Q221 405 249.0 377.0Q277 349 277 309Q277 278 259.5 253.5Q242 229 213 219V128H277V64H213V-21H149V219Q121 229 103.0 253.5Q85 278 85 309ZM149 309Q149 296 158.5 286.5Q168 277 181.5 277.0Q195 277 204.0 286.5Q213 296 213.0 309.5Q213 323 204.0 332.0Q195 341 181.5 341.0Q168 341 158.5 332.0Q149 323 149 309ZM384 299H427V171H384ZM384 85H427V128H384Z" />
      </g>
    </svg>