<svg xmlns="http://www.w3.org/2000/svg" viewBox="107 -43 335 470">
      <g transform="scale(1 -1) translate(0 -384)">
        <path d="M270 156Q255 141 235 134V-43H171V0H107V64H171V134Q142 144 124.5 168.5Q107 193 107 224Q107 264 135.0 292.0Q163 320 203 320H205Q189 288 193 254Q183 251 177.0 242.5Q171 234 171 224Q171 211 180.0 201.5Q189 192 203 192Q209 192 217 195Q237 168 270 156ZM442 33 383 9 367 48 308 23 283 82 342 107 315 171Q285 169 259.0 185.0Q233 201 221 229Q205 266 220.5 303.0Q236 340 272 355Q278 358 288 360Q277 380 257.0 392.5Q237 405 213 405Q178 405 153.0 380.0Q128 355 128 320V315Q118 306 110 295Q107 309 107 320Q107 349 121.0 373.5Q135 398 159.5 412.5Q184 427 213.0 427.0Q242 427 266.5 412.5Q291 398 305.5 373.5Q320 349 320 320Q320 298 311.5 278.5Q303 259 287 244Q294 237 303.0 235.0Q312 233 322 237Q334 242 339.0 254.5Q344 267 339 279Q338 282 336 285Q341 303 341 320Q341 340 335 359Q356 353 372.5 338.5Q389 324 398 304Q410 275 403.0 245.5Q396 216 373 196ZM277 265Q289 278 295 295Q286 291 281.5 282.5Q277 274 277 265Z" />
      </g>
    </svg>