<svg xmlns="http://www.w3.org/2000/svg" viewBox="64 0 383 384">
      <g transform="scale(1 -1) translate(0 -384)">
        <path d="M105 322 134 292Q167 325 211.0 336.5Q255 348 299.0 336.5Q343 325 375 292L405 322Q365 363 310.5 377.5Q256 392 200.5 377.5Q145 363 105 322ZM166 260 196 230Q222 256 257.0 256.0Q292 256 318 230L348 260Q323 285 289.5 294.0Q256 303 223.5 294.0Q191 285 166 260ZM252 128Q243 152 223.5 168.5Q204 185 179.0 190.0Q154 195 130.0 185.5Q106 176 89.0 156.5Q72 137 66.5 112.5Q61 88 70 64Q85 27 120.5 9.5Q156 -8 192 6Q213 14 228.0 29.5Q243 45 250 64H320V0H384V64H448V128ZM160 64Q147 64 137.5 73.5Q128 83 128.0 96.0Q128 109 137.5 118.5Q147 128 160.0 128.0Q173 128 182.5 118.5Q192 109 192.0 96.0Q192 83 182.5 73.5Q173 64 160 64Z" />
      </g>
    </svg>