<svg xmlns="http://www.w3.org/2000/svg" viewBox="43 -21 426 426">
      <g transform="scale(1 -1) translate(0 -384)">
        <path d="M469 64V-21H384V43H320V107H256L208 155Q190 149 171 149Q145 149 121.5 159.0Q98 169 80.0 187.0Q62 205 52.5 228.5Q43 252 43 277Q43 312 60.0 341.5Q77 371 106.5 388.0Q136 405 170.5 405.0Q205 405 234.5 388.0Q264 371 281.5 341.5Q299 312 299 277Q299 258 293 240ZM149 341Q132 341 119.5 328.5Q107 316 107.0 298.5Q107 281 119.5 268.5Q132 256 149.5 256.0Q167 256 179.5 268.5Q192 281 192.0 298.5Q192 316 179.5 328.5Q167 341 149 341Z" />
      </g>
    </svg>