<svg xmlns="http://www.w3.org/2000/svg" viewBox="43 -64 426 512">
      <g transform="scale(1 -1) translate(0 -384)">
        <path d="M341 -21H256V-64H128V164Q89 182 66.0 218.5Q43 255 43 299Q43 339 63.0 373.5Q83 408 117.5 428.0Q152 448 192.0 448.0Q232 448 266.5 428.0Q301 408 321.0 373.5Q341 339 341 299Q341 255 318.0 218.5Q295 182 256 164V107H341ZM299 64H213V193L228 198Q259 210 279.0 237.5Q299 265 299 299Q299 328 284.5 352.5Q270 377 245.5 391.0Q221 405 192.0 405.0Q163 405 138.5 391.0Q114 377 99.5 352.5Q85 328 85 299Q85 265 105.0 237.5Q125 210 156 198L171 193V-21H213V21H299ZM256 299Q256 272 237.5 253.5Q219 235 192.0 235.0Q165 235 146.5 253.5Q128 272 128.0 298.5Q128 325 146.5 344.0Q165 363 192.0 363.0Q219 363 237.5 344.0Q256 325 256 299ZM192 277Q201 277 207.0 283.5Q213 290 213.0 298.5Q213 307 207.0 313.5Q201 320 192.0 320.0Q183 320 177.0 313.5Q171 307 171.0 298.5Q171 290 177.0 283.5Q183 277 192 277ZM427 299H469V171H427ZM427 85H469V128H427Z" />
      </g>
    </svg>