<svg xmlns="http://www.w3.org/2000/svg" viewBox="64 43 384 341">
      <g transform="scale(1 -1) translate(0 -427)">
        <path d="M160 384Q192 384 216.0 366.5Q240 349 250 320H448V256H384V192H320V256H250Q240 227 215.0 209.5Q190 192 160 192Q120 192 92.0 220.0Q64 248 64.0 288.0Q64 328 92.0 356.0Q120 384 160 384ZM160 320Q147 320 137.5 310.5Q128 301 128.0 288.0Q128 275 137.5 265.5Q147 256 160.0 256.0Q173 256 182.5 265.5Q192 275 192.0 288.0Q192 301 182.5 310.5Q173 320 160 320ZM171 85H341V43H171Z" />
      </g>
    </svg>