<svg xmlns="http://www.w3.org/2000/svg" viewBox="64 -21 384 426">
      <g transform="scale(1 -1) translate(0 -384)">
        <path d="M160 405Q192 405 216.0 387.5Q240 370 250 341H448V277H384V213H320V277H250Q240 249 215.0 231.0Q190 213 160 213Q120 213 92.0 241.0Q64 269 64.0 309.0Q64 349 92.0 377.0Q120 405 160 405ZM160 341Q147 341 137.5 331.5Q128 322 128.0 309.5Q128 297 137.5 287.0Q147 277 160.0 277.0Q173 277 182.5 287.0Q192 297 192.0 309.5Q192 322 182.5 331.5Q173 341 160 341ZM160 171Q192 171 216.0 153.5Q240 136 250 107H448V43H427V-21H384V43H341V-21H277V43H250Q240 14 215.0 -3.5Q190 -21 160 -21Q120 -21 92.0 7.0Q64 35 64.0 75.0Q64 115 92.0 143.0Q120 171 160 171ZM160 107Q147 107 137.5 97.0Q128 87 128.0 74.5Q128 62 137.5 52.5Q147 43 160.0 43.0Q173 43 182.5 52.5Q192 62 192.0 74.5Q192 87 182.5 97.0Q173 107 160 107Z" />
      </g>
    </svg>