<svg xmlns="http://www.w3.org/2000/svg" viewBox="64 0 384 384">
      <g transform="scale(1 -1) translate(0 -384)">
        <path d="M250 320Q240 349 215.0 366.5Q190 384 160 384Q120 384 92.0 356.0Q64 328 64.0 288.0Q64 248 92.0 220.0Q120 192 160 192Q192 192 216.0 209.5Q240 227 250 256H320V192H384V256H448V320ZM160 256Q147 256 137.5 265.5Q128 275 128.0 288.0Q128 301 137.5 310.5Q147 320 160.0 320.0Q173 320 182.5 310.5Q192 301 192.0 288.0Q192 275 182.5 265.5Q173 256 160 256ZM277 0V43H171V85H277V128L341 64Z" />
      </g>
    </svg>