<svg xmlns="http://www.w3.org/2000/svg" viewBox="0 43 512 298">
      <g transform="scale(1 -1) translate(0 -384)">
        <path d="M448 64H320V128H284Q266 90 229.0 66.5Q192 43 150.0 43.0Q108 43 74.0 63.0Q40 83 20.0 117.0Q0 151 0.0 192.0Q0 233 20.0 267.0Q40 301 74.0 321.0Q108 341 150.0 341.0Q192 341 229.0 317.5Q266 294 284 256H512V128H448ZM363 107H405V171H469V213H254L250 228Q238 260 210.5 279.5Q183 299 149 299Q120 299 95.5 284.5Q71 270 57.0 245.5Q43 221 43.0 192.0Q43 163 57.0 138.5Q71 114 95.5 99.5Q120 85 149 85Q183 85 210.5 104.5Q238 124 250 156L254 171H363ZM149 128Q122 128 103.5 146.5Q85 165 85.0 192.0Q85 219 103.5 237.5Q122 256 149.5 256.0Q177 256 195.0 237.5Q213 219 213.0 192.0Q213 165 195.0 146.5Q177 128 149 128ZM149 213Q140 213 134.0 207.5Q128 202 128.0 192.0Q128 182 134.0 176.5Q140 171 149.5 171.0Q159 171 165.0 176.5Q171 182 171.0 192.0Q171 202 165.0 207.5Q159 213 149 213Z" />
      </g>
    </svg>