<svg xmlns="http://www.w3.org/2000/svg" viewBox="64 -21 384 405">
      <g transform="scale(1 -1) translate(0 -363)">
        <path d="M160 384Q120 384 92.0 356.0Q64 328 64.0 288.0Q64 248 92.0 220.0Q120 192 160 192Q192 192 216.0 209.5Q240 227 250 256H320V192H384V256H448V320H250Q240 349 216.0 366.5Q192 384 160 384ZM160 320Q173 320 182.5 310.5Q192 301 192.0 288.0Q192 275 182.5 265.5Q173 256 160.0 256.0Q147 256 137.5 265.5Q128 275 128.0 288.0Q128 301 137.5 310.5Q147 320 160 320ZM213 149Q194 149 176 141Q155 131 143 114Q128 93 128.0 64.0Q128 35 143 14Q155 -3 176 -13Q194 -21 213 -21H235V21H213Q200 21 190 27Q171 38 171.0 63.5Q171 89 188 100Q199 107 213 107H235V149ZM277 149V107H299Q312 107 322 101Q341 90 341.0 64.5Q341 39 324 28Q313 21 299 21H277V-21H299Q318 -21 336 -13Q357 -3 369 14Q384 35 384.0 64.0Q384 93 369 114Q357 131 336 141Q318 149 299 149ZM192 85V43H320V85Z" />
      </g>
    </svg>