<svg xmlns="http://www.w3.org/2000/svg" viewBox="21 64 470 256">
      <g transform="scale(1 -1) translate(0 -384)">
        <path d="M149 149Q132 149 119.5 161.5Q107 174 107.0 192.0Q107 210 119.5 222.5Q132 235 149.5 235.0Q167 235 179.5 222.5Q192 210 192.0 192.0Q192 174 179.5 161.5Q167 149 149 149ZM269 235Q256 272 223.0 296.0Q190 320 149 320Q115 320 85.5 302.5Q56 285 38.5 256.0Q21 227 21.0 192.0Q21 157 38.5 128.0Q56 99 85.5 81.5Q115 64 149 64Q190 64 223.0 88.0Q256 112 269 149H341V64H427V149H491V235Z" />
      </g>
    </svg>