<svg xmlns="http://www.w3.org/2000/svg" viewBox="21 -21 448 405">
      <g transform="scale(1 -1) translate(0 -363)">
        <path d="M21 357 53 326Q43 314 43 299V85Q43 68 55.5 55.5Q68 43 85 43H336L400 -21L427 6L49 384ZM85 85V293L107 272V235H144L171 208V171H208L229 149H171V107H272L293 85ZM107 213H149V171H107ZM363 213H405V171H363ZM405 235H363V277H405ZM299 213H341V171H316L299 188ZM277 235H252L235 252V277H277ZM469 299V85Q469 72 461.5 61.0Q454 50 442 45L402 85H427V299H188L146 341H427Q444 341 456.5 328.5Q469 316 469 299ZM341 235H299V277H341Z" />
      </g>
    </svg>