<svg xmlns="http://www.w3.org/2000/svg" viewBox="107 85 298 214">
      <g transform="scale(1 -1) translate(0 -384)">
        <path d="M107 299H235V256H149V213H213V171H149V85H107ZM320 171V128H363V171ZM320 256V213H363V256ZM320 85Q302 85 289.5 97.5Q277 110 277 128V160Q277 173 286.5 182.5Q296 192 309 192Q296 192 286.5 201.5Q277 211 277 224V256Q277 274 289.5 286.5Q302 299 320 299H363Q380 299 392.5 286.5Q405 274 405 256V224Q405 211 396.0 201.5Q387 192 373 192Q387 192 396.0 182.5Q405 173 405 160V128Q405 110 392.5 97.5Q380 85 363 85Z" />
      </g>
    </svg>