<svg xmlns="http://www.w3.org/2000/svg" viewBox="43 -43 426 427">
      <g transform="scale(1 -1) translate(0 -341)">
        <path d="M256 -43 341 43H171ZM405 277H363V320H405ZM405 213H363V256H405ZM341 277H299V320H341ZM341 213H299V256H341ZM341 128H171V171H341ZM149 277H107V320H149ZM149 213H107V256H149ZM171 256H213V213H171ZM171 320H213V277H171ZM235 256H277V213H235ZM235 320H277V277H235ZM427 384H85Q68 384 55.5 371.5Q43 359 43 341V128Q43 110 55.5 97.5Q68 85 85 85H427Q444 85 456.5 97.5Q469 110 469 128V341Q469 359 456.5 371.5Q444 384 427 384Z" />
      </g>
    </svg>