<svg xmlns="http://www.w3.org/2000/svg" viewBox="43 43 426 298">
      <g transform="scale(1 -1) translate(0 -384)">
        <path d="M85 341Q68 341 55.5 328.5Q43 316 43 299V85Q43 68 55.5 55.5Q68 43 85 43H427Q444 43 456.5 55.5Q469 68 469 85V299Q469 316 456.5 328.5Q444 341 427 341ZM85 299H427V85H85ZM107 277V235H149V277ZM171 277V235H213V277ZM235 277V235H277V277ZM299 277V235H341V277ZM363 277V235H405V277ZM107 213V171H149V213ZM171 213V171H213V213ZM235 213V171H277V213ZM299 213V171H341V213ZM363 213V171H405V213ZM171 149V107H341V149Z" />
      </g>
    </svg>