<svg xmlns="http://www.w3.org/2000/svg" viewBox="21 85 470 214">
      <g transform="scale(1 -1) translate(0 -384)">
        <path d="M21 299H149V256H64V213H149V171H64V128H149V85H21ZM235 299H320V256H235V213H277Q295 213 307.5 200.5Q320 188 320 171V128Q320 110 307.5 97.5Q295 85 277 85H192V128H277V171H235Q217 171 204.5 183.5Q192 196 192 213V256Q192 274 204.5 286.5Q217 299 235 299ZM405 299H448Q466 299 478.5 286.5Q491 274 491 256V235H448V256H405V128H448V149H491V128Q491 110 478.5 97.5Q466 85 448 85H405Q388 85 375.5 97.5Q363 110 363 128V256Q363 274 375.5 286.5Q388 299 405 299Z" />
      </g>
    </svg>