<svg xmlns="http://www.w3.org/2000/svg" viewBox="21 -21 448 405">
      <g transform="scale(1 -1) translate(0 -363)">
        <path d="M21 357 49 384 427 6 400 -21 336 43H85Q68 43 55.5 55.5Q43 68 43 85V299Q43 314 52 326ZM405 235V277H363V235ZM405 171V213H363V171ZM341 235V277H299V235ZM341 171V213H299V188L252 235H277V277H235V252L145 341H427Q444 341 456.5 328.5Q469 316 469 299V85Q469 72 461.5 61.0Q454 50 442 45L316 171ZM171 128V85H293L250 128ZM107 235H144L107 272ZM149 171V213H107V171ZM171 171H208L171 208Z" />
      </g>
    </svg>