<svg xmlns="http://www.w3.org/2000/svg" viewBox="43 -64 426 405">
      <g transform="scale(1 -1) translate(0 -277)">
        <path d="M405 235H363V277H405ZM405 171H363V213H405ZM341 235H299V277H341ZM341 171H299V213H341ZM341 85H171V128H341ZM149 235H107V277H149ZM149 171H107V213H149ZM171 213H213V171H171ZM171 277H213V235H171ZM235 213H277V171H235ZM235 277H277V235H235ZM427 341H85Q68 341 55.5 328.5Q43 316 43 299V85Q43 68 55.5 55.5Q68 43 85 43H427Q444 43 456.5 55.5Q469 68 469 85V299Q469 316 456.5 328.5Q444 341 427 341ZM149 -21H192V-64H149ZM235 -21H277V-64H235ZM320 -21H363V-64H320Z" />
      </g>
    </svg>