<svg xmlns="http://www.w3.org/2000/svg" viewBox="43 64 426 235">
      <g transform="scale(1 -1) translate(0 -363)">
        <path d="M128 107H384V64H128ZM128 171V128H43V171ZM149 128V171H213V128ZM235 128V171H277V128ZM299 128V171H363V128ZM384 128V171H469V128ZM43 235H107V192H43ZM405 192V235H469V192ZM384 192H341V235H384ZM171 192H128V235H171ZM256 192H192V235H256ZM320 192H277V235H320ZM43 256V299H85V256ZM107 256V299H149V256ZM171 256V299H213V256ZM235 256V299H277V256ZM299 256V299H341V256ZM363 256V299H469V256Z" />
      </g>
    </svg>