<svg xmlns="http://www.w3.org/2000/svg" viewBox="43 -43 426 470">
      <g transform="scale(1 -1) translate(0 -384)">
        <path d="M341 21Q402 54 435 97Q469 141 469 192Q469 234 446.5 272.0Q424 310 382 341H380Q420 296 420 235Q420 190 395 152Q374 121 331 89L277 55V78L320 107L317 116Q314 127 311 140Q344 154 364.0 182.5Q384 211 384.0 245.0Q384 279 364.5 307.5Q345 336 313 351L320 384L256 427L192 384L199 351Q167 336 147.5 307.5Q128 279 128.0 245.0Q128 211 148.0 182.5Q168 154 201 140Q196 119 192 107L235 78V55L181 89Q138 121 117 152Q92 190 92 235Q92 296 132 341H131Q89 310 66.0 272.0Q43 234 43 192Q43 141 77 97Q110 54 171 21L192 53L233 27L157 -21L171 -43L235 -1V-43H277V-1L341 -43L355 -21L279 27L320 53ZM357 245Q357 220 343.0 199.5Q329 179 305 167Q299 204 299 235Q299 270 308 323Q330 311 343.5 290.5Q357 270 357 245ZM155 245Q155 270 168.5 290.5Q182 311 205 323Q213 269 213 235Q213 204 207 167Q183 179 169.0 199.5Q155 220 155 245Z" />
      </g>
    </svg>