<svg xmlns="http://www.w3.org/2000/svg" viewBox="64 -21 377 427">
      <g transform="scale(1 -1) translate(0 -385)">
        <path d="M412 230 373 192 412 154Q432 134 438.5 107.5Q445 81 438.5 54.5Q432 28 412.0 8.5Q392 -11 365.5 -18.0Q339 -25 312.5 -18.0Q286 -11 266 9L252 23Q238 2 215.5 -9.5Q193 -21 166.0 -21.0Q139 -21 115.5 -7.5Q92 6 78.0 29.5Q64 53 64 81V303Q64 331 78.0 354.5Q92 378 115.5 391.5Q139 405 166.0 405.0Q193 405 215.0 393.5Q237 382 252 361L266 375Q286 395 312.5 402.0Q339 409 365.5 402.0Q392 395 412.0 375.5Q432 356 438.5 329.5Q445 303 438.5 276.5Q432 250 412 230Z" />
      </g>
    </svg>