<svg xmlns="http://www.w3.org/2000/svg" viewBox="43 -43 425 470">
      <g transform="scale(1 -1) translate(0 -384)">
        <path d="M352 352 331 375 382 427H427ZM447 -43Q413 -43 383 -27Q354 -43 319.5 -43.0Q285 -43 255 -27Q226 -43 191.5 -43.0Q157 -43 128 -27Q96 -45 43 -43V0Q68 -1 87 3Q110 8 128 21Q156 1 191.5 1.0Q227 1 255 21Q284 1 319.5 1.0Q355 1 383 21Q401 8 424 3Q443 -1 468 0V-43ZM434 186Q409 196 377 189Q358 185 320 171L300 163L264 203H204V277Q244 274 277 284Q315 295 339 321L309 351Q295 336 275.0 328.0Q255 320 235 320H171Q153 320 140.0 307.5Q127 295 128 277Q128 270 128 246Q127 211 128 193Q130 164 138 152L171 89Q152 76 139 64Q155 48 177.0 44.5Q199 41 220.0 49.0Q241 57 255 75Q271 56 294.0 47.5Q317 39 339 46Q368 66 390 84Q426 115 440 139Q457 170 434 186ZM244 135Q218 121 209 115L191 158L244 160L259 144ZM171 427Q153 427 140.5 414.5Q128 402 128.0 384.0Q128 366 140.5 353.5Q153 341 170.5 341.0Q188 341 200.5 353.5Q213 366 213.0 384.0Q213 402 200.5 414.5Q188 427 171 427Z" />
      </g>
    </svg>