<svg xmlns="http://www.w3.org/2000/svg" viewBox="95 -11 363 427">
      <g transform="scale(1 -1) translate(0 -405)">
        <path d="M102 -11 100 -5Q95 13 96 34Q99 67 124 94Q118 114 118 134Q118 161 129.0 185.5Q140 210 159 228Q188 256 228 265Q249 339 256 416Q266 332 284 265Q325 257 356 228Q375 210 386.0 185.5Q397 161 397 134Q397 115 391 96Q419 83 459 79L457 76Q455 68 442 60H441Q416 43 381 43H371L361 44L356 39Q337 20 311.5 10.0Q286 0 257.5 0.0Q229 0 203.5 10.0Q178 20 159 39L157 41Q125 24 105 -6ZM139 108Q146 114 159 126Q178 144 184 154L186 158Q209 124 244 62H239Q203 60 174 49Q191 34 212.5 25.5Q234 17 257 17Q304 17 339 48L319 53Q290 59 273 60H269L271 64Q276 74 305 123L325 157L327 153Q348 123 375 105Q379 119 379 133Q379 157 369.5 178.0Q360 199 343 215Q320 238 289 245Q300 209 311 185L312 183L311 182Q303 165 284 135Q268 108 260 93L258 89L255 93Q245 107 207 170L201 181Q213 211 223 245Q193 237 171 215Q155 200 145.5 178.5Q136 157 136 134Q136 121 139 108Z" />
      </g>
    </svg>