<svg xmlns="http://www.w3.org/2000/svg" viewBox="21 0 470 384">
      <g transform="scale(1 -1) translate(0 -384)">
        <path d="M405 384Q377 384 358 376Q322 360 305 318Q297 320 277 320H235Q215 320 207 318Q190 360 154 376Q135 384 107 384Q92 384 75 375Q52 362 39 337Q21 305 21 256Q21 205 52 177Q73 158 107 151V128Q107 93 124.0 64.0Q141 35 170.5 17.5Q200 0 235 0H277Q312 0 341.5 17.5Q371 35 388.0 64.0Q405 93 405 128V151Q439 158 460 177Q491 205 491 256Q491 305 473 337Q460 362 437 375Q420 384 405 384ZM107 192V183Q86 189 78 206Q72 220 76.5 236.5Q81 253 92 262Q88 267 75 263Q69 262 66.5 262.0Q64 262 64 265Q64 271 84 282Q97 288 109 292Q106 298 90 301Q83 302 80.0 303.0Q77 304 77 307Q77 313 93.0 318.0Q109 323 124 320Q144 316 158 305Q134 283 121 256Q107 226 107 192ZM181 128Q161 128 153.0 144.0Q145 160 153.0 176.0Q161 192 181.0 192.0Q201 192 209.0 176.0Q217 160 209.0 144.0Q201 128 181 128ZM267 64H245Q234 64 227.5 73.0Q221 82 226 92L241 156Q244 166 258 171Q269 171 275 156L290 92Q292 82 285.0 73.0Q278 64 267 64ZM331 128Q311 128 303.0 144.0Q295 160 303.0 176.0Q311 192 331.0 192.0Q351 192 359.0 176.0Q367 160 359.0 144.0Q351 128 331 128ZM420 265Q431 256 435.5 239.0Q440 222 434 208Q426 192 405 186Q407 220 393.0 252.0Q379 284 354 305Q368 316 388 320Q404 323 419.5 318.5Q435 314 435 307Q435 304 431.5 303.0Q428 302 421 301Q406 299 403 294L413 289Q448 273 448 265Q448 262 445.5 262.0Q443 262 438 264Q425 268 420 265Z" />
      </g>
    </svg>