<svg xmlns="http://www.w3.org/2000/svg" viewBox="21 -43 470 470">
      <g transform="scale(1 -1) translate(0 -384)">
        <path d="M257 427Q250 427 243 420L189 366L179 355Q170 347 170 335Q171 308 171 253V167Q171 163 171 161Q173 156 175.5 155.0Q178 154 182 158L343 320Q357 333 343 347L269 420Q263 427 257 427ZM398 285Q391 285 385 279L311 205Q298 192 311 179L385 105Q398 91 411 105Q454 147 482 176L483 177Q489 183 491 188V195Q489 199 484 204L411 279Q405 285 398 285ZM102 275Q100 276 97 273L25 201Q21 196 21.0 190.5Q21 185 25 181L97 109Q103 104 105 111Q107 113 107 118V264Q107 268 106 269Q105 274 102 275ZM258 144Q251 144 245 138L171 63Q158 50 171 37L243 -34Q250 -41 255 -43H261Q266 -41 273 -35L345 37Q357 50 344 64L271 138Q265 144 258 144Z" />
      </g>
    </svg>