<svg xmlns="http://www.w3.org/2000/svg" viewBox="36 -21 440 426">
      <g transform="scale(1 -1) translate(0 -384)">
        <path d="M298 160H293Q290 158 289.0 155.0Q288 152 289 149L307 104Q335 122 345 152ZM224 154Q222 160 216 160L167 152Q178 122 205 105L223 149Q224 150 224 154ZM263 137Q261 139 258.0 140.0Q255 141 252 140V139Q250 138 249 137L225 95Q251 86 277 92Q282 93 287 95ZM337 234 301 203V202Q298 200 298.0 196.5Q298 193 300.0 191.0Q302 189 304 188L351 175Q353 208 337 234ZM270 231Q270 227 272.5 225.0Q275 223 278.0 223.0Q281 223 283 224L322 252Q300 274 268 278ZM229 224Q232 222 235.0 222.5Q238 223 239.5 225.5Q241 228 242 230L244 278L235 277Q208 271 189 252ZM208 188Q211 189 212.5 192.0Q214 195 213.5 197.5Q213 200 211 202L175 235Q158 206 162 175ZM243 174 256 167 269 174 272 188 263 199H249L239 188ZM475 146 437 309Q434 323 422 329L269 403Q256 408 243 403L90 329Q78 323 75 309L37 146Q35 139 37 133L38 129Q39 126 41 124L148 -11Q149 -11 149 -12L155 -17Q159 -19 164 -20Q166 -21 171 -21H344H347L357 -17Q360 -15 364 -11L469 121Q472 125 474 129L475 133Q477 139 475 146ZM317 82Q317 79 318 78Q317 75 317 73Q322 63 326 58L331 51L332 48Q333 45 332.5 41.5Q332 38 328.5 36.0Q325 34 321.5 35.0Q318 36 316 39L314 43L311 53Q307 62 305 67Q303 69 300 70L299 73Q256 57 214 73L212 70Q209 69 208 68Q204 61 201 51L198 43L197 41Q196 37 192.5 35.5Q189 34 185.5 35.0Q182 36 180.0 39.5Q178 43 180 47V48Q181 49 181 51L186 58Q191 65 195 73Q195 76 194 78L196 82Q157 105 143 148L139 147Q136 149 134 149Q128 148 117 145Q114 143 109 141H107Q103 140 99.5 141.5Q96 143 95.0 146.5Q94 150 95.5 153.5Q97 157 101 158L105 159Q108 160 114.0 160.0Q120 160 131 163Q133 164 135 167L139 168Q132 212 157 250L154 253Q154 256 152 258Q146 264 139 268L131 272L129 274Q126 276 125.0 280.0Q124 284 127.0 287.5Q130 291 134.0 290.5Q138 290 141 288L148 280Q155 273 161 269Q163 268 166 268L170 266Q194 292 229 300Q237 302 246 303V307Q248 308 249 311Q249 319 248 328Q247 332 247 337V339Q247 343 249.0 346.0Q251 349 255.0 349.5Q259 350 262.0 347.5Q265 345 265 341V337Q265 332 264 328Q263 319 263 311Q263 308 266 307V303Q311 299 342 266L345 269Q348 268 351 269Q358 274 363 280L369 287L371 288Q374 291 378.0 291.0Q382 291 384.5 288.0Q387 285 387.0 281.5Q387 278 384 275Q384 275 383 274L381 272Q378 270 373 268Q365 263 360 258Q358 256 358 253L355 250Q380 213 373 168L377 167Q379 164 381 163Q388 161 398 160H407Q407 159 409 159Q413 158 415.5 155.0Q418 152 417.0 148.5Q416 145 413.5 142.5Q411 140 407 141L402 142Q398 143 395 145Q386 148 378 149Q375 149 373 148H369Q363 128 349.0 110.5Q335 93 317 82Z" />
      </g>
    </svg>