<svg xmlns="http://www.w3.org/2000/svg" viewBox="64 43 405 298">
      <g transform="scale(1 -1) translate(0 -384)">
        <path d="M376 323Q370 332 361.0 336.5Q352 341 341 341H107Q89 341 76.5 328.5Q64 316 64 299V85Q64 68 76.5 55.5Q89 43 107 43H341Q352 43 361.0 47.5Q370 52 376 61L469 192ZM180 277Q193 277 202.0 268.0Q211 259 211.0 246.5Q211 234 202.0 225.0Q193 216 180.5 216.0Q168 216 159.0 225.0Q150 234 150.0 246.5Q150 259 159.0 268.0Q168 277 180 277ZM289 107Q277 107 268.0 116.0Q259 125 259.0 137.5Q259 150 268.0 159.0Q277 168 289.5 168.0Q302 168 310.5 159.0Q319 150 319.0 137.5Q319 125 310.5 116.0Q302 107 289 107ZM175 107 149 132 294 277 320 252Z" />
      </g>
    </svg>