<svg xmlns="http://www.w3.org/2000/svg" viewBox="43 -21 426 426">
      <g transform="scale(1 -1) translate(0 -384)">
        <path d="M213 405Q196 405 183.5 392.5Q171 380 171 363V299Q171 281 183.5 268.5Q196 256 213 256H235V213H43V171H128V128H107Q89 128 76.5 115.5Q64 103 64 85V21Q64 4 76.5 -8.5Q89 -21 107 -21H192Q210 -21 222.5 -8.5Q235 4 235 21V85Q235 103 222.5 115.5Q210 128 192 128H171V171H341V128H320Q302 128 289.5 115.5Q277 103 277 85V21Q277 4 289.5 -8.5Q302 -21 320 -21H405Q423 -21 435.5 -8.5Q448 4 448 21V85Q448 103 435.5 115.5Q423 128 405 128H384V171H469V213H277V256H299Q316 256 328.5 268.5Q341 281 341 299V363Q341 380 328.5 392.5Q316 405 299 405ZM213 363H299V299H213ZM107 85H192V21H107ZM320 85H405V21H320Z" />
      </g>
    </svg>