<svg xmlns="http://www.w3.org/2000/svg" viewBox="43 -21 426 426">
      <g transform="scale(1 -1) translate(0 -384)">
        <path d="M427 405H85Q68 405 55.5 392.5Q43 380 43 363V21Q43 4 55.5 -8.5Q68 -21 85 -21H427Q444 -21 456.5 -8.5Q469 4 469 21V363Q469 380 456.5 392.5Q444 405 427 405ZM326 363Q299 325 299 277H213Q213 303 224.5 325.5Q236 348 256 363ZM299 149H213Q213 197 186 235H256Q276 220 287.5 197.5Q299 175 299 149ZM85 363H198Q171 325 171 277H85ZM85 235H128Q148 220 159.5 198.0Q171 176 171 149H85ZM85 21V107H198Q171 69 171 21ZM213 21Q213 47 224.5 69.5Q236 92 256 107H326Q299 69 299 21ZM427 21H341Q341 47 352.5 69.5Q364 92 384 107H427ZM427 149H341Q341 197 314 235H427ZM427 277H341Q341 303 352.5 325.5Q364 348 384 363H427Z" />
      </g>
    </svg>