<svg xmlns="http://www.w3.org/2000/svg" viewBox="43 -21 426 426">
      <g transform="scale(1 -1) translate(0 -384)">
        <path d="M427 405H85Q68 405 55.5 392.5Q43 380 43 363V21Q43 4 55.5 -8.5Q68 -21 85 -21H427Q444 -21 456.5 -8.5Q469 4 469 21V363Q469 380 456.5 392.5Q444 405 427 405ZM277 288Q277 318 299.5 340.5Q322 363 352.0 363.0Q382 363 404.5 340.5Q427 318 427.0 288.0Q427 258 404.5 235.5Q382 213 352.0 213.0Q322 213 299.5 235.5Q277 258 277 288ZM85 363H235V213H85ZM85 21V171H235V21ZM427 21H277V171H427Z" />
      </g>
    </svg>