<svg xmlns="http://www.w3.org/2000/svg" viewBox="43 -21 426 426">
      <g transform="scale(1 -1) translate(0 -384)">
        <path d="M427 405H85Q68 405 55.5 392.5Q43 380 43 363V21Q43 4 55.5 -8.5Q68 -21 85 -21H427Q444 -21 456.5 -8.5Q469 4 469 21V363Q469 380 456.5 392.5Q444 405 427 405ZM427 256Q427 227 412.5 202.5Q398 178 373.5 163.5Q349 149 320.0 149.0Q291 149 266.5 163.5Q242 178 227.5 202.5Q213 227 213.0 256.0Q213 285 227.5 309.5Q242 334 266.5 348.5Q291 363 320.0 363.0Q349 363 373.5 348.5Q398 334 412.5 309.5Q427 285 427 256ZM85 363H171V149H85ZM85 21V107H171V21ZM427 21H213V107H427Z" />
      </g>
    </svg>