<svg xmlns="http://www.w3.org/2000/svg" viewBox="0 62 512 260">
      <g transform="scale(1 -1) translate(0 -384)">
        <path d="M256 62Q186 62 127.5 79.5Q69 97 34.5 127.0Q0 157 0.0 192.0Q0 227 34.5 257.0Q69 287 127.5 304.5Q186 322 256.0 322.0Q326 322 384.5 304.5Q443 287 477.5 257.0Q512 227 512.0 192.0Q512 157 477.5 127.0Q443 97 384.5 79.5Q326 62 256 62ZM145 232Q163 232 168.5 225.5Q174 219 171.0 203.0Q168 187 159.0 180.0Q150 173 131 173H113L124 232ZM71 113H101L109 151H135Q152 151 163.5 154.5Q175 158 183.0 166.0Q191 174 196.0 182.5Q201 191 203 201Q208 226 195.5 240.0Q183 254 157 254H98ZM225 291 198 151H228L244 231H268Q280 231 283.5 227.5Q287 224 285 213L273 151H304L316 216Q320 236 310.5 245.0Q301 254 275 254H248L256 291ZM384 232Q402 232 407.5 225.5Q413 219 410.0 203.0Q407 187 398.0 180.0Q389 173 370 173H352L363 232ZM309 113H340L347 151H373Q391 151 402.0 154.5Q413 158 422.0 166.0Q431 174 435.5 182.5Q440 191 442 201Q446 226 434.5 240.0Q423 254 396 254H337Z" />
      </g>
    </svg>