<svg xmlns="http://www.w3.org/2000/svg" viewBox="21 43 491 298">
      <g transform="scale(1 -1) translate(0 -384)">
        <path d="M224 107 233 55Q225 51 206.5 47.0Q188 43 163 43Q93 44 57.0 84.5Q21 125 21 188Q23 261 65.0 301.0Q107 341 169 341Q193 341 210.5 337.0Q228 333 236 329L224 276L201 283Q189 286 172 286Q135 286 110.5 262.5Q86 239 85 191Q85 148 108.0 123.0Q131 98 172 98L201 100Q213 103 224 107ZM235 213H277V256H320V213H363V171H320V128H277V171H235ZM384 213H427V256H469V213H512V171H469V128H427V171H384Z" />
      </g>
    </svg>