<svg xmlns="http://www.w3.org/2000/svg" viewBox="43 -20 426 424">
      <g transform="scale(1 -1) translate(0 -384)">
        <path d="M401 404Q439 397 456 373Q470 352 469 319V320L445 1L130 -20Q96 -19 77 -8Q44 12 43 65L72 118L131 -19L181 143H180H181L345 91L303 257L460 267L336 368L401 404ZM43 66V65ZM134 315Q166 347 201.0 368.0Q236 389 265.5 394.0Q295 399 310.0 383.5Q325 368 321.0 339.5Q317 311 297.0 277.0Q277 243 245.0 211.5Q213 180 178.0 158.5Q143 137 114.0 131.5Q85 126 69.5 141.5Q54 157 58.0 186.0Q62 215 82.0 249.5Q102 284 134 315Z" />
      </g>
    </svg>