<svg xmlns="http://www.w3.org/2000/svg" viewBox="43 -20 425 425">
      <g transform="scale(1 -1) translate(0 -385)">
        <path d="M467 198 448 209V213L463 228Q465 230 465.0 232.5Q465 235 463 237L461 239L442 245Q442 250 439 250L452 267Q454 268 453.5 271.0Q453 274 450 275H449Q448 276 448 277L427 282Q427 283 426.0 284.0Q425 285 425 286L433 305V311Q431 314 427 314H405V315Q405 316 403 316L407 337Q407 343 403 343H401L380 339Q380 341 378 342L375 343V365Q375 371 369 371H367L348 363H346L341 384Q341 387 339.0 388.5Q337 390 335 388H333L316 375Q311 375 311 378L305 397Q301 401 297 401H295Q294 400 294 399L277 384H273L262 401Q260 405 252 405L250 403L239 384H235L220 399Q218 401 215.5 401.0Q213 401 211 399L209 397L203 378Q198 378 198 375L181 388Q174 392 171 386V384L166 363L165 362Q163 362 162 361L143 369Q141 371 138.5 370.0Q136 369 134 367V343Q134 342 133.0 341.0Q132 340 132 339L111 343Q105 347 105 339V337L109 316Q108 316 107.0 315.0Q106 314 105 314H83Q77 314 77 307V305L85 286V282L64 277Q61 277 59.5 275.0Q58 273 58 271V269L70 252Q70 247 68 247L51 239Q47 235 47 230V229Q48 228 49 228L64 213V209L47 198Q43 196 43 190L45 188L64 175V171L49 156Q47 154 47.0 151.5Q47 149 49 147L51 145L70 139Q70 134 73 134L60 117Q58 116 58.5 113.0Q59 110 62 109H63Q64 108 64 107L85 102Q85 101 86.0 100.0Q87 99 87 98L79 79Q77 77 78.0 74.5Q79 72 81 70H105Q106 70 107.0 69.0Q108 68 109 68L105 47Q105 41 109 41H111L132 45Q132 43 134 42L137 41V19Q137 13 143 13H145L164 21H166L171 0Q171 -3 173.0 -4.5Q175 -6 177 -4H179L196 9Q201 9 201 6L207 -13Q211 -17 215 -17H217Q218 -16 218 -15L235 0H239L250 -17Q251 -19 254.0 -20.0Q257 -21 258 -19L260 -17L271 0H275L290 -15Q292 -17 294.5 -17.0Q297 -17 299 -15L301 -13L307 6Q311 6 311 9L329 -4Q330 -6 333.0 -5.5Q336 -5 337 -2V-1Q338 0 339 0L343 21Q345 21 346.0 22.0Q347 23 348 23L367 15Q368 13 371.0 14.0Q374 15 375 17V41L380 45L401 41Q407 41 407 45V47L403 68L407 73H429Q435 73 435 79V81L427 100Q427 101 428.0 102.0Q429 103 429 105L450 109Q453 109 454.5 111.5Q456 114 454 115V117L442 134L444 139L463 145Q467 149 467 154V155Q466 156 465 156L448 171V175L465 186Q471 188 467 198V197ZM346 49Q341 51 338.0 55.0Q335 59 336.0 64.0Q337 69 341.0 72.0Q345 75 350.0 74.0Q355 73 358.0 69.0Q361 65 361.0 59.0Q361 53 356.5 50.0Q352 47 346 49ZM341 90Q337 91 333.0 88.5Q329 86 329 81L320 51Q291 38 255.5 38.0Q220 38 190 53L183 83Q180 95 171 92L145 85L132 100L262 101V149H224V177H265Q284 177 290 156L293 144Q296 126 298.5 120.5Q301 115 308.0 107.5Q315 100 322 100H388Q384 94 373 83ZM164 49Q159 47 155.0 50.0Q151 53 149.5 59.0Q148 65 151.0 69.0Q154 73 160 75Q172 78 175 64Q175 59 172.0 55.0Q169 51 164 49ZM115 245Q117 240 115.0 235.0Q113 230 108.5 228.5Q104 227 98.5 228.5Q93 230 91.5 235.0Q90 240 92.0 245.0Q94 250 98 252Q112 255 115 245ZM100 211 128 222Q133 223 134.5 227.5Q136 232 134 237L128 250H149V149H107Q97 181 100 211ZM220 220V250H273Q278 250 283 247Q292 243 292.0 235.0Q292 227 285.0 223.5Q278 220 269 220ZM412 194V183H393V175Q393 163 387.0 158.5Q381 154 374.0 154.0Q367 154 361.5 156.5Q356 159 354 162Q352 179 346 188Q342 194 332 202L329 205Q361 228 361.0 250.5Q361 273 337 290Q327 296 316 299Q308 301 303 301H141Q177 340 228 350L247 329Q254 322 265 329L286 350Q319 343 347.0 323.0Q375 303 393 273L378 239Q376 234 377.5 230.0Q379 226 384 224L412 211ZM247 365Q251 368 256.0 368.0Q261 368 264.5 365.0Q268 362 268.0 356.5Q268 351 265 348Q255 338 245 348Q240 353 247 365ZM395 245Q396 250 401.5 251.5Q407 253 411.5 251.5Q416 250 418.0 245.0Q420 240 418.5 235.0Q417 230 411.5 228.5Q406 227 401.0 228.5Q396 230 394.5 235.0Q393 240 395 245Z" />
      </g>
    </svg>