<svg xmlns="http://www.w3.org/2000/svg" viewBox="98 -21 314 426">
      <g transform="scale(1 -1) translate(0 -384)">
        <path d="M352 318Q341 315 330 311Q305 302 288 290Q264 273 258 254Q252 229 276 201Q285 191 284 179Q283 171 277 163L271 156L283 165Q297 175 302 186Q309 202 299 217L296 221Q283 239 281 248Q279 261 293 276Q309 293 352 318ZM257 293Q281 312 294 331Q305 347 309 362Q311 374 309 385Q307 393 303 400L299 405Q304 383 298 365Q292 349 277 334Q268 325 247 309Q232 296 225 290Q213 279 206 270Q193 249 209 223Q220 204 256 171Q252 179 241 195Q229 214 225 223Q219 240 225 255Q232 273 257 293ZM200 75Q176 69 179.5 60.0Q183 51 206.5 45.0Q230 39 260 40Q294 42 323 55Q311 60 300 66Q256 56 212 63Q194 65 195 70Q196 73 200 75ZM313 111Q257 99 199 106Q182 107 184 115Q185 119 190 122Q164 113 167.0 104.5Q170 96 195.5 91.0Q221 86 256 88Q295 90 331 100Q322 104 313 111ZM386 41Q387 39 388.5 36.5Q390 34 387.5 30.0Q385 26 373 23Q349 16 298.0 12.5Q247 9 201 11Q150 14 130 22Q120 27 132 33Q141 38 152 40Q159 42 167 42Q159 47 134.0 40.5Q109 34 100.5 23.5Q92 13 120 9Q169 1 218 -1Q261 -2 300 2Q336 6 360.5 13.0Q385 20 392.0 27.5Q399 35 386 41ZM328 144Q336 150 348 155L327 152Q303 148 283 146Q232 141 180 145Q158 148 165 155Q170 159 190 165L208 171Q173 171 141 155Q125 147 139.5 141.5Q154 136 188.5 134.0Q223 132 259 134Q300 137 328 144ZM347 93Q346 91 345 91Q383 100 400 118Q415 132 413.0 147.5Q411 163 395.5 170.5Q380 178 362 172Q357 170 355 167Q360 168 364 169Q374 171 383.5 165.0Q393 159 395.0 147.5Q397 136 387 123Q375 107 347 93ZM350 -6Q254 -22 155 -9L160 -11Q166 -13 177 -15Q193 -18 215 -20Q257 -23 300 -20Q348 -17 377 -8Q412 2 413 19Q414 19 409.0 14.5Q404 10 392 6Q376 -1 350 -6Z" />
      </g>
    </svg>