<svg xmlns="http://www.w3.org/2000/svg" viewBox="43 -21 426 426">
      <g transform="scale(1 -1) translate(0 -384)">
        <path d="M224 341Q188 341 154.5 327.5Q121 314 95.5 288.5Q70 263 56.5 229.5Q43 196 43.0 160.0Q43 124 56.5 90.5Q70 57 95.5 31.5Q121 6 154.5 -7.5Q188 -21 224.0 -21.0Q260 -21 293.5 -7.5Q327 6 352.5 31.5Q378 57 391.5 90.5Q405 124 405.0 160.0Q405 196 391.5 229.5Q378 263 352.5 288.5Q327 314 293.5 327.5Q260 341 224 341ZM288 171Q266 171 250.5 186.5Q235 202 235.0 224.0Q235 246 250.5 261.5Q266 277 288.0 277.0Q310 277 325.5 261.5Q341 246 341.0 224.0Q341 202 325.5 186.5Q310 171 288 171ZM416 405Q394 405 378.5 389.5Q363 374 363.0 352.0Q363 330 378.5 314.5Q394 299 416.0 299.0Q438 299 453.5 314.5Q469 330 469.0 352.0Q469 374 453.5 389.5Q438 405 416 405Z" />
      </g>
    </svg>