<svg xmlns="http://www.w3.org/2000/svg" viewBox="43 64 426 256">
      <g transform="scale(1 -1) translate(0 -384)">
        <path d="M439 64H73Q61 64 52.0 73.0Q43 82 43 94V290Q43 302 52.0 311.0Q61 320 73 320H439Q451 320 460.0 311.0Q469 302 469 290V94Q469 82 460.0 73.0Q451 64 439 64ZM73 300Q69 300 66.0 297.0Q63 294 63 290V94Q63 90 66.0 87.0Q69 84 73 84H439Q443 84 446.0 87.0Q449 90 449 94V290Q449 294 446.0 297.0Q443 300 439 300ZM104 124V260H145L186 210L227 260H268V124H227V202L186 152L145 202V124ZM361 124 299 190H340V260H381V190H422Z" />
      </g>
    </svg>