<svg xmlns="http://www.w3.org/2000/svg" viewBox="64 0 384 384">
      <g transform="scale(1 -1) translate(0 -384)">
        <path d="M64 384H448V0H64ZM165 63Q172 48 184 40Q199 30 219 30Q244 30 258.5 43.5Q273 57 273 84V208H237V85Q237 72 232.0 67.0Q227 62 218.0 62.0Q209 62 203 68Q200 71 194 81ZM292 67Q301 50 317.5 40.0Q334 30 358 30Q385 30 401.5 43.5Q418 57 418 80Q418 102 406 115Q395 126 370 137L361 141Q349 146 344.0 150.5Q339 155 339.0 162.0Q339 169 343.5 173.5Q348 178 356 178Q371 178 380 163L407 181Q399 196 386.5 203.0Q374 210 356 210Q332 210 317.5 196.5Q303 183 303.0 162.0Q303 141 315 128Q325 117 347 108L356 104Q370 97 375 94Q382 88 382.0 80.0Q382 72 375.5 67.0Q369 62 358 62Q335 62 322 84Z" />
      </g>
    </svg>