<svg xmlns="http://www.w3.org/2000/svg" viewBox="43 28 426 328">
      <g transform="scale(1 -1) translate(0 -384)">
        <path d="M256 356Q198 356 149.0 337.0Q100 318 71.5 285.0Q43 252 43 213Q43 179 66.0 149.0Q89 119 129.0 99.0Q169 79 218 73V28H291V73Q318 76 342 83L372 28H454L404 111Q435 131 452.0 157.5Q469 184 469 213Q469 252 440.5 285.0Q412 318 363.0 337.0Q314 356 256 356ZM289 301Q359 301 400 277Q444 252 444 203Q444 150 393 125Q389 127 388 128Q380 131 368 135L378 137Q389 140 399 146Q413 153 421 166Q431 182 431.0 203.5Q431 225 421 240Q412 252 398 259Q387 264 375 267L365 268H218V115Q177 127 152.0 150.5Q127 174 127.0 201.5Q127 229 148.5 251.5Q170 274 207.5 287.5Q245 301 289 301ZM292 216H336L341 215Q347 214 351.5 209.5Q356 205 356 196Q356 183 346 178Q341 175 336 175H292ZM291 122H311Q315 122 320 117Q323 115 328 108Q312 105 291 105Z" />
      </g>
    </svg>