<svg xmlns="http://www.w3.org/2000/svg" viewBox="43 43 426 311">
      <g transform="scale(1 -1) translate(0 -397)">
        <path d="M422 92Q425 92 428 93Q436 95 442 100Q450 106 455 115Q461 127 461.0 143.0Q461 159 454 171Q448 181 438 187Q431 192 423 195L416 196H335V43H375V79L412 43H469ZM405 122H373V156H405L410 152Q414 147 414 139Q415 133 413.0 129.0Q411 125 408 123ZM454 273V269Q373 292 316 260Q265 232 241 169Q219 112 226 49H92Q98 96 126 149Q158 209 203 249Q255 296 314 305Q383 315 454 273ZM437 301Q407 314 393 318L395 346L439 329ZM395 262Q417 262 439 256L437 230L399 235ZM297 324 288 350 333 354 341 326ZM324 245Q344 255 367 260L375 235L337 220ZM252 309Q226 297 213 288L196 316L235 337ZM305 233 322 207 299 179 275 201Q284 219 305 233ZM247 128Q250 150 260 177L286 156L279 115ZM169 250Q156 237 139 215L111 239L143 273ZM102 156Q96 144 87 120L81 107L43 122L62 171ZM245 100 284 87 290 45 247 55V62Q245 82 245 100Z" />
      </g>
    </svg>