<svg xmlns="http://www.w3.org/2000/svg" viewBox="21 105 470 175">
      <g transform="scale(1 -1) translate(0 -385)">
        <path d="M56 228V229L61 235L63 236H145L146 235L142 229L140 228ZM22 207 21 208 26 214 29 215H133L134 213L132 208L130 207ZM77 186V187L80 193L82 194H128L129 193V187L127 186ZM315 232 277 222Q274 221 273.0 221.5Q272 222 270 224Q265 230 259 233Q239 243 218 229Q194 213 195 186Q195 172 203.5 161.5Q212 151 225 149Q248 147 265 165L271 173H227Q220 173 222 180L234 205Q236 209 240 209H313Q318 223 329 239Q353 270 393 277Q431 284 459.0 265.0Q487 246 491 214Q497 169 464 136Q442 114 409 107L391 105Q358 106 335 125Q318 140 313 160L303 145Q278 111 238 107Q203 101 176.5 121.0Q150 141 147 172Q143 209 167.0 240.5Q191 272 231 279Q265 285 291 268Q309 256 318 236Q319 233 315 232ZM446 198 445 205Q442 222 428.5 230.5Q415 239 398 236Q365 228 358 196Q355 183 361.0 170.5Q367 158 379 153Q398 145 417 154Q444 168 446 198Z" />
      </g>
    </svg>