<svg xmlns="http://www.w3.org/2000/svg" viewBox="0 21 512 342">
      <g transform="scale(1 -1) translate(0 -384)">
        <path d="M427 363Q444 363 456.5 350.5Q469 338 469 320V107Q469 89 456.5 76.5Q444 64 427 64H512V21H0V64H85Q68 64 55.5 76.5Q43 89 43 107V320Q43 338 55.5 350.5Q68 363 85 363ZM427 320H85V107H427ZM256 192Q291 192 316.0 179.5Q341 167 341 149V128H171V149Q171 167 196.0 179.5Q221 192 256 192ZM256 299Q274 299 286.5 286.5Q299 274 299.0 256.0Q299 238 286.5 225.5Q274 213 256.0 213.0Q238 213 225.5 225.5Q213 238 213.0 256.0Q213 274 225.5 286.5Q238 299 256 299Z" />
      </g>
    </svg>