<svg xmlns="http://www.w3.org/2000/svg" viewBox="49 -21 414 426">
      <g transform="scale(1 -1) translate(0 -384)">
        <path d="M463 309Q463 308 463 307V215Q463 211 460 210L383 165V78Q383 74 380 72L218 -21H213L212 -20L52 72Q49 74 49 78V354L50 356L132 404Q136 406 139 404L220 358L222 356L223 181L289 219L290 309L291 311L373 359Q376 361 380 359L461 312L462 311ZM450 219V295L383 257V181ZM370 81V158L223 74V-3ZM62 341V81L209 -3V74L132 117Q132 117 132 118L130 119L129 303ZM136 391 69 352 136 314 203 352ZM209 173V341L142 303V135ZM376 346 309 307 376 269 443 307ZM370 257 303 295V219L370 181ZM216 85 363 169 296 208 149 123Z" />
      </g>
    </svg>