<svg xmlns="http://www.w3.org/2000/svg" viewBox="84 -21 343 426">
      <g transform="scale(1 -1) translate(0 -384)">
        <path d="M192 171 107 107Q92 94 87 75Q83 59 85.5 42.5Q88 26 99.5 9.5Q111 -7 128 -15Q152 -25 175.0 -20.0Q198 -15 214 2L405 171Q424 185 426.5 205.0Q429 225 417.0 240.5Q405 256 384 256H256L415 350Q429 359 428 376Q427 388 418.5 396.5Q410 405 397 405H396Q385 405 375 399L107 256Q94 249 89.0 238.0Q84 227 85 213Q86 196 97.5 183.5Q109 171 128 171ZM107 53Q107 75 122.5 91.0Q138 107 160.0 107.0Q182 107 197.5 91.0Q213 75 213.0 53.0Q213 31 197.5 15.5Q182 0 160.0 0.0Q138 0 122.5 15.5Q107 31 107 53Z" />
      </g>
    </svg>