<svg xmlns="http://www.w3.org/2000/svg" viewBox="43 -42 426 447">
      <g transform="scale(1 -1) translate(0 -363)">
        <path d="M256 405Q314 405 363.0 385.0Q412 365 440.5 331.0Q469 297 469 256Q469 222 448.5 192.0Q428 162 391.5 141.0Q355 120 309 111V117Q309 136 303 153Q357 163 392.0 191.5Q427 220 427 256Q427 285 404.0 309.5Q381 334 341.5 348.5Q302 363 256.0 363.0Q210 363 170.5 348.5Q131 334 108.0 309.5Q85 285 85 256Q85 218 124 189Q109 172 102 153Q74 173 58.5 199.5Q43 226 43 256Q43 297 71.5 331.0Q100 365 149.0 385.0Q198 405 256 405ZM203 192Q234 192 255.5 170.0Q277 148 277.0 117.5Q277 87 256.0 65.0Q235 43 205 43Q194 24 210 7Q219 -3 235 0Q246 1 271 10Q294 18 307 22Q330 27 350 28Q393 28 427 22L433 21Q439 18 443 14Q448 8 447.0 -1.0Q446 -10 440 -15Q436 -18 430 -20L425 -21L417 -20Q377 -13 346 -15Q328 -15 311 -20Q301 -23 285 -30Q273 -34 268 -36Q214 -53 177 -22Q159 -7 158 19Q158 36 164 53Q147 64 137.5 81.0Q128 98 128 117Q128 148 150.0 170.0Q172 192 203 192ZM203 149Q189 149 180.0 140.0Q171 131 171.0 117.5Q171 104 180.0 94.5Q189 85 202.5 85.0Q216 85 225.5 94.5Q235 104 235.0 117.5Q235 131 225.5 140.0Q216 149 203 149Z" />
      </g>
    </svg>