<svg xmlns="http://www.w3.org/2000/svg" viewBox="43 43 426 298">
      <g transform="scale(1 -1) translate(0 -384)">
        <path d="M299 192Q299 210 311.5 222.5Q324 235 341.5 235.0Q359 235 371.5 222.5Q384 210 384.0 192.0Q384 174 371.5 161.5Q359 149 341.5 149.0Q324 149 311.5 161.5Q299 174 299 192ZM171 192Q171 210 183.5 222.5Q196 235 213.5 235.0Q231 235 243.5 222.5Q256 210 256.0 192.0Q256 174 243.5 161.5Q231 149 213.5 149.0Q196 149 183.5 161.5Q171 174 171 192ZM43 192Q43 210 55.5 222.5Q68 235 85.5 235.0Q103 235 115.5 222.5Q128 210 128.0 192.0Q128 174 115.5 161.5Q103 149 85.5 149.0Q68 149 55.5 161.5Q43 174 43 192ZM469 341H427V43H469Z" />
      </g>
    </svg>