<svg xmlns="http://www.w3.org/2000/svg" viewBox="43 -21 426 426">
      <g transform="scale(1 -1) translate(0 -384)">
        <path d="M256 405Q198 405 149.0 376.5Q100 348 71.5 299.0Q43 250 43.0 192.0Q43 134 71.5 85.0Q100 36 149.0 7.5Q198 -21 256.0 -21.0Q314 -21 363.0 7.5Q412 36 440.5 85.0Q469 134 469.0 192.0Q469 250 440.5 299.0Q412 348 363.0 376.5Q314 405 256 405ZM256 363Q303 363 341.5 340.0Q380 317 403 277H109Q132 317 170.5 340.0Q209 363 256 363ZM256 21Q209 21 170.5 44.0Q132 67 109 107H403Q380 67 341.5 44.0Q303 21 256 21ZM92 149Q85 169 85.0 192.0Q85 215 92 235H422Q429 215 429.0 192.0Q429 169 422 149Z" />
      </g>
    </svg>