<svg xmlns="http://www.w3.org/2000/svg" viewBox="171 0 170 384">
      <g transform="scale(1 -1) translate(0 -384)">
        <path d="M213 384 171 107H341L299 384ZM245 325Q252 325 256.5 320.5Q261 316 261.0 309.5Q261 303 256.5 298.0Q252 293 245.5 293.0Q239 293 234.0 298.0Q229 303 229.0 309.5Q229 316 234.0 320.5Q239 325 245 325ZM267 267Q276 267 282.0 260.5Q288 254 288.0 245.0Q288 236 282.0 230.0Q276 224 267.0 224.0Q258 224 251.5 230.0Q245 236 245.0 245.0Q245 254 251.5 260.5Q258 267 267 267ZM245 192Q259 192 268.0 182.5Q277 173 277.0 160.0Q277 147 268.0 137.5Q259 128 245.5 128.0Q232 128 222.5 137.5Q213 147 213.0 160.0Q213 173 222.5 182.5Q232 192 245 192ZM171 85 213 43 171 0H341L299 43L341 85Z" />
      </g>
    </svg>