<svg xmlns="http://www.w3.org/2000/svg" viewBox="64 -51 414 456">
      <g transform="scale(1 -1) translate(0 -354)">
        <path d="M412 45Q427 68 427 96Q427 136 399.0 164.0Q371 192 331.0 192.0Q291 192 263.0 164.0Q235 136 235.0 96.0Q235 56 263.0 28.0Q291 0 331 0Q358 0 381 15L448 -51L478 -21ZM331 43Q309 43 293.0 58.5Q277 74 277.0 96.0Q277 118 293.0 133.5Q309 149 331.0 149.0Q353 149 368.5 133.5Q384 118 384.0 96.0Q384 74 368.5 58.5Q353 43 331 43ZM205 38 64 148 99 175 192 102V96Q192 66 205 38ZM99 229 64 256 256 405 448 256 398 217Q367 235 331 235Q288 235 253.0 211.0Q218 187 203 148Z" />
      </g>
    </svg>