<svg xmlns="http://www.w3.org/2000/svg" viewBox="43 -21 426 426">
      <g transform="scale(1 -1) translate(0 -384)">
        <path d="M256 405Q198 405 149.0 376.5Q100 348 71.5 299.0Q43 250 43.0 192.0Q43 134 71.5 85.0Q100 36 149.0 7.5Q198 -21 256.0 -21.0Q314 -21 363.0 7.5Q412 36 440.5 85.0Q469 134 469.0 192.0Q469 250 440.5 299.0Q412 348 363.0 376.5Q314 405 256 405ZM205 81Q198 81 188 85L176 55L151 64L155 72Q172 116 184 138Q205 174 234 196Q269 223 320 235L306 234Q289 232 272 227Q248 220 228 209Q203 195 184 174Q162 149 150 116L145 123Q138 132 134 140Q128 153 128 164Q128 179 137 197Q148 218 166 233Q188 251 218 257Q231 260 259 264L276 267Q325 273 345 278Q378 286 384 299L379 276Q372 248 361 222Q347 186 329 158Q306 123 278 104Q244 81 205 81Z" />
      </g>
    </svg>