<svg xmlns="http://www.w3.org/2000/svg" viewBox="24 -37 448 448">
      <g transform="scale(1 -1) translate(0 -374)">
        <path d="M445 -37 323 85Q255 21 171 21Q160 21 142 28L122 -21L81 -7L87 6Q114 74 133 108Q164 165 206 202L187 221Q111 169 80 80L70 91Q59 105 52 120Q43 141 43 160Q43 188 62 221Q84 260 122 286L24 384L51 411L472 -10ZM363 277Q312 266 271 245L373 143Q418 209 448 303Q463 350 469 384Q459 364 405 350Q372 342 289 330Q228 321 200 316L259 257Q295 270 332 275Q351 277 363 277Z" />
      </g>
    </svg>