<svg xmlns="http://www.w3.org/2000/svg" viewBox="64 0 384 384">
      <g transform="scale(1 -1) translate(0 -384)">
        <path d="M128 384H64V320Q91 320 109.5 338.5Q128 357 128 384ZM299 384H256Q256 332 230.0 288.0Q204 244 160.0 218.0Q116 192 64 192V149Q128 149 182.0 181.0Q236 213 267.5 266.5Q299 320 299 384ZM213 384H171Q171 355 156.5 330.5Q142 306 117.5 291.5Q93 277 64 277V235Q105 235 139.0 255.0Q173 275 193.0 309.0Q213 343 213 384ZM213 0H256Q256 52 282.0 96.0Q308 140 352.0 166.0Q396 192 448 192V235Q384 235 330.0 203.5Q276 172 244.5 118.0Q213 64 213 0ZM384 0H448V64Q421 64 402.5 45.5Q384 27 384 0ZM299 0H341Q341 29 355.5 53.5Q370 78 394.5 92.5Q419 107 448 107V149Q407 149 373.0 129.0Q339 109 319.0 75.0Q299 41 299 0Z" />
      </g>
    </svg>