<svg xmlns="http://www.w3.org/2000/svg" viewBox="64 0 384 384">
      <g transform="scale(1 -1) translate(0 -384)">
        <path d="M213 384H171Q171 372 168 361L202 327Q213 354 213 384ZM64 357 125 296Q97 277 64 277V235Q115 235 155 266L186 235Q160 215 129.0 203.5Q98 192 64 192V149Q106 149 145.0 164.0Q184 179 216 205L269 152Q243 120 228.0 81.0Q213 42 213 0H256Q256 34 267.5 65.0Q279 96 299 121L330 91Q299 51 299 0H341Q341 33 360 61L421 0L448 27L91 384ZM299 384H256Q256 338 235 295L265 264Q299 319 299 384ZM425 104Q436 107 448 107V149Q419 149 391 139ZM328 201 359 171Q402 192 448 192V235Q383 235 328 201Z" />
      </g>
    </svg>