<svg xmlns="http://www.w3.org/2000/svg" viewBox="43 0 426 384">
      <g transform="scale(1 -1) translate(0 -384)">
        <path d="M63 384 43 301 413 208 433 291ZM130 301 89 311 99 353 140 343ZM212 280 171 291 181 332 222 322ZM294 260 253 270 263 312 304 301ZM377 239 335 249 346 291 387 281ZM99 176 79 93 449 0 469 83ZM166 93 125 103 135 145 177 135ZM249 72 208 83 218 124 259 114ZM331 52 290 62 300 104 341 93ZM413 31 372 41 382 83 423 73ZM133 190 235 230 379 194 277 154Z" />
      </g>
    </svg>