<svg xmlns="http://www.w3.org/2000/svg" viewBox="24 -37 448 448">
      <g transform="scale(1 -1) translate(0 -374)">
        <path d="M472 -10 51 411 24 384 55 352 43 301 129 279 194 214 133 190 246 161 276 132 99 176 79 93 394 14 445 -37ZM166 93 125 103 135 145 177 135ZM249 72 208 83 218 124 259 114ZM331 52 290 62 300 104 305 102 336 72ZM421 95 469 83 462 54ZM338 178 303 213 379 194ZM222 322 217 300 273 243 413 208 433 291 156 361 185 332ZM346 291 387 281 377 239 335 249ZM263 312 304 301 294 260 253 270Z" />
      </g>
    </svg>