<svg xmlns="http://www.w3.org/2000/svg" viewBox="64 -33 384 438">
      <g transform="scale(1 -1) translate(0 -372)">
        <path d="M256 144 227 171Q175 218 107 231V83Q189 72 256 22Q323 72 405 83V231Q337 218 285 171ZM405 274Q426 277 448 277V43Q393 43 344.0 23.0Q295 3 256 -33Q217 3 168.0 23.0Q119 43 64 43V277Q86 277 107 274Q192 261 256 202Q320 261 405 274ZM256 320Q264 320 270.5 326.5Q277 333 277.0 341.5Q277 350 270.5 356.5Q264 363 256.0 363.0Q248 363 241.5 356.0Q235 349 235.0 341.0Q235 333 241.5 326.5Q248 320 256 320ZM301 296Q282 277 256.0 277.0Q230 277 211.0 296.0Q192 315 192.0 341.5Q192 368 211.0 386.5Q230 405 256.0 405.0Q282 405 301.0 386.5Q320 368 320.0 341.5Q320 315 301 296Z" />
      </g>
    </svg>