<svg xmlns="http://www.w3.org/2000/svg" viewBox="85 -43 342 449">
      <g transform="scale(1 -1) translate(0 -363)">
        <path d="M192 235Q192 261 211.0 279.5Q230 298 256.0 298.0Q282 298 301.0 279.5Q320 261 320.0 234.5Q320 208 301.0 189.5Q282 171 256.0 171.0Q230 171 211.0 189.5Q192 208 192 235ZM256 43 341 21V87Q302 63 256.0 63.0Q210 63 171 87V21ZM256 363Q231 363 207.0 353.5Q183 344 165.0 326.0Q147 308 137.5 284.0Q128 260 128.0 234.5Q128 209 137.5 185.5Q147 162 165.0 144.0Q183 126 206.5 116.0Q230 106 256.0 106.0Q282 106 305.5 116.0Q329 126 347.0 144.0Q365 162 374.5 185.5Q384 209 384.0 234.5Q384 260 374.5 284.0Q365 308 347.0 326.0Q329 344 305.0 353.5Q281 363 256 363ZM427 235Q426 204 415.0 175.0Q404 146 384 122V-43L256 0L128 -43V122Q107 145 96.0 174.5Q85 204 85 235Q85 269 98.0 300.0Q111 331 135.0 355.5Q159 380 190.5 393.0Q222 406 256.0 406.0Q290 406 321.5 393.0Q353 380 377.0 355.5Q401 331 414.0 300.0Q427 269 427 235Z" />
      </g>
    </svg>