<svg xmlns="http://www.w3.org/2000/svg" viewBox="43 -21 426 426">
      <g transform="scale(1 -1) translate(0 -384)">
        <path d="M422 119Q437 154 437.0 192.0Q437 230 422 265L364 238Q373 216 373.0 192.0Q373 168 364 146ZM329 358Q294 373 256.0 373.0Q218 373 183 358L210 300Q232 309 256.0 309.0Q280 309 303 300ZM90 265Q75 230 75.0 192.0Q75 154 90 119L148 146Q139 168 139.0 192.0Q139 216 148 239ZM183 26Q218 11 256.0 11.0Q294 11 329 26L303 84Q280 75 256.0 75.0Q232 75 210 84ZM256 405Q298 405 337.5 389.0Q377 373 407.0 343.0Q437 313 453.0 273.5Q469 234 469.0 192.0Q469 150 453.0 110.5Q437 71 407.0 41.0Q377 11 337.5 -5.0Q298 -21 256.0 -21.0Q214 -21 174.5 -5.0Q135 11 105.0 41.0Q75 71 59.0 110.5Q43 150 43.0 192.0Q43 234 59.0 273.5Q75 313 105.0 343.0Q135 373 174.5 389.0Q214 405 256 405ZM256 277Q221 277 196.0 252.0Q171 227 171.0 192.0Q171 157 196.0 132.0Q221 107 256.0 107.0Q291 107 316.0 132.0Q341 157 341.0 192.0Q341 227 316.0 252.0Q291 277 256 277Z" />
      </g>
    </svg>