<svg xmlns="http://www.w3.org/2000/svg" viewBox="24 -37 448 448">
      <g transform="scale(1 -1) translate(0 -374)">
        <path d="M330 237 296 220 264 252 310 275Q315 277 320 277Q330 277 336.5 269.5Q343 262 341.0 252.0Q339 242 330 237ZM239 277 330 322Q339 327 340.5 337.0Q342 347 336.0 355.0Q330 363 320 363Q315 363 310 361L207 309ZM445 -37 343 64H171Q162 64 155.5 70.0Q149 76 149 85V149H171V192Q171 206 186 213L192 216L24 384L51 411L472 -10ZM258 149 224 184 213 179V149ZM192 0Q192 -9 198.5 -15.0Q205 -21 213 -21H299Q308 -21 314.0 -15.0Q320 -9 320 0V21H192ZM192 341Q196 341 202 343L244 365Q254 370 255.5 380.0Q257 390 251.0 397.5Q245 405 235 405Q229 405 225 403L182 382Q172 376 170.5 366.5Q169 357 175.5 349.0Q182 341 192 341Z" />
      </g>
    </svg>