<svg xmlns="http://www.w3.org/2000/svg" viewBox="43 -21 431 426">
      <g transform="scale(1 -1) translate(0 -384)">
        <path d="M192 405Q151 405 117.0 385.0Q83 365 63.0 331.0Q43 297 43 256Q43 219 60.0 186.5Q77 154 107 134V85Q107 77 113.0 70.5Q119 64 128 64H256Q265 64 271.0 70.5Q277 77 277 85V134Q307 154 324.0 186.5Q341 219 341 256Q341 297 321.0 331.0Q301 365 267.0 385.0Q233 405 192 405ZM128 0Q128 -9 134.5 -15.0Q141 -21 149 -21H235Q243 -21 249.5 -15.0Q256 -9 256 0V21H128ZM405 171H363L294 -21H335L350 21H418L433 -21H474ZM359 50 384 128 409 50Z" />
      </g>
    </svg>