<svg xmlns="http://www.w3.org/2000/svg" viewBox="43 -21 420 426">
      <g transform="scale(1 -1) translate(0 -384)">
        <path d="M128 0Q128 -9 134.5 -15.0Q141 -21 149 -21H235Q243 -21 249.5 -15.0Q256 -9 256 0V21H128ZM277 100V85Q277 77 271.0 70.5Q265 64 256 64H128Q119 64 113.0 70.5Q107 77 107 85V134Q77 154 60.0 186.5Q43 219 43 256Q43 297 63.0 331.0Q83 365 117.0 385.0Q151 405 192 405Q244 405 285 373Q243 356 217.5 318.5Q192 281 192 235Q192 191 215.5 154.5Q239 118 277 100ZM446 236 416 255 386 235 395 270 366 292 402 294 414 329 428 295 463 294 436 271ZM414 171Q394 147 365.5 139.0Q337 131 308.5 139.5Q280 148 261 172Q238 201 239.0 236.5Q240 272 262.0 299.5Q284 327 320 334Q326 335 329.5 330.5Q333 326 331 321Q323 300 325.0 277.5Q327 255 338.5 235.0Q350 215 368.0 202.5Q386 190 408 187Q413 186 415.0 180.5Q417 175 414 171Z" />
      </g>
    </svg>