<svg xmlns="http://www.w3.org/2000/svg" viewBox="43 -21 384 426">
      <g transform="scale(1 -1) translate(0 -384)">
        <path d="M299 353Q299 382 277 404Q281 405 288 405Q310 405 325.5 389.5Q341 374 341 352V149H363V124L299 188ZM213 352Q213 356 216.5 359.5Q220 363 224.0 363.0Q228 363 231.5 359.5Q235 356 235 352V252L277 209V352Q277 374 261.5 389.5Q246 405 224.0 405.0Q202 405 186.5 389.5Q171 374 171 352V316L213 273ZM192 0Q192 -9 198.5 -15.0Q205 -21 213 -21H299Q307 -21 313.5 -15.0Q320 -9 320 0V21H192ZM427 6 400 -21 314 64H171Q162 64 155.5 70.5Q149 77 149 85V149H171V208L43 336L70 363Z" />
      </g>
    </svg>