<svg xmlns="http://www.w3.org/2000/svg" viewBox="43 64 426 235">
      <g transform="scale(1 -1) translate(0 -363)">
        <path d="M256 299Q198 299 149.0 283.0Q100 267 71.5 240.0Q43 213 43.0 181.0Q43 149 71.5 122.5Q100 96 149.0 80.0Q198 64 256.0 64.0Q314 64 363.0 80.0Q412 96 440.5 122.5Q469 149 469.0 181.0Q469 213 440.5 240.0Q412 267 363.0 283.0Q314 299 256 299ZM352 235Q352 230 340.0 222.0Q328 214 308 208Q284 202 256.0 202.0Q228 202 204 208Q184 214 172.0 222.0Q160 230 160.0 234.0Q160 238 169 244Q209 256 256.0 256.0Q303 256 343 244Q352 238 352 235ZM256 107Q207 107 165 119Q129 130 107.0 147.5Q85 165 85 181Q85 192 96.5 204.5Q108 217 129 228Q133 204 169.5 187.0Q206 170 256.0 170.0Q306 170 342.5 187.0Q379 204 383 228Q404 217 415.5 204.5Q427 192 427 181Q427 165 405.0 147.5Q383 130 347 119Q305 107 256 107Z" />
      </g>
    </svg>