<svg xmlns="http://www.w3.org/2000/svg" viewBox="107 -21 298 426">
      <g transform="scale(1 -1) translate(0 -384)">
        <path d="M256 405Q215 405 181.0 385.0Q147 365 127.0 331.0Q107 297 107 256Q107 219 124.0 186.5Q141 154 171 134V85Q171 76 177.0 70.0Q183 64 192 64H320Q329 64 335.0 70.0Q341 76 341 85V134Q371 154 388.0 186.5Q405 219 405 256Q405 297 385.0 331.0Q365 365 331.0 385.0Q297 405 256 405ZM192 0Q192 -9 198.0 -15.0Q204 -21 213 -21H299Q308 -21 314.0 -15.0Q320 -9 320 0V21H192Z" />
      </g>
    </svg>