<svg xmlns="http://www.w3.org/2000/svg" viewBox="107 -21 298 426">
      <g transform="scale(1 -1) translate(0 -384)">
        <path d="M256 405Q297 405 331.0 385.0Q365 365 385.0 331.0Q405 297 405 256Q405 219 388.0 186.5Q371 154 341 134V85Q341 76 335.0 70.0Q329 64 320 64H192Q183 64 177.0 70.0Q171 76 171 85V134Q141 154 124.0 186.5Q107 219 107 256Q107 297 127.0 331.0Q147 365 181.0 385.0Q215 405 256 405ZM192 0V21H320V0Q320 -9 314.0 -15.0Q308 -21 299 -21H213Q204 -21 198.0 -15.0Q192 -9 192 0ZM256 363Q227 363 202.5 348.5Q178 334 163.5 309.5Q149 285 149 256Q149 224 167.0 197.5Q185 171 213 158V107H299V158Q327 171 345.0 197.5Q363 224 363 256Q363 285 348.5 309.5Q334 334 309.5 348.5Q285 363 256 363Z" />
      </g>
    </svg>