<svg xmlns="http://www.w3.org/2000/svg" viewBox="21 -43 470 470">
      <g transform="scale(1 -1) translate(0 -384)">
        <path d="M149 329 119 299 75 343 105 373ZM21 171H85V213H21ZM277 427H235V363H277ZM384 192Q384 157 366.5 127.0Q349 97 320 81V43Q320 33 314.0 27.0Q308 21 299 21H213Q204 21 198.0 27.0Q192 33 192 43V81Q163 97 145.5 127.0Q128 157 128.0 192.0Q128 227 145.5 256.0Q163 285 192.0 302.5Q221 320 256.0 320.0Q291 320 320.0 302.5Q349 285 366.5 256.0Q384 227 384 192ZM341 192Q341 227 316.0 252.0Q291 277 256.0 277.0Q221 277 196.0 252.0Q171 227 171 192Q171 173 178.5 156.5Q186 140 200 128H312Q326 140 333.5 156.5Q341 173 341 192ZM213 -21Q213 -31 219.0 -37.0Q225 -43 235 -43H277Q287 -43 293.0 -37.0Q299 -31 299 -21V0H213ZM427 213V171H491V213ZM407 373 363 329 393 299 437 343Z" />
      </g>
    </svg>