<svg xmlns="http://www.w3.org/2000/svg" viewBox="43 -21 417 376">
      <g transform="scale(1 -1) translate(0 -334)">
        <path d="M171 213H43V256H171Q179 256 185.5 249.5Q192 243 192.0 234.5Q192 226 185.5 219.5Q179 213 171 213ZM317 355 309 336 175 344 147 277H171Q188 277 200.5 264.5Q213 252 213.0 234.5Q213 217 200.5 204.5Q188 192 171 192H112L94 147L196 59L188 39L228 23L357 339ZM444 314 460 274 411 254 395 293ZM401 159 460 134 444 95 384 119ZM345 -5 305 -21 285 28 324 44Z" />
      </g>
    </svg>