<svg xmlns="http://www.w3.org/2000/svg" viewBox="24 -37 448 448">
      <g transform="scale(1 -1) translate(0 -374)">
        <path d="M472 -10 51 411 24 384 111 297Q79 290 59.5 264.5Q40 239 43 207Q45 186 56.0 168.0Q67 150 85 140V107Q85 98 91.5 91.5Q98 85 107 85H149V131Q129 151 118.0 178.0Q107 205 107.0 233.5Q107 262 117 290L152 256Q146 226 156.5 197.0Q167 168 192 149V107Q192 98 198.5 91.5Q205 85 213 85H299Q308 85 315 93L363 45V43Q363 32 359 21H386L445 -37ZM197 211 232 176Q207 186 197 211ZM277 128H235V173L277 130ZM225 291 195 321Q223 341 257.5 341.0Q292 341 320 320Q340 305 351.5 282.5Q363 260 363 235Q363 201 343 173L312 204Q320 219 320 235Q320 261 301.5 280.0Q283 299 256 299Q240 299 225 291ZM373 143Q405 183 405 235Q405 268 391 299Q412 297 429.5 285.5Q447 274 458 256Q476 226 466.5 192.0Q457 158 427 140V107Q427 100 422 94ZM213 64H299V43Q299 34 292.5 27.5Q286 21 277 21H235Q226 21 219.5 27.5Q213 34 213 43ZM149 43Q149 32 153 21H128Q119 21 113.0 27.5Q107 34 107 43V64H149Z" />
      </g>
    </svg>