<svg xmlns="http://www.w3.org/2000/svg" viewBox="64 -21 384 426">
      <g transform="scale(1 -1) translate(0 -384)">
        <path d="M213 405Q172 405 138.0 385.0Q104 365 84.0 331.0Q64 297 64 256Q64 218 81.5 186.0Q99 154 128 134V85Q128 76 134.0 70.0Q140 64 149 64H277Q287 64 293.0 70.0Q299 76 299 85V134Q328 156 345.5 188.0Q363 220 363 256Q363 297 343.0 331.0Q323 365 288.5 385.0Q254 405 213 405ZM149 0Q149 -10 155.0 -15.5Q161 -21 171 -21H256Q266 -21 271.5 -15.5Q277 -10 277 0V21H149ZM405 192V299H448V171H405ZM405 85V128H448V85Z" />
      </g>
    </svg>