<svg xmlns="http://www.w3.org/2000/svg" viewBox="21 -21 470 426">
      <g transform="scale(1 -1) translate(0 -384)">
        <path d="M171 405Q130 405 95.5 385.0Q61 365 41.0 331.0Q21 297 21 256Q21 218 38.5 186.0Q56 154 85 134V85Q85 76 91.0 70.0Q97 64 107 64H235Q244 64 250.0 70.0Q256 76 256 85V134Q285 156 302.5 188.0Q320 220 320 256Q320 297 300.0 331.0Q280 365 246.0 385.0Q212 405 171 405ZM107 0Q107 -10 112.5 -15.5Q118 -21 128 -21H213Q223 -21 229.0 -15.5Q235 -10 235 0V21H107ZM437 139V107H405V139ZM395 245H363V256Q363 283 381.0 301.5Q399 320 426.5 320.0Q454 320 472.5 301.5Q491 283 491 256Q491 240 483.5 226.5Q476 213 463 205L457 201Q437 188 437 164V160H405V164Q405 184 414.5 200.5Q424 217 439 226L446 230Q459 240 459 256Q459 269 449.0 278.5Q439 288 426.5 288.0Q414 288 404.5 278.5Q395 269 395 256Z" />
      </g>
    </svg>