<svg xmlns="http://www.w3.org/2000/svg" viewBox="43 -21 420 426">
      <g transform="scale(1 -1) translate(0 -384)">
        <path d="M128 21H256V0Q256 -9 249.5 -15.0Q243 -21 235 -21H149Q141 -21 134.5 -15.0Q128 -9 128 0ZM235 130V107H149V158Q121 171 103.0 197.5Q85 224 85 256Q85 285 99.5 309.5Q114 334 138.5 348.5Q163 363 191.0 363.0Q219 363 244 348Q261 363 285 373Q244 405 192 405Q151 405 117.0 385.0Q83 365 63.0 331.0Q43 297 43 256Q43 219 60.0 186.5Q77 154 107 134V85Q107 77 113.0 70.5Q119 64 128 64H256Q265 64 271.0 70.5Q277 77 277 85V100Q252 112 235 130ZM446 236 436 271 463 294 428 295 414 329 402 294 366 292 395 270 386 235 416 255ZM408 187Q386 190 368.0 202.5Q350 215 338.5 235.0Q327 255 325.0 277.5Q323 300 331 321Q333 326 329.5 330.5Q326 335 320 334Q284 327 262.0 299.5Q240 272 239.0 236.5Q238 201 261 172Q280 148 308.5 139.5Q337 131 365.5 139.0Q394 147 414 171Q417 175 415.0 180.5Q413 186 408 187Z" />
      </g>
    </svg>