<svg xmlns="http://www.w3.org/2000/svg" viewBox="21 -43 470 470">
      <g transform="scale(1 -1) translate(0 -384)">
        <path d="M21 213H85V171H21ZM407 373 363 329 393 299 437 343ZM235 427H277V363H235ZM105 373 75 343 119 299 149 329ZM213 -21Q213 -31 219.0 -37.0Q225 -43 235 -43H277Q287 -43 293.0 -37.0Q299 -31 299 -21V0H213ZM256 320Q221 320 192.0 302.5Q163 285 145.5 256.0Q128 227 128.0 192.0Q128 157 145.5 127.0Q163 97 192 81V43Q192 33 198.0 27.0Q204 21 213 21H299Q308 21 314.0 27.0Q320 33 320 43V81Q349 97 366.5 127.0Q384 157 384.0 192.0Q384 227 366.5 256.0Q349 285 320.0 302.5Q291 320 256 320ZM277 109V85H235V109Q207 115 189.0 138.5Q171 162 171 192Q171 227 196.0 252.0Q221 277 256.0 277.0Q291 277 316.0 252.0Q341 227 341 192Q341 162 323.0 139.5Q305 117 277 109ZM427 213H491V171H427Z" />
      </g>
    </svg>