<svg xmlns="http://www.w3.org/2000/svg" viewBox="43 -21 431 426">
      <g transform="scale(1 -1) translate(0 -384)">
        <path d="M192 405Q233 405 267.0 385.0Q301 365 321.0 331.0Q341 297 341 256Q341 219 324.0 186.5Q307 154 277 134V85Q277 77 271.0 70.5Q265 64 256 64H128Q119 64 113.0 70.5Q107 77 107 85V134Q77 154 60.0 186.5Q43 219 43 256Q43 297 63.0 331.0Q83 365 117.0 385.0Q151 405 192 405ZM128 0V21H256V0Q256 -9 249.5 -15.0Q243 -21 235 -21H149Q141 -21 134.5 -15.0Q128 -9 128 0ZM192 363Q163 363 138.5 348.5Q114 334 99.5 309.5Q85 285 85 256Q85 224 103.0 197.5Q121 171 149 158V107H235V158Q263 171 281.0 197.5Q299 224 299 256Q299 285 284.5 309.5Q270 334 245.5 348.5Q221 363 192 363ZM405 171H363L294 -21H335L350 21H418L433 -21H474ZM359 50 384 128 409 50Z" />
      </g>
    </svg>