<svg xmlns="http://www.w3.org/2000/svg" viewBox="43 -21 384 426">
      <g transform="scale(1 -1) translate(0 -384)">
        <path d="M256 405Q221 405 190.5 390.0Q160 375 139 348L169 318Q184 338 207.0 350.5Q230 363 256 363Q285 363 309.5 348.5Q334 334 348.5 309.5Q363 285 363 256Q363 230 350.5 207.0Q338 184 318 169L348 139Q375 160 390.0 190.5Q405 221 405 256Q405 297 385.0 331.0Q365 365 331.0 385.0Q297 405 256 405ZM70 363 43 336 108 271Q107 266 107 256Q107 219 124.0 186.5Q141 154 171 134V85Q171 76 177.0 70.0Q183 64 192 64H314L400 -21L427 6ZM154 224 272 107H213V158Q192 168 176.5 185.0Q161 202 154 224ZM192 21V0Q192 -9 198.0 -15.0Q204 -21 213 -21H299Q308 -21 314.0 -15.0Q320 -9 320 0V21Z" />
      </g>
    </svg>