<svg xmlns="http://www.w3.org/2000/svg" viewBox="64 -21 384 426">
      <g transform="scale(1 -1) translate(0 -384)">
        <path d="M213 405Q254 405 288.5 385.0Q323 365 343.0 331.0Q363 297 363 256Q363 218 345.5 186.0Q328 154 299 134V85Q299 76 293.0 70.0Q287 64 277 64H149Q140 64 134.0 70.0Q128 76 128 85V134Q99 154 81.5 186.0Q64 218 64 256Q64 297 84.0 331.0Q104 365 138.0 385.0Q172 405 213 405ZM149 0V21H277V0Q277 -10 271.5 -15.5Q266 -21 256 -21H171Q161 -21 155.0 -15.5Q149 -10 149 0ZM213 363Q184 363 159.5 348.5Q135 334 121.0 309.5Q107 285 107 256Q107 223 124.0 197.0Q141 171 171 158V107H256V158Q285 171 302.5 197.0Q320 223 320 256Q320 285 306.0 309.5Q292 334 267.5 348.5Q243 363 213 363ZM405 192V299H448V171H405ZM405 85V128H448V85Z" />
      </g>
    </svg>