<svg xmlns="http://www.w3.org/2000/svg" viewBox="107 -21 298 426">
      <g transform="scale(1 -1) translate(0 -384)">
        <path d="M192 21H320V0Q320 -9 313.5 -15.0Q307 -21 299 -21H213Q205 -21 198.5 -15.0Q192 -9 192 0ZM405 256Q405 219 388.0 186.5Q371 154 341 134V85Q341 77 335.0 70.5Q329 64 320 64H192Q183 64 177.0 70.5Q171 77 171 85V134Q141 154 124.0 186.5Q107 219 107 256Q107 297 127.0 331.0Q147 365 181.0 385.0Q215 405 256.0 405.0Q297 405 331.0 385.0Q365 365 385.0 331.0Q405 297 405 256ZM314 271Q308 277 299.0 277.0Q290 277 284 271L256 243L228 271Q222 277 213.0 277.0Q204 277 198.0 271.0Q192 265 192.0 256.0Q192 247 198 241L235 205V107H277V205L314 241Q320 247 320.0 256.0Q320 265 314 271Z" />
      </g>
    </svg>