<svg xmlns="http://www.w3.org/2000/svg" viewBox="107 -21 298 426">
      <g transform="scale(1 -1) translate(0 -384)">
        <path d="M256 405Q215 405 181.0 385.0Q147 365 127.0 331.0Q107 297 107 256Q107 219 124.0 186.5Q141 154 171 134V85Q171 77 177.0 70.5Q183 64 192 64H320Q329 64 335.0 70.5Q341 77 341 85V134Q371 154 388.0 186.5Q405 219 405 256Q405 297 385.0 331.0Q365 365 331.0 385.0Q297 405 256 405ZM299 158V107H277V205L314 241Q320 247 320.0 256.0Q320 265 314.0 271.0Q308 277 299.0 277.0Q290 277 284 271L256 243L228 271Q222 277 213.0 277.0Q204 277 198.0 271.0Q192 265 192.0 256.0Q192 247 198 241L235 205V107H213V158Q185 171 167.0 197.5Q149 224 149 256Q149 285 163.5 309.5Q178 334 202.5 348.5Q227 363 256.0 363.0Q285 363 309.5 348.5Q334 334 348.5 309.5Q363 285 363 256Q363 224 345.0 197.5Q327 171 299 158ZM192 21H320V0Q320 -9 313.5 -15.0Q307 -21 299 -21H213Q205 -21 198.5 -15.0Q192 -9 192 0Z" />
      </g>
    </svg>