<svg xmlns="http://www.w3.org/2000/svg" viewBox="42 21 426 320">
      <g transform="scale(1 -1) translate(0 -362)">
        <path d="M320 149V107Q320 98 314.0 91.5Q308 85 299 85H213Q204 85 198.0 91.5Q192 98 192 107V149Q164 170 154.0 203.0Q144 236 155.0 268.5Q166 301 194.0 321.0Q222 341 256.0 341.0Q290 341 318.0 321.0Q346 301 357.0 268.5Q368 236 358.0 203.0Q348 170 320 149ZM299 64H213V43Q213 34 219.5 27.5Q226 21 235 21H277Q286 21 292.5 27.5Q299 34 299 43ZM149 43V64H107V43Q107 34 113.0 27.5Q119 21 128 21H153Q149 32 149 43ZM107 235Q106 268 121 299Q93 296 72.0 278.0Q51 260 45.0 232.5Q39 205 50.0 179.5Q61 154 85 140V107Q85 98 91.5 91.5Q98 85 107 85H149V131Q129 151 118.0 178.0Q107 205 107 235ZM363 64V43Q363 32 359 21H384Q393 21 399.0 27.5Q405 34 405 43V64ZM391 299Q406 268 405 235Q405 205 394.0 178.0Q383 151 363 131V85H405Q414 85 420.5 91.5Q427 98 427 107V140Q451 154 462.0 179.5Q473 205 467.0 232.5Q461 260 440.0 278.0Q419 296 391 299Z" />
      </g>
    </svg>