<svg xmlns="http://www.w3.org/2000/svg" viewBox="21 -43 470 470">
      <g transform="scale(1 -1) translate(0 -384)">
        <path d="M256 320Q291 320 320.5 303.0Q350 286 367.0 256.5Q384 227 384.0 192.0Q384 157 366.5 127.5Q349 98 320 81V43Q320 34 314.0 27.5Q308 21 299 21H213Q204 21 198.0 27.5Q192 34 192 43V81Q163 98 145.5 127.5Q128 157 128.0 192.0Q128 227 145.0 256.5Q162 286 191.5 303.0Q221 320 256 320ZM299 0V-21Q299 -30 292.5 -36.5Q286 -43 277 -43H235Q226 -43 219.5 -36.5Q213 -30 213 -21V0ZM427 213H491V171H427ZM21 213H85V171H21ZM277 427V363H235V427ZM105 373 150 328 120 298 75 343ZM362 328 407 373 437 343 392 298Z" />
      </g>
    </svg>