<svg xmlns="http://www.w3.org/2000/svg" viewBox="43 -21 384 426">
      <g transform="scale(1 -1) translate(0 -384)">
        <path d="M256 405Q221 405 190.5 390.0Q160 375 139 348L348 139Q375 160 390.0 190.5Q405 221 405 256Q405 297 385.0 331.0Q365 365 331.0 385.0Q297 405 256 405ZM70 363 43 336 108 271Q107 266 107 256Q107 219 124.0 186.5Q141 154 171 134V85Q171 76 177.0 70.0Q183 64 192 64H314L400 -21L427 6ZM192 21V0Q192 -9 198.0 -15.0Q204 -21 213 -21H299Q308 -21 314.0 -15.0Q320 -9 320 0V21Z" />
      </g>
    </svg>