<svg xmlns="http://www.w3.org/2000/svg" viewBox="42 21 426 320">
      <g transform="scale(1 -1) translate(0 -362)">
        <path d="M149 43Q149 32 153 21H128Q119 21 113.0 27.5Q107 34 107 43V64H149ZM213 43Q213 34 219.5 27.5Q226 21 235 21H277Q286 21 292.5 27.5Q299 34 299 43V64H213ZM85 107Q85 98 91.5 91.5Q98 85 107 85H149V131Q129 151 118.0 178.0Q107 205 107 235Q106 268 121 299Q93 296 72.0 278.0Q51 260 45.0 232.5Q39 205 50.0 179.5Q61 154 85 140ZM363 43Q363 32 359 21H384Q393 21 399.0 27.5Q405 34 405 43V64H363ZM363 235Q363 209 351.5 186.5Q340 164 320 149V107Q320 98 314.0 91.5Q308 85 299 85H213Q204 85 198.0 91.5Q192 98 192 107V149Q162 172 152.5 208.5Q143 245 159.0 279.0Q175 313 208.5 330.0Q242 347 278.5 339.0Q315 331 339.0 301.5Q363 272 363 235ZM320 235Q320 259 304.0 277.5Q288 296 263.5 298.5Q239 301 219.0 287.0Q199 273 193.5 249.0Q188 225 200.0 204.0Q212 183 235 175V128H277V175Q296 181 308.0 197.5Q320 214 320 235ZM391 299Q406 268 405 235Q405 205 394.0 178.0Q383 151 363 131V85H405Q414 85 420.5 91.5Q427 98 427 107V140Q451 154 462.0 179.5Q473 205 467.0 232.5Q461 260 440.0 278.0Q419 296 391 299Z" />
      </g>
    </svg>