<svg xmlns="http://www.w3.org/2000/svg" viewBox="64 0 384 384">
      <g transform="scale(1 -1) translate(0 -384)">
        <path d="M405 384H107Q89 384 76.5 371.5Q64 359 64 341V43Q64 25 76.5 12.5Q89 0 107 0H405Q423 0 435.5 12.5Q448 25 448 43V341Q448 359 435.5 371.5Q423 384 405 384ZM405 43H107V341H405ZM235 107H213Q194 107 176 115Q155 124 142 142Q128 163 128.0 192.0Q128 221 142 242Q155 260 176 269Q194 277 213 277H235V235H213Q199 235 188 228Q171 217 171.0 191.5Q171 166 189 155Q200 149 213 149H235ZM299 107H277V149H299Q313 149 324 156Q341 167 341.0 192.5Q341 218 323 229Q312 235 299 235H277V277H299Q318 277 336 269Q357 260 370 242Q384 221 384.0 192.0Q384 163 370 142Q357 124 336 115Q318 107 299 107ZM320 171H192V213H320Z" />
      </g>
    </svg>