<svg xmlns="http://www.w3.org/2000/svg" viewBox="43 21 426 278">
      <g transform="scale(1 -1) translate(0 -320)">
        <path d="M149 299H235V256H149Q123 256 104.0 237.5Q85 219 85.0 192.0Q85 165 104.0 146.5Q123 128 149 128H235V85H149Q120 85 95.5 99.5Q71 114 57.0 138.5Q43 163 43.0 192.0Q43 221 57.0 245.5Q71 270 95.5 284.5Q120 299 149 299ZM363 299Q392 299 416.5 284.5Q441 270 455.0 245.5Q469 221 469 192H427Q427 219 408.0 237.5Q389 256 363 256H277V299ZM171 213H341V171H171ZM363 192H405V128H469V85H405V21H363V85H299V128H363Z" />
      </g>
    </svg>