<svg xmlns="http://www.w3.org/2000/svg" viewBox="43 85 426 214">
      <g transform="scale(1 -1) translate(0 -384)">
        <path d="M83 192Q83 219 102.5 238.5Q122 258 149 258H235V299H149Q120 299 95.5 284.5Q71 270 57.0 245.5Q43 221 43.0 192.0Q43 163 57.0 138.5Q71 114 95.5 99.5Q120 85 149 85H235V126H149Q122 126 102.5 145.5Q83 165 83 192ZM171 171H341V213H171ZM363 299H277V258H363Q390 258 409.5 238.5Q429 219 429.0 192.0Q429 165 409.5 145.5Q390 126 363 126H277V85H363Q392 85 416.5 99.5Q441 114 455.0 138.5Q469 163 469.0 192.0Q469 221 455.0 245.5Q441 270 416.5 284.5Q392 299 363 299Z" />
      </g>
    </svg>