<svg xmlns="http://www.w3.org/2000/svg" viewBox="43 0 426 384">
      <g transform="scale(1 -1) translate(0 -384)">
        <path d="M363 299H277V258H363Q390 258 409.5 238.5Q429 219 429 192Q429 169 415.0 151.5Q401 134 380 128L411 97Q437 111 453.0 136.0Q469 161 469.0 191.0Q469 221 455.0 245.5Q441 270 416.5 284.5Q392 299 363 299ZM341 213H295L337 171H341ZM43 357 109 291Q79 279 61.0 252.0Q43 225 43 192Q43 163 57.0 138.5Q71 114 95.5 99.5Q120 85 149 85H235V126H149Q122 126 102.5 145.5Q83 165 83.0 191.0Q83 217 100.0 236.0Q117 255 142 257L186 213H171V171H229L277 122V85H314L400 0L427 27L70 384Z" />
      </g>
    </svg>