<svg xmlns="http://www.w3.org/2000/svg" viewBox="64 0 384 384">
      <g transform="scale(1 -1) translate(0 -384)">
        <path d="M405 384H107Q89 384 76.5 371.5Q64 359 64 341V43Q64 25 76.5 12.5Q89 0 107 0H405Q423 0 435.5 12.5Q448 25 448 43V341Q448 359 435.5 371.5Q423 384 405 384ZM297 132 250 85Q230 64 200.0 64.0Q170 64 149.0 85.0Q128 106 128.0 135.5Q128 165 149 186L178 215V203Q178 186 183 172L184 169L175 160Q165 150 165.0 136.0Q165 122 175.0 111.5Q185 101 199.5 101.0Q214 101 224 111L271 158Q281 169 281.0 182.5Q281 196 271 207Q265 212 265.0 220.0Q265 228 270.5 233.5Q276 239 284.0 239.0Q292 239 297 233Q318 212 318.0 182.5Q318 153 297 132ZM363 198 334 169V181Q334 198 329 212L328 215L337 224Q347 234 347.0 248.0Q347 262 337.0 272.5Q327 283 312.5 282.5Q298 282 288 273L241 226Q231 215 231.0 201.5Q231 188 241 177Q247 172 247.0 164.0Q247 156 241.5 150.5Q236 145 228.0 145.0Q220 145 215 151Q194 172 194.0 201.5Q194 231 215 252L262 299Q283 320 312.5 320.0Q342 320 363.0 299.0Q384 278 384.0 248.5Q384 219 363 198Z" />
      </g>
    </svg>