<svg xmlns="http://www.w3.org/2000/svg" viewBox="43 -21 469 320">
      <g transform="scale(1 -1) translate(0 -278)">
        <path d="M491 107V117Q491 139 475.0 155.0Q459 171 437.0 171.0Q415 171 399.5 155.0Q384 139 384 117V107Q375 107 369.0 100.5Q363 94 363 85V0Q363 -9 369.0 -15.0Q375 -21 384 -21H491Q500 -21 506.0 -15.0Q512 -9 512 0V85Q512 94 506.0 100.5Q500 107 491 107ZM469 107H405V117Q405 131 414.5 140.0Q424 149 437.5 149.0Q451 149 460.0 140.0Q469 131 469 117ZM149 258H235V299H149Q120 299 95.5 284.5Q71 270 57.0 245.5Q43 221 43.0 192.0Q43 163 57.0 138.5Q71 114 95.5 99.5Q120 85 149 85H235V126H149Q122 126 102.5 145.5Q83 165 83.0 192.0Q83 219 102.5 238.5Q122 258 149 258ZM171 213V171H341V213ZM277 126V85H320V126ZM363 299H277V258H363Q384 258 401.5 245.5Q419 233 425 213Q431 214 437 213H467Q460 251 430.5 275.0Q401 299 363 299Z" />
      </g>
    </svg>