<svg xmlns="http://www.w3.org/2000/svg" viewBox="58 -43 432 432">
      <g transform="scale(1 -1) translate(0 -346)">
        <path d="M226 162Q231 156 230.5 148.0Q230 140 224.5 134.5Q219 129 211.0 128.0Q203 127 196 132Q181 147 172.5 166.5Q164 186 164.0 207.0Q164 228 172.5 247.5Q181 267 196 282L271 358Q292 379 319.5 386.0Q347 393 374.5 386.0Q402 379 422.5 358.5Q443 338 450.0 310.5Q457 283 450.0 255.5Q443 228 422 207L390 175Q391 201 382 226L393 237Q410 256 410.0 282.5Q410 309 393 329Q373 346 346.5 346.0Q320 346 301 329L226 252Q207 233 207.0 206.5Q207 180 226 162ZM491 64V21H427V-43H384V21H320V64H384V128H427V64ZM346 156Q351 182 343.0 207.5Q335 233 316 252Q309 257 301.0 256.0Q293 255 287.5 249.5Q282 244 281.5 236.0Q281 228 286 222Q305 204 305.0 177.5Q305 151 286 132L211 55Q192 38 165.5 38.0Q139 38 119 55Q102 75 102.0 101.5Q102 128 119 147L130 156Q121 182 122 209L90 177Q69 156 62.0 128.5Q55 101 62.0 73.5Q69 46 89.5 25.5Q110 5 137.5 -2.0Q165 -9 192.5 -2.0Q220 5 241 26L279 64Q284 93 301.5 117.5Q319 142 346 156Z" />
      </g>
    </svg>