<svg xmlns="http://www.w3.org/2000/svg" viewBox="64 0 384 384">
      <g transform="scale(1 -1) translate(0 -384)">
        <path d="M405 384Q423 384 435.5 371.5Q448 359 448 341V43Q448 25 435.5 12.5Q423 0 405 0H107Q89 0 76.5 12.5Q64 25 64 43V341Q64 359 76.5 371.5Q89 384 107 384ZM395 53V166Q395 195 374.5 215.5Q354 236 325 236Q311 236 297.0 228.0Q283 220 276 208V232H216V53H276V159Q276 171 284.5 179.5Q293 188 305.5 188.0Q318 188 326.5 179.5Q335 171 335 159V53ZM147 265Q162 265 172.5 275.5Q183 286 183.0 301.0Q183 316 172.5 326.5Q162 337 147.0 337.0Q132 337 121.5 326.5Q111 316 111.0 301.0Q111 286 121.5 275.5Q132 265 147 265ZM176 53V232H117V53Z" />
      </g>
    </svg>