<svg xmlns="http://www.w3.org/2000/svg" viewBox="43 -21 410 410">
      <g transform="scale(1 -1) translate(0 -368)">
        <path d="M43 336 70 363 427 6 400 -21 297 82 241 26Q220 6 192.5 -1.5Q165 -9 137.5 -1.5Q110 6 90.0 26.0Q70 46 62.5 73.5Q55 101 62.5 128.5Q70 156 90 177L122 209Q121 182 130 157L120 147Q101 128 101.0 101.5Q101 75 120.0 56.0Q139 37 165.5 37.0Q192 37 211 56L267 112L232 146Q232 138 226.0 131.5Q220 125 211.0 125.0Q202 125 196 132Q179 148 171.0 169.5Q163 191 165 213ZM271 358Q292 378 319.5 385.5Q347 393 374.5 385.5Q402 378 422.0 358.0Q442 338 449.5 310.5Q457 283 449.5 255.5Q442 228 422 207L390 175Q391 202 382 227L392 237Q411 256 411.0 282.5Q411 309 392.0 328.0Q373 347 346.5 347.0Q320 347 301 328L230 257L200 287ZM286 252Q292 259 301.0 259.0Q310 259 316 252Q338 231 345.0 202.0Q352 173 343 144L305 182Q303 206 286 222Q280 228 280.0 237.0Q280 246 286 252Z" />
      </g>
    </svg>