<svg xmlns="http://www.w3.org/2000/svg" viewBox="58 -5 394 394">
      <g transform="scale(1 -1) translate(0 -384)">
        <path d="M226 162Q232 156 232.0 147.0Q232 138 226.0 131.5Q220 125 211.0 125.0Q202 125 196 132Q175 152 168.0 179.5Q161 207 168.0 234.5Q175 262 196 282L271 358Q292 378 319.5 385.5Q347 393 374.5 385.5Q402 378 422.0 358.0Q442 338 449.5 310.5Q457 283 449.5 255.5Q442 228 422 207L390 175Q391 202 382 227L392 237Q411 256 411.0 282.5Q411 309 392.0 328.0Q373 347 346.5 347.0Q320 347 301 328L226 252Q207 234 207.0 207.5Q207 181 226 162ZM286 252Q292 259 301.0 259.0Q310 259 316 252Q337 232 344.0 204.5Q351 177 344.0 149.5Q337 122 316 102L241 26Q220 6 192.5 -1.5Q165 -9 137.5 -1.5Q110 6 90.0 26.0Q70 46 62.5 73.5Q55 101 62.5 128.5Q70 156 90 177L122 209Q121 182 130 157L120 147Q101 128 101.0 101.5Q101 75 120.0 56.0Q139 37 165.5 37.0Q192 37 211 56L286 132Q305 150 305.0 176.5Q305 203 286 222Q280 228 280.0 237.0Q280 246 286 252Z" />
      </g>
    </svg>