<svg xmlns="http://www.w3.org/2000/svg" viewBox="42 -21 426 426">
      <g transform="scale(1 -1) translate(0 -384)">
        <path d="M312 270Q307 267 290 256L270 244Q258 235 246 245Q243 247 222 259L204 270Q197 275 197.5 280.5Q198 286 206 290Q257 311 311 289Q319 286 319.0 280.5Q319 275 312 270ZM466 115Q436 183 384 235Q368 252 361 275Q359 282 356 297L353 311Q348 339 341 353Q318 403 259 405Q200 404 175 354Q169 341 165 326L155 276Q150 255 134 240Q83 190 51 125Q45 113 44 107Q40 96 46.5 90.0Q53 84 65 86Q83 90 92 93Q99 95 102.0 93.5Q105 92 107 85Q128 16 197 -11Q240 -27 285.5 -19.0Q331 -11 365.0 17.5Q399 46 410 87Q411 92 413.0 93.0Q415 94 420 93Q428 90 444 87L450 85Q458 84 463.0 87.5Q468 91 469.0 98.0Q470 105 466 115Z" />
      </g>
    </svg>