<svg xmlns="http://www.w3.org/2000/svg" viewBox="43 5 426 374">
      <g transform="scale(1 -1) translate(0 -384)">
        <path d="M43 379V303H75Q91 303 97 292Q102 284 102 266V131Q102 97 120.5 68.0Q139 39 170.0 22.0Q201 5 239 5H425Q443 5 456.0 15.5Q469 26 469 43V252Q469 286 451.0 315.0Q433 344 401.5 361.0Q370 378 333 378ZM141 332H179V140Q179 121 190.0 107.5Q201 94 217 94H344Q364 94 377.5 105.5Q391 117 391 134V236Q391 245 384.5 252.0Q378 259 368.0 259.0Q358 259 351.5 252.0Q345 245 345 236V148H305V236Q305 245 298.5 252.0Q292 259 282.5 259.0Q273 259 266.0 252.0Q259 245 259 236V148H220V236Q220 262 238.0 280.5Q256 299 281.5 299.0Q307 299 325 281Q343 299 368.5 299.0Q394 299 412.5 280.0Q431 261 431 236V127Q428 99 408 79Q384 55 352 55H210Q185 57 164 78Q141 101 141 132Z" />
      </g>
    </svg>