<svg xmlns="http://www.w3.org/2000/svg" viewBox="171 -43 170 470">
      <g transform="scale(1 -1) translate(0 -384)">
        <path d="M192 -43Q183 -43 177.0 -36.5Q171 -30 171 -21V171Q171 179 177.0 185.5Q183 192 192 192H320Q329 192 335.0 185.5Q341 179 341 171V-21Q341 -30 335.0 -36.5Q329 -43 320 -43ZM213 213Q205 213 198.5 219.5Q192 226 192 235V336L204 350Q217 367 228 384Q244 408 251 427L252 426Q274 412 284 403Q301 387 308.5 366.0Q316 345 319 307Q320 284 320 235Q320 226 313.5 219.5Q307 213 299 213Z" />
      </g>
    </svg>