<svg xmlns="http://www.w3.org/2000/svg" viewBox="42 -21 426 425">
      <g transform="scale(1 -1) translate(0 -383)">
        <path d="M387 92Q374 70 355 70Q342 71 320 83L313 88Q293 100 284 102Q270 106 261 94Q253 85 254 69Q255 60 261 39L264 27Q269 6 265 -4Q258 -18 233 -21Q212 -19 208 -2Q205 9 209 34L211 41Q215 65 215 75Q214 92 203 97Q193 104 184 97Q178 93 167 78L163 73Q150 56 140 51Q125 42 108 51Q92 64 93 75Q94 83 105 96Q119 111 123 123Q131 142 125 164Q122 172 113 174Q107 175 93 175H83Q65 176 57 181Q45 188 43 207Q42 219 50 226Q55 231 67 236L71 238Q83 242 87 245Q94 251 94.5 258.0Q95 265 92 272Q90 277 85 284L81 291Q76 299 76.5 307.0Q77 315 86 325Q101 337 117 331Q127 327 144 311L146 310Q163 293 172 289Q188 281 202 290Q212 297 209 310Q206 318 195 336L191 342Q179 360 180 370Q180 384 202 390Q221 395 233 384Q241 377 250 356L253 350Q261 329 267 321Q278 308 292 305Q312 301 332 319Q344 330 365 359L373 369Q394 397 408 403Q428 411 449.0 384.5Q470 358 456 338Q447 325 414 309L403 305Q371 291 360 282Q341 268 347 250Q350 240 361 240Q367 240 384 246L391 249Q410 255 420 253Q436 249 443.0 228.0Q450 207 435 197Q425 190 399 187L381 185Q358 184 350 182Q336 178 335.0 170.0Q334 162 342 156Q346 152 360 145L369 140Q384 132 389 123Q396 110 387 92ZM437 43Q423 43 415.0 52.5Q407 62 407.0 75.0Q407 88 415.0 97.5Q423 107 437.5 107.0Q452 107 460.5 97.5Q469 88 469.0 75.0Q469 62 460.5 52.5Q452 43 437 43Z" />
      </g>
    </svg>