<svg xmlns="http://www.w3.org/2000/svg" viewBox="64 -21 405 426">
      <g transform="scale(1 -1) translate(0 -384)">
        <path d="M64 149Q64 129 75.5 112.5Q87 96 107 90V21H64V-21H192V21H149V90Q169 96 180.5 112.5Q192 129 192 149V320H64ZM107 277H149V213H107ZM439 267 418 273Q413 275 409.0 280.5Q405 286 405 292V384Q405 392 398.5 398.5Q392 405 384 405H320Q311 405 305.0 398.5Q299 392 299 384V292Q299 286 294.5 280.0Q290 274 284 271L265 265Q251 260 243.0 249.0Q235 238 235 224V21Q235 4 247.5 -8.5Q260 -21 277 -21H427Q444 -21 456.5 -8.5Q469 4 469 21V226Q469 239 461.0 250.5Q453 262 439 267ZM341 363H363V341H341ZM277 226 297 233Q317 239 329.0 255.0Q341 271 341 292V299H363V292Q363 272 374.5 255.5Q386 239 405 233L427 226V192H277ZM427 21H277V64H427Z" />
      </g>
    </svg>