<svg xmlns="http://www.w3.org/2000/svg" viewBox="43 -21 426 427">
      <g transform="scale(1 -1) translate(0 -385)">
        <path d="M299 192 213 277V213H43V171H213V107ZM469 192Q469 140 445.5 94.5Q422 49 381.0 19.0Q340 -11 288.5 -19.0Q237 -27 188.5 -10.5Q140 6 104.0 42.0Q68 78 52 128H98Q113 91 143.0 64.5Q173 38 211.0 27.5Q249 17 288.5 24.5Q328 32 359.5 56.5Q391 81 409.0 116.5Q427 152 427.0 192.0Q427 232 409.0 267.5Q391 303 359.5 327.5Q328 352 288.5 359.5Q249 367 211.0 356.5Q173 346 143.0 319.5Q113 293 98 256H52Q68 306 104.0 342.0Q140 378 188.5 394.5Q237 411 288.5 403.0Q340 395 381.0 365.0Q422 335 445.5 289.5Q469 244 469 192Z" />
      </g>
    </svg>