<svg xmlns="http://www.w3.org/2000/svg" viewBox="43 -21 426 427">
      <g transform="scale(1 -1) translate(0 -385)">
        <path d="M469 192 384 277V213H213V171H384V107ZM427 64Q385 9 319.5 -11.5Q254 -32 188.5 -10.5Q123 11 83.0 67.0Q43 123 43.0 192.0Q43 261 83.0 317.0Q123 373 188.5 394.5Q254 416 319.5 395.5Q385 375 427 320H368Q335 350 291.5 359.0Q248 368 206.0 355.5Q164 343 132.5 310.5Q101 278 90.0 235.0Q79 192 90.0 149.0Q101 106 132.5 73.5Q164 41 206.0 28.5Q248 16 291.5 25.0Q335 34 368 64Z" />
      </g>
    </svg>