<svg xmlns="http://www.w3.org/2000/svg" viewBox="0 -21 483 426">
      <g transform="scale(1 -1) translate(0 -384)">
        <path d="M269 405Q327 405 376.5 376.5Q426 348 454.5 299.0Q483 250 483.0 192.0Q483 134 454.5 85.0Q426 36 376.5 7.5Q327 -21 269 -21Q214 -21 167.0 5.0Q120 31 91 76L125 103Q148 65 186.0 43.0Q224 21 270.0 21.0Q316 21 355.0 44.0Q394 67 417.0 106.5Q440 146 440.0 192.0Q440 238 417.0 277.5Q394 317 355.0 340.0Q316 363 270 363Q227 363 190.0 343.0Q153 323 129.5 289.0Q106 255 100 213H159L80 134L0 213H57Q63 267 92.5 310.5Q122 354 168.5 379.5Q215 405 269 405ZM333 230Q341 229 346.5 223.5Q352 218 352 210V112Q352 104 346.0 98.0Q340 92 332 92H214Q206 92 200.5 98.0Q195 104 195 112V210Q195 218 200.5 223.5Q206 229 214 230V251Q214 276 231.5 293.0Q249 310 273.5 310.0Q298 310 315.5 293.0Q333 276 333 251ZM273 280Q261 280 252.5 271.5Q244 263 244 251V230H303V251Q303 263 294.0 271.5Q285 280 273 280Z" />
      </g>
    </svg>