<svg xmlns="http://www.w3.org/2000/svg" viewBox="43 -21 426 448">
      <g transform="scale(1 -1) translate(0 -406)">
        <path d="M341 277Q359 277 371.5 264.5Q384 252 384 235V21Q384 4 371.5 -8.5Q359 -21 341 -21H85Q68 -21 55.5 -8.5Q43 4 43 21V235Q43 252 55.5 264.5Q68 277 85 277H277V320Q277 347 259.0 365.5Q241 384 213.5 384.0Q186 384 167.5 365.5Q149 347 149 320H107Q107 349 121.0 373.5Q135 398 159.5 412.5Q184 427 213.5 427.0Q243 427 267.5 412.5Q292 398 306.0 373.5Q320 349 320 320V277ZM213 85Q231 85 243.5 97.5Q256 110 256.0 128.0Q256 146 243.5 158.5Q231 171 213.5 171.0Q196 171 183.5 158.5Q171 146 171.0 128.0Q171 110 183.5 97.5Q196 85 213 85ZM469 171H427V299H469ZM469 85H427V128H469Z" />
      </g>
    </svg>