<svg xmlns="http://www.w3.org/2000/svg" viewBox="85 -21 406 448">
      <g transform="scale(1 -1) translate(0 -406)">
        <path d="M299 128Q299 110 286.5 97.5Q274 85 256.0 85.0Q238 85 225.5 97.5Q213 110 213.0 128.0Q213 146 225.5 158.5Q238 171 256.0 171.0Q274 171 286.5 158.5Q299 146 299 128ZM128 21V235H384V169Q397 171 405.5 171.0Q414 171 427 169V235Q427 252 414.5 264.5Q402 277 384 277H363V320Q363 349 348.5 373.5Q334 398 309.5 412.5Q285 427 256.0 427.0Q227 427 202.5 412.5Q178 398 163.5 373.5Q149 349 149 320H192Q192 347 210.5 365.5Q229 384 256.0 384.0Q283 384 301.5 365.5Q320 347 320 320V277H128Q110 277 97.5 264.5Q85 252 85 235V21Q85 4 97.5 -8.5Q110 -21 128 -21H295Q283 -2 279 21ZM320 64V21H491V64Z" />
      </g>
    </svg>