<svg xmlns="http://www.w3.org/2000/svg" viewBox="85 -21 342 448">
      <g transform="scale(1 -1) translate(0 -406)">
        <path d="M384 21V235H128V21ZM384 277Q402 277 414.5 264.5Q427 252 427 235V21Q427 4 414.5 -8.5Q402 -21 384 -21H128Q110 -21 97.5 -8.5Q85 4 85 21V235Q85 252 97.5 264.5Q110 277 128 277H320V320Q320 347 301.5 365.5Q283 384 256.0 384.0Q229 384 210.5 365.5Q192 347 192 320H149Q149 349 163.5 373.5Q178 398 202.5 412.5Q227 427 256.0 427.0Q285 427 309.5 412.5Q334 398 348.5 373.5Q363 349 363 320V277ZM256 85Q238 85 225.5 97.5Q213 110 213.0 128.0Q213 146 225.5 158.5Q238 171 256.0 171.0Q274 171 286.5 158.5Q299 146 299.0 128.0Q299 110 286.5 97.5Q274 85 256 85Z" />
      </g>
    </svg>