<svg xmlns="http://www.w3.org/2000/svg" viewBox="85 -21 342 448">
      <g transform="scale(1 -1) translate(0 -406)">
        <path d="M256 427Q227 427 202.5 412.5Q178 398 163.5 373.5Q149 349 149 320V277H128Q110 277 97.5 264.5Q85 252 85 235V21Q85 4 97.5 -8.5Q110 -21 128 -21H384Q402 -21 414.5 -8.5Q427 4 427 21V235Q427 252 414.5 264.5Q402 277 384 277H363V320Q363 349 348.5 373.5Q334 398 309.5 412.5Q285 427 256 427ZM256 386Q283 386 302.5 366.5Q322 347 322 320V277H190V320Q190 347 209.5 366.5Q229 386 256 386ZM260 224Q290 224 307.5 210.5Q325 197 325 175Q325 161 315.5 149.5Q306 138 291 131Q283 126 280.0 120.5Q277 115 277 107H235Q235 122 241.5 130.0Q248 138 264 148Q272 152 277.0 159.0Q282 166 282.0 175.0Q282 184 276.5 189.5Q271 195 260 195Q252 195 246.0 190.5Q240 186 240 177H198Q196 200 214.0 212.0Q232 224 260 224ZM235 85H277V43H235Z" />
      </g>
    </svg>