<svg xmlns="http://www.w3.org/2000/svg" viewBox="128 -21 256 426">
      <g transform="scale(1 -1) translate(0 -384)">
        <path d="M256 405Q221 405 191.5 388.0Q162 371 145.0 341.5Q128 312 128 277V107Q128 72 145.0 42.5Q162 13 191.5 -4.0Q221 -21 256.0 -21.0Q291 -21 320.5 -4.0Q350 13 367.0 42.5Q384 72 384 107V277Q384 312 367.0 341.5Q350 371 320.5 388.0Q291 405 256 405ZM171 320H213V277H171ZM235 320H277V277H235ZM299 320H341V277H299ZM171 256H213V213H171ZM235 256H277V213H235ZM299 256H341V213H299ZM171 192H213V149H171ZM235 192H277V149H235ZM299 192H341V149H299ZM256 107Q274 107 286.5 94.5Q299 82 299.0 64.0Q299 46 286.5 33.5Q274 21 256.0 21.0Q238 21 225.5 33.5Q213 46 213.0 64.0Q213 82 225.5 94.5Q238 107 256 107Z" />
      </g>
    </svg>