<svg xmlns="http://www.w3.org/2000/svg" viewBox="24 -37 448 464">
      <g transform="scale(1 -1) translate(0 -390)">
        <path d="M192 324 157 359Q169 389 196.0 408.0Q223 427 256 427Q285 427 309.5 412.5Q334 398 348.5 373.5Q363 349 363 320V277H384Q402 277 414.5 264.5Q427 252 427 235V90L239 277H320V320Q320 347 301.5 365.5Q283 384 257.0 384.0Q231 384 212.5 366.5Q194 349 192 324ZM472 -10 445 -37 415 -7Q403 -21 384 -21H128Q110 -21 97.5 -8.5Q85 4 85 21V235Q85 252 97.5 264.5Q110 277 128 277H130L24 384L51 411ZM295 112 240 167Q228 163 220.5 152.0Q213 141 213 128Q213 110 225.5 97.5Q238 85 256 85Q269 85 280.0 92.5Q291 100 295 112Z" />
      </g>
    </svg>