<svg xmlns="http://www.w3.org/2000/svg" viewBox="43 -21 426 426">
      <g transform="scale(1 -1) translate(0 -384)">
        <path d="M181 405Q141 405 113.0 377.0Q85 349 85 309V299Q68 299 55.5 286.5Q43 274 43 256V64Q43 46 55.5 33.5Q68 21 85 21H186Q209 1 238.5 -10.0Q268 -21 299 -21Q345 -21 384.0 2.0Q423 25 446.0 64.0Q469 103 469.0 149.5Q469 196 446.0 235.0Q423 274 384.0 297.0Q345 320 299 320Q288 320 277 318Q273 355 245.5 380.0Q218 405 181 405ZM181 363Q203 363 219.0 347.0Q235 331 235 309V299H128V309Q128 331 143.5 347.0Q159 363 181 363ZM299 277Q324 277 347.5 267.5Q371 258 389.0 240.0Q407 222 417.0 198.5Q427 175 427 149Q427 115 409.5 85.5Q392 56 362.5 38.5Q333 21 298.5 21.0Q264 21 234.5 38.5Q205 56 188.0 85.5Q171 115 171.0 149.5Q171 184 188.0 213.5Q205 243 234.5 260.0Q264 277 299 277ZM277 235V128L355 81L372 109L309 146V235Z" />
      </g>
    </svg>