<svg xmlns="http://www.w3.org/2000/svg" viewBox="43 -21 426 426">
      <g transform="scale(1 -1) translate(0 -384)">
        <path d="M256 405Q198 405 149.0 376.5Q100 348 71.5 299.0Q43 250 43.0 192.0Q43 134 71.5 85.0Q100 36 149.0 7.5Q198 -21 256.0 -21.0Q314 -21 363.0 7.5Q412 36 440.5 85.0Q469 134 469.0 192.0Q469 250 440.5 299.0Q412 348 363.0 376.5Q314 405 256 405ZM201 30Q149 48 117.0 92.5Q85 137 85.0 192.0Q85 247 117.0 291.5Q149 336 201 354Q160 278 160.0 192.0Q160 106 201 30ZM256 21Q230 59 216.0 102.5Q202 146 202.0 192.0Q202 238 216.0 281.5Q230 325 256 363Q282 325 296.0 281.5Q310 238 310.0 192.0Q310 146 296.0 102.5Q282 59 256 21ZM311 30Q352 106 352.0 192.0Q352 278 311 354Q363 336 395.0 291.5Q427 247 427.0 192.0Q427 137 395.5 92.0Q364 47 311 30Z" />
      </g>
    </svg>