<svg xmlns="http://www.w3.org/2000/svg" viewBox="21 85 470 235">
      <g transform="scale(1 -1) translate(0 -405)">
        <path d="M256 320Q192 320 138.0 288.5Q84 257 52.5 203.0Q21 149 21 85H64Q64 137 90.0 181.5Q116 226 160.0 251.5Q204 277 256.0 277.0Q308 277 352.0 251.5Q396 226 422.0 181.5Q448 137 448 85H491Q491 149 459.5 203.0Q428 257 374.0 288.5Q320 320 256 320ZM256 235Q216 235 181.5 214.5Q147 194 127.0 160.0Q107 126 107 85H149Q149 114 163.5 138.5Q178 163 202.5 177.5Q227 192 256.0 192.0Q285 192 309.5 177.5Q334 163 348.5 138.5Q363 114 363 85H405Q405 126 385.0 160.0Q365 194 330.5 214.5Q296 235 256 235Z" />
      </g>
    </svg>