<svg xmlns="http://www.w3.org/2000/svg" viewBox="85 -21 384 426">
      <g transform="scale(1 -1) translate(0 -384)">
        <path d="M331 309Q331 317 339 331Q345 341 354 353L363 363L371 353Q380 341 386 331Q395 317 395 309Q395 296 385.5 286.5Q376 277 362.5 277.0Q349 277 340.0 286.5Q331 296 331 309ZM416 128Q438 128 453.5 143.5Q469 159 469 181Q469 197 456 222Q446 240 430 260L416 277L402 260Q386 240 376 222Q363 197 363 181Q363 159 378.5 143.5Q394 128 416 128ZM341 192V-21H85V192Q85 239 115.5 274.5Q146 310 192 318V363H149V405H277Q312 405 341 384L311 353Q295 363 277 363H235V318Q280 310 310.5 274.5Q341 239 341 192Z" />
      </g>
    </svg>