<svg xmlns="http://www.w3.org/2000/svg" viewBox="43 -21 426 448">
      <g transform="scale(1 -1) translate(0 -406)">
        <path d="M330 382Q323 386 314.0 383.0Q305 380 301 372Q299 368 299 363V307L284 323Q277 329 277 337V427H235V338Q235 329 228 323L213 307V363Q213 372 207.0 378.0Q201 384 192 384Q187 384 182 382Q120 351 81.5 277.0Q43 203 43 112Q43 50 64 -7Q67 -15 75.0 -19.0Q83 -23 92 -20L203 41Q213 47 213 60V247L241 275Q247 281 256.0 281.0Q265 281 271 275L299 247V60Q299 48 309 41L418 -19Q426 -23 434.5 -20.5Q443 -18 447 -10L448 -7Q469 50 469 112Q469 203 430.5 277.0Q392 351 330 382Z" />
      </g>
    </svg>