<svg xmlns="http://www.w3.org/2000/svg" viewBox="21 -43 470 470">
      <g transform="scale(1 -1) translate(0 -384)">
        <path d="M425 250Q427 259 427.0 266.5Q427 274 425 283L491 267ZM313 172 331 103 348 172Q339 171 330.5 171.0Q322 171 313 172ZM250 216 145 111 130 126 21 18 82 -43 190 66 175 81 280 186Q261 197 250 216ZM347 361 331 427 314 361Q323 363 330.5 363.0Q338 363 347 361ZM171 267 236 250Q235 259 235.0 266.5Q235 274 236 283ZM397 234Q405 250 405.0 267.0Q405 284 397 300L448 384L364 333Q348 341 331.0 341.0Q314 341 298 333L213 384L264 300Q256 284 256 267Q256 236 278.0 214.0Q300 192 331 192Q348 192 364 200L448 149Z" />
      </g>
    </svg>