<svg xmlns="http://www.w3.org/2000/svg" viewBox="43 -21 448 448">
      <g transform="scale(1 -1) translate(0 -406)">
        <path d="M373 256Q351 256 335.5 271.5Q320 287 320.0 309.0Q320 331 335.5 347.0Q351 363 373.0 363.0Q395 363 411.0 347.0Q427 331 427.0 309.0Q427 287 411.0 271.5Q395 256 373 256ZM308 274 43 9 73 -21 338 244Q319 255 308 274ZM277 341 291 371 320 384 291 397 277 427 264 397 235 384 264 371ZM448 341 461 371 491 384 461 397 448 427 435 397 405 384 435 371ZM448 256 435 227 405 213 435 200 448 171 461 200 491 213 461 227Z" />
      </g>
    </svg>