<svg xmlns="http://www.w3.org/2000/svg" viewBox="64 11 373 373">
      <g transform="scale(1 -1) translate(0 -395)">
        <path d="M203 384Q240 384 272.0 365.5Q304 347 322.5 315.0Q341 283 341 245Q341 194 308 155L314 149H331L437 43L405 11L299 117V134L293 140Q254 107 203 107Q165 107 133.0 125.5Q101 144 82.5 176.0Q64 208 64.0 245.5Q64 283 82.5 315.0Q101 347 133.0 365.5Q165 384 203 384ZM203 341Q163 341 135.0 313.0Q107 285 107.0 245.0Q107 205 135.0 177.0Q163 149 203.0 149.0Q243 149 271.0 177.0Q299 205 299.0 245.0Q299 285 271.0 313.0Q243 341 203 341Z" />
      </g>
    </svg>