<svg xmlns="http://www.w3.org/2000/svg" viewBox="43 -21 426 426">
      <g transform="scale(1 -1) translate(0 -384)">
        <path d="M192 405Q233 405 267.0 385.0Q301 365 321.0 331.0Q341 297 341 256Q341 206 312 167L329 149H341L469 21L427 -21L299 107V119L281 136Q242 107 192 107Q151 107 117.0 127.0Q83 147 63.0 181.0Q43 215 43.0 256.0Q43 297 63.0 331.0Q83 365 117.0 385.0Q151 405 192 405ZM237 332 192 286 147 332 116 301 162 256 116 211 147 180 192 226 237 180 268 211 222 256 268 301Z" />
      </g>
    </svg>