<svg xmlns="http://www.w3.org/2000/svg" viewBox="64 11 373 373">
      <g transform="scale(1 -1) translate(0 -395)">
        <path d="M331 149H314L308 155Q341 194 341 245Q341 283 322.5 315.0Q304 347 272.0 365.5Q240 384 202.5 384.0Q165 384 133.0 365.5Q101 347 82.5 315.0Q64 283 64.0 245.5Q64 208 82.5 176.0Q101 144 133.0 125.5Q165 107 203 107Q254 107 293 140L299 134V117L405 11L437 43ZM203 149Q163 149 135.0 177.0Q107 205 107.0 245.0Q107 285 135.0 313.0Q163 341 203.0 341.0Q243 341 271.0 313.0Q299 285 299.0 245.0Q299 205 271.0 177.0Q243 149 203 149ZM149 256H256V235H149Z" />
      </g>
    </svg>