<svg xmlns="http://www.w3.org/2000/svg" viewBox="43 -21 426 426">
      <g transform="scale(1 -1) translate(0 -384)">
        <path d="M363 -21V21H427V85H469V11Q469 -2 459.5 -11.5Q450 -21 437 -21ZM149 -21H75Q62 -21 52.5 -11.5Q43 -2 43 11V85H85V21H149ZM363 405H437Q450 405 459.5 395.5Q469 386 469 373V299H427V363H363ZM149 405V363H85V299H43V373Q43 386 52.5 395.5Q62 405 75 405ZM224 320Q264 320 292.0 292.0Q320 264 320 224Q320 196 305 173L375 103L345 73L275 143Q252 128 224 128Q184 128 156.0 156.0Q128 184 128.0 224.0Q128 264 156.0 292.0Q184 320 224 320ZM224 277Q202 277 186.5 261.5Q171 246 171.0 224.0Q171 202 186.5 186.5Q202 171 224.0 171.0Q246 171 261.5 186.5Q277 202 277.0 224.0Q277 246 261.5 261.5Q246 277 224 277Z" />
      </g>
    </svg>