<svg xmlns="http://www.w3.org/2000/svg" viewBox="21 -43 470 470">
      <g transform="scale(1 -1) translate(0 -384)">
        <path d="M384 107H372L354 124Q384 164 384 213Q384 254 364.0 288.5Q344 323 309.5 343.0Q275 363 235 363Q185 363 145 333Q112 308 97.0 271.5Q82 235 86.5 195.5Q91 156 115.0 123.5Q139 91 176.0 76.0Q213 61 252.5 65.5Q292 70 324 94L341 77V64L448 -43L491 0ZM235 107Q206 107 181.5 121.0Q157 135 142.5 159.5Q128 184 128.0 213.0Q128 242 142.5 266.5Q157 291 181.5 305.5Q206 320 235.0 320.0Q264 320 288.5 305.5Q313 291 327.0 266.5Q341 242 341.0 213.0Q341 184 327.0 159.5Q313 135 288.5 121.0Q264 107 235 107ZM64 320 21 277V427H171L128 384H64ZM448 427V277L405 320V384H341L299 427ZM128 43 171 0H21V149L64 107V43Z" />
      </g>
    </svg>