<svg xmlns="http://www.w3.org/2000/svg" viewBox="43 21 426 342">
      <g transform="scale(1 -1) translate(0 -384)">
        <path d="M363 363H149Q120 363 95.5 348.5Q71 334 57.0 309.5Q43 285 43 256V21H427Q444 21 456.5 33.5Q469 46 469 64V256Q469 285 455.0 309.5Q441 334 416.5 348.5Q392 363 363 363ZM213 64H85V256Q85 283 104.0 301.5Q123 320 149.5 320.0Q176 320 194.5 301.5Q213 283 213 256ZM427 64H256V256Q256 292 235 320H363Q389 320 408.0 301.5Q427 283 427 256ZM277 171H320V256H363V299H277ZM192 213H107V256H192Z" />
      </g>
    </svg>