<svg xmlns="http://www.w3.org/2000/svg" viewBox="21 21 470 342">
      <g transform="scale(1 -1) translate(0 -384)">
        <path d="M299 213H427V128H384V171H299ZM384 363H171Q142 363 117.5 348.5Q93 334 78.5 309.5Q64 285 64 256V64H21V21H448Q466 21 478.5 33.5Q491 46 491 64V256Q491 285 476.5 309.5Q462 334 437.5 348.5Q413 363 384 363ZM235 64H107V256Q107 283 125.5 301.5Q144 320 170.5 320.0Q197 320 216.0 301.5Q235 283 235 256ZM448 64H277V256Q277 292 256 320H384Q411 320 429.5 301.5Q448 283 448 256Z" />
      </g>
    </svg>