<svg xmlns="http://www.w3.org/2000/svg" viewBox="21 25 470 341">
      <g transform="scale(1 -1) translate(0 -391)">
        <path d="M299 174V302H384V259H341V174ZM384 366H171Q142 366 117.5 351.5Q93 337 78.5 312.5Q64 288 64 259V67H21V25H448Q466 25 478.5 37.5Q491 50 491 67V259Q491 288 476.5 312.5Q462 337 437.5 351.5Q413 366 384 366ZM235 67H107V259Q107 286 125.5 304.5Q144 323 170.5 323.0Q197 323 216.0 304.5Q235 286 235 259ZM448 67H277V259Q277 295 256 323H384Q411 323 429.5 304.5Q448 286 448 259Z" />
      </g>
    </svg>