<svg xmlns="http://www.w3.org/2000/svg" viewBox="43 -51 435 456">
      <g transform="scale(1 -1) translate(0 -354)">
        <path d="M331 192Q371 192 399.0 164.0Q427 136 427 96Q427 68 412 45L478 -21L448 -51L381 15Q358 0 331 0Q291 0 263.0 28.0Q235 56 235.0 96.0Q235 136 263.0 164.0Q291 192 331 192ZM331 149Q309 149 293.0 133.5Q277 118 277.0 96.0Q277 74 293.0 58.5Q309 43 331.0 43.0Q353 43 368.5 58.5Q384 74 384.0 96.0Q384 118 368.5 133.5Q353 149 331 149ZM416 405Q420 405 423.5 402.0Q427 399 427 395V196Q407 214 384 224V348L320 323V235Q297 232 277 224V323L192 353V96Q192 76 198 57L171 66L57 22L53 21Q49 21 46.0 24.5Q43 28 43 32V355Q43 362 50 365L171 405L299 361L413 405ZM85 332V79L149 103V353Z" />
      </g>
    </svg>