<svg xmlns="http://www.w3.org/2000/svg" viewBox="43 -21 384 426">
      <g transform="scale(1 -1) translate(0 -384)">
        <path d="M427 28 70 384 43 356 111 288Q107 267 107 256Q107 218 130 166Q149 124 181 76Q205 41 233 6L256 -21L279 6Q306 39 329 73L401 0ZM256 49Q191 137 166 190Q149 225 149 250L294 105Q287 93 269 67ZM179 329 149 358Q169 381 196.5 393.0Q224 405 256 405Q297 405 331.0 385.0Q365 365 385.0 331.0Q405 297 405 256Q405 208 369 139L337 171Q354 204 359 228Q363 241 363 256Q363 285 348.5 309.5Q334 334 309.5 348.5Q285 363 256 363Q234 363 214.0 354.0Q194 345 179 329ZM256 309Q278 309 293.5 293.5Q309 278 309.0 255.5Q309 233 292 215L218 290Q224 299 234.0 304.0Q244 309 256 309Z" />
      </g>
    </svg>