<svg xmlns="http://www.w3.org/2000/svg" viewBox="43 -21 384 426">
      <g transform="scale(1 -1) translate(0 -384)">
        <path d="M349 105 251 203 70 384 43 357 111 289Q107 273 107 256Q107 218 130 165Q149 124 181 75Q205 41 233 6L256 -21L278 5Q305 38 328 71L400 0L427 27ZM256 309Q278 309 293.5 293.5Q309 278 309.0 255.5Q309 233 292 217L369 139Q405 208 405 256Q405 297 385.0 331.0Q365 365 331.0 385.0Q297 405 256 405Q225 405 197.0 393.0Q169 381 148 360L217 292Q233 309 256 309Z" />
      </g>
    </svg>