<svg xmlns="http://www.w3.org/2000/svg" viewBox="64 0 405 393">
      <g transform="scale(1 -1) translate(0 -393)">
        <path d="M384 128Q411 128 429.5 109.5Q448 91 448.0 64.0Q448 37 429.5 18.5Q411 0 384 0Q363 0 346.5 12.0Q330 24 324 43H299V85H324Q330 104 346.5 116.0Q363 128 384 128ZM384 85Q375 85 369.0 79.0Q363 73 363.0 64.0Q363 55 369.0 49.0Q375 43 384.0 43.0Q393 43 399.0 49.0Q405 55 405.0 64.0Q405 73 399.0 79.0Q393 85 384 85ZM384 277Q397 277 406.0 286.0Q415 295 415.0 307.5Q415 320 406.0 329.0Q397 338 384.0 338.0Q371 338 362.0 329.0Q353 320 353.0 307.5Q353 295 362.0 286.0Q371 277 384 277ZM384 393Q419 393 444.0 368.0Q469 343 469 308Q469 268 427 205Q405 173 384 149L362 176Q337 209 321 238Q299 279 299 308Q299 343 324.0 368.0Q349 393 384 393ZM188 85H213V43H188Q182 24 165.5 12.0Q149 0 128 0Q101 0 82.5 18.5Q64 37 64 64Q64 85 76.0 101.5Q88 118 107 124V149H149V124Q163 120 173.5 109.5Q184 99 188 85ZM128 85Q119 85 113.0 79.0Q107 73 107.0 64.0Q107 55 113.0 49.0Q119 43 128.0 43.0Q137 43 143.0 49.0Q149 55 149.0 64.0Q149 73 143.0 79.0Q137 85 128 85ZM128 384Q155 384 173.5 365.5Q192 347 192 320Q192 299 180.0 282.5Q168 266 149 260V235H107V260Q88 266 76.0 282.5Q64 299 64 320Q64 347 82.5 365.5Q101 384 128 384ZM128 341Q119 341 113.0 335.0Q107 329 107.0 320.0Q107 311 113.0 305.0Q119 299 128.0 299.0Q137 299 143.0 305.0Q149 311 149.0 320.0Q149 329 143.0 335.0Q137 341 128 341ZM235 43V85H277V43ZM149 171H107V213H149Z" />
      </g>
    </svg>