<svg xmlns="http://www.w3.org/2000/svg" viewBox="43 -21 426 426">
      <g transform="scale(1 -1) translate(0 -384)">
        <path d="M256 21Q210 21 170.5 44.0Q131 67 108.0 106.5Q85 146 85.0 192.0Q85 238 108.0 277.5Q131 317 170.5 340.0Q210 363 256.0 363.0Q302 363 341.5 340.0Q381 317 404.0 277.5Q427 238 427.0 192.0Q427 146 404.0 106.5Q381 67 341.5 44.0Q302 21 256 21ZM256 405Q214 405 174.5 389.0Q135 373 105.0 343.0Q75 313 59.0 273.5Q43 234 43.0 192.0Q43 150 59.0 110.5Q75 71 105.0 41.0Q135 11 174.5 -5.0Q214 -21 256.0 -21.0Q298 -21 337.5 -5.0Q377 11 407.0 41.0Q437 71 453.0 110.5Q469 150 469.0 192.0Q469 234 453.0 273.5Q437 313 407.0 343.0Q377 373 337.5 389.0Q298 405 256 405ZM256 181Q243 181 233.5 190.5Q224 200 224.0 213.5Q224 227 233.5 236.0Q243 245 256.0 245.0Q269 245 278.5 236.0Q288 227 288.0 213.5Q288 200 278.5 190.5Q269 181 256 181ZM256 294Q222 294 198.5 270.5Q175 247 175 213Q175 191 188 165Q198 143 215 120Q228 103 243 87L256 75L269 87Q284 103 297 120Q314 143 324 165Q337 191 337 213Q337 247 313.5 270.5Q290 294 256 294Z" />
      </g>
    </svg>