<svg xmlns="http://www.w3.org/2000/svg" viewBox="43 -21 448 426">
      <g transform="scale(1 -1) translate(0 -384)">
        <path d="M192 203Q170 203 154.5 218.5Q139 234 139.0 256.0Q139 278 154.5 293.5Q170 309 192.0 309.0Q214 309 229.5 293.5Q245 278 245.0 256.0Q245 234 229.5 218.5Q214 203 192 203ZM192 405Q151 405 117.0 385.0Q83 365 63.0 331.0Q43 297 43.0 257.5Q43 218 66 165Q85 124 117 75Q141 41 169 6L192 -21L215 6Q243 41 267 75Q299 124 318 165Q341 217 341.0 257.0Q341 297 321.0 331.0Q301 365 267.0 385.0Q233 405 192 405ZM384 85 491 192 384 299Z" />
      </g>
    </svg>