<svg xmlns="http://www.w3.org/2000/svg" viewBox="107 -21 298 426">
      <g transform="scale(1 -1) translate(0 -384)">
        <path d="M256 363Q285 363 309.5 348.5Q334 334 348.5 309.5Q363 285 363 256Q363 214 326 149Q299 100 256 45Q213 100 186 149Q149 214 149 256Q149 285 163.5 309.5Q178 334 202.5 348.5Q227 363 256 363ZM256 405Q215 405 181.0 385.0Q147 365 127.0 331.0Q107 297 107 256Q107 218 130 166Q149 124 181 76Q205 41 233 6L256 -21L279 6Q307 41 331 76Q363 124 382 166Q405 218 405 256Q405 297 385.0 331.0Q365 365 331.0 385.0Q297 405 256 405ZM256 235Q283 235 309 224Q341 211 341 192V189Q325 170 303.0 159.5Q281 149 256.0 149.0Q231 149 209.0 159.5Q187 170 171 189V192Q171 211 203 224Q229 235 256 235ZM256 256Q238 256 225.5 268.5Q213 281 213.0 298.5Q213 316 225.5 328.5Q238 341 256.0 341.0Q274 341 286.5 328.5Q299 316 299.0 298.5Q299 281 286.5 268.5Q274 256 256 256Z" />
      </g>
    </svg>