<svg xmlns="http://www.w3.org/2000/svg" viewBox="43 -21 443 426">
      <g transform="scale(1 -1) translate(0 -384)">
        <path d="M354 145 324 115 375 64 324 13 354 -17 405 34 457 -17 486 13 435 64 486 115 457 145 405 94ZM192 309Q214 309 229.5 293.5Q245 278 245.0 256.0Q245 234 229.5 218.5Q214 203 192.0 203.0Q170 203 154.5 218.5Q139 234 139.0 256.0Q139 278 154.5 293.5Q170 309 192 309ZM192 405Q233 405 267.0 385.0Q301 365 321.0 331.0Q341 297 341 256Q341 207 303 135Q275 83 231 26Q209 -3 192 -21L169 6Q141 41 117 76Q85 124 66 166Q43 218 43 256Q43 297 63.0 331.0Q83 365 117.0 385.0Q151 405 192 405ZM192 363Q163 363 138.5 348.5Q114 334 99.5 309.5Q85 285 85 256Q85 239 89 225Q96 198 117 162Q143 114 192 49Q241 114 267 162Q288 198 295 225Q299 239 299 256Q299 285 284.5 309.5Q270 334 245.5 348.5Q221 363 192 363Z" />
      </g>
    </svg>