<svg xmlns="http://www.w3.org/2000/svg" viewBox="43 -21 426 426">
      <g transform="scale(1 -1) translate(0 -384)">
        <path d="M139 275Q124 275 114.0 285.0Q104 295 104.0 309.5Q104 324 114.0 334.0Q124 344 138.5 344.0Q153 344 163.0 334.0Q173 324 173 309Q173 295 163.0 285.0Q153 275 139 275ZM139 405Q99 405 71.0 377.0Q43 349 43 309Q43 264 91 193Q115 158 139 131L154 149Q172 171 187 193Q208 224 220 251Q235 285 235 309Q235 349 207.0 377.0Q179 405 139 405ZM373 275Q359 275 349.0 285.0Q339 295 339.0 309.5Q339 324 349.0 334.0Q359 344 373.5 344.0Q388 344 398.0 334.0Q408 324 408.0 309.5Q408 295 398.0 285.0Q388 275 373 275ZM373 405Q333 405 305.0 377.0Q277 349 277 309Q277 264 325 193Q349 158 373 131L388 149Q406 171 421 193Q442 224 454 251Q469 285 469 309Q469 349 441.0 377.0Q413 405 373 405ZM373 107Q353 107 336.5 95.0Q320 83 313 64H199Q190 89 166.0 100.5Q142 112 117.0 103.0Q92 94 80.5 70.0Q69 46 78.0 21.0Q87 -4 111.0 -15.0Q135 -26 160 -18Q173 -13 183.5 -2.5Q194 8 199 21H313Q322 -4 346.0 -15.5Q370 -27 395.0 -18.0Q420 -9 431.5 15.0Q443 39 434 64Q427 83 410.5 95.0Q394 107 373 107ZM373 11Q360 11 350.5 20.0Q341 29 341.0 42.5Q341 56 350.5 65.5Q360 75 373.5 75.0Q387 75 396.0 65.5Q405 56 405.0 42.5Q405 29 396.0 20.0Q387 11 373 11Z" />
      </g>
    </svg>