<svg xmlns="http://www.w3.org/2000/svg" viewBox="21 -21 448 426">
      <g transform="scale(1 -1) translate(0 -384)">
        <path d="M320 203Q298 203 282.5 218.5Q267 234 267.0 256.0Q267 278 282.5 293.5Q298 309 320.0 309.0Q342 309 357.5 293.5Q373 278 373.0 256.0Q373 234 357.5 218.5Q342 203 320 203ZM171 256Q171 218 194 165Q213 124 245 75Q269 41 297 6L320 -21L343 6Q371 41 395 75Q427 124 446 165Q469 218 469.0 257.5Q469 297 449.0 331.0Q429 365 395.0 385.0Q361 405 320.0 405.0Q279 405 245.0 385.0Q211 365 191.0 331.0Q171 297 171 256ZM128 299 21 192 128 85Z" />
      </g>
    </svg>