<svg xmlns="http://www.w3.org/2000/svg" viewBox="21 -21 448 426">
      <g transform="scale(1 -1) translate(0 -384)">
        <path d="M320 309Q342 309 357.5 293.5Q373 278 373.0 256.0Q373 234 357.5 218.5Q342 203 320.0 203.0Q298 203 282.5 218.5Q267 234 267.0 256.0Q267 278 282.5 293.5Q298 309 320 309ZM320 405Q361 405 395.0 385.0Q429 365 449.0 331.0Q469 297 469 256Q469 206 431 134Q403 83 359 26Q337 -3 320 -21L297 6Q269 41 245 75Q213 124 194 165Q171 217 171.0 257.0Q171 297 191.0 331.0Q211 365 245.0 385.0Q279 405 320 405ZM213 256Q213 239 217 225Q224 198 245 161Q271 114 320 49Q369 114 395 161Q416 198 423 225Q427 239 427 256Q427 285 412.5 309.5Q398 334 373.5 348.5Q349 363 320.0 363.0Q291 363 266.5 348.5Q242 334 227.5 309.5Q213 285 213 256ZM128 299 21 192 128 85Z" />
      </g>
    </svg>