<svg xmlns="http://www.w3.org/2000/svg" viewBox="107 -21 298 426">
      <g transform="scale(1 -1) translate(0 -384)">
        <path d="M256 203Q234 203 218.5 218.5Q203 234 203.0 256.0Q203 278 218.5 293.5Q234 309 256.0 309.0Q278 309 293.5 293.5Q309 278 309.0 256.0Q309 234 293.5 218.5Q278 203 256 203ZM256 405Q215 405 181.0 385.0Q147 365 127.0 331.0Q107 297 107.0 257.0Q107 217 130 165Q149 124 181 75Q205 41 233 6L256 -21L279 6Q307 41 331 75Q363 124 382 165Q405 217 405.0 257.0Q405 297 385.0 331.0Q365 365 331.0 385.0Q297 405 256 405Z" />
      </g>
    </svg>