<svg xmlns="http://www.w3.org/2000/svg" viewBox="43 -21 448 426">
      <g transform="scale(1 -1) translate(0 -384)">
        <path d="M192 203Q214 203 229.5 218.5Q245 234 245.0 256.0Q245 278 229.5 293.5Q214 309 192.0 309.0Q170 309 154.5 293.5Q139 278 139.0 256.0Q139 234 154.5 218.5Q170 203 192 203ZM192 405Q233 405 267.0 385.0Q301 365 321.0 331.0Q341 297 341 256Q341 206 303 134Q275 83 231 26Q209 -3 192 -21L169 6Q141 41 117 75Q85 124 66 165Q43 217 43.0 257.0Q43 297 63.0 331.0Q83 365 117.0 385.0Q151 405 192 405ZM320 85H384V149H427V85H491V43H427V-21H384V43H320Z" />
      </g>
    </svg>