<svg xmlns="http://www.w3.org/2000/svg" viewBox="43 -43 448 448">
      <g transform="scale(1 -1) translate(0 -362)">
        <path d="M320 192H352V101L413 65L397 39L320 85ZM341 256Q363 256 384 250V348L320 323V255Q327 256 341 256ZM491 107Q491 66 470.5 32.0Q450 -2 416.0 -22.5Q382 -43 341 -43Q294 -43 255.5 -15.5Q217 12 201 55L171 66L57 22L53 21Q49 21 46.0 24.5Q43 28 43 32V355Q43 362 50 365L171 405L299 361L413 405H416Q420 405 423.5 402.0Q427 399 427 395V229Q456 209 473.5 176.5Q491 144 491 107ZM192 107Q192 151 215.5 187.0Q239 223 277 242V323L192 353V104ZM341 213Q312 213 287.5 199.0Q263 185 249.0 160.5Q235 136 235.0 107.0Q235 78 249.0 53.5Q263 29 287.5 14.5Q312 0 341.0 0.0Q370 0 394.5 14.5Q419 29 433.5 53.5Q448 78 448.0 107.0Q448 136 433.5 160.5Q419 185 394.5 199.0Q370 213 341 213ZM85 332V79L149 103V353Z" />
      </g>
    </svg>