<svg xmlns="http://www.w3.org/2000/svg" viewBox="107 -21 298 426">
      <g transform="scale(1 -1) translate(0 -384)">
        <path d="M256 309Q278 309 293.5 293.5Q309 278 309.0 256.0Q309 234 293.5 218.5Q278 203 256.0 203.0Q234 203 218.5 218.5Q203 234 203.0 256.0Q203 278 218.5 293.5Q234 309 256 309ZM256 405Q297 405 331.0 385.0Q365 365 385.0 331.0Q405 297 405 256Q405 206 367 134Q339 83 295 26Q273 -3 256 -21L233 6Q205 41 181 75Q149 124 130 165Q107 217 107.0 257.0Q107 297 127.0 331.0Q147 365 181.0 385.0Q215 405 256 405ZM256 363Q227 363 202.5 348.5Q178 334 163.5 309.5Q149 285 149 256Q149 239 153 225Q160 198 181 161Q207 114 256 49Q305 114 331 161Q352 198 359 225Q363 239 363 256Q363 285 348.5 309.5Q334 334 309.5 348.5Q285 363 256 363Z" />
      </g>
    </svg>