<svg xmlns="http://www.w3.org/2000/svg" viewBox="43 -21 426 426">
      <g transform="scale(1 -1) translate(0 -384)">
        <path d="M256 405Q298 405 337.5 389.0Q377 373 407.0 343.0Q437 313 453.0 273.5Q469 234 469.0 192.0Q469 150 453.0 110.5Q437 71 407.0 41.0Q377 11 337.5 -5.0Q298 -21 256.0 -21.0Q214 -21 174.5 -5.0Q135 11 105.0 41.0Q75 71 59.0 110.5Q43 150 43.0 192.0Q43 234 59.0 273.5Q75 313 105.0 343.0Q135 373 174.5 389.0Q214 405 256 405ZM357 140Q377 160 383.5 187.0Q390 214 382.5 241.5Q375 269 354.0 290.0Q333 311 305.5 318.5Q278 326 251.0 319.5Q224 313 204 293Q179 268 165 231Q154 201 151 164Q149 138 152 112L154 90L176 88Q202 85 228 88Q265 90 295 101Q332 115 357 140ZM281 280 301 237 344 217 301 196 281 153 260 196 217 217 260 237Z" />
      </g>
    </svg>