<svg xmlns="http://www.w3.org/2000/svg" viewBox="75 11 352 352">
      <g transform="scale(1 -1) translate(0 -374)">
        <path d="M427 363V256L395 288L117 11L75 53L352 331L320 363ZM363 21Q336 21 317.5 40.0Q299 59 299 85V128Q299 155 317.5 173.5Q336 192 362.5 192.0Q389 192 408.0 173.5Q427 155 427 128V85Q427 59 408.0 40.0Q389 21 363 21ZM363 149Q354 149 347.5 143.0Q341 137 341 128V85Q341 76 347.5 70.0Q354 64 363.0 64.0Q372 64 378.0 70.0Q384 76 384 85V128Q384 137 378.0 143.0Q372 149 363 149ZM149 192Q123 192 104.0 210.5Q85 229 85 256V299Q85 325 104.0 344.0Q123 363 149.5 363.0Q176 363 194.5 344.0Q213 325 213 299V256Q213 229 194.5 210.5Q176 192 149 192ZM149 320Q140 320 134.0 314.0Q128 308 128 299V256Q128 247 134.0 241.0Q140 235 149.0 235.0Q158 235 164.5 241.0Q171 247 171 256V299Q171 308 164.5 314.0Q158 320 149 320Z" />
      </g>
    </svg>