<svg xmlns="http://www.w3.org/2000/svg" viewBox="14 -21 483 444">
      <g transform="scale(1 -1) translate(0 -402)">
        <path d="M373 171Q413 171 441.0 143.0Q469 115 469.0 75.0Q469 35 441.0 7.0Q413 -21 373.0 -21.0Q333 -21 305.0 7.0Q277 35 277.0 75.0Q277 115 305.0 143.0Q333 171 373 171ZM373 139Q355 139 341 130L428 43Q437 57 437 75Q437 101 418.5 120.0Q400 139 373 139ZM309 75Q309 48 328.0 29.5Q347 11 373 11Q391 11 405 20L318 107Q309 93 309 75ZM395 423Q412 423 424 411L485 351Q497 338 497.0 320.5Q497 303 485 290L404 210Q389 213 373 213Q348 213 323 204L240 287L364 411Q377 423 395 423ZM220 267 296 190Q268 171 251.5 140.5Q235 110 235 75Q235 59 238 44L213 19Q201 6 183.5 6.0Q166 6 153 18L135 0H14L93 79Q80 92 80.0 109.5Q80 127 93 140Z" />
      </g>
    </svg>