<svg xmlns="http://www.w3.org/2000/svg" viewBox="57 -21 398 426">
      <g transform="scale(1 -1) translate(0 -384)">
        <path d="M447 149Q442 126 411.0 105.0Q380 84 341 80H340Q285 73 255.5 74.5Q226 76 195 81L171 86V73Q175 41 202 30Q218 23 257 21Q281 21 308 26Q321 28 330 31L332 -4L323 -8Q311 -12 297 -16Q278 -20 256 -21Q209 -24 157 -11Q100 5 77 65Q59 110 57 192V265Q57 297 66 323Q74 344 87 360Q97 371 108 379L117 385Q140 395 177 400Q213 405 255 405H257Q299 405 335 400Q372 395 395 385L404 379Q415 371 425 360Q438 344 446 323Q455 297 455 265L454 225Q452 179 447 149ZM384 258Q384 291 366.0 312.0Q348 333 318 333Q284 333 267 307L256 288L245 307Q227 333 193 333Q164 333 146.0 312.0Q128 291 128 258V146H173V255Q173 289 202 289Q234 289 234 248V189H278V248Q278 289 310 289Q339 289 339 255V146H384Z" />
      </g>
    </svg>