<svg xmlns="http://www.w3.org/2000/svg" viewBox="21 -43 470 470">
      <g transform="scale(1 -1) translate(0 -384)">
        <path d="M448 192Q448 257 405 312V72Q448 125 448 192ZM376 43H136Q156 26 192.0 13.0Q228 0 256.0 0.0Q284 0 319.5 13.0Q355 26 376 43ZM235 85 149 256V85ZM363 256 277 85H363ZM256 138 336 299H176ZM376 341Q323 384 256.0 384.0Q189 384 136 341ZM107 72V312Q64 257 64.0 191.0Q64 125 107 72ZM491 192Q491 94 422.5 25.5Q354 -43 256.5 -43.0Q159 -43 90.0 25.5Q21 94 21.0 191.5Q21 289 90.0 358.0Q159 427 256.5 427.0Q354 427 422.5 358.0Q491 289 491 192Z" />
      </g>
    </svg>