<svg xmlns="http://www.w3.org/2000/svg" viewBox="85 -21 342 426">
      <g transform="scale(1 -1) translate(0 -384)">
        <path d="M427 24V-21L388 4L286 196Q307 202 324 217ZM320 299Q320 272 301.5 253.5Q283 235 256 235H247L124 4L85 -21V24L209 256Q191 276 192.5 302.5Q194 329 213.0 346.0Q232 363 256 363V405Q265 405 271.0 399.0Q277 393 277 384V359Q297 352 308.5 335.5Q320 319 320 299ZM277 299Q277 308 271.0 314.0Q265 320 256.0 320.0Q247 320 241.0 314.0Q235 308 235.0 299.0Q235 290 241.0 283.5Q247 277 256.0 277.0Q265 277 271.0 283.5Q277 290 277 299Z" />
      </g>
    </svg>