<svg xmlns="http://www.w3.org/2000/svg" viewBox="43 85 426 214">
      <g transform="scale(1 -1) translate(0 -384)">
        <path d="M384 299Q366 299 353.5 286.5Q341 274 341 256V128Q341 110 353.5 97.5Q366 85 384 85H427Q444 85 456.5 97.5Q469 110 469 128V213H427V128H384V256H469V299ZM43 299V85H171V128H85V299ZM235 299Q217 299 204.5 286.5Q192 274 192 256V128Q192 110 204.5 97.5Q217 85 235 85H277Q295 85 307.5 97.5Q320 110 320 128V256Q320 274 307.5 286.5Q295 299 277 299ZM235 256H277V128H235Z" />
      </g>
    </svg>