<svg xmlns="http://www.w3.org/2000/svg" viewBox="64 0 384 384">
      <g transform="scale(1 -1) translate(0 -384)">
        <path d="M405 384H107Q89 384 76.5 371.5Q64 359 64 341V43Q64 25 76.5 12.5Q89 0 107 0H405Q423 0 435.5 12.5Q448 25 448 43V341Q448 359 435.5 371.5Q423 384 405 384ZM339 301Q335 302 331 304Q322 307 318 307Q308 309 301.5 304.0Q295 299 292 284L256 90Q249 63 235 51Q223 43 207 43Q196 43 179 48L164 53L175 83L184 80Q194 77 196 77Q203 75 211 79Q215 81 220 94L254 290Q257 312 275 331Q293 343 320 339Q329 338 342 333L352 329Z" />
      </g>
    </svg>