<svg xmlns="http://www.w3.org/2000/svg" viewBox="43 -21 426 426">
      <g transform="scale(1 -1) translate(0 -384)">
        <path d="M43 405H128V363H85V21H128V-21H43ZM427 363H384V405H469V-21H384V21H427ZM192 341H213V235H235V213H171V235H192V320L171 309V331ZM320 171H341V64H363V43H299V64H320V149L299 139V160ZM192 171Q210 171 222.5 152.0Q235 133 235.0 106.5Q235 80 222.5 61.5Q210 43 192.0 43.0Q174 43 161.5 61.5Q149 80 149.0 106.5Q149 133 161.5 152.0Q174 171 192 171ZM192 149Q183 149 177.0 136.5Q171 124 171.0 106.5Q171 89 177.0 76.5Q183 64 192.0 64.0Q201 64 207.0 76.5Q213 89 213.0 106.5Q213 124 207.0 136.5Q201 149 192 149ZM320 341Q338 341 350.5 322.5Q363 304 363.0 277.5Q363 251 350.5 232.0Q338 213 320.0 213.0Q302 213 289.5 232.0Q277 251 277.0 277.5Q277 304 289.5 322.5Q302 341 320 341ZM320 320Q311 320 305.0 307.5Q299 295 299.0 277.5Q299 260 305.0 247.5Q311 235 320.0 235.0Q329 235 335.0 247.5Q341 260 341.0 277.5Q341 295 335.0 307.5Q329 320 320 320Z" />
      </g>
    </svg>