<svg xmlns="http://www.w3.org/2000/svg" viewBox="85 -43 342 448">
      <g transform="scale(1 -1) translate(0 -362)">
        <path d="M319 32 256 69 193 32 210 103 155 151 227 157 256 224 285 157 357 151 302 103ZM427 405H85V363L189 285Q152 269 126.5 239.0Q101 209 91.0 171.0Q81 133 89.0 94.0Q97 55 121.0 23.5Q145 -8 180.5 -25.5Q216 -43 256.0 -43.0Q296 -43 331.5 -25.5Q367 -8 391.0 23.5Q415 55 423.0 94.0Q431 133 421.0 171.0Q411 209 385.5 239.0Q360 269 323 285L427 363ZM384 128Q384 95 368.0 66.5Q352 38 325.0 20.0Q298 2 264.5 0.0Q231 -2 201.5 12.0Q172 26 152.5 52.0Q133 78 129.0 111.0Q125 144 137.0 174.5Q149 205 173.5 226.0Q198 247 231 253Q256 259 281 253Q326 244 355.0 209.0Q384 174 384 128ZM269 299H243L157 363H356Z" />
      </g>
    </svg>