<svg xmlns="http://www.w3.org/2000/svg" viewBox="64 21 384 342">
      <g transform="scale(1 -1) translate(0 -384)">
        <path d="M256 363Q274 363 286.5 350.5Q299 338 299.0 320.0Q299 302 286.5 289.5Q274 277 256.0 277.0Q238 277 225.5 289.5Q213 302 213.0 320.0Q213 338 225.5 350.5Q238 363 256 363ZM448 107V149Q412 149 382.0 164.0Q352 179 329 207L300 241Q287 256 267 256H245Q225 256 212 241L184 207Q135 149 64 149V107Q108 107 146.0 124.5Q184 142 213 176V128L131 95Q120 91 113.5 81.0Q107 71 107 60Q107 44 118.0 32.5Q129 21 145 21H192V32Q192 54 207.5 69.5Q223 85 245 85H309Q314 85 317.0 82.0Q320 79 320.0 74.5Q320 70 317.0 67.0Q314 64 309 64H245Q232 64 222.5 54.5Q213 45 213 32V21H367Q383 21 394.0 32.5Q405 44 405 60Q405 71 398.5 81.0Q392 91 381 95L299 128V176Q328 142 366.0 124.5Q404 107 448 107Z" />
      </g>
    </svg>