<svg xmlns="http://www.w3.org/2000/svg" viewBox="43 -21 426 426">
      <g transform="scale(1 -1) translate(0 -384)">
        <path d="M448 213V320L405 341V213H363V320L320 341V213H277V384L235 405V213H192V320L149 341V213H107V320L64 341V213Q55 213 49.0 207.0Q43 201 43.0 192.0Q43 183 49.0 177.0Q55 171 64 171H91Q105 133 136 105Q176 70 235 65V21H213Q196 21 183.5 8.5Q171 -4 171 -21H341Q341 -4 328.5 8.5Q316 21 299 21H277V65Q336 71 376 106Q408 133 421 171H448Q457 171 463.0 177.0Q469 183 469.0 192.0Q469 201 463.0 207.0Q457 213 448 213ZM235 108Q197 112 170 133Q150 148 138 171H235ZM277 108V171H374Q362 148 342 133Q315 112 277 108Z" />
      </g>
    </svg>