<svg xmlns="http://www.w3.org/2000/svg" viewBox="43 -21 426 426">
      <g transform="scale(1 -1) translate(0 -384)">
        <path d="M459 210V235Q459 243 452.5 249.5Q446 256 437 256H416Q407 256 401.0 249.5Q395 243 395 235V213H373V235Q373 243 367.0 249.5Q361 256 352 256H331Q322 256 315.5 249.5Q309 243 309 235V213H288V277Q288 286 281.5 292.5Q275 299 267 299H245Q237 299 230.5 292.5Q224 286 224 277V213H203V235Q203 243 196.5 249.5Q190 256 181 256H160Q151 256 145.0 249.5Q139 243 139 235V213H117V235Q117 243 111.0 249.5Q105 256 96 256H75Q66 256 59.5 249.5Q53 243 53 235V210Q43 204 43 192Q43 183 49.0 177.0Q55 171 64 171H91Q105 133 136 105Q176 70 235 65V21H213Q196 21 183.5 8.5Q171 -4 171 -21H341Q341 -4 328.5 8.5Q316 21 299 21H277V65Q336 71 376 106Q408 133 421 171H448Q457 171 463.0 177.0Q469 183 469 192Q469 204 459 210ZM138 171H235V108Q197 112 170 133Q150 148 138 171ZM277 108V171H374Q362 148 342 133Q315 112 277 108ZM256 320Q269 320 278.5 329.5Q288 339 288.0 353.0Q288 367 279 385Q268 405 256.0 405.0Q244 405 233 385Q224 367 224.0 353.0Q224 339 233.5 329.5Q243 320 256 320ZM256 357Q260 357 263.5 354.0Q267 351 267.0 346.5Q267 342 263.5 339.0Q260 336 256.0 336.0Q252 336 248.5 339.0Q245 342 245.0 346.5Q245 351 248.5 354.0Q252 357 256 357ZM341 277Q355 277 364.0 286.5Q373 296 373.0 310.5Q373 325 364 343Q354 363 341.5 363.0Q329 363 319 343Q309 325 309.0 310.5Q309 296 318.5 286.5Q328 277 341 277ZM341 315Q346 315 349.0 311.5Q352 308 352.0 304.0Q352 300 349.0 296.5Q346 293 341.5 293.0Q337 293 334.0 296.5Q331 300 331.0 304.0Q331 308 334.0 311.5Q337 315 341 315ZM427 277Q440 277 449.5 286.5Q459 296 459.0 310.5Q459 325 449 343Q439 363 426.5 363.0Q414 363 404 343Q395 325 395.0 310.5Q395 296 404.0 286.5Q413 277 427 277ZM427 315Q431 315 434.0 311.5Q437 308 437.0 304.0Q437 300 434.0 296.5Q431 293 426.5 293.0Q422 293 419.0 296.5Q416 300 416.0 304.0Q416 308 419.0 311.5Q422 315 427 315ZM85 277Q99 277 108.0 286.5Q117 296 117.0 310.5Q117 325 108 343Q98 363 85.5 363.0Q73 363 63 343Q53 325 53.0 310.5Q53 296 62.5 286.5Q72 277 85 277ZM85 315Q90 315 93.0 311.5Q96 308 96.0 304.0Q96 300 93.0 296.5Q90 293 85.5 293.0Q81 293 78.0 296.5Q75 300 75.0 304.0Q75 308 78.0 311.5Q81 315 85 315ZM171 277Q184 277 193.5 286.5Q203 296 203.0 310.5Q203 325 193 343Q183 363 170.5 363.0Q158 363 148 343Q139 325 139.0 310.5Q139 296 148.0 286.5Q157 277 171 277ZM171 315Q175 315 178.0 311.5Q181 308 181.0 304.0Q181 300 178.0 296.5Q175 293 170.5 293.0Q166 293 163.0 296.5Q160 300 160.0 304.0Q160 308 163.0 311.5Q166 315 171 315Z" />
      </g>
    </svg>