<svg xmlns="http://www.w3.org/2000/svg" viewBox="43 -21 426 426">
      <g transform="scale(1 -1) translate(0 -384)">
        <path d="M427 405H85Q68 405 55.5 392.5Q43 380 43 363V-21L128 64H427Q444 64 456.5 76.5Q469 89 469 107V363Q469 380 456.5 392.5Q444 405 427 405ZM427 107H111L85 81V363H427ZM358 207 335 224V245L358 262Q361 265 361 269L339 305Q335 309 333 307L305 299L301 302Q292 308 286 309L282 337Q282 339 280.5 340.0Q279 341 277 341H235Q233 341 231.5 340.0Q230 339 230 337L226 309Q223 307 216.5 304.0Q210 301 207 299L181 309Q177 309 175 307L154 271Q151 269 156 265L179 247V226L156 209Q154 207 154 203L175 166Q179 162 181 164L207 171L212 167Q220 161 224 160L228 132Q228 128 235 128H277Q279 128 280.5 129.5Q282 131 282 132L286 160Q295 163 303 171L329 160Q333 160 335 162L356 198Q362 204 358 207ZM256 203Q243 203 233.5 212.5Q224 222 224.0 234.5Q224 247 233.5 257.0Q243 267 256.0 267.0Q269 267 278.5 257.0Q288 247 288.0 234.5Q288 222 278.5 212.5Q269 203 256 203Z" />
      </g>
    </svg>