<svg xmlns="http://www.w3.org/2000/svg" viewBox="43 -21 426 426">
      <g transform="scale(1 -1) translate(0 -384)">
        <path d="M427 405H85Q68 405 55.5 392.5Q43 380 43 363V-21L128 64H427Q444 64 456.5 76.5Q469 89 469 107V363Q469 380 456.5 392.5Q444 405 427 405ZM427 107H111L85 81V363H427ZM260 331Q233 331 215 320Q195 306 198 284H241Q241 293 247 297Q256 301 262 301Q273 301 279.5 294.5Q286 288 286.0 280.5Q286 273 282 265Q273 256 269 254Q253 244 245 237Q239 232 237.0 227.0Q235 222 235 213H277Q277 217 279 222V228Q281 231 286 235L290 239Q303 244 314 258Q322 270 322 284Q322 306 305 320Q291 331 260 331ZM235 192V149H277V192Z" />
      </g>
    </svg>