<svg xmlns="http://www.w3.org/2000/svg" viewBox="43 -21 469 469">
      <g transform="scale(1 -1) translate(0 -427)">
        <path d="M491 384V395Q491 417 475.5 432.5Q460 448 437.5 448.0Q415 448 399.5 432.5Q384 417 384 395V384Q376 384 369.5 377.5Q363 371 363 363V277Q363 269 369.5 262.5Q376 256 384 256H491Q499 256 505.5 262.5Q512 269 512 277V363Q512 371 505.5 377.5Q499 384 491 384ZM469 384H405V395Q405 407 415.0 417.0Q425 427 437.5 427.0Q450 427 459.5 417.0Q469 407 469 395ZM469 213V107Q469 89 456.5 76.5Q444 64 427 64H128L43 -21V363Q43 380 55.5 392.5Q68 405 85 405H320V363H85V81L111 107H427V213Z" />
      </g>
    </svg>