<svg xmlns="http://www.w3.org/2000/svg" viewBox="43 -21 426 426">
      <g transform="scale(1 -1) translate(0 -384)">
        <path d="M288 235Q288 221 278.5 212.0Q269 203 256.0 203.0Q243 203 233.5 212.0Q224 221 224.0 234.5Q224 248 233.5 257.5Q243 267 256.0 267.0Q269 267 278.5 257.5Q288 248 288 235ZM469 363V107Q469 89 456.5 76.5Q444 64 427 64H128L43 -21V363Q43 380 55.5 392.5Q68 405 85 405H427Q444 405 456.5 392.5Q469 380 469 363ZM358 207 335 224Q335 229 335.5 234.5Q336 240 335 245L358 263Q361 266 359 270L337 307Q336 310 331 309L304 299Q295 306 286 309L282 337Q282 341 277 341H235Q230 341 229 337L225 309Q216 305 207 299L180 309Q176 311 174 307L153 270Q150 266 154 263L176 245Q175 235 176 224L154 207Q150 204 153 200L174 163Q176 159 180 160L207 171Q216 164 225 160L229 132Q230 128 235 128H277Q282 128 283 132L287 161Q294 164 305 171L331 160Q337 160 338 163L359 200Q361 204 358 207Z" />
      </g>
    </svg>