<svg xmlns="http://www.w3.org/2000/svg" viewBox="43 -43 448 448">
      <g transform="scale(1 -1) translate(0 -362)">
        <path d="M469 183V363Q469 380 456.5 392.5Q444 405 427 405H85Q68 405 55.5 392.5Q43 380 43 363V-21L128 64H198Q212 17 251.5 -13.0Q291 -43 341 -43Q382 -43 416.0 -23.0Q450 -3 470.5 31.5Q491 66 491.0 107.0Q491 148 469 183ZM110 107 85 82V363H427V229Q388 256 341 256Q312 256 285.0 244.5Q258 233 237 213H128V171H207Q192 140 192 107ZM341 3Q313 3 289.5 17.0Q266 31 252.0 55.0Q238 79 238.0 107.0Q238 135 252.0 158.5Q266 182 289.5 196.0Q313 210 341.0 210.0Q369 210 393.0 196.0Q417 182 431.0 158.5Q445 135 445.0 107.0Q445 79 431.0 55.0Q417 31 393.0 17.0Q369 3 341 3ZM384 256H128V299H384ZM352 111 404 80 388 53 320 92V171H352Z" />
      </g>
    </svg>