<svg xmlns="http://www.w3.org/2000/svg" viewBox="0 0 469 341">
      <g transform="scale(1 -1) translate(0 -341)">
        <path d="M213 203H363V171H213ZM213 267H405V235H213ZM427 341H192Q174 341 161.5 328.5Q149 316 149 299V0L235 85H427Q444 85 456.5 97.5Q469 110 469 128V299Q469 316 456.5 328.5Q444 341 427 341ZM427 128H218L192 102V299H427ZM64 299Q54 299 48.5 293.0Q43 287 43.0 277.5Q43 268 48.5 262.0Q54 256 64 256H107V299ZM43 213Q33 213 27.0 207.5Q21 202 21.0 192.0Q21 182 27.0 176.5Q33 171 43 171H107V213ZM21 128Q12 128 6.0 122.0Q0 116 0.0 106.5Q0 97 6.0 91.0Q12 85 21 85H107V128Z" />
      </g>
    </svg>