<svg xmlns="http://www.w3.org/2000/svg" viewBox="43 -21 469 469">
      <g transform="scale(1 -1) translate(0 -427)">
        <path d="M437 448Q415 448 399.5 432.5Q384 417 384 395V384Q375 384 369.0 378.0Q363 372 363 363V277Q363 268 369.0 262.0Q375 256 384 256H491Q500 256 506.0 262.0Q512 268 512 277V363Q512 372 506.0 378.0Q500 384 491 384V395Q491 417 475.0 432.5Q459 448 437 448ZM437 427Q451 427 460.0 417.5Q469 408 469 395V384H405V395Q405 408 414.5 417.5Q424 427 437 427ZM85 405Q68 405 55.5 392.5Q43 380 43 363V-21L128 64H427Q444 64 456.5 76.5Q469 89 469 107V213H363Q345 213 332.5 225.5Q320 238 320 256V405ZM128 320H277V277H128ZM128 256H277V213H128ZM128 192H299V149H128Z" />
      </g>
    </svg>