<svg xmlns="http://www.w3.org/2000/svg" viewBox="43 -21 469 469">
      <g transform="scale(1 -1) translate(0 -427)">
        <path d="M491 384V395Q491 417 475.0 432.5Q459 448 437.0 448.0Q415 448 399.5 432.5Q384 417 384 395V384Q375 384 369.0 377.5Q363 371 363 363V277Q363 269 369.0 262.5Q375 256 384 256H491Q499 256 505.5 262.5Q512 269 512 277V363Q512 371 505.5 377.5Q499 384 491 384ZM469 384H405V395Q405 408 414.5 417.5Q424 427 437.5 427.0Q451 427 460.0 417.5Q469 408 469 395ZM128 213H320V171H128ZM128 299H320V256H128ZM469 213V107Q469 89 456.5 76.5Q444 64 427 64H128L43 -21V363Q43 380 55.5 392.5Q68 405 85 405H320V363H85V82L110 107H427V213Z" />
      </g>
    </svg>