<svg xmlns="http://www.w3.org/2000/svg" viewBox="60 -2 394 386">
      <g transform="scale(1 -1) translate(0 -382)">
        <path d="M60 384 420 47 421 44Q423 40 422.5 36.0Q422 32 418 28Q412 22 404 23Q400 24 397 26ZM167 350 446 93 448 90Q449 87 448.5 83.0Q448 79 444.0 74.5Q440 70 435.5 69.5Q431 69 427 71L424 73ZM92 277 371 21 372 18Q374 14 373.5 10.0Q373 6 369.0 2.0Q365 -2 360.5 -2.5Q356 -3 352 -2L349 0ZM257 321 452 141 454 137Q455 132 451.0 128.0Q447 124 441 125Q439 126 437 127ZM116 194 311 14 313 10Q314 5 310.0 1.0Q306 -3 301 -2Q298 -1 296 0ZM349 279 438 198 439 196Q439 193 437.0 190.5Q435 188 431 191ZM161 105 250 23 251 21Q252 19 249.5 16.5Q247 14 243 17Z" />
      </g>
    </svg>