<svg xmlns="http://www.w3.org/2000/svg" viewBox="64 -21 384 426">
      <g transform="scale(1 -1) translate(0 -384)">
        <path d="M448 213Q448 265 422.0 309.5Q396 354 352.0 379.5Q308 405 256.0 405.0Q204 405 160.0 379.5Q116 354 90.0 309.5Q64 265 64 213Q64 151 99.5 101.5Q135 52 192 32V-21H235V23Q242 21 256.0 21.0Q270 21 277 23V-21H320V32Q377 52 412.5 101.5Q448 151 448 213ZM256 64Q216 64 181.5 84.0Q147 104 127.0 138.5Q107 173 107.0 213.5Q107 254 127.0 288.0Q147 322 181.5 342.5Q216 363 256.0 363.0Q296 363 330.5 342.5Q365 322 385.0 288.0Q405 254 405.0 213.5Q405 173 385.0 138.5Q365 104 330.5 84.0Q296 64 256 64ZM171 299H341V256H171ZM272 235 208 171 235 144 208 117 240 85 304 149 277 176 304 203Z" />
      </g>
    </svg>