<svg xmlns="http://www.w3.org/2000/svg" viewBox="24 -37 448 448">
      <g transform="scale(1 -1) translate(0 -374)">
        <path d="M472 -10 51 411 24 384 70 338Q57 333 50.0 322.5Q43 312 43 299V85Q43 68 55.5 55.5Q68 43 85 43H365L445 -37ZM85 85V299H109L322 85ZM341 299V175L459 57Q469 70 469 85V299Q469 316 456.5 328.5Q444 341 427 341H175L218 299ZM405 299Q414 299 420.5 292.5Q427 286 427.0 277.5Q427 269 420.5 262.5Q414 256 405.5 256.0Q397 256 390.5 262.5Q384 269 384.0 277.5Q384 286 390.5 292.5Q397 299 405 299ZM405 213Q414 213 420.5 207.0Q427 201 427.0 192.0Q427 183 420.5 177.0Q414 171 405.5 171.0Q397 171 390.5 177.0Q384 183 384.0 192.0Q384 201 390.5 207.0Q397 213 405 213ZM277 239V256H320V196Z" />
      </g>
    </svg>