<svg xmlns="http://www.w3.org/2000/svg" viewBox="43 -43 384 427">
      <g transform="scale(1 -1) translate(0 -341)">
        <path d="M43 336 70 363 427 6 400 -21 341 37Q339 4 314.5 -19.5Q290 -43 255.5 -43.0Q221 -43 196.0 -18.0Q171 7 171 43V64H149L131 239Q120 250 114 265ZM192 384Q227 384 252.0 359.0Q277 334 277 299H188L130 357Q142 370 158.0 377.0Q174 384 192 384ZM253 239 252 235 209 277H275Q269 255 253 239ZM235 64H213V43Q213 25 225.5 12.5Q238 0 256.0 0.0Q274 0 286.5 12.5Q299 25 299 43V80L242 136ZM384 235H427L405 213L427 192H384Q366 192 353.5 179.5Q341 167 341 149V145L305 181Q315 206 336.0 220.5Q357 235 384 235ZM171 192Q171 183 177.0 177.0Q183 171 191.0 171.0Q199 171 204 174L174 204Q171 199 171 192Z" />
      </g>
    </svg>