<svg xmlns="http://www.w3.org/2000/svg" viewBox="42 -19 426 424">
      <g transform="scale(1 -1) translate(0 -386)">
        <path d="M232 120Q208 146 204 178Q194 163 188 146Q179 117 185.5 85.5Q192 54 212.0 28.5Q232 3 261 -7Q295 -19 337 -3Q372 10 404 38L411 46Q427 63 432 71Q442 87 431 89Q382 63 325.0 71.5Q268 80 232 120ZM244 244Q256 244 254.5 247.0Q253 250 244 255L236 260Q203 278 162.0 278.0Q121 278 90.0 261.0Q59 244 48 214Q36 182 49 141Q64 78 113.5 33.5Q163 -11 226 -19Q193 1 174.5 36.5Q156 72 156 111Q157 154 181 192Q206 233 244 244ZM59 272Q91 296 133.0 302.5Q175 309 215.5 297.0Q256 285 283 256Q301 236 307 211Q314 183 300 163Q283 145 302 133Q316 125 347 122Q375 120 388 123Q426 131 448 161Q468 188 469.0 225.5Q470 263 451 295Q424 348 369 378Q317 406 255 405Q191 406 137.0 369.5Q83 333 59 272Z" />
      </g>
    </svg>