<svg xmlns="http://www.w3.org/2000/svg" viewBox="43 -21 426 426">
      <g transform="scale(1 -1) translate(0 -384)">
        <path d="M469 165Q469 143 460.5 124.0Q452 105 437.5 90.5Q423 76 404.0 67.5Q385 59 363 59Q349 59 336 62Q334 44 326.0 29.0Q318 14 305.5 2.5Q293 -9 276.5 -15.0Q260 -21 241.5 -21.0Q223 -21 206.0 -14.0Q189 -7 176.5 6.0Q164 19 156.5 36.0Q149 53 149 72V79L150 85H60Q53 85 48.0 90.5Q43 96 43 103V281Q43 288 48.0 293.5Q53 299 60 299H123Q126 321 136.5 340.5Q147 360 163.0 374.5Q179 389 199.5 397.0Q220 405 244.0 405.0Q268 405 289.5 395.5Q311 386 327.5 370.0Q344 354 353.5 332.0Q363 310 363 285V279Q363 275 362 272Q384 272 403.5 263.5Q423 255 437.5 241.0Q452 227 460.5 207.5Q469 188 469 165ZM243 379Q225 379 209.5 373.0Q194 367 181.5 356.0Q169 345 161.0 330.5Q153 316 150 299H238Q245 299 250.5 293.5Q256 288 256 281V193L260 194Q263 207 270.0 219.0Q277 231 287.0 240.5Q297 250 309.0 257.5Q321 265 334 268Q336 277 336 285Q336 305 328.5 322.0Q321 339 308.5 351.5Q296 364 279.0 371.5Q262 379 243 379ZM151 123Q161 123 170.5 125.0Q180 127 187.0 131.5Q194 136 198.5 143.5Q203 151 203.0 162.0Q203 173 198.5 180.5Q194 188 187.0 193.0Q180 198 172 201L156 208Q149 210 144.5 213.5Q140 217 140.0 221.0Q140 225 142.5 227.0Q145 229 148.5 230.5Q152 232 155 232L162 233Q172 233 180.5 230.0Q189 227 197 222V253L180 258L171 259H161Q152 259 142.5 257.0Q133 255 125.0 250.0Q117 245 112.0 238.0Q107 231 107.0 220.0Q107 209 112.0 202.0Q117 195 124.0 190.0Q131 185 139 181L154 175Q161 172 166.0 169.0Q171 166 171.0 161.5Q171 157 168.5 154.5Q166 152 163.0 150.5Q160 149 156 149H149Q137 149 127.0 153.0Q117 157 108 164V131Q129 123 151 123ZM243 5Q256 5 268.5 10.5Q281 16 290.0 25.0Q299 34 304.0 46.0Q309 58 309.0 71.0Q309 84 305.0 95.0Q301 106 294.0 114.5Q287 123 277.5 129.0Q268 135 256 137V103Q256 96 250.5 90.5Q245 85 238 85H177Q176 79 176 72Q176 58 181.0 46.0Q186 34 195.5 25.0Q205 16 217.0 10.5Q229 5 243 5ZM363 85Q379 85 393.5 91.5Q408 98 419.0 109.0Q430 120 436.5 134.5Q443 149 443.0 165.0Q443 181 436.5 196.0Q430 211 419.0 222.0Q408 233 393.5 239.0Q379 245 362.5 245.0Q346 245 331.5 239.0Q317 233 306.0 222.0Q295 211 289.0 196.0Q283 181 283 165V156Q293 151 301.0 144.5Q309 138 316.0 129.5Q323 121 327.5 111.0Q332 101 334 91Q348 85 363 85Z" />
      </g>
    </svg>