<svg xmlns="http://www.w3.org/2000/svg" viewBox="43 0 448 405">
      <g transform="scale(1 -1) translate(0 -405)">
        <path d="M192 405Q219 405 237.5 386.5Q256 368 256 341V213Q256 187 237.5 168.0Q219 149 192.0 149.0Q165 149 146.5 168.0Q128 187 128 213V341Q128 368 146.5 386.5Q165 405 192 405ZM341 213Q341 177 324.5 145.0Q308 113 279.0 92.0Q250 71 213 65V0H171V65Q134 71 105.0 92.0Q76 113 59.5 145.0Q43 177 43 213H85Q85 184 99.5 159.5Q114 135 138.5 121.0Q163 107 192.0 107.0Q221 107 245.5 121.0Q270 135 284.5 159.5Q299 184 299 213ZM320 341H491V299H320Z" />
      </g>
    </svg>