<svg xmlns="http://www.w3.org/2000/svg" viewBox="107 -64 298 491">
      <g transform="scale(1 -1) translate(0 -363)">
        <path d="M405 235H369Q369 204 353.5 179.0Q338 154 311.5 140.0Q285 126 256.0 126.0Q227 126 200.5 140.0Q174 154 158.5 179.0Q143 204 143 235H107Q107 199 124.0 168.0Q141 137 170.5 117.0Q200 97 235 91V21H277V91Q312 97 341.5 117.0Q371 137 388.0 168.0Q405 199 405 235ZM320 -64H363V-21H320ZM235 -64H277V-21H235ZM256 171Q283 171 301.5 189.5Q320 208 320 235V363Q320 389 301.5 408.0Q283 427 256.0 427.0Q229 427 210.5 408.0Q192 389 192 363V235Q192 208 210.5 189.5Q229 171 256 171ZM149 -64H192V-21H149Z" />
      </g>
    </svg>