<svg xmlns="http://www.w3.org/2000/svg" viewBox="36 -9 432 414">
      <g transform="scale(1 -1) translate(0 -396)">
        <path d="M277 384 299 383Q344 403 380.5 404.5Q417 406 437 386Q453 370 455.0 343.5Q457 317 446 283Q469 241 469 192L468 171H194Q200 134 223.5 109.5Q247 85 277 85Q298 85 316.0 96.5Q334 108 346 128H459Q438 71 388.5 35.5Q339 0 277 0Q237 0 201 16Q153 -7 114.5 -9.5Q76 -12 55 9Q30 35 39.0 84.5Q48 134 85 192Q116 240 161 285L179 301Q130 272 89 231Q98 274 125.0 309.0Q152 344 192.0 364.0Q232 384 277 384ZM277 299Q249 299 226.5 278.0Q204 257 196 224H359Q351 257 328.5 278.0Q306 299 277 299ZM428 361Q407 382 357 367Q406 344 435 301Q446 343 428 361ZM83 21Q96 8 121.5 9.5Q147 11 180 26Q150 44 128.5 71.0Q107 98 95 131Q76 94 72.5 65.0Q69 36 83 21Z" />
      </g>
    </svg>