<svg xmlns="http://www.w3.org/2000/svg" viewBox="43 5 426 374">
      <g transform="scale(1 -1) translate(0 -384)">
        <path d="M452 379Q459 379 464.0 373.5Q469 368 469 361V23Q469 16 464.0 10.5Q459 5 452 5H167Q160 5 154.5 10.5Q149 16 149 23V85H60Q53 85 48.0 90.5Q43 96 43 103V281Q43 288 48.0 293.5Q53 299 60 299H149V361Q149 368 154.5 373.5Q160 379 167 379ZM124 210 174 122H206V262H175V172L127 262H93V122H124ZM443 32V85H389V32ZM443 112V165H389V112ZM443 192V245H389V192ZM443 272V352H176V299H238Q245 299 250.5 293.5Q256 288 256 281V103Q256 96 250.5 90.5Q245 85 238 85H176V32H363V272Z" />
      </g>
    </svg>