<svg xmlns="http://www.w3.org/2000/svg" viewBox="43 0 448 405">
      <g transform="scale(1 -1) translate(0 -405)">
        <path d="M305 213Q305 182 289.5 157.5Q274 133 247.5 119.0Q221 105 192.0 105.0Q163 105 136.5 119.0Q110 133 94.5 157.5Q79 182 79 213H43Q43 178 60.0 147.0Q77 116 106.5 95.5Q136 75 171 70V0H213V70Q248 75 277.5 95.5Q307 116 324.0 147.0Q341 178 341 213ZM166 343Q166 354 173.5 361.5Q181 369 192.0 369.0Q203 369 210.5 361.5Q218 354 218 343L217 211Q217 201 210.0 193.5Q203 186 192.0 186.0Q181 186 173.5 193.5Q166 201 166 211ZM192 149Q219 149 237.5 168.0Q256 187 256 213V341Q256 368 237.5 386.5Q219 405 192.0 405.0Q165 405 146.5 386.5Q128 368 128 341V213Q128 187 146.5 168.0Q165 149 192 149ZM437 139V107H405V139ZM395 245H363V256Q363 283 381.5 301.5Q400 320 426.5 320.0Q453 320 472.0 301.5Q491 283 491 256Q491 241 483.5 227.0Q476 213 463 205L457 201Q437 187 437 164V160H405V164Q405 183 414.0 200.0Q423 217 439 227L445 231Q459 240 459 256Q459 269 449.5 278.5Q440 288 426.5 288.0Q413 288 404.0 278.5Q395 269 395 256Z" />
      </g>
    </svg>