<svg xmlns="http://www.w3.org/2000/svg" viewBox="87 -21 338 426">
      <g transform="scale(1 -1) translate(0 -384)">
        <path d="M425 329V56Q425 41 417.0 30.0Q409 19 395 15L272 -20L267 -21H262Q255 -21 249.0 -19.0Q243 -17 237 -14L157 31Q153 33 150.5 37.5Q148 42 148 47Q148 54 153.5 59.5Q159 65 166 65H270V317L192 289Q183 286 177.0 277.5Q171 269 171 259V116Q171 107 167.0 99.5Q163 92 155 88L118 68Q113 65 108 65Q99 65 93.0 71.0Q87 77 87 86V289Q87 300 92.5 310.0Q98 320 108 326L239 400Q244 403 249.0 404.0Q254 405 258.5 405.0Q263 405 266 405L272 403L395 369Q402 367 407.5 363.5Q413 360 417.0 354.5Q421 349 423.0 342.5Q425 336 425 329ZM397 56V329Q397 334 394.0 337.5Q391 341 387 342L299 367V17L387 43Q391 44 394.0 47.5Q397 51 397 56Z" />
      </g>
    </svg>