<svg xmlns="http://www.w3.org/2000/svg" viewBox="107 -43 320 427">
      <g transform="scale(1 -1) translate(0 -341)">
        <path d="M192 384Q227 384 252.0 359.0Q277 334 277 299H107Q107 334 132.0 359.0Q157 384 192 384ZM253 239 235 64H213V43Q213 25 225.5 12.5Q238 0 256.0 0.0Q274 0 286.5 12.5Q299 25 299 43V149Q299 185 324.0 210.0Q349 235 384 235H427L405 213L427 192H384Q366 192 353.5 179.5Q341 167 341 149V43Q341 7 316.0 -18.0Q291 -43 256.0 -43.0Q221 -43 196.0 -18.0Q171 7 171 43V64H149L131 239Q115 255 109 277H275Q269 255 253 239ZM192 213Q183 213 177.0 207.0Q171 201 171.0 192.0Q171 183 177.0 177.0Q183 171 192.0 171.0Q201 171 207.0 177.0Q213 183 213.0 192.0Q213 201 207.0 207.0Q201 213 192 213Z" />
      </g>
    </svg>