<svg xmlns="http://www.w3.org/2000/svg" viewBox="42 21 428 342">
      <g transform="scale(1 -1) translate(0 -384)">
        <path d="M57 335V322L42 316V329ZM57 208V195L42 189V201ZM57 80V66L42 60V73ZM55 292V281L43 275V287ZM55 250V239L43 233V244ZM55 164V153L43 147V159ZM55 121V109L43 104V115ZM96 328V312L75 304V320ZM96 199V184L75 176V191ZM96 70V55L75 47V62ZM95 283V269L78 263V277ZM95 240V227L78 220V235ZM95 155V141L78 135V149ZM95 112V98L78 91V105ZM135 318V300L108 289V307ZM135 190V172L108 161V179ZM135 62V44L108 33V52ZM133 273V257L111 249V264ZM133 231V215L111 206V222ZM133 145V129L111 120V136ZM133 104V87L111 79V95ZM177 319V295L143 282V306ZM177 191V167L143 154V177ZM177 63V39L143 26V50ZM175 275V253L147 241V263ZM175 232V210L147 199V221ZM175 146V124L147 113V135ZM175 105V83L147 72V93ZM221 323V292L184 277V308ZM221 195V164L184 149V180ZM221 67V36L184 21V52ZM219 276V250L187 237V264ZM219 235V209L187 197V223ZM219 148V121L187 109V135ZM219 107V80L187 67V94ZM266 339V296L226 280V320Q248 332 266 339ZM266 292V255L226 238V275ZM266 250V212L226 196V233ZM266 208V171L226 154V192ZM266 166V128L226 111V149ZM266 124V86L226 69V107ZM266 82V42Q243 33 226 25V65ZM470 337V38Q432 63 375 63Q328 63 270 44V84Q301 96 338 101V199Q307 195 270 177V205Q301 219 338 225V320Q308 315 270 299V341Q321 363 371 363Q425 363 470 337ZM430 311Q407 324 372 324L364 323V227H372Q403 227 430 218ZM430 190Q404 201 372 201H364V103H372Q405 103 430 95Z" />
      </g>
    </svg>