<svg xmlns="http://www.w3.org/2000/svg" viewBox="43 -8 426 400">
      <g transform="scale(1 -1) translate(0 -384)">
        <path d="M309 392Q338 392 367 389L381 387L402 383Q413 381 425.0 377.5Q437 374 447.0 369.5Q457 365 463.0 359.0Q469 353 469 345V39Q469 31 463.0 25.0Q457 19 447.0 14.5Q437 10 425.0 6.5Q413 3 402 1L381 -3L366 -5Q338 -8 309.5 -8.0Q281 -8 252 -5L238 -3L217 1Q205 3 193.0 6.5Q181 10 171.5 14.5Q162 19 155.5 25.0Q149 31 149 39V85H60Q53 85 48.0 90.5Q43 96 43 103V281Q43 288 48.0 293.5Q53 299 60 299H149V345Q149 353 155.5 359.0Q162 365 171.5 369.5Q181 374 193.0 377.5Q205 381 217 383L238 387L252 389Q281 392 309 392ZM309 365Q296 365 279.0 364.5Q262 364 245.0 361.5Q228 359 212.0 355.0Q196 351 183 345Q196 339 212.0 335.5Q228 332 245.0 329.5Q262 327 278.5 326.0Q295 325 309.0 325.0Q323 325 339.5 326.0Q356 327 373.0 329.5Q390 332 406.5 335.5Q423 339 436 345Q423 351 407.0 355.0Q391 359 373.5 361.5Q356 364 339.5 364.5Q323 365 309 365ZM127 154H172L182 122H218L167 262H132L81 122H116ZM443 43V107Q429 100 412.0 96.0Q395 92 377.0 89.5Q359 87 341.5 86.0Q324 85 309.0 85.0Q294 85 279.0 86.0Q264 87 249 89Q244 85 238 85H176V43Q182 38 192.5 34.5Q203 31 215.0 28.0Q227 25 240.5 23.0Q254 21 267.0 20.0Q280 19 291 19H309H328Q339 19 351.5 20.0Q364 21 377.5 23.0Q391 25 403.5 28.0Q416 31 426.5 34.5Q437 38 443 43ZM443 136V213Q429 207 412.0 203.0Q395 199 377.0 196.5Q359 194 341.5 193.0Q324 192 310.0 192.0Q296 192 283 193L256 195V115Q269 113 282.5 112.5Q296 112 309 112H328L352 114Q364 115 377.5 117.0Q391 119 403.5 121.5Q416 124 426.0 127.5Q436 131 443 136ZM443 243V320Q429 313 412.0 309.0Q395 305 377.0 303.0Q359 301 341.5 300.0Q324 299 309.5 299.0Q295 299 277.5 300.0Q260 301 242.0 303.0Q224 305 207.0 309.0Q190 313 176 320V299H238Q245 299 250.5 293.5Q256 288 256 281V221Q269 220 282.5 219.5Q296 219 309 219H328L352 221Q364 222 377.5 223.5Q391 225 403.5 228.0Q416 231 426.0 234.5Q436 238 443 243ZM135 181 149 224 163 181Z" />
      </g>
    </svg>