<svg xmlns="http://www.w3.org/2000/svg" viewBox="43 55 426 274">
      <g transform="scale(1 -1) translate(0 -384)">
        <path d="M388 228Q405 227 420.0 220.0Q435 213 446.0 201.0Q457 189 463.0 174.0Q469 159 469.0 141.5Q469 124 462.5 108.5Q456 93 444.0 81.0Q432 69 416.5 62.0Q401 55 383 55H149Q127 55 108.0 63.5Q89 72 74.5 86.5Q60 101 51.5 120.5Q43 140 43 162Q43 179 48.0 195.5Q53 212 63.0 225.5Q73 239 87.0 249.0Q101 259 117 264Q125 267 132.5 267.5Q140 268 148 269Q157 283 169.0 294.0Q181 305 196.0 312.5Q211 320 227.0 324.5Q243 329 259 329Q282 329 303.0 321.5Q324 314 341.0 300.5Q358 287 370.5 268.5Q383 250 388 228ZM259 302Q236 302 214.5 292.5Q193 283 178 265Q186 262 193.5 259.0Q201 256 208 252L292 201L351 225L361 228Q356 244 346.0 258.0Q336 272 322.5 281.5Q309 291 293.0 296.5Q277 302 259 302ZM85 114 262 188 194 229Q183 235 171.5 238.5Q160 242 148 242Q132 242 117.5 235.5Q103 229 92.5 218.0Q82 207 75.5 192.5Q69 178 69 162Q69 149 73.5 136.5Q78 124 85 114ZM383 82Q393 82 402.0 85.0Q411 88 419 94L290 171L107 94Q117 88 127.5 85.0Q138 82 149 82ZM436 115Q443 128 443.0 142.0Q443 156 437.5 167.0Q432 178 423.5 186.0Q415 194 403.0 198.5Q391 203 378 203Q370 203 362.5 201.0Q355 199 348 196L334 190L321 184Z" />
      </g>
    </svg>