<svg xmlns="http://www.w3.org/2000/svg" viewBox="43 5 426 374">
      <g transform="scale(1 -1) translate(0 -384)">
        <path d="M283 379Q308 379 332.0 372.0Q356 365 377.0 353.0Q398 341 415.0 324.0Q432 307 444.0 286.5Q456 266 462.5 242.0Q469 218 469.0 192.0Q469 166 462.5 142.0Q456 118 444.0 97.5Q432 77 415.0 60.0Q398 43 377.0 31.0Q356 19 332.0 12.0Q308 5 283 5Q260 5 238.0 10.5Q216 16 196.5 26.5Q177 37 160.0 52.0Q143 67 129 85H60Q53 85 48.0 90.5Q43 96 43 103V281Q43 288 48.0 293.5Q53 299 60 299H129Q143 317 160.0 332.0Q177 347 196.5 357.5Q216 368 238.0 373.5Q260 379 283 379ZM296 351V205H442Q439 235 427.0 260.0Q415 285 395.5 304.5Q376 324 350.5 336.5Q325 349 296 351ZM203 217Q203 229 198.5 237.5Q194 246 187.0 251.5Q180 257 170.5 259.5Q161 262 149 262H93V122H126V171H148Q158 171 168.0 174.0Q178 177 185.5 182.5Q193 188 198.0 197.0Q203 206 203 217ZM283 32Q304 32 323.0 37.5Q342 43 359.5 52.0Q377 61 391.0 74.5Q405 88 416.0 104.0Q427 120 433.5 139.0Q440 158 442 179H270V351Q239 349 211.5 335.0Q184 321 164 299H238Q245 299 250.5 293.5Q256 288 256 281V103Q256 96 250.5 90.5Q245 85 238 85H164Q175 73 189.0 63.0Q203 53 218.0 46.0Q233 39 249.5 35.5Q266 32 283 32ZM146 235Q156 235 162.0 231.0Q168 227 168 216Q168 211 166.0 208.0Q164 205 160.5 203.0Q157 201 153.0 200.5Q149 200 145 200H126V235Z" />
      </g>
    </svg>