<svg xmlns="http://www.w3.org/2000/svg" viewBox="43 -21 426 426">
      <g transform="scale(1 -1) translate(0 -384)">
        <path d="M43 336 70 363 427 6 400 -21 285 93Q272 65 247.5 46.5Q223 28 192 23V-21H149V23Q104 31 73.5 66.5Q43 102 43 149H85Q85 114 110.0 89.0Q135 64 171 64Q199 64 222.0 81.5Q245 99 253 126L213 165V149Q213 132 200.5 119.5Q188 107 170.5 107.0Q153 107 140.5 119.5Q128 132 128 149V250ZM457 247 366 157 388 235H299Q281 235 268.5 247.5Q256 260 256 277V363Q256 380 268.5 392.5Q281 405 299 405H427Q444 405 456.5 392.5Q469 380 469 363V277Q469 259 457 247Z" />
      </g>
    </svg>