<svg xmlns="http://www.w3.org/2000/svg" viewBox="43 5 426 374">
      <g transform="scale(1 -1) translate(0 -384)">
        <path d="M452 379Q459 379 464.0 373.5Q469 368 469 361V23Q469 16 464.0 10.5Q459 5 452 5H167Q160 5 154.5 10.5Q149 16 149 23V85H60Q53 85 48.0 90.5Q43 96 43 103V281Q43 288 48.0 293.5Q53 299 60 299H149V361Q149 368 154.5 373.5Q160 379 167 379ZM150 206 176 122H205L233 262H203L187 179L163 259H139L113 179L97 262H66L94 122H123ZM443 32V85H176V32ZM443 112V179H256V112ZM443 205V272H256V205ZM443 299V352H176V299Z" />
      </g>
    </svg>