<svg xmlns="http://www.w3.org/2000/svg" viewBox="20 0 470 384">
      <g transform="scale(1 -1) translate(0 -384)">
        <path d="M448 107V299H320V107ZM462 341Q474 341 482.5 333.0Q491 325 491 313V28Q491 17 482.5 8.5Q474 0 462 0H306Q294 0 285.5 8.5Q277 17 277 28V91H165Q149 91 134 80Q124 74 107 57Q95 44 88 38Q76 27 64 21Q40 21 29 45Q16 72 24 122Q35 182 75 267H80L89 284L106 293Q126 301 142 303Q165 305 178 294H277V313Q277 325 285.5 333.0Q294 341 306 341H341V384H427V341ZM235 277Q226 277 219.5 271.0Q213 265 213.0 256.0Q213 247 219.5 241.0Q226 235 235.0 235.0Q244 235 250.0 241.0Q256 247 256.0 256.0Q256 265 250.0 271.0Q244 277 235 277Z" />
      </g>
    </svg>