<svg xmlns="http://www.w3.org/2000/svg" viewBox="64 0 384 405">
      <g transform="scale(1 -1) translate(0 -405)">
        <path d="M405 213Q405 177 386 143L360 170Q369 191 369 213ZM320 210 192 337V341Q192 368 210.5 386.5Q229 405 256.0 405.0Q283 405 301.5 386.5Q320 368 320 341ZM91 384 448 27 421 0 332 89Q307 74 277 70V0H235V70Q200 75 170.5 95.5Q141 116 124.0 147.0Q107 178 107 213H143Q143 182 158.5 157.5Q174 133 200.5 119.0Q227 105 256 105Q281 105 305 116L270 151L256 149Q229 149 210.5 168.0Q192 187 192 213V229L64 357Z" />
      </g>
    </svg>