<svg xmlns="http://www.w3.org/2000/svg" viewBox="43 5 426 374">
      <g transform="scale(1 -1) translate(0 -384)">
        <path d="M183 191Q183 183 181.0 176.0Q179 169 175.0 163.0Q171 157 164.5 153.5Q158 150 149.0 150.0Q140 150 134.0 153.5Q128 157 124.0 163.0Q120 169 118.0 176.5Q116 184 116.0 192.0Q116 200 118.0 207.5Q120 215 124.0 221.0Q128 227 134.5 230.5Q141 234 150.0 234.0Q159 234 165.5 230.5Q172 227 175.5 220.5Q179 214 181.0 206.5Q183 199 183 191ZM469 192V25Q469 17 463.5 11.0Q458 5 449 5H169Q161 5 155.0 11.0Q149 17 149 25V85H60Q53 85 48.0 90.5Q43 96 43 103V281Q43 288 48.0 293.5Q53 299 60 299H176V360Q176 368 181.5 373.5Q187 379 195 379H424Q432 379 437.5 373.5Q443 368 443 360V212L465 200Q467 198 468.0 196.0Q469 194 469 192ZM363 339V285H416V339ZM363 259V205H416V259ZM363 179V146L417 179ZM269 339V285H336V339ZM269 259V205H336V259ZM269 179V143L312 116L336 130V179ZM203 339V299H240Q242 299 243 298V339ZM149 121Q165 121 177.5 126.5Q190 132 198.5 141.5Q207 151 211.5 164.5Q216 178 216.0 193.0Q216 208 211.5 220.5Q207 233 199.0 242.5Q191 252 178.5 257.5Q166 263 150.5 263.0Q135 263 122.0 257.5Q109 252 100.5 242.5Q92 233 87.5 219.5Q83 206 83.0 190.5Q83 175 87.5 162.5Q92 150 100.5 141.0Q109 132 121.5 126.5Q134 121 149 121ZM176 32H396L256 119V103Q256 96 250.5 90.5Q245 85 238 85H176ZM443 34V163L338 100Z" />
      </g>
    </svg>