<svg xmlns="http://www.w3.org/2000/svg" viewBox="43 5 426 374">
      <g transform="scale(1 -1) translate(0 -384)">
        <path d="M452 379Q459 379 464.0 373.5Q469 368 469 361V23Q469 16 464.0 10.5Q459 5 452 5H167Q160 5 154.5 10.5Q149 16 149 23V85H60Q53 85 48.0 90.5Q43 96 43 103V281Q43 288 48.0 293.5Q53 299 60 299H149V361Q149 368 154.5 373.5Q160 379 167 379ZM149 169 175 122H213L171 191L212 258H175L151 213Q145 224 139 236L127 258H89L129 190L85 122H123ZM296 32V85H176V32ZM296 112V179H256V112ZM296 205V272H256V205ZM296 299V352H176V299ZM443 32V85H323V32ZM443 112V179H323V112ZM443 205V272H323V205ZM443 299V352H323V299Z" />
      </g>
    </svg>