<svg xmlns="http://www.w3.org/2000/svg" viewBox="41 -21 427 384">
      <g transform="scale(1 -1) translate(0 -342)">
        <path d="M43 336 70 363 427 6 400 -21 267 112H187Q170 112 155 102Q146 95 129 78Q116 65 109 59Q97 49 85 43Q62 43 50 66Q37 92 45 142Q55 201 94 284ZM199 315H313Q331 331 368 320Q386 315 401 306L411 288H416Q451 213 463 157Q474 109 466 79Q460 53 441 45L163 324Q186 327 199 315ZM256 299Q247 299 241.0 292.5Q235 286 235.0 277.0Q235 268 241.0 262.0Q247 256 256.0 256.0Q265 256 271.0 262.0Q277 268 277.0 277.0Q277 286 271.0 292.5Q265 299 256 299Z" />
      </g>
    </svg>