<svg xmlns="http://www.w3.org/2000/svg" viewBox="42 -19 426 425">
      <g transform="scale(1 -1) translate(0 -387)">
        <path d="M363 97V290L235 193ZM47 252Q43 257 42.5 264.0Q42 271 47 276L73 300Q76 303 83.0 303.5Q90 304 95 300L168 244L337 399Q343 405 351.5 406.0Q360 407 369 402L454 361Q469 352 469 336V48Q469 42 465.5 36.0Q462 30 457 27L363 -18Q358 -20 350.0 -18.5Q342 -17 339 -13L167 142L95 87Q89 83 82.5 83.5Q76 84 73 87L47 110Q42 116 42.5 123.5Q43 131 48 136L112 193Z" />
      </g>
    </svg>