<svg xmlns="http://www.w3.org/2000/svg" viewBox="43 -21 426 426">
      <g transform="scale(1 -1) translate(0 -384)">
        <path d="M137 369Q140 371 141 372Q193 405 256 405Q316 405 366 375L367 374Q375 369 378 365Q367 377 346 374Q328 371 305 359Q289 350 271 337L256 326Q206 364 174 373Q162 376 151 374Q143 373 138 369ZM413 337Q410 339 410 340Q399 351 384 350Q370 346 353 336Q323 319 294 292L309 277Q326 259 341 241Q362 215 376 193Q402 150 411 122Q422 86 414 48Q440 78 454.5 114.5Q469 151 469.0 192.0Q469 233 454.5 270.5Q440 308 413 337ZM336 172Q306 205 274 236L256 254L233 231Q204 201 184 180Q157 152 135 121Q101 74 99 48L98 54Q96 62 96 73Q96 88 100 105Q105 127 115 152Q128 184 164 231Q194 272 217 293L202 307Q184 323 167 334L166 335Q142 348 124 349Q115 349 107 343Q103 341 100 338Q73 309 58.0 271.5Q43 234 43.0 192.0Q43 150 59.0 110.5Q75 71 105.0 41.0Q135 11 174.5 -5.0Q214 -21 256 -21Q302 -21 343.0 -2.5Q384 16 414 48L412 57Q408 69 402 81Q393 99 381 117Q369 133 336 172Z" />
      </g>
    </svg>