<svg xmlns="http://www.w3.org/2000/svg" viewBox="43 107 448 170">
      <g transform="scale(1 -1) translate(0 -384)">
        <path d="M491 192 405 277V213H338Q331 241 308.0 259.0Q285 277 256.0 277.0Q227 277 204.0 259.0Q181 241 174 213H107L43 277V107L107 171H174Q181 143 204.0 125.0Q227 107 256.0 107.0Q285 107 308.0 125.0Q331 143 338 171H405V107ZM256 149Q238 149 225.5 161.5Q213 174 213.0 192.0Q213 210 225.5 222.5Q238 235 256.0 235.0Q274 235 286.5 222.5Q299 210 299.0 192.0Q299 174 286.5 161.5Q274 149 256 149Z" />
      </g>
    </svg>