<svg xmlns="http://www.w3.org/2000/svg" viewBox="43 -21 426 426">
      <g transform="scale(1 -1) translate(0 -384)">
        <path d="M256 405Q298 405 337.5 389.0Q377 373 407.0 343.0Q437 313 453.0 273.5Q469 234 469.0 192.0Q469 150 453.0 110.5Q437 71 407.0 41.0Q377 11 337.5 -5.0Q298 -21 256.0 -21.0Q214 -21 174.5 -5.0Q135 11 105.0 41.0Q75 71 59.0 110.5Q43 150 43.0 192.0Q43 234 59.0 273.5Q75 313 105.0 343.0Q135 373 174.5 389.0Q214 405 256 405ZM431 192Q431 253 393.5 300.0Q356 347 299 361V320H213V361Q156 347 118.5 300.0Q81 253 81 192Q81 157 94.5 125.0Q108 93 132.5 68.5Q157 44 189.0 30.5Q221 17 256.0 17.0Q291 17 323.0 30.5Q355 44 379.5 68.5Q404 93 417.5 125.0Q431 157 431 192ZM149 221Q161 221 169.5 212.5Q178 204 178.0 192.0Q178 180 169.5 171.5Q161 163 149.0 163.0Q137 163 128.5 171.5Q120 180 120.0 192.0Q120 204 128.5 212.5Q137 221 149 221ZM363 221Q375 221 383.5 212.5Q392 204 392.0 192.0Q392 180 383.5 171.5Q375 163 363.0 163.0Q351 163 342.5 171.5Q334 180 334.0 192.0Q334 204 342.5 212.5Q351 221 363 221ZM178 144Q190 144 199.0 135.0Q208 126 208.0 114.0Q208 102 199.0 93.5Q190 85 178.0 85.0Q166 85 157.5 93.5Q149 102 149.0 114.0Q149 126 157.5 135.0Q166 144 178 144ZM334 144Q346 144 354.5 135.0Q363 126 363.0 114.0Q363 102 354.5 93.5Q346 85 334.0 85.0Q322 85 313.0 93.5Q304 102 304.0 114.0Q304 126 313.0 135.0Q322 144 334 144ZM256 114Q268 114 276.5 105.5Q285 97 285.0 85.0Q285 73 276.5 64.5Q268 56 256.0 56.0Q244 56 235.5 64.5Q227 73 227.0 85.0Q227 97 235.5 105.5Q244 114 256 114Z" />
      </g>
    </svg>