<svg xmlns="http://www.w3.org/2000/svg" viewBox="21 -43 470 470">
      <g transform="scale(1 -1) translate(0 -384)">
        <path d="M491 171V213H425Q419 260 391 297L437 343L407 373L361 327Q324 355 277 361V427H235V361Q188 355 151 327L105 373L75 343L121 297Q93 260 87 213H21V171H87Q93 124 121 87L75 41L105 11L151 57Q188 29 235 23V-43H277V23Q324 29 361 57L407 11L437 41L391 87Q419 124 425 171ZM256 277Q221 277 196.0 252.0Q171 227 171 192H128Q128 227 145.0 256.5Q162 286 191.5 303.0Q221 320 256 320Z" />
      </g>
    </svg>