<svg xmlns="http://www.w3.org/2000/svg" viewBox="64 0 384 384">
      <g transform="scale(1 -1) translate(0 -384)">
        <path d="M107 384H405Q423 384 435.5 371.5Q448 359 448 341V43Q448 25 435.5 12.5Q423 0 405 0H107Q89 0 76.5 12.5Q64 25 64 43V341Q64 359 76.5 371.5Q89 384 107 384ZM176 128H208L229 201V128H261V256H213L192 183L171 256H123V128H155V201ZM288 256V128H320V171H345L363 128H395L375 173Q384 177 389.5 185.0Q395 193 395 203V224Q395 238 385.5 247.0Q376 256 363 256ZM320 224H363V203H320Z" />
      </g>
    </svg>