<svg xmlns="http://www.w3.org/2000/svg" viewBox="107 0 298 384">
      <g transform="scale(1 -1) translate(0 -384)">
        <path d="M320 235V299H149V235ZM384 299Q393 299 399.0 292.0Q405 285 405 277V218Q405 213 404 209L387 124Q382 107 367 107H145Q128 107 125 124L108 209Q107 213 107 218V341Q107 358 119.5 371.0Q132 384 149 384H320Q337 384 350.0 371.5Q363 359 363 341V277Q363 285 369.0 292.0Q375 299 384 299ZM149 21V85H363V21Q363 12 356.5 6.0Q350 0 341 0H171Q162 0 155.5 6.0Q149 12 149 21Z" />
      </g>
    </svg>