<svg xmlns="http://www.w3.org/2000/svg" viewBox="64 64 373 235">
      <g transform="scale(1 -1) translate(0 -363)">
        <path d="M107 299Q89 299 76.5 286.5Q64 274 64 256V128Q64 110 76.5 97.5Q89 85 107 85H171V128H107V256H171V299ZM235 299Q217 299 204.5 286.5Q192 274 192 256V128Q192 110 204.5 97.5Q217 85 235 85H277Q295 85 307.5 97.5Q320 110 320 128V256Q320 274 307.5 286.5Q295 299 277 299ZM235 256H277V128H235ZM341 224V192H405V160H373Q360 160 350.5 150.5Q341 141 341 128V64H437V96H373V128H405Q419 128 428.0 137.5Q437 147 437 160V192Q437 205 428.0 214.5Q419 224 405 224Z" />
      </g>
    </svg>