<svg xmlns="http://www.w3.org/2000/svg" viewBox="64 0 405 384">
      <g transform="scale(1 -1) translate(0 -384)">
        <path d="M155 235 192 299H308L332 341L331 352Q331 365 340.0 374.5Q349 384 362.5 384.0Q376 384 385.5 374.5Q395 365 395.0 353.0Q395 341 388.0 332.0Q381 323 370 321L349 285L378 235L397 267L395 277Q395 291 404.0 300.0Q413 309 426.5 309.0Q440 309 449.5 300.0Q459 291 459.0 278.5Q459 266 452.0 257.5Q445 249 434 246L403 192L440 128Q452 127 460.5 118.0Q469 109 469.0 96.0Q469 83 460.0 73.5Q451 64 437.5 64.0Q424 64 414.5 73.5Q405 83 405 96V102L378 149L349 99L370 63Q381 61 388.0 52.0Q395 43 395.0 31.0Q395 19 385.5 9.5Q376 0 362.5 0.0Q349 0 340.0 9.5Q331 19 331 32L332 43L308 85H226L201 43L203 32Q203 19 193.5 9.5Q184 0 170.5 0.0Q157 0 148.0 9.5Q139 19 139.0 31.0Q139 43 146.0 52.0Q153 61 164 63L184 99L93 256Q81 257 72.5 266.0Q64 275 64.0 288.0Q64 301 73.5 310.5Q83 320 96.0 320.0Q109 320 118.5 310.5Q128 301 128 288V282ZM217 256 180 192 217 128H317L354 192L317 256Z" />
      </g>
    </svg>