<svg xmlns="http://www.w3.org/2000/svg" viewBox="21 -21 470 426">
      <g transform="scale(1 -1) translate(0 -384)">
        <path d="M448 405H64Q46 405 33.5 392.5Q21 380 21 363V107Q21 89 33.5 76.5Q46 64 64 64H213V21H171V-21H341V21H299V64H448Q466 64 478.5 76.5Q491 89 491 107V363Q491 380 478.5 392.5Q466 405 448 405ZM448 107H64V363H448ZM338 273 316 252 272 295 294 317Q297 320 302.0 320.0Q307 320 310 317L338 290Q341 287 341.0 282.0Q341 277 338 273ZM171 194 260 283 304 239 215 149H171Z" />
      </g>
    </svg>