<svg xmlns="http://www.w3.org/2000/svg" viewBox="0 -21 512 426">
      <g transform="scale(1 -1) translate(0 -384)">
        <path d="M491 213H384Q375 213 369.0 207.0Q363 201 363 192V0Q363 -9 369.0 -15.0Q375 -21 384 -21H491Q500 -21 506.0 -15.0Q512 -9 512 0V192Q512 201 506.0 207.0Q500 213 491 213ZM491 21H384V171H491ZM427 405H43Q25 405 12.5 392.5Q0 380 0 363V107Q0 89 12.5 76.5Q25 64 43 64H192V21H149V-21H320V21H277V64H320V107H43V363H427V256H469V363Q469 380 456.5 392.5Q444 405 427 405Z" />
      </g>
    </svg>