<svg xmlns="http://www.w3.org/2000/svg" viewBox="21 -21 470 426">
      <g transform="scale(1 -1) translate(0 -384)">
        <path d="M64 363V107H448V363ZM64 405H448Q466 405 478.5 392.5Q491 380 491 363V107Q491 89 478.5 76.5Q466 64 448 64H299V21H341V-21H171V21H213V64H64Q46 64 33.5 76.5Q21 89 21 107V363Q21 380 33.5 392.5Q46 405 64 405ZM231 257Q242 268 256.5 267.5Q271 267 281.0 257.0Q291 247 291.0 233.0Q291 219 281.0 208.5Q271 198 256.5 198.0Q242 198 231.5 208.5Q221 219 221.0 233.0Q221 247 231 257ZM215 192Q232 175 256.0 175.0Q280 175 297.0 192.0Q314 209 314.0 233.0Q314 257 297.0 274.0Q280 291 256.0 291.0Q232 291 215.0 274.0Q198 257 198.0 233.0Q198 209 215 192ZM128 233Q143 272 178.0 296.0Q213 320 256.0 320.0Q299 320 334.0 296.0Q369 272 384 233Q369 194 334.0 169.5Q299 145 256.0 145.0Q213 145 178.0 169.5Q143 194 128 233Z" />
      </g>
    </svg>