<svg xmlns="http://www.w3.org/2000/svg" viewBox="0 -21 512 426">
      <g transform="scale(1 -1) translate(0 -384)">
        <path d="M437 171Q459 171 475.0 155.0Q491 139 491 117V107Q500 107 506.0 100.5Q512 94 512 85V0Q512 -9 506.0 -15.0Q500 -21 491 -21H384Q375 -21 369.0 -15.0Q363 -9 363 0V85Q363 94 369.0 100.5Q375 107 384 107V117Q384 139 399.5 155.0Q415 171 437 171ZM437 149Q424 149 414.5 140.0Q405 131 405 117V107H469V117Q469 131 460.0 140.0Q451 149 437 149ZM427 363H43V107H320V64H277V21H320V-21H149V21H192V64H43Q25 64 12.5 76.5Q0 89 0 107V363Q0 380 12.5 392.5Q25 405 43 405H427Q444 405 456.5 392.5Q469 380 469 363V202Q450 213 427 213Z" />
      </g>
    </svg>