<svg xmlns="http://www.w3.org/2000/svg" viewBox="21 -21 470 426">
      <g transform="scale(1 -1) translate(0 -384)">
        <path d="M448 405Q465 405 477.0 394.0Q489 383 491 366V107Q491 90 479.5 77.5Q468 65 451 64H299V21H341V-21H171V21H213V64H64Q47 64 35.0 75.5Q23 87 21 103V363Q21 380 32.5 392.0Q44 404 61 405ZM448 363H64V107H448ZM256 213Q291 213 316.0 200.5Q341 188 341 171V149H171V171Q171 188 196.0 200.5Q221 213 256 213ZM256 320Q274 320 286.5 307.5Q299 295 299.0 277.5Q299 260 286.5 247.5Q274 235 256.0 235.0Q238 235 225.5 247.5Q213 260 213.0 277.5Q213 295 225.5 307.5Q238 320 256 320Z" />
      </g>
    </svg>