<svg xmlns="http://www.w3.org/2000/svg" viewBox="21 -21 470 426">
      <g transform="scale(1 -1) translate(0 -384)">
        <path d="M64 405Q46 405 33.5 392.5Q21 380 21 363V107Q21 89 33.5 76.5Q46 64 64 64H213V21H171V-21H256V107H64V363H448V299H491V363Q491 380 478.5 392.5Q466 405 448 405ZM448 256H341Q324 256 311.5 243.5Q299 231 299 213V21Q299 4 311.5 -8.5Q324 -21 341 -21H448Q466 -21 478.5 -8.5Q491 4 491 21V213Q491 231 478.5 243.5Q466 256 448 256ZM395 224Q407 224 417.0 214.5Q427 205 427.0 192.0Q427 179 417.0 169.5Q407 160 394.5 160.0Q382 160 372.5 169.5Q363 179 363.0 192.0Q363 205 372.5 214.5Q382 224 395 224ZM395 11Q367 11 349.0 29.0Q331 47 331.0 73.5Q331 100 349.0 119.5Q367 139 393 139H395Q422 139 440.5 120.5Q459 102 459.0 74.5Q459 47 440.5 29.0Q422 11 395 11ZM395 107Q382 107 372.5 97.0Q363 87 363.0 74.5Q363 62 372.5 52.5Q382 43 394.5 43.0Q407 43 417.0 52.5Q427 62 427.0 74.5Q427 87 417.0 97.0Q407 107 395 107Z" />
      </g>
    </svg>