<svg xmlns="http://www.w3.org/2000/svg" viewBox="43 -21 426 426">
      <g transform="scale(1 -1) translate(0 -384)">
        <path d="M256 21Q204 21 161.0 50.0Q118 79 98.5 127.0Q79 175 89.0 225.5Q99 276 135.5 312.5Q172 349 222.5 359.0Q273 369 321.0 349.5Q369 330 398.0 287.0Q427 244 427 192Q427 146 404.0 106.5Q381 67 341.5 44.0Q302 21 256 21ZM256 405Q198 405 149.0 376.5Q100 348 71.5 299.0Q43 250 43.0 192.0Q43 134 71.5 85.0Q100 36 149.0 7.5Q198 -21 256.0 -21.0Q314 -21 363.0 7.5Q412 36 440.5 85.0Q469 134 469 192Q469 234 453.0 273.5Q437 313 407.0 343.0Q377 373 337.5 389.0Q298 405 256 405Z" />
      </g>
    </svg>