<svg xmlns="http://www.w3.org/2000/svg" viewBox="43 43 426 298">
      <g transform="scale(1 -1) translate(0 -384)">
        <path d="M405 128Q414 128 420.5 121.5Q427 115 427.0 106.5Q427 98 420.5 91.5Q414 85 405.5 85.0Q397 85 390.5 91.5Q384 98 384.0 106.5Q384 115 390.5 121.5Q397 128 405 128ZM405 171Q379 171 360.0 152.0Q341 133 341.0 106.5Q341 80 360.0 61.5Q379 43 405.5 43.0Q432 43 450.5 61.5Q469 80 469.0 106.5Q469 133 450.5 152.0Q432 171 405 171ZM213 320H107V277H213ZM363 341H299V299H363V242L288 149H213V256H128Q93 256 68.0 231.0Q43 206 43 171V107H85Q85 80 104.0 61.5Q123 43 149.5 43.0Q176 43 194.5 61.5Q213 80 213 107H309L405 227V299Q405 316 392.5 328.5Q380 341 363 341ZM149 85Q141 85 134.5 91.5Q128 98 128 107H171Q171 98 164.5 91.5Q158 85 149 85Z" />
      </g>
    </svg>