<svg xmlns="http://www.w3.org/2000/svg" viewBox="43 -43 426 427">
      <g transform="scale(1 -1) translate(0 -341)">
        <path d="M405 341Q405 359 392.5 371.5Q380 384 363 384H299V341H363V285L288 192H213V299H128Q93 299 68.0 274.0Q43 249 43 213V149H85Q85 123 104.0 104.0Q123 85 149.5 85.0Q176 85 194.5 104.0Q213 123 213 149H309L405 270ZM85 192V213Q85 231 97.5 243.5Q110 256 128 256H171V192ZM149 128Q141 128 134.5 134.5Q128 141 128 149H171Q171 141 164.5 134.5Q158 128 149 128ZM107 363H213V320H107ZM405 213Q379 213 360.0 194.5Q341 176 341.0 149.5Q341 123 360.0 104.0Q379 85 405.5 85.0Q432 85 450.5 104.0Q469 123 469.0 149.5Q469 176 450.5 194.5Q432 213 405 213ZM405 128Q397 128 390.5 134.5Q384 141 384.0 149.5Q384 158 390.5 164.5Q397 171 405.5 171.0Q414 171 420.5 164.5Q427 158 427.0 149.5Q427 141 420.5 134.5Q414 128 405 128ZM149 21H235V64L363 0H277V-43Z" />
      </g>
    </svg>