<svg xmlns="http://www.w3.org/2000/svg" viewBox="0 0 512 384">
      <g transform="scale(1 -1) translate(0 -384)">
        <path d="M405 160Q392 160 382.5 169.5Q373 179 373.0 192.0Q373 205 382.5 214.5Q392 224 405.5 224.0Q419 224 428.0 214.5Q437 205 437.0 192.0Q437 179 428.0 169.5Q419 160 405 160ZM299 160Q285 160 276.0 169.5Q267 179 267.0 192.0Q267 205 276.0 214.5Q285 224 298.5 224.0Q312 224 321.5 214.5Q331 205 331.0 192.0Q331 179 321.5 169.5Q312 160 299 160ZM192 160Q179 160 169.5 169.5Q160 179 160.0 192.0Q160 205 169.5 214.5Q179 224 192.0 224.0Q205 224 214.5 214.5Q224 205 224.0 192.0Q224 179 214.5 169.5Q205 160 192 160ZM469 384H149Q128 384 115 365L0 192L115 19Q121 10 130.5 5.0Q140 0 151 0H469Q487 0 499.5 12.5Q512 25 512 43V341Q512 359 499.5 371.5Q487 384 469 384Z" />
      </g>
    </svg>