<svg xmlns="http://www.w3.org/2000/svg" viewBox="0 0 512 427">
      <g transform="scale(1 -1) translate(0 -427)">
        <path d="M512 299Q512 313 491 339Q480 353 469 363L458 351Q446 338 438 326Q427 309 427.0 298.0Q427 287 432.5 277.0Q438 267 448 262V171H405V213Q405 227 395.5 239.0Q386 251 373 254Q384 275 384.0 296.5Q384 318 374.5 336.0Q365 354 348 365L256 427L164 367Q148 354 138.0 335.5Q128 317 128 297Q128 273 141 254Q126 251 116.5 239.5Q107 228 107 213V171H64V262Q74 267 79.5 277.0Q85 287 85 299Q85 313 64 339Q53 353 43 363L32 351Q19 338 11 326Q0 309 0.0 298.0Q0 287 6.0 277.0Q12 267 21 262V0H235V85Q235 94 241.0 100.5Q247 107 256.0 107.0Q265 107 271.0 100.5Q277 94 277 85V0H491V262Q500 267 506.0 277.0Q512 287 512 299ZM190 331 256 375 322 331Q341 318 341 297Q341 281 329.0 268.5Q317 256 301 256H211Q195 256 183.0 268.5Q171 281 171 297Q171 318 190 331ZM448 43H320V85Q320 111 301.0 130.0Q282 149 256.0 149.0Q230 149 211.0 130.0Q192 111 192 85V43H64V128H149V213H363V128H448Z" />
      </g>
    </svg>