<svg xmlns="http://www.w3.org/2000/svg" viewBox="0 0 512 427">
      <g transform="scale(1 -1) translate(0 -427)">
        <path d="M149 277H363Q366 277 373 276L380 275Q384 288 384 297Q384 318 374.5 336.0Q365 354 348 365L256 427L164 367Q148 354 138.0 335.5Q128 317 128 297Q128 288 132 275L139 276Q146 277 149 277ZM512 299Q512 313 491 339Q480 353 469 363L458 351Q446 338 438 326Q427 309 427.0 298.0Q427 287 432.5 277.0Q438 267 448 262V171H405V213Q405 231 392.5 243.5Q380 256 363 256H149Q132 256 119.5 243.5Q107 231 107 213V171H64V262Q74 267 79.5 277.0Q85 287 85 299Q85 313 64 339Q53 353 43 363L32 351Q19 338 11 326Q0 309 0.0 298.0Q0 287 6.0 277.0Q12 267 21 262V0H213V85Q213 103 225.5 115.5Q238 128 256.0 128.0Q274 128 286.5 115.5Q299 103 299 85V0H491V262Q500 267 506.0 277.0Q512 287 512 299Z" />
      </g>
    </svg>