<svg xmlns="http://www.w3.org/2000/svg" viewBox="84 -21 342 426">
      <g transform="scale(1 -1) translate(0 -384)">
        <path d="M256 405Q283 405 301.5 386.5Q320 368 320.0 341.5Q320 315 301.5 296.0Q283 277 256.0 277.0Q229 277 210.5 296.0Q192 315 192.0 341.5Q192 368 210.5 386.5Q229 405 256 405ZM427 64 384 180Q377 200 371 210Q361 224 341 235Q319 246 300.0 251.0Q281 256 256.0 256.0Q231 256 212.5 251.0Q194 246 171 235Q152 225 142 210Q136 201 128 181L85 64Q82 48 114 27Q136 12 174.5 -4.5Q213 -21 256.0 -21.0Q299 -21 339 -4Q377 12 399 27Q430 48 427 64ZM329 75 256 0 183 75Q171 88 171.0 106.0Q171 124 183.5 136.5Q196 149 213.5 149.0Q231 149 244 136L256 124L268 137Q281 149 298.5 149.0Q316 149 328.5 136.5Q341 124 341.0 105.5Q341 87 329 75Z" />
      </g>
    </svg>