<svg xmlns="http://www.w3.org/2000/svg" viewBox="84 -21 342 426">
      <g transform="scale(1 -1) translate(0 -384)">
        <path d="M256 405Q283 405 301.5 386.5Q320 368 320.0 341.5Q320 315 301.5 296.0Q283 277 256.0 277.0Q229 277 210.5 296.0Q192 315 192.0 341.5Q192 368 210.5 386.5Q229 405 256 405ZM427 64 384 180Q377 200 371 210Q361 224 341 235Q318 246 299.5 251.0Q281 256 256.0 256.0Q231 256 212.5 251.0Q194 246 171 235Q151 224 141 210Q135 200 128 180L85 64Q81 46 111 26Q128 15 169 -2L173 -4V43Q173 73 228 86L237 88Q226 104 221 122L258 135V134Q262 124 268 114Q280 94 295 84Q302 82 308 79Q333 68 338 51Q295 34 256 34L235 36V-20L256 -21Q299 -21 339 -4Q377 12 399 27Q430 48 427 64ZM331 85Q317 85 308.0 94.5Q299 104 299.0 117.5Q299 131 308.0 140.0Q317 149 330.5 149.0Q344 149 353.5 140.0Q363 131 363.0 117.5Q363 104 353.5 94.5Q344 85 331 85Z" />
      </g>
    </svg>