<svg xmlns="http://www.w3.org/2000/svg" viewBox="24 -37 467 481">
      <g transform="scale(1 -1) translate(0 -407)">
        <path d="M243 273H320V235H282ZM420 427H391Q391 400 404.5 377.0Q418 354 441.0 340.5Q464 327 491 327V356Q461 356 440.5 376.5Q420 397 420 427ZM448 427Q448 409 460.5 396.5Q473 384 491 384V427ZM363 427H334Q334 384 355.0 348.0Q376 312 412.0 291.0Q448 270 491 270V299Q456 299 426.5 316.0Q397 333 380.0 362.5Q363 392 363 427ZM213 367Q229 367 240.5 378.0Q252 389 252.0 405.0Q252 421 240.5 432.5Q229 444 213.0 444.0Q197 444 186.0 432.5Q175 421 175.0 405.0Q175 389 186.0 378.0Q197 367 213 367ZM51 411 24 384 74 334 43 324V213H81V292L108 300L121 287L43 -21H81L142 152L192 85V-21H230V115L177 212L181 227L445 -37L472 -10ZM200 344Q195 352 187.0 357.0Q179 362 169 362Q164 362 158 360H157L242 274Z" />
      </g>
    </svg>