<svg xmlns="http://www.w3.org/2000/svg" viewBox="43 -21 426 426">
      <g transform="scale(1 -1) translate(0 -384)">
        <path d="M469 192Q469 250 440.5 299.0Q412 348 363.0 376.5Q314 405 256 405Q219 405 184 393L199 352Q227 363 256 363Q302 363 341.5 340.0Q381 317 404.0 277.5Q427 238 427.0 192.0Q427 146 404.0 106.5Q381 67 341.5 44.0Q302 21 256.0 21.0Q210 21 170.5 44.0Q131 67 108.0 106.5Q85 146 85 192Q85 222 96 250L55 264Q43 229 43 192Q43 134 71.5 85.0Q100 36 149.0 7.5Q198 -21 256.0 -21.0Q314 -21 363.0 7.5Q412 36 440.5 85.0Q469 134 469 192ZM117 363Q130 363 139.5 353.5Q149 344 149.0 331.0Q149 318 139.5 308.5Q130 299 117.0 299.0Q104 299 94.5 308.5Q85 318 85.0 331.0Q85 344 94.5 353.5Q104 363 117 363ZM384 192Q384 227 367.0 256.5Q350 286 320.5 303.0Q291 320 256.0 320.0Q221 320 191.5 303.0Q162 286 145.0 256.5Q128 227 128.0 192.0Q128 157 145.0 127.5Q162 98 191.5 81.0Q221 64 256.0 64.0Q291 64 320.5 81.0Q350 98 367.0 127.5Q384 157 384 192ZM235 256V128H192V256ZM320 256V128H277V256Z" />
      </g>
    </svg>