<svg xmlns="http://www.w3.org/2000/svg" viewBox="43 -21 448 465">
      <g transform="scale(1 -1) translate(0 -423)">
        <path d="M213 444Q197 444 186.0 432.5Q175 421 175.0 405.0Q175 389 186.0 378.0Q197 367 213.0 367.0Q229 367 240.5 378.0Q252 389 252.0 405.0Q252 421 240.5 432.5Q229 444 213 444ZM334 427Q334 384 355.0 348.0Q376 312 412.0 291.0Q448 270 491 270V299Q456 299 426.5 316.0Q397 333 380.0 362.5Q363 392 363 427ZM391 427Q391 400 404.5 377.0Q418 354 441.0 340.5Q464 327 491 327V356Q461 356 440.5 376.5Q420 397 420 427ZM448 427Q448 409 460.5 396.5Q473 384 491 384V427ZM169 362Q164 362 158 360L43 324V213H81V292L126 306L43 -21H81L142 152L192 85V-21H230V115L177 212L193 273L216 235H320V273H243L200 344Q195 352 187.0 357.0Q179 362 169 362Z" />
      </g>
    </svg>