<svg xmlns="http://www.w3.org/2000/svg" viewBox="43 85 426 214">
      <g transform="scale(1 -1) translate(0 -384)">
        <path d="M149 171H64Q55 171 49.0 177.0Q43 183 43.0 192.0Q43 201 49.0 207.0Q55 213 64 213H149Q158 213 164.5 207.0Q171 201 171.0 192.0Q171 183 164.5 177.0Q158 171 149 171ZM128 277Q128 286 121.5 292.5Q115 299 107 299H85Q77 299 70.5 292.5Q64 286 64.0 277.5Q64 269 70.5 262.5Q77 256 85 256H107Q115 256 121.5 262.5Q128 269 128 277ZM469 192Q469 163 455.0 138.5Q441 114 416.5 99.5Q392 85 363 85H85Q77 85 70.5 91.5Q64 98 64.0 106.5Q64 115 70.5 121.5Q77 128 85 128H277Q263 148 258 171H213Q205 171 198.5 177.0Q192 183 192.0 192.0Q192 201 198.5 207.0Q205 213 213 213H258Q263 236 277 256H171Q162 256 155.5 262.5Q149 269 149.0 277.5Q149 286 155.5 292.5Q162 299 171 299H363Q392 299 416.5 284.5Q441 270 455.0 245.5Q469 221 469 192ZM427 192Q427 218 408.0 237.0Q389 256 362.5 256.0Q336 256 317.5 237.0Q299 218 299.0 192.0Q299 166 317.5 147.0Q336 128 362.5 128.0Q389 128 408.0 147.0Q427 166 427 192Z" />
      </g>
    </svg>