<svg xmlns="http://www.w3.org/2000/svg" viewBox="43 43 426 277">
      <g transform="scale(1 -1) translate(0 -363)">
        <path d="M372 235 286 320H192V277H269L311 235H139Q99 235 71.0 207.0Q43 179 43.0 139.0Q43 99 71.0 71.0Q99 43 139 43Q174 43 200.5 65.5Q227 88 233 122L278 149Q277 146 277 139Q277 99 305.0 71.0Q333 43 373.0 43.0Q413 43 441.0 71.0Q469 99 469.0 139.0Q469 179 441.0 207.0Q413 235 373 235ZM189 122Q183 106 169.5 95.5Q156 85 138 85Q116 85 100.5 101.0Q85 117 85.0 139.0Q85 161 100.5 176.5Q116 192 138 192Q156 192 169.5 181.5Q183 171 189 155H128V123ZM373 85Q351 85 335.0 101.0Q319 117 319.0 139.0Q319 161 335.0 176.5Q351 192 373.0 192.0Q395 192 410.5 176.5Q426 161 426.0 139.0Q426 117 410.5 101.0Q395 85 373 85Z" />
      </g>
    </svg>