<svg xmlns="http://www.w3.org/2000/svg" viewBox="43 -43 426 406">
      <g transform="scale(1 -1) translate(0 -320)">
        <path d="M372 277 286 363H192V320H269L311 277H139Q99 277 71.0 249.0Q43 221 43.0 181.0Q43 141 71.0 113.0Q99 85 139 85Q174 85 200.5 108.0Q227 131 233 165L278 192Q277 188 277 181Q277 141 305.0 113.0Q333 85 373.0 85.0Q413 85 441.0 113.0Q469 141 469.0 181.0Q469 221 441.0 249.0Q413 277 373 277ZM189 165Q183 149 169.5 138.5Q156 128 138 128Q116 128 100.5 143.5Q85 159 85.0 181.0Q85 203 100.5 219.0Q116 235 138 235Q156 235 169.5 224.5Q183 214 189 197H128V165ZM373 128Q351 128 335.0 143.5Q319 159 319.0 181.0Q319 203 335.0 219.0Q351 235 373.0 235.0Q395 235 410.5 219.0Q426 203 426.0 181.0Q426 159 410.5 143.5Q395 128 373 128ZM235 21H149L277 -43V0H363L235 64Z" />
      </g>
    </svg>