<svg xmlns="http://www.w3.org/2000/svg" viewBox="23 -38 448 450">
      <g transform="scale(1 -1) translate(0 -374)">
        <path d="M471 -11 51 412 23 384 173 235H139Q99 235 71.0 207.0Q43 179 43.0 139.0Q43 99 71.0 71.0Q99 43 139 43Q174 43 201.0 65.5Q228 88 233 122L265 141L277 128Q281 94 305.0 70.0Q329 46 363 43L444 -38ZM188 122Q183 106 168.5 95.5Q154 85 137 85Q116 85 100.5 100.5Q85 116 85.0 138.5Q85 161 100.5 176.5Q116 192 139 192Q156 192 169.5 181.5Q183 171 190 154H128V122ZM239 277 196 320H286L371 235H373Q413 235 441.0 207.0Q469 179 469 139Q469 120 462.0 103.0Q455 86 444 73L414 102Q427 115 427.0 137.0Q427 159 411.5 174.5Q396 190 374.0 190.0Q352 190 339 177L282 235H311L269 277Z" />
      </g>
    </svg>