<svg xmlns="http://www.w3.org/2000/svg" viewBox="85 -43 384 446">
      <g transform="scale(1 -1) translate(0 -360)">
        <path d="M299 299H213V403Q250 396 274.5 366.5Q299 337 299 299ZM85 299Q85 337 109.5 366.5Q134 396 171 403V299ZM299 192Q299 154 274.5 124.5Q250 95 213 87V64Q213 37 232.0 18.5Q251 0 277.5 0.0Q304 0 322.5 18.5Q341 37 341 64V171Q341 206 366.0 231.0Q391 256 427 256H469L448 235L469 213H427Q409 213 396.5 200.5Q384 188 384 171V64Q384 35 369.5 10.5Q355 -14 330.5 -28.5Q306 -43 277.0 -43.0Q248 -43 223.5 -28.5Q199 -14 185.0 10.5Q171 35 171 64V87Q134 95 109.5 124.5Q85 154 85 192V256H299Z" />
      </g>
    </svg>