<svg xmlns="http://www.w3.org/2000/svg" viewBox="21 -21 477 425">
      <g transform="scale(1 -1) translate(0 -383)">
        <path d="M427 299H437L498 238L452 192L498 146L437 85H427V166L378 117L363 132L422 192L363 252L378 267L427 218ZM448 258V218L468 238ZM448 166V126L468 146ZM320 256V235H192V404Q228 399 257.0 378.0Q286 357 303.0 325.0Q320 293 320 256ZM21 235V256Q21 293 38.0 325.0Q55 357 84.5 378.0Q114 399 149 404V235ZM320 128Q320 87 300.0 53.0Q280 19 245.5 -1.0Q211 -21 170.5 -21.0Q130 -21 96.0 -1.0Q62 19 41.5 53.0Q21 87 21 128V192H320Z" />
      </g>
    </svg>