<svg xmlns="http://www.w3.org/2000/svg" viewBox="21 -43 470 470">
      <g transform="scale(1 -1) translate(0 -384)">
        <path d="M192 427V405H213V341H192V320H256V341H235V405H256V427ZM192 299Q174 299 161.5 286.5Q149 274 149 256V0Q149 -18 161.5 -30.5Q174 -43 192 -43H448Q466 -43 478.5 -30.5Q491 -18 491 0V256Q491 274 478.5 286.5Q466 299 448 299ZM21 256V192H43V213H107V192H128V256H107V235H43V256ZM192 256H448V0H192ZM299 235V213H320V107H235V128H213V64H235V85H320V43H299V21H363V43H341V85H405V64H427V128H405V107H341V213H363V235Z" />
      </g>
    </svg>