<svg xmlns="http://www.w3.org/2000/svg" viewBox="43 -51 456 414">
      <g transform="scale(1 -1) translate(0 -312)">
        <path d="M235 21H85Q68 21 55.5 33.5Q43 46 43 64V320Q43 338 55.5 350.5Q68 363 85 363H107L149 277H213L171 363H213L256 277H320L277 363H320L363 277H427L384 363H469V170Q451 199 419.5 217.0Q388 235 351.0 235.0Q314 235 282.5 216.0Q251 197 232.0 165.5Q213 134 213 96Q213 55 235 21ZM499 -21 469 -51 403 15Q379 0 352 0Q312 0 284.0 28.0Q256 56 256.0 96.0Q256 136 284.0 164.0Q312 192 352.0 192.0Q392 192 420.0 164.0Q448 136 448 96Q448 68 433 45ZM405 96Q405 118 389.5 133.5Q374 149 352.0 149.0Q330 149 314.5 133.5Q299 118 299.0 96.0Q299 74 314.5 58.5Q330 43 352.0 43.0Q374 43 389.5 58.5Q405 74 405 96Z" />
      </g>
    </svg>