<svg xmlns="http://www.w3.org/2000/svg" viewBox="33 -33 447 434">
      <g transform="scale(1 -1) translate(0 -368)">
        <path d="M315 289 256 364 298 372 356 297ZM252 276 193 352 151 343 210 268ZM461 318 445 401 361 385 419 309ZM405 171Q440 171 469 153V235H43V21Q43 4 55.5 -8.5Q68 -21 85 -21H295Q277 8 277.0 42.5Q277 77 294.5 106.5Q312 136 341.5 153.5Q371 171 405 171ZM89 331 68 327Q51 323 41.0 308.5Q31 294 34 276L43 235L147 255ZM481 88 451 118 405 73 360 118 330 88 375 43 330 -3 360 -33 405 13 451 -33 481 -3 435 43Z" />
      </g>
    </svg>