<svg xmlns="http://www.w3.org/2000/svg" viewBox="43 -21 426 426">
      <g transform="scale(1 -1) translate(0 -384)">
        <path d="M256 405Q298 405 337.5 389.0Q377 373 407.0 343.0Q437 313 453.0 273.5Q469 234 469.0 192.0Q469 150 453.0 110.5Q437 71 407.0 41.0Q377 11 337.5 -5.0Q298 -21 256.0 -21.0Q214 -21 174.5 -5.0Q135 11 105.0 41.0Q75 71 59.0 110.5Q43 150 43.0 192.0Q43 234 59.0 273.5Q75 313 105.0 343.0Q135 373 174.5 389.0Q214 405 256 405ZM256 363Q234 363 218.5 347.0Q203 331 203.0 309.0Q203 287 218.5 271.5Q234 256 256.0 256.0Q278 256 293.5 271.5Q309 287 309.0 309.0Q309 331 293.5 347.0Q278 363 256 363ZM94 245Q87 224 97.0 204.0Q107 184 128.0 177.5Q149 171 168.5 181.0Q188 191 195.0 212.0Q202 233 192.0 252.5Q182 272 161.0 279.0Q140 286 120.5 276.0Q101 266 94 245ZM418 245Q411 266 391.5 276.0Q372 286 351.0 279.0Q330 272 320.0 252.5Q310 233 317.0 212.0Q324 191 343.5 181.0Q363 171 384.0 177.5Q405 184 415.0 204.0Q425 224 418 245ZM156 54Q174 41 196.0 44.5Q218 48 230.5 66.0Q243 84 239.5 105.5Q236 127 218.5 140.0Q201 153 179.0 149.5Q157 146 144.0 128.5Q131 111 134.5 89.0Q138 67 156 54ZM356 54Q374 67 377.5 89.0Q381 111 368.0 129.0Q355 147 333.5 150.0Q312 153 294.0 140.0Q276 127 272.5 105.5Q269 84 281.5 66.0Q294 48 316.0 44.5Q338 41 356 54ZM256 224Q243 224 233.5 214.5Q224 205 224.0 192.0Q224 179 233.5 169.5Q243 160 256.0 160.0Q269 160 278.5 169.5Q288 179 288.0 192.0Q288 205 278.5 214.5Q269 224 256 224Z" />
      </g>
    </svg>