<svg xmlns="http://www.w3.org/2000/svg" viewBox="43 -51 456 414">
      <g transform="scale(1 -1) translate(0 -312)">
        <path d="M235 21H85Q68 21 55.5 33.5Q43 46 43 64V320Q43 338 55.5 350.5Q68 363 85 363H107L149 277H213L171 363H213L256 277H320L277 363H320L363 277H427L384 363H469V171Q453 197 427 213V235H124L85 309V64H218Q226 34 235 21ZM433 45Q448 71 448 96Q448 136 420.0 164.0Q392 192 352.0 192.0Q312 192 284.0 164.0Q256 136 256.0 96.0Q256 56 284.0 28.0Q312 0 352 0Q382 0 403 15L469 -51L499 -21ZM352 43Q330 43 314.5 58.5Q299 74 299.0 96.0Q299 118 314.5 133.5Q330 149 352.0 149.0Q374 149 389.5 133.5Q405 118 405.0 96.0Q405 74 389.5 58.5Q374 43 352 43Z" />
      </g>
    </svg>