<svg xmlns="http://www.w3.org/2000/svg" viewBox="33 -21 457 422">
      <g transform="scale(1 -1) translate(0 -380)">
        <path d="M315 289 256 364 298 372 356 297ZM461 318 445 401 361 385 419 309ZM85 192H387L429 235H43V21Q43 4 55.5 -8.5Q68 -21 85 -21H235V21H85ZM252 276 193 352 151 343 210 268ZM89 331 68 327Q51 323 41.0 308.5Q31 294 34 276L43 235L147 255ZM277 22V-21H321L452 109L408 153ZM487 161 459 189Q456 192 451.5 192.0Q447 192 444 189L423 168L467 124L487 145Q491 148 491.0 152.5Q491 157 487 161Z" />
      </g>
    </svg>