<svg xmlns="http://www.w3.org/2000/svg" viewBox="43 21 426 342">
      <g transform="scale(1 -1) translate(0 -384)">
        <path d="M213 213 193 169 149 149 193 129 213 85 233 129 277 149 233 169ZM384 363 427 277H363L320 363H277L320 277H256L213 363H171L213 277H149L107 363H85Q68 363 55.5 350.5Q43 338 43 320V64Q43 46 55.5 33.5Q68 21 85 21H427Q444 21 456.5 33.5Q469 46 469 64V363ZM427 64H85V310L123 235H341L328 205L299 192L328 179L341 149L355 179L384 192L355 205L341 235H427Z" />
      </g>
    </svg>