<svg xmlns="http://www.w3.org/2000/svg" viewBox="33 -33 447 434">
      <g transform="scale(1 -1) translate(0 -368)">
        <path d="M419 309 361 385 445 401 461 318ZM356 297 298 372 256 364 315 289ZM89 331 68 327Q51 323 41.0 308.5Q31 294 34 276L43 235L147 255ZM252 276 193 352 151 343 210 268ZM85 21V192H427V169Q449 165 469 153V235H43V21Q43 4 55.5 -8.5Q68 -21 85 -21H295Q283 -2 279 21ZM481 88 451 118 405 73 360 118 330 88 375 43 330 -3 360 -33 405 13 451 -33 481 -3 435 43Z" />
      </g>
    </svg>