<svg xmlns="http://www.w3.org/2000/svg" viewBox="33 -34 457 435">
      <g transform="scale(1 -1) translate(0 -367)">
        <path d="M419 309 361 385 445 401 461 318ZM356 297 298 372 256 364 315 289ZM405 171Q440 171 469 153V235H43V21Q43 4 55.5 -8.5Q68 -21 85 -21H295Q277 8 277.0 42.5Q277 77 294.5 106.5Q312 136 341.5 153.5Q371 171 405 171ZM89 331 68 327Q51 323 41.0 308.5Q31 294 34 276L43 235L147 255ZM252 276 193 352 151 343 210 268ZM491 66 429 72 405 128 381 72 320 66 367 26 352 -34 405 -2 458 -34 444 26Z" />
      </g>
    </svg>