<svg xmlns="http://www.w3.org/2000/svg" viewBox="33 -64 477 465">
      <g transform="scale(1 -1) translate(0 -337)">
        <path d="M315 289 256 364 298 372 356 297ZM461 318 445 401 361 385 419 309ZM252 276 193 352 151 343 210 268ZM89 331 68 327Q51 323 41.0 308.5Q31 294 34 276L43 235L147 255ZM85 21V192H427V190Q449 187 469 177V235H43V21Q43 4 55.5 -8.5Q68 -21 85 -21H271Q261 -1 258 21ZM508 13Q509 13 509.0 11.5Q509 10 508 9L486 -28Q484 -30 480 -30L454 -21L437 -32L433 -60Q433 -61 431.5 -62.5Q430 -64 429 -64H386Q384 -64 380 -60L375 -32Q366 -29 358 -21L333 -32Q329 -32 326 -30L305 6Q303 9 307 13L331 30V51L307 68Q305 70 305 75L326 111Q329 113 333 113L358 102L375 113L380 141Q380 145 386 145H429Q430 145 431.5 143.5Q433 142 433 141L437 113Q444 111 457 102L482 113Q489 113 489 111L510 75Q512 73 508 68L484 51V30ZM437 43Q437 55 427.5 65.0Q418 75 405.5 75.0Q393 75 383.0 65.0Q373 55 373.0 42.5Q373 30 383.0 20.5Q393 11 405.5 11.0Q418 11 427.5 20.5Q437 30 437 43Z" />
      </g>
    </svg>