<svg xmlns="http://www.w3.org/2000/svg" viewBox="43 0 428 405">
      <g transform="scale(1 -1) translate(0 -405)">
        <path d="M256 405H299V299H256ZM469 314 439 343 363 269 393 239 430 276Q468 314 469 314ZM395 149Q365 149 343 128H201L122 384H43V341H92L149 149H139Q108 149 86.0 127.0Q64 105 64.0 74.5Q64 44 86.0 22.0Q108 0 139 0Q161 0 179.0 11.5Q197 23 207 43H329Q338 23 356.5 11.5Q375 0 397 0Q427 0 449.0 22.0Q471 44 471.0 74.5Q471 105 448.0 127.0Q425 149 395 149ZM139 43Q126 43 116.5 52.5Q107 62 107.0 74.5Q107 87 116.5 97.0Q126 107 138.5 107.0Q151 107 161.0 97.0Q171 87 171.0 74.5Q171 62 161.0 52.5Q151 43 139 43ZM395 43Q382 43 372.5 52.5Q363 62 363.0 74.5Q363 87 372.5 97.0Q382 107 394.5 107.0Q407 107 417.0 97.0Q427 87 427.0 74.5Q427 62 417.0 52.5Q407 43 395 43ZM203 192 215 149H320L311 169Q307 179 296.0 185.5Q285 192 273 192Z" />
      </g>
    </svg>