<svg xmlns="http://www.w3.org/2000/svg" viewBox="21 0 470 384">
      <g transform="scale(1 -1) translate(0 -384)">
        <path d="M255 149 231 192H315Q327 192 337.5 185.5Q348 179 353 168L363 149ZM491 64Q491 37 472.0 18.5Q453 0 427 0Q406 0 389.5 12.0Q373 24 367 43H249Q239 23 221.0 11.5Q203 0 181.0 0.0Q159 0 141.0 11.5Q123 23 114 43H43Q34 43 27.5 49.0Q21 55 21 64V213Q21 224 30.5 230.5Q40 237 51 233L159 190L73 341H21V384H98L243 128H427Q453 128 472.0 109.5Q491 91 491 64ZM157 145 64 181V85H108Q111 106 124.0 122.0Q137 138 157 145ZM213 75Q213 88 204.0 97.5Q195 107 181.5 107.0Q168 107 158.5 97.5Q149 88 149.0 74.5Q149 61 158.5 52.0Q168 43 181.5 43.0Q195 43 204.0 52.0Q213 61 213 75ZM448 64Q448 73 441.5 79.0Q435 85 426.5 85.0Q418 85 411.5 79.0Q405 73 405.0 64.0Q405 55 411.5 49.0Q418 43 426.5 43.0Q435 43 441.5 49.0Q448 55 448 64Z" />
      </g>
    </svg>