<svg xmlns="http://www.w3.org/2000/svg" viewBox="21 0 470 405">
      <g transform="scale(1 -1) translate(0 -405)">
        <path d="M256 405H299V299H256ZM469 314 439 343 363 269 393 239 430 276Q468 314 469 314ZM230 192 254 149H363L352 169Q347 180 337.0 186.0Q327 192 314 192ZM427 128H243L98 384H21V341H73L158 190L49 233Q46 234 40.0 233.5Q34 233 30 230Q21 222 21 213V64Q21 56 28.0 49.5Q35 43 43 43H113Q123 23 141.0 11.5Q159 0 181.0 0.0Q203 0 221.5 11.5Q240 23 250 43H367Q373 23 389.5 11.5Q406 0 427 0Q454 0 472.5 18.5Q491 37 491.0 64.0Q491 91 472.5 109.5Q454 128 427 128ZM107 85H64V181L156 145Q137 139 123.5 122.5Q110 106 107 85ZM181 43Q169 43 159.0 52.5Q149 62 149.0 74.5Q149 87 159.0 97.0Q169 107 181.5 107.0Q194 107 203.5 97.0Q213 87 213.0 74.5Q213 62 203.5 52.5Q194 43 181 43ZM427 43Q419 43 412.0 49.5Q405 56 405.0 64.0Q405 72 412.0 78.5Q419 85 427.0 85.0Q435 85 441.5 78.5Q448 72 448.0 64.0Q448 56 441.5 49.5Q435 43 427 43Z" />
      </g>
    </svg>