<svg xmlns="http://www.w3.org/2000/svg" viewBox="43 0 426 384">
      <g transform="scale(1 -1) translate(0 -384)">
        <path d="M395 149Q364 149 343 128H200L122 384H43V341H91L149 148L139 149Q108 149 86.0 127.5Q64 106 64.0 75.0Q64 44 86.0 22.0Q108 0 139 0Q161 0 179.0 11.5Q197 23 206 43H327Q337 23 355.0 11.5Q373 0 395 0Q426 0 447.5 22.0Q469 44 469.0 75.0Q469 106 447.5 127.5Q426 149 395 149ZM139 43Q125 43 116.0 52.0Q107 61 107.0 74.5Q107 88 116.0 97.5Q125 107 138.5 107.0Q152 107 161.5 97.5Q171 88 171.0 74.5Q171 61 161.5 52.0Q152 43 139 43ZM395 43Q381 43 372.0 52.0Q363 61 363.0 74.5Q363 88 372.0 97.5Q381 107 394.5 107.0Q408 107 417.5 97.5Q427 88 427.0 74.5Q427 61 417.5 52.0Q408 43 395 43ZM216 149 203 192H272Q284 192 294.5 185.5Q305 179 310 168L320 149Z" />
      </g>
    </svg>