<svg xmlns="http://www.w3.org/2000/svg" viewBox="43 -43 448 448">
      <g transform="scale(1 -1) translate(0 -362)">
        <path d="M192 171V341Q192 359 204.5 371.5Q217 384 235 384H427Q444 384 456.5 371.5Q469 359 469 341V213H396L369 250Q368 252 366.5 252.0Q365 252 364 250L321 192Q320 191 318.5 191.0Q317 191 316 192L286 229Q285 230 283.5 230.0Q282 230 281 229L236 173Q234 171 235.0 169.0Q236 167 238 167H373V128H235Q217 128 204.5 140.5Q192 153 192 171ZM128 -21V0H85V-21H43V405H85V384H128V405H179Q165 393 157.0 376.5Q149 360 149 341V171Q149 135 174.0 110.0Q199 85 235 85H335Q318 72 308.5 52.5Q299 33 299 11Q299 -5 305 -21ZM85 299H128V341H85ZM85 213H128V256H85ZM85 128H128V171H85ZM128 43V85H85V43ZM491 171V128H448V11Q448 -11 432.5 -27.0Q417 -43 395.0 -43.0Q373 -43 357.0 -27.0Q341 -11 341.0 11.0Q341 33 357.0 48.5Q373 64 395 64Q406 64 416 60V171Z" />
      </g>
    </svg>