<svg xmlns="http://www.w3.org/2000/svg" viewBox="23 -38 448 450">
      <g transform="scale(1 -1) translate(0 -374)">
        <path d="M471 -11 51 412 23 384 87 320Q66 294 54.5 261.0Q43 228 43 192Q43 174 55.5 161.5Q68 149 85 149H258L279 128H192L164 32V21Q164 4 176.5 -8.5Q189 -21 207 -21H307Q325 -21 337.5 -8.5Q350 4 350 21L348 32L337 70L446 -38ZM149 192Q132 192 119.5 204.5Q107 217 107 235Q107 248 114.5 259.0Q122 270 134 275L190 220Q185 207 173.5 199.5Q162 192 149 192ZM213 320Q213 338 225.5 350.5Q238 363 256.0 363.0Q274 363 286.5 350.5Q299 338 299.0 320.0Q299 302 286.5 289.5Q274 277 256 277Q242 277 228 288L367 149H427Q444 149 456.5 161.5Q469 174 469 192Q469 250 440.5 299.0Q412 348 363.0 376.5Q314 405 257.0 405.0Q200 405 143 373L222 294Q213 307 213 320ZM363 277Q380 277 392.5 264.5Q405 252 405.0 234.5Q405 217 392.5 204.5Q380 192 362.5 192.0Q345 192 332.5 204.5Q320 217 320.0 234.5Q320 252 332.5 264.5Q345 277 363 277Z" />
      </g>
    </svg>