<svg xmlns="http://www.w3.org/2000/svg" viewBox="43 -21 426 426">
      <g transform="scale(1 -1) translate(0 -384)">
        <path d="M256 405Q298 405 337.5 389.0Q377 373 407.0 343.0Q437 313 453.0 273.5Q469 234 469 192Q469 174 456.5 161.5Q444 149 427 149H85Q68 149 55.5 161.5Q43 174 43 192Q43 234 59.0 273.5Q75 313 105.0 343.0Q135 373 174.5 389.0Q214 405 256 405ZM256 277Q274 277 286.5 289.5Q299 302 299.0 320.0Q299 338 286.5 350.5Q274 363 256.0 363.0Q238 363 225.5 350.5Q213 338 213.0 320.0Q213 302 225.5 289.5Q238 277 256 277ZM363 192Q380 192 392.5 204.5Q405 217 405.0 234.5Q405 252 392.5 264.5Q380 277 362.5 277.0Q345 277 332.5 264.5Q320 252 320.0 234.5Q320 217 332.5 204.5Q345 192 363 192ZM149 192Q167 192 179.5 204.5Q192 217 192.0 234.5Q192 252 179.5 264.5Q167 277 149.5 277.0Q132 277 119.5 264.5Q107 252 107.0 234.5Q107 217 119.5 204.5Q132 192 149 192ZM320 128 347 33 349 21Q349 4 336.5 -8.5Q324 -21 306 -21H206Q188 -21 175.5 -8.5Q163 4 163 21L165 33L192 128Z" />
      </g>
    </svg>