<svg xmlns="http://www.w3.org/2000/svg" viewBox="23 -36 448 448">
      <g transform="scale(1 -1) translate(0 -376)">
        <path d="M471 -11 51 412 23 384 87 320Q66 294 54.5 261.0Q43 228 43 192Q43 174 55.5 161.5Q68 149 85 149H258L279 128H192L164 32Q160 15 169.0 -0.5Q178 -16 194 -19L207 -21H307Q325 -21 337.5 -8.5Q350 4 350 21L348 32L341 53L337 73L446 -36ZM85 192Q85 244 117 290L132 275Q128 262 128 256Q128 238 140.5 225.5Q153 213 171 213Q177 213 190 218L215 192ZM207 21 213 43 226 85H290L309 21ZM341 213Q324 213 311.5 225.5Q299 238 299.0 256.0Q299 274 311.5 286.5Q324 299 341.5 299.0Q359 299 371.5 286.5Q384 274 384.0 256.0Q384 238 371.5 225.5Q359 213 341 213ZM175 341 143 373Q200 405 257.0 405.0Q314 405 363.0 376.5Q412 348 440.5 299.0Q469 250 469 192Q469 174 456.5 161.5Q444 149 427 149H367L324 192H427Q427 251 390.5 297.5Q354 344 299 358Q297 342 284.5 331.0Q272 320 256.0 320.0Q240 320 227.5 331.0Q215 342 213 358Q191 351 175 341Z" />
      </g>
    </svg>