<svg xmlns="http://www.w3.org/2000/svg" viewBox="128 0 256 171">
      <g transform="scale(1 -1) translate(0 -171)">
        <path d="M213 128Q226 128 237.0 121.0Q248 114 253.0 102.0Q258 90 255.5 77.0Q253 64 243.5 55.0Q234 46 221.5 43.5Q209 41 197.0 46.0Q185 51 178.0 61.5Q171 72 171 85Q171 103 183.5 115.5Q196 128 213 128ZM213 171Q178 171 153.0 146.0Q128 121 128.0 85.5Q128 50 153.0 25.0Q178 0 213.5 0.0Q249 0 274.0 25.0Q299 50 299.0 85.5Q299 121 274.0 146.0Q249 171 213 171ZM352 85Q365 85 374.5 76.0Q384 67 384.0 53.5Q384 40 374.5 30.5Q365 21 352.0 21.0Q339 21 329.5 30.5Q320 40 320.0 53.5Q320 67 329.5 76.0Q339 85 352 85Z" />
      </g>
    </svg>