<svg xmlns="http://www.w3.org/2000/svg" viewBox="128 0 256 384">
      <g transform="scale(1 -1) translate(0 -384)">
        <path d="M299 384H256V159Q236 170 213 171Q178 171 153.0 146.0Q128 121 128.0 85.5Q128 50 153.0 25.0Q178 0 213.5 0.0Q249 0 274.0 25.0Q299 50 299 85ZM213 43Q196 43 183.5 55.5Q171 68 171.0 85.5Q171 103 183.5 115.5Q196 128 213.5 128.0Q231 128 243.5 115.5Q256 103 256.0 85.5Q256 68 243.5 55.5Q231 43 213 43ZM352 21Q339 21 329.5 30.5Q320 40 320.0 53.5Q320 67 329.5 76.0Q339 85 352.0 85.0Q365 85 374.5 76.0Q384 67 384.0 53.5Q384 40 374.5 30.5Q365 21 352 21Z" />
      </g>
    </svg>