<svg xmlns="http://www.w3.org/2000/svg" viewBox="64 0 387 387">
      <g transform="scale(1 -1) translate(0 -387)">
        <path d="M299 299H384V384H256V286L299 243ZM256 225 94 387 64 357 256 165V159Q240 168 221.5 170.0Q203 172 185 166Q154 155 138.0 125.5Q122 96 130.5 64.0Q139 32 166.5 14.0Q194 -4 226.5 1.5Q259 7 279.0 32.0Q299 57 299 89V122L421 0L451 30ZM213 43Q196 43 183.5 55.5Q171 68 171.0 85.5Q171 103 183.5 115.5Q196 128 213.5 128.0Q231 128 243.5 115.5Q256 103 256.0 85.5Q256 68 243.5 55.5Q231 43 213 43Z" />
      </g>
    </svg>