<svg xmlns="http://www.w3.org/2000/svg" viewBox="107 21 297 342">
      <g transform="scale(1 -1) translate(0 -384)">
        <path d="M107 363H149V21H107ZM330 171H316L295 192L316 213H330Q352 213 371.0 226.0Q390 239 398.5 259.5Q407 280 403.0 302.5Q399 325 383.0 341.0Q367 357 344.5 361.5Q322 366 301.0 357.0Q280 348 267.5 329.5Q255 311 255 288H298Q298 301 307.5 310.5Q317 320 330.0 320.0Q343 320 352.5 310.5Q362 301 362.0 288.0Q362 275 352.5 265.5Q343 256 330 256H299L256 213H235V363H192V21H235V171H256L299 128H330Q343 128 352.5 118.5Q362 109 362.0 96.0Q362 83 352.5 73.5Q343 64 330.0 64.0Q317 64 307.5 73.5Q298 83 298 96H255Q255 65 277.0 43.0Q299 21 330.0 21.0Q361 21 382.5 43.0Q404 65 404.0 96.0Q404 127 382.5 149.0Q361 171 330 171Z" />
      </g>
    </svg>