<svg xmlns="http://www.w3.org/2000/svg" viewBox="117 43 278 298">
      <g transform="scale(1 -1) translate(0 -384)">
        <path d="M331 256Q310 256 288 242V341H245V243Q229 256 203 256Q182 256 160 242V341H117V43Q209 94 245 141V43Q321 85 359 124Q395 161 395 192Q395 218 381 235Q364 256 331 256ZM160 120V186Q171 198 182.5 205.5Q194 213 203 213Q214 213 219.0 209.5Q224 206 224 192Q224 184 215 171Q199 148 160 120ZM288 120V186Q299 198 310.5 205.5Q322 213 331 213Q342 213 347.0 209.5Q352 206 352 192Q352 184 343 171Q327 148 288 120Z" />
      </g>
    </svg>