<svg xmlns="http://www.w3.org/2000/svg" viewBox="107 20 320 343">
      <g transform="scale(1 -1) translate(0 -383)">
        <path d="M395 341Q408 341 417.5 332.0Q427 323 427.0 309.5Q427 296 417.5 286.5Q408 277 394.5 277.0Q381 277 372.0 286.5Q363 296 363.0 309.5Q363 323 372.0 332.0Q381 341 395 341ZM395 213Q408 213 417.5 204.0Q427 195 427.0 181.5Q427 168 417.5 158.5Q408 149 394.5 149.0Q381 149 372.0 158.5Q363 168 363.0 181.5Q363 195 372.0 204.0Q381 213 395 213ZM213 363Q184 363 159.5 348.5Q135 334 121.0 309.5Q107 285 107 256V235Q107 217 119.0 205.0Q131 193 148.0 192.5Q165 192 178.0 203.5Q191 215 192.0 232.5Q193 250 181.5 263.0Q170 276 153 277Q160 296 176.5 308.0Q193 320 213 320Q249 320 274.0 295.0Q299 270 299 235Q299 177 262.5 134.5Q226 92 149 60L166 20Q254 58 297.5 111.0Q341 164 341 235Q341 269 324.0 298.5Q307 328 277.5 345.5Q248 363 213 363Z" />
      </g>
    </svg>