<svg xmlns="http://www.w3.org/2000/svg" viewBox="171 0 170 171">
      <g transform="scale(1 -1) translate(0 -171)">
        <path d="M256 128Q269 128 279.5 121.0Q290 114 295.0 102.0Q300 90 297.5 77.0Q295 64 286.0 55.0Q277 46 264.5 43.5Q252 41 240.0 46.0Q228 51 220.5 61.5Q213 72 213 85Q213 103 225.5 115.5Q238 128 256 128ZM256 171Q221 171 196.0 146.0Q171 121 171.0 85.5Q171 50 196.0 25.0Q221 0 256.0 0.0Q291 0 316.0 25.0Q341 50 341.0 85.5Q341 121 316.0 146.0Q291 171 256 171Z" />
      </g>
    </svg>