<svg xmlns="http://www.w3.org/2000/svg" viewBox="43 -21 426 426">
      <g transform="scale(1 -1) translate(0 -384)">
        <path d="M85 320H43V21Q43 4 55.5 -8.5Q68 -21 85 -21H384V21H85ZM384 299H320V181Q320 159 304.5 143.5Q289 128 267.0 128.0Q245 128 229.0 143.5Q213 159 213.0 181.0Q213 203 229.0 219.0Q245 235 267 235Q284 235 299 224V341H384ZM427 405H171Q153 405 140.5 392.5Q128 380 128 363V107Q128 89 140.5 76.5Q153 64 171 64H427Q444 64 456.5 76.5Q469 89 469 107V363Q469 380 456.5 392.5Q444 405 427 405Z" />
      </g>
    </svg>