<svg xmlns="http://www.w3.org/2000/svg" viewBox="21 107 470 149">
      <g transform="scale(1 -1) translate(0 -363)">
        <path d="M448 192Q435 192 422 200Q414 205 398 219Q377 237 364 244Q343 256 320.5 256.0Q298 256 283 249Q271 244 264 235Q259 228 257 220L256 213L255 220Q253 228 248 235Q241 244 229 249Q214 256 191.5 256.0Q169 256 148 244Q135 237 114 219Q98 205 90 200Q77 192 64.0 192.0Q51 192 35 203Q27 208 21 213L26 197Q33 177 43 160Q57 137 75 123Q99 107 128 107Q175 107 209 123Q232 135 247 154Q254 164 256 171L261 161Q268 149 280 139Q296 125 319 117Q347 107 384.5 107.0Q422 107 450 134Q469 154 482 186Q488 201 491 213L484 208Q476 201 469 198Q457 192 448 192Z" />
      </g>
    </svg>