<svg xmlns="http://www.w3.org/2000/svg" viewBox="43 43 426 298">
      <g transform="scale(1 -1) translate(0 -384)">
        <path d="M85 341Q68 341 55.5 328.5Q43 316 43 299V85Q43 68 55.5 55.5Q68 43 85 43H427Q444 43 456.5 55.5Q469 68 469 85V299Q469 316 456.5 328.5Q444 341 427 341ZM96 299Q105 299 111.0 292.5Q117 286 117.0 277.0Q117 268 111.0 262.0Q105 256 96.0 256.0Q87 256 81.0 262.0Q75 268 75.0 277.0Q75 286 81.0 292.5Q87 299 96 299ZM149 299H427V85H149ZM171 277V107H235V277ZM256 277V107H320V277ZM341 277V107H405V277ZM192 256H213V235H192ZM277 256H299V235H277ZM363 256H384V235H363Z" />
      </g>
    </svg>