<svg xmlns="http://www.w3.org/2000/svg" viewBox="64 0 384 384">
      <g transform="scale(1 -1) translate(0 -384)">
        <path d="M160 384H352Q392 384 420.0 356.0Q448 328 448 288V96Q448 56 420.0 28.0Q392 0 352 0H160Q120 0 92.0 28.0Q64 56 64 96V288Q64 328 92.0 356.0Q120 384 160 384ZM128 160V96Q128 83 137.5 73.5Q147 64 160 64H192V224L320 64H352Q365 64 374.5 73.5Q384 83 384 96V160Q384 173 393.5 182.5Q403 192 416 192Q403 192 393.5 201.5Q384 211 384 224V288Q384 301 374.5 310.5Q365 320 352 320H320V160L192 320H160Q147 320 137.5 310.5Q128 301 128 288V224Q128 211 118.5 201.5Q109 192 96 192Q109 192 118.5 182.5Q128 173 128 160Z" />
      </g>
    </svg>