<svg xmlns="http://www.w3.org/2000/svg" viewBox="43 -21 430 423">
      <g transform="scale(1 -1) translate(0 -381)">
        <path d="M96 213Q109 213 118.5 222.5Q128 232 128.0 245.5Q128 259 118.5 268.0Q109 277 96.0 277.0Q83 277 73.5 268.0Q64 259 64.0 245.5Q64 232 73.5 222.5Q83 213 96 213ZM473 252Q473 293 453.0 327.5Q433 362 398.5 382.0Q364 402 323.5 402.0Q283 402 248.5 382.0Q214 362 194.0 327.5Q174 293 174 252Q174 197 209.5 155.5Q245 114 299 105V21H128V85H149V171Q149 180 143.0 186.0Q137 192 128 192H64Q55 192 49.0 186.0Q43 180 43 171V85H64V-21H405V21H341V104Q378 108 408.0 129.0Q438 150 455.5 182.5Q473 215 473 252Z" />
      </g>
    </svg>