<svg xmlns="http://www.w3.org/2000/svg" viewBox="53 21 406 320">
      <g transform="scale(1 -1) translate(0 -362)">
        <path d="M459 341H416Q416 298 394.5 261.0Q373 224 336.0 202.5Q299 181 256.0 181.0Q213 181 176.0 202.5Q139 224 117.5 261.0Q96 298 96 341H53Q54 288 80.0 242.0Q106 196 151.0 168.5Q196 141 250 139Q236 119 227 101Q213 75 213 64Q213 44 226.0 32.5Q239 21 256.0 21.0Q273 21 286.0 32.5Q299 44 299 64Q299 75 285 101Q276 119 262 139Q316 141 361.0 168.5Q406 196 432.0 242.0Q458 288 459 341Z" />
      </g>
    </svg>