<svg xmlns="http://www.w3.org/2000/svg" viewBox="21 -38 463 465">
      <g transform="scale(1 -1) translate(0 -389)">
        <path d="M363 171Q361 171 356 166L352 139Q342 135 335 128L309 139Q305 139 303 137L282 100Q279 98 284 94L307 77V55L284 38Q282 36 282 32L303 -4Q305 -6 309 -6L335 4L340 1Q348 -5 352 -6L356 -34Q356 -38 363 -38H405Q407 -38 408.5 -37.0Q410 -36 410 -34L414 -6Q423 -3 431 4L457 -6Q463 -6 463 -4L484 32Q486 34 482 38L459 55V77L482 94Q484 96 484 100L463 137Q461 139 457 139L433 128L429 131Q420 137 414 139L410 166Q410 168 408.5 169.5Q407 171 405 171ZM384 96Q397 96 406.5 86.5Q416 77 416.0 64.0Q416 51 406.5 41.5Q397 32 384.0 32.0Q371 32 361.5 41.5Q352 51 352.0 64.0Q352 77 361.5 86.5Q371 96 384 96ZM250 0H21L448 427V198Q414 213 384 213Q343 213 309.0 193.0Q275 173 255.0 139.0Q235 105 235 64Q235 27 250 0Z" />
      </g>
    </svg>