<svg xmlns="http://www.w3.org/2000/svg" viewBox="22 -64 447 448">
      <g transform="scale(1 -1) translate(0 -320)">
        <path d="M22 336 107 251V128Q107 110 119.5 97.5Q132 85 149 85H235V43H213Q204 43 198.0 36.5Q192 30 192 21H43V-21H192Q192 -30 198.0 -36.5Q204 -43 213 -43H299Q308 -43 314.0 -36.5Q320 -30 320 -21H379L422 -64L449 -37L49 363ZM149 208 230 128H149ZM320 21Q320 30 314.0 36.5Q308 43 299 43H277V80L336 21ZM469 21V-3L445 21ZM149 317 110 357Q114 369 125.0 376.5Q136 384 149 384H363Q380 384 392.5 371.5Q405 359 405 341V128Q405 115 397.5 104.0Q390 93 378 88L338 128H363V341H149Z" />
      </g>
    </svg>