<svg xmlns="http://www.w3.org/2000/svg" viewBox="43 -43 426 470">
      <g transform="scale(1 -1) translate(0 -384)">
        <path d="M363 256H171V299H363ZM149 299H107V256H149ZM149 363H107V320H149ZM213 363H171V320H213ZM277 85V43H299Q307 43 313.5 36.5Q320 30 320 21H469V-21H320Q320 -30 313.5 -36.5Q307 -43 299 -43H213Q205 -43 198.5 -36.5Q192 -30 192 -21H43V21H192Q192 30 198.5 36.5Q205 43 213 43H235V85H85Q68 85 55.5 97.5Q43 110 43 128V384Q43 402 55.5 414.5Q68 427 85 427H427Q444 427 456.5 414.5Q469 402 469 384V128Q469 110 456.5 97.5Q444 85 427 85ZM427 128V384H85V128ZM235 320H405V363H235ZM107 192H235V235H107ZM277 149H405V192H277Z" />
      </g>
    </svg>