<svg xmlns="http://www.w3.org/2000/svg" viewBox="43 21 426 342">
      <g transform="scale(1 -1) translate(0 -384)">
        <path d="M427 363Q444 363 456.5 350.5Q469 338 469 320V64Q469 46 456.5 33.5Q444 21 427 21H85Q68 21 55.5 33.5Q43 46 43 64V320Q43 338 55.5 350.5Q68 363 85 363ZM181 128V256H155V181L101 256H75V128H101V203L156 128ZM288 229V256H203V128H288V155H235V178H288V205H235V229ZM437 149V256H411V160H387V235H360V160H336V256H309V149Q309 140 315.5 134.0Q322 128 331 128H416Q425 128 431.0 134.0Q437 140 437 149Z" />
      </g>
    </svg>