<svg xmlns="http://www.w3.org/2000/svg" viewBox="0 -64 469 469">
      <g transform="scale(1 -1) translate(0 -341)">
        <path d="M27 404 468 -37 442 -64 399 -21H85Q68 -21 55.5 -8.5Q43 4 43 21V335L0 378ZM81 405Q81 405 81 405H427Q444 405 456.5 392.5Q469 380 469 363V17L427 60V363H124ZM128 250 85 292V21H356L314 64H128ZM384 102 341 145V277H277V229Q287 223 293.0 213.5Q299 204 299 192V188L235 252V277Q235 295 247.5 307.5Q260 320 277 320H384ZM171 107H271L171 207ZM213 277H209L166 320H213Z" />
      </g>
    </svg>