<svg xmlns="http://www.w3.org/2000/svg" viewBox="43 -51 456 456">
      <g transform="scale(1 -1) translate(0 -354)">
        <path d="M352 192Q392 192 420.0 164.0Q448 136 448 96Q448 68 433 45L499 -21L469 -51L403 15Q380 0 352 0Q312 0 284.0 28.0Q256 56 256.0 96.0Q256 136 284.0 164.0Q312 192 352 192ZM352 149Q330 149 314.5 133.5Q299 118 299.0 96.0Q299 74 314.5 58.5Q330 43 352.0 43.0Q374 43 389.5 58.5Q405 74 405.0 96.0Q405 118 389.5 133.5Q374 149 352 149ZM384 320V231Q366 236 341 235V277H277V229L289 219Q249 199 229 159Q213 172 213 192Q213 204 219.0 213.5Q225 223 235 229V277Q235 295 247.5 307.5Q260 320 277 320ZM128 64V320H213V277H171V107H213Q212 83 217 64ZM427 363H85V21H235Q253 -6 278 -21H85Q68 -21 55.5 -8.5Q43 4 43 21V363Q43 380 55.5 392.5Q68 405 85 405H427Q444 405 456.5 392.5Q469 380 469 363V170Q453 196 427 213Z" />
      </g>
    </svg>