<svg xmlns="http://www.w3.org/2000/svg" viewBox="43 21 426 342">
      <g transform="scale(1 -1) translate(0 -384)">
        <path d="M256 235Q274 235 286.5 222.5Q299 210 299.0 192.0Q299 174 286.5 161.5Q274 149 256.0 149.0Q238 149 225.5 161.5Q213 174 213.0 192.0Q213 210 225.5 222.5Q238 235 256 235ZM85 363H235Q252 363 264.5 350.5Q277 338 277 320V256H235V320H85V213H128V256L192 192L128 128V171H85Q68 171 55.5 183.5Q43 196 43 213V320Q43 338 55.5 350.5Q68 363 85 363ZM427 21H277Q260 21 247.5 33.5Q235 46 235 64V128H277V64H427V171H384V128L320 192L384 256V213H427Q444 213 456.5 200.5Q469 188 469 171V64Q469 46 456.5 33.5Q444 21 427 21Z" />
      </g>
    </svg>