<svg xmlns="http://www.w3.org/2000/svg" viewBox="43 -21 426 426">
      <g transform="scale(1 -1) translate(0 -384)">
        <path d="M165 171Q165 182 174 190Q198 185 219 171Q219 160 211.0 152.0Q203 144 192.0 144.0Q181 144 173.0 152.0Q165 160 165 171ZM293 171Q314 185 338 190Q347 182 347.0 170.5Q347 159 339.0 151.5Q331 144 320.0 144.0Q309 144 301.0 151.5Q293 159 293 171ZM256 256Q166 257 87 213L85 192Q85 152 103 116Q179 128 256.0 128.0Q333 128 409 116Q427 152 427 192L425 213Q346 257 256 256ZM256 405Q298 405 337.5 389.0Q377 373 407.0 343.0Q437 313 453.0 273.5Q469 234 469.0 192.0Q469 150 453.0 110.5Q437 71 407.0 41.0Q377 11 337.5 -5.0Q298 -21 256.0 -21.0Q214 -21 174.5 -5.0Q135 11 105.0 41.0Q75 71 59.0 110.5Q43 150 43.0 192.0Q43 234 59.0 273.5Q75 313 105.0 343.0Q135 373 174.5 389.0Q214 405 256 405Z" />
      </g>
    </svg>