<svg xmlns="http://www.w3.org/2000/svg" viewBox="107 -43 298 470">
      <g transform="scale(1 -1) translate(0 -384)">
        <path d="M149 427Q132 427 119.5 414.5Q107 402 107 384V0Q107 -18 119.5 -30.5Q132 -43 149 -43H299Q328 -43 352.5 -28.5Q377 -14 391.0 10.5Q405 35 405 64V384Q405 402 392.5 414.5Q380 427 363 427ZM171 363H341V213H171ZM192 149H213V107H256V85H213V43H192V85H149V107H192ZM341 128Q350 128 356.5 121.5Q363 115 363.0 106.5Q363 98 356.5 91.5Q350 85 341.5 85.0Q333 85 326.5 91.5Q320 98 320.0 106.5Q320 115 326.5 121.5Q333 128 341 128ZM299 85Q307 85 313.5 79.0Q320 73 320.0 64.0Q320 55 313.5 49.0Q307 43 298.5 43.0Q290 43 283.5 49.0Q277 55 277.0 64.0Q277 73 283.5 79.0Q290 85 299 85Z" />
      </g>
    </svg>