<svg xmlns="http://www.w3.org/2000/svg" viewBox="43 -21 426 426">
      <g transform="scale(1 -1) translate(0 -384)">
        <path d="M214 13H152Q122 13 99.5 35.5Q77 58 77 88V296Q77 326 99.0 348.5Q121 371 152 371H214ZM152 405Q122 405 97.0 390.5Q72 376 57.5 351.0Q43 326 43 296V88Q43 58 57.5 33.0Q72 8 97.0 -6.5Q122 -21 152 -21H249V405ZM109 277Q109 261 121.0 249.0Q133 237 149.5 237.0Q166 237 177.5 249.0Q189 261 189.0 277.5Q189 294 177.5 305.5Q166 317 149.5 317.0Q133 317 121.0 305.5Q109 294 109 277ZM376 213Q393 213 406.0 200.5Q419 188 419.0 170.5Q419 153 406.0 140.5Q393 128 375.5 128.0Q358 128 345.0 140.5Q332 153 332.0 170.5Q332 188 345.0 200.5Q358 213 376 213ZM360 -21Q390 -21 415.0 -6.5Q440 8 454.5 33.0Q469 58 469 88V296Q469 326 454.5 351.0Q440 376 415.0 390.5Q390 405 360 405H291V-21Z" />
      </g>
    </svg>