<svg xmlns="http://www.w3.org/2000/svg" viewBox="43 84 426 205">
      <g transform="scale(1 -1) translate(0 -373)">
        <path d="M381 87H341V218H381ZM384 265Q384 255 377.0 248.0Q370 241 360.5 241.0Q351 241 344.0 248.0Q337 255 337.0 265.0Q337 275 344.0 282.0Q351 289 360.5 289.0Q370 289 377.0 282.0Q384 275 384 265ZM465 87H425V218H465ZM469 265Q469 255 462.0 248.0Q455 241 445.5 241.0Q436 241 429.0 248.0Q422 255 422.0 265.0Q422 275 429.0 282.0Q436 289 445.5 289.0Q455 289 462.0 282.0Q469 275 469 265ZM275 276H318L270 109Q266 99 261 93Q252 84 241 84Q225 84 215 101Q210 109 209 117L180 221L149 109Q145 99 139 93Q131 84 120 84Q104 84 94 101Q89 109 88 117L43 276H85L122 135L152 250Q156 268 169 275Q175 278 180 278L186 277Q193 275 198 270Q206 262 209 250L238 135Z" />
      </g>
    </svg>