<svg xmlns="http://www.w3.org/2000/svg" viewBox="43 6 426 372">
      <g transform="scale(1 -1) translate(0 -384)">
        <path d="M211 262 107 81 83 122 111 171H55L43 192L55 213H134L162 262ZM218 117H425L401 77H346L373 28L361 6H337L299 77H241ZM339 196 235 378H282L309 329L337 378H361L373 356L333 288L363 239ZM294 267H85L109 307H164L137 356L149 378H173L213 309H271ZM301 122 405 303 429 262 401 213H457L469 192L457 171H378L350 122ZM173 188 277 9H230L203 58L179 9H151L139 30L179 98L149 145Z" />
      </g>
    </svg>