<svg xmlns="http://www.w3.org/2000/svg" viewBox="64 -25 384 434">
      <g transform="scale(1 -1) translate(0 -384)">
        <path d="M256 409Q247 409 239 404L81 313Q73 308 68.5 300.0Q64 292 64 284V100Q64 92 68.5 84.0Q73 76 81 71L122 48Q136 41 145 39Q150 38 159 38Q181 38 193.5 51.0Q206 64 206 87V268Q206 270 204.5 271.5Q203 273 201 273H181Q176 273 176 268V87Q176 75 165.5 69.0Q155 63 139 71L95 96Q93 98 93 100V284Q93 287 95 288L254 380Q256 381 258 380L417 288Q419 287 419 284V100Q419 98 417 96L258 4Q256 3 253 4L213 29Q210 30 209 29H208Q195 21 185 18Q178 16 186 11L239 -20Q247 -25 256.0 -25.0Q265 -25 273 -20L431 71Q439 76 443.5 84.0Q448 92 448 100V284Q448 292 443.5 300.0Q439 308 431 313L273 404Q265 409 256 409ZM299 277Q265 277 245.5 263.5Q226 250 226.0 226.0Q226 202 245 191Q261 181 296.5 177.5Q332 174 344 168Q353 164 353 155Q353 141 341.5 135.0Q330 129 305 129Q275 129 263 137Q253 144 251 161Q250 165 246 165H225Q221 165 221 160Q221 135 237 121Q258 102 305 102Q343 102 363.5 116.0Q384 130 384.0 155.0Q384 180 366 191Q351 201 312 206Q287 209 276.0 211.5Q265 214 261.5 217.5Q258 221 258 227Q258 237 265 242Q274 250 298.5 250.0Q323 250 333.5 243.5Q344 237 348 221Q349 217 353 217H373Q375 217 376.5 218.5Q378 220 378 222Q375 250 356.0 263.5Q337 277 299 277Z" />
      </g>
    </svg>