<svg xmlns="http://www.w3.org/2000/svg" viewBox="64 -49 427 454">
      <g transform="scale(1 -1) translate(0 -356)">
        <path d="M405 -49 393 -38 383 -29Q349 3 337 17Q320 40 320.0 59.5Q320 79 334.0 93.0Q348 107 367 107Q378 107 388.5 102.5Q399 98 405 90Q412 98 422.0 102.5Q432 107 444 107Q463 107 477.0 93.5Q491 80 491.0 60.0Q491 40 473 17Q462 3 428 -29L418 -38ZM64 299V341H107V363Q107 380 119.5 392.5Q132 405 149 405H277V256L331 288L384 256V405H405Q422 405 435.0 392.0Q448 379 448 363V163Q427 171 405 171Q371 171 341.5 153.5Q312 136 294.5 106.5Q277 77 277.0 42.5Q277 8 294 -21H149Q133 -21 120.0 -8.0Q107 5 107 21V43H64V85H107V171H64V213H107V299ZM107 341V299H149V341ZM107 43H149V85H107ZM107 171H149V213H107Z" />
      </g>
    </svg>