<svg xmlns="http://www.w3.org/2000/svg" viewBox="64 -32 395 437">
      <g transform="scale(1 -1) translate(0 -373)">
        <path d="M363 363V235L320 277L277 235V363H192V21H258Q261 3 273 -21H149Q132 -21 119.5 -8.0Q107 5 107 21V43H64V85H107V171H64V213H107V299H64V341H107V363Q107 380 119.5 392.5Q132 405 149 405H405Q421 405 434.5 392.0Q448 379 448 363V154Q431 165 405 169V363ZM107 43H149V85H107ZM107 171H149V213H107ZM107 299H149V341H107ZM429 117 384 73 339 117 309 87 354 43 309 -2 339 -32 384 13 429 -32 459 -2 414 43 459 87Z" />
      </g>
    </svg>