<svg xmlns="http://www.w3.org/2000/svg" viewBox="64 -43 405 448">
      <g transform="scale(1 -1) translate(0 -362)">
        <path d="M64 299V341H107V363Q107 380 119.5 392.5Q132 405 149 405H277V256L331 288L384 256V405H405Q421 405 434.5 392.0Q448 379 448 363V154Q417 171 383.0 171.0Q349 171 320.0 153.5Q291 136 273.5 106.5Q256 77 256.0 43.0Q256 9 273 -21H149Q132 -21 119.5 -8.0Q107 5 107 21V43H64V85H107V171H64V213H107V299ZM107 341V299H149V341ZM107 43H149V85H107ZM107 171H149V213H107ZM363 128V64H299V21H363V-43H405V21H469V64H405V128Z" />
      </g>
    </svg>