<svg xmlns="http://www.w3.org/2000/svg" viewBox="64 -43 424 448">
      <g transform="scale(1 -1) translate(0 -362)">
        <path d="M407 131 451 87 321 -43H277V1ZM449 168Q453 168 457 164L484 137Q488 134 488.0 129.0Q488 124 484 121L463 99L419 143L441 164Q444 168 449 168ZM363 363V235L320 277L277 235V363H192V21H235V-21H149Q133 -21 120.0 -8.0Q107 5 107 21V43H64V85H107V171H64V213H107V299H64V341H107V363Q107 380 119.5 392.5Q132 405 149 405H405Q422 405 435.0 392.0Q448 379 448 363V235L405 192V363ZM107 341V299H149V341ZM107 213V171H149V213ZM107 85V43H149V85Z" />
      </g>
    </svg>