<svg xmlns="http://www.w3.org/2000/svg" viewBox="13 -30 435 414">
      <g transform="scale(1 -1) translate(0 -354)">
        <path d="M320 384H107Q89 384 76.5 371.5Q64 359 64 341V217Q91 243 126.0 251.5Q161 260 196.5 251.0Q232 242 258.5 215.5Q285 189 294.0 153.0Q303 117 294.0 81.5Q285 46 258 19Q248 9 233 0H405Q423 0 435.5 12.5Q448 25 448 43V256ZM299 235V352L416 235ZM160 213Q120 213 92.0 185.0Q64 157 64 117Q64 89 79 66L13 0L43 -30L109 36Q133 21 160 21Q200 21 228.0 49.0Q256 77 256.0 117.0Q256 157 228.0 185.0Q200 213 160 213ZM160 64Q138 64 122.5 79.5Q107 95 107.0 117.0Q107 139 122.5 155.0Q138 171 160.0 171.0Q182 171 197.5 155.0Q213 139 213.0 117.0Q213 95 197.5 79.5Q182 64 160 64Z" />
      </g>
    </svg>