<svg xmlns="http://www.w3.org/2000/svg" viewBox="21 -43 470 469">
      <g transform="scale(1 -1) translate(0 -383)">
        <path d="M193 256H151V320H193V362H151V383Q151 401 163.0 413.5Q175 426 193 426H321V277L373 309L427 277V426H448Q465 426 478.0 413.0Q491 400 491 383V85Q491 69 478.0 56.0Q465 43 448 43H193Q176 43 163.5 56.0Q151 69 151 85V107H193V149H151V213H193ZM21 64H64V128H21V171H64V235H21V277H64V341H107V277H64V235H107V171H64V128H107V64H64V21H107V0H448V-43H107Q89 -43 76.5 -30.5Q64 -18 64 0V21H21Z" />
      </g>
    </svg>