<svg xmlns="http://www.w3.org/2000/svg" viewBox="64 -25 395 430">
      <g transform="scale(1 -1) translate(0 -380)">
        <path d="M357 -25 299 39 323 64 357 30 434 107 459 77ZM64 299V341H107V363Q107 380 119.5 392.5Q132 405 149 405H277V256L331 288L384 256V405H405Q422 405 435.0 392.0Q448 379 448 363V154Q419 171 384.0 171.0Q349 171 319.5 153.5Q290 136 273.0 106.5Q256 77 256.0 42.5Q256 8 273 -21H149Q133 -21 120.0 -8.0Q107 5 107 21V43H64V85H107V171H64V213H107V299ZM107 341V299H149V341ZM107 43H149V85H107ZM107 171H149V213H107Z" />
      </g>
    </svg>