<svg xmlns="http://www.w3.org/2000/svg" viewBox="64 -43 424 448">
      <g transform="scale(1 -1) translate(0 -362)">
        <path d="M449 168Q453 168 457 164L484 137Q488 134 488.0 129.0Q488 124 484 121L463 99L419 143L441 164Q444 168 449 168ZM407 131 451 87 321 -43H277V1ZM64 299V341H107V363Q107 380 119.5 392.5Q132 405 149 405H277V256L331 288L384 256V405H405Q422 405 435.0 392.0Q448 379 448 363V235L235 21V-21H149Q133 -21 120.0 -8.0Q107 5 107 21V43H64V85H107V171H64V213H107V299ZM107 299H149V341H107ZM107 213V171H149V213ZM107 85V43H149V85Z" />
      </g>
    </svg>