<svg xmlns="http://www.w3.org/2000/svg" viewBox="43 -21 426 426">
      <g transform="scale(1 -1) translate(0 -384)">
        <path d="M300 192H213V213H117Q86 213 64.5 235.0Q43 257 43.0 288.0Q43 319 64.5 341.0Q86 363 117 363Q150 363 173 338Q179 367 202.5 386.0Q226 405 256.0 405.0Q286 405 309.5 386.0Q333 367 339 338Q362 363 395 363Q426 363 447.5 341.0Q469 319 469.0 288.0Q469 257 447.5 235.0Q426 213 395 213H300ZM213 87V112H107V154H405V112H300V87L427 41Q436 38 442.0 29.5Q448 21 448 11Q448 -3 438.5 -12.0Q429 -21 416 -21H96Q83 -21 73.5 -12.0Q64 -3 64 11Q64 21 70.0 29.5Q76 38 85 41Z" />
      </g>
    </svg>