<svg xmlns="http://www.w3.org/2000/svg" viewBox="64 0 384 384">
      <g transform="scale(1 -1) translate(0 -384)">
        <path d="M320 224Q320 211 310.5 201.5Q301 192 288 192Q301 192 310.5 182.5Q320 173 320 160V128Q320 110 307.5 97.5Q295 85 277 85H192V128H277V171H235V213H277V256H192V299H277Q295 299 307.5 286.5Q320 274 320 256ZM405 384H107Q89 384 76.5 371.5Q64 359 64 341V43Q64 25 76.5 12.5Q89 0 107 0H405Q423 0 435.5 12.5Q448 25 448 43V341Q448 359 435.5 371.5Q423 384 405 384Z" />
      </g>
    </svg>