<svg xmlns="http://www.w3.org/2000/svg" viewBox="64 0 384 384">
      <g transform="scale(1 -1) translate(0 -384)">
        <path d="M320 256H235V213H277Q295 213 307.5 200.5Q320 188 320 171V128Q320 110 307.5 97.5Q295 85 277 85H235Q217 85 204.5 97.5Q192 110 192 128V256Q192 274 204.5 286.5Q217 299 235 299H320ZM405 384H107Q89 384 76.5 371.5Q64 359 64 341V43Q64 25 76.5 12.5Q89 0 107 0H405Q423 0 435.5 12.5Q448 25 448 43V341Q448 359 435.5 371.5Q423 384 405 384ZM235 128H277V171H235Z" />
      </g>
    </svg>