<svg xmlns="http://www.w3.org/2000/svg" viewBox="21 -43 470 470">
      <g transform="scale(1 -1) translate(0 -384)">
        <path d="M64 341V0H405V-43H64Q46 -43 33.5 -30.5Q21 -18 21 0V341ZM363 171H277V213H320Q338 213 350.5 225.5Q363 238 363 256V299Q363 316 350.5 328.5Q338 341 320 341H235V299H320V256H277Q260 256 247.5 243.5Q235 231 235 213V128H363ZM448 427Q466 427 478.5 414.5Q491 402 491 384V85Q491 68 478.5 55.5Q466 43 448 43H149Q132 43 119.5 55.5Q107 68 107 85V384Q107 402 119.5 414.5Q132 427 149 427Z" />
      </g>
    </svg>