<svg xmlns="http://www.w3.org/2000/svg" viewBox="64 0 384 384">
      <g transform="scale(1 -1) translate(0 -384)">
        <path d="M405 213H363V256H320V213H277V171H320V128H363V171H405V43H107V341H405ZM405 384H107Q89 384 76.5 371.5Q64 359 64 341V43Q64 25 76.5 12.5Q89 0 107 0H405Q423 0 435.5 12.5Q448 25 448 43V341Q448 359 435.5 371.5Q423 384 405 384ZM192 213V235H213V213ZM256 149V235Q256 252 243.5 264.5Q231 277 213 277H192Q174 277 161.5 264.5Q149 252 149 235V213Q149 196 161.5 183.5Q174 171 192 171H213V149H149V107H213Q231 107 243.5 119.5Q256 132 256 149Z" />
      </g>
    </svg>