<svg xmlns="http://www.w3.org/2000/svg" viewBox="43 85 426 214">
      <g transform="scale(1 -1) translate(0 -384)">
        <path d="M85 85V256H43V299H128V85ZM469 128Q469 110 456.5 97.5Q444 85 427 85H341V128H427V171H384V213H427V256H341V299H427Q444 299 456.5 286.5Q469 274 469 256V224Q469 211 460.0 201.5Q451 192 437 192Q451 192 460.0 182.5Q469 173 469 160ZM299 128V85H171V171Q171 188 183.5 200.5Q196 213 213 213H256V256H171V299H256Q274 299 286.5 286.5Q299 274 299 256V213Q299 196 286.5 183.5Q274 171 256 171H213V128Z" />
      </g>
    </svg>