<svg xmlns="http://www.w3.org/2000/svg" viewBox="43 -21 426 426">
      <g transform="scale(1 -1) translate(0 -384)">
        <path d="M256 405Q314 405 363.0 376.5Q412 348 440.5 299.0Q469 250 469.0 192.0Q469 134 440.5 85.0Q412 36 363.0 7.5Q314 -21 256.0 -21.0Q198 -21 149.0 7.5Q100 36 71.5 85.0Q43 134 43.0 192.0Q43 250 71.5 299.0Q100 348 149.0 376.5Q198 405 256 405ZM256 363Q210 363 170.5 340.0Q131 317 108.0 277.5Q85 238 85.0 192.0Q85 146 108.0 106.5Q131 67 170.5 44.0Q210 21 256.0 21.0Q302 21 341.5 44.0Q381 67 404.0 106.5Q427 146 427.0 192.0Q427 238 404.0 277.5Q381 317 341.5 340.0Q302 363 256 363ZM213 299H128V256H171V85H213ZM341 299H299Q281 299 268.5 286.5Q256 274 256 256V128Q256 110 268.5 97.5Q281 85 299 85H341Q359 85 371.5 97.5Q384 110 384 128V256Q384 274 371.5 286.5Q359 299 341 299ZM341 128H299V256H341Z" />
      </g>
    </svg>