<svg xmlns="http://www.w3.org/2000/svg" viewBox="64 0 384 384">
      <g transform="scale(1 -1) translate(0 -384)">
        <path d="M235 171H277V128H235ZM235 256H277V213H235ZM235 85H277Q295 85 307.5 97.5Q320 110 320 128V160Q320 173 310.5 182.5Q301 192 288 192Q301 192 310.5 201.5Q320 211 320 224V256Q320 274 307.5 286.5Q295 299 277 299H235Q217 299 204.5 286.5Q192 274 192 256V224Q192 211 201.5 201.5Q211 192 224 192Q211 192 201.5 182.5Q192 173 192 160V128Q192 110 204.5 97.5Q217 85 235 85ZM405 43H107V341H405ZM405 384H107Q89 384 76.5 371.5Q64 359 64 341V43Q64 25 76.5 12.5Q89 0 107 0H405Q423 0 435.5 12.5Q448 25 448 43V341Q448 359 435.5 371.5Q423 384 405 384Z" />
      </g>
    </svg>