<svg xmlns="http://www.w3.org/2000/svg" viewBox="64 0 384 384">
      <g transform="scale(1 -1) translate(0 -384)">
        <path d="M299 256H341V128H299ZM448 341V43Q448 25 435.5 12.5Q423 0 405 0H107Q89 0 76.5 12.5Q64 25 64 43V341Q64 359 76.5 371.5Q89 384 107 384H405Q423 384 435.5 371.5Q448 359 448 341ZM213 299H128V256H171V85H213ZM384 256Q384 274 371.5 286.5Q359 299 341 299H299Q281 299 268.5 286.5Q256 274 256 256V128Q256 110 268.5 97.5Q281 85 299 85H341Q359 85 371.5 97.5Q384 110 384 128Z" />
      </g>
    </svg>