<svg xmlns="http://www.w3.org/2000/svg" viewBox="23 -36 448 448">
      <g transform="scale(1 -1) translate(0 -376)">
        <path d="M471 -11 51 412 23 384 109 299H43V256H85V85H128V279L198 209Q186 206 178.5 195.0Q171 184 171 171V85H299V109L444 -36ZM213 128V171H237L279 128ZM299 218 218 299H256Q274 299 286.5 286.5Q299 274 299 256ZM427 256H341V299H427Q444 299 456.5 286.5Q469 274 469 256V224Q469 211 459.5 201.5Q450 192 437 192Q450 192 459.5 182.5Q469 173 469 160V128Q469 112 458.0 99.5Q447 87 431 85L388 128H427V171H384V213H427Z" />
      </g>
    </svg>