<svg xmlns="http://www.w3.org/2000/svg" viewBox="21 -43 470 470">
      <g transform="scale(1 -1) translate(0 -384)">
        <path d="M64 341V0H405V-43H64Q46 -43 33.5 -30.5Q21 -18 21 0V341ZM448 427Q466 427 478.5 414.5Q491 402 491 384V85Q491 68 478.5 55.5Q466 43 448 43H149Q132 43 119.5 55.5Q107 68 107 85V384Q107 402 119.5 414.5Q132 427 149 427ZM363 171V213Q363 231 350.5 243.5Q338 256 320 256H277V299H363V341H235V213H320V171H235V128H320Q338 128 350.5 140.5Q363 153 363 171Z" />
      </g>
    </svg>