<svg xmlns="http://www.w3.org/2000/svg" viewBox="21 -43 470 470">
      <g transform="scale(1 -1) translate(0 -384)">
        <path d="M448 85V384H149V85ZM448 427Q466 427 478.5 414.5Q491 402 491 384V85Q491 68 478.5 55.5Q466 43 448 43H149Q132 43 119.5 55.5Q107 68 107 85V384Q107 402 119.5 414.5Q132 427 149 427ZM64 341V0H405V-43H64Q46 -43 33.5 -30.5Q21 -18 21 0V341ZM277 341H320Q338 341 350.5 328.5Q363 316 363 299V171Q363 153 350.5 140.5Q338 128 320 128H277Q260 128 247.5 140.5Q235 153 235 171V299Q235 316 247.5 328.5Q260 341 277 341ZM277 299V171H320V299Z" />
      </g>
    </svg>