<svg xmlns="http://www.w3.org/2000/svg" viewBox="64 0 384 384">
      <g transform="scale(1 -1) translate(0 -384)">
        <path d="M405 384Q423 384 435.5 371.5Q448 359 448 341V43Q448 25 435.5 12.5Q423 0 405 0H107Q89 0 76.5 12.5Q64 25 64 43V341Q64 359 76.5 371.5Q89 384 107 384ZM277 213H235V256H277ZM277 299H235Q217 299 204.5 286.5Q192 274 192 256V213Q192 196 204.5 183.5Q217 171 235 171H277V128H192V85H277Q295 85 307.5 97.5Q320 110 320 128V256Q320 274 307.5 286.5Q295 299 277 299Z" />
      </g>
    </svg>