<svg xmlns="http://www.w3.org/2000/svg" viewBox="192 85 128 214">
      <g transform="scale(1 -1) translate(0 -384)">
        <path d="M235 171H277V128H235ZM235 256H277V213H235ZM235 85H277Q295 85 307.5 97.5Q320 110 320 128V160Q320 173 310.5 182.5Q301 192 288 192Q301 192 310.5 201.5Q320 211 320 224V256Q320 274 307.5 286.5Q295 299 277 299H235Q217 299 204.5 286.5Q192 274 192 256V224Q192 211 201.5 201.5Q211 192 224 192Q211 192 201.5 182.5Q192 173 192 160V128Q192 110 204.5 97.5Q217 85 235 85Z" />
      </g>
    </svg>