<svg xmlns="http://www.w3.org/2000/svg" viewBox="21 -43 470 470">
      <g transform="scale(1 -1) translate(0 -384)">
        <path d="M448 85V384H149V85ZM448 427Q466 427 478.5 414.5Q491 402 491 384V85Q491 68 478.5 55.5Q466 43 448 43H149Q132 43 119.5 55.5Q107 68 107 85V384Q107 402 119.5 414.5Q132 427 149 427ZM64 341V0H405V-43H64Q46 -43 33.5 -30.5Q21 -18 21 0V341ZM256 341H171V299H213V128H256ZM384 341H341Q324 341 311.5 328.5Q299 316 299 299V171Q299 153 311.5 140.5Q324 128 341 128H384Q402 128 414.5 140.5Q427 153 427 171V299Q427 316 414.5 328.5Q402 341 384 341ZM384 171H341V299H384Z" />
      </g>
    </svg>