<svg xmlns="http://www.w3.org/2000/svg" viewBox="64 0 384 384">
      <g transform="scale(1 -1) translate(0 -384)">
        <path d="M405 43H107V341H405ZM405 384H107Q89 384 76.5 371.5Q64 359 64 341V43Q64 25 76.5 12.5Q89 0 107 0H405Q423 0 435.5 12.5Q448 25 448 43V341Q448 359 435.5 371.5Q423 384 405 384ZM171 85H213V299H128V256H171ZM299 299H341Q359 299 371.5 286.5Q384 274 384 256V128Q384 110 371.5 97.5Q359 85 341 85H299Q281 85 268.5 97.5Q256 110 256 128V256Q256 274 268.5 286.5Q281 299 299 299ZM299 256V128H341V256Z" />
      </g>
    </svg>