<svg xmlns="http://www.w3.org/2000/svg" viewBox="64 0 384 384">
      <g transform="scale(1 -1) translate(0 -384)">
        <path d="M405 43V341H107V43ZM405 384Q423 384 435.5 371.5Q448 359 448 341V43Q448 25 435.5 12.5Q423 0 405 0H107Q89 0 76.5 12.5Q64 25 64 43V341Q64 359 76.5 371.5Q89 384 107 384ZM235 299H277Q295 299 307.5 286.5Q320 274 320 256V128Q320 110 307.5 97.5Q295 85 277 85H235Q217 85 204.5 97.5Q192 110 192 128V256Q192 274 204.5 286.5Q217 299 235 299ZM235 256V128H277V256Z" />
      </g>
    </svg>