<svg xmlns="http://www.w3.org/2000/svg" viewBox="43 -21 426 426">
      <g transform="scale(1 -1) translate(0 -384)">
        <path d="M299 256H341V128H299ZM469 192Q469 134 440.5 85.0Q412 36 363.0 7.5Q314 -21 256.0 -21.0Q198 -21 149.0 7.5Q100 36 71.5 85.0Q43 134 43.0 192.0Q43 250 71.5 299.0Q100 348 149.0 376.5Q198 405 256.0 405.0Q314 405 363.0 376.5Q412 348 440.5 299.0Q469 250 469 192ZM213 299H128V256H171V85H213ZM384 256Q384 274 371.5 286.5Q359 299 341 299H299Q281 299 268.5 286.5Q256 274 256 256V128Q256 110 268.5 97.5Q281 85 299 85H341Q359 85 371.5 97.5Q384 110 384 128Z" />
      </g>
    </svg>