<svg xmlns="http://www.w3.org/2000/svg" viewBox="21 -43 470 470">
      <g transform="scale(1 -1) translate(0 -384)">
        <path d="M363 171V203Q363 216 353.5 225.5Q344 235 331 235Q344 235 353.5 244.0Q363 253 363 267V299Q363 316 350.5 328.5Q338 341 320 341H235V299H320V256H277V213H320V171H235V128H320Q338 128 350.5 140.5Q363 153 363 171ZM64 341H21V0Q21 -18 33.5 -30.5Q46 -43 64 -43H405V0H64ZM448 85H149V384H448ZM448 427H149Q132 427 119.5 414.5Q107 402 107 384V85Q107 68 119.5 55.5Q132 43 149 43H448Q466 43 478.5 55.5Q491 68 491 85V384Q491 402 478.5 414.5Q466 427 448 427Z" />
      </g>
    </svg>