<svg xmlns="http://www.w3.org/2000/svg" viewBox="21 -43 470 470">
      <g transform="scale(1 -1) translate(0 -384)">
        <path d="M277 213H320V171H277ZM277 299H320V256H277ZM64 341V0H405V-43H64Q46 -43 33.5 -30.5Q21 -18 21 0V341ZM277 128H320Q338 128 350.5 140.5Q363 153 363 171V203Q363 216 353.5 225.5Q344 235 331 235Q344 235 353.5 244.0Q363 253 363 267V299Q363 316 350.5 328.5Q338 341 320 341H277Q260 341 247.5 328.5Q235 316 235 299V267Q235 253 244.0 244.0Q253 235 267 235Q253 235 244.0 225.5Q235 216 235 203V171Q235 153 247.5 140.5Q260 128 277 128ZM448 427Q466 427 478.5 414.5Q491 402 491 384V85Q491 68 478.5 55.5Q466 43 448 43H149Q132 43 119.5 55.5Q107 68 107 85V384Q107 402 119.5 414.5Q132 427 149 427Z" />
      </g>
    </svg>