<svg xmlns="http://www.w3.org/2000/svg" viewBox="21 -43 470 470">
      <g transform="scale(1 -1) translate(0 -384)">
        <path d="M448 256H405V299H363V256H320V213H363V171H405V213H448V85H149V384H448ZM448 427H149Q132 427 119.5 414.5Q107 402 107 384V85Q107 68 119.5 55.5Q132 43 149 43H448Q466 43 478.5 55.5Q491 68 491 85V384Q491 402 478.5 414.5Q466 427 448 427ZM235 256V277H256V256ZM299 192V277Q299 295 286.5 307.5Q274 320 256 320H235Q217 320 204.5 307.5Q192 295 192 277V256Q192 238 204.5 225.5Q217 213 235 213H256V192H192V149H256Q274 149 286.5 161.5Q299 174 299 192ZM64 341H21V0Q21 -18 33.5 -30.5Q46 -43 64 -43H405V0H64Z" />
      </g>
    </svg>