<svg xmlns="http://www.w3.org/2000/svg" viewBox="64 -21 384 426">
      <g transform="scale(1 -1) translate(0 -384)">
        <path d="M448 96Q448 83 437 77L268 -17Q263 -21 256.0 -21.0Q249 -21 244 -17L75 77Q64 83 64 96V288Q64 301 75 307L244 401Q249 405 256.0 405.0Q263 405 268 401L437 307Q448 301 448 288ZM256 299Q227 299 202.5 284.5Q178 270 163.5 245.5Q149 221 149.0 192.0Q149 163 163.5 138.5Q178 114 202.5 99.5Q227 85 256.0 85.0Q285 85 309.5 99.5Q334 114 348.5 138.5Q363 163 363.0 192.0Q363 221 348.5 245.5Q334 270 309.5 284.5Q285 299 256 299Z" />
      </g>
    </svg>