<svg xmlns="http://www.w3.org/2000/svg" viewBox="43 43 426 296">
      <g transform="scale(1 -1) translate(0 -382)">
        <path d="M427 192Q347 232 230 250L207 322Q203 333 192.0 337.5Q181 342 170.5 337.5Q160 333 156 322L134 256Q96 250 69.5 219.5Q43 189 43 149Q43 120 57.0 95.5Q71 71 95.5 57.0Q120 43 149 43L175 44Q207 46 240 51Q287 58 329 70Q383 85 427 107L438 113Q450 121 458 129Q469 140 469.0 149.5Q469 159 458 170Q450 178 438 186ZM107 149Q97 149 91.0 155.0Q85 161 85.0 170.5Q85 180 91.0 186.0Q97 192 106.5 192.0Q116 192 122.0 186.0Q128 180 128.0 171.0Q128 162 122.0 155.5Q116 149 107 149ZM149 85Q140 85 134.0 91.0Q128 97 128.0 106.5Q128 116 134.0 122.0Q140 128 149.5 128.0Q159 128 165.0 122.0Q171 116 171.0 107.0Q171 98 165.0 91.5Q159 85 149 85ZM192 149Q182 149 176.5 155.0Q171 161 171.0 170.5Q171 180 176.5 186.0Q182 192 192.0 192.0Q202 192 207.5 186.0Q213 180 213.0 171.0Q213 162 207.0 155.5Q201 149 192 149ZM235 85Q225 85 219.0 91.0Q213 97 213.0 106.5Q213 116 219.0 122.0Q225 128 234.5 128.0Q244 128 250.0 122.0Q256 116 256.0 107.0Q256 98 250.0 91.5Q244 85 235 85ZM341 149Q332 149 326.0 155.0Q320 161 320.0 170.5Q320 180 326.0 186.0Q332 192 341.5 192.0Q351 192 357.0 186.0Q363 180 363.0 171.0Q363 162 357.0 155.5Q351 149 341 149ZM405 128Q396 128 390.0 134.0Q384 140 384.0 149.5Q384 159 390.0 165.0Q396 171 405.5 171.0Q415 171 421.0 165.0Q427 159 427.0 150.0Q427 141 421.0 134.5Q415 128 405 128Z" />
      </g>
    </svg>