<svg xmlns="http://www.w3.org/2000/svg" viewBox="43 43 448 298">
      <g transform="scale(1 -1) translate(0 -384)">
        <path d="M43 341V43H299V85H256Q238 85 225.5 97.5Q213 110 213 128V256Q213 274 225.5 286.5Q238 299 256 299H299V341ZM299 299V256H341V299ZM299 256H256V128H299ZM299 128V85H341V128ZM107 299H149Q167 299 179.5 286.5Q192 274 192 256V128Q192 110 179.5 97.5Q167 85 149 85H107Q89 85 76.5 97.5Q64 110 64 128V256Q64 274 76.5 286.5Q89 299 107 299ZM363 299V85H405V171H427V149H448V85H491V149H469V192H491V277H469V299ZM107 256V128H149V256ZM405 256H448V213H405Z" />
      </g>
    </svg>