<svg xmlns="http://www.w3.org/2000/svg" viewBox="24 -37 448 448">
      <g transform="scale(1 -1) translate(0 -374)">
        <path d="M235 333V282L296 220L381 192L338 178L401 115L463 177Q469 183 469.0 192.0Q469 201 463 207L271 399Q264 405 256.0 405.0Q248 405 241 399L179 337L209 307ZM277 333 369 241 277 271ZM51 411 24 384 125 283 49 207Q43 201 43.0 192.0Q43 183 49 177L241 -15Q248 -21 256.0 -21.0Q264 -21 271 -15L347 61L445 -37L472 -10ZM155 253 161 247 143 241ZM235 51 143 143 235 113ZM256 150 131 192 195 213 257 151ZM277 51V113L291 117L317 91Z" />
      </g>
    </svg>