<svg xmlns="http://www.w3.org/2000/svg" viewBox="128 -21 256 426">
      <g transform="scale(1 -1) translate(0 -384)">
        <path d="M380 176Q375 187 364 190Q350 193 335 181Q316 166 284 160Q268 157 256 157L242 158Q226 160 211 164Q190 171 176.0 182.0Q162 193 148 190Q137 187 132 176Q124 161 132 150Q138 141 160 127Q187 110 236 105L155 24Q147 17 147.0 6.5Q147 -4 155 -11L158 -14Q165 -21 175.0 -21.0Q185 -21 193 -14L256 49L320 -14Q327 -21 337.5 -21.0Q348 -21 355 -14L358 -11Q365 -4 365.0 6.5Q365 17 358 24L277 105Q324 109 352 127Q374 141 380 150Q388 161 380 176ZM256 351Q278 351 293.5 335.0Q309 319 309.0 297.0Q309 275 293.5 259.5Q278 244 256.0 244.0Q234 244 218.5 259.5Q203 275 203.0 297.0Q203 319 218.5 335.0Q234 351 256 351ZM256 189Q285 189 310.0 203.5Q335 218 349.5 243.0Q364 268 364.0 297.5Q364 327 349.5 351.5Q335 376 310.0 390.5Q285 405 256.0 405.0Q227 405 202.0 390.5Q177 376 162.5 351.5Q148 327 148.0 297.5Q148 268 162.5 243.0Q177 218 202.0 203.5Q227 189 256 189Z" />
      </g>
    </svg>