<svg xmlns="http://www.w3.org/2000/svg" viewBox="43 -43 448 470">
      <g transform="scale(1 -1) translate(0 -384)">
        <path d="M256 213H213V256H256ZM299 213H341V256H299ZM286 0H256V75H213V0H85V384H384V169Q390 171 405.0 171.0Q420 171 427 169V427H43V-43H309Q292 -22 286 0ZM299 299H341V341H299ZM341 154V171H299V128H309Q325 144 341 154ZM171 341H128V299H171ZM171 256H128V213H171ZM128 43H171V85H128ZM256 341H213V299H256ZM213 128H256V171H213ZM171 171H128V128H171ZM384 128V64H320V21H384V-43H427V21H491V64H427V128Z" />
      </g>
    </svg>