<svg xmlns="http://www.w3.org/2000/svg" viewBox="64 -43 405 470">
      <g transform="scale(1 -1) translate(0 -384)">
        <path d="M320 256H363V213H320ZM363 341H320V299H363ZM235 128H277V171H235ZM277 341H235V299H277ZM235 213H277V256H235ZM192 341H149V299H192ZM192 256H149V213H192ZM310 0H277V75H235V0H107V384H405V213Q427 211 448 200V427H64V-43H339V-42Q320 -16 310 0ZM149 43H192V85H149ZM192 171H149V128H192ZM469 96Q469 71 450 35Q436 10 414 -19L395 -43L375 -19Q353 10 339 35Q320 71 320 96Q320 126 342.0 148.5Q364 171 394.5 171.0Q425 171 447.0 148.5Q469 126 469 96ZM420 94Q420 103 412.0 111.0Q404 119 394.5 119.0Q385 119 377.0 112.0Q369 105 369.0 94.5Q369 84 376.5 76.0Q384 68 395.0 68.0Q406 68 414.0 76.0Q422 84 420 94Z" />
      </g>
    </svg>