<svg xmlns="http://www.w3.org/2000/svg" viewBox="107 -21 362 405">
      <g transform="scale(1 -1) translate(0 -363)">
        <path d="M324 0Q277 69 277 117Q277 146 291.0 171.5Q305 197 329 213H320V256H363V230Q380 235 395 235Q402 235 405 234V384H107V0H235V75H277V0ZM320 341H363V299H320ZM192 43H149V85H192ZM192 128H149V171H192ZM192 213H149V256H192ZM192 299H149V341H192ZM235 341H277V299H235ZM235 256H277V213H235ZM235 128V171H277V128ZM395 192Q364 192 342.0 170.0Q320 148 320 117Q320 83 357 27Q376 -1 395 -21L414 2Q436 31 450 57Q469 93 469 117Q469 148 447.0 170.0Q425 192 395 192ZM395 89Q384 89 376.5 97.0Q369 105 369.0 115.5Q369 126 377.0 133.5Q385 141 394.5 141.0Q404 141 412.0 133.0Q420 125 421.0 115.0Q422 105 414.0 97.0Q406 89 395 89Z" />
      </g>
    </svg>