<svg xmlns="http://www.w3.org/2000/svg" viewBox="64 -32 416 416">
      <g transform="scale(1 -1) translate(0 -352)">
        <path d="M286 0Q277 26 277 43Q277 89 309 128H277V171H320V139Q338 154 363 164V384H64V0H192V75H235V0ZM277 341H320V299H277ZM277 256H320V213H277ZM149 43H107V85H149ZM149 128H107V171H149ZM149 213H107V256H149ZM149 299H107V341H149ZM192 341H235V299H192ZM192 256H235V213H192ZM192 128V171H235V128ZM480 87 435 43 480 -2 450 -32 405 13 361 -32 331 -2 375 43 331 87 361 117 405 73 450 117Z" />
      </g>
    </svg>