<svg xmlns="http://www.w3.org/2000/svg" viewBox="3 -21 509 384">
      <g transform="scale(1 -1) translate(0 -342)">
        <path d="M171 64Q140 64 113 36L110 33Q103 26 98.5 23.5Q94 21 85.5 21.0Q77 21 72.5 23.5Q68 26 61 33L58 36Q40 55 21 61V13L28 6Q55 -21 85.5 -21.0Q116 -21 143 6L146 10Q153 17 157.5 19.0Q162 21 170.5 21.0Q179 21 183.5 19.0Q188 17 195 10L198 6Q222 -17 245 -20Q249 -21 256 -21Q286 -21 314 6L317 10Q324 17 328.5 19.0Q333 21 341.5 21.0Q350 21 354.5 19.0Q359 17 366 10L369 6Q396 -21 426.5 -21.0Q457 -21 484 6L491 13V61Q472 55 454 36L451 33Q444 26 439.5 23.5Q435 21 426.5 21.0Q418 21 413.5 23.5Q409 26 402 33L399 36Q372 64 341.5 64.0Q311 64 284 36L280 33Q273 26 269.0 23.5Q265 21 256 21Q250 21 245.0 23.0Q240 25 230 35L228 36Q201 64 171 64ZM469 224Q475 217 480 211Q493 195 501 181Q512 162 512 149Q512 132 499.5 119.5Q487 107 469.5 107.0Q452 107 439.5 119.5Q427 132 427.0 149.5Q427 167 448 197Q459 212 469 224ZM480 296 410 336 272 256Q266 266 256.0 271.5Q246 277 235 277H192V320H213Q222 320 228.5 326.5Q235 333 235.0 341.5Q235 350 228.5 356.5Q222 363 213 363H128Q119 363 113.0 356.5Q107 350 107.0 341.5Q107 333 113.0 326.5Q119 320 128 320H149V277H107Q89 277 76.5 264.5Q64 252 64 235V171Q64 153 76.5 140.5Q89 128 107 128H299Q310 128 320.0 134.0Q330 140 336 150L414 285L459 259Q467 255 475.0 257.0Q483 259 487.5 267.0Q492 275 490.0 283.5Q488 292 480 296ZM299 171H107V235H249L269 204L343 247ZM75 300 38 264Q32 259 23.5 259.0Q15 259 9.0 265.0Q3 271 3.0 279.5Q3 288 8 294L45 331Q51 337 59.5 337.0Q68 337 74.5 330.5Q81 324 81.0 315.5Q81 307 75 300Z" />
      </g>
    </svg>