<svg xmlns="http://www.w3.org/2000/svg" viewBox="2 -43 510 470">
      <g transform="scale(1 -1) translate(0 -384)">
        <path d="M213 341H277V384H213V405Q213 415 207.5 421.0Q202 427 192.0 427.0Q182 427 176.5 421.0Q171 415 171 405V122Q161 117 155.0 107.0Q149 97 149 85Q149 68 161.5 55.5Q174 43 192.0 43.0Q210 43 222.5 55.5Q235 68 235 85Q235 97 229.0 107.0Q223 117 213 122V171H277V213H213V256H277V299H213ZM469 75Q475 68 480 61Q493 46 501 32Q512 12 512 0Q512 -18 499.5 -30.5Q487 -43 469.5 -43.0Q452 -43 439.5 -30.5Q427 -18 427 0Q427 12 438 32Q446 46 458 61ZM489 117Q484 110 475.5 107.5Q467 105 459 109L414 134L337 0Q332 -10 321.5 -15.5Q311 -21 299 -21H107Q89 -21 76.5 -8.5Q64 4 64 21V85Q64 103 76.5 115.5Q89 128 107 128V21H299L343 98L277 60V111L410 188L480 147Q488 143 490.0 134.5Q492 126 489 117ZM75 151 38 115Q32 109 23.5 109.0Q15 109 8.5 115.5Q2 122 2.0 130.5Q2 139 9 145L45 181Q51 188 59.5 188.0Q68 188 74.5 181.5Q81 175 81.0 166.5Q81 158 75 151Z" />
      </g>
    </svg>