<svg xmlns="http://www.w3.org/2000/svg" viewBox="2 64 510 256">
      <g transform="scale(1 -1) translate(0 -384)">
        <path d="M469 181Q475 175 480 168Q493 152 501 139Q512 119 512 107Q512 89 499.5 76.5Q487 64 469.5 64.0Q452 64 439.5 76.5Q427 89 427 107Q427 119 438 139Q446 152 458 168ZM128 320H213Q222 320 228.5 314.0Q235 308 235.0 299.0Q235 290 228.5 283.5Q222 277 213 277H192V235H235Q246 235 256.0 229.0Q266 223 272 213L410 294L480 253Q488 249 490.0 240.5Q492 232 487.5 224.0Q483 216 475.0 214.0Q467 212 459 216L414 242L336 107Q330 97 320.0 91.0Q310 85 299 85H107Q89 85 76.5 97.5Q64 110 64 128V192Q64 210 76.5 222.5Q89 235 107 235H149V277H128Q119 277 113.0 283.5Q107 290 107.0 299.0Q107 308 113.0 314.0Q119 320 128 320ZM107 192V128H299L343 204L269 161L249 192ZM8 252 45 288Q51 294 59.5 294.0Q68 294 74.5 288.0Q81 282 81.0 273.0Q81 264 75 258L38 221Q32 215 23.0 215.0Q14 215 8.0 221.5Q2 228 2.0 236.5Q2 245 8 252Z" />
      </g>
    </svg>