<svg xmlns="http://www.w3.org/2000/svg" viewBox="43 -21 426 426">
      <g transform="scale(1 -1) translate(0 -384)">
        <path d="M213 43Q204 43 198.0 48.5Q192 54 192 64V85Q192 94 198.0 100.5Q204 107 213 107Q222 107 228.5 101.0Q235 95 235 85V64Q235 54 229.0 48.5Q223 43 213 43ZM320 64V85Q320 94 314.0 100.5Q308 107 299 107Q290 107 283.5 101.0Q277 95 277 85V64Q277 56 283.0 49.5Q289 43 299 43Q308 43 314.0 48.5Q320 54 320 64ZM469 192Q469 151 446.0 115.5Q423 80 384 55V21Q384 4 371.5 -8.5Q359 -21 341 -21H171Q153 -21 140.5 -8.5Q128 4 128 21V55Q89 80 66.0 115.5Q43 151 43.0 192.5Q43 234 59.0 273.5Q75 313 105.0 343.0Q135 373 174.5 389.0Q214 405 256.0 405.0Q298 405 337.5 389.0Q377 373 407.0 343.0Q437 313 453.0 273.5Q469 234 469 192ZM149 235Q149 252 140.5 267.0Q132 282 117 290Q85 249 85 192Q85 177 87 171Q113 172 131.0 190.5Q149 209 149 235ZM192 256Q192 229 210.5 210.5Q229 192 256.0 192.0Q283 192 301.5 210.5Q320 229 320.0 256.0Q320 283 301.5 301.5Q283 320 256.0 320.0Q229 320 210.5 301.5Q192 283 192 256ZM341 21V117Q299 128 256.0 128.0Q213 128 171 117V21ZM425 171Q427 177 427 192Q427 249 395 290Q380 282 371.5 267.0Q363 252 363 235Q363 209 381.0 190.5Q399 172 425 171Z" />
      </g>
    </svg>