<svg xmlns="http://www.w3.org/2000/svg" viewBox="21 -43 470 470">
      <g transform="scale(1 -1) translate(0 -384)">
        <path d="M256 427Q192 427 138.0 395.5Q84 364 52.5 310.0Q21 256 21.0 192.0Q21 128 52.5 74.0Q84 20 138.0 -11.5Q192 -43 256.0 -43.0Q320 -43 374.0 -11.5Q428 20 459.5 74.0Q491 128 491.0 192.0Q491 256 459.5 310.0Q428 364 374.0 395.5Q320 427 256 427ZM256 21Q210 21 170.5 44.0Q131 67 108.0 106.5Q85 146 85.0 192.0Q85 238 108.0 277.5Q131 317 170.5 340.0Q210 363 256.0 363.0Q302 363 341.5 340.0Q381 317 404.0 277.5Q427 238 427.0 192.0Q427 146 404.0 106.5Q381 67 341.5 44.0Q302 21 256 21ZM277 160Q277 150 283.0 141.5Q289 133 299 130V64H213V194Q226 198 231.5 210.0Q237 222 232.5 235.5Q228 249 213 254V320H299V190Q289 187 283.0 178.5Q277 170 277 160Z" />
      </g>
    </svg>