<svg xmlns="http://www.w3.org/2000/svg" viewBox="85 -14 342 412">
      <g transform="scale(1 -1) translate(0 -384)">
        <path d="M377 277 256 398 135 277Q111 253 98.0 221.5Q85 190 85.0 157.0Q85 124 98.0 92.0Q111 60 135.5 35.5Q160 11 191.5 -1.5Q223 -14 256.0 -14.0Q289 -14 320.5 -1.5Q352 11 376.5 35.5Q401 60 414.0 92.0Q427 124 427.0 157.0Q427 190 414.0 221.5Q401 253 377 277ZM128 149Q128 180 137.5 202.0Q147 224 166 243L256 336L346 242Q366 223 374 203Q384 180 384 149Z" />
      </g>
    </svg>