<svg xmlns="http://www.w3.org/2000/svg" viewBox="42 -21 426 412">
      <g transform="scale(1 -1) translate(0 -370)">
        <path d="M329 -21Q327 -21 325 -21Q320 -20 319 -16L272 108Q270 112 272.0 116.0Q274 120 277 121Q301 130 311.0 153.0Q321 176 312.0 199.5Q303 223 280.5 233.0Q258 243 234.5 234.0Q211 225 201.0 202.0Q191 179 200.5 155.0Q210 131 235 122Q239 121 240.5 117.0Q242 113 241 109L192 -15Q191 -19 187.0 -20.5Q183 -22 179 -20Q125 0 89.5 44.5Q54 89 45.0 145.0Q36 201 57.0 255.0Q78 309 122.0 344.5Q166 380 222.5 389.0Q279 398 333 378Q372 362 403.0 333.0Q434 304 451.0 265.0Q468 226 469.0 184.0Q470 142 455 102Q439 59 407.0 27.0Q375 -5 332 -21ZM256 371Q204 373 159.0 348.0Q114 323 87.0 279.5Q60 236 59 184Q58 125 90.0 75.0Q122 25 177 2L218 107Q189 123 179.0 154.5Q169 186 185.0 215.5Q201 245 233.0 254.5Q265 264 294.0 248.0Q323 232 333.0 200.5Q343 169 327 139Q315 118 294 107L335 1Q369 17 395.5 45.0Q422 73 436 108Q455 157 447.5 207.5Q440 258 408.5 298.0Q377 338 329 358Q294 372 256 371Z" />
      </g>
    </svg>