<svg xmlns="http://www.w3.org/2000/svg" viewBox="64 0 384 384">
      <g transform="scale(1 -1) translate(0 -384)">
        <path d="M193 84Q177 103 167.5 130.0Q158 157 157 188V196Q158 227 167.5 254.0Q177 281 193 300Q221 333 258 333Q286 333 309.0 314.0Q332 295 345.5 262.5Q359 230 359.0 192.0Q359 154 345.5 121.5Q332 89 309.0 70.0Q286 51 258 51Q238 51 226 56Q212 62 193 84ZM257 384H256Q204 384 160.0 358.0Q116 332 90.0 288.0Q64 244 64.0 192.5Q64 141 88.5 98.0Q113 55 155.0 28.5Q197 2 247 0H256Q292 0 325.0 13.0Q358 26 384 49Q414 76 431.0 113.0Q448 150 448.0 192.0Q448 234 431.0 271.0Q414 308 384 335Q358 358 325.5 371.0Q293 384 257 384Z" />
      </g>
    </svg>