<svg xmlns="http://www.w3.org/2000/svg" viewBox="21 21 470 342">
      <g transform="scale(1 -1) translate(0 -384)">
        <path d="M405 277 320 192H384Q384 157 367.0 127.5Q350 98 320.5 81.0Q291 64 256 64Q224 64 196 79L165 48Q207 21 256 21Q302 21 341.5 44.0Q381 67 404.0 106.5Q427 146 427 192H491ZM128 192Q128 227 145.0 256.5Q162 286 191.5 303.0Q221 320 256 320Q288 320 316 305L347 336Q305 363 256 363Q210 363 170.5 340.0Q131 317 108.0 277.5Q85 238 85 192H21L107 107L192 192ZM299 192Q299 174 286.5 161.5Q274 149 256.0 149.0Q238 149 225.5 161.5Q213 174 213.0 192.0Q213 210 225.5 222.5Q238 235 256.0 235.0Q274 235 286.5 222.5Q299 210 299 192Z" />
      </g>
    </svg>