<svg xmlns="http://www.w3.org/2000/svg" viewBox="21 -43 470 470">
      <g transform="scale(1 -1) translate(0 -384)">
        <path d="M173 411Q211 427 256 427Q320 427 374.0 395.5Q428 364 459.5 310.0Q491 256 491.0 192.0Q491 128 459.5 74.0Q428 20 374.0 -11.5Q320 -43 256.0 -43.0Q192 -43 138.0 -11.5Q84 20 52.5 74.0Q21 128 21 192Q21 236 37 276Q52 260 74 252Q64 223 64 192Q64 140 90.0 96.0Q116 52 160.0 26.0Q204 0 256.0 0.0Q308 0 352.0 26.0Q396 52 422.0 96.0Q448 140 448.0 192.0Q448 244 422.0 288.0Q396 332 352.0 358.0Q308 384 256 384Q225 384 196 374Q188 396 173 411ZM105 385Q123 385 135.5 373.0Q148 361 148.0 343.0Q148 325 135.5 312.5Q123 300 105.0 300.0Q87 300 75.0 312.5Q63 325 63.0 343.0Q63 361 75.0 373.0Q87 385 105 385ZM256 299Q285 299 309.5 284.5Q334 270 348.5 245.5Q363 221 363.0 192.0Q363 163 348.5 138.5Q334 114 309.5 99.5Q285 85 256.0 85.0Q227 85 202.5 99.5Q178 114 163.5 138.5Q149 163 149.0 192.0Q149 221 163.5 245.5Q178 270 202.5 284.5Q227 299 256 299Z" />
      </g>
    </svg>