<svg xmlns="http://www.w3.org/2000/svg" viewBox="43 0 426 384">
      <g transform="scale(1 -1) translate(0 -384)">
        <path d="M85 384Q68 384 55.5 371.5Q43 359 43 341V256Q43 238 55.5 225.5Q68 213 85 213H171Q188 213 200.5 225.5Q213 238 213 256V341Q213 359 200.5 371.5Q188 384 171 384ZM175 352 198 330 112 245 58 300 81 322 113 290ZM85 171Q68 171 55.5 158.5Q43 146 43 128V43Q43 25 55.5 12.5Q68 0 85 0H171Q188 0 200.5 12.5Q213 25 213 43V128Q213 146 200.5 158.5Q188 171 171 171ZM85 128H171V43H85ZM256 341H469V299H256ZM256 43V85H469V43ZM256 213H469V171H256Z" />
      </g>
    </svg>