<svg xmlns="http://www.w3.org/2000/svg" viewBox="64 0 405 384">
      <g transform="scale(1 -1) translate(0 -384)">
        <path d="M149 0H64V43H149V64H107Q89 64 76.5 76.5Q64 89 64 107V128Q64 146 76.5 158.5Q89 171 107 171H149Q167 171 179.5 158.5Q192 146 192 128V43Q192 25 179.5 12.5Q167 0 149 0ZM149 128H107V107H149ZM107 384H149Q167 384 179.5 371.5Q192 359 192 341V256Q192 238 179.5 225.5Q167 213 149 213H107Q89 213 76.5 225.5Q64 238 64 256V341Q64 359 76.5 371.5Q89 384 107 384ZM107 256H149V341H107ZM256 341H469V299H256ZM256 43V85H469V43ZM256 213H469V171H256Z" />
      </g>
    </svg>