<svg xmlns="http://www.w3.org/2000/svg" viewBox="43 0 426 384">
      <g transform="scale(1 -1) translate(0 -384)">
        <path d="M128 384Q93 384 68.0 359.0Q43 334 43.0 298.5Q43 263 68.0 238.0Q93 213 128.0 213.0Q163 213 188.0 238.0Q213 263 213.0 298.5Q213 334 188.0 359.0Q163 384 128 384ZM128 256Q110 256 97.5 268.5Q85 281 85.0 298.5Q85 316 97.5 328.5Q110 341 128.0 341.0Q146 341 158.5 328.5Q171 316 171.0 298.5Q171 281 158.5 268.5Q146 256 128 256ZM128 171Q93 171 68.0 146.0Q43 121 43.0 85.5Q43 50 68.0 25.0Q93 0 128.0 0.0Q163 0 188.0 25.0Q213 50 213.0 85.5Q213 121 188.0 146.0Q163 171 128 171ZM256 341H469V299H256ZM256 43V85H469V43ZM256 213H469V171H256Z" />
      </g>
    </svg>