<svg xmlns="http://www.w3.org/2000/svg" viewBox="96 -21 320 426">
      <g transform="scale(1 -1) translate(0 -384)">
        <path d="M256 403Q256 400 254 397Q239 374 236 356L235 351L256 352Q299 352 336.0 330.5Q373 309 394.5 272.0Q416 235 416 192Q416 141 387 99Q341 22 263 -21Q259 -22 257.0 -19.0Q255 -16 258 -13Q270 4 275 25L276 33L256 32Q213 32 176.0 53.5Q139 75 117.5 112.0Q96 149 96 192Q96 244 125 284Q171 361 249 405Q251 406 253.0 405.5Q255 405 256 403ZM256 256Q229 256 210.5 237.5Q192 219 192.0 192.0Q192 165 210.5 146.5Q229 128 256.0 128.0Q283 128 301.5 146.5Q320 165 320.0 192.0Q320 219 301.5 237.5Q283 256 256 256Z" />
      </g>
    </svg>