<svg xmlns="http://www.w3.org/2000/svg" viewBox="85 -21 342 448">
      <g transform="scale(1 -1) translate(0 -406)">
        <path d="M256 427Q283 427 301.5 408.0Q320 389 320 363V341Q329 341 335.0 335.0Q341 329 341 320V297Q380 275 403.5 235.5Q427 196 427.0 149.5Q427 103 404.0 64.0Q381 25 341.5 2.0Q302 -21 256.0 -21.0Q210 -21 170.5 2.0Q131 25 108.0 64.0Q85 103 85.0 149.5Q85 196 108.5 235.5Q132 275 171 297V320Q171 329 177.0 335.0Q183 341 192 341V363Q192 389 210.5 408.0Q229 427 256 427ZM256 384Q247 384 241.0 378.0Q235 372 235 363V341H277V363Q277 372 271.0 378.0Q265 384 256 384ZM256 277Q228 277 203.5 266.0Q179 255 161 235H351Q333 255 308.5 266.0Q284 277 256 277ZM256 21Q284 21 308.5 32.5Q333 44 351 64H161Q179 44 203.5 32.5Q228 21 256 21ZM256 192Q238 192 225.5 179.5Q213 167 213.0 149.5Q213 132 225.5 119.5Q238 107 256.0 107.0Q274 107 286.5 119.5Q299 132 299.0 149.5Q299 167 286.5 179.5Q274 192 256 192ZM384 149Q384 170 377 192Q362 189 351.5 177.0Q341 165 341.0 149.0Q341 133 351.5 121.5Q362 110 377 107Q384 128 384 149ZM128 149Q128 128 135 107Q150 110 160.5 121.5Q171 133 171.0 149.0Q171 165 160.5 177.0Q150 189 135 192Q128 170 128 149Z" />
      </g>
    </svg>