<svg xmlns="http://www.w3.org/2000/svg" viewBox="64 -21 384 426">
      <g transform="scale(1 -1) translate(0 -384)">
        <path d="M320 -21H277Q260 -21 247.5 -8.5Q235 4 235 21V128H363V21Q363 4 350.5 -8.5Q338 -21 320 -21ZM149 149H448L320 241V320Q320 339 312 357Q302 379 285 391Q264 405 234.5 405.0Q205 405 185 391Q167 379 158 357Q149 339 149 320Q149 311 144.5 305.0Q140 299 128 299H107V384H64V192H107V256H128Q160 256 178 278Q192 296 192 320Q192 333 198 344Q209 363 234.5 363.0Q260 363 271 345Q277 334 277 320V241Z" />
      </g>
    </svg>