<svg xmlns="http://www.w3.org/2000/svg" viewBox="21 -43 470 470">
      <g transform="scale(1 -1) translate(0 -384)">
        <path d="M256 107Q274 79 303 64L256 17L209 64Q238 79 256 107ZM363 209Q345 209 332.5 196.5Q320 184 320.0 166.5Q320 149 332.5 136.5Q345 124 362.5 124.0Q380 124 392.5 136.5Q405 149 405.0 166.5Q405 184 392.5 196.5Q380 209 363 209ZM149 209Q132 209 119.5 196.5Q107 184 107.0 166.5Q107 149 119.5 136.5Q132 124 149.5 124.0Q167 124 179.5 136.5Q192 149 192.0 166.5Q192 184 179.5 196.5Q167 209 149 209ZM363 262Q398 262 423.0 237.0Q448 212 448.0 177.0Q448 142 423.0 117.0Q398 92 362.5 92.0Q327 92 302.0 117.0Q277 142 277.0 177.0Q277 212 302.0 237.0Q327 262 363 262ZM149 262Q185 262 210.0 237.0Q235 212 235.0 177.0Q235 142 210.0 117.0Q185 92 149.5 92.0Q114 92 89.0 117.0Q64 142 64.0 177.0Q64 212 89.0 237.0Q114 262 149 262ZM48 427Q65 391 66 355Q67 326 57 293Q51 273 35 234L33 230Q21 204 21 177Q21 142 38.5 113.0Q56 84 85.5 66.5Q115 49 149 49L163 50L256 -43L349 50L363 49Q397 49 426.5 66.5Q456 84 473.5 113.0Q491 142 491 177Q491 204 479 230L477 234Q461 273 455 293Q445 326 446 355Q447 391 464 427Q420 392 366 371Q308 348 256.0 348.0Q204 348 146 371Q92 392 48 427Z" />
      </g>
    </svg>