<svg xmlns="http://www.w3.org/2000/svg" viewBox="42 -21 405 427">
      <g transform="scale(1 -1) translate(0 -385)">
        <path d="M256 192 407 41Q366 0 311.0 -14.5Q256 -29 201.0 -14.5Q146 0 105.0 41.0Q64 82 49.5 137.0Q35 192 49.5 247.0Q64 302 105.0 343.0Q146 384 201.0 398.5Q256 413 311.0 398.5Q366 384 407 343ZM405 235Q388 235 375.5 222.5Q363 210 363.0 192.0Q363 174 375.5 161.5Q388 149 405.5 149.0Q423 149 435.5 161.5Q448 174 448.0 192.0Q448 210 435.5 222.5Q423 235 405 235Z" />
      </g>
    </svg>