<svg xmlns="http://www.w3.org/2000/svg" viewBox="64 -32 416 437">
      <g transform="scale(1 -1) translate(0 -373)">
        <path d="M277 179 405 252V171Q431 171 448 162V288Q448 300 437 307L269 401Q260 405 256.0 405.0Q252 405 243 401L75 307Q64 300 64 288V96Q64 84 75 77L243 -17Q252 -21 256.0 -21.0Q260 -21 269 -17L288 -6Q282 6 277 36ZM256 358 384 288 341 265 215 337ZM235 36 107 109V252L235 179ZM256 218 128 288 171 314 299 239ZM361 117 405 73 450 117 480 87 435 43 480 -2 450 -32 405 13 361 -32 331 -2 375 43 331 87Z" />
      </g>
    </svg>