<svg xmlns="http://www.w3.org/2000/svg" viewBox="30 -21 460 426">
      <g transform="scale(1 -1) translate(0 -384)">
        <path d="M277 115Q282 112 288.0 112.0Q294 112 299 115L405 177V171Q431 171 448 162V201L469 213Q477 218 479.0 226.5Q481 235 478 243L446 297Q442 305 437 307L269 401Q260 405 256.0 405.0Q252 405 243 401L77 307Q68 303 66 299L34 243Q29 235 32.0 226.5Q35 218 43 213Q47 210 53.0 210.0Q59 210 64 213V96Q64 84 75 77L243 -17Q252 -21 256.0 -21.0Q260 -21 269 -17L288 -6Q282 6 277 36ZM235 36 107 109V252L235 179ZM429 241 294 164 282 186 416 262ZM256 218V358L384 288ZM491 21H320V64H491Z" />
      </g>
    </svg>