<svg xmlns="http://www.w3.org/2000/svg" viewBox="64 -21 418 426">
      <g transform="scale(1 -1) translate(0 -384)">
        <path d="M256 405Q252 405 243 401L75 307Q64 300 64 288V96Q64 84 75 77L243 -17Q252 -21 256.0 -21.0Q260 -21 269 -17L288 -6Q282 6 277 36V179L405 252V171Q429 171 448 164V288Q448 300 437 307L269 401Q260 405 256 405ZM256 358 384 288 341 265 215 337ZM173 314 299 239 256 215 128 288ZM107 252 235 179V36L107 109ZM454 111 378 34 343 68 320 43 380 -21 482 81Z" />
      </g>
    </svg>