<svg xmlns="http://www.w3.org/2000/svg" viewBox="31 -21 448 426">
      <g transform="scale(1 -1) translate(0 -384)">
        <path d="M43 214Q35 219 32.5 227.5Q30 236 35 243L67 299Q70 305 77 308L244 401Q249 405 256.0 405.0Q263 405 268 401L437 307Q443 303 446 297L477 243Q481 236 479.0 227.5Q477 219 469 214L448 202V96Q448 83 437 77L268 -17Q263 -21 256.0 -21.0Q249 -21 244 -17L75 77Q64 83 64 96V214Q53 208 43 214ZM256 359V217L383 288ZM107 109 235 36V180L107 252ZM405 109V177L299 115Q288 110 277 115V36ZM295 163 429 240 417 262 283 185Z" />
      </g>
    </svg>