<svg xmlns="http://www.w3.org/2000/svg" viewBox="58 -43 432 406">
      <g transform="scale(1 -1) translate(0 -320)">
        <path d="M85 320H64V363H448V320H427L397 171Q372 168 351 158L383 320H129L139 273L99 250ZM274 277Q270 285 261.5 287.5Q253 290 245 285L70 184Q62 179 59.5 170.5Q57 162 61.5 154.5Q66 147 74.5 145.0Q83 143 91 147L267 248Q274 253 276.5 261.5Q279 270 274 277ZM277 43H184L165 140L126 117L149 0H285Q277 21 277 43ZM384 128V64H320V21H384V-43H427V21H491V64H427V128Z" />
      </g>
    </svg>