<svg xmlns="http://www.w3.org/2000/svg" viewBox="24 -37 448 448">
      <g transform="scale(1 -1) translate(0 -374)">
        <path d="M445 -37 370 38 363 0H149L126 117L165 140L184 43H328L334 74L199 209L91 147Q83 143 74.5 145.0Q66 147 61.5 154.5Q57 162 59.5 170.5Q62 179 70 184L167 240L136 272L99 250L85 320H64V344L24 384L51 411L472 -10ZM383 320 352 164 388 128 427 320H448V363H154L196 320ZM245 285 236 280 267 249Q274 253 276.5 261.5Q279 270 274.5 277.5Q270 285 261.5 287.5Q253 290 245 285Z" />
      </g>
    </svg>