<svg xmlns="http://www.w3.org/2000/svg" viewBox="58 -43 432 406">
      <g transform="scale(1 -1) translate(0 -320)">
        <path d="M267 248 91 147Q83 143 74.5 145.0Q66 147 61.5 154.5Q57 162 59.5 170.5Q62 179 70 184L245 285Q253 290 261.5 287.5Q270 285 274.5 277.5Q279 270 276.5 261.5Q274 253 267 248ZM277 43Q277 76 293.0 104.5Q309 133 336.5 150.5Q364 168 397 171L427 320H448V363H64V320H85L102 239L228 312Q241 320 256 320Q278 320 293.5 304.5Q309 289 309 267Q309 252 302.0 239.5Q295 227 282 220L124 129L149 0H285Q277 21 277 43ZM384 128V64H320V21H384V-43H427V21H491V64H427V128Z" />
      </g>
    </svg>