<svg xmlns="http://www.w3.org/2000/svg" viewBox="64 0 384 384">
      <g transform="scale(1 -1) translate(0 -384)">
        <path d="M373 192Q360 192 350.5 201.5Q341 211 341.0 224.0Q341 237 350.5 246.5Q360 256 373.5 256.0Q387 256 396.0 246.5Q405 237 405.0 224.0Q405 211 396.0 201.5Q387 192 373 192ZM309 277Q296 277 286.5 286.5Q277 296 277.0 309.5Q277 323 286.5 332.0Q296 341 309.5 341.0Q323 341 332.0 332.0Q341 323 341.0 309.5Q341 296 332.0 286.5Q323 277 309 277ZM203 277Q189 277 180.0 286.5Q171 296 171.0 309.5Q171 323 180.0 332.0Q189 341 202.5 341.0Q216 341 225.5 332.0Q235 323 235.0 309.5Q235 296 225.5 286.5Q216 277 203 277ZM139 192Q125 192 116.0 201.5Q107 211 107.0 224.0Q107 237 116.0 246.5Q125 256 138.5 256.0Q152 256 161.5 246.5Q171 237 171.0 224.0Q171 211 161.5 201.5Q152 192 139 192ZM256 384Q204 384 160.0 358.0Q116 332 90.0 288.0Q64 244 64.0 192.0Q64 140 90.0 96.0Q116 52 160.0 26.0Q204 0 256 0Q269 0 278.5 9.5Q288 19 288.0 31.5Q288 44 280.0 53.5Q272 63 272.0 75.5Q272 88 281.0 97.5Q290 107 304 107H341Q370 107 394.5 121.0Q419 135 433.5 159.5Q448 184 448 213Q448 260 422.0 299.0Q396 338 352.0 361.0Q308 384 256 384Z" />
      </g>
    </svg>