<svg xmlns="http://www.w3.org/2000/svg" viewBox="43 -21 426 426">
      <g transform="scale(1 -1) translate(0 -384)">
        <path d="M427 149H128Q93 149 68.0 124.0Q43 99 43.0 64.0Q43 29 68.0 4.0Q93 -21 128 -21H427Q444 -21 456.5 -8.5Q469 4 469 21V107Q469 124 456.5 136.5Q444 149 427 149ZM128 21Q110 21 97.5 33.5Q85 46 85.0 64.0Q85 82 97.5 94.5Q110 107 128.0 107.0Q146 107 158.5 94.5Q171 82 171.0 64.0Q171 46 158.5 33.5Q146 21 128 21ZM134 192 277 335Q290 348 307.0 348.0Q324 348 337 335L397 275Q410 262 410.0 245.0Q410 228 397 215L378 192ZM43 160V363Q43 380 55.5 392.5Q68 405 85 405H171Q188 405 200.5 392.5Q213 380 213 363V331Z" />
      </g>
    </svg>