<svg xmlns="http://www.w3.org/2000/svg" viewBox="75 -21 362 426">
      <g transform="scale(1 -1) translate(0 -384)">
        <path d="M256 256Q271 184 260 112Q252 61 232 14Q222 -9 213 -21H277Q304 59 302 136Q301 182 288 235ZM334 295Q341 287 344 281Q371 238 367.0 188.0Q363 138 331 101Q344 135 341.5 171.5Q339 208 319 240L314 247Q295 273 268 289Q221 275 191.5 235.0Q162 195 162 145Q162 121 168 100Q140 139 140 188Q140 225 156.5 257.0Q173 289 202 310Q151 314 109 288Q89 275 75 258Q93 303 134 329Q182 359 238 351Q224 370 205.5 384.0Q187 398 166 405Q215 404 253 375Q272 361 286 340H292Q343 340 383.0 310.0Q423 280 437 233Q419 258 392.5 274.5Q366 291 334 295Z" />
      </g>
    </svg>