<svg xmlns="http://www.w3.org/2000/svg" viewBox="21 0 470 384">
      <g transform="scale(1 -1) translate(0 -384)">
        <path d="M256 384Q310 384 357 355Q368 369 383.0 376.5Q398 384 416 384Q447 384 469.0 362.0Q491 340 491 309Q491 286 477.5 266.5Q464 247 442 239Q448 215 448 192Q448 140 422.0 96.0Q396 52 352.0 26.0Q308 0 256.0 0.0Q204 0 160.0 26.0Q116 52 90.0 96.0Q64 140 64 192Q64 215 70 239Q48 247 34.5 266.5Q21 286 21 309Q21 340 43.0 362.0Q65 384 96 384Q114 384 129.0 376.5Q144 369 155 355Q202 384 256 384ZM256 341Q215 341 181.0 321.0Q147 301 127.0 267.0Q107 233 107.0 192.0Q107 151 127.0 117.0Q147 83 181.0 63.0Q215 43 256.0 43.0Q297 43 331.0 63.0Q365 83 385.0 117.0Q405 151 405.0 192.0Q405 233 385.0 267.0Q365 301 331.0 321.0Q297 341 256 341ZM345 228Q351 207 344.5 189.0Q338 171 323.0 167.0Q308 163 293.5 175.5Q279 188 273.5 209.0Q268 230 274.5 248.0Q281 266 296.0 270.0Q311 274 325.5 262.0Q340 250 345 228ZM167 228Q172 250 186.5 262.0Q201 274 216.0 270.0Q231 266 237.5 248.0Q244 230 238.5 209.0Q233 188 218.5 175.5Q204 163 189.0 167.0Q174 171 167.5 189.0Q161 207 167 228ZM256 149Q275 149 288 139L267 117Q267 111 271.5 106.0Q276 101 282.5 101.0Q289 101 294.0 106.0Q299 111 299 117Q299 122 302.0 125.0Q305 128 309.5 128.0Q314 128 317.0 125.0Q320 122 320 117Q320 102 309.0 91.0Q298 80 282.5 80.0Q267 80 256 91Q245 80 229.5 80.0Q214 80 203.0 91.0Q192 102 192 117Q192 122 195.0 125.0Q198 128 202.5 128.0Q207 128 210.0 125.0Q213 122 213 117Q213 111 218.0 106.0Q223 101 229.5 101.0Q236 101 240.5 106.0Q245 111 245 117L224 139Q237 149 256 149Z" />
      </g>
    </svg>