<svg xmlns="http://www.w3.org/2000/svg" viewBox="43 21 426 342">
      <g transform="scale(1 -1) translate(0 -384)">
        <path d="M448 363Q445 363 429 358Q393 346 364 341Q312 331 256.0 331.0Q200 331 147 341Q117 347 81 358Q67 363 64 363Q56 363 49.5 357.0Q43 351 43 341V43Q43 33 49.5 27.0Q56 21 64 21Q67 21 83 26Q118 38 147 43Q199 53 255.5 53.0Q312 53 364 43Q393 38 429 26Q445 21 448 21Q456 21 462.5 27.0Q469 33 469 43V341Q469 351 462.5 357.0Q456 363 448 363ZM427 73Q348 96 256.0 96.0Q164 96 85 73V311Q172 288 256 288Q348 288 427 311ZM196 213 117 119Q174 128 256.0 128.0Q338 128 395 119L299 235L239 162Z" />
      </g>
    </svg>