<svg xmlns="http://www.w3.org/2000/svg" viewBox="43 21 426 342">
      <g transform="scale(1 -1) translate(0 -384)">
        <path d="M457 363Q453 363 451 361Q357 326 256.5 326.0Q156 326 61 361Q59 363 54.0 363.0Q49 363 46.0 359.5Q43 356 43 349V35Q43 28 46.0 24.5Q49 21 54.0 21.0Q59 21 61 23Q155 58 255.5 58.0Q356 58 451 23Q453 21 458.0 21.0Q463 21 466.0 25.0Q469 29 469 35V349Q469 355 466.0 359.0Q463 363 457 363ZM427 308V76Q343 100 256.0 100.0Q169 100 85 76V308Q169 284 256.0 283.5Q343 283 427 308Z" />
      </g>
    </svg>