<svg xmlns="http://www.w3.org/2000/svg" viewBox="85 -21 342 426">
      <g transform="scale(1 -1) translate(0 -384)">
        <path d="M140 21Q164 105 164.0 192.0Q164 279 140 363H372Q348 279 348.0 192.0Q348 105 372 21ZM425 -3Q390 91 390.0 191.5Q390 292 425 387Q427 389 427.0 394.0Q427 399 423.5 402.0Q420 405 413 405H99Q92 405 88.5 402.0Q85 399 85.0 394.0Q85 389 87 387Q122 292 122.0 192.0Q122 92 87 -3Q85 -5 85.0 -10.0Q85 -15 89.0 -18.0Q93 -21 99 -21H413Q420 -21 423.5 -18.0Q427 -15 427.0 -10.0Q427 -5 425 -3Z" />
      </g>
    </svg>