<svg xmlns="http://www.w3.org/2000/svg" viewBox="21 -21 470 426">
      <g transform="scale(1 -1) translate(0 -384)">
        <path d="M469 275Q466 276 459 279L448 284Q422 339 370.5 372.0Q319 405 256.0 405.0Q193 405 141.5 372.0Q90 339 64 284Q58 282 46.0 275.5Q34 269 27.5 258.5Q21 248 21 237V147Q21 136 27.0 125.5Q33 115 43 109L64 100Q90 45 141.5 12.0Q193 -21 256.0 -21.0Q319 -21 370.5 12.0Q422 45 448 100Q454 102 467 111Q491 127 491 149V237Q491 248 485.0 258.5Q479 269 469 275ZM256 363Q294 363 327.0 348.0Q360 333 384 305Q330 320 255.5 320.0Q181 320 130 305Q153 333 185.5 348.0Q218 363 256 363ZM256 21Q218 21 185.5 36.0Q153 51 130 79Q181 64 255.5 64.0Q330 64 384 79Q360 51 327.0 36.0Q294 21 256 21Z" />
      </g>
    </svg>