<svg xmlns="http://www.w3.org/2000/svg" viewBox="64 0 405 384">
      <g transform="scale(1 -1) translate(0 -384)">
        <path d="M192 384Q157 384 128.5 367.0Q100 350 82.5 320.5Q65 291 64 256V0H256V161Q293 128 341 128Q376 128 405.5 145.0Q435 162 452.0 191.5Q469 221 469.0 256.0Q469 291 452.0 320.5Q435 350 405.5 367.0Q376 384 341 384ZM341 341Q377 341 402.0 316.0Q427 291 427.0 256.0Q427 221 402.0 196.0Q377 171 341.5 171.0Q306 171 281.0 196.0Q256 221 256.0 256.0Q256 291 281.0 316.0Q306 341 341 341ZM341 293Q326 293 315.0 282.5Q304 272 304.0 256.0Q304 240 315.0 229.5Q326 219 341.5 219.0Q357 219 368.0 229.5Q379 240 379.0 256.0Q379 272 368.0 282.5Q357 293 341 293ZM85 192H107V171H85ZM128 192H149V171H128ZM171 192H192V171H171ZM213 192H235V171H213Z" />
      </g>
    </svg>