<svg xmlns="http://www.w3.org/2000/svg" viewBox="149 -43 331 470">
      <g transform="scale(1 -1) translate(0 -384)">
        <path d="M288 -8Q294 -23 305 -36Q286 -43 267 -43Q235 -43 208.0 -27.0Q181 -11 165.0 16.0Q149 43 149 75V341Q149 377 174.0 402.0Q199 427 234.5 427.0Q270 427 295.0 402.0Q320 377 320 341V138Q287 109 279 66Q273 64 267 64Q245 64 229.0 79.5Q213 95 213 117V320H245V117Q245 109 251.5 102.5Q258 96 266.5 96.0Q275 96 281.5 102.5Q288 109 288 117V341Q288 363 272.5 379.0Q257 395 235.0 395.0Q213 395 197.0 379.0Q181 363 181 341V75Q181 39 206.0 14.0Q231 -11 267 -11Q276 -11 288 -8ZM384 320H352V159Q368 166 384 169ZM455 110 379 33 345 67 320 43 379 -21 480 80Z" />
      </g>
    </svg>