<svg xmlns="http://www.w3.org/2000/svg" viewBox="149 -43 235 470">
      <g transform="scale(1 -1) translate(0 -384)">
        <path d="M352 320V75Q352 39 327.0 14.0Q302 -11 266.5 -11.0Q231 -11 206.0 14.0Q181 39 181 75V341Q181 363 197.0 379.0Q213 395 235.0 395.0Q257 395 272.5 379.0Q288 363 288 341V117Q288 108 282.0 102.0Q276 96 267.0 96.0Q258 96 251.5 102.0Q245 108 245 117V320H213V117Q213 95 229.0 79.5Q245 64 267.0 64.0Q289 64 304.5 79.5Q320 95 320 117V341Q320 377 295.0 402.0Q270 427 234.5 427.0Q199 427 174.0 402.0Q149 377 149 341V75Q149 51 158.0 29.5Q167 8 183.5 -8.5Q200 -25 221.5 -34.0Q243 -43 267 -43Q299 -43 325.5 -27.0Q352 -11 368.0 16.0Q384 43 384 75V320Z" />
      </g>
    </svg>