<svg xmlns="http://www.w3.org/2000/svg" viewBox="149 -43 342 470">
      <g transform="scale(1 -1) translate(0 -384)">
        <path d="M384 169Q368 166 352 159V320H384ZM267 -11Q231 -11 206.0 14.0Q181 39 181 75V341Q181 363 197.0 379.0Q213 395 235.0 395.0Q257 395 272.5 379.0Q288 363 288 341V117Q288 109 281.5 102.5Q275 96 266.5 96.0Q258 96 251.5 102.5Q245 109 245 117V320H213V117Q213 95 229.0 79.5Q245 64 267 64Q273 64 279 66Q287 109 320 138V341Q320 377 295.0 402.0Q270 427 234.5 427.0Q199 427 174.0 402.0Q149 377 149 341V75Q149 43 165.0 16.0Q181 -11 208.0 -27.0Q235 -43 267 -43Q286 -43 305 -36Q294 -23 288 -8Q276 -11 267 -11ZM427 64V128H384V64H320V21H384V-43H427V21H491V64Z" />
      </g>
    </svg>