<svg xmlns="http://www.w3.org/2000/svg" viewBox="107 -43 362 448">
      <g transform="scale(1 -1) translate(0 -362)">
        <path d="M384 171Q361 171 342.5 155.0Q324 139 324 117V85Q315 85 307.0 77.0Q299 69 299 60V-15Q299 -26 306.5 -34.5Q314 -43 324 -43H442Q453 -43 461.0 -35.0Q469 -27 469 -17V58Q469 69 461.5 77.0Q454 85 444 85V117Q444 139 425.5 155.0Q407 171 384 171ZM384 145Q397 145 406.5 137.5Q416 130 416 117V85H352V117Q352 130 361.5 137.5Q371 145 384 145ZM190 405Q156 405 131.5 380.0Q107 355 107 320V96Q107 65 123.0 38.0Q139 11 166.0 -5.0Q193 -21 224 -21Q235 -21 256 -17V17Q240 11 224 11Q189 11 164.0 36.0Q139 61 139 96V320Q139 342 154.5 357.5Q170 373 192.0 373.0Q214 373 229.5 357.5Q245 342 245 320V139Q245 129 239.5 123.0Q234 117 224.0 117.0Q214 117 208.5 123.0Q203 129 203 139V299H171V139Q171 116 186.5 100.5Q202 85 224.0 85.0Q246 85 261.5 100.5Q277 116 277 139V320Q277 355 252.0 380.0Q227 405 190 405H191ZM309 299V183Q325 199 341 205V299Z" />
      </g>
    </svg>