<svg xmlns="http://www.w3.org/2000/svg" viewBox="43 -21 426 426">
      <g transform="scale(1 -1) translate(0 -384)">
        <path d="M244 379 256 363 268 379Q277 391 290.5 398.0Q304 405 320 405Q347 405 365.5 386.5Q384 368 384 341Q384 330 380 320H427Q444 320 456.5 307.5Q469 295 469 277V21Q469 4 456.5 -8.5Q444 -21 427 -21H85Q68 -21 55.5 -8.5Q43 4 43 21V277Q43 295 55.5 307.5Q68 320 85 320H132Q128 330 128 341Q128 368 146.5 386.5Q165 405 192 405Q208 405 221.5 398.0Q235 391 244 379ZM85 277V21H235Q235 30 241.0 36.5Q247 43 256.0 43.0Q265 43 271.0 36.5Q277 30 277 21H427V277H318L363 215L329 190L265 277H247L183 190L149 215L194 277ZM192 363Q183 363 177.0 356.5Q171 350 171.0 341.0Q171 332 177.0 326.0Q183 320 192.0 320.0Q201 320 207.0 326.0Q213 332 213.0 341.0Q213 350 207.0 356.5Q201 363 192 363ZM320 363Q311 363 305.0 356.5Q299 350 299.0 341.0Q299 332 305.0 326.0Q311 320 320.0 320.0Q329 320 335.0 326.0Q341 332 341.0 341.0Q341 350 335.0 356.5Q329 363 320 363ZM256 107Q265 107 271.0 100.5Q277 94 277.0 85.0Q277 76 271.0 70.0Q265 64 256.0 64.0Q247 64 241.0 70.0Q235 76 235.0 85.0Q235 94 241.0 100.5Q247 107 256 107ZM256 171Q265 171 271.0 164.5Q277 158 277.0 149.0Q277 140 271.0 134.0Q265 128 256.0 128.0Q247 128 241.0 134.0Q235 140 235.0 149.0Q235 158 241.0 164.5Q247 171 256 171ZM256 235Q265 235 271.0 228.5Q277 222 277.0 213.0Q277 204 271.0 198.0Q265 192 256.0 192.0Q247 192 241.0 198.0Q235 204 235.0 213.0Q235 222 241.0 228.5Q247 235 256 235Z" />
      </g>
    </svg>