<svg xmlns="http://www.w3.org/2000/svg" viewBox="24 -43 448 470">
      <g transform="scale(1 -1) translate(0 -384)">
        <path d="M181 335 153 364Q160 391 182.5 409.0Q205 427 235 427Q270 427 295.0 402.0Q320 377 320 341V196L288 228V341Q288 363 272.5 379.0Q257 395 235.0 395.0Q213 395 197.0 379.0Q181 363 181 341ZM384 320H352V164L384 132ZM472 -10 445 -37 376 32Q363 -1 333.0 -22.0Q303 -43 267 -43Q235 -43 208.0 -27.0Q181 -11 165.0 16.0Q149 43 149 75V258L24 384L51 411ZM245 117Q245 109 251.5 102.5Q258 96 266.5 96.0Q275 96 281.5 102.5Q288 109 288 117V120L245 162ZM350 57 314 93Q307 80 294.5 72.0Q282 64 267 64Q245 64 229.0 79.5Q213 95 213 117V194L181 226V75Q181 39 206.0 14.0Q231 -11 267 -11Q297 -11 320.5 8.5Q344 28 350 57ZM213 303 245 271V320H213Z" />
      </g>
    </svg>