<svg xmlns="http://www.w3.org/2000/svg" viewBox="46 -43 419 448">
      <g transform="scale(1 -1) translate(0 -362)">
        <path d="M452 214 256 -43 59 214 61 216Q67 222 76 227L229 28L183 171L197 196L256 13L314 196L329 171L283 28L435 227H436Q446 221 450 217ZM107 256Q130 256 150.0 243.5Q170 231 181 211Q192 232 212.0 244.0Q232 256 256.0 256.0Q280 256 299.5 244.0Q319 232 331 211Q341 232 361.0 244.0Q381 256 405 256Q441 256 465 232Q456 281 426.0 320.5Q396 360 351.5 382.5Q307 405 256.0 405.0Q205 405 160.0 382.5Q115 360 85.0 320.0Q55 280 46 231Q71 256 107 256Z" />
      </g>
    </svg>