<svg xmlns="http://www.w3.org/2000/svg" viewBox="21 -43 470 470">
      <g transform="scale(1 -1) translate(0 -384)">
        <path d="M256 85Q238 85 225.5 97.5Q213 110 213.0 128.0Q213 146 225.5 158.5Q238 171 256.0 171.0Q274 171 286.5 158.5Q299 146 299.0 128.0Q299 110 286.5 97.5Q274 85 256 85ZM405 149H363Q363 120 348.5 95.5Q334 71 309.5 57.0Q285 43 256.0 43.0Q227 43 202.5 57.0Q178 71 163.5 95.5Q149 120 149 149H107Q107 105 130.5 69.0Q154 33 192 15V-43H320V15Q358 33 381.5 69.0Q405 105 405 149ZM491 282Q491 270 479.0 263.5Q467 257 457 265Q455 266 452 268L448 271L405 171H363L331 304Q256 312 181 304L149 171H107L64 271L60 268Q57 266 55 265Q45 257 33.0 263.5Q21 270 21 282V363L22 365Q23 369 25.5 373.5Q28 378 34.5 383.5Q41 389 52.0 395.0Q63 401 79 406Q97 412 120 417Q146 421 179 424Q214 427 256.0 427.0Q298 427 333 424Q366 421 392 417Q415 412 433 406Q449 401 460.0 395.0Q471 389 477.5 383.5Q484 378 486.5 373.5Q489 369 490 365L491 363ZM147 299Q116 292 93 284L125 208ZM419 284Q396 292 365 299L387 208Z" />
      </g>
    </svg>