<svg xmlns="http://www.w3.org/2000/svg" viewBox="43 -21 459 438">
      <g transform="scale(1 -1) translate(0 -396)">
        <path d="M310 417 287 394 321 360Q328 352 328.0 341.0Q328 330 321 323L245 246L267 223L344 300Q361 319 361.0 341.5Q361 364 344 383ZM225 374 202 351 215 339Q222 332 222.0 320.0Q222 308 215 301L202 289L225 266L237 279Q254 298 254.0 320.5Q254 343 237 362ZM448 340Q426 340 407 323L287 203L310 181L429 300Q437 308 448.0 308.0Q459 308 467 300L480 287L502 310L490 323Q471 340 448 340ZM149 277 43 -21 341 85ZM405 212Q383 212 364 195L330 161L353 138L387 172Q395 180 405.5 180.0Q416 180 424 172L459 138L481 160L447 195Q428 212 405 212Z" />
      </g>
    </svg>