<svg xmlns="http://www.w3.org/2000/svg" viewBox="43 21 426 342">
      <g transform="scale(1 -1) translate(0 -384)">
        <path d="M85 363Q68 363 55.5 350.5Q43 338 43 320V213H173Q181 242 204.0 259.5Q227 277 256.0 277.0Q285 277 308.0 259.5Q331 242 339 213H469V320Q469 338 456.5 350.5Q444 363 427 363ZM256 235Q238 235 225.5 222.5Q213 210 213.0 192.0Q213 174 225.5 161.5Q238 149 256.0 149.0Q274 149 286.5 161.5Q299 174 299.0 192.0Q299 210 286.5 222.5Q274 235 256 235ZM43 171V64Q43 46 55.5 33.5Q68 21 85 21H427Q444 21 456.5 33.5Q469 46 469 64V171H339Q331 142 308.0 124.5Q285 107 256.0 107.0Q227 107 204.0 124.5Q181 142 173 171Z" />
      </g>
    </svg>