<svg xmlns="http://www.w3.org/2000/svg" viewBox="43 0 426 384">
      <g transform="scale(1 -1) translate(0 -384)">
        <path d="M85 96V277H64V299H85V320H64V341H85V363H64V384H192Q208 383 220.5 370.5Q233 358 235 341H448V320H235Q233 303 220.5 289.5Q208 276 192 277H149V127Q152 127 154.0 128.0Q156 129 159 128H160Q178 128 201 119Q214 149 245.5 170.5Q277 192 310 192Q359 192 393.0 158.0Q427 124 427 75V69L426 64H67Q71 80 85 96ZM128 123V277H107V113Q123 121 128 123ZM192 299V320H149V299ZM192 363H149V341H192ZM107 363V341H128V363ZM107 320V299H128V320ZM43 43H469L427 0H85Z" />
      </g>
    </svg>