<svg xmlns="http://www.w3.org/2000/svg" viewBox="41 -32 428 416">
      <g transform="scale(1 -1) translate(0 -352)">
        <path d="M43 357 70 384 459 -5 432 -32 389 11Q385 8 380 5Q364 -2 344 2Q332 4 306 12Q289 18 280 20Q265 24 253.5 24.0Q242 24 228 20Q219 18 201 12Q176 3 163 1Q143 -2 127.5 5.5Q112 13 102.5 31.0Q93 49 95 67Q96 81 109 95Q117 104 136 118Q152 132 159 139Q169 148 187 173Q198 189 204 196ZM178 384Q197 387 214.5 369.0Q232 351 237.5 323.0Q243 295 235 273L150 358Q159 381 178 384ZM331 384Q350 381 359.0 359.0Q368 337 362.5 308.5Q357 280 339.5 262.0Q322 244 303.0 247.0Q284 250 274.5 272.0Q265 294 271.0 322.5Q277 351 294.5 369.0Q312 387 331 384ZM64 286Q82 294 104.0 281.5Q126 269 138.5 244.0Q151 219 147.0 195.5Q143 172 125.0 164.5Q107 157 85.5 169.0Q64 181 51.5 206.5Q39 232 42.5 255.0Q46 278 64 286ZM448 286Q466 278 469.5 255.0Q473 232 460.5 206.5Q448 181 426.5 169.0Q405 157 387.0 164.5Q369 172 365.0 195.5Q361 219 373.5 244.0Q386 269 408.0 281.5Q430 294 448 286Z" />
      </g>
    </svg>