<svg xmlns="http://www.w3.org/2000/svg" viewBox="43 -21 426 426">
      <g transform="scale(1 -1) translate(0 -384)">
        <path d="M256 405Q214 405 174.5 389.0Q135 373 105.0 343.0Q75 313 59.0 273.5Q43 234 43.0 192.0Q43 150 59.0 110.5Q75 71 105.0 41.0Q135 11 174.5 -5.0Q214 -21 256.0 -21.0Q298 -21 337.5 -5.0Q377 11 407.0 41.0Q437 71 453.0 110.5Q469 150 469.0 192.0Q469 234 453.0 273.5Q437 313 407.0 343.0Q377 373 337.5 389.0Q298 405 256 405ZM235 141V23Q188 29 151 57ZM277 141 361 57Q324 29 277 23ZM85 192Q85 234 104.5 271.0Q124 308 158.5 332.0Q193 356 235 361V201L121 87Q85 133 85 192ZM391 87 277 201V361Q319 356 353.5 332.0Q388 308 407.5 271.0Q427 234 427 192Q427 133 391 87Z" />
      </g>
    </svg>