<svg xmlns="http://www.w3.org/2000/svg" viewBox="116 -43 277 470">
      <g transform="scale(1 -1) translate(0 -384)">
        <path d="M256 -43Q241 -43 226 -39Q190 -32 162.5 -7.0Q135 18 123.5 53.0Q112 88 120.0 125.5Q128 163 155 192Q161 198 161.0 206.0Q161 214 155 219Q133 246 128.0 280.0Q123 314 135.0 346.0Q147 378 174.5 399.5Q202 421 235.5 426.0Q269 431 301.0 419.0Q333 407 355 380Q383 345 383.0 300.0Q383 255 355 219Q350 213 350.5 204.5Q351 196 357 191Q382 163 390.5 127.0Q399 91 388.5 55.5Q378 20 350 -5Q331 -23 306.5 -33.0Q282 -43 256 -43ZM256 384Q226 384 203 365Q187 353 179.0 335.5Q171 318 171 299Q171 269 189 245Q205 227 204.0 203.0Q203 179 185.5 161.0Q168 143 162.5 118.0Q157 93 164.5 68.5Q172 44 191.0 26.0Q210 8 235.0 2.5Q260 -3 284.5 4.5Q309 12 326 31Q352 58 352.0 96.0Q352 134 326 162Q309 179 308.0 203.5Q307 228 323 247Q345 275 341.0 310.0Q337 345 309 367Q293 380 275 384ZM256 320Q256 311 262.5 305.0Q269 299 277.5 299.0Q286 299 292.5 305.0Q299 311 299.0 320.0Q299 329 292.5 335.0Q286 341 277.5 341.0Q269 341 262.5 335.0Q256 329 256 320ZM299 43Q307 43 313.5 49.0Q320 55 320.0 64.0Q320 73 313.5 79.0Q307 85 298.5 85.0Q290 85 283.5 79.0Q277 73 277.0 64.0Q277 55 283.5 49.0Q290 43 299 43ZM277 107Q286 107 292.5 113.0Q299 119 299.0 128.0Q299 137 292.5 143.0Q286 149 277.5 149.0Q269 149 262.5 143.0Q256 137 256.0 128.0Q256 119 262.5 113.0Q269 107 277 107ZM235 64Q243 64 249.5 70.5Q256 77 256.0 85.5Q256 94 249.5 100.5Q243 107 234.5 107.0Q226 107 219.5 100.5Q213 94 213.0 85.5Q213 77 219.5 70.5Q226 64 235 64Z" />
      </g>
    </svg>