<svg xmlns="http://www.w3.org/2000/svg" viewBox="24 -37 448 448">
      <g transform="scale(1 -1) translate(0 -374)">
        <path d="M339 232Q356 254 361.0 281.0Q366 308 356.5 334.0Q347 360 326.5 378.5Q306 397 279 403Q268 405 256 405Q227 405 202.5 391.0Q178 377 164 352L349 167Q346 171 342 176Q331 187 330.0 203.0Q329 219 339 232ZM277 299Q268 299 262.0 305.0Q256 311 256.0 320.0Q256 329 262.0 335.0Q268 341 277.0 341.0Q286 341 292.5 335.0Q299 329 299.0 320.0Q299 311 292.5 305.0Q286 299 277 299ZM149 312 51 411 24 384 166 241 167 240Q171 234 173 232Q183 220 182.0 204.0Q181 188 171 177Q149 154 141.5 123.0Q134 92 143.5 61.5Q153 31 176.5 9.5Q200 -12 231 -19Q243 -21 256 -21Q290 -22 319.0 -3.5Q348 15 363 46L445 -37L472 -10ZM235 64Q226 64 219.5 70.0Q213 76 213.0 85.0Q213 94 219.5 100.5Q226 107 235.0 107.0Q244 107 250.0 100.5Q256 94 256.0 85.0Q256 76 250.0 70.0Q244 64 235 64ZM299 43Q290 43 283.5 49.0Q277 55 277.0 64.0Q277 73 283.5 79.0Q290 85 299.0 85.0Q308 85 314.0 79.0Q320 73 320.0 64.0Q320 55 314.0 49.0Q308 43 299 43ZM277 107Q268 107 262.0 113.0Q256 119 256.0 128.5Q256 138 263 144L294 114Q287 107 277 107Z" />
      </g>
    </svg>