<svg xmlns="http://www.w3.org/2000/svg" viewBox="24 -42 448 469">
      <g transform="scale(1 -1) translate(0 -385)">
        <path d="M472 -10 445 -37 377 30Q367 10 350 -5Q325 -29 292.5 -38.0Q260 -47 226 -39Q190 -32 162.5 -7.0Q135 18 123.5 53.0Q112 88 120.0 125.5Q128 163 155 192Q161 198 161.0 206.0Q161 214 155 219Q134 245 129 279L24 384L51 411ZM326 31Q339 45 345 62L293 114Q287 107 278.0 107.0Q269 107 262.5 113.0Q256 119 256.0 128.5Q256 138 264 144L204 204Q203 179 185.5 161.0Q168 143 162.5 118.0Q157 93 164.5 68.5Q172 44 191 26Q210 8 235.0 2.5Q260 -3 284.5 4.5Q309 12 326 31ZM299 85Q286 85 280.5 74.5Q275 64 280.5 53.5Q286 43 299.0 43.0Q312 43 317.0 53.5Q322 64 317.0 74.5Q312 85 299 85ZM147 369 180 336Q188 353 203 365Q226 384 256 384H275Q293 380 309 367Q337 345 341.0 310.0Q345 275 323 247Q309 230 308 208L391 125Q383 162 357 191Q351 196 350.5 204.5Q350 213 355 219L362 230Q371 244 376 259Q384 280 384 299Q384 322 370 351Q353 383 327 403Q295 427 256 427Q227 427 203 418Q184 411 170 398Q159 389 152 378ZM256 85Q256 98 245.5 103.5Q235 109 224.0 103.5Q213 98 213.0 85.0Q213 72 224.0 67.0Q235 62 245.5 67.0Q256 72 256 85ZM277 341Q264 341 259.0 330.5Q254 320 259.0 309.5Q264 299 277.0 299.0Q290 299 295.5 309.5Q301 320 295.5 330.5Q290 341 277 341Z" />
      </g>
    </svg>