<svg xmlns="http://www.w3.org/2000/svg" viewBox="138 -21 234 426">
      <g transform="scale(1 -1) translate(0 -384)">
        <path d="M341 176Q330 187 329.0 203.0Q328 219 338 232Q356 254 360.5 281.0Q365 308 355.5 334.0Q346 360 325.5 378.5Q305 397 278 403Q267 405 256 405Q227 405 202.5 391.0Q178 377 163.5 352.5Q149 328 149 299Q149 261 173 232Q183 220 182.0 204.0Q181 188 171 177Q149 154 141.5 123.0Q134 92 143.5 61.5Q153 31 176.5 9.5Q200 -12 231 -19Q243 -21 256 -21Q291 -21 320.0 -2.0Q349 17 363.0 49.0Q377 81 371.0 115.5Q365 150 341 176ZM277 341Q286 341 292.5 335.0Q299 329 299.0 320.0Q299 311 292.5 305.0Q286 299 277.0 299.0Q268 299 262.0 305.0Q256 311 256.0 320.0Q256 329 262.0 335.0Q268 341 277 341ZM235 64Q226 64 219.5 70.0Q213 76 213.0 85.0Q213 94 219.5 100.5Q226 107 235.0 107.0Q244 107 250.0 100.5Q256 94 256.0 85.0Q256 76 250.0 70.0Q244 64 235 64ZM256 128Q256 137 262.0 143.0Q268 149 277.0 149.0Q286 149 292.5 143.0Q299 137 299.0 128.0Q299 119 292.5 113.0Q286 107 277.0 107.0Q268 107 262.0 113.0Q256 119 256 128ZM299 43Q290 43 283.5 49.0Q277 55 277.0 64.0Q277 73 283.5 79.0Q290 85 299.0 85.0Q308 85 314.0 79.0Q320 73 320.0 64.0Q320 55 314.0 49.0Q308 43 299 43Z" />
      </g>
    </svg>