<svg xmlns="http://www.w3.org/2000/svg" viewBox="43 0 437 405">
      <g transform="scale(1 -1) translate(0 -405)">
        <path d="M463 299Q461 296 456 291Q448 282 448.0 277.0Q448 272 457 261L461 256L465 252Q474 243 477 239Q481 232 480.5 225.5Q480 219 473 210Q469 205 459 194L371 107L341 134L431 224L410 245L380 215L299 297L384 378Q390 384 398.5 384.0Q407 384 414 378L463 329Q469 322 469.0 312.5Q469 303 463 299ZM85 81 290 286 369 205 166 0H85ZM171 341V352Q171 374 155.5 389.5Q140 405 117.5 405.0Q95 405 79.5 389.5Q64 374 64 352V341Q54 341 48.5 335.5Q43 330 43 320V235Q43 225 48.5 219.0Q54 213 64 213H171Q180 213 186.0 219.0Q192 225 192 235V320Q192 330 186.0 335.5Q180 341 171 341ZM149 341H85V352Q85 365 95.0 374.5Q105 384 117.5 384.0Q130 384 139.5 374.5Q149 365 149 352Z" />
      </g>
    </svg>