<svg xmlns="http://www.w3.org/2000/svg" viewBox="52 0 407 396">
      <g transform="scale(1 -1) translate(0 -396)">
        <path d="M442 299Q440 296 435 291Q427 282 427.0 277.0Q427 272 436 261L439 256L444 252Q452 243 455 239Q460 232 459.5 225.5Q459 219 452 210Q448 205 437 194L350 107L320 134L410 224L388 245L358 215L277 297L363 378Q369 384 377.5 384.0Q386 384 393 378L442 329Q448 322 448.0 312.5Q448 303 442 299ZM64 81 269 286 348 205 145 0H64ZM83 396 128 350 173 396 204 365 158 320 204 275 173 244 128 290 83 244 52 275 98 320 52 365Z" />
      </g>
    </svg>