<svg xmlns="http://www.w3.org/2000/svg" viewBox="43 -21 426 426">
      <g transform="scale(1 -1) translate(0 -384)">
        <path d="M431 405H166Q150 405 139.0 394.0Q128 383 128 367V102Q128 86 139.0 75.0Q150 64 166 64H431Q447 64 458.0 75.0Q469 86 469 102V367Q469 383 458.0 394.0Q447 405 431 405ZM236 128H192V172L321 301L365 257ZM399 291 378 270 334 314 355 335Q359 338 363.5 338.0Q368 338 372 335L399 308Q402 304 402.0 299.5Q402 295 399 291ZM85 320H43V21Q43 4 55.5 -8.5Q68 -21 85 -21H384V21H85Z" />
      </g>
    </svg>