<svg xmlns="http://www.w3.org/2000/svg" viewBox="43 0 448 405">
      <g transform="scale(1 -1) translate(0 -405)">
        <path d="M117 405Q95 405 79.5 389.5Q64 374 64 352V341Q55 341 49.0 335.0Q43 329 43 320V235Q43 226 49.0 219.5Q55 213 64 213H171Q180 213 186.0 219.5Q192 226 192 235V320Q192 329 186.0 335.0Q180 341 171 341V352Q171 374 155.0 389.5Q139 405 117 405ZM117 384Q131 384 140.0 374.5Q149 365 149 352V341H85V352Q85 365 94.5 374.5Q104 384 117 384ZM419 384Q411 384 405 378L365 339L445 259L485 298Q491 304 491.0 313.0Q491 322 485 328L435 378Q428 384 419 384ZM343 316 107 80V0H187L423 236Z" />
      </g>
    </svg>