<svg xmlns="http://www.w3.org/2000/svg" viewBox="43 -21 426 426">
      <g transform="scale(1 -1) translate(0 -384)">
        <path d="M85 320H43V21Q43 4 55.5 -8.5Q68 -21 85 -21H384V21H85ZM399 291 378 270 334 314 355 335Q359 338 363.5 338.0Q368 338 372 335L399 308Q402 304 402.0 299.5Q402 295 399 291ZM192 172 321 301 365 257 236 128H192ZM427 363V107H171V363ZM427 405H171Q153 405 140.5 392.5Q128 380 128 363V107Q128 89 140.5 76.5Q153 64 171 64H427Q444 64 456.5 76.5Q469 89 469 107V363Q469 380 456.5 392.5Q444 405 427 405Z" />
      </g>
    </svg>