<svg xmlns="http://www.w3.org/2000/svg" viewBox="43 0 448 405">
      <g transform="scale(1 -1) translate(0 -405)">
        <path d="M343 256 363 237 169 43H149V62ZM420 384Q412 384 405 378L367 339L446 258L484 299Q491 305 491.0 313.5Q491 322 484 329L435 378Q429 384 420 384ZM343 316 107 81V0H188L422 237ZM171 341V352Q171 374 155.5 389.5Q140 405 117.5 405.0Q95 405 79.5 389.5Q64 374 64 352V341Q54 341 48.5 335.5Q43 330 43 320V235Q43 225 48.5 219.0Q54 213 64 213H171Q180 213 186.0 219.0Q192 225 192 235V320Q192 330 186.0 335.5Q180 341 171 341ZM149 341H85V352Q85 365 95.0 374.5Q105 384 117.5 384.0Q130 384 139.5 374.5Q149 365 149 352Z" />
      </g>
    </svg>