<svg xmlns="http://www.w3.org/2000/svg" viewBox="64 -21 384 426">
      <g transform="scale(1 -1) translate(0 -384)">
        <path d="M405 107Q405 80 396.0 55.0Q387 30 370 11Q384 -3 384 -21H128Q128 -3 142 11Q125 30 116.0 55.0Q107 80 107 107H64Q64 126 72.5 143.5Q81 161 95 173Q120 191 134.5 218.5Q149 246 149 277V299Q149 328 163.5 352.5Q178 377 202.5 391.0Q227 405 256.0 405.0Q285 405 309.5 391.0Q334 377 348.5 352.5Q363 328 363 299V277Q363 246 377.5 218.5Q392 191 417 173Q431 161 439.5 143.5Q448 126 448 107ZM341 107Q341 142 316.0 167.0Q291 192 256.0 192.0Q221 192 196.0 167.0Q171 142 171.0 106.5Q171 71 196.0 46.0Q221 21 256.0 21.0Q291 21 316.0 46.0Q341 71 341 107ZM213 256 256 224 299 256 256 288ZM213 341Q204 341 198.0 335.0Q192 329 192.0 320.0Q192 311 198.0 305.0Q204 299 213.0 299.0Q222 299 228.5 305.0Q235 311 235.0 320.0Q235 329 228.5 335.0Q222 341 213 341ZM299 341Q290 341 283.5 335.0Q277 329 277.0 320.0Q277 311 283.5 305.0Q290 299 299.0 299.0Q308 299 314.0 305.0Q320 311 320.0 320.0Q320 329 314.0 335.0Q308 341 299 341Z" />
      </g>
    </svg>