<svg xmlns="http://www.w3.org/2000/svg" viewBox="43 -21 426 426">
      <g transform="scale(1 -1) translate(0 -384)">
        <path d="M256 405Q198 405 149.0 376.5Q100 348 71.5 299.0Q43 250 43.0 192.0Q43 134 71.5 85.0Q100 36 149.0 7.5Q198 -21 256.0 -21.0Q314 -21 363.0 7.5Q412 36 440.5 85.0Q469 134 469.0 192.0Q469 250 440.5 299.0Q412 348 363.0 376.5Q314 405 256 405ZM188 298Q204 298 215.0 286.5Q226 275 226.0 259.5Q226 244 215.0 233.0Q204 222 188.5 222.0Q173 222 161.5 233.0Q150 244 150.0 259.5Q150 275 161.5 286.5Q173 298 188 298ZM325 85Q309 85 298.0 96.5Q287 108 287.0 123.5Q287 139 298.0 150.0Q309 161 324.5 161.0Q340 161 351.5 150.0Q363 139 363.0 123.5Q363 108 351.5 96.5Q340 85 325 85ZM181 85 149 117 331 299 363 267Z" />
      </g>
    </svg>