<svg xmlns="http://www.w3.org/2000/svg" viewBox="75 11 362 362">
      <g transform="scale(1 -1) translate(0 -384)">
        <path d="M395 373 437 331 117 11 75 53ZM149 363Q176 363 194.5 344.0Q213 325 213.0 298.5Q213 272 194.5 253.5Q176 235 149.5 235.0Q123 235 104.0 253.5Q85 272 85.0 298.5Q85 325 104.0 344.0Q123 363 149 363ZM363 149Q389 149 408.0 130.5Q427 112 427.0 85.5Q427 59 408.0 40.0Q389 21 362.5 21.0Q336 21 317.5 40.0Q299 59 299.0 85.5Q299 112 317.5 130.5Q336 149 363 149ZM149 320Q141 320 134.5 313.5Q128 307 128.0 298.5Q128 290 134.5 283.5Q141 277 149.5 277.0Q158 277 164.5 283.5Q171 290 171.0 298.5Q171 307 164.5 313.5Q158 320 149 320ZM363 107Q354 107 347.5 100.5Q341 94 341.0 85.5Q341 77 347.5 70.5Q354 64 362.5 64.0Q371 64 377.5 70.5Q384 77 384.0 85.5Q384 94 377.5 100.5Q371 107 363 107Z" />
      </g>
    </svg>