<svg xmlns="http://www.w3.org/2000/svg" viewBox="43 -21 426 426">
      <g transform="scale(1 -1) translate(0 -384)">
        <path d="M363 123Q363 108 351.5 96.5Q340 85 324.5 85.0Q309 85 298.0 96.5Q287 108 287.0 123.5Q287 139 298.0 150.0Q309 161 324.5 161.0Q340 161 351.5 150.0Q363 139 363 123ZM188 222Q204 222 215.0 233.0Q226 244 226.0 259.5Q226 275 215.0 286.5Q204 298 188.5 298.0Q173 298 161.5 286.5Q150 275 150.0 259.5Q150 244 161.5 233.0Q173 222 188 222ZM149 117 181 85 363 267 331 299ZM469 192Q469 134 440.5 85.0Q412 36 363.0 7.5Q314 -21 256.0 -21.0Q198 -21 149.0 7.5Q100 36 71.5 85.0Q43 134 43.0 192.0Q43 250 71.5 299.0Q100 348 149.0 376.5Q198 405 256.0 405.0Q314 405 363.0 376.5Q412 348 440.5 299.0Q469 250 469 192ZM427 192Q427 238 404.0 277.5Q381 317 341.5 340.0Q302 363 256.0 363.0Q210 363 170.5 340.0Q131 317 108.0 277.5Q85 238 85.0 192.0Q85 146 108.0 106.5Q131 67 170.5 44.0Q210 21 256.0 21.0Q302 21 341.5 44.0Q381 67 404.0 106.5Q427 146 427 192Z" />
      </g>
    </svg>