<svg xmlns="http://www.w3.org/2000/svg" viewBox="75 11 362 362">
      <g transform="scale(1 -1) translate(0 -384)">
        <path d="M395 373 75 53 117 11 437 331ZM149 363Q123 363 104.0 344.0Q85 325 85.0 298.5Q85 272 104.0 253.5Q123 235 149.5 235.0Q176 235 194.5 253.5Q213 272 213.0 298.5Q213 325 194.5 344.0Q176 363 149 363ZM363 149Q336 149 317.5 130.5Q299 112 299.0 85.5Q299 59 317.5 40.0Q336 21 362.5 21.0Q389 21 408.0 40.0Q427 59 427.0 85.5Q427 112 408.0 130.5Q389 149 363 149Z" />
      </g>
    </svg>