<svg xmlns="http://www.w3.org/2000/svg" viewBox="64 0 384 384">
      <g transform="scale(1 -1) translate(0 -384)">
        <path d="M405 384H107Q89 384 76.5 371.5Q64 359 64 341V43Q64 25 76.5 12.5Q89 0 107 0H405Q423 0 435.5 12.5Q448 25 448 43V341Q448 359 435.5 371.5Q423 384 405 384ZM405 43H107V341H405ZM363 123Q363 108 351.5 96.5Q340 85 324.5 85.0Q309 85 298.0 96.5Q287 108 287.0 123.5Q287 139 298.0 150.0Q309 161 324.5 161.0Q340 161 351.5 150.0Q363 139 363 123ZM181 85 149 117 331 299 363 267ZM150 260Q150 275 161.5 286.5Q173 298 188.5 298.0Q204 298 215.0 286.5Q226 275 226.0 259.5Q226 244 215.0 233.0Q204 222 188.5 222.0Q173 222 161.5 233.0Q150 244 150 260Z" />
      </g>
    </svg>