<svg xmlns="http://www.w3.org/2000/svg" viewBox="43 43 426 320">
      <g transform="scale(1 -1) translate(0 -406)">
        <path d="M43 363V320H85V363ZM427 363V320H469V363ZM43 299V256H85V299ZM107 299V256H149V299ZM299 299V256H341V299ZM363 299V256H405V299ZM427 299V256H469V299ZM43 235V192H85V235ZM107 235V192H149V235ZM171 235V192H213V235ZM235 235V192H277V235ZM299 235V192H341V235ZM363 235V192H405V235ZM427 235V192H469V235ZM43 171V128H85V171ZM107 171V128H149V171ZM171 171V128H213V171ZM235 171V128H277V171ZM299 171V128H341V171ZM363 171V128H405V171ZM427 171V128H469V171ZM107 85V43H149V85ZM171 85V43H213V85ZM235 85V43H277V85ZM299 85V43H341V85ZM363 85V43H405V85Z" />
      </g>
    </svg>