<svg xmlns="http://www.w3.org/2000/svg" viewBox="21 -43 470 470">
      <g transform="scale(1 -1) translate(0 -384)">
        <path d="M339 427Q299 426 265.5 405.5Q232 385 212.0 351.0Q192 317 192.0 276.5Q192 236 212.0 202.0Q232 168 266.0 148.0Q300 128 341.0 128.0Q382 128 416.5 148.0Q451 168 471.0 202.0Q491 236 491.0 277.0Q491 318 471.0 352.5Q451 387 416.0 407.0Q381 427 339 427H340ZM341 384Q371 384 395.5 370.0Q420 356 434.0 331.5Q448 307 448.0 277.5Q448 248 434.0 223.5Q420 199 395.5 185.0Q371 171 341.5 171.0Q312 171 287.5 185.0Q263 199 249.0 223.5Q235 248 235.0 277.5Q235 307 249.0 331.5Q263 356 287.5 370.0Q312 384 341 384ZM320 363V256L397 209L414 235L352 271V363ZM98 175Q121 130 157.5 93.5Q194 57 239 34L286 81Q291 86 296.5 87.0Q302 88 307 85Q342 73 384 73Q392 73 398.5 66.0Q405 59 405 51V-21Q405 -29 398.5 -36.0Q392 -43 384 -43Q285 -43 201 7Q119 55 71 137Q21 221 21 320Q21 329 27.5 335.0Q34 341 43 341H117Q127 341 133.0 335.5Q139 330 139 320Q139 282 151 243Q154 232 147 222Z" />
      </g>
    </svg>