<svg xmlns="http://www.w3.org/2000/svg" viewBox="53 -11 406 406">
      <g transform="scale(1 -1) translate(0 -384)">
        <path d="M350 85Q382 77 405 75V43Q356 46 324 60ZM431 395 53 17 81 -11 186 94Q236 49 298.0 24.5Q360 0 427 0Q436 0 442.0 6.0Q448 12 448 21V96Q448 106 442.0 111.5Q436 117 427 117Q385 117 350 130H343Q335 130 329 124L282 77Q239 100 215 124L459 367ZM139 341Q141 318 149 286L124 260Q110 303 107 341ZM160 384H85Q76 384 70.0 378.0Q64 372 64 363Q64 246 132 151L162 181Q154 192 141 218L188 265Q193 269 194.0 275.0Q195 281 192 286Q181 329 181 363Q181 372 175.5 378.0Q170 384 160 384Z" />
      </g>
    </svg>