<svg xmlns="http://www.w3.org/2000/svg" viewBox="64 0 384 427">
      <g transform="scale(1 -1) translate(0 -427)">
        <path d="M427 117Q385 117 350 130H343Q335 130 329 124L282 77Q236 101 199.5 137.5Q163 174 141 218L188 265Q193 269 194.0 275.0Q195 281 192 286Q181 325 181 363Q181 371 174.5 377.5Q168 384 160 384H85Q77 384 70.5 377.5Q64 371 64 363Q64 264 113 180Q161 97 244 49Q328 0 427 0Q435 0 441.5 6.5Q448 13 448 21V96Q448 104 441.5 110.5Q435 117 427 117ZM107 341H139Q141 318 149 286L124 260Q110 303 107 341ZM405 43Q367 46 324 60L350 85Q384 77 405 77ZM384 294 404 274 384 254ZM384 386 404 366 384 346ZM314 245 363 294V213H373L434 274L388 320L434 366L373 427H363V346L314 395L299 380L358 320L299 260Z" />
      </g>
    </svg>