<svg xmlns="http://www.w3.org/2000/svg" viewBox="64 0 384 384">
      <g transform="scale(1 -1) translate(0 -384)">
        <path d="M427 117Q385 117 350 130H343Q335 130 329 124L282 77Q236 101 199.5 137.5Q163 174 141 218L188 265Q193 269 194.0 275.0Q195 281 192 286Q181 325 181 363Q181 371 174.5 377.5Q168 384 160 384H85Q77 384 70.5 377.5Q64 371 64 363Q64 264 113 180Q161 97 244 49Q328 0 427 0Q435 0 441.5 6.5Q448 13 448 21V96Q448 104 441.5 110.5Q435 117 427 117ZM107 341H139Q141 318 149 286L124 260Q110 303 107 341ZM405 43Q367 46 324 60L350 85Q384 77 405 77ZM320 363Q320 353 314.0 347.0Q308 341 298.5 341.0Q289 341 283.0 347.0Q277 353 277.0 362.5Q277 372 283.0 378.0Q289 384 298.5 384.0Q308 384 314.0 378.0Q320 372 320 363ZM384 363Q384 353 378.0 347.0Q372 341 362.5 341.0Q353 341 347.0 347.0Q341 353 341.0 362.5Q341 372 347.0 378.0Q353 384 362.5 384.0Q372 384 378.0 378.0Q384 372 384 363ZM448 363Q448 353 442.0 347.0Q436 341 426.5 341.0Q417 341 411.0 347.0Q405 353 405.0 362.5Q405 372 411.0 378.0Q417 384 426.5 384.0Q436 384 442.0 378.0Q448 372 448 363ZM320 299Q320 289 314.0 283.0Q308 277 298.5 277.0Q289 277 283.0 283.0Q277 289 277.0 298.5Q277 308 283.0 314.0Q289 320 298.5 320.0Q308 320 314.0 314.0Q320 308 320 299ZM384 299Q384 289 378.0 283.0Q372 277 362.5 277.0Q353 277 347.0 283.0Q341 289 341.0 298.5Q341 308 347.0 314.0Q353 320 362.5 320.0Q372 320 378.0 314.0Q384 308 384 299ZM448 299Q448 289 442.0 283.0Q436 277 426.5 277.0Q417 277 411.0 283.0Q405 289 405.0 298.5Q405 308 411.0 314.0Q417 320 426.5 320.0Q436 320 442.0 314.0Q448 308 448 299ZM320 235Q320 225 314.0 219.0Q308 213 298.5 213.0Q289 213 283.0 219.0Q277 225 277.0 234.5Q277 244 283.0 250.0Q289 256 298.5 256.0Q308 256 314.0 250.0Q320 244 320 235ZM384 235Q384 225 378.0 219.0Q372 213 362.5 213.0Q353 213 347.0 219.0Q341 225 341.0 234.5Q341 244 347.0 250.0Q353 256 362.5 256.0Q372 256 378.0 250.0Q384 244 384 235ZM448 235Q448 225 442.0 219.0Q436 213 426.5 213.0Q417 213 411.0 219.0Q405 225 405.0 234.5Q405 244 411.0 250.0Q417 256 426.5 256.0Q436 256 442.0 250.0Q448 244 448 235Z" />
      </g>
    </svg>