<svg xmlns="http://www.w3.org/2000/svg" viewBox="0 2 512 382">
      <g transform="scale(1 -1) translate(0 -386)">
        <path d="M397 117V79Q420 66 437 51L461 75Q436 100 397 117ZM115 117Q78 99 53 77L77 53Q94 68 117 81V117ZM256 192Q328 192 393.0 166.0Q458 140 506 92Q512 85 512.0 76.5Q512 68 506 62L452 9Q446 2 437.5 2.0Q429 2 422 9Q390 37 365 47Q352 55 352 66V132Q307 147 254.0 147.0Q201 147 156 132V66Q156 53 143 47Q111 31 85 9Q79 2 70.5 2.0Q62 2 55 9L2 62Q2 64 1.0 69.5Q0 75 0 77Q0 85 6 92Q55 139 120.0 165.5Q185 192 256 192ZM139 331V256H107V384H235V352H160L256 256L384 384L405 363L256 213Z" />
      </g>
    </svg>