<svg xmlns="http://www.w3.org/2000/svg" viewBox="64 0 399 384">
      <g transform="scale(1 -1) translate(0 -384)">
        <path d="M427 117Q388 117 351 129Q338 133 329 124L282 77Q237 100 201.0 136.0Q165 172 142 218L189 265Q198 274 194 286Q181 323 181 363Q181 372 175.0 378.0Q169 384 160 384H85Q76 384 70.0 378.0Q64 372 64 363Q64 291 91.5 224.0Q119 157 170.0 106.0Q221 55 288.0 27.5Q355 0 427 0Q436 0 442.0 6.0Q448 12 448 21V96Q448 105 442.0 111.0Q436 117 427 117ZM107 341H140Q142 313 149 286L124 260Q110 300 107 341ZM405 43Q364 45 324 59L350 85Q377 78 405 76ZM320 204 241 283 271 313 320 265 433 378 463 348Z" />
      </g>
    </svg>