<svg xmlns="http://www.w3.org/2000/svg" viewBox="64 0 384 405">
      <g transform="scale(1 -1) translate(0 -405)">
        <path d="M141 218Q164 173 200.5 136.5Q237 100 282 77L329 124Q338 133 351 129Q387 117 427 117Q435 117 441.5 111.0Q448 105 448 96V21Q448 13 441.5 6.5Q435 0 427 0Q328 0 244 50Q162 98 114 180Q64 264 64 363Q64 371 70.5 377.5Q77 384 85 384H160Q169 384 175.0 377.5Q181 371 181 363Q181 323 193 287Q197 274 188 265ZM352 405Q312 405 284.0 377.0Q256 349 256.0 309.0Q256 269 284.0 241.0Q312 213 352.0 213.0Q392 213 420.0 241.0Q448 269 448.0 309.0Q448 349 420.0 377.0Q392 405 352 405ZM352 245Q325 245 306.5 264.0Q288 283 288 309Q288 327 297 341L384 254Q370 245 352 245ZM407 277 320 364Q334 373 352 373Q379 373 397.5 354.5Q416 336 416 309Q416 291 407 277Z" />
      </g>
    </svg>