<svg xmlns="http://www.w3.org/2000/svg" viewBox="43 -21 448 448">
      <g transform="scale(1 -1) translate(0 -406)">
        <path d="M405 96Q364 96 329 109H322Q314 109 307 102L260 55Q215 80 178.0 116.0Q141 152 119 196L166 243Q171 248 172.5 254.0Q174 260 171 265Q160 304 160 341Q160 349 153.5 356.0Q147 363 139 363H64Q56 363 49.5 356.0Q43 349 43 341Q43 243 92 158Q140 76 222 28Q307 -21 405 -21Q413 -21 420.0 -14.5Q427 -8 427 0V75Q427 83 420.0 89.5Q413 96 405 96ZM85 320H117Q120 297 128 265L102 239Q88 281 85 320ZM384 21Q345 24 303 38L329 64Q363 55 384 55ZM341 256V288H267L384 405L363 427L245 309V384H213V256ZM363 320V288H437L320 171L341 149L459 267V192H491V320Z" />
      </g>
    </svg>