<svg xmlns="http://www.w3.org/2000/svg" viewBox="64 0 384 427">
      <g transform="scale(1 -1) translate(0 -427)">
        <path d="M410 363H337V373Q337 388 347.5 399.0Q358 410 373.0 410.0Q388 410 399.0 399.0Q410 388 410 373ZM427 363V373Q427 395 411.0 411.0Q395 427 373.0 427.0Q351 427 335.5 411.0Q320 395 320 373V363Q311 363 305.0 356.5Q299 350 299 341V256Q299 247 305.0 241.0Q311 235 320 235H427Q436 235 442.0 241.0Q448 247 448 256V341Q448 350 442.0 356.5Q436 363 427 363ZM427 117Q387 117 351 129Q338 133 329 124L282 77Q237 100 200.5 136.5Q164 173 141 218L188 265Q197 274 193 287Q181 323 181 363Q181 372 175.0 378.0Q169 384 160 384H85Q76 384 70.0 378.0Q64 372 64 363Q64 291 91.5 224.0Q119 157 170.0 106.0Q221 55 288.0 27.5Q355 0 427 0Q436 0 442.0 6.0Q448 12 448 21V96Q448 105 442.0 111.0Q436 117 427 117Z" />
      </g>
    </svg>