<svg xmlns="http://www.w3.org/2000/svg" viewBox="0 -21 512 405">
      <g transform="scale(1 -1) translate(0 -363)">
        <path d="M256 384Q185 384 119 357Q56 332 6 284Q0 278 0.0 269.0Q0 260 6 254L59 201Q65 195 74.0 195.0Q83 195 89 201Q114 224 146 240Q158 246 158 260V326Q205 341 256.0 341.0Q307 341 354 326V260Q354 254 357.5 248.5Q361 243 366 241Q395 226 423 201Q429 195 438.0 195.0Q447 195 453 201L506 254Q512 260 512.0 269.0Q512 278 506 284Q456 332 393 357Q327 384 256 384ZM192 299V235L172 217Q148 195 128 173Q100 143 84 118Q64 86 64 64V-21H448V64Q448 86 428 118Q412 143 384 173Q364 195 340 217L320 235V299H277V256H235V299ZM256 192Q291 192 316.0 167.0Q341 142 341.0 106.5Q341 71 316.0 46.0Q291 21 256.0 21.0Q221 21 196.0 46.0Q171 71 171.0 106.5Q171 142 196.0 167.0Q221 192 256 192ZM256 160Q234 160 218.5 144.5Q203 129 203.0 107.0Q203 85 218.5 69.0Q234 53 256.0 53.0Q278 53 293.5 69.0Q309 85 309.0 107.0Q309 129 293.5 144.5Q278 160 256 160Z" />
      </g>
    </svg>