<svg xmlns="http://www.w3.org/2000/svg" viewBox="64 0 384 384">
      <g transform="scale(1 -1) translate(0 -384)">
        <path d="M141 218Q164 173 200.5 136.5Q237 100 282 77L329 124Q338 133 351 129Q387 117 427 117Q435 117 441.5 111.0Q448 105 448 96V21Q448 13 441.5 6.5Q435 0 427 0Q328 0 244 50Q162 98 114 180Q64 264 64 363Q64 371 70.5 377.5Q77 384 85 384H160Q169 384 175.0 377.5Q181 371 181 363Q181 323 193 287Q197 274 188 265ZM363 299 400 336Q385 352 363.0 352.0Q341 352 325.0 336.5Q309 321 309.0 299.0Q309 277 325.0 261.0Q341 245 363 245Q376 245 387.0 251.0Q398 257 405 267H442Q432 243 410.5 228.0Q389 213 363 213Q327 213 302.0 238.0Q277 263 277.0 298.5Q277 334 302.0 359.0Q327 384 362.5 384.0Q398 384 423 359L448 384V299Z" />
      </g>
    </svg>