<svg xmlns="http://www.w3.org/2000/svg" viewBox="0 -53 512 437">
      <g transform="scale(1 -1) translate(0 -331)">
        <path d="M256 384Q327 384 393 357Q456 332 506 284Q512 278 512.0 269.0Q512 260 506 254L453 201Q447 195 438.0 195.0Q429 195 423 201Q395 226 366 241Q361 243 357.5 248.5Q354 254 354 260V326Q307 341 257.0 341.0Q207 341 160 327L127 360Q189 384 256 384ZM192 299H235V256H277V299H320V235L340 217Q364 195 384 173Q412 143 428 118Q448 86 448 64V39L192 295ZM21 357 49 384 459 -26 432 -53 400 -21H64V64Q64 94 101 142Q127 175 166 212L141 238Q112 222 89 201Q83 195 74.0 195.0Q65 195 59 201L6 254Q0 260 0.0 269.0Q0 278 6 284Q21 299 55 323ZM171 107Q171 71 196.0 46.0Q221 21 256 21Q276 21 294.0 30.0Q312 39 324 55L301 78Q293 66 281.5 59.5Q270 53 256 53Q234 53 218.5 69.0Q203 85 203 107Q203 121 209.5 132.5Q216 144 227 151L204 174Q188 162 179.5 144.5Q171 127 171 107Z" />
      </g>
    </svg>