<svg xmlns="http://www.w3.org/2000/svg" viewBox="43 -21 448 448">
      <g transform="scale(1 -1) translate(0 -406)">
        <path d="M427 75V0Q427 -9 420.5 -15.0Q414 -21 405 -21Q307 -21 222 28Q140 76 92 158Q43 243 43 341Q43 350 49.0 356.5Q55 363 64 363H139Q147 363 153.5 356.5Q160 350 160 341Q160 302 172 265Q176 252 167 244L120 197Q143 151 179.0 115.0Q215 79 260 56L307 103Q317 112 329 108Q366 96 405 96Q414 96 420.5 89.5Q427 83 427 75ZM341 288H267L384 405L363 427L245 309V384H213V256H341ZM363 320V288H437L320 171L341 149L459 267V192H491V320Z" />
      </g>
    </svg>