<svg xmlns="http://www.w3.org/2000/svg" viewBox="64 0 384 384">
      <g transform="scale(1 -1) translate(0 -384)">
        <path d="M85 384Q76 384 70.0 378.0Q64 372 64 363Q64 264 113 180Q161 97 244 49Q328 0 427 0Q436 0 442.0 6.0Q448 12 448 21V96Q448 106 442.0 111.5Q436 117 427 117Q385 117 350 130Q339 133 329 126L282 79Q238 101 201.5 137.5Q165 174 141 220L188 267Q193 272 194.0 277.5Q195 283 192 288Q181 327 181 363Q181 372 175.5 378.0Q170 384 160 384ZM407 373 363 329 318 373 288 343 333 299 288 254 318 224 363 269 407 224 437 254 393 299 437 343Z" />
      </g>
    </svg>