<svg xmlns="http://www.w3.org/2000/svg" viewBox="21 -43 470 470">
      <g transform="scale(1 -1) translate(0 -384)">
        <path d="M192 427H64Q46 427 33.5 414.5Q21 402 21 384V107Q21 89 33.5 76.5Q46 64 64 64H85V128H64V384H192V213H235V384Q235 402 222.5 414.5Q210 427 192 427ZM491 0V128Q491 146 478.5 158.5Q466 171 448 171H171Q153 171 140.5 158.5Q128 146 128 128V0Q128 -18 140.5 -30.5Q153 -43 171 -43H448Q466 -43 478.5 -30.5Q491 -18 491 0ZM192 0V128H448V0ZM491 235H459Q459 283 432.0 323.0Q405 363 361 382L341 341L299 427Q351 427 395.0 401.0Q439 375 465.0 331.0Q491 287 491 235Z" />
      </g>
    </svg>