<svg xmlns="http://www.w3.org/2000/svg" viewBox="53 -11 406 406">
      <g transform="scale(1 -1) translate(0 -384)">
        <path d="M431 395 53 17 80 -11 185 93Q234 48 297.0 24.0Q360 0 427 0Q436 0 442.0 6.0Q448 12 448 21V96Q448 105 442.0 111.0Q436 117 427 117Q387 117 351 129Q338 133 329 124L282 77Q246 95 215 124L459 368ZM85 384Q76 384 70.0 378.0Q64 372 64 363Q64 306 81.5 251.5Q99 197 133 151L163 181Q151 198 141 218L188 265Q197 274 193 287Q181 323 181 363Q181 372 175.0 378.0Q169 384 160 384Z" />
      </g>
    </svg>