<svg xmlns="http://www.w3.org/2000/svg" viewBox="64 0 384 427">
      <g transform="scale(1 -1) translate(0 -427)">
        <path d="M427 117Q387 117 351 129Q338 133 329 124L282 77Q237 100 200.5 136.5Q164 173 141 218L188 265Q197 274 193 287Q181 323 181 363Q181 372 175.0 378.0Q169 384 160 384H85Q76 384 70.0 378.0Q64 372 64 363Q64 291 91.5 224.0Q119 157 170.0 106.0Q221 55 288.0 27.5Q355 0 427 0Q436 0 442.0 6.0Q448 12 448 21V96Q448 105 442.0 111.0Q436 117 427 117ZM384 294 404 274 384 254ZM384 386 404 366 384 346ZM314 245 363 294V213H373L434 274L388 320L434 366L373 427H363V346L314 395L299 380L358 320L299 260Z" />
      </g>
    </svg>