<svg xmlns="http://www.w3.org/2000/svg" viewBox="64 0 384 384">
      <g transform="scale(1 -1) translate(0 -384)">
        <path d="M141 218Q163 174 199.5 137.5Q236 101 282 77L329 124Q333 129 339.0 130.0Q345 131 350 128Q385 115 427 115Q436 115 442.0 109.0Q448 103 448 94V21Q448 12 442.0 6.0Q436 0 427 0Q328 0 244 49Q161 97 113 180Q64 264 64 363Q64 372 70.5 378.0Q77 384 85 384H160Q170 384 175.5 378.0Q181 372 181 363Q181 324 194 286Q197 276 190 265ZM299 384Q289 384 283.0 378.0Q277 372 277.0 362.5Q277 353 283.0 347.0Q289 341 298.5 341.0Q308 341 314.0 347.0Q320 353 320.0 362.5Q320 372 314.0 378.0Q308 384 299 384ZM363 384Q353 384 347.0 378.0Q341 372 341.0 362.5Q341 353 347.0 347.0Q353 341 362.5 341.0Q372 341 378.0 347.0Q384 353 384.0 362.5Q384 372 378.0 378.0Q372 384 363 384ZM427 384Q417 384 411.0 378.0Q405 372 405.0 362.5Q405 353 411.0 347.0Q417 341 426.5 341.0Q436 341 442.0 347.0Q448 353 448.0 362.5Q448 372 442.0 378.0Q436 384 427 384ZM299 320Q289 320 283.0 314.0Q277 308 277.0 298.5Q277 289 283.0 283.0Q289 277 298.5 277.0Q308 277 314.0 283.0Q320 289 320.0 298.5Q320 308 314.0 314.0Q308 320 299 320ZM363 320Q353 320 347.0 314.0Q341 308 341.0 298.5Q341 289 347.0 283.0Q353 277 362.5 277.0Q372 277 378.0 283.0Q384 289 384.0 298.5Q384 308 378.0 314.0Q372 320 363 320ZM427 320Q417 320 411.0 314.0Q405 308 405.0 298.5Q405 289 411.0 283.0Q417 277 426.5 277.0Q436 277 442.0 283.0Q448 289 448.0 298.5Q448 308 442.0 314.0Q436 320 427 320ZM299 256Q289 256 283.0 250.0Q277 244 277.0 234.5Q277 225 283.0 219.0Q289 213 298.5 213.0Q308 213 314.0 219.0Q320 225 320.0 234.5Q320 244 314.0 250.0Q308 256 299 256ZM363 256Q353 256 347.0 250.0Q341 244 341.0 234.5Q341 225 347.0 219.0Q353 213 362.5 213.0Q372 213 378.0 219.0Q384 225 384.0 234.5Q384 244 378.0 250.0Q372 256 363 256ZM427 256Q417 256 411.0 250.0Q405 244 405.0 234.5Q405 225 411.0 219.0Q417 213 426.5 213.0Q436 213 442.0 219.0Q448 225 448.0 234.5Q448 244 442.0 250.0Q436 256 427 256Z" />
      </g>
    </svg>