<svg xmlns="http://www.w3.org/2000/svg" viewBox="64 0 384 416">
      <g transform="scale(1 -1) translate(0 -416)">
        <path d="M427 117Q385 117 350 130H343Q335 130 329 124L282 77Q236 101 199.5 137.5Q163 174 141 218L188 265Q193 269 194.0 275.0Q195 281 192 286Q181 325 181 363Q181 371 174.5 377.5Q168 384 160 384H85Q77 384 70.5 377.5Q64 371 64 363Q64 264 113 180Q161 97 244 49Q328 0 427 0Q435 0 441.5 6.5Q448 13 448 21V96Q448 104 441.5 110.5Q435 117 427 117ZM107 341H139Q141 318 149 286L124 260Q110 303 107 341ZM405 43Q367 46 324 60L350 85Q384 77 405 77ZM363 384V416L315 368L363 320V352Q385 352 400.5 336.5Q416 321 416 299Q416 286 410 275L434 252Q448 273 448 299Q448 334 423.0 359.0Q398 384 363 384ZM363 245Q341 245 325.0 261.0Q309 277 309 299Q309 311 315 323L292 346Q277 324 277 299Q277 263 302.0 238.0Q327 213 363 213V181L411 229L363 277Z" />
      </g>
    </svg>