<svg xmlns="http://www.w3.org/2000/svg" viewBox="0 -43 512 427">
      <g transform="scale(1 -1) translate(0 -341)">
        <path d="M277 85V43H299Q308 43 314.0 36.5Q320 30 320 21H469V-21H320Q320 -30 314.0 -36.5Q308 -43 299 -43H213Q204 -43 198.0 -36.5Q192 -30 192 -21H43V21H192Q192 30 198.0 36.5Q204 43 213 43H235V85ZM506 284Q512 278 512.0 269.0Q512 260 506 254L453 201Q447 195 438.0 195.0Q429 195 423 201Q395 226 366 241Q361 243 357.5 248.5Q354 254 354 260V326Q307 341 256.0 341.0Q205 341 158 326V260Q158 246 146 240Q114 224 89 201Q83 195 74.0 195.0Q65 195 59 201L6 254Q0 260 0.0 269.0Q0 278 6 284Q56 332 119 357Q185 384 256.0 384.0Q327 384 393 357Q456 332 506 284ZM235 235V128H213V235ZM256 235H320V171H277V128H256ZM299 192V213H277V192Z" />
      </g>
    </svg>