<svg xmlns="http://www.w3.org/2000/svg" viewBox="64 0 384 384">
      <g transform="scale(1 -1) translate(0 -384)">
        <path d="M427 117Q387 117 351 129Q347 131 344 131Q336 131 329 124L282 77Q236 101 200.0 137.0Q164 173 141 218L188 265Q197 274 193 287Q181 323 181 363Q181 371 175.0 377.5Q169 384 160 384H85Q77 384 70.5 377.5Q64 371 64 363Q64 264 114 180Q162 98 244 50Q328 0 427 0Q435 0 441.5 6.5Q448 13 448 21V96Q448 105 441.5 111.0Q435 117 427 117ZM107 341H139Q142 312 149 286L124 260Q110 300 107 341ZM405 43Q363 46 324 60L350 85Q377 77 405 76ZM256 384V171L320 235H448V384ZM405 277H299V341H405Z" />
      </g>
    </svg>