<svg xmlns="http://www.w3.org/2000/svg" viewBox="64 0 384 384">
      <g transform="scale(1 -1) translate(0 -384)">
        <path d="M427 117Q436 117 442.0 111.0Q448 105 448 96V21Q448 12 442.0 6.0Q436 0 427 0Q355 0 288.0 27.5Q221 55 170.0 106.0Q119 157 91.5 224.0Q64 291 64 363Q64 372 70.0 378.0Q76 384 85 384H160Q169 384 175.0 378.0Q181 372 181 363Q181 323 193 287Q197 274 188 265L141 218Q164 173 200.5 136.5Q237 100 282 77L329 124Q338 133 351 129Q387 117 427 117ZM256 384H299V341H256ZM320 384H448V341H320ZM256 320H299V277H256ZM320 320H448V277H320ZM256 256H299V213H256ZM320 256H448V213H320Z" />
      </g>
    </svg>