<svg xmlns="http://www.w3.org/2000/svg" viewBox="0 3 512 402">
      <g transform="scale(1 -1) translate(0 -408)">
        <path d="M506 92Q456 140 393 165Q327 192 256.0 192.0Q185 192 119 165Q56 140 6 92Q0 86 0.0 77.0Q0 68 6 62L59 9Q65 3 74.0 3.0Q83 3 89 9Q114 32 146 48Q158 54 158 68V134Q205 149 256.0 149.0Q307 149 354 134V68Q354 62 357.5 56.5Q361 51 366 49Q397 33 423 9Q429 3 438.0 3.0Q447 3 453 9L506 62Q512 68 512.0 77.0Q512 86 506 92ZM451 314 421 345 345 269 375 239 413 276Q450 314 451 314ZM277 405H235V299H277ZM137 239 167 269 91 345 61 314Q62 314 99 276Z" />
      </g>
    </svg>