<svg xmlns="http://www.w3.org/2000/svg" viewBox="64 0 384 416">
      <g transform="scale(1 -1) translate(0 -416)">
        <path d="M141 218Q164 173 200.5 136.5Q237 100 282 77L329 124Q338 133 351 129Q387 117 427 117Q435 117 441.5 111.0Q448 105 448 96V21Q448 13 441.5 6.5Q435 0 427 0Q328 0 244 50Q162 98 114 180Q64 264 64 363Q64 371 70.5 377.5Q77 384 85 384H160Q169 384 175.0 377.5Q181 371 181 363Q181 323 193 287Q197 274 188 265ZM363 384V416L315 368L363 320V352Q385 352 400.5 336.5Q416 321 416 299Q416 286 410 275L434 252Q448 273 448 299Q448 334 423.0 359.0Q398 384 363 384ZM363 245Q341 245 325.0 261.0Q309 277 309 299Q309 311 315 323L292 346Q277 324 277 299Q277 263 302.0 238.0Q327 213 363 213V181L411 229L363 277Z" />
      </g>
    </svg>