<svg xmlns="http://www.w3.org/2000/svg" viewBox="64 0 384 384">
      <g transform="scale(1 -1) translate(0 -384)">
        <path d="M107 384Q89 384 76.5 371.5Q64 359 64 341V43Q64 25 76.5 12.5Q89 0 107 0H405Q423 0 435.5 12.5Q448 25 448 43V341Q448 359 435.5 371.5Q423 384 405 384ZM128 299H363V256H320V149Q320 140 326.0 134.0Q332 128 341.0 128.0Q350 128 356.5 134.0Q363 140 363 149H405Q405 123 386.5 104.0Q368 85 341.5 85.0Q315 85 296.0 104.0Q277 123 277 149V256H213V85H171V256H128Z" />
      </g>
    </svg>