<svg xmlns="http://www.w3.org/2000/svg" viewBox="111 -23 292 428">
      <g transform="scale(1 -1) translate(0 -382)">
        <path d="M120 405Q181 405 214.5 371.5Q248 338 251 279Q258 320 281 341Q297 357 320 360Q332 362 340 361Q342 323 315 299Q290 276 251 274Q245 287 220 313Q202 331 177 354L155 374L159 369Q186 344 203 325Q233 291 231 274Q187 279 157 310Q123 345 120 405ZM129 168 212 251Q230 269 257.0 269.0Q284 269 302 251L384 168Q403 150 403.0 123.5Q403 97 384 78L302 -4Q284 -23 257.0 -23.0Q230 -23 212 -4L129 78Q111 97 111.0 123.5Q111 150 129 168ZM200 30Q200 53 214 69Q229 89 258 89Q271 89 298 77Q315 70 323 68Q337 64 348 65Q324 66 307.0 82.0Q290 98 290 124Q290 133 293 143Q295 149 301.0 162.0Q307 175 309 182Q313 195 313 206Q312 187 299 172Q282 154 256 154Q246 154 235 158Q229 160 215.0 166.0Q201 172 194 174Q180 179 168 179Q185 178 202 166Q224 149 224 121Q224 109 221 99Q219 93 213.0 80.5Q207 68 204 59Q200 46 200 30Z" />
      </g>
    </svg>