<svg xmlns="http://www.w3.org/2000/svg" viewBox="43 -21 426 426">
      <g transform="scale(1 -1) translate(0 -384)">
        <path d="M427 405H85Q68 405 55.5 392.5Q43 380 43 363V21Q43 4 55.5 -8.5Q68 -21 85 -21H427Q444 -21 456.5 -8.5Q469 4 469 21V363Q469 380 456.5 392.5Q444 405 427 405ZM314 149H320V21H192V149H199Q207 149 213.5 155.5Q220 162 220 171V363H293V171Q293 162 299.5 155.5Q306 149 314 149ZM85 363H145V171Q145 162 151.0 155.5Q157 149 166 149H171V21H85ZM427 21H341V149H347Q356 149 362.0 155.5Q368 162 368 171V363H427Z" />
      </g>
    </svg>