<svg xmlns="http://www.w3.org/2000/svg" viewBox="43 -21 426 448">
      <g transform="scale(1 -1) translate(0 -406)">
        <path d="M427 21Q382 21 341 50Q302 22 256.0 22.0Q210 22 171 50Q130 21 85 21H43V-21H85Q129 -21 171 0Q211 -21 256.0 -21.0Q301 -21 341 0Q383 -21 427 -21H469V21ZM427 363V384Q427 393 420.5 399.0Q414 405 405 405H192V427H128V405H107V363H128V171H107V213H64V171H43V128H64V43H85Q95 43 107 44V128H213V50Q234 44 256 44V128H277V171H256V213H213V171H192V363H363V264Q355 261 350.0 254.5Q345 248 345 240Q345 225 358 217V192H372Q377 192 381.0 188.0Q385 184 385.0 178.5Q385 173 381.0 169.5Q377 166 370.5 166.0Q364 166 360 172Q357 177 352.0 178.5Q347 180 342.5 177.0Q338 174 336.5 169.0Q335 164 337 159Q343 150 352.0 144.5Q361 139 372 139Q388 139 399.5 150.5Q411 162 411 179Q411 191 403.5 201.5Q396 212 385 216V217Q398 225 398.0 240.0Q398 255 384 262V363ZM171 199 149 178V208L171 230ZM171 262 149 241V271L171 292ZM149 305V335L171 356V326Z" />
      </g>
    </svg>