<svg xmlns="http://www.w3.org/2000/svg" viewBox="56 -21 399 423">
      <g transform="scale(1 -1) translate(0 -381)">
        <path d="M203 256Q189 256 180.0 246.5Q171 237 171.0 224.0Q171 211 180.0 201.5Q189 192 202.5 192.0Q216 192 225.5 201.5Q235 211 235.0 224.0Q235 237 225.5 246.5Q216 256 203 256ZM309 256Q296 256 286.5 246.5Q277 237 277.0 224.0Q277 211 286.5 201.5Q296 192 309.5 192.0Q323 192 332.0 201.5Q341 211 341.0 224.0Q341 237 332.0 246.5Q323 256 309 256ZM256 363 271 362Q285 375 303.0 384.5Q321 394 335 398Q356 403 382.5 402.0Q409 401 428 392Q450 382 455 366Q459 348 445.5 327.0Q432 306 406 291Q426 265 437.0 234.5Q448 204 448 171Q448 119 422.0 74.5Q396 30 352.0 4.5Q308 -21 256.0 -21.0Q204 -21 160.0 4.5Q116 30 90.0 74.5Q64 119 64 171Q64 204 75.0 234.5Q86 265 106 291Q80 306 66.5 327.0Q53 348 57 366Q62 382 84 392Q103 401 129.5 402.0Q156 403 177 398Q191 394 209.0 384.5Q227 375 241 362ZM213 107Q222 107 228.5 100.5Q235 94 235.0 85.0Q235 76 228.5 70.0Q222 64 213.0 64.0Q204 64 198.0 70.0Q192 76 192.0 85.0Q192 94 198.0 100.5Q204 107 213 107ZM299 107Q308 107 314.0 100.5Q320 94 320.0 85.0Q320 76 314.0 70.0Q308 64 299.0 64.0Q290 64 283.5 70.0Q277 76 277.0 85.0Q277 94 283.5 100.5Q290 107 299 107ZM256 171Q228 171 202 156Q179 144 164.0 123.5Q149 103 149.0 85.5Q149 68 163.5 53.5Q178 39 202.5 30.0Q227 21 256.0 21.0Q285 21 309.5 30.0Q334 39 348.5 53.5Q363 68 363.0 85.5Q363 103 348.0 123.5Q333 144 310 156Q284 171 256 171ZM166 357Q160 358 128 357L98 355L123 336Q149 317 154 315Q165 313 185 314Q209 315 211.5 322.5Q214 330 193 343Q176 354 166 357ZM346 357Q336 354 319 343Q298 330 300.5 322.5Q303 315 327 314Q347 313 358 315Q363 317 389 336L414 355L384 357Q352 358 346 357Z" />
      </g>
    </svg>