<svg xmlns="http://www.w3.org/2000/svg" viewBox="43 0 426 405">
      <g transform="scale(1 -1) translate(0 -405)">
        <path d="M423 288 375 336Q377 350 381 361Q384 367 384 373Q384 387 374.5 396.0Q365 405 352 405Q326 405 304.0 393.5Q282 382 267 363H160Q128 363 101.0 347.0Q74 331 58.5 304.0Q43 277 43 245Q43 205 69 98Q83 45 96 0H213V43H256V0H373L409 119L469 139V288ZM277 256H171V299H277ZM341 213Q333 213 326.5 219.5Q320 226 320.0 234.5Q320 243 326.5 249.5Q333 256 341.5 256.0Q350 256 356.5 249.5Q363 243 363.0 234.5Q363 226 356.5 219.5Q350 213 341 213Z" />
      </g>
    </svg>