<svg xmlns="http://www.w3.org/2000/svg" viewBox="24 -37 448 448">
      <g transform="scale(1 -1) translate(0 -374)">
        <path d="M472 -10 51 411 24 384 145 262 90 207Q65 182 56.5 149.5Q48 117 56.5 84.0Q65 51 90.0 26.0Q115 1 147.5 -7.5Q180 -16 213.0 -7.5Q246 1 271 26L326 81L445 -37ZM98 95Q92 116 98.0 138.0Q104 160 120 177L176 232L206 202ZM230 286 200 317 241 358Q266 383 298.5 391.5Q331 400 364.0 391.5Q397 383 422.0 358.0Q447 333 455.5 300.5Q464 268 455.5 235.0Q447 202 422 177L381 135L351 166L392 207Q417 232 417.0 267.5Q417 303 392.0 328.0Q367 353 331.5 353.0Q296 353 271 328Z" />
      </g>
    </svg>