<svg xmlns="http://www.w3.org/2000/svg" viewBox="52 -11 407 407">
      <g transform="scale(1 -1) translate(0 -385)">
        <path d="M90 207 241 358Q266 383 298.5 391.5Q331 400 364.0 391.5Q397 383 422.0 358.0Q447 333 455.5 300.5Q464 268 455.5 235.0Q447 202 422 177L271 26Q246 1 213.0 -7.5Q180 -16 147.5 -7.5Q115 1 90.0 26.0Q65 51 56.5 84.0Q48 117 56.5 149.5Q65 182 90 207ZM120 177Q104 160 98.0 138.0Q92 116 98 95L226 222L316 132L392 207Q417 232 417.0 267.5Q417 303 392.0 328.0Q367 353 331.5 353.0Q296 353 271 328Z" />
      </g>
    </svg>