<svg xmlns="http://www.w3.org/2000/svg" viewBox="43 -21 426 426">
      <g transform="scale(1 -1) translate(0 -384)">
        <path d="M193 -12Q225 -21 256 -21Q298 -21 337.5 -5.0Q377 11 407.0 41.0Q437 71 453.0 110.5Q469 150 469.0 192.0Q469 234 453.0 273.5Q437 313 407.0 343.0Q377 373 337.5 389.0Q298 405 256.0 405.0Q214 405 174.5 389.0Q135 373 105.0 343.0Q75 313 59.0 273.5Q43 234 43 192Q43 125 81.0 70.5Q119 16 180 -7Q175 33 180 56L205 161L201 170Q198 181 198 193Q198 215 210.0 230.0Q222 245 238 245Q251 245 258.0 236.5Q265 228 265.0 215.0Q265 202 255 172Q248 154 246 144Q243 128 253.0 116.5Q263 105 279 105Q307 105 326.5 132.5Q346 160 346 203Q346 241 321.0 265.0Q296 289 257 289Q213 289 186 261Q161 234 161 197Q161 183 165.0 170.0Q169 157 177 148Q179 146 178 142L172 118Q172 116 170.5 115.0Q169 114 166 116Q146 125 134 150Q123 173 123 198Q123 233 139.0 262.5Q155 292 186 308Q219 327 263 327Q299 327 329.0 311.0Q359 295 376.0 267.0Q393 239 393.0 203.5Q393 168 379.0 137.5Q365 107 340.0 89.5Q315 72 283 72Q268 72 254.0 79.0Q240 86 235 96L220 45Q214 22 193 -12Z" />
      </g>
    </svg>