<svg xmlns="http://www.w3.org/2000/svg" viewBox="21 -43 470 470">
      <g transform="scale(1 -1) translate(0 -384)">
        <path d="M256 192Q256 223 272.0 250.0Q288 277 315.0 293.0Q342 309 373.5 309.0Q405 309 432.0 293.0Q459 277 475.0 250.0Q491 223 491 192ZM256 192Q256 161 240.0 134.0Q224 107 197.0 91.0Q170 75 138.5 75.0Q107 75 80.0 91.0Q53 107 37.0 134.0Q21 161 21 192ZM256 192Q225 192 198.0 208.0Q171 224 155.0 251.0Q139 278 139.0 309.5Q139 341 155.0 368.0Q171 395 198.0 411.0Q225 427 256 427ZM256 192Q287 192 314.0 176.0Q341 160 357.0 133.0Q373 106 373.0 74.5Q373 43 357.0 16.0Q341 -11 314.0 -27.0Q287 -43 256 -43Z" />
      </g>
    </svg>