<svg xmlns="http://www.w3.org/2000/svg" viewBox="21 -43 470 470">
      <g transform="scale(1 -1) translate(0 -384)">
        <path d="M256 -43H235V97Q217 82 195.0 73.0Q173 64 149 64Q115 64 85.5 81.5Q56 99 38.5 128.5Q21 158 21 192V213H161Q146 231 137.0 253.0Q128 275 128 299Q128 333 145.5 362.5Q163 392 192.5 409.5Q222 427 256 427H277V287Q295 302 317.0 311.0Q339 320 363 320Q397 320 426.5 302.5Q456 285 473.5 255.5Q491 226 491 192V171H351Q366 153 375.0 131.0Q384 109 384 85Q384 51 366.5 21.5Q349 -8 319.5 -25.5Q290 -43 256 -43ZM277 168V3Q305 10 323.0 33.0Q341 56 341.0 85.0Q341 114 323.0 137.0Q305 160 277 168ZM67 171Q74 143 97.0 125.0Q120 107 149.0 107.0Q178 107 201.0 125.0Q224 143 232 171ZM280 213H445Q438 241 414.5 259.0Q391 277 362.5 277.0Q334 277 311.0 259.0Q288 241 280 213ZM235 381Q207 374 189.0 350.5Q171 327 171.0 298.5Q171 270 189.0 247.0Q207 224 235 216Z" />
      </g>
    </svg>