<svg xmlns="http://www.w3.org/2000/svg" viewBox="43 -21 426 426">
      <g transform="scale(1 -1) translate(0 -384)">
        <path d="M469 171V0H427V43H354Q341 14 314.5 -3.5Q288 -21 256.0 -21.0Q224 -21 197.5 -3.5Q171 14 158 43H85V0H43V171H85V128H159Q175 166 213 183V213H171V256H341V213H299V183Q337 166 353 128H427V171ZM363 405H149Q141 405 134.5 399.0Q128 393 128.0 384.0Q128 375 134.5 369.0Q141 363 149 363H213V341H235V277H277V341H299V363H363Q371 363 377.5 369.0Q384 375 384.0 384.0Q384 393 377.5 399.0Q371 405 363 405Z" />
      </g>
    </svg>