<svg xmlns="http://www.w3.org/2000/svg" viewBox="21 -45 470 472">
      <g transform="scale(1 -1) translate(0 -382)">
        <path d="M175 190Q170 187 167.5 181.0Q165 175 166 171Q166 160 175.0 152.5Q184 145 194.0 145.0Q204 145 212.0 152.5Q220 160 220 171Q201 183 175 190ZM469 213 491 299 477 300Q460 303 440 311Q412 322 384 341Q360 358 332 388Q312 409 301 416Q283 427 256.0 427.0Q229 427 211 416Q200 409 180 388Q152 358 128 341Q100 322 72 311Q52 303 35 300L21 299L43 213H45Q43 207 43 192Q43 137 69.0 89.5Q95 42 139 13L128 -6Q166 -31 207 -40Q242 -48 277 -44Q305 -41 333 -32Q353 -25 370 -15L384 -6L373 13Q417 42 443.0 89.5Q469 137 469 192ZM241 352 211 382 226 397 256 367 286 397 301 382 271 352 301 322 286 307 256 337 226 307 211 322ZM198 267Q234 277 256 277Q285 277 338 259Q367 249 417 228L422 226Q425 220 425 207ZM290 41Q265 26 243 23Q235 30 235.0 40.5Q235 51 242.5 58.0Q250 65 262.0 66.0Q274 67 282 60Q286 58 288.0 52.5Q290 47 290 41ZM427 162Q419 129 399.0 100.0Q379 71 352 51L320 107H192L160 51Q126 74 105.5 111.0Q85 148 85 192Q85 203 90 224L128 241L279 201V149Q279 141 285.5 134.5Q292 128 301 128H343Q352 128 358.5 134.0Q365 140 365 149V179Z" />
      </g>
    </svg>