<svg xmlns="http://www.w3.org/2000/svg" viewBox="149 -21 214 426">
      <g transform="scale(1 -1) translate(0 -384)">
        <path d="M277 103Q293 98 304 85H320V0H303Q292 -12 277 -17Q259 -24 240.5 -19.0Q222 -14 209 0H192V85H208Q219 98 235 103V192H277ZM256 21Q265 21 271.0 27.5Q277 34 277.0 43.0Q277 52 271.0 58.0Q265 64 256.0 64.0Q247 64 241.0 58.0Q235 52 235.0 43.0Q235 34 241.0 27.5Q247 21 256 21ZM363 363H320V341H363V213H149V341H192V363H149V405H363ZM256 256Q265 256 271.0 262.0Q277 268 277.0 277.0Q277 286 271.0 292.5Q265 299 256.0 299.0Q247 299 241.0 292.5Q235 286 235.0 277.0Q235 268 241.0 262.0Q247 256 256 256Z" />
      </g>
    </svg>