<svg xmlns="http://www.w3.org/2000/svg" viewBox="21 -43 470 470">
      <g transform="scale(1 -1) translate(0 -384)">
        <path d="M460 178Q458 184 452.5 188.0Q447 192 439 192H286Q279 192 273.5 188.0Q268 184 265 178L235 90V-27Q235 -33 239.5 -38.0Q244 -43 250 -43H263Q269 -43 273.0 -38.0Q277 -33 277 -26V0H448V-26Q448 -33 452.5 -38.0Q457 -43 463 -43H476Q482 -43 486.5 -38.0Q491 -33 491 -27V90ZM286 171H439L461 107H264ZM277 43Q269 43 262.5 49.0Q256 55 256.0 64.0Q256 73 262.5 79.0Q269 85 277.5 85.0Q286 85 292.5 79.0Q299 73 299.0 64.0Q299 55 292.5 49.0Q286 43 277 43ZM448 43Q439 43 433.0 49.0Q427 55 427.0 64.0Q427 73 433.0 79.0Q439 85 448.0 85.0Q457 85 463.0 79.0Q469 73 469.0 64.0Q469 55 463.0 49.0Q457 43 448 43ZM142 138 149 85 127 63 89 131 21 168 44 191 97 183 180 266 21 349 52 380 248 334 331 417Q340 427 353.5 427.0Q367 427 376.0 417.5Q385 408 385.0 394.5Q385 381 376 372L293 289L310 213H286Q272 213 261.0 205.5Q250 198 245 185V184L225 221Z" />
      </g>
    </svg>