<svg xmlns="http://www.w3.org/2000/svg" viewBox="21 -43 470 470">
      <g transform="scale(1 -1) translate(0 -384)">
        <path d="M427 277H299Q272 277 253.5 258.5Q235 240 235 213V64Q235 37 253.5 18.5Q272 0 299 0L277 -21V-43H299L341 1H384L427 -43H448V-21L427 0Q453 0 472.0 18.5Q491 37 491 64V213Q491 240 472.0 258.5Q453 277 427 277ZM299 43Q290 43 283.5 49.0Q277 55 277.0 64.0Q277 73 283.5 79.0Q290 85 298.5 85.0Q307 85 313.5 79.0Q320 73 320.0 64.0Q320 55 313.5 49.0Q307 43 299 43ZM427 43Q418 43 411.5 49.0Q405 55 405.0 64.0Q405 73 411.5 79.0Q418 85 426.5 85.0Q435 85 441.5 79.0Q448 73 448.0 64.0Q448 55 441.5 49.0Q435 43 427 43ZM448 107H277V235H448ZM142 138 149 85 127 63 89 131 21 168 44 191 97 183 180 266 21 349 52 380 248 334 331 417Q340 427 353.5 427.0Q367 427 376.0 417.5Q385 408 385.0 394.5Q385 381 376 372L303 299H299Q263 299 238.0 274.0Q213 249 213 213V209Z" />
      </g>
    </svg>