<svg xmlns="http://www.w3.org/2000/svg" viewBox="64 21 405 299">
      <g transform="scale(1 -1) translate(0 -341)">
        <path d="M320 320V277H64V320ZM320 235V192H64V235ZM64 107V149H235V107ZM363 320H469V277H405V85Q405 59 386.5 40.0Q368 21 341.5 21.0Q315 21 296.0 40.0Q277 59 277.0 85.5Q277 112 296.0 130.5Q315 149 341 149Q352 149 363 145ZM341 107Q332 107 326.0 100.5Q320 94 320.0 85.0Q320 76 326.0 70.0Q332 64 341.0 64.0Q350 64 356.5 70.0Q363 76 363.0 85.0Q363 94 356.5 100.5Q350 107 341 107Z" />
      </g>
    </svg>