<svg xmlns="http://www.w3.org/2000/svg" viewBox="43 -21 448 405">
      <g transform="scale(1 -1) translate(0 -363)">
        <path d="M491 79V4Q491 -6 482.5 -13.5Q474 -21 463 -21H346Q336 -21 328.0 -13.0Q320 -5 320 6V81Q320 91 328.0 99.0Q336 107 346 107V139Q346 161 364.0 176.5Q382 192 405.0 192.0Q428 192 446.5 176.5Q465 161 465 139V107Q475 107 483.0 98.5Q491 90 491 79ZM437 139Q437 151 428.0 158.5Q419 166 405.5 166.0Q392 166 382.5 158.5Q373 151 373 139V107H437ZM384 341H85V43H277V0H85Q68 0 55.5 12.5Q43 25 43 43V341Q43 359 55.5 371.5Q68 384 85 384H384Q402 384 414.5 371.5Q427 359 427 341V233L405 235L384 233ZM192 277 299 192 192 107Z" />
      </g>
    </svg>