<svg xmlns="http://www.w3.org/2000/svg" viewBox="43 -21 448 405">
      <g transform="scale(1 -1) translate(0 -363)">
        <path d="M491 79V4Q491 -6 482.5 -13.5Q474 -21 463 -21H346Q336 -21 328.0 -13.0Q320 -5 320 6V81Q320 91 328.0 99.0Q336 107 346 107V160Q346 182 364.0 197.5Q382 213 405.0 213.0Q428 213 446.5 197.5Q465 182 465 160V149H437V160Q437 172 428.0 180.0Q419 188 405.5 188.0Q392 188 382.5 180.0Q373 172 373 160V107H465Q475 107 483.0 98.5Q491 90 491 79ZM192 277V107L299 192ZM277 43V0H85Q68 0 55.5 12.5Q43 25 43 43V341Q43 359 55.5 371.5Q68 384 85 384H384Q402 384 414.5 371.5Q427 359 427 341V254L405 256Q376 256 351.5 241.5Q327 227 313.0 202.5Q299 178 299 149V133Q277 114 277 85Z" />
      </g>
    </svg>