<svg xmlns="http://www.w3.org/2000/svg" viewBox="43 -24 429 429">
      <g transform="scale(1 -1) translate(0 -381)">
        <path d="M201 188Q216 168 231 149Q266 105 294 77Q311 60 342 38L348 34Q361 26 363.0 11.0Q365 -4 354 -15Q347 -22 337.5 -24.0Q328 -26 320 -21Q287 -5 250 30Q222 58 186 102L156 141ZM260 247Q280 232 299 217Q343 182 371 154Q388 137 410 106L414 100Q422 87 437.0 85.0Q452 83 463 94Q470 101 472.0 110.5Q474 120 469 128Q453 161 418 198Q390 226 346 262L307 292ZM222 331 162 390 87 405 77 395 126 346Q144 349 156 337Q165 327 165.0 314.5Q165 302 155.5 292.5Q146 283 133.5 283.0Q121 283 111 292Q105 298 103.0 307.0Q101 316 102 324L53 371L43 361L58 286L117 226L147 166L188 207L166 245L201 279L241 260L282 301Z" />
      </g>
    </svg>