<svg xmlns="http://www.w3.org/2000/svg" viewBox="107 -43 362 384">
      <g transform="scale(1 -1) translate(0 -298)">
        <path d="M235 341V213H107V171H235V43H277V171H405V213H277V341ZM405 128Q388 128 374.5 116.5Q361 105 361 89V50Q353 50 347.0 44.5Q341 39 341 32V-22Q341 -30 347.0 -36.5Q353 -43 361 -43H449Q457 -43 463.0 -37.0Q469 -31 469 -24V30Q469 38 463.0 44.0Q457 50 450 50H381V89Q381 98 388.0 103.5Q395 109 405.0 109.0Q415 109 422.0 103.5Q429 98 429 89V81H450V89Q450 105 436.5 116.5Q423 128 405 128Z" />
      </g>
    </svg>