<svg xmlns="http://www.w3.org/2000/svg" viewBox="107 -43 362 384">
      <g transform="scale(1 -1) translate(0 -298)">
        <path d="M451 71V81Q451 100 437.5 114.0Q424 128 405.0 128.0Q386 128 373.0 114.0Q360 100 360 81V71Q351 71 346.0 66.0Q341 61 341 52V-24Q341 -32 346.0 -37.5Q351 -43 360 -43H451Q459 -43 464.0 -37.5Q469 -32 469 -24V52Q469 61 464.0 66.0Q459 71 451 71ZM433 71H378V81Q378 92 386.0 100.5Q394 109 405.0 109.0Q416 109 424.5 100.5Q433 92 433 81ZM235 341V213H107V171H235V43H277V171H405V213H277V341Z" />
      </g>
    </svg>