<svg xmlns="http://www.w3.org/2000/svg" viewBox="64 -21 384 426">
      <g transform="scale(1 -1) translate(0 -384)">
        <path d="M427 341Q417 341 411.0 334.5Q405 328 405 318V107Q405 97 411.0 91.0Q417 85 426.5 84.0Q436 83 442.0 90.0Q448 97 448 107V318Q448 328 442.0 334.5Q436 341 427 341ZM350 405H98Q84 405 74.0 395.5Q64 386 64 371V77Q64 62 74.0 52.5Q84 43 98 43H128V0Q128 -10 134.0 -15.5Q140 -21 149 -21H277Q287 -21 293.0 -15.5Q299 -10 299 0V43H350Q364 43 374.0 52.5Q384 62 384 77V371Q384 386 374.0 395.5Q364 405 350 405ZM107 277H171V235H107ZM256 213V171H192V213ZM192 235V277H256V235ZM256 149V107H192V149ZM107 213H171V171H107ZM107 107V149H171V107ZM171 0H149V43H171ZM277 0H213V43H277ZM341 107H277V149H341ZM341 171H277V213H341ZM341 235H277V277H341ZM341 320H107V363H341Z" />
      </g>
    </svg>