<svg xmlns="http://www.w3.org/2000/svg" viewBox="21 -43 470 470">
      <g transform="scale(1 -1) translate(0 -384)">
        <path d="M491 192Q491 128 459.5 74.0Q428 20 374.0 -11.5Q320 -43 256.0 -43.0Q192 -43 138.0 -11.5Q84 20 52.5 74.0Q21 128 21.0 192.0Q21 256 52.5 310.0Q84 364 138.0 395.5Q192 427 256.0 427.0Q320 427 374.0 395.5Q428 364 459.5 310.0Q491 256 491 192ZM277 361Q311 357 341.0 340.0Q371 323 392 295L429 317Q402 354 362.5 377.5Q323 401 277 405ZM83 317 120 295Q141 323 171.0 340.0Q201 357 235 361V405Q189 401 149.5 377.5Q110 354 83 317ZM62 105 99 126Q85 158 85.0 192.0Q85 226 99 258L62 279Q43 238 43.0 192.0Q43 146 62 105ZM235 23Q201 27 171.0 44.0Q141 61 120 89L83 67Q110 30 149.5 6.5Q189 -17 235 -21ZM429 67 392 89Q371 61 341.0 44.0Q311 27 277 23V-20Q323 -15 362.5 7.5Q402 30 429 67ZM450 105Q469 146 469.0 192.0Q469 238 450 279L413 258Q427 226 427.0 192.0Q427 158 413 126ZM320 192 256 299 192 192 256 85Z" />
      </g>
    </svg>