<svg xmlns="http://www.w3.org/2000/svg" viewBox="43 -21 426 426">
      <g transform="scale(1 -1) translate(0 -384)">
        <path d="M256 405Q298 405 337.5 389.0Q377 373 407.0 343.0Q437 313 453.0 273.5Q469 234 469.0 192.0Q469 150 453.0 110.5Q437 71 407.0 41.0Q377 11 337.5 -5.0Q298 -21 256.0 -21.0Q214 -21 174.5 -5.0Q135 11 105.0 41.0Q75 71 59.0 110.5Q43 150 43.0 192.0Q43 234 59.0 273.5Q75 313 105.0 343.0Q135 373 174.5 389.0Q214 405 256 405ZM256 363Q213 363 176.0 343.0Q139 323 115.5 289.0Q92 255 87 213H173Q181 241 203.5 259.0Q226 277 256.0 277.0Q286 277 308.5 259.0Q331 241 339 213H425Q420 255 396.5 289.0Q373 323 336.0 343.0Q299 363 256 363ZM256 21Q299 21 336.0 41.0Q373 61 396.5 95.0Q420 129 425 171H339Q331 143 308.5 125.0Q286 107 256.0 107.0Q226 107 203.5 125.0Q181 143 173 171H87Q92 129 115.5 95.0Q139 61 176.0 41.0Q213 21 256 21ZM256 235Q238 235 225.5 222.5Q213 210 213.0 192.0Q213 174 225.5 161.5Q238 149 256.0 149.0Q274 149 286.5 161.5Q299 174 299.0 192.0Q299 210 286.5 222.5Q274 235 256 235Z" />
      </g>
    </svg>