<svg xmlns="http://www.w3.org/2000/svg" viewBox="107 -26 298 431">
      <g transform="scale(1 -1) translate(0 -379)">
        <path d="M256 405Q297 405 331.0 385.0Q365 365 385.0 331.0Q405 297 405 256Q405 212 381 175L256 -26L131 175Q107 212 107 256Q107 297 127.0 331.0Q147 365 181.0 385.0Q215 405 256 405ZM256 373Q213 373 180.5 346.0Q148 319 141 277H196Q202 296 218.5 308.0Q235 320 256.0 320.0Q277 320 293.5 308.0Q310 296 316 277H371Q364 319 331.5 346.0Q299 373 256 373ZM256 192Q235 192 218.5 204.0Q202 216 196 235H141Q145 212 157 194V192Q173 168 199.5 153.5Q226 139 256.0 139.0Q286 139 312.5 153.5Q339 168 355 192V194Q367 212 371 235H316Q310 216 293.5 204.0Q277 192 256 192ZM256 288Q243 288 233.5 278.5Q224 269 224.0 256.0Q224 243 233.5 233.5Q243 224 256.0 224.0Q269 224 278.5 233.5Q288 243 288.0 256.0Q288 269 278.5 278.5Q269 288 256 288Z" />
      </g>
    </svg>