<svg xmlns="http://www.w3.org/2000/svg" viewBox="43 -21 426 426">
      <g transform="scale(1 -1) translate(0 -384)">
        <path d="M256 235Q267 238 278 240Q303 248 319 257Q341 271 341 286Q341 294 332.5 320.0Q324 346 324.0 355.5Q324 365 333 378Q337 384 341 388L324 405Q309 397 290.5 397.0Q272 397 256 405Q240 397 221.5 397.0Q203 397 188 405L171 388L179 378Q188 365 188.0 355.5Q188 346 179.5 320.0Q171 294 171 286Q171 265 213 247Q235 239 256 235ZM244 335 256 363 268 335 299 332 275 312 282 282 256 298 230 282 237 312 213 332ZM448 320H355Q363 297 363 286Q363 255 320 234Q296 221 260 213H252Q216 221 192 234Q149 255 149 286Q149 297 157 320H64Q55 320 49.0 313.5Q43 307 43 299V-21H213V85H299V-21H469V299Q469 307 463.0 313.5Q457 320 448 320ZM171 21H85V85H171ZM171 128H85V192H171ZM299 128H213V192H299ZM427 21H341V85H427ZM427 128H341V192H427Z" />
      </g>
    </svg>