<svg xmlns="http://www.w3.org/2000/svg" viewBox="41 0 428 405">
      <g transform="scale(1 -1) translate(0 -405)">
        <path d="M405 320Q388 320 375.5 307.5Q363 295 363 277V132Q341 111 341.0 84.5Q341 58 359.5 39.5Q378 21 405.5 21.0Q433 21 451.0 39.5Q469 58 469 85Q469 99 463.5 111.5Q458 124 448 132V277Q448 295 435.5 307.5Q423 320 405 320ZM405 299Q414 299 420.5 293.0Q427 287 427 277V256H384V277Q384 287 390.5 293.0Q397 299 405 299ZM320 15Q286 0 262 0Q247 0 228 7Q216 10 192.0 21.0Q168 32 156 36Q136 43 119 43Q89 43 41 28V70Q89 85 122 85Q137 85 156 79Q168 75 192.0 64.5Q216 54 228 49Q248 43 265 43Q289 43 322 58V15ZM262 85Q286 85 320 100V143Q301 135 277 128V341Q277 351 283.0 357.0Q289 363 299 363H358Q352 382 335.5 393.5Q319 405 299 405Q271 405 253.0 387.0Q235 369 235 341V320H128V341Q128 351 134.0 357.0Q140 363 149 363H209Q203 382 186.5 393.5Q170 405 149 405Q122 405 103.5 387.0Q85 369 85 341V166Q66 164 43 154V111Q84 128 122 128Q137 128 157 121Q169 117 192.0 106.5Q215 96 227 92Q247 85 262 85ZM128 277H235V235H128ZM128 192H235V132Q220 137 191 149Q170 159 160 163Q142 169 128 171Z" />
      </g>
    </svg>