<svg xmlns="http://www.w3.org/2000/svg" viewBox="43 -21 426 426">
      <g transform="scale(1 -1) translate(0 -384)">
        <path d="M43 405V331Q60 331 72.5 315.0Q85 299 85.0 277.0Q85 255 72.5 239.5Q60 224 43 224V160Q60 160 72.5 144.5Q85 129 85.0 107.0Q85 85 72.5 69.0Q60 53 43 53V-21H117Q117 -4 133.0 8.5Q149 21 171.0 21.0Q193 21 208.5 8.5Q224 -4 224 -21H288Q288 -4 303.5 8.5Q319 21 341.0 21.0Q363 21 379.0 8.5Q395 -4 395 -21H469V53Q452 53 439.5 69.0Q427 85 427 107Q427 129 439.5 144.5Q452 160 469 160V224Q452 224 439.5 239.5Q427 255 427 277Q427 299 439.5 315.0Q452 331 469 331V405H395Q395 388 379.0 375.5Q363 363 341.0 363.0Q319 363 303.5 375.5Q288 388 288 405H224Q224 388 208.5 375.5Q193 363 171.0 363.0Q149 363 133.0 375.5Q117 388 117 405ZM128 320H384V64H128ZM192 299Q174 299 161.5 286.5Q149 274 149.0 256.0Q149 238 161.5 225.5Q174 213 192.0 213.0Q210 213 222.5 225.5Q235 238 235.0 256.0Q235 274 222.5 286.5Q210 299 192 299ZM363 235 299 171 256 192 149 85H363Z" />
      </g>
    </svg>