<svg xmlns="http://www.w3.org/2000/svg" viewBox="64 0 384 416">
      <g transform="scale(1 -1) translate(0 -416)">
        <path d="M405 43Q405 25 392.5 12.5Q380 0 363 0H149Q132 0 119.5 12.5Q107 25 107 43V192H64V235H448V192H405ZM171 416Q141 416 120.0 395.0Q99 374 99.0 344.5Q99 315 120.0 294.0Q141 273 171 273H203Q216 273 226 267H269Q260 284 242.0 294.0Q224 304 203 304H171Q155 304 143.0 317.0Q131 330 131.0 346.5Q131 363 142.5 373.5Q154 384 171 384ZM274 405Q274 389 262.5 377.5Q251 366 235 366V334Q265 334 288.0 315.0Q311 296 318 267H350Q346 296 328.5 319.0Q311 342 285 355Q306 376 306 405Z" />
      </g>
    </svg>