<svg xmlns="http://www.w3.org/2000/svg" viewBox="64 0 384 384">
      <g transform="scale(1 -1) translate(0 -384)">
        <path d="M405 43H107V341H405ZM405 384H107Q89 384 76.5 371.5Q64 359 64 341V43Q64 25 76.5 12.5Q89 0 107 0H405Q423 0 435.5 12.5Q448 25 448 43V341Q448 359 435.5 371.5Q423 384 405 384ZM149 256H199L205 320H248L241 256H284L291 320H333L327 256H363V213H322L318 171H363V128H313L307 64H264L271 128H228L221 64H179L185 128H149V171H190L194 213H149ZM237 213 233 171H275L279 213Z" />
      </g>
    </svg>