<svg xmlns="http://www.w3.org/2000/svg" viewBox="43 -21 426 426">
      <g transform="scale(1 -1) translate(0 -384)">
        <path d="M90 405Q70 405 56.5 391.5Q43 378 43 358V26Q43 7 57.0 -7.0Q71 -21 90 -21H422Q442 -21 455.5 -7.5Q469 6 469 26V358Q469 377 455.0 391.0Q441 405 422 405ZM256 363Q302 363 341.5 340.0Q381 317 404.0 277.5Q427 238 427.0 192.0Q427 146 404.0 106.5Q381 67 341.5 44.0Q302 21 256.0 21.0Q210 21 170.5 44.0Q131 67 108.0 106.5Q85 146 85.0 192.0Q85 238 108.0 277.5Q131 317 170.5 340.0Q210 363 256 363ZM256 320Q243 320 233.5 310.5Q224 301 224.0 288.0Q224 275 233.5 265.5Q243 256 256.0 256.0Q269 256 278.5 265.5Q288 275 288.0 288.0Q288 301 278.5 310.5Q269 320 256 320ZM160 224Q147 224 137.5 214.5Q128 205 128.0 192.0Q128 179 137.5 169.5Q147 160 160.0 160.0Q173 160 182.5 169.5Q192 179 192.0 192.0Q192 205 182.5 214.5Q173 224 160 224ZM352 224Q339 224 329.5 214.5Q320 205 320.0 192.0Q320 179 329.5 169.5Q339 160 352.0 160.0Q365 160 374.5 169.5Q384 179 384.0 192.0Q384 205 374.5 214.5Q365 224 352 224Z" />
      </g>
    </svg>