<svg xmlns="http://www.w3.org/2000/svg" viewBox="43 -21 426 426">
      <g transform="scale(1 -1) translate(0 -384)">
        <path d="M90 405Q70 405 56.5 391.5Q43 378 43 358V26Q43 7 57.0 -7.0Q71 -21 90 -21H422Q442 -21 455.5 -7.5Q469 6 469 26V358Q469 377 455.0 391.0Q441 405 422 405ZM235 361V320H277V361Q319 356 353.5 332.0Q388 308 407.5 271.0Q427 234 427.0 192.0Q427 150 407.5 113.0Q388 76 353.5 52.0Q319 28 277 23V64H235V23Q193 28 158.5 52.0Q124 76 104.5 113.0Q85 150 85.0 192.0Q85 234 104.5 271.0Q124 308 158.5 332.0Q193 356 235 361ZM160 224Q147 224 137.5 214.5Q128 205 128.0 192.0Q128 179 137.5 169.5Q147 160 160.0 160.0Q173 160 182.5 169.5Q192 179 192.0 192.0Q192 205 182.5 214.5Q173 224 160 224ZM352 224Q339 224 329.5 214.5Q320 205 320.0 192.0Q320 179 329.5 169.5Q339 160 352.0 160.0Q365 160 374.5 169.5Q384 179 384.0 192.0Q384 205 374.5 214.5Q365 224 352 224Z" />
      </g>
    </svg>