<svg xmlns="http://www.w3.org/2000/svg" viewBox="63 0 384 384">
      <g transform="scale(1 -1) translate(0 -384)">
        <path d="M277 384H235V171H277ZM380 338 350 307Q376 286 390.5 256.0Q405 226 405 192Q405 151 385.0 117.0Q365 83 331.0 63.0Q297 43 256.0 43.0Q215 43 181.0 63.0Q147 83 127.0 117.0Q107 151 107 192Q107 225 121.5 255.5Q136 286 162 308L132 338Q92 304 75.0 255.5Q58 207 67.0 157.0Q76 107 109.5 67.0Q143 27 191.5 10.5Q240 -6 290.5 2.5Q341 11 380 45Q413 73 430.5 111.5Q448 150 448.0 192.0Q448 234 430.5 272.5Q413 311 380 338Z" />
      </g>
    </svg>