<svg xmlns="http://www.w3.org/2000/svg" viewBox="43 -21 426 426">
      <g transform="scale(1 -1) translate(0 -384)">
        <path d="M160 224Q173 224 182.5 214.5Q192 205 192.0 192.0Q192 179 182.5 169.5Q173 160 160.0 160.0Q147 160 137.5 169.5Q128 179 128.0 192.0Q128 205 137.5 214.5Q147 224 160 224ZM352 224Q365 224 374.5 214.5Q384 205 384.0 192.0Q384 179 374.5 169.5Q365 160 352.0 160.0Q339 160 329.5 169.5Q320 179 320.0 192.0Q320 205 329.5 214.5Q339 224 352 224ZM90 405H422Q441 405 455.0 391.0Q469 377 469 358V26Q469 6 455.5 -7.5Q442 -21 422 -21H90Q71 -21 57.0 -7.0Q43 7 43 26V358Q43 378 56.5 391.5Q70 405 90 405ZM256 363Q210 363 170.5 340.0Q131 317 108.0 277.5Q85 238 85.0 192.0Q85 146 108.0 106.5Q131 67 170.5 44.0Q210 21 256.0 21.0Q302 21 341.5 44.0Q381 67 404.0 106.5Q427 146 427.0 192.0Q427 238 404.0 277.5Q381 317 341.5 340.0Q302 363 256 363Z" />
      </g>
    </svg>