<svg xmlns="http://www.w3.org/2000/svg" viewBox="85 21 342 363">
      <g transform="scale(1 -1) translate(0 -405)">
        <path d="M353 332 322 301Q351 284 367.5 255.0Q384 226 384.0 191.5Q384 157 367.0 127.5Q350 98 320.5 81.0Q291 64 256.0 64.0Q221 64 191.5 81.0Q162 98 145.0 127.5Q128 157 128.0 191.5Q128 226 144.5 255.0Q161 284 189 301L159 332Q125 308 105.0 271.5Q85 235 85 192Q85 146 108.0 106.5Q131 67 170.5 44.0Q210 21 256.0 21.0Q302 21 341.5 44.0Q381 67 404.0 106.5Q427 146 427 192Q427 235 407.0 271.5Q387 308 353 332ZM277 384H235V171H277Z" />
      </g>
    </svg>