<svg xmlns="http://www.w3.org/2000/svg" viewBox="43 -21 426 426">
      <g transform="scale(1 -1) translate(0 -384)">
        <path d="M422 405H90Q71 405 57.0 391.0Q43 377 43 358V26Q43 7 57.0 -7.0Q71 -21 90 -21H422Q441 -21 455.0 -7.0Q469 7 469 26V358Q469 377 455.0 391.0Q441 405 422 405ZM427 171 353 97Q341 85 326 85H186Q171 85 159 97L85 171Q77 179 77.0 192.0Q77 205 85 213L159 287Q171 299 186 299H326Q341 299 353 287L427 213Q435 205 435.0 192.0Q435 179 427 171ZM224 149Q224 163 233.5 172.0Q243 181 256.0 181.0Q269 181 278.5 172.0Q288 163 288.0 149.5Q288 136 278.5 126.5Q269 117 256.0 117.0Q243 117 233.5 126.5Q224 136 224 149ZM331 192Q331 205 340.0 214.5Q349 224 362.5 224.0Q376 224 385.5 214.5Q395 205 395.0 192.0Q395 179 385.5 169.5Q376 160 362.5 160.0Q349 160 340.0 169.5Q331 179 331 192ZM117 192Q117 205 126.5 214.5Q136 224 149.5 224.0Q163 224 172.0 214.5Q181 205 181.0 192.0Q181 179 172.0 169.5Q163 160 149.5 160.0Q136 160 126.5 169.5Q117 179 117 192Z" />
      </g>
    </svg>