<svg xmlns="http://www.w3.org/2000/svg" viewBox="43 -21 426 426">
      <g transform="scale(1 -1) translate(0 -384)">
        <path d="M90 405Q70 405 56.5 391.5Q43 378 43 358V26Q43 7 57.0 -7.0Q71 -21 90 -21H422Q442 -21 455.5 -7.5Q469 6 469 26V358Q469 377 455.0 391.0Q441 405 422 405ZM256 363Q302 363 341.5 340.0Q381 317 404.0 277.5Q427 238 427.0 192.0Q427 146 404.0 106.5Q381 67 341.5 44.0Q302 21 256.0 21.0Q210 21 170.5 44.0Q131 67 108.0 106.5Q85 146 85.0 192.0Q85 238 108.0 277.5Q131 317 170.5 340.0Q210 363 256 363ZM176 287 134 213 171 192 213 266ZM336 287 299 266 341 192 378 213ZM235 149V64H277V149Z" />
      </g>
    </svg>