<svg xmlns="http://www.w3.org/2000/svg" viewBox="64 0 384 384">
      <g transform="scale(1 -1) translate(0 -384)">
        <path d="M256 384Q204 384 160.0 358.0Q116 332 90.0 288.0Q64 244 64.0 192.0Q64 140 90.0 96.0Q116 52 160.0 26.0Q204 0 256.0 0.0Q308 0 352.0 26.0Q396 52 422.0 96.0Q448 140 448.0 192.0Q448 244 422.0 288.0Q396 332 352.0 358.0Q308 384 256 384ZM256 43Q215 43 181.0 63.0Q147 83 127.0 117.0Q107 151 107.0 192.0Q107 233 127.0 267.0Q147 301 181.0 321.0Q215 341 256.0 341.0Q297 341 331.0 321.0Q365 301 385.0 267.0Q405 233 405.0 192.0Q405 151 385.0 117.0Q365 83 331.0 63.0Q297 43 256 43Z" />
      </g>
    </svg>