<svg xmlns="http://www.w3.org/2000/svg" viewBox="31 21 449 342">
      <g transform="scale(1 -1) translate(0 -384)">
        <path d="M466 363Q474 363 478.0 357.0Q482 351 480 344L413 40Q411 32 404.0 26.5Q397 21 390 21H46Q38 21 34.0 27.0Q30 33 32 40L99 344Q101 352 108.0 357.5Q115 363 122 363ZM338 107H252Q245 107 240.0 101.5Q235 96 235.0 88.5Q235 81 240.0 76.0Q245 71 252 71H338Q345 71 350.5 76.0Q356 81 356.0 88.5Q356 96 350.5 101.5Q345 107 338 107ZM123 101Q117 96 115.5 88.5Q114 81 118.5 74.5Q123 68 131.0 66.5Q139 65 145 70L304 182Q310 187 310.0 194.0Q310 201 307 207L202 319Q197 325 189.0 325.5Q181 326 175.0 320.5Q169 315 169.0 307.0Q169 299 174 294L263 199Z" />
      </g>
    </svg>