<svg xmlns="http://www.w3.org/2000/svg" viewBox="85 -64 342 469">
      <g transform="scale(1 -1) translate(0 -341)">
        <path d="M320 -64H363V-21H320ZM353 353 322 322Q351 305 367.5 276.0Q384 247 384.0 213.0Q384 179 367.0 149.5Q350 120 320.5 102.5Q291 85 256.0 85.0Q221 85 191.5 102.5Q162 120 145.0 149.5Q128 179 128.0 213.0Q128 247 144.5 276.0Q161 305 189 323L159 353Q125 330 105.0 293.0Q85 256 85 213Q85 167 108.0 128.0Q131 89 170.5 66.0Q210 43 256.0 43.0Q302 43 341.5 66.0Q381 89 404.0 128.0Q427 167 427 213Q427 256 407.0 293.0Q387 330 353 353ZM277 405H235V192H277ZM235 -64H277V-21H235ZM149 -64H192V-21H149Z" />
      </g>
    </svg>