<svg xmlns="http://www.w3.org/2000/svg" viewBox="43 -21 426 426">
      <g transform="scale(1 -1) translate(0 -384)">
        <path d="M171 299H213V192H171ZM90 405H422Q441 405 455.0 391.0Q469 377 469 358V26Q469 6 455.5 -7.5Q442 -21 422 -21H90Q71 -21 57.0 -7.0Q43 7 43 26V358Q43 378 56.5 391.5Q70 405 90 405ZM256 363Q210 363 170.5 340.0Q131 317 108.0 277.5Q85 238 85.0 192.0Q85 146 108.0 106.5Q131 67 170.5 44.0Q210 21 256.0 21.0Q302 21 341.5 44.0Q381 67 404.0 106.5Q427 146 427.0 192.0Q427 238 404.0 277.5Q381 317 341.5 340.0Q302 363 256 363ZM299 288H341V203H299ZM224 101Q224 115 233.5 124.0Q243 133 256.0 133.0Q269 133 278.5 124.0Q288 115 288 101V85H224Z" />
      </g>
    </svg>