<svg xmlns="http://www.w3.org/2000/svg" viewBox="43 -21 426 448">
      <g transform="scale(1 -1) translate(0 -406)">
        <path d="M43 384H213Q213 402 225.5 414.5Q238 427 256.0 427.0Q274 427 286.5 414.5Q299 402 299 384H469V341H448V107H325L363 -21H320L283 107H229L192 -21H149L187 107H64V341H43ZM107 341V149H405V341ZM253 195Q250 192 245.5 192.0Q241 192 238.0 195.0Q235 198 235 203V288Q235 292 238.0 295.5Q241 299 245.5 299.0Q250 299 253 295L283 266Q289 259 292 256Q296 250 296.0 245.5Q296 241 292 235Q289 232 283 225Z" />
      </g>
    </svg>