<svg xmlns="http://www.w3.org/2000/svg" viewBox="64 43 384 298">
      <g transform="scale(1 -1) translate(0 -384)">
        <path d="M110 110Q88 136 76.0 168.0Q64 200 64 235Q64 264 78.5 288.5Q93 313 117.5 327.0Q142 341 171 341Q196 341 218.5 329.5Q241 318 256 299Q271 318 293.5 329.5Q316 341 341 341Q370 341 394.5 327.0Q419 313 433.5 288.5Q448 264 448 235Q448 200 436.0 168.0Q424 136 402 110L431 81L401 51L371 81Q347 63 317.5 53.0Q288 43 256.0 43.0Q224 43 194.5 53.0Q165 63 141 81L111 51L81 81ZM340 112 256 196 172 112Q210 85 256.0 85.0Q302 85 340 112ZM235 235Q235 261 216.0 280.0Q197 299 170.5 299.0Q144 299 125.5 280.0Q107 261 107 235Q107 182 140 140ZM372 140Q405 182 405 235Q405 261 386.5 280.0Q368 299 341.5 299.0Q315 299 296.0 280.0Q277 261 277 235Z" />
      </g>
    </svg>