<svg xmlns="http://www.w3.org/2000/svg" viewBox="43 0 426 384">
      <g transform="scale(1 -1) translate(0 -384)">
        <path d="M405 277Q432 277 450.5 258.5Q469 240 469 213V85H384V0H128V85H43V213Q43 240 61.5 258.5Q80 277 107 277H128V384H384V277ZM171 341V277H341V341ZM341 43V128H171V43ZM384 128H427V213Q427 222 420.5 228.5Q414 235 405 235H107Q98 235 91.5 228.5Q85 222 85 213V128H128V171H384ZM405 203Q405 194 399.0 187.5Q393 181 384.0 181.0Q375 181 369.0 187.5Q363 194 363.0 202.5Q363 211 369.0 217.5Q375 224 384.0 224.0Q393 224 399.0 217.5Q405 211 405 203Z" />
      </g>
    </svg>