<svg xmlns="http://www.w3.org/2000/svg" viewBox="43 -21 458 405">
      <g transform="scale(1 -1) translate(0 -363)">
        <path d="M384 299H128V384H384ZM128 0V85H43V213Q43 240 61.5 258.5Q80 277 107 277H405Q432 277 450.5 258.5Q469 240 469 213V153Q440 171 405 171Q367 171 335 149H171V43H277Q277 21 285 0ZM384 213Q384 205 390.5 198.5Q397 192 405.5 192.0Q414 192 420.5 198.5Q427 205 427.0 213.5Q427 222 420.5 228.5Q414 235 405.5 235.0Q397 235 390.5 228.5Q384 222 384 213ZM501 85 469 117 395 43 352 85 320 53 395 -21Z" />
      </g>
    </svg>