<svg xmlns="http://www.w3.org/2000/svg" viewBox="43 -51 456 435">
      <g transform="scale(1 -1) translate(0 -333)">
        <path d="M433 45Q448 71 448 96Q448 136 420.0 164.0Q392 192 352.0 192.0Q312 192 284.0 164.0Q256 136 256.0 96.0Q256 56 284.0 28.0Q312 0 352 0Q382 0 403 15L469 -51L499 -21ZM352 43Q330 43 314.5 58.5Q299 74 299.0 96.0Q299 118 314.5 133.5Q330 149 352.0 149.0Q374 149 389.5 133.5Q405 118 405.0 96.0Q405 74 389.5 58.5Q374 43 352 43ZM384 299H128V384H384ZM128 0V85H43V213Q43 241 61.0 259.0Q79 277 107 277H405Q433 277 451.0 259.0Q469 241 469 213V171Q450 200 419.0 217.5Q388 235 352 235Q310 235 275.0 211.0Q240 187 224 149H171V43H224Q232 23 252 0Z" />
      </g>
    </svg>