<svg xmlns="http://www.w3.org/2000/svg" viewBox="43 -21 426 448">
      <g transform="scale(1 -1) translate(0 -406)">
        <path d="M105 364 135 334Q168 367 212.0 378.5Q256 390 300.0 378.5Q344 367 377 334L407 364Q366 406 311.0 420.0Q256 434 201.0 420.0Q146 406 105 364ZM166 304 196 274Q221 299 256.0 299.0Q291 299 316 274L346 304Q322 329 289.0 337.5Q256 346 223.0 337.5Q190 329 166 304ZM405 149Q396 149 390.0 155.5Q384 162 384.0 171.0Q384 180 390.0 186.0Q396 192 405.0 192.0Q414 192 420.5 186.0Q427 180 427.0 171.0Q427 162 420.5 155.5Q414 149 405 149ZM341 21H171V128H341ZM405 235H107Q80 235 61.5 216.0Q43 197 43 171V64H128V-21H384V64H469V171Q469 197 450.5 216.0Q432 235 405 235Z" />
      </g>
    </svg>