<svg xmlns="http://www.w3.org/2000/svg" viewBox="43 -43 448 427">
      <g transform="scale(1 -1) translate(0 -341)">
        <path d="M209 0Q208 2 205 7Q198 20 196 28L188 43H171V149H277Q320 171 363 171Q422 171 469 137V213Q469 241 451.0 259.0Q433 277 405 277H107Q79 277 61.0 259.0Q43 241 43 213V85H128V0ZM405 235Q415 235 421.0 229.0Q427 223 427.0 213.5Q427 204 421.0 198.0Q415 192 405.5 192.0Q396 192 390.0 198.0Q384 204 384.0 213.5Q384 223 390.0 229.0Q396 235 405 235ZM384 299H128V384H384ZM363 64Q372 64 378.0 58.0Q384 52 384.0 42.5Q384 33 378.0 27.0Q372 21 362.5 21.0Q353 21 347.0 27.0Q341 33 341.0 42.5Q341 52 347.0 58.0Q353 64 363 64ZM363 128Q320 128 284.5 104.0Q249 80 235 43Q249 5 284.5 -19.0Q320 -43 362.5 -43.0Q405 -43 440.5 -19.0Q476 5 491 43Q476 80 440.5 104.0Q405 128 363 128ZM363 -11Q340 -11 324.5 4.5Q309 20 309.0 42.5Q309 65 324.5 80.5Q340 96 362.5 96.0Q385 96 400.5 80.5Q416 65 416.0 42.5Q416 20 400.5 4.5Q385 -11 363 -11Z" />
      </g>
    </svg>