<svg xmlns="http://www.w3.org/2000/svg" viewBox="0 0 512 384">
      <g transform="scale(1 -1) translate(0 -384)">
        <path d="M341 384H85V299H341ZM363 192Q353 192 347.0 198.0Q341 204 341.0 213.5Q341 223 347.0 229.0Q353 235 362.5 235.0Q372 235 378.0 229.0Q384 223 384.0 213.5Q384 204 378.0 198.0Q372 192 363 192ZM299 43H128V149H299ZM363 277H64Q37 277 18.5 259.0Q0 241 0 213V85H85V0H341V85H427V213Q427 241 408.5 259.0Q390 277 363 277ZM512 171H469V299H512ZM512 85H469V128H512Z" />
      </g>
    </svg>