<svg xmlns="http://www.w3.org/2000/svg" viewBox="21 -43 448 427">
      <g transform="scale(1 -1) translate(0 -341)">
        <path d="M128 384V359L188 299H384V384ZM49 384 21 357 101 277Q76 275 59.5 256.5Q43 238 43 213V85H128V0H378L421 -43L448 -15ZM209 277 401 85H469V213Q469 240 450.5 258.5Q432 277 405 277ZM405 235Q414 235 420.5 228.5Q427 222 427.0 213.0Q427 204 420.5 198.0Q414 192 405.0 192.0Q396 192 390.0 198.0Q384 204 384.0 213.0Q384 222 390.0 228.5Q396 235 405 235ZM171 149H229L336 43H171Z" />
      </g>
    </svg>