<svg xmlns="http://www.w3.org/2000/svg" viewBox="43 -64 426 469">
      <g transform="scale(1 -1) translate(0 -341)">
        <path d="M384 405V320H128V405ZM405 213Q414 213 420.5 219.5Q427 226 427.0 235.0Q427 244 420.5 250.0Q414 256 405.0 256.0Q396 256 390.0 250.0Q384 244 384.0 235.0Q384 226 390.0 219.5Q396 213 405 213ZM341 64V171H171V64ZM405 299Q432 299 450.5 280.0Q469 261 469 235V107H384V21H128V107H43V235Q43 261 61.5 280.0Q80 299 107 299ZM320 -64V-21H363V-64ZM235 -64V-21H277V-64ZM149 -64V-21H192V-64Z" />
      </g>
    </svg>