<svg xmlns="http://www.w3.org/2000/svg" viewBox="21 -43 450 448">
      <g transform="scale(1 -1) translate(0 -362)">
        <path d="M49 405 21 378 45 354Q43 350 43 341V213H128V271L186 213L139 190Q128 183 128 171V60Q128 48 139 41L243 -17Q252 -21 256.0 -21.0Q260 -21 269 -17L365 36L444 -43L471 -15ZM105 405H102L209 299H384V213H469V341Q469 369 451.0 387.0Q433 405 405 405H105H106ZM405 363Q415 363 421.0 357.0Q427 351 427.0 341.5Q427 332 421.0 326.0Q415 320 405.5 320.0Q396 320 390.0 326.0Q384 332 384.0 341.5Q384 351 390.0 357.0Q396 363 405 363ZM265 243 384 124V171Q384 183 373 190L269 241Q268 241 267.0 242.0Q266 243 265 243ZM218 181 260 139 256 137 192 171ZM171 134 235 100V36L171 70ZM292 107 333 66 277 36V100Z" />
      </g>
    </svg>