<svg xmlns="http://www.w3.org/2000/svg" viewBox="43 -21 426 426">
      <g transform="scale(1 -1) translate(0 -384)">
        <path d="M405 320Q414 320 420.5 326.0Q427 332 427.0 341.0Q427 350 420.5 356.5Q414 363 405.0 363.0Q396 363 390.0 356.5Q384 350 384.0 341.0Q384 332 390.0 326.0Q396 320 405 320ZM405 405Q432 405 450.5 386.5Q469 368 469 341V213H384V299H128V213H43V341Q43 368 61.5 386.5Q80 405 107 405ZM384 59Q384 46 373 40L268 -17Q263 -21 256.0 -21.0Q249 -21 244 -17L139 40Q128 46 128 59V171Q128 183 139 189L244 241Q249 245 256.0 245.0Q263 245 268 241L373 189Q384 183 384 171ZM256 199 193 171 256 137 319 171ZM171 71 235 36V100L171 134ZM341 71V134L277 100V36Z" />
      </g>
    </svg>