<svg xmlns="http://www.w3.org/2000/svg" viewBox="0 -63 477 477">
      <g transform="scale(1 -1) translate(0 -351)">
        <path d="M30 414 477 -33 447 -63 384 0H128V85H43V213Q43 240 61.5 258.5Q80 277 107 277L0 384ZM128 128V171H213L149 235H107Q98 235 91.5 228.5Q85 222 85 213V128ZM171 43H341L256 128H171ZM171 341V334L128 376V384H384V277H405Q432 277 450.5 258.5Q469 240 469 213V85H419L334 171H384V128H427V213Q427 222 420.5 228.5Q414 235 405 235H270L227 277H341V341ZM405 203Q405 194 399.0 187.5Q393 181 384.0 181.0Q375 181 369.0 187.5Q363 194 363.0 202.5Q363 211 369.0 217.5Q375 224 384.0 224.0Q393 224 399.0 217.5Q405 211 405 203Z" />
      </g>
    </svg>