<svg xmlns="http://www.w3.org/2000/svg" viewBox="64 -21 384 426">
      <g transform="scale(1 -1) translate(0 -384)">
        <path d="M448 96Q448 83 437 77L268 -17Q263 -21 256.0 -21.0Q249 -21 244 -17L75 77Q64 83 64 96V288Q64 301 75 307L244 401Q249 405 256.0 405.0Q263 405 268 401L437 307Q448 301 448 288ZM107 256V128H133V171H149Q167 171 179.5 183.5Q192 196 192.0 213.5Q192 231 179.5 243.5Q167 256 149 256ZM133 192V235H144Q153 235 159.0 228.5Q165 222 165.0 213.0Q165 204 159.0 198.0Q153 192 144 192ZM208 256V128H235V171H251L265 128H293L276 179Q293 192 293 213Q293 231 280.5 243.5Q268 256 251 256ZM235 192V235H245Q254 235 260.5 228.5Q267 222 267.0 213.0Q267 204 260.5 198.0Q254 192 245 192ZM363 256Q341 256 325.0 237.5Q309 219 309.0 192.0Q309 165 325.0 146.5Q341 128 363.0 128.0Q385 128 400.5 146.5Q416 165 416.0 192.0Q416 219 400.5 237.5Q385 256 363 256ZM363 229Q375 229 383.5 218.0Q392 207 392.0 192.0Q392 177 383.5 166.0Q375 155 363.0 155.0Q351 155 342.0 165.5Q333 176 333.0 192.0Q333 208 342.0 218.5Q351 229 363 229Z" />
      </g>
    </svg>