<svg xmlns="http://www.w3.org/2000/svg" viewBox="44 -21 895 426">
      <g transform="scale(1 -1) translate(0 -384)">
        <path d="M277 405V362Q323 356 359.5 328.5Q396 301 413.5 259.0Q431 217 426 171Q418 113 376.5 71.5Q335 30 277 23V-20Q335 -14 381.0 19.5Q427 53 450.5 104.5Q474 156 468 213Q464 263 437.5 305.0Q411 347 369.0 373.5Q327 400 277 405ZM235 404Q170 398 121 357L151 326Q188 355 235 361ZM91 327Q50 278 44 213H86Q93 260 121 297ZM44 171Q50 107 91 57L121 87Q92 125 87 171ZM151 56 121 27Q171 -14 235 -21V21Q189 27 151 56ZM427 363H939ZM277 64H235V107H277ZM277 128H235Q235 154 247 171Q254 182 272 196Q286 206 291 212Q299 222 299 235Q299 252 286.5 264.5Q274 277 256.0 277.0Q238 277 225.5 264.5Q213 252 213 235H171Q171 270 196.0 295.0Q221 320 256.0 320.0Q291 320 316.0 295.0Q341 270 341 235Q341 216 331 202Q325 193 309.0 179.0Q293 165 287 157Q277 144 277 128Z" />
      </g>
    </svg>