<svg xmlns="http://www.w3.org/2000/svg" viewBox="44 -21 425 426">
      <g transform="scale(1 -1) translate(0 -384)">
        <path d="M277 405Q327 400 369.0 373.5Q411 347 437.5 305.0Q464 263 468 213Q474 156 450.5 104.5Q427 53 381.0 19.5Q335 -14 277 -20V23Q335 30 376.5 71.5Q418 113 426 171Q431 217 413.5 259.0Q396 301 359.5 328.5Q323 356 277 362ZM235 404V361Q188 355 151 326L121 357Q170 398 235 404ZM91 327 121 297Q93 260 86 213H44Q50 278 91 327ZM44 171H87Q92 125 121 87L91 57Q50 107 44 171ZM151 56Q189 27 235 21V-21Q171 -14 121 27ZM256 96 160 192H235V277H277V192H352Z" />
      </g>
    </svg>