<svg xmlns="http://www.w3.org/2000/svg" viewBox="44 -21 423 426">
      <g transform="scale(1 -1) translate(0 -384)">
        <path d="M277 405V363Q323 357 359.5 329.5Q396 302 413.5 260.0Q431 218 426 172Q418 114 377.0 72.5Q336 31 277 24V-19Q335 -12 380.5 21.5Q426 55 449.0 107.0Q472 159 466 217Q461 266 435.0 307.0Q409 348 367.5 374.0Q326 400 277 405ZM235 405Q171 399 121 358L151 326Q188 355 235 361V404ZM91 327Q50 278 44 213H86Q93 260 121 297ZM44 171Q50 107 91 57L121 87Q92 125 87 171ZM151 56 121 27Q171 -14 235 -21V21Q189 27 151 56ZM183 90 203 173 139 228 223 236 256 313 289 235 373 228 309 173 329 90 256 134Z" />
      </g>
    </svg>