<svg xmlns="http://www.w3.org/2000/svg" viewBox="44 -21 425 426">
      <g transform="scale(1 -1) translate(0 -384)">
        <path d="M277 405V404V362Q323 356 359.5 328.5Q396 301 413.5 259.0Q431 217 426 171Q418 113 376.5 71.5Q335 30 277 23V-20Q335 -14 381.0 19.5Q427 53 450.5 104.5Q474 156 468 213Q464 263 437.5 305.0Q411 347 369.0 373.5Q327 400 277 405ZM235 404Q170 398 121 357L151 326Q188 355 235 361ZM91 327Q50 278 44 213H86Q93 260 121 297ZM44 171Q50 107 91 57L121 87Q92 125 87 171ZM151 56 121 27Q171 -14 235 -21V21Q189 27 151 56ZM267 299V187L363 130L347 103L235 171V299Z" />
      </g>
    </svg>