<svg xmlns="http://www.w3.org/2000/svg" viewBox="27 -40 448 448">
      <g transform="scale(1 -1) translate(0 -368)">
        <path d="M341 256Q325 256 312.5 245.0Q300 234 299 217L345 171Q364 172 374.5 185.5Q385 199 384.0 215.5Q383 232 372.0 244.0Q361 256 341 256ZM320 142 404 57V58ZM163 299 270 192ZM427 299H409Q378 320 341.0 320.0Q304 320 274 299H217L273 243Q283 267 305.0 278.5Q327 290 351.5 287.0Q376 284 394.5 266.0Q413 248 415.5 223.5Q418 199 406.5 177.0Q395 155 371 145L431 85Q447 87 458.0 99.0Q469 111 469 128V256Q469 274 456.5 286.5Q444 299 427 299ZM341 256Q325 256 312.5 245.0Q300 234 299 217L345 171Q364 172 374.5 185.5Q385 199 384.0 215.5Q383 232 372.0 244.0Q361 256 341 256ZM341 256Q325 256 312.5 245.0Q300 234 299 217L345 171Q364 172 374.5 185.5Q385 199 384.0 215.5Q383 232 372.0 244.0Q361 256 341 256ZM475 -13 54 408 27 381 109 299H85Q68 299 55.5 286.5Q43 274 43 256V128Q43 110 55.5 97.5Q68 85 85 85H107V64Q107 55 113.0 49.0Q119 43 128 43H171Q179 43 185.5 49.0Q192 55 192 64V85H320V64Q320 55 326.5 49.0Q333 43 341 43H365L448 -40ZM171 149H85V171H171ZM171 192H85V213H171ZM171 235H85V256H151L171 237ZM54 408 163 299ZM163 299 270 192ZM404 58V57L320 142ZM163 299 54 408ZM270 192 163 299ZM404 58V57L320 142Z" />
      </g>
    </svg>