<svg xmlns="http://www.w3.org/2000/svg" viewBox="43 43 426 277">
      <g transform="scale(1 -1) translate(0 -363)">
        <path d="M341 320Q304 320 274 299H85Q68 299 55.5 286.5Q43 274 43 256V128Q43 110 55.5 97.5Q68 85 85 85H107V64Q107 55 113.0 49.0Q119 43 128 43H171Q180 43 186.0 49.0Q192 55 192 64V85H320V64Q320 55 326.0 49.0Q332 43 341 43H384Q393 43 399.0 49.0Q405 55 405 64V85H427Q444 85 456.5 97.5Q469 110 469 128V256Q469 274 456.5 286.5Q444 299 427 299H409Q378 320 341 320ZM341 288Q372 288 394.0 266.0Q416 244 416.0 213.0Q416 182 394.0 160.5Q372 139 341.0 139.0Q310 139 288.5 160.5Q267 182 267.0 213.0Q267 244 288.5 266.0Q310 288 341 288ZM85 256H171V235H85ZM341 256Q324 256 311.5 243.5Q299 231 299.0 213.5Q299 196 311.5 183.5Q324 171 341.5 171.0Q359 171 371.5 183.5Q384 196 384.0 213.5Q384 231 371.5 243.5Q359 256 341 256ZM85 213H171V192H85ZM85 171H171V149H85Z" />
      </g>
    </svg>