<svg xmlns="http://www.w3.org/2000/svg" viewBox="85 -21 342 426">
      <g transform="scale(1 -1) translate(0 -384)">
        <path d="M85 128V64Q85 29 110.0 4.0Q135 -21 171 -21H341Q377 -21 402.0 4.0Q427 29 427 64V128ZM427 171V235Q427 264 409.0 287.0Q391 310 363 317V363Q363 380 350.5 392.5Q338 405 320 405H192Q174 405 161.5 392.5Q149 380 149 363V317Q121 310 103.0 287.0Q85 264 85 235V171ZM192 363H320V320H277Q277 329 271.0 335.0Q265 341 256.0 341.0Q247 341 241.0 335.0Q235 329 235 320H192Z" />
      </g>
    </svg>