<svg xmlns="http://www.w3.org/2000/svg" viewBox="85 -21 342 426">
      <g transform="scale(1 -1) translate(0 -384)">
        <path d="M363 317V363Q363 380 350.5 392.5Q338 405 320 405H192Q174 405 161.5 392.5Q149 380 149 363V317Q121 310 103.0 287.0Q85 264 85 235V64Q85 29 110.0 4.0Q135 -21 171 -21H341Q377 -21 402.0 4.0Q427 29 427 64V235Q427 264 409.0 287.0Q391 310 363 317ZM192 363H320V320H277Q277 329 271.0 335.0Q265 341 256.0 341.0Q247 341 241.0 335.0Q235 329 235 320H192ZM171 277H341Q359 277 371.5 264.5Q384 252 384 235V171H128V235Q128 252 140.5 264.5Q153 277 171 277ZM341 21H171Q153 21 140.5 33.5Q128 46 128 64V128H384V64Q384 46 371.5 33.5Q359 21 341 21Z" />
      </g>
    </svg>