<svg xmlns="http://www.w3.org/2000/svg" viewBox="43 21 426 342">
      <g transform="scale(1 -1) translate(0 -384)">
        <path d="M384 21H299L384 363H469ZM341 363H256L171 21H256ZM43 96Q43 74 58.5 58.5Q74 43 96.0 43.0Q118 43 133.5 58.5Q149 74 149.0 96.0Q149 118 133.5 133.5Q118 149 96.0 149.0Q74 149 58.5 133.5Q43 118 43 96ZM43 245Q43 223 58.5 207.5Q74 192 96.0 192.0Q118 192 133.5 207.5Q149 223 149.0 245.0Q149 267 133.5 283.0Q118 299 96.0 299.0Q74 299 58.5 283.0Q43 267 43 245Z" />
      </g>
    </svg>