<svg xmlns="http://www.w3.org/2000/svg" viewBox="43 0 426 384">
      <g transform="scale(1 -1) translate(0 -384)">
        <path d="M43 0V128H75Q64 159 64 192Q64 244 90.0 288.0Q116 332 160.0 358.0Q204 384 256 384H469V256H437Q448 225 448 192Q448 140 422.0 96.0Q396 52 352.0 26.0Q308 0 256 0ZM107 192Q107 152 127 117L201 160Q192 175 192 192Q192 212 204 229L134 279Q107 239 107 192ZM256 43Q297 43 331.5 63.0Q366 83 385 117L311 160Q303 145 288.0 136.5Q273 128 256 128H250L242 43ZM256 256Q275 256 291.0 245.5Q307 235 314 218L392 254Q374 293 337.5 317.0Q301 341 256 341ZM256 213Q247 213 241.0 207.0Q235 201 235.0 192.0Q235 183 241.0 177.0Q247 171 256.0 171.0Q265 171 271.0 177.0Q277 183 277.0 192.0Q277 201 271.0 207.0Q265 213 256 213Z" />
      </g>
    </svg>