<svg xmlns="http://www.w3.org/2000/svg" viewBox="23 -36 448 448">
      <g transform="scale(1 -1) translate(0 -376)">
        <path d="M471 -11 51 412 23 384 102 305Q64 253 64 192Q64 160 75 128H43V0H256Q317 0 369 38L444 -36ZM126 117Q107 149 107.0 192.0Q107 235 132 275L196 211Q192 203 192 192Q192 177 201 160ZM256 43H241L250 128H256Q262 128 275 132L339 68Q299 43 256 43ZM256 260 158 358Q209 384 256 384H469V256H437Q448 224 448 192Q448 145 422 94L260 256Q278 254 292.5 244.0Q307 234 314 220L390 256Q374 293 337.0 317.0Q300 341 256 341Z" />
      </g>
    </svg>