<svg xmlns="http://www.w3.org/2000/svg" viewBox="43 -21 445 426">
      <g transform="scale(1 -1) translate(0 -384)">
        <path d="M449 189Q444 189 441 186L419 164L463 121L484 142Q488 145 488.0 150.0Q488 155 484 158L457 186Q453 189 449 189ZM407 152 277 23V-21H321L451 108ZM236 41Q232 43 224 43Q200 43 183.0 26.0Q166 9 166 -15V-21H85Q68 -21 55.5 -8.5Q43 4 43 21V102H49Q73 102 90.0 119.0Q107 136 107.0 160.0Q107 184 90.0 201.0Q73 218 49 218H43V299Q43 316 55.5 328.5Q68 341 85 341H150Q154 369 175.0 387.0Q196 405 224.0 405.0Q252 405 273.0 387.0Q294 369 298 341H363Q380 341 392.5 328.5Q405 316 405 299V234Q415 232 427 227Q416 221 410 216L387 192H363V299H256V331Q256 344 246.5 353.5Q237 363 224.0 363.0Q211 363 201.5 353.5Q192 344 192 331V299H85V253Q114 242 131.5 217.0Q149 192 149.0 160.0Q149 128 131.5 103.0Q114 78 85 67V21H131Q142 50 167.0 67.5Q192 85 224 85Q249 85 269 75Z" />
      </g>
    </svg>