<svg xmlns="http://www.w3.org/2000/svg" viewBox="43 -28 448 433">
      <g transform="scale(1 -1) translate(0 -377)">
        <path d="M282 -21V-15Q282 9 265.0 26.0Q248 43 224.0 43.0Q200 43 183.0 26.0Q166 9 166 -15V-21H85Q68 -21 55.5 -8.5Q43 4 43 21V102H49Q73 102 90.0 119.0Q107 136 107.0 160.0Q107 184 90.0 201.0Q73 218 49 218H43V299Q43 316 55.5 328.5Q68 341 85 341H150Q154 369 175.0 387.0Q196 405 224.0 405.0Q252 405 273.0 387.0Q294 369 298 341H363Q380 341 392.5 328.5Q405 316 405 299V234Q429 230 446.0 214.5Q463 199 467 176Q438 192 405 192H363V299H256V331Q256 344 246.5 353.5Q237 363 224.0 363.0Q211 363 201.5 353.5Q192 344 192 331V299H85V253Q114 242 131.5 217.0Q149 192 149.0 160.0Q149 128 131.5 103.0Q114 78 85 67V21H131Q142 50 167.0 67.5Q192 85 224 85Q253 85 277 70V64Q277 15 310 -21ZM405 -28 418 -17 428 -8Q462 25 473 39Q491 61 491.0 81.5Q491 102 477.0 115.0Q463 128 444 128Q432 128 422.0 123.5Q412 119 405 111Q399 119 388.5 123.5Q378 128 367 128Q348 128 334.0 114.0Q320 100 320.0 80.5Q320 61 337 39Q349 25 383 -8L393 -17Z" />
      </g>
    </svg>