<svg xmlns="http://www.w3.org/2000/svg" viewBox="43 -21 448 448">
      <g transform="scale(1 -1) translate(0 -406)">
        <path d="M278 30Q272 47 257.5 57.5Q243 68 224 68Q200 68 183.0 51.5Q166 35 166 11V-21H85Q68 -21 55.5 -8.5Q43 4 43 21V102H75Q99 102 115.5 119.0Q132 136 132.0 160.0Q132 184 115.5 201.0Q99 218 75 218H43V299Q43 316 55.5 328.5Q68 341 85 341H171V373Q171 395 186.5 411.0Q202 427 224.0 427.0Q246 427 261.5 411.0Q277 395 277 373V341H363Q380 341 392.5 328.5Q405 316 405 299V213H437Q459 213 475.0 197.5Q491 182 491 160Q491 150 487 141Q451 171 405 171Q371 171 341.5 153.5Q312 136 294.5 106.5Q277 77 277 43Q277 34 278 30ZM320 64V21H491V64Z" />
      </g>
    </svg>