<svg xmlns="http://www.w3.org/2000/svg" viewBox="43 -21 426 426">
      <g transform="scale(1 -1) translate(0 -384)">
        <path d="M469 160Q469 132 451.0 111.0Q433 90 405 86V21Q405 4 392.5 -8.5Q380 -21 363 -21H282V-15Q282 9 265.0 26.0Q248 43 224.0 43.0Q200 43 183.0 26.0Q166 9 166 -15V-21H85Q68 -21 55.5 -8.5Q43 4 43 21V102H49Q73 102 90.0 119.0Q107 136 107.0 160.0Q107 184 90.0 201.0Q73 218 49 218H43V299Q43 316 55.5 328.5Q68 341 85 341H150Q154 369 175.0 387.0Q196 405 224.0 405.0Q252 405 273.0 387.0Q294 369 298 341H363Q380 341 392.5 328.5Q405 316 405 299V234Q433 230 451.0 209.0Q469 188 469 160ZM363 128H395Q408 128 417.5 137.5Q427 147 427.0 160.0Q427 173 417.5 182.5Q408 192 395 192H363V299H256V331Q256 344 246.5 353.5Q237 363 224.0 363.0Q211 363 201.5 353.5Q192 344 192 331V299H85V253Q114 242 131.5 217.0Q149 192 149.0 160.0Q149 128 131.5 103.0Q114 78 85 67V21H131Q142 50 167.0 67.5Q192 85 224.0 85.0Q256 85 281.0 67.5Q306 50 317 21H363Z" />
      </g>
    </svg>