<svg xmlns="http://www.w3.org/2000/svg" viewBox="43 -28 448 455">
      <g transform="scale(1 -1) translate(0 -399)">
        <path d="M405 -28 393 -17 383 -8Q349 25 337 39Q320 61 320.0 80.5Q320 100 334.0 114.0Q348 128 367 128Q378 128 388.5 123.5Q399 119 405 111Q412 119 422.0 123.5Q432 128 444 128Q463 128 477.0 115.0Q491 102 491.0 81.5Q491 61 473 39Q462 25 428 -8L418 -17ZM437 213H405V299Q405 316 392.5 328.5Q380 341 363 341H277V373Q277 395 261.5 411.0Q246 427 224.0 427.0Q202 427 186.5 411.0Q171 395 171 373V341H85Q68 341 55.5 328.5Q43 316 43 299V218H75Q99 218 115.5 201.0Q132 184 132.0 160.0Q132 136 115.5 119.0Q99 102 75 102H43V21Q43 4 55.5 -8.5Q68 -21 85 -21H166V11Q166 35 183.0 51.5Q200 68 224 68Q239 68 251.5 61.5Q264 55 272 43H279Q277 55 277 64Q277 99 294.5 128.5Q312 158 341.5 175.0Q371 192 405 192Q454 192 491 159V160Q491 182 475.0 197.5Q459 213 437 213Z" />
      </g>
    </svg>