<svg xmlns="http://www.w3.org/2000/svg" viewBox="43 -21 445 448">
      <g transform="scale(1 -1) translate(0 -406)">
        <path d="M449 189Q444 189 441 186L419 164L463 121L484 142Q488 145 488.0 150.0Q488 155 484 158L457 186Q453 189 449 189ZM407 152 277 23V-21H321L451 108ZM405 211 254 60Q240 68 224 68Q200 68 183.0 51.5Q166 35 166 11V-21H85Q68 -21 55.5 -8.5Q43 4 43 21V102H75Q99 102 115.5 119.0Q132 136 132.0 160.0Q132 184 115.5 201.0Q99 218 75 218H43V299Q43 316 55.5 328.5Q68 341 85 341H171V373Q171 395 186.5 411.0Q202 427 224.0 427.0Q246 427 261.5 411.0Q277 395 277 373V341H363Q380 341 392.5 328.5Q405 316 405 299Z" />
      </g>
    </svg>