<svg xmlns="http://www.w3.org/2000/svg" viewBox="43 -21 448 448">
      <g transform="scale(1 -1) translate(0 -406)">
        <path d="M437 213H405V299Q405 316 392.5 328.5Q380 341 363 341H277V373Q277 395 261.5 411.0Q246 427 224.0 427.0Q202 427 186.5 411.0Q171 395 171 373V341H85Q68 341 55.5 328.5Q43 316 43 299V218H75Q99 218 115.5 201.0Q132 184 132.0 160.0Q132 136 115.5 119.0Q99 102 75 102H43V21Q43 4 55.5 -8.5Q68 -21 85 -21H166V11Q166 35 183.0 51.5Q200 68 224.0 68.0Q248 68 265.0 51.5Q282 35 282 11V-21H363Q380 -21 392.5 -8.5Q405 4 405 21V107H437Q459 107 475.0 122.5Q491 138 491.0 160.0Q491 182 475.0 197.5Q459 213 437 213Z" />
      </g>
    </svg>