<svg xmlns="http://www.w3.org/2000/svg" viewBox="105 -43 299 469">
      <g transform="scale(1 -1) translate(0 -383)">
        <path d="M258 308V136Q258 134 257.0 133.0Q256 132 255 132Q218 132 191.5 158.5Q165 185 165.0 222.0Q165 259 191.5 285.0Q218 311 255 311Q256 311 257.0 310.0Q258 309 258 308ZM258 67V15Q257 -7 272.0 -24.0Q287 -41 309 -43Q315 -43 316 -37V353Q315 359 309 361Q272 376 232.5 369.5Q193 363 162.0 338.5Q131 314 116.0 276.5Q101 239 107.0 199.5Q113 160 137.5 129.0Q162 98 200 83Q225 73 252 73Q254 73 256.0 71.0Q258 69 258 67ZM345 331V113Q345 107 346.0 105.5Q347 104 351 107Q382 133 395.5 170.5Q409 208 402.5 247.0Q396 286 370 317Q361 329 351 336Q347 339 346.0 337.0Q345 335 345 330ZM316 396Q316 408 324.5 417.0Q333 426 345.5 426.0Q358 426 366.5 417.0Q375 408 375.0 396.0Q375 384 366.5 375.0Q358 366 345 366Q333 366 324.5 375.0Q316 384 316 396Z" />
      </g>
    </svg>