<svg xmlns="http://www.w3.org/2000/svg" viewBox="53 -21 404 426">
      <g transform="scale(1 -1) translate(0 -384)">
        <path d="M68 159Q77 181 89.0 196.0Q101 211 110 215Q110 238 119 251V252Q118 260 122 268Q125 327 160 365Q197 405 256.0 405.0Q315 405 352 365Q387 327 390 268Q394 260 393 252V251Q402 238 402 215Q412 211 423.5 196.0Q435 181 444 159Q456 131 458.0 107.5Q460 84 450 79Q443 76 433.5 83.0Q424 90 414 104Q407 73 378 49Q393 43 401.5 35.0Q410 27 410 17Q410 1 388.0 -10.0Q366 -21 335 -21Q307 -21 286.0 -12.0Q265 -3 260 11H252Q247 -3 226.0 -12.0Q205 -21 177 -21Q146 -21 124.0 -10.0Q102 1 102 17Q102 27 110.5 35.0Q119 43 134 49Q105 73 98 104Q88 90 78.5 83.0Q69 76 62 79Q52 84 54.0 107.5Q56 131 68 159Z" />
      </g>
    </svg>