<svg xmlns="http://www.w3.org/2000/svg" viewBox="21 -43 470 470">
      <g transform="scale(1 -1) translate(0 -384)">
        <path d="M107 341H149V299H107ZM21 427H235V213H21ZM64 384V256H192V384ZM107 85H149V43H107ZM21 171H235V-43H21ZM64 128V0H192V128ZM277 171H363V128H405V171H491V128H405V85H491V-43H405V0H320V-43H277V0H320V43H277ZM448 0V43H405V0ZM405 85H363V128H320V43H405ZM484 377 463 355 419 398 441 419Q444 423 448.5 423.0Q453 423 457 419L484 393Q488 390 488.0 385.0Q488 380 484 377ZM277 257 407 387 451 343 321 213H277Z" />
      </g>
    </svg>