<svg xmlns="http://www.w3.org/2000/svg" viewBox="0 -64 512 512">
      <g transform="scale(1 -1) translate(0 -384)">
        <path d="M85 363H213V235H85ZM427 363V235H299V363ZM299 128H341V171H299V213H341V171H384V213H427V171H384V128H427V64H384V21H341V64H277V21H235V107H299ZM341 128V64H384V128ZM85 21V149H213V21ZM128 320V277H171V320ZM341 320V277H384V320ZM128 107V64H171V107ZM85 213H128V171H85ZM192 213H277V128H235V171H192ZM235 320H277V235H235ZM43 405V320H0V405Q0 423 12.5 435.5Q25 448 43 448H128V405ZM469 448Q487 448 499.5 435.5Q512 423 512 405V320H469V405H384V448ZM43 64V-21H128V-64H43Q25 -64 12.5 -51.5Q0 -39 0 -21V64ZM469 -21V64H512V-21Q512 -39 499.5 -51.5Q487 -64 469 -64H384V-21Z" />
      </g>
    </svg>