<svg xmlns="http://www.w3.org/2000/svg" viewBox="21 -43 470 470">
      <g transform="scale(1 -1) translate(0 -384)">
        <path d="M117 427Q157 427 185.0 399.0Q213 371 213 331Q213 303 199 279L201 277H311L313 279Q299 303 299 331Q299 371 327.0 399.0Q355 427 395.0 427.0Q435 427 463.0 399.0Q491 371 491.0 331.0Q491 291 463.0 263.0Q435 235 395 235Q367 235 343 249L320 226V158L343 135Q367 149 395 149Q435 149 463.0 121.0Q491 93 491.0 53.0Q491 13 463.0 -15.0Q435 -43 395.0 -43.0Q355 -43 327.0 -15.0Q299 13 299 53Q299 81 313 105L311 107H201L199 105Q213 81 213 53Q213 13 185.0 -15.0Q157 -43 117.0 -43.0Q77 -43 49.0 -15.0Q21 13 21.0 53.0Q21 93 49.0 121.0Q77 149 117 149Q145 149 169 135L192 158V226L169 249Q145 235 117 235Q77 235 49.0 263.0Q21 291 21.0 331.0Q21 371 49.0 399.0Q77 427 117 427ZM117 384Q95 384 79.5 368.5Q64 353 64.0 331.0Q64 309 79.5 293.0Q95 277 117.0 277.0Q139 277 155.0 293.0Q171 309 171.0 331.0Q171 353 155.0 368.5Q139 384 117 384ZM117 107Q95 107 79.5 91.0Q64 75 64.0 53.0Q64 31 79.5 15.5Q95 0 117.0 0.0Q139 0 155.0 15.5Q171 31 171.0 53.0Q171 75 155.0 91.0Q139 107 117 107ZM395 384Q373 384 357.0 368.5Q341 353 341.0 331.0Q341 309 357.0 293.0Q373 277 395.0 277.0Q417 277 432.5 293.0Q448 309 448.0 331.0Q448 353 432.5 368.5Q417 384 395 384ZM395 107Q373 107 357.0 91.0Q341 75 341.0 53.0Q341 31 357.0 15.5Q373 0 395.0 0.0Q417 0 432.5 15.5Q448 31 448.0 53.0Q448 75 432.5 91.0Q417 107 395 107ZM83 80 108 66Q112 69 118.0 69.0Q124 69 128.5 64.5Q133 60 133 53V51L157 37L151 27L127 41Q123 37 117.0 37.0Q111 37 106.0 42.0Q101 47 101 53L102 55L77 69ZM77 315 102 329 101 331Q101 337 106.0 342.0Q111 347 117.0 347.0Q123 347 127 343L151 357L157 347L133 333V331Q133 324 128.5 319.5Q124 315 118.0 315.0Q112 315 108 318L83 304ZM361 357 385 343Q389 347 395.0 347.0Q401 347 406.0 342.0Q411 337 411 331L410 329L435 315L429 304L404 318Q400 315 394.0 315.0Q388 315 383.5 319.5Q379 324 379 331V333L355 347ZM355 37 379 53Q379 60 383.5 64.5Q388 69 394.0 69.0Q400 69 404 66L429 80L435 69L411 53Q411 47 406.0 42.0Q401 37 395.0 37.0Q389 37 385 41L361 27Z" />
      </g>
    </svg>