<svg xmlns="http://www.w3.org/2000/svg" viewBox="64 21 384 342">
      <g transform="scale(1 -1) translate(0 -384)">
        <path d="M448 320V64Q448 46 435.5 33.5Q423 21 405 21H107Q89 21 76.5 33.5Q64 46 64 64V320Q64 338 76.5 350.5Q89 363 107 363H405Q423 363 435.5 350.5Q448 338 448 320ZM256 235Q256 243 249.5 249.5Q243 256 235 256H139Q131 256 124.0 249.5Q117 243 117 235V128H149V224H171V149H203V224H224V128H256ZM309 256Q300 256 294.0 250.0Q288 244 288 235V149Q288 140 294.0 134.0Q300 128 309 128H331V96H357V128H373Q382 128 388.5 134.0Q395 140 395 149V235Q395 244 388.5 250.0Q382 256 373 256ZM320 224H363V160H320Z" />
      </g>
    </svg>