<svg xmlns="http://www.w3.org/2000/svg" viewBox="46 -20 414 425">
      <g transform="scale(1 -1) translate(0 -385)">
        <path d="M420 47Q427 55 429 63V70H461V65Q460 58 458.5 50.5Q457 43 452 30Q450 21 438 8L427 -2Q412 -14 393 -18Q384 -20 378 -19L369 -20Q358 -20 349 -18Q335 -15 324 -9Q310 1 294 21L282 38L266 35Q246 33 226 33Q197 35 172 43Q140 53 115 75Q71 112 55 164Q46 190 47 217V218Q47 241 56 271Q71 324 105 357Q152 402 230 405Q300 408 350 371Q390 341 410 294Q425 258 425 226Q425 203 420 183Q419 170 414.0 155.5Q409 141 403 132L402 130Q387 106 378.0 96.0Q369 86 355 73L352 70L364 57Q378 43 386 41L390 40Q412 36 420 47ZM271 79Q273 81 263 94L245 119Q237 133 218 137H203Q195 137 187 135L183 134Q183 136 181 140L177 145Q175 149 175 156Q175 158 185.0 163.0Q195 168 209 171Q227 175 243 175Q263 175 281 165Q293 159 303 149Q307 146 312.5 138.5Q318 131 322 128H323Q324 127 324 126Q328 123 332.5 141.0Q337 159 339.5 186.5Q342 214 341 237Q340 276 336 293Q332 314 320.5 330.5Q309 347 287.0 358.0Q265 369 243.5 369.0Q222 369 203 363Q172 354 158 331Q142 304 138 255Q135 230 137 211L136 192Q137 169 143 150Q150 123 166 107Q187 86 213 79Q227 76 249 77H256Z" />
      </g>
    </svg>