<svg xmlns="http://www.w3.org/2000/svg" viewBox="107 -11 298 416">
      <g transform="scale(1 -1) translate(0 -394)">
        <path d="M359 139Q354 142 342 156Q368 192 383 231Q405 286 405 341Q405 372 394.0 388.5Q383 405 363 405Q345 405 324.5 390.0Q304 375 286 348Q267 317 256 278Q245 317 226 348Q208 375 187.5 390.0Q167 405 149 405Q129 405 118.0 388.5Q107 372 107 341Q107 286 129 231Q144 192 170 156Q158 142 153 139L152 138Q138 126 131 115Q117 96 117 75Q117 39 142.0 14.0Q167 -11 203 -11Q223 -11 242 -5Q251 -2 256 1L262 -2Q271 -5 281 -8Q295 -11 309 -11Q345 -11 370.0 14.0Q395 39 395 75Q395 96 381 115Q374 126 360 138ZM199 188Q179 218 166 252Q149 297 149 341Q149 355 152 362Q164 358 179 340Q197 318 208 287Q223 247 224 199Q210 195 199 188ZM224 91Q220 91 216.5 95.5Q213 100 213.0 106.5Q213 113 216.5 118.0Q220 123 224.0 123.0Q228 123 231.5 118.0Q235 113 235.0 106.5Q235 100 231.5 95.5Q228 91 224 91ZM256 32Q248 32 241.5 40.0Q235 48 235.0 53.0Q235 58 241.0 61.0Q247 64 256.0 64.0Q265 64 271.0 61.0Q277 58 277.0 53.0Q277 48 270.5 40.0Q264 32 256 32ZM288 91Q284 91 280.5 95.5Q277 100 277.0 106.5Q277 113 280.5 118.0Q284 123 288.0 123.0Q292 123 295.5 118.0Q299 113 299.0 106.5Q299 100 295.5 95.5Q292 91 288 91ZM288 199Q289 247 304 287Q315 318 333 340Q348 358 360 362Q363 355 363 341Q363 297 346 252Q333 218 313 188Q302 195 288 199Z" />
      </g>
    </svg>