<svg xmlns="http://www.w3.org/2000/svg" viewBox="64 -43 384 470">
      <g transform="scale(1 -1) translate(0 -384)">
        <path d="M395 107Q417 107 432.5 91.5Q448 76 448.0 53.5Q448 31 432.5 15.5Q417 0 394.5 0.0Q372 0 356.5 15.5Q341 31 341.0 53.5Q341 76 356.5 91.5Q372 107 395 107ZM224 427Q165 427 132.0 416.0Q99 405 84 382Q70 361 67 323Q64 299 64 239Q64 205 85 166Q104 132 133.5 103.5Q163 75 192 62V-43H256V62Q285 75 314.5 103.5Q344 132 363 166Q384 205 384 239Q384 300 382 324Q378 362 364 382Q349 406 316.0 416.5Q283 427 224 427ZM329 358Q333 353 335 342Q337 335 339 320H320V367Q323 365 327 361ZM341 239Q341 237 341 235H320V299H341ZM299 149H235V213H299ZM149 149V213H213V149ZM107 239Q107 242 107 245V299H128V235H107ZM149 299H213V235H149ZM235 384Q261 384 294 378H299V320H235ZM213 320H149V375Q175 384 213 384ZM235 235V299H299V235ZM128 367V320H109Q111 335 113 342Q115 353 119 358ZM111 213H128V177L123 187Q114 204 111 213ZM171 128H213V100L209 102Q196 107 171 128ZM239 100H235V128H277Q252 107 239 100ZM320 177V213H337Q333 203 320 177Z" />
      </g>
    </svg>