<svg xmlns="http://www.w3.org/2000/svg" viewBox="43 -21 426 426">
      <g transform="scale(1 -1) translate(0 -384)">
        <path d="M407 343 377 313Q400 289 413.5 258.0Q427 227 427 192Q427 146 404.0 106.5Q381 67 341.5 44.0Q302 21 256.0 21.0Q210 21 170.5 44.0Q131 67 108.0 106.5Q85 146 85 192Q85 235 105.0 271.5Q125 308 159.0 332.0Q193 356 235 361V318Q189 310 158.5 274.5Q128 239 128 192Q128 157 145.0 127.5Q162 98 191.5 81.0Q221 64 256.0 64.0Q291 64 320.5 81.0Q350 98 367.0 127.5Q384 157 384 192Q384 218 374.0 241.5Q364 265 346 282L316 252Q341 227 341.0 192.0Q341 157 316.0 132.0Q291 107 256.0 107.0Q221 107 196.0 132.0Q171 157 171 192Q171 221 189.0 244.0Q207 267 235 274V229Q225 223 219.0 213.5Q213 204 213 192Q213 174 225.5 161.5Q238 149 256.0 149.0Q274 149 286.5 161.5Q299 174 299 192Q299 204 293.0 213.5Q287 223 277 229V405H256Q214 405 174.5 389.0Q135 373 105.0 343.0Q75 313 59.0 273.5Q43 234 43.0 192.0Q43 150 59.0 110.5Q75 71 105.0 41.0Q135 11 174.5 -5.0Q214 -21 256.0 -21.0Q298 -21 337.5 -5.0Q377 11 407.0 41.0Q437 71 453.0 110.5Q469 150 469.0 192.5Q469 235 452.5 274.0Q436 313 407 343Z" />
      </g>
    </svg>