<svg xmlns="http://www.w3.org/2000/svg" viewBox="43 -21 426 426">
      <g transform="scale(1 -1) translate(0 -384)">
        <path d="M256 405Q198 405 149.0 376.5Q100 348 71.5 299.0Q43 250 43.0 192.0Q43 134 71.5 85.0Q100 36 149.0 7.5Q198 -21 256.0 -21.0Q314 -21 363.0 7.5Q412 36 440.5 85.0Q469 134 469.0 192.0Q469 250 440.5 299.0Q412 348 363.0 376.5Q314 405 256 405ZM256 235Q274 235 286.5 222.5Q299 210 299.0 192.0Q299 174 286.5 161.5Q274 149 256.0 149.0Q238 149 225.5 161.5Q213 174 213.0 192.0Q213 210 225.5 222.5Q238 235 256 235ZM85 192Q85 244 114.0 286.5Q143 329 189 349L221 270Q198 259 184.5 238.0Q171 217 171 192ZM256 21Q207 21 166 47L213 118Q233 107 256.0 107.0Q279 107 299 118L346 47Q305 21 256 21ZM341 192Q341 217 327.5 238.0Q314 259 291 270L323 349Q370 329 398.5 286.5Q427 244 427 192Z" />
      </g>
    </svg>