<svg xmlns="http://www.w3.org/2000/svg" viewBox="21 -64 448 491">
      <g transform="scale(1 -1) translate(0 -363)">
        <path d="M21 357 64 314Q54 309 48.5 299.0Q43 289 43 277V21Q43 4 55.5 -8.5Q68 -21 85 -21H400L442 -64L469 -37L49 384ZM427 320H188L351 388L335 427L141 346L209 277H427V192H384V235H341V192H295L469 17V277Q469 295 456.5 307.5Q444 320 427 320ZM85 277H101L186 192H85ZM149 149Q176 149 194.5 130.5Q213 112 213.0 85.5Q213 59 194.5 40.0Q176 21 149.5 21.0Q123 21 104.0 40.0Q85 59 85.0 85.5Q85 112 104.0 130.5Q123 149 149 149Z" />
      </g>
    </svg>