<svg xmlns="http://www.w3.org/2000/svg" viewBox="21 -43 448 432">
      <g transform="scale(1 -1) translate(0 -346)">
        <path d="M21 357 49 384 448 -15 421 -43 368 11Q317 -21 255.5 -21.0Q194 -21 143 11L213 118Q233 107 256 107Q266 107 270 108L172 206Q171 202 171 192H43Q43 253 75 304ZM256 235Q274 235 286.5 222.5Q299 210 299 192V188L252 235ZM173 389 218 269 126 361Q147 378 173 389ZM341 192Q341 217 327.5 238.0Q314 259 291 270L339 389Q398 364 433.5 310.5Q469 257 469 192Z" />
      </g>
    </svg>