<svg xmlns="http://www.w3.org/2000/svg" viewBox="43 -21 426 410">
      <g transform="scale(1 -1) translate(0 -368)">
        <path d="M256 235Q274 235 286.5 222.5Q299 210 299.0 192.0Q299 174 286.5 161.5Q274 149 256.0 149.0Q238 149 225.5 161.5Q213 174 213.0 192.0Q213 210 225.5 222.5Q238 235 256 235ZM256 -21Q194 -21 143 11L213 118Q233 107 256.0 107.0Q279 107 299 118L369 11Q318 -21 256 -21ZM43 192Q43 257 78.5 310.5Q114 364 173 389L221 270Q198 259 184.5 238.0Q171 217 171 192ZM341 192Q341 217 327.5 238.0Q314 259 291 270L339 389Q398 364 433.5 310.5Q469 257 469 192Z" />
      </g>
    </svg>