<svg xmlns="http://www.w3.org/2000/svg" viewBox="43 -21 426 426">
      <g transform="scale(1 -1) translate(0 -384)">
        <path d="M256 405Q298 405 337.5 389.0Q377 373 407.0 343.0Q437 313 453.0 273.5Q469 234 469.0 192.0Q469 150 453.0 110.5Q437 71 407.0 41.0Q377 11 337.5 -5.0Q298 -21 256.0 -21.0Q214 -21 174.5 -5.0Q135 11 105.0 41.0Q75 71 59.0 110.5Q43 150 43 192Q43 250 71.5 299.0Q100 348 149.0 376.5Q198 405 256 405ZM256 363Q210 363 170.5 340.0Q131 317 108.0 277.5Q85 238 85.0 192.0Q85 146 108.0 106.5Q131 67 170.5 44.0Q210 21 256.0 21.0Q302 21 341.5 44.0Q381 67 404.0 106.5Q427 146 427 192Q427 226 414.0 257.5Q401 289 377.0 313.0Q353 337 321.5 350.0Q290 363 256 363ZM288 149 332 89Q298 64 256.0 64.0Q214 64 180 89L224 149Q239 139 256.0 139.0Q273 139 288 149ZM256 213Q265 213 271.0 207.0Q277 201 277.0 192.0Q277 183 271.0 177.0Q265 171 256.0 171.0Q247 171 241.0 177.0Q235 183 235.0 192.0Q235 201 241.0 207.0Q247 213 256 213ZM199 307 232 240Q219 233 211.0 220.5Q203 208 203 192H128Q128 229 147.5 259.5Q167 290 199 307ZM313 307Q345 290 364.5 259.5Q384 229 384 192H309Q309 208 301.0 220.5Q293 233 280 240Z" />
      </g>
    </svg>