<svg xmlns="http://www.w3.org/2000/svg" viewBox="43 -21 426 426">
      <g transform="scale(1 -1) translate(0 -384)">
        <path d="M170 384 139 337 170 290 127 224 90 243 120 290 90 337 133 403ZM298 386 267 339 298 292 255 226 218 245 248 292 218 339 261 405ZM427 386 396 339 427 292 384 226 347 245 377 292 347 339 389 405ZM43 -21V149Q43 167 55.5 179.5Q68 192 85 192H427Q444 192 456.5 179.5Q469 167 469 149V-21H427V21H85V-21ZM128 149Q119 149 113.0 143.0Q107 137 107 128V85Q107 76 113.0 70.0Q119 64 128.0 64.0Q137 64 143.0 70.0Q149 76 149 85V128Q149 137 143.0 143.0Q137 149 128 149ZM213 149Q204 149 198.0 143.0Q192 137 192 128V85Q192 76 198.0 70.0Q204 64 213.0 64.0Q222 64 228.5 70.0Q235 76 235 85V128Q235 137 228.5 143.0Q222 149 213 149ZM299 149Q290 149 283.5 143.0Q277 137 277 128V85Q277 76 283.5 70.0Q290 64 299.0 64.0Q308 64 314.0 70.0Q320 76 320 85V128Q320 137 314.0 143.0Q308 149 299 149ZM384 149Q375 149 369.0 143.0Q363 137 363 128V85Q363 76 369.0 70.0Q375 64 384.0 64.0Q393 64 399.0 70.0Q405 76 405 85V128Q405 137 399.0 143.0Q393 149 384 149Z" />
      </g>
    </svg>