<svg xmlns="http://www.w3.org/2000/svg" viewBox="43 -21 426 448">
      <g transform="scale(1 -1) translate(0 -406)">
        <path d="M427 320Q444 320 456.5 307.5Q469 295 469 277V21Q469 4 456.5 -8.5Q444 -21 427 -21H85Q68 -21 55.5 -8.5Q43 4 43 21V277Q43 291 50.5 302.0Q58 313 70 317L335 427L351 388L188 320ZM427 277H85V192H341V235H384V192H427ZM149 149Q123 149 104.0 130.5Q85 112 85.0 85.5Q85 59 104.0 40.0Q123 21 149.5 21.0Q176 21 194.5 40.0Q213 59 213.0 85.5Q213 112 194.5 130.5Q176 149 149 149Z" />
      </g>
    </svg>