<svg xmlns="http://www.w3.org/2000/svg" viewBox="43 -21 426 426">
      <g transform="scale(1 -1) translate(0 -384)">
        <path d="M70 405 43 378 102 319 120 290 90 243 127 224 154 267 229 192H85Q68 192 55.5 179.5Q43 167 43 149V-21H85V21H400L427 -6V-21H469V6ZM149 85Q149 76 143.0 70.0Q137 64 128.0 64.0Q119 64 113.0 70.0Q107 76 107 85V128Q107 137 113.0 143.0Q119 149 128.0 149.0Q137 149 143.0 143.0Q149 137 149 128ZM235 85Q235 76 228.5 70.0Q222 64 213.0 64.0Q204 64 198.0 70.0Q192 76 192 85V128Q192 137 198.0 143.0Q204 149 213.0 149.0Q222 149 228.5 143.0Q235 137 235 128ZM320 85Q320 76 314.0 70.0Q308 64 299.0 64.0Q290 64 283.5 70.0Q277 76 277 85V128Q277 134 281 140L320 101ZM347 245 377 292 347 339 389 405 427 386 396 339 427 292 384 226ZM469 149V60L405 124V128Q405 137 399.0 143.0Q393 149 384 149Q382 149 381 149L337 192H427Q444 192 456.5 179.5Q469 167 469 149ZM248 292 218 339 261 405 298 386 267 339 298 292 274 256 244 285ZM160 369 130 399 133 403 170 384Z" />
      </g>
    </svg>