<svg xmlns="http://www.w3.org/2000/svg" viewBox="43 -21 426 213">
      <g transform="scale(1 -1) translate(0 -171)">
        <path d="M427 192H85Q68 192 55.5 179.5Q43 167 43 149V-21H85V21H427V-21H469V149Q469 167 456.5 179.5Q444 192 427 192ZM149 85Q149 76 143.0 70.0Q137 64 128.0 64.0Q119 64 113.0 70.0Q107 76 107 85V128Q107 137 113.0 143.0Q119 149 128.0 149.0Q137 149 143.0 143.0Q149 137 149 128ZM235 85Q235 76 228.5 70.0Q222 64 213.0 64.0Q204 64 198.0 70.0Q192 76 192 85V128Q192 137 198.0 143.0Q204 149 213.0 149.0Q222 149 228.5 143.0Q235 137 235 128ZM320 85Q320 76 314.0 70.0Q308 64 299.0 64.0Q290 64 283.5 70.0Q277 76 277 85V128Q277 137 283.5 143.0Q290 149 299.0 149.0Q308 149 314.0 143.0Q320 137 320 128ZM405 85Q405 76 399.0 70.0Q393 64 384.0 64.0Q375 64 369.0 70.0Q363 76 363 85V128Q363 137 369.0 143.0Q375 149 384.0 149.0Q393 149 399.0 143.0Q405 137 405 128Z" />
      </g>
    </svg>