<svg xmlns="http://www.w3.org/2000/svg" viewBox="78 -21 363 426">
      <g transform="scale(1 -1) translate(0 -384)">
        <path d="M377 224Q357 224 340.5 212.5Q324 201 317 181H281V282L355 238L377 274L301 320L377 366L356 402L281 358V405H238V358L164 402L143 366L218 320L142 274L163 238L238 282V181H203Q194 206 174.0 216.5Q154 227 131.5 223.0Q109 219 93.5 202.5Q78 186 78.0 160.0Q78 134 93.5 117.5Q109 101 131.5 97.0Q154 93 174.0 103.5Q194 114 203 139H238V21Q221 21 208.5 8.5Q196 -4 196 -21H324Q324 -4 311.5 8.5Q299 21 281 21V139H317Q325 115 346.5 103.5Q368 92 391.5 97.5Q415 103 429.5 123.5Q444 144 440.5 167.5Q437 191 419.5 207.5Q402 224 377 224ZM142 139Q133 139 127.0 145.0Q121 151 121.0 160.0Q121 169 127.5 175.5Q134 182 142.5 181.5Q151 181 157.5 175.0Q164 169 164.0 160.0Q164 151 157.5 145.0Q151 139 142 139ZM377 139Q368 139 362.0 145.0Q356 151 355.5 160.0Q355 169 361.5 175.5Q368 182 377.0 181.5Q386 181 392.0 175.0Q398 169 398.0 160.0Q398 151 392.0 145.0Q386 139 377 139Z" />
      </g>
    </svg>