<svg xmlns="http://www.w3.org/2000/svg" viewBox="43 21 426 320">
      <g transform="scale(1 -1) translate(0 -362)">
        <path d="M427 277H469V235H427ZM85 341H427Q444 341 456.5 328.5Q469 316 469 299H405V256H107V171H171V107H405V85H469Q469 68 456.5 55.5Q444 43 427 43H341V21H299V43H235V21H149V43H85Q68 43 55.5 55.5Q43 68 43 85V299Q43 316 55.5 328.5Q68 341 85 341ZM405 128H192V235H405V213H469V171H405ZM277 192V149H320V192ZM107 320V277H128V320ZM149 320V277H171V320ZM192 320V277H213V320ZM235 320V277H256V320ZM277 320V277H299V320ZM320 320V277H341V320ZM427 149H469V107H427Z" />
      </g>
    </svg>