<svg xmlns="http://www.w3.org/2000/svg" viewBox="21 128 470 128">
      <g transform="scale(1 -1) translate(0 -384)">
        <path d="M427 256Q406 256 389.5 244.0Q373 232 366 213H316Q309 232 292.5 244.0Q276 256 256.0 256.0Q236 256 219.5 244.0Q203 232 196 213H146Q139 232 122.5 244.0Q106 256 85 256Q59 256 40.0 237.5Q21 219 21.0 192.0Q21 165 40.0 146.5Q59 128 85 128Q106 128 122.5 140.0Q139 152 146 171H196Q203 152 219.5 140.0Q236 128 256.0 128.0Q276 128 292.5 140.0Q309 152 316 171H366Q373 152 389.5 140.0Q406 128 427 128Q453 128 472.0 146.5Q491 165 491.0 192.0Q491 219 472.0 237.5Q453 256 427 256Z" />
      </g>
    </svg>