<svg xmlns="http://www.w3.org/2000/svg" viewBox="43 64 426 277">
      <g transform="scale(1 -1) translate(0 -405)">
        <path d="M469 341V277H43V341ZM469 171V64H43V171H75Q88 171 97.5 180.0Q107 189 107.0 202.5Q107 216 97.5 225.5Q88 235 75 235H43V256H469V235H437Q424 235 414.5 225.5Q405 216 405.0 202.5Q405 189 414.5 180.0Q424 171 437 171ZM277 213Q277 222 271.0 228.5Q265 235 256.0 235.0Q247 235 241.0 228.5Q235 222 235 213V171Q235 162 241.0 155.5Q247 149 256.0 149.0Q265 149 271.0 155.5Q277 162 277 171Z" />
      </g>
    </svg>