<svg xmlns="http://www.w3.org/2000/svg" viewBox="43 64 426 277">
      <g transform="scale(1 -1) translate(0 -405)">
        <path d="M427 277Q418 277 411.5 283.5Q405 290 405.0 298.5Q405 307 411.5 313.5Q418 320 427 320V341H85V320Q94 320 100.5 313.5Q107 307 107.0 298.5Q107 290 100.5 283.5Q94 277 85 277H43V128H85Q94 128 100.5 121.5Q107 115 107.0 106.5Q107 98 100.5 91.5Q94 85 85 85V64H427V85Q418 85 411.5 91.5Q405 98 405.0 106.5Q405 115 411.5 121.5Q418 128 427 128H469V277ZM427 192H405V171H363V192H286Q283 183 274.5 177.0Q266 171 256.0 171.0Q246 171 237.5 177.0Q229 183 226 192H149V171H107V192H85V213H107V235H149V213H226Q229 223 237.5 229.0Q246 235 256.0 235.0Q266 235 274.5 229.0Q283 223 286 213H363V235H405V213H427Z" />
      </g>
    </svg>