<svg xmlns="http://www.w3.org/2000/svg" viewBox="27 -13 458 411">
      <g transform="scale(1 -1) translate(0 -385)">
        <path d="M256 232Q273 232 284.5 220.5Q296 209 296.0 192.5Q296 176 284.0 164.5Q272 153 256.0 153.0Q240 153 228.0 164.5Q216 176 216.0 192.5Q216 209 227.5 220.5Q239 232 256 232ZM157 21Q168 15 188.5 24.5Q209 34 234 58Q217 77 202 98Q175 101 151 106Q143 72 145.0 49.5Q147 27 157 21ZM172 144 166 155Q161 142 160 136L179 133ZM312 160 329 192 312 224 292 255Q281 256 256.0 256.0Q231 256 220 255L200 224L183 192L200 160L220 129Q231 128 256.0 128.0Q281 128 292 129ZM256 303Q256 303 256 303Q248 294 243 288H269Q264 294 256 303ZM256 81Q256 81 256 81Q264 90 269 96H243Q248 90 256 81ZM355 363Q344 369 323.5 359.5Q303 350 278 326Q295 307 310 286Q337 283 361 278Q369 312 367.0 334.5Q365 357 355 363ZM340 240 346 229Q351 242 352 248L333 251ZM371 391Q393 378 398 344Q403 314 392 271Q435 258 459 239Q485 218 485.0 192.0Q485 166 459 145Q435 126 392 113Q403 70 398 40Q393 6 370.5 -7.0Q348 -20 317 -7Q288 4 256 35Q224 4 195 -7Q164 -20 141.5 -7.0Q119 6 114 40Q109 70 120 113Q77 126 53 145Q27 166 27.0 192.0Q27 218 53 239Q77 258 120 271Q109 314 114 344Q119 378 141.5 391.0Q164 404 195 391Q224 380 256 349Q288 380 317 391Q348 404 371 391ZM364 192Q376 167 383 144Q416 154 434.5 167.0Q453 180 453.0 192.0Q453 204 434.5 217.0Q416 230 383 240Q376 217 364 192ZM148 192Q136 217 129 240Q96 230 77.5 217.0Q59 204 59.0 192.0Q59 180 77.5 167.0Q96 154 129 144Q136 167 148 192ZM340 144Q340 144 340 144L333 133L352 136Q351 142 346 155ZM278 58Q303 34 323.5 24.5Q344 15 354.5 21.0Q365 27 367.0 49.5Q369 72 361 106Q337 101 310 98Q295 77 278 58ZM172 240Q173 240 173 241L179 251L160 248Q161 242 166 229ZM234 326Q209 350 188.5 359.5Q168 369 157.5 363.0Q147 357 145.0 334.5Q143 312 151 278Q175 283 202 286Q217 307 234 326Z" />
      </g>
    </svg>