<svg xmlns="http://www.w3.org/2000/svg" viewBox="64 -33 417 438">
      <g transform="scale(1 -1) translate(0 -372)">
        <path d="M451 118 405 73 360 118 330 88 375 43 330 -3 360 -33 405 13 451 -33 481 -3 435 43 481 88ZM416 373 384 405 352 373 320 405 288 373 256 405 224 373 192 405 160 373 128 405 96 373 64 405V-21L96 11L128 -21L160 11L192 -21L224 11L256 -21L283 6Q277 24 277 43Q277 64 285 85H128V128H310Q328 148 353.0 159.5Q378 171 405 171Q427 171 448 163V405ZM384 171H128V213H384ZM384 256H128V299H384Z" />
      </g>
    </svg>