<svg xmlns="http://www.w3.org/2000/svg" viewBox="64 -33 417 438">
      <g transform="scale(1 -1) translate(0 -372)">
        <path d="M451 118 405 73 360 118 330 88 375 43 330 -3 360 -33 405 13 451 -33 481 -3 435 43 481 88ZM283 6 256 -21 224 11 192 -21 160 11 128 -21 96 11 64 -21V405L96 373L128 405L160 373L192 405L224 373L256 405L288 373L320 405L352 373L384 405L416 373L448 405V163Q427 171 405 171V341H107V43H277Q277 24 283 6ZM310 128Q293 110 285 85H128V128ZM128 213H384V171H128ZM128 299H384V256H128Z" />
      </g>
    </svg>