<svg xmlns="http://www.w3.org/2000/svg" viewBox="107 21 320 320">
      <g transform="scale(1 -1) translate(0 -362)">
        <path d="M267 341Q235 341 205.5 329.0Q176 317 153.5 294.5Q131 272 119.0 242.5Q107 213 107 181Q107 138 128.5 101.0Q150 64 186.5 42.5Q223 21 266.5 21.0Q310 21 347.0 42.5Q384 64 405.5 101.0Q427 138 427 181Q427 213 414.5 242.5Q402 272 379.5 294.5Q357 317 327.5 329.0Q298 341 267 341ZM149 235H192Q201 235 207.0 228.5Q213 222 213 213V192Q213 184 208.0 178.0Q203 172 195 171L220 128H195L171 171V128H149ZM256 235H299V213H256V192H299V171H256V149H299V128H256Q247 128 241.0 134.0Q235 140 235 149V213Q235 222 241.0 228.5Q247 235 256 235ZM341 235H384V213H341V149H384V128H341Q332 128 326.0 134.0Q320 140 320 149V213Q320 222 326.0 228.5Q332 235 341 235ZM171 213V192H192V213Z" />
      </g>
    </svg>