<svg xmlns="http://www.w3.org/2000/svg" viewBox="21 64 470 235">
      <g transform="scale(1 -1) translate(0 -363)">
        <path d="M107 75Q107 70 103.5 67.0Q100 64 96 64H75Q70 64 67.0 67.0Q64 70 64 75V85H43Q34 85 27.5 91.5Q21 98 21 107V171Q21 180 27.5 186.0Q34 192 43 192H405V235H149L128 213V256Q128 265 134.0 271.0Q140 277 149 277H405V299H448V277Q457 277 463.0 271.0Q469 265 469 256V235H448V192H469Q478 192 484.5 186.0Q491 180 491 171V107Q491 98 484.5 91.5Q478 85 469 85H448V75Q448 70 445.0 67.0Q442 64 437 64H416Q412 64 408.5 67.0Q405 70 405 75V85H107ZM64 149V128H107V149ZM128 149V128H171V149ZM437 160Q428 160 422.0 154.0Q416 148 416.0 139.0Q416 130 422.0 123.5Q428 117 437.0 117.0Q446 117 452.5 123.5Q459 130 459.0 139.0Q459 148 452.5 154.0Q446 160 437 160Z" />
      </g>
    </svg>