<svg xmlns="http://www.w3.org/2000/svg" viewBox="41 -43 431 426">
      <g transform="scale(1 -1) translate(0 -340)">
        <path d="M465 119 412 27Q404 13 391.0 6.0Q378 -1 363 0H320V-43L267 53L320 149V107H380L333 189L425 242L464 176Q472 163 472.5 147.5Q473 132 465 119ZM196 383H303Q319 383 331.5 374.5Q344 366 351 353L372 316L409 337L353 243L243 241L280 263L250 315L203 233L110 286L148 353Q155 366 168.0 374.5Q181 383 196 383ZM108 26 54 119Q47 132 47.5 147.5Q48 163 56 175L78 212L41 233L150 232L207 137L170 159L140 107H235V0H158Q143 -1 129.5 6.0Q116 13 108 26Z" />
      </g>
    </svg>