<svg xmlns="http://www.w3.org/2000/svg" viewBox="43 -21 426 426">
      <g transform="scale(1 -1) translate(0 -384)">
        <path d="M309 119Q311 118 311.0 115.5Q311 113 309 111Q299 101 280 97Q268 95 256.0 95.0Q244 95 232 97Q213 101 204 111Q202 113 202.0 115.5Q202 118 203.5 119.5Q205 121 207.5 121.0Q210 121 212 119Q218 113 232 109Q243 107 256.0 107.0Q269 107 280 109Q294 113 301 119Q305 123 309 119ZM229 170Q229 179 222.5 185.5Q216 192 207.0 192.0Q198 192 191.5 185.5Q185 179 185.0 170.0Q185 161 191.5 154.0Q198 147 207.0 147.5Q216 148 222.5 154.5Q229 161 229 170ZM305 192Q296 192 289.5 185.0Q283 178 283.0 169.5Q283 161 289.5 154.0Q296 147 305.0 147.0Q314 147 320.5 154.0Q327 161 327.0 169.5Q327 178 320.5 185.0Q314 192 305 192ZM469 192Q469 134 440.5 85.0Q412 36 363.0 7.5Q314 -21 256.0 -21.0Q198 -21 149.0 7.5Q100 36 71.5 85.0Q43 134 43.0 192.0Q43 250 71.5 299.0Q100 348 149.0 376.5Q198 405 256.0 405.0Q314 405 363.0 376.5Q412 348 440.5 299.0Q469 250 469 192ZM398 192Q398 205 389.0 214.0Q380 223 367.5 223.0Q355 223 346 214Q312 239 262 241L277 308L323 298Q323 289 329.5 282.5Q336 276 345.0 276.0Q354 276 360.5 283.0Q367 290 367.0 299.0Q367 308 360.5 314.5Q354 321 345 321Q339 321 333.5 317.5Q328 314 325 308L273 319Q272 320 270.0 318.5Q268 317 267 315L252 241Q202 239 167 214Q158 223 145.0 223.0Q132 223 123.0 214.0Q114 205 114 192Q114 182 119.0 174.5Q124 167 132 163V154Q132 131 148.5 111.0Q165 91 193.5 79.0Q222 67 256.0 67.0Q290 67 318.5 79.0Q347 91 364.0 110.5Q381 130 381 154Q381 159 380 163Q388 167 393.0 175.0Q398 183 398 192Z" />
      </g>
    </svg>