<svg xmlns="http://www.w3.org/2000/svg" viewBox="43 31 426 322">
      <g transform="scale(1 -1) translate(0 -384)">
        <path d="M327 167Q355 167 372 174Q396 184 396 207Q396 210 395 214L379 287Q376 300 370 306Q363 314 344.0 323.5Q325 333 299 343Q270 353 260 353Q254 353 245.0 345.0Q236 337 228.0 337.0Q220 337 207.0 343.0Q194 349 188 349Q169 349 159 321L137 260V256Q137 244 162 224Q190 201 229 186Q277 167 327 167ZM400 193Q404 175 404 171Q404 147 381.5 134.0Q359 121 323 121Q273 121 225 139Q182 155 154.0 179.0Q126 203 126 223Q126 232 129 240Q92 238 72 229Q43 217 43 188Q43 154 91 116Q137 80 206 56Q278 31 342 31Q411 31 444 58Q469 79 469 113Q469 135 451.0 157.0Q433 179 400 193Z" />
      </g>
    </svg>