<svg xmlns="http://www.w3.org/2000/svg" viewBox="106 -43 299 470">
      <g transform="scale(1 -1) translate(0 -384)">
        <path d="M384 -43H128Q114 -43 109 -31Q106 -25 106.5 -19.0Q107 -13 111 -9L239 163Q245 171 256.0 171.0Q267 171 273 163L401 -9Q405 -13 405.5 -19.0Q406 -25 403 -31Q398 -43 384 -43ZM384 427Q398 427 403 415Q406 409 405.5 403.0Q405 397 401 393L273 221Q267 213 256.0 213.0Q245 213 239 221L111 393Q107 397 106.5 403.0Q106 409 109 415Q114 427 128 427ZM171 384 256 270 341 384Z" />
      </g>
    </svg>