<svg xmlns="http://www.w3.org/2000/svg" viewBox="43 -21 426 426">
      <g transform="scale(1 -1) translate(0 -384)">
        <path d="M256 405Q198 405 149.0 376.5Q100 348 71.5 299.0Q43 250 43.0 192.0Q43 134 71.5 85.0Q100 36 149.0 7.5Q198 -21 256.0 -21.0Q314 -21 363.0 7.5Q412 36 440.5 85.0Q469 134 469 192Q469 234 453.0 273.5Q437 313 407.0 343.0Q377 373 337.5 389.0Q298 405 256 405ZM384 213H277L316 252Q291 277 257.0 277.0Q223 277 198.5 255.0Q174 233 171.0 199.5Q168 166 188.5 140.0Q209 114 241.5 108.0Q274 102 302.0 120.0Q330 138 338 171H382Q377 138 356.0 112.5Q335 87 305.0 74.0Q275 61 241.5 65.0Q208 69 181.5 88.0Q155 107 140.5 136.5Q126 166 128.0 199.5Q130 233 147.5 260.5Q165 288 194.0 304.0Q223 320 256 320Q281 320 304.5 310.0Q328 300 346 282L384 320Z" />
      </g>
    </svg>