<svg xmlns="http://www.w3.org/2000/svg" viewBox="85 21 342 342">
      <g transform="scale(1 -1) translate(0 -384)">
        <path d="M377 313Q353 336 322.0 349.5Q291 363 256 363Q210 363 170.5 340.0Q131 317 108.0 277.5Q85 238 85.0 192.0Q85 146 108.0 106.5Q131 67 170.5 44.0Q210 21 256 21Q315 21 360.5 57.0Q406 93 421 149H377Q363 112 330.0 88.0Q297 64 256 64Q221 64 191.5 81.0Q162 98 145.0 127.5Q128 157 128.0 192.0Q128 227 145.0 256.5Q162 286 191.5 303.0Q221 320 256 320Q282 320 305.0 310.0Q328 300 346 282L277 213H427V363Z" />
      </g>
    </svg>