<svg xmlns="http://www.w3.org/2000/svg" viewBox="43 -21 426 426">
      <g transform="scale(1 -1) translate(0 -384)">
        <path d="M271 320H241L149 107H192L208 149H304L320 107H363ZM220 181 256 277 292 181ZM371 13 405 -21H299V85L341 43Q380 65 403.5 105.0Q427 145 427.0 191.5Q427 238 404.0 277.5Q381 317 341.5 340.0Q302 363 256.0 363.0Q210 363 170.5 340.0Q131 317 108.0 277.5Q85 238 85.0 192.0Q85 146 108.5 106.5Q132 67 171 44V-3Q113 22 78.0 74.5Q43 127 43 192Q43 250 71.5 299.0Q100 348 149.0 376.5Q198 405 256.0 405.0Q314 405 363.0 376.5Q412 348 440.5 299.0Q469 250 469.0 193.0Q469 136 442.5 89.0Q416 42 371 13Z" />
      </g>
    </svg>