<svg xmlns="http://www.w3.org/2000/svg" viewBox="107 0 341 341">
      <g transform="scale(1 -1) translate(0 -341)">
        <path d="M341 87Q330 85 320.0 85.0Q310 85 299 87V162L245 109Q229 122 216 139L269 192H194Q192 203 192.0 213.0Q192 223 194 235H269L216 288Q223 298 230 304Q235 310 245 318L299 265V340Q310 341 320.0 341.0Q330 341 341 340V265L395 318Q411 305 424 288L371 235H446Q448 223 448.0 213.0Q448 203 446 192H371L424 139Q417 129 410 123Q405 117 395 109L341 162ZM107 43Q107 60 119.5 72.5Q132 85 149.5 85.0Q167 85 179.5 72.5Q192 60 192.0 42.5Q192 25 179.5 12.5Q167 0 149.5 0.0Q132 0 119.5 12.5Q107 25 107 43Z" />
      </g>
    </svg>