<svg xmlns="http://www.w3.org/2000/svg" viewBox="21 21 470 342">
      <g transform="scale(1 -1) translate(0 -384)">
        <path d="M224 363Q188 363 157.5 346.0Q127 329 107.5 299.5Q88 270 85 235H21L107 149L192 235H129Q133 271 160.0 295.5Q187 320 224 320Q264 320 292.0 292.0Q320 264 320.0 224.0Q320 184 292.0 156.0Q264 128 224 128H43V85H224Q262 85 293.5 104.0Q325 123 344.0 154.5Q363 186 363.0 224.0Q363 262 344.0 293.5Q325 325 293.5 344.0Q262 363 224 363ZM405 192V128H352Q332 102 304 85H405V21L491 107Z" />
      </g>
    </svg>