<svg xmlns="http://www.w3.org/2000/svg" viewBox="43 43 426 298">
      <g transform="scale(1 -1) translate(0 -384)">
        <path d="M448 128V171H405V128H384V171H341V128H277V299H209Q202 313 189.0 322.0Q176 331 160.0 331.0Q144 331 131.0 322.0Q118 313 111 299H107L64 341H43V213H64L107 256H111Q118 241 131.0 232.5Q144 224 160.0 224.0Q176 224 189.0 232.5Q202 241 209 256H235V85H341V43H384V85H405V43H448V85H469V128ZM160 256Q151 256 145.0 262.0Q139 268 139.0 277.0Q139 286 145.0 292.5Q151 299 160.0 299.0Q169 299 175.0 292.5Q181 286 181.0 277.0Q181 268 175.0 262.0Q169 256 160 256Z" />
      </g>
    </svg>