<svg xmlns="http://www.w3.org/2000/svg" viewBox="43 43 426 298">
      <g transform="scale(1 -1) translate(0 -384)">
        <path d="M448 171 405 128H401Q394 143 381.0 151.5Q368 160 352.0 160.0Q336 160 323.0 151.5Q310 143 303 128H277V299H209Q202 313 189.0 322.0Q176 331 160.0 331.0Q144 331 131.0 322.0Q118 313 111 299H107V341H64V299H43V256H64V213H107V256H111Q118 241 131.0 232.5Q144 224 160.0 224.0Q176 224 189.0 232.5Q202 241 209 256H235V85H303Q310 71 323.0 62.0Q336 53 352.0 53.0Q368 53 381.0 62.0Q394 71 401 85H405L448 43H469V171ZM160 256Q151 256 145.0 262.0Q139 268 139.0 277.0Q139 286 145.0 292.5Q151 299 160.0 299.0Q169 299 175.0 292.5Q181 286 181.0 277.0Q181 268 175.0 262.0Q169 256 160 256ZM352 85Q343 85 337.0 91.5Q331 98 331.0 107.0Q331 116 337.0 122.0Q343 128 352.0 128.0Q361 128 367.0 122.0Q373 116 373.0 107.0Q373 98 367.0 91.5Q361 85 352 85Z" />
      </g>
    </svg>