<svg xmlns="http://www.w3.org/2000/svg" viewBox="43 43 426 298">
      <g transform="scale(1 -1) translate(0 -384)">
        <path d="M448 128V171H405V128H401Q394 143 381.0 151.5Q368 160 352.0 160.0Q336 160 323.0 151.5Q310 143 303 128H277V299H107L64 341H43V213H64L107 256H235V85H303Q310 71 323.0 62.0Q336 53 352.0 53.0Q368 53 381.0 62.0Q394 71 401 85H405V43H448V85H469V128ZM352 85Q343 85 337.0 91.5Q331 98 331.0 107.0Q331 116 337.0 122.0Q343 128 352.0 128.0Q361 128 367.0 122.0Q373 116 373.0 107.0Q373 98 367.0 91.5Q361 85 352 85Z" />
      </g>
    </svg>