<svg xmlns="http://www.w3.org/2000/svg" viewBox="43 0 448 384">
      <g transform="scale(1 -1) translate(0 -384)">
        <path d="M43 192Q43 140 68.5 95.5Q94 51 138.0 25.5Q182 0 235 0Q273 0 308.5 14.0Q344 28 371 55L339 87Q298 43 235 43Q187 43 149 69Q114 94 97.0 134.5Q80 175 87 217Q95 263 130.0 296.5Q165 330 210 338Q253 346 293.0 329.0Q333 312 358 277Q384 240 384 192H320L405 107H407L491 192H427Q427 244 401.0 288.5Q375 333 331.0 358.5Q287 384 234.5 384.0Q182 384 138.0 358.5Q94 333 68.5 288.5Q43 244 43 192ZM213 128H256V85H213ZM213 299H256V171H213Z" />
      </g>
    </svg>