<svg xmlns="http://www.w3.org/2000/svg" viewBox="43 0 448 384">
      <g transform="scale(1 -1) translate(0 -384)">
        <path d="M43 192Q43 140 68.5 96.0Q94 52 138.5 26.0Q183 0 235 0Q273 0 308.5 14.5Q344 29 371 55L339 87Q319 66 292.0 54.5Q265 43 235 43Q187 43 149 69Q114 94 97.0 135.0Q80 176 87 218Q95 264 129.0 298.0Q163 332 209 339Q251 347 292.0 330.0Q333 313 357 278Q384 240 384 192H320L405 107H407L491 192H427Q427 244 401.0 288.0Q375 332 331.0 358.0Q287 384 235.0 384.0Q183 384 138.5 358.0Q94 332 68.5 288.0Q43 244 43 192Z" />
      </g>
    </svg>