<svg xmlns="http://www.w3.org/2000/svg" viewBox="43 -43 395 470">
      <g transform="scale(1 -1) translate(0 -384)">
        <path d="M155 384Q175 384 192 372V384Q192 402 204.5 414.5Q217 427 234.5 427.0Q252 427 264.5 414.5Q277 402 277 384V372Q295 384 315 384Q341 384 360.0 365.5Q379 347 379.0 321.0Q379 295 362.0 276.5Q345 258 320 256H277V235H304L314 232L412 183Q438 173 438 144L437 141V138L416 -6Q414 -21 402.0 -32.0Q390 -43 375 -43H213Q196 -43 183 -30L43 110L65 133Q75 142 88 142H95L192 121V256H149Q125 258 108.0 276.5Q91 295 91.0 321.0Q91 347 109.5 365.5Q128 384 155 384ZM192 320Q192 335 181.0 346.0Q170 357 154.5 357.0Q139 357 128.0 346.0Q117 335 117.0 320.5Q117 306 126.5 295.5Q136 285 149 283H192ZM320 283Q334 285 343.0 295.5Q352 306 352.0 320.5Q352 335 341.0 346.0Q330 357 314.5 357.0Q299 357 288.0 346.0Q277 335 277 320V283Z" />
      </g>
    </svg>