<svg xmlns="http://www.w3.org/2000/svg" viewBox="43 -21 384 426">
      <g transform="scale(1 -1) translate(0 -384)">
        <path d="M43 336 70 363 427 6 400 -21 363 16Q360 0 348.0 -10.5Q336 -21 320 -21H192Q174 -21 161.5 -8.5Q149 4 149 21V229ZM192 405H235V363H277V405H320Q338 405 350.5 392.5Q363 380 363 363V124L277 209V235H320V277H277V320H235V277H209L149 337V363Q149 380 161.5 392.5Q174 405 192 405ZM192 21H235V64H192ZM277 21H320V58L314 64H277ZM192 149V107H235V144L229 149Z" />
      </g>
    </svg>