<svg xmlns="http://www.w3.org/2000/svg" viewBox="43 -43 405 491">
      <g transform="scale(1 -1) translate(0 -405)">
        <path d="M43 336 70 363 448 -15 421 -43 341 37V-21Q341 -30 335.0 -36.5Q329 -43 320 -43H192Q183 -43 177.0 -36.5Q171 -30 171 -21V208ZM256 448Q304 448 347.0 430.0Q390 412 422 379L392 349Q365 376 330.0 390.5Q295 405 256 405Q220 405 187.5 392.5Q155 380 129 358L99 388Q131 416 171.5 432.0Q212 448 256 448ZM256 363Q287 363 314.0 351.5Q341 340 362 319L332 289Q317 304 297.5 312.0Q278 320 256 320Q219 320 190 297L160 327Q179 344 204.0 353.5Q229 363 256 363ZM320 256Q329 256 335.0 250.0Q341 244 341 235V145L231 256ZM214 164Q216 150 226.0 140.0Q236 130 250 128Z" />
      </g>
    </svg>