<svg xmlns="http://www.w3.org/2000/svg" viewBox="90 -43 332 491">
      <g transform="scale(1 -1) translate(0 -405)">
        <path d="M256 448Q208 448 165.0 430.0Q122 412 90 379L120 349Q147 376 182.0 390.5Q217 405 256.0 405.0Q295 405 330.0 390.5Q365 376 392 349L422 379Q389 412 346.5 430.0Q304 448 256 448ZM150 319 180 289Q195 304 214.5 312.0Q234 320 256.0 320.0Q278 320 297.5 312.0Q317 304 332 289L362 319Q341 340 313.5 351.5Q286 363 256.0 363.0Q226 363 198.5 351.5Q171 340 150 319ZM256 128Q238 128 225.5 140.5Q213 153 213.0 170.5Q213 188 225.5 200.5Q238 213 256.0 213.0Q274 213 286.5 200.5Q299 188 299.0 170.5Q299 153 286.5 140.5Q274 128 256 128ZM320 256H192Q183 256 177.0 250.0Q171 244 171 235V-21Q171 -30 177.0 -36.5Q183 -43 192 -43H320Q329 -43 335.0 -36.5Q341 -30 341 -21V235Q341 244 335.0 250.0Q329 256 320 256Z" />
      </g>
    </svg>