<svg xmlns="http://www.w3.org/2000/svg" viewBox="85 0 342 427">
      <g transform="scale(1 -1) translate(0 -427)">
        <path d="M256 341V427L149 320L256 213V299Q291 299 320.5 281.5Q350 264 367.0 234.5Q384 205 384.0 170.5Q384 136 367.0 106.5Q350 77 320.5 60.0Q291 43 256.0 43.0Q221 43 191.5 60.0Q162 77 145.0 106.5Q128 136 128 171H85Q85 124 108.0 85.0Q131 46 170.5 23.0Q210 0 256.0 0.0Q302 0 341.5 23.0Q381 46 404.0 85.0Q427 124 427.0 170.5Q427 217 404.0 256.0Q381 295 341.5 318.0Q302 341 256 341Z" />
      </g>
    </svg>