<svg xmlns="http://www.w3.org/2000/svg" viewBox="43 -2 423 407">
      <g transform="scale(1 -1) translate(0 -403)">
        <path d="M271 167 291 186Q290 207 301.5 230.5Q313 254 333.5 274.5Q354 295 377.5 306.0Q401 317 421.5 317.0Q442 317 454.0 304.5Q466 292 466.5 271.5Q467 251 455.5 227.5Q444 204 423.5 183.5Q403 163 379.5 152.0Q356 141 336 141L317 122Q311 117 304.0 116.0Q297 115 290 119Q275 114 265 108Q253 100 247.0 90.0Q241 80 235.0 56.0Q229 32 223 22Q207 -2 162 -2Q137 -2 122 3Q99 11 84 32L137 23Q147 22 166.0 31.0Q185 40 193 52Q199 62 205.0 86.5Q211 111 216 120Q223 131 237 139Q247 145 265 151Q265 161 271 167ZM149 405Q178 405 202.5 391.0Q227 377 241.5 352.5Q256 328 256.0 299.0Q256 270 241.5 245.5Q227 221 202.5 206.5Q178 192 149.0 192.0Q120 192 95.5 206.5Q71 221 57.0 245.5Q43 270 43.0 299.0Q43 328 57.0 352.5Q71 377 95.5 391.0Q120 405 149 405ZM149 363Q123 363 104.0 344.0Q85 325 85.0 298.5Q85 272 104.0 253.5Q123 235 149.5 235.0Q176 235 194.5 253.5Q213 272 213.0 298.5Q213 325 194.5 344.0Q176 363 149 363Z" />
      </g>
    </svg>