<svg xmlns="http://www.w3.org/2000/svg" viewBox="43 21 426 342">
      <g transform="scale(1 -1) translate(0 -384)">
        <path d="M43 213H78Q85 232 101.5 244.0Q118 256 139 256Q165 256 184.0 237.5Q203 219 203 192Q203 172 191 155L215 121L280 363L356 254L373 256Q394 256 410.5 244.0Q427 232 434 213H469V171H434Q427 152 410.5 140.0Q394 128 373 128Q347 128 328.0 146.5Q309 165 309 192Q309 212 321 229L297 263L232 21L156 130Q147 128 139 128Q118 128 101.5 140.0Q85 152 78 171H43ZM373 224Q360 224 350.5 214.5Q341 205 341.0 192.0Q341 179 350.5 169.5Q360 160 373.5 160.0Q387 160 396.0 169.5Q405 179 405.0 192.0Q405 205 396.0 214.5Q387 224 373 224ZM139 224Q125 224 116.0 214.5Q107 205 107.0 192.0Q107 179 116.0 169.5Q125 160 138.5 160.0Q152 160 161.5 169.5Q171 179 171.0 192.0Q171 205 161.5 214.5Q152 224 139 224Z" />
      </g>
    </svg>