<svg xmlns="http://www.w3.org/2000/svg" viewBox="85 21 339 413">
      <g transform="scale(1 -1) translate(0 -455)">
        <path d="M256 363Q290 363 321.0 350.0Q352 337 375 314Q408 281 419.5 237.0Q431 193 419.5 149.0Q408 105 375 73Q348 43 309 30Q272 18 233 23L243 66Q271 63 298.0 72.5Q325 82 346 102Q370 127 378.5 159.5Q387 192 378.5 225.5Q370 259 346 284Q328 301 304.0 310.5Q280 320 256 320V222L149 329L256 435ZM134 73Q93 114 86.5 171.5Q80 229 109 279L141 247Q123 212 129.5 171.5Q136 131 166 102Q182 86 205 77L192 34Q160 47 134 73Z" />
      </g>
    </svg>