<svg xmlns="http://www.w3.org/2000/svg" viewBox="42 21 426 412">
      <g transform="scale(1 -1) translate(0 -454)">
        <path d="M213 362V434L107 328L213 221V319Q238 319 262.0 309.5Q286 300 303 283Q327 258 335.5 225.0Q344 192 335.5 159.0Q327 126 303 102Q283 81 255.5 71.5Q228 62 201 65L190 23Q230 18 266 30Q305 42 333 72Q365 104 376.5 148.0Q388 192 376.5 236.0Q365 280 333 313Q309 337 278.0 349.5Q247 362 213 362ZM92 72Q118 46 149 33L162 76Q140 86 124 102Q94 130 87.0 170.5Q80 211 98 247L66 279Q37 229 44.0 171.0Q51 113 92 72ZM427 171H469V299H427ZM427 85H469V128H427Z" />
      </g>
    </svg>