<svg xmlns="http://www.w3.org/2000/svg" viewBox="23 -36 448 469">
      <g transform="scale(1 -1) translate(0 -397)">
        <path d="M444 -36 354 53Q327 34 295.5 26.5Q264 19 233 23L243 66Q287 63 322 85L23 384L51 412L471 -9ZM256 320Q281 320 304.5 310.0Q328 300 346 282Q374 253 381.0 215.0Q388 177 373 141L405 109Q433 157 425.0 213.5Q417 270 375 311Q352 336 320.5 349.5Q289 363 256 363V433L169 348L256 260ZM141 247 109 279Q80 229 86.5 171.0Q93 113 134 70Q162 46 192 34L203 77Q183 86 164 102Q136 131 129.5 171.5Q123 212 141 247Z" />
      </g>
    </svg>