<svg xmlns="http://www.w3.org/2000/svg" viewBox="21 0 448 384">
      <g transform="scale(1 -1) translate(0 -384)">
        <path d="M277 384Q225 384 181.0 358.5Q137 333 111.0 288.5Q85 244 85 192H21L107 107L192 192H128Q128 233 148.0 267.0Q168 301 202.0 321.0Q236 341 277.0 341.0Q318 341 352.5 321.0Q387 301 407.0 267.0Q427 233 427.0 192.0Q427 151 407.0 117.0Q387 83 352.5 63.0Q318 43 277 43Q247 43 219.5 54.5Q192 66 173 87L143 58Q169 30 203.5 15.0Q238 0 277 0Q330 0 374.0 25.5Q418 51 443.5 95.5Q469 140 469.0 192.0Q469 244 443.5 288.5Q418 333 374.0 358.5Q330 384 277 384ZM256 128H299V85H256ZM256 299H299V171H256Z" />
      </g>
    </svg>