<svg xmlns="http://www.w3.org/2000/svg" viewBox="64 -21 416 405">
      <g transform="scale(1 -1) translate(0 -363)">
        <path d="M405 149V21Q405 4 392.5 -8.5Q380 -21 363 -21H320Q302 -21 289.5 -8.5Q277 4 277 21V149Q277 167 289.5 179.5Q302 192 320 192H363Q380 192 392.5 179.5Q405 167 405 149ZM320 149V21H363V149ZM267 384Q340 384 398.5 341.0Q457 298 480 230L429 213Q411 265 366.5 298.0Q322 331 267 331Q205 331 158 290L213 235H64V384L119 329Q149 355 187.5 369.5Q226 384 267 384ZM149 192Q132 192 119.5 179.5Q107 167 107 149V21Q107 4 119.5 -8.5Q132 -21 149 -21H192Q210 -21 222.5 -8.5Q235 4 235 21V64Q235 82 222.5 94.5Q210 107 192 107H149V149H235V192ZM149 64H192V21H149Z" />
      </g>
    </svg>