<svg xmlns="http://www.w3.org/2000/svg" viewBox="64 -21 415 405">
      <g transform="scale(1 -1) translate(0 -363)">
        <path d="M405 149V21Q405 4 392.5 -8.5Q380 -21 363 -21H320Q302 -21 289.5 -8.5Q277 4 277 21V149Q277 167 289.5 179.5Q302 192 320 192H363Q380 192 392.5 179.5Q405 167 405 149ZM320 149V21H363V149ZM235 21Q235 4 222.5 -8.5Q210 -21 192 -21H107V21H192V64H149V107H192V149H107V192H192Q210 192 222.5 179.5Q235 167 235 149V117Q235 104 225.5 94.5Q216 85 203 85Q216 85 225.5 76.0Q235 67 235 53ZM267 384Q340 384 398.5 341.0Q457 298 479 230L429 213Q412 265 367.5 298.0Q323 331 267 331Q205 331 157 291L213 235H64V384L119 329Q150 355 187.5 369.5Q225 384 267 384Z" />
      </g>
    </svg>