<svg xmlns="http://www.w3.org/2000/svg" viewBox="64 -21 415 405">
      <g transform="scale(1 -1) translate(0 -363)">
        <path d="M267 384Q340 384 398.5 341.0Q457 298 479 230L429 213Q412 265 367.5 298.0Q323 331 267 331Q205 331 157 291L213 235H64V384L119 329Q150 355 187.5 369.5Q225 384 267 384ZM213 192V-21H171V149H128V192ZM384 149V21Q384 4 371.5 -8.5Q359 -21 341 -21H299Q281 -21 268.5 -8.5Q256 4 256 21V149Q256 167 268.5 179.5Q281 192 299 192H341Q359 192 371.5 179.5Q384 167 384 149ZM299 149V21H341V149Z" />
      </g>
    </svg>