<svg xmlns="http://www.w3.org/2000/svg" viewBox="107 -32 298 459">
      <g transform="scale(1 -1) translate(0 -395)">
        <path d="M286 36 354 -32 384 -1 316 66ZM332 202H331L256 127L180 202Q166 217 157.5 236.5Q149 256 149 277Q149 306 163.5 330.5Q178 355 202.5 369.5Q227 384 256.0 384.0Q285 384 309.5 369.5Q334 355 348.5 330.5Q363 306 363 277Q363 256 354.5 236.5Q346 217 332 202ZM361 171Q382 191 393.5 218.5Q405 246 405 277Q405 318 385.0 352.0Q365 386 331.0 406.5Q297 427 256.0 427.0Q215 427 181.0 406.5Q147 386 127.0 352.0Q107 318 107 277Q107 247 118.5 219.0Q130 191 151 171L226 96L128 -1L158 -32Z" />
      </g>
    </svg>