<svg xmlns="http://www.w3.org/2000/svg" viewBox="43 43 426 277">
      <g transform="scale(1 -1) translate(0 -363)">
        <path d="M427 148V176Q427 192 417 204L333 305Q320 320 300 320H85Q68 320 55.5 307.5Q43 295 43 277V128Q43 110 55.5 97.5Q68 85 85 85H86Q90 67 104.5 55.0Q119 43 138.5 43.0Q158 43 172.5 55.0Q187 67 191 85H364Q367 67 382.0 55.0Q397 43 416 43Q438 43 453.5 58.5Q469 74 469 96Q469 115 457.0 130.0Q445 145 427 148ZM75 277Q75 282 78.0 285.0Q81 288 85 288H149V192H75ZM139 75Q130 75 123.5 81.0Q117 87 117.0 96.0Q117 105 123.5 111.0Q130 117 138.5 117.0Q147 117 153.5 111.0Q160 105 160.0 96.0Q160 87 153.5 81.0Q147 75 139 75ZM277 117H192V149H235V192H192V288H277ZM320 270 385 192H320ZM416 75Q407 75 401.0 81.0Q395 87 395.0 96.0Q395 105 401.0 111.0Q407 117 416.0 117.0Q425 117 431.0 111.0Q437 105 437.0 96.0Q437 87 431.0 81.0Q425 75 416 75Z" />
      </g>
    </svg>