<svg xmlns="http://www.w3.org/2000/svg" viewBox="85 -21 342 426">
      <g transform="scale(1 -1) translate(0 -384)">
        <path d="M256 235 171 354 205 405H307L341 354ZM331 303 305 267Q341 252 362.5 220.5Q384 189 384 149Q384 115 367.0 85.5Q350 56 320.5 38.5Q291 21 256.0 21.0Q221 21 191.5 38.5Q162 56 145.0 85.5Q128 115 128 149Q128 189 149.5 220.5Q171 252 207 267L181 303Q138 282 111.5 241.0Q85 200 85 149Q85 103 108.0 64.0Q131 25 170.5 2.0Q210 -21 256.0 -21.0Q302 -21 341.5 2.0Q381 25 404.0 64.0Q427 103 427 149Q427 200 400.5 241.0Q374 282 331 303Z" />
      </g>
    </svg>