<svg xmlns="http://www.w3.org/2000/svg" viewBox="43 -21 426 426">
      <g transform="scale(1 -1) translate(0 -384)">
        <path d="M228 181Q228 177 211.5 171.5Q195 166 180.0 166.0Q165 166 149.5 174.0Q134 182 134.0 185.5Q134 189 140.0 195.5Q146 202 156 207Q168 212 183.0 213.5Q198 215 211.5 206.0Q225 197 228 181ZM329 213Q312 215 299.5 206.0Q287 197 284 181Q284 176 300.0 171.0Q316 166 332.0 166.0Q348 166 363.0 173.5Q378 181 378.0 184.5Q378 188 372.0 194.5Q366 201 356 206Q344 212 329 213ZM469 192Q469 134 440.5 85.0Q412 36 363.0 7.5Q314 -21 256.0 -21.0Q198 -21 149.0 7.5Q100 36 71.5 85.0Q43 134 43.0 192.0Q43 250 71.5 299.0Q100 348 149.0 376.5Q198 405 256.0 405.0Q314 405 363.0 376.5Q412 348 440.5 299.0Q469 250 469 192ZM427 209Q427 242 412.0 254.5Q397 267 356 267Q335 267 316 262Q305 259 288 252Q267 243 256.0 243.0Q245 243 225 252Q208 259 197 262Q178 267 156 267Q126 267 111.5 262.0Q97 257 91.0 244.5Q85 232 85 209Q85 156 106.5 126.0Q128 96 162 96Q174 96 186 103Q194 107 209.0 117.5Q224 128 232 132Q245 139 256.0 139.0Q267 139 280 132Q287 128 301.5 117.5Q316 107 324 103Q338 96 350 96Q384 96 405.5 126.0Q427 156 427 209Z" />
      </g>
    </svg>