<svg xmlns="http://www.w3.org/2000/svg" viewBox="21 -21 470 426">
      <g transform="scale(1 -1) translate(0 -384)">
        <path d="M469 149H448Q448 190 428.0 224.5Q408 259 373.5 279.0Q339 299 299 299H277V326Q287 331 293.0 341.0Q299 351 299 363Q299 380 286.5 392.5Q274 405 256.0 405.0Q238 405 225.5 392.5Q213 380 213 363Q213 351 219.0 341.0Q225 331 235 326V299H213Q173 299 138.5 279.0Q104 259 84.0 224.5Q64 190 64 149H43Q34 149 27.5 143.0Q21 137 21 128V64Q21 55 27.5 49.0Q34 43 43 43H64V21Q64 4 76.5 -8.5Q89 -21 107 -21H405Q423 -21 435.5 -8.5Q448 4 448 21V43H469Q478 43 484.5 49.0Q491 55 491 64V128Q491 137 484.5 143.0Q478 149 469 149ZM207 118 191 103 160 71 113 118Q107 125 107.0 134.0Q107 143 113.5 149.5Q120 156 129.0 156.0Q138 156 144 149L160 134L176 149Q182 156 191.0 156.0Q200 156 206.5 149.5Q213 143 213.0 134.0Q213 125 207 118ZM399 118 383 103 352 71 305 118Q299 125 299.0 134.0Q299 143 305.5 149.5Q312 156 321.0 156.0Q330 156 336 149L352 134L368 149Q374 156 383.0 156.0Q392 156 398.5 149.5Q405 143 405.0 134.0Q405 125 399 118Z" />
      </g>
    </svg>