<svg xmlns="http://www.w3.org/2000/svg" viewBox="43 -21 426 426">
      <g transform="scale(1 -1) translate(0 -384)">
        <path d="M256 405Q298 405 337.5 389.0Q377 373 407 343L377 313Q352 337 321.0 350.0Q290 363 256.0 363.0Q222 363 190.5 350.0Q159 337 135 313L105 343Q135 373 174.5 389.0Q214 405 256 405ZM78 309 109 279Q85 238 85.0 192.0Q85 146 108.0 106.5Q131 67 170.5 44.0Q210 21 256.0 21.0Q302 21 341.5 44.0Q381 67 404.0 106.5Q427 146 427.0 192.0Q427 238 403 279L434 309Q469 256 469 192Q469 150 453.0 110.5Q437 71 407.0 41.0Q377 11 337.5 -5.0Q298 -21 256.0 -21.0Q214 -21 174.5 -5.0Q135 11 105.0 41.0Q75 71 59.0 110.5Q43 150 43 192Q43 256 78 309ZM256 320Q291 320 320.5 303.0Q350 286 367.0 256.5Q384 227 384 192Q384 167 374.0 143.0Q364 119 346 102L316 132Q291 107 256.0 107.0Q221 107 196 132L166 102Q148 119 138.0 143.0Q128 167 128 192Q128 227 145.0 256.5Q162 286 191.5 303.0Q221 320 256 320ZM256 277Q247 277 241.0 271.0Q235 265 235.0 256.0Q235 247 241.0 241.0Q247 235 256.0 235.0Q265 235 271.0 241.0Q277 247 277.0 256.0Q277 265 271.0 271.0Q265 277 256 277Z" />
      </g>
    </svg>