<svg xmlns="http://www.w3.org/2000/svg" viewBox="64 0 384 384">
      <g transform="scale(1 -1) translate(0 -384)">
        <path d="M107 384Q89 384 76.5 371.5Q64 359 64 341V299H107V341H405V299H448V341Q448 359 435.5 371.5Q423 384 405 384ZM171 299V256H341V299ZM64 256V192Q64 140 90.0 96.0Q116 52 160.0 26.0Q204 0 256.0 0.0Q308 0 352.0 26.0Q396 52 422.0 96.0Q448 140 448 192V256H405V192Q405 151 385.0 117.0Q365 83 331.0 63.0Q297 43 256.0 43.0Q215 43 181.0 63.0Q147 83 127.0 117.0Q107 151 107 192V256ZM256 192Q234 192 218.5 176.5Q203 161 203.0 139.0Q203 117 218.5 101.0Q234 85 256.0 85.0Q278 85 293.5 101.0Q309 117 309.0 139.0Q309 161 293.5 176.5Q278 192 256 192Z" />
      </g>
    </svg>