<svg xmlns="http://www.w3.org/2000/svg" viewBox="21 43 470 298">
      <g transform="scale(1 -1) translate(0 -384)">
        <path d="M21 149Q21 120 35.5 95.5Q50 71 74.5 57.0Q99 43 128 43Q154 43 176.0 54.5Q198 66 213 85H324Q330 66 346.5 54.5Q363 43 384.0 43.0Q405 43 421.5 54.5Q438 66 444 85H491V128Q491 186 462.0 235.0Q433 284 384.0 312.5Q335 341 277 341H21ZM448 128H233Q235 138 235 149Q235 178 220.5 202.5Q206 227 181.5 241.5Q157 256 128 256Q92 256 64 235V299H267Q308 299 344.0 282.0Q380 265 405 235H320V192H432Q445 163 448 128ZM128 213Q155 213 173.5 194.5Q192 176 192.0 149.5Q192 123 173.5 104.0Q155 85 128.0 85.0Q101 85 82.5 104.0Q64 123 64.0 149.5Q64 176 82.5 194.5Q101 213 128 213Z" />
      </g>
    </svg>