<svg xmlns="http://www.w3.org/2000/svg" viewBox="21 -21 470 426">
      <g transform="scale(1 -1) translate(0 -384)">
        <path d="M469 149H448Q448 190 428.0 224.5Q408 259 373.5 279.0Q339 299 299 299H277V326Q287 331 293.0 341.0Q299 351 299 363Q299 380 286.5 392.5Q274 405 256.0 405.0Q238 405 225.5 392.5Q213 380 213 363Q213 351 219.0 341.0Q225 331 235 326V299H213Q173 299 138.5 279.0Q104 259 84.0 224.5Q64 190 64 149H43Q34 149 27.5 143.0Q21 137 21 128V64Q21 55 27.5 49.0Q34 43 43 43H64V21Q64 4 76.5 -8.5Q89 -21 107 -21H405Q423 -21 435.5 -8.5Q448 4 448 21V43H469Q478 43 484.5 49.0Q491 55 491 64V128Q491 137 484.5 143.0Q478 149 469 149ZM448 85H405V21H107V85H64V107H107V149Q107 178 121.0 202.5Q135 227 159.5 241.5Q184 256 213 256H299Q328 256 352.5 241.5Q377 227 391.0 202.5Q405 178 405 149V107H448ZM181 160 232 110 207 84 181 110 156 84 131 110ZM331 160 381 110 356 84 331 110 305 84 280 110Z" />
      </g>
    </svg>