<svg xmlns="http://www.w3.org/2000/svg" viewBox="0 -21 512 426">
      <g transform="scale(1 -1) translate(0 -384)">
        <path d="M213 405Q255 405 294.5 389.0Q334 373 365 343L335 314Q309 338 278.0 350.5Q247 363 213.0 363.0Q179 363 147.0 350.0Q115 337 92 314L62 343Q93 373 132.5 389.0Q172 405 213 405ZM36 309 68 279Q43 238 43.0 192.0Q43 146 66.0 106.5Q89 67 128.0 44.0Q167 21 213.0 21.0Q259 21 298.5 44.0Q338 67 361.0 106.5Q384 146 384 192Q384 236 361 279L393 309Q427 255 427 192Q427 134 398.0 85.0Q369 36 320.0 7.5Q271 -21 213.5 -21.0Q156 -21 107.0 7.5Q58 36 29.0 85.0Q0 134 0 192Q0 257 36 309ZM213 320Q248 320 277.5 302.5Q307 285 324.0 256.0Q341 227 341 192Q341 166 331.5 143.0Q322 120 303 102L273 132Q251 107 213.5 107.0Q176 107 154 132L124 102Q105 120 95.0 143.0Q85 166 85 192Q85 227 102.5 256.0Q120 285 149.5 302.5Q179 320 213 320ZM213 277Q204 277 198.0 271.5Q192 266 192.0 256.0Q192 246 198.0 240.5Q204 235 213.5 235.0Q223 235 229.0 240.5Q235 246 235.0 256.0Q235 266 229.0 271.5Q223 277 213 277ZM469 192V299H512V171H469ZM469 85V128H512V85Z" />
      </g>
    </svg>