<svg xmlns="http://www.w3.org/2000/svg" viewBox="42 -21 427 448">
      <g transform="scale(1 -1) translate(0 -406)">
        <path d="M393 363 341 311V307L393 256H469V213H375L341 247V192H320Q302 192 289.5 204.5Q277 217 277 235V288H210Q208 276 201 266L324 43H427Q444 43 456.5 30.5Q469 18 469 0V-21H43V0Q43 18 55.5 30.5Q68 43 85 43H226L126 224Q98 224 75.0 242.0Q52 260 45 288Q36 322 54.0 352.5Q72 383 106.5 392.0Q141 401 171.5 383.0Q202 365 210 331H277V384Q277 402 289.5 414.5Q302 427 320 427H341V371L375 405H469V363ZM128 352Q110 352 97.5 339.5Q85 327 85.0 309.5Q85 292 97.5 279.5Q110 267 128.0 267.0Q146 267 158.5 279.5Q171 292 171.0 309.5Q171 327 158.5 339.5Q146 352 128 352Z" />
      </g>
    </svg>