<svg xmlns="http://www.w3.org/2000/svg" viewBox="21 -21 470 426">
      <g transform="scale(1 -1) translate(0 -384)">
        <path d="M427 363H384V384H437Q442 384 445.0 381.0Q448 378 448 373V331Q448 326 445.0 323.0Q442 320 437 320H427V299H405V341H427ZM405 256H427V277H405ZM363 384H341V299H363ZM491 128V64Q491 55 484.5 49.0Q478 43 469 43H448V21Q448 4 435.5 -8.5Q423 -21 405 -21H107Q89 -21 76.5 -8.5Q64 4 64 21V43H43Q34 43 27.5 49.0Q21 55 21 64V128Q21 137 27.5 143.0Q34 149 43 149H64Q64 190 84.0 224.5Q104 259 138.5 279.0Q173 299 213 299H235V326Q225 331 219.0 341.0Q213 351 213 363Q213 380 225.5 392.5Q238 405 256.0 405.0Q274 405 286.5 392.5Q299 380 299 363Q299 351 293.0 341.0Q287 331 277 326V299H299Q309 299 320 297V235H421Q448 196 448 149H469Q478 149 484.5 143.0Q491 137 491 128ZM213 117Q213 139 197.5 155.0Q182 171 160.0 171.0Q138 171 122.5 155.0Q107 139 107.0 117.0Q107 95 122.5 79.5Q138 64 160.0 64.0Q182 64 197.5 79.5Q213 95 213 117ZM405 117Q405 139 389.5 155.0Q374 171 352.0 171.0Q330 171 314.5 155.0Q299 139 299.0 117.0Q299 95 314.5 79.5Q330 64 352.0 64.0Q374 64 389.5 79.5Q405 95 405 117ZM363 277H341V256H363Z" />
      </g>
    </svg>