<svg xmlns="http://www.w3.org/2000/svg" viewBox="21 0 470 384">
      <g transform="scale(1 -1) translate(0 -384)">
        <path d="M64 384Q46 384 33.5 371.5Q21 359 21 341V299H64V341H363V299H405V341Q405 359 392.5 371.5Q380 384 363 384ZM128 299V256H299V299ZM21 256V192Q21 140 47.0 95.5Q73 51 117.0 25.5Q161 0 213.5 0.0Q266 0 310.0 25.5Q354 51 379.5 95.5Q405 140 405 192V256H363V192Q363 151 343.0 117.0Q323 83 288.5 63.0Q254 43 213.0 43.0Q172 43 138.0 63.0Q104 83 84.0 117.0Q64 151 64 192V256ZM213 192Q191 192 175.5 176.5Q160 161 160.0 138.5Q160 116 175.5 100.5Q191 85 213.5 85.0Q236 85 251.5 100.5Q267 116 267.0 138.5Q267 161 251.5 176.5Q236 192 213 192ZM448 192V299H491V171H448ZM448 85V128H491V85Z" />
      </g>
    </svg>