<svg xmlns="http://www.w3.org/2000/svg" viewBox="21 -37 470 448">
      <g transform="scale(1 -1) translate(0 -374)">
        <path d="M491 128V64Q491 56 486.0 50.5Q481 45 473 43L431 85H448V107H410L405 111V149Q405 178 391.0 202.5Q377 227 352.5 241.5Q328 256 299 256H260L218 299H235V326Q225 331 219.0 341.0Q213 351 213 363Q213 380 225.5 392.5Q238 405 256.0 405.0Q274 405 286.5 392.5Q299 380 299 363Q299 351 293.0 341.0Q287 331 277 326V299H299Q339 299 373.5 279.0Q408 259 428.0 224.5Q448 190 448 149H469Q478 149 484.5 143.0Q491 137 491 128ZM181 160Q164 160 151.5 147.5Q139 135 139.0 117.5Q139 100 151.5 87.5Q164 75 181.5 75.0Q199 75 211.5 87.5Q224 100 224.0 117.5Q224 135 211.5 147.5Q199 160 181 160ZM472 -10 445 -37 424 -17Q415 -21 405 -21H107Q89 -21 76.5 -8.5Q64 4 64 21V43H43Q34 43 27.5 49.0Q21 55 21 64V128Q21 137 27.5 143.0Q34 149 43 149H64Q64 188 82.5 221.5Q101 255 133 275L24 384L51 411ZM386 21 333 75H331Q313 75 300.5 87.5Q288 100 288 117V119L164 243Q138 230 122.5 205.0Q107 180 107 149V107H64V85H107V21Z" />
      </g>
    </svg>