<svg xmlns="http://www.w3.org/2000/svg" viewBox="21 43 470 298">
      <g transform="scale(1 -1) translate(0 -384)">
        <path d="M21 149V341H277Q335 341 384.0 312.5Q433 284 462.0 235.0Q491 186 491 128V85H444Q438 66 421.5 54.5Q405 43 384.0 43.0Q363 43 346.5 54.5Q330 66 324 85H213Q198 66 176.0 54.5Q154 43 128 43Q99 43 74.5 57.0Q50 71 35.5 95.5Q21 120 21 149ZM128 213Q101 213 82.5 194.5Q64 176 64.0 149.5Q64 123 82.5 104.0Q101 85 128.0 85.0Q155 85 173.5 104.0Q192 123 192.0 149.5Q192 176 173.5 194.5Q155 213 128 213ZM320 235V192H432Q421 215 405 235Z" />
      </g>
    </svg>