<svg xmlns="http://www.w3.org/2000/svg" viewBox="21 -37 470 448">
      <g transform="scale(1 -1) translate(0 -374)">
        <path d="M491 128V64Q491 56 486.0 50.5Q481 45 473 43L405 112Q405 113 405 117Q405 139 389.5 155.0Q374 171 352 171Q348 171 346 170L218 299H235V326Q225 331 219.0 341.0Q213 351 213 363Q213 380 225.5 392.5Q238 405 256.0 405.0Q274 405 286.5 392.5Q299 380 299 363Q299 351 293.0 341.0Q287 331 277 326V299H299Q339 299 373.5 279.0Q408 259 428.0 224.5Q448 190 448 149H469Q478 149 484.5 143.0Q491 137 491 128ZM472 -10 445 -37 424 -17Q415 -21 405 -21H107Q89 -21 76.5 -8.5Q64 4 64 21V43H43Q34 43 27.5 49.0Q21 55 21 64V128Q21 137 27.5 143.0Q34 149 43 149H64Q64 188 82.5 221.5Q101 255 133 275L24 384L51 411ZM213 117Q213 139 197.5 155.0Q182 171 160.0 171.0Q138 171 122.5 155.0Q107 139 107.0 117.0Q107 95 122.5 79.5Q138 64 160.0 64.0Q182 64 197.5 79.5Q213 95 213 117ZM343 65 300 108Q303 92 314.5 80.0Q326 68 343 65Z" />
      </g>
    </svg>