<svg xmlns="http://www.w3.org/2000/svg" viewBox="43 -21 426 448">
      <g transform="scale(1 -1) translate(0 -406)">
        <path d="M85 43H183L56 264Q43 285 43 309Q43 345 68.0 370.0Q93 395 128 395Q157 395 180.0 376.5Q203 358 211 331H299V384Q299 402 311.5 414.5Q324 427 341 427V371L375 405H469V363H393L341 311V307L393 256H469V213H375L341 247V192Q324 192 311.5 204.5Q299 217 299 235V288H211Q207 276 201 265L329 43H427Q444 43 456.5 30.5Q469 18 469 0V-21H43V0Q43 18 55.5 30.5Q68 43 85 43ZM169 235Q150 224 128 224L233 43H279ZM128 352Q110 352 97.5 339.5Q85 327 85.0 309.5Q85 292 97.5 279.5Q110 267 128.0 267.0Q146 267 158.5 279.5Q171 292 171.0 309.5Q171 327 158.5 339.5Q146 352 128 352Z" />
      </g>
    </svg>