<svg xmlns="http://www.w3.org/2000/svg" viewBox="39 -25 430 430">
      <g transform="scale(1 -1) translate(0 -380)">
        <path d="M280 -25 245 56Q293 74 339 105ZM120 181 39 216 169 275Q138 229 120 181ZM410 363Q421 363 426 362Q430 330 418 296Q402 247 355 201Q301 146 227 118L181 163Q211 238 265 291Q305 331 347 349Q379 363 410 363ZM410 405Q371 405 332 389Q282 368 235 321Q176 263 142 178Q137 166 140.0 154.0Q143 142 152 133L197 88Q210 75 227 75Q234 75 242 78Q324 109 385 171Q419 204 440 241Q457 271 464 303Q470 328 469 352Q469 370 465 385L461 397L447 401Q430 405 410 405ZM310 246Q298 259 298.0 276.5Q298 294 310.5 306.5Q323 319 340.5 319.0Q358 319 370.5 306.5Q383 294 383.0 276.5Q383 259 370.5 246.5Q358 234 340.5 234.0Q323 234 310 246ZM189 95 159 125ZM133 -21 211 56Q200 59 190 66L103 -21ZM43 -21H73L175 80L144 110L43 9ZM43 39 130 126Q123 136 120 147L43 69Z" />
      </g>
    </svg>