<svg xmlns="http://www.w3.org/2000/svg" viewBox="85 -21 342 426">
      <g transform="scale(1 -1) translate(0 -384)">
        <path d="M256 405Q250 402 245 400Q231 391 218 379Q201 363 187 341Q170 314 160 280Q149 240 149 192Q149 106 185 25Q190 13 200.5 6.5Q211 0 224 0H288Q301 0 311.5 6.5Q322 13 327 25Q363 106 363 192Q363 240 352 280Q342 314 325 341Q311 363 294 379Q281 391 267 400ZM288 43H224Q192 114 192 192Q192 257 215 304Q231 336 256 356Q281 336 297 304Q320 257 320 192Q320 114 288 43ZM427 -21 344 12Q366 60 377 112ZM168 12 85 -21 135 112Q146 60 168 12ZM256 192Q238 192 225.5 204.5Q213 217 213.0 234.5Q213 252 225.5 264.5Q238 277 256.0 277.0Q274 277 286.5 264.5Q299 252 299.0 234.5Q299 217 286.5 204.5Q274 192 256 192Z" />
      </g>
    </svg>