<svg xmlns="http://www.w3.org/2000/svg" viewBox="85 -21 342 426">
      <g transform="scale(1 -1) translate(0 -384)">
        <path d="M427 -21 344 12Q366 60 377 112ZM168 12 85 -21 135 112Q146 60 168 12ZM256 405Q262 402 267 400Q281 391 294 379Q311 363 325 341Q342 314 352 280Q363 240 363 192Q363 106 327 25Q322 13 311.5 6.5Q301 0 288 0H224Q211 0 200.5 6.5Q190 13 185 25Q149 106 149 192Q149 268 177 323Q197 363 228 388Q244 401 256 405ZM256 192Q274 192 286.5 204.5Q299 217 299.0 234.5Q299 252 286.5 264.5Q274 277 256.0 277.0Q238 277 225.5 264.5Q213 252 213.0 234.5Q213 217 225.5 204.5Q238 192 256 192Z" />
      </g>
    </svg>