<svg xmlns="http://www.w3.org/2000/svg" viewBox="43 0 426 384">
      <g transform="scale(1 -1) translate(0 -384)">
        <path d="M455 77Q469 64 469.0 45.5Q469 27 456.5 13.5Q444 0 425 0H236Q206 0 181.5 14.5Q157 29 142.5 53.5Q128 78 128 108V109Q91 117 67.0 146.0Q43 175 43 213Q43 242 57.0 266.5Q71 291 95.5 305.5Q120 320 149 320H203Q207 320 210.0 323.0Q213 326 213.0 330.5Q213 335 210.0 338.0Q207 341 203 341H149V384H203Q225 384 240.5 368.5Q256 353 256.0 330.5Q256 308 240.5 292.5Q225 277 203 277H149Q123 277 104.0 258.5Q85 240 85 213Q85 192 98.0 175.0Q111 158 131 152Q140 188 169.0 211.5Q198 235 236 235Q260 235 285 223Q262 210 248.5 187.5Q235 165 235 139Q235 98 263 71L278 86Q256 107 256 139Q256 164 270 183Q281 198 300 206Q316 213 331 213Q353 213 372.0 201.0Q391 189 400.0 168.0Q409 147 404 123ZM384 43Q393 43 399.0 49.0Q405 55 405.0 64.0Q405 73 399.0 79.0Q393 85 384.0 85.0Q375 85 369.0 79.0Q363 73 363.0 64.0Q363 55 369.0 49.0Q375 43 384 43Z" />
      </g>
    </svg>