<svg xmlns="http://www.w3.org/2000/svg" viewBox="43 -43 405 448">
      <g transform="scale(1 -1) translate(0 -362)">
        <path d="M96 64Q74 64 58.5 48.5Q43 33 43.0 11.0Q43 -11 58.5 -27.0Q74 -43 96.0 -43.0Q118 -43 133.5 -27.0Q149 -11 149.0 11.0Q149 33 133.5 48.5Q118 64 96 64ZM395 64Q373 64 357.0 48.5Q341 33 341.0 11.0Q341 -11 357.0 -27.0Q373 -43 395.0 -43.0Q417 -43 432.5 -27.0Q448 -11 448.0 11.0Q448 33 432.5 48.5Q417 64 395 64ZM427 85Q427 89 427 96Q427 124 426 138Q423 161 416 172Q405 196 374 211Q355 219 316 229L297 234Q282 234 268.5 247.5Q255 261 252 277H192Q187 277 184.0 280.0Q181 283 181.0 288.0Q181 293 184.0 296.0Q187 299 192 299H245V320H192Q187 320 184.0 323.0Q181 326 181.0 330.5Q181 335 184.0 338.0Q187 341 192 341H245V405H64V85ZM245 64Q223 64 207.5 48.5Q192 33 192.0 11.0Q192 -11 207.5 -27.0Q223 -43 245.0 -43.0Q267 -43 283.0 -27.0Q299 -11 299.0 11.0Q299 33 283.0 48.5Q267 64 245 64Z" />
      </g>
    </svg>