<svg xmlns="http://www.w3.org/2000/svg" viewBox="64 -43 363 448">
      <g transform="scale(1 -1) translate(0 -362)">
        <path d="M139 64Q116 64 100.5 48.5Q85 33 85.0 11.0Q85 -11 100.5 -27.0Q116 -43 138.5 -43.0Q161 -43 176.5 -27.0Q192 -11 192.0 11.0Q192 33 176.5 48.5Q161 64 139 64ZM352 64Q330 64 314.5 48.5Q299 33 299.0 11.0Q299 -11 314.5 -27.0Q330 -43 352.0 -43.0Q374 -43 389.5 -27.0Q405 -11 405.0 11.0Q405 33 389.5 48.5Q374 64 352 64ZM427 85Q427 89 427 96Q427 124 426 138Q423 161 416 172Q405 196 374 211Q355 219 316 229L297 234Q282 234 268.5 247.5Q255 261 252 277H192Q187 277 184.0 280.0Q181 283 181.0 288.0Q181 293 184.0 296.0Q187 299 192 299H245V320H192Q187 320 184.0 323.0Q181 326 181.0 330.5Q181 335 184.0 338.0Q187 341 192 341H245V405H64V85Z" />
      </g>
    </svg>