<svg xmlns="http://www.w3.org/2000/svg" viewBox="97 -21 318 426">
      <g transform="scale(1 -1) translate(0 -384)">
        <path d="M415 264Q415 225 395.5 192.0Q376 159 344 141Q339 137 341 132L414 -12Q416 -15 414.0 -18.0Q412 -21 408 -21H130L132 -20Q135 -19 159 21Q194 78 216 110Q254 166 285 196Q301 211 323 230Q342 246 346 252Q351 260 347 272Q345 281 329 310L326 316L333 300Q340 282 341 271Q342 254 331.0 252.0Q320 250 305.0 263.0Q290 276 282 294Q274 315 282.0 333.5Q290 352 311.5 357.5Q333 363 357.0 356.0Q381 349 397 333Q415 301 415 264ZM153 168Q112 93 97 52V399Q97 401 99.0 403.0Q101 405 103 405H276Q313 405 344.0 387.0Q375 369 394 338Q381 355 361.0 364.0Q341 373 320.0 373.0Q299 373 286 367Q271 360 255.0 340.5Q239 321 214 279Q195 246 153 168Z" />
      </g>
    </svg>