<svg xmlns="http://www.w3.org/2000/svg" viewBox="24 -43 448 454">
      <g transform="scale(1 -1) translate(0 -368)">
        <path d="M445 -37 433 -26Q417 -43 395.0 -43.0Q373 -43 357.0 -27.0Q341 -11 341.0 11.0Q341 33 358 49L322 85H64V343L24 384L51 411L472 -10ZM416 172Q405 196 374 211Q355 219 316 229L297 234Q283 234 269 247L427 90V97Q427 126 425 139Q423 161 416 172ZM196 320 218 299H245V320ZM268 248Q255 261 252 277H239ZM245 64Q223 64 207.5 48.5Q192 33 192.0 11.0Q192 -11 207.5 -27.0Q223 -43 245.0 -43.0Q267 -43 283.0 -27.0Q299 -11 299.0 11.0Q299 33 283.0 48.5Q267 64 245 64ZM192 341H245V405H111L181 335Q185 341 192 341ZM96 64Q74 64 58.5 48.5Q43 33 43.0 11.0Q43 -11 58.5 -27.0Q74 -43 96.0 -43.0Q118 -43 133.5 -27.0Q149 -11 149.0 11.0Q149 33 133.5 48.5Q118 64 96 64Z" />
      </g>
    </svg>