<svg xmlns="http://www.w3.org/2000/svg" viewBox="43 0 426 384">
      <g transform="scale(1 -1) translate(0 -384)">
        <path d="M149 64H107V107H149ZM149 149H107V192H149ZM235 64H192V107H235ZM235 149H192V192H235ZM320 64H277V107H320ZM320 149H277V192H320ZM405 64H363V107H405ZM405 149H363V192H405ZM341 277Q333 277 326.5 283.5Q320 290 320 299V363Q320 371 326.5 377.5Q333 384 341.5 384.0Q350 384 356.5 377.5Q363 371 363 363V299Q363 290 356.5 283.5Q350 277 341 277ZM171 277Q162 277 155.5 283.5Q149 290 149 299V363Q149 371 155.5 377.5Q162 384 170.5 384.0Q179 384 185.5 377.5Q192 371 192 363V299Q192 290 185.5 283.5Q179 277 171 277ZM424 341H395V299Q395 277 379.0 261.0Q363 245 341.0 245.0Q319 245 303.5 261.0Q288 277 288 299V336Q288 338 286.5 339.5Q285 341 283 341H229Q227 341 225.5 339.5Q224 338 224 336V299Q224 277 208.5 261.0Q193 245 171.0 245.0Q149 245 133.0 261.0Q117 277 117 299V341H88Q70 342 56.5 329.5Q43 317 43 299V43Q43 25 56.5 12.5Q70 0 88 0H424Q442 0 455.5 12.5Q469 25 469 43V299Q469 317 455.5 329.5Q442 342 424 341ZM427 43H85V213H427Z" />
      </g>
    </svg>