<svg xmlns="http://www.w3.org/2000/svg" viewBox="64 -21 384 426">
      <g transform="scale(1 -1) translate(0 -384)">
        <path d="M256 341Q308 341 352.0 324.0Q396 307 422.0 277.5Q448 248 448 213Q448 187 432.5 163.5Q417 140 390 122Q427 151 427 189Q427 219 404.0 244.0Q381 269 341.5 284.0Q302 299 256 299V235L171 320L256 405ZM256 43Q204 43 160.0 60.0Q116 77 90.0 106.5Q64 136 64 171Q64 197 79.5 220.5Q95 244 122 262Q85 233 85 195Q85 165 108.0 140.0Q131 115 170.5 100.0Q210 85 256 85V149L341 64L256 -21Z" />
      </g>
    </svg>