<svg xmlns="http://www.w3.org/2000/svg" viewBox="85 23 340 404">
      <g transform="scale(1 -1) translate(0 -450)">
        <path d="M360 117 391 88Q420 125 425 171H382Q377 142 360 117ZM277 66V23Q324 29 361 57L330 88Q306 71 277 66ZM425 213Q420 259 391 296L360 266Q377 242 382 213ZM332 330 235 427V361Q193 356 159.0 332.0Q125 308 105.0 271.5Q85 235 85.0 192.0Q85 149 105.0 112.5Q125 76 159.0 52.0Q193 28 235 23V66Q189 74 158.5 109.5Q128 145 128.0 192.0Q128 239 158.5 274.5Q189 310 235 318V235Z" />
      </g>
    </svg>