<svg xmlns="http://www.w3.org/2000/svg" viewBox="87 23 340 404">
      <g transform="scale(1 -1) translate(0 -450)">
        <path d="M277 361V427L180 330L277 235V318Q323 310 353.5 274.5Q384 239 384.0 192.0Q384 145 353.5 109.5Q323 74 277 66V23Q319 28 353.0 52.0Q387 76 407.0 112.5Q427 149 427.0 192.0Q427 235 407.0 271.5Q387 308 353.0 332.0Q319 356 277 361ZM151 57Q188 28 235 23V66Q206 71 182 88ZM130 171H87Q92 125 121 88L151 118Q134 143 130 171ZM152 266 122 296Q92 259 87 213H130Q134 242 152 266Z" />
      </g>
    </svg>