<svg xmlns="http://www.w3.org/2000/svg" viewBox="0 -64 510 512">
      <g transform="scale(1 -1) translate(0 -384)">
        <path d="M159 -11Q106 15 72.0 63.0Q38 111 32 171H0Q5 106 40.5 52.0Q76 -2 132.5 -33.0Q189 -64 255 -64L269 -63L188 18ZM178 129Q173 129 167.5 131.0Q162 133 158.5 136.0Q155 139 153.0 143.5Q151 148 151 154H124Q124 141 128.5 132.5Q133 124 140.5 118.5Q148 113 157.5 110.0Q167 107 178.5 107.0Q190 107 200.0 110.0Q210 113 218.0 119.5Q226 126 230.0 135.0Q234 144 234 155Q234 162 232.0 168.0Q230 174 227.0 178.5Q224 183 219.0 187.0Q214 191 206 194Q211 196 216.0 200.5Q221 205 224.5 210.0Q228 215 229.5 220.0Q231 225 231 230Q231 241 227 250Q221 261 215.5 266.0Q210 271 199.5 274.0Q189 277 177.5 277.0Q166 277 156.5 273.5Q147 270 139.5 264.0Q132 258 128.5 250.0Q125 242 125 232H153Q153 237 155.0 241.5Q157 246 160.5 249.0Q164 252 168.5 253.5Q173 255 178 255Q191 255 197.5 248.5Q204 242 204 230Q204 226 202.0 220.5Q200 215 196.5 212.0Q193 209 188.0 207.0Q183 205 175 205H159V183H175Q183 183 188.5 181.5Q194 180 198.0 176.0Q202 172 204.0 167.5Q206 163 206 156Q206 143 199.0 136.0Q192 129 178 129ZM361 255Q350 266 336.5 271.5Q323 277 305 277H255V107H304Q322 107 336.5 112.5Q351 118 361.5 129.0Q372 140 377.0 154.5Q382 169 382 188V196Q382 214 377.0 229.0Q372 244 361 255ZM352 188Q352 173 349.0 163.0Q346 153 340.5 146.0Q335 139 325.5 134.5Q316 130 304 130H285V253H305Q328 253 340.0 239.0Q352 225 352 196ZM255 448 241 447 322 366 351 395Q404 369 438.0 321.0Q472 273 478 213H510Q504 278 469.0 332.0Q434 386 377.5 417.0Q321 448 255 448Z" />
      </g>
    </svg>