<svg xmlns="http://www.w3.org/2000/svg" viewBox="43 21 426 278">
      <g transform="scale(1 -1) translate(0 -320)">
        <path d="M256 299Q198 299 149.0 284.5Q100 270 71.5 245.5Q43 221 43 192Q43 157 84.5 129.0Q126 101 192 90V21L277 107L192 192V134Q144 143 113 162Q85 178 85.0 191.5Q85 205 106 219Q128 235 164 245Q206 256 256.0 256.0Q306 256 348 245Q384 235 406 219Q427 205 427.0 192.5Q427 180 404 165Q379 148 341 139V94Q399 107 434.0 133.0Q469 159 469 192Q469 221 440.5 245.5Q412 270 363.0 284.5Q314 299 256 299Z" />
      </g>
    </svg>