<svg xmlns="http://www.w3.org/2000/svg" viewBox="43 -21 426 448">
      <g transform="scale(1 -1) translate(0 -406)">
        <path d="M213 363V427L299 341L213 256V320Q179 320 149.5 303.0Q120 286 102.5 256.5Q85 227 85 192L87 171H44L43 192Q43 238 66.0 277.5Q89 317 128.0 340.0Q167 363 213 363ZM363 405H427Q444 405 456.5 392.5Q469 380 469 363V21Q469 4 456.5 -8.5Q444 -21 427 -21H363Q345 -21 332.5 -8.5Q320 4 320 21V363Q320 380 332.5 392.5Q345 405 363 405ZM85 128H277V-21H85Q68 -21 55.5 -8.5Q43 4 43 21V85Q43 103 55.5 115.5Q68 128 85 128Z" />
      </g>
    </svg>