<svg xmlns="http://www.w3.org/2000/svg" viewBox="21 -43 470 470">
      <g transform="scale(1 -1) translate(0 -384)">
        <path d="M171 144 101 213H149Q152 272 167.0 321.0Q182 370 205.5 398.5Q229 427 256 427Q288 427 314.0 389.0Q340 351 353 289Q415 276 453.0 250.0Q491 224 491 192Q491 163 459.5 138.5Q428 114 375 100L382 144Q413 153 430.5 165.5Q448 178 448 192Q448 209 424.0 223.0Q400 237 360 245Q363 218 363 192Q363 128 348.5 74.0Q334 20 309.5 -11.5Q285 -43 256.0 -43.0Q227 -43 202.5 -11.5Q178 20 164 73L208 66Q217 35 229.5 17.5Q242 0 256 0Q273 0 288.0 26.0Q303 52 311.5 96.0Q320 140 320 192Q320 224 317 253Q288 256 256 256L216 255L223 298L256 299Q282 299 309 296Q301 336 287.0 360.0Q273 384 256.5 384.0Q240 384 226.0 361.5Q212 339 203.0 300.0Q194 261 192 213H240ZM304 107 235 37V85Q176 88 127.0 103.0Q78 118 49.5 141.5Q21 165 21.0 193.0Q21 221 52.5 245.5Q84 270 137 284L130 240Q99 231 81.5 218.5Q64 206 64.0 191.0Q64 176 86.5 162.0Q109 148 148.0 139.0Q187 130 235 128V176Z" />
      </g>
    </svg>