<svg xmlns="http://www.w3.org/2000/svg" viewBox="64 0 384 384">
      <g transform="scale(1 -1) translate(0 -384)">
        <path d="M405 43H448V0H405ZM405 85H448V128H405ZM64 171H107V213H64ZM64 85H107V128H64ZM64 256H107V299H64ZM64 341H107V384H64ZM149 341H192V384H149ZM320 0H363V43H320ZM235 0H277V43H235ZM320 0H363V43H320ZM149 0H192V43H149ZM64 0H107V43H64ZM448 277Q448 306 433.5 330.5Q419 355 394.5 369.5Q370 384 341 384H235V341H341Q368 341 386.5 322.5Q405 304 405 277V171H448Z" />
      </g>
    </svg>