<svg xmlns="http://www.w3.org/2000/svg" viewBox="23 -38 448 450">
      <g transform="scale(1 -1) translate(0 -374)">
        <path d="M252 322 235 339Q257 361 284.5 372.5Q312 384 341.5 384.0Q371 384 398.5 372.5Q426 361 448 339L431 322Q412 340 388.5 349.0Q365 358 341.0 358.0Q317 358 294.0 349.0Q271 340 252 322ZM448 128Q448 146 435.5 158.5Q423 171 405 171H363V256H320V196L448 68ZM395 288 412 305Q397 319 379.0 327.0Q361 335 341.5 335.0Q322 335 303.5 327.0Q285 319 271 305L288 288Q309 309 341.0 309.0Q373 309 395 288ZM471 -11 444 -38 407 0H107Q89 0 76.5 12.5Q64 25 64 43V128Q64 146 76.5 158.5Q89 171 107 171H237L23 384L51 412ZM171 107H128V64H171ZM245 107H203V64H245ZM320 87 301 107H277V64H320Z" />
      </g>
    </svg>