<svg xmlns="http://www.w3.org/2000/svg" viewBox="64 0 384 384">
      <g transform="scale(1 -1) translate(0 -384)">
        <path d="M431 322 448 339Q426 361 398.5 372.5Q371 384 341.5 384.0Q312 384 284.5 372.5Q257 361 235 339L252 322Q271 340 294.0 349.0Q317 358 341.0 358.0Q365 358 388.5 349.0Q412 340 431 322ZM412 305Q397 319 379.0 327.0Q361 335 341.5 335.0Q322 335 303.5 327.0Q285 319 271 305L288 288Q309 309 341.0 309.0Q373 309 395 288ZM405 171H363V256H320V171H107Q89 171 76.5 158.5Q64 146 64 128V43Q64 25 76.5 12.5Q89 0 107 0H405Q423 0 435.5 12.5Q448 25 448 43V128Q448 146 435.5 158.5Q423 171 405 171ZM171 64H128V107H171ZM245 64H203V107H245ZM320 64H277V107H320Z" />
      </g>
    </svg>