<svg xmlns="http://www.w3.org/2000/svg" viewBox="64 -64 384 469">
      <g transform="scale(1 -1) translate(0 -341)">
        <path d="M431 343Q412 361 388.5 370.5Q365 380 341.0 380.0Q317 380 294.0 370.5Q271 361 252 343L235 361Q257 383 284.5 394.0Q312 405 341.5 405.0Q371 405 398.5 394.0Q426 383 448 361ZM412 326 395 309Q373 331 341.0 331.0Q309 331 288 309L271 326Q285 341 303.5 348.5Q322 356 341.5 356.0Q361 356 379.0 348.5Q397 341 412 326ZM405 192Q423 192 435.5 179.5Q448 167 448 149V64Q448 46 435.5 33.5Q423 21 405 21H107Q89 21 76.5 33.5Q64 46 64 64V149Q64 167 76.5 179.5Q89 192 107 192H320V277H363V192ZM171 85V128H128V85ZM245 85V128H203V85ZM320 85V128H277V85ZM149 -21H192V-64H149ZM235 -21H277V-64H235ZM320 -21H363V-64H320Z" />
      </g>
    </svg>