<svg xmlns="http://www.w3.org/2000/svg" viewBox="43 -43 426 299">
      <g transform="scale(1 -1) translate(0 -213)">
        <path d="M107 256Q89 256 76.5 243.5Q64 231 64 213V128Q64 110 76.5 97.5Q89 85 107 85H235V43H213Q205 43 198.5 36.5Q192 30 192 21H43V-21H192Q192 -30 198.5 -36.5Q205 -43 213 -43H299Q307 -43 313.5 -36.5Q320 -30 320 -21H469V21H320Q320 30 313.5 36.5Q307 43 299 43H277V85H405Q423 85 435.5 97.5Q448 110 448 128V213Q448 231 435.5 243.5Q423 256 405 256ZM128 192H171V149H128ZM203 192H245V149H203ZM277 192H320V149H277Z" />
      </g>
    </svg>