<svg xmlns="http://www.w3.org/2000/svg" viewBox="21 -43 470 470">
      <g transform="scale(1 -1) translate(0 -384)">
        <path d="M352 171H320V92L388 53L404 80L352 111ZM341 256Q311 256 283.0 244.0Q255 232 235 211V299H363L405 341L363 384H235V405L213 427L192 405V320H64L21 277L64 235H192V21Q174 21 161.5 8.5Q149 -4 149 -21H265Q300 -43 341.0 -43.0Q382 -43 416.5 -23.0Q451 -3 471.0 31.5Q491 66 491.0 106.5Q491 147 471.0 181.5Q451 216 416.5 236.0Q382 256 341 256ZM341 3Q313 3 289.5 17.0Q266 31 252.0 55.0Q238 79 238.0 107.0Q238 135 252.0 158.5Q266 182 289.5 196.0Q313 210 341.0 210.0Q369 210 393.0 196.0Q417 182 431.0 158.5Q445 135 445.0 107.0Q445 79 431.0 55.0Q417 31 393.0 17.0Q369 3 341 3Z" />
      </g>
    </svg>