<svg xmlns="http://www.w3.org/2000/svg" viewBox="85 -64 363 491">
      <g transform="scale(1 -1) translate(0 -363)">
        <path d="M181 139 85 43 117 11 192 85H235ZM320 427Q302 427 289.5 414.5Q277 402 277.0 384.0Q277 366 289.5 353.5Q302 341 320.0 341.0Q338 341 350.5 353.5Q363 366 363.0 384.0Q363 402 350.5 414.5Q338 427 320 427ZM448 0 384 -64 320 0V32L169 183Q157 181 149 181V228Q176 227 204.0 239.5Q232 252 249 271L279 304Q284 311 294.0 315.5Q304 320 314 320H315Q335 320 349.0 306.0Q363 292 363 272V149Q363 122 343 103L267 179V228Q245 210 218 198L352 64H384Z" />
      </g>
    </svg>