<svg xmlns="http://www.w3.org/2000/svg" viewBox="53 -11 406 406">
      <g transform="scale(1 -1) translate(0 -384)">
        <path d="M53 368 81 395 459 17 432 -11 400 21H357Q357 47 353 68L132 289Q111 293 85 293V336ZM132 114Q151 114 164.5 100.5Q178 87 178.0 68.0Q178 49 164.5 35.0Q151 21 132.0 21.0Q113 21 99.0 35.0Q85 49 85.0 68.0Q85 87 99.0 100.5Q113 114 132 114ZM85 233Q143 233 191.5 204.5Q240 176 268.5 127.5Q297 79 297 21H236Q236 62 216.0 97.0Q196 132 161.0 152.0Q126 172 85 172ZM195 335Q266 310 320.0 256.0Q374 202 399 131Z" />
      </g>
    </svg>