<svg xmlns="http://www.w3.org/2000/svg" viewBox="85 21 332 332">
      <g transform="scale(1 -1) translate(0 -374)">
        <path d="M132 114Q151 114 164.5 100.5Q178 87 178.0 68.0Q178 49 164.5 35.0Q151 21 132.0 21.0Q113 21 99.0 35.0Q85 49 85.0 68.0Q85 87 99.0 100.5Q113 114 132 114ZM85 353Q176 353 253 308Q328 264 372 189Q417 112 417 21H357Q357 95 320.5 157.5Q284 220 221.5 256.5Q159 293 85 293ZM85 233Q143 233 191.5 204.5Q240 176 268.5 127.5Q297 79 297 21H236Q236 62 216.0 97.0Q196 132 161.0 152.0Q126 172 85 172Z" />
      </g>
    </svg>