<svg xmlns="http://www.w3.org/2000/svg" viewBox="21 43 470 298">
      <g transform="scale(1 -1) translate(0 -384)">
        <path d="M256 149Q238 149 225.5 161.5Q213 174 213.0 192.0Q213 210 225.5 222.5Q238 235 256.0 235.0Q274 235 286.5 222.5Q299 210 299.0 192.0Q299 174 286.5 161.5Q274 149 256 149ZM491 43H21V85H85V128H21V171H85V213H21V256H85V299H21V341H491V299H427V256H491V213H427V171H491V128H427V85H491ZM256 108Q266 97 281.0 94.5Q296 92 309.5 99.5Q323 107 328.0 121.5Q333 136 329 150Q343 153 353.0 165.0Q363 177 363.0 192.0Q363 207 353.0 219.0Q343 231 329 234Q333 248 328.0 262.5Q323 277 309.5 284.5Q296 292 281.0 289.5Q266 287 256 276Q246 287 231.0 289.5Q216 292 202.5 284.5Q189 277 184.0 262.5Q179 248 184 234Q169 231 159.0 219.0Q149 207 149.0 192.0Q149 177 159.0 165.0Q169 153 184 150Q179 136 184.0 121.5Q189 107 202.5 99.5Q216 92 231.0 94.5Q246 97 256 108Z" />
      </g>
    </svg>