<svg xmlns="http://www.w3.org/2000/svg" viewBox="53 -10 405 404">
      <g transform="scale(1 -1) translate(0 -384)">
        <path d="M346 102Q411 167 415 273Q380 196 316.0 132.0Q252 68 175 33Q280 36 346 102ZM166 282Q101 217 97 111Q111 141 141 185Q168 224 196 252Q260 316 337 351Q232 348 166 282ZM437 373Q454 355 458.0 304.5Q462 254 442.5 185.5Q423 117 377 71Q336 29 278.0 9.5Q220 -10 164 -10Q96 -10 75 11Q58 29 54.0 79.5Q50 130 69.5 198.5Q89 267 135 313Q176 355 234.0 374.5Q292 394 348 394Q416 394 437 373Z" />
      </g>
    </svg>