<svg xmlns="http://www.w3.org/2000/svg" viewBox="45 -21 422 426">
      <g transform="scale(1 -1) translate(0 -384)">
        <path d="M427 24V-21L388 4L286 196Q307 202 324 217ZM320 299Q320 272 301.5 253.5Q283 235 256 235Q251 234 247 235L124 4L85 -21V24L209 256Q196 270 193.0 288.5Q190 307 198.0 324.5Q206 342 221.5 352.5Q237 363 256 363V405Q265 405 271.0 399.0Q277 393 277 384V359Q296 352 308.0 335.5Q320 319 320 299ZM277 299Q277 305 273.5 310.5Q270 316 264.0 318.5Q258 321 251.5 319.5Q245 318 240.5 313.5Q236 309 235.0 302.5Q234 296 236.5 290.5Q239 285 244.5 281.0Q250 277 256 277Q265 277 271.0 283.5Q277 290 277 299ZM90 235 128 196 97 137 45 190ZM256 69 224 101 192 43 256 -21 320 43 289 102ZM422 235 384 196 416 137 467 190Z" />
      </g>
    </svg>