<svg xmlns="http://www.w3.org/2000/svg" viewBox="64 0 384 384">
      <g transform="scale(1 -1) translate(0 -384)">
        <path d="M64 341V0H192V32H149V64H192V96H107V128H192V160H149V192H192V224H107V256H192V341H224V256H256V299H288V256H320V341H352V256H384V299H416V256H448V384H107Q89 384 76.5 371.5Q64 359 64 341ZM128 299Q119 299 113.0 305.0Q107 311 107.0 320.0Q107 329 113.0 335.0Q119 341 128.0 341.0Q137 341 143.0 335.0Q149 329 149.0 320.0Q149 311 143.0 305.0Q137 299 128 299Z" />
      </g>
    </svg>