<svg xmlns="http://www.w3.org/2000/svg" viewBox="43 -43 426 459">
      <g transform="scale(1 -1) translate(0 -373)">
        <path d="M352 331Q370 331 382.5 343.5Q395 356 395.0 373.5Q395 391 382.5 403.5Q370 416 352.0 416.0Q334 416 321.5 403.5Q309 391 309.0 373.5Q309 356 321.5 343.5Q334 331 352 331ZM275 34 297 128 341 85V-43H384V117L339 160L352 224Q374 199 405.0 185.0Q436 171 469 171V213Q441 213 416.5 226.5Q392 240 378 265L356 299Q350 308 340.5 314.0Q331 320 320 320Q317 320 311.5 319.0Q306 318 303 318L192 271V171H235V243L273 258L239 85L134 107L126 64ZM85 256Q76 256 70.0 262.0Q64 268 64.0 277.0Q64 286 70.0 292.5Q76 299 85 299H149V256ZM107 341Q98 341 91.5 347.5Q85 354 85.0 363.0Q85 372 91.5 378.0Q98 384 107 384H213V341ZM64 171Q55 171 49.0 177.0Q43 183 43.0 192.0Q43 201 49.0 207.0Q55 213 64 213H149V171Z" />
      </g>
    </svg>