<svg xmlns="http://www.w3.org/2000/svg" viewBox="62 -43 343 459">
      <g transform="scale(1 -1) translate(0 -373)">
        <path d="M288 331Q305 331 318.0 343.5Q331 356 331.0 373.5Q331 391 318.5 403.5Q306 416 288.0 416.0Q270 416 257.5 403.5Q245 391 245.0 373.5Q245 356 257.5 343.5Q270 331 288 331ZM211 35 232 128 277 85V-43H320V117L275 160L288 224Q309 199 340.0 185.0Q371 171 405 171V213Q375 213 351.0 227.5Q327 242 313 265L292 299Q278 320 256 320Q253 320 247.5 319.0Q242 318 239 318L128 271V171H171V244L209 259L175 85L70 107L62 64Z" />
      </g>
    </svg>