<svg xmlns="http://www.w3.org/2000/svg" viewBox="21 21 470 342">
      <g transform="scale(1 -1) translate(0 -384)">
        <path d="M427 277H469V320L427 363H64Q46 363 33.5 350.5Q21 338 21 320V128Q21 110 33.5 97.5Q46 85 64 85H85Q85 59 104.0 40.0Q123 21 149.5 21.0Q176 21 194.5 40.0Q213 59 213 85H320Q320 59 338.5 40.0Q357 21 384.0 21.0Q411 21 429.5 40.0Q448 59 448 85H491V192ZM149 53Q136 53 126.5 62.5Q117 72 117.0 85.5Q117 99 126.5 108.0Q136 117 149.5 117.0Q163 117 172.0 108.0Q181 99 181.0 85.5Q181 72 172.0 62.5Q163 53 149 53ZM192 192H64V256H192ZM299 128H235V256H299ZM384 53Q371 53 361.5 62.5Q352 72 352.0 85.5Q352 99 361.5 108.0Q371 117 384.0 117.0Q397 117 406.5 108.0Q416 99 416.0 85.5Q416 72 406.5 63.0Q397 54 384 53ZM363 192V245H416L459 192Z" />
      </g>
    </svg>