<svg xmlns="http://www.w3.org/2000/svg" viewBox="62 -21 386 426">
      <g transform="scale(1 -1) translate(0 -384)">
        <path d="M171 299 128 405 213 363 256 405 299 363 384 405 341 299ZM341 -21Q256 -21 171 -21Q135 -21 110 -12Q90 -5 78 9Q68 20 65 34Q62 44 63 55L64 64L69 88Q75 117 85 144Q99 181 118 208Q141 241 171 256H341Q371 241 394 208Q413 181 427 144Q437 117 443 88L448 64L449 55Q450 44 447 34Q444 20 434 9Q422 -5 402 -12Q377 -21 341 -21ZM160 181Q160 168 169.5 158.5Q179 149 192.0 149.0Q205 149 214.5 158.5Q224 168 224.0 181.5Q224 195 214.5 204.0Q205 213 192.0 213.0Q179 213 169.5 204.0Q160 195 160 181ZM352 53Q352 67 342.5 76.0Q333 85 320.0 85.0Q307 85 297.5 76.0Q288 67 288.0 53.5Q288 40 297.5 30.5Q307 21 320.0 21.0Q333 21 342.5 30.5Q352 40 352 53ZM352 185 323 213 160 50 189 21Z" />
      </g>
    </svg>