<svg xmlns="http://www.w3.org/2000/svg" viewBox="43 -43 426 448">
      <g transform="scale(1 -1) translate(0 -362)">
        <path d="M427 405Q444 405 456.5 392.5Q469 380 469 363V21Q469 4 456.5 -8.5Q444 -21 427 -21H405V-43H320V-21H192V-43H107V-21H85Q68 -21 55.5 -8.5Q43 4 43 21V363Q43 380 55.5 392.5Q68 405 85 405ZM363 192Q363 224 346 252L378 284L348 314L316 282Q288 299 256.0 299.0Q224 299 196 282L166 314L134 282L166 250Q149 226 149.0 193.0Q149 160 166 132L134 100L166 70L198 102Q222 85 255.0 85.0Q288 85 316 102L348 70L378 100L346 132Q363 160 363 192ZM256 256Q283 256 301.5 237.5Q320 219 320.0 192.0Q320 165 301.5 146.5Q283 128 256.0 128.0Q229 128 210.5 146.5Q192 165 192.0 192.0Q192 219 210.5 237.5Q229 256 256 256ZM256 149Q274 149 286.5 161.5Q299 174 299.0 192.0Q299 210 286.5 222.5Q274 235 256.0 235.0Q238 235 225.5 222.5Q213 210 213.0 192.0Q213 174 225.5 161.5Q238 149 256 149Z" />
      </g>
    </svg>