<svg xmlns="http://www.w3.org/2000/svg" viewBox="43 21 426 342">
      <g transform="scale(1 -1) translate(0 -384)">
        <path d="M85 363Q68 363 55.5 350.5Q43 338 43 320V85Q43 68 55.5 55.5Q68 43 85 43V21H128V43H363V21H405V43Q423 43 435.5 55.5Q448 68 448 85V107H469V149H448V256H469V299H448V320Q448 338 435.5 350.5Q423 363 405 363ZM85 320H405V85H85ZM288 288Q253 288 228.0 263.0Q203 238 203.0 202.5Q203 167 228.0 142.0Q253 117 288.0 117.0Q323 117 348.0 142.0Q373 167 373.0 202.5Q373 238 348.0 263.0Q323 288 288 288ZM107 256V149H149V256ZM288 245Q306 245 318.5 232.5Q331 220 331.0 202.5Q331 185 318.5 172.5Q306 160 288.0 160.0Q270 160 257.5 172.5Q245 185 245.0 202.5Q245 220 257.5 232.5Q270 245 288 245Z" />
      </g>
    </svg>