<svg xmlns="http://www.w3.org/2000/svg" viewBox="21 64 470 235">
      <g transform="scale(1 -1) translate(0 -363)">
        <path d="M384 256Q402 256 414.5 243.5Q427 231 427 213V149Q427 132 414.5 119.5Q402 107 384 107H336L310 133Q286 158 250.0 158.0Q214 158 189 133L163 107H128Q110 107 97.5 119.5Q85 132 85 149V213Q85 231 97.5 243.5Q110 256 128 256ZM384 299H128Q93 299 68.0 274.0Q43 249 43 213H21V149H43Q43 114 68.0 89.0Q93 64 128 64H181Q183 66 220 103Q232 115 250.0 115.0Q268 115 280 103L318 64H384Q419 64 444.0 89.0Q469 114 469 149H491V213H469Q469 249 444.0 274.0Q419 299 384 299Z" />
      </g>
    </svg>