<svg xmlns="http://www.w3.org/2000/svg" viewBox="43 -43 426 448">
      <g transform="scale(1 -1) translate(0 -362)">
        <path d="M213 192Q213 210 225.5 222.5Q238 235 256.0 235.0Q274 235 286.5 222.5Q299 210 299.0 192.0Q299 174 286.5 161.5Q274 149 256.0 149.0Q238 149 225.5 161.5Q213 174 213 192ZM166 70 134 100 166 132Q149 160 149.0 193.0Q149 226 166 250L134 282L166 314L196 282Q224 299 256.0 299.0Q288 299 316 282L348 314L378 284L346 252Q363 224 363.0 192.0Q363 160 346 132L378 100L348 70L316 102Q288 85 255.0 85.0Q222 85 198 102ZM256 256Q229 256 210.5 237.5Q192 219 192.0 192.0Q192 165 210.5 146.5Q229 128 256.0 128.0Q283 128 301.5 146.5Q320 165 320.0 192.0Q320 219 301.5 237.5Q283 256 256 256ZM427 405Q444 405 456.5 392.5Q469 380 469 363V21Q469 4 456.5 -8.5Q444 -21 427 -21H405V-43H320V-21H192V-43H107V-21H85Q68 -21 55.5 -8.5Q43 4 43 21V363Q43 380 55.5 392.5Q68 405 85 405ZM427 21V363H85V21Z" />
      </g>
    </svg>