<svg xmlns="http://www.w3.org/2000/svg" viewBox="43 0 426 373">
      <g transform="scale(1 -1) translate(0 -373)">
        <path d="M447 0Q414 0 383 16Q354 0 319.5 0.0Q285 0 255 16Q226 0 191.5 0.0Q157 0 128 16Q96 -2 43 0V43Q68 42 87 46Q110 51 128 64Q156 44 191.5 44.0Q227 44 255 64Q284 44 319.5 44.0Q355 44 383 64Q401 51 424 46Q442 42 468 43V0ZM469 373 152 321 280 188ZM231 99 255 116 280 99Q298 87 319 87L329 88L111 313Q97 292 90.5 266.5Q84 241 85 215L208 89Q221 92 231 99Z" />
      </g>
    </svg>