<svg xmlns="http://www.w3.org/2000/svg" viewBox="26 -49 460 482">
      <g transform="scale(1 -1) translate(0 -384)">
        <path d="M203 299Q216 299 225.5 289.5Q235 280 235.0 266.5Q235 253 225.5 244.0Q216 235 202.5 235.0Q189 235 180.0 244.0Q171 253 171.0 266.5Q171 280 180.0 289.5Q189 299 203 299ZM309 149Q323 149 332.0 140.0Q341 131 341.0 117.5Q341 104 332.0 94.5Q323 85 309.5 85.0Q296 85 286.5 94.5Q277 104 277.0 117.5Q277 131 286.5 140.0Q296 149 309 149ZM179 85 149 115 333 299 363 269ZM398 387 411 305 486 267 448 192 486 117 410 79 397 -3 314 10 255 -49 196 11 114 -3 100 80 26 118 64 193 26 267 101 305 114 387 197 373 256 433 315 374ZM429 248 373 277 363 339 301 330 256 373 211 330 149 339 139 277 83 248 111 192 83 136 139 107 149 45 211 54 256 11 301 54 363 45 373 107 429 136 401 192Z" />
      </g>
    </svg>