<svg xmlns="http://www.w3.org/2000/svg" viewBox="26 -49 460 482">
      <g transform="scale(1 -1) translate(0 -384)">
        <path d="M398 387 411 305 486 267 448 192 486 117 410 79 397 -3 314 10 255 -49 196 11 114 -3 100 80 26 118 64 193 26 267 101 305 114 387 197 373 256 433 315 374ZM203 299Q189 299 180.0 289.5Q171 280 171.0 266.5Q171 253 180.0 244.0Q189 235 202.5 235.0Q216 235 225.5 244.0Q235 253 235.0 266.5Q235 280 225.5 289.5Q216 299 203 299ZM309 149Q296 149 286.5 140.0Q277 131 277.0 117.5Q277 104 286.5 94.5Q296 85 309.5 85.0Q323 85 332.0 94.5Q341 104 341.0 117.5Q341 131 332.0 140.0Q323 149 309 149ZM179 85 363 269 333 299 149 115Z" />
      </g>
    </svg>