<svg xmlns="http://www.w3.org/2000/svg" viewBox="21 27 470 330">
      <g transform="scale(1 -1) translate(0 -384)">
        <path d="M392 312Q378 312 352 304L351 303Q340 323 320.5 334.5Q301 346 278 346Q261 346 245.5 339.0Q230 332 218 321Q205 337 186.0 347.0Q167 357 146 357Q121 357 100.0 345.0Q79 333 66.0 312.0Q53 291 53 267Q53 255 61 230L62 228Q44 218 32.5 200.0Q21 182 21 160Q21 128 44.0 104.5Q67 81 99 81Q111 81 116 83Q122 58 144.0 42.5Q166 27 194.0 27.0Q222 27 243.0 41.5Q264 56 272 79Q293 70 304 70Q325 70 343.0 80.5Q361 91 371 108Q377 107 390 107Q417 107 440.5 120.5Q464 134 477.5 157.5Q491 181 491.5 209.0Q492 237 479.0 261.0Q466 285 443.0 298.5Q420 312 392 312Z" />
      </g>
    </svg>