<svg xmlns="http://www.w3.org/2000/svg" viewBox="43 -21 426 426">
      <g transform="scale(1 -1) translate(0 -384)">
        <path d="M256 405Q298 405 337.5 389.0Q377 373 407.0 343.0Q437 313 453.0 273.5Q469 234 469.0 192.0Q469 150 453.0 110.5Q437 71 407.0 41.0Q377 11 337.5 -5.0Q298 -21 256.0 -21.0Q214 -21 174.5 -5.0Q135 11 105.0 41.0Q75 71 59.0 110.5Q43 150 43.0 192.0Q43 234 59.0 273.5Q75 313 105.0 343.0Q135 373 174.5 389.0Q214 405 256 405ZM213 121Q218 105 213 89L211 83Q207 75 201 68Q192 59 180.5 55.0Q169 51 163.0 54.5Q157 58 160.5 70.0Q164 82 174.0 92.5Q184 103 199 113ZM390 314Q385 333 365.0 343.0Q345 353 316.0 353.5Q287 354 258 343Q194 321 157 285Q135 265 126 244Q119 228 121 217Q124 197 145 178Q156 167 183 148Q199 137 204 133V132Q188 124 173 115Q146 96 138.5 79.5Q131 63 136 48Q141 36 149 33Q170 27 190.0 36.0Q210 45 222 63Q232 78 234 98Q235 116 229 128Q245 132 262 130Q287 127 298 113Q307 103 305.5 92.5Q304 82 294 75Q290 73 290.5 71.5Q291 70 295.0 71.0Q299 72 305 77Q314 85 314 97Q315 115 298.5 130.0Q282 145 255 145Q232 144 221 140L220 142Q212 150 194 164Q173 180 165 189Q152 204 153 220Q155 264 238 306Q269 321 299 326Q324 330 342.5 325.0Q361 320 366 309Q372 295 361.5 275.0Q351 255 328 240Q302 224 269 220Q253 218 239 223Q231 226 226 231L225 232Q222 235 220.5 234.0Q219 233 221 228Q222 223 229.0 217.5Q236 212 245 208Q257 204 276 205Q301 207 326 216Q357 228 377.0 257.5Q397 287 390 314Z" />
      </g>
    </svg>