<svg xmlns="http://www.w3.org/2000/svg" viewBox="64 -21 405 426">
      <g transform="scale(1 -1) translate(0 -384)">
        <path d="M253 405 242 364Q312 351 363.0 300.0Q414 249 428 178L469 189Q453 271 394.0 330.0Q335 389 253 405ZM231 323 220 281Q268 274 303.0 239.5Q338 205 345 156L387 167Q376 227 333.0 270.0Q290 313 231 323ZM79 241Q64 207 64 171Q64 139 75.0 110.0Q86 81 107 58V-21H171V13Q201 0 235 0Q271 0 305 15ZM209 240 198 198Q224 198 243.0 179.0Q262 160 262 134L304 145Q300 182 273.0 209.0Q246 236 209 240Z" />
      </g>
    </svg>