<svg xmlns="http://www.w3.org/2000/svg" viewBox="21 -21 448 448">
      <g transform="scale(1 -1) translate(0 -406)">
        <path d="M248 427 369 306 323 260 278 306 248 275 298 226 273 201 282 191Q298 198 314.5 195.5Q331 193 343 180L268 105Q255 117 252.5 133.5Q250 150 257 166L247 175L222 150L173 200L142 170L188 125L142 79L21 200L67 245L112 200L142 230L82 291Q69 303 69.0 320.5Q69 338 82 351L97 366Q110 379 127.5 379.0Q145 379 157 366L218 306L248 336L203 381ZM384 149Q384 114 359.0 89.0Q334 64 299 64V107Q316 107 328.5 119.5Q341 132 341 149ZM469 149Q469 103 446.0 64.0Q423 25 384.0 2.0Q345 -21 299 -21V21Q333 21 362.5 38.5Q392 56 409.5 85.5Q427 115 427 149Z" />
      </g>
    </svg>