<svg xmlns="http://www.w3.org/2000/svg" viewBox="64 0 384 384">
      <g transform="scale(1 -1) translate(0 -384)">
        <path d="M107 64 181 160 235 96 309 192 405 64ZM107 192V235Q136 235 160.5 249.0Q185 263 199.0 287.5Q213 312 213 341H256Q256 301 236.0 266.5Q216 232 181.5 212.0Q147 192 107 192ZM107 341H171Q171 315 152.0 296.0Q133 277 107 277ZM405 384H107Q89 384 76.5 371.5Q64 359 64 341V43Q64 25 76.5 12.5Q89 0 107 0H405Q423 0 435.5 12.5Q448 25 448 43V341Q448 359 435.5 371.5Q423 384 405 384Z" />
      </g>
    </svg>