<svg xmlns="http://www.w3.org/2000/svg" viewBox="64 -21 384 426">
      <g transform="scale(1 -1) translate(0 -384)">
        <path d="M85 405Q76 405 70.0 399.0Q64 393 64.0 384.0Q64 375 70.0 369.0Q76 363 85 363Q112 363 130.5 344.0Q149 325 149 299V117Q149 80 168.0 48.0Q187 16 218.5 -2.5Q250 -21 288.0 -21.0Q326 -21 357.5 -2.5Q389 16 408.0 48.0Q427 80 427 117V171Q436 171 442.0 177.0Q448 183 448.0 192.0Q448 201 442.0 207.0Q436 213 427 213H299Q290 213 283.5 207.0Q277 201 277.0 192.0Q277 183 283.5 177.0Q290 171 299 171V128Q299 119 292.5 113.0Q286 107 277.0 107.0Q268 107 262.0 113.0Q256 119 256 128V213Q265 213 271.0 219.5Q277 226 277.0 235.0Q277 244 271.0 250.0Q265 256 256 256V277Q265 277 271.0 283.5Q277 290 277.0 299.0Q277 308 271.0 314.0Q265 320 256 320V331Q256 362 234.0 383.5Q212 405 181 405Z" />
      </g>
    </svg>