<svg xmlns="http://www.w3.org/2000/svg" viewBox="40 -21 430 405">
      <g transform="scale(1 -1) translate(0 -363)">
        <path d="M256 384Q236 384 219.5 372.5Q203 361 196 341H64V299H106L43 149Q35 118 55.5 101.5Q76 85 117.5 85.0Q159 85 180.0 101.5Q201 118 192 149L129 299H196Q207 271 235 260V21H43V-21H469V21H277V260Q306 270 316 299H383L320 149Q313 118 333.0 101.5Q353 85 394.5 85.0Q436 85 457.0 101.5Q478 118 469 149L406 299H448V341H316Q309 361 292.5 372.5Q276 384 256 384ZM256 341Q265 341 271.0 335.0Q277 329 277.0 320.0Q277 311 271.0 305.0Q265 299 256.0 299.0Q247 299 241.0 305.0Q235 311 235.0 320.0Q235 329 241.0 335.0Q247 341 256 341ZM117 229 149 149H85ZM395 229 427 149H363Z" />
      </g>
    </svg>