<svg xmlns="http://www.w3.org/2000/svg" viewBox="24 -37 448 448">
      <g transform="scale(1 -1) translate(0 -374)">
        <path d="M472 -10 445 -37 408 0H384V24L258 149H235V173L220 188Q182 180 151 156L180 127L150 97L121 126Q92 89 87 43H128V0H43V21Q43 89 82.0 144.5Q121 200 185 223L82 326L43 341V365L24 384L51 411ZM467 49Q459 117 412.5 167.0Q366 217 299 230V273L469 341V384H132ZM256 64Q246 64 237 60L155 21L237 -17Q246 -21 256 -21Q274 -21 286.5 -8.5Q299 4 299.0 21.5Q299 39 286.5 51.5Q274 64 256 64Z" />
      </g>
    </svg>