<svg xmlns="http://www.w3.org/2000/svg" viewBox="43 -21 426 405">
      <g transform="scale(1 -1) translate(0 -363)">
        <path d="M180 127 150 97 121 126Q92 89 87 43H128V0H43V21Q43 72 65.0 116.0Q87 160 126.0 190.5Q165 221 213 230V273L43 341V384H469V341L299 273V230Q347 221 386.0 190.5Q425 160 447.0 116.0Q469 72 469 21V0H384V43H425Q420 89 391 126L362 97L332 127L361 156Q323 185 277 191V149H235V191Q189 185 151 156ZM256 64Q274 64 286.5 51.5Q299 39 299.0 21.5Q299 4 286.5 -8.5Q274 -21 256 -21Q246 -21 237 -17L155 21L237 60Q246 64 256 64Z" />
      </g>
    </svg>