<svg xmlns="http://www.w3.org/2000/svg" viewBox="85 9 333 375">
      <g transform="scale(1 -1) translate(0 -393)">
        <path d="M149 213Q176 213 194.5 194.5Q213 176 213.0 149.5Q213 123 194.5 104.0Q176 85 149.5 85.0Q123 85 104.0 104.0Q85 123 85.0 149.5Q85 176 104.0 194.5Q123 213 149 213ZM235 384Q261 384 280.0 365.5Q299 347 299.0 320.0Q299 293 280.0 274.5Q261 256 234.5 256.0Q208 256 189.5 274.5Q171 293 171.0 320.0Q171 347 189.5 365.5Q208 384 235 384ZM354 137Q381 137 399.5 118.0Q418 99 418.0 72.5Q418 46 399.5 27.5Q381 9 354.5 9.0Q328 9 309.0 27.5Q290 46 290.0 72.5Q290 99 309.0 118.0Q328 137 354 137Z" />
      </g>
    </svg>