<svg xmlns="http://www.w3.org/2000/svg" viewBox="23 -36 448 448">
      <g transform="scale(1 -1) translate(0 -376)">
        <path d="M311 96Q277 47 277 11Q277 4 281 -12L282 -17Q282 -21 280.0 -23.0Q278 -25 276.5 -24.0Q275 -23 275 -21Q259 0 251.0 20.0Q243 40 243 62Q243 100 269 139L239 169Q201 120 201 75Q201 68 204 52L205 47Q205 43 203.0 41.0Q201 39 199.5 40.0Q198 41 198 43Q182 64 174.0 84.0Q166 104 166 126Q166 166 198 211L169 239Q132 195 132 162Q132 151 137 143Q137 141 135.0 139.0Q133 137 131 138L130 139Q107 165 107.0 198.5Q107 232 137 269L23 384L51 412L471 -9L444 -36ZM218 299Q230 321 230 343Q230 377 207 403Q205 405 201 405Q199 405 200 403L201 401Q205 388 205 382Q205 358 188 331ZM369 309Q369 261 316 201L358 158Q405 205 405 256Q405 298 373 339Q371 341 369.0 340.0Q367 339 367 335Q367 331 368.0 322.5Q369 314 369 309ZM288 228Q326 276 326 322Q326 364 294 405H290Q288 403 288 399Q292 382 292 371Q292 327 245 269Z" />
      </g>
    </svg>