<svg xmlns="http://www.w3.org/2000/svg" viewBox="21 0 470 404">
      <g transform="scale(1 -1) translate(0 -404)">
        <path d="M235 0H149V43H235ZM331 43H363V0H277V43H282L252 173L198 160Q196 149 188 132Q173 108 146.5 102.0Q120 96 96.0 110.5Q72 125 66.0 151.5Q60 178 74.5 202.0Q89 226 115.5 232.5Q142 239 166 224Q176 219 186 205L239 218L226 271Q218 273 201 282Q178 296 171.5 323.0Q165 350 179.0 373.5Q193 397 220.0 403.0Q247 409 271.0 394.5Q295 380 301.0 353.5Q307 327 292 303Q287 293 273 284ZM149 196Q138 204 124.5 200.5Q111 197 103.0 186.0Q95 175 98.5 161.0Q102 147 113.0 140.0Q124 133 138.0 136.0Q152 139 159.0 151.0Q166 163 163.0 176.5Q160 190 149 196ZM265 320Q272 331 268.5 345.0Q265 359 254.0 367.0Q243 375 229.0 371.5Q215 368 207.5 356.5Q200 345 203.5 331.0Q207 317 219.0 310.0Q231 303 244.5 306.0Q258 309 265 320ZM273 207Q265 211 262.0 204.0Q259 197 265.5 193.5Q272 190 275 196Q278 199 277.5 202.0Q277 205 273 207ZM448 267 309 235 320 188 480 226 491 241ZM491 43H405V0H491ZM107 43H21V0H107Z" />
      </g>
    </svg>