<svg xmlns="http://www.w3.org/2000/svg" viewBox="42 0 426 363">
      <g transform="scale(1 -1) translate(0 -363)">
        <path d="M167 43H320V64Q320 99 345.0 124.0Q370 149 405 149H421L381 329Q377 344 365.5 353.5Q354 363 339 363H256V320H339L369 187Q334 176 309.5 148.5Q285 121 279 85H167Q159 107 138.5 119.0Q118 131 94 127Q75 123 61.0 109.0Q47 95 43.5 75.5Q40 56 48.0 38.5Q56 21 71.5 10.5Q87 0 107.0 0.0Q127 0 143.5 12.0Q160 24 167 43ZM107 43Q98 43 91.5 49.0Q85 55 85.0 64.0Q85 73 91.5 79.0Q98 85 106.5 85.0Q115 85 121.5 79.0Q128 73 128.0 64.0Q128 55 121.5 49.0Q115 43 107 43ZM405 128Q379 128 360.0 109.5Q341 91 341.0 64.0Q341 37 360.0 18.5Q379 0 405.5 0.0Q432 0 450.5 18.5Q469 37 469.0 64.0Q469 91 450.5 109.5Q432 128 405 128ZM405 43Q397 43 390.5 49.0Q384 55 384.0 64.0Q384 73 390.5 79.0Q397 85 405.5 85.0Q414 85 420.5 79.0Q427 73 427.0 64.0Q427 55 420.5 49.0Q414 43 405 43Z" />
      </g>
    </svg>