<svg xmlns="http://www.w3.org/2000/svg" viewBox="42 -43 426 470">
      <g transform="scale(1 -1) translate(0 -384)">
        <path d="M167 107H320V128Q320 163 345.0 188.0Q370 213 405 213H421L381 393Q377 408 365.5 417.5Q354 427 339 427H256V384H339L369 251Q334 240 309.5 212.5Q285 185 279 149H167Q159 171 138.5 183.0Q118 195 94 191Q75 187 61.0 173.0Q47 159 43.5 139.5Q40 120 48.0 102.5Q56 85 71.5 74.5Q87 64 107.0 64.0Q127 64 143.5 76.0Q160 88 167 107ZM107 107Q98 107 91.5 113.0Q85 119 85.0 128.0Q85 137 91.5 143.0Q98 149 106.5 149.0Q115 149 121.5 143.0Q128 137 128.0 128.0Q128 119 121.5 113.0Q115 107 107 107ZM405 192Q379 192 360.0 173.5Q341 155 341.0 128.0Q341 101 360.0 82.5Q379 64 405.5 64.0Q432 64 450.5 82.5Q469 101 469.0 128.0Q469 155 450.5 173.5Q432 192 405 192ZM405 107Q397 107 390.5 113.0Q384 119 384.0 128.0Q384 137 390.5 143.0Q397 149 405.5 149.0Q414 149 420.5 143.0Q427 137 427.0 128.0Q427 119 420.5 113.0Q414 107 405 107ZM235 21H149L277 -43V0H363L235 64Z" />
      </g>
    </svg>