<svg xmlns="http://www.w3.org/2000/svg" viewBox="21 0 470 384">
      <g transform="scale(1 -1) translate(0 -384)">
        <path d="M128 256H171V128H128ZM341 256H384V128H341ZM448 384Q466 384 478.5 371.5Q491 359 491 341V43Q491 25 478.5 12.5Q466 0 448 0H64Q46 0 33.5 12.5Q21 25 21 43V341Q21 359 33.5 371.5Q46 384 64 384ZM107 299Q97 299 91.0 293.0Q85 287 85 277V107Q85 97 91.0 91.0Q97 85 107 85H192Q202 85 207.5 91.0Q213 97 213 107V277Q213 287 207.5 293.0Q202 299 192 299ZM320 299Q310 299 304.5 293.0Q299 287 299 277V107Q299 97 304.5 91.0Q310 85 320 85H405Q415 85 421.0 91.0Q427 97 427 107V277Q427 287 421.0 293.0Q415 299 405 299ZM256 213Q266 213 271.5 219.0Q277 225 277.0 234.5Q277 244 271.5 250.0Q266 256 256.0 256.0Q246 256 240.5 250.0Q235 244 235.0 234.5Q235 225 240.5 219.0Q246 213 256 213ZM256 128Q266 128 271.5 134.0Q277 140 277.0 149.5Q277 159 271.5 165.0Q266 171 256.0 171.0Q246 171 240.5 165.0Q235 159 235.0 149.5Q235 140 240.5 134.0Q246 128 256 128Z" />
      </g>
    </svg>