<svg xmlns="http://www.w3.org/2000/svg" viewBox="21 0 470 384">
      <g transform="scale(1 -1) translate(0 -384)">
        <path d="M448 384H64Q46 384 33.5 371.5Q21 359 21 341V43Q21 25 33.5 12.5Q46 0 64 0H448Q466 0 478.5 12.5Q491 25 491 43V341Q491 359 478.5 371.5Q466 384 448 384ZM448 43H64V341H448ZM107 299H192Q202 299 207.5 293.0Q213 287 213 277V107Q213 97 207.5 91.0Q202 85 192 85H107Q97 85 91.0 91.0Q85 97 85 107V277Q85 287 91.0 293.0Q97 299 107 299ZM128 256V128H171V256ZM320 299H405Q415 299 421.0 293.0Q427 287 427 277V107Q427 97 421.0 91.0Q415 85 405 85H320Q310 85 304.5 91.0Q299 97 299 107V277Q299 287 304.5 293.0Q310 299 320 299ZM341 256V128H384V256ZM256 213Q266 213 271.5 219.0Q277 225 277.0 234.5Q277 244 271.5 250.0Q266 256 256.0 256.0Q246 256 240.5 250.0Q235 244 235.0 234.5Q235 225 240.5 219.0Q246 213 256 213ZM256 128Q266 128 271.5 134.0Q277 140 277.0 149.5Q277 159 271.5 165.0Q266 171 256.0 171.0Q246 171 240.5 165.0Q235 159 235.0 149.5Q235 140 240.5 134.0Q246 128 256 128Z" />
      </g>
    </svg>