<svg xmlns="http://www.w3.org/2000/svg" viewBox="21 -43 484 491">
      <g transform="scale(1 -1) translate(0 -405)">
        <path d="M358 395Q358 410 369.0 420.5Q380 431 395.0 431.0Q410 431 420.5 420.5Q431 410 431 395V384H358ZM341 256H448Q457 256 463.0 262.0Q469 268 469 277V363Q469 372 463.0 378.0Q457 384 448 384V395Q448 417 432.5 432.5Q417 448 395.0 448.0Q373 448 357.0 432.5Q341 417 341 395V384Q332 384 326.0 378.0Q320 372 320 363V277Q320 268 326.0 262.0Q332 256 341 256ZM181 11Q128 36 93.5 84.5Q59 133 53 192H21Q27 127 62.0 73.5Q97 20 153.5 -11.5Q210 -43 276 -43L290 -42L209 39ZM496 176 441 230 411 200 459 153 338 32 96 274 217 395 262 350 292 380 240 432Q230 441 217.0 441.0Q204 441 194 432L59 296Q49 287 49.0 273.5Q49 260 59 251L315 -5Q325 -15 338.0 -15.0Q351 -15 360 -5L496 130Q505 140 505.0 153.0Q505 166 496 176Z" />
      </g>
    </svg>