<svg xmlns="http://www.w3.org/2000/svg" viewBox="1 -64 510 512">
      <g transform="scale(1 -1) translate(0 -384)">
        <path d="M160 -11Q107 15 73.0 63.0Q39 111 33 171H1Q6 106 41.5 52.0Q77 -2 133.5 -33.0Q190 -64 256 -64L270 -63L189 18ZM316 -4 60 252 196 388 452 132ZM218 411Q209 420 195.5 420.0Q182 420 173 411L37 275Q28 266 28.0 252.5Q28 239 37 230L294 -27Q303 -36 316.5 -36.0Q330 -36 339 -27L475 109Q484 118 484.0 131.5Q484 145 475 154ZM352 395Q405 369 439.0 321.0Q473 273 479 213H511Q506 278 470.5 332.0Q435 386 378.5 417.0Q322 448 256 448L242 447L323 366Z" />
      </g>
    </svg>