<svg xmlns="http://www.w3.org/2000/svg" viewBox="43 -21 426 426">
      <g transform="scale(1 -1) translate(0 -384)">
        <path d="M294 -21H107Q79 -21 61.0 -3.0Q43 15 43 43V64H279Q277 58 277 43Q277 9 294 -21ZM294 107H107V341Q107 369 125.0 387.0Q143 405 171 405H405Q433 405 451.0 387.0Q469 369 469 341V320H427V341Q427 351 421.0 357.0Q415 363 405.5 363.0Q396 363 390.0 357.0Q384 351 384 341V169Q356 164 332.5 147.5Q309 131 294 107ZM171 277H320V320H171ZM171 192H299V235H171ZM363 107V-21L469 43Z" />
      </g>
    </svg>