<svg xmlns="http://www.w3.org/2000/svg" viewBox="43 -43 448 448">
      <g transform="scale(1 -1) translate(0 -362)">
        <path d="M380 43Q373 62 357.0 73.5Q341 85 320 85Q293 85 274.5 67.0Q256 49 256.0 21.5Q256 -6 274.5 -24.5Q293 -43 320 -43Q341 -43 357.0 -31.0Q373 -19 380 0H405V-43H448V0H491V43ZM320 -6Q309 -6 300.5 2.0Q292 10 292.0 21.5Q292 33 300.5 41.0Q309 49 320.0 49.0Q331 49 339.5 41.0Q348 33 348.0 21.5Q348 10 339.5 2.0Q331 -6 320 -6ZM192 235H299V192H192ZM192 320H299V277H192ZM149 341Q149 351 155.0 357.0Q161 363 171 363H341V126Q366 119 384 107V341Q384 351 390.0 357.0Q396 363 405.5 363.0Q415 363 421.0 357.0Q427 351 427 341V320H469V341Q469 369 451.0 387.0Q433 405 405 405H171Q143 405 125.0 387.0Q107 369 107 341V107H149ZM213 21Q213 47 222 64H43V43Q43 15 61.0 -3.0Q79 -21 107 -21H222Q213 -4 213 21ZM192 107H256Q281 123 299 126V149H192Z" />
      </g>
    </svg>