<svg xmlns="http://www.w3.org/2000/svg" viewBox="43 -21 426 426">
      <g transform="scale(1 -1) translate(0 -384)">
        <path d="M192 149H299V113L294 107H192ZM192 192H299V235H192ZM192 277H299V320H192ZM149 341Q149 351 155.0 357.0Q161 363 171 363H341V154Q358 165 384 169V341Q384 351 390.0 357.0Q396 363 405.5 363.0Q415 363 421.0 357.0Q427 351 427 341V320H469V341Q469 369 451.0 387.0Q433 405 405 405H171Q143 405 125.0 387.0Q107 369 107 341V107H149ZM277 43V55V64H43V43Q43 15 61.0 -3.0Q79 -21 107 -21H294Q277 9 277 43ZM363 107V-21L469 43Z" />
      </g>
    </svg>