<svg xmlns="http://www.w3.org/2000/svg" viewBox="43 -21 426 426">
      <g transform="scale(1 -1) translate(0 -384)">
        <path d="M380 21Q373 2 357.0 -9.5Q341 -21 320 -21H107Q79 -21 61.0 -3.0Q43 15 43 43V64H303Q309 45 325.5 33.0Q342 21 363 21ZM405 405Q433 405 451.0 387.0Q469 369 469 341V320H427V341Q427 351 421.0 357.0Q415 363 405.5 363.0Q396 363 390.0 357.0Q384 351 384 341V64H363Q353 64 347.0 70.0Q341 76 341 85V107H107V341Q107 369 125.0 387.0Q143 405 171 405ZM171 320V277H320V320ZM171 235V192H299V235Z" />
      </g>
    </svg>