<svg xmlns="http://www.w3.org/2000/svg" viewBox="43 -21 426 426">
      <g transform="scale(1 -1) translate(0 -384)">
        <path d="M320 21Q329 21 335.0 27.5Q341 34 341 43V363H171Q162 363 155.5 356.5Q149 350 149 341V107H107V341Q107 368 125.5 386.5Q144 405 171 405H405Q432 405 450.5 386.5Q469 368 469 341V320H427V341Q427 350 420.5 356.5Q414 363 405.0 363.0Q396 363 390.0 356.5Q384 350 384 341V43Q384 16 365.5 -2.5Q347 -21 320 -21H107Q80 -21 61.5 -2.5Q43 16 43 43V64H277Q277 46 289.5 33.5Q302 21 320 21ZM192 320H299V277H192ZM192 235H299V192H192ZM192 149H299V107H192Z" />
      </g>
    </svg>