<svg xmlns="http://www.w3.org/2000/svg" viewBox="132 -49 249 454">
      <g transform="scale(1 -1) translate(0 -356)">
        <path d="M378 317Q374 327 361 337Q354 343 351.5 346.5Q349 350 346 358Q340 374 331.0 380.5Q322 387 305 388Q296 388 292.0 389.0Q288 390 280 396Q267 405 256.0 405.0Q245 405 231 396Q224 390 219.5 388.5Q215 387 206 387Q189 387 180.5 380.5Q172 374 166 358Q163 350 160.5 346.5Q158 343 151 337Q138 327 134.5 316.5Q131 306 136 291Q139 282 139.0 277.5Q139 273 136.0 264.5Q133 256 133 252Q132 245 134 238Q138 227 151 217Q158 212 160.5 208.5Q163 205 166 196Q172 180 181.0 173.5Q190 167 207 167Q216 167 220.0 166.0Q224 165 232 159Q245 149 256.0 149.0Q267 149 281 159Q288 164 292.5 165.5Q297 167 306 167Q323 168 331.5 174.0Q340 180 346 196Q349 205 351.5 208.5Q354 212 361 217Q374 227 377.5 237.5Q381 248 376 264Q373 273 373.0 277.5Q373 282 376.0 290.0Q379 298 379 303Q380 310 378 317ZM256 192Q221 192 196.0 217.0Q171 242 171.0 277.5Q171 313 196.0 338.0Q221 363 256.0 363.0Q291 363 316.0 338.0Q341 313 341.0 277.5Q341 242 316.0 217.0Q291 192 256 192ZM299 277Q299 264 291.5 253.5Q284 243 272.0 238.0Q260 233 247.5 235.5Q235 238 226.0 247.0Q217 256 214.5 269.0Q212 282 217.0 294.0Q222 306 232.5 313.0Q243 320 256 320Q274 320 286.5 307.5Q299 295 299 277ZM292 116 279 39 263 -49 208 4 137 -27 166 133Q185 124 206 124Q219 114 235 110Q245 107 256 107Q275 107 292 116ZM382 47 327 67 338 130Q348 133 356 139L359 141Z" />
      </g>
    </svg>