<svg xmlns="http://www.w3.org/2000/svg" viewBox="64 11 373 373">
      <g transform="scale(1 -1) translate(0 -395)">
        <path d="M331 149 437 43 405 11 299 117V134L293 140Q254 107 203 107Q165 107 133.0 125.5Q101 144 82.5 176.0Q64 208 64.0 245.5Q64 283 82.5 315.0Q101 347 133.0 365.5Q165 384 202.5 384.0Q240 384 272.0 365.5Q304 347 322.5 315.0Q341 283 341 245Q341 194 308 155L314 149ZM203 352 191 351Q179 325 172 299H233Q226 325 214 351Q211 352 203 352ZM295 299Q275 333 238 346Q249 322 255 299ZM110 299H151Q157 322 167 346Q130 333 110 299ZM96 245Q96 229 101 213H147L144 245L147 277H101Q96 262 96 245ZM304 213Q309 229 309.0 245.5Q309 262 304 277H259Q261 261 261.0 245.0Q261 229 259 213ZM168 277 165 245 168 213H237Q240 229 240.0 245.0Q240 261 237 277ZM203 139Q210 139 214 139Q226 165 233 192H172Q179 165 191 139ZM295 192H255Q249 168 238 145Q275 157 295 192ZM110 192Q130 157 167 145Q157 168 151 192Z" />
      </g>
    </svg>