<svg xmlns="http://www.w3.org/2000/svg" viewBox="85 -11 342 416">
      <g transform="scale(1 -1) translate(0 -394)">
        <path d="M192 43H320V0H192Q163 0 138.5 14.5Q114 29 99.5 53.5Q85 78 85 107V299H128V107Q128 80 146.5 61.5Q165 43 192 43ZM222 333Q235 345 235.0 362.5Q235 380 222.5 392.5Q210 405 192.0 405.0Q174 405 161.5 392.5Q149 380 149.0 362.5Q149 345 161.5 332.5Q174 320 192.0 320.0Q210 320 222 333ZM245 256Q245 274 232.5 286.5Q220 299 203 299H192Q174 299 161.5 286.5Q149 274 149 256V128Q149 101 168.0 82.5Q187 64 213 64H321L396 -11L427 20L319 128H245Z" />
      </g>
    </svg>