<svg xmlns="http://www.w3.org/2000/svg" viewBox="43 0 426 405">
      <g transform="scale(1 -1) translate(0 -405)">
        <path d="M114 328Q100 338 97.0 355.5Q94 373 104.0 387.5Q114 402 131.5 405.0Q149 408 163.5 397.5Q178 387 181.0 370.0Q184 353 173.5 338.5Q163 324 146.0 321.0Q129 318 114 328ZM341 43H191Q167 43 149.0 58.0Q131 73 127 97L85 299H43L85 90Q91 51 121.0 25.5Q151 0 191 0H341ZM346 128H242L220 215Q249 199 273 193Q302 185 330 189V235Q305 230 278.0 237.5Q251 245 230 262L195 289Q188 294 178.0 297.0Q168 300 158 298H157Q138 295 126.5 278.5Q115 262 118 242L147 116Q151 93 169.0 78.5Q187 64 210 64H356L437 0L469 32Z" />
      </g>
    </svg>