<svg xmlns="http://www.w3.org/2000/svg" viewBox="73 -21 368 426">
      <g transform="scale(1 -1) translate(0 -384)">
        <path d="M256 405Q274 405 286.5 392.5Q299 380 299.0 362.5Q299 345 286.5 332.5Q274 320 256.0 320.0Q238 320 225.5 332.5Q213 345 213.0 362.5Q213 380 225.5 392.5Q238 405 256 405ZM264 132Q313 132 355 127Q356 171 352.5 206.0Q349 241 341 256Q338 264 331 271L159 123Q215 132 264 132ZM159 85Q164 24 176 -21H221Q212 4 207 43L221 45Q240 47 258 47Q283 47 305 43Q300 4 291 -21H336Q349 25 353 90Q309 95 264 95Q211 95 159 85ZM256 299Q247 298 239 297Q218 294 202 286Q180 275 171 256Q160 234 157 172L297 291Q276 299 256 299ZM396 327 372 355 297 291Q318 284 331 271ZM441 110Q409 121 355 127Q355 111 353 90Q396 84 428 75H429ZM157 172 73 99 92 68Q95 69 110 74Q133 81 159 85Q156 131 157 172Z" />
      </g>
    </svg>