<svg xmlns="http://www.w3.org/2000/svg" viewBox="85 -11 342 416">
      <g transform="scale(1 -1) translate(0 -394)">
        <path d="M162 333Q149 345 149.0 362.5Q149 380 161.5 392.5Q174 405 192.0 405.0Q210 405 222.5 392.5Q235 380 235.0 362.5Q235 345 222.5 332.5Q210 320 192.0 320.0Q174 320 162 333ZM128 107V299H85V107Q85 78 99.5 53.5Q114 29 138.5 14.5Q163 0 192 0H320V43H192Q165 43 146.5 61.5Q128 80 128 107ZM427 20 319 128H245V207Q269 187 300 174Q334 160 363 160V207Q336 206 308.0 218.5Q280 231 263 250L233 283Q228 289 218.0 294.0Q208 299 198 299H197Q177 299 163.0 285.0Q149 271 149 251V128Q149 101 168.0 82.5Q187 64 213 64H321L396 -11Z" />
      </g>
    </svg>