<svg xmlns="http://www.w3.org/2000/svg" viewBox="43 -43 426 427">
      <g transform="scale(1 -1) translate(0 -341)">
        <path d="M277 43H299Q308 43 314.0 36.5Q320 30 320 21H469V-21H320Q320 -30 314.0 -36.5Q308 -43 299 -43H213Q204 -43 198.0 -36.5Q192 -30 192 -21H43V21H192Q192 30 198.0 36.5Q204 43 213 43H235V78Q188 98 158.0 143.5Q128 189 128 242V327L256 384L384 327V242Q384 189 354.0 143.5Q324 98 277 78ZM256 341 171 305V235H256ZM256 235V107Q276 112 296.0 129.0Q316 146 328.5 169.0Q341 192 341 213V235Z" />
      </g>
    </svg>