<svg xmlns="http://www.w3.org/2000/svg" viewBox="23 -38 448 450">
      <g transform="scale(1 -1) translate(0 -374)">
        <path d="M471 -11 51 412 23 384 126 282Q51 185 68 4Q115 0 137 0Q270 0 348 60L446 -38ZM137 43H109Q102 179 156 252L190 218Q172 190 161 156Q154 131 151 106L149 85Q178 144 218 190L316 92Q250 43 137 43ZM213 303 181 335Q254 384 367 384Q412 384 442 378L445 353Q448 321 447 289Q446 244 436 205Q424 155 399 117L367 149Q393 193 401 253Q406 290 403 339Q393 341 367 341Q272 341 213 303ZM273 243 247 269Q291 299 363 299L350 294Q335 287 318 277Q295 262 273 243Z" />
      </g>
    </svg>