<svg xmlns="http://www.w3.org/2000/svg" viewBox="64 -21 404 405">
      <g transform="scale(1 -1) translate(0 -363)">
        <path d="M363 85H299V43H363V-21H405V43H469V85H405V149H363ZM256 64Q256 99 273.0 128.5Q290 158 319.5 175.0Q349 192 384 192Q408 192 430 183Q441 216 445 254Q449 285 448 317Q447 339 444 361L442 378L421 381Q395 384 367 384Q290 384 230 360Q146 327 104 252Q53 158 68 4Q115 0 137 0Q209 0 265 18Q256 40 256 64ZM149 85Q150 96 151 108Q154 135 163 160Q175 196 195 224Q221 258 259 276Q303 299 363 299L349 293Q331 285 312 273Q286 256 261 234Q231 207 204 173Q173 133 149 85Z" />
      </g>
    </svg>