<svg xmlns="http://www.w3.org/2000/svg" viewBox="64 0 383 384">
      <g transform="scale(1 -1) translate(0 -384)">
        <path d="M367 341Q393 341 403 339Q408 286 400 239Q388 169 350 124Q285 43 137 43H109Q102 194 169 267Q205 308 265 327Q311 341 367 341ZM367 384Q290 384 230 360Q146 327 104 252Q53 158 68 4Q115 0 137 0Q205 0 259 16Q308 31 345 59Q378 84 401 119Q421 150 432 189Q442 221 446 258Q449 288 448 319Q447 341 444 361L442 378L421 381Q395 384 367 384ZM363 299Q303 299 259 276Q221 258 195 224Q175 196 163 160Q154 135 151 108L149 85Q173 133 204 173Q231 207 261 234Q286 256 312 273Q331 285 349 293Z" />
      </g>
    </svg>