<svg xmlns="http://www.w3.org/2000/svg" viewBox="64 0 383 384">
      <g transform="scale(1 -1) translate(0 -384)">
        <path d="M442 378Q431 379 421 381Q395 384 367 384Q290 384 230 360Q146 327 104 252Q53 158 68 4Q115 0 137 0Q205 0 259 16Q308 31 345 59Q378 84 401 119Q421 150 432 189Q442 221 446 258Q449 288 448 319Q447 341 444 361ZM149 85Q150 96 151 108Q154 135 163 160Q175 196 195 224Q221 258 259 276Q303 299 363 299L349 293Q331 285 312 273Q286 256 261 234Q231 207 204 173Q173 133 149 85Z" />
      </g>
    </svg>