<svg xmlns="http://www.w3.org/2000/svg" viewBox="64 -21 404 405">
      <g transform="scale(1 -1) translate(0 -363)">
        <path d="M367 341Q393 341 403 339Q410 257 388 192Q408 192 431 183Q441 216 445 254Q449 285 448 317Q447 339 444 361L442 378L421 381Q395 384 367 384Q290 384 230 360Q146 327 104 252Q53 158 68 4Q115 0 137 0Q208 0 265 18Q256 40 256 60Q205 43 137 43H109Q102 194 169 267Q205 308 265 327Q311 341 367 341ZM363 299Q303 299 259 276Q221 258 195 224Q175 196 163 160Q154 135 151 108L149 85Q173 133 204 173Q231 207 261 234Q286 256 312 273Q331 285 349 293ZM363 85H299V43H363V-21H405V43H469V85H405V149H363Z" />
      </g>
    </svg>