<svg xmlns="http://www.w3.org/2000/svg" viewBox="43 -21 426 384">
      <g transform="scale(1 -1) translate(0 -342)">
        <path d="M149 363H171V320H128V341Q128 350 134.5 356.5Q141 363 149 363ZM405 363Q414 363 420.5 356.5Q427 350 427 341V320H384V363ZM299 320V363H341V320ZM213 320V363H256V320ZM213 64V107H256V64ZM149 64Q141 64 134.5 70.5Q128 77 128 85V107H171V64ZM128 192H171V149H128ZM128 277H171V235H128ZM427 277V235H384V277ZM64 277H85V21H311L342 -21H64Q55 -21 49.0 -15.0Q43 -9 43 0V256Q43 265 49.0 271.0Q55 277 64 277ZM395 192Q425 192 447.0 170.0Q469 148 469 117Q469 83 432 27Q413 -1 395 -21L375 2Q353 31 339 57Q320 93 320 117Q320 148 342.0 170.0Q364 192 395 192ZM395 90Q406 90 414.0 98.0Q422 106 421.0 115.5Q420 125 412.0 133.0Q404 141 394.5 141.0Q385 141 377.0 133.5Q369 126 369.0 115.5Q369 105 376.5 97.5Q384 90 395 90Z" />
      </g>
    </svg>