<svg xmlns="http://www.w3.org/2000/svg" viewBox="43 -51 434 456">
      <g transform="scale(1 -1) translate(0 -354)">
        <path d="M411 45Q426 68 426 96Q426 136 398.0 164.0Q370 192 330.0 192.0Q290 192 262.0 164.0Q234 136 234.0 96.0Q234 56 262.0 28.0Q290 0 330 0Q357 0 381 15L447 -51L477 -21ZM330 43Q308 43 292.0 58.5Q276 74 276.0 96.0Q276 118 292.0 133.5Q308 149 330.0 149.0Q352 149 367.5 133.5Q383 118 383.0 96.0Q383 74 367.5 58.5Q352 43 330 43ZM469 149H458Q447 175 427 195V235H469ZM427 363H363V405H427Q444 405 456.5 392.5Q469 380 469 363V299H427ZM299 363H213V405H299ZM85 405H149V363H85V299H43V363Q43 380 55.5 392.5Q68 405 85 405ZM256 -21H213V21Q229 -5 256 -21ZM85 21H149V-21H85Q68 -21 55.5 -8.5Q43 4 43 21V85H85ZM85 149H43V235H85Z" />
      </g>
    </svg>