<svg xmlns="http://www.w3.org/2000/svg" viewBox="64 0 384 384">
      <g transform="scale(1 -1) translate(0 -384)">
        <path d="M192 256H320V128H192ZM149 85H363V299H149ZM320 341H363V384H320ZM320 0H363V43H320ZM405 85H448V128H405ZM405 256H448V299H405ZM405 0Q423 0 435.5 12.5Q448 25 448 43H405ZM405 171H448V213H405ZM235 0H277V43H235ZM192 384H149V341H192ZM64 85H107V128H64ZM107 0V43H64Q64 25 76.5 12.5Q89 0 107 0ZM405 384V341H448Q448 359 435.5 371.5Q423 384 405 384ZM277 384H235V341H277ZM64 256H107V299H64ZM149 0H192V43H149ZM64 171H107V213H64ZM64 341H107V384Q89 384 76.5 371.5Q64 359 64 341Z" />
      </g>
    </svg>