<svg xmlns="http://www.w3.org/2000/svg" viewBox="64 0 384 384">
      <g transform="scale(1 -1) translate(0 -384)">
        <path d="M448 21Q448 13 441.5 6.5Q435 0 427 0H405V43H448ZM320 0V43H363V0ZM235 0V43H277V0ZM149 0V43H192V0ZM85 0Q77 0 70.5 6.5Q64 13 64 21V43H107V0ZM64 128H107V85H64ZM448 128V85H405V128ZM311 277 256 222 201 277 171 247 226 192 171 137 201 107 256 162 311 107 341 137 286 192 341 247ZM64 213H107V171H64ZM448 213V171H405V213ZM64 299H107V256H64ZM448 299V256H405V299ZM85 384H107V341H64V363Q64 371 70.5 377.5Q77 384 85 384ZM427 384Q435 384 441.5 377.5Q448 371 448 363V341H405V384ZM320 341V384H363V341ZM235 341V384H277V341ZM149 341V384H192V341Z" />
      </g>
    </svg>