<svg xmlns="http://www.w3.org/2000/svg" viewBox="46 -18 420 420">
      <g transform="scale(1 -1) translate(0 -384)">
        <path d="M135 16 161 50Q190 31 223 25L217 -18Q175 -10 135 16ZM351 50 376 16Q339 -10 295 -18L289 25Q322 31 351 50ZM423 158 466 152Q458 109 432 71L398 97Q417 125 423 158ZM46 153 89 159Q95 126 114 97L80 71Q54 111 46 153ZM311 277 256 222 201 277 171 247 226 192 171 137 201 107 256 162 311 107 341 137 286 192 341 247ZM398 287 432 313Q458 274 466 231L423 225Q417 259 398 287ZM89 225 46 231Q54 273 80 313L114 287Q95 258 89 225ZM289 359 295 402Q337 394 377 368L351 334Q322 353 289 359ZM161 334 135 368Q175 394 217 402L223 359Q190 353 161 334Z" />
      </g>
    </svg>