<svg xmlns="http://www.w3.org/2000/svg" viewBox="64 0 384 384">
      <g transform="scale(1 -1) translate(0 -384)">
        <path d="M83 384Q75 383 69.5 377.0Q64 371 64 363V341H107V384ZM149 384V341H192V384ZM235 384V341H277V384ZM320 384V341H363V384ZM405 384V363V341H448V365Q447 373 441.0 378.5Q435 384 427 384ZM64 299V256H107V299ZM405 299V256H448V299ZM64 213V171H107V213ZM412 192Q408 192 404 189L371 156L351 176L335 161L351 146L255 51V0H306L401 95L416 80L431 95L411 116L444 149Q447 152 447.0 156.5Q447 161 444 164L419 189Q416 192 412 192ZM64 128V85H107V128ZM363 128 383 107 297 21 277 42ZM64 43V21V19Q65 11 71.0 5.5Q77 0 85 0H107V43ZM149 43V0H192V43Z" />
      </g>
    </svg>