<svg xmlns="http://www.w3.org/2000/svg" viewBox="43 -21 384 384">
      <g transform="scale(1 -1) translate(0 -342)">
        <path d="M235 320V363H320V320ZM128 256H171V171H128ZM128 320Q128 338 140.5 350.5Q153 363 171 363H192V320H171V299H128ZM171 64Q153 64 140.5 76.5Q128 89 128 107V128H171V107H192V64ZM384 363Q402 363 414.5 350.5Q427 338 427 320V299H384V320H363V363ZM320 107V64H235V107ZM427 171H384V256H427ZM427 107Q427 89 414.5 76.5Q402 64 384 64H363V107H384V128H427ZM64 277H85V21H341V0Q341 -9 335.0 -15.0Q329 -21 321 -21H64Q55 -21 49.0 -15.0Q43 -9 43 0V256Q43 265 49.0 271.0Q55 277 64 277Z" />
      </g>
    </svg>