<svg xmlns="http://www.w3.org/2000/svg" viewBox="64 -51 414 435">
      <g transform="scale(1 -1) translate(0 -333)">
        <path d="M412 45Q427 68 427 96Q427 136 399.0 164.0Q371 192 331.0 192.0Q291 192 263.0 164.0Q235 136 235.0 96.0Q235 56 263.0 28.0Q291 0 331 0Q358 0 381 15L448 -51L478 -21ZM331 43Q309 43 293.0 58.5Q277 74 277.0 96.0Q277 118 293.0 133.5Q309 149 331.0 149.0Q353 149 368.5 133.5Q384 118 384.0 96.0Q384 74 368.5 58.5Q353 43 331 43ZM448 256H405V299H448ZM448 341H405V384H427Q435 384 441.5 377.5Q448 371 448 363ZM405 213H448V171H447Q431 196 405 213ZM363 341H320V384H363ZM277 341H235V384H277ZM64 299H107V256H64ZM149 43H192V0H149ZM64 213H107V171H64ZM85 384H107V341H64V363Q64 371 70.5 377.5Q77 384 85 384ZM192 341H149V384H192ZM64 43H107V0H85Q77 0 70.5 6.5Q64 13 64 21ZM64 128H107V85H64Z" />
      </g>
    </svg>