<svg xmlns="http://www.w3.org/2000/svg" viewBox="64 0 384 384">
      <g transform="scale(1 -1) translate(0 -384)">
        <path d="M85 384H107V341H64V363Q64 371 70.5 377.5Q77 384 85 384ZM427 384Q435 384 441.5 377.5Q448 371 448 363V341H405V384ZM320 341V384H363V341ZM235 341V384H277V341ZM149 341V384H192V341ZM448 192Q448 184 441.5 177.5Q435 171 427 171H405V213H448ZM320 171V213H363V171ZM235 171V213H277V171ZM149 171V213H192V171ZM85 171Q77 171 70.5 177.5Q64 184 64 192V213H107V171ZM64 299H107V256H64ZM448 299V256H405V299ZM149 107 256 0 363 107Z" />
      </g>
    </svg>