<svg xmlns="http://www.w3.org/2000/svg" viewBox="43 -21 426 426">
      <g transform="scale(1 -1) translate(0 -384)">
        <path d="M239 363Q198 359 163 337L142 374Q185 401 235 405ZM374 315Q344 343 306 356L320 397Q370 382 405 346ZM114 290Q92 257 85 217L43 223Q49 274 79 315ZM469 192V178L427 181V192Q427 228 414 259L453 276Q469 237 469 192ZM128 79 96 51Q63 89 49 138L89 149Q101 110 128 79ZM259 -21H256Q207 -21 163 -1L182 38Q217 21 256 21H260ZM363 0H320V128H448V85H393L451 26L421 -4L363 53Z" />
      </g>
    </svg>