<svg xmlns="http://www.w3.org/2000/svg" viewBox="64 -43 427 427">
      <g transform="scale(1 -1) translate(0 -341)">
        <path d="M85 384H107V341H64V363Q64 371 70.5 377.5Q77 384 85 384ZM427 384Q435 384 441.5 377.5Q448 371 448 363V341H405V384ZM320 341V384H363V341ZM235 341V384H277V341ZM149 341V384H192V341ZM235 0V43H277V0ZM149 0V43H192V0ZM85 0Q77 0 70.5 6.5Q64 13 64 21V43H107V0ZM64 128H107V85H64ZM64 213H107V171H64ZM64 299H107V256H64ZM448 299V256H405V299ZM416 171Q446 171 468.5 148.5Q491 126 491 96Q491 71 471 35Q457 10 435 -19L416 -43L397 -19Q375 10 361 35Q341 71 341 96Q341 126 363.5 148.5Q386 171 416 171ZM416 68Q427 68 435.0 76.0Q443 84 442.5 93.5Q442 103 434.0 111.0Q426 119 416.0 119.0Q406 119 398.0 112.0Q390 105 390.0 94.5Q390 84 397.5 76.0Q405 68 416 68Z" />
      </g>
    </svg>