<svg xmlns="http://www.w3.org/2000/svg" viewBox="43 -21 384 384">
      <g transform="scale(1 -1) translate(0 -342)">
        <path d="M384 192H427V149H384ZM299 107H341V64H299ZM427 85Q427 77 420.5 70.5Q414 64 405 64H384V107H427ZM149 363H171V320H128V341Q128 350 134.5 356.5Q141 363 149 363ZM405 363Q414 363 420.5 356.5Q427 350 427 341V320H384V363ZM299 320V363H341V320ZM213 320V363H256V320ZM213 64V107H256V64ZM149 64Q141 64 134.5 70.5Q128 77 128 85V107H171V64ZM128 192H171V149H128ZM128 277H171V235H128ZM427 277V235H384V277ZM64 277H85V21H341V0Q341 -9 335.0 -15.0Q329 -21 321 -21H64Q55 -21 49.0 -15.0Q43 -9 43 0V256Q43 265 49.0 271.0Q55 277 64 277Z" />
      </g>
    </svg>