<svg xmlns="http://www.w3.org/2000/svg" viewBox="64 0 384 384">
      <g transform="scale(1 -1) translate(0 -384)">
        <path d="M107 384Q89 384 76.5 371.5Q64 359 64 341H107ZM149 384V341H192V384ZM235 384V341H277V384ZM320 384V341H363V384ZM405 384V341H448Q448 359 435.5 371.5Q423 384 405 384ZM64 299V256H107V299ZM149 299V213H235V299ZM277 299V213H363V299ZM405 299V256H448V299ZM64 213V171H107V213ZM405 213V171H448V213ZM149 171V85H235V171ZM277 171V85H363V171ZM64 128V85H107V128ZM405 128V85H448V128ZM64 43Q64 25 76.5 12.5Q89 0 107 0V43ZM149 43V0H192V43ZM235 43V0H277V43ZM320 43V0H363V43ZM405 43V0Q423 0 435.5 12.5Q448 25 448 43Z" />
      </g>
    </svg>