<svg xmlns="http://www.w3.org/2000/svg" viewBox="43 -43 426 448">
      <g transform="scale(1 -1) translate(0 -362)">
        <path d="M43 363Q43 380 55.5 392.5Q68 405 85 405H149V363H85V299H43ZM469 363V299H427V363H363V405H427Q444 405 456.5 392.5Q469 380 469 363ZM43 21V85H85V21H149V-21H85Q68 -21 55.5 -8.5Q43 4 43 21ZM213 405H299V363H213ZM213 21H299V-21H213ZM43 235H85V149H43ZM395 171Q425 171 447.0 148.5Q469 126 469 96Q469 71 450 35Q436 10 414 -19L395 -43L375 -19Q353 10 339 35Q320 71 320 96Q320 126 342.0 148.5Q364 171 395 171ZM395 68Q406 68 414.0 76.0Q422 84 421.0 93.5Q420 103 412.0 111.0Q404 119 394.5 119.0Q385 119 377.0 112.0Q369 105 369.0 94.5Q369 84 376.5 76.0Q384 68 395 68ZM427 235H469V185Q450 202 427 208Z" />
      </g>
    </svg>