<svg xmlns="http://www.w3.org/2000/svg" viewBox="21 -43 427 427">
      <g transform="scale(1 -1) translate(0 -341)">
        <path d="M21 357 49 384 448 -15 421 -43 363 16V0H320V43H336L107 272V256H64V299H80ZM427 384Q436 384 442.0 378.0Q448 372 448 363V341H405V384ZM320 341V384H363V341ZM235 341V384H277V341ZM149 341V384H192V341ZM235 0V43H277V0ZM149 0V43H192V0ZM85 0Q76 0 70.0 6.0Q64 12 64 21V43H107V0ZM64 128H107V85H64ZM448 128V85H405V128ZM64 213H107V171H64ZM448 213V171H405V213ZM448 299V256H405V299Z" />
      </g>
    </svg>