<svg xmlns="http://www.w3.org/2000/svg" viewBox="43 -21 426 426">
      <g transform="scale(1 -1) translate(0 -384)">
        <path d="M427 21V85H469V21Q469 4 456.5 -8.5Q444 -21 427 -21H363V21ZM43 21V85H85V21H149V-21H85Q68 -21 55.5 -8.5Q43 4 43 21ZM213 21H299V-21H213ZM311 277 256 222 201 277 171 247 226 192 171 137 201 107 256 162 311 107 341 137 286 192 341 247ZM427 235H469V149H427ZM43 235H85V149H43ZM43 363Q43 380 55.5 392.5Q68 405 85 405H149V363H85V299H43ZM469 363V299H427V363H363V405H427Q444 405 456.5 392.5Q469 380 469 363ZM213 405H299V363H213Z" />
      </g>
    </svg>