<svg xmlns="http://www.w3.org/2000/svg" viewBox="64 -21 405 405">
      <g transform="scale(1 -1) translate(0 -363)">
        <path d="M85 384H107V341H64V363Q64 372 70.0 378.0Q76 384 85 384ZM427 384Q436 384 442.0 378.0Q448 372 448 363V341H405V384ZM320 341V384H363V341ZM235 341V384H277V341ZM149 341V384H192V341ZM235 0V43H277V0ZM149 0V43H192V0ZM85 0Q76 0 70.0 6.0Q64 12 64 21V43H107V0ZM64 128H107V85H64ZM64 213H107V171H64ZM448 213V171H405V213ZM64 299H107V256H64ZM448 299V256H405V299ZM405 128 341 64H384V-21H427V64H469Z" />
      </g>
    </svg>