<svg xmlns="http://www.w3.org/2000/svg" viewBox="43 -43 448 427">
      <g transform="scale(1 -1) translate(0 -341)">
        <path d="M43 384V235L235 192L43 149V0L198 66Q211 18 251.0 -12.5Q291 -43 341 -43Q382 -43 416.0 -22.5Q450 -2 470.5 32.0Q491 66 491.0 106.5Q491 147 470.5 181.5Q450 216 416.0 236.0Q382 256 341 256ZM85 319 273 239Q265 235 258 230L85 269ZM341 213Q370 213 394.5 199.0Q419 185 433.5 160.5Q448 136 448.0 107.0Q448 78 433.5 53.5Q419 29 394.5 14.5Q370 0 341.0 0.0Q312 0 287.5 14.5Q263 29 249.0 53.5Q235 78 235.0 107.0Q235 136 249.0 160.5Q263 185 287.5 199.0Q312 213 341 213ZM320 181V96L384 53L400 80L352 112V181ZM196 140Q192 125 192 111L85 65V115Z" />
      </g>
    </svg>