<svg xmlns="http://www.w3.org/2000/svg" viewBox="43 -64 469 448">
      <g transform="scale(1 -1) translate(0 -320)">
        <path d="M491 64V75Q491 97 475.0 112.5Q459 128 437.0 128.0Q415 128 399.5 112.5Q384 97 384 75V64Q375 64 369.0 57.5Q363 51 363 43V-43Q363 -51 369.0 -57.5Q375 -64 384 -64H491Q499 -64 505.5 -57.5Q512 -51 512 -43V43Q512 51 505.5 57.5Q499 64 491 64ZM469 64H405V75Q405 88 414.5 97.5Q424 107 437.5 107.0Q451 107 460.0 97.5Q469 88 469 75ZM85 319 245 251 85 272ZM245 133 85 65V112ZM43 384V235L363 192L43 149V0L491 192Z" />
      </g>
    </svg>