<svg xmlns="http://www.w3.org/2000/svg" viewBox="21 -64 448 491">
      <g transform="scale(1 -1) translate(0 -363)">
        <path d="M85 427H427Q436 427 442.0 420.5Q448 414 448 405V320Q448 311 442.0 305.0Q436 299 427 299H188L145 341H149V384H107V380L68 418Q75 427 85 427ZM469 -37 442 -64 421 -43H85Q76 -43 70.0 -36.5Q64 -30 64 -21V64Q64 73 70.0 79.0Q76 85 85 85H293L250 128H85Q76 128 70.0 134.0Q64 140 64 149V235Q64 244 70.0 250.0Q76 256 85 256H122L79 300Q68 303 65 313L21 357L49 384ZM427 256Q436 256 442.0 250.0Q448 244 448 235V149Q448 140 442.0 134.0Q436 128 427 128H359L231 256ZM427 85Q436 85 442.0 79.0Q448 73 448 64V39L401 85ZM192 341H213V384H192ZM192 171H208L192 186ZM192 0H213V43H192ZM107 213V171H149V213ZM107 43V0H149V43Z" />
      </g>
    </svg>