<svg xmlns="http://www.w3.org/2000/svg" viewBox="64 -43 384 470">
      <g transform="scale(1 -1) translate(0 -384)">
        <path d="M85 427H427Q436 427 442.0 420.5Q448 414 448 405V320Q448 311 442.0 305.0Q436 299 427 299H85Q76 299 70.0 305.0Q64 311 64 320V405Q64 414 70.0 420.5Q76 427 85 427ZM85 256H427Q436 256 442.0 250.0Q448 244 448 235V149Q448 140 442.0 134.0Q436 128 427 128H85Q76 128 70.0 134.0Q64 140 64 149V235Q64 244 70.0 250.0Q76 256 85 256ZM85 85H427Q436 85 442.0 79.0Q448 73 448 64V-21Q448 -30 442.0 -36.5Q436 -43 427 -43H85Q76 -43 70.0 -36.5Q64 -30 64 -21V64Q64 73 70.0 79.0Q76 85 85 85ZM192 341H213V384H192ZM192 171H213V213H192ZM192 0H213V43H192ZM107 384V341H149V384ZM107 213V171H149V213ZM107 43V0H149V43Z" />
      </g>
    </svg>