<svg xmlns="http://www.w3.org/2000/svg" viewBox="43 -43 426 470">
      <g transform="scale(1 -1) translate(0 -384)">
        <path d="M64 427H405Q414 427 420.5 420.5Q427 414 427 405V320Q427 311 420.5 305.0Q414 299 405 299H64Q55 299 49.0 305.0Q43 311 43 320V405Q43 414 49.0 420.5Q55 427 64 427ZM64 256H405Q414 256 420.5 250.0Q427 244 427 235V220L373 244L235 183V128H64Q55 128 49.0 134.0Q43 140 43 149V235Q43 244 49.0 250.0Q55 256 64 256ZM64 85H235Q236 50 249.5 16.5Q263 -17 287 -43H64Q55 -43 49.0 -36.5Q43 -30 43 -21V64Q43 73 49.0 79.0Q55 85 64 85ZM171 341H192V384H171ZM171 171H192V213H171ZM171 0H192V43H171ZM85 384V341H128V384ZM85 213V171H128V213ZM85 43V0H128V43ZM373 192 469 149V85Q469 41 442.0 4.0Q415 -33 373 -43Q332 -33 304.5 4.0Q277 41 277 85V149ZM373 151 320 127V70Q320 45 335.0 24.5Q350 4 373 -1Z" />
      </g>
    </svg>