<svg xmlns="http://www.w3.org/2000/svg" viewBox="43 -43 426 427">
      <g transform="scale(1 -1) translate(0 -341)">
        <path d="M277 43H299Q308 43 314.0 36.5Q320 30 320 21H469V-21H320Q320 -30 314.0 -36.5Q308 -43 299 -43H213Q204 -43 198.0 -36.5Q192 -30 192 -21H43V21H192Q192 30 198.0 36.5Q204 43 213 43H235V85H85Q76 85 70.0 91.5Q64 98 64 107V192Q64 201 70.0 207.0Q76 213 85 213H427Q436 213 442.0 207.0Q448 201 448 192V107Q448 98 442.0 91.5Q436 85 427 85H277ZM85 384H427Q436 384 442.0 378.0Q448 372 448 363V277Q448 268 442.0 262.0Q436 256 427 256H85Q76 256 70.0 262.0Q64 268 64 277V363Q64 372 70.0 378.0Q76 384 85 384ZM192 299H213V341H192ZM192 128H213V171H192ZM107 341V299H149V341ZM107 171V128H149V171Z" />
      </g>
    </svg>