<svg xmlns="http://www.w3.org/2000/svg" viewBox="43 43 426 298">
      <g transform="scale(1 -1) translate(0 -384)">
        <path d="M320 43Q287 43 256 57Q225 43 192 43Q151 43 117.0 63.0Q83 83 63.0 117.0Q43 151 43.0 192.0Q43 233 63.0 267.0Q83 301 117.0 321.0Q151 341 192 341Q225 341 256 327Q287 341 320 341Q361 341 395.0 321.0Q429 301 449.0 267.0Q469 233 469.0 192.0Q469 151 449.0 117.0Q429 83 395.0 63.0Q361 43 320 43ZM192 85 213 88Q193 108 182.0 135.5Q171 163 171.0 192.0Q171 221 182.0 248.5Q193 276 213 297L192 299Q163 299 138.5 284.5Q114 270 99.5 245.5Q85 221 85.0 192.0Q85 163 99.5 138.5Q114 114 138.5 99.5Q163 85 192 85ZM256 107Q276 122 287.5 144.5Q299 167 299.0 192.0Q299 217 287.5 239.5Q276 262 256 277Q236 262 224.5 239.5Q213 217 213.0 192.0Q213 167 224.5 144.5Q236 122 256 107Z" />
      </g>
    </svg>