<svg xmlns="http://www.w3.org/2000/svg" viewBox="43 43 426 298">
      <g transform="scale(1 -1) translate(0 -384)">
        <path d="M192 341Q151 341 117.0 321.0Q83 301 63.0 267.0Q43 233 43.0 192.0Q43 151 63.0 117.0Q83 83 117.0 63.0Q151 43 192 43Q225 43 256 57Q287 43 320 43Q361 43 395.0 63.0Q429 83 449.0 117.0Q469 151 469.0 192.0Q469 233 449.0 267.0Q429 301 395.0 321.0Q361 341 320 341Q287 341 256 327Q225 341 192 341ZM192 299Q203 299 213 297Q193 276 182.0 248.5Q171 221 171.0 192.0Q171 163 182.0 135.5Q193 108 213 88Q202 85 192 85Q163 85 138.5 99.5Q114 114 99.5 138.5Q85 163 85.0 192.0Q85 221 99.5 245.5Q114 270 138.5 284.5Q163 299 192 299ZM320 299Q349 299 373.5 284.5Q398 270 412.5 245.5Q427 221 427.0 192.0Q427 163 412.5 138.5Q398 114 373.5 99.5Q349 85 320 85Q309 85 299 87Q319 108 330.0 135.5Q341 163 341.0 192.0Q341 221 330.0 248.5Q319 276 299 296Q310 299 320 299Z" />
      </g>
    </svg>