<svg xmlns="http://www.w3.org/2000/svg" viewBox="43 43 426 298">
      <g transform="scale(1 -1) translate(0 -384)">
        <path d="M192 341Q225 341 256 327Q287 341 320 341Q361 341 395.0 321.0Q429 301 449.0 267.0Q469 233 469.0 192.0Q469 151 449.0 117.0Q429 83 395.0 63.0Q361 43 320 43Q287 43 256 57Q225 43 192 43Q151 43 117.0 63.0Q83 83 63.0 117.0Q43 151 43.0 192.0Q43 233 63.0 267.0Q83 301 117.0 321.0Q151 341 192 341ZM181 192Q181 163 193.0 136.5Q205 110 225 91L247 100Q226 117 214.5 141.0Q203 165 203.0 192.0Q203 219 214.5 243.0Q226 267 247 284L225 293Q205 274 193.0 247.5Q181 221 181 192ZM331 192Q331 221 319.0 247.5Q307 274 287 293L265 284Q286 267 297.5 243.0Q309 219 309.0 192.0Q309 165 297.5 141.0Q286 117 265 100L287 91Q307 110 319.0 136.5Q331 163 331 192Z" />
      </g>
    </svg>