<svg xmlns="http://www.w3.org/2000/svg" viewBox="43 43 426 298">
      <g transform="scale(1 -1) translate(0 -384)">
        <path d="M192 341Q225 341 256 327Q287 341 320 341Q361 341 395.0 321.0Q429 301 449.0 267.0Q469 233 469.0 192.0Q469 151 449.0 117.0Q429 83 395.0 63.0Q361 43 320 43Q287 43 256 57Q225 43 192 43Q151 43 117.0 63.0Q83 83 63.0 117.0Q43 151 43.0 192.0Q43 233 63.0 267.0Q83 301 117.0 321.0Q151 341 192 341ZM192 192Q192 157 209.5 127.5Q227 98 256 81Q285 98 302.5 127.5Q320 157 320.0 192.0Q320 227 302.5 256.5Q285 286 256 303Q227 286 209.5 256.5Q192 227 192 192Z" />
      </g>
    </svg>