<svg xmlns="http://www.w3.org/2000/svg" viewBox="21 107 470 128">
      <g transform="scale(1 -1) translate(0 -342)">
        <path d="M107 117Q107 113 103.5 110.0Q100 107 96 107H75Q70 107 67.0 110.0Q64 113 64 117V128H43Q34 128 27.5 134.0Q21 140 21 149V213Q21 222 27.5 228.5Q34 235 43 235H469Q478 235 484.5 228.5Q491 222 491 213V149Q491 140 484.5 134.0Q478 128 469 128H448V117Q448 113 445.0 110.0Q442 107 437 107H416Q412 107 408.5 110.0Q405 113 405 117V128H107ZM64 192V171H107V192ZM128 192V171H171V192ZM437 203Q428 203 422.0 196.5Q416 190 416.0 181.0Q416 172 422.0 166.0Q428 160 437.0 160.0Q446 160 452.5 166.0Q459 172 459.0 181.0Q459 190 452.5 196.5Q446 203 437 203Z" />
      </g>
    </svg>