<svg xmlns="http://www.w3.org/2000/svg" viewBox="64 0 384 405">
      <g transform="scale(1 -1) translate(0 -405)">
        <path d="M360 363 406 318 288 224 267 245ZM360 405Q340 405 327 390L209 242L285 167L433 284Q447 297 448.0 315.5Q449 334 435 348L390 393Q378 405 360 405ZM194 227 179 212Q173 206 173.0 197.0Q173 188 179 181L224 137Q230 130 239.0 130.0Q248 130 255 137L269 151ZM128 128Q119 128 113.0 121.5Q107 115 107.0 106.5Q107 98 113.0 91.5Q119 85 128.0 85.0Q137 85 143.0 91.5Q149 98 149.0 106.5Q149 115 143.0 121.5Q137 128 128 128ZM192 107Q183 107 177.0 100.5Q171 94 171.0 85.5Q171 77 177.0 70.5Q183 64 192.0 64.0Q201 64 207.0 70.5Q213 77 213.0 85.5Q213 94 207.0 100.5Q201 107 192 107ZM85 64Q77 64 70.5 57.5Q64 51 64.0 42.5Q64 34 70.5 27.5Q77 21 85.5 21.0Q94 21 100.5 27.5Q107 34 107.0 42.5Q107 51 100.5 57.5Q94 64 85 64ZM149 43Q141 43 134.5 36.5Q128 30 128.0 21.5Q128 13 134.5 6.5Q141 0 149.5 0.0Q158 0 164.5 6.5Q171 13 171.0 21.5Q171 30 164.5 36.5Q158 43 149 43Z" />
      </g>
    </svg>