<svg xmlns="http://www.w3.org/2000/svg" viewBox="64 0 405 405">
      <g transform="scale(1 -1) translate(0 -405)">
        <path d="M235 43Q269 43 298.5 60.0Q328 77 345.5 106.5Q363 136 363 171H405Q405 124 382.0 85.0Q359 46 320.0 23.0Q281 0 234.5 0.0Q188 0 149.0 23.0Q110 46 87.0 85.0Q64 124 64.0 170.5Q64 217 87.0 256.0Q110 295 149.0 318.0Q188 341 235 341V299Q200 299 170.5 281.5Q141 264 124.0 234.5Q107 205 107.0 170.5Q107 136 124.0 106.5Q141 77 170.5 60.0Q200 43 235 43ZM405 341H469V299H405V235H363V299H299V341H363V405H405Z" />
      </g>
    </svg>