<svg xmlns="http://www.w3.org/2000/svg" viewBox="85 -21 384 426">
      <g transform="scale(1 -1) translate(0 -384)">
        <path d="M405 341H469V299H405V235H363V299H299V341H363V405H405ZM235 363 256 361V317Q245 320 235 320Q206 320 181.5 300.0Q157 280 142.5 245.5Q128 211 128.0 170.5Q128 130 142.5 95.5Q157 61 181.5 41.0Q206 21 235.0 21.0Q264 21 288.5 41.0Q313 61 327.0 95.5Q341 130 341 171L340 192H383L384 171Q384 119 364.0 74.5Q344 30 309.5 4.5Q275 -21 234.5 -21.0Q194 -21 159.5 4.5Q125 30 105.0 74.5Q85 119 85.0 171.0Q85 223 105.0 267.0Q125 311 159.5 337.0Q194 363 235 363Z" />
      </g>
    </svg>