<svg xmlns="http://www.w3.org/2000/svg" viewBox="64 -21 405 426">
      <g transform="scale(1 -1) translate(0 -384)">
        <path d="M235 160V-11H64V160ZM192 117H107V32H192ZM256 405 373 213H139ZM256 323 215 256H297ZM373 171Q413 171 441.0 143.0Q469 115 469.0 75.0Q469 35 441.0 7.0Q413 -21 373.0 -21.0Q333 -21 305.0 7.0Q277 35 277.0 75.0Q277 115 305.0 143.0Q333 171 373 171ZM373 128Q351 128 335.5 112.5Q320 97 320.0 75.0Q320 53 335.5 37.0Q351 21 373.0 21.0Q395 21 411.0 37.0Q427 53 427.0 75.0Q427 97 411.0 112.5Q395 128 373 128Z" />
      </g>
    </svg>