<svg xmlns="http://www.w3.org/2000/svg" viewBox="43 -21 426 426">
      <g transform="scale(1 -1) translate(0 -384)">
        <path d="M469 107V64H427Q384 64 341 85Q301 65 256.0 65.0Q211 65 171 85Q128 64 85 64H43V107H85Q129 107 171 134Q209 107 256.0 107.0Q303 107 341 134Q383 107 427 107ZM113 154Q131 159 147 170L171 186Q196 270 162 360Q231 348 289.0 294.0Q347 240 371 167Q395 152 419 150Q404 219 360.5 278.0Q317 337 257 370Q195 405 128 405Q116 405 110.0 395.0Q104 385 109 374Q141 310 139 249Q137 200 113 154ZM341 49Q303 22 256.0 22.0Q209 22 171 49Q129 21 85 21H43V-21H85Q128 -21 171 0Q211 -21 256.0 -21.0Q301 -21 341 0Q384 -21 427 -21H469V21H427Q383 21 341 49Z" />
      </g>
    </svg>