<svg xmlns="http://www.w3.org/2000/svg" viewBox="21 64 470 256">
      <g transform="scale(1 -1) translate(0 -384)">
        <path d="M332 254Q318 283 288 302Q261 320 235 320Q247 282 234 247Q200 239 161 226L128 213L110 235Q88 261 68 277Q40 299 21 299L64 171L43 85Q62 85 84 102Q100 114 115 133L128 149L158 138Q194 126 226 118Q270 107 299 107V64Q310 64 327.5 77.0Q345 90 357 112Q392 118 424 132Q418 139 411 143Q394 154 363 160Q395 166 418 163Q436 161 448 152L453 148Q471 160 481.0 172.0Q491 184 491.0 192.5Q491 201 467.0 214.0Q443 227 408 238Q369 250 332 254ZM384 192Q375 192 369.0 198.5Q363 205 363.0 212.5Q363 220 368 227Q383 223 405 217Q405 216 405 213Q405 205 399.0 198.5Q393 192 384 192Z" />
      </g>
    </svg>