<svg xmlns="http://www.w3.org/2000/svg" viewBox="64 -19 384 424">
      <g transform="scale(1 -1) translate(0 -386)">
        <path d="M384 105Q360 105 342 89L190 177Q192 186 192.0 192.0Q192 198 190 207L340 295Q359 277 385.0 277.0Q411 277 429.5 296.0Q448 315 448.0 341.5Q448 368 429.5 386.5Q411 405 384.0 405.0Q357 405 338.5 386.5Q320 368 320 341Q320 335 322 326L172 239Q153 256 127.0 256.0Q101 256 82.5 237.5Q64 219 64.0 192.0Q64 165 82.5 146.5Q101 128 127.0 128.0Q153 128 172 145L323 57Q322 50 322 43Q322 17 340.0 -1.0Q358 -19 384.0 -19.0Q410 -19 428.0 -1.0Q446 17 446.0 42.5Q446 68 428.0 86.5Q410 105 384 105ZM384 363Q393 363 399.0 356.5Q405 350 405.0 341.5Q405 333 399.0 326.5Q393 320 384.0 320.0Q375 320 369.0 326.5Q363 333 363.0 341.5Q363 350 369.0 356.5Q375 363 384 363ZM128 171Q119 171 113.0 177.0Q107 183 107.0 192.0Q107 201 113.0 207.0Q119 213 128.0 213.0Q137 213 143.0 207.0Q149 201 149.0 192.0Q149 183 143.0 177.0Q137 171 128 171ZM384 21Q375 21 369.0 27.5Q363 34 363.0 42.5Q363 51 369.0 57.5Q375 64 384.0 64.0Q393 64 399.0 57.5Q405 51 405.0 42.5Q405 34 399.0 27.5Q393 21 384 21Z" />
      </g>
    </svg>