<svg xmlns="http://www.w3.org/2000/svg" viewBox="43 -21 426 426">
      <g transform="scale(1 -1) translate(0 -384)">
        <path d="M427 267Q427 245 411.0 229.0Q395 213 373 213Q356 213 342.5 223.0Q329 233 323 248Q308 235 288 235Q270 235 256 245Q242 235 224 235Q204 235 189 248Q183 233 169.5 223.0Q156 213 139 213Q117 213 101.0 229.0Q85 245 85 267Q85 286 98.0 301.0Q111 316 130 319Q128 325 128 331Q128 344 137.5 353.5Q147 363 160 363Q166 363 172 360Q175 371 183.5 377.5Q192 384 203 384Q211 384 217 380Q222 391 232.5 398.0Q243 405 256.0 405.0Q269 405 279.5 398.0Q290 391 295 380Q301 384 309 384Q320 384 328.5 377.5Q337 371 340 360Q346 363 352 363Q365 363 374.5 353.5Q384 344 384 331Q384 325 382 319Q401 316 414.0 301.0Q427 286 427 267ZM213 192Q204 192 198.0 186.0Q192 180 192.0 171.0Q192 162 198.0 155.5Q204 149 213.0 149.0Q222 149 228.5 155.5Q235 162 235.0 171.0Q235 180 228.5 186.0Q222 192 213 192ZM299 192Q290 192 283.5 186.0Q277 180 277.0 171.0Q277 162 283.5 155.5Q290 149 299.0 149.0Q308 149 314.0 155.5Q320 162 320.0 171.0Q320 180 314.0 186.0Q308 192 299 192ZM432 221Q421 207 406.0 199.5Q391 192 373 192Q360 192 346 198Q346 150 338 113Q328 67 308 44Q292 25 267 22V64H245V22Q220 25 204 44Q183 67 174 113Q166 150 166 198Q152 192 139 192Q121 192 106.0 199.5Q91 207 80 221Q61 202 43 192L50 181Q59 168 71 160Q88 149 107 149Q116 149 125 151Q132 77 158 34Q192 -21 256.0 -21.0Q320 -21 354 34Q380 77 387 151Q396 149 405 149Q424 149 441 160Q453 168 462 181L469 192L458 199Q443 209 432 221Z" />
      </g>
    </svg>