<svg xmlns="http://www.w3.org/2000/svg" viewBox="64 -43 384 470">
      <g transform="scale(1 -1) translate(0 -384)">
        <path d="M256 427 64 341V213Q64 155 89.0 101.0Q114 47 158.0 9.0Q202 -29 256 -43Q310 -29 354.0 9.0Q398 47 423.0 101.0Q448 155 448 213V341ZM256 341Q283 341 301.5 322.5Q320 304 320.0 277.5Q320 251 301.5 232.0Q283 213 256.0 213.0Q229 213 210.5 232.0Q192 251 192.0 277.5Q192 304 210.5 322.5Q229 341 256 341ZM365 85Q346 56 318.0 34.5Q290 13 256 2Q222 13 194.0 34.5Q166 56 147 85Q135 102 128 118Q128 135 145.5 150.0Q163 165 192.0 173.5Q221 182 256.0 182.0Q291 182 320.0 173.5Q349 165 366.5 150.5Q384 136 384 118Q377 102 365 85Z" />
      </g>
    </svg>