<svg xmlns="http://www.w3.org/2000/svg" viewBox="64 -43 427 427">
      <g transform="scale(1 -1) translate(0 -341)">
        <path d="M363 141Q372 141 379.0 134.0Q386 127 386.0 117.5Q386 108 379.0 101.0Q372 94 362.5 94.0Q353 94 346.0 101.0Q339 108 339.0 117.5Q339 127 346.0 134.0Q353 141 363 141ZM363 75Q349 75 334 69Q316 61 316 51Q324 40 336.5 33.0Q349 26 363.0 26.0Q377 26 389.0 33.0Q401 40 410 51Q410 61 392 69Q377 75 363 75ZM384 211V314L224 384L64 314V209Q64 162 85.0 117.5Q106 73 142.5 41.5Q179 10 224 0Q237 2 258 11Q276 -14 303.5 -28.5Q331 -43 363 -43Q397 -43 426.5 -25.5Q456 -8 473.5 21.5Q491 51 491 85Q491 133 460.5 168.0Q430 203 384 211ZM235 85Q235 73 239 51L224 45Q173 61 140.0 107.0Q107 153 107 209V286L224 337L341 286V211Q296 203 265.5 168.0Q235 133 235 85ZM363 0Q327 0 302.0 25.0Q277 50 277.0 85.5Q277 121 302.0 146.0Q327 171 362.5 171.0Q398 171 423.0 146.0Q448 121 448.0 85.5Q448 50 423.0 25.0Q398 0 363 0Z" />
      </g>
    </svg>