<svg xmlns="http://www.w3.org/2000/svg" viewBox="64 -43 384 470">
      <g transform="scale(1 -1) translate(0 -384)">
        <path d="M256 427 64 341V213Q64 155 89.0 101.0Q114 47 158.0 9.0Q202 -29 256 -43Q310 -29 354.0 9.0Q398 47 423.0 101.0Q448 155 448 213V341ZM256 299Q279 299 297.5 283.0Q316 267 316 245V213Q326 213 333.5 205.0Q341 197 341 186V111Q341 101 333.0 93.0Q325 85 314 85H196Q186 85 178.5 93.5Q171 102 171 113V188Q171 197 179.0 205.0Q187 213 196 213V245Q196 267 214.5 283.0Q233 299 256 299ZM256 273Q243 273 233.5 265.5Q224 258 224 245V213H288V245Q288 258 278.5 265.5Q269 273 256 273Z" />
      </g>
    </svg>