<svg xmlns="http://www.w3.org/2000/svg" viewBox="64 -43 384 470">
      <g transform="scale(1 -1) translate(0 -384)">
        <path d="M308 288 341 213H171L201 288ZM192 192Q183 192 177.0 185.5Q171 179 171.0 170.5Q171 162 177.0 155.5Q183 149 192.0 149.0Q201 149 207.0 155.5Q213 162 213.0 170.5Q213 179 207.0 185.5Q201 192 192 192ZM320 192Q311 192 305.0 185.5Q299 179 299.0 170.5Q299 162 305.0 155.5Q311 149 320.0 149.0Q329 149 335.0 155.5Q341 162 341.0 170.5Q341 179 335.0 185.5Q329 192 320 192ZM448 341V213Q448 155 423.0 101.0Q398 47 354.0 9.0Q310 -29 256 -43Q202 -29 158.0 9.0Q114 47 89.0 101.0Q64 155 64 213V341L256 427ZM384 192 338 299Q335 308 326.5 314.0Q318 320 308 320H201Q191 320 182.5 314.0Q174 308 171 299L128 192V107Q128 98 134.5 91.5Q141 85 149 85H171Q179 85 185.5 91.5Q192 98 192 107V128H320V107Q320 98 326.5 91.5Q333 85 341 85H363Q371 85 377.5 91.5Q384 98 384 107Z" />
      </g>
    </svg>