<svg xmlns="http://www.w3.org/2000/svg" viewBox="64 -43 384 470">
      <g transform="scale(1 -1) translate(0 -384)">
        <path d="M448 213Q448 155 423.0 101.0Q398 47 354.0 9.0Q310 -29 256 -43Q202 -29 158.0 9.0Q114 47 89.0 101.0Q64 155 64 213V341L256 427L448 341ZM256 0Q295 11 329.5 43.0Q364 75 384.5 119.0Q405 163 405 209V314L256 380L107 314V209Q107 163 127.5 119.0Q148 75 182.5 43.0Q217 11 256 0ZM305 240Q324 221 324.0 194.0Q324 167 305 148L262 105Q242 85 215.0 85.0Q188 85 168.5 104.5Q149 124 149.0 151.0Q149 178 169 198L195 224V212Q195 197 200 184L201 181L193 173Q183 164 183.0 151.0Q183 138 192.5 129.0Q202 120 215.0 120.0Q228 120 237 129L280 172Q290 181 290.0 194.0Q290 207 280 216Q275 222 275.0 228.5Q275 235 280.0 240.0Q285 245 292.5 245.0Q300 245 305 240ZM384 254Q384 227 365 208L338 181V193Q338 208 334 221L333 224L340 232Q350 241 350.0 254.0Q350 267 341.0 276.5Q332 286 318.5 286.0Q305 286 296 277L253 234Q244 225 244.0 211.5Q244 198 253 189Q258 184 258.0 177.0Q258 170 253.0 165.0Q248 160 241.0 160.0Q234 160 229 165Q209 184 209.0 211.5Q209 239 229 258L272 301Q291 320 318.5 320.0Q346 320 365.0 300.5Q384 281 384 254Z" />
      </g>
    </svg>