<svg xmlns="http://www.w3.org/2000/svg" viewBox="64 -43 384 470">
      <g transform="scale(1 -1) translate(0 -384)">
        <path d="M448 213Q448 155 423.0 101.0Q398 47 354.0 9.0Q310 -29 256 -43Q202 -29 158.0 9.0Q114 47 89.0 101.0Q64 155 64 213V341L256 427L448 341ZM256 0Q295 11 329.5 43.0Q364 75 384.5 119.0Q405 163 405 209V314L256 380L107 314V209Q107 163 127.5 119.0Q148 75 182.5 43.0Q217 11 256 0ZM256 320Q283 320 301.5 301.5Q320 283 320 256Q320 235 308.0 218.5Q296 202 277 196V149H320V107H277V64H235V196Q216 202 204.0 218.5Q192 235 192 256Q192 283 210.5 301.5Q229 320 256 320ZM256 277Q247 277 241.0 271.0Q235 265 235.0 256.0Q235 247 241.0 241.0Q247 235 256.0 235.0Q265 235 271.0 241.0Q277 247 277.0 256.0Q277 265 271.0 271.0Q265 277 256 277Z" />
      </g>
    </svg>