<svg xmlns="http://www.w3.org/2000/svg" viewBox="64 -43 384 470">
      <g transform="scale(1 -1) translate(0 -384)">
        <path d="M256 277Q265 277 271.0 271.0Q277 265 277.0 256.0Q277 247 271.0 241.0Q265 235 256.0 235.0Q247 235 241.0 241.0Q235 247 235.0 256.0Q235 265 241.0 271.0Q247 277 256 277ZM448 213Q448 155 423.0 101.0Q398 47 354.0 9.0Q310 -29 256 -43Q202 -29 158.0 9.0Q114 47 89.0 101.0Q64 155 64 213V341L256 427L448 341ZM256 320Q229 320 210.5 301.5Q192 283 192 256Q192 235 204.0 218.5Q216 202 235 196V64H277V107H320V149H277V196Q296 202 308.0 218.5Q320 235 320 256Q320 283 301.5 301.5Q283 320 256 320Z" />
      </g>
    </svg>