<svg xmlns="http://www.w3.org/2000/svg" viewBox="64 -43 384 470">
      <g transform="scale(1 -1) translate(0 -384)">
        <path d="M256 427 64 341V213Q64 155 89.0 101.0Q114 47 158.0 9.0Q202 -29 256 -43Q310 -29 354.0 9.0Q398 47 423.0 101.0Q448 155 448 213V341ZM256 258Q282 258 300.0 240.0Q318 222 318.0 196.5Q318 171 300.0 153.0Q282 135 256.0 135.0Q230 135 212.0 153.0Q194 171 194.0 196.5Q194 222 212.5 240.0Q231 258 256 258ZM256 320 285 277Q272 283 256.0 283.0Q240 283 227 277ZM149 258 201 263Q188 251 181.0 239.5Q174 228 171 212ZM149 135 171 181Q174 167 181.5 153.5Q189 140 201 131ZM363 258 341 212Q338 227 331.0 239.0Q324 251 311 263ZM363 135 311 131Q323 140 330.5 153.0Q338 166 341 181ZM256 74 226 116Q242 111 256.0 111.0Q270 111 285 116Z" />
      </g>
    </svg>