<svg xmlns="http://www.w3.org/2000/svg" viewBox="64 -43 384 470">
      <g transform="scale(1 -1) translate(0 -384)">
        <path d="M256 427 64 341V213Q64 155 89.0 101.5Q114 48 157.5 9.5Q201 -29 256 -43Q311 -29 354.5 9.5Q398 48 423.0 101.5Q448 155 448 213V341ZM341 111Q341 101 333.0 93.0Q325 85 314 85H196Q186 85 178.5 93.5Q171 102 171 113V188Q171 197 179.0 205.0Q187 213 196 213V267Q196 289 214.5 304.5Q233 320 256.0 320.0Q279 320 297.5 304.5Q316 289 316 267V256H288V267Q288 279 278.5 286.5Q269 294 256.0 294.0Q243 294 233.5 286.5Q224 279 224 267V213H316Q326 213 333.5 205.0Q341 197 341 186Z" />
      </g>
    </svg>