<svg xmlns="http://www.w3.org/2000/svg" viewBox="64 -43 384 470">
      <g transform="scale(1 -1) translate(0 -384)">
        <path d="M448 213Q448 155 423.0 101.5Q398 48 354.5 9.5Q311 -29 256 -43Q201 -29 157.5 9.5Q114 48 89.0 101.5Q64 155 64 213V341L256 427L448 341ZM256 0Q296 10 330.5 42.5Q365 75 385.0 119.5Q405 164 405 209V314L256 380L107 314V209Q107 164 127.0 119.5Q147 75 181.5 42.5Q216 10 256 0ZM316 213H224V267Q224 279 233.5 286.5Q243 294 256.0 294.0Q269 294 278.5 286.5Q288 279 288 267V256H316V267Q316 289 297.5 304.5Q279 320 256.0 320.0Q233 320 214.5 304.5Q196 289 196 267V213Q187 213 179.0 205.0Q171 197 171 188V113Q171 102 178.5 93.5Q186 85 196 85H314Q325 85 333.0 93.0Q341 101 341 111V186Q341 197 333.5 205.0Q326 213 316 213Z" />
      </g>
    </svg>