<svg xmlns="http://www.w3.org/2000/svg" viewBox="64 -43 384 470">
      <g transform="scale(1 -1) translate(0 -384)">
        <path d="M235 171H277V149H235ZM448 341V213Q448 155 423.0 101.5Q398 48 354.5 9.5Q311 -29 256 -43Q201 -29 157.5 9.5Q114 48 89.0 101.5Q64 155 64 213V341L256 427ZM363 235H316Q310 253 292 267L318 292L303 307L273 277H256Q245 277 241 275L211 307L194 290L220 265Q203 254 196 235H149V213H192V192H149V171H192V149H149V128H196Q203 109 219.0 97.0Q235 85 256.0 85.0Q277 85 293.0 97.0Q309 109 316 128H363V149H320V171H363V192H320V213H363ZM235 192H277V213H235Z" />
      </g>
    </svg>