<svg xmlns="http://www.w3.org/2000/svg" viewBox="64 -43 384 470">
      <g transform="scale(1 -1) translate(0 -384)">
        <path d="M448 213Q448 155 423.0 101.0Q398 47 354.0 9.0Q310 -29 256 -43Q202 -29 158.0 9.0Q114 47 89.0 101.0Q64 155 64 213V341L256 427L448 341ZM256 0Q295 11 329.5 43.0Q364 75 384.5 119.0Q405 163 405 209V314L256 380L107 314V209Q107 163 127.5 119.0Q148 75 182.5 43.0Q217 11 256 0ZM316 213V245Q316 267 297.5 283.0Q279 299 256.0 299.0Q233 299 214.5 283.0Q196 267 196 245V213Q187 213 179.0 205.0Q171 197 171 188V113Q171 102 178.5 93.5Q186 85 196 85H314Q325 85 333.0 93.0Q341 101 341 111V186Q341 197 333.5 205.0Q326 213 316 213ZM288 213H224V245Q224 258 233.5 265.5Q243 273 256.0 273.0Q269 273 278.5 265.5Q288 258 288 245Z" />
      </g>
    </svg>