<svg xmlns="http://www.w3.org/2000/svg" viewBox="64 -43 405 470">
      <g transform="scale(1 -1) translate(0 -384)">
        <path d="M256 0Q216 10 181.5 42.5Q147 75 127.0 119.5Q107 164 107 209V314L256 380L405 314V190Q426 187 446 177Q448 190 448 213V341L256 427L64 341V213Q64 155 89.0 101.5Q114 48 157.5 9.5Q201 -29 256 -43Q265 -41 277 -36Q261 -16 256 0ZM384 139Q421 139 444 113L469 139V53H384L422 92Q404 107 384 107Q362 107 346.5 91.5Q331 76 331.0 53.5Q331 31 346.5 15.5Q362 0 384 0Q409 0 427 21H463Q453 -3 432.0 -17.5Q411 -32 384 -32Q349 -32 324.0 -7.0Q299 18 299.0 53.5Q299 89 324.0 114.0Q349 139 384 139Z" />
      </g>
    </svg>