<svg xmlns="http://www.w3.org/2000/svg" viewBox="64 -43 384 470">
      <g transform="scale(1 -1) translate(0 -384)">
        <path d="M256 427 64 341V213Q64 155 89.0 101.0Q114 47 158.0 9.0Q202 -29 256 -43Q310 -29 354.0 9.0Q398 47 423.0 101.0Q448 155 448 213V341ZM256 380 405 314V209Q405 155 377 103Q353 121 313 131Q281 139 256.0 139.0Q231 139 199 131Q159 121 135 103Q107 155 107 209V314ZM256 320Q225 320 203.0 298.0Q181 276 181.0 245.0Q181 214 203.0 192.5Q225 171 256.0 171.0Q287 171 309.0 192.5Q331 214 331.0 245.0Q331 276 309.0 298.0Q287 320 256 320ZM256 277Q269 277 278.5 268.0Q288 259 288.0 245.5Q288 232 278.5 222.5Q269 213 256.0 213.0Q243 213 233.5 222.5Q224 232 224.0 245.5Q224 259 233.5 268.0Q243 277 256 277ZM256 96Q281 96 309.5 87.5Q338 79 353 67Q332 42 307.5 24.5Q283 7 256 0Q229 7 204.5 24.5Q180 42 159 67Q174 79 202.5 87.5Q231 96 256 96Z" />
      </g>
    </svg>