<svg xmlns="http://www.w3.org/2000/svg" viewBox="64 0 384 384">
      <g transform="scale(1 -1) translate(0 -384)">
        <path d="M363 213Q378 213 384 211V314L224 384L64 314V209Q64 162 85.0 117.5Q106 73 142.5 41.5Q179 10 224 0Q237 2 258 11Q235 44 235 85Q235 120 252.0 149.5Q269 179 298.5 196.0Q328 213 363 213ZM363 171Q327 171 302.0 146.0Q277 121 277.0 85.5Q277 50 302.0 25.0Q327 0 362.5 0.0Q398 0 423.0 25.0Q448 50 448.0 85.5Q448 121 423.0 146.0Q398 171 363 171ZM363 141Q372 141 379.0 134.0Q386 127 386.0 117.5Q386 108 379.0 101.0Q372 94 362.5 94.0Q353 94 346.0 101.0Q339 108 339.0 117.5Q339 127 346.0 134.0Q353 141 363 141ZM363 26Q349 26 336.5 33.0Q324 40 316 51Q317 61 334 69Q349 75 363.0 75.0Q377 75 392 69Q410 61 410 51Q401 40 389.0 33.0Q377 26 363 26Z" />
      </g>
    </svg>