<svg xmlns="http://www.w3.org/2000/svg" viewBox="64 -64 405 491">
      <g transform="scale(1 -1) translate(0 -363)">
        <path d="M256 0Q217 11 182.5 43.0Q148 75 127.5 119.0Q107 163 107 209V314L256 380L405 314V191Q427 187 446 178Q448 195 448 213V341L256 427L64 341V213Q64 155 89.0 101.0Q114 47 158.0 9.0Q202 -29 256 -43Q268 -40 277 -36Q264 -20 256 0ZM384 139V171L336 123L384 75V107Q398 107 410.0 100.0Q422 93 429.5 81.5Q437 70 437.5 56.0Q438 42 432 29L455 6Q468 26 469.0 49.5Q470 73 459.0 93.5Q448 114 428.0 126.5Q408 139 384 139ZM384 0Q370 0 358.0 6.5Q346 13 338.5 25.0Q331 37 330.5 51.0Q330 65 336 77L313 100Q300 81 299.0 57.5Q298 34 309.0 13.0Q320 -8 340.0 -20.0Q360 -32 384 -32V-64L432 -16L384 32Z" />
      </g>
    </svg>