<svg xmlns="http://www.w3.org/2000/svg" viewBox="64 -43 384 470">
      <g transform="scale(1 -1) translate(0 -384)">
        <path d="M256 427 64 341V213Q64 155 89.0 101.0Q114 47 158.0 9.0Q202 -29 256 -43Q310 -29 354.0 9.0Q398 47 423.0 101.0Q448 155 448 213V341ZM341 141Q322 118 294.0 110.5Q266 103 238.0 111.0Q210 119 192 142Q169 170 170.0 204.5Q171 239 193.0 265.5Q215 292 250 299Q255 299 258.5 295.0Q262 291 260 286Q253 266 254.5 244.0Q256 222 267.0 203.0Q278 184 296.0 172.0Q314 160 335 156Q341 156 342.5 150.5Q344 145 341 141Z" />
      </g>
    </svg>