<svg xmlns="http://www.w3.org/2000/svg" viewBox="64 -43 384 470">
      <g transform="scale(1 -1) translate(0 -384)">
        <path d="M448 213Q448 155 423.0 101.0Q398 47 354.0 9.0Q310 -29 256 -43Q202 -29 158.0 9.0Q114 47 89.0 101.0Q64 155 64 213V341L256 427L448 341ZM256 0Q295 11 329.5 43.0Q364 75 384.5 119.0Q405 163 405 209V314L256 380L107 314V209Q107 163 127.5 119.0Q148 75 182.5 43.0Q217 11 256 0ZM256 327Q264 327 270.0 321.0Q276 315 276 307V232L384 165V138L276 172V98L303 77V57L256 71L209 57V77L236 98V172L128 138V165L236 232V307Q236 315 242.0 321.0Q248 327 256 327Z" />
      </g>
    </svg>