<svg xmlns="http://www.w3.org/2000/svg" viewBox="21 -14 470 412">
      <g transform="scale(1 -1) translate(0 -384)">
        <path d="M43 213 86 211Q90 247 108.0 277.5Q126 308 155 329L131 366Q126 374 128.5 382.5Q131 391 139.0 395.5Q147 400 155.0 397.5Q163 395 168 387L188 349Q221 363 256.0 363.0Q291 363 324 349L344 387Q349 395 357.0 397.5Q365 400 373.0 395.5Q381 391 383.5 382.5Q386 374 381 366L357 329Q386 308 404.0 277.5Q422 247 426 211L469 213Q478 213 484.5 207.0Q491 201 491.0 192.0Q491 183 484.5 177.0Q478 171 469 171L426 173Q422 137 404.0 106.5Q386 76 357 55L381 18Q386 10 383.5 1.5Q381 -7 373.0 -11.5Q365 -16 357.0 -13.5Q349 -11 344 -3L324 35Q291 21 256.0 21.0Q221 21 188 35L168 -3Q163 -11 155.0 -13.5Q147 -16 139.0 -11.5Q131 -7 128.5 1.5Q126 10 131 18L155 55Q126 76 108.0 106.5Q90 137 86 173L43 171Q34 171 27.5 177.0Q21 183 21.0 192.0Q21 201 27.5 207.0Q34 213 43 213ZM193 206Q198 225 213 239L178 293Q158 278 145.5 256.0Q133 234 129 209ZM256 256Q266 256 275 253L305 310Q281 320 256.0 320.0Q231 320 207 310L237 253Q246 256 256 256ZM319 206 383 209Q379 234 366.5 256.0Q354 278 334 293L299 239Q314 225 319 206ZM319 178Q314 159 299 145L334 91Q354 106 366.5 128.0Q379 150 383 175ZM256 128Q246 128 237 131L207 74Q231 64 256.0 64.0Q281 64 305 74L275 131Q266 128 256 128ZM193 178 129 175Q133 150 145.5 128.0Q158 106 178 91L213 145Q198 159 193 178Z" />
      </g>
    </svg>