<svg xmlns="http://www.w3.org/2000/svg" viewBox="84 -21 342 426">
      <g transform="scale(1 -1) translate(0 -384)">
        <path d="M229 198Q237 176 234 160Q229 141 208 134Q170 120 148 143Q136 155 132 173L131 174ZM122 215 214 238Q212 252 214 280Q216 299 216 309Q216 329 207 352Q197 378 182 392Q163 409 143 404Q108 396 94 361Q83 335 85 306Q87 283 119 221ZM381 25Q379 17 374 8Q366 -9 351 -16Q332 -26 304 -16Q283 -8 279 11Q275 27 283 49ZM427 157Q429 186 418 211Q404 246 370 255Q349 260 331 244Q315 229 305 203Q296 180 296 160Q296 150 298 130Q301 102 299 89L390 66L392 70Q425 133 427 157Z" />
      </g>
    </svg>