<svg xmlns="http://www.w3.org/2000/svg" viewBox="44 -21 425 426">
      <g transform="scale(1 -1) translate(0 -384)">
        <path d="M273 193Q261 273 239 326Q207 405 160.5 405.0Q114 405 82 326Q61 274 49 193Q41 142 46.0 99.0Q51 56 66 25Q76 3 91 -11Q103 -21 119 -21H202Q218 -21 230 -11Q266 23 275 99Q280 142 273 193ZM161 363Q167 365 177.0 351.5Q187 338 198 313L98 228Q106 268 119 302Q131 332 142.5 348.5Q154 365 161 363ZM208 171H113Q107 171 102 175L213 270Q224 233 229 196Q231 186 224.5 178.5Q218 171 208 171ZM465 193Q453 273 431 326Q399 405 353 405Q310 405 280 340Q292 308 301 269L412 175Q406 171 400 171H318Q322 130 318 94Q310 30 284 -11Q296 -21 311 -21H394Q410 -21 422 -11Q458 23 467 99Q472 142 465 193ZM316 313Q327 338 337.0 351.5Q347 365 353 363Q359 365 371.0 348.5Q383 332 394 302Q407 268 416 228Z" />
      </g>
    </svg>