<svg xmlns="http://www.w3.org/2000/svg" viewBox="43 43 426 272">
      <g transform="scale(1 -1) translate(0 -358)">
        <path d="M448 277Q441 277 433 277L432 278Q399 280 372.0 290.0Q345 300 331 315L299 299L295 293Q320 271 320 245Q320 237 316 225L276 265Q268 256 261 250L304 207Q297 198 288 192L244 237Q237 232 225 225L268 181Q257 177 245 175L205 215Q192 210 183 207L219 171H213Q166 171 134 196Q110 192 85 192Q66 192 55 175Q47 164 44 145L43 128Q43 110 55.5 97.5Q68 85 85 85V64Q85 55 91.5 49.0Q98 43 106.5 43.0Q115 43 121.5 49.0Q128 55 128 64V85H149V64Q149 55 155.5 49.0Q162 43 170.5 43.0Q179 43 185.5 49.0Q192 55 192 64V85H213V64Q213 55 219.5 49.0Q226 43 234.5 43.0Q243 43 249.5 49.0Q256 55 256 64V85H320V64Q320 55 326.5 49.0Q333 43 341.5 43.0Q350 43 356.5 49.0Q363 55 363 64V85H384V64Q384 55 390.5 49.0Q397 43 405.5 43.0Q414 43 420.5 49.0Q427 55 427 64V85H448L451 87Q455 90 459 97Q463 108 466 126Q469 148 469.0 181.5Q469 215 464 239Q460 257 454 269Z" />
      </g>
    </svg>