<svg xmlns="http://www.w3.org/2000/svg" viewBox="43 85 426 230">
      <g transform="scale(1 -1) translate(0 -400)">
        <path d="M43 128Q43 136 44 145Q47 164 55 175Q66 192 85 192Q110 192 134 196Q166 171 213 171H219L183 207Q192 210 205 215L245 175Q257 177 268 181L225 225Q237 232 244 237L288 192Q297 198 304 207L261 250Q269 257 276 265L316 225Q320 237 320 245Q320 271 295 293L299 299L331 315Q345 300 372.0 290.0Q399 280 432 278L433 277H448L454 269Q460 257 464 239Q469 215 469 181Q469 159 468 149H405Q383 149 331 139H326Q278 128 256 128ZM448 85Q450 86 451 87Q456 90 459 98Q464 109 466 128H405Q384 128 330.5 117.5Q277 107 256 107H49Q54 97 64.0 91.0Q74 85 85 85Z" />
      </g>
    </svg>