<svg xmlns="http://www.w3.org/2000/svg" viewBox="64 -51 414 478">
      <g transform="scale(1 -1) translate(0 -376)">
        <path d="M405 320H363Q363 349 348.5 373.5Q334 398 309.5 412.5Q285 427 256.0 427.0Q227 427 202.5 412.5Q178 398 163.5 373.5Q149 349 149 320H107Q89 320 76.5 307.5Q64 295 64 277V21Q64 4 76.5 -8.5Q89 -21 107 -21H257Q227 -2 209.5 29.0Q192 60 192 96Q192 141 219 177Q187 189 168.0 216.5Q149 244 149 277H192Q192 251 210.5 232.0Q229 213 256 213H257Q277 226 300 231Q320 250 320 277H363Q363 254 353 233Q382 228 407.0 211.0Q432 194 448 169V277Q448 295 435.5 307.5Q423 320 405 320ZM192 320Q192 347 210.5 365.5Q229 384 256.0 384.0Q283 384 301.5 365.5Q320 347 320 320ZM412 45Q431 76 425.0 112.0Q419 148 390.5 171.0Q362 194 325.5 192.0Q289 190 263.0 164.0Q237 138 235.0 101.5Q233 65 255.5 36.5Q278 8 314.0 1.5Q350 -5 381 15L448 -51L478 -21ZM331 43Q309 43 293.0 58.5Q277 74 277.0 96.0Q277 118 293.0 133.5Q309 149 331.0 149.0Q353 149 368.5 133.5Q384 118 384.0 96.0Q384 74 368.5 58.5Q353 43 331 43Z" />
      </g>
    </svg>