<svg xmlns="http://www.w3.org/2000/svg" viewBox="64 -21 384 448">
      <g transform="scale(1 -1) translate(0 -406)">
        <path d="M405 320H363Q363 349 348.5 373.5Q334 398 309.5 412.5Q285 427 256.0 427.0Q227 427 202.5 412.5Q178 398 163.5 373.5Q149 349 149 320H107Q89 320 76.5 307.5Q64 295 64 277V21Q64 4 76.5 -8.5Q89 -21 107 -21H405Q423 -21 435.5 -8.5Q448 4 448 21V277Q448 295 435.5 307.5Q423 320 405 320ZM256 384Q283 384 301.5 365.5Q320 347 320 320H192Q192 347 210.5 365.5Q229 384 256 384ZM405 21H107V277H405ZM256 192Q229 192 210.5 210.5Q192 229 192 256H149Q149 227 163.5 202.5Q178 178 202.5 163.5Q227 149 256.0 149.0Q285 149 309.5 163.5Q334 178 348.5 202.5Q363 227 363 256H320Q320 229 301.5 210.5Q283 192 256 192Z" />
      </g>
    </svg>