<svg xmlns="http://www.w3.org/2000/svg" viewBox="64 -21 384 448">
      <g transform="scale(1 -1) translate(0 -406)">
        <path d="M256 384Q229 384 210.5 365.5Q192 347 192 320H320Q320 347 301.5 365.5Q283 384 256 384ZM405 320Q423 320 435.5 307.5Q448 295 448 277V21Q448 4 435.5 -8.5Q423 -21 405 -21H107Q89 -21 76.5 -8.5Q64 4 64 21V277Q64 295 76.5 307.5Q89 320 107 320H149Q149 349 163.5 373.5Q178 398 202.5 412.5Q227 427 256.0 427.0Q285 427 309.5 412.5Q334 398 348.5 373.5Q363 349 363 320ZM192 43 352 149 192 235Z" />
      </g>
    </svg>