<svg xmlns="http://www.w3.org/2000/svg" viewBox="64 -51 414 478">
      <g transform="scale(1 -1) translate(0 -376)">
        <path d="M412 45Q426 67 427.0 92.5Q428 118 416.0 141.0Q404 164 382.0 177.5Q360 191 334.5 192.0Q309 193 286.5 181.0Q264 169 250.0 147.0Q236 125 235.0 99.5Q234 74 245.5 51.5Q257 29 280.0 14.5Q303 0 330.5 0.0Q358 0 381 15L448 -51L478 -21ZM331 43Q309 43 293.0 58.5Q277 74 277.0 96.0Q277 118 293.0 133.5Q309 149 331.0 149.0Q353 149 368.5 133.5Q384 118 384.0 96.0Q384 74 368.5 58.5Q353 43 331 43ZM214 21H107V277H405V213Q432 196 448 170V277Q448 295 435.5 307.5Q423 320 405 320H363Q363 349 348.5 373.5Q334 398 309.5 412.5Q285 427 256.0 427.0Q227 427 202.5 412.5Q178 398 163.5 373.5Q149 349 149 320H107Q89 320 76.5 307.5Q64 295 64 277V21Q64 4 76.5 -8.5Q89 -21 107 -21H257Q231 -5 214 21ZM256 384Q283 384 301.5 365.5Q320 347 320 320H192Q192 347 210.5 365.5Q229 384 256 384ZM320 256H363Q363 244 360 231Q346 235 331 235Q321 235 316 234Q320 245 320 256ZM208 161Q181 174 165.0 199.5Q149 225 149 256H192Q192 235 204.0 218.5Q216 202 235 196Q218 180 208 161Z" />
      </g>
    </svg>