<svg xmlns="http://www.w3.org/2000/svg" viewBox="48 -15 426 424">
      <g transform="scale(1 -1) translate(0 -394)">
        <path d="M322 409 262 349Q249 336 249.0 318.5Q249 301 262 289L292 258L277 243L308 212L324 228L353 198Q366 185 383.5 185.0Q401 185 414 198L474 259ZM383 229 292 319 322 349 413 259ZM442 16 412 -14 245 152 224 131 284 71 256 41Q209 -6 162 -14Q128 -19 98 -5Q83 2 75 11L68 19Q60 31 55 44Q48 62 48 82Q49 107 61 132Q75 162 104 192L135 222L195 161L216 183L50 348L80 378Z" />
      </g>
    </svg>