<svg xmlns="http://www.w3.org/2000/svg" viewBox="64 -21 384 426">
      <g transform="scale(1 -1) translate(0 -384)">
        <path d="M427 21Q436 21 442.0 15.0Q448 9 448.0 0.0Q448 -9 442.0 -15.0Q436 -21 427.0 -21.0Q418 -21 411.5 -15.0Q405 -9 405.0 0.0Q405 9 411.5 15.0Q418 21 427 21ZM341 21Q350 21 356.5 15.0Q363 9 363.0 0.0Q363 -9 356.5 -15.0Q350 -21 341.0 -21.0Q332 -21 326.0 -15.0Q320 -9 320.0 0.0Q320 9 326.0 15.0Q332 21 341 21ZM256 21Q265 21 271.0 15.0Q277 9 277.0 0.0Q277 -9 271.0 -15.0Q265 -21 256.0 -21.0Q247 -21 241.0 -15.0Q235 -9 235.0 0.0Q235 9 241.0 15.0Q247 21 256 21ZM171 21Q180 21 186.0 15.0Q192 9 192.0 0.0Q192 -9 186.0 -15.0Q180 -21 171.0 -21.0Q162 -21 155.5 -15.0Q149 -9 149.0 0.0Q149 9 155.5 15.0Q162 21 171 21ZM85 21Q94 21 100.5 15.0Q107 9 107.0 0.0Q107 -9 100.5 -15.0Q94 -21 85.0 -21.0Q76 -21 70.0 -15.0Q64 -9 64.0 0.0Q64 9 70.0 15.0Q76 21 85 21ZM128 85Q137 85 143.0 79.0Q149 73 149.0 64.0Q149 55 143.0 49.0Q137 43 128 43Q119 43 113.0 49.0Q107 55 107.0 64.0Q107 73 113.0 79.0Q119 85 128 85ZM213 85Q222 85 228.5 79.0Q235 73 235.0 64.0Q235 55 228.5 49.0Q222 43 213.0 43.0Q204 43 198.0 49.0Q192 55 192.0 64.0Q192 73 198.0 79.0Q204 85 213 85ZM299 85Q308 85 314.0 79.0Q320 73 320.0 64.0Q320 55 314.0 49.0Q308 43 299.0 43.0Q290 43 283.5 49.0Q277 55 277.0 64.0Q277 73 283.5 79.0Q290 85 299 85ZM384 85Q393 85 399.0 79.0Q405 73 405.0 64.0Q405 55 399.0 49.0Q393 43 384.0 43.0Q375 43 369.0 49.0Q363 55 363.0 64.0Q363 73 369.0 79.0Q375 85 384 85ZM171 149Q180 149 186.0 143.0Q192 137 192.0 128.0Q192 119 186.0 113.0Q180 107 171.0 107.0Q162 107 155.5 113.0Q149 119 149.0 128.0Q149 137 155.5 143.0Q162 149 171 149ZM256 149Q265 149 271.0 143.0Q277 137 277.0 128.0Q277 119 271.0 113.0Q265 107 256.0 107.0Q247 107 241.0 113.0Q235 119 235.0 128.0Q235 137 241.0 143.0Q247 149 256 149ZM341 149Q350 149 356.5 143.0Q363 137 363.0 128.0Q363 119 356.5 113.0Q350 107 341.0 107.0Q332 107 326.0 113.0Q320 119 320.0 128.0Q320 137 326.0 143.0Q332 149 341 149ZM405 192H107V235H405ZM382 256H130Q136 296 165.5 325.0Q195 354 235 361V405H277V361Q317 354 346.5 325.0Q376 296 382 256Z" />
      </g>
    </svg>