<svg xmlns="http://www.w3.org/2000/svg" viewBox="43 -21 426 426">
      <g transform="scale(1 -1) translate(0 -384)">
        <path d="M448 149V128Q448 98 432.5 73.0Q417 48 391 34L405 -21H363L352 21H160L149 -21H107L121 34Q95 48 79.5 73.0Q64 98 64 128V149H43V192H427V341Q427 350 420.5 356.5Q414 363 406.0 363.0Q398 363 392.0 358.0Q386 353 384 346Q405 328 405 299H277Q277 325 296.0 344.0Q315 363 341 363H345Q352 382 368.5 393.5Q385 405 405 405Q432 405 450.5 386.5Q469 368 469 341V149ZM405 149H107V128Q107 101 125.5 82.5Q144 64 171 64H341Q368 64 386.5 82.5Q405 101 405 128Z" />
      </g>
    </svg>