<svg xmlns="http://www.w3.org/2000/svg" viewBox="43 0 426 384">
      <g transform="scale(1 -1) translate(0 -384)">
        <path d="M128 384V299H171V341H341V299H384V384ZM107 277Q80 277 61.5 258.5Q43 240 43 213V85H107V149H405V85H469V213Q469 240 450.5 258.5Q432 277 405 277ZM384 235Q393 235 399.0 228.5Q405 222 405.0 213.0Q405 204 399.0 198.0Q393 192 384.0 192.0Q375 192 369.0 198.0Q363 204 363.0 213.0Q363 222 369.0 228.5Q375 235 384 235ZM149 107V0H192V107ZM235 107V21H277V107ZM320 107V0H363V107Z" />
      </g>
    </svg>