<svg xmlns="http://www.w3.org/2000/svg" viewBox="85 21 342 342">
      <g transform="scale(1 -1) translate(0 -384)">
        <path d="M405 192Q405 146 383.5 106.5Q362 67 325.5 44.0Q289 21 245.5 21.0Q202 21 165.0 44.0Q128 67 106.5 106.5Q85 146 85.0 192.0Q85 238 106.5 277.5Q128 317 165.0 340.0Q202 363 245 363H427V320H351Q376 296 390.5 262.5Q405 229 405 192ZM245 320Q213 320 186.5 303.0Q160 286 144.0 256.5Q128 227 128.0 192.0Q128 157 144.0 127.5Q160 98 186.5 81.0Q213 64 245.0 64.0Q277 64 304.0 81.0Q331 98 347.0 127.5Q363 157 363.0 192.0Q363 227 347.0 256.5Q331 286 304.0 303.0Q277 320 245 320Z" />
      </g>
    </svg>