<svg xmlns="http://www.w3.org/2000/svg" viewBox="43 32 426 320">
      <g transform="scale(1 -1) translate(0 -384)">
        <path d="M235 96V144Q235 164 221.0 178.0Q207 192 187 192Q207 192 221.0 206.0Q235 220 235 240V288Q235 315 216.0 333.5Q197 352 171 352H43V288H171V224H107V160H171V96H43V32H171Q197 32 216.0 50.5Q235 69 235 96ZM469 96V224H373V160H405V96H341V288H469V352H341Q315 352 296.0 333.5Q277 315 277 288V96Q277 69 296.0 50.5Q315 32 341 32H405Q432 32 450.5 50.5Q469 69 469 96Z" />
      </g>
    </svg>