<svg xmlns="http://www.w3.org/2000/svg" viewBox="64 -21 405 384">
      <g transform="scale(1 -1) translate(0 -342)">
        <path d="M85 320V363Q155 363 213.5 328.5Q272 294 306.5 235.0Q341 176 341 107H299Q299 149 282.5 188.5Q266 228 236.0 258.0Q206 288 167.0 304.0Q128 320 85 320ZM85 235V277Q119 277 150.5 264.0Q182 251 206.0 227.0Q230 203 243.0 172.0Q256 141 256 107H213Q213 141 196.0 170.5Q179 200 149.5 217.5Q120 235 85 235ZM85 192Q121 192 146.0 167.0Q171 142 171 107H85ZM64 64H405V107L469 43L405 -21V21H64Z" />
      </g>
    </svg>