<svg xmlns="http://www.w3.org/2000/svg" viewBox="43 -21 426 422">
      <g transform="scale(1 -1) translate(0 -380)">
        <path d="M469 -21H43V21H469ZM132 79 117 64 87 94 58 64 43 79 73 109 43 139 58 154 87 124 117 154 132 139 102 109ZM346 140Q346 159 300 182Q243 211 221.5 229.0Q200 247 200 269Q200 326 258.5 363.5Q317 401 353 401Q377 401 388.0 393.0Q399 385 399 365Q399 356 391.0 349.5Q383 343 379.0 343.0Q375 343 365 349L353 355Q338 355 292.5 333.5Q247 312 247 285Q247 269 263.0 255.5Q279 242 320 223Q354 208 373.5 190.5Q393 173 393 149Q393 106 332.5 81.5Q272 57 217 57Q171 57 171 88Q171 99 181.5 104.0Q192 109 203 109L234 104Q266 104 302.0 114.5Q338 125 346 140Z" />
      </g>
    </svg>