<svg xmlns="http://www.w3.org/2000/svg" viewBox="85 21 342 342">
      <g transform="scale(1 -1) translate(0 -384)">
        <path d="M85 320V363H87Q180 363 259 316Q336 272 380 195Q427 116 427 23V21H384V23Q384 104 344.0 172.0Q304 240 237 280Q167 320 85 320ZM85 235V277Q155 277 213.5 242.5Q272 208 306.5 149.5Q341 91 341 21H299Q299 64 282.5 103.0Q266 142 236.0 172.0Q206 202 167.0 218.5Q128 235 85 235ZM85 149V192Q132 192 171.0 169.0Q210 146 233.0 107.0Q256 68 256 21H213Q213 56 196.0 85.5Q179 115 149.5 132.0Q120 149 85 149ZM85 107Q121 107 146.0 82.0Q171 57 171 21H85Z" />
      </g>
    </svg>