<svg xmlns="http://www.w3.org/2000/svg" viewBox="43 -21 426 405">
      <g transform="scale(1 -1) translate(0 -363)">
        <path d="M469 -21H43V21H469ZM132 79 102 109 132 139 117 154 87 124 58 154 43 139 73 109 43 79 58 64 87 94 117 64ZM437 384 463 290 442 284 437 292Q421 322 412.0 330.0Q403 338 393 340Q386 341 373 341H320V117Q320 107 321 102Q322 95 326 92Q333 87 363 87V66H235V87Q249 87 255 88Q265 89 270.0 92.0Q275 95 277 102Q277 107 277 117V341H224Q211 341 205 340Q194 338 186 333Q172 322 156 286L134 292L160 384Z" />
      </g>
    </svg>