<svg xmlns="http://www.w3.org/2000/svg" viewBox="43 -64 426 514">
      <g transform="scale(1 -1) translate(0 -386)">
        <path d="M160 363Q166 369 174.5 369.0Q183 369 190 363L252 299Q237 291 231 287Q223 282 218 273L160 331Q154 337 154.0 346.5Q154 356 160 363ZM134 294Q141 301 149.5 301.0Q158 301 164 294L205 252Q197 229 201 213H183L134 265Q128 271 128.0 279.5Q128 288 134 294ZM388 139 267 256 260 254Q249 248 245.0 235.0Q241 222 245 211L265 171H94Q86 171 79.5 164.0Q73 157 73.0 149.0Q73 141 79.5 134.5Q86 128 94 128H213V107H64Q56 107 49.5 100.0Q43 93 43.0 85.0Q43 77 49.5 70.5Q56 64 64 64H213V43H85Q77 43 70.5 36.0Q64 29 64.0 21.0Q64 13 70.5 6.5Q77 0 85 0H213V-21H117Q109 -21 102.5 -28.0Q96 -35 96.0 -43.0Q96 -51 102.5 -57.5Q109 -64 117 -64H352Q374 -64 389.5 -48.5Q405 -33 405 -11V100Q405 112 400.5 122.0Q396 132 388 139ZM363 0Q363 -8 356.0 -14.5Q349 -21 341 -21H256V128H299V166L356 113Q363 107 363 98ZM469 207Q469 186 452 169L433 151Q425 164 418 171L405 183L420 198Q427 205 427 213V292L399 267L369 299L329 256L271 307L190 393Q183 399 183.0 407.5Q183 416 189.5 422.5Q196 429 204.5 429.0Q213 429 220 422L322 314L337 329L256 414Q250 420 250.0 428.5Q250 437 256.0 443.5Q262 450 270.5 450.0Q279 450 286 444L403 320L418 363Q426 373 439.0 378.0Q452 383 463 380L469 378Z" />
      </g>
    </svg>