<svg xmlns="http://www.w3.org/2000/svg" viewBox="58 -49 408 497">
      <g transform="scale(1 -1) translate(0 -399)">
        <path d="M320 448 307 419 277 405 307 392 320 363 333 392 363 405 333 419ZM224 405 201 354 149 331 201 307 224 256 247 307 299 331 247 354ZM403 338Q381 340 358.0 330.5Q335 321 317 302Q291 277 283.5 245.5Q276 214 287 190L79 -19L109 -49L256 98L403 -49L433 -19L286 128L317 159Q342 148 373.5 156.0Q405 164 430 189Q450 209 459.5 233.5Q469 258 466.0 281.0Q463 304 447 319Q429 337 403 338ZM83 331Q58 306 58.0 270.5Q58 235 83 210L173 121L233 181Z" />
      </g>
    </svg>