<svg xmlns="http://www.w3.org/2000/svg" viewBox="123 -21 266 426">
      <g transform="scale(1 -1) translate(0 -384)">
        <path d="M389 85Q389 57 378 31H348Q363 56 363.0 84.5Q363 113 349.0 138.0Q335 163 310.0 177.5Q285 192 256.0 192.0Q227 192 202.5 206.5Q178 221 163.5 245.5Q149 270 149.0 299.0Q149 328 163.5 352.5Q178 377 202.5 391.0Q227 405 256.0 405.0Q285 405 309.5 391.0Q334 377 348.5 352.5Q363 328 363 299H336Q336 332 312.5 355.5Q289 379 256.0 379.0Q223 379 199.5 355.5Q176 332 176.0 299.0Q176 266 199.5 242.5Q223 219 256 219Q292 219 322.5 201.0Q353 183 371.0 152.0Q389 121 389 85ZM134 31Q123 57 123 85H149Q149 56 164 31ZM389 5V-21H123V5H203V112H176V139H336V112H309V5ZM283 112H229V5H283ZM308 297Q307 276 292.0 261.0Q277 246 255.5 246.0Q234 246 219.0 262.0Q204 278 204.5 299.5Q205 321 220.0 336.5Q235 352 256.5 351.5Q278 351 293.5 335.0Q309 319 308 297ZM283 299Q283 310 275.0 317.5Q267 325 256.0 325.0Q245 325 237.0 317.5Q229 310 229.0 299.0Q229 288 237.0 280.0Q245 272 256.0 272.0Q267 272 275.0 280.0Q283 288 283 299Z" />
      </g>
    </svg>