<svg xmlns="http://www.w3.org/2000/svg" viewBox="43 0 427 384">
      <g transform="scale(1 -1) translate(0 -384)">
        <path d="M352 0Q322 0 299 27Q280 50 264 95Q254 123 236 186Q215 259 203 290Q181 341 160 341Q128 341 108 303Q95 275 89 231Q85 207 85 192H43Q43 216 47 245Q56 301 78 336Q108 384 160 384Q190 384 213 357Q232 334 249 288Q259 260 277 198V196Q297 125 309 95Q331 43 352 43Q385 43 404 81Q418 109 424 153Q427 176 427 192H470Q470 168 465 139Q456 83 434 48Q404 0 352 0Z" />
      </g>
    </svg>