<svg xmlns="http://www.w3.org/2000/svg" viewBox="43 85 426 214">
      <g transform="scale(1 -1) translate(0 -384)">
        <path d="M192 299H235L256 245L277 299H320L277 192L320 85H277L256 139L235 85H192L235 192ZM384 299H469V256H384V213H427Q444 213 456.5 200.5Q469 188 469 171V128Q469 110 456.5 97.5Q444 85 427 85H341V128H427V171H384Q366 171 353.5 183.5Q341 196 341 213V256Q341 274 353.5 286.5Q366 299 384 299ZM43 299H85L107 245L128 299H171L128 192L171 85H128L107 139L85 85H43L85 192Z" />
      </g>
    </svg>