<svg xmlns="http://www.w3.org/2000/svg" viewBox="85 -43 342 470">
      <g transform="scale(1 -1) translate(0 -384)">
        <path d="M422 56Q427 51 427.0 46.0Q427 41 423 36Q411 19 392.0 9.5Q373 0 351 0H161Q138 0 119.0 9.5Q100 19 88 36Q85 40 85.0 45.5Q85 51 89.5 55.5Q94 60 101.0 60.0Q108 60 113 53Q126 37 147 31L209 108L182 191Q177 208 187 224L235 302H188L149 240L115 261L165 341H280Q293 341 301.5 333.5Q310 326 313 321L323 296Q334 272 356.5 256.5Q379 241 406 241V201Q372 201 342.5 218.0Q313 235 296 262L259 205L346 151V30H351Q366 30 379.0 37.0Q392 44 399 53Q404 60 410.5 60.0Q417 60 422 56ZM306 123 236 167 256 100 197 30H306ZM320 427Q302 427 289.5 414.5Q277 402 277.0 384.0Q277 366 289.5 353.5Q302 341 320.0 341.0Q338 341 350.5 353.5Q363 366 363.0 384.0Q363 402 350.5 414.5Q338 427 320 427ZM171 -11Q164 -11 159.5 -15.5Q155 -20 155.0 -26.5Q155 -33 159.5 -38.0Q164 -43 170.5 -43.0Q177 -43 182.0 -38.0Q187 -33 187.0 -26.5Q187 -20 182.0 -15.5Q177 -11 171 -11ZM341 -11Q335 -11 330.0 -15.5Q325 -20 325.0 -26.5Q325 -33 330.0 -38.0Q335 -43 341.5 -43.0Q348 -43 352.5 -38.0Q357 -33 357.0 -26.5Q357 -20 352.5 -15.5Q348 -11 341 -11Z" />
      </g>
    </svg>