<svg xmlns="http://www.w3.org/2000/svg" viewBox="42 107 426 148">
      <g transform="scale(1 -1) translate(0 -362)">
        <path d="M192 139Q192 125 182.5 116.0Q173 107 160.0 107.0Q147 107 137.5 116.0Q128 125 128.0 138.5Q128 152 137.5 161.5Q147 171 160.0 171.0Q173 171 182.5 161.5Q192 152 192 139ZM352 171Q339 171 329.5 161.5Q320 152 320.0 138.5Q320 125 329.5 116.0Q339 107 352.0 107.0Q365 107 374.5 116.0Q384 125 384.0 138.5Q384 152 374.5 161.5Q365 171 352 171ZM461 252Q453 257 444.5 255.5Q436 254 431 247L428 243Q422 235 411 235H101Q90 235 84 243L81 247Q76 254 67.5 255.5Q59 257 51.5 252.0Q44 247 43.0 238.0Q42 229 47 222L49 218Q58 206 72.0 199.0Q86 192 101 192H411Q426 192 440.0 199.0Q454 206 463 218L465 222Q470 229 469.0 238.0Q468 247 461 252Z" />
      </g>
    </svg>