<svg xmlns="http://www.w3.org/2000/svg" viewBox="21 -21 470 426">
      <g transform="scale(1 -1) translate(0 -384)">
        <path d="M447 85Q443 58 422.0 39.5Q401 21 373 21H341V64H405Q405 71 405 91Q406 121 405 136Q403 160 395 172Q384 196 353 211Q334 219 295 229L276 234Q261 234 247.5 247.5Q234 261 231 277H171Q166 277 163.0 280.5Q160 284 160.0 288.0Q160 292 163.0 295.5Q166 299 171 299H224V320H171Q166 320 163.0 323.0Q160 326 160.0 330.5Q160 335 163.0 338.0Q166 341 171 341H224V405H43V64H107V21H21V-21H373Q419 -21 452.5 9.5Q486 40 491 85ZM299 21H149V64H299Z" />
      </g>
    </svg>