<svg xmlns="http://www.w3.org/2000/svg" viewBox="107 -21 298 426">
      <g transform="scale(1 -1) translate(0 -384)">
        <path d="M405 149H375V-21H405ZM137 -21H107L149 149H180ZM187 244V171H149V271L248 313Q261 319 276.0 314.5Q291 310 300 297L320 265Q335 238 355 227Q377 213 405 213V174Q372 174 344 188Q321 199 296 227L284 167L326 128V-21H286V96L245 138L208 -21H166L223 258ZM341 363Q341 345 328.5 332.5Q316 320 298.5 320.0Q281 320 268.5 332.5Q256 345 256.0 362.5Q256 380 268.5 392.5Q281 405 298.5 405.0Q316 405 328.5 392.5Q341 380 341 363Z" />
      </g>
    </svg>