<svg xmlns="http://www.w3.org/2000/svg" viewBox="43 -43 426 450">
      <g transform="scale(1 -1) translate(0 -364)">
        <path d="M90 373Q90 387 100.0 397.0Q110 407 124.0 407.0Q138 407 148.0 397.5Q158 388 158.0 373.5Q158 359 147.5 350.0Q137 341 124.0 341.0Q111 341 100.5 351.0Q90 361 90 373ZM469 365 459 384 288 297 299 277ZM444 15 463 -4Q445 -22 422 -32Q398 -43 373 -43H43V-15H100L145 60L96 128L79 294Q79 309 90.0 320.0Q101 331 115 331Q124 331 132 326L207 271L256 288L273 254L198 222L185 232Q155 255 141 267L149 192L262 96L299 -15H373Q395 -15 412 -6Q428 -1 444 15ZM149 -15H256L222 68L173 109L198 55Z" />
      </g>
    </svg>