<svg xmlns="http://www.w3.org/2000/svg" viewBox="43 -21 426 448">
      <g transform="scale(1 -1) translate(0 -406)">
        <path d="M382 164Q378 164 366.5 167.5Q355 171 351 173L307 35L241 59L288 182L223 256L277 287Q291 252 322.0 226.5Q353 201 392 195L416 268L385 278L374 244Q353 253 337.0 270.5Q321 288 314 311L307 334Q303 347 292.5 354.5Q282 362 269.0 363.0Q256 364 245 358L171 315Q159 308 153.5 296.5Q148 285 149 271Q150 260 161 248L237 169L201 74L53 127L43 97L342 -12Q367 -21 395 -21Q415 -21 434.0 -16.0Q453 -11 469 -2L445 21Q421 11 395 11Q374 11 353 18L337 24ZM405 384Q405 366 392.5 353.5Q380 341 362.5 341.0Q345 341 332.5 353.5Q320 366 320.0 384.0Q320 402 332.5 414.5Q345 427 362.5 427.0Q380 427 392.5 414.5Q405 402 405 384Z" />
      </g>
    </svg>