<svg xmlns="http://www.w3.org/2000/svg" viewBox="0 -64 512 512">
      <g transform="scale(1 -1) translate(0 -384)">
        <path d="M43 448Q25 448 12.5 435.5Q0 423 0 405V320H43V405H128V448ZM384 448V405H469V320H512V405Q512 423 499.5 435.5Q487 448 469 448ZM203 171Q190 171 180.5 180.5Q171 190 171.0 202.5Q171 215 180.5 225.0Q190 235 202.5 235.0Q215 235 225.0 225.0Q235 215 235.0 202.5Q235 190 225.0 180.5Q215 171 203 171ZM235 128 256 171 277 128ZM309 171Q297 171 287.0 180.5Q277 190 277.0 202.5Q277 215 287.0 225.0Q297 235 309.5 235.0Q322 235 331.5 225.0Q341 215 341.0 202.5Q341 190 331.5 180.5Q322 171 309 171ZM0 64V-21Q0 -39 12.5 -51.5Q25 -64 43 -64H128V-21H43V64ZM469 64V-21H384V-64H469Q487 -64 499.5 -51.5Q512 -39 512 -21V64ZM256 384Q210 384 170.5 361.0Q131 338 108.0 298.5Q85 259 85 213Q85 182 96.5 152.5Q108 123 128 100V0H384V100Q427 150 427 213Q427 259 404.0 298.5Q381 338 341.5 361.0Q302 384 256 384ZM341 119V43H299V85H277V43H235V85H213V43H171V119Q151 138 139.5 162.5Q128 187 128 213Q128 248 145.5 277.5Q163 307 192.0 324.0Q221 341 256.0 341.0Q291 341 320.0 324.0Q349 307 366.5 277.5Q384 248 384 213Q384 186 372.5 162.0Q361 138 341 119Z" />
      </g>
    </svg>