<svg xmlns="http://www.w3.org/2000/svg" viewBox="43 -21 422 448">
      <g transform="scale(1 -1) translate(0 -406)">
        <path d="M337 53 465 19 457 -21 256 32 55 -21 45 19 173 53 43 87 53 128 254 75 454 128 465 87ZM203 320Q190 320 180.5 310.5Q171 301 171.0 288.0Q171 275 180.5 265.5Q190 256 202.5 256.0Q215 256 225.0 265.5Q235 275 235.0 288.0Q235 301 225.0 310.5Q215 320 203 320ZM309 320Q297 320 287.0 310.5Q277 301 277.0 288.0Q277 275 287.0 265.5Q297 256 309.5 256.0Q322 256 331.5 265.5Q341 275 341.0 288.0Q341 301 331.5 310.5Q322 320 309 320ZM277 213 256 256 235 213ZM256 427Q215 427 181.0 407.0Q147 387 127.0 352.5Q107 318 107 277Q107 248 118.0 221.0Q129 194 149 173V107H363V173Q383 194 394.0 221.0Q405 248 405 277Q405 318 385.0 352.5Q365 387 331.0 407.0Q297 427 256 427ZM320 192V149H299V192H277V149H235V192H213V149H192V192Q172 207 160.5 229.0Q149 251 149 277Q149 307 163.5 331.5Q178 356 202.5 370.0Q227 384 256.0 384.0Q285 384 309.5 370.0Q334 356 348.5 331.5Q363 307 363 277Q363 252 351.5 229.5Q340 207 320 192Z" />
      </g>
    </svg>