<svg xmlns="http://www.w3.org/2000/svg" viewBox="43 -21 422 426">
      <g transform="scale(1 -1) translate(0 -384)">
        <path d="M337 53 465 19 457 -21 256 32 55 -21 45 19 173 53 43 87 53 128 254 75 454 128 465 87ZM384 277Q384 250 372.5 226.0Q361 202 341 183V128H299V171H277V128H235V171H213V128H171V183Q151 202 139.5 226.0Q128 250 128 277Q128 312 145.0 341.5Q162 371 191.5 388.0Q221 405 256.0 405.0Q291 405 320.5 388.0Q350 371 367.0 341.5Q384 312 384 277ZM235 288Q235 301 225.0 310.5Q215 320 202.5 320.0Q190 320 180.5 310.5Q171 301 171.0 288.0Q171 275 180.5 265.5Q190 256 202.5 256.0Q215 256 225.0 265.5Q235 275 235 288ZM277 213 256 256 235 213ZM341 288Q341 301 331.5 310.5Q322 320 309.5 320.0Q297 320 287.0 310.5Q277 301 277.0 288.0Q277 275 287.0 265.5Q297 256 309.5 256.0Q322 256 331.5 265.5Q341 275 341 288Z" />
      </g>
    </svg>