<svg xmlns="http://www.w3.org/2000/svg" viewBox="43 -21 426 448">
      <g transform="scale(1 -1) translate(0 -406)">
        <path d="M171 128Q153 128 140.5 140.5Q128 153 128.0 170.5Q128 188 140.5 200.5Q153 213 170.5 213.0Q188 213 200.5 200.5Q213 188 213.0 170.5Q213 153 200.5 140.5Q188 128 171 128ZM224 85 256 149 288 85ZM341 128Q324 128 311.5 140.5Q299 153 299.0 170.5Q299 188 311.5 200.5Q324 213 341.5 213.0Q359 213 371.5 200.5Q384 188 384.0 170.5Q384 153 371.5 140.5Q359 128 341 128ZM469 213Q469 256 453.0 295.0Q437 334 407.0 364.0Q377 394 337.5 410.5Q298 427 256.0 427.0Q214 427 174.5 410.5Q135 394 105.0 364.0Q75 334 59.0 295.0Q43 256 43.0 213.0Q43 170 60 130Q77 92 107 62V-21H405V62Q435 92 452 130Q469 170 469 213ZM363 21H320V64H277V21H235V64H192V21H149V81Q120 106 102.5 140.0Q85 174 85 213Q85 260 108.0 299.0Q131 338 170.5 361.0Q210 384 256.0 384.0Q302 384 341.5 361.0Q381 338 404.0 299.0Q427 260 427 213Q427 174 409.5 139.0Q392 104 363 81Z" />
      </g>
    </svg>