<svg xmlns="http://www.w3.org/2000/svg" viewBox="0 -64 512 512">
      <g transform="scale(1 -1) translate(0 -384)">
        <path d="M43 448Q25 448 12.5 435.5Q0 423 0 405V320H43V405H128V448ZM384 448V405H469V320H512V405Q512 423 499.5 435.5Q487 448 469 448ZM256 384Q210 384 170.5 361.0Q131 338 108.0 298.5Q85 259 85 213Q85 174 102.5 139.0Q120 104 149 81V0H192V64H235V0H277V64H320V0H363V81Q392 106 409.5 140.0Q427 174 427 213Q427 259 404.0 298.5Q381 338 341.5 361.0Q302 384 256 384ZM171 149Q153 149 140.5 161.5Q128 174 128.0 192.0Q128 210 140.5 222.5Q153 235 170.5 235.0Q188 235 200.5 222.5Q213 210 213.0 192.0Q213 174 200.5 161.5Q188 149 171 149ZM224 107 256 171 288 107ZM341 149Q324 149 311.5 161.5Q299 174 299.0 192.0Q299 210 311.5 222.5Q324 235 341.5 235.0Q359 235 371.5 222.5Q384 210 384.0 192.0Q384 174 371.5 161.5Q359 149 341 149ZM0 64V-21Q0 -39 12.5 -51.5Q25 -64 43 -64H128V-21H43V64ZM469 64V-21H384V-64H469Q487 -64 499.5 -51.5Q512 -39 512 -21V64Z" />
      </g>
    </svg>