<svg xmlns="http://www.w3.org/2000/svg" viewBox="64 -21 384 426">
      <g transform="scale(1 -1) translate(0 -384)">
        <path d="M256 405Q204 405 160.0 379.5Q116 354 90.0 309.5Q64 265 64 213Q64 165 87.0 123.0Q110 81 149 54V-21H192V43H235V-21H277V43H320V-21H363V54Q402 81 425.0 123.5Q448 166 448 213Q448 265 422.0 309.5Q396 354 352.0 379.5Q308 405 256 405ZM171 213Q188 213 200.5 200.5Q213 188 213.0 170.5Q213 153 200.5 140.5Q188 128 170.5 128.0Q153 128 140.5 140.5Q128 153 128.0 170.5Q128 188 140.5 200.5Q153 213 171 213ZM341 213Q359 213 371.5 200.5Q384 188 384.0 170.5Q384 153 371.5 140.5Q359 128 341.5 128.0Q324 128 311.5 140.5Q299 153 299.0 170.5Q299 188 311.5 200.5Q324 213 341 213ZM256 149 288 85H224Z" />
      </g>
    </svg>