<svg xmlns="http://www.w3.org/2000/svg" viewBox="64 0 384 384">
      <g transform="scale(1 -1) translate(0 -384)">
        <path d="M384 320Q417 288 429.5 245.0Q442 202 434 159Q448 135 448.0 106.5Q448 78 433.5 53.5Q419 29 394.5 14.5Q370 0 341.5 0.0Q313 0 289 14Q246 6 203.0 18.5Q160 31 127.5 63.5Q95 96 82.5 139.0Q70 182 78 225Q64 249 64.0 277.5Q64 306 78.5 330.5Q93 355 117.5 369.5Q142 384 170.5 384.0Q199 384 223 370Q266 378 309.0 365.5Q352 353 384 320ZM257 82Q301 82 325.0 101.0Q349 120 349 151Q349 173 337 188Q322 207 290 214L248 223Q232 227 225 231Q213 237 213.0 248.0Q213 259 222.5 266.0Q232 273 250.0 273.0Q268 273 280 266Q287 262 296 253Q301 246 305 244Q310 240 316 240Q326 240 332.5 245.5Q339 251 339 260Q339 281 311.5 296.0Q284 311 253 311Q217 311 193 296Q164 278 164 244Q164 223 174 210Q187 192 219 185L276 170Q298 165 298 147Q298 136 287.0 127.0Q276 118 256.5 118.0Q237 118 225 126Q217 131 208 143Q202 151 199 153Q193 158 184.5 158.0Q176 158 170.0 152.0Q164 146 164 137Q164 124 174.0 111.5Q184 99 204 91Q226 82 257 82Z" />
      </g>
    </svg>