<svg xmlns="http://www.w3.org/2000/svg" viewBox="21 -11 469 438">
      <g transform="scale(1 -1) translate(0 -416)">
        <path d="M489 93Q484 115 469.0 132.0Q454 149 431 156L422 125Q443 119 453.0 99.0Q463 79 456.0 58.0Q449 37 429.5 27.0Q410 17 389 24L318 47L328 77L399 54L409 85L367 98L323 194Q317 207 304.5 214.0Q292 221 277 219L232 211L254 281Q259 296 252.0 310.0Q245 324 229 329Q217 333 202 327L85 277V190L51 201L41 171L125 143L115 113L31 140L21 110L379 -7Q401 -14 422.5 -9.0Q444 -4 461.5 11.5Q479 27 486 48Q493 73 489 93ZM128 249 169 267 147 199Q142 184 150 169L128 176ZM288 57 145 103 155 133 297 87ZM202 152 287 171 312 116ZM299 384Q299 366 286.5 353.5Q274 341 256.0 341.0Q238 341 225.5 353.5Q213 366 213.0 384.0Q213 402 225.5 414.5Q238 427 256.0 427.0Q274 427 286.5 414.5Q299 402 299 384Z" />
      </g>
    </svg>