<svg xmlns="http://www.w3.org/2000/svg" viewBox="43 -21 426 426">
      <g transform="scale(1 -1) translate(0 -384)">
        <path d="M316 118Q309 129 298 149L297 151Q275 189 257 204Q233 226 192 232V331Q192 362 170.0 383.5Q148 405 117.0 405.0Q86 405 64.5 383.5Q43 362 43 331V-21H85V21H149V-21H192V189Q218 184 233 169Q243 159 260 130Q271 110 281 95Q320 36 358 10Q404 -21 469 -21V21Q417 21 381 46Q351 67 316 118ZM117 363Q131 363 140.0 353.5Q149 344 149 331V235H85V331Q85 344 94.5 353.5Q104 363 117 363ZM85 64V107H149V64ZM149 149H85V192H149Z" />
      </g>
    </svg>