<svg xmlns="http://www.w3.org/2000/svg" viewBox="21 -21 470 426">
      <g transform="scale(1 -1) translate(0 -384)">
        <path d="M107 192 149 277V299H85V277H128L85 192ZM192 192 235 277V299H171V277H213L171 192ZM277 192 320 277V299H256V277H299L256 192ZM448 405Q430 405 417.5 392.5Q405 380 405 363Q405 351 411.0 341.0Q417 331 427 326V85H363V128Q372 128 378.0 134.0Q384 140 384 149V341Q384 351 378.0 357.0Q372 363 363 363H282Q269 382 247.5 393.5Q226 405 202.5 405.0Q179 405 158.0 393.5Q137 382 124 363H43Q33 363 27.0 357.0Q21 351 21 341V149Q21 140 27.0 134.0Q33 128 43 128V-21H363V43H427Q444 43 456.5 55.5Q469 68 469 85V326Q479 331 485.0 341.0Q491 351 491 363Q491 380 478.5 392.5Q466 405 448 405ZM277 43H128V85H277ZM341 171H64V320H341Z" />
      </g>
    </svg>