<svg xmlns="http://www.w3.org/2000/svg" viewBox="0 -37 512 448">
      <g transform="scale(1 -1) translate(0 -374)">
        <path d="M51 411 24 384 27 381Q15 376 7.5 365.0Q0 354 0 341V43Q1 25 13.0 13.0Q25 1 43 0H408L445 -37L472 -10ZM299 64H43V85Q43 105 66 121Q86 135 119 144Q147 151 170.5 151.0Q194 151 223 144Q255 135 275 121Q299 105 299 85ZM171 192Q144 192 125.5 210.5Q107 229 107 256Q107 275 117 291L205 203Q190 192 171 192ZM469 384H132L211 305Q216 301 220 296L501 15Q512 28 512 43V341Q511 359 499.0 371.0Q487 383 469 384ZM448 171H363V235H448Z" />
      </g>
    </svg>