<svg xmlns="http://www.w3.org/2000/svg" viewBox="0 0 512 384">
      <g transform="scale(1 -1) translate(0 -384)">
        <path d="M43 384H469Q487 383 499.0 371.0Q511 359 512 341V43Q511 25 499.0 13.0Q487 1 469 0H43Q25 1 13.0 13.0Q1 25 0 43V341Q1 359 13.0 371.0Q25 383 43 384ZM171 151Q147 151 119 144Q86 135 66 121Q43 105 43 85V64H299V85Q299 105 275 121Q255 135 223 144Q194 151 171 151ZM171 320Q144 320 125.5 301.5Q107 283 107.0 256.0Q107 229 125.5 210.5Q144 192 170.5 192.0Q197 192 216.0 210.5Q235 229 235.0 256.0Q235 283 216.0 301.5Q197 320 171 320ZM363 235V171H448V235Z" />
      </g>
    </svg>