<svg xmlns="http://www.w3.org/2000/svg" viewBox="0 0 512 384">
      <g transform="scale(1 -1) translate(0 -384)">
        <path d="M469 384H43Q25 383 13.0 371.0Q1 359 0 341V43Q1 25 13.0 13.0Q25 1 43 0H469Q487 1 499.0 13.0Q511 25 512 43V341Q511 359 499.0 371.0Q487 383 469 384ZM469 43H43V341H469ZM299 85V112Q299 128 279 142Q262 153 235 159Q212 165 192.0 165.0Q172 165 149 159Q122 153 105 142Q85 128 85 112V85ZM192 299Q170 299 154.5 283.0Q139 267 139.0 245.0Q139 223 154.5 207.5Q170 192 192.0 192.0Q214 192 229.5 207.5Q245 223 245.0 245.0Q245 267 229.5 283.0Q214 299 192 299ZM320 235V171H405V235Z" />
      </g>
    </svg>