<svg xmlns="http://www.w3.org/2000/svg" viewBox="0 -37 512 448">
      <g transform="scale(1 -1) translate(0 -374)">
        <path d="M405 171H346L320 196V235H405ZM469 384H132L175 341H469V47L501 15Q512 28 512 43V341Q511 359 499.0 371.0Q487 383 469 384ZM472 -10 445 -37 408 0H43Q25 1 13.0 13.0Q1 25 0 43V341Q0 354 7.5 365.0Q15 376 27 381L24 384L51 411ZM365 43 299 109V85H85V112Q85 128 105 142Q122 153 149 159Q172 165 192 165Q221 165 254 154L211 196Q201 192 192 192Q170 192 154.5 207.5Q139 223 139 245Q139 255 143 265L66 341H43V43Z" />
      </g>
    </svg>