<svg xmlns="http://www.w3.org/2000/svg" viewBox="43 -21 426 426">
      <g transform="scale(1 -1) translate(0 -384)">
        <path d="M256 405Q226 405 202.5 386.0Q179 367 173 338Q150 363 117 363Q86 363 64.5 341.0Q43 319 43 288Q43 257 64.5 235.0Q86 213 117 213H143V192H229V213H283V192H369V213H395Q426 213 447.5 235.0Q469 257 469 288Q469 319 447.5 341.0Q426 363 395 363Q362 363 339 338Q333 367 309.5 386.0Q286 405 256 405ZM154 149 137 -21H235L218 149ZM294 149 277 -21H375L358 149Z" />
      </g>
    </svg>