<svg xmlns="http://www.w3.org/2000/svg" viewBox="43 -43 426 448">
      <g transform="scale(1 -1) translate(0 -362)">
        <path d="M43 320 192 171H43V107H256L405 -43L432 -16L69 347ZM437 171H469V107H437ZM384 171H416V107H384ZM402 344Q423 365 423 395H391Q391 379 379.5 367.0Q368 355 352 355V323Q388 323 412.5 297.5Q437 272 437 236V192H469V236Q469 272 450.5 300.5Q432 329 402 344ZM309 262H342Q360 262 372.0 250.5Q384 239 384 219V192H416V226Q416 254 394.0 273.5Q372 293 342 293H309Q294 293 282.0 306.0Q270 319 270.0 335.5Q270 352 281.5 362.5Q293 373 309 373V405Q280 405 259.0 384.0Q238 363 238.0 333.5Q238 304 259.0 283.0Q280 262 309 262ZM363 108V171H300Z" />
      </g>
    </svg>