<svg xmlns="http://www.w3.org/2000/svg" viewBox="0 -21 512 426">
      <g transform="scale(1 -1) translate(0 -384)">
        <path d="M213 363Q259 363 298.5 340.0Q338 317 361.0 277.5Q384 238 384.0 192.0Q384 146 361.0 106.5Q338 67 298.5 44.0Q259 21 213.0 21.0Q167 21 128.0 44.0Q89 67 66.0 106.5Q43 146 43.0 192.0Q43 238 66.0 277.5Q89 317 128.0 340.0Q167 363 213 363ZM213 405Q156 405 107.0 376.5Q58 348 29.0 299.0Q0 250 0.0 192.0Q0 134 29.0 85.0Q58 36 107.0 7.5Q156 -21 213.5 -21.0Q271 -21 320.0 7.5Q369 36 398.0 85.0Q427 134 427.0 192.0Q427 250 398.0 299.0Q369 348 320.0 376.5Q271 405 213 405ZM213 213Q204 213 198.0 207.5Q192 202 192.0 192.0Q192 182 198.0 176.5Q204 171 213.5 171.0Q223 171 229.0 176.5Q235 182 235.0 192.0Q235 202 229.0 207.5Q223 213 213 213ZM186 250Q198 256 213.0 256.0Q228 256 241 250L256 265Q237 277 213.5 277.0Q190 277 171 265ZM277 192Q277 177 271 164L286 149Q299 169 299.0 192.0Q299 215 286 235L271 220Q277 207 277 192ZM149 192Q149 207 156 220L141 235Q128 215 128.0 192.0Q128 169 141 149L156 164Q149 177 149 192ZM241 134Q228 128 213.0 128.0Q198 128 186 134L171 119Q190 107 213.5 107.0Q237 107 256 119ZM318 267 303 252Q320 224 320.0 192.0Q320 160 303 132L318 117Q341 151 341.0 192.0Q341 233 318 267ZM154 282Q181 299 213.5 299.0Q246 299 273 282L288 297Q254 320 213.0 320.0Q172 320 139 297ZM273 102Q246 85 213.5 85.0Q181 85 154 102L139 87Q172 64 213.0 64.0Q254 64 288 87ZM124 132Q107 160 107.0 192.0Q107 224 124 252L109 267Q85 233 85.0 192.0Q85 151 109 117ZM512 299H469V171H512V277ZM512 128H469V85H512Z" />
      </g>
    </svg>