<svg xmlns="http://www.w3.org/2000/svg" viewBox="24 -37 448 448">
      <g transform="scale(1 -1) translate(0 -374)">
        <path d="M256 277Q291 277 316.0 252.0Q341 227 341 192Q341 185 340 176L240 276Q249 277 256 277ZM256 320Q291 320 320.5 303.0Q350 286 367.0 256.5Q384 227 384 192Q384 167 373 143L448 68V341Q448 359 435.5 371.5Q423 384 405 384H132L207 309Q231 320 256 320ZM472 -10 445 -37 407 0H107Q89 0 76.5 12.5Q64 25 64 43V343L24 384L51 411ZM324 84 292 115Q275 107 256 107Q221 107 196.0 132.0Q171 157 171 192Q171 211 179 228L148 260Q128 229 128.0 193.0Q128 157 145.0 127.5Q162 98 191.5 81.0Q221 64 257.0 64.0Q293 64 324 84Z" />
      </g>
    </svg>