<svg xmlns="http://www.w3.org/2000/svg" viewBox="43 -21 426 426">
      <g transform="scale(1 -1) translate(0 -384)">
        <path d="M341 171Q324 171 311.5 158.5Q299 146 299 128V64H277Q258 64 246 67Q230 70 220 80L139 161Q124 176 104.5 184.0Q85 192 64 192H43V149H64Q90 149 109 131L190 50Q220 19 242.0 4.0Q264 -11 287 -16Q308 -21 341 -21H384Q419 -21 444.0 4.0Q469 29 469 64V128Q469 146 456.5 158.5Q444 171 427 171ZM299 294H267Q250 296 238.5 308.0Q227 320 227.5 336.5Q228 353 239.0 364.0Q250 375 266 374H267V405Q237 405 216.0 384.0Q195 363 195.0 333.5Q195 304 216.0 283.0Q237 262 267 262H299Q316 263 328.5 251.5Q341 240 341 223V192H373V227Q372 256 350.5 276.0Q329 296 300 294ZM427 240V192H395V241Q395 276 370.0 301.0Q345 326 309 326V358Q325 358 337.0 370.0Q349 382 349 398Q349 402 348 405H380Q381 389 376.0 374.0Q371 359 359 347Q390 332 408.5 303.0Q427 274 427 240Z" />
      </g>
    </svg>