<svg xmlns="http://www.w3.org/2000/svg" viewBox="43 43 426 362">
      <g transform="scale(1 -1) translate(0 -448)">
        <path d="M43 107H363V43H43ZM437 107H469V43H437ZM384 107H416V43H384ZM402 283Q423 304 423.0 333.5Q423 363 402.5 384.0Q382 405 352 405V373Q368 373 379.5 361.5Q391 350 391.0 334.0Q391 318 379.5 306.0Q368 294 352 294V262Q388 262 412.5 237.0Q437 212 437 176V128H469V176Q469 211 450.5 240.0Q432 269 402 283ZM342 230H309Q294 230 282.0 243.5Q270 257 270.0 273.0Q270 289 281.5 299.5Q293 310 309 310V342Q280 342 259.0 321.5Q238 301 238.0 271.0Q238 241 259.0 220.0Q280 199 309 199H342Q360 199 372.0 187.5Q384 176 384 156V128H416V163Q416 192 394.0 211.0Q372 230 342 230Z" />
      </g>
    </svg>