<svg xmlns="http://www.w3.org/2000/svg" viewBox="64 0 384 384">
      <g transform="scale(1 -1) translate(0 -384)">
        <path d="M256 64Q291 64 320.5 81.0Q350 98 367.0 127.5Q384 157 384.0 192.0Q384 227 367.0 256.5Q350 286 320.5 303.0Q291 320 256.0 320.0Q221 320 191.5 303.0Q162 286 145.0 256.5Q128 227 128.0 192.0Q128 157 145.0 127.5Q162 98 191.5 81.0Q221 64 256 64ZM405 384Q423 384 435.5 371.5Q448 359 448 341V43Q448 25 435.5 12.5Q423 0 405 0H107Q89 0 76.5 12.5Q64 25 64 43V341Q64 359 76.5 371.5Q89 384 107 384ZM171 192Q171 227 196.0 252.0Q221 277 256.0 277.0Q291 277 316.0 252.0Q341 227 341.0 192.0Q341 157 316.0 132.0Q291 107 256.0 107.0Q221 107 196.0 132.0Q171 157 171 192Z" />
      </g>
    </svg>