<svg xmlns="http://www.w3.org/2000/svg" viewBox="24 -37 448 448">
      <g transform="scale(1 -1) translate(0 -374)">
        <path d="M445 -37 420 -13Q403 -21 384 -21H341Q308 -21 287 -16Q264 -11 242.0 4.0Q220 19 190 50L109 131Q90 149 64 149H43V192H64Q85 192 104.5 184.0Q124 176 139 161L220 80Q230 70 246 67Q258 64 277 64H299V109L24 384L51 411L472 -10ZM468 48Q469 57 469 64V128Q469 146 456.5 158.5Q444 171 427 171H346ZM395 241V240V192H427V240Q427 274 408.5 303.0Q390 332 359 347Q371 359 376.0 374.0Q381 389 380 405H348Q349 402 349 398Q349 382 337.0 370.0Q325 358 309 358V326Q345 326 370.0 301.0Q395 276 395 241ZM252 264Q259 262 267 262H299Q316 263 328.5 251.5Q341 240 341 223V192H373V227Q372 256 350.5 276.0Q329 296 300 294H267Q250 296 238.5 308.0Q227 320 227.5 336.5Q228 353 239.0 364.0Q250 375 266 374H267V405Q237 405 216.0 384.0Q195 363 195 334Q195 326 197 320Z" />
      </g>
    </svg>