<svg xmlns="http://www.w3.org/2000/svg" viewBox="43 -21 426 426">
      <g transform="scale(1 -1) translate(0 -384)">
        <path d="M256 363Q302 363 341.5 340.0Q381 317 404.0 277.5Q427 238 427.0 192.0Q427 146 404.0 106.5Q381 67 341.5 44.0Q302 21 256.0 21.0Q210 21 170.5 44.0Q131 67 108.0 106.5Q85 146 85.0 192.0Q85 238 108.0 277.5Q131 317 170.5 340.0Q210 363 256 363ZM256 405Q198 405 149.0 376.5Q100 348 71.5 299.0Q43 250 43.0 192.0Q43 134 71.5 85.0Q100 36 149.0 7.5Q198 -21 256.0 -21.0Q314 -21 363.0 7.5Q412 36 440.5 85.0Q469 134 469.0 192.0Q469 250 440.5 299.0Q412 348 363.0 376.5Q314 405 256 405ZM256 213Q247 213 241.0 207.0Q235 201 235.0 192.0Q235 183 241.0 177.0Q247 171 256.0 171.0Q265 171 271.0 177.0Q277 183 277.0 192.0Q277 201 271.0 207.0Q265 213 256 213ZM229 250Q242 256 256.0 256.0Q270 256 284 250L299 265Q279 277 256.0 277.0Q233 277 213 265ZM320 192Q320 178 314 164L329 149Q341 169 341.0 192.0Q341 215 329 235L314 219Q320 206 320 192ZM192 192Q192 206 198 219L183 235Q171 215 171.0 192.0Q171 169 183 149L198 164Q192 178 192 192ZM284 134Q270 128 256.0 128.0Q242 128 229 134L213 119Q233 107 256.0 107.0Q279 107 299 119ZM360 266 345 251Q363 224 363.0 192.0Q363 160 345 133L360 118Q384 151 384.0 192.0Q384 233 360 266ZM197 281Q224 299 256.0 299.0Q288 299 315 281L330 296Q297 320 256.0 320.0Q215 320 182 296ZM315 103Q288 85 256.0 85.0Q224 85 197 103L182 88Q215 64 256.0 64.0Q297 64 330 88ZM167 133Q149 160 149.0 192.0Q149 224 167 251L152 266Q128 233 128.0 192.0Q128 151 152 118Z" />
      </g>
    </svg>