<svg xmlns="http://www.w3.org/2000/svg" viewBox="24 -37 448 448">
      <g transform="scale(1 -1) translate(0 -374)">
        <path d="M175 341 132 384H405Q423 384 435.5 371.5Q448 359 448 341V68L405 111V341ZM373 143Q384 167 384 192Q384 227 367.0 256.5Q350 286 320.5 303.0Q291 320 256 320Q231 320 207 309L240 276Q249 277 256 277Q291 277 316.0 252.0Q341 227 341 192Q341 185 340 176ZM472 -10 445 -37 407 0H107Q89 0 76.5 12.5Q64 25 64 43V343L24 384L51 411ZM171 192Q171 157 196.0 132.0Q221 107 256 107Q275 107 292 115L179 228Q171 211 171 192ZM365 43 324 84Q293 64 257.0 64.0Q221 64 191.5 81.0Q162 98 145.0 127.5Q128 157 128.0 193.0Q128 229 148 260L107 301V43Z" />
      </g>
    </svg>