<svg xmlns="http://www.w3.org/2000/svg" viewBox="21 0 470 384">
      <g transform="scale(1 -1) translate(0 -384)">
        <path d="M213 64Q248 64 277.5 81.5Q307 99 324.0 128.0Q341 157 341.0 192.0Q341 227 324.0 256.0Q307 285 277.5 302.5Q248 320 213.5 320.0Q179 320 149.5 302.5Q120 285 102.5 256.0Q85 227 85.0 192.0Q85 157 102.5 128.0Q120 99 149.5 81.5Q179 64 213 64ZM363 384Q380 384 392.5 371.5Q405 359 405 341V43Q405 25 392.5 12.5Q380 0 363 0H64Q46 0 33.5 12.5Q21 25 21 43V341Q21 359 33.5 371.5Q46 384 64 384ZM128 192Q128 227 153.0 252.0Q178 277 213.5 277.0Q249 277 274.0 252.0Q299 227 299.0 192.0Q299 157 274.0 132.0Q249 107 213.5 107.0Q178 107 153.0 132.0Q128 157 128 192ZM491 299H448V171H491V277ZM491 128H448V85H491Z" />
      </g>
    </svg>