<svg xmlns="http://www.w3.org/2000/svg" viewBox="24 -37 448 448">
      <g transform="scale(1 -1) translate(0 -374)">
        <path d="M472 -10 51 411 24 384 87 321Q43 264 43 192Q43 134 71.5 85.0Q100 36 149.0 7.5Q198 -21 256 -21Q328 -21 385 23L445 -37ZM256 21Q210 21 170.5 44.0Q131 67 108.0 106.5Q85 146 85 192Q85 246 117 291L148 260Q128 228 128 192Q128 151 152 118L167 133Q149 160 149 192Q149 219 163 244L179 228Q171 211 171 192Q171 169 183 149L198 164Q192 178 192 192Q192 202 196 212L276 132Q266 128 256 128Q242 128 229 134L213 119Q233 107 256 107Q275 107 292 115L308 99Q283 85 256 85Q224 85 197 103L182 88Q215 64 256 64Q292 64 324 84L355 53Q310 21 256 21ZM256 277Q279 277 299 265L284 250Q273 254 261 255L241 276Q248 277 256 277ZM319 197Q318 210 314 219L329 235Q341 215 341 192Q341 184 340 177ZM315 281Q288 299 256 299Q239 299 223 293L207 309Q230 320 256 320Q297 320 330 296ZM175 341 143 373Q195 405 256 405Q314 405 363.0 376.5Q412 348 440.5 299.0Q469 250 469 192Q469 131 437 79L405 110Q427 148 427.0 193.0Q427 238 404.0 277.5Q381 317 341.5 340.0Q302 363 257.0 363.0Q212 363 175 341ZM357 159Q363 175 363 192Q363 224 345 251L360 266Q384 233 384 192Q384 167 373 143Z" />
      </g>
    </svg>