<svg xmlns="http://www.w3.org/2000/svg" viewBox="21 0 470 384">
      <g transform="scale(1 -1) translate(0 -384)">
        <path d="M363 384H64Q46 384 33.5 371.5Q21 359 21 341V43Q21 25 33.5 12.5Q46 0 64 0H363Q380 0 392.5 12.5Q405 25 405 43V341Q405 359 392.5 371.5Q380 384 363 384ZM363 43H64V341H363ZM213 64Q248 64 277.5 81.5Q307 99 324.0 128.0Q341 157 341.0 192.0Q341 227 324.0 256.0Q307 285 277.5 302.5Q248 320 213.5 320.0Q179 320 149.5 302.5Q120 285 102.5 256.0Q85 227 85.0 192.0Q85 157 102.5 128.0Q120 99 149.5 81.5Q179 64 213 64ZM213 277Q249 277 274.0 252.0Q299 227 299.0 192.0Q299 157 274.0 132.0Q249 107 213.5 107.0Q178 107 153.0 132.0Q128 157 128.0 192.0Q128 227 153.0 252.0Q178 277 213 277ZM491 299H448V171H491V277ZM491 128H448V85H491Z" />
      </g>
    </svg>