<svg xmlns="http://www.w3.org/2000/svg" viewBox="42 -18 427 420">
      <g transform="scale(1 -1) translate(0 -384)">
        <path d="M468 95Q465 102 454 110L444 115Q413 132 397 155Q392 163 389 169Q388 173 389.0 175.0Q390 177 391 178L411 190Q422 198 428 209Q436 224 430 240Q426 251 416.5 257.0Q407 263 395 263Q390 263 384 262H382Q382 279 381 292Q379 316 370 334Q364 348 351.5 362.0Q339 376 323 385Q293 402 256.0 402.0Q219 402 189 385Q173 376 160.5 362.0Q148 348 142 334Q133 316 131 292Q130 277 130 262H128Q122 263 117 263Q105 263 95.5 257.0Q86 251 82 240Q76 224 84 209Q90 198 101 190L120 178Q121 177 122.5 175.0Q124 173 123 169Q120 163 115 155Q99 132 70 116L65 114Q57 109 53 106Q47 102 44 95Q38 79 52 66Q57 61 63 58Q77 50 89 47Q93 46 94.5 44.5Q96 43 97.5 39.0Q99 35 101.5 31.5Q104 28 109.5 24.0Q115 20 123 18Q128 17 138 17H139Q159 16 171 12Q175 11 185 5L189 2Q205 -7 216 -11Q235 -18 256.5 -18.0Q278 -18 296 -11Q307 -7 324 3L327 5Q337 11 341 12Q353 16 373 17Q383 17 389 18Q397 20 402.5 23.5Q408 27 412 33L414 39Q416 43 418.0 44.5Q420 46 422 47Q435 50 449 58Q456 61 461 67Q473 79 468 95ZM438 79Q428 73 412 69Q402 67 398.0 64.0Q394 61 393 55L392 50Q392 45 389.0 43.0Q386 41 373 41Q349 40 333 35Q326 32 312.0 23.5Q298 15 289 12Q274 6 256.0 6.0Q238 6 223 11Q214 15 200.0 23.5Q186 32 179 35Q163 40 140 41Q126 41 123.0 43.0Q120 45 119.0 53.0Q118 61 114.0 64.0Q110 67 100 69Q85 73 75.5 78.0Q66 83 67.5 86.0Q69 89 73 91Q118 113 138 147Q146 160 150 174V176Q151 180 150.5 182.5Q150 185 146.5 188.0Q143 191 124 204L115 210Q100 220 104 231Q108 239 117 239Q120 239 122 239Q129 237 141 233L149 230H151Q154 230 155 231L156 235Q153 268 155 290Q156 302 159 313Q164 329 178 346Q187 356 201 364Q225 378 256 378Q300 378 329 351L334 346Q349 329 354 310Q356 300 357 290Q359 268 356 235L357 232Q357 230 361 230H363L372 233Q383 238 390 239H395Q404 239 407 233L408 231Q412 220 397 210L387 203Q369 191 365.5 188.5Q362 186 361.5 183.0Q361 180 362 176V175Q368 152 386 131Q406 107 439 91Q442 90 443.5 88.0Q445 86 444 85Q444 82 438 79Z" />
      </g>
    </svg>