<svg xmlns="http://www.w3.org/2000/svg" viewBox="24 -37 448 448">
      <g transform="scale(1 -1) translate(0 -374)">
        <path d="M235 339 198 375 228 405 256 378 284 405 314 375 277 339V291L330 260L372 284L385 334L427 323L417 285L455 275L444 234L394 247L351 223V165L309 207V223L272 244L229 287L235 291ZM394 137 360 156 417 99 454 109 444 150ZM277 93V45L314 9L284 -21L256 6L228 -21L198 9L235 45V93L182 124L140 100L127 50L85 61L95 99L58 109L69 150L118 137L161 161V223L118 247L69 234L58 275L95 285L85 322L24 384L51 411L472 -10L445 -37L301 107ZM256 130 269 139 203 205V161Z" />
      </g>
    </svg>