<svg xmlns="http://www.w3.org/2000/svg" viewBox="44 -31 424 458">
      <g transform="scale(1 -1) translate(0 -396)">
        <path d="M467 13Q463 19 457 20Q449 22 443 17Q431 7 417.5 3.0Q404 -1 387 2L364 8L341 140L272 196L309 257Q328 228 359.5 210.0Q391 192 427 192V235Q397 235 373.5 251.0Q350 267 340 293L328 319Q324 325 315.5 333.0Q307 341 293 341H172L118 256L155 233L195 299H245L192 214Q182 200 186 181L204 108L129 58L119 60Q104 63 92.0 72.5Q80 82 75 95Q71 103 63.5 104.5Q56 106 51.0 102.0Q46 98 45.0 92.5Q44 87 45 82Q55 62 72.0 48.0Q89 34 112 29L381 -29Q405 -34 426.0 -28.0Q447 -22 464 -7Q468 -4 469 1Q469 10 467 13ZM187 45 252 88 242 159 303 116 319 17ZM384 384Q384 366 371.5 353.5Q359 341 341.5 341.0Q324 341 311.5 353.5Q299 366 299.0 384.0Q299 402 311.5 414.5Q324 427 341.5 427.0Q359 427 371.5 414.5Q384 402 384 384Z" />
      </g>
    </svg>