<svg xmlns="http://www.w3.org/2000/svg" viewBox="15 -21 454 426">
      <g transform="scale(1 -1) translate(0 -384)">
        <path d="M308 247 235 291V339L271 375L241 405L213 378L186 405L156 375L192 339V291L139 260L96 284L84 334L43 323L53 285L15 275L26 234L76 247L118 223V161L76 137L26 150L15 109L53 99L43 61L84 50L97 100L140 124L192 93V45L156 9L186 -21L213 6L241 -21L271 9L235 45V93L308 136ZM160 223 213 254 267 223V161L213 130L160 161ZM405 341Q388 341 375.5 328.5Q363 316 363 299V154Q341 135 341 107Q341 80 360.0 61.5Q379 43 405.5 43.0Q432 43 450.5 61.5Q469 80 469 107Q469 136 448 154V299Q448 316 435.5 328.5Q423 341 405 341ZM405 320Q414 320 420.5 313.5Q427 307 427 299V277H384V299Q384 307 390.5 313.5Q397 320 405 320Z" />
      </g>
    </svg>