<svg xmlns="http://www.w3.org/2000/svg" viewBox="85 -43 342 459">
      <g transform="scale(1 -1) translate(0 -373)">
        <path d="M267 373Q267 391 279.5 403.5Q292 416 309.5 416.0Q327 416 339.5 403.5Q352 391 352.0 373.5Q352 356 339.5 343.5Q327 331 309.5 331.0Q292 331 279.5 343.5Q267 356 267 373ZM135 42 111 73 85 53 136 -12Q153 -33 176 -42Q185 -45 192 -39Q197 -35 198.0 -28.5Q199 -22 194 -16Q191 -13 188 -12Q173 -6 163 6L161 8L235 60L254 128L299 85V-11H256V-43H339Q366 -43 387 -30Q395 -25 395 -16Q395 -10 390.0 -5.0Q385 0 378 0Q374 0 370 -2Q357 -10 341 -11V117L296 160L309 224Q330 199 361.0 185.0Q392 171 427 171V213Q397 213 372.5 227.5Q348 242 335 265L313 299Q299 320 277 320Q268 320 251 314Q239 309 189 288L149 271V171H192V244L230 259L196 85Z" />
      </g>
    </svg>