<svg xmlns="http://www.w3.org/2000/svg" viewBox="21 21 470 320">
      <g transform="scale(1 -1) translate(0 -362)">
        <path d="M434 65 393 107Q425 109 448 118Q486 133 490 163Q491 170 486 177Q468 201 437 234Q388 285 320 341H256V299H299L341 256L256 213L64 235L21 171L119 141L55 105Q43 99 35 92Q21 79 21.0 62.0Q21 45 28 36Q39 21 64 21H192Q218 21 241 39Q270 62 276 107H333L375 64H320V21H427Q453 21 472.0 40.0Q491 59 491 85H448Q448 79 444.0 73.5Q440 68 434 65ZM192 64H69L175 124L233 107Q228 82 212 71Q202 64 192 64Z" />
      </g>
    </svg>