<svg xmlns="http://www.w3.org/2000/svg" viewBox="43 -21 426 426">
      <g transform="scale(1 -1) translate(0 -384)">
        <path d="M363 85Q363 56 348.5 31.5Q334 7 309.5 -7.0Q285 -21 256 -21Q235 -21 215.5 -13.0Q196 -5 181.0 10.0Q166 25 157.5 44.5Q149 64 149 85Q149 109 158.5 129.5Q168 150 185 165Q171 187 171 213V222L108 259L103 262L49 248L43 268L90 281L48 305L59 324L101 299L89 347L109 352L124 298L129 296L186 263Q199 280 218 290Q206 299 199.0 312.5Q192 326 192 341Q192 368 210.5 386.5Q229 405 256.0 405.0Q283 405 301.5 386.5Q320 368 320 341Q320 326 313.0 312.5Q306 299 294 290Q313 280 326 263L383 296L388 298L403 352L423 347L411 299L453 324L464 305L422 281L469 268L463 248L409 262L404 259L341 222V213Q341 187 327 165Q344 150 353.5 129.5Q363 109 363 85Z" />
      </g>
    </svg>