<svg xmlns="http://www.w3.org/2000/svg" viewBox="43 21 426 342">
      <g transform="scale(1 -1) translate(0 -384)">
        <path d="M85 363Q68 363 55.5 350.5Q43 338 43 320V64Q43 46 55.5 33.5Q68 21 85 21H427Q444 21 456.5 33.5Q469 46 469 64V320Q469 338 456.5 350.5Q444 363 427 363ZM85 320H235V275Q206 267 188.5 244.0Q171 221 171.0 192.0Q171 163 188.5 140.0Q206 117 235 109V64H85V107H149V277H85ZM277 320H427V277H363V107H427V64H277V109Q306 117 323.5 140.0Q341 163 341.0 192.0Q341 221 323.5 244.0Q306 267 277 275ZM85 235H107V149H85ZM405 235H427V149H405ZM277 229Q287 223 293.0 213.0Q299 203 299.0 192.0Q299 181 293.0 171.0Q287 161 277 155ZM235 229V155Q225 161 219.0 171.0Q213 181 213.0 192.0Q213 203 219.0 213.0Q225 223 235 229Z" />
      </g>
    </svg>