<svg xmlns="http://www.w3.org/2000/svg" viewBox="43 -21 426 426">
      <g transform="scale(1 -1) translate(0 -384)">
        <path d="M361 83 344 112 375 205 405 215 427 199V192Q427 129 385 81ZM208 128 179 214 256 268 333 214 304 128ZM256 21Q228 21 203 30L188 62L202 85H311L324 62L309 30Q284 21 256 21ZM127 81Q110 100 97.5 133.0Q85 166 85 192V199L107 215L137 205L168 112L151 83ZM235 335V305L149 246L121 255L112 284Q126 306 153.0 327.0Q180 348 206 355ZM306 355Q332 348 359.0 327.0Q386 306 400 284L391 255L363 246L277 305V335ZM105 343Q43 279 43.0 192.0Q43 105 105.0 42.0Q167 -21 255.0 -21.0Q343 -21 406.0 41.0Q469 103 469.0 191.0Q469 279 407.0 342.0Q345 405 257.0 405.0Q169 405 105 343Z" />
      </g>
    </svg>