<svg xmlns="http://www.w3.org/2000/svg" viewBox="43 -21 426 426">
      <g transform="scale(1 -1) translate(0 -384)">
        <path d="M128 320Q146 320 158.5 332.5Q171 345 171.0 362.5Q171 380 158.5 392.5Q146 405 128.0 405.0Q110 405 97.5 392.5Q85 380 85.0 362.5Q85 345 97.5 332.5Q110 320 128 320ZM213 247Q213 260 206.0 270.5Q199 281 187 286Q159 299 128.0 299.0Q97 299 69 286Q57 281 50.0 270.5Q43 260 43 247V235H213ZM384 320Q402 320 414.5 332.5Q427 345 427.0 362.5Q427 380 414.5 392.5Q402 405 384.0 405.0Q366 405 353.5 392.5Q341 380 341.0 362.5Q341 345 353.5 332.5Q366 320 384 320ZM469 247Q469 260 462.0 270.5Q455 281 443 286Q415 299 384.0 299.0Q353 299 325 286Q313 281 306.0 270.5Q299 260 299 247V235H469ZM405 85V128H107V85L43 149L107 213V171H405V213L469 149ZM213 43V64H160Q156 64 152.5 61.0Q149 58 149 53V-11Q149 -15 152.5 -18.0Q156 -21 160 -21H203Q207 -21 210.0 -18.0Q213 -15 213 -11V21Q213 26 210.0 29.0Q207 32 203 32H171V43ZM192 11V0H171V11ZM373 43H352V-21H331V43H309V64H373ZM267 43V32H288V11H267V-21H245V64H299V43Z" />
      </g>
    </svg>