<svg xmlns="http://www.w3.org/2000/svg" viewBox="43 -21 426 384">
      <g transform="scale(1 -1) translate(0 -342)">
        <path d="M405 256V299Q405 325 386.5 344.0Q368 363 341 363H171Q144 363 125.5 344.0Q107 325 107 299V256Q80 256 61.5 237.0Q43 218 43 192V85Q43 59 61.5 40.0Q80 21 107 21V-21H149V21H363V-21H405V21Q432 21 450.5 40.0Q469 59 469 85V192Q469 218 450.5 237.0Q432 256 405 256ZM149 299Q149 307 155.5 313.5Q162 320 171 320H341Q350 320 356.5 313.5Q363 307 363 299V239Q341 220 341 192V149H171V192Q171 220 149 239ZM427 85Q427 77 420.5 70.5Q414 64 405 64H107Q98 64 91.5 70.5Q85 77 85 85V192Q85 201 91.5 207.0Q98 213 106.5 213.0Q115 213 121.5 207.0Q128 201 128 192V107H384V192Q384 201 390.5 207.0Q397 213 405.5 213.0Q414 213 420.5 207.0Q427 201 427 192Z" />
      </g>
    </svg>