<svg xmlns="http://www.w3.org/2000/svg" viewBox="21 0 470 341">
      <g transform="scale(1 -1) translate(0 -341)">
        <path d="M267 299Q267 316 279.5 328.5Q292 341 309 341H384Q402 341 414.5 328.5Q427 316 427 299V253Q408 246 396.0 229.5Q384 213 384 193V149H267ZM128 193V149H245V299Q245 316 232.5 328.5Q220 341 203 341H128Q110 341 97.5 328.5Q85 316 85 299V253Q104 246 116.0 229.5Q128 213 128 193ZM441 234Q425 232 415.0 219.0Q405 206 405 189V128H107V192Q107 210 94.5 222.5Q82 235 64.0 235.0Q46 235 33.5 222.5Q21 210 21 192V85Q21 68 33.5 55.5Q46 43 64 43V0H107V43H405V0H448V43Q466 43 478.5 55.5Q491 68 491 85V192Q491 212 476.0 224.5Q461 237 441 234Z" />
      </g>
    </svg>