<svg xmlns="http://www.w3.org/2000/svg" viewBox="0 -21 512 384">
      <g transform="scale(1 -1) translate(0 -342)">
        <path d="M448 256V299Q448 325 429.0 344.0Q410 363 384 363H299Q274 363 256 346Q238 363 213 363H128Q102 363 83.0 344.0Q64 325 64 299V256Q38 256 19.0 237.0Q0 218 0 192V85Q0 59 19.0 40.0Q38 21 64 21V-21H107V21H405V-21H448V21Q474 21 493.0 40.0Q512 59 512 85V192Q512 218 493.0 237.0Q474 256 448 256ZM299 320H384Q393 320 399.0 313.5Q405 307 405 299V239Q384 220 384 192V149H277V299Q277 307 283.5 313.5Q290 320 299 320ZM107 299Q107 307 113.0 313.5Q119 320 128 320H213Q222 320 228.5 313.5Q235 307 235 299V149H128V192Q128 220 107 239ZM469 85Q469 77 463.0 70.5Q457 64 448 64H64Q55 64 49.0 70.5Q43 77 43 85V192Q43 201 49.0 207.0Q55 213 64.0 213.0Q73 213 79.0 207.0Q85 201 85 192V107H427V192Q427 201 433.0 207.0Q439 213 448.0 213.0Q457 213 463.0 207.0Q469 201 469 192Z" />
      </g>
    </svg>