<svg xmlns="http://www.w3.org/2000/svg" viewBox="43 0 426 341">
      <g transform="scale(1 -1) translate(0 -341)">
        <path d="M107 253V299Q107 316 119.5 328.5Q132 341 149 341H363Q380 341 392.5 328.5Q405 316 405 299V253Q386 246 374.5 229.5Q363 213 363 193V149H149V193Q149 213 137.0 229.5Q125 246 107 253ZM427 235Q409 235 396.5 222.5Q384 210 384 192V128H128V192Q128 210 115.5 222.5Q103 235 85.5 235.0Q68 235 55.5 222.5Q43 210 43 192V85Q43 68 55.5 55.5Q68 43 85 43V0H128V43H384V0H427V43Q444 43 456.5 55.5Q469 68 469 85V192Q469 210 456.5 222.5Q444 235 427 235Z" />
      </g>
    </svg>