<svg xmlns="http://www.w3.org/2000/svg" viewBox="43 -21 426 426">
      <g transform="scale(1 -1) translate(0 -384)">
        <path d="M427 192H85L43 -21H469ZM392 149 400 107H277V149ZM235 149V107H112L120 149ZM103 64H235V21H95ZM277 21V64H409L417 21ZM235 277H277V213H235ZM336 294 367 324 412 279 382 249ZM100 279 146 324 176 294 131 249ZM64 405H128V363H64ZM384 405H448V363H384ZM256 299Q285 299 309.5 313.0Q334 327 348.5 351.5Q363 376 363 405H320Q320 379 301.0 360.0Q282 341 256.0 341.0Q230 341 211.0 360.0Q192 379 192 405H149Q149 376 163.5 351.5Q178 327 202.5 313.0Q227 299 256 299Z" />
      </g>
    </svg>