<svg xmlns="http://www.w3.org/2000/svg" viewBox="21 -43 470 470">
      <g transform="scale(1 -1) translate(0 -384)">
        <path d="M64 320H128V384H64ZM171 384V320H235V384ZM277 384V320H341V384ZM384 384V320H448V384ZM448 277H384V213H448ZM448 171H384V107H448ZM341 107V171H277V107ZM235 107V171H171V107ZM128 107V171H64V107ZM64 213H128V277H64ZM277 277V213H341V277ZM171 277V213H235V277ZM64 427H448Q466 427 478.5 414.5Q491 402 491 384V107Q491 89 478.5 76.5Q466 64 448 64H320V0H384V-43H277V64H235V-43H128V0H192V64H64Q46 64 33.5 76.5Q21 89 21 107V384Q21 402 33.5 414.5Q46 427 64 427Z" />
      </g>
    </svg>