<svg xmlns="http://www.w3.org/2000/svg" viewBox="43 0 437 362">
      <g transform="scale(1 -1) translate(0 -362)">
        <path d="M104 362 43 302 111 234V173L141 143L262 264L232 294H172ZM363 320V288Q379 288 390.5 276.5Q402 265 402.0 248.5Q402 232 390.5 220.5Q379 209 363 209V177Q398 177 423.0 151.5Q448 126 448 90V0H480V90Q480 126 461.5 154.5Q443 183 413 198Q434 219 434.0 248.5Q434 278 413.0 299.0Q392 320 363 320ZM255 211 194 151 300 45 315 60 360 15 405 0 390 45 345 90 360 106Z" />
      </g>
    </svg>