<svg xmlns="http://www.w3.org/2000/svg" viewBox="43 27 426 330">
      <g transform="scale(1 -1) translate(0 -384)">
        <path d="M203 357Q240 350 299 331Q343 315 360.0 293.0Q377 271 377.0 229.0Q377 187 355.0 172.0Q333 157 300 173V276Q300 299 286 303Q280 305 276.0 300.0Q272 295 272 285V27L203 49ZM285 72 397 112Q407 115 408.0 119.5Q409 124 401.5 126.5Q394 129 382.0 128.5Q370 128 360 124L285 98V140L304 146Q323 150 341 152Q365 155 391.0 152.0Q417 149 439.0 141.5Q461 134 467.0 123.5Q473 113 466 105Q461 98 449 91L437 86L285 32ZM75 76Q51 83 45.0 95.5Q39 108 51 117Q65 128 89 135L189 171V131L117 105Q108 101 106.5 97.0Q105 93 113.0 90.5Q121 88 133.0 88.5Q145 89 154 93L189 105V69L182 68Q126 59 75 76Z" />
      </g>
    </svg>