<svg xmlns="http://www.w3.org/2000/svg" viewBox="64 -21 427 341">
      <g transform="scale(1 -1) translate(0 -299)">
        <path d="M491 79V4Q491 -6 482.5 -13.5Q474 -21 463 -21H346Q336 -21 328.0 -13.0Q320 -5 320 6V81Q320 91 328.0 99.0Q336 107 346 107V160Q346 182 364.0 197.5Q382 213 405.0 213.0Q428 213 446.5 197.5Q465 182 465 160V149H437V160Q437 172 428.0 180.0Q419 188 405.5 188.0Q392 188 382.5 180.0Q373 172 373 160V107H465Q475 107 483.0 98.5Q491 90 491 79ZM64 171V213H320V171ZM64 320H448V277H64ZM64 64V107H192V64Z" />
      </g>
    </svg>