<svg xmlns="http://www.w3.org/2000/svg" viewBox="64 0 405 384">
      <g transform="scale(1 -1) translate(0 -384)">
        <path d="M405 299H469L384 384L299 299H363V0H405ZM107 299Q107 281 119.5 268.5Q132 256 149.5 256.0Q167 256 179.5 268.5Q192 281 192.0 298.5Q192 316 179.5 328.5Q167 341 149.5 341.0Q132 341 119.5 328.5Q107 316 107 299ZM149 384Q185 384 210.0 359.0Q235 334 235.0 298.5Q235 263 210.0 238.0Q185 213 149.5 213.0Q114 213 89.0 238.0Q64 263 64.0 298.5Q64 334 89.0 359.0Q114 384 149 384ZM149 171Q114 171 89.0 146.0Q64 121 64.0 85.5Q64 50 89.0 25.0Q114 0 149.5 0.0Q185 0 210.0 25.0Q235 50 235.0 85.5Q235 121 210.0 146.0Q185 171 149 171Z" />
      </g>
    </svg>