<svg xmlns="http://www.w3.org/2000/svg" viewBox="21 0 470 384">
      <g transform="scale(1 -1) translate(0 -384)">
        <path d="M384 299H320L405 384L491 299H427V0H384ZM171 341Q130 341 96.0 321.0Q62 301 41.5 267.0Q21 233 21.0 192.0Q21 151 41.0 117.0Q61 83 95.5 63.0Q130 43 170.5 43.0Q211 43 245.5 63.0Q280 83 300.0 117.0Q320 151 320.0 192.0Q320 233 300.0 267.0Q280 301 245.5 321.0Q211 341 171 341ZM171 295Q199 295 222.5 281.5Q246 268 260.0 244.0Q274 220 274.0 192.0Q274 164 260.0 140.0Q246 116 222.5 102.5Q199 89 171.0 89.0Q143 89 119.0 102.5Q95 116 81.0 140.0Q67 164 67.0 192.0Q67 220 81.0 244.0Q95 268 119.0 281.5Q143 295 171 295ZM149 256V177L217 138L233 166L181 196V256Z" />
      </g>
    </svg>