<svg xmlns="http://www.w3.org/2000/svg" viewBox="64 0 405 384">
      <g transform="scale(1 -1) translate(0 -384)">
        <path d="M405 85H469L384 0L299 85H363V384H405ZM192 171H107Q89 171 76.5 158.5Q64 146 64 128V43Q64 25 76.5 12.5Q89 0 107 0H192Q210 0 222.5 12.5Q235 25 235 43V128Q235 146 222.5 158.5Q210 171 192 171ZM134 32 80 86 103 109 134 77 196 139 219 116ZM192 384H107Q89 384 76.5 371.5Q64 359 64 341V256Q64 238 76.5 225.5Q89 213 107 213H192Q210 213 222.5 225.5Q235 238 235 256V341Q235 359 222.5 371.5Q210 384 192 384ZM192 256H107V341H192Z" />
      </g>
    </svg>