<svg xmlns="http://www.w3.org/2000/svg" viewBox="64 0 405 384">
      <g transform="scale(1 -1) translate(0 -384)">
        <path d="M405 85H469L384 0L299 85H363V384H405ZM149 384Q114 384 89.0 359.0Q64 334 64.0 298.5Q64 263 89.0 238.0Q114 213 149.5 213.0Q185 213 210.0 238.0Q235 263 235.0 298.5Q235 334 210.0 359.0Q185 384 149 384ZM149 256Q132 256 119.5 268.5Q107 281 107.0 298.5Q107 316 119.5 328.5Q132 341 149.5 341.0Q167 341 179.5 328.5Q192 316 192.0 298.5Q192 281 179.5 268.5Q167 256 149 256ZM149 171Q114 171 89.0 146.0Q64 121 64.0 85.5Q64 50 89.0 25.0Q114 0 149.5 0.0Q185 0 210.0 25.0Q235 50 235.0 85.5Q235 121 210.0 146.0Q185 171 149 171Z" />
      </g>
    </svg>