<svg xmlns="http://www.w3.org/2000/svg" viewBox="107 0 362 384">
      <g transform="scale(1 -1) translate(0 -384)">
        <path d="M405 85H469L384 0L299 85H363V384H405ZM192 171H149Q132 171 119.5 158.5Q107 146 107 128V107Q107 89 119.5 76.5Q132 64 149 64H192V43H107V0H192Q210 0 222.5 12.5Q235 25 235 43V128Q235 146 222.5 158.5Q210 171 192 171ZM192 107H149V128H192ZM192 384H149Q132 384 119.5 371.5Q107 359 107 341V256Q107 238 119.5 225.5Q132 213 149 213H192Q210 213 222.5 225.5Q235 238 235 256V341Q235 359 222.5 371.5Q210 384 192 384ZM192 256H149V341H192Z" />
      </g>
    </svg>