<svg xmlns="http://www.w3.org/2000/svg" viewBox="43 107 426 170">
      <g transform="scale(1 -1) translate(0 -384)">
        <path d="M85 277Q68 277 55.5 264.5Q43 252 43 235V149Q43 132 55.5 119.5Q68 107 85 107H427Q444 107 456.5 119.5Q469 132 469 149V235Q469 252 456.5 264.5Q444 277 427 277ZM192 235Q210 235 222.5 222.5Q235 210 235.0 192.0Q235 174 222.5 161.5Q210 149 192.0 149.0Q174 149 161.5 161.5Q149 174 149.0 192.0Q149 210 161.5 222.5Q174 235 192 235ZM320 235Q338 235 350.5 222.5Q363 210 363.0 192.0Q363 174 350.5 161.5Q338 149 320.0 149.0Q302 149 289.5 161.5Q277 174 277.0 192.0Q277 210 289.5 222.5Q302 235 320 235ZM107 213Q115 213 121.5 207.0Q128 201 128.0 192.0Q128 183 121.5 177.0Q115 171 106.5 171.0Q98 171 91.5 177.0Q85 183 85.0 192.0Q85 201 91.5 207.0Q98 213 107 213ZM192 213Q183 213 177.0 207.0Q171 201 171.0 192.0Q171 183 177.0 177.0Q183 171 192.0 171.0Q201 171 207.0 177.0Q213 183 213.0 192.0Q213 201 207.0 207.0Q201 213 192 213ZM320 213Q311 213 305.0 207.0Q299 201 299.0 192.0Q299 183 305.0 177.0Q311 171 320.0 171.0Q329 171 335.0 177.0Q341 183 341.0 192.0Q341 201 335.0 207.0Q329 213 320 213ZM405 213Q414 213 420.5 207.0Q427 201 427.0 192.0Q427 183 420.5 177.0Q414 171 405.5 171.0Q397 171 390.5 177.0Q384 183 384.0 192.0Q384 201 390.5 207.0Q397 213 405 213Z" />
      </g>
    </svg>