<svg xmlns="http://www.w3.org/2000/svg" viewBox="21 85 470 199">
      <g transform="scale(1 -1) translate(0 -369)">
        <path d="M247 259V85H433Q462 87 476.5 103.0Q491 119 491.0 142.5Q491 166 475.0 182.5Q459 199 435 199Q424 199 413 195Q409 232 380.5 258.0Q352 284 313.5 284.0Q275 284 247 259ZM228 237Q217 243 207 245V85H237V249Q233 245 228 237ZM178 249V85H197V248Q192 249 185 249ZM139 235V85H158V244Q148 241 139 235ZM103 181Q102 181 101 182L99 183V85H119V216Q107 201 103 181ZM60 187V87Q66 85 75 85H79V189H75Q67 189 60 187ZM21 137Q21 113 40 98V177Q21 161 21 137Z" />
      </g>
    </svg>