<svg xmlns="http://www.w3.org/2000/svg" viewBox="85 0 363 384">
      <g transform="scale(1 -1) translate(0 -384)">
        <path d="M149 384Q176 384 194.5 365.5Q213 347 213 320Q213 300 201.5 283.5Q190 267 172 260Q179 190 235 156Q272 134 324 129Q331 147 347.5 159.0Q364 171 384 171Q411 171 429.5 152.0Q448 133 448.0 106.5Q448 80 429.5 61.5Q411 43 384 43Q363 43 346.5 55.0Q330 67 323 85Q281 87 250 99Q224 108 204 126Q190 138 171 162V124Q190 118 201.5 101.5Q213 85 213 64Q213 37 194.5 18.5Q176 0 149.5 0.0Q123 0 104.0 18.5Q85 37 85 64Q85 85 97.0 101.5Q109 118 128 124V260Q109 266 97.0 282.5Q85 299 85 320Q85 347 104.0 365.5Q123 384 149 384ZM149 341Q140 341 134.0 335.0Q128 329 128.0 320.0Q128 311 134.0 305.0Q140 299 149.0 299.0Q158 299 164.5 305.0Q171 311 171.0 320.0Q171 329 164.5 335.0Q158 341 149 341ZM149 85Q140 85 134.0 79.0Q128 73 128.0 64.0Q128 55 134.0 49.0Q140 43 149.0 43.0Q158 43 164.5 49.0Q171 55 171.0 64.0Q171 73 164.5 79.0Q158 85 149 85ZM384 128Q375 128 369.0 122.0Q363 116 363.0 107.0Q363 98 369.0 91.5Q375 85 384.0 85.0Q393 85 399.0 91.5Q405 98 405.0 107.0Q405 116 399.0 122.0Q393 128 384 128Z" />
      </g>
    </svg>