<svg xmlns="http://www.w3.org/2000/svg" viewBox="85 -21 342 426">
      <g transform="scale(1 -1) translate(0 -384)">
        <path d="M128 405H384Q402 405 414.5 392.5Q427 380 427 363V21Q427 4 414.5 -8.5Q402 -21 384 -21H128Q110 -21 97.5 -8.5Q85 4 85 21V363Q85 380 97.5 392.5Q110 405 128 405ZM272 160Q311 160 332 185Q346 201 351 226Q365 231 374.5 243.5Q384 256 384 272Q384 292 370.0 306.0Q356 320 336.0 320.0Q316 320 302.0 306.0Q288 292 288 272Q288 257 296.0 245.0Q304 233 318 228Q313 213 301 204Q284 192 256 192Q216 192 192 174V259Q206 264 215.0 276.5Q224 289 224 304Q224 324 210.0 338.0Q196 352 176.0 352.0Q156 352 142.0 338.0Q128 324 128 304Q128 289 137.0 276.5Q146 264 160 259V125Q146 120 137.0 107.5Q128 95 128 80Q128 60 142.0 46.0Q156 32 176.0 32.0Q196 32 210.0 46.0Q224 60 224 80Q224 95 216.0 107.0Q208 119 195 124Q201 139 215 148Q236 160 272 160ZM176 96Q183 96 187.5 91.5Q192 87 192.0 80.0Q192 73 187.5 68.5Q183 64 176.0 64.0Q169 64 164.5 68.5Q160 73 160.0 80.0Q160 87 164.5 91.5Q169 96 176 96ZM176 320Q183 320 187.5 315.5Q192 311 192.0 304.0Q192 297 187.5 292.5Q183 288 176.0 288.0Q169 288 164.5 292.5Q160 297 160.0 304.0Q160 311 164.5 315.5Q169 320 176 320ZM336 288Q343 288 347.5 283.5Q352 279 352.0 272.0Q352 265 347.5 260.5Q343 256 336.0 256.0Q329 256 324.5 260.5Q320 265 320.0 272.0Q320 279 324.5 283.5Q329 288 336 288Z" />
      </g>
    </svg>