<svg xmlns="http://www.w3.org/2000/svg" viewBox="85 -21 342 426">
      <g transform="scale(1 -1) translate(0 -384)">
        <path d="M277 149Q230 149 202 133Q182 121 175 102Q192 94 202.5 78.0Q213 62 213 43Q213 16 194.5 -2.5Q176 -21 149.5 -21.0Q123 -21 104.0 -2.5Q85 16 85 43Q85 63 97.0 79.5Q109 96 128 103V281Q109 288 97.0 304.5Q85 321 85 341Q85 368 104.0 386.5Q123 405 149.5 405.0Q176 405 194.5 386.5Q213 368 213 341Q213 321 201.5 304.5Q190 288 171 281V168Q203 192 256 192Q294 192 316 209Q332 221 338 240Q321 247 310.0 263.0Q299 279 299 299Q299 325 317.5 344.0Q336 363 362.5 363.0Q389 363 408.0 344.0Q427 325 427 299Q427 277 414.5 260.0Q402 243 382 238Q376 204 357 182Q329 149 277 149ZM149 64Q140 64 134.0 58.0Q128 52 128.0 43.0Q128 34 134.0 27.5Q140 21 149.0 21.0Q158 21 164.5 27.5Q171 34 171.0 43.0Q171 52 164.5 58.0Q158 64 149 64ZM149 363Q140 363 134.0 356.5Q128 350 128.0 341.0Q128 332 134.0 326.0Q140 320 149.0 320.0Q158 320 164.5 326.0Q171 332 171.0 341.0Q171 350 164.5 356.5Q158 363 149 363ZM363 320Q354 320 347.5 314.0Q341 308 341.0 299.0Q341 290 347.5 283.5Q354 277 363.0 277.0Q372 277 378.0 283.5Q384 290 384.0 299.0Q384 308 378.0 314.0Q372 320 363 320Z" />
      </g>
    </svg>