<svg xmlns="http://www.w3.org/2000/svg" viewBox="64 -21 384 426">
      <g transform="scale(1 -1) translate(0 -384)">
        <path d="M128 405Q155 405 173.5 386.5Q192 368 192 341Q192 321 180.5 304.5Q169 288 151 281Q154 265 171 243Q181 230 211 197Q245 161 256 146Q267 161 301 197Q331 230 341 243Q358 265 361 281Q343 288 331.5 304.5Q320 321 320 341Q320 368 338.5 386.5Q357 405 384.0 405.0Q411 405 429.5 386.5Q448 368 448 341Q448 320 436.0 303.5Q424 287 404 281Q401 261 384 238Q373 223 339 187Q309 155 299 141Q282 120 279 103Q297 96 308.5 79.5Q320 63 320 43Q320 16 301.5 -2.5Q283 -21 256.0 -21.0Q229 -21 210.5 -2.5Q192 16 192 43Q192 63 203.5 79.5Q215 96 233 103Q230 120 213 141Q203 155 173 187Q139 223 128 238Q111 261 108 281Q88 287 76.0 303.5Q64 320 64 341Q64 368 82.5 386.5Q101 405 128 405ZM128 363Q119 363 113.0 356.5Q107 350 107.0 341.0Q107 332 113.0 326.0Q119 320 128.0 320.0Q137 320 143.0 326.0Q149 332 149.0 341.0Q149 350 143.0 356.5Q137 363 128 363ZM384 363Q375 363 369.0 356.5Q363 350 363.0 341.0Q363 332 369.0 326.0Q375 320 384.0 320.0Q393 320 399.0 326.0Q405 332 405.0 341.0Q405 350 399.0 356.5Q393 363 384 363ZM256 64Q247 64 241.0 58.0Q235 52 235.0 43.0Q235 34 241.0 27.5Q247 21 256.0 21.0Q265 21 271.0 27.5Q277 34 277.0 43.0Q277 52 271.0 58.0Q265 64 256 64Z" />
      </g>
    </svg>