<svg xmlns="http://www.w3.org/2000/svg" viewBox="149 0 214 299">
      <g transform="scale(1 -1) translate(0 -299)">
        <path d="M256 299Q285 299 309.5 284.5Q334 270 348.5 245.5Q363 221 363 192Q363 154 338.5 124.5Q314 95 277 87V0H235V87Q198 95 173.5 124.5Q149 154 149 192Q149 221 163.5 245.5Q178 270 202.5 284.5Q227 299 256 299ZM256 256Q229 256 210.5 237.5Q192 219 192.0 192.0Q192 165 210.5 146.5Q229 128 256.0 128.0Q283 128 301.5 146.5Q320 165 320.0 192.0Q320 219 301.5 237.5Q283 256 256 256Z" />
      </g>
    </svg>