<svg xmlns="http://www.w3.org/2000/svg" viewBox="64 0 384 411">
      <g transform="scale(1 -1) translate(0 -411)">
        <path d="M128 384Q155 384 173.5 365.5Q192 347 192 320Q192 299 180.0 282.5Q168 266 149 260V124Q168 118 180.0 101.5Q192 85 192 64Q192 37 173.5 18.5Q155 0 128.0 0.0Q101 0 82.5 18.5Q64 37 64 64Q64 85 76.0 101.5Q88 118 107 124V260Q88 266 76.0 282.5Q64 299 64 320Q64 347 82.5 365.5Q101 384 128 384ZM128 341Q119 341 113.0 335.0Q107 329 107.0 320.0Q107 311 113.0 305.0Q119 299 128.0 299.0Q137 299 143.0 305.0Q149 311 149.0 320.0Q149 329 143.0 335.0Q137 341 128 341ZM128 85Q119 85 113.0 79.0Q107 73 107.0 64.0Q107 55 113.0 49.0Q119 43 128.0 43.0Q137 43 143.0 49.0Q149 55 149.0 64.0Q149 73 143.0 79.0Q137 85 128 85ZM448 64Q448 37 429.5 18.5Q411 0 384.0 0.0Q357 0 338.5 18.5Q320 37 320 64Q320 85 332.0 101.5Q344 118 363 124V299H320V229L229 320L320 411V341H363Q380 341 392.5 328.5Q405 316 405 299V124Q424 118 436.0 101.5Q448 85 448 64ZM384 85Q375 85 369.0 79.0Q363 73 363.0 64.0Q363 55 369.0 49.0Q375 43 384.0 43.0Q393 43 399.0 49.0Q405 55 405.0 64.0Q405 73 399.0 79.0Q393 85 384 85Z" />
      </g>
    </svg>