<svg xmlns="http://www.w3.org/2000/svg" viewBox="85 -64 384 469">
      <g transform="scale(1 -1) translate(0 -341)">
        <path d="M277 149Q230 149 202 133Q182 121 175 102Q192 94 202.5 78.0Q213 62 213 43Q213 16 194.5 -2.5Q176 -21 149.5 -21.0Q123 -21 104.0 -2.5Q85 16 85 43Q85 63 97.0 79.5Q109 96 128 103V281Q109 288 97.0 304.5Q85 321 85 341Q85 368 104.0 386.5Q123 405 149.5 405.0Q176 405 194.5 386.5Q213 368 213 341Q213 321 201.5 304.5Q190 288 171 281V168Q203 192 256 192Q294 192 316 209Q332 221 338 240Q321 247 310.0 263.0Q299 279 299 299Q299 325 317.5 344.0Q336 363 362.5 363.0Q389 363 408.0 344.0Q427 325 427 299Q427 277 414.5 260.0Q402 243 382 238Q376 204 357 182Q329 149 277 149ZM149 64Q141 64 134.5 57.5Q128 51 128.0 42.5Q128 34 134.5 27.5Q141 21 149.5 21.0Q158 21 164.5 27.5Q171 34 171.0 42.5Q171 51 164.5 57.5Q158 64 149 64ZM149 363Q141 363 134.5 356.5Q128 350 128.0 341.5Q128 333 134.5 326.5Q141 320 149.5 320.0Q158 320 164.5 326.5Q171 333 171.0 341.5Q171 350 164.5 356.5Q158 363 149 363ZM363 320Q354 320 347.5 313.5Q341 307 341.0 298.5Q341 290 347.5 283.5Q354 277 362.5 277.0Q371 277 377.5 283.5Q384 290 384.0 298.5Q384 307 377.5 313.5Q371 320 363 320ZM384 171V139Q419 139 444.0 114.0Q469 89 469 53Q469 28 455 6L432 29Q437 41 437 53Q437 75 421.5 91.0Q406 107 384 107V75L336 123Q340 127 384 171ZM384 -64V-32Q349 -32 324.0 -7.0Q299 18 299 53Q299 79 313 100L336 77Q331 66 331 53Q331 31 346.5 15.5Q362 0 384 0V32L432 -17Q428 -21 384 -64Z" />
      </g>
    </svg>