<svg xmlns="http://www.w3.org/2000/svg" viewBox="128 -19 256 424">
      <g transform="scale(1 -1) translate(0 -386)">
        <path d="M297 288Q297 301 302 318L303 320H316L335 373H352V405H160V373H177L196 320H209Q215 310 215 288Q215 281 208 266Q203 256 189 231Q161 182 149 155Q128 107 128 73V30Q128 8 165.0 -5.5Q202 -19 256.0 -19.0Q310 -19 347.0 -5.5Q384 8 384 30V73Q384 107 363 155Q351 182 323 231Q309 256 304 266Q297 281 297 288ZM256 128Q238 128 225.5 140.5Q213 153 213.0 170.5Q213 188 225.5 200.5Q238 213 256.0 213.0Q274 213 286.5 200.5Q299 188 299.0 170.5Q299 153 286.5 140.5Q274 128 256 128Z" />
      </g>
    </svg>