<svg xmlns="http://www.w3.org/2000/svg" viewBox="23 -38 448 450">
      <g transform="scale(1 -1) translate(0 -374)">
        <path d="M471 -11 51 412 23 384 183 224 179 216Q155 170 145 145Q128 103 128 73V30Q128 8 165.0 -5.5Q202 -19 256 -19Q306 -19 342.5 -7.0Q379 5 384 23L446 -38ZM256 128Q238 128 225.5 140.5Q213 153 213 171Q213 177 218 190L275 132Q262 128 256 128ZM177 373H160V405H352V373H335L316 320H303L302 318Q297 301 297 288Q297 281 304 267Q308 258 322 234Q352 182 365 151L215 301Q212 314 209 320H196Z" />
      </g>
    </svg>