<svg xmlns="http://www.w3.org/2000/svg" viewBox="43 -21 426 426">
      <g transform="scale(1 -1) translate(0 -384)">
        <path d="M331 243Q289 220 256 186Q223 220 181 243Q185 288 204.5 330.0Q224 372 257 405Q291 372 309.5 330.0Q328 288 331 243ZM256 118Q291 172 347.5 203.5Q404 235 469 235Q469 139 417 74Q379 26 318 -1Q284 -16 256 -21Q229 -17 194 -1Q133 26 95 74Q43 139 43 235Q108 235 164.5 203.5Q221 172 256 118ZM257 337Q236 304 228 265L256 244L285 265Q277 304 257 337ZM256 22Q263 24 270 25Q287 30 303 38Q327 50 347 66Q372 87 390 114Q411 146 421 187Q367 170 324 132Q293 105 272 70Q261 53 256 41L244 61Q229 86 211 108Q186 138 159 157Q126 181 91 186Q107 123 150 80Q181 49 221 33Q242 24 256 22Z" />
      </g>
    </svg>