<svg xmlns="http://www.w3.org/2000/svg" viewBox="43 -21 426 405">
      <g transform="scale(1 -1) translate(0 -363)">
        <path d="M331 43V0H293Q287 -10 277.5 -15.5Q268 -21 256.0 -21.0Q244 -21 234.5 -15.5Q225 -10 219 0H181V43H219Q225 53 235 58V85H213Q205 85 198.5 91.5Q192 98 192 107V171H128V85Q128 77 121.5 70.5Q115 64 107 64H64Q55 64 49.0 70.5Q43 77 43 85V277Q43 286 49.0 292.5Q55 299 64 299H107Q115 299 121.5 292.5Q128 286 128 277V213H192V277Q192 286 198.5 292.5Q205 299 213 299H235V320H213Q205 320 198.5 326.5Q192 333 192 341V363Q192 371 198.5 377.5Q205 384 213 384H299Q307 384 313.5 377.5Q320 371 320 363V341Q320 333 313.5 326.5Q307 320 299 320H277V299H299Q307 299 313.5 292.5Q320 286 320 277V213H384V277Q384 286 390.5 292.5Q397 299 405 299H448Q457 299 463.0 292.5Q469 286 469 277V85Q469 77 463.0 70.5Q457 64 448 64H405Q397 64 390.5 70.5Q384 77 384 85V171H320V107Q320 98 313.5 91.5Q307 85 299 85H277V58Q287 53 293 43ZM64 107V85H107V107ZM64 149V128H107V149ZM64 192V171H107V192ZM64 235V213H107V235ZM64 277V256H107V277ZM405 107V85H448V107ZM405 149V128H448V149ZM405 192V171H448V192ZM405 235V213H448V235ZM405 277V256H448V277Z" />
      </g>
    </svg>