<svg xmlns="http://www.w3.org/2000/svg" viewBox="43 0 434 384">
      <g transform="scale(1 -1) translate(0 -384)">
        <path d="M85 384Q68 384 55.5 371.5Q43 359 43 341V43Q43 25 55.5 12.5Q68 0 85 0H256Q274 0 286.5 12.5Q299 25 299 43V341Q299 359 286.5 371.5Q274 384 256 384ZM171 341Q188 341 200.5 328.5Q213 316 213.0 298.5Q213 281 200.5 268.5Q188 256 170.5 256.0Q153 256 140.5 268.5Q128 281 128.0 298.5Q128 316 140.5 328.5Q153 341 171 341ZM405 299V218L356 267L341 252L401 192L341 132L356 117L405 166V85H416L477 146L431 192L477 238L416 299ZM427 258 447 238 427 218ZM171 213Q206 213 231.0 188.0Q256 163 256.0 128.0Q256 93 231.0 68.0Q206 43 170.5 43.0Q135 43 110.0 68.0Q85 93 85.0 128.0Q85 163 110.0 188.0Q135 213 171 213ZM171 171Q153 171 140.5 158.5Q128 146 128.0 128.0Q128 110 140.5 97.5Q153 85 170.5 85.0Q188 85 200.5 97.5Q213 110 213.0 128.0Q213 146 200.5 158.5Q188 171 171 171ZM427 166 447 146 427 126Z" />
      </g>
    </svg>