<svg xmlns="http://www.w3.org/2000/svg" viewBox="64 -64 384 512">
      <g transform="scale(1 -1) translate(0 -384)">
        <path d="M299 235Q272 235 253.5 216.0Q235 197 235.0 170.5Q235 144 253.5 125.5Q272 107 298.5 107.0Q325 107 344.0 125.5Q363 144 363.0 170.5Q363 197 344.0 216.0Q325 235 299 235ZM299 64Q270 64 245.5 78.5Q221 93 206.5 117.5Q192 142 192.0 171.0Q192 200 206.5 224.5Q221 249 245.5 263.0Q270 277 299.0 277.0Q328 277 352.5 263.0Q377 249 391.0 224.5Q405 200 405.0 171.0Q405 142 391.0 117.5Q377 93 352.5 78.5Q328 64 299 64ZM299 405Q316 405 328.5 392.5Q341 380 341.0 362.5Q341 345 328.5 332.5Q316 320 298.5 320.0Q281 320 268.5 332.5Q256 345 256.0 362.5Q256 380 268.5 392.5Q281 405 299 405ZM405 448H192Q174 448 161.5 435.5Q149 423 149 405V64Q149 46 161.5 33.5Q174 21 192 21H405Q423 21 435.5 33.5Q448 46 448 64V405Q448 423 435.5 435.5Q423 448 405 448ZM107 -21H363V-64H107Q89 -64 76.5 -51.5Q64 -39 64 -21V363H107Z" />
      </g>
    </svg>