<svg xmlns="http://www.w3.org/2000/svg" viewBox="43 -43 405 448">
      <g transform="scale(1 -1) translate(0 -362)">
        <path d="M43 336 70 363 448 -15 421 -43 390 -12Q378 -21 363 -21H149Q132 -21 119.5 -8.5Q107 4 107 21V272ZM256 64Q229 64 210.5 82.5Q192 101 192 128Q192 152 208 171L178 201Q149 170 149 128Q149 99 163.5 74.5Q178 50 202.5 35.5Q227 21 256 21Q298 21 329 50L299 80Q280 64 256 64ZM363 128Q363 157 348.5 181.5Q334 206 309.5 220.5Q285 235 256 235H252L109 378Q114 390 125.0 397.5Q136 405 149 405H363Q380 405 392.5 392.5Q405 380 405 363V81L363 124ZM256 363Q238 363 225.5 350.5Q213 338 213.0 320.0Q213 302 225.5 289.5Q238 277 256.0 277.0Q274 277 286.5 289.5Q299 302 299.0 320.0Q299 338 286.5 350.5Q274 363 256 363Z" />
      </g>
    </svg>