<svg xmlns="http://www.w3.org/2000/svg" viewBox="21 0 470 384">
      <g transform="scale(1 -1) translate(0 -384)">
        <path d="M352 384H459Q471 384 481.0 374.5Q491 365 491 352V288Q491 275 481.0 265.5Q471 256 459 256H384L320 192V352Q320 365 329.5 374.5Q339 384 352 384ZM64 384Q46 384 33.5 371.5Q21 359 21 341V43Q21 25 33.5 12.5Q46 0 64 0H235Q252 0 264.5 12.5Q277 25 277 43V341Q277 359 264.5 371.5Q252 384 235 384ZM149 341Q167 341 179.5 328.5Q192 316 192.0 298.5Q192 281 179.5 268.5Q167 256 149.5 256.0Q132 256 119.5 268.5Q107 281 107.0 298.5Q107 316 119.5 328.5Q132 341 149 341ZM149 213Q185 213 210.0 188.0Q235 163 235.0 128.0Q235 93 210.0 68.0Q185 43 149.5 43.0Q114 43 89.0 68.0Q64 93 64.0 128.0Q64 163 89.0 188.0Q114 213 149 213ZM149 171Q132 171 119.5 158.5Q107 146 107.0 128.0Q107 110 119.5 97.5Q132 85 149.5 85.0Q167 85 179.5 97.5Q192 110 192.0 128.0Q192 146 179.5 158.5Q167 171 149 171Z" />
      </g>
    </svg>