<svg xmlns="http://www.w3.org/2000/svg" viewBox="107 -21 298 426">
      <g transform="scale(1 -1) translate(0 -384)">
        <path d="M256 192Q229 192 210.5 173.5Q192 155 192.0 128.0Q192 101 210.5 82.5Q229 64 256.0 64.0Q283 64 301.5 82.5Q320 101 320.0 128.0Q320 155 301.5 173.5Q283 192 256 192ZM256 21Q227 21 202.5 35.5Q178 50 163.5 74.5Q149 99 149 128Q149 149 157.5 168.5Q166 188 181.0 203.0Q196 218 215.5 226.5Q235 235 256 235Q285 235 309.5 220.5Q334 206 348.5 181.5Q363 157 363.0 128.0Q363 99 348.5 74.5Q334 50 309.5 35.5Q285 21 256 21ZM256 363Q274 363 286.5 350.5Q299 338 299.0 320.0Q299 302 286.5 289.5Q274 277 256.0 277.0Q238 277 225.5 289.5Q213 302 213.0 320.0Q213 338 225.5 350.5Q238 363 256 363ZM363 405H149Q132 405 119.5 392.5Q107 380 107 363V21Q107 4 119.5 -8.5Q132 -21 149 -21H363Q380 -21 392.5 -8.5Q405 4 405 21V363Q405 380 392.5 392.5Q380 405 363 405Z" />
      </g>
    </svg>