<svg xmlns="http://www.w3.org/2000/svg" viewBox="85 -21 363 426">
      <g transform="scale(1 -1) translate(0 -384)">
        <path d="M262 25Q247 21 235 21Q206 21 181.5 35.5Q157 50 142.5 74.5Q128 99 128.0 128.0Q128 157 142.5 181.5Q157 206 181.5 220.5Q206 235 235.0 235.0Q264 235 289.0 219.5Q314 204 328 179Q355 192 384 192V363Q384 380 371.5 392.5Q359 405 341 405H128Q110 405 97.5 392.5Q85 380 85 363V21Q85 4 97.5 -8.5Q110 -21 128 -21H289Q270 1 262 25ZM235 363Q252 363 264.5 350.5Q277 338 277.0 320.0Q277 302 264.5 289.5Q252 277 234.5 277.0Q217 277 204.5 289.5Q192 302 192.0 320.0Q192 338 204.5 350.5Q217 363 235 363ZM293 154Q276 137 266.5 115.0Q257 93 256 68Q246 64 235 64Q208 64 189.5 82.5Q171 101 171.0 128.0Q171 155 189.5 173.5Q208 192 235 192Q254 192 269.5 181.5Q285 171 293 154ZM448 128H320V0H448Z" />
      </g>
    </svg>