<svg xmlns="http://www.w3.org/2000/svg" viewBox="43 14 426 370">
      <g transform="scale(1 -1) translate(0 -398)">
        <path d="M256 107Q229 107 210.5 125.5Q192 144 192 171Q192 188 200.5 203.0Q209 218 224 226L431 346L313 142Q305 126 289.5 116.5Q274 107 256 107ZM256 384Q312 384 362 356L317 330Q288 341 256 341Q210 341 170.5 318.0Q131 295 108.0 256.0Q85 217 85 171Q85 136 98.5 105.0Q112 74 135 50Q142 44 142.0 35.0Q142 26 135.5 20.0Q129 14 120.0 14.0Q111 14 105 20Q76 49 59.5 88.0Q43 127 43.0 170.0Q43 213 59.0 252.5Q75 292 105.0 322.0Q135 352 174.5 368.0Q214 384 256 384ZM469 171Q469 127 452.5 88.0Q436 49 407 20Q401 14 392.0 14.0Q383 14 377.0 20.0Q371 26 371.0 35.0Q371 44 377 50Q400 74 413.5 105.0Q427 136 427 171Q427 203 415 233L441 277Q469 226 469 171Z" />
      </g>
    </svg>