<svg xmlns="http://www.w3.org/2000/svg" viewBox="43 -21 426 426">
      <g transform="scale(1 -1) translate(0 -384)">
        <path d="M256 405Q198 405 149.0 376.5Q100 348 71.5 299.0Q43 250 43.0 192.0Q43 134 71.5 85.0Q100 36 149.0 7.5Q198 -21 256.0 -21.0Q314 -21 363.0 7.5Q412 36 440.5 85.0Q469 134 469.0 192.0Q469 250 440.5 299.0Q412 348 363.0 376.5Q314 405 256 405ZM256 149Q210 149 170.5 155.0Q131 161 108.0 170.5Q85 180 85.0 192.0Q85 204 108.0 213.5Q131 223 170.5 229.0Q210 235 256.0 235.0Q302 235 341.5 229.0Q381 223 404.0 213.5Q427 204 427.0 192.0Q427 180 404.0 170.5Q381 161 341.5 155.0Q302 149 256 149ZM256 363Q309 363 352.0 333.0Q395 303 415 255Q360 277 257.0 277.0Q154 277 97 255Q117 303 160.0 333.0Q203 363 256 363ZM256 21Q203 21 160.0 51.0Q117 81 97 129Q152 107 255.0 107.0Q358 107 415 129Q395 81 352.0 51.0Q309 21 256 21Z" />
      </g>
    </svg>