<svg xmlns="http://www.w3.org/2000/svg" viewBox="24 -37 448 448">
      <g transform="scale(1 -1) translate(0 -374)">
        <path d="M51 411 24 384 87 321Q43 264 43 192Q43 134 71.5 85.0Q100 36 149.0 7.5Q198 -21 256 -21Q328 -21 385 23L445 -37L472 -10ZM117 290 140 267Q114 262 97 255Q105 273 117 290ZM85 192Q85 204 110.5 214.0Q136 224 178 230L258 149H256Q210 149 170.5 155.0Q131 161 108.0 170.5Q85 180 85 192ZM256 21Q203 21 160.0 51.0Q117 81 97 129Q152 107 256 107Q284 107 300 108L355 53Q311 21 256 21ZM175 341 143 373Q195 405 256 405Q314 405 363.0 376.5Q412 348 440.5 299.0Q469 250 469 192Q469 131 437 79L405 111Q410 118 415 129Q406 125 394 122L358 158Q390 164 408.5 173.0Q427 182 427 192Q427 208 385.5 220.0Q344 232 282 234L239 277H256Q360 277 415 255Q395 303 352.0 333.0Q309 363 256 363Q212 363 175 341Z" />
      </g>
    </svg>