<svg xmlns="http://www.w3.org/2000/svg" viewBox="31 -21 450 426">
      <g transform="scale(1 -1) translate(0 -384)">
        <path d="M277 405V297Q267 299 256.0 299.0Q245 299 235 297V405ZM361 128Q359 122 357 116L427 76V-21H384V52L336 79Q321 62 300.0 52.5Q279 43 256.0 43.0Q233 43 212.0 52.5Q191 62 176 79L128 52V-21H85V76L155 116Q153 122 151 128H113L54 89L31 124L100 171H151Q153 180 157 189L124 211L48 192L38 235L132 258L181 225Q202 245 229.0 252.0Q256 259 283.0 252.0Q310 245 331 225L379 258L474 235L464 192L388 211L355 190Q359 180 361 171H412L481 125L458 89L399 128ZM235 149Q235 158 228.5 164.5Q222 171 213.0 171.0Q204 171 198.0 164.5Q192 158 192.0 149.0Q192 140 198.0 134.0Q204 128 213.0 128.0Q222 128 228.5 134.0Q235 140 235 149ZM320 149Q320 158 314.0 164.5Q308 171 299.0 171.0Q290 171 283.5 164.5Q277 158 277.0 149.0Q277 140 283.5 134.0Q290 128 299.0 128.0Q308 128 314.0 134.0Q320 140 320 149Z" />
      </g>
    </svg>