<svg xmlns="http://www.w3.org/2000/svg" viewBox="28 -21 456 431">
      <g transform="scale(1 -1) translate(0 -389)">
        <path d="M454 92 484 122 416 190 352 208 393 213 482 282 457 316 375 255 318 245 386 313 363 410 320 400 338 327 315 302Q307 320 291.0 330.5Q275 341 256.0 341.0Q237 341 221.0 330.5Q205 320 197 302L173 327L192 400L149 410L126 313L194 245L137 255L55 316L30 282L119 213L159 207L95 189L28 122L58 92L117 152L168 166L85 95V-21H128V76L161 104Q167 69 194.0 46.5Q221 24 256.0 24.0Q291 24 318.0 46.5Q345 69 351 104L384 76V-21H427V95L344 166L395 152Z" />
      </g>
    </svg>