<svg xmlns="http://www.w3.org/2000/svg" viewBox="27 -26 458 437">
      <g transform="scale(1 -1) translate(0 -385)">
        <path d="M291 165 326 116Q327 135 332.0 151.5Q337 168 348 183ZM379 43Q378 87 393.0 131.5Q408 176 434 211L391 197Q364 180 352.5 145.0Q341 110 352 81ZM411 0Q395 -15 376 -26L369 -16Q319 11 256.0 11.0Q193 11 143 -16L136 -26Q117 -15 101 0L107 7Q118 62 97.5 124.5Q77 187 36 225L27 228Q32 250 40 269L49 266Q104 272 157.5 310.5Q211 349 235 400V410L256 411L277 410V401Q300 349 353.5 310.5Q407 272 462 265L472 269Q480 250 485 228L474 224Q433 187 413.0 125.0Q393 63 404 9ZM235 205V267Q223 252 209 242Q192 230 176 224ZM235 358Q210 321 171.5 293.0Q133 265 89 253L131 239Q147 238 164.0 243.0Q181 248 196 259Q226 281 235 312ZM277 205 336 224Q319 231 304.0 241.5Q289 252 277 267ZM422 253Q380 265 341.5 293.0Q303 321 277 358V314Q285 281 315.5 259.0Q346 237 379 239ZM221 165 163 184Q173 169 179.0 151.0Q185 133 185 115ZM76 212Q103 177 118.0 131.5Q133 86 132 41L157 77Q170 108 158.5 144.0Q147 180 120 198ZM256 140 221 91Q238 96 256.0 96.0Q274 96 291 91ZM167 17Q209 32 256.0 32.0Q303 32 345 17L317 55Q293 75 256.0 75.0Q219 75 195 55Z" />
      </g>
    </svg>