<svg xmlns="http://www.w3.org/2000/svg" viewBox="43 0 426 384">
      <g transform="scale(1 -1) translate(0 -384)">
        <path d="M43 320 151 266Q128 234 128.0 192.0Q128 150 151 118L43 64ZM128 384H384L330 297Q298 320 256.0 320.0Q214 320 182 297ZM469 320V64L361 118Q384 150 384.0 192.0Q384 234 361 266ZM384 0H128L182 87Q214 64 256.0 64.0Q298 64 330 87ZM256 277Q291 277 316.0 252.0Q341 227 341.0 192.0Q341 157 316.0 132.0Q291 107 256.0 107.0Q221 107 196.0 132.0Q171 157 171.0 192.0Q171 227 196.0 252.0Q221 277 256 277ZM256 235Q238 235 225.5 222.5Q213 210 213.0 192.0Q213 174 225.5 161.5Q238 149 256.0 149.0Q274 149 286.5 161.5Q299 174 299.0 192.0Q299 210 286.5 222.5Q274 235 256 235Z" />
      </g>
    </svg>