<svg xmlns="http://www.w3.org/2000/svg" viewBox="43 -21 426 426">
      <g transform="scale(1 -1) translate(0 -384)">
        <path d="M382 215Q333 244 257 251Q186 256 134 240Q127 238 119.5 241.5Q112 245 110.0 253.0Q108 261 111.5 268.0Q115 275 123 277Q183 295 261 289Q346 282 402 249Q409 245 411.5 236.5Q414 228 409.5 221.5Q405 215 397.0 213.5Q389 212 382 215ZM380 156Q376 150 369.5 148.5Q363 147 357 150Q314 177 254.5 184.0Q195 191 145 175Q138 173 132.0 176.0Q126 179 124.5 185.5Q123 192 126.0 198.0Q129 204 135 206Q194 223 260.0 215.5Q326 208 375 177Q380 175 382.0 168.0Q384 161 380 156ZM354 97Q351 92 346.0 91.0Q341 90 336 93Q261 139 148 113Q143 112 138.5 115.0Q134 118 132.5 123.0Q131 128 134.0 132.5Q137 137 142 139Q266 166 349 115Q354 113 355.5 107.5Q357 102 354 97ZM256 405Q214 405 174.5 389.0Q135 373 105.0 343.0Q75 313 59.0 273.5Q43 234 43.0 192.0Q43 150 59.0 110.5Q75 71 105.0 41.0Q135 11 174.5 -5.0Q214 -21 256.0 -21.0Q298 -21 337.5 -5.0Q377 11 407.0 41.0Q437 71 453.0 110.5Q469 150 469.0 192.0Q469 234 453.0 273.5Q437 313 407.0 343.0Q377 373 337.5 389.0Q298 405 256 405Z" />
      </g>
    </svg>