<svg xmlns="http://www.w3.org/2000/svg" viewBox="149 -21 235 426">
      <g transform="scale(1 -1) translate(0 -384)">
        <path d="M357 225Q329 253 317 305Q309 336 309 363H277V320H192V363H149Q149 380 161.5 392.5Q174 405 192 405H341V384Q341 360 346 329Q356 271 379 248ZM363 405V363H384V405ZM320 192Q301 211 290 239Q282 258 279 280L277 299H192V256Q192 240 189.5 234.5Q187 229 171 213Q161 204 156 193Q152 185 150 177L149 171V21Q149 4 161.5 -8.5Q174 -21 192 -21H277Q295 -21 307.5 -8.5Q320 4 320 21Z" />
      </g>
    </svg>