<svg xmlns="http://www.w3.org/2000/svg" viewBox="41 -21 450 426">
      <g transform="scale(1 -1) translate(0 -384)">
        <path d="M491 361V399L449 404Q432 405 416 405Q351 405 303.5 387.0Q256 369 228 335Q183 363 117 363Q104 363 91 362L81 361L41 354L43 318Q44 279 57 241Q72 194 101 166Q137 132 188 132H192V60Q141 53 87 37Q60 28 43 21V-21H469V21L449 29Q422 38 395 45Q356 55 320 60V128Q382 129 424 172Q458 207 476 266Q491 313 491 361ZM256 64Q245 64 235 64V183L233 195Q230 208 225 220Q218 236 206 245Q191 256 171 256L176 252Q182 247 188 240Q196 229 201 216Q208 198 211 177Q203 175 188 175Q154 175 130 197Q111 215 100 246Q91 269 88 296L85 318L94 319Q105 320 117 320Q159 320 188 309Q230 292 243 254Q250 317 314 344Q356 363 416 363Q435 363 448 361L447 341Q445 316 439 293Q432 261 419 236Q403 205 379 189Q351 169 314 169H299Q299 195 320 238Q331 259 341 275Q301 262 285 215Q277 191 277 171V64Z" />
      </g>
    </svg>