<svg xmlns="http://www.w3.org/2000/svg" viewBox="43 -21 426 385">
      <g transform="scale(1 -1) translate(0 -343)">
        <path d="M43 -21V21L74 32Q114 45 153 53Q209 64 256.0 64.0Q303 64 359 53Q398 45 438 32L469 21V-21ZM241 254Q232 282 206 299Q185 312 154 317Q131 321 106 320L85 318L87 301Q89 280 95 261Q102 234 114 216Q130 192 151 182Q177 170 211 177Q206 216 188 240Q179 252 171 256Q191 256 206 245Q218 236 225 220Q230 208 233 195L235 183V85H277V175L278 188Q280 205 285 219Q292 240 304 254Q319 272 341 279L330 261Q318 239 310 219Q299 192 299 173Q340 169 372 187Q398 202 416 233Q430 258 438 292Q444 316 447 341L448 363L428 364Q404 364 380 362Q347 358 321 348Q289 336 269 315Q246 290 241 254Z" />
      </g>
    </svg>