<svg xmlns="http://www.w3.org/2000/svg" viewBox="64 0 384 384">
      <g transform="scale(1 -1) translate(0 -384)">
        <path d="M171 384H341Q370 384 394.5 369.5Q419 355 433.5 330.5Q448 306 448 277V107Q448 78 433.5 53.5Q419 29 394.5 14.5Q370 0 341 0H171Q142 0 117.5 14.5Q93 29 78.5 53.5Q64 78 64 107V277Q64 306 78.5 330.5Q93 355 117.5 369.5Q142 384 171 384ZM171 341Q144 341 125.5 322.5Q107 304 107 277V107Q107 80 125.5 61.5Q144 43 171 43H341Q368 43 386.5 61.5Q405 80 405 107V277Q405 304 386.5 322.5Q368 341 341 341Z" />
      </g>
    </svg>