<svg xmlns="http://www.w3.org/2000/svg" viewBox="64 0 384 384">
      <g transform="scale(1 -1) translate(0 -384)">
        <path d="M405 171V213H448V171ZM448 256V299H405V256ZM448 384H405V341H448ZM363 128H405V171H363ZM448 85V128H405V85ZM277 85V128H320V171H277V213H320V256H277V299H320V341H277V384H64V0H277V43H320V85ZM320 0H363V43H320ZM363 384H320V341H363ZM363 213H405V256H363ZM320 85H363V128H320ZM363 43H405V85H363ZM448 0V43H405V0ZM320 256H363V299H320ZM320 171H363V213H320ZM363 341V299H405V341Z" />
      </g>
    </svg>