<svg xmlns="http://www.w3.org/2000/svg" viewBox="75 128 362 128">
      <g transform="scale(1 -1) translate(0 -384)">
        <path d="M96 256Q87 256 81.0 249.5Q75 243 75 235V197Q75 189 81.0 182.5Q87 176 96 176H149V160H75V128H160Q169 128 175.0 134.5Q181 141 181 149V187Q181 195 175.0 201.5Q169 208 160 208H107V224H181V256ZM224 256Q215 256 209.0 249.5Q203 243 203 235V197Q203 189 209.0 182.5Q215 176 224 176H277V160H203V128H288Q297 128 303.0 134.5Q309 141 309 149V187Q309 195 303.0 201.5Q297 208 288 208H235V224H309V256ZM331 256V128H363V181H405V128H437V256H405V213H363V256Z" />
      </g>
    </svg>