<svg xmlns="http://www.w3.org/2000/svg" viewBox="36 107 440 170">
      <g transform="scale(1 -1) translate(0 -384)">
        <path d="M105 277Q77 277 59.0 264.5Q41 252 41.0 230.5Q41 209 56.5 197.5Q72 186 102 177Q117 172 123.0 167.0Q129 162 129.0 153.5Q129 145 123.5 140.5Q118 136 105 136Q90 136 82.5 142.0Q75 148 75 162H37H36Q36 135 56.5 121.0Q77 107 104.5 107.0Q132 107 150.0 119.5Q168 132 168.0 153.5Q168 175 153.0 187.5Q138 200 111 208Q93 214 86.0 218.5Q79 223 79.0 230.5Q79 238 85.5 243.0Q92 248 104.0 248.0Q116 248 123.0 242.0Q130 236 129 226H166L167 227Q167 249 149.5 263.0Q132 277 105 277ZM192 276V108H231V166H255Q285 166 302.5 181.0Q320 196 320.0 221.0Q320 246 302.5 261.0Q285 276 255 276ZM368 276 309 108H346L405 276ZM437 276 380 108H416L476 276ZM231 246H255Q268 246 274.5 239.5Q281 233 281.0 221.5Q281 210 274.5 203.0Q268 196 255 196H231Z" />
      </g>
    </svg>