<svg xmlns="http://www.w3.org/2000/svg" viewBox="43 -21 426 426">
      <g transform="scale(1 -1) translate(0 -384)">
        <path d="M149 341 64 299V384ZM384 384V299L469 341ZM235 405V320L320 363ZM277 64H235V-21Q181 -20 137.0 -11.5Q93 -3 68.0 11.5Q43 26 43 43V235Q43 252 71.5 267.0Q100 282 149.0 290.5Q198 299 256.0 299.0Q314 299 363.0 290.5Q412 282 440.5 267.0Q469 252 469 235V43Q469 26 443.5 11.5Q418 -3 374.0 -11.5Q330 -20 277 -21ZM107 235Q132 226 167 220Q209 213 256.0 213.0Q303 213 345 220Q380 226 405 235Q405 237 387 242Q365 248 335 251Q297 256 256.5 256.0Q216 256 177 251Q148 247 125 241Q107 236 107 235ZM427 196Q397 185 353 178Q307 171 256.0 171.0Q205 171 159 178Q115 185 85 196V51Q96 44 123 37Q154 28 192 23V107H320V23Q358 28 389 37Q416 44 427 51Z" />
      </g>
    </svg>