<svg xmlns="http://www.w3.org/2000/svg" viewBox="43 0 426 384">
      <g transform="scale(1 -1) translate(0 -384)">
        <path d="M107 384H149L213 341L149 299V270Q199 277 256.0 277.0Q313 277 363 270V384H405L469 341L405 299V262Q436 255 452.5 245.0Q469 235 469 224Q469 210 440.5 197.5Q412 185 363.0 178.0Q314 171 256.0 171.0Q198 171 149.0 178.0Q100 185 71.5 197.5Q43 210 43 224Q43 235 59.5 245.0Q76 255 107 262ZM256 245Q199 245 176 241Q149 237 149.0 224.0Q149 211 176 207Q199 203 256.0 203.0Q313 203 336 207Q363 211 363.0 224.0Q363 237 336 241Q313 245 256 245ZM256 133Q316 133 368.5 143.0Q421 153 457 170L427 0H320V43Q320 60 307.5 72.5Q295 85 277 85H235Q217 85 204.5 72.5Q192 60 192 43V0H85L55 170Q91 153 143.5 143.0Q196 133 256 133Z" />
      </g>
    </svg>