<svg xmlns="http://www.w3.org/2000/svg" viewBox="43 -19 426 424">
      <g transform="scale(1 -1) translate(0 -386)">
        <path d="M149 341 64 299V384ZM384 384V299L469 341ZM235 405V320L320 363ZM107 235Q132 226 167 220Q209 213 256.0 213.0Q303 213 345 220Q380 226 405 235Q405 237 387 242Q365 248 335 251Q297 256 256.5 256.0Q216 256 177 251Q148 247 125 241Q107 236 107 235ZM320 85H192V-19Q125 -13 84.0 4.0Q43 21 43 43V235Q43 252 71.5 267.0Q100 282 149.0 290.5Q198 299 256.0 299.0Q314 299 363.0 290.5Q412 282 440.5 267.0Q469 252 469 235V43Q469 22 427.5 4.5Q386 -13 320 -19Z" />
      </g>
    </svg>