<svg xmlns="http://www.w3.org/2000/svg" viewBox="107 85 298 214">
      <g transform="scale(1 -1) translate(0 -384)">
        <path d="M277 299H341Q368 299 386.5 280.0Q405 261 405 235V149Q405 123 386.5 104.0Q368 85 341 85H277ZM341 128Q350 128 356.5 134.0Q363 140 363 149V235Q363 244 356.5 250.0Q350 256 341 256H320V128ZM149 299H235V256H149V213H192Q210 213 222.5 200.5Q235 188 235 171V128Q235 110 222.5 97.5Q210 85 192 85H107V128H192V171H149Q132 171 119.5 183.5Q107 196 107 213V256Q107 274 119.5 286.5Q132 299 149 299Z" />
      </g>
    </svg>