<svg xmlns="http://www.w3.org/2000/svg" viewBox="21 -21 469 448">
      <g transform="scale(1 -1) translate(0 -406)">
        <path d="M386 197 417 62 299 134 180 62 211 197 107 288 245 300 299 427 353 300 491 288ZM43 183Q49 183 54 186L123 231L89 260L31 222Q24 217 22.0 208.5Q20 200 25 192Q32 183 43 183ZM25 -12Q31 -21 43 -21Q49 -21 54 -18L142 40L149 69L156 100L31 18Q24 13 22.0 4.5Q20 -4 25 -12ZM31 120Q24 115 22.0 106.5Q20 98 25 90Q31 81 43 81Q49 81 54 84L170 160L176 185L156 203Z" />
      </g>
    </svg>