<svg xmlns="http://www.w3.org/2000/svg" viewBox="43 -21 426 426">
      <g transform="scale(1 -1) translate(0 -384)">
        <path d="M262 405Q259 405 256 405Q214 405 174.5 389.0Q135 373 105.0 343.0Q75 313 59.0 273.5Q43 234 43.0 192.0Q43 150 59.0 110.5Q75 71 105.0 41.0Q135 11 174.5 -5.0Q214 -21 257.5 -21.0Q301 -21 335 -7Q362 5 395 32Q338 16 284 36Q234 54 202.5 96.5Q171 139 171.0 192.0Q171 245 202.5 287.5Q234 330 284 348Q338 368 395 352Q368 378 334.0 392.0Q300 406 262 405ZM358 316 326 241 247 235 309 181 290 107 358 149 427 107 405 181 469 235 390 241Z" />
      </g>
    </svg>