<svg xmlns="http://www.w3.org/2000/svg" viewBox="21 -21 469 448">
      <g transform="scale(1 -1) translate(0 -406)">
        <path d="M491 288 353 300 299 427 245 300 107 288 211 197 180 62 299 134 417 62 386 197ZM344 187 353 151 299 183 244 151 259 212 211 254 274 259 299 317 323 259 386 254 338 212ZM25 192Q20 200 22.0 208.5Q24 217 31 222L89 260L123 231L54 186Q49 183 43 183Q32 183 25 192ZM31 18 156 100 149 69 142 40 54 -18Q49 -21 43 -21Q31 -21 25 -12Q20 -4 22.0 4.5Q24 13 31 18ZM156 203 176 185 170 160 54 84Q49 81 43 81Q31 81 25 90Q20 98 22.0 106.5Q24 115 31 120Z" />
      </g>
    </svg>