<svg xmlns="http://www.w3.org/2000/svg" viewBox="43 -11 426 406">
      <g transform="scale(1 -1) translate(0 -384)">
        <path d="M256 395 180 276 43 240 132 131 124 -11 256 41 388 -11 380 131 469 240 332 276ZM200 224Q210 224 217.0 217.0Q224 210 224.0 200.0Q224 190 217.0 183.0Q210 176 200.0 176.0Q190 176 183.0 183.0Q176 190 176.0 200.0Q176 210 183.0 217.0Q190 224 200 224ZM312 224Q322 224 329.0 217.0Q336 210 336.0 200.0Q336 190 329.0 183.0Q322 176 312.0 176.0Q302 176 295.0 183.0Q288 190 288.0 200.0Q288 210 295.0 217.0Q302 224 312 224ZM192 128H320Q312 109 294.5 97.0Q277 85 256.0 85.0Q235 85 217.5 97.0Q200 109 192 128Z" />
      </g>
    </svg>