<svg xmlns="http://www.w3.org/2000/svg" viewBox="43 -64 465 469">
      <g transform="scale(1 -1) translate(0 -341)">
        <path d="M401 192Q350 190 311.0 158.0Q272 126 260 77L256 80L124 0L159 150L43 251L196 264L256 405L316 264L469 251ZM508 8 487 -29Q486 -32 480 -32L454 -21Q444 -28 436 -31L432 -60Q431 -64 427 -64H384Q379 -64 378 -60L374 -31Q366 -28 356 -21L330 -32Q324 -32 323 -29L302 8Q300 12 303 15L326 32Q325 37 325.0 42.5Q325 48 326 53L303 71Q300 74 302 78L323 115Q325 117 330 117L356 107Q365 112 374 117L378 145Q379 149 384 149H427Q431 149 432 145L436 117Q443 114 454 107L480 117Q486 117 487 115L508 78Q510 74 507 71L484 53Q485 48 485 43L484 32L507 15Q510 12 508 8ZM437 43Q437 56 428.0 65.5Q419 75 405.5 75.0Q392 75 382.5 65.5Q373 56 373.0 42.5Q373 29 382.5 20.0Q392 11 405.5 11.0Q419 11 428.0 20.0Q437 29 437 43Z" />
      </g>
    </svg>