<svg xmlns="http://www.w3.org/2000/svg" viewBox="21 -21 470 426">
      <g transform="scale(1 -1) translate(0 -384)">
        <path d="M134 84Q149 66 149 43Q149 16 130.5 -2.5Q112 -21 85.5 -21.0Q59 -21 40.0 -2.5Q21 16 21.0 42.5Q21 69 40.0 88.0Q59 107 85 107Q93 107 97 106L162 220L125 241L212 265L236 178L199 199ZM427 107Q406 107 389.5 95.0Q373 83 367 64H235V107L171 43L235 -21V21H367Q373 2 389.5 -9.5Q406 -21 427 -21Q453 -21 472.0 -2.5Q491 16 491.0 42.5Q491 69 472.0 88.0Q453 107 427 107ZM256 277Q264 277 267 278L333 164L296 143L383 119L407 206L370 185L304 300Q320 318 320 341Q320 368 301.5 386.5Q283 405 256.0 405.0Q229 405 210.5 386.5Q192 368 192.0 341.5Q192 315 210.5 296.0Q229 277 256 277Z" />
      </g>
    </svg>