<svg xmlns="http://www.w3.org/2000/svg" viewBox="43 -21 426 426">
      <g transform="scale(1 -1) translate(0 -384)">
        <path d="M256 405Q298 405 337.5 389.0Q377 373 407.0 343.0Q437 313 453.0 273.5Q469 234 469.0 192.0Q469 150 453.0 110.5Q437 71 407.0 41.0Q377 11 337.5 -5.0Q298 -21 256 -21Q208 -21 165.5 -1.0Q123 19 93.0 54.0Q63 89 50 134L132 100Q136 79 153.0 65.5Q170 52 191 52Q216 52 234.0 69.5Q252 87 252 112V115L324 167H326Q359 167 382.5 190.5Q406 214 406.0 247.0Q406 280 382.5 303.5Q359 327 326.0 327.0Q293 327 269.0 303.5Q245 280 245 247V246L195 172H191Q173 172 157 162L43 209Q47 263 76.5 308.0Q106 353 153.5 379.0Q201 405 256 405ZM177 82Q189 76 202.0 81.5Q215 87 220.5 99.5Q226 112 220.5 125.0Q215 138 203 143L175 154Q192 161 209.0 154.0Q226 147 233.0 129.5Q240 112 233.0 94.5Q226 77 208.5 70.0Q191 63 174.5 70.0Q158 77 151 92ZM380 247Q380 225 364.0 209.0Q348 193 326.0 193.0Q304 193 288.0 209.0Q272 225 272.0 247.0Q272 269 288.0 285.0Q304 301 326.0 301.0Q348 301 364.0 285.0Q380 269 380 247ZM286 247Q286 230 297.5 218.5Q309 207 326.0 207.0Q343 207 354.5 218.5Q366 230 366.0 247.0Q366 264 354.5 275.5Q343 287 326.0 287.0Q309 287 297.5 275.5Q286 264 286 247Z" />
      </g>
    </svg>