<svg xmlns="http://www.w3.org/2000/svg" viewBox="43 -21 426 426">
      <g transform="scale(1 -1) translate(0 -384)">
        <path d="M277 23Q335 30 376.5 71.5Q418 113 425 171H361Q354 139 331.5 116.5Q309 94 277 87ZM213 277H299L363 213H425Q417 276 368.5 319.5Q320 363 256.0 363.0Q192 363 143.5 319.5Q95 276 87 213H149ZM235 23V87Q203 94 180.5 116.5Q158 139 151 171H87Q94 114 135.5 72.5Q177 31 235 23ZM256 405Q343 405 406.0 342.0Q469 279 469.0 192.0Q469 105 406.0 42.0Q343 -21 256.0 -21.0Q169 -21 106.0 42.0Q43 105 43.0 192.0Q43 279 106.0 342.0Q169 405 256 405Z" />
      </g>
    </svg>