<svg xmlns="http://www.w3.org/2000/svg" viewBox="43 -21 426 426">
      <g transform="scale(1 -1) translate(0 -384)">
        <path d="M405 277Q414 277 420.5 271.0Q427 265 427.0 256.0Q427 247 420.5 241.0Q414 235 405.0 235.0Q396 235 390.0 241.0Q384 247 384.0 256.0Q384 265 390.0 271.0Q396 277 405 277ZM43 405V213Q43 166 74.0 130.0Q105 94 152 87Q162 39 200.0 9.0Q238 -21 288 -21Q326 -21 357.5 -2.5Q389 16 408.0 48.0Q427 80 427 117V196Q446 203 457.5 219.5Q469 236 469 256Q469 283 450.5 301.5Q432 320 405.5 320.0Q379 320 360.0 301.5Q341 283 341 256Q341 236 353.0 219.5Q365 203 384 196V119Q384 79 356.0 51.0Q328 23 288 23Q256 23 231.0 41.0Q206 59 197 87Q241 97 270.0 132.5Q299 168 299 213V405H213V341H256V213Q256 178 231.0 153.0Q206 128 170.5 128.0Q135 128 110.0 153.0Q85 178 85 213V341H128V405Z" />
      </g>
    </svg>