<svg xmlns="http://www.w3.org/2000/svg" viewBox="43 -21 426 426">
      <g transform="scale(1 -1) translate(0 -384)">
        <path d="M117 405Q86 405 64.5 383.5Q43 362 43 331V53Q43 22 64.5 0.5Q86 -21 117 -21H341L469 107V331Q469 362 447.5 383.5Q426 405 395 405ZM123 363H389Q405 363 416.0 352.0Q427 341 427 325V128H395Q364 128 342.0 106.0Q320 84 320 53V21H123Q107 21 96.0 32.0Q85 43 85 59V325Q85 341 96.0 352.0Q107 363 123 363ZM308 304Q303 304 298 302Q283 298 275.5 284.5Q268 271 272 256Q273 251 276 247L345 265Q345 271 344 276Q341 288 331.0 296.0Q321 304 308 304ZM174 267Q167 267 164 266Q149 261 141.5 248.0Q134 235 138 220Q139 217 142 211L143 210L211 229Q211 234 210 239Q207 252 197.0 259.5Q187 267 174 267ZM357 208 162 154Q183 130 214.0 120.5Q245 111 276.0 119.5Q307 128 329.0 152.0Q351 176 357 208Z" />
      </g>
    </svg>