<svg xmlns="http://www.w3.org/2000/svg" viewBox="43 -21 426 426">
      <g transform="scale(1 -1) translate(0 -384)">
        <path d="M277 213H341V171H277V107H235V171H171V213H235V277H277ZM469 331V107L341 -21H117Q87 -21 65.0 1.0Q43 23 43 53V331Q43 361 65.0 383.0Q87 405 117 405H395Q425 405 447.0 383.0Q469 361 469 331ZM427 324Q427 340 415.5 351.5Q404 363 388 363H124Q108 363 96.5 351.5Q85 340 85 324V58Q85 42 96.5 30.5Q108 19 124 19H320V51Q320 82 342.0 104.0Q364 126 395 126H427Z" />
      </g>
    </svg>