<svg xmlns="http://www.w3.org/2000/svg" viewBox="43 -21 426 426">
      <g transform="scale(1 -1) translate(0 -384)">
        <path d="M395 405H117Q87 405 65.0 383.0Q43 361 43 331V53Q43 23 65.0 1.0Q87 -21 117 -21H341L469 107V331Q469 361 447.0 383.0Q425 405 395 405ZM427 128H395Q364 128 342.0 106.0Q320 84 320 53V21H124Q108 21 96.5 32.5Q85 44 85 60V324Q85 340 96.5 351.5Q108 363 124 363H390Q406 363 417.5 351.5Q429 340 429 324V128ZM324 273 356 241 228 113 154 188 186 220 228 177Z" />
      </g>
    </svg>