<svg xmlns="http://www.w3.org/2000/svg" viewBox="43 -21 426 426">
      <g transform="scale(1 -1) translate(0 -384)">
        <path d="M395 405H117Q87 405 65.0 383.0Q43 361 43 331V53Q43 23 65.0 1.0Q87 -21 117 -21H341L469 107V331Q469 361 447.0 383.0Q425 405 395 405ZM429 128H397Q366 128 344.0 106.0Q322 84 322 53V21H124Q108 21 96.5 32.5Q85 44 85 60V324Q85 340 96.5 351.5Q108 363 124 363H390Q406 363 417.5 351.5Q429 340 429 324ZM149 299H363V256H149ZM149 213H363V171H149ZM149 128H277V85H149Z" />
      </g>
    </svg>