<svg xmlns="http://www.w3.org/2000/svg" viewBox="42 -21 426 426">
      <g transform="scale(1 -1) translate(0 -384)">
        <path d="M85 64Q94 40 108 24Q127 3 159 -8Q197 -21 256 -21Q306 -21 334 -15Q378 -6 405 21Q422 38 431 52Q448 77 457 111Q469 155 469 213Q469 300 443 336Q423 363 384 363Q353 363 338 357Q313 348 299 320V319Q293 309 282.0 303.5Q271 298 259 300Q243 302 238 308Q235 312 235 320V405H192V320Q191 293 210.0 274.0Q229 255 256 256Q270 256 275 234Q277 221 277 192Q277 160 268 140Q258 118 235 107Q197 88 164.5 91.0Q132 94 120 118Q114 135 97.0 139.0Q80 143 66.5 130.5Q53 118 46.5 100.5Q40 83 43 64V-21H85Z" />
      </g>
    </svg>