<svg xmlns="http://www.w3.org/2000/svg" viewBox="21 0 470 384">
      <g transform="scale(1 -1) translate(0 -384)">
        <path d="M363 320H341V341Q341 359 328.5 371.5Q316 384 299 384H213Q196 384 183.5 371.5Q171 359 171 341V320H149Q115 320 85.5 303.0Q56 286 38.5 256.5Q21 227 21.0 192.0Q21 157 38.5 127.5Q56 98 85.5 81.0Q115 64 149 64V0H192V64H320V0H363V64Q397 64 426.5 81.0Q456 98 473.5 127.5Q491 157 491.0 192.0Q491 227 473.5 256.5Q456 286 426.5 303.0Q397 320 363 320ZM213 341H299V320H213Z" />
      </g>
    </svg>