<svg xmlns="http://www.w3.org/2000/svg" viewBox="42 0 426 384">
      <g transform="scale(1 -1) translate(0 -384)">
        <path d="M82 375Q94 384 108 384H404Q418 384 429.5 375.0Q441 366 445 352L467 258Q475 223 454 197L448 191Q429 171 401.0 171.0Q373 171 353 191Q332 171 304.5 171.0Q277 171 256 191Q236 171 208.0 171.0Q180 171 159 191Q138 171 111 171H107V43H258Q261 20 273 0H107Q90 0 77.0 13.0Q64 26 64 43V191L57 198Q37 224 45 258L67 352Q70 366 82 375ZM426 248 403 342 362 341 375 238Q376 228 383.0 220.5Q390 213 401.0 213.0Q412 213 420.5 223.5Q429 234 426 248ZM150 341H108L86 248Q83 234 92 223Q99 213 112 213Q133 213 137 238ZM235 341H193L181 245V242Q181 231 188.5 222.0Q196 213 207.5 213.0Q219 213 227.0 221.5Q235 230 235 241ZM319 341H277V241Q277 230 285.0 221.5Q293 213 303 213Q317 213 325.0 222.5Q333 232 331 245ZM299 85V43H469V85Z" />
      </g>
    </svg>