<svg xmlns="http://www.w3.org/2000/svg" viewBox="42 0 426 384">
      <g transform="scale(1 -1) translate(0 -384)">
        <path d="M108 384Q94 384 82.0 375.0Q70 366 67 352L45 258Q37 224 57 198L64 191V43Q64 25 77.5 12.5Q91 0 107 0H273Q261 20 258 43H107V171H111Q138 171 159 191Q180 171 208.0 171.0Q236 171 256 191Q277 171 304.5 171.0Q332 171 353 191Q373 171 401.0 171.0Q429 171 448 191L454 197Q475 223 467 258L445 352Q441 366 429.5 375.0Q418 384 404 384ZM403 342 426 248Q429 234 420.5 223.5Q412 213 401.0 213.0Q390 213 383.0 220.5Q376 228 375 238L362 341ZM108 341H150L137 238Q133 213 112 213Q99 213 92 223Q83 234 86 248ZM193 341H235V241Q235 230 227.0 221.5Q219 213 207.5 213.0Q196 213 188.5 222.0Q181 231 181 242V245ZM277 341H319L331 245Q333 232 325.0 222.5Q317 213 303 213Q293 213 285.0 221.5Q277 230 277 241ZM363 0 304 64 329 89 363 55 439 131 464 101Z" />
      </g>
    </svg>