<svg xmlns="http://www.w3.org/2000/svg" viewBox="21 -64 491 469">
      <g transform="scale(1 -1) translate(0 -341)">
        <path d="M384 363H43V405H384ZM373 171H341V64L418 18L434 44L373 80ZM512 85Q512 45 492.0 10.5Q472 -24 437.5 -44.0Q403 -64 363 -64Q326 -64 294.0 -47.0Q262 -30 241.0 -1.0Q220 28 215 64H43V192H21V235L43 341H384L405 235V228Q452 214 482.0 174.5Q512 135 512 85ZM85 107H213V192H85ZM469 85Q469 114 455.0 138.5Q441 163 416.5 177.5Q392 192 363.0 192.0Q334 192 309.5 177.5Q285 163 270.5 138.5Q256 114 256.0 85.0Q256 56 270.5 31.5Q285 7 309.5 -7.0Q334 -21 363.0 -21.0Q392 -21 416.5 -7.0Q441 7 455.0 31.5Q469 56 469 85Z" />
      </g>
    </svg>