<svg xmlns="http://www.w3.org/2000/svg" viewBox="42 -21 445 405">
      <g transform="scale(1 -1) translate(0 -363)">
        <path d="M82 375Q94 384 108 384H404Q418 384 429.5 375.0Q441 366 445 352L467 258Q470 244 468 228Q457 233 444.5 231.5Q432 230 421 224Q429 234 426 248L403 342L362 341L375 238Q376 228 383.0 220.5Q390 213 400 213Q405 213 410 215L407 212L372 177Q362 182 353 191Q332 171 304.5 171.0Q277 171 256 191Q236 171 208.0 171.0Q180 171 159 191Q138 171 111.5 171.0Q85 171 65 191L57 198Q37 224 45 258L67 352Q70 366 82 375ZM150 341H108L86 248Q83 234 92 223Q99 213 112 213Q133 213 137 238ZM235 341H193L181 245V242Q181 231 188.5 222.0Q196 213 207.5 213.0Q219 213 227.0 221.5Q235 230 235 241ZM319 341H277V241Q277 230 285.0 221.5Q293 213 303 213Q317 213 325.0 222.5Q333 232 331 245ZM450 108 407 152 277 23V-21H321ZM305 128Q316 128 326 131L235 40V0H107Q89 0 76.5 12.5Q64 25 64 43V149Q86 128 112 128Q139 128 159 148Q180 128 208.0 128.0Q236 128 256 148Q277 128 305 128ZM484 142 463 121 419 164 441 186Q443 188 446 189Q452 190 457 186L484 158Q488 155 488.0 150.0Q488 145 484 142Z" />
      </g>
    </svg>