<svg xmlns="http://www.w3.org/2000/svg" viewBox="21 -30 478 435">
      <g transform="scale(1 -1) translate(0 -375)">
        <path d="M254 215Q234 195 223.5 169.5Q213 144 213 117V192H85V107H213V117Q213 90 224 64H43V192H21V235L43 341H384L403 246Q365 261 324.5 253.0Q284 245 254 215ZM384 405H43V363H384ZM499 0 469 -30 403 36Q379 21 352 21Q312 21 284.0 49.0Q256 77 256.0 117.0Q256 157 284.0 185.0Q312 213 352.0 213.0Q392 213 420.0 185.0Q448 157 448 117Q448 89 433 66ZM405 117Q405 139 389.5 155.0Q374 171 352.0 171.0Q330 171 314.5 155.0Q299 139 299.0 117.0Q299 95 314.5 79.5Q330 64 352.0 64.0Q374 64 389.5 79.5Q405 95 405 117Z" />
      </g>
    </svg>