<svg xmlns="http://www.w3.org/2000/svg" viewBox="64 -21 405 384">
      <g transform="scale(1 -1) translate(0 -342)">
        <path d="M427 320H85V363H427ZM305 192Q277 159 277 117Q277 85 299 43V21H85V149H64V192L85 299H427L442 224Q420 235 396 235L392 256H120L108 192ZM256 149H128V64H256ZM469 117Q469 83 432 27Q413 -1 395 -21L375 2Q353 31 339 57Q320 93 320 117Q320 148 342.0 170.0Q364 192 394.5 192.0Q425 192 447.0 170.0Q469 148 469 117ZM420 115Q420 125 412.0 133.0Q404 141 394.5 141.0Q385 141 377.0 133.5Q369 126 369.0 115.5Q369 105 376.5 97.5Q384 90 395.0 90.0Q406 90 414.0 98.0Q422 106 420 115Z" />
      </g>
    </svg>