<svg xmlns="http://www.w3.org/2000/svg" viewBox="43 -21 426 426">
      <g transform="scale(1 -1) translate(0 -384)">
        <path d="M128 149H171L235 85H192ZM85 363H107V384Q107 393 113.0 399.0Q119 405 128 405H213Q222 405 228.5 399.0Q235 393 235 384V363H277V384Q277 393 283.5 399.0Q290 405 299 405H384Q393 405 399.0 399.0Q405 393 405 384V363H427Q444 363 456.5 350.5Q469 338 469 320V43Q469 25 456.5 12.5Q444 0 427 0V-21H363V0H149V-21H85V0Q68 0 55.5 12.5Q43 25 43 43V320Q43 338 55.5 350.5Q68 363 85 363ZM384 299Q393 299 399.0 292.5Q405 286 405.0 277.0Q405 268 399.0 262.0Q393 256 384.0 256.0Q375 256 369.0 262.0Q363 268 363.0 277.0Q363 286 369.0 292.5Q375 299 384 299ZM299 299Q308 299 314.0 292.5Q320 286 320.0 277.0Q320 268 314.0 262.0Q308 256 299.0 256.0Q290 256 283.5 262.0Q277 268 277.0 277.0Q277 286 283.5 292.5Q290 299 299 299ZM427 320H85V235H427ZM85 43H427V192H85ZM128 299Q137 299 143.0 292.5Q149 286 149.0 277.0Q149 268 143.0 262.0Q137 256 128.0 256.0Q119 256 113.0 262.0Q107 268 107.0 277.0Q107 286 113.0 292.5Q119 299 128 299ZM277 149H320L384 85H341Z" />
      </g>
    </svg>