<svg xmlns="http://www.w3.org/2000/svg" viewBox="38 -26 436 436">
      <g transform="scale(1 -1) translate(0 -384)">
        <path d="M147 331 196 282 166 252 117 301 68 252 38 282 87 331 38 380 68 410 117 361 166 410 196 380ZM474 102 444 132 395 83 346 132 316 102 365 53 316 4 346 -26 395 23 444 -26 474 4 425 53ZM435 302 367 213 333 240 358 272Q309 263 271.5 231.0Q234 199 216 153Q244 132 252.5 97.5Q261 63 245.0 31.5Q229 0 196.5 -14.0Q164 -28 130.0 -17.0Q96 -6 77.5 24.5Q59 55 64.5 90.0Q70 125 97.5 148.0Q125 171 160 171Q168 171 177 169Q199 225 245.5 263.5Q292 302 351 314L320 337L347 371ZM213 75Q213 97 197.5 112.5Q182 128 160.0 128.0Q138 128 122.5 112.5Q107 97 107.0 75.0Q107 53 122.5 37.0Q138 21 160.0 21.0Q182 21 197.5 37.0Q213 53 213 75Z" />
      </g>
    </svg>