<svg xmlns="http://www.w3.org/2000/svg" viewBox="43 -21 426 426">
      <g transform="scale(1 -1) translate(0 -384)">
        <path d="M427 405H85Q68 405 55.5 392.5Q43 380 43 363V21Q43 4 55.5 -8.5Q68 -21 85 -21H427Q444 -21 456.5 -8.5Q469 4 469 21V363Q469 380 456.5 392.5Q444 405 427 405ZM192 43H107V128L134 100L167 133L197 103L164 70ZM167 251 134 284 107 256V341H192L164 314L197 281ZM405 43H320L348 70L315 103L345 133L378 100L405 128ZM405 256 378 284 345 251 315 281 348 314 320 341H405Z" />
      </g>
    </svg>