<svg xmlns="http://www.w3.org/2000/svg" viewBox="43 -21 426 426">
      <g transform="scale(1 -1) translate(0 -384)">
        <path d="M427 405H85Q68 405 55.5 392.5Q43 380 43 363V21Q43 4 55.5 -8.5Q68 -21 85 -21H427Q444 -21 456.5 -8.5Q469 4 469 21V363Q469 380 456.5 392.5Q444 405 427 405ZM427 21H85V363H427ZM188 229 156 262 128 235V320H213L186 292L219 260ZM293 260 326 292 299 320H384V235L356 262L324 229ZM324 155 356 122 384 149V64H299L326 92L293 124ZM219 124 186 92 213 64H128V149L156 122L188 155Z" />
      </g>
    </svg>