<svg xmlns="http://www.w3.org/2000/svg" viewBox="21 -37 469 448">
      <g transform="scale(1 -1) translate(0 -374)">
        <path d="M299 219V257Q331 259 357 263L366 226Q350 203 357 175L363 154L451 66Q486 75 490 123Q493 157 481 205Q478 218 469.5 229.0Q461 240 449 247L440 283Q456 288 469 294V341Q434 322 383 311Q324 298 256 298Q242 298 217 299ZM442 96Q423 91 403 136Q394 159 388 182L387 190Q387 200 392 207Q398 217 412 221Q431 225 443 212Q448 205 450 197L455 173Q459 145 458 126Q456 100 442 96ZM319 143 288 174 204 257H205L51 411L24 384L83 324Q59 333 43 341V294Q56 288 72 283L63 247Q51 240 42.5 229.0Q34 218 31 205Q19 156 22 123Q26 74 62 65Q86 59 107 77Q137 103 155 175Q162 203 146 226L153 255L203 205Q192 189 192 171Q192 121 203 89Q219 43 256 43Q272 43 285 53Q302 66 311 96L445 -37L472 -10ZM124 182Q120 170 117 158Q108 131 98 115Q84 93 70 96Q51 101 54 150Q56 174 62 197L65 205Q70 214 77 218Q87 224 100 221Q120 216 124 199Q126 190 124 182ZM256 75Q242 75 233 100Q228 117 225 146L224 171V174Q225 178 226 181L284 124Q276 75 256 75Z" />
      </g>
    </svg>