<svg xmlns="http://www.w3.org/2000/svg" viewBox="21 43 469 298">
      <g transform="scale(1 -1) translate(0 -384)">
        <path d="M481 205Q478 218 469.5 229.0Q461 240 449 247L440 283Q456 288 469 294V341Q434 322 383 311Q324 298 256.0 298.0Q188 298 129 311Q78 322 43 341V294Q56 288 72 283L63 247Q51 240 42.5 229.0Q34 218 31 205Q19 156 22 123Q26 74 62 65Q86 59 107 77Q137 103 155 175Q162 203 146 226L155 263Q181 259 213 257V219Q203 210 197.5 197.0Q192 184 192 171Q192 121 203 89Q219 43 256 43Q281 43 297 65Q320 97 320 171Q320 184 314.5 197.0Q309 210 299 219V257Q331 259 357 263L366 226Q350 203 357 175Q375 103 405 77Q426 59 450 65Q485 74 490 123Q493 156 481 205ZM124 182Q120 170 117 158Q108 131 98 115Q84 93 70 96Q51 101 54 150Q56 174 62 197L65 205Q70 214 77 218Q87 224 100 221Q120 216 124 199Q126 190 124 182ZM256 75Q242 75 233 100Q228 117 225 146L224 171L225 179Q228 188 233 194Q242 203 256.0 203.0Q270 203 279 194Q284 188 287 179L288 171L287 146Q284 117 279 100Q270 75 256 75ZM442 96Q423 91 403 136Q394 159 388 182L387 190Q387 200 392 207Q398 217 412 221Q431 225 443 212Q448 205 450 197L455 173Q459 145 458 126Q456 100 442 96Z" />
      </g>
    </svg>