<svg xmlns="http://www.w3.org/2000/svg" viewBox="43 21 426 349">
      <g transform="scale(1 -1) translate(0 -391)">
        <path d="M171 370Q134 344 85 341H43V299H85Q129 299 171 320Q211 299 256.0 299.0Q301 299 341 320Q379 301 427 299H469V341H427Q382 341 341 370Q302 342 256.0 342.0Q210 342 171 370ZM341 263 320 235V192H299L256 149H192L128 107L107 149H85V107L43 85L85 64V21H110L128 64L192 21H427Q444 21 456.5 33.5Q469 46 469 64V107Q469 124 456.5 136.5Q444 149 427 149H384L363 171V192H341V235H363V263Z" />
      </g>
    </svg>