<svg xmlns="http://www.w3.org/2000/svg" viewBox="85 0 342 405">
      <g transform="scale(1 -1) translate(0 -405)">
        <path d="M384 213H277V320H384ZM352 85Q339 85 329.5 94.5Q320 104 320.0 117.5Q320 131 329.5 140.0Q339 149 352.0 149.0Q365 149 374.5 140.0Q384 131 384.0 117.5Q384 104 374.5 94.5Q365 85 352 85ZM235 213H128V320H235ZM160 85Q147 85 137.5 94.5Q128 104 128.0 117.5Q128 131 137.5 140.0Q147 149 160.0 149.0Q173 149 182.5 140.0Q192 131 192.0 117.5Q192 104 182.5 94.5Q173 85 160 85ZM256 405Q173 405 135 391Q85 371 85 320V117Q85 86 107.0 64.5Q129 43 160 43L128 11V0H384V11L352 43Q383 43 405.0 64.5Q427 86 427 117V320Q427 371 377 391Q339 405 256 405Z" />
      </g>
    </svg>