<svg xmlns="http://www.w3.org/2000/svg" viewBox="43 -21 426 426">
      <g transform="scale(1 -1) translate(0 -384)">
        <path d="M181 128Q190 128 196.5 122.0Q203 116 203.0 107.0Q203 98 196.5 91.5Q190 85 181.0 85.0Q172 85 166.0 91.5Q160 98 160.0 107.0Q160 116 166.0 122.0Q172 128 181 128ZM149 256H363V149H149ZM331 128Q340 128 346.0 122.0Q352 116 352.0 107.0Q352 98 346.0 91.5Q340 85 331.0 85.0Q322 85 315.5 91.5Q309 98 309.0 107.0Q309 116 315.5 122.0Q322 128 331 128ZM384 109V256Q384 294 347 309Q318 320 256 320Q197 320 168 309Q128 294 128 256V109Q128 86 144.5 69.5Q161 53 184 53L160 29V21H196L228 53H288L320 21H352V29L328 53Q351 53 367.5 69.5Q384 86 384 109ZM380 388Q422 372 445.5 338.0Q469 304 469 259V-21H43V259Q43 304 66.5 338.0Q90 372 132 388Q158 399 194 402Q219 405 256.0 405.0Q293 405 318 402Q354 399 380 388Z" />
      </g>
    </svg>