<svg xmlns="http://www.w3.org/2000/svg" viewBox="43 0 426 405">
      <g transform="scale(1 -1) translate(0 -405)">
        <path d="M341 213V320H235V213ZM309 85Q322 85 331.5 95.0Q341 105 341.0 117.5Q341 130 331.5 139.5Q322 149 309.5 149.0Q297 149 287.0 139.5Q277 130 277.0 117.5Q277 105 287.0 95.0Q297 85 309 85ZM192 213V320H85V213ZM117 85Q130 85 139.5 95.0Q149 105 149.0 117.5Q149 130 139.5 139.5Q130 149 117.5 149.0Q105 149 95.0 139.5Q85 130 85.0 117.5Q85 105 95.0 95.0Q105 85 117 85ZM213 405Q296 405 334 391Q384 371 384 320V117Q384 87 362.0 65.0Q340 43 309 43L341 11V0H85V11L117 43Q87 43 65.0 65.0Q43 87 43 117V320Q43 371 93 391Q131 405 213 405ZM427 171V299H469V171ZM427 85V128H469V85Z" />
      </g>
    </svg>