<svg xmlns="http://www.w3.org/2000/svg" viewBox="28 -21 441 426">
      <g transform="scale(1 -1) translate(0 -384)">
        <path d="M213 405 162 333Q196 341 213.0 341.0Q230 341 265 333ZM405 341Q388 341 375.5 328.5Q363 316 363 299V154Q341 135 341 107Q341 80 360.0 61.5Q379 43 405.5 43.0Q432 43 450.5 61.5Q469 80 469 107Q469 136 448 154V299Q448 316 435.5 328.5Q423 341 405 341ZM405 320Q414 320 420.5 313.5Q427 307 427 299V277H384V299Q384 307 390.5 313.5Q397 320 405 320ZM117 305 28 299 66 218Q69 242 83 267Q101 291 117 305ZM213 299Q184 299 159.5 284.5Q135 270 121.0 245.5Q107 221 107.0 192.0Q107 163 121.0 138.5Q135 114 159.5 99.5Q184 85 213.5 85.0Q243 85 267.5 99.5Q292 114 306.0 138.5Q320 163 320.0 192.0Q320 221 306.0 245.5Q292 270 267.5 284.5Q243 299 213 299ZM68 166 30 85 117 77Q97 97 85 117Q72 136 68 166ZM162 51 213 -21 265 51Q230 43 213 43Q192 43 162 51Z" />
      </g>
    </svg>