<svg xmlns="http://www.w3.org/2000/svg" viewBox="49 0 420 399">
      <g transform="scale(1 -1) translate(0 -399)">
        <path d="M294 337Q277 341 243 341L311 399L341 314Q324 326 294 337ZM149 297Q170 317 192 326L105 343L119 256Q128 271 133 278Q141 289 149 297ZM111 154Q107 171 107 205L49 137L134 107Q118 127 111 154ZM469 43V0H64L179 117Q149 149 149.0 193.0Q149 237 179 269Q199 289 226.5 296.0Q254 303 281.5 296.0Q309 289 329 269L393 333L422 303L164 43ZM209 147 299 239Q279 257 253.5 257.0Q228 257 209 239Q191 220 191.0 193.0Q191 166 209 147Z" />
      </g>
    </svg>