<svg xmlns="http://www.w3.org/2000/svg" viewBox="49 -43 442 470">
      <g transform="scale(1 -1) translate(0 -384)">
        <path d="M386 250 418 320 331 329Q351 312 363 288Q371 271 378 252Q356 256 341 256H333Q320 285 294.0 302.5Q268 320 235 320Q205 320 180.5 306.0Q156 292 142.0 267.5Q128 243 128 213Q128 180 145.5 154.0Q163 128 192 115V107Q192 66 212.0 31.5Q232 -3 266.0 -23.0Q300 -43 341.0 -43.0Q382 -43 416.5 -23.0Q451 -3 471.0 31.5Q491 66 491 107Q491 156 461.5 195.5Q432 235 386 250ZM341 0Q312 0 287.5 14.0Q263 28 249.0 52.5Q235 77 235.0 106.5Q235 136 249.0 160.5Q263 185 287.5 199.0Q312 213 341.5 213.0Q371 213 395.5 199.0Q420 185 434.0 160.5Q448 136 448.0 106.5Q448 77 434.0 52.5Q420 28 395.5 14.0Q371 0 341 0ZM352 102 414 66 397 41 320 85V192H352ZM235 363Q218 363 183 354L235 427L286 354Q252 363 235 363ZM105 139Q118 116 139 98L51 107L90 188Q93 158 105 139ZM87 239 49 320 139 326Q122 313 105 288Q91 264 87 239Z" />
      </g>
    </svg>