<svg xmlns="http://www.w3.org/2000/svg" viewBox="15 -49 454 482">
      <g transform="scale(1 -1) translate(0 -384)">
        <path d="M256 433 185 363H85V263L15 192L85 121V21H185L256 -49L277 -28V68L346 -1L377 29L277 128V171H320L419 71L449 102L380 171H469V213H380L449 282L419 313L320 213H277V256L377 355L346 385L277 316V412ZM235 318V275Q206 267 188.5 244.0Q171 221 171.0 192.0Q171 163 188.5 140.0Q206 117 235 109V66Q189 74 158.5 109.5Q128 145 128.0 192.0Q128 239 158.0 274.5Q188 310 235 318Z" />
      </g>
    </svg>