<svg xmlns="http://www.w3.org/2000/svg" viewBox="53 -43 408 470">
      <g transform="scale(1 -1) translate(0 -384)">
        <path d="M207 356 256 427 305 356Q283 363 256.0 363.0Q229 363 207 356ZM373 316Q414 276 422 228L459 307ZM107 275Q107 276 108 277L107 275Q109 277 109 279Q122 299 139 316L53 309L90 230Q97 255 107 275ZM410 119Q410 119 410 119Q405 111 403 109V105Q397 93 381 75L373 66L461 73L425 151Q416 130 410 119ZM111 102Q111 103 110.0 104.5Q109 106 109 107Q107 109 107 111L105 114Q102 118 102 122Q94 143 92 154L55 75L143 68Q125 81 111 102ZM269 21H243Q234 21 216 26L207 28L256 -43L305 28ZM346 282Q321 306 288.5 314.5Q256 323 222.5 314.5Q189 306 164.0 282.0Q139 258 130.5 225.0Q122 192 131.0 159.0Q140 126 164.0 100.5Q188 75 221.0 66.5Q254 58 287.0 67.0Q320 76 345.5 100.0Q371 124 379.5 157.5Q388 191 379.5 224.0Q371 257 346 282ZM181 117 226 222 333 269 288 164ZM271 177Q265 171 256.0 171.0Q247 171 241.0 177.0Q235 183 235.0 192.0Q235 201 241.0 207.0Q247 213 256.0 213.0Q265 213 271.0 207.0Q277 201 277.0 192.0Q277 183 271 177Z" />
      </g>
    </svg>