<svg xmlns="http://www.w3.org/2000/svg" viewBox="50 -43 441 470">
      <g transform="scale(1 -1) translate(0 -384)">
        <path d="M386 249 419 320 331 328Q350 311 364 288Q373 272 378 251Q360 256 341 256H332Q320 285 293.5 302.5Q267 320 235 320Q206 320 181.5 305.5Q157 291 142.5 266.5Q128 242 128 213Q128 181 145.5 154.5Q163 128 192 116V107Q192 66 212.0 31.5Q232 -3 266.5 -23.0Q301 -43 341.5 -43.0Q382 -43 416.5 -23.0Q451 -3 471.0 31.5Q491 66 491 107Q491 156 461.5 195.5Q432 235 386 249ZM171 213Q171 240 189.5 258.5Q208 277 235 277Q252 277 266.5 269.0Q281 261 289 246Q259 235 236.0 212.0Q213 189 202 159Q187 167 179.0 181.5Q171 196 171 213ZM341 0Q312 0 287.5 14.5Q263 29 249.0 53.5Q235 78 235.0 107.0Q235 136 249.0 160.5Q263 185 287.5 199.0Q312 213 341.0 213.0Q370 213 394.5 199.0Q419 185 433.5 160.5Q448 136 448.0 107.0Q448 78 433.5 53.5Q419 29 394.5 14.5Q370 0 341 0ZM352 101 413 65 397 39 320 85V192H352ZM235 363Q208 363 184 354L235 427L286 354Q261 363 235 363ZM106 139Q118 116 139 99L50 107L88 187Q93 161 106 139ZM88 239 50 320 139 327Q118 310 105.0 288.0Q92 266 88 239Z" />
      </g>
    </svg>