<svg xmlns="http://www.w3.org/2000/svg" viewBox="50 -43 441 470">
      <g transform="scale(1 -1) translate(0 -384)">
        <path d="M235 427 286 354Q261 363 234.5 363.0Q208 363 184 354ZM50 320 139 327Q118 310 105.0 288.0Q92 266 88 239ZM50 107 88 187Q93 161 105.5 138.5Q118 116 139 99ZM419 320 381 239Q377 265 363.5 288.0Q350 311 331 328ZM491 171H448Q448 137 435.5 105.5Q423 74 398.0 49.5Q373 25 342.0 12.5Q311 0 277 0V-43Q319 -43 358.0 -27.0Q397 -11 428.0 19.5Q459 50 475.0 89.5Q491 129 491 171ZM405 171H363Q363 154 356.5 138.0Q350 122 338.0 110.0Q326 98 310.0 91.5Q294 85 277 85V43Q302 43 326.0 52.5Q350 62 368.0 80.0Q386 98 395.5 122.0Q405 146 405 171ZM235 277Q261 277 280.0 258.5Q299 240 299.0 213.5Q299 187 280.0 168.0Q261 149 234.5 149.0Q208 149 189.5 168.0Q171 187 171.0 213.5Q171 240 189.5 258.5Q208 277 235 277ZM235 320Q206 320 181.5 305.5Q157 291 142.5 266.5Q128 242 128.0 213.0Q128 184 142.5 159.5Q157 135 181.5 121.0Q206 107 235.0 107.0Q264 107 288.5 121.0Q313 135 327.0 159.5Q341 184 341.0 213.0Q341 242 327.0 266.5Q313 291 288.5 305.5Q264 320 235 320Z" />
      </g>
    </svg>