<svg xmlns="http://www.w3.org/2000/svg" viewBox="28 -21 441 426">
      <g transform="scale(1 -1) translate(0 -384)">
        <path d="M213 405 162 333Q196 341 213.0 341.0Q230 341 265 333ZM448 154V299Q448 316 435.5 328.5Q423 341 405.5 341.0Q388 341 375.5 328.5Q363 316 363 299V154Q341 132 341.0 105.5Q341 79 359.5 61.0Q378 43 405.5 43.0Q433 43 451.0 61.0Q469 79 469 107Q469 121 463.5 133.0Q458 145 448 154ZM427 277H384V299Q384 308 390.0 314.0Q396 320 405.5 320.0Q415 320 421.0 314.0Q427 308 427 299ZM117 305 28 299 66 218Q69 242 83 267Q101 291 117 305ZM213 299Q184 299 159.5 284.5Q135 270 121.0 245.5Q107 221 107.0 192.0Q107 163 121.0 138.5Q135 114 159.5 99.5Q184 85 213.5 85.0Q243 85 267.5 99.5Q292 114 306.0 138.5Q320 163 320.0 192.0Q320 221 306.0 245.5Q292 270 267.5 284.5Q243 299 213 299ZM213 128Q186 128 167.5 146.5Q149 165 149.0 192.0Q149 219 167.5 237.5Q186 256 213.5 256.0Q241 256 259.0 237.5Q277 219 277.0 192.0Q277 165 259.0 146.5Q241 128 213 128ZM68 166 30 85 117 77Q97 97 85 117Q72 136 68 166ZM162 51 213 -21 265 51Q230 43 213 43Q192 43 162 51Z" />
      </g>
    </svg>