<svg xmlns="http://www.w3.org/2000/svg" viewBox="5 85 501 192">
      <g transform="scale(1 -1) translate(0 -362)">
        <path d="M149 85H85Q59 85 39.0 103.0Q19 121 16 146L6 210Q2 238 19.5 257.5Q37 277 64 277H192Q220 277 236 257Q240 252 242 246Q256 249 270 246Q272 252 276 257Q292 277 320 277H448Q475 277 492.5 257.5Q510 238 506 211L496 145Q493 120 472.5 102.5Q452 85 427 85H363Q338 85 316.5 102.0Q295 119 289 143L270 201Q264 205 256.0 205.0Q248 205 242 201L223 141Q217 118 195.5 101.5Q174 85 149 85Z" />
      </g>
    </svg>