<svg xmlns="http://www.w3.org/2000/svg" viewBox="43 -43 426 459">
      <g transform="scale(1 -1) translate(0 -373)">
        <path d="M469 -43V0Q444 -1 425 3Q402 8 384 21Q356 1 320.0 1.0Q284 1 256 21Q228 1 192.0 1.0Q156 1 128 21Q110 8 87 3Q68 -1 43 0V-43Q96 -45 128 -27Q157 -43 191.5 -43.0Q226 -43 256 -27Q286 -43 320.5 -43.0Q355 -43 384 -27Q416 -45 469 -43ZM437 193V236Q409 236 383.5 250.5Q358 265 345 290L326 323Q317 337 300 342L181 364L107 312L131 277L191 318L234 311L188 280Q178 273 173.5 262.5Q169 252 171 241L182 175Q143 190 113 192Q67 197 64 166Q68 136 97 106Q114 89 155 59L172 47Q194 39 217.0 48.0Q240 57 256 76Q270 58 291.0 50.0Q312 42 334.5 45.5Q357 49 373 64Q357 79 341 90V172L260 236L308 268Q327 233 362.0 212.5Q397 192 437 193ZM299 149V118Q299 119 255 143Q251 145 252 144L229 156L220 212ZM405 373Q405 356 392.5 343.5Q380 331 362.5 331.0Q345 331 332.5 343.5Q320 356 320.0 373.5Q320 391 332.5 403.5Q345 416 362.5 416.0Q380 416 392.5 403.5Q405 391 405 373Z" />
      </g>
    </svg>