<svg xmlns="http://www.w3.org/2000/svg" viewBox="0 85 512 214">
      <g transform="scale(1 -1) translate(0 -384)">
        <path d="M384 299V256H469V213H427Q409 213 396.5 200.5Q384 188 384 171V85H512V128H427V171H469Q487 171 499.5 183.5Q512 196 512 213V256Q512 274 499.5 286.5Q487 299 469 299ZM192 85H149V128H192ZM192 299V256H235V85H277V299ZM0 299V171H85V128H0V85H85Q103 85 115.5 97.5Q128 110 128 128V171Q128 188 115.5 200.5Q103 213 85 213H43V256H128V299ZM363 85H320V128H363Z" />
      </g>
    </svg>