<svg xmlns="http://www.w3.org/2000/svg" viewBox="43 21 426 342">
      <g transform="scale(1 -1) translate(0 -384)">
        <path d="M427 363H85Q68 363 55.5 350.5Q43 338 43 320V64Q43 46 55.5 33.5Q68 21 85 21H427Q444 21 456.5 33.5Q469 46 469 64V320Q469 338 456.5 350.5Q444 363 427 363ZM166 102 135 71Q111 96 98.0 127.5Q85 159 85.0 192.0Q85 225 98.0 256.5Q111 288 135 313L165 283Q147 264 137.5 240.5Q128 217 128.0 192.0Q128 167 137.5 143.5Q147 120 166 102ZM256 107Q221 107 196.0 132.0Q171 157 171.0 192.0Q171 227 196.0 252.0Q221 277 256.0 277.0Q291 277 316.0 252.0Q341 227 341.0 192.0Q341 157 316.0 132.0Q291 107 256 107ZM377 71 347 101Q365 120 374.5 143.5Q384 167 384.0 192.0Q384 217 374.5 240.5Q365 264 346 282L377 313Q401 288 414.0 256.5Q427 225 427.0 192.0Q427 159 414.0 127.5Q401 96 377 71ZM256 235Q238 235 225.5 222.5Q213 210 213.0 192.0Q213 174 225.5 161.5Q238 149 256.0 149.0Q274 149 286.5 161.5Q299 174 299.0 192.0Q299 210 286.5 222.5Q274 235 256 235Z" />
      </g>
    </svg>