<svg xmlns="http://www.w3.org/2000/svg" viewBox="64 85 384 214">
      <g transform="scale(1 -1) translate(0 -384)">
        <path d="M64 299V256H149V213H107Q89 213 76.5 200.5Q64 188 64 171V85H192V128H107V171H149Q167 171 179.5 183.5Q192 196 192 213V256Q192 274 179.5 286.5Q167 299 149 299ZM277 85H235V128H277ZM363 299Q345 299 332.5 286.5Q320 274 320 256V128Q320 110 332.5 97.5Q345 85 363 85H405Q423 85 435.5 97.5Q448 110 448 128V256Q448 274 435.5 286.5Q423 299 405 299ZM363 256H405V128H363Z" />
      </g>
    </svg>