<svg xmlns="http://www.w3.org/2000/svg" viewBox="43 -21 426 426">
      <g transform="scale(1 -1) translate(0 -384)">
        <path d="M109 220H189L133 276Q117 276 105.5 287.5Q94 299 94.0 315.0Q94 331 105.5 342.5Q117 354 133.0 354.0Q149 354 160.5 342.5Q172 331 172 315L228 259V339Q217 350 217.0 366.0Q217 382 228.5 393.5Q240 405 256.0 405.0Q272 405 283.5 393.5Q295 382 295.0 366.0Q295 350 284 339V259L340 315Q340 332 351.5 343.0Q363 354 379.0 354.0Q395 354 406.5 342.5Q418 331 418.0 315.0Q418 299 406.5 287.5Q395 276 379 276L323 220H403Q414 231 430.0 231.0Q446 231 457.5 219.5Q469 208 469.0 192.0Q469 176 457.5 164.5Q446 153 430.0 153.0Q414 153 403 164H323L379 108Q396 108 407.0 96.5Q418 85 418.0 69.0Q418 53 406.5 41.5Q395 30 379.0 30.0Q363 30 351.5 41.0Q340 52 340 69L284 125V45Q295 34 295.0 18.0Q295 2 283.5 -9.5Q272 -21 256.0 -21.0Q240 -21 228.5 -9.5Q217 2 217.0 18.0Q217 34 228 45V125L172 69Q172 53 160.5 41.5Q149 30 133.0 30.0Q117 30 105.5 41.5Q94 53 94.0 69.0Q94 85 105.0 96.5Q116 108 133 108L189 164H109Q98 153 82.0 153.0Q66 153 54.5 164.5Q43 176 43.0 192.0Q43 208 54.5 219.5Q66 231 82.0 231.0Q98 231 109 220Z" />
      </g>
    </svg>