<svg xmlns="http://www.w3.org/2000/svg" viewBox="43 21 426 342">
      <g transform="scale(1 -1) translate(0 -384)">
        <path d="M384 363 299 277H363V107Q363 89 350.5 76.5Q338 64 320.0 64.0Q302 64 289.5 76.5Q277 89 277 107V277Q277 313 252.0 338.0Q227 363 192.0 363.0Q157 363 132.0 338.0Q107 313 107 277V107H43L128 21L213 107H149V277Q149 295 161.5 307.5Q174 320 192.0 320.0Q210 320 222.5 307.5Q235 295 235 277V107Q235 71 260.0 46.0Q285 21 320.0 21.0Q355 21 380.0 46.0Q405 71 405 107V277H469Z" />
      </g>
    </svg>