<svg xmlns="http://www.w3.org/2000/svg" viewBox="43 0 426 380">
      <g transform="scale(1 -1) translate(0 -380)">
        <path d="M43 64Q90 85 114 93Q153 107 185 107Q201 107 220 100Q232 96 256.0 85.5Q280 75 292 71Q311 64 327.0 64.0Q343 64 363 71Q375 75 398.5 85.5Q422 96 434 100Q454 107 469 107V43Q454 43 434 36Q422 32 398.5 21.5Q375 11 363 7Q343 0 327.0 0.0Q311 0 292 7Q280 11 256.0 21.5Q232 32 220 36Q201 43 185 43Q153 43 114 29Q90 21 43 0ZM185 171Q162 171 135 164L240 237L218 264Q213 270 213 277Q213 289 223 295L345 380L369 346L266 273L378 140Q348 128 327 128Q311 128 292 135Q280 139 256.0 149.5Q232 160 220 164Q201 171 185 171ZM384 299Q402 299 414.5 286.5Q427 274 427.0 256.0Q427 238 414.5 225.5Q402 213 384.0 213.0Q366 213 353.5 225.5Q341 238 341.0 256.0Q341 274 353.5 286.5Q366 299 384 299Z" />
      </g>
    </svg>