<svg xmlns="http://www.w3.org/2000/svg" viewBox="43 -21 426 426">
      <g transform="scale(1 -1) translate(0 -384)">
        <path d="M277 64H299Q308 64 314.0 58.0Q320 52 320 43H469V0H320Q320 -9 314.0 -15.0Q308 -21 299 -21H213Q204 -21 198.0 -15.0Q192 -9 192 0H43V43H192Q192 52 198.0 58.0Q204 64 213 64H235V107H171Q162 107 155.5 113.0Q149 119 149 128V384Q149 393 155.5 399.0Q162 405 171 405H341Q350 405 356.5 399.0Q363 393 363 384V128Q363 119 356.5 113.0Q350 107 341 107H277ZM277 320H299V363H277ZM192 363V320H235V363ZM192 277V235H235V277ZM192 192V149H235V192Z" />
      </g>
    </svg>