<svg xmlns="http://www.w3.org/2000/svg" viewBox="85 21 342 342">
      <g transform="scale(1 -1) translate(0 -384)">
        <path d="M171 363V320H85V277H136Q122 265 114.5 248.5Q107 232 107 213Q107 178 132.0 153.0Q157 128 192.0 128.0Q227 128 252.0 153.0Q277 178 277 213Q277 232 269.5 248.5Q262 265 248 277H299V320H213V363ZM320 363V107H363V213H427V256H363V363ZM192 256Q210 256 222.5 243.5Q235 231 235.0 213.0Q235 195 222.5 183.0Q210 171 192.0 171.0Q174 171 161.5 183.0Q149 195 149.0 213.0Q149 231 161.5 243.5Q174 256 192 256ZM149 107V21H363V64H192V107Z" />
      </g>
    </svg>