<svg xmlns="http://www.w3.org/2000/svg" viewBox="43 85 426 214">
      <g transform="scale(1 -1) translate(0 -384)">
        <path d="M43 299V149H85V299ZM128 299V256H213V213H171V149H213V171Q231 171 243.5 183.5Q256 196 256 213V256Q256 274 243.5 286.5Q231 299 213 299ZM337 299 333 256H299V213H329L324 171H299V128H320L316 85H358L363 128H393L388 85H431L435 128H469V171H439L444 213H469V256H448L452 299H410L405 256H375L380 299ZM371 213H401L397 171H367ZM43 128V85H85V128ZM171 128V85H213V128Z" />
      </g>
    </svg>