<svg xmlns="http://www.w3.org/2000/svg" viewBox="43 -21 426 426">
      <g transform="scale(1 -1) translate(0 -384)">
        <path d="M256 405Q214 405 174.5 389.0Q135 373 105.0 343.0Q75 313 59.0 273.5Q43 234 43.0 192.0Q43 150 59.0 110.5Q75 71 105.0 41.0Q135 11 174.5 -5.0Q214 -21 256.0 -21.0Q298 -21 337.5 -5.0Q377 11 407.0 41.0Q437 71 453.0 110.5Q469 150 469.0 192.0Q469 234 453.0 273.5Q437 313 407.0 343.0Q377 373 337.5 389.0Q298 405 256 405ZM349 326Q366 327 377.0 320.0Q388 313 388 302Q389 296 384.5 289.5Q380 283 372.0 282.5Q364 282 359.5 286.0Q355 290 355 297Q354 299 358 307L360 313Q360 317 356.0 318.0Q352 319 349 319Q328 318 316 292Q309 276 302 239L299 221Q323 217 337 226Q341 229 341.0 231.5Q341 234 338.0 239.0Q335 244 336 247Q337 253 341.0 256.0Q345 259 350.5 259.0Q356 259 359.5 254.0Q363 249 363 243Q363 231 349 222Q334 211 309 211Q304 211 297 212Q285 153 278 130Q266 96 247 73Q219 40 185 38Q169 38 159.0 45.0Q149 52 149.0 63.0Q149 74 156.0 80.5Q163 87 170.5 87.0Q178 87 183.5 82.0Q189 77 189.5 69.0Q190 61 183 58L182 57Q178 54 178.0 52.0Q178 50 179.5 48.5Q181 47 185 47Q193 47 203 54H204Q218 66 227 91Q234 111 242.5 157.0Q251 203 258 227Q254 230 245.5 237.5Q237 245 232 248Q224 254 215 256Q197 261 188 250Q183 243 184.0 235.5Q185 228 190 223Q209 202 215.0 191.0Q221 180 219 168Q216 147 195.0 136.0Q174 125 148 133Q127 140 118 154Q111 166 115 177Q117 184 122.5 186.5Q128 189 134.5 187.0Q141 185 143.5 178.5Q146 172 144 165L139 154Q136 146 152 141Q162 138 171.0 142.0Q180 146 182 155Q186 166 176 175Q160 193 154 206Q146 221 150.5 235.5Q155 250 166 258Q189 275 216 267Q227 264 236 257Q242 253 251 244L261 236Q274 273 295 297Q319 325 349 326Z" />
      </g>
    </svg>