<svg xmlns="http://www.w3.org/2000/svg" viewBox="21 0 470 384">
      <g transform="scale(1 -1) translate(0 -384)">
        <path d="M427 363Q399 363 381.0 344.5Q363 326 363 299V292L256 384L149 292V299Q149 326 131.0 344.5Q113 363 85.5 363.0Q58 363 39.5 344.5Q21 326 21 299V0H235V107Q235 116 240.5 122.0Q246 128 256.0 128.0Q266 128 271.5 122.0Q277 116 277 107V0H491V299Q491 326 472.5 344.5Q454 363 427 363ZM427 320Q435 320 441.5 314.0Q448 308 448 299V277H405V299Q405 308 411.5 314.0Q418 320 427 320ZM85 320Q95 320 101.0 314.0Q107 308 107 299V277H64V299Q64 308 70.5 314.0Q77 320 85 320ZM64 43V235H107V43ZM363 43H320V107Q320 132 301.0 151.5Q282 171 256.0 171.0Q230 171 211.0 151.5Q192 132 192 107V43H149V237L256 329L363 237ZM405 43V235H448V43ZM256 267Q269 267 278.5 257.0Q288 247 288.0 234.5Q288 222 278.5 212.5Q269 203 256.0 203.0Q243 203 233.5 212.5Q224 222 224.0 234.5Q224 247 233.5 257.0Q243 267 256 267Z" />
      </g>
    </svg>