<svg xmlns="http://www.w3.org/2000/svg" viewBox="21 0 470 384">
      <g transform="scale(1 -1) translate(0 -384)">
        <path d="M128 277V0H213V107Q213 124 225.5 136.5Q238 149 256.0 149.0Q274 149 286.5 136.5Q299 124 299 107V0H384V277L256 384ZM288 235Q288 222 278.5 212.5Q269 203 256.0 203.0Q243 203 233.5 212.5Q224 222 224.0 234.5Q224 247 233.5 257.0Q243 267 256.0 267.0Q269 267 278.5 257.0Q288 247 288 235ZM64 341Q46 341 33.5 328.5Q21 316 21 299V277H107V299Q107 316 94.5 328.5Q82 341 64 341ZM21 256H107V0H21ZM448 341Q430 341 417.5 328.5Q405 316 405 299V277H491V299Q491 316 478.5 328.5Q466 341 448 341ZM405 256H491V0H405Z" />
      </g>
    </svg>