<svg xmlns="http://www.w3.org/2000/svg" viewBox="85 -43 342 470">
      <g transform="scale(1 -1) translate(0 -384)">
        <path d="M256 64Q221 64 191.5 81.0Q162 98 145.0 127.5Q128 157 128 192Q128 224 143 252L112 283Q85 241 85 192Q85 146 108.0 106.5Q131 67 170.5 44.0Q210 21 256 21V-43L341 43L256 128ZM256 363V427L171 341L256 256V320Q291 320 320.5 303.0Q350 286 367.0 256.5Q384 227 384 192Q384 160 369 132L400 101Q427 143 427 192Q427 238 404.0 277.5Q381 317 341.5 340.0Q302 363 256 363Z" />
      </g>
    </svg>