<svg xmlns="http://www.w3.org/2000/svg" viewBox="64 21 384 342">
      <g transform="scale(1 -1) translate(0 -384)">
        <path d="M235 171H277V299H235ZM448 363H320V235L368 282Q385 265 395.0 241.5Q405 218 405 192Q405 151 381.5 118.0Q358 85 320 71V27Q376 41 412.0 87.0Q448 133 448 192Q448 227 434.5 258.0Q421 289 398 312ZM235 85H277V128H235ZM64 192Q64 157 77.5 126.0Q91 95 114 72L64 21H192V149L144 102Q127 119 117.0 142.5Q107 166 107 192Q107 233 130.5 266.0Q154 299 192 313V357Q136 343 100.0 297.0Q64 251 64 192Z" />
      </g>
    </svg>