<svg xmlns="http://www.w3.org/2000/svg" viewBox="43 -21 426 426">
      <g transform="scale(1 -1) translate(0 -384)">
        <path d="M43 192Q43 134 71.5 85.0Q100 36 149.0 7.5Q198 -21 256.0 -21.0Q314 -21 363.0 7.5Q412 36 440.5 85.0Q469 134 469.0 192.0Q469 250 440.5 299.0Q412 348 363.0 376.5Q314 405 256 405Q214 405 174.5 389.0Q135 373 105.0 343.0Q75 313 59.0 273.5Q43 234 43 192ZM333 155Q341 173 341 192Q341 227 316.0 252.0Q291 277 256 277V235L189 299L256 363V320Q291 320 320.5 303.0Q350 286 367.0 256.5Q384 227 384.0 191.0Q384 155 364 124ZM128 192Q128 229 148 260L179 229Q171 211 171 192Q171 157 196.0 132.0Q221 107 256 107V149L320 85L256 21V64Q221 64 191.5 81.0Q162 98 145.0 127.5Q128 157 128 192Z" />
      </g>
    </svg>