<svg xmlns="http://www.w3.org/2000/svg" viewBox="13 -30 478 414">
      <g transform="scale(1 -1) translate(0 -354)">
        <path d="M160 213Q120 213 92.0 185.0Q64 157 64 117Q64 89 79 66L13 0L43 -30L109 36Q133 21 160 21Q200 21 228.0 49.0Q256 77 256.0 117.0Q256 157 228.0 185.0Q200 213 160 213ZM160 64Q138 64 122.5 79.5Q107 95 107.0 117.0Q107 139 122.5 155.0Q138 171 160.0 171.0Q182 171 197.5 155.0Q213 139 213.0 117.0Q213 95 197.5 79.5Q182 64 160 64ZM491 341V43Q491 25 478.5 12.5Q466 0 448 0H234Q260 16 277 43H448V256H277V341H64V217Q44 198 32.5 172.0Q21 146 21 117V341Q21 359 33.5 371.5Q46 384 64 384H448Q466 384 478.5 371.5Q491 359 491 341Z" />
      </g>
    </svg>