<svg xmlns="http://www.w3.org/2000/svg" viewBox="21 0 470 384">
      <g transform="scale(1 -1) translate(0 -384)">
        <path d="M21 256H64V299H21ZM21 171H64V213H21ZM21 341H64V384Q46 384 33.5 371.5Q21 359 21 341ZM192 0H235V43H192ZM21 85H64V128H21ZM64 0V43H21Q21 25 33.5 12.5Q46 0 64 0ZM448 384H277V256H491V341Q491 359 478.5 371.5Q466 384 448 384ZM448 85H491V128H448ZM192 341H235V384H192ZM107 0H149V43H107ZM107 341H149V384H107ZM448 0Q466 0 478.5 12.5Q491 25 491 43H448ZM448 171H491V213H448ZM277 0H320V43H277ZM363 0H405V43H363Z" />
      </g>
    </svg>