<svg xmlns="http://www.w3.org/2000/svg" viewBox="21 -43 466 427">
      <g transform="scale(1 -1) translate(0 -341)">
        <path d="M64 384H363Q380 384 392.5 371.5Q405 359 405 341V190Q381 194 357.0 189.0Q333 184 313 171H235V85H258Q254 64 258 43H64Q46 43 33.5 55.5Q21 68 21 85V341Q21 359 33.5 371.5Q46 384 64 384ZM64 299V213H192V299ZM235 299V213H363V299ZM64 171V85H192V171ZM486 36 463 53 464 64Q464 70 463 75L486 92Q489 95 487 99L466 136Q464 139 459 139L433 128H432Q421 136 415 138L410 166Q410 171 405 171H363Q358 171 357 166L353 138Q344 134 335 128L309 139Q304 139 302 136L281 99Q279 95 282 92L305 75Q304 69 304.0 64.0Q304 59 305 53L282 36Q279 33 281 29L302 -8Q303 -11 309 -11L335 0Q345 -7 353 -10L357 -38Q358 -43 363 -43H405Q410 -43 411 -38L415 -10Q422 -7 433 0L459 -11Q464 -11 466 -8L487 29Q489 33 486 36ZM384 32Q371 32 361.5 41.5Q352 51 352.0 64.0Q352 77 361.5 86.5Q371 96 384.0 96.0Q397 96 406.5 86.5Q416 77 416.0 64.0Q416 51 406.5 41.5Q397 32 384 32Z" />
      </g>
    </svg>