<svg xmlns="http://www.w3.org/2000/svg" viewBox="43 -21 426 426">
      <g transform="scale(1 -1) translate(0 -384)">
        <path d="M469 128H427V64Q427 46 414.5 33.5Q402 21 384 21H320V-21L256 43L320 107V64H384V128H341L405 192ZM469 363V277Q469 260 456.5 247.5Q444 235 427 235H213V21Q213 4 200.5 -8.5Q188 -21 171 -21H85Q68 -21 55.5 -8.5Q43 4 43 21V363Q43 380 55.5 392.5Q68 405 85 405H427Q444 405 456.5 392.5Q469 380 469 363ZM85 277H171V363H85ZM85 235V149H171V235ZM171 21V107H85V21ZM299 277V363H213V277ZM427 363H341V277H427Z" />
      </g>
    </svg>