<svg xmlns="http://www.w3.org/2000/svg" viewBox="43 -28 448 412">
      <g transform="scale(1 -1) translate(0 -356)">
        <path d="M85 384H384Q402 384 414.5 371.5Q427 359 427 341V190Q402 194 378.5 189.0Q355 184 335 171H256V85H279Q276 64 279 43H85Q68 43 55.5 55.5Q43 68 43 85V341Q43 359 55.5 371.5Q68 384 85 384ZM85 299V213H213V299ZM256 299V213H384V299ZM85 171V85H213V171ZM405 -28 393 -17 383 -8Q349 25 337 39Q320 61 320.0 80.5Q320 100 334.0 114.0Q348 128 367 128Q378 128 388.5 123.5Q399 119 405 111Q412 119 422.0 123.5Q432 128 444 128Q463 128 477.0 115.0Q491 102 491.0 81.5Q491 61 473 39Q462 25 428 -8L418 -17Z" />
      </g>
    </svg>