<svg xmlns="http://www.w3.org/2000/svg" viewBox="43 0 423 405">
      <g transform="scale(1 -1) translate(0 -405)">
        <path d="M463 163 442 142 398 186 419 207Q423 210 427.5 210.0Q432 210 436 207L463 180Q466 176 466.0 171.5Q466 167 463 163ZM256 44 385 173 429 129 300 0H256ZM85 405H384Q402 405 414.5 392.5Q427 380 427 363V274L345 192H256V103L217 64H85Q68 64 55.5 76.5Q43 89 43 107V363Q43 380 55.5 392.5Q68 405 85 405ZM85 320V235H213V320ZM256 320V235H384V320ZM85 192V107H213V192Z" />
      </g>
    </svg>