<svg xmlns="http://www.w3.org/2000/svg" viewBox="43 -19 448 403">
      <g transform="scale(1 -1) translate(0 -365)">
        <path d="M363 88Q372 88 378.0 82.0Q384 76 384.0 67.0Q384 58 378.0 51.5Q372 45 363.0 45.0Q354 45 347.5 51.5Q341 58 341.0 66.5Q341 75 347.5 81.5Q354 88 363 88ZM363 152Q406 152 440.5 128.5Q475 105 491 67Q475 29 440.5 5.0Q406 -19 363.0 -19.0Q320 -19 285.0 5.0Q250 29 235 67Q250 105 285.0 128.5Q320 152 363 152ZM363 120Q341 120 325.0 104.5Q309 89 309.0 66.5Q309 44 325.0 28.5Q341 13 363.0 13.0Q385 13 400.5 28.5Q416 44 416.0 66.5Q416 89 400.5 104.5Q385 120 363 120ZM384 384H85Q68 384 55.5 371.5Q43 359 43 341V85Q43 68 55.5 55.5Q68 43 85 43H201Q196 52 192 64Q196 76 201 85H85V171H213V107Q231 134 256 154V171H281Q319 192 363 192Q396 192 427 179V341Q427 359 414.5 371.5Q402 384 384 384ZM213 213H85V299H213ZM384 213H256V299H384Z" />
      </g>
    </svg>