<svg xmlns="http://www.w3.org/2000/svg" viewBox="43 -42 447 469">
      <g transform="scale(1 -1) translate(0 -385)">
        <path d="M363 0 401 -38Q409 -45 418.0 -41.0Q427 -37 427 -27V64L486 137Q494 148 488.0 159.5Q482 171 469 171H320Q307 171 301.0 158.5Q295 146 303 137L363 64ZM256 213H427V384Q427 402 414.5 414.5Q402 427 384 427H85Q68 427 55.5 414.5Q43 402 43 384V128Q43 110 55.5 97.5Q68 85 85 85H286L256 128ZM256 341H384V256H256ZM213 128H85V213H213ZM213 256H85V341H213Z" />
      </g>
    </svg>