<svg xmlns="http://www.w3.org/2000/svg" viewBox="64 -30 414 393">
      <g transform="scale(1 -1) translate(0 -333)">
        <path d="M412 66Q426 88 426.5 114.0Q427 140 415.5 162.5Q404 185 382.0 199.0Q360 213 334.0 213.5Q308 214 285.5 202.5Q263 191 249.0 169.0Q235 147 234.5 121.0Q234 95 245.5 72.5Q257 50 280.0 36.0Q303 22 330.5 22.0Q358 22 382 36L448 -30L478 0ZM369 80Q353 64 331.0 64.0Q309 64 293.5 79.5Q278 95 278.0 117.0Q278 139 293.5 155.0Q309 171 331.0 171.0Q353 171 368.5 155.0Q384 139 384.0 117.0Q384 95 368 80ZM405 363H107Q89 363 76.5 350.5Q64 338 64 320V64Q64 46 76.5 33.5Q89 21 107 21H231Q212 40 203 64H107V149H196Q201 173 213 192H107V277H235V217Q254 236 277 245V277H405V235Q418 227 429.0 216.0Q440 205 448 192V320Q448 338 435.5 350.5Q423 363 405 363Z" />
      </g>
    </svg>