<svg xmlns="http://www.w3.org/2000/svg" viewBox="64 -21 384 426">
      <g transform="scale(1 -1) translate(0 -384)">
        <path d="M395 149Q417 149 432.5 133.5Q448 118 448.0 96.0Q448 74 432.5 58.5Q417 43 394.5 43.0Q372 43 356.5 58.5Q341 74 341.0 96.0Q341 118 356.5 133.5Q372 149 395 149ZM149 128Q152 125 155 122Q161 114 165 106Q171 95 171 85V11Q171 -2 180.5 -11.5Q190 -21 202.5 -21.0Q215 -21 225.0 -11.5Q235 -2 235 11V85Q235 95 240 106Q244 114 250 122L256 128ZM171 149H235L251 151Q271 154 288 163Q311 174 325 194Q341 219 341 256Q341 306 317 342Q297 373 262 390Q232 405 202.5 405.0Q173 405 143 390Q109 373 88 342Q64 306 64 256Q64 209 92 181Q111 161 143 153Q159 149 171 149Z" />
      </g>
    </svg>