<svg xmlns="http://www.w3.org/2000/svg" viewBox="43 -21 448 405">
      <g transform="scale(1 -1) translate(0 -363)">
        <path d="M85 384H384Q402 384 414.5 371.5Q427 359 427 341V190Q402 194 378.5 189.0Q355 184 335 171H256V85H279Q276 64 279 43H85Q68 43 55.5 55.5Q43 68 43 85V341Q43 359 55.5 371.5Q68 384 85 384ZM85 299V213H213V299ZM256 299V213H384V299ZM85 171V85H213V171ZM491 -21V0Q491 19 459 32Q432 43 405.5 43.0Q379 43 352 32Q320 19 320 0V-21ZM405 149Q388 149 375.5 136.5Q363 124 363.0 106.5Q363 89 375.5 76.5Q388 64 405.5 64.0Q423 64 435.5 76.5Q448 89 448.0 106.5Q448 124 435.5 136.5Q423 149 405 149Z" />
      </g>
    </svg>