<svg xmlns="http://www.w3.org/2000/svg" viewBox="43 -32 426 416">
      <g transform="scale(1 -1) translate(0 -352)">
        <path d="M384 139Q419 139 444 114L469 139V53H384L422 91Q406 107 384.0 107.0Q362 107 346.5 91.0Q331 75 331.0 53.0Q331 31 346.5 15.5Q362 0 384 0Q397 0 408.0 5.5Q419 11 427 21H463Q454 -3 432.5 -17.5Q411 -32 384 -32Q349 -32 324.0 -7.0Q299 18 299.0 53.5Q299 89 324.0 114.0Q349 139 384 139ZM85 384H384Q402 384 414.5 371.5Q427 359 427 341V188Q410 192 395 192Q355 192 321 171H256V85H260Q256 69 256 53V43H85Q68 43 55.5 55.5Q43 68 43 85V341Q43 359 55.5 371.5Q68 384 85 384ZM85 299V213H213V299ZM256 299V213H384V299ZM85 171V85H213V171Z" />
      </g>
    </svg>