<svg xmlns="http://www.w3.org/2000/svg" viewBox="43 -21 426 384">
      <g transform="scale(1 -1) translate(0 -342)">
        <path d="M448 107V117Q448 139 432.5 155.0Q417 171 395.0 171.0Q373 171 357.0 155.0Q341 139 341 117V107Q333 107 326.5 100.5Q320 94 320 85V0Q320 -9 326.5 -15.0Q333 -21 341 -21H448Q457 -21 463.0 -15.0Q469 -9 469 0V85Q469 94 463.0 100.5Q457 107 448 107ZM427 107H363V117Q363 131 372.0 140.0Q381 149 394.5 149.0Q408 149 417.5 140.0Q427 131 427 117ZM277 64H256V149H304Q314 176 335 192H256V277H384V212L395 213Q410 213 427 208V320Q427 338 414.5 350.5Q402 363 384 363H85Q68 363 55.5 350.5Q43 338 43 320V64Q43 46 55.5 33.5Q68 21 85 21H277ZM213 64H85V149H213ZM213 192H85V277H213Z" />
      </g>
    </svg>