<svg xmlns="http://www.w3.org/2000/svg" viewBox="43 -43 426 470">
      <g transform="scale(1 -1) translate(0 -384)">
        <path d="M320 21Q320 30 313.5 36.5Q307 43 299 43H277V85H405Q423 85 435.5 97.5Q448 110 448 128V384Q448 402 435.5 414.5Q423 427 405 427H107Q89 427 76.5 414.5Q64 402 64 384V128Q64 110 76.5 97.5Q89 85 107 85H235V43H213Q205 43 198.5 36.5Q192 30 192 21H43V-21H192Q192 -30 198.5 -36.5Q205 -43 213 -43H299Q307 -43 313.5 -36.5Q320 -30 320 -21H469V21ZM277 341H405V256H277ZM277 213H405V128H277ZM107 341H235V256H107ZM107 128V213H235V128Z" />
      </g>
    </svg>