<svg xmlns="http://www.w3.org/2000/svg" viewBox="64 21 384 342">
      <g transform="scale(1 -1) translate(0 -384)">
        <path d="M448 43Q448 34 442.0 27.5Q436 21 427 21H405V64H448ZM320 21V64H363V21ZM235 21V64H277V21ZM149 21V64H192V21ZM85 21Q76 21 70.0 27.5Q64 34 64 43V64H107V21ZM405 363H107Q89 363 76.5 350.5Q64 338 64 320V277H448V320Q448 338 435.5 350.5Q423 363 405 363ZM107 149H64V107H107ZM107 235H64V192H107ZM448 235H405V192H448ZM448 149H405V107H448ZM235 107V149H277V107ZM235 192V235H277V192Z" />
      </g>
    </svg>