<svg xmlns="http://www.w3.org/2000/svg" viewBox="43 0 448 363">
      <g transform="scale(1 -1) translate(0 -363)">
        <path d="M358 85Q352 105 335.5 116.5Q319 128 299 128Q271 128 253.0 109.5Q235 91 235.0 64.0Q235 37 253.0 18.5Q271 0 299 0Q319 0 335.5 11.5Q352 23 358 43H405V0H448V43H491V85ZM299 43Q289 43 283.0 49.5Q277 56 277.0 64.0Q277 72 283.0 78.5Q289 85 298.5 85.0Q308 85 314.0 78.5Q320 72 320.0 64.0Q320 56 314.0 49.5Q308 43 299 43ZM192 64H85V149H213V128Q228 148 250.5 159.5Q273 171 299 171Q331 171 363 149H384V128H427V320Q427 338 414.5 350.5Q402 363 384 363H85Q68 363 55.5 350.5Q43 338 43 320V64Q43 46 55.5 33.5Q68 21 85 21H201Q192 38 192 64ZM256 277H384V192H256ZM85 277H213V192H85Z" />
      </g>
    </svg>