<svg xmlns="http://www.w3.org/2000/svg" viewBox="43 -43 448 427">
      <g transform="scale(1 -1) translate(0 -341)">
        <path d="M352 111 404 80 388 53 320 92V171H352ZM427 229V341Q427 359 414.5 371.5Q402 384 384 384H85Q68 384 55.5 371.5Q43 359 43 341V85Q43 68 55.5 55.5Q68 43 85 43H207Q225 4 261.0 -19.5Q297 -43 341 -43Q382 -43 416.5 -23.0Q451 -3 471.0 31.5Q491 66 491 107Q491 144 473.5 176.0Q456 208 427 229ZM384 299V250Q362 256 341 256Q294 256 256 229V299ZM85 299H213V213H85ZM85 85V171H207Q192 140 192 107Q192 97 194 85ZM341 0Q312 0 287.5 14.5Q263 29 249.0 53.5Q235 78 235.0 107.0Q235 136 249.0 160.5Q263 185 287.5 199.0Q312 213 341.0 213.0Q370 213 394.5 199.0Q419 185 433.5 160.5Q448 136 448.0 107.0Q448 78 433.5 53.5Q419 29 394.5 14.5Q370 0 341 0Z" />
      </g>
    </svg>