<svg xmlns="http://www.w3.org/2000/svg" viewBox="21 -37 470 448">
      <g transform="scale(1 -1) translate(0 -374)">
        <path d="M51 411 24 384 48 359Q36 355 28.5 344.0Q21 333 21 320V43Q21 25 33.5 12.5Q46 0 64 0H192V213H194L271 136Q247 115 235 85Q251 46 286.0 23.0Q321 0 363 0Q383 0 402 6L445 -37L472 -10L439 23ZM149 43H64V107H149ZM149 149H64V213H149ZM149 256H64V320H88L149 258ZM363 32Q337 32 321.0 52.0Q305 72 311 97L375 33Q369 32 363 32ZM346 171 381 136Q404 128 413 104L468 49Q482 65 491 85Q475 124 440.0 147.5Q405 171 363 171ZM277 320V256H260L303 213H448V320Q448 338 435.5 350.5Q423 363 405 363H154L196 320ZM320 320H405V256H320Z" />
      </g>
    </svg>