<svg xmlns="http://www.w3.org/2000/svg" viewBox="21 0 470 363">
      <g transform="scale(1 -1) translate(0 -363)">
        <path d="M21 320V43Q21 25 33.5 12.5Q46 0 64 0H192V213H448V320Q448 338 435.5 350.5Q423 363 405 363H64Q46 363 33.5 350.5Q21 338 21 320ZM64 320H149V256H64ZM149 43H64V107H149ZM149 149H64V213H149ZM192 256V320H277V256ZM405 256H320V320H405ZM363 107Q372 107 378.0 100.5Q384 94 384.0 85.0Q384 76 378.0 70.0Q372 64 363.0 64.0Q354 64 347.5 70.0Q341 76 341.0 85.0Q341 94 347.5 100.5Q354 107 363 107ZM363 171Q405 171 440.0 147.5Q475 124 491 85Q475 47 440.0 23.5Q405 0 363.0 0.0Q321 0 286.0 23.5Q251 47 235 85Q251 124 286.0 147.5Q321 171 363 171ZM363 139Q341 139 325.0 123.0Q309 107 309.0 85.0Q309 63 325.0 47.5Q341 32 363.0 32.0Q385 32 400.5 47.5Q416 63 416.0 85.0Q416 107 400.5 123.0Q385 139 363 139Z" />
      </g>
    </svg>