<svg xmlns="http://www.w3.org/2000/svg" viewBox="43 -21 426 405">
      <g transform="scale(1 -1) translate(0 -363)">
        <path d="M416 11V-21H384V11ZM373 117H341V128Q341 155 360.0 173.5Q379 192 405.5 192.0Q432 192 450.5 173.5Q469 155 469 128Q469 113 462.0 99.0Q455 85 442 77L435 73Q416 59 416 36V32H384V36Q384 55 393.0 72.0Q402 89 418 99L424 103Q437 112 437 128Q437 141 428.0 150.5Q419 160 405.5 160.0Q392 160 382.5 150.5Q373 141 373 128ZM384 384H85Q68 384 55.5 371.5Q43 359 43 341V85Q43 68 55.5 55.5Q68 43 85 43H299V85H256V171H308Q319 197 342 213H256V299H384V233Q395 235 405.0 235.0Q415 235 427 233V341Q427 359 414.5 371.5Q402 384 384 384ZM213 85H85V171H213ZM213 213H85V299H213Z" />
      </g>
    </svg>