<svg xmlns="http://www.w3.org/2000/svg" viewBox="43 -43 448 427">
      <g transform="scale(1 -1) translate(0 -341)">
        <path d="M405 192V160Q441 160 466.0 135.0Q491 110 491 75Q491 48 476 28L453 51Q459 62 459 75Q459 97 443.0 112.5Q427 128 405 128V96L357 144ZM405 -43V-11Q370 -11 345.0 14.0Q320 39 320 75Q320 100 334 122L358 99Q352 87 352 75Q352 53 367.5 37.0Q383 21 405 21V53L453 5ZM85 384H384Q402 384 414.5 371.5Q427 359 427 341V213H416Q387 213 361.0 202.0Q335 191 316 171H256V85H277V75Q277 59 281 43H85Q68 43 55.5 55.5Q43 68 43 85V341Q43 359 55.5 371.5Q68 384 85 384ZM85 299V213H213V299ZM256 299V213H384V299ZM85 171V85H213V171Z" />
      </g>
    </svg>