<svg xmlns="http://www.w3.org/2000/svg" viewBox="21 -43 470 427">
      <g transform="scale(1 -1) translate(0 -341)">
        <path d="M64 384H363Q380 384 392.5 371.5Q405 359 405 341V190Q381 194 357.0 189.0Q333 184 313 171H235V85H258Q254 64 258 43H64Q46 43 33.5 55.5Q21 68 21 85V341Q21 359 33.5 371.5Q46 384 64 384ZM64 299V213H192V299ZM235 299V213H363V299ZM64 171V85H192V171ZM395 149Q355 149 327.0 121.0Q299 93 299.0 53.0Q299 13 327.0 -15.0Q355 -43 395.0 -43.0Q435 -43 463.0 -15.0Q491 13 491.0 53.0Q491 93 463.0 121.0Q435 149 395 149ZM395 -11Q368 -11 349.5 8.0Q331 27 331 53Q331 71 340 85L427 -2Q413 -11 395 -11ZM450 21 363 108Q377 117 395 117Q421 117 440.0 98.5Q459 80 459 53Q459 35 450 21Z" />
      </g>
    </svg>