<svg xmlns="http://www.w3.org/2000/svg" viewBox="21 64 470 256">
      <g transform="scale(1 -1) translate(0 -384)">
        <path d="M405 64H107Q71 64 46.0 89.0Q21 114 21 149Q21 196 44.0 235.0Q67 274 106.5 297.0Q146 320 192 320Q225 320 256 308Q287 320 320 320Q366 320 405.5 297.0Q445 274 468.0 235.0Q491 196 491 149Q491 114 466.0 89.0Q441 64 405 64ZM64 149Q64 132 76.5 119.5Q89 107 106.5 107.0Q124 107 136.5 119.5Q149 132 149 149Q149 187 164.5 220.0Q180 253 206 276L192 277Q167 277 143.0 267.5Q119 258 101.0 240.0Q83 222 73.5 198.5Q64 175 64 149ZM405 107Q423 107 435.5 119.5Q448 132 448 149Q448 175 438.5 198.5Q429 222 411.0 240.0Q393 258 369.0 267.5Q345 277 320.0 277.0Q295 277 271.0 267.5Q247 258 229.0 240.0Q211 222 201.5 198.5Q192 175 192 149Q192 126 180 107Z" />
      </g>
    </svg>