<svg xmlns="http://www.w3.org/2000/svg" viewBox="43 -21 426 426">
      <g transform="scale(1 -1) translate(0 -384)">
        <path d="M457 201 265 393Q252 405 235 405H85Q68 405 55.5 392.5Q43 380 43 363V213Q43 196 55 183L64 175Q93 192 128.0 192.0Q163 192 192.5 175.0Q222 158 239.0 128.5Q256 99 256.0 64.0Q256 29 239 0L247 -9Q260 -21 277.5 -21.0Q295 -21 307 -9L457 141Q469 153 469.0 170.5Q469 188 457 201ZM117 299Q104 299 94.5 308.0Q85 317 85.0 330.5Q85 344 94.5 353.5Q104 363 117.5 363.0Q131 363 140.0 353.5Q149 344 149.0 330.5Q149 317 140.0 308.0Q131 299 117 299ZM213 43H43V85H213Z" />
      </g>
    </svg>