<svg xmlns="http://www.w3.org/2000/svg" viewBox="43 -21 426 426">
      <g transform="scale(1 -1) translate(0 -384)">
        <path d="M457 201 265 393Q252 405 235 405H85Q68 405 55.5 392.5Q43 380 43 363V213Q43 196 55 183L247 -9Q260 -21 277.5 -21.0Q295 -21 307 -9L457 141Q469 153 469.0 170.5Q469 188 457 201ZM139 277Q125 277 116.0 286.5Q107 296 107.0 309.5Q107 323 116.0 332.0Q125 341 138.5 341.0Q152 341 161.5 332.0Q171 323 171.0 309.5Q171 296 161.5 286.5Q152 277 139 277ZM247 119 162 205 192 235 277 149ZM333 141 215 258 245 288 363 171Z" />
      </g>
    </svg>