<svg xmlns="http://www.w3.org/2000/svg" viewBox="43 -21 426 426">
      <g transform="scale(1 -1) translate(0 -384)">
        <path d="M139 341Q125 341 116.0 332.0Q107 323 107.0 309.5Q107 296 116.0 286.5Q125 277 138.5 277.0Q152 277 161.5 286.5Q171 296 171.0 309.5Q171 323 161.5 332.0Q152 341 139 341ZM139 341Q125 341 116.0 332.0Q107 323 107.0 309.5Q107 296 116.0 286.5Q125 277 138.5 277.0Q152 277 161.5 286.5Q171 296 171.0 309.5Q171 323 161.5 332.0Q152 341 139 341ZM457 201 265 393Q252 405 235 405H85Q68 405 55.5 392.5Q43 380 43 363V213Q43 196 55 183L64 175Q85 187 108 190L85 213V363H235L427 171L277 21L254 44Q251 21 239 0L247 -9Q260 -21 277.5 -21.0Q295 -21 307 -9L457 141Q469 153 469.0 170.5Q469 188 457 201ZM139 341Q125 341 116.0 332.0Q107 323 107.0 309.5Q107 296 116.0 286.5Q125 277 138.5 277.0Q152 277 161.5 286.5Q171 296 171.0 309.5Q171 323 161.5 332.0Q152 341 139 341ZM173 -12 128 34 83 -12 52 19 98 64 52 109 83 140 128 94 173 140 204 109 158 64 204 19Z" />
      </g>
    </svg>