<svg xmlns="http://www.w3.org/2000/svg" viewBox="43 -41 446 446">
      <g transform="scale(1 -1) translate(0 -364)">
        <path d="M139 341Q125 341 116.0 332.0Q107 323 107.0 309.5Q107 296 116.0 286.5Q125 277 138.5 277.0Q152 277 161.5 286.5Q171 296 171.0 309.5Q171 323 161.5 332.0Q152 341 139 341ZM139 341Q125 341 116.0 332.0Q107 323 107.0 309.5Q107 296 116.0 286.5Q125 277 138.5 277.0Q152 277 161.5 286.5Q171 296 171.0 309.5Q171 323 161.5 332.0Q152 341 139 341ZM391 267 489 364 459 395 53 -11 84 -41 181 57 247 -9Q260 -21 277.5 -21.0Q295 -21 307 -9L457 141Q469 153 469.0 170.5Q469 188 457 201ZM277 21 212 87 361 236 427 171ZM120 119 149 149 85 213V363H235L300 297L330 327L265 393Q252 405 235 405H85Q68 405 55.5 392.5Q43 380 43 363V213Q43 196 55 183ZM107 309Q107 296 116.0 286.5Q125 277 138.5 277.0Q152 277 161.5 286.5Q171 296 171.0 309.5Q171 323 161.5 332.0Q152 341 138.5 341.0Q125 341 116.0 332.0Q107 323 107 309Z" />
      </g>
    </svg>