<svg xmlns="http://www.w3.org/2000/svg" viewBox="43 -21 426 426">
      <g transform="scale(1 -1) translate(0 -384)">
        <path d="M457 201 265 393Q252 405 235 405H85Q68 405 55.5 392.5Q43 380 43 363V213Q43 195 55 183L247 -9Q260 -21 277.5 -21.0Q295 -21 307 -9L316 0Q282 1 253.5 18.5Q225 36 208.5 65.0Q192 94 192.0 128.5Q192 163 209.0 192.5Q226 222 255.5 239.0Q285 256 319.5 256.0Q354 256 383.0 239.5Q412 223 429.5 194.5Q447 166 448 132L457 141Q469 153 469.0 170.5Q469 188 457 201ZM117 299Q104 299 94.5 308.0Q85 317 85.0 330.5Q85 344 94.5 353.5Q104 363 117.5 363.0Q131 363 140.0 353.5Q149 344 149.0 330.5Q149 317 140.0 308.0Q131 299 117 299ZM322 222Q362 222 390.0 194.0Q418 166 418 126Q418 97 404 75L469 8L440 -21L373 44Q350 30 322 30Q282 30 254.0 58.0Q226 86 226.0 126.0Q226 166 254.0 194.0Q282 222 322 222ZM322 179Q300 179 284.5 163.5Q269 148 269.0 126.0Q269 104 284.5 88.0Q300 72 322.0 72.0Q344 72 360.0 87.5Q376 103 376.0 125.5Q376 148 360.5 163.5Q345 179 322 179Z" />
      </g>
    </svg>