<svg xmlns="http://www.w3.org/2000/svg" viewBox="43 -21 426 426">
      <g transform="scale(1 -1) translate(0 -384)">
        <path d="M469 171Q469 153 457 141L448 132Q447 177 417.5 211.0Q388 245 344 254L235 363H85V213L194 104Q203 60 237.0 30.5Q271 1 316 0L307 -9Q295 -21 277.5 -21.0Q260 -21 247 -9L55 183Q43 196 43 213V363Q43 380 55.5 392.5Q68 405 85 405H235Q252 405 265 393L457 201Q469 188 469 171ZM107 309Q107 296 116.0 286.5Q125 277 138.5 277.0Q152 277 161.5 286.5Q171 296 171.0 309.5Q171 323 161.5 332.0Q152 341 138.5 341.0Q125 341 116.0 332.0Q107 323 107 309ZM322 222Q282 222 254.0 194.0Q226 166 226.0 126.0Q226 86 254.0 58.0Q282 30 322 30Q350 30 373 44L440 -21L469 8L404 75Q418 97 418 126Q418 166 390.0 194.0Q362 222 322 222ZM322 179Q345 179 360.5 163.5Q376 148 376.0 126.0Q376 104 360.5 88.0Q345 72 322.5 72.0Q300 72 284.5 87.5Q269 103 269.0 125.5Q269 148 284.5 163.5Q300 179 322 179Z" />
      </g>
    </svg>