<svg xmlns="http://www.w3.org/2000/svg" viewBox="43 -21 426 426">
      <g transform="scale(1 -1) translate(0 -384)">
        <path d="M85 405Q68 405 55.5 392.5Q43 380 43 363V213Q43 196 55 183L247 -9Q260 -21 277.5 -21.0Q295 -21 307 -9L457 141Q469 153 469.0 170.5Q469 188 457 201L265 393Q252 405 235 405ZM235 363 427 171 277 21 85 213V363ZM139 341Q125 341 116.0 332.0Q107 323 107.0 309.5Q107 296 116.0 286.5Q125 277 138.5 277.0Q152 277 161.5 286.5Q171 296 171.0 309.5Q171 323 161.5 332.0Q152 341 139 341ZM234 224Q216 224 203.0 211.0Q190 198 190.0 180.0Q190 162 203 149L277 75L352 149Q365 162 365.0 180.0Q365 198 352.0 211.0Q339 224 321.0 224.0Q303 224 290 211L277 198L265 211Q252 224 234 224Z" />
      </g>
    </svg>