<svg xmlns="http://www.w3.org/2000/svg" viewBox="43 -41 446 446">
      <g transform="scale(1 -1) translate(0 -364)">
        <path d="M391 267 489 364 459 395 53 -11 84 -41 181 57 247 -9Q260 -21 277.5 -21.0Q295 -21 307 -9L457 141Q469 153 469.0 170.5Q469 188 457 201ZM120 119 330 327 265 393Q252 405 235 405H85Q68 405 55.5 392.5Q43 380 43 363V213Q43 196 55 183ZM117 363Q131 363 140.0 353.5Q149 344 149.0 330.5Q149 317 140.0 308.0Q131 299 117.5 299.0Q104 299 94.5 308.0Q85 317 85.0 330.5Q85 344 94.5 353.5Q104 363 117 363Z" />
      </g>
    </svg>