<svg xmlns="http://www.w3.org/2000/svg" viewBox="43 -21 426 426">
      <g transform="scale(1 -1) translate(0 -384)">
        <path d="M457 201 265 393Q252 405 235 405H85Q68 405 55.5 392.5Q43 380 43 363V213Q43 196 55 183L247 -9Q260 -21 277.0 -21.0Q294 -21 307 -9L457 141Q469 154 469.0 171.0Q469 188 457 201ZM277 21 85 213V363H235L427 171ZM139 341Q151 341 161.0 331.5Q171 322 171.0 309.5Q171 297 161.0 287.0Q151 277 138.5 277.0Q126 277 116.5 287.0Q107 297 107.0 309.5Q107 322 116.5 331.5Q126 341 139 341ZM215 258 245 288 363 171 333 141ZM162 205 192 235 277 149 247 119Z" />
      </g>
    </svg>