<svg xmlns="http://www.w3.org/2000/svg" viewBox="0 0 512 384">
      <g transform="scale(1 -1) translate(0 -384)">
        <path d="M320 64Q285 64 255.5 81.0Q226 98 209.0 127.5Q192 157 192.0 192.0Q192 227 209.0 256.5Q226 286 255.5 303.0Q285 320 320.0 320.0Q355 320 384.5 303.0Q414 286 431.0 256.5Q448 227 448.0 192.0Q448 157 431.0 127.5Q414 98 384.5 81.0Q355 64 320 64ZM85 171Q76 171 70.0 177.0Q64 183 64.0 192.0Q64 201 70.0 207.0Q76 213 85.0 213.0Q94 213 100.5 207.0Q107 201 107.0 192.0Q107 183 100.5 177.0Q94 171 85 171ZM469 384H163Q141 384 128 367L0 192L128 17Q141 0 163 0H469Q487 0 499.5 12.5Q512 25 512 43V341Q512 359 499.5 371.5Q487 384 469 384ZM277 213Q286 213 292.5 219.5Q299 226 299.0 235.0Q299 244 292.5 250.0Q286 256 277.0 256.0Q268 256 262.0 250.0Q256 244 256.0 235.0Q256 226 262.0 219.5Q268 213 277 213ZM320 107Q349 107 371.5 125.0Q394 143 401 171H239Q246 143 268.5 125.0Q291 107 320 107ZM363 213Q372 213 378.0 219.5Q384 226 384.0 235.0Q384 244 378.0 250.0Q372 256 363.0 256.0Q354 256 347.5 250.0Q341 244 341.0 235.0Q341 226 347.5 219.5Q354 213 363 213Z" />
      </g>
    </svg>