<svg xmlns="http://www.w3.org/2000/svg" viewBox="43 64 426 256">
      <g transform="scale(1 -1) translate(0 -384)">
        <path d="M256 320Q171 320 149 235Q181 277 224 267Q235 264 246 256Q252 250 265 238V237Q287 215 302 207Q328 192 363 192Q448 192 469 277Q437 235 395 245Q384 248 373 256Q367 261 355 273L353 275Q332 297 317 305Q291 320 256 320ZM149 192Q64 192 43 107Q75 149 117 139Q128 136 139 128Q145 123 157 111L159 109Q180 87 195 79Q221 64 256 64Q341 64 363 149Q331 107 288 117Q277 120 267 128Q260 133 248 145L247 147Q225 169 210 177Q184 192 149 192Z" />
      </g>
    </svg>