<svg xmlns="http://www.w3.org/2000/svg" viewBox="43 43 426 277">
      <g transform="scale(1 -1) translate(0 -363)">
        <path d="M427 192H85V213H128L149 320H256L277 213H427ZM282 299 291 256H469V299ZM469 107Q469 80 450.5 61.5Q432 43 405 43H107Q80 43 61.5 61.5Q43 80 43.0 106.5Q43 133 61.5 152.0Q80 171 107 171H405Q432 171 450.5 152.0Q469 133 469 107ZM128 107Q128 116 122.0 122.0Q116 128 107.0 128.0Q98 128 91.5 122.0Q85 116 85.0 107.0Q85 98 91.5 91.5Q98 85 107.0 85.0Q116 85 122.0 91.5Q128 98 128 107ZM277 107Q277 116 271.0 122.0Q265 128 256.0 128.0Q247 128 241.0 122.0Q235 116 235.0 107.0Q235 98 241.0 91.5Q247 85 256.0 85.0Q265 85 271.0 91.5Q277 98 277 107ZM427 107Q427 116 420.5 122.0Q414 128 405.0 128.0Q396 128 390.0 122.0Q384 116 384.0 107.0Q384 98 390.0 91.5Q396 85 405.0 85.0Q414 85 420.5 91.5Q427 98 427 107Z" />
      </g>
    </svg>