<svg xmlns="http://www.w3.org/2000/svg" viewBox="21 21 470 342">
      <g transform="scale(1 -1) translate(0 -384)">
        <path d="M427 277H320V149H43V85H64Q64 58 82.5 39.5Q101 21 128.0 21.0Q155 21 173.5 39.5Q192 58 192 85H320Q320 58 338.5 39.5Q357 21 384.0 21.0Q411 21 429.5 39.5Q448 58 448 85H491V192ZM128 53Q115 53 105.5 63.0Q96 73 96.0 85.5Q96 98 105.5 107.5Q115 117 128.0 117.0Q141 117 150.5 107.5Q160 98 160.0 85.5Q160 73 150.5 63.0Q141 53 128 53ZM384 53Q371 53 361.5 63.0Q352 73 352.0 85.5Q352 98 361.5 107.5Q371 117 384.0 117.0Q397 117 406.5 107.5Q416 98 416.0 85.5Q416 73 406.5 63.0Q397 53 384 53ZM363 192V245H416L459 192ZM299 245Q299 215 276.5 193.0Q254 171 224 171H96Q66 171 43.5 193.0Q21 215 21.0 245.5Q21 276 43.5 298.0Q66 320 96 320H107V341H85V363H171V341H149V320H224Q254 320 276.5 298.0Q299 276 299 245Z" />
      </g>
    </svg>