<svg xmlns="http://www.w3.org/2000/svg" viewBox="64 0 384 384">
      <g transform="scale(1 -1) translate(0 -384)">
        <path d="M256 235Q274 235 286.5 222.5Q299 210 299.0 192.0Q299 174 286.5 161.5Q274 149 256.0 149.0Q238 149 225.5 161.5Q213 174 213.0 192.0Q213 210 225.5 222.5Q238 235 256 235ZM107 384H405Q423 384 435.5 371.5Q448 359 448 341V85H361Q382 106 393.5 133.5Q405 161 405 192Q405 233 385.0 267.0Q365 301 331.0 321.0Q297 341 256.0 341.0Q215 341 181.0 321.0Q147 301 127.0 267.0Q107 233 107.0 192.0Q107 151 127.0 117.0Q147 83 181.0 63.0Q215 43 256 43H448Q448 25 435.5 12.5Q423 0 405 0H107Q89 0 76.5 12.5Q64 25 64 43V341Q64 359 76.5 371.5Q89 384 107 384Z" />
      </g>
    </svg>