<svg xmlns="http://www.w3.org/2000/svg" viewBox="43 0 426 341">
      <g transform="scale(1 -1) translate(0 -341)">
        <path d="M192 341Q233 341 267.0 321.0Q301 301 321.0 267.0Q341 233 341 192H363V128H341V43H192Q151 43 117.0 63.0Q83 83 63.0 117.0Q43 151 43.0 192.0Q43 233 63.0 267.0Q83 301 117.0 321.0Q151 341 192 341ZM192 277Q157 277 132.0 252.0Q107 227 107.0 192.0Q107 157 132.0 132.0Q157 107 192.0 107.0Q227 107 252.0 132.0Q277 157 277.0 192.0Q277 227 252.0 252.0Q227 277 192 277ZM363 85H469V0H427V43H363Z" />
      </g>
    </svg>