<svg xmlns="http://www.w3.org/2000/svg" viewBox="32 -32 448 448">
      <g transform="scale(1 -1) translate(0 -384)">
        <path d="M447 213H480V171H447Q442 127 418.5 90.0Q395 53 358.0 29.5Q321 6 277 1V-32H235V1Q191 6 154.0 29.5Q117 53 93.5 90.0Q70 127 65 171H32V213H65Q70 257 93.5 294.0Q117 331 154.0 354.5Q191 378 235 383V416H277V383Q321 378 358.0 354.5Q395 331 418.5 294.0Q442 257 447 213ZM108 213H139V171H108Q115 122 150.5 86.5Q186 51 235 44V75H277V44Q326 51 361.5 86.5Q397 122 404 171H373V213H404Q397 262 361.5 297.5Q326 333 277 340V309H235V340Q186 333 150.5 297.5Q115 262 108 213ZM341 107H171V128Q171 147 203 160Q229 171 256.0 171.0Q283 171 309 160Q341 147 341 128ZM256 277Q274 277 286.5 264.5Q299 252 299.0 234.5Q299 217 286.5 204.5Q274 192 256.0 192.0Q238 192 225.5 204.5Q213 217 213.0 234.5Q213 252 225.5 264.5Q238 277 256 277Z" />
      </g>
    </svg>