<svg xmlns="http://www.w3.org/2000/svg" viewBox="43 -21 426 426">
      <g transform="scale(1 -1) translate(0 -384)">
        <path d="M235 405V361Q177 354 135.5 312.5Q94 271 87 213H43V171H87Q94 113 135.5 71.5Q177 30 235 23V-21H277V23Q335 30 376.5 71.5Q418 113 425 171H469V213H425Q418 271 376.5 312.5Q335 354 277 361V405ZM235 318V277H277V318Q317 312 346.5 282.5Q376 253 382 213H341V171H382Q376 131 346.5 101.5Q317 72 277 66V107H235V66Q195 72 165.5 101.5Q136 131 130 171H171V213H130Q136 253 165.5 282.5Q195 312 235 318ZM256 213Q247 213 241.0 207.0Q235 201 235.0 192.0Q235 183 241.0 177.0Q247 171 256.0 171.0Q265 171 271.0 177.0Q277 183 277.0 192.0Q277 201 271.0 207.0Q265 213 256 213Z" />
      </g>
    </svg>