<svg xmlns="http://www.w3.org/2000/svg" viewBox="85 0 384 384">
      <g transform="scale(1 -1) translate(0 -384)">
        <path d="M85 43H427V0H85ZM457 371Q444 384 427 384H85V171Q85 137 111.0 111.0Q137 85 171 85H299Q333 85 358.5 111.0Q384 137 384 171V235H427Q444 235 456.5 247.5Q469 260 469 277V341Q469 358 457 371ZM341 341V277V171Q341 154 328.5 141.0Q316 128 299 128H171Q154 128 141.0 141.0Q128 154 128 171V341H213V311L175 282Q171 279 171 273V181Q171 177 174.0 174.0Q177 171 181 171H267Q271 171 274.0 174.0Q277 177 277 181V273Q277 277 273 282L235 311V341ZM427 277H384V341H427Z" />
      </g>
    </svg>