<svg xmlns="http://www.w3.org/2000/svg" viewBox="85 0 384 384">
      <g transform="scale(1 -1) translate(0 -384)">
        <path d="M85 43H427V0H85ZM427 277V341H384V277ZM427 384Q444 384 456.5 371.0Q469 358 469 341V277Q469 260 456.5 247.5Q444 235 427 235H384V171Q384 137 358.5 111.0Q333 85 299 85H171Q137 85 111.0 111.0Q85 137 85 171V384H192V333L154 303Q149 299 149 294V203Q149 198 152.0 195.0Q155 192 160 192H245Q250 192 253.0 195.0Q256 198 256 203V294Q256 299 252 303L213 333V384Z" />
      </g>
    </svg>