<svg xmlns="http://www.w3.org/2000/svg" viewBox="43 -21 426 426">
      <g transform="scale(1 -1) translate(0 -384)">
        <path d="M214 252 198 213H315L299 252L417 192L299 132L315 171H198L214 132L96 192ZM444 -21H68Q57 -21 50.0 -14.0Q43 -7 43 4V380Q43 391 50.0 398.0Q57 405 68 405H444Q455 405 462.0 398.0Q469 391 469 380V4Q469 -7 462.0 -14.0Q455 -21 444 -21ZM255 368Q207 367 167.0 343.5Q127 320 103.5 279.5Q80 239 80.0 192.0Q80 145 103.0 104.5Q126 64 166.0 40.5Q206 17 253 16H256Q304 17 344.0 40.5Q384 64 407.5 104.0Q431 144 432.0 191.5Q433 239 410.0 279.0Q387 319 348.0 343.0Q309 367 262 368Z" />
      </g>
    </svg>