<svg xmlns="http://www.w3.org/2000/svg" viewBox="64 0 384 384">
      <g transform="scale(1 -1) translate(0 -384)">
        <path d="M336 40Q323 40 313.5 51.5Q304 63 304.0 79.5Q304 96 313.5 108.0Q323 120 336.0 120.0Q349 120 358.5 108.0Q368 96 368.0 79.5Q368 63 358.5 51.5Q349 40 336 40ZM256 208Q236 208 222.0 219.5Q208 231 208.0 248.0Q208 265 222.0 276.5Q236 288 256.0 288.0Q276 288 290.0 276.5Q304 265 304.0 248.0Q304 231 290.0 219.5Q276 208 256 208ZM176 40Q163 40 153.5 51.5Q144 63 144.0 79.5Q144 96 153.5 108.0Q163 120 176.0 120.0Q189 120 198.5 108.0Q208 96 208.0 79.5Q208 63 198.5 51.5Q189 40 176 40ZM256 272Q263 272 267.5 267.5Q272 263 272.0 256.0Q272 249 267.5 244.5Q263 240 256.0 240.0Q249 240 244.5 244.5Q240 249 240.0 256.0Q240 263 244.5 267.5Q249 272 256 272ZM400 192Q390 192 381 188Q365 207 340 220Q359 248 359 281V282Q377 286 388.5 300.0Q400 314 400 332Q400 354 385.0 369.0Q370 384 348.0 384.0Q326 384 311 368Q286 384 256.0 384.0Q226 384 201 368Q186 384 164.0 384.0Q142 384 127.0 369.0Q112 354 112 332Q112 314 123.5 300.0Q135 286 153 282V281Q153 248 172 220Q147 207 131 188Q122 192 112 192Q92 192 78.0 178.0Q64 164 64.0 144.0Q64 124 78.0 110.0Q92 96 112 96H113Q112 88 112 80Q112 47 130.5 23.5Q149 0 176 0Q192 0 205.5 9.0Q219 18 228 34Q242 32 256.0 32.0Q270 32 284 34Q293 18 306.5 9.0Q320 0 336 0Q363 0 381.5 23.5Q400 47 400 80Q400 88 399 96H400Q420 96 434.0 110.0Q448 124 448.0 144.0Q448 164 434.0 178.0Q420 192 400 192Z" />
      </g>
    </svg>