<svg xmlns="http://www.w3.org/2000/svg" viewBox="43 -43 426 427">
      <g transform="scale(1 -1) translate(0 -341)">
        <path d="M43 336 70 363 448 -15 421 -43 378 0H85Q68 0 55.5 12.5Q43 25 43 43V256Q43 272 53.5 284.0Q64 296 80 299ZM174 384 256 302 338 384 368 354 313 299H427Q444 299 456.5 286.5Q469 274 469 256V43Q469 32 464 23L363 124V256H231L188 299H199L144 354ZM85 256V43H336L122 256ZM416 256Q407 256 401.0 250.0Q395 244 395.0 235.0Q395 226 401.0 219.5Q407 213 416.0 213.0Q425 213 431.0 219.5Q437 226 437.0 235.0Q437 244 431.0 250.0Q425 256 416 256ZM416 192Q407 192 401.0 186.0Q395 180 395.0 171.0Q395 162 401.0 155.5Q407 149 416.0 149.0Q425 149 431.0 155.5Q437 162 437.0 171.0Q437 180 431.0 186.0Q425 192 416 192Z" />
      </g>
    </svg>