<svg xmlns="http://www.w3.org/2000/svg" viewBox="43 0 426 384">
      <g transform="scale(1 -1) translate(0 -384)">
        <path d="M174 384 144 354 199 299H85Q68 299 55.5 286.5Q43 274 43 256V43Q43 25 55.5 12.5Q68 0 85 0H427Q444 0 456.5 12.5Q469 25 469 43V256Q469 274 456.5 286.5Q444 299 427 299H313L368 354L338 384L256 302ZM85 256H363V43H85ZM416 256Q425 256 431.0 250.0Q437 244 437.0 235.0Q437 226 431.0 219.5Q425 213 416.0 213.0Q407 213 401.0 219.5Q395 226 395.0 235.0Q395 244 401.0 250.0Q407 256 416 256ZM416 192Q425 192 431.0 186.0Q437 180 437.0 171.0Q437 162 431.0 155.5Q425 149 416.0 149.0Q407 149 401.0 155.5Q395 162 395.0 171.0Q395 180 401.0 186.0Q407 192 416 192Z" />
      </g>
    </svg>