<svg xmlns="http://www.w3.org/2000/svg" viewBox="21 -36 472 448">
      <g transform="scale(1 -1) translate(0 -376)">
        <path d="M448 256H341Q325 256 312.5 245.0Q300 234 299 218L380 137Q384 139 395 139H397Q424 139 442.5 120.5Q461 102 461 75Q461 64 459 60L493 26V213Q491 231 478.0 243.5Q465 256 448 256ZM395 160Q382 160 372.5 169.5Q363 179 363.0 192.0Q363 205 372.5 214.5Q382 224 394.5 224.0Q407 224 417.0 214.5Q427 205 427.0 192.0Q427 179 417.0 169.5Q407 160 395 160ZM491 341V299H448V341H175L132 384H448Q466 384 478.5 371.5Q491 359 491 341ZM51 412 23 384 34 373Q21 356 21 341V85Q21 68 33.5 55.5Q46 43 64 43H171V0H256V85H64V341H66L299 109V21Q299 4 311.5 -8.5Q324 -21 341 -21H429L444 -36L474 -11ZM395 11Q367 11 349.0 29.0Q331 47 331 75V77L397 11Z" />
      </g>
    </svg>