<svg xmlns="http://www.w3.org/2000/svg" viewBox="0 -21 512 426">
      <g transform="scale(1 -1) translate(0 -384)">
        <path d="M64 213H0V256H64ZM64 149H0V107H64ZM107 339 61 384 31 354 77 308ZM213 341V405H171V341ZM512 256H448V213H512ZM341 341V405H299V341ZM435 308 481 354 451 384 405 339ZM512 149H448V107H512ZM405 256V107Q405 89 392.5 76.5Q380 64 363 64H320V21H192V64H149Q132 64 119.5 76.5Q107 89 107 107V256Q107 274 119.5 286.5Q132 299 149 299H363Q380 299 392.5 286.5Q405 274 405 256ZM363 256H149V107H363ZM405 24 451 -21 481 9 435 54ZM77 54 31 9 61 -21 107 24Z" />
      </g>
    </svg>