<svg xmlns="http://www.w3.org/2000/svg" viewBox="21 -21 470 448">
      <g transform="scale(1 -1) translate(0 -406)">
        <path d="M448 256Q448 238 435.5 225.5Q423 213 405 213H384V258Q411 265 429.5 288.0Q448 311 448 339H405Q405 322 392.5 309.5Q380 297 363 297H352L256 427L160 299H149Q132 299 119.5 311.5Q107 324 107 341H64Q64 311 82.0 289.0Q100 267 128 260V213H107Q89 213 76.5 225.5Q64 238 64 256H21Q21 226 39.5 203.5Q58 181 85 175V-21H235V64Q235 72 241.0 78.5Q247 85 256.0 85.0Q265 85 271.0 78.5Q277 72 277 64V-21H427V173Q454 179 472.5 202.0Q491 225 491 254ZM256 356 299 299H213ZM171 256H341V213H171ZM384 21H320V64Q320 90 301.0 109.0Q282 128 256.0 128.0Q230 128 211.0 109.0Q192 90 192 64V21H128V171H384Z" />
      </g>
    </svg>