<svg xmlns="http://www.w3.org/2000/svg" viewBox="64 21 377 363">
      <g transform="scale(1 -1) translate(0 -405)">
        <path d="M352 341Q401 341 441 314L417 252Q389 277 352 277Q312 277 284.0 249.0Q256 221 256.0 181.0Q256 141 284.0 113.0Q312 85 352 85Q385 85 410 105L435 44Q397 21 353.0 21.0Q309 21 272.0 42.5Q235 64 213.5 101.0Q192 138 192 181Q192 213 204.0 242.5Q216 272 238.5 294.5Q261 317 290.5 329.0Q320 341 352 341ZM128 384Q155 384 173.5 365.5Q192 347 192.0 320.0Q192 293 173.5 274.5Q155 256 128.0 256.0Q101 256 82.5 274.5Q64 293 64.0 320.0Q64 347 82.5 365.5Q101 384 128 384ZM128 341Q119 341 113.0 335.0Q107 329 107.0 320.0Q107 311 113.0 305.0Q119 299 128.0 299.0Q137 299 143.0 305.0Q149 311 149.0 320.0Q149 329 143.0 335.0Q137 341 128 341Z" />
      </g>
    </svg>