<svg xmlns="http://www.w3.org/2000/svg" viewBox="64 21 363 363">
      <g transform="scale(1 -1) translate(0 -405)">
        <path d="M235 21V341H427V277H299V213H405V149H299V21ZM128 384Q155 384 173.5 365.5Q192 347 192.0 320.0Q192 293 173.5 274.5Q155 256 128.0 256.0Q101 256 82.5 274.5Q64 293 64.0 320.0Q64 347 82.5 365.5Q101 384 128 384ZM128 341Q119 341 113.0 335.0Q107 329 107.0 320.0Q107 311 113.0 305.0Q119 299 128.0 299.0Q137 299 143.0 305.0Q149 311 149.0 320.0Q149 329 143.0 335.0Q137 341 128 341Z" />
      </g>
    </svg>