<svg xmlns="http://www.w3.org/2000/svg" viewBox="21 -21 470 448">
      <g transform="scale(1 -1) translate(0 -406)">
        <path d="M448 256Q448 238 435.5 225.5Q423 213 405 213H107Q89 213 76.5 225.5Q64 238 64 256H21Q21 226 39.5 203.5Q58 181 85 175V-21H213V43Q213 60 225.5 72.5Q238 85 256.0 85.0Q274 85 286.5 72.5Q299 60 299 43V-21H427V173Q436 175 448 182Q466 192 476 207Q491 228 491 256ZM128 258V235H384V258Q393 260 405 267Q423 277 434 293Q448 313 448 341H405Q405 324 392.5 311.5Q380 299 363 299H149Q132 299 119.5 311.5Q107 324 107 341H64Q64 312 82.0 289.0Q100 266 128 258ZM256 427 175 320H335Z" />
      </g>
    </svg>