<svg xmlns="http://www.w3.org/2000/svg" viewBox="43 -21 426 426">
      <g transform="scale(1 -1) translate(0 -384)">
        <path d="M256 405Q295 405 330.5 392.0Q366 379 395 354Q360 324 340.0 282.0Q320 240 320.0 192.0Q320 144 340.0 102.0Q360 60 395 30Q366 5 330.5 -8.0Q295 -21 256.0 -21.0Q217 -21 181.5 -8.0Q146 5 117 30Q152 60 172.0 102.0Q192 144 192.0 192.0Q192 240 172.0 282.0Q152 324 117 354Q146 379 181.5 392.0Q217 405 256 405ZM469 192Q469 156 457.5 122.5Q446 89 424 61Q395 85 379.0 119.0Q363 153 363.0 192.0Q363 231 379.0 265.0Q395 299 424 323Q446 295 457.5 261.5Q469 228 469 192ZM43 192Q43 228 54.5 261.5Q66 295 88 323Q117 299 133.0 265.0Q149 231 149.0 192.0Q149 153 133.0 119.0Q117 85 88 61Q66 89 54.5 122.5Q43 156 43 192Z" />
      </g>
    </svg>