<svg xmlns="http://www.w3.org/2000/svg" viewBox="64 -51 414 414">
      <g transform="scale(1 -1) translate(0 -312)">
        <path d="M412 45 478 -21 448 -51 381 15Q358 0 331 0Q291 0 263.0 28.0Q235 56 235.0 96.0Q235 136 263.0 164.0Q291 192 331.0 192.0Q371 192 399.0 164.0Q427 136 427 96Q427 68 412 45ZM331 43Q353 43 368.5 58.5Q384 74 384.0 96.0Q384 118 368.5 133.5Q353 149 331.0 149.0Q309 149 293.0 133.5Q277 118 277.0 96.0Q277 74 293.0 58.5Q309 43 331 43ZM448 363V320H64V363ZM64 107V149H192V107ZM64 213V256H448V213H405Q370 235 330.5 235.0Q291 235 257 213Z" />
      </g>
    </svg>