<svg xmlns="http://www.w3.org/2000/svg" viewBox="64 -21 402 405">
      <g transform="scale(1 -1) translate(0 -363)">
        <path d="M213 40 258 85H149V128H299V125L344 171H149V213H363V189L389 216Q405 232 428 232Q438 232 448 228V341Q448 359 435.5 371.5Q423 384 405 384H107Q89 384 76.5 371.5Q64 359 64 341V43Q64 25 76.5 12.5Q89 0 107 0H213ZM149 299H363V256H149ZM463 142 442 121 398 164 419 186Q423 189 427.5 189.0Q432 189 436 186L463 158Q466 155 466.0 150.0Q466 145 463 142ZM256 23 385 152 429 108 300 -21H256Z" />
      </g>
    </svg>