<svg xmlns="http://www.w3.org/2000/svg" viewBox="43 64 435 286">
      <g transform="scale(1 -1) translate(0 -414)">
        <path d="M192 320V277H43V320ZM192 213V171H43V213ZM384 107V64H43V107ZM412 203Q427 225 427 254Q427 294 399.0 322.0Q371 350 331.0 350.0Q291 350 263.0 322.0Q235 294 235.0 254.0Q235 214 263.0 186.0Q291 158 331 158Q358 158 381 172L448 107L478 136ZM331 200Q309 200 293.0 215.5Q277 231 277.0 253.5Q277 276 293.0 291.5Q309 307 331.0 307.0Q353 307 368.5 291.5Q384 276 384.0 254.0Q384 232 368.5 216.0Q353 200 331 200Z" />
      </g>
    </svg>