<svg xmlns="http://www.w3.org/2000/svg" viewBox="64 -12 396 396">
      <g transform="scale(1 -1) translate(0 -372)">
        <path d="M308 109 339 140 384 94 429 140 460 109 414 64 460 19 429 -12 384 34 339 -12 308 19 354 64ZM256 85V128H149V85ZM363 213H149V171H313Q287 153 271.5 125.0Q256 97 256.0 63.0Q256 29 273 0H107Q89 0 76.5 12.5Q64 25 64 43V341Q64 359 76.5 371.5Q89 384 107 384H405Q423 384 435.5 371.5Q448 359 448 341V175Q419 192 384 192L363 190ZM363 256V299H149V256Z" />
      </g>
    </svg>