<svg xmlns="http://www.w3.org/2000/svg" viewBox="64 -21 402 405">
      <g transform="scale(1 -1) translate(0 -363)">
        <path d="M213 0H107Q89 0 76.5 12.5Q64 25 64 43V341Q64 359 76.5 371.5Q89 384 107 384H405Q423 384 435.5 371.5Q448 359 448 341V228Q438 232 427.0 232.0Q416 232 405 227V341H107V43H216L213 40ZM149 256H363V299H149ZM149 85H258L299 125V128H149ZM149 171H344L363 189V213H149ZM463 158 436 186Q432 189 427.5 189.0Q423 189 419 186L398 164L442 121L463 142Q466 145 466.0 150.0Q466 155 463 158ZM256 -21H300L429 108L385 152L256 23Z" />
      </g>
    </svg>