<svg xmlns="http://www.w3.org/2000/svg" viewBox="43 -27 432 444">
      <g transform="scale(1 -1) translate(0 -390)">
        <path d="M160 405Q131 387 113.5 355.5Q96 324 96.0 288.0Q96 252 113.5 220.5Q131 189 161 171Q128 171 101.0 186.5Q74 202 58.5 229.0Q43 256 43.0 288.0Q43 320 58.5 347.0Q74 374 101.0 389.5Q128 405 160 405ZM407 373 437 343 105 11 75 41ZM275 321 243 341 213 320 222 356 192 379 229 381 242 417 256 382 293 381 264 357ZM205 244 180 260 156 243 163 272 140 289 169 291 179 319 189 292 218 291 196 272ZM405 160Q405 128 389.5 101.0Q374 74 347.0 58.5Q320 43 288 43Q249 43 218 65L383 230Q405 199 405 160ZM311 20 371 44 365 -27ZM404 77 428 136 475 82ZM428 183 404 242 475 237ZM205 44 265 20 211 -27Z" />
      </g>
    </svg>