<svg xmlns="http://www.w3.org/2000/svg" viewBox="64 -21 384 426">
      <g transform="scale(1 -1) translate(0 -384)">
        <path d="M363 384H448V341H363ZM363 299H448V256H363ZM363 213H448V171H379L363 190ZM448 128V85H405Q405 107 399 128ZM149 384V341H64V384ZM149 299V256H64V299ZM149 213V190L133 171H64V213ZM64 128H113Q107 107 107 85H64ZM320 171V341Q320 368 301.5 386.5Q283 405 256.0 405.0Q229 405 210.5 386.5Q192 368 192 341V171Q169 153 158.0 127.0Q147 101 150.0 73.0Q153 45 170.5 21.5Q188 -2 214.0 -13.0Q240 -24 268.5 -20.5Q297 -17 320.0 0.0Q343 17 354.0 43.5Q365 70 362.0 98.0Q359 126 341 149Q332 162 320 171ZM256 363Q265 363 271.0 356.5Q277 350 277 341V277H235V341Q235 350 241.0 356.5Q247 363 256 363Z" />
      </g>
    </svg>