<svg xmlns="http://www.w3.org/2000/svg" viewBox="42 -21 426 426">
      <g transform="scale(1 -1) translate(0 -384)">
        <path d="M371 188 304 256 274 226 371 128 469 226 439 256ZM213 171V341Q213 368 194.5 386.5Q176 405 149.5 405.0Q123 405 104.0 386.5Q85 368 85 341V171Q62 153 51.0 127.0Q40 101 43.5 73.0Q47 45 64.0 21.5Q81 -2 107.5 -13.0Q134 -24 162.0 -20.5Q190 -17 213.5 0.0Q237 17 248.0 43.5Q259 70 255.5 98.0Q252 126 235 149Q226 162 213 171ZM149 363Q158 363 164.5 356.5Q171 350 171 341V277H128V341Q128 350 134.5 356.5Q141 363 149 363Z" />
      </g>
    </svg>