<svg xmlns="http://www.w3.org/2000/svg" viewBox="63 -21 388 426">
      <g transform="scale(1 -1) translate(0 -384)">
        <path d="M256 149Q247 162 235 171V341Q235 369 216.5 387.0Q198 405 170.5 405.0Q143 405 125.0 387.0Q107 369 107 341V171Q83 153 72.0 126.5Q61 100 64.5 72.0Q68 44 85.5 21.0Q103 -2 129.5 -13.0Q156 -24 184.0 -21.0Q212 -18 235.0 0.0Q258 18 269.0 44.0Q280 70 277.0 98.0Q274 126 256 149ZM192 277H149V341Q149 349 156.0 356.0Q163 363 171.0 363.0Q179 363 185.5 356.0Q192 349 192 341ZM384 384H341L273 192H314L329 235H397L412 192H452ZM337 262 363 341 388 262Z" />
      </g>
    </svg>