<svg xmlns="http://www.w3.org/2000/svg" viewBox="43 -43 452 448">
      <g transform="scale(1 -1) translate(0 -362)">
        <path d="M256 405Q198 405 149.0 376.5Q100 348 71.5 299.0Q43 250 43.0 192.0Q43 134 71.5 85.0Q100 36 149.0 7.5Q198 -21 256 -21Q271 -21 279 -19L329 122L316 134Q327 146 334.0 161.5Q341 177 341 194Q341 218 329 237L375 284Q405 241 405 192H427Q435 192 444 188L445 187Q446 187 446 186Q461 178 467 162Q469 173 469 192Q469 250 440.5 299.0Q412 348 363.0 376.5Q314 405 256 405ZM299 265Q279 277 256 277Q221 277 196.0 252.0Q171 227 171.0 191.0Q171 155 196 132L151 87Q130 107 118.5 134.5Q107 162 107 192Q107 233 127.0 267.0Q147 301 181.0 321.0Q215 341 256 341Q306 341 346 311ZM427 149H384L316 -43H356L371 0H439L454 -43H495ZM380 28 405 107 431 28Z" />
      </g>
    </svg>