<svg xmlns="http://www.w3.org/2000/svg" viewBox="63 -21 405 426">
      <g transform="scale(1 -1) translate(0 -384)">
        <path d="M469 213H299V171H469ZM235 171V341Q235 368 216.0 386.5Q197 405 170.5 405.0Q144 405 125.5 386.5Q107 368 107 341V171Q83 153 72.0 127.0Q61 101 64.5 73.0Q68 45 85.5 21.5Q103 -2 129.0 -13.0Q155 -24 183.0 -20.5Q211 -17 234.5 0.0Q258 17 269.0 43.5Q280 70 276.5 98.0Q273 126 256 149Q247 162 235 171ZM171 363Q179 363 185.5 356.5Q192 350 192 341V277H149V341Q149 350 155.5 356.5Q162 363 171 363Z" />
      </g>
    </svg>