<svg xmlns="http://www.w3.org/2000/svg" viewBox="106 -21 298 426">
      <g transform="scale(1 -1) translate(0 -384)">
        <path d="M363 171V299H405V171ZM363 85V128H405V85ZM277 171V341Q277 369 259.0 387.0Q241 405 213.5 405.0Q186 405 167.5 387.0Q149 369 149 341V171Q126 153 115.0 126.5Q104 100 107.0 72.0Q110 44 128.0 21.0Q146 -2 172.0 -13.0Q198 -24 226.0 -21.0Q254 -18 277.5 0.0Q301 18 312.0 44.0Q323 70 319.5 98.0Q316 126 299 149Q290 162 277 171ZM213 363Q223 363 229.0 357.0Q235 351 235 341V277H192V341Q192 351 198.0 357.0Q204 363 213 363Z" />
      </g>
    </svg>