<svg xmlns="http://www.w3.org/2000/svg" viewBox="43 -21 426 426">
      <g transform="scale(1 -1) translate(0 -384)">
        <path d="M362 86 316 132Q341 157 341 192Q341 215 329 235L375 281Q405 242 405 192Q405 162 393.5 134.5Q382 107 362 86ZM256 341Q306 341 345 311L299 265Q279 277 256 277Q221 277 196.0 252.0Q171 227 171.0 192.0Q171 157 196 132L150 86Q130 107 118.5 134.5Q107 162 107 192Q107 233 127.0 267.0Q147 301 181.0 321.0Q215 341 256 341ZM256 405Q214 405 174.5 389.0Q135 373 105.0 343.0Q75 313 59.0 273.5Q43 234 43.0 192.0Q43 150 59.0 110.5Q75 71 105.0 41.0Q135 11 174.5 -5.0Q214 -21 256.0 -21.0Q298 -21 337.5 -5.0Q377 11 407.0 41.0Q437 71 453.0 110.5Q469 150 469 192Q469 250 440.5 299.0Q412 348 363.0 376.5Q314 405 256 405Z" />
      </g>
    </svg>