<svg xmlns="http://www.w3.org/2000/svg" viewBox="24 -37 448 448">
      <g transform="scale(1 -1) translate(0 -374)">
        <path d="M235 282 192 324V341Q192 368 210.5 386.5Q229 405 256.0 405.0Q283 405 301.5 386.5Q320 368 320 341V196L239 277H277V341Q277 350 271.0 356.5Q265 363 256.0 363.0Q247 363 241.0 356.5Q235 350 235 341ZM472 -10 51 411 24 384 192 216V171Q169 153 158.0 127.0Q147 101 150.0 73.0Q153 45 170.5 21.5Q188 -2 214.0 -13.0Q240 -24 268.5 -20.5Q297 -17 320 0Q345 19 356 51L445 -37Z" />
      </g>
    </svg>