<svg xmlns="http://www.w3.org/2000/svg" viewBox="64 -43 431 427">
      <g transform="scale(1 -1) translate(0 -341)">
        <path d="M427 149H384L316 -43H356L371 0H439L454 -43H495ZM380 28 405 107 431 28ZM329 119 316 132Q327 144 334.0 159.5Q341 175 341 192Q341 215 329 235L375 282Q405 242 405 192H448V341Q448 359 435.5 371.5Q423 384 405 384H107Q89 384 76.5 371.5Q64 359 64 341V43Q64 25 76.5 12.5Q89 0 107 0H286ZM196 132 149 85Q107 128 107 192Q107 233 127.0 267.0Q147 301 181.0 321.0Q215 341 256 341Q306 341 346 311L299 265Q279 277 256 277Q221 277 196.0 252.0Q171 227 171 192Q171 175 178.0 159.5Q185 144 196 132Z" />
      </g>
    </svg>