<svg xmlns="http://www.w3.org/2000/svg" viewBox="0 -64 512 512">
      <g transform="scale(1 -1) translate(0 -384)">
        <path d="M480 235H336Q326 235 318.0 229.5Q310 224 307 215L258 102Q256 97 256 91V64Q256 55 262.0 49.0Q268 43 277 43H388L373 -25V-30Q373 -40 380 -47L397 -64L503 41Q512 51 512 64V203Q512 216 502.5 225.5Q493 235 480 235ZM256 320Q256 329 250.0 335.0Q244 341 235 341H124L139 409V414Q139 424 132 431L115 448L9 343Q0 333 0 320V181Q0 168 9.5 158.5Q19 149 32 149H176Q186 149 194.0 154.5Q202 160 205 169L254 282Q256 287 256 293Z" />
      </g>
    </svg>