<svg xmlns="http://www.w3.org/2000/svg" viewBox="43 21 426 342">
      <g transform="scale(1 -1) translate(0 -384)">
        <path d="M85 363Q68 363 55.5 350.5Q43 338 43 320V235Q60 235 72.5 222.5Q85 210 85.0 192.0Q85 174 72.5 161.5Q60 149 43 149V64Q43 46 55.5 33.5Q68 21 85 21H427Q444 21 456.5 33.5Q469 46 469 64V149Q452 149 439.5 161.5Q427 174 427.0 192.0Q427 210 439.5 222.5Q452 235 469 235V320Q469 338 456.5 350.5Q444 363 427 363ZM85 320H427V266Q407 254 395.5 234.5Q384 215 384.0 192.0Q384 169 395.5 149.5Q407 130 427 118V64H85V118Q105 130 116.5 149.5Q128 169 128.0 192.0Q128 215 116.5 234.5Q105 254 85 266Z" />
      </g>
    </svg>