<svg xmlns="http://www.w3.org/2000/svg" viewBox="43 21 426 342">
      <g transform="scale(1 -1) translate(0 -384)">
        <path d="M85 363Q68 363 55.5 350.5Q43 338 43 320V235Q60 235 72.5 222.5Q85 210 85.0 192.0Q85 174 72.5 161.5Q60 149 43 149V64Q43 46 55.5 33.5Q68 21 85 21H427Q444 21 456.5 33.5Q469 46 469 64V149Q452 149 439.5 161.5Q427 174 427.0 192.0Q427 210 439.5 222.5Q452 235 469 235V320Q469 338 456.5 350.5Q444 363 427 363ZM331 299 363 267 181 85 149 117ZM188 298Q204 298 215.0 287.0Q226 276 226.0 260.0Q226 244 215.0 233.0Q204 222 188.0 222.0Q172 222 161.0 233.0Q150 244 150.0 260.0Q150 276 161.0 287.0Q172 298 188 298ZM324 162Q340 162 351.0 151.0Q362 140 362.0 124.0Q362 108 351.0 97.0Q340 86 324.0 86.0Q308 86 297.0 97.0Q286 108 286.0 124.0Q286 140 297.0 151.0Q308 162 324 162Z" />
      </g>
    </svg>