<svg xmlns="http://www.w3.org/2000/svg" viewBox="43 21 426 342">
      <g transform="scale(1 -1) translate(0 -384)">
        <path d="M427 192Q427 174 439.5 161.5Q452 149 469 149V64Q469 46 456.5 33.5Q444 21 427 21H85Q68 21 55.5 33.5Q43 46 43 64V149Q60 149 72.5 161.5Q85 174 85.0 192.0Q85 210 72.5 222.5Q60 235 43 235V320Q43 338 55.5 350.5Q68 363 85 363H427Q444 363 456.5 350.5Q469 338 469 320V235Q452 235 439.5 222.5Q427 210 427 192ZM352 101Q352 116 334 128Q319 138 295 144Q274 149 256.0 149.0Q238 149 217 144Q193 138 178 128Q160 116 160 101V85H352ZM256 187Q276 187 290.0 201.0Q304 215 304.0 235.0Q304 255 290.0 269.0Q276 283 256.0 283.0Q236 283 222.0 269.0Q208 255 208.0 235.0Q208 215 222.0 201.0Q236 187 256 187Z" />
      </g>
    </svg>