<svg xmlns="http://www.w3.org/2000/svg" viewBox="43 21 426 342">
      <g transform="scale(1 -1) translate(0 -384)">
        <path d="M332 90 256 139 180 90 203 177 132 235 223 240 256 324 289 240 380 235 309 177ZM427 192Q427 210 439.5 222.5Q452 235 469 235V320Q469 338 456.5 350.5Q444 363 427 363H85Q68 363 55.5 350.5Q43 338 43 320V235Q60 235 72.5 222.5Q85 210 85.0 192.0Q85 174 72.5 161.5Q60 149 43 149V64Q43 46 55.5 33.5Q68 21 85 21H427Q444 21 456.5 33.5Q469 46 469 64V149Q452 149 439.5 161.5Q427 174 427 192Z" />
      </g>
    </svg>