<svg xmlns="http://www.w3.org/2000/svg" viewBox="43 21 426 342">
      <g transform="scale(1 -1) translate(0 -384)">
        <path d="M316 277 341 252 196 107 171 132ZM85 363H427Q444 363 456.5 350.5Q469 338 469 320V235Q452 235 439.5 222.5Q427 210 427.0 192.0Q427 174 439.5 161.5Q452 149 469 149V64Q469 46 456.5 33.5Q444 21 427 21H85Q68 21 55.5 33.5Q43 46 43 64V149Q60 149 72.5 161.5Q85 174 85.0 192.0Q85 210 72.5 222.5Q60 235 43 235V320Q43 338 55.5 350.5Q68 363 85 363ZM85 320V266Q105 254 116.5 234.5Q128 215 128.0 192.0Q128 169 116.5 149.5Q105 130 85 118V64H427V118Q407 130 395.5 149.5Q384 169 384.0 192.0Q384 215 395.5 234.5Q407 254 427 266V320ZM203 277Q216 277 225.5 268.0Q235 259 235.0 245.5Q235 232 225.5 222.5Q216 213 202.5 213.0Q189 213 180.0 222.5Q171 232 171.0 245.5Q171 259 180.0 268.0Q189 277 203 277ZM309 171Q323 171 332.0 161.5Q341 152 341.0 138.5Q341 125 332.0 116.0Q323 107 309.5 107.0Q296 107 286.5 116.0Q277 125 277.0 138.5Q277 152 286.5 161.5Q296 171 309 171Z" />
      </g>
    </svg>