<svg xmlns="http://www.w3.org/2000/svg" viewBox="43 128 426 128">
      <g transform="scale(1 -1) translate(0 -384)">
        <path d="M43 128Q43 135 44 141Q46 158 51 173Q58 195 70 211Q86 231 108 243Q135 256 171 256Q201 256 226 243Q240 235 263 215Q282 198 293 192Q311 181 331 181Q369 181 391 201Q407 215 413 237Q416 248 416 256H469L468 243Q466 226 461 211Q454 189 442 173Q426 153 404 141Q377 128 341 128Q308 128 278 143Q261 153 233 175Q216 189 207 194Q193 203 181 203Q152 203 132 191Q116 182 107 165Q100 154 97 140L96 128Z" />
      </g>
    </svg>