<svg xmlns="http://www.w3.org/2000/svg" viewBox="43 -21 426 426">
      <g transform="scale(1 -1) translate(0 -384)">
        <path d="M299 192H331V132L383 102L367 74L299 113ZM85 405H384Q402 405 414.5 392.5Q427 380 427 363V233Q447 212 458.0 185.0Q469 158 469 128Q469 87 449.0 53.0Q429 19 395.0 -1.0Q361 -21 320 -21Q290 -21 263.0 -10.0Q236 1 215 21H85Q68 21 55.5 33.5Q43 46 43 64V363Q43 380 55.5 392.5Q68 405 85 405ZM85 128V64H185Q171 94 171 128ZM85 277H213V341H85ZM384 277V341H256V277ZM85 171H177Q188 208 215 235H85ZM320 231Q299 231 280.0 223.5Q261 216 246.5 201.5Q232 187 224.5 168.0Q217 149 217 128Q217 100 230.5 76.0Q244 52 268.0 38.5Q292 25 320 25Q341 25 360.0 32.5Q379 40 393.5 54.5Q408 69 415.5 88.0Q423 107 423 128Q423 156 409.5 180.0Q396 204 372.0 217.5Q348 231 320 231Z" />
      </g>
    </svg>