<svg xmlns="http://www.w3.org/2000/svg" viewBox="21 -21 491 426">
      <g transform="scale(1 -1) translate(0 -384)">
        <path d="M85 405V277H43V405ZM43 -21V107H85V-21ZM107 192Q107 174 94.5 161.5Q82 149 64.0 149.0Q46 149 33.5 161.5Q21 174 21.0 192.0Q21 210 33.5 222.5Q46 235 64.0 235.0Q82 235 94.5 222.5Q107 210 107 192ZM512 320V64Q512 46 499.5 33.5Q487 21 469 21H213Q196 21 183.5 33.5Q171 46 171 64V149L128 192L171 235V320Q171 338 183.5 350.5Q196 363 213 363H469Q487 363 499.5 350.5Q512 338 512 320ZM352 117H320V85H352ZM309 224V235Q309 248 318.5 257.5Q328 267 341.5 267.0Q355 267 364.0 257.5Q373 248 373 235Q373 219 360 210L354 206Q338 195 329.0 178.5Q320 162 320 143V139H352V143Q352 166 371 179L378 183Q391 192 398.0 205.5Q405 219 405 235Q405 261 386.5 280.0Q368 299 341.5 299.0Q315 299 296.0 280.0Q277 261 277 235V224Z" />
      </g>
    </svg>