<svg xmlns="http://www.w3.org/2000/svg" viewBox="64 -21 427 448">
      <g transform="scale(1 -1) translate(0 -406)">
        <path d="M320 384H192V427H320ZM414 219 235 40V-20Q187 -15 148.0 12.0Q109 39 86.5 80.5Q64 122 64 171Q64 223 90.0 267.0Q116 311 160.0 337.0Q204 363 256 363Q289 363 320.0 351.5Q351 340 376 320L406 351Q421 338 436 321L406 290Q427 264 437 233Q424 229 414 219ZM277 299H235V149H277ZM277 22V-21H321L452 109L408 153ZM487 161 459 189Q456 192 451.5 192.0Q447 192 444 189L423 168L467 124L487 145Q491 148 491.0 152.5Q491 157 487 161Z" />
      </g>
    </svg>