<svg xmlns="http://www.w3.org/2000/svg" viewBox="64 -21 395 448">
      <g transform="scale(1 -1) translate(0 -406)">
        <path d="M405 171Q426 171 448 163V171Q448 204 437.0 234.5Q426 265 406 290L436 321Q421 338 406 351L376 320Q351 340 320.0 351.5Q289 363 256 363Q204 363 160.0 337.0Q116 311 90.0 267.0Q64 223 64.0 171.0Q64 119 90.0 74.5Q116 30 160.0 4.5Q204 -21 256 -21Q274 -21 292 -18Q277 10 277 43Q277 77 294.5 106.5Q312 136 341.5 153.5Q371 171 405 171ZM277 149H235V299H277ZM320 384H192V427H320ZM459 96V-11H352V96Z" />
      </g>
    </svg>