<svg xmlns="http://www.w3.org/2000/svg" viewBox="64 -21 427 448">
      <g transform="scale(1 -1) translate(0 -406)">
        <path d="M235 277H277V149H235ZM277 23Q266 21 256 21Q215 21 181.0 41.0Q147 61 127.0 95.5Q107 130 107.0 170.5Q107 211 127.0 245.5Q147 280 181.0 300.0Q215 320 256 320Q294 320 327.0 302.0Q360 284 381 253Q394 256 405.0 256.0Q416 256 429 253Q420 273 406 290L436 321Q421 338 406 351L376 320Q351 340 320.0 351.5Q289 363 256 363Q204 363 160.0 337.0Q116 311 90.0 267.0Q64 223 64.0 171.0Q64 119 90.0 74.5Q116 30 160.0 4.5Q204 -21 256 -21Q267 -21 282 -19Q277 -6 277 6ZM320 427H192V384H320ZM465 107H373V160Q373 172 382.5 180.0Q392 188 405.5 188.0Q419 188 428.0 180.0Q437 172 437 160V149H465V160Q465 182 446.5 197.5Q428 213 405.0 213.0Q382 213 364.0 197.5Q346 182 346 160V107Q336 107 328.0 99.0Q320 91 320 81V6Q320 -5 328.0 -13.0Q336 -21 346 -21H463Q474 -21 482.5 -13.5Q491 -6 491 4V79Q491 90 483.0 98.5Q475 107 465 107Z" />
      </g>
    </svg>