<svg xmlns="http://www.w3.org/2000/svg" viewBox="21 -21 470 448">
      <g transform="scale(1 -1) translate(0 -406)">
        <path d="M394 321Q378 338 364 351L333 320Q308 340 277.5 351.5Q247 363 213 363Q161 363 117.0 337.0Q73 311 47.0 267.0Q21 223 21.0 171.0Q21 119 47.0 74.5Q73 30 117.0 4.5Q161 -21 213.5 -21.0Q266 -21 310.0 4.5Q354 30 379.5 74.0Q405 118 405 171Q405 204 394.0 234.5Q383 265 363 290ZM235 149H192V299H235ZM277 384H149V427H277ZM491 299V171H448V299ZM448 128H491V85H448Z" />
      </g>
    </svg>