<svg xmlns="http://www.w3.org/2000/svg" viewBox="64 -43 427 470">
      <g transform="scale(1 -1) translate(0 -384)">
        <path d="M320 384H192V427H320ZM277 75Q277 25 309 -14Q282 -21 256 -21Q204 -21 160.0 4.5Q116 30 90.0 74.5Q64 119 64.0 171.0Q64 223 90.0 267.0Q116 311 160.0 337.0Q204 363 256 363Q289 363 320.0 351.5Q351 340 376 320L406 351Q421 338 436 321L406 290Q434 255 444 211Q429 213 416 213Q378 213 346.5 194.5Q315 176 296.0 144.0Q277 112 277 75ZM277 299H235V149H277ZM405 160V192L357 144L405 96V128Q427 128 443.0 112.5Q459 97 459 75Q459 62 453 51L476 28Q491 49 491 75Q491 110 466.0 135.0Q441 160 405 160ZM405 21Q383 21 367.5 37.0Q352 53 352 75Q352 87 358 99L334 122Q320 100 320 75Q320 39 345.0 14.0Q370 -11 405 -11V-43L453 5L405 53Z" />
      </g>
    </svg>