<svg xmlns="http://www.w3.org/2000/svg" viewBox="64 -64 384 512">
      <g transform="scale(1 -1) translate(0 -384)">
        <path d="M256 43Q215 43 181.0 63.0Q147 83 127.0 117.0Q107 151 107.0 192.0Q107 233 127.0 267.0Q147 301 181.0 321.0Q215 341 256.0 341.0Q297 341 331.0 321.0Q365 301 385.0 267.0Q405 233 405.0 192.0Q405 151 385.0 117.0Q365 83 331.0 63.0Q297 43 256 43ZM405 311 437 341Q416 363 405 371L375 341Q323 384 256 384Q204 384 159.5 358.5Q115 333 89.5 288.5Q64 244 64.0 192.0Q64 140 89.5 95.5Q115 51 159.5 25.5Q204 0 256.0 0.0Q308 0 352.5 25.5Q397 51 422.5 95.5Q448 140 448 192Q448 226 437.0 257.0Q426 288 405 311ZM235 171H277V299H235ZM320 448H192V405H320ZM277 -21H235V-64H277ZM363 -21H320V-64H363ZM192 -21H149V-64H192Z" />
      </g>
    </svg>