<svg xmlns="http://www.w3.org/2000/svg" viewBox="64 -21 416 448">
      <g transform="scale(1 -1) translate(0 -406)">
        <path d="M320 384H192V427H320ZM277 43Q277 10 292 -18Q274 -21 256 -21Q204 -21 160.0 4.5Q116 30 90.0 74.5Q64 119 64.0 171.0Q64 223 90.0 267.0Q116 311 160.0 337.0Q204 363 256 363Q289 363 320.0 351.5Q351 340 376 320L406 351Q421 338 436 321L406 290Q426 265 437.0 234.5Q448 204 448 171V163Q426 171 405 171Q371 171 341.5 153.5Q312 136 294.5 106.5Q277 77 277 43ZM277 299H235V149H277ZM455 110 379 33 345 67 320 43 379 -21 480 80Z" />
      </g>
    </svg>