<svg xmlns="http://www.w3.org/2000/svg" viewBox="37 -43 411 470">
      <g transform="scale(1 -1) translate(0 -384)">
        <path d="M256 21Q215 21 181.0 41.5Q147 62 127.0 96.0Q107 130 107.0 171.0Q107 212 127 245L331 42Q297 21 256 21ZM64 363 37 336 96 277Q64 229 64 171Q64 119 90.0 74.5Q116 30 160.0 4.5Q204 -21 256 -21Q314 -21 363 11L416 -43L443 -16L278 149ZM235 247 277 204V277H235ZM320 427H192V384H320ZM406 351 376 321Q351 341 320.0 352.0Q289 363 256 363Q198 363 150 331L181 300Q216 320 256.5 320.0Q297 320 331.0 300.0Q365 280 385.0 245.5Q405 211 405.0 171.0Q405 131 385 96L416 65Q448 113 448 171Q448 204 437.0 234.5Q426 265 406 290L436 321Z" />
      </g>
    </svg>