<svg xmlns="http://www.w3.org/2000/svg" viewBox="64 -21 384 448">
      <g transform="scale(1 -1) translate(0 -406)">
        <path d="M256 21Q215 21 181.0 41.5Q147 62 127.0 96.0Q107 130 107.0 170.5Q107 211 127.0 245.5Q147 280 181.0 300.0Q215 320 256.0 320.0Q297 320 331.0 300.0Q365 280 385.0 245.5Q405 211 405.0 170.5Q405 130 385.0 96.0Q365 62 331.0 41.5Q297 21 256 21ZM406 290 436 321Q421 338 406 351L376 320Q351 340 320.0 351.5Q289 363 256 363Q204 363 160.0 337.0Q116 311 90.0 267.0Q64 223 64.0 171.0Q64 119 90.0 74.5Q116 30 160.0 4.5Q204 -21 256.0 -21.0Q308 -21 352.5 4.5Q397 30 422.5 74.0Q448 118 448 171Q448 204 437.0 234.5Q426 265 406 290ZM235 149H277V277H235ZM320 427H192V384H320Z" />
      </g>
    </svg>