<svg xmlns="http://www.w3.org/2000/svg" viewBox="21 -21 491 426">
      <g transform="scale(1 -1) translate(0 -384)">
        <path d="M107 192Q107 174 94.5 161.5Q82 149 64.0 149.0Q46 149 33.5 161.5Q21 174 21.0 192.0Q21 210 33.5 222.5Q46 235 64.0 235.0Q82 235 94.5 222.5Q107 210 107 192ZM85 405V277H43V405ZM43 -21V107H85V-21ZM512 320V64Q512 46 499.5 33.5Q487 21 469 21H213Q196 21 183.5 33.5Q171 46 171 64V149L128 192L171 235V320Q171 338 183.5 350.5Q196 363 213 363H469Q487 363 499.5 350.5Q512 338 512 320ZM469 320H213V217L188 192L213 167V64H469ZM352 117V85H320V117ZM309 224H277V235Q277 261 296.0 280.0Q315 299 341.5 299.0Q368 299 386.5 280.0Q405 261 405 235Q405 219 398.0 205.5Q391 192 378 183L371 179Q352 166 352 143V139H320V143Q320 162 329.0 178.5Q338 195 354 206L360 210Q373 219 373 235Q373 248 364.0 257.5Q355 267 341.5 267.0Q328 267 318.5 257.5Q309 248 309 235Z" />
      </g>
    </svg>