<svg xmlns="http://www.w3.org/2000/svg" viewBox="64 -21 405 448">
      <g transform="scale(1 -1) translate(0 -406)">
        <path d="M235 277H277V149H235ZM320 427H192V384H320ZM256 21Q215 21 181.0 41.0Q147 61 127.0 95.5Q107 130 107.0 170.5Q107 211 127.0 245.5Q147 280 181.0 300.0Q215 320 256 320Q300 320 336.5 296.5Q373 273 391 235H395Q418 235 440 225Q429 261 406 290L436 321Q421 338 406 351L376 320Q351 340 320.0 351.5Q289 363 256 363Q204 363 160.0 337.0Q116 311 90.0 267.0Q64 223 64.0 171.0Q64 119 90.0 74.5Q116 30 160.0 4.5Q204 -21 256 -21Q294 -21 329 -7Q316 11 305 30Q281 21 256 21ZM469 117Q469 83 432 27Q413 -1 395 -21L375 2Q353 31 339 57Q320 93 320 117Q320 148 342.0 170.0Q364 192 394.5 192.0Q425 192 447.0 170.0Q469 148 469 117ZM420 115Q420 125 412.0 133.0Q404 141 394.5 141.0Q385 141 377.0 133.5Q369 126 369.0 115.5Q369 105 376.5 97.5Q384 90 395.0 90.0Q406 90 414.0 98.0Q422 106 420 115Z" />
      </g>
    </svg>