<svg xmlns="http://www.w3.org/2000/svg" viewBox="64 -21 405 448">
      <g transform="scale(1 -1) translate(0 -406)">
        <path d="M320 384H192V427H320ZM277 117Q277 65 329 -7Q294 -21 256 -21Q204 -21 160.0 4.5Q116 30 90.0 74.5Q64 119 64.0 171.0Q64 223 90.0 267.0Q116 311 160.0 337.0Q204 363 256 363Q289 363 320.0 351.5Q351 340 376 320L406 351Q421 338 436 321L406 290Q429 261 440 225Q418 235 395 235Q363 235 336.0 219.0Q309 203 293.0 176.0Q277 149 277 117ZM277 149V299H235V149ZM469 117Q469 83 432 27Q413 -1 395 -21L375 2Q353 31 339 57Q320 93 320 117Q320 148 342.0 170.0Q364 192 394.5 192.0Q425 192 447.0 170.0Q469 148 469 117ZM420 115Q420 125 412.0 133.0Q404 141 394.5 141.0Q385 141 377.0 133.5Q369 126 369.0 115.5Q369 105 376.5 97.5Q384 90 395.0 90.0Q406 90 414.0 98.0Q422 106 420 115Z" />
      </g>
    </svg>