<svg xmlns="http://www.w3.org/2000/svg" viewBox="64 -43 427 470">
      <g transform="scale(1 -1) translate(0 -384)">
        <path d="M235 277H277V149H235ZM320 427H192V384H320ZM256 21Q215 21 181.0 41.0Q147 61 127.0 95.5Q107 130 107.0 170.5Q107 211 127.0 245.5Q147 280 181.0 300.0Q215 320 256 320Q293 320 325.0 303.0Q357 286 378.0 256.5Q399 227 404 191Q428 190 448 181Q444 243 406 290L436 321Q421 338 406 351L376 320Q351 340 320.0 351.5Q289 363 256 363Q204 363 160.0 337.0Q116 311 90.0 267.0Q64 223 64.0 171.0Q64 119 90.0 74.5Q116 30 160.0 4.5Q204 -21 256 -21Q270 -21 277 -20Q265 -1 260 21ZM491 53Q491 13 463.0 -15.0Q435 -43 395.0 -43.0Q355 -43 327.0 -15.0Q299 13 299.0 53.0Q299 93 327.0 121.0Q355 149 395.0 149.0Q435 149 463.0 121.0Q491 93 491 53ZM427 -2 340 85Q331 71 331 53Q331 27 349.5 8.0Q368 -11 395 -11Q413 -11 427 -2ZM459 53Q459 80 440.0 98.5Q421 117 395 117Q377 117 363 108L450 21Q459 35 459 53Z" />
      </g>
    </svg>