<svg xmlns="http://www.w3.org/2000/svg" viewBox="21 -21 470 448">
      <g transform="scale(1 -1) translate(0 -406)">
        <path d="M192 277H235V149H192ZM277 427H149V384H277ZM363 290Q383 265 394.0 234.5Q405 204 405 171Q405 118 379.5 74.0Q354 30 310.0 4.5Q266 -21 213.5 -21.0Q161 -21 117.0 4.5Q73 30 47.0 74.5Q21 119 21.0 171.0Q21 223 47.0 267.0Q73 311 117.0 337.0Q161 363 213 363Q247 363 277.5 351.5Q308 340 333 320L364 351Q378 338 394 321ZM363 171Q363 211 343.0 245.5Q323 280 288.5 300.0Q254 320 213.5 320.0Q173 320 138.5 300.0Q104 280 84.0 245.5Q64 211 64.0 170.5Q64 130 84.0 95.5Q104 61 138.5 41.0Q173 21 213.5 21.0Q254 21 288.5 41.0Q323 61 343.0 95.5Q363 130 363 171ZM448 299V171H491V299ZM448 85H491V128H448Z" />
      </g>
    </svg>