<svg xmlns="http://www.w3.org/2000/svg" viewBox="64 -64 384 512">
      <g transform="scale(1 -1) translate(0 -384)">
        <path d="M405 311 437 341Q416 363 405 371L375 341Q323 384 256 384Q204 384 159.5 358.5Q115 333 89.5 288.5Q64 244 64.0 192.0Q64 140 89.5 95.5Q115 51 159.5 25.5Q204 0 256.0 0.0Q308 0 352.5 25.5Q397 51 422.5 95.5Q448 140 448 192Q448 226 437.0 257.0Q426 288 405 311ZM277 171H235V320H277ZM320 448H192V405H320ZM277 -64H235V-21H277ZM363 -64H320V-21H363ZM192 -64H149V-21H192Z" />
      </g>
    </svg>