<svg xmlns="http://www.w3.org/2000/svg" viewBox="64 -43 405 470">
      <g transform="scale(1 -1) translate(0 -384)">
        <path d="M320 384H192V427H320ZM235 149H277V277H235ZM278 23Q268 21 256 21Q215 21 181.0 41.0Q147 61 127.0 95.5Q107 130 107.0 170.5Q107 211 127.0 245.5Q147 280 181.0 300.0Q215 320 256 320Q306 320 345.5 290.0Q385 260 399 213H443Q433 256 406 290L436 321Q421 338 406 351L376 320Q351 340 320.0 351.5Q289 363 256 363Q204 363 160.0 337.0Q116 311 90.0 267.0Q64 223 64.0 171.0Q64 119 90.0 74.5Q116 30 160.0 4.5Q204 -21 256 -21Q267 -21 282 -19Q277 -4 277 11ZM395 171V60Q385 64 373 64Q351 64 335.5 48.5Q320 33 320.0 11.0Q320 -11 335.5 -27.0Q351 -43 373.0 -43.0Q395 -43 411.0 -27.0Q427 -11 427 11V128H469V171Z" />
      </g>
    </svg>