<svg xmlns="http://www.w3.org/2000/svg" viewBox="64 -21 427 448">
      <g transform="scale(1 -1) translate(0 -406)">
        <path d="M320 384H192V427H320ZM303 139V134Q291 124 284.0 110.0Q277 96 277 81V6Q277 -6 282 -19Q267 -21 256 -21Q204 -21 160.0 4.5Q116 30 90.0 74.5Q64 119 64.0 171.0Q64 223 90.0 267.0Q116 311 160.0 337.0Q204 363 256 363Q289 363 320.0 351.5Q351 340 376 320L406 351Q421 338 436 321L406 290Q428 263 439 229Q421 235 405 235Q378 235 354.5 221.5Q331 208 317.0 186.0Q303 164 303 139ZM277 299H235V149H277ZM491 79V4Q491 -6 482.5 -13.5Q474 -21 463 -21H346Q336 -21 328.0 -13.0Q320 -5 320 6V81Q320 91 328.0 99.0Q336 107 346 107V139Q346 161 364.0 176.5Q382 192 405.0 192.0Q428 192 446.5 176.5Q465 161 465 139V107Q475 107 483.0 98.5Q491 90 491 79ZM437 139Q437 151 428.0 158.5Q419 166 405.5 166.0Q392 166 382.5 158.5Q373 151 373 139V107H437Z" />
      </g>
    </svg>