<svg xmlns="http://www.w3.org/2000/svg" viewBox="89 62 361 260">
      <g transform="scale(1 -1) translate(0 -384)">
        <path d="M445 141Q441 150 431.5 157.0Q422 164 409.5 168.5Q397 173 381 177Q373 178 363 181Q355 185 351.0 187.5Q347 190 345.0 193.5Q343 197 343.0 201.5Q343 206 345.0 210.5Q347 215 351.0 218.0Q355 221 361.0 223.0Q367 225 374.5 225.0Q382 225 388.0 222.5Q394 220 398.0 216.5Q402 213 404.5 206.5Q407 200 407 197H449Q449 209 443.5 220.0Q438 231 428.5 238.5Q419 246 405.5 251.0Q392 256 375.0 256.0Q358 256 344.5 251.5Q331 247 322.5 240.0Q314 233 308.5 222.5Q303 212 303.0 200.5Q303 189 307.5 180.0Q312 171 320.5 164.5Q329 158 342 153Q352 149 369 145Q382 142 389.5 139.0Q397 136 401.0 133.0Q405 130 407.0 126.0Q409 122 409 117Q409 107 400.5 101.0Q392 95 376 95Q368 95 361.5 96.5Q355 98 350.0 101.5Q345 105 341.5 111.0Q338 117 337 125H297Q297 113 302.5 102.5Q308 92 317.5 83.5Q327 75 341.5 69.5Q356 64 374.5 64.0Q393 64 406.0 68.0Q419 72 429.0 79.0Q439 86 444.5 96.5Q450 107 450.0 119.5Q450 132 445 141ZM248 171Q242 180 234.0 185.5Q226 191 215 195Q225 200 232.0 206.5Q239 213 244.0 220.5Q249 228 251.0 235.0Q253 242 253 250Q253 268 247.5 281.5Q242 295 231.0 304.0Q220 313 205.0 317.5Q190 322 173 322Q157 322 141.0 317.0Q125 312 114.0 302.0Q103 292 97.5 280.0Q92 268 92 253H134Q134 261 136.5 267.5Q139 274 145.0 278.5Q151 283 157.5 285.5Q164 288 173 288Q193 288 202.0 278.0Q211 268 211 250Q211 241 208.5 234.0Q206 227 200.5 222.0Q195 217 187.5 214.0Q180 211 168 211H143V178H169Q179 178 188.0 175.5Q197 173 203.0 168.0Q209 163 212.0 155.0Q215 147 215 137Q215 117 204.0 106.5Q193 96 173 96Q163 96 155.5 98.5Q148 101 143.0 106.0Q138 111 135.0 118.0Q132 125 132 134H89Q89 117 96.0 103.0Q103 89 115.5 80.0Q128 71 141 67Q157 62 173 62Q190 62 206.0 67.0Q222 72 233.5 81.5Q245 91 251.0 105.0Q257 119 257 137Q257 146 254.5 155.5Q252 165 248 171Z" />
      </g>
    </svg>