<svg xmlns="http://www.w3.org/2000/svg" viewBox="21 -21 491 426">
      <g transform="scale(1 -1) translate(0 -384)">
        <path d="M85 277H43V405H85ZM43 -21H85V107H43ZM64 235Q46 235 33.5 222.5Q21 210 21.0 192.0Q21 174 33.5 161.5Q46 149 64.0 149.0Q82 149 94.5 161.5Q107 174 107.0 192.0Q107 210 94.5 222.5Q82 235 64 235ZM512 320V64Q512 46 499.5 33.5Q487 21 469 21H213Q196 21 183.5 33.5Q171 46 171 64V149L128 192L171 235V320Q171 338 183.5 350.5Q196 363 213 363H469Q487 363 499.5 350.5Q512 338 512 320ZM371 192 417 237 387 267 341 222 296 267 266 237 311 192 266 147 296 117 341 162 387 117 417 147Z" />
      </g>
    </svg>