<svg xmlns="http://www.w3.org/2000/svg" viewBox="64 -21 427 448">
      <g transform="scale(1 -1) translate(0 -406)">
        <path d="M235 277H277V149H235ZM320 427H192V384H320ZM256 21Q215 21 181.0 41.0Q147 61 127.0 95.5Q107 130 107.0 170.5Q107 211 127.0 245.5Q147 280 181.0 300.0Q215 320 256.0 320.0Q297 320 331.0 300.0Q365 280 385.0 245.5Q405 211 405 171Q426 171 448 163V171Q448 204 437.0 234.5Q426 265 406 290L436 321Q421 338 406 351L376 320Q351 340 320.0 351.5Q289 363 256 363Q204 363 160.0 337.0Q116 311 90.0 267.0Q64 223 64.0 171.0Q64 119 90.0 74.5Q116 30 160.0 4.5Q204 -21 256 -21Q274 -21 292 -18Q282 2 279 23Q265 21 256 21ZM320 64V21H491V64Z" />
      </g>
    </svg>