<svg xmlns="http://www.w3.org/2000/svg" viewBox="64 -21 427 448">
      <g transform="scale(1 -1) translate(0 -406)">
        <path d="M277 149H235V277H277ZM320 427H192V384H320ZM107 171Q107 211 127.0 245.5Q147 280 181.0 300.0Q215 320 256 320Q308 320 348.5 288.0Q389 256 401 206L414 219Q424 229 437 233Q427 264 406 290L436 321Q421 338 406 351L376 320Q351 340 320.0 351.5Q289 363 256 363Q204 363 160.0 337.0Q116 311 90.0 267.0Q64 223 64 171Q64 122 86.5 80.5Q109 39 148.0 12.0Q187 -15 235 -20V23Q199 28 169.5 49.0Q140 70 123.5 102.0Q107 134 107 171ZM277 22V-21H321L452 109L408 153ZM487 161 459 189Q456 192 451.5 192.0Q447 192 444 189L423 168L467 124L487 145Q491 148 491.0 152.5Q491 157 487 161Z" />
      </g>
    </svg>