<svg xmlns="http://www.w3.org/2000/svg" viewBox="0 62 512 260">
      <g transform="scale(1 -1) translate(0 -384)">
        <path d="M275 166Q275 147 272.5 133.5Q270 120 265.0 111.5Q260 103 253.0 99.5Q246 96 235.0 96.0Q224 96 217.0 99.5Q210 103 204.5 112.0Q199 121 196.5 133.5Q194 146 194 166V219Q194 239 196.5 252.0Q199 265 204.5 273.0Q210 281 217.0 284.5Q224 288 234.5 288.0Q245 288 252.5 284.5Q260 281 265.0 273.0Q270 265 272.5 251.5Q275 238 275 220ZM295 298Q285 310 269.0 316.0Q253 322 235.0 322.0Q217 322 200.5 316.0Q184 310 174.0 297.5Q164 285 158.0 263.5Q152 242 152 213V172Q152 141 158.0 120.0Q164 99 175.0 86.0Q186 73 202.0 67.5Q218 62 235.0 62.0Q252 62 268.5 68.0Q285 74 295.5 87.0Q306 100 311.5 121.0Q317 142 317 172V213Q317 243 311.0 264.0Q305 285 295 298ZM507 141Q503 151 493.5 157.5Q484 164 471.5 168.5Q459 173 444 177Q434 178 425.0 181.5Q416 185 412.5 187.5Q409 190 407.0 194.0Q405 198 405.0 202.0Q405 206 407.0 210.5Q409 215 413.5 218.0Q418 221 423.5 223.0Q429 225 437.0 225.0Q445 225 450.5 222.5Q456 220 460.5 216.0Q465 212 467.0 206.5Q469 201 469 197H511Q511 209 505.5 220.0Q500 231 491.0 238.5Q482 246 468.0 251.0Q454 256 437.5 256.0Q421 256 407.5 251.5Q394 247 385.0 240.0Q376 233 370.5 222.5Q365 212 365.0 200.0Q365 188 370.0 179.0Q375 170 383.0 164.0Q391 158 404 153Q415 149 432 145Q444 142 451.5 139.5Q459 137 463.5 133.5Q468 130 469.5 126.5Q471 123 471 117Q471 107 462.5 101.0Q454 95 437 95Q430 95 424.0 96.5Q418 98 412.0 102.0Q406 106 403.0 111.5Q400 117 400 125H359Q359 114 364.5 103.0Q370 92 379.5 83.0Q389 74 403.5 69.0Q418 64 436.5 64.0Q455 64 468.0 68.0Q481 72 491.0 79.0Q501 86 506.5 96.0Q512 106 512.0 119.5Q512 133 507 141ZM0 283V247L64 269V64H107V320H101Z" />
      </g>
    </svg>