<svg xmlns="http://www.w3.org/2000/svg" viewBox="64 -43 427 470">
      <g transform="scale(1 -1) translate(0 -384)">
        <path d="M320 384H192V427H320ZM256 53Q256 14 277 -20Q270 -21 256 -21Q204 -21 160.0 4.5Q116 30 90.0 74.5Q64 119 64.0 171.0Q64 223 90.0 267.0Q116 311 160.0 337.0Q204 363 256 363Q289 363 320.0 351.5Q351 340 376 320L406 351Q421 338 436 321L406 290Q444 243 448 181Q422 192 395 192Q357 192 325.0 173.5Q293 155 274.5 123.0Q256 91 256 53ZM277 299H235V149H277ZM491 53Q491 13 463.0 -15.0Q435 -43 395.0 -43.0Q355 -43 327.0 -15.0Q299 13 299.0 53.0Q299 93 327.0 121.0Q355 149 395.0 149.0Q435 149 463.0 121.0Q491 93 491 53ZM427 -2 340 85Q331 71 331 53Q331 27 349.5 8.0Q368 -11 395 -11Q413 -11 427 -2ZM459 53Q459 80 440.0 98.5Q421 117 395 117Q377 117 363 108L450 21Q459 35 459 53Z" />
      </g>
    </svg>