<svg xmlns="http://www.w3.org/2000/svg" viewBox="21 -21 491 426">
      <g transform="scale(1 -1) translate(0 -384)">
        <path d="M85 405V277H43V405ZM43 -21H85V107H43ZM107 192Q107 210 94.5 222.5Q82 235 64.0 235.0Q46 235 33.5 222.5Q21 210 21.0 192.0Q21 174 33.5 161.5Q46 149 64.0 149.0Q82 149 94.5 161.5Q107 174 107 192ZM512 320V64Q512 46 499.5 33.5Q487 21 469 21H213Q196 21 183.5 33.5Q171 46 171 64V149L128 192L171 235V320Q171 338 183.5 350.5Q196 363 213 363H469Q487 363 499.5 350.5Q512 338 512 320ZM405 171H235V128H405ZM448 256H235V213H448Z" />
      </g>
    </svg>