<svg xmlns="http://www.w3.org/2000/svg" viewBox="21 -21 491 426">
      <g transform="scale(1 -1) translate(0 -384)">
        <path d="M469 363H213Q196 363 183.5 350.5Q171 338 171 320V235L128 192L171 149V64Q171 46 183.5 33.5Q196 21 213 21H469Q487 21 499.5 33.5Q512 46 512 64V320Q512 338 499.5 350.5Q487 363 469 363ZM469 64H213V320H469ZM85 277H43V405H85ZM43 107H85V-21H43ZM107 192Q107 174 94.5 161.5Q82 149 64.0 149.0Q46 149 33.5 161.5Q21 174 21.0 192.0Q21 210 33.5 222.5Q46 235 64.0 235.0Q82 235 94.5 222.5Q107 210 107 192ZM320 126 261 190 286 215 320 181 397 258 421 228Z" />
      </g>
    </svg>