<svg xmlns="http://www.w3.org/2000/svg" viewBox="64 -43 405 470">
      <g transform="scale(1 -1) translate(0 -384)">
        <path d="M352 104V213H443Q433 256 406 290L436 321Q421 338 406 351L376 320Q351 340 320.0 351.5Q289 363 256 363Q204 363 160.0 337.0Q116 311 90.0 267.0Q64 223 64.0 171.0Q64 119 90.0 74.5Q116 30 160.0 4.5Q204 -21 256 -21Q267 -21 282 -19Q277 -4 277 11Q277 45 298.5 71.0Q320 97 352 104ZM277 149H235V299H277ZM320 384H192V427H320ZM469 171V128H427V11Q427 -11 411.0 -27.0Q395 -43 373.0 -43.0Q351 -43 335.5 -27.0Q320 -11 320.0 11.0Q320 33 335.5 48.5Q351 64 373 64Q385 64 395 60V171Z" />
      </g>
    </svg>