<svg xmlns="http://www.w3.org/2000/svg" viewBox="64 -32 405 459">
      <g transform="scale(1 -1) translate(0 -395)">
        <path d="M235 277H277V149H235ZM320 427H192V384H320ZM256 21Q215 21 181.0 41.0Q147 61 127.0 95.5Q107 130 107.0 170.5Q107 211 127.0 245.5Q147 280 181.0 300.0Q215 320 256 320Q293 320 325.0 303.0Q357 286 378.0 256.5Q399 227 404 191Q428 190 448 181Q444 243 406 290L436 321Q421 338 406 351L376 320Q351 340 320.0 351.5Q289 363 256 363Q204 363 160.0 337.0Q116 311 90.0 267.0Q64 223 64.0 171.0Q64 119 90.0 74.5Q116 30 160.0 4.5Q204 -21 256 -21Q270 -21 277 -20Q265 -1 260 21ZM469 53V139L444 114Q419 139 384.0 139.0Q349 139 324.0 114.0Q299 89 299.0 53.5Q299 18 324.0 -7.0Q349 -32 384 -32Q411 -32 432.5 -17.5Q454 -3 463 21H427Q419 11 408.0 5.5Q397 0 384 0Q362 0 346.5 15.5Q331 31 331.0 53.0Q331 75 346.5 91.0Q362 107 384.0 107.0Q406 107 422 91L384 53Z" />
      </g>
    </svg>