<svg xmlns="http://www.w3.org/2000/svg" viewBox="21 -21 491 426">
      <g transform="scale(1 -1) translate(0 -384)">
        <path d="M85 405V277H43V405ZM43 -21V107H85V-21ZM107 192Q107 174 94.5 161.5Q82 149 64.0 149.0Q46 149 33.5 161.5Q21 174 21.0 192.0Q21 210 33.5 222.5Q46 235 64.0 235.0Q82 235 94.5 222.5Q107 210 107 192ZM341 363Q388 363 427.0 340.0Q466 317 489.0 277.5Q512 238 512.0 192.0Q512 146 489.0 106.5Q466 67 427.0 44.0Q388 21 341 21Q284 21 239.5 55.0Q195 89 178 142L128 192L178 242Q195 295 239.5 329.0Q284 363 341 363ZM341 320Q307 320 277.5 303.0Q248 286 230.5 256.5Q213 227 213.0 192.0Q213 157 230.5 127.5Q248 98 277.5 81.0Q307 64 341.5 64.0Q376 64 405.5 81.0Q435 98 452.0 127.5Q469 157 469.0 192.0Q469 227 452.0 256.5Q435 286 405.5 303.0Q376 320 341 320ZM320 171V277H352V188L416 149L399 122Z" />
      </g>
    </svg>