<svg xmlns="http://www.w3.org/2000/svg" viewBox="21 -21 491 426">
      <g transform="scale(1 -1) translate(0 -384)">
        <path d="M107 192Q107 174 94.5 161.5Q82 149 64.0 149.0Q46 149 33.5 161.5Q21 174 21.0 192.0Q21 210 33.5 222.5Q46 235 64.0 235.0Q82 235 94.5 222.5Q107 210 107 192ZM85 405V277H43V405ZM43 -21V107H85V-21ZM512 320V64Q512 46 499.5 33.5Q487 21 469 21H213Q196 21 183.5 33.5Q171 46 171 64V149L128 192L171 235V320Q171 338 183.5 350.5Q196 363 213 363H469Q487 363 499.5 350.5Q512 338 512 320ZM469 320H213V217L188 192L213 167V64H469ZM256 256H427V213H256ZM256 171H384V128H256Z" />
      </g>
    </svg>