<svg xmlns="http://www.w3.org/2000/svg" viewBox="64 -33 417 460">
      <g transform="scale(1 -1) translate(0 -394)">
        <path d="M279 23Q282 2 292 -18Q274 -21 256 -21Q204 -21 160.0 4.5Q116 30 90.0 74.5Q64 119 64.0 171.0Q64 223 90.0 267.0Q116 311 160.0 337.0Q204 363 256 363Q289 363 320.0 351.5Q351 340 376 320L406 351Q421 338 436 321L406 290Q426 265 437.0 234.5Q448 204 448 171V163Q426 171 405 171Q405 211 385.0 245.5Q365 280 331.0 300.0Q297 320 256.0 320.0Q215 320 181.0 300.0Q147 280 127.0 245.5Q107 211 107.0 170.5Q107 130 127.0 95.5Q147 61 181.0 41.0Q215 21 256 21Q265 21 279 23ZM235 149H277V277H235ZM320 427H192V384H320ZM481 88 451 118 405 73 360 118 330 88 375 43 330 -3 360 -33 405 13 451 -33 481 -3 435 43Z" />
      </g>
    </svg>