<svg xmlns="http://www.w3.org/2000/svg" viewBox="64 -21 427 448">
      <g transform="scale(1 -1) translate(0 -406)">
        <path d="M235 277H277V149H235ZM277 23Q266 21 256 21Q215 21 181.0 41.0Q147 61 127.0 95.5Q107 130 107.0 170.5Q107 211 127.0 245.5Q147 280 181.0 300.0Q215 320 256 320Q300 320 336.5 296.0Q373 272 391 233L405 235Q421 235 439 229Q428 263 406 290L436 321Q421 338 406 351L376 320Q351 340 320.0 351.5Q289 363 256 363Q204 363 160.0 337.0Q116 311 90.0 267.0Q64 223 64.0 171.0Q64 119 90.0 74.5Q116 30 160.0 4.5Q204 -21 256 -21Q267 -21 282 -19Q277 -6 277 6ZM320 427H192V384H320ZM491 79V4Q491 -6 482.5 -13.5Q474 -21 463 -21H346Q336 -21 328.0 -13.0Q320 -5 320 6V81Q320 91 328.0 99.0Q336 107 346 107V139Q346 161 364.0 176.5Q382 192 405.0 192.0Q428 192 446.5 176.5Q465 161 465 139V107Q475 107 483.0 98.5Q491 90 491 79ZM437 139Q437 151 428.0 158.5Q419 166 405.5 166.0Q392 166 382.5 158.5Q373 151 373 139V107H437Z" />
      </g>
    </svg>