<svg xmlns="http://www.w3.org/2000/svg" viewBox="64 -21 427 448">
      <g transform="scale(1 -1) translate(0 -406)">
        <path d="M320 384H192V427H320ZM303 160V134Q291 124 284.0 110.0Q277 96 277 81V6Q277 -6 282 -19Q267 -21 256 -21Q204 -21 160.0 4.5Q116 30 90.0 74.5Q64 119 64.0 171.0Q64 223 90.0 267.0Q116 311 160.0 337.0Q204 363 256 363Q289 363 320.0 351.5Q351 340 376 320L406 351Q421 338 436 321L406 290Q420 273 429 253Q416 256 405 256Q378 256 354.5 243.0Q331 230 317.0 208.0Q303 186 303 160ZM277 299H235V149H277ZM465 107H373V160Q373 172 382.5 180.0Q392 188 405.5 188.0Q419 188 428.0 180.0Q437 172 437 160V149H465V160Q465 182 446.5 197.5Q428 213 405.0 213.0Q382 213 364.0 197.5Q346 182 346 160V107Q336 107 328.0 99.0Q320 91 320 81V6Q320 -5 328.0 -13.0Q336 -21 346 -21H463Q474 -21 482.5 -13.5Q491 -6 491 4V79Q491 90 483.0 98.5Q475 107 465 107Z" />
      </g>
    </svg>