<svg xmlns="http://www.w3.org/2000/svg" viewBox="43 -21 426 426">
      <g transform="scale(1 -1) translate(0 -384)">
        <path d="M419 242 412 262 451 277Q437 311 411.5 337.5Q386 364 353 381L336 343L316 352L333 390Q295 405 256 405Q228 405 191 395L206 355L186 348L171 387Q137 373 110.5 347.5Q84 322 67 289L105 272L96 252L58 269Q43 231 43 192Q43 164 53 127L93 142L100 122L61 107Q75 73 100.5 46.5Q126 20 159 3L176 41L196 32L179 -6Q217 -21 256 -21Q284 -21 321 -11L306 29L326 36L341 -3Q375 11 401.5 36.5Q428 62 445 95L407 112L416 132L454 115Q469 153 469 192Q469 220 459 257ZM305 74Q273 61 239.0 65.5Q205 70 178.0 90.5Q151 111 138.0 143.0Q125 175 129.5 209.0Q134 243 154.5 270.0Q175 297 207.0 310.0Q239 323 273.0 318.5Q307 314 334.0 293.5Q361 273 374.5 241.0Q388 209 383.0 175.0Q378 141 357.5 114.0Q337 87 305 74Z" />
      </g>
    </svg>