<svg xmlns="http://www.w3.org/2000/svg" viewBox="43 21 426 342">
      <g transform="scale(1 -1) translate(0 -384)">
        <path d="M448 213Q448 231 435.5 243.5Q423 256 405 256H107Q89 256 76.5 243.5Q64 231 64 213H43V171H64V21H448V171H469V213ZM363 128Q350 128 339.0 135.0Q328 142 323.0 154.0Q318 166 320.5 179.0Q323 192 332.5 201.0Q342 210 354.5 212.5Q367 215 379.0 210.0Q391 205 398.0 194.5Q405 184 405 171Q405 153 392.5 140.5Q380 128 363 128ZM384 277H128Q133 314 169.5 338.5Q206 363 255.5 363.0Q305 363 341.5 338.5Q378 314 384 277Z" />
      </g>
    </svg>