<svg xmlns="http://www.w3.org/2000/svg" viewBox="43 43 426 298">
      <g transform="scale(1 -1) translate(0 -384)">
        <path d="M85 341Q68 341 55.5 328.5Q43 316 43 299V85Q43 68 55.5 55.5Q68 43 85 43H427Q444 43 456.5 55.5Q469 68 469 85V299Q469 316 456.5 328.5Q444 341 427 341ZM85 299H341V85H85ZM405 299Q414 299 420.5 292.5Q427 286 427.0 277.0Q427 268 420.5 262.0Q414 256 405.0 256.0Q396 256 390.0 262.0Q384 268 384.0 277.0Q384 286 390.0 292.5Q396 299 405 299ZM128 256V213H299V256ZM405 213Q414 213 420.5 207.0Q427 201 427.0 192.0Q427 183 420.5 177.0Q414 171 405.0 171.0Q396 171 390.0 177.0Q384 183 384.0 192.0Q384 201 390.0 207.0Q396 213 405 213Z" />
      </g>
    </svg>