<svg xmlns="http://www.w3.org/2000/svg" viewBox="23 -36 448 448">
      <g transform="scale(1 -1) translate(0 -376)">
        <path d="M444 -36 386 21H64V171H43V213H64Q64 231 76.5 243.5Q89 256 107 256H151L23 384L51 412L471 -9ZM326 190Q331 200 341.5 206.5Q352 213 363 213Q380 213 392.5 200.5Q405 188 405 171Q405 144 382 134L448 68V171H469V213H448Q448 231 435.5 243.5Q423 256 405 256H260ZM384 277Q377 313 341.0 338.0Q305 363 256 363Q234 363 212.5 357.0Q191 351 175 341L239 277Z" />
      </g>
    </svg>