<svg xmlns="http://www.w3.org/2000/svg" viewBox="107 -43 298 470">
      <g transform="scale(1 -1) translate(0 -384)">
        <path d="M119 414Q132 427 149 427H363Q380 427 392.5 414.0Q405 401 405 384V0Q405 -17 392.5 -30.0Q380 -43 363 -43H149Q132 -43 119.5 -30.0Q107 -17 107 0V384Q107 401 119 414ZM171 384Q161 384 155.0 378.0Q149 372 149 363V21Q149 12 155.0 6.0Q161 0 171 0H341Q351 0 357.0 6.0Q363 12 363 21V363Q363 372 357.0 378.0Q351 384 341 384ZM171 85Q171 95 176.5 101.0Q182 107 192 107H320Q330 107 335.5 101.0Q341 95 341 85V43Q341 33 335.5 27.0Q330 21 320 21H192Q182 21 176.5 27.0Q171 33 171 43Z" />
      </g>
    </svg>