<svg xmlns="http://www.w3.org/2000/svg" viewBox="21 64 470 256">
      <g transform="scale(1 -1) translate(0 -384)">
        <path d="M363 320H149Q115 320 85.5 303.0Q56 286 38.5 256.5Q21 227 21.0 192.0Q21 157 38.5 127.5Q56 98 85.5 81.0Q115 64 149 64H363Q397 64 426.5 81.0Q456 98 473.5 127.5Q491 157 491.0 192.0Q491 227 473.5 256.5Q456 286 426.5 303.0Q397 320 363 320ZM363 107H149Q114 107 89.0 132.0Q64 157 64.0 192.0Q64 227 89.0 252.0Q114 277 149 277H363Q398 277 423.0 252.0Q448 227 448.0 192.0Q448 157 423.0 132.0Q398 107 363 107ZM149 256Q123 256 104.0 237.5Q85 219 85.0 192.0Q85 165 104.0 146.5Q123 128 149.5 128.0Q176 128 194.5 146.5Q213 165 213.0 192.0Q213 219 194.5 237.5Q176 256 149 256Z" />
      </g>
    </svg>