<svg xmlns="http://www.w3.org/2000/svg" viewBox="43 85 426 214">
      <g transform="scale(1 -1) translate(0 -384)">
        <path d="M363 299H149Q120 299 95.5 284.5Q71 270 57.0 245.5Q43 221 43.0 192.0Q43 163 57.0 138.5Q71 114 95.5 99.5Q120 85 149 85H363Q392 85 416.5 99.5Q441 114 455.0 138.5Q469 163 469.0 192.0Q469 221 455.0 245.5Q441 270 416.5 284.5Q392 299 363 299ZM363 128Q336 128 317.5 146.5Q299 165 299.0 192.0Q299 219 317.5 237.5Q336 256 362.5 256.0Q389 256 408.0 237.5Q427 219 427.0 192.0Q427 165 408.0 146.5Q389 128 363 128Z" />
      </g>
    </svg>