<svg xmlns="http://www.w3.org/2000/svg" viewBox="43 -21 426 426">
      <g transform="scale(1 -1) translate(0 -384)">
        <path d="M85 405H427Q444 405 456.5 392.5Q469 380 469 363V107Q469 89 456.5 76.5Q444 64 427 64H341L256 -21L171 64H85Q68 64 55.5 76.5Q43 89 43 107V363Q43 380 55.5 392.5Q68 405 85 405ZM85 363V107H188L256 39L324 107H427V363ZM338 273 316 252 272 295 294 317Q297 320 302.0 320.0Q307 320 310 317L338 290Q341 287 341.0 282.0Q341 277 338 273ZM171 194 260 283 304 239 215 149H171Z" />
      </g>
    </svg>