<svg xmlns="http://www.w3.org/2000/svg" viewBox="43 -21 426 426">
      <g transform="scale(1 -1) translate(0 -384)">
        <path d="M85 405H427Q444 405 456.5 392.5Q469 380 469 363V107Q469 89 456.5 76.5Q444 64 427 64H341L256 -21L171 64H85Q68 64 55.5 76.5Q43 89 43 107V363Q43 380 55.5 392.5Q68 405 85 405ZM405 128V299L320 213L277 256L149 128ZM149 341Q132 341 119.5 328.5Q107 316 107.0 298.5Q107 281 119.5 268.5Q132 256 149.5 256.0Q167 256 179.5 268.5Q192 281 192.0 298.5Q192 316 179.5 328.5Q167 341 149 341Z" />
      </g>
    </svg>