<svg xmlns="http://www.w3.org/2000/svg" viewBox="43 -21 426 426">
      <g transform="scale(1 -1) translate(0 -384)">
        <path d="M463 15 433 -15Q427 -21 418.0 -21.0Q409 -21 403 -15L149 238Q139 235 128 235Q107 235 89.0 244.5Q71 254 59.0 270.5Q47 287 44.0 307.5Q41 328 47 348L102 294L154 346L100 401Q120 407 140.5 404.0Q161 401 177.5 389.0Q194 377 203.5 359.0Q213 341 213 320Q213 309 210 299L463 45Q469 39 469.0 30.0Q469 21 463 15ZM49 45Q43 39 43.0 30.0Q43 21 49 15L79 -15Q85 -21 94.0 -21.0Q103 -21 109 -15L226 101L166 162ZM427 405 341 363V320L295 274L338 231L384 277H427L469 363Z" />
      </g>
    </svg>