<svg xmlns="http://www.w3.org/2000/svg" viewBox="43 -21 426 426">
      <g transform="scale(1 -1) translate(0 -384)">
        <path d="M427 405H85Q68 405 55.5 392.5Q43 380 43 363V107Q43 89 55.5 76.5Q68 64 85 64H171L256 -21L341 64H427Q444 64 456.5 76.5Q469 89 469 107V363Q469 380 456.5 392.5Q444 405 427 405ZM256 356Q280 356 297.0 339.5Q314 323 314.0 299.0Q314 275 297.0 258.0Q280 241 256.0 241.0Q232 241 215.0 258.0Q198 275 198.0 299.0Q198 323 215.0 339.5Q232 356 256 356ZM384 128H128V147Q128 167 152 183Q172 197 204 206Q233 213 256.0 213.0Q279 213 308 206Q340 197 360 183Q384 167 384 147Z" />
      </g>
    </svg>