<svg xmlns="http://www.w3.org/2000/svg" viewBox="43 -21 426 426">
      <g transform="scale(1 -1) translate(0 -384)">
        <path d="M85 405H427Q444 405 456.5 392.5Q469 380 469 363V107Q469 89 456.5 76.5Q444 64 427 64H341L256 -21L171 64H85Q68 64 55.5 76.5Q43 89 43 107V363Q43 380 55.5 392.5Q68 405 85 405ZM85 363V107H188L256 39L324 107H427V363ZM160 320Q173 320 182.5 310.5Q192 301 192.0 288.0Q192 275 182.5 265.5Q173 256 160.0 256.0Q147 256 137.5 265.5Q128 275 128.0 288.0Q128 301 137.5 310.5Q147 320 160 320ZM128 149 235 256 277 213 384 320V149Z" />
      </g>
    </svg>