<svg xmlns="http://www.w3.org/2000/svg" viewBox="43 -21 426 426">
      <g transform="scale(1 -1) translate(0 -384)">
        <path d="M192 320H320V149H192ZM469 363V107Q469 89 456.5 76.5Q444 64 427 64H341L256 -21L171 64H85Q68 64 55.5 76.5Q43 89 43 107V363Q43 380 55.5 392.5Q68 405 85 405H427Q444 405 456.5 392.5Q469 380 469 363ZM341 339Q341 349 334.0 356.0Q327 363 317 363H195Q185 363 178.0 356.0Q171 349 171 339V130Q171 120 178.0 113.5Q185 107 195 107H317Q327 107 334.0 113.5Q341 120 341 130Z" />
      </g>
    </svg>