<svg xmlns="http://www.w3.org/2000/svg" viewBox="170 -21 171 448">
      <g transform="scale(1 -1) translate(0 -406)">
        <path d="M183 243Q198 222 218 213H303Q309 215 318 224Q334 240 339.5 262.5Q345 285 337 305L335 309Q333 316 324 324Q323 326 320.0 329.5Q317 333 316 335Q299 348 290 356Q276 370 273.5 390.0Q271 410 279 427Q263 423 250 410Q225 390 217.0 359.5Q209 329 220 299V294Q220 292 215 288Q214 287 211.5 287.5Q209 288 207 290L205 292Q195 305 193.5 322.5Q192 340 198 356Q184 343 176.5 324.0Q169 305 171 284Q171 277 175 265Q175 256 183 243ZM262 275Q264 283 260 297L258 303Q255 317 260 329L267 316Q270 311 279 303Q285 298 288 294Q293 289 294 282V275Q294 258 284 247L279 245Q274 241 271 241Q262 238 252.0 241.5Q242 245 235 252Q246 252 253.5 259.0Q261 266 262 275ZM320 192V149H299L277 -21H235L213 149H192V192Z" />
      </g>
    </svg>