<svg xmlns="http://www.w3.org/2000/svg" viewBox="43 21 426 342">
      <g transform="scale(1 -1) translate(0 -384)">
        <path d="M427 235V299L363 363H149L85 299V235Q68 235 55.5 222.5Q43 210 43.0 192.0Q43 174 55.5 161.5Q68 149 85 149V64Q85 46 97.5 33.5Q110 21 128 21H384Q402 21 414.5 33.5Q427 46 427 64V149Q444 149 456.5 161.5Q469 174 469.0 192.0Q469 210 456.5 222.5Q444 235 427 235ZM256 107Q221 107 196.0 132.0Q171 157 171.0 192.0Q171 227 196.0 252.0Q221 277 256.0 277.0Q291 277 316.0 252.0Q341 227 341.0 192.0Q341 157 316.0 132.0Q291 107 256 107ZM299 192Q299 174 286.5 161.5Q274 149 256.0 149.0Q238 149 225.5 161.5Q213 174 213.0 192.0Q213 210 225.5 222.5Q238 235 256.0 235.0Q274 235 286.5 222.5Q299 210 299 192Z" />
      </g>
    </svg>