<svg xmlns="http://www.w3.org/2000/svg" viewBox="21 21 470 342">
      <g transform="scale(1 -1) translate(0 -384)">
        <path d="M320 235H435L364 320H320ZM373 53Q386 53 395.5 62.5Q405 72 405.0 85.0Q405 98 395.5 107.5Q386 117 373.0 117.0Q360 117 350.5 107.5Q341 98 341.0 85.0Q341 72 350.5 62.5Q360 53 373 53ZM128 53Q142 53 151.0 62.5Q160 72 160.0 85.0Q160 98 151.0 107.5Q142 117 128.0 117.0Q114 117 105.0 107.5Q96 98 96.0 85.0Q96 72 105.0 62.5Q114 53 128 53ZM384 363 491 235V85H437Q437 59 418.0 40.0Q399 21 373.0 21.0Q347 21 328.0 40.0Q309 59 309 85H192Q192 59 173.0 40.0Q154 21 128.0 21.0Q102 21 83.0 40.0Q64 59 64 85H21V171H196L64 275V213H21V341H43L277 212V363Z" />
      </g>
    </svg>