<svg xmlns="http://www.w3.org/2000/svg" viewBox="43 -21 426 426">
      <g transform="scale(1 -1) translate(0 -384)">
        <path d="M448 235H363V277L267 316V363H320V405H245V316L149 277V235H64Q55 235 49.0 228.5Q43 222 43 213V-21H213V85H299V-21H469V213Q469 222 463.0 228.5Q457 235 448 235ZM171 21H85V85H171ZM171 128H85V192H171ZM256 277Q265 277 271.0 271.0Q277 265 277.0 256.0Q277 247 271.0 241.0Q265 235 256.0 235.0Q247 235 241.0 241.0Q235 247 235.0 256.0Q235 265 241.0 271.0Q247 277 256 277ZM299 128H213V192H299ZM427 21H341V85H427ZM427 128H341V192H427Z" />
      </g>
    </svg>