<svg xmlns="http://www.w3.org/2000/svg" viewBox="64 -33 417 417">
      <g transform="scale(1 -1) translate(0 -351)">
        <path d="M405 320V341Q405 359 392.5 371.5Q380 384 363 384H320Q302 384 289.5 371.5Q277 359 277 341V320H235V341Q235 359 222.5 371.5Q210 384 192 384H149Q132 384 119.5 371.5Q107 359 107 341V320H64V21H279Q277 32 277 43Q277 74 291.5 101.5Q306 129 331.5 147.0Q357 165 388.0 169.5Q419 174 448 163V320ZM481 88 435 43 481 -3 451 -33 405 13 360 -33 330 -3 375 43 330 88 360 118 405 73 451 118Z" />
      </g>
    </svg>