<svg xmlns="http://www.w3.org/2000/svg" viewBox="64 -21 405 405">
      <g transform="scale(1 -1) translate(0 -363)">
        <path d="M405 320V341Q405 359 392.5 371.5Q380 384 363 384H320Q302 384 289.5 371.5Q277 359 277 341V320H235V341Q235 359 222.5 371.5Q210 384 192 384H149Q132 384 119.5 371.5Q107 359 107 341V320H64V21H310Q281 65 277 117Q278 149 293.5 176.0Q309 203 336.0 218.5Q363 234 395 235Q423 235 448 221V320ZM395 192Q364 192 342.0 170.0Q320 148 320 117Q320 93 339 57Q353 31 375 2L395 -21L414 2Q436 31 450 57Q469 93 469 117Q469 148 447.0 170.0Q425 192 395 192ZM395 90Q384 90 376.5 97.5Q369 105 369.0 115.5Q369 126 376.5 133.5Q384 141 394.5 140.5Q405 140 412.5 133.0Q420 126 420.5 115.0Q421 104 413.0 96.5Q405 89 395 90Z" />
      </g>
    </svg>