<svg xmlns="http://www.w3.org/2000/svg" viewBox="64 -30 435 414">
      <g transform="scale(1 -1) translate(0 -354)">
        <path d="M405 320V341Q405 359 392.5 371.5Q380 384 363 384H320Q302 384 289.5 371.5Q277 359 277 341V320H235V341Q235 359 222.5 371.5Q210 384 192 384H149Q132 384 119.5 371.5Q107 359 107 341V320H64V21H252Q234 40 224 64H107V277H405V245Q429 235 448 217V320ZM433 66Q453 97 447.0 133.0Q441 169 412.5 192.0Q384 215 347.0 213.0Q310 211 284.0 185.5Q258 160 256.0 123.5Q254 87 277.0 58.0Q300 29 336.0 23.0Q372 17 403 36L469 -30L499 0ZM352 64Q330 64 314.5 79.5Q299 95 299.0 117.0Q299 139 314.5 155.0Q330 171 352.0 171.0Q374 171 389.5 155.0Q405 139 405.0 117.0Q405 95 389.5 79.5Q374 64 352 64Z" />
      </g>
    </svg>