<svg xmlns="http://www.w3.org/2000/svg" viewBox="21 21 470 367">
      <g transform="scale(1 -1) translate(0 -409)">
        <path d="M284 388 209 314 224 299 254 328 277 305V256Q277 238 264.5 225.5Q252 213 235 213H223Q256 177 256 128Q256 117 254 107H321Q325 143 352.0 167.5Q379 192 416 192Q445 192 469 176V277Q469 295 456.5 307.5Q444 320 427 320H292L269 343L299 373ZM85 299Q77 299 70.5 292.5Q64 286 64.0 277.5Q64 269 70.5 262.5Q77 256 85 256H192Q192 274 179.5 286.5Q167 299 149 299ZM128 235Q111 235 95 229L102 209L92 206L85 225Q50 210 33 176L52 167L48 158L29 166Q21 148 21 128Q21 111 27 95L47 102L50 92L31 85Q46 50 80 33L88 52L98 48L90 29Q108 21 128 21Q145 21 161 27L154 47L164 50L171 31Q206 46 223 80L204 88L208 98L227 90Q235 108 235 128Q235 145 229 161L209 154L206 164L225 171Q210 206 176 223L168 204L158 208L166 227Q148 235 128 235ZM128 192Q155 192 173.5 173.5Q192 155 192.0 128.0Q192 101 173.5 82.5Q155 64 128.0 64.0Q101 64 82.5 82.5Q64 101 64.0 128.0Q64 155 82.5 173.5Q101 192 128 192ZM416 171Q385 171 363.0 149.0Q341 127 341.0 96.0Q341 65 363.0 43.0Q385 21 416.0 21.0Q447 21 469.0 43.0Q491 65 491.0 96.0Q491 127 469.0 149.0Q447 171 416 171ZM416 128Q429 128 438.5 118.5Q448 109 448.0 96.0Q448 83 438.5 73.5Q429 64 416.0 64.0Q403 64 393.5 73.5Q384 83 384.0 96.0Q384 109 393.5 118.5Q403 128 416 128Z" />
      </g>
    </svg>