<svg xmlns="http://www.w3.org/2000/svg" viewBox="21 -43 470 470">
      <g transform="scale(1 -1) translate(0 -384)">
        <path d="M64 427Q46 427 33.5 414.5Q21 402 21 384V85Q21 68 33.5 55.5Q46 43 64 43H299V85H256V171H356Q383 192 416 192Q432 192 448 186V384Q448 402 435.5 414.5Q423 427 405 427ZM64 384H405V213H64ZM64 171H213V85H64ZM416 149Q394 149 378.5 133.5Q363 118 363 96V85Q354 85 347.5 79.0Q341 73 341 64V-21Q341 -30 347.5 -36.5Q354 -43 363 -43H469Q478 -43 484.5 -36.5Q491 -30 491 -21V64Q491 73 484.5 79.0Q478 85 469 85V96Q469 118 453.5 133.5Q438 149 416 149ZM416 128Q429 128 438.5 118.5Q448 109 448 96V85H384V96Q384 109 393.5 118.5Q403 128 416 128Z" />
      </g>
    </svg>