<svg xmlns="http://www.w3.org/2000/svg" viewBox="85 0 342 384">
      <g transform="scale(1 -1) translate(0 -384)">
        <path d="M427 235H363V259Q391 266 409.0 289.0Q427 312 427 341H363V363Q363 371 356.5 377.5Q350 384 341 384H171Q162 384 155.5 377.5Q149 371 149 363V341H85Q85 312 103.0 289.0Q121 266 149 259V235H85Q85 205 103.0 182.5Q121 160 149 152V128H85Q85 99 103.0 76.0Q121 53 149 46V21Q149 13 155.5 6.5Q162 0 171 0H341Q350 0 356.5 6.5Q363 13 363 21V46Q391 53 409.0 76.0Q427 99 427 128H363V152Q391 160 409.0 182.5Q427 205 427 235ZM320 43H192V341H320ZM256 64Q269 64 278.5 73.5Q288 83 288.0 96.0Q288 109 278.5 118.5Q269 128 256.0 128.0Q243 128 233.5 118.5Q224 109 224.0 96.0Q224 83 233.5 73.5Q243 64 256 64ZM256 160Q269 160 278.5 169.5Q288 179 288.0 192.0Q288 205 278.5 214.5Q269 224 256.0 224.0Q243 224 233.5 214.5Q224 205 224.0 192.0Q224 179 233.5 169.5Q243 160 256 160ZM256 256Q269 256 278.5 265.5Q288 275 288.0 288.0Q288 301 278.5 310.5Q269 320 256.0 320.0Q243 320 233.5 310.5Q224 301 224.0 288.0Q224 275 233.5 265.5Q243 256 256 256Z" />
      </g>
    </svg>