<svg xmlns="http://www.w3.org/2000/svg" viewBox="43 21 426 342">
      <g transform="scale(1 -1) translate(0 -384)">
        <path d="M256 363H107Q80 363 61.5 344.0Q43 325 43 299V128Q43 101 61.5 82.5Q80 64 107 64L85 43V21H107L149 65L192 64V171H85V320H277V277H320V299Q320 325 301.5 344.0Q283 363 256 363ZM107 149Q116 149 122.0 143.0Q128 137 128.0 128.0Q128 119 122.0 113.0Q116 107 107.0 107.0Q98 107 91.5 113.0Q85 119 85.0 128.0Q85 137 91.5 143.0Q98 149 107 149ZM439 242Q437 248 431.0 252.0Q425 256 418 256H265Q257 256 251.5 252.0Q246 248 244 242L213 154V37Q213 31 217.5 26.0Q222 21 228 21H241Q247 21 251.5 26.0Q256 31 256 38V64H427V38Q427 31 431.0 26.0Q435 21 441 21H454Q460 21 464.5 26.0Q469 31 469 37V154ZM265 235H418L440 171H243ZM256 107Q247 107 241.0 113.0Q235 119 235.0 128.0Q235 137 241.0 143.0Q247 149 256.0 149.0Q265 149 271.0 143.0Q277 137 277.0 128.0Q277 119 271.0 113.0Q265 107 256 107ZM427 107Q418 107 411.5 113.0Q405 119 405.0 128.0Q405 137 411.5 143.0Q418 149 427.0 149.0Q436 149 442.0 143.0Q448 137 448.0 128.0Q448 119 442.0 113.0Q436 107 427 107Z" />
      </g>
    </svg>