<svg xmlns="http://www.w3.org/2000/svg" viewBox="85 0 342 427">
      <g transform="scale(1 -1) translate(0 -427)">
        <path d="M384 235H128V341H384ZM256 85Q238 85 225.5 97.5Q213 110 213.0 128.0Q213 146 225.5 158.5Q238 171 256.0 171.0Q274 171 286.5 158.5Q299 146 299.0 128.0Q299 110 286.5 97.5Q274 85 256 85ZM85 117Q85 86 107.0 64.5Q129 43 160 43L128 11V0H384V11L352 43Q383 43 405.0 64.5Q427 86 427 117V341Q427 393 377 412Q339 427 256.0 427.0Q173 427 135 412Q85 393 85 341Z" />
      </g>
    </svg>