<svg xmlns="http://www.w3.org/2000/svg" viewBox="21 43 470 341">
      <g transform="scale(1 -1) translate(0 -427)">
        <path d="M453 128Q469 146 469 171Q469 197 450.5 216.0Q432 235 405 235H107Q80 235 61.5 216.0Q43 197 43 171Q43 146 59 128H21V85H43Q43 68 55.5 55.5Q68 43 85.5 43.0Q103 43 115.5 55.5Q128 68 128 85H384Q384 68 396.5 55.5Q409 43 426.5 43.0Q444 43 456.5 55.5Q469 68 469 85H491V128ZM405 192Q414 192 420.5 185.5Q427 179 427.0 170.5Q427 162 420.5 155.5Q414 149 405.5 149.0Q397 149 390.5 155.5Q384 162 384.0 170.5Q384 179 390.5 185.5Q397 192 405 192ZM256 192Q265 192 271.0 185.5Q277 179 277.0 170.5Q277 162 271.0 155.5Q265 149 256.0 149.0Q247 149 241.0 155.5Q235 162 235.0 170.5Q235 179 241.0 185.5Q247 192 256 192ZM107 192Q115 192 121.5 185.5Q128 179 128.0 170.5Q128 162 121.5 155.5Q115 149 106.5 149.0Q98 149 91.5 155.5Q85 162 85.0 170.5Q85 179 91.5 185.5Q98 192 107 192ZM291 320 282 363H469V320ZM427 256H85V277H128L149 384H256L277 277H427Z" />
      </g>
    </svg>