<svg xmlns="http://www.w3.org/2000/svg" viewBox="21 43 470 277">
      <g transform="scale(1 -1) translate(0 -363)">
        <path d="M491 320V85H469Q469 68 456.5 55.5Q444 43 426.5 43.0Q409 43 396.5 55.5Q384 68 384 85H128Q128 68 115.5 55.5Q103 43 85.5 43.0Q68 43 55.5 55.5Q43 68 43 85H21V320H64V128H448V320ZM171 192H85V149H171ZM320 192H192V149H320ZM427 192H341V149H427ZM171 256H85V213H171ZM320 256H192V213H320ZM427 256H341V213H427ZM171 320H85V277H171ZM320 320H192V277H320ZM427 320H341V277H427Z" />
      </g>
    </svg>