<svg xmlns="http://www.w3.org/2000/svg" viewBox="21 43 470 277">
      <g transform="scale(1 -1) translate(0 -363)">
        <path d="M448 320H64Q46 320 33.5 307.5Q21 295 21 277V85H43Q43 68 55.5 55.5Q68 43 85.5 43.0Q103 43 115.5 55.5Q128 68 128 85H384Q384 68 396.5 55.5Q409 43 426.5 43.0Q444 43 456.5 55.5Q469 68 469 85H491V277Q491 295 478.5 307.5Q466 320 448 320ZM162 188Q171 188 178.0 181.0Q185 174 185.0 164.5Q185 155 178.0 148.0Q171 141 161.5 141.0Q152 141 145.0 148.0Q138 155 138.0 164.5Q138 174 145.0 181.0Q152 188 162 188ZM150 212 185 243H248L311 212ZM206 149H306Q311 136 321 128H191Q201 136 206 149ZM327 164Q327 174 334.0 181.0Q341 188 350.5 188.0Q360 188 367.0 181.0Q374 174 374.0 164.5Q374 155 367.0 148.0Q360 141 350.5 141.0Q341 141 334.0 148.0Q327 155 327 164ZM380 128Q390 136 395 149H429V164Q429 175 421 182Q417 186 404 193L256 267H177L130 227H115Q101 227 92.0 218.0Q83 209 83 196V149H117Q122 136 132 128H64V277H448V128Z" />
      </g>
    </svg>