<svg xmlns="http://www.w3.org/2000/svg" viewBox="21 43 470 320">
      <g transform="scale(1 -1) translate(0 -406)">
        <path d="M491 171V235Q491 252 478.5 264.5Q466 277 448 277H405L341 363H128L64 277Q46 277 33.5 264.5Q21 252 21 235V171H64Q64 146 81 128H21V85H43Q43 68 55.5 55.5Q68 43 85.5 43.0Q103 43 115.5 55.5Q128 68 128 85H384Q384 68 396.5 55.5Q409 43 426.5 43.0Q444 43 456.5 55.5Q469 68 469 85H491V128H431Q448 146 448 171ZM416 171Q416 157 406.5 148.0Q397 139 384.0 139.0Q371 139 361.5 148.0Q352 157 352.0 170.5Q352 184 361.5 193.5Q371 203 384.0 203.0Q397 203 406.5 193.5Q416 184 416 171ZM256 331H325L366 277H256ZM337 128H175Q192 146 192 171H320Q320 146 337 128ZM144 331H224V277H104ZM128 203Q141 203 150.5 193.5Q160 184 160.0 170.5Q160 157 150.5 148.0Q141 139 128.0 139.0Q115 139 105.5 148.0Q96 157 96.0 170.5Q96 184 105.5 193.5Q115 203 128 203Z" />
      </g>
    </svg>