<svg xmlns="http://www.w3.org/2000/svg" viewBox="107 -21 298 426">
      <g transform="scale(1 -1) translate(0 -384)">
        <path d="M405 87V267Q405 308 368 326Q339 340 277 341L293 373H363V405H149V373H251L235 341Q176 339 146 325Q107 307 107 267V87Q107 64 123.0 46.0Q139 28 162 23L128 -11V-21H176L218 21H299L341 -21H384V-11L352 21H350Q376 21 390.5 39.5Q405 58 405 87ZM256 53Q243 53 233.5 62.5Q224 72 224.0 85.5Q224 99 233.5 108.0Q243 117 256.0 117.0Q269 117 278.5 108.0Q288 99 288.0 85.5Q288 72 278.5 62.5Q269 53 256 53ZM363 149H149V256H363Z" />
      </g>
    </svg>