<svg xmlns="http://www.w3.org/2000/svg" viewBox="43 -21 426 448">
      <g transform="scale(1 -1) translate(0 -406)">
        <path d="M192 427 107 363 160 320H107L97 319Q85 317 75 312Q61 305 53 293Q43 278 43 256V43H149L151 54Q154 66 162 74Q173 85 192 85H469V149H384V277H469V320H224L277 363ZM85 277H192V149H85ZM235 277H341V149H235ZM85 107H107V64H85ZM192 43V32Q192 10 207.5 -5.5Q223 -21 245 -21Q261 -21 274.5 -12.5Q288 -4 294 11H324Q331 -4 344.0 -12.5Q357 -21 373 -21Q395 -21 411.0 -5.5Q427 10 427 32V43Z" />
      </g>
    </svg>