<svg xmlns="http://www.w3.org/2000/svg" viewBox="42 0 427 384">
      <g transform="scale(1 -1) translate(0 -384)">
        <path d="M405 384Q390 384 376.5 377.0Q363 370 354 358Q324 364 293 363L296 320Q319 321 341 317Q342 291 361.5 273.0Q381 255 407.0 256.0Q433 257 451.5 276.0Q470 295 469.5 321.0Q469 347 450.5 365.5Q432 384 405 384ZM405 299Q396 299 390.0 305.0Q384 311 384.0 320.0Q384 329 390.0 335.0Q396 341 405.0 341.0Q414 341 420.5 335.0Q427 329 427.0 320.0Q427 311 420.5 305.0Q414 299 405 299ZM189 280 164 315Q202 343 247 355L258 313Q220 304 189 280ZM448 64Q448 43 435.5 26.0Q423 9 403.0 2.5Q383 -4 363.0 3.0Q343 10 331.0 28.0Q319 46 320.0 67.0Q321 88 335 104Q304 134 264.5 148.5Q225 163 183 161Q177 161 169 159Q165 135 146.0 120.0Q127 105 103.0 106.5Q79 108 61.5 125.0Q44 142 42.5 166.0Q41 190 55.5 209.5Q70 229 94 233Q108 261 129 284L160 255Q148 241 139 226Q154 217 163 201Q166 202 174 203L181 204Q235 206 285.0 186.0Q335 166 372 127Q378 128 384 128Q411 128 429.5 109.5Q448 91 448 64Z" />
      </g>
    </svg>