<svg xmlns="http://www.w3.org/2000/svg" viewBox="21 128 470 128">
      <g transform="scale(1 -1) translate(0 -384)">
        <path d="M256 256Q235 256 219.0 244.5Q203 233 196 213H145Q139 233 122.5 244.5Q106 256 85 256Q58 256 39.5 237.5Q21 219 21.0 192.0Q21 165 39.5 146.5Q58 128 85 128Q106 128 122.5 139.5Q139 151 145 171H196Q203 151 219.0 139.5Q235 128 256.0 128.0Q277 128 293.0 139.5Q309 151 316 171H367Q373 151 389.5 139.5Q406 128 427 128Q454 128 472.5 146.5Q491 165 491.0 192.0Q491 219 472.5 237.5Q454 256 427 256Q406 256 389.5 244.5Q373 233 367 213H316Q309 233 293.0 244.5Q277 256 256 256ZM64 192Q64 202 70.0 207.5Q76 213 85.5 213.0Q95 213 101.0 207.5Q107 202 107.0 192.0Q107 182 101.0 176.5Q95 171 85.5 171.0Q76 171 70.0 176.5Q64 182 64 192ZM448 192Q448 182 442.0 176.5Q436 171 426.5 171.0Q417 171 411.0 176.5Q405 182 405.0 192.0Q405 202 411.0 207.5Q417 213 426.5 213.0Q436 213 442.0 207.5Q448 202 448 192Z" />
      </g>
    </svg>