<svg xmlns="http://www.w3.org/2000/svg" viewBox="43 -21 426 426">
      <g transform="scale(1 -1) translate(0 -384)">
        <path d="M320 405Q382 405 425.5 361.5Q469 318 469 256Q469 207 439.0 167.0Q409 127 362 113L363 120V128Q363 198 312.5 248.5Q262 299 192 299H184L177 298Q191 345 231.0 375.0Q271 405 320 405ZM192 277Q233 277 267.0 257.0Q301 237 321.0 203.0Q341 169 341.0 128.0Q341 87 321.0 53.0Q301 19 267.0 -1.0Q233 -21 192.0 -21.0Q151 -21 117.0 -1.0Q83 19 63.0 53.0Q43 87 43.0 128.0Q43 169 63.0 203.0Q83 237 117.0 257.0Q151 277 192 277ZM192 235Q171 235 151.5 226.5Q132 218 117.0 203.0Q102 188 93.5 168.5Q85 149 85 128Q85 99 99.5 74.5Q114 50 138.5 35.5Q163 21 192.0 21.0Q221 21 245.5 35.5Q270 50 284.5 74.5Q299 99 299.0 128.0Q299 157 284.5 181.5Q270 206 245.5 220.5Q221 235 192 235Z" />
      </g>
    </svg>