<svg xmlns="http://www.w3.org/2000/svg" viewBox="192 -43 128 470">
      <g transform="scale(1 -1) translate(0 -384)">
        <path d="M320 192Q320 212 308.0 228.5Q296 245 277 252V303Q296 309 308.0 325.5Q320 342 320 363Q320 389 301.5 408.0Q283 427 256.0 427.0Q229 427 210.5 408.0Q192 389 192 363Q192 342 204.0 325.5Q216 309 235 303V252Q216 245 204.0 228.5Q192 212 192.0 192.0Q192 172 204.0 155.5Q216 139 235 132V81Q216 75 204.0 58.5Q192 42 192 21Q192 -5 210.5 -24.0Q229 -43 256.0 -43.0Q283 -43 301.5 -24.0Q320 -5 320 21Q320 42 308.0 58.5Q296 75 277 81V132Q296 139 308.0 155.5Q320 172 320 192ZM256 384Q265 384 271.0 378.0Q277 372 277.0 363.0Q277 354 271.0 347.5Q265 341 256.0 341.0Q247 341 241.0 347.5Q235 354 235.0 363.0Q235 372 241.0 378.0Q247 384 256 384ZM256 0Q247 0 241.0 6.0Q235 12 235.0 21.0Q235 30 241.0 36.5Q247 43 256.0 43.0Q265 43 271.0 36.5Q277 30 277.0 21.0Q277 12 271.0 6.0Q265 0 256 0Z" />
      </g>
    </svg>