<svg xmlns="http://www.w3.org/2000/svg" viewBox="192 -43 256 470">
      <g transform="scale(1 -1) translate(0 -384)">
        <path d="M448 192Q448 255 412.5 304.5Q377 354 320 373Q315 396 297.5 411.5Q280 427 256 427Q229 427 210.5 408.5Q192 390 192.0 362.5Q192 335 210.5 317.0Q229 299 256 299Q273 299 288.0 307.5Q303 316 311 331Q354 314 379.5 276.5Q405 239 405.0 192.5Q405 146 379.0 107.5Q353 69 311 53Q303 68 288.0 76.5Q273 85 256 85Q229 85 210.5 67.0Q192 49 192.0 21.5Q192 -6 210.5 -24.5Q229 -43 256 -43Q280 -43 297.5 -27.5Q315 -12 320 11Q377 30 412.5 80.0Q448 130 448 192ZM256 341Q246 341 240.5 347.0Q235 353 235.0 362.5Q235 372 240.5 378.0Q246 384 256.0 384.0Q266 384 271.5 378.0Q277 372 277.0 362.5Q277 353 271.5 347.0Q266 341 256 341ZM256 0Q246 0 240.5 6.0Q235 12 235.0 21.5Q235 31 240.5 37.0Q246 43 256.0 43.0Q266 43 271.5 37.0Q277 31 277.0 21.5Q277 12 271.5 6.0Q266 0 256 0ZM256 256Q283 256 301.5 237.5Q320 219 320.0 192.0Q320 165 301.5 146.5Q283 128 256.0 128.0Q229 128 210.5 146.5Q192 165 192.0 192.0Q192 219 210.5 237.5Q229 256 256 256Z" />
      </g>
    </svg>