<svg xmlns="http://www.w3.org/2000/svg" viewBox="43 -21 426 426">
      <g transform="scale(1 -1) translate(0 -384)">
        <path d="M384 213H316Q309 232 292.5 244.0Q276 256 256.0 256.0Q236 256 219.5 244.0Q203 232 196 213H128Q115 213 104 219Q85 230 85 256V277Q85 302 103 313Q114 320 128 320H345Q352 301 368.5 289.0Q385 277 405 277Q432 277 450.5 296.0Q469 315 469.0 341.5Q469 368 450.5 386.5Q432 405 405 405Q385 405 368.5 393.5Q352 382 345 363H128Q109 363 91 354Q69 345 57 327Q43 307 43 277V256Q43 227 57 206Q69 188 91 179Q109 171 128 171H196Q203 152 219.5 140.0Q236 128 256.0 128.0Q276 128 292.5 140.0Q309 152 316 171H384Q397 171 408 165Q427 154 427 128V107Q427 82 409 71Q398 64 384 64H167Q160 83 143.5 95.0Q127 107 107 107Q80 107 61.5 88.0Q43 69 43.0 42.5Q43 16 61.5 -2.5Q80 -21 107 -21Q127 -21 143.5 -9.5Q160 2 167 21H384Q403 21 421 30Q442 39 455 57Q469 78 469 107V128Q469 157 455 178Q442 196 421 205Q403 213 384 213ZM405 363Q414 363 420.5 356.5Q427 350 427.0 341.0Q427 332 420.5 326.0Q414 320 405.0 320.0Q396 320 390.0 326.0Q384 332 384.0 341.0Q384 350 390.0 356.5Q396 363 405 363ZM107 21Q98 21 91.5 27.5Q85 34 85.0 43.0Q85 52 91.5 58.0Q98 64 107.0 64.0Q116 64 122.0 58.0Q128 52 128.0 43.0Q128 34 122.0 27.5Q116 21 107 21Z" />
      </g>
    </svg>