<svg xmlns="http://www.w3.org/2000/svg" viewBox="43 -21 426 426">
      <g transform="scale(1 -1) translate(0 -384)">
        <path d="M320 405Q361 405 395.0 385.0Q429 365 449.0 331.0Q469 297 469.0 255.0Q469 213 447.0 177.5Q425 142 389 123Q367 81 325 59Q306 23 270.5 1.0Q235 -21 193.0 -21.0Q151 -21 117.0 -1.0Q83 19 63.0 53.0Q43 87 43.0 129.0Q43 171 65.0 206.5Q87 242 123 261Q145 303 187 325Q206 361 241.5 383.0Q277 405 320 405ZM256 43Q215 43 181.0 63.0Q147 83 127.0 117.0Q107 151 107 192Q85 164 85 128Q85 99 99.5 74.5Q114 50 138.5 35.5Q163 21 192 21Q228 21 256 43ZM320 107Q279 107 245.0 127.0Q211 147 191.0 181.0Q171 215 171 256Q149 228 149 192Q149 163 163.5 138.5Q178 114 202.5 99.5Q227 85 256 85Q292 85 320 107ZM320 363Q284 363 256 341Q297 341 331.0 321.0Q365 301 385.0 267.0Q405 233 405 192Q427 220 427 256Q427 285 412.5 309.5Q398 334 373.5 348.5Q349 363 320 363ZM213 256Q213 227 227.5 202.5Q242 178 266.5 163.5Q291 149 320 149Q339 149 356 156Q363 173 363 192Q363 221 348.5 245.5Q334 270 309.5 284.5Q285 299 256 299Q237 299 220 292Q213 275 213 256Z" />
      </g>
    </svg>