<svg xmlns="http://www.w3.org/2000/svg" viewBox="107 0 320 384">
      <g transform="scale(1 -1) translate(0 -384)">
        <path d="M235 0V91Q219 85 203 85Q163 85 135.0 113.0Q107 141 107.0 182.0Q107 223 136 250Q128 268 128 288Q128 328 156.0 356.0Q184 384 224 384Q249 384 270.0 372.5Q291 361 304 341H309Q333 341 354.5 332.0Q376 323 392.5 306.5Q409 290 418.0 268.5Q427 247 427.0 224.0Q427 201 418.0 179.5Q409 158 392.5 141.5Q376 125 354.5 116.0Q333 107 309 107Q293 107 277 111V0Z" />
      </g>
    </svg>