<svg xmlns="http://www.w3.org/2000/svg" viewBox="107 0 320 384">
      <g transform="scale(1 -1) translate(0 -384)">
        <path d="M224 384Q184 384 156.0 356.0Q128 328 128 288Q128 269 136 250Q122 237 114.5 219.0Q107 201 107 181Q107 141 135.0 113.0Q163 85 203 85Q217 85 235 91V0H277V112Q295 107 309 107Q333 107 354.5 116.0Q376 125 392.5 141.5Q409 158 418.0 179.5Q427 201 427.0 224.0Q427 247 418.0 268.5Q409 290 392.5 306.5Q376 323 354.5 332.0Q333 341 309 341H304Q290 361 269.0 372.5Q248 384 224 384ZM224 341Q245 341 260.5 326.5Q276 312 277 291Q292 299 309 299Q340 299 362.0 277.0Q384 255 384.0 224.0Q384 193 362.0 171.0Q340 149 308.5 149.0Q277 149 255 173Q252 153 237.0 140.5Q222 128 203 128Q181 128 165.0 143.5Q149 159 149.0 180.0Q149 201 161 215Q169 225 192 239Q180 255 175.5 266.0Q171 277 171 288Q171 310 186.5 325.5Q202 341 224 341Z" />
      </g>
    </svg>