<svg xmlns="http://www.w3.org/2000/svg" viewBox="43 -21 426 426">
      <g transform="scale(1 -1) translate(0 -384)">
        <path d="M416 405H96Q74 405 58.5 389.5Q43 374 43 352V32Q43 10 58.5 -5.5Q74 -21 96 -21H416Q438 -21 453.5 -5.5Q469 10 469 32V352Q469 374 453.5 389.5Q438 405 416 405ZM228 81Q228 70 220.5 62.5Q213 55 203 55H124Q113 55 105.5 63.0Q98 71 98 81V324Q98 335 105.5 342.5Q113 350 124 350H203Q213 350 220.5 342.5Q228 335 228 324ZM414 188Q414 177 406.5 169.5Q399 162 388 162H309Q299 162 291.5 169.5Q284 177 284 188V324Q284 335 291.5 342.5Q299 350 309 350H388Q399 350 406.5 342.5Q414 335 414 324Z" />
      </g>
    </svg>