<svg xmlns="http://www.w3.org/2000/svg" viewBox="21 21 470 342">
      <g transform="scale(1 -1) translate(0 -384)">
        <path d="M171 192H213V149H171ZM171 299H213V213H171ZM384 53Q397 53 406.5 63.0Q416 73 416.0 85.5Q416 98 406.5 107.5Q397 117 384.0 117.0Q371 117 361.5 107.5Q352 98 352.0 85.5Q352 73 361.5 63.0Q371 53 384 53ZM416 245H363V192H459ZM128 53Q141 53 150.5 63.0Q160 73 160.0 85.5Q160 98 150.5 107.5Q141 117 128.0 117.0Q115 117 105.5 107.5Q96 98 96.0 85.5Q96 73 105.5 63.0Q115 53 128 53ZM427 277 491 192V85H448Q448 58 429.5 39.5Q411 21 384.0 21.0Q357 21 338.5 39.5Q320 58 320 85H192Q192 58 173.5 39.5Q155 21 128.0 21.0Q101 21 82.5 39.5Q64 58 64 85H21V320Q21 338 33.5 350.5Q46 363 64 363H363V277ZM64 320V128H81Q89 138 102.0 143.5Q115 149 128.0 149.0Q141 149 154.0 143.5Q167 138 175 128H320V320Z" />
      </g>
    </svg>