<svg xmlns="http://www.w3.org/2000/svg" viewBox="5 21 507 342">
      <g transform="scale(1 -1) translate(0 -384)">
        <path d="M64 160 48 192H160L147 224H43L27 256H193L180 288H24L5 320H85Q85 338 97.5 350.5Q110 363 128 363H384V277H448L512 192V85H469Q469 59 450.5 40.0Q432 21 405.5 21.0Q379 21 360.0 40.0Q341 59 341 85H256Q256 59 237.5 40.0Q219 21 192.0 21.0Q165 21 146.5 40.0Q128 59 128 85H85V160ZM405 53Q419 53 428.0 62.5Q437 72 437.0 85.5Q437 99 428.0 108.0Q419 117 405.5 117.0Q392 117 382.5 108.0Q373 99 373.0 85.5Q373 72 382.5 62.5Q392 53 405 53ZM437 245H384V192H479ZM192 53Q205 53 214.5 62.5Q224 72 224.0 85.5Q224 99 214.5 108.0Q205 117 192.0 117.0Q179 117 169.5 108.0Q160 99 160.0 85.5Q160 72 169.5 62.5Q179 53 192 53Z" />
      </g>
    </svg>