<svg xmlns="http://www.w3.org/2000/svg" viewBox="16 21 475 342">
      <g transform="scale(1 -1) translate(0 -384)">
        <path d="M16 288H224L240 256H32ZM37 224H245L261 192H53ZM384 53Q397 53 406.5 62.5Q416 72 416.0 85.5Q416 99 406.5 108.0Q397 117 384.0 117.0Q371 117 361.5 108.0Q352 99 352.0 85.5Q352 72 361.5 62.5Q371 53 384 53ZM416 245H363V192H458ZM171 53Q184 53 193.5 62.5Q203 72 203.0 85.5Q203 99 193.5 108.0Q184 117 170.5 117.0Q157 117 148.0 108.0Q139 99 139.0 85.5Q139 72 148.0 62.5Q157 53 171 53ZM427 277 491 192V85H448Q448 59 429.5 40.0Q411 21 384.0 21.0Q357 21 338.5 40.0Q320 59 320 85H235Q235 59 216.0 40.0Q197 21 170.5 21.0Q144 21 125.5 40.0Q107 59 107 85H64V160H107V128H123Q142 149 170.5 149.0Q199 149 218 128H320V320H64Q64 338 76.5 350.5Q89 363 107 363H363V277Z" />
      </g>
    </svg>