<svg xmlns="http://www.w3.org/2000/svg" viewBox="21 21 470 342">
      <g transform="scale(1 -1) translate(0 -384)">
        <path d="M384 363H277V171H21V85H64Q64 59 83.0 40.0Q102 21 128.0 21.0Q154 21 173.0 40.0Q192 59 192 85H309Q309 59 328.0 40.0Q347 21 373.0 21.0Q399 21 418.0 40.0Q437 59 437 85H491V235ZM151 63Q142 53 128.0 53.0Q114 53 105.0 62.5Q96 72 96.0 85.0Q96 98 105.0 107.5Q114 117 128.0 117.0Q142 117 151.0 107.5Q160 98 160.0 85.0Q160 72 151 63ZM396 63Q386 53 373.0 53.0Q360 53 350.5 62.5Q341 72 341.0 85.0Q341 98 350.5 107.5Q360 117 373.0 117.0Q386 117 395.5 107.5Q405 98 405.0 85.0Q405 72 396 63ZM320 235V320H364L435 235Z" />
      </g>
    </svg>