<svg xmlns="http://www.w3.org/2000/svg" viewBox="21 21 470 342">
      <g transform="scale(1 -1) translate(0 -384)">
        <path d="M64 363H363V277H427L491 192V85H448Q448 59 429.5 40.0Q411 21 384.0 21.0Q357 21 338.5 40.0Q320 59 320 85H192Q192 59 173.5 40.0Q155 21 128.0 21.0Q101 21 82.5 40.0Q64 59 64 85H21V320Q21 338 33.5 350.5Q46 363 64 363ZM363 245V192H458L416 245ZM128 117Q115 117 105.5 108.0Q96 99 96.0 85.5Q96 72 105.5 62.5Q115 53 128.0 53.0Q141 53 150.5 62.5Q160 72 160.0 85.5Q160 99 150.5 108.0Q141 117 128 117ZM384 117Q371 117 361.5 108.0Q352 99 352.0 85.5Q352 72 361.5 62.5Q371 53 384.0 53.0Q397 53 406.5 62.5Q416 72 416.0 85.5Q416 99 406.5 108.0Q397 117 384 117ZM171 149 299 277 269 308 171 210 126 254 96 224Z" />
      </g>
    </svg>