<svg xmlns="http://www.w3.org/2000/svg" viewBox="21 21 470 342">
      <g transform="scale(1 -1) translate(0 -384)">
        <path d="M363 363H64Q46 363 33.5 350.5Q21 338 21 320V85H64Q64 58 82.5 39.5Q101 21 128.0 21.0Q155 21 173.5 39.5Q192 58 192 85H320Q320 58 338.5 39.5Q357 21 384.0 21.0Q411 21 429.5 39.5Q448 58 448 85H491V192L427 277H363ZM218 335H224Q232 333 236.5 326.5Q241 320 239 311L228 269L271 279Q279 281 286.0 276.5Q293 272 294.5 264.5Q296 257 292.0 250.0Q288 243 282 241L239 230L269 201Q275 196 275.0 187.5Q275 179 269.5 172.5Q264 166 255.5 166.0Q247 166 241 173L209 203L198 160Q197 152 190.0 148.0Q183 144 175.0 146.5Q167 149 163.0 156.0Q159 163 162 171L173 213L130 203Q122 201 115.0 205.0Q108 209 106.5 216.0Q105 223 109.0 230.0Q113 237 119 239L162 250L132 284Q127 289 127.0 297.0Q127 305 132.0 310.5Q137 316 145.5 316.0Q154 316 160 311L190 282L201 324Q202 328 207.0 331.5Q212 335 218 335ZM363 245H416L459 192H363ZM128 117Q141 117 150.5 107.5Q160 98 160.0 85.5Q160 73 150.5 63.0Q141 53 128.0 53.0Q115 53 105.5 63.0Q96 73 96.0 85.5Q96 98 105.5 107.5Q115 117 128 117ZM384 117Q397 117 406.5 107.5Q416 98 416.0 85.5Q416 73 406.5 63.0Q397 53 384.0 53.0Q371 53 361.5 63.0Q352 73 352.0 85.5Q352 98 361.5 107.5Q371 117 384 117Z" />
      </g>
    </svg>