<svg xmlns="http://www.w3.org/2000/svg" viewBox="21 21 470 342">
      <g transform="scale(1 -1) translate(0 -384)">
        <path d="M427 277H363V363H64Q46 363 33.5 350.5Q21 338 21 320V85H64Q64 58 82.5 39.5Q101 21 128.0 21.0Q155 21 173.5 39.5Q192 58 192 85H320Q320 58 338.5 39.5Q357 21 384.0 21.0Q411 21 429.5 39.5Q448 58 448 85H491V192ZM128 53Q115 53 105.5 63.0Q96 73 96.0 85.5Q96 98 105.5 107.5Q115 117 128.0 117.0Q141 117 150.5 107.5Q160 98 160.0 85.5Q160 73 150.5 63.0Q141 53 128 53ZM320 128H175Q167 138 154.5 143.5Q142 149 128.0 149.0Q114 149 101.5 143.5Q89 138 81 128H64V320H320ZM384 53Q371 53 361.5 63.0Q352 73 352.0 85.5Q352 98 361.5 107.5Q371 117 384.0 117.0Q397 117 406.5 107.5Q416 98 416.0 85.5Q416 73 406.5 63.0Q397 53 384 53ZM363 192V245H416L459 192ZM171 213H128V256H171V299H213V256H256V213H213V171H171Z" />
      </g>
    </svg>