<svg xmlns="http://www.w3.org/2000/svg" viewBox="21 43 470 277">
      <g transform="scale(1 -1) translate(0 -363)">
        <path d="M469 320Q462 283 437 258Q417 238 387 227Q365 218 340 215L320 213H85Q72 213 56 224Q48 229 43 235H21V149H43L49 155Q57 161 65 165Q76 171 85 171H92Q85 161 85 149V107Q85 89 97.5 76.5Q110 64 128 64H149V43H192V64H213V43H256V64H277V43H320V64H341Q359 64 371.5 76.5Q384 89 384 107V149Q384 156 382 158Q454 133 469 64H491V320ZM128 96Q123 96 120.0 99.0Q117 102 117 107V149Q117 154 120.0 157.0Q123 160 128 160H149V96ZM192 96V160H213V96ZM256 96V160H277V96ZM352 107Q352 102 349.0 99.0Q346 96 341 96H320V160H341Q346 160 349.0 157.0Q352 154 352 149ZM192 235H149V256H192ZM256 235H213V256H256ZM320 235H277V256H320Z" />
      </g>
    </svg>