<svg xmlns="http://www.w3.org/2000/svg" viewBox="25 0 462 384">
      <g transform="scale(1 -1) translate(0 -384)">
        <path d="M341 0H171Q162 0 155.5 6.0Q149 12 149 21V191L122 169Q115 163 106.5 163.0Q98 163 92 169L31 228Q25 235 25.0 243.5Q25 252 31 259L157 384H192Q192 366 210.5 353.5Q229 341 256.0 341.0Q283 341 301.5 353.5Q320 366 320 384H355L481 259Q487 252 487.0 243.5Q487 235 481 228L420 168Q414 162 405.5 162.0Q397 162 390 168L363 189V21Q363 12 356.5 6.0Q350 0 341 0Z" />
      </g>
    </svg>