<svg xmlns="http://www.w3.org/2000/svg" viewBox="25 0 462 384">
      <g transform="scale(1 -1) translate(0 -384)">
        <path d="M341 0H171Q162 0 155.5 6.0Q149 12 149 21V191L122 168Q115 162 106.5 162.0Q98 162 92 168L31 228Q25 235 25.0 243.5Q25 252 31 259L157 384H192Q192 366 210.5 353.5Q229 341 256.0 341.0Q283 341 301.5 353.5Q320 366 320 384H355L481 259Q487 252 487.0 243.5Q487 235 481 228L420 168Q414 162 405.5 162.0Q397 162 390 168L363 191V21Q363 12 356.5 6.0Q350 0 341 0ZM436 244 344 335Q334 324 320 316Q291 299 256 299Q229 299 206.0 308.5Q183 318 168 335L76 244L107 213L171 256H192V43H320V256H341L405 213Z" />
      </g>
    </svg>