<svg xmlns="http://www.w3.org/2000/svg" viewBox="43 0 426 384">
      <g transform="scale(1 -1) translate(0 -384)">
        <path d="M398 72Q350 37 307 45Q284 49 260 69L256 72L252 69Q227 49 204 45Q161 37 114 72Q87 53 69 46Q58 43 44 43H43V0Q80 0 114 20Q147 0 185.0 0.0Q223 0 256 20Q289 0 327.0 0.0Q365 0 398 20Q432 0 469 0V43Q454 43 443 46Q424 53 398 72ZM412 192H469V235H412Q383 235 362.0 255.5Q341 276 341 306Q341 319 346 333Q349 342 360 366L365 377L355 378Q319 384 299 384Q229 384 171.0 351.5Q113 319 78.5 263.0Q44 207 43 139V96Q80 96 114 116Q147 96 185.0 96.0Q223 96 256 116Q289 96 327.0 96.0Q365 96 398 116Q432 96 469 96V139Q454 139 443 142Q424 149 398 168Q350 133 307 141Q284 145 260 165L256 168L240 157L237 154Q213 186 213 224Q213 265 238.5 296.5Q264 328 303 338Q299 320 299 306Q299 275 314.0 249.0Q329 223 355.5 207.5Q382 192 412 192Z" />
      </g>
    </svg>