<svg xmlns="http://www.w3.org/2000/svg" viewBox="43 -21 426 426">
      <g transform="scale(1 -1) translate(0 -384)">
        <path d="M85 405H341Q359 405 371.5 392.5Q384 380 384 363V21Q384 4 371.5 -8.5Q359 -21 341 -21H85Q68 -21 55.5 -8.5Q43 4 43 21V363Q43 380 55.5 392.5Q68 405 85 405ZM107 363Q98 363 91.5 356.5Q85 350 85.0 341.5Q85 333 91.5 326.5Q98 320 106.5 320.0Q115 320 121.5 326.5Q128 333 128.0 341.5Q128 350 121.5 356.5Q115 363 107 363ZM171 363Q162 363 155.5 356.5Q149 350 149.0 341.5Q149 333 155.5 326.5Q162 320 170.5 320.0Q179 320 185.5 326.5Q192 333 192.0 341.5Q192 350 185.5 356.5Q179 363 171 363ZM213 277Q179 277 149.5 260.0Q120 243 102.5 213.5Q85 184 85.0 149.5Q85 115 102.5 85.5Q120 56 149.5 38.5Q179 21 213.5 21.0Q248 21 277.5 38.5Q307 56 324.0 85.5Q341 115 341.0 149.5Q341 184 324.0 213.5Q307 243 277.5 260.0Q248 277 213 277ZM130 224H171Q167 203 170.0 189.0Q173 175 183 164Q219 129 211 75H171Q174 96 171.0 110.0Q168 124 158 134Q122 169 130 224ZM216 224H256Q252 203 255.5 189.0Q259 175 268 164Q305 129 296 75H256Q260 96 256.5 110.0Q253 124 244 134Q208 169 216 224ZM427 128H469V85H427ZM427 299H469V171H427Z" />
      </g>
    </svg>