<svg xmlns="http://www.w3.org/2000/svg" viewBox="85 -21 342 426">
      <g transform="scale(1 -1) translate(0 -384)">
        <path d="M128 405H384Q402 405 414.5 392.5Q427 380 427 363V21Q427 4 414.5 -8.5Q402 -21 384 -21H128Q110 -21 97.5 -8.5Q85 4 85 21V363Q85 380 97.5 392.5Q110 405 128 405ZM149 363Q140 363 134.0 356.5Q128 350 128.0 341.0Q128 332 134.0 326.0Q140 320 149.0 320.0Q158 320 164.5 326.0Q171 332 171.0 341.0Q171 350 164.5 356.5Q158 363 149 363ZM213 363Q204 363 198.0 356.5Q192 350 192.0 341.0Q192 332 198.0 326.0Q204 320 213.0 320.0Q222 320 228.5 326.0Q235 332 235.0 341.0Q235 350 228.5 356.5Q222 363 213 363ZM256 277Q231 277 207.0 267.5Q183 258 165.0 240.0Q147 222 137.5 198.5Q128 175 128 149Q128 115 145.0 85.5Q162 56 191.5 38.5Q221 21 256.0 21.0Q291 21 320.5 38.5Q350 56 367.0 85.5Q384 115 384 149Q384 175 374.5 198.5Q365 222 347.0 240.0Q329 258 305.0 267.5Q281 277 256 277ZM173 224H213Q210 203 213.0 189.0Q216 175 226 164Q262 129 254 75H213Q217 96 214.0 110.0Q211 124 201 134Q165 169 173 224ZM258 224H299Q295 203 298.0 189.0Q301 175 311 164Q347 129 339 75H299Q302 96 299.0 110.0Q296 124 286 134Q250 169 258 224Z" />
      </g>
    </svg>