<svg xmlns="http://www.w3.org/2000/svg" viewBox="43 0 426 384">
      <g transform="scale(1 -1) translate(0 -384)">
        <path d="M171 171Q141 171 118.5 153.0Q96 135 88 107H43V64H88Q96 36 118.5 18.0Q141 0 170.5 0.0Q200 0 223.0 18.0Q246 36 253 64H469V107H253Q246 135 223.0 153.0Q200 171 171 171ZM171 43Q153 43 140.5 55.5Q128 68 128.0 85.5Q128 103 140.5 115.5Q153 128 170.5 128.0Q188 128 200.5 115.5Q213 103 213.0 85.5Q213 68 200.5 55.5Q188 43 171 43ZM424 320Q416 348 393.5 366.0Q371 384 341.5 384.0Q312 384 289.0 366.0Q266 348 259 320H43V277H259Q266 249 289.0 231.0Q312 213 341.5 213.0Q371 213 393.5 231.0Q416 249 424 277H469V320ZM341 256Q324 256 311.5 268.5Q299 281 299.0 298.5Q299 316 311.5 328.5Q324 341 341.5 341.0Q359 341 371.5 328.5Q384 316 384.0 298.5Q384 281 371.5 268.5Q359 256 341 256Z" />
      </g>
    </svg>