<svg xmlns="http://www.w3.org/2000/svg" viewBox="64 -21 384 426">
      <g transform="scale(1 -1) translate(0 -384)">
        <path d="M171 189V405H128V189Q100 182 82.0 159.0Q64 136 64.0 106.5Q64 77 82.0 54.5Q100 32 128 24V-21H171V24Q199 32 217.0 54.5Q235 77 235.0 106.5Q235 136 217.0 159.0Q199 182 171 189ZM149 149Q167 149 179.5 136.5Q192 124 192.0 106.5Q192 89 179.5 76.5Q167 64 149.5 64.0Q132 64 119.5 76.5Q107 89 107.0 106.5Q107 124 119.5 136.5Q132 149 149 149ZM384 405H341V360Q313 352 295.0 329.5Q277 307 277.0 277.5Q277 248 295.0 225.0Q313 202 341 195V-21H384V195Q412 202 430.0 225.0Q448 248 448.0 277.5Q448 307 430.0 329.5Q412 352 384 360ZM363 320Q380 320 392.5 307.5Q405 295 405.0 277.5Q405 260 392.5 247.5Q380 235 362.5 235.0Q345 235 332.5 247.5Q320 260 320.0 277.5Q320 295 332.5 307.5Q345 320 363 320Z" />
      </g>
    </svg>