<svg xmlns="http://www.w3.org/2000/svg" viewBox="43 -21 426 426">
      <g transform="scale(1 -1) translate(0 -384)">
        <path d="M256 405Q198 405 149.0 376.5Q100 348 71.5 299.0Q43 250 43 192V-21H469V192Q469 250 440.5 299.0Q412 348 363.0 376.5Q314 405 256 405ZM151 327Q189 356 235 361V318Q206 313 182 296ZM330 296Q306 313 277 318V361Q323 356 361 327ZM121 297 152 266Q135 242 130 213H87Q92 259 121 297ZM128 171V117H85V171ZM85 21V75H128V21ZM360 266 391 297Q420 259 425 213H382Q377 242 360 266ZM384 171H427V117H384ZM384 21V75H427V21Z" />
      </g>
    </svg>