<svg xmlns="http://www.w3.org/2000/svg" viewBox="43 -21 426 426">
      <g transform="scale(1 -1) translate(0 -384)">
        <path d="M256 405Q198 405 149.0 376.5Q100 348 71.5 299.0Q43 250 43.0 192.0Q43 134 71.5 85.0Q100 36 149.0 7.5Q198 -21 256.0 -21.0Q314 -21 363.0 7.5Q412 36 440.5 85.0Q469 134 469.0 192.0Q469 250 440.5 299.0Q412 348 363.0 376.5Q314 405 256 405ZM256 21Q210 21 170.5 44.0Q131 67 108.0 106.5Q85 146 85.0 192.0Q85 238 108.0 277.5Q131 317 170.5 340.0Q210 363 256.0 363.0Q302 363 341.5 340.0Q381 317 404.0 277.5Q427 238 427.0 192.0Q427 146 404.0 106.5Q381 67 341.5 44.0Q302 21 256 21ZM367 180 338 188 410 207Q406 224 390.5 233.0Q375 242 358 237L329 230L382 282Q370 295 352.0 295.0Q334 295 322 282L301 261L309 292L320 333Q303 338 287.5 329.0Q272 320 268 303L260 274L241 346Q224 342 215.0 326.5Q206 311 211 294L218 265L166 318Q153 306 153.0 288.0Q153 270 166 258L187 237L156 245L115 256Q110 239 119.0 223.5Q128 208 145 204L174 196L102 177Q106 160 121.5 151.0Q137 142 154 147L183 154L130 102Q142 89 160.0 89.0Q178 89 190 102L211 123L203 92L192 51Q209 46 224.5 55.0Q240 64 244 81L252 110L271 38Q288 42 297.0 57.5Q306 73 301 90L294 119L346 66Q359 78 359.0 96.0Q359 114 346 126L325 147L356 139L397 128Q402 145 393.0 160.5Q384 176 367 180ZM256 160Q243 160 233.5 169.5Q224 179 224.0 192.0Q224 205 233.5 214.5Q243 224 256.0 224.0Q269 224 278.5 214.5Q288 205 288.0 192.0Q288 179 278.5 169.5Q269 160 256 160Z" />
      </g>
    </svg>