<svg xmlns="http://www.w3.org/2000/svg" viewBox="43 -21 426 426">
      <g transform="scale(1 -1) translate(0 -384)">
        <path d="M224 33Q199 21 171 21Q136 21 106.5 38.5Q77 56 60.0 85.5Q43 115 43 149V256Q43 291 60.0 320.5Q77 350 106.5 367.0Q136 384 171 384L224 286Q185 266 162.0 232.5Q139 199 139.0 160.0Q139 121 162.0 87.5Q185 54 224 33ZM341 44V21H363Q371 21 377.5 15.0Q384 9 384.0 0.0Q384 -9 377.5 -15.0Q371 -21 363 -21H299Q290 -21 283.5 -15.0Q277 -9 277.0 0.0Q277 9 283.5 15.0Q290 21 299 21V44Q263 48 233.5 64.5Q204 81 187.5 106.0Q171 131 171 160Q171 192 191.0 219.0Q211 246 245.0 261.5Q279 277 320 277H332L326 288Q312 314 307 326Q299 347 299 363Q299 380 311.5 392.5Q324 405 341 405Q377 405 402.0 380.0Q427 355 427 320H384L397 309Q413 294 427 276Q445 251 456 226Q469 193 469 160Q469 131 452.5 106.0Q436 81 406.5 64.5Q377 48 341 44ZM341 363Q341 354 347.5 347.5Q354 341 362.5 341.0Q371 341 377.5 347.5Q384 354 384.0 362.5Q384 371 377.5 377.5Q371 384 362.5 384.0Q354 384 347.5 377.5Q341 371 341 363ZM363 192Q363 210 350.5 222.5Q338 235 320 235Q285 235 260.0 210.0Q235 185 235 149H320Q338 149 350.5 161.5Q363 174 363 192Z" />
      </g>
    </svg>