<svg xmlns="http://www.w3.org/2000/svg" viewBox="33 0 446 363">
      <g transform="scale(1 -1) translate(0 -363)">
        <path d="M479 320Q455 309 427 305Q456 323 467 356Q440 340 409 334Q382 363 341 363Q304 363 277.0 336.0Q250 309 250 271Q250 261 253 250Q197 253 147.5 278.5Q98 304 64 346Q52 325 52.0 300.5Q52 276 63.0 256.0Q74 236 92 224Q71 224 51 235V234Q51 201 72.0 176.0Q93 151 124 144Q113 141 100 141Q92 141 83 143Q92 115 115.5 97.5Q139 80 168 79Q119 40 55 40Q44 40 33 41Q97 0 173 0Q253 0 315 41Q372 77 404 139Q434 198 434 260L433 272Q460 291 479 320Z" />
      </g>
    </svg>