<svg xmlns="http://www.w3.org/2000/svg" viewBox="43 -21 426 405">
      <g transform="scale(1 -1) translate(0 -363)">
        <path d="M427 171H341Q341 153 328.5 140.5Q316 128 299 128H213Q196 128 183.5 140.5Q171 153 171 171H85L43 64V21Q43 4 55.5 -8.5Q68 -21 85 -21H427Q444 -21 456.5 -8.5Q469 4 469 21V64ZM128 21Q119 21 113.0 27.5Q107 34 106.5 42.5Q106 51 112.5 57.5Q119 64 128.0 64.0Q137 64 143.0 58.0Q149 52 149.0 43.0Q149 34 143.0 27.5Q137 21 128 21ZM213 21Q204 21 198.0 27.5Q192 34 192.0 42.5Q192 51 198.5 57.5Q205 64 213.5 64.0Q222 64 228.5 58.0Q235 52 235.0 43.0Q235 34 228.5 27.5Q222 21 213 21ZM299 21Q289 21 283.0 27.5Q277 34 277.0 42.5Q277 51 283.5 57.5Q290 64 298.5 64.0Q307 64 313.5 58.0Q320 52 320.0 43.0Q320 34 313.5 27.5Q307 21 299 21ZM384 21Q375 21 369.0 27.5Q363 34 362.5 42.5Q362 51 368.5 57.5Q375 64 384.0 64.0Q393 64 399.0 58.0Q405 52 405.0 43.0Q405 34 399.0 27.5Q393 21 384 21ZM384 235V384H128V235H64V192H448V235ZM171 341H341V320H171ZM171 299H299V277H171Z" />
      </g>
    </svg>