<svg xmlns="http://www.w3.org/2000/svg" viewBox="50 -21 412 426">
      <g transform="scale(1 -1) translate(0 -384)">
        <path d="M243 405Q185 405 136 375Q100 353 74 318Q60 300 54 287L71 275L65 263Q59 247 55 230Q50 206 50 183Q50 131 76.5 83.5Q103 36 149 8Q198 -21 257 -21Q313 -21 360.0 6.5Q407 34 434.5 81.0Q462 128 462 183Q462 253 429 306Q399 354 347 381Q298 405 243 405ZM245 369Q295 369 337.0 344.5Q379 320 403.5 278.5Q428 237 428.0 188.0Q428 139 405 98Q383 60 344.5 37.5Q306 15 261 15Q228 15 199.0 30.5Q170 46 152.5 73.5Q135 101 135 134Q135 163 149 185Q160 205 180 217L183 213Q177 208 169 190Q159 169 159 149Q159 109 186.5 83.0Q214 57 255 57Q288 57 314.0 74.0Q340 91 354.5 120.0Q369 149 369 183Q369 222 348.0 255.5Q327 289 292.0 309.0Q257 329 215 329Q184 329 153 317Q127 307 107 292L104 295Q126 330 163.0 349.5Q200 369 245 369ZM213 294Q254 294 288.5 269.5Q323 245 333 208L328 206Q309 231 282 246Q253 263 221 263Q181 263 151 241Q124 221 110.5 188.5Q97 156 100 124L95 122L91 135Q86 151 86 166Q86 201 103.0 230.0Q120 259 149.5 276.5Q179 294 213 294ZM249 206Q268 206 281.5 193.0Q295 180 295 161Q295 149 288 138Q285 132 282 129L297 118L292 112Q285 105 277 101Q265 95 251 95Q228 95 211.5 111.0Q195 127 195.0 151.0Q195 175 212.0 190.5Q229 206 249 206Z" />
      </g>
    </svg>