<svg xmlns="http://www.w3.org/2000/svg" viewBox="43 -21 426 426">
      <g transform="scale(1 -1) translate(0 -384)">
        <path d="M469 192Q469 150 453.0 110.5Q437 71 407.0 41.0Q377 11 337.5 -5.0Q298 -21 256.0 -21.0Q214 -21 174.5 -5.0Q135 11 105.0 41.0Q75 71 59.0 110.5Q43 150 43.0 192.0Q43 234 59.0 273.5Q75 313 105.0 343.0Q135 373 174.5 389.0Q214 405 256.0 405.0Q298 405 337.5 389.0Q377 373 407.0 343.0Q437 313 453.0 273.5Q469 234 469 192ZM306 283Q315 278 325.5 280.5Q336 283 341.0 292.0Q346 301 343.5 311.5Q341 322 331.5 327.5Q322 333 312.0 330.0Q302 327 296.5 318.0Q291 309 294.0 298.5Q297 288 306 283ZM253 117Q236 117 222 124L204 92Q229 81 253 81Q268 81 283 85Q286 102 300.5 110.5Q315 119 332 113Q362 142 365 185H328Q326 157 304.5 137.0Q283 117 253 117ZM253 267Q283 267 304.5 247.5Q326 228 328 199H365Q362 242 332 271Q315 265 300.5 273.5Q286 282 283 299Q268 303 253 303Q227 303 204 292L222 260Q236 267 253 267ZM179 192Q179 211 187.5 227.0Q196 243 210 253L192 285Q156 261 146 220Q159 209 159.0 192.0Q159 175 146 164Q151 144 163.0 127.5Q175 111 192 99L210 131Q196 141 187.5 157.0Q179 173 179 192ZM306 101Q297 96 294.0 85.5Q291 75 296.5 66.0Q302 57 312.0 54.0Q322 51 331.5 56.5Q341 62 343.5 72.5Q346 83 341.0 92.0Q336 101 325.5 103.5Q315 106 306 101ZM123 218Q112 218 104.5 210.5Q97 203 97.0 192.0Q97 181 104.5 173.5Q112 166 123.0 166.0Q134 166 141.0 173.5Q148 181 148.0 192.0Q148 203 141.0 210.5Q134 218 123 218Z" />
      </g>
    </svg>