<svg xmlns="http://www.w3.org/2000/svg" viewBox="43 64 426 277">
      <g transform="scale(1 -1) translate(0 -405)">
        <path d="M363 223Q360 256 345.5 283.0Q331 310 307.5 325.5Q284 341 256.0 341.0Q228 341 204.5 325.5Q181 310 166.5 283.0Q152 256 149 223Q100 212 71.5 192.5Q43 173 43.0 149.5Q43 126 71.5 106.5Q100 87 149.0 75.5Q198 64 256.0 64.0Q314 64 363.0 75.5Q412 87 440.5 106.5Q469 126 469.0 149.5Q469 173 440.5 192.5Q412 212 363 223ZM319 195Q256 189 193 195Q192 206 192 213Q192 249 211.0 274.0Q230 299 256.0 299.0Q282 299 301.0 274.0Q320 249 320 213Q320 201 319 195Z" />
      </g>
    </svg>