<svg xmlns="http://www.w3.org/2000/svg" viewBox="21 85 470 214">
      <g transform="scale(1 -1) translate(0 -384)">
        <path d="M192 299H235V213H277V299H320V85H277V171H235V85H192ZM363 299H427Q453 299 472.0 280.0Q491 261 491 235V149Q491 123 472.0 104.0Q453 85 427 85H363ZM427 128Q436 128 442.0 134.0Q448 140 448 149V235Q448 244 442.0 250.0Q436 256 427 256H405V128ZM149 149Q149 123 130.5 104.0Q112 85 85.5 85.0Q59 85 40.0 104.0Q21 123 21 149V299H64V149Q64 140 70.0 134.0Q76 128 85.0 128.0Q94 128 100.5 134.0Q107 140 107 149V299H149Z" />
      </g>
    </svg>