<svg xmlns="http://www.w3.org/2000/svg" viewBox="128 -21 256 448">
      <g transform="scale(1 -1) translate(0 -406)">
        <path d="M320 299 277 320V373Q277 378 280.0 381.0Q283 384 288.0 384.0Q293 384 296.0 381.0Q299 378 299 373V363H341V373Q341 396 325.5 411.5Q310 427 288.0 427.0Q266 427 250.5 411.5Q235 396 235 373V320L192 299L128 320L237 -6Q240 -16 248.5 -19.5Q257 -23 265.5 -19.5Q274 -16 277 -6Q299 62 343 198L384 320ZM235 128 192 258 207 254 235 275ZM277 275 305 254 320 258 277 128Z" />
      </g>
    </svg>