<svg xmlns="http://www.w3.org/2000/svg" viewBox="64 0 383 384">
      <g transform="scale(1 -1) translate(0 -384)">
        <path d="M448 31 417 0 280 137 311 168ZM280 384Q238 384 198.5 368.0Q159 352 128 321H127Q86 279 71.5 223.5Q57 168 71.5 112.5Q86 57 127 16L432 321Q401 352 361.5 368.0Q322 384 280 384ZM131 80Q107 120 107 168Q107 197 116 225Q123 162 161 109ZM192 140Q170 173 162.0 211.0Q154 249 162 286Q184 290 199 290Q258 290 308 256ZM223 332Q251 341 280 341Q328 341 368 317L339 287Q286 325 223 332Z" />
      </g>
    </svg>