<svg xmlns="http://www.w3.org/2000/svg" viewBox="64 0 384 384">
      <g transform="scale(1 -1) translate(0 -384)">
        <path d="M183 265 153 269Q142 213 143 177Q145 137 162 117Q172 107 195 101Q212 96 235 95L254 94L273 95Q296 96 314 101Q338 107 347 117Q365 137 366 177Q368 213 357 269L326 265L332 235Q337 200 334 176Q331 142 313 135Q302 130 276 128Q264 127 254 127Q254 127 254 127L232 128Q208 130 196 135Q172 145 175 206Q177 236 183 265ZM256 384Q308 384 352.0 358.0Q396 332 422.0 288.0Q448 244 448.0 192.0Q448 140 422.0 96.0Q396 52 352.0 26.0Q308 0 256.0 0.0Q204 0 160.0 26.0Q116 52 90.0 96.0Q64 140 64.0 192.0Q64 244 90.0 288.0Q116 332 160.0 358.0Q204 384 256 384Z" />
      </g>
    </svg>