<svg xmlns="http://www.w3.org/2000/svg" viewBox="43 32 426 320">
      <g transform="scale(1 -1) translate(0 -384)">
        <path d="M469 320Q469 307 460.0 298.0Q451 289 438.0 289.0Q425 289 416.0 298.0Q407 307 407.0 320.0Q407 333 416.0 342.5Q425 352 438.0 352.0Q451 352 460.5 342.5Q470 333 469 320ZM460 259H417Q413 259 413 256V152L414 110H413L387 162L319 288L294 332Q293 333 290 333H227Q223 333 223 330H224L223 329V153Q223 132 218.5 118.0Q214 104 206.0 96.0Q198 88 186.0 84.5Q174 81 161 81Q129 81 113.0 100.0Q97 119 97 152V329Q97 333 94 333H46Q43 333 43 329V148Q43 119 51.0 97.0Q59 75 74.5 61.0Q90 47 111 40Q135 32 159.0 32.0Q183 32 205.5 38.5Q228 45 243.5 59.5Q259 74 268.5 96.5Q278 119 278 150V264L287 246L308 205L396 40Q398 37 402 37H460Q464 37 464 41V255Q464 259 460 259Z" />
      </g>
    </svg>