<svg xmlns="http://www.w3.org/2000/svg" viewBox="42 -21 426 426">
      <g transform="scale(1 -1) translate(0 -384)">
        <path d="M469 341 450 313Q459 307 464.0 297.5Q469 288 469 277V203L437 192L404 244Q402 248 398.5 247.0Q395 246 395 242V165Q395 135 373 111V-21H320V85H315Q310 85 301 87L202 103L183 61L204 -21H148L129 58Q127 66 130 75L149 117Q135 127 126.5 142.0Q118 157 117 175Q116 169 117 160V153Q119 133 118 121Q117 98 102 80Q89 66 71 57L57 71L58 75Q65 92 65 99Q67 109 63 119L52 143Q41 168 43 188Q43 203 51.0 218.5Q59 234 72 243Q99 261 129 254Q145 251 160 240Q172 245 187 245H309V256Q309 291 334.0 316.0Q359 341 395 341L469 405L448 341Z" />
      </g>
    </svg>