<svg xmlns="http://www.w3.org/2000/svg" viewBox="43 -21 426 426">
      <g transform="scale(1 -1) translate(0 -384)">
        <path d="M43 192Q43 150 59.0 110.5Q75 71 105.0 41.0Q135 11 174.5 -5.0Q214 -21 256.0 -21.0Q298 -21 337.5 -5.0Q377 11 407.0 41.0Q437 71 453.0 110.5Q469 150 469.0 192.0Q469 234 453.0 273.5Q437 313 407.0 343.0Q377 373 337.5 389.0Q298 405 256.0 405.0Q214 405 174.5 389.0Q135 373 105.0 343.0Q75 313 59.0 273.5Q43 234 43 192ZM112 48Q83 77 67.5 114.0Q52 151 52.0 192.0Q52 233 67.5 270.0Q83 307 112.0 336.0Q141 365 178.0 380.5Q215 396 256.0 396.0Q297 396 334.0 380.5Q371 365 400.0 336.0Q429 307 444.5 270.0Q460 233 460.0 192.0Q460 151 444.5 114.0Q429 77 400.0 48.0Q371 19 334.0 3.5Q297 -12 256.0 -12.0Q215 -12 178.0 3.5Q141 19 112 48ZM135 245Q121 229 112 211Q105 197 102 182Q100 172 100 163L101 156L105 164Q111 175 118 185Q128 200 141 213Q159 231 172 231Q177 231 180.0 228.0Q183 225 183 221V122Q183 110 171 110Q166 110 161 112Q179 86 222 72Q243 65 260 64L291 96H292L320 72Q343 85 362 108Q376 124 387 143L396 158Q368 128 350 129Q342 129 339 133L338 197Q338 258 339 258Q345 268 361 289L376 308Q353 303 332 292Q316 283 304 273L295 263Q289 267 278 269H269Q275 265 280.0 257.0Q285 249 285 241V135L274 128Q262 120 253.0 120.0Q244 120 238 128L235 132V263Q232 260 227.5 260.5Q223 261 220.5 266.0Q218 271 218.0 281.5Q218 292 225 302Q230 309 238 316L245 321Q217 313 193 298Q166 280 135 245Z" />
      </g>
    </svg>