<svg xmlns="http://www.w3.org/2000/svg" viewBox="64 0 383 383">
      <g transform="scale(1 -1) translate(0 -383)">
        <path d="M448 232H303L362 292Q333 321 294.5 331.5Q256 342 218.0 332.5Q180 323 151.0 294.5Q122 266 112.0 228.0Q102 190 112.0 152.0Q122 114 151.0 85.5Q180 57 218.0 47.0Q256 37 294.5 47.0Q333 57 362 85Q405 129 405 190H448Q448 156 434 121Q419 82 392 56Q355 19 305.5 6.5Q256 -6 206.5 6.5Q157 19 120.5 55.5Q84 92 71.0 141.0Q58 190 70.5 239.0Q83 288 120.0 324.0Q157 360 206.0 373.0Q255 386 304.0 373.0Q353 360 390 324L448 384ZM267 277V187L341 142L326 116L235 171V277Z" />
      </g>
    </svg>