<svg xmlns="http://www.w3.org/2000/svg" viewBox="107 -21 384 405">
      <g transform="scale(1 -1) translate(0 -363)">
        <path d="M469 -21H363Q355 -21 348.0 -14.5Q341 -8 341 0V85Q341 93 348.0 100.0Q355 107 363 107V139Q363 161 378.5 176.5Q394 192 416.0 192.0Q438 192 453.5 176.5Q469 161 469 139V107Q477 107 484.0 100.0Q491 93 491 85V0Q491 -8 484.0 -14.5Q477 -21 469 -21ZM107 64H299V21H107ZM448 107V139Q448 151 438.5 161.0Q429 171 416.0 171.0Q403 171 393.5 161.0Q384 151 384 139V107ZM192 107V235H107L256 384L405 235H320V107ZM210 277H235V149H277V277H302L256 324Z" />
      </g>
    </svg>