<svg xmlns="http://www.w3.org/2000/svg" viewBox="21 -43 470 470">
      <g transform="scale(1 -1) translate(0 -384)">
        <path d="M171 171Q197 171 216.0 152.0Q235 133 235.0 106.5Q235 80 216.0 61.5Q197 43 170.5 43.0Q144 43 125.5 61.5Q107 80 107.0 106.5Q107 133 125.5 152.0Q144 171 171 171ZM171 128Q162 128 155.5 121.5Q149 115 149.0 106.5Q149 98 155.5 91.5Q162 85 170.5 85.0Q179 85 185.5 91.5Q192 98 192.0 106.5Q192 115 185.5 121.5Q179 128 171 128ZM208 356 224 340 305 420Q311 427 320.0 427.0Q329 427 335 420L486 269Q491 264 491.0 255.0Q491 246 483 240L404 160L420 144L276 1Q256 -20 228.5 -31.5Q201 -43 171 -43Q130 -43 95.5 -23.0Q61 -3 41.0 31.5Q21 66 21 107Q21 137 32.5 164.5Q44 192 65 212ZM246 31 359 144 208 295 95 182Q80 167 72.0 147.5Q64 128 64 107Q64 78 78.5 53.5Q93 29 117.5 14.5Q142 0 171 0Q192 0 211.5 8.0Q231 16 246 31ZM321 348 352 318 321 288 291 318ZM382 288 412 257 382 227 352 257ZM439 256 320 375 255 309 373 190Z" />
      </g>
    </svg>