<svg xmlns="http://www.w3.org/2000/svg" viewBox="102 -26 303 453">
      <g transform="scale(1 -1) translate(0 -401)">
        <path d="M320 299V213H341V171H277V341H320L256 427L192 341H235V171H171V215Q182 221 189.0 232.0Q196 243 196 256Q196 275 182.5 289.0Q169 303 149.5 303.0Q130 303 116.0 289.5Q102 276 102 256Q102 243 109.0 232.0Q116 221 128 215V171Q128 153 140.5 140.5Q153 128 171 128H235V63Q223 57 216.0 46.0Q209 35 209 21Q209 2 223.0 -12.0Q237 -26 256.0 -26.0Q275 -26 289.0 -12.0Q303 2 303 21Q303 35 296.0 46.0Q289 57 277 63V128H341Q359 128 371.5 140.5Q384 153 384 171V213H405V299Z" />
      </g>
    </svg>