<svg xmlns="http://www.w3.org/2000/svg" viewBox="21 -21 470 448">
      <g transform="scale(1 -1) translate(0 -406)">
        <path d="M441 21 296 367Q284 394 259.5 410.5Q235 427 205 427Q178 427 155.5 413.5Q133 400 120.0 377.0Q107 354 107 328V256H43V140Q63 149 85 149V213H192Q210 213 222.5 200.5Q235 188 235 171V21H190Q185 -2 170 -21H277V171Q277 193 266.0 213.0Q255 233 235.0 244.5Q215 256 192 256H149V328Q149 351 165.5 367.5Q182 384 205 384Q222 384 236.0 374.0Q250 364 256 350L394 21H341V-21H491V21ZM85 64Q94 64 100.5 57.5Q107 51 107.0 42.5Q107 34 100.5 27.5Q94 21 85.5 21.0Q77 21 70.5 27.5Q64 34 64.0 42.5Q64 51 70.5 57.5Q77 64 85 64ZM85 107Q59 107 40.0 88.0Q21 69 21.0 42.5Q21 16 40.0 -2.5Q59 -21 85.5 -21.0Q112 -21 130.5 -2.5Q149 16 149.0 42.5Q149 69 130.5 88.0Q112 107 85 107Z" />
      </g>
    </svg>