<svg xmlns="http://www.w3.org/2000/svg" viewBox="21 -21 470 448">
      <g transform="scale(1 -1) translate(0 -406)">
        <path d="M491 21V-21H341V21H394L256 350Q250 365 236.0 374.5Q222 384 205 384Q182 384 165.5 367.5Q149 351 149 328V256H171Q206 256 231.0 231.0Q256 206 256 171V-21H171Q192 8 192 43Q192 72 177.5 96.5Q163 121 138.5 135.0Q114 149 85 149Q63 149 43 140V256H107V328Q107 354 120.0 377.0Q133 400 155.5 413.5Q178 427 205 427Q235 427 259.5 410.5Q284 394 296 367L441 21ZM149 43Q149 16 130.5 -2.5Q112 -21 85.5 -21.0Q59 -21 40.0 -2.5Q21 16 21.0 42.5Q21 69 40.0 88.0Q59 107 85.5 107.0Q112 107 130.5 88.0Q149 69 149 43ZM107 43Q107 51 100.5 57.5Q94 64 85.5 64.0Q77 64 70.5 57.5Q64 51 64.0 42.5Q64 34 70.5 27.5Q77 21 85.5 21.0Q94 21 100.5 27.5Q107 34 107 43Z" />
      </g>
    </svg>