<svg xmlns="http://www.w3.org/2000/svg" viewBox="21 21 470 278">
      <g transform="scale(1 -1) translate(0 -320)">
        <path d="M64 299Q46 299 33.5 286.5Q21 274 21 256V85H64Q64 59 82.5 40.0Q101 21 128.0 21.0Q155 21 173.5 40.0Q192 59 192 85H320Q320 59 338.5 40.0Q357 21 384.0 21.0Q411 21 429.5 40.0Q448 59 448 85H491V171Q491 188 478.5 200.5Q466 213 448 213L384 299ZM320 267H373L415 213H320ZM128 117Q141 117 150.5 108.0Q160 99 160.0 85.5Q160 72 150.5 62.5Q141 53 128.0 53.0Q115 53 105.5 62.5Q96 72 96.0 85.5Q96 99 105.5 108.0Q115 117 128 117ZM384 117Q397 117 406.5 108.0Q416 99 416.0 85.5Q416 72 406.5 62.5Q397 53 384.0 53.0Q371 53 361.5 62.5Q352 72 352.0 85.5Q352 99 361.5 108.0Q371 117 384 117Z" />
      </g>
    </svg>