<svg xmlns="http://www.w3.org/2000/svg" viewBox="43 21 426 341">
      <g transform="scale(1 -1) translate(0 -383)">
        <path d="M469 21H341Q341 41 350 76Q360 114 373 140Q389 171 405.5 171.0Q422 171 438 140Q451 114 461 76Q469 41 469 21ZM256 171Q240 171 224 140Q210 114 201 76Q192 41 192 21H320Q320 41 311 76Q302 114 288 140Q272 171 256 171ZM107 171Q90 171 74 140Q61 114 51 76Q43 41 43 21H171Q171 41 162 76Q152 114 139 140Q123 171 107 171ZM316 320Q307 345 283.0 356.0Q259 367 235 358Q207 349 196 320H43V277H85V192H128V277H196Q206 249 235 239V192H277V239Q306 249 316 277H384V192H427V277H469V320Z" />
      </g>
    </svg>