<svg xmlns="http://www.w3.org/2000/svg" viewBox="43 -21 426 426">
      <g transform="scale(1 -1) translate(0 -384)">
        <path d="M192 405V361Q156 348 128.0 320.5Q100 293 86 256H43V128H87Q100 91 128.0 63.5Q156 36 192 22V-21H320V23Q357 36 384.5 64.0Q412 92 426 128H469V256H425Q412 292 384.5 320.0Q357 348 320 362V405ZM235 363H277V320H235ZM192 315V277H320V315Q359 295 379 256H341V128H379Q359 89 320 69V107H192V69Q153 89 133 128H171V256H133Q153 295 192 315ZM85 213H128V171H85ZM384 213H427V171H384ZM235 64H277V21H235Z" />
      </g>
    </svg>