<svg xmlns="http://www.w3.org/2000/svg" viewBox="21 -21 448 448">
      <g transform="scale(1 -1) translate(0 -406)">
        <path d="M67 427Q48 427 34.5 413.5Q21 400 21 381V341H64V384H107V427ZM149 427V384H213V427ZM256 427V384H299V341H341V381Q341 400 328.0 413.5Q315 427 296 427ZM21 299V235H64V299ZM192 299Q174 299 161.5 286.5Q149 274 149 256V107H296Q315 107 328.0 120.0Q341 133 341 152V299ZM384 299V256H427V213H469V256Q469 274 456.5 286.5Q444 299 427 299ZM192 256H299V149H192ZM21 192V152Q21 133 34.5 120.0Q48 107 67 107H107V149H64V192ZM427 171V107H469V171ZM149 64V21Q149 4 161.5 -8.5Q174 -21 192 -21H235V21H192V64ZM427 64V21H384V-21H427Q444 -21 456.5 -8.5Q469 4 469 21V64ZM277 21V-21H341V21Z" />
      </g>
    </svg>