<svg xmlns="http://www.w3.org/2000/svg" viewBox="21 -21 448 448">
      <g transform="scale(1 -1) translate(0 -406)">
        <path d="M64 427Q46 427 33.5 414.5Q21 402 21 384V341H64V384H107V427ZM149 427V384H213V427ZM256 427V384H299V341H341V384Q341 402 328.5 414.5Q316 427 299 427ZM21 299V235H64V299ZM299 299Q299 224 299 149H149V21Q149 4 161.5 -8.5Q174 -21 192 -21H427Q444 -21 456.5 -8.5Q469 4 469 21V256Q469 274 456.5 286.5Q444 299 427 299ZM341 256H427V21H192V107H299Q316 107 328.5 119.5Q341 132 341 149ZM21 192V149Q21 132 33.5 119.5Q46 107 64 107H107V149H64V192Z" />
      </g>
    </svg>