<svg xmlns="http://www.w3.org/2000/svg" viewBox="107 21 298 342">
      <g transform="scale(1 -1) translate(0 -384)">
        <path d="M160 363Q147 363 137.5 353.5Q128 344 128.0 330.5Q128 317 137.5 308.0Q147 299 160 299Q170 299 178.5 304.5Q187 310 190 320H277Q299 341 320 341H190Q187 351 178.5 357.0Q170 363 160 363ZM405 341Q348 341 312 321Q282 303 263 269Q252 249 237 204Q224 164 214 146Q199 117 177 103Q149 85 107 85V43Q164 43 200 63Q230 81 249 115Q260 135 275 180Q288 220 298 238Q313 267 335 281Q363 299 405 299ZM352 85Q342 85 333.5 79.5Q325 74 322 64H235Q213 43 192 43H322Q325 33 333.5 27.0Q342 21 352 21Q365 21 374.5 30.5Q384 40 384.0 53.5Q384 67 374.5 76.0Q365 85 352 85Z" />
      </g>
    </svg>