<svg xmlns="http://www.w3.org/2000/svg" viewBox="64 -21 427 384">
      <g transform="scale(1 -1) translate(0 -342)">
        <path d="M491 256V128H434Q419 94 389.0 68.5Q359 43 320 31V-21H192V31Q135 49 99.5 93.0Q64 137 64 192Q64 238 90.0 277.5Q116 317 160.0 340.0Q204 363 256 363Q316 363 364.0 333.5Q412 304 434 256ZM363 128V256H385Q366 285 331.5 302.5Q297 320 256.0 320.0Q215 320 181.0 303.0Q147 286 127.0 256.5Q107 227 107 192Q107 154 130.5 123.0Q154 92 192 76V107H320V76Q362 93 385 128ZM405 171H448V213H405ZM235 21H277V64H235Z" />
      </g>
    </svg>