<svg xmlns="http://www.w3.org/2000/svg" viewBox="43 -43 448 448">
      <g transform="scale(1 -1) translate(0 -362)">
        <path d="M395 405Q408 405 417.5 396.0Q427 387 427.0 373.5Q427 360 417.5 350.5Q408 341 395 341Q387 341 381 345L302 266L309 256Q383 299 469 299L491 298V255L469 256Q387 256 320 212Q320 177 295.5 152.5Q271 128 236 128Q192 61 192 -21L193 -43H150L149 -21Q149 65 192 139L182 146L103 67Q107 61 107 53Q107 40 97.5 30.5Q88 21 74.5 21.0Q61 21 52.0 30.5Q43 40 43.0 53.5Q43 67 52.0 76.0Q61 85 75 85Q82 85 89 82L167 161Q149 184 149 213Q149 249 174.0 274.0Q199 299 235 299Q264 299 287 281L366 359Q363 366 363 373Q363 387 372.0 396.0Q381 405 395 405ZM235 256Q217 256 204.5 243.5Q192 231 192.0 213.5Q192 196 204.5 183.5Q217 171 234.5 171.0Q252 171 264.5 183.5Q277 196 277.0 213.5Q277 231 264.5 243.5Q252 256 235 256Z" />
      </g>
    </svg>