<svg xmlns="http://www.w3.org/2000/svg" viewBox="21 -21 448 448">
      <g transform="scale(1 -1) translate(0 -406)">
        <path d="M427 -21Q444 -21 456.5 -8.5Q469 4 469 21V64H427V21H384V-21ZM341 -21V21H277V-21ZM235 -21V21H192V64H149V21Q149 4 161.5 -8.5Q174 -21 192 -21ZM469 107V171H427V107ZM192 107Q192 181 192 256H341V384Q341 402 328.5 414.5Q316 427 299 427H64Q46 427 33.5 414.5Q21 402 21 384V149Q21 132 33.5 119.5Q46 107 64 107ZM149 149H64V384H299V299H192Q174 299 161.5 286.5Q149 274 149 256ZM469 213V256Q469 274 456.5 286.5Q444 299 427 299H384V256H427V213Z" />
      </g>
    </svg>