<svg xmlns="http://www.w3.org/2000/svg" viewBox="53 0 416 384">
      <g transform="scale(1 -1) translate(0 -384)">
        <path d="M469 256H426Q406 313 356.0 348.5Q306 384 245 384Q193 384 149.0 358.0Q105 332 79.0 288.0Q53 244 53.0 192.0Q53 140 79.0 95.5Q105 51 149.0 25.5Q193 0 245 0Q306 0 356.0 35.0Q406 70 427 128H469ZM427 213V171H384V213ZM380 128Q362 89 325.5 66.0Q289 43 245 43Q205 43 170.5 63.0Q136 83 116.0 117.0Q96 151 96.0 191.5Q96 232 116.0 266.5Q136 301 170.5 321.0Q205 341 245 341Q288 341 325.0 318.0Q362 295 380 256H341V128Z" />
      </g>
    </svg>