<svg xmlns="http://www.w3.org/2000/svg" viewBox="21 -21 448 448">
      <g transform="scale(1 -1) translate(0 -406)">
        <path d="M64 427H107V384H64V341H21V384Q21 402 33.5 414.5Q46 427 64 427ZM299 427Q316 427 328.5 414.5Q341 402 341 384V341H299V384H256V427ZM427 299Q444 299 456.5 286.5Q469 274 469 256V213H427V256H384V299ZM469 21Q469 4 456.5 -8.5Q444 -21 427 -21H384V21H427V64H469ZM427 171H469V107H427ZM277 256V299H341V235H299V256ZM277 -21V21H341V-21ZM192 -21Q174 -21 161.5 -8.5Q149 4 149 21V64H192V21H235V-21ZM149 107V171H192V149H213V107ZM149 384V427H213V384ZM64 107Q46 107 33.5 119.5Q21 132 21 149V192H64V149H107V107ZM21 299H64V235H21ZM192 299H235V256H192V213H149V256Q149 274 161.5 286.5Q174 299 192 299ZM341 149Q341 132 328.5 119.5Q316 107 299 107H256V149H299V192H341Z" />
      </g>
    </svg>