<svg xmlns="http://www.w3.org/2000/svg" viewBox="107 85 298 214">
      <g transform="scale(1 -1) translate(0 -384)">
        <path d="M277 299H341Q368 299 386.5 280.0Q405 261 405 235V149Q405 123 386.5 104.0Q368 85 341 85H277ZM341 128Q350 128 356.5 134.5Q363 141 363 149V235Q363 243 356.5 249.5Q350 256 341 256H320V128ZM107 299H192Q210 299 222.5 286.5Q235 274 235 256V213Q235 196 222.5 183.5Q210 171 192 171H149V128H235V85H107V171Q107 188 119.5 200.5Q132 213 149 213H192V256H107Z" />
      </g>
    </svg>