<svg xmlns="http://www.w3.org/2000/svg" viewBox="21 -43 470 470">
      <g transform="scale(1 -1) translate(0 -384)">
        <path d="M107 405Q107 414 100.5 420.5Q94 427 85.0 427.0Q76 427 70.0 420.5Q64 414 64 405V320H21V192H149V320H107ZM192 107Q192 86 204.0 69.5Q216 53 235 47V-43H277V47Q296 53 308.0 69.5Q320 86 320 107V149H192ZM21 107Q21 86 33.0 69.5Q45 53 64 47V-43H107V47Q126 53 137.5 69.5Q149 86 149 107V149H21ZM448 320V405Q448 414 442.0 420.5Q436 427 427.0 427.0Q418 427 411.5 420.5Q405 414 405 405V320H363V192H491V320ZM277 405Q277 414 271.0 420.5Q265 427 256.0 427.0Q247 427 241.0 420.5Q235 414 235 405V320H192V192H320V320H277ZM363 107Q363 86 374.5 69.5Q386 53 405 47V-43H448V47Q467 53 479.0 69.5Q491 86 491 107V149H363Z" />
      </g>
    </svg>