<svg xmlns="http://www.w3.org/2000/svg" viewBox="64 64 384 256">
      <g transform="scale(1 -1) translate(0 -384)">
        <path d="M299 235V149Q299 145 295.5 142.0Q292 139 288 139H267V245H288Q292 245 295.5 242.0Q299 239 299 235ZM448 309V75L363 160V85Q363 76 356.5 70.0Q350 64 341 64H85Q76 64 70.0 70.0Q64 76 64 85V299Q64 308 70.0 314.0Q76 320 85 320H341Q350 320 356.5 314.0Q363 308 363 299V224ZM203 245Q203 259 193.5 268.0Q184 277 171 277H96V245H171V208H117V176H171V139H96V107H171Q184 107 193.5 116.0Q203 125 203 139ZM331 245Q331 259 321.5 268.0Q312 277 299 277H235V107H299Q312 107 321.5 116.0Q331 125 331 139Z" />
      </g>
    </svg>