<svg xmlns="http://www.w3.org/2000/svg" viewBox="64 64 384 256">
      <g transform="scale(1 -1) translate(0 -384)">
        <path d="M299 235V149Q299 145 296.0 142.0Q293 139 288 139H267V245H288Q293 245 296.0 242.0Q299 239 299 235ZM363 224V299Q363 308 357.0 314.0Q351 320 341 320H85Q76 320 70.0 314.0Q64 308 64 299V85Q64 76 70.0 70.0Q76 64 85 64H341Q351 64 357.0 70.0Q363 76 363 85V160L448 75V309ZM203 107H171V175H128V107H96V277H128V209H171V277H203ZM331 139Q331 126 321.0 116.5Q311 107 299 107H235V277H299Q311 277 321.0 267.5Q331 258 331 245Z" />
      </g>
    </svg>