<svg xmlns="http://www.w3.org/2000/svg" viewBox="20 -21 448 448">
      <g transform="scale(1 -1) translate(0 -406)">
        <path d="M384 139V213Q384 222 378.0 228.5Q372 235 363 235H341Q365 252 376.5 277.5Q388 303 385.5 331.5Q383 360 366.0 383.5Q349 407 323.0 418.5Q297 430 269.0 427.5Q241 425 217 408Q195 393 183 368Q159 384 130.5 384.5Q102 385 77.0 371.5Q52 358 37.0 333.5Q22 309 21.0 280.5Q20 252 33.5 227.0Q47 202 72 187L74 185Q81 181 85 180V0Q85 -9 91.5 -15.0Q98 -21 107 -21H363Q372 -21 378.0 -15.0Q384 -9 384 0V75L469 -11V224ZM277 363Q295 363 307.5 350.5Q320 338 320.0 320.0Q320 302 307.5 289.5Q295 277 277.5 277.0Q260 277 247.5 289.5Q235 302 235.0 320.0Q235 338 247.5 350.5Q260 363 277 363ZM128 320Q146 320 158.5 307.5Q171 295 171.0 277.5Q171 260 158.5 247.5Q146 235 128.0 235.0Q110 235 97.5 247.5Q85 260 85.0 277.5Q85 295 97.5 307.5Q110 320 128 320Z" />
      </g>
    </svg>