<svg xmlns="http://www.w3.org/2000/svg" viewBox="43 -21 405 341">
      <g transform="scale(1 -1) translate(0 -299)">
        <path d="M117 90Q106 90 99.0 97.5Q92 105 92.0 115.5Q92 126 99.5 133.5Q107 141 117.0 141.0Q127 141 135.0 133.0Q143 125 144.0 115.5Q145 106 137.0 98.0Q129 90 117 90ZM117 192Q87 192 65.0 170.0Q43 148 43 117Q43 93 62 57Q76 31 98 2L117 -21L137 2Q159 31 173 57Q192 93 192 117Q192 148 170.0 170.0Q148 192 117 192ZM85 320Q76 320 70.0 314.0Q64 308 64 299V222Q83 231 107 235V277H320V107H235Q230 77 224 64H341Q351 64 357.0 70.0Q363 76 363 85V160L448 75V309L363 224V299Q363 308 357.0 314.0Q351 320 341 320Z" />
      </g>
    </svg>