<svg xmlns="http://www.w3.org/2000/svg" viewBox="21 -30 470 457">
      <g transform="scale(1 -1) translate(0 -397)">
        <path d="M256 341Q215 341 181.0 321.0Q147 301 127.0 267.0Q107 233 107 192H149Q149 221 163.5 245.5Q178 270 202.5 284.5Q227 299 256.0 299.0Q285 299 309.5 284.5Q334 270 348.5 245.5Q363 221 363 192H405Q405 233 385.0 267.0Q365 301 331.0 321.0Q297 341 256 341ZM277 143Q292 150 300.5 163.0Q309 176 309 192Q309 214 293.5 229.5Q278 245 256.0 245.0Q234 245 218.5 229.5Q203 214 203 192Q203 176 211.5 162.5Q220 149 235 143V73L162 0L192 -30L256 34L320 -30L350 0L277 73ZM256 427Q192 427 138.0 395.5Q84 364 52.5 310.0Q21 256 21 192H64Q64 244 90.0 288.0Q116 332 160.0 358.0Q204 384 256.0 384.0Q308 384 352.0 358.0Q396 332 422.0 288.0Q448 244 448 192H491Q491 256 459.5 310.0Q428 364 374.0 395.5Q320 427 256 427Z" />
      </g>
    </svg>