<svg xmlns="http://www.w3.org/2000/svg" viewBox="21 -43 470 470">
      <g transform="scale(1 -1) translate(0 -384)">
        <path d="M171 203Q171 216 161.5 225.5Q152 235 138.5 235.0Q125 235 116.0 225.5Q107 216 107.0 202.5Q107 189 116.0 180.0Q125 171 138.5 171.0Q152 171 161.5 180.0Q171 189 171 203ZM320 309Q320 323 310.5 332.0Q301 341 288 341H224Q211 341 201.5 332.0Q192 323 192.0 309.5Q192 296 201.5 286.5Q211 277 224 277H288Q301 277 310.5 286.5Q320 296 320 309ZM181 128Q168 128 158.5 118.5Q149 109 149.0 96.0Q149 83 158.5 73.5Q168 64 181.5 64.0Q195 64 204.0 73.5Q213 83 213.0 96.0Q213 109 204.0 118.5Q195 128 181 128ZM256 427Q192 427 138.0 395.5Q84 364 52.5 310.0Q21 256 21.0 192.0Q21 128 52.5 74.0Q84 20 138.0 -11.5Q192 -43 256.0 -43.0Q320 -43 374.0 -11.5Q428 20 459.5 74.0Q491 128 491.0 192.0Q491 256 459.5 310.0Q428 364 374.0 395.5Q320 427 256 427ZM256 0Q204 0 160.0 26.0Q116 52 90.0 96.0Q64 140 64.0 192.0Q64 244 90.0 288.0Q116 332 160.0 358.0Q204 384 256.0 384.0Q308 384 352.0 358.0Q396 332 422.0 288.0Q448 244 448.0 192.0Q448 140 422.0 96.0Q396 52 352.0 26.0Q308 0 256 0ZM373 235Q360 235 350.5 225.5Q341 216 341.0 202.5Q341 189 350.5 180.0Q360 171 373.5 171.0Q387 171 396.0 180.0Q405 189 405.0 202.5Q405 216 396.0 225.5Q387 235 373 235ZM331 128Q317 128 308.0 118.5Q299 109 299.0 96.0Q299 83 308.0 73.5Q317 64 330.5 64.0Q344 64 353.5 73.5Q363 83 363.0 96.0Q363 109 353.5 118.5Q344 128 331 128Z" />
      </g>
    </svg>