<svg xmlns="http://www.w3.org/2000/svg" viewBox="64 64 384 256">
      <g transform="scale(1 -1) translate(0 -384)">
        <path d="M363 224 448 309V75L363 160V85Q363 76 356.5 70.0Q350 64 341 64H85Q76 64 70.0 70.0Q64 76 64 85V299Q64 308 70.0 314.0Q76 320 85 320H341Q350 320 356.5 314.0Q363 308 363 299ZM299 107V128Q299 147 267 160Q240 171 213.5 171.0Q187 171 160 160Q128 147 128 128V107ZM213 277Q196 277 183.5 264.5Q171 252 171.0 234.5Q171 217 183.5 204.5Q196 192 213.5 192.0Q231 192 243.5 204.5Q256 217 256.0 234.5Q256 252 243.5 264.5Q231 277 213 277Z" />
      </g>
    </svg>