<svg xmlns="http://www.w3.org/2000/svg" viewBox="64 -21 384 448">
      <g transform="scale(1 -1) translate(0 -406)">
        <path d="M320 192V21H107V192ZM341 235H85Q76 235 70.0 228.5Q64 222 64 213V0Q64 -9 70.0 -15.0Q76 -21 85 -21H341Q350 -21 356.5 -15.0Q363 -9 363 0V75L448 -11V224L363 139V213Q363 222 356.5 228.5Q350 235 341 235ZM64 366 94 336Q126 368 169.5 379.5Q213 391 256.5 379.5Q300 368 333 336L363 366Q322 406 267.5 420.0Q213 434 159.0 420.0Q105 406 64 366ZM124 307 154 277Q178 301 213.0 301.0Q248 301 273 277L303 307Q279 331 246.0 339.0Q213 347 180.5 339.0Q148 331 124 307Z" />
      </g>
    </svg>