<svg xmlns="http://www.w3.org/2000/svg" viewBox="43 0 426 384">
      <g transform="scale(1 -1) translate(0 -384)">
        <path d="M448 171H64Q55 171 49.0 164.5Q43 158 43 149V21Q43 12 49.0 6.0Q55 0 64 0H448Q457 0 463.0 6.0Q469 12 469 21V149Q469 158 463.0 164.5Q457 171 448 171ZM427 43H85V128H427ZM448 384H64Q55 384 49.0 378.0Q43 372 43 363V235Q43 226 49.0 219.5Q55 213 64 213H448Q457 213 463.0 219.5Q469 226 469 235V363Q469 372 463.0 378.0Q457 384 448 384ZM427 256H85V341H427Z" />
      </g>
    </svg>