<svg xmlns="http://www.w3.org/2000/svg" viewBox="43 43 405 298">
      <g transform="scale(1 -1) translate(0 -384)">
        <path d="M277 341H213Q204 341 198.0 335.0Q192 329 192 320V64Q192 55 198.0 49.0Q204 43 213 43H277Q286 43 292.5 49.0Q299 55 299 64V320Q299 329 292.5 335.0Q286 341 277 341ZM427 341H363Q354 341 347.5 335.0Q341 329 341 320V64Q341 55 347.5 49.0Q354 43 363 43H427Q436 43 442.0 49.0Q448 55 448 64V320Q448 329 442.0 335.0Q436 341 427 341ZM128 341H64Q55 341 49.0 335.0Q43 329 43 320V64Q43 55 49.0 49.0Q55 43 64 43H128Q137 43 143.0 49.0Q149 55 149 64V320Q149 329 143.0 335.0Q137 341 128 341Z" />
      </g>
    </svg>