<svg xmlns="http://www.w3.org/2000/svg" viewBox="128 -21 256 426">
      <g transform="scale(1 -1) translate(0 -384)">
        <path d="M235 405Q226 405 219.5 399.0Q213 393 213 384V256Q213 252 216.5 248.5Q220 245 224 245H256Q260 245 263.5 242.0Q267 239 267.0 234.5Q267 230 263.5 227.0Q260 224 256 224H224Q212 224 202.0 234.0Q192 244 192 256V338Q164 331 146.0 308.5Q128 286 128 256V224Q150 224 165.5 208.5Q181 193 181.0 171.0Q181 149 165.5 133.0Q150 117 128 117V85Q128 56 142.5 31.5Q157 7 181.5 -7.0Q206 -21 235 -21H277Q306 -21 330.5 -7.0Q355 7 369.5 31.5Q384 56 384 85V117Q362 117 346.5 133.0Q331 149 331.0 171.0Q331 193 346.5 208.5Q362 224 384 224V256Q384 292 359.0 316.5Q334 341 299 341V384Q299 393 292.5 399.0Q286 405 277 405ZM229 96H283L272 21H240Z" />
      </g>
    </svg>