<svg xmlns="http://www.w3.org/2000/svg" viewBox="21 -43 469 480">
      <g transform="scale(1 -1) translate(0 -394)">
        <path d="M423 149Q428 142 436.0 137.5Q444 133 453 133Q469 133 480.0 144.0Q491 155 491.0 170.5Q491 186 480.0 197.0Q469 208 453 208Q444 208 436.0 203.5Q428 199 423 192H405Q405 242 375 281L404 310Q423 307 437 320Q448 331 448.0 346.5Q448 362 437.0 373.0Q426 384 410.5 384.0Q395 384 384 373Q371 359 374 340L345 311Q315 334 277 340V369Q285 375 289.0 383.0Q293 391 293 400Q293 416 282.5 426.5Q272 437 256.0 437.0Q240 437 229.5 426.5Q219 416 219 400Q219 391 223.0 383.0Q227 375 235 369V340Q206 335 181 321L158 355Q164 374 153 389Q144 402 129.0 404.5Q114 407 101.5 398.5Q89 390 86.0 374.5Q83 359 92 347Q103 331 123 331L148 295Q135 282 125 264Q115 268 104.0 266.0Q93 264 85 256Q75 245 75.0 229.5Q75 214 85 203Q94 194 107 192Q107 176 111 159L83 151Q68 164 49 159Q34 155 26.5 141.5Q19 128 23.0 113.0Q27 98 40.5 90.5Q54 83 68 87Q87 92 94 110L126 119Q140 94 163 75L140 32Q120 29 111 12Q104 -1 108.5 -16.0Q113 -31 126.5 -38.5Q140 -46 154.5 -41.5Q169 -37 177 -23Q186 -6 177 11L200 53Q227 43 256 43H260Q256 35 256 24Q257 8 269.0 -2.0Q281 -12 296.0 -11.0Q311 -10 321.5 2.0Q332 14 330.5 30.0Q329 46 317 56Q331 62 345 73L395 23Q392 3 405 -11Q417 -21 432.0 -21.0Q447 -21 458.5 -10.5Q470 0 469.5 15.5Q469 31 459 43Q445 56 425 53L375 103Q392 124 399 149ZM224 192Q211 192 201.5 201.5Q192 211 192.0 224.0Q192 237 201.5 246.5Q211 256 224.0 256.0Q237 256 246.5 246.5Q256 237 256.0 224.0Q256 211 246.5 201.5Q237 192 224 192ZM299 128Q290 128 283.5 134.5Q277 141 277.0 149.5Q277 158 283.5 164.5Q290 171 298.5 171.0Q307 171 313.5 164.5Q320 158 320.0 149.5Q320 141 313.5 134.5Q307 128 299 128Z" />
      </g>
    </svg>