<svg xmlns="http://www.w3.org/2000/svg" viewBox="21 -43 469 480">
      <g transform="scale(1 -1) translate(0 -394)">
        <path d="M158 358 113 404Q124 407 135.0 403.0Q146 399 153 389Q163 375 158 358ZM453 208Q444 208 436.0 203.5Q428 199 423 192H405Q405 242 375 281L404 310Q423 307 437 320Q448 331 448.0 346.5Q448 362 437.0 373.0Q426 384 410.5 384.0Q395 384 384 373Q371 359 374 340L345 311Q315 334 277 340V369Q285 375 289.0 383.0Q293 391 293 400Q293 416 282.5 426.5Q272 437 256.0 437.0Q240 437 229.5 426.5Q219 416 219 400Q219 391 223.0 383.0Q227 375 235 369V340Q212 336 190 326L390 126Q396 139 399 149H423Q428 142 436.0 137.5Q444 133 453 133Q469 133 480.0 144.0Q491 155 491.0 170.5Q491 186 480.0 197.0Q469 208 453 208ZM472 -10 445 -37 429 -21Q415 -20 405.5 -10.5Q396 -1 395 13L339 68L337 67Q324 59 317 56Q329 46 330.5 30.0Q332 14 321.5 2.0Q311 -10 296.0 -11.0Q281 -12 269.0 -2.0Q257 8 256 24Q256 35 260 43H256Q227 43 200 53L177 11Q186 -6 177 -23Q169 -37 154.5 -41.5Q140 -46 126.5 -38.5Q113 -31 108.5 -16.0Q104 -1 111 12Q120 29 140 32L163 75Q140 94 126 119L94 110Q87 92 68 87Q54 83 40.5 90.5Q27 98 23.0 113.0Q19 128 26.5 141.5Q34 155 49 159Q68 164 83 151L111 159Q107 176 107 192Q94 194 85 203Q75 214 75.0 229.5Q75 245 85 256Q93 264 104.0 266.0Q115 268 125 264L132 275L24 384L51 411Z" />
      </g>
    </svg>