<svg xmlns="http://www.w3.org/2000/svg" viewBox="21 -43 469 480">
      <g transform="scale(1 -1) translate(0 -394)">
        <path d="M491 171Q491 155 480.0 144.0Q469 133 453 133Q444 133 436.0 137.5Q428 142 423 149H399Q396 139 390 126L357 159Q363 177 363 192Q363 221 348.5 245.5Q334 270 309.5 284.5Q285 299 256 299Q241 299 223 293L190 326Q212 336 235 340V369Q227 375 223.0 383.0Q219 391 219 400Q219 416 229.5 426.5Q240 437 256.0 437.0Q272 437 282.5 426.5Q293 416 293 400Q293 391 289.0 383.0Q285 375 277 369V340Q315 334 345 311L374 340Q371 359 384 373Q395 384 410.5 384.0Q426 384 437.0 373.0Q448 362 448.0 346.5Q448 331 437.0 320.0Q426 309 411 309Q406 309 404 310L375 281Q405 242 405 192H423Q428 199 436.0 203.5Q444 208 453 208Q469 208 480.0 197.0Q491 186 491 171ZM472 -10 445 -37 429 -21Q415 -20 405.5 -10.5Q396 -1 395 13L339 68L337 67Q324 59 317 56Q329 46 330.5 30.0Q332 14 322.0 2.5Q312 -9 296 -11H293Q279 -11 268.0 -1.0Q257 9 256 24Q256 35 260 43H256Q227 43 200 53L177 11Q186 -6 177 -23Q172 -32 163.0 -37.5Q154 -43 144.5 -43.0Q135 -43 126 -38Q113 -31 108.5 -16.0Q104 -1 111 12Q120 29 140 32L163 75Q140 94 126 119L94 110Q87 92 68 87Q65 85 59 85Q46 85 36.0 92.5Q26 100 23 113Q19 128 26.5 141.5Q34 155 49 159Q52 160 59 160Q72 160 83 151L111 159Q107 176 107 192Q94 195 85 203Q75 214 75.0 229.5Q75 245 86.0 256.0Q97 267 112 267Q119 267 125 264L132 275L24 384L51 411ZM308 99 163 244Q149 219 149.0 191.0Q149 163 163.5 138.5Q178 114 202.5 99.5Q227 85 255.5 85.0Q284 85 308 99ZM153 389Q142 405 123 405Q118 405 112 404L158 358Q163 375 153 389Z" />
      </g>
    </svg>