<svg xmlns="http://www.w3.org/2000/svg" viewBox="21 -43 469 480">
      <g transform="scale(1 -1) translate(0 -394)">
        <path d="M256 437Q240 437 229.5 426.5Q219 416 219 400Q219 391 223.0 383.0Q227 375 235 369V340Q206 335 181 321L158 355Q164 374 153.0 389.5Q142 405 123 405Q111 405 101 399Q89 390 86.0 374.5Q83 359 92 347Q103 331 123 331L148 295Q135 282 125 264Q119 267 112 267Q97 267 86.0 256.0Q75 245 75.0 229.5Q75 214 85 203Q94 195 107 192Q107 176 111 159L83 151Q72 160 59 160Q52 160 49 159Q34 155 26.5 141.5Q19 128 23 113Q26 100 36.0 92.5Q46 85 59 85Q65 85 68 87Q87 92 94 110L126 119Q140 94 163 75L140 32Q120 29 111 12Q104 -1 108.5 -16.0Q113 -31 126 -38Q135 -43 144.5 -43.0Q154 -43 163.0 -37.5Q172 -32 177 -23Q186 -6 177 11L200 53Q227 43 256 43H260Q256 35 256 24Q257 9 268.0 -1.0Q279 -11 293 -11H296Q312 -9 322.0 2.5Q332 14 330.5 30.0Q329 46 317 56Q331 62 345 73L395 23Q392 3 405 -11Q417 -21 432.0 -21.0Q447 -21 458.0 -10.0Q469 1 469.0 16.0Q469 31 458.0 42.0Q447 53 432 53Q428 53 425 53L375 103Q392 124 399 149H423Q428 142 436.0 137.5Q444 133 453 133Q469 133 480.0 144.0Q491 155 491.0 170.5Q491 186 480.0 197.0Q469 208 453 208Q444 208 436.0 203.5Q428 199 423 192H405Q405 242 375 281L404 310Q406 309 411 309Q426 309 437.0 320.0Q448 331 448.0 346.5Q448 362 437.0 373.0Q426 384 410.5 384.0Q395 384 384 373Q371 359 374 340L345 311Q315 334 277 340V369Q285 375 289.0 383.0Q293 391 293 400Q293 416 282.5 426.5Q272 437 256 437ZM256 85Q227 85 202.5 99.5Q178 114 163.5 138.5Q149 163 149.0 192.0Q149 221 163.5 245.5Q178 270 202.5 284.5Q227 299 256.0 299.0Q285 299 309.5 284.5Q334 270 348.5 245.5Q363 221 363.0 192.0Q363 163 348.5 138.5Q334 114 309.5 99.5Q285 85 256 85ZM224 256Q211 256 201.5 246.5Q192 237 192.0 224.0Q192 211 201.5 201.5Q211 192 224.0 192.0Q237 192 246.5 201.5Q256 211 256.0 224.0Q256 237 246.5 246.5Q237 256 224 256ZM299 171Q290 171 283.5 164.5Q277 158 277.0 149.5Q277 141 283.5 134.5Q290 128 298.5 128.0Q307 128 313.5 134.5Q320 141 320.0 149.5Q320 158 313.5 164.5Q307 171 299 171Z" />
      </g>
    </svg>