<svg xmlns="http://www.w3.org/2000/svg" viewBox="0 85 512 235">
      <g transform="scale(1 -1) translate(0 -405)">
        <path d="M395 128Q364 128 342.0 150.0Q320 172 320.0 203.0Q320 234 342.0 255.5Q364 277 395.0 277.0Q426 277 447.5 255.5Q469 234 469.0 203.0Q469 172 447.5 150.0Q426 128 395 128ZM117 128Q86 128 64.5 150.0Q43 172 43.0 203.0Q43 234 64.5 255.5Q86 277 117.0 277.0Q148 277 170.0 255.5Q192 234 192.0 203.0Q192 172 170.0 150.0Q148 128 117 128ZM395 320Q371 320 349.5 311.0Q328 302 311.5 285.5Q295 269 286.0 247.5Q277 226 277 203Q277 160 304 128H208Q235 160 235 203Q235 226 226.0 247.5Q217 269 200.5 285.5Q184 302 162.5 311.0Q141 320 117 320Q85 320 58.5 304.0Q32 288 16.0 261.5Q0 235 0.0 203.0Q0 171 16.0 144.0Q32 117 58.5 101.0Q85 85 117 85H395Q418 85 439.5 94.0Q461 103 477.5 119.5Q494 136 503.0 157.5Q512 179 512 203Q512 235 496.0 261.5Q480 288 453.5 304.0Q427 320 395 320Z" />
      </g>
    </svg>