<svg xmlns="http://www.w3.org/2000/svg" viewBox="64 0 384 384">
      <g transform="scale(1 -1) translate(0 -384)">
        <path d="M256 363 211 318 256 273ZM91 384 64 357 165 256H64V128H149L256 21V165L347 74Q323 56 299 49V5Q342 15 377 44L421 0L448 27L256 219ZM405 192Q405 163 394 136L426 103Q448 145 448.0 191.0Q448 237 428.5 276.0Q409 315 375.0 342.0Q341 369 299 379V335Q345 321 375.0 281.5Q405 242 405 192ZM352 192Q352 220 337.5 243.0Q323 266 299 278V231L351 179Q352 183 352 192Z" />
      </g>
    </svg>