<svg xmlns="http://www.w3.org/2000/svg" viewBox="64 -21 384 426">
      <g transform="scale(1 -1) translate(0 -384)">
        <path d="M384 171 448 107V21Q448 4 435.5 -8.5Q423 -21 405 -21H107Q89 -21 76.5 -8.5Q64 4 64 21V107L128 171H146L188 128H145L107 85H405L368 128H327L369 171ZM405 21V43H107V21ZM242 128 136 233Q130 239 130.0 248.0Q130 257 136 263L272 399Q278 405 287.0 405.0Q296 405 302 399L408 293Q414 287 414.0 278.0Q414 269 408 263L272 128Q266 121 257.0 121.0Q248 121 242 128ZM287 354 181 248 257 173 363 278Z" />
      </g>
    </svg>