<svg xmlns="http://www.w3.org/2000/svg" viewBox="64 -21 384 426">
      <g transform="scale(1 -1) translate(0 -384)">
        <path d="M384 171H369L327 128H368L405 85H107L145 128H188L146 171H128L64 107V21Q64 4 76.5 -8.5Q89 -21 107 -21H405Q423 -21 435.5 -8.5Q448 4 448 21V107ZM363 278 257 173 181 248 287 354ZM272 399 136 263Q130 257 130.0 248.0Q130 239 136 233L242 128Q248 121 257.0 121.0Q266 121 272 128L408 263Q414 269 414.0 278.0Q414 287 408 293L302 399Q296 405 287.0 405.0Q278 405 272 399Z" />
      </g>
    </svg>