<svg xmlns="http://www.w3.org/2000/svg" viewBox="21 21 470 320">
      <g transform="scale(1 -1) translate(0 -362)">
        <path d="M192 341H320L256 277ZM224 135Q213 123 213.0 106.0Q213 89 225.5 76.5Q238 64 256.0 64.0Q274 64 286.5 76.5Q299 89 299.0 107.0Q299 125 286 137L316 167Q341 142 341.0 106.5Q341 71 316.0 46.0Q291 21 256.0 21.0Q221 21 196.0 46.0Q171 71 171.0 106.0Q171 141 194 165V166L345 316Q370 341 405.5 341.0Q441 341 466.0 316.0Q491 291 491.0 256.0Q491 221 466.0 196.0Q441 171 405.5 171.0Q370 171 345 196L375 226Q387 213 405.0 213.0Q423 213 435.5 225.5Q448 238 448.0 256.0Q448 274 435.5 286.5Q423 299 405.0 299.0Q387 299 375 286ZM137 286Q125 299 107.0 299.0Q89 299 76.5 286.5Q64 274 64.0 256.0Q64 238 76.5 225.5Q89 213 107.0 213.0Q125 213 137 226L167 196Q142 171 106.5 171.0Q71 171 46.0 196.0Q21 221 21.0 256.0Q21 291 46.0 316.0Q71 341 106.5 341.0Q142 341 167 316L226 257L196 227Z" />
      </g>
    </svg>