<svg xmlns="http://www.w3.org/2000/svg" viewBox="43 0 426 405">
      <g transform="scale(1 -1) translate(0 -405)">
        <path d="M427 149H85V277H194L149 217L184 192L256 290L328 192L363 217L318 277H427ZM427 43H85V85H427ZM192 363Q201 363 207.0 356.5Q213 350 213.0 341.0Q213 332 207.0 326.0Q201 320 192.0 320.0Q183 320 177.0 326.0Q171 332 171.0 341.0Q171 350 177.0 356.5Q183 363 192 363ZM320 363Q329 363 335.0 356.5Q341 350 341.0 341.0Q341 332 335.0 326.0Q329 320 320.0 320.0Q311 320 305.0 326.0Q299 332 299.0 341.0Q299 350 305.0 356.5Q311 363 320 363ZM427 320H380Q384 331 384 341Q384 368 365.5 386.5Q347 405 320 405Q304 405 290.0 397.5Q276 390 267 377L256 363L245 377Q236 390 222.0 397.5Q208 405 192 405Q165 405 146.5 386.5Q128 368 128 341Q128 331 132 320H85Q68 320 55.5 307.5Q43 295 43 277V43Q43 25 55.5 12.5Q68 0 85 0H427Q444 0 456.5 12.5Q469 25 469 43V277Q469 295 456.5 307.5Q444 320 427 320Z" />
      </g>
    </svg>