<svg xmlns="http://www.w3.org/2000/svg" viewBox="43 -33 449 396">
      <g transform="scale(1 -1) translate(0 -330)">
        <path d="M472 121Q480 111 484 101L486 97Q497 70 490.5 41.5Q484 13 463 -7Q445 -23 419 -30Q395 -35 369 -32Q346 -29 325.5 -15.5Q305 -2 293 19Q285 33 282 46Q279 54 277 69Q276 95 286.0 120.0Q296 145 315 161Q306 142 308.0 119.5Q310 97 323 81L326 78Q330 74 335.5 76.0Q341 78 341 84L340 89Q326 126 336.5 165.0Q347 204 377 229Q396 245 415 250Q404 228 407.5 202.5Q411 177 429 160Q434 154 447 145Q456 138 460 134ZM424 21 423 22Q431 28 434.5 38.0Q438 48 438 57L437 64Q435 73 429 81Q426 86 416.5 94.5Q407 103 403 108L393 125Q387 111 390 93L392 83Q396 66 395 57Q392 46 383.5 37.0Q375 28 361 25Q370 16 382.5 12.0Q395 8 407 12Q415 15 424 21ZM64 107H236L235 85Q235 41 256 3V0H64ZM43 235H171V128H43ZM192 235H320V233Q290 216 269.5 188.5Q249 161 240 128H192ZM64 363H235V256H64ZM256 363H448V256H256Z" />
      </g>
    </svg>