<svg xmlns="http://www.w3.org/2000/svg" viewBox="64 0 405 384">
      <g transform="scale(1 -1) translate(0 -384)">
        <path d="M107 384Q89 384 76.5 371.5Q64 359 64 341V43Q64 25 76.5 12.5Q89 0 107 0H405Q423 0 435.5 12.5Q448 25 448 43V91Q458 97 463.5 106.5Q469 116 469 128V256Q469 268 463.5 277.5Q458 287 448 293V341Q448 359 435.5 371.5Q423 384 405 384ZM107 341H405V299H277Q260 299 247.5 286.5Q235 274 235 256V128Q235 110 247.5 97.5Q260 85 277 85H405V43H107ZM277 256H427V128H277ZM341 224Q328 224 318.5 214.5Q309 205 309.0 192.0Q309 179 318.5 169.5Q328 160 341.5 160.0Q355 160 364.0 169.5Q373 179 373.0 192.0Q373 205 364.0 214.5Q355 224 341 224Z" />
      </g>
    </svg>