<svg xmlns="http://www.w3.org/2000/svg" viewBox="43 -21 426 426">
      <g transform="scale(1 -1) translate(0 -384)">
        <path d="M85 363H235V405H85Q68 405 55.5 392.5Q43 380 43 363V213H85ZM213 171 128 64H384L320 149L277 92ZM363 267Q363 280 353.5 289.5Q344 299 330.5 299.0Q317 299 308.0 289.5Q299 280 299.0 266.5Q299 253 308.0 244.0Q317 235 330.5 235.0Q344 235 353.5 244.0Q363 253 363 267ZM427 405H277V363H427V213H469V363Q469 380 456.5 392.5Q444 405 427 405ZM427 21H277V-21H427Q444 -21 456.5 -8.5Q469 4 469 21V171H427ZM85 171H43V21Q43 4 55.5 -8.5Q68 -21 85 -21H235V21H85Z" />
      </g>
    </svg>