<svg xmlns="http://www.w3.org/2000/svg" viewBox="43 -64 384 512">
      <g transform="scale(1 -1) translate(0 -384)">
        <path d="M43 213H149L96 267L126 297L231 192L126 87L96 117L149 171H43ZM256 64Q291 64 320.5 81.0Q350 98 367.0 127.5Q384 157 384.0 192.0Q384 227 367.0 256.5Q350 286 320.5 303.0Q291 320 256 320Q212 320 177 292L147 323L150 326L171 448H341L362 326Q392 302 409.5 267.0Q427 232 427.0 192.0Q427 152 409.5 117.0Q392 82 362 58L341 -64H171L150 58L147 61L177 92Q212 64 256 64Z" />
      </g>
    </svg>