<svg xmlns="http://www.w3.org/2000/svg" viewBox="0 -37 512 448">
      <g transform="scale(1 -1) translate(0 -374)">
        <path d="M0 256H43V128H0ZM256 288Q282 288 304.0 275.0Q326 262 338.5 240.0Q351 218 351 192Q351 179 348 168L373 143Q384 168 384 192Q384 221 371.0 247.5Q358 274 335 292L320 384H192L183 333L232 285Q243 288 256 288ZM448 85V299H405V111L431 85ZM352 110 472 -10 445 -37 332 76 320 0H192L176 91Q151 111 138.5 140.5Q126 170 128.0 201.5Q130 233 147 260L24 384L51 411ZM300 108 172 236Q160 215 160 192Q160 166 173.0 144.0Q186 122 208.0 109.5Q230 97 256 97Q279 97 300 108ZM469 256V128H512V256ZM64 85H107V299H64Z" />
      </g>
    </svg>