<svg xmlns="http://www.w3.org/2000/svg" viewBox="0 1 512 383">
      <g transform="scale(1 -1) translate(0 -385)">
        <path d="M64 85V299H107V85ZM405 85V299H448V85ZM469 256H512V128H469ZM0 128V256H43V128ZM383 193Q383 163 370.0 136.5Q357 110 335 92L319 1H192L176 92Q154 110 141.0 136.5Q128 163 128.0 193.0Q128 223 141.0 249.0Q154 275 176 293L192 384H319L335 293Q357 275 370.0 249.0Q383 223 383 193ZM160 193Q160 153 188.0 125.0Q216 97 255.5 97.0Q295 97 323.0 125.0Q351 153 351.0 192.5Q351 232 323.0 260.0Q295 288 255.5 288.0Q216 288 188.0 260.0Q160 232 160 193Z" />
      </g>
    </svg>