<svg xmlns="http://www.w3.org/2000/svg" viewBox="85 -64 402 512">
      <g transform="scale(1 -1) translate(0 -384)">
        <path d="M299 213H405L352 267L382 297L487 192L382 87L352 117L405 171H299ZM256 64Q221 64 191.5 81.0Q162 98 145.0 127.5Q128 157 128.0 192.0Q128 227 145.0 256.5Q162 286 191.5 303.0Q221 320 256 320Q300 320 335 292L365 323L362 326L341 448H171L150 326Q120 302 102.5 267.0Q85 232 85.0 192.0Q85 152 102.5 117.0Q120 82 150 58L171 -64H341L362 58L365 61L335 92Q300 64 256 64Z" />
      </g>
    </svg>