<svg xmlns="http://www.w3.org/2000/svg" viewBox="85 -64 342 512">
      <g transform="scale(1 -1) translate(0 -384)">
        <path d="M128 192Q128 227 145.0 256.5Q162 286 191.5 303.0Q221 320 256.0 320.0Q291 320 320.5 303.0Q350 286 367.0 256.5Q384 227 384.0 192.0Q384 157 367.0 127.5Q350 98 320.5 81.0Q291 64 256.0 64.0Q221 64 191.5 81.0Q162 98 145.0 127.5Q128 157 128 192ZM427 192Q427 232 409.5 267.0Q392 302 362 326L341 448H171L150 326Q120 302 102.5 267.0Q85 232 85.0 192.0Q85 152 102.5 117.0Q120 82 150 58L171 -64H341L362 58Q392 82 409.5 117.0Q427 152 427 192Z" />
      </g>
    </svg>