<svg xmlns="http://www.w3.org/2000/svg" viewBox="85 21 342 358">
      <g transform="scale(1 -1) translate(0 -400)">
        <path d="M427 299V171H384V299ZM384 85H427V128H384ZM213 379Q203 367 193 355Q169 325 149 296Q121 255 105 221Q85 179 85 149Q85 115 102.5 85.5Q120 56 149.5 38.5Q179 21 213.5 21.0Q248 21 277.5 38.5Q307 56 324.0 85.5Q341 115 341 149Q341 203 277 296Q245 343 213 379ZM165 235Q176 235 184.0 227.0Q192 219 192.0 208.0Q192 197 184.0 189.0Q176 181 165.0 181.0Q154 181 146.5 189.0Q139 197 139.0 208.0Q139 219 146.5 227.0Q154 235 165 235ZM261 85Q250 85 242.5 93.0Q235 101 235.0 112.0Q235 123 242.5 131.0Q250 139 261.0 139.0Q272 139 280.0 131.0Q288 123 288.0 112.0Q288 101 280.0 93.0Q272 85 261 85ZM161 85 138 107 266 235 289 213Z" />
      </g>
    </svg>