<svg xmlns="http://www.w3.org/2000/svg" viewBox="43 21 426 351">
      <g transform="scale(1 -1) translate(0 -393)">
        <path d="M405 341Q388 341 375.5 328.5Q363 316 363 299V154Q341 135 341 107Q341 80 360.0 61.5Q379 43 405.5 43.0Q432 43 450.5 61.5Q469 80 469 107Q469 136 448 154V299Q448 316 435.5 328.5Q423 341 405 341ZM405 320Q414 320 420.5 313.5Q427 307 427 299V277H384V299Q384 307 390.5 313.5Q397 320 405 320ZM171 372 155 355 138 334Q117 309 100 284Q74 245 61 219Q43 180 43 149Q43 115 60.0 85.5Q77 56 106.5 38.5Q136 21 170.5 21.0Q205 21 234.5 38.5Q264 56 281.5 85.5Q299 115 299 149Q299 180 280 219Q268 245 241 284Q224 309 204 334L187 355ZM171 306Q172 304 174 301Q191 282 207 259Q227 230 241 200Q256 167 256 149Q256 114 231.0 89.0Q206 64 170.5 64.0Q135 64 110.0 89.0Q85 114 85 149Q85 167 100 200Q114 230 135 259Q150 282 167 301Z" />
      </g>
    </svg>