<svg xmlns="http://www.w3.org/2000/svg" viewBox="43 21 426 358">
      <g transform="scale(1 -1) translate(0 -400)">
        <path d="M405 341Q388 341 375.5 328.5Q363 316 363 299V154Q341 135 341 107Q341 80 360.0 61.5Q379 43 405.5 43.0Q432 43 450.5 61.5Q469 80 469 107Q469 136 448 154V299Q448 316 435.5 328.5Q423 341 405 341ZM405 320Q414 320 420.5 313.5Q427 307 427 299V277H384V299Q384 307 390.5 313.5Q397 320 405 320ZM171 21Q136 21 106.5 38.5Q77 56 60.0 85.5Q43 115 43 149Q43 179 63 221Q79 255 107 296Q127 325 151 355L171 379L191 355Q215 325 235 296Q263 255 279 221Q299 179 299 149Q299 115 281.5 85.5Q264 56 234.5 38.5Q205 21 171 21Z" />
      </g>
    </svg>