<svg xmlns="http://www.w3.org/2000/svg" viewBox="24 -37 448 448">
      <g transform="scale(1 -1) translate(0 -374)">
        <path d="M213 303 133 383Q139 393 149.0 399.0Q159 405 171 405H341Q359 405 371.5 392.5Q384 380 384 363V132L259 257Q276 258 287.5 270.5Q299 283 299.0 300.0Q299 317 286.5 329.5Q274 342 256.5 342.0Q239 342 227.0 330.5Q215 319 213 303ZM320 64V21H384V-21H320Q302 -21 289.5 -8.5Q277 4 277 21V64H235V21Q235 4 222.5 -8.5Q210 -21 192 -21H128V21H192V64H171Q153 64 140.5 76.5Q128 89 128 107V280L24 384L51 411L472 -10L445 -37L343 64ZM299 107V109L269 139H213V107Z" />
      </g>
    </svg>