<svg xmlns="http://www.w3.org/2000/svg" viewBox="43 -21 426 426">
      <g transform="scale(1 -1) translate(0 -384)">
        <path d="M427 107H469V64H427Q384 64 341 85Q301 65 256.0 65.0Q211 65 171 85Q128 64 85 64H43V107H85Q129 107 171 134Q209 107 256.0 107.0Q303 107 341 134Q383 107 427 107ZM277 222Q302 234 320 237V230Q328 204 324 169Q294 151 260 151Q277 186 277 222ZM275 371Q230 358 198 326Q186 358 186 390Q221 406 259.0 405.0Q297 404 333 386Q346 382 350 378Q311 381 275 371ZM145 164Q126 155 107 151Q85 191 85 239Q102 205 128 179Q131 177 136.5 171.5Q142 166 145 164ZM405 151Q389 154 369 162Q375 198 365 239Q402 236 429 218Q426 187 410 158ZM158 209Q122 242 111 301L109 320Q124 345 145 363Q148 318 175 282Q199 243 235 224Q235 201 224 173Q189 182 158 209ZM288 331Q312 337 338.0 336.0Q364 335 388 326L405 318Q414 303 422 269Q383 286 339.0 283.5Q295 281 256 260Q238 268 220 290L222 292Q256 323 288 331ZM341 49Q383 21 427 21H469V-21H427Q384 -21 341 0Q301 -21 256.0 -21.0Q211 -21 171 0Q128 -21 85 -21H43V21H85Q129 21 171 49Q209 22 256.0 22.0Q303 22 341 49Z" />
      </g>
    </svg>