<svg xmlns="http://www.w3.org/2000/svg" viewBox="43 -21 448 426">
      <g transform="scale(1 -1) translate(0 -384)">
        <path d="M85 405Q68 405 55.5 392.5Q43 380 43 363V107Q43 89 55.5 76.5Q68 64 85 64H107V21H43V-21H107Q124 -21 136.5 -8.5Q149 4 149 21V64H192V21Q192 4 204.5 -8.5Q217 -21 235 -21H277L293 21H235V64H256Q274 64 286.5 76.5Q299 89 299 107V363Q299 380 286.5 392.5Q274 405 256 405ZM171 342Q188 342 200.5 329.5Q213 317 213.0 299.5Q213 282 200.5 269.5Q188 257 170.5 257.0Q153 257 140.5 269.5Q128 282 128.0 299.5Q128 317 140.5 329.5Q153 342 171 342ZM128 139H213V107H128ZM422 171H380L311 -21H352L367 21H435L450 -21H491ZM375 49 401 128 427 49Z" />
      </g>
    </svg>