<svg xmlns="http://www.w3.org/2000/svg" viewBox="128 21 256 358">
      <g transform="scale(1 -1) translate(0 -400)">
        <path d="M256 379Q246 367 236 355Q212 325 192 296Q164 255 148 221Q128 179 128 149Q128 115 145.0 85.5Q162 56 191.5 38.5Q221 21 256.0 21.0Q291 21 320.5 38.5Q350 56 367.0 85.5Q384 115 384 149Q384 203 320 296Q288 343 256 379ZM309 235 331 213 203 85 181 107ZM208 235Q219 235 227.0 227.0Q235 219 235.0 208.0Q235 197 227.0 189.0Q219 181 208.0 181.0Q197 181 189.0 189.0Q181 197 181.0 208.0Q181 219 189.0 227.0Q197 235 208 235ZM304 139Q315 139 323.0 131.0Q331 123 331.0 112.0Q331 101 323.0 93.0Q315 85 304.0 85.0Q293 85 285.0 93.0Q277 101 277.0 112.0Q277 123 285.0 131.0Q293 139 304 139Z" />
      </g>
    </svg>