<svg xmlns="http://www.w3.org/2000/svg" viewBox="128 21 256 358">
      <g transform="scale(1 -1) translate(0 -400)">
        <path d="M341 149V192H376Q384 167 384 149ZM332 277Q318 300 303 320H299V277ZM341 192V235H299V192ZM341 263V235H357ZM256 107V149H299V192H256V235H299V277H256V320H299V326Q275 357 256 379L236 355Q212 325 192 296Q164 255 148 221Q128 179 128 149Q128 115 145.0 85.5Q162 56 191.5 38.5Q221 21 256 21V64H299V107ZM299 29Q323 37 341 54V64H299ZM299 107H341V149H299ZM341 64H351Q368 82 377 107H341Z" />
      </g>
    </svg>