<svg xmlns="http://www.w3.org/2000/svg" viewBox="43 -21 426 426">
      <g transform="scale(1 -1) translate(0 -384)">
        <path d="M427 21Q382 21 341 50Q302 22 256.0 22.0Q210 22 171 50Q130 21 85 21H43V-21H85Q129 -21 171 0Q211 -21 256.0 -21.0Q301 -21 341 0Q383 -21 427 -21H469V21ZM427 107Q382 107 341 135Q302 108 256.0 108.0Q210 108 171 135Q130 107 85 107H43V64H85Q129 64 171 85Q211 65 256.0 65.0Q301 65 341 85Q383 64 427 64H469V107ZM469 405H43V363H128V107H384V363H469ZM192 363H235V235H192ZM277 277H320V149H277Z" />
      </g>
    </svg>