<svg xmlns="http://www.w3.org/2000/svg" viewBox="43 -21 426 426">
      <g transform="scale(1 -1) translate(0 -384)">
        <path d="M405 139Q411 132 416 126Q429 110 437 96Q448 77 448 64Q448 46 435.5 33.5Q423 21 405.5 21.0Q388 21 375.5 33.5Q363 46 363.0 64.0Q363 82 384 112Q395 127 405 139ZM107 64V256Q89 256 76.5 268.5Q64 281 64.0 298.5Q64 316 76.5 328.5Q89 341 107 341V363Q107 380 119.5 392.5Q132 405 149 405H192Q210 405 222.5 392.5Q235 380 235 363V341H405Q423 341 435.5 328.5Q448 316 448 299V213Q457 213 463.0 207.0Q469 201 469.0 192.0Q469 183 463.0 177.0Q457 171 448 171H363Q354 171 347.5 177.0Q341 183 341.0 192.0Q341 201 347.5 207.0Q354 213 363 213V256H235V64H256Q274 64 286.5 51.5Q299 39 299 21V-21H43V21Q43 39 55.5 51.5Q68 64 85 64Z" />
      </g>
    </svg>