<svg xmlns="http://www.w3.org/2000/svg" viewBox="43 -21 426 426">
      <g transform="scale(1 -1) translate(0 -384)">
        <path d="M77 277H107V128H149V277H235V235H277V277H363V128H405V277H440Q449 277 455.0 283.5Q461 290 461 299Q461 303 460 305L405 405H107L58 308Q54 300 57.0 292.0Q60 284 67 280Q72 277 77 277ZM133 363H379L400 320H112ZM43 107V64H85V-21H427V64H469V107ZM384 21H128V64H384ZM297 213Q302 213 305.0 210.0Q308 207 308 203L300 137Q299 133 296.0 130.5Q293 128 289 128H223Q219 128 216.0 130.5Q213 133 212 137L204 201Q204 206 206.5 209.5Q209 213 213 213Z" />
      </g>
    </svg>