<svg xmlns="http://www.w3.org/2000/svg" viewBox="128 21 256 359">
      <g transform="scale(1 -1) translate(0 -401)">
        <path d="M256 380Q246 368 236 356Q212 326 192 297Q164 255 148 221Q128 179 128 149Q128 115 145.5 85.5Q163 56 192.0 38.5Q221 21 256.0 21.0Q291 21 320.0 38.5Q349 56 366.5 85.5Q384 115 384 149Q384 179 364 221Q348 255 320 297Q300 326 276 356ZM256 267V235Q291 235 316.0 210.0Q341 185 341 149Q341 120 326 102L303 126Q309 135 309 149Q309 172 293.5 187.5Q278 203 256 203V171L209 218ZM186 196 209 173Q203 163 203 149Q203 127 218.5 111.5Q234 96 256 96V128L303 81L256 32V64Q221 64 196.0 89.0Q171 114 171 149Q171 178 186 196Z" />
      </g>
    </svg>