<svg xmlns="http://www.w3.org/2000/svg" viewBox="24 -37 448 448">
      <g transform="scale(1 -1) translate(0 -374)">
        <path d="M122 395Q133 405 149 405H192Q210 405 222.5 392.5Q235 380 235 363V341H405Q423 341 435.5 328.5Q448 316 448 299V213Q457 213 463.0 207.0Q469 201 469.0 192.0Q469 183 463.0 177.0Q457 171 448 171H363Q354 171 347.5 177.0Q341 183 341.0 192.0Q341 201 347.5 207.0Q354 213 363 213V256H260ZM445 -37 472 -10 51 411 24 384 78 330Q68 321 65.5 308.0Q63 295 67.5 283.0Q72 271 83.0 263.5Q94 256 107 256V64H85Q68 64 55.5 51.5Q43 39 43 21V-21H299V21Q299 39 286.5 51.5Q274 64 256 64H235V173Z" />
      </g>
    </svg>