<svg xmlns="http://www.w3.org/2000/svg" viewBox="43 -21 426 426">
      <g transform="scale(1 -1) translate(0 -384)">
        <path d="M469 107H43V64H85V-21H427V64H469ZM223 128Q219 128 216.0 130.5Q213 133 212 137L204 203Q204 207 207.0 210.0Q210 213 215 213H299Q303 213 305.5 209.5Q308 206 308 201L300 137Q299 133 296.0 130.5Q293 128 289 128ZM405 405 460 305Q461 303 461 299Q461 290 455.0 283.5Q449 277 440 277H405V128H363V277H277V235H235V277H149V128H107V277H77Q72 277 67 280Q60 284 57.0 292.0Q54 300 58 308L107 405Z" />
      </g>
    </svg>