<svg xmlns="http://www.w3.org/2000/svg" viewBox="128 16 256 352">
      <g transform="scale(1 -1) translate(0 -384)">
        <path d="M256 368 240 350 223 329Q202 304 185 279Q159 240 146 214Q128 175 128 144Q128 110 145.0 80.5Q162 51 191.5 33.5Q221 16 256.0 16.0Q291 16 320.5 33.5Q350 51 367.0 80.5Q384 110 384 144Q384 175 366 214Q353 240 327 279Q310 304 289 329L272 350ZM256 301Q257 299 260 296Q276 277 292 255Q312 225 326 195Q341 162 341 144Q341 109 316.5 84.0Q292 59 256.0 59.0Q220 59 195.5 84.0Q171 109 171 144Q171 162 186 195Q200 225 220 255Q236 277 252 296Z" />
      </g>
    </svg>