<svg xmlns="http://www.w3.org/2000/svg" viewBox="24 -37 448 448">
      <g transform="scale(1 -1) translate(0 -374)">
        <path d="M472 -10 51 411 24 384 163 244Q128 187 128 144Q128 110 145.0 80.5Q162 51 191.5 33.5Q221 16 256 16Q283 16 307.5 27.0Q332 38 350 58L445 -37ZM256 59Q220 59 195.5 84.0Q171 109 171 144Q171 166 195 213L320 88Q308 74 291.5 66.5Q275 59 256 59ZM238 279 207 309Q225 333 240 350L256 368L272 350L289 329Q310 304 327 279Q353 240 366 214Q384 175 384 144Q384 137 383 133L330 186Q313 223 292 255Q276 277 260 296L256 301Z" />
      </g>
    </svg>