<svg xmlns="http://www.w3.org/2000/svg" viewBox="128 -11 332 390">
      <g transform="scale(1 -1) translate(0 -368)">
        <path d="M256 64Q256 42 263 21H256Q221 21 191.5 38.5Q162 56 145.0 85.5Q128 115 128 149Q128 179 148 221Q164 255 192 296Q212 325 236 355L256 379L281 349Q310 312 332 277Q363 229 376 192Q354 190 334 182Q324 209 302 246Q282 279 256 312Q220 266 197 224Q171 176 171 149Q171 114 196.0 89.0Q221 64 256 64ZM460 109 429 139 384 94 339 139 309 109 354 64 309 19 339 -11 384 34 429 -11 459 19 414 64Z" />
      </g>
    </svg>