<svg xmlns="http://www.w3.org/2000/svg" viewBox="85 21 342 358">
      <g transform="scale(1 -1) translate(0 -400)">
        <path d="M213 379Q203 367 193 355Q169 325 149 296Q121 255 105 221Q85 179 85 149Q85 115 102.5 85.5Q120 56 149.5 38.5Q179 21 213.5 21.0Q248 21 277.5 38.5Q307 56 324.0 85.5Q341 115 341 149Q341 203 277 296Q245 343 213 379ZM213 64Q178 64 153.0 89.0Q128 114 128 149Q128 176 155 224Q178 266 213 312Q249 266 272 224Q299 176 299 149Q299 114 274.0 89.0Q249 64 213 64ZM427 299V171H384V299ZM384 85H427V128H384Z" />
      </g>
    </svg>