<svg xmlns="http://www.w3.org/2000/svg" viewBox="43 0 426 363">
      <g transform="scale(1 -1) translate(0 -363)">
        <path d="M395 289Q383 277 380.0 261.5Q377 246 382 231L320 169V213Q320 222 313.5 228.5Q307 235 299 235H277Q277 238 277 245Q277 277 261.5 304.0Q246 331 219.0 347.0Q192 363 160.0 363.0Q128 363 101.0 347.0Q74 331 58.5 304.0Q43 277 43 245Q43 218 54.0 194.5Q65 171 85 155V21Q85 13 91.5 6.5Q98 0 107 0H299Q307 0 313.5 6.5Q320 13 320 21V109L412 201Q427 196 442.5 199.0Q458 202 469 213ZM86 235Q86 236 86 238L85 245Q85 276 107.0 298.0Q129 320 160.0 320.0Q191 320 213.0 298.0Q235 276 235 245L234 235Z" />
      </g>
    </svg>