<svg xmlns="http://www.w3.org/2000/svg" viewBox="43 -21 426 426">
      <g transform="scale(1 -1) translate(0 -384)">
        <path d="M427 149H469V107H427Q383 107 341 128Q301 107 256.0 107.0Q211 107 171 128Q129 107 85 107H43V149H85Q130 149 171 178Q210 150 256.0 150.0Q302 150 341 178Q382 149 427 149ZM427 21H469V-21H427Q383 -21 341 0Q301 -21 256.0 -21.0Q211 -21 171 0Q129 -21 85 -21H43V21H85Q130 21 171 50Q210 22 256.0 22.0Q302 22 341 50Q382 21 427 21ZM149 405 64 320H128V213H171V320H235ZM363 405 277 320H341V213H384V320H448Z" />
      </g>
    </svg>