<svg xmlns="http://www.w3.org/2000/svg" viewBox="43 21 426 327">
      <g transform="scale(1 -1) translate(0 -369)">
        <path d="M427 192H469V149H427Q383 149 341 171Q301 150 256.0 150.0Q211 150 171 171Q129 149 85 149H43V192H85Q130 192 171 220Q210 193 256.0 193.0Q302 193 341 220Q382 192 427 192ZM427 320H469V277H427Q383 277 341 299Q301 278 256.0 278.0Q211 278 171 299Q129 277 85 277H43V320H85Q130 320 171 348Q210 321 256.0 321.0Q302 321 341 348Q382 320 427 320ZM427 64H469V21H427Q383 21 341 43Q301 22 256.0 22.0Q211 22 171 43Q129 21 85 21H43V64H85Q130 64 171 92Q210 65 256.0 65.0Q302 65 341 92Q382 64 427 64Z" />
      </g>
    </svg>