<svg xmlns="http://www.w3.org/2000/svg" viewBox="42 0 427 384">
      <g transform="scale(1 -1) translate(0 -384)">
        <path d="M438 307Q460 276 467 239Q474 198 460.5 159.5Q447 121 418 94Q396 73 369 60Q376 43 368.5 26.5Q361 10 344 3Q336 0 328 0Q310 0 297.5 12.5Q285 25 284 43H218Q217 24 202.5 12.5Q188 1 170.5 2.5Q153 4 141.5 16.5Q130 29 130 46Q130 53 132 58Q80 76 47 119Q41 126 42.5 135.0Q44 144 51.0 149.0Q58 154 65 154Q76 154 81.5 157.5Q87 161 90 167Q98 191 98 215Q99 231 102 249Q108 276 123.0 300.0Q138 324 160 341Q214 384 284 384Q330 384 371.0 363.0Q412 342 438 307ZM357 79Q385 92 406.5 114.5Q428 137 439 166Q456 217 437 264Q419 307 376.5 334.5Q334 362 284 362Q271 362 261 360Q212 354 174 324Q133 291 124 245Q122 236 121 215Q119 188 116 176Q111 155 101 145Q88 132 65 132Q97 92 145 77Q159 90 177.0 88.5Q195 87 208 74Q212 70 213 65H289Q297 82 315.0 87.5Q333 93 349 84Q352 83 356 79ZM234 228Q225 228 218.0 234.0Q211 240 210.5 249.5Q210 259 216.0 266.0Q222 273 231.5 273.5Q241 274 248.0 267.5Q255 261 255.5 251.5Q256 242 250.0 235.5Q244 229 235 228ZM334 228Q325 228 318.0 234.0Q311 240 310.5 249.5Q310 259 316.0 266.0Q322 273 331.5 273.5Q341 274 348.0 267.5Q355 261 355.5 251.5Q356 242 349.5 235.5Q343 229 334 228ZM207 191Q206 195 208.5 199.0Q211 203 215.5 204.0Q220 205 224.0 202.0Q228 199 229 195Q235 177 250.5 166.5Q266 156 284 158Q302 157 317.5 167.0Q333 177 339 195Q341 199 345.5 200.5Q350 202 354 199Q360 196 360 189Q354 166 334 152Q311 136 284 136H282Q256 135 234.5 150.0Q213 165 207 191Z" />
      </g>
    </svg>