<svg xmlns="http://www.w3.org/2000/svg" viewBox="21 -21 470 426">
      <g transform="scale(1 -1) translate(0 -384)">
        <path d="M96 158Q104 154 106.0 145.0Q108 136 103.5 128.5Q99 121 91.0 119.0Q83 117 75 121Q50 135 35.5 159.5Q21 184 21.0 213.0Q21 242 35.5 266.5Q50 291 74.5 305.5Q99 320 128 320Q144 358 178.5 381.5Q213 405 256 405Q292 405 323.0 388.0Q354 371 373.0 341.5Q392 312 395 277H405Q441 277 466.0 252.0Q491 227 491.0 192.0Q491 157 466.0 132.0Q441 107 405 107Q396 107 390.0 113.0Q384 119 384.0 128.0Q384 137 390.0 143.0Q396 149 405 149Q423 149 435.5 161.5Q448 174 448.0 192.0Q448 210 435.5 222.5Q423 235 405 235H363V256Q363 285 348.5 309.5Q334 334 309.5 348.5Q285 363 256 363Q216 363 186.5 337.5Q157 312 151 273Q139 277 128 277Q101 277 82.5 258.5Q64 240 64 213Q64 196 72.5 181.0Q81 166 96 158ZM203 213H267L224 128H267L187 -21L203 85H149ZM373 50Q373 29 359.0 14.5Q345 0 325.0 0.0Q305 0 291.0 14.5Q277 29 277.0 49.5Q277 70 301 107Q313 125 325 139L338 123Q352 104 361 87Q373 64 373 50Z" />
      </g>
    </svg>