<svg xmlns="http://www.w3.org/2000/svg" viewBox="43 -2 426 407">
      <g transform="scale(1 -1) translate(0 -403)">
        <path d="M64 192H149Q149 221 163.5 245.5Q178 270 202.5 284.5Q227 299 256.0 299.0Q285 299 309.5 284.5Q334 270 348.5 245.5Q363 221 363 192H448Q457 192 463.0 186.0Q469 180 469.0 171.0Q469 162 463.0 155.5Q457 149 448 149H64Q55 149 49.0 155.5Q43 162 43.0 171.0Q43 180 49.0 186.0Q55 192 64 192ZM320 192Q320 219 301.5 237.5Q283 256 256.0 256.0Q229 256 210.5 237.5Q192 219 192 192ZM256 405 307 332Q282 341 256.0 341.0Q230 341 205 332ZM71 299 160 306Q140 289 127.0 267.0Q114 245 109 218ZM441 299 403 218Q398 244 385.0 267.0Q372 290 352 306ZM271 100 337 34Q344 28 344.0 19.0Q344 10 337.5 4.0Q331 -2 322.5 -2.0Q314 -2 307 4L256 55L205 4Q198 -2 189.5 -2.0Q181 -2 174.5 4.0Q168 10 168.0 19.0Q168 28 175 34L241 100Q248 107 256.0 107.0Q264 107 271 100Z" />
      </g>
    </svg>