<svg xmlns="http://www.w3.org/2000/svg" viewBox="71 -21 377 426">
      <g transform="scale(1 -1) translate(0 -384)">
        <path d="M256 299Q227 299 202.5 284.5Q178 270 163.5 245.5Q149 221 149.0 192.0Q149 163 163.5 138.5Q178 114 202.5 99.5Q227 85 256.0 85.0Q285 85 309.5 99.5Q334 114 348.5 138.5Q363 163 363.0 192.0Q363 221 348.5 245.5Q334 270 309.5 284.5Q285 299 256 299ZM256 128Q229 128 210.5 146.5Q192 165 192.0 192.0Q192 219 210.5 237.5Q229 256 256.0 256.0Q283 256 301.5 237.5Q320 219 320.0 192.0Q320 165 301.5 146.5Q283 128 256 128ZM256 405 307 332Q282 341 256.0 341.0Q230 341 205 332ZM71 299 160 306Q140 289 127.0 267.0Q114 245 109 218ZM72 85 109 166Q114 140 127.0 117.5Q140 95 160 77ZM256 -21 205 52Q230 43 255.5 43.0Q281 43 307 52ZM405 171V299H448V171ZM405 85V128H448V85Z" />
      </g>
    </svg>