<svg xmlns="http://www.w3.org/2000/svg" viewBox="43 -21 426 426">
      <g transform="scale(1 -1) translate(0 -384)">
        <path d="M128 320 143 319Q153 357 184.5 381.0Q216 405 256 405Q279 405 300.5 396.0Q322 387 338.5 370.5Q355 354 364.0 332.5Q373 311 373 288L372 268Q387 277 405 277Q432 277 450.5 258.5Q469 240 469.0 213.5Q469 187 450.5 168.0Q432 149 405 149H128Q93 149 68.0 174.0Q43 199 43.0 234.5Q43 270 68.0 295.0Q93 320 128 320ZM128 277Q110 277 97.5 264.5Q85 252 85.0 234.5Q85 217 97.5 204.5Q110 192 128 192H405Q414 192 420.5 198.0Q427 204 427.0 213.0Q427 222 420.5 228.5Q414 235 405 235H331V288Q331 319 309.0 341.0Q287 363 256.0 363.0Q225 363 203.0 341.0Q181 319 181 288V277ZM384 64H85Q76 64 70.0 70.0Q64 76 64.0 85.0Q64 94 70.0 100.5Q76 107 85 107H384Q411 107 429.5 88.0Q448 69 448.0 42.5Q448 16 429.5 -2.5Q411 -21 384.5 -21.0Q358 -21 339 -3Q333 4 333.0 12.5Q333 21 339.0 27.5Q345 34 354.0 34.0Q363 34 369.0 27.5Q375 21 384.0 21.0Q393 21 399.0 27.5Q405 34 405.0 43.0Q405 52 399.0 58.0Q393 64 384 64Z" />
      </g>
    </svg>