<svg xmlns="http://www.w3.org/2000/svg" viewBox="43 -21 426 426">
      <g transform="scale(1 -1) translate(0 -384)">
        <path d="M64 192H149Q149 221 163.5 245.5Q178 270 202.5 284.5Q227 299 256.0 299.0Q285 299 309.5 284.5Q334 270 348.5 245.5Q363 221 363 192H448Q457 192 463.0 186.0Q469 180 469.0 171.0Q469 162 463.0 155.5Q457 149 448 149H64Q55 149 49.0 155.5Q43 162 43.0 171.0Q43 180 49.0 186.0Q55 192 64 192ZM107 107H405Q414 107 420.5 100.5Q427 94 427.0 85.0Q427 76 420.5 70.0Q414 64 405 64H107Q98 64 91.5 70.0Q85 76 85.0 85.0Q85 94 91.5 100.5Q98 107 107 107ZM363 21Q372 21 378.0 15.0Q384 9 384.0 0.0Q384 -9 378.0 -15.0Q372 -21 363 -21H149Q140 -21 134.0 -15.0Q128 -9 128.0 0.0Q128 9 134.0 15.0Q140 21 149 21ZM320 192Q320 219 301.5 237.5Q283 256 256.0 256.0Q229 256 210.5 237.5Q192 219 192 192ZM256 405 307 332Q282 341 256.0 341.0Q230 341 205 332ZM71 299 160 306Q140 289 127.0 267.0Q114 245 109 218ZM441 299 403 218Q398 244 385.0 267.0Q372 290 352 306Z" />
      </g>
    </svg>