<svg xmlns="http://www.w3.org/2000/svg" viewBox="43 -21 426 426">
      <g transform="scale(1 -1) translate(0 -384)">
        <path d="M64 341Q64 351 70.0 357.0Q76 363 85 363H107Q116 363 122.0 357.0Q128 351 128.0 341.5Q128 332 122.0 326.0Q116 320 107 320H85Q76 320 70.0 326.0Q64 332 64 341ZM85 171Q85 180 91.0 186.0Q97 192 107 192H128Q138 192 143.5 186.0Q149 180 149.0 170.5Q149 161 143.5 155.0Q138 149 128 149H107Q97 149 91.0 155.0Q85 161 85 171ZM85 107Q76 107 70.0 101.0Q64 95 64.0 85.5Q64 76 70.0 70.0Q76 64 85 64H192Q202 64 207.5 70.0Q213 76 213.0 85.5Q213 95 207.5 101.0Q202 107 192 107ZM384 341Q384 351 390.0 357.0Q396 363 405 363H448Q458 363 463.5 357.0Q469 351 469.0 341.5Q469 332 463.5 326.0Q458 320 448 320H405Q396 320 390.0 326.0Q384 332 384 341ZM149 21Q140 21 134.0 15.5Q128 10 128.0 0.0Q128 -10 134.0 -15.5Q140 -21 149 -21H235Q244 -21 250.0 -15.5Q256 -10 256.0 0.0Q256 10 250.0 15.5Q244 21 235 21ZM64 235Q54 235 48.5 240.5Q43 246 43.0 256.0Q43 266 48.5 271.5Q54 277 64 277H256Q274 277 286.5 289.5Q299 302 299.0 320.0Q299 338 286.5 350.5Q274 363 256 363Q236 363 226 350Q220 343 211.5 343.0Q203 343 196.5 349.5Q190 356 190.0 364.5Q190 373 196 380Q208 391 223.5 398.0Q239 405 256 405Q291 405 316.0 380.0Q341 355 341.0 320.0Q341 285 316.0 260.0Q291 235 256 235ZM405 192Q415 192 421.0 198.0Q427 204 427.0 213.5Q427 223 421.0 229.0Q415 235 406.0 235.0Q397 235 390.5 228.5Q384 222 375.5 222.0Q367 222 360.5 228.5Q354 235 354.0 243.5Q354 252 361 258Q368 267 380.0 272.0Q392 277 405 277Q433 277 451.0 259.0Q469 241 469.0 213.5Q469 186 451.0 167.5Q433 149 405 149H213Q204 149 198.0 155.0Q192 161 192.0 170.5Q192 180 198.0 186.0Q204 192 213 192ZM384 64H277Q268 64 262.0 70.0Q256 76 256.0 85.5Q256 95 262.0 101.0Q268 107 277 107H384Q411 107 429.5 88.5Q448 70 448.0 42.5Q448 15 429.5 -3.0Q411 -21 384 -21Q371 -21 359.0 -16.0Q347 -11 339 -2Q333 4 333.0 12.5Q333 21 339.5 27.5Q346 34 354.5 34.0Q363 34 369.0 27.5Q375 21 384.5 21.0Q394 21 399.5 27.0Q405 33 405.0 42.5Q405 52 399.5 58.0Q394 64 384 64Z" />
      </g>
    </svg>