<svg xmlns="http://www.w3.org/2000/svg" viewBox="23 -64 446 495">
      <g transform="scale(1 -1) translate(0 -367)">
        <path d="M272 353Q309 336 328.0 300.0Q347 264 340 225Q360 207 372.0 181.5Q384 156 384 128V124Q394 128 405 128Q432 128 450.5 109.5Q469 91 469.0 64.0Q469 37 450.5 18.5Q432 0 405 0H363L357 1Q351 2 347 6Q341 12 341 21Q341 35 352 40Q357 43 363 43H405Q414 43 420.5 49.0Q427 55 427.0 64.0Q427 73 420.5 79.0Q414 85 405 85H341V128Q341 163 316.0 188.0Q291 213 256.0 213.0Q221 213 196.0 188.0Q171 163 171 128H128Q110 128 97.5 115.5Q85 103 85.0 85.5Q85 68 97.5 55.5Q110 43 128 43H149L155 42Q161 40 165 36Q171 31 171.0 21.5Q171 12 165 6Q161 2 155 1L149 0H128Q93 0 68.0 25.0Q43 50 43.0 85.5Q43 121 68.0 146.0Q93 171 128 171H134Q113 196 108.0 229.0Q103 262 117 293Q130 322 155.5 340.5Q181 359 212.0 362.5Q243 366 272 353ZM255 314Q226 326 197.0 315.0Q168 304 156 276Q149 260 149.5 242.5Q150 225 158 211Q176 232 201.5 244.0Q227 256 256 256Q278 256 299 249Q298 270 286.0 287.5Q274 305 255 314ZM289 392Q271 399 253 403L307 431L326 369Q309 382 289 392ZM130 375Q114 364 102 349L105 409L168 395Q148 388 130 375ZM384 262Q381 282 375 299L426 267L382 219Q386 239 384 262ZM65 228Q67 210 73 192L23 224L66 271Q63 249 65 228ZM256 45Q277 12 277 0Q277 -9 271.0 -15.0Q265 -21 256.0 -21.0Q247 -21 241.0 -15.0Q235 -9 235 0Q235 12 256 45ZM256 115Q248 105 239 94Q220 70 209 49Q192 19 192 0Q192 -27 210.5 -45.5Q229 -64 256.0 -64.0Q283 -64 301.5 -45.5Q320 -27 320 0Q320 19 303 49Q292 70 273 94Z" />
      </g>
    </svg>