<svg xmlns="http://www.w3.org/2000/svg" viewBox="43 0 426 405">
      <g transform="scale(1 -1) translate(0 -405)">
        <path d="M64 192H149Q149 221 163.5 245.5Q178 270 202.5 284.5Q227 299 256.0 299.0Q285 299 309.5 284.5Q334 270 348.5 245.5Q363 221 363 192H448Q457 192 463.0 186.0Q469 180 469.0 171.0Q469 162 463.0 155.5Q457 149 448 149H64Q55 149 49.0 155.5Q43 162 43.0 171.0Q43 180 49.0 186.0Q55 192 64 192ZM320 192Q320 219 301.5 237.5Q283 256 256.0 256.0Q229 256 210.5 237.5Q192 219 192 192ZM256 405 307 332Q282 341 256.0 341.0Q230 341 205 332ZM71 299 160 306Q140 289 127.0 267.0Q114 245 109 218ZM441 299 403 218Q398 244 385.0 267.0Q372 290 352 306ZM271 6 337 73Q344 79 344.0 88.0Q344 97 337.5 103.0Q331 109 322.5 109.0Q314 109 307 103L256 51L205 103Q198 109 189.5 109.0Q181 109 174.5 103.0Q168 97 168.0 88.0Q168 79 175 73L241 6Q248 0 256.0 0.0Q264 0 271 6Z" />
      </g>
    </svg>