<svg xmlns="http://www.w3.org/2000/svg" viewBox="43 -21 410 448">
      <g transform="scale(1 -1) translate(0 -406)">
        <path d="M379 361 325 319 344 254 288 293 232 254 251 319 197 361 265 363 288 427 311 363ZM453 213 418 187 431 144 395 169 358 144 371 187 336 213 380 214 395 256 409 214ZM405 108Q413 109 421.5 102.0Q430 95 432.5 85.5Q435 76 430 68Q419 52 407 41Q366 0 311.0 -14.5Q256 -29 201.0 -14.5Q146 0 105.0 41.0Q64 82 50.0 137.0Q36 192 50.0 247.0Q64 302 105 343Q118 356 132 366Q140 371 150.0 368.0Q160 365 166.5 357.0Q173 349 172 340Q168 294 183.5 249.0Q199 204 233.5 169.5Q268 135 313.0 119.0Q358 103 405 108ZM370 65Q324 67 280.5 86.0Q237 105 203.0 139.0Q169 173 150.0 216.0Q131 259 129 305Q99 272 89.5 229.5Q80 187 92.0 145.0Q104 103 135.5 71.5Q167 40 209.0 28.0Q251 16 294.0 25.5Q337 35 370 65Z" />
      </g>
    </svg>