<svg xmlns="http://www.w3.org/2000/svg" viewBox="21 43 470 298">
      <g transform="scale(1 -1) translate(0 -384)">
        <path d="M128 43Q99 43 74.5 57.0Q50 71 35.5 95.5Q21 120 21.0 149.0Q21 178 35.5 202.5Q50 227 74.5 241.5Q99 256 128 256Q144 294 178.5 317.5Q213 341 256 341Q292 341 323.0 324.0Q354 307 373.0 277.5Q392 248 395 213H405Q441 213 466.0 188.0Q491 163 491.0 128.0Q491 93 466.0 68.0Q441 43 405 43ZM405 171H363V192Q363 221 348.5 245.5Q334 270 309.5 284.5Q285 299 256 299Q216 299 186.5 273.5Q157 248 151 209Q139 213 128 213Q101 213 82.5 194.5Q64 176 64.0 149.5Q64 123 82.5 104.0Q101 85 128 85H405Q423 85 435.5 97.5Q448 110 448.0 128.0Q448 146 435.5 158.5Q423 171 405 171ZM277 192H235V277H277ZM277 107H235V149H277Z" />
      </g>
    </svg>