<svg xmlns="http://www.w3.org/2000/svg" viewBox="64 -21 405 426">
      <g transform="scale(1 -1) translate(0 -384)">
        <path d="M85 235Q76 235 70.0 241.0Q64 247 64.0 256.0Q64 265 70.0 271.0Q76 277 85 277H256Q274 277 286.5 289.5Q299 302 299.0 320.0Q299 338 286.5 350.5Q274 363 256.0 363.0Q238 363 226 350Q220 344 211.0 344.0Q202 344 195.5 350.0Q189 356 189.0 365.0Q189 374 196 380Q221 405 256.0 405.0Q291 405 316.0 380.0Q341 355 341.0 320.0Q341 285 316.0 260.0Q291 235 256 235ZM405 192Q414 192 420.5 198.0Q427 204 427.0 213.0Q427 222 420.5 228.5Q414 235 405.0 235.0Q396 235 390.0 228.5Q384 222 375.0 222.0Q366 222 360.0 228.5Q354 235 354.0 243.5Q354 252 360 259Q379 277 405.5 277.0Q432 277 450.5 258.5Q469 240 469.0 213.5Q469 187 450.5 168.0Q432 149 405 149H107Q98 149 91.5 155.5Q85 162 85.0 171.0Q85 180 91.5 186.0Q98 192 107 192ZM384 64H85Q76 64 70.0 70.0Q64 76 64.0 85.0Q64 94 70.0 100.5Q76 107 85 107H384Q411 107 429.5 88.0Q448 69 448.0 42.5Q448 16 429.5 -2.5Q411 -21 384.5 -21.0Q358 -21 339 -3Q333 4 333.0 12.5Q333 21 339.0 27.5Q345 34 354.0 34.0Q363 34 369.0 27.5Q375 21 384.0 21.0Q393 21 399.0 27.5Q405 34 405.0 43.0Q405 52 399.0 58.0Q393 64 384 64Z" />
      </g>
    </svg>