<svg xmlns="http://www.w3.org/2000/svg" viewBox="24 -37 448 448">
      <g transform="scale(1 -1) translate(0 -374)">
        <path d="M472 -10 51 411 24 384 106 302 71 299 109 218Q114 245 127 267Q128 269 130 272L133 275L163 244Q149 220 149.0 191.5Q149 163 163.5 138.5Q178 114 202.5 99.5Q227 85 255.5 85.0Q284 85 308 99L445 -37ZM256 128Q229 128 210.5 146.5Q192 165 192 192Q192 201 196 212L276 132Q265 128 256 128ZM385 267Q372 290 352 306L441 299L403 218Q398 244 385 267ZM256 299Q285 299 309.5 284.5Q334 270 348.5 245.5Q363 221 363 192Q363 177 357 159L320 197Q318 220 301.0 237.0Q284 254 261 256L223 293Q241 299 256 299ZM256 341Q230 341 205 332L256 405L307 332Q282 341 256 341ZM403 166 440 85 432 84 389 127Q399 148 403 166ZM256 43Q281 43 307 52L256 -21L205 52Q230 43 256 43ZM127 117Q140 95 160 77L72 85L109 166Q114 140 127 117Z" />
      </g>
    </svg>