<svg xmlns="http://www.w3.org/2000/svg" viewBox="21 -42 470 469">
      <g transform="scale(1 -1) translate(0 -385)">
        <path d="M85 99Q83 108 87.5 115.5Q92 123 101 126L149 139L114 174Q107 180 107.0 189.0Q107 198 113.5 204.5Q120 211 129.5 211.0Q139 211 145 205L180 170L193 218Q195 227 203.0 231.5Q211 236 219.5 233.5Q228 231 232.5 223.0Q237 215 235 206L222 158L270 171Q279 173 287.0 168.5Q295 164 297.5 155.5Q300 147 295.5 139.0Q291 131 282 129L234 116L269 81Q275 75 275.0 65.5Q275 56 268.5 49.5Q262 43 253.0 43.0Q244 43 238 50L203 85L190 37Q187 28 179.5 23.5Q172 19 163.0 21.5Q154 24 149.5 31.5Q145 39 147 48L160 96L112 83Q103 81 95.5 85.5Q88 90 85 99ZM21 235Q21 256 29.5 275.5Q38 295 53.0 310.0Q68 325 87.5 333.0Q107 341 128 341Q144 380 178.5 403.5Q213 427 256 427Q292 427 323.0 409.5Q354 392 373.0 363.0Q392 334 395 298L405 299Q441 299 466.0 274.0Q491 249 491.0 213.5Q491 178 466.0 153.0Q441 128 405 128Q396 128 390.0 134.0Q384 140 384.0 149.0Q384 158 390.0 164.5Q396 171 405 171Q423 171 435.5 183.5Q448 196 448.0 213.5Q448 231 435.5 243.5Q423 256 405 256H363V277Q363 306 348.5 330.5Q334 355 309.5 369.5Q285 384 256 384Q216 384 186.5 358.5Q157 333 151 295Q139 299 128 299Q101 299 82.5 280.0Q64 261 64.0 234.5Q64 208 83 189Q89 182 89.0 173.5Q89 165 83.0 159.0Q77 153 68.0 153.0Q59 153 53 159Q38 174 29.5 193.5Q21 213 21 235ZM299 12Q301 6 306.5 3.0Q312 0 318 1L352 11L343 -23Q341 -30 344.0 -35.0Q347 -40 353.5 -42.0Q360 -44 365.5 -40.5Q371 -37 372 -31L381 2L406 -22Q410 -27 416.5 -27.0Q423 -27 427.5 -22.5Q432 -18 432.0 -11.5Q432 -5 428 -1L403 24L436 33Q443 35 446.0 40.5Q449 46 447.5 52.0Q446 58 440.5 61.0Q435 64 429 63L395 53L404 87Q406 94 402.5 99.0Q399 104 393.0 106.0Q387 108 381.5 104.5Q376 101 374 95L366 62L341 86Q336 91 329.5 91.0Q323 91 318.5 86.5Q314 82 314.0 75.5Q314 69 319 65L344 40L310 31Q304 29 301.0 23.5Q298 18 299 12Z" />
      </g>
    </svg>