<svg xmlns="http://www.w3.org/2000/svg" viewBox="128 -21 256 426">
      <g transform="scale(1 -1) translate(0 -384)">
        <path d="M320 303Q350 286 367.0 256.0Q384 226 384 192Q384 132 357 88Q335 50 294 25Q261 4 218 -8Q187 -16 155 -20L128 -21Q168 9 199 49L201 52Q205 60 202.5 68.5Q200 77 192 81Q162 98 145.0 128.0Q128 158 128 192Q128 252 155 296Q177 334 218 359Q251 380 294 392Q325 400 357 404L384 405Q344 375 313 335L311 332Q307 324 309.5 315.5Q312 307 320 303ZM256 149Q274 149 286.5 161.5Q299 174 299.0 192.0Q299 210 286.5 222.5Q274 235 256.0 235.0Q238 235 225.5 222.5Q213 210 213.0 192.0Q213 174 225.5 161.5Q238 149 256 149Z" />
      </g>
    </svg>