<svg xmlns="http://www.w3.org/2000/svg" viewBox="43 -21 447 448">
      <g transform="scale(1 -1) translate(0 -406)">
        <path d="M469 229Q461 228 454 228Q422 228 392.5 240.0Q363 252 339 275Q313 301 301.0 335.5Q289 370 293 405Q293 413 286.0 420.0Q279 427 271 427Q267 427 263 424Q251 415 242 407Q206 370 197.5 320.0Q189 270 210 225Q185 214 167.5 194.0Q150 174 143 148L128 149Q93 149 68.0 124.0Q43 99 43.0 64.0Q43 29 68.0 4.0Q93 -21 128 -21H405Q432 -21 450.5 -2.5Q469 16 469.0 42.5Q469 69 450.5 88.0Q432 107 405 107Q387 107 372 97L373 117Q373 127 372 132Q430 137 471 178Q478 185 488 199Q494 207 487.0 218.0Q480 229 470 229ZM405 64Q414 64 420.5 58.0Q427 52 427.0 43.0Q427 34 420.5 27.5Q414 21 405 21H128Q110 21 97.5 33.5Q85 46 85.0 64.0Q85 82 97.5 94.5Q110 107 128 107H181V117Q181 142 195.5 161.5Q210 181 233 188Q239 190 244 191Q252 192 257.0 192.0Q262 192 270 191Q272 190 275 189Q280 188 283 187L288 184Q292 183 295 180L300 177L310 168L319 157L325 145Q331 132 331 117V64ZM359 174Q344 201 316.5 218.0Q289 235 256 235H253Q238 262 238.0 293.0Q238 324 253 351Q265 289 309.5 245.0Q354 201 415 189Q390 174 359 174Z" />
      </g>
    </svg>