<svg xmlns="http://www.w3.org/2000/svg" viewBox="21 -43 470 384">
      <g transform="scale(1 -1) translate(0 -298)">
        <path d="M320 171H352V111L404 80L388 53L320 92ZM387 249Q372 290 336.5 315.5Q301 341 257.0 341.0Q213 341 178.5 317.5Q144 294 128 256Q99 256 74.5 241.5Q50 227 35.5 202.5Q21 178 21.0 149.0Q21 120 35.5 95.5Q50 71 74.5 57.0Q99 43 128 43H207Q225 4 261.0 -19.5Q297 -43 341 -43Q382 -43 416.5 -23.0Q451 -3 471.0 31.5Q491 66 491 107Q491 156 462.0 195.0Q433 234 387 249ZM128 85Q101 85 82.5 104.0Q64 123 64.0 149.5Q64 176 82.5 194.5Q101 213 128 213Q139 213 151 209Q157 248 186.5 273.5Q216 299 256 299Q282 299 304.0 287.5Q326 276 341 256Q301 256 266.5 236.0Q232 216 212.0 181.5Q192 147 192 107Q192 97 194 85ZM341 0Q312 0 287.5 14.5Q263 29 249.0 53.5Q235 78 235.0 107.0Q235 136 249.0 160.5Q263 185 287.5 199.0Q312 213 341.0 213.0Q370 213 394.5 199.0Q419 185 433.5 160.5Q448 136 448.0 107.0Q448 78 433.5 53.5Q419 29 394.5 14.5Q370 0 341 0Z" />
      </g>
    </svg>