<svg xmlns="http://www.w3.org/2000/svg" viewBox="21 -21 470 426">
      <g transform="scale(1 -1) translate(0 -384)">
        <path d="M128 149Q137 149 143.0 143.0Q149 137 149.0 128.0Q149 119 143.0 113.0Q137 107 128 107Q99 107 74.5 121.0Q50 135 35.5 159.5Q21 184 21.0 213.0Q21 242 35.5 266.5Q50 291 74.5 305.5Q99 320 128 320Q144 358 178.5 381.5Q213 405 256 405Q292 405 323.0 388.0Q354 371 373.0 341.5Q392 312 395 277H405Q441 277 466.0 252.0Q491 227 491.0 192.0Q491 157 466.0 132.0Q441 107 405 107H384Q375 107 369.0 113.0Q363 119 363.0 128.0Q363 137 369.0 143.0Q375 149 384 149H405Q423 149 435.5 161.5Q448 174 448.0 192.0Q448 210 435.5 222.5Q423 235 405 235H363V256Q363 285 348.5 309.5Q334 334 309.5 348.5Q285 363 256 363Q216 363 186.5 337.5Q157 312 151 273Q139 277 128 277Q101 277 82.5 258.5Q64 240 64.0 213.5Q64 187 82.5 168.0Q101 149 128 149ZM213 64Q231 64 243.5 51.5Q256 39 256.0 21.5Q256 4 243.5 -8.5Q231 -21 213.5 -21.0Q196 -21 183.5 -8.5Q171 4 171.0 21.5Q171 39 183.5 51.5Q196 64 213 64ZM309 107Q323 107 332.0 97.5Q341 88 341.0 74.5Q341 61 332.0 52.0Q323 43 309.5 43.0Q296 43 286.5 52.0Q277 61 277.0 74.5Q277 88 286.5 97.5Q296 107 309 107ZM224 192Q237 192 246.5 182.5Q256 173 256.0 160.0Q256 147 246.5 137.5Q237 128 224.0 128.0Q211 128 201.5 137.5Q192 147 192.0 160.0Q192 173 201.5 182.5Q211 192 224 192Z" />
      </g>
    </svg>