<svg xmlns="http://www.w3.org/2000/svg" viewBox="23 -21 446 430">
      <g transform="scale(1 -1) translate(0 -388)">
        <path d="M272 331Q309 315 328.0 279.0Q347 243 340 204Q360 186 372.0 160.5Q384 135 384 107V103Q394 107 405 107Q432 107 450.5 88.0Q469 69 469.0 42.5Q469 16 450.5 -2.5Q432 -21 405 -21H128Q93 -21 68.0 4.0Q43 29 43.0 64.0Q43 99 68.0 124.0Q93 149 128 149H134Q113 175 108.0 208.0Q103 241 117 272Q130 301 155.5 319.0Q181 337 212.0 340.5Q243 344 272 331ZM255 292Q226 305 197.0 294.0Q168 283 156 255Q149 239 149.5 221.5Q150 204 158 189Q176 210 201.5 222.5Q227 235 256 235Q278 235 299 227Q298 248 286.0 265.5Q274 283 255 292ZM289 370Q272 378 253 381L307 409L326 348Q309 361 289 370ZM130 353Q114 342 102 328L105 388L168 373Q148 367 130 353ZM384 241Q381 261 375 277L426 245L382 198Q386 218 384 241ZM65 207Q67 188 73 171L23 203L66 250Q63 228 65 207ZM405 64H341V107Q341 142 316.0 167.0Q291 192 256.0 192.0Q221 192 196.0 167.0Q171 142 171 107H128Q110 107 97.5 94.5Q85 82 85.0 64.0Q85 46 97.5 33.5Q110 21 128 21H405Q414 21 420.5 27.5Q427 34 427.0 43.0Q427 52 420.5 58.0Q414 64 405 64Z" />
      </g>
    </svg>