<svg xmlns="http://www.w3.org/2000/svg" viewBox="43 -21 426 405">
      <g transform="scale(1 -1) translate(0 -363)">
        <path d="M128 299 143 297Q153 335 184.5 359.5Q216 384 256 384Q279 384 300.5 375.0Q322 366 338.5 349.5Q355 333 364.0 311.5Q373 290 373 267L372 246Q387 256 405 256Q432 256 450.5 237.5Q469 219 469.0 192.0Q469 165 450.5 146.5Q432 128 405 128H128Q93 128 68.0 153.0Q43 178 43.0 213.5Q43 249 68.0 274.0Q93 299 128 299ZM128 256Q110 256 97.5 243.5Q85 231 85.0 213.5Q85 196 97.5 183.5Q110 171 128 171H405Q414 171 420.5 177.0Q427 183 427.0 192.0Q427 201 420.5 207.0Q414 213 405 213H331V267Q331 298 309.0 319.5Q287 341 256.0 341.0Q225 341 203.0 319.5Q181 298 181 267V256ZM469 43 405 -21V21H43V64H405V107Z" />
      </g>
    </svg>