<svg xmlns="http://www.w3.org/2000/svg" viewBox="43 0 426 384">
      <g transform="scale(1 -1) translate(0 -384)">
        <path d="M448 341H64Q55 341 49.0 347.5Q43 354 43.0 363.0Q43 372 49.0 378.0Q55 384 64 384H448Q457 384 463.0 378.0Q469 372 469.0 363.0Q469 354 463.0 347.5Q457 341 448 341ZM427 277Q427 286 420.5 292.5Q414 299 405 299H107Q98 299 91.5 292.5Q85 286 85.0 277.0Q85 268 91.5 262.0Q98 256 107 256H405Q414 256 420.5 262.0Q427 268 427 277ZM448 192Q448 201 442.0 207.0Q436 213 427 213H213Q204 213 198.0 207.0Q192 201 192.0 192.0Q192 183 198.0 177.0Q204 171 213 171H427Q436 171 442.0 177.0Q448 183 448 192ZM341 107Q341 116 335.0 122.0Q329 128 320 128H192Q183 128 177.0 122.0Q171 116 171.0 107.0Q171 98 177.0 91.5Q183 85 192 85H320Q329 85 335.0 91.5Q341 98 341 107ZM277 21Q277 30 271.0 36.5Q265 43 256 43H213Q204 43 198.0 36.5Q192 30 192.0 21.0Q192 12 198.0 6.0Q204 0 213 0H256Q265 0 271.0 6.0Q277 12 277 21Z" />
      </g>
    </svg>