<svg xmlns="http://www.w3.org/2000/svg" viewBox="21 -14 470 419">
      <g transform="scale(1 -1) translate(0 -391)">
        <path d="M192 192Q200 190 204.5 182.0Q209 174 207 166L179 63Q177 54 169.5 50.0Q162 46 153.5 48.0Q145 50 140.5 57.5Q136 65 139 74L166 177Q168 185 175.5 189.5Q183 194 192 192ZM277 192Q286 190 290.5 182.0Q295 174 292 166L248 1Q246 -8 238.5 -12.0Q231 -16 222.5 -14.0Q214 -12 209.5 -4.0Q205 4 207 12L251 177Q254 185 261.5 189.5Q269 194 277 192ZM363 192Q371 190 375.5 182.0Q380 174 378 166L350 63Q348 54 340.5 50.0Q333 46 324.0 48.0Q315 50 311.0 57.5Q307 65 309 74L337 177Q339 185 346.5 189.5Q354 194 363 192ZM363 235V256Q363 285 348.5 309.5Q334 334 309.5 348.5Q285 363 256 363Q216 363 186.5 337.5Q157 312 151 273Q139 277 128 277Q101 277 82.5 258.5Q64 240 64 213Q64 196 72.5 181.0Q81 166 96 158Q104 154 106.0 145.0Q108 136 103.5 128.5Q99 121 91.0 119.0Q83 117 75 121Q50 135 35.5 159.5Q21 184 21.0 213.0Q21 242 35.5 266.5Q50 291 74.5 305.5Q99 320 128 320Q144 358 178.5 381.5Q213 405 256 405Q292 405 323.0 388.0Q354 371 373.0 341.5Q392 312 395 277H405Q441 277 466.0 252.0Q491 227 491 192Q491 168 479.5 148.5Q468 129 448 118Q440 114 431.5 116.0Q423 118 418.5 126.0Q414 134 416.5 142.5Q419 151 427 155Q436 161 442.0 170.5Q448 180 448 192Q448 210 435.5 222.5Q423 235 405 235Z" />
      </g>
    </svg>