<svg xmlns="http://www.w3.org/2000/svg" viewBox="21 -21 470 426">
      <g transform="scale(1 -1) translate(0 -384)">
        <path d="M128 149Q137 149 143.0 142.5Q149 136 149.0 127.5Q149 119 143.0 112.5Q137 106 128 106Q99 106 74.5 120.5Q50 135 35.5 159.5Q21 184 21.0 213.0Q21 242 35.5 266.5Q50 291 74.5 305.0Q99 319 128 319Q144 358 178.5 381.5Q213 405 256 405Q292 405 323.0 387.5Q354 370 373.0 341.0Q392 312 395 276L405 277Q441 277 466.0 252.0Q491 227 491.0 191.5Q491 156 466.0 131.0Q441 106 405 106H384Q375 106 369.0 112.5Q363 119 363.0 127.5Q363 136 369.0 142.5Q375 149 384 149H405Q423 149 435.5 161.5Q448 174 448.0 191.5Q448 209 435.5 221.5Q423 234 405 234H363V255Q363 284 348.5 308.5Q334 333 309.5 347.5Q285 362 256 362Q216 362 186.5 336.5Q157 311 151 273Q140 277 128 277Q101 277 82.5 258.0Q64 239 64.0 212.5Q64 186 82.5 167.5Q101 149 128 149ZM256 146Q261 139 268 129Q299 86 299 64Q299 46 286.5 33.5Q274 21 256.0 21.0Q238 21 225.5 33.5Q213 46 213 64Q213 86 244 129ZM256 213 245 201 234 187Q220 170 209 153Q191 128 183 110Q171 85 171 64Q171 29 196.0 4.0Q221 -21 256.0 -21.0Q291 -21 316.0 4.0Q341 29 341 64Q341 85 329 110Q321 128 303.0 154.0Q285 180 267 201Z" />
      </g>
    </svg>