<svg xmlns="http://www.w3.org/2000/svg" viewBox="43 21 426 384">
      <g transform="scale(1 -1) translate(0 -426)">
        <path d="M256 405 307 332Q282 341 256.0 341.0Q230 341 205 332ZM71 299 160 306Q140 289 127.0 267.0Q114 245 109 218ZM441 299 403 218Q398 244 385.0 267.0Q372 290 352 306ZM299 128Q299 137 292.5 143.0Q286 149 277 149H64Q55 149 49.0 143.0Q43 137 43.0 128.0Q43 119 49.0 113.0Q55 107 64 107H277Q286 107 292.5 113.0Q299 119 299 128ZM469 128Q469 137 463.0 143.0Q457 149 448 149H363Q354 149 347.5 143.0Q341 137 341.0 128.0Q341 119 347.5 113.0Q354 107 363 107H448Q457 107 463.0 113.0Q469 119 469 128ZM213 43Q213 34 219.5 27.5Q226 21 235 21H427Q436 21 442.0 27.5Q448 34 448.0 43.0Q448 52 442.0 58.0Q436 64 427 64H235Q226 64 219.5 58.0Q213 52 213 43ZM64 43Q64 34 70.0 27.5Q76 21 85 21H149Q158 21 164.5 27.5Q171 34 171.0 43.0Q171 52 164.5 58.0Q158 64 149 64H85Q76 64 70.0 58.0Q64 52 64 43ZM256 256Q283 256 301.5 237.5Q320 219 320 192H363Q363 221 348.5 245.5Q334 270 309.5 284.5Q285 299 256.0 299.0Q227 299 202.5 284.5Q178 270 163.5 245.5Q149 221 149 192H192Q192 219 210.5 237.5Q229 256 256 256Z" />
      </g>
    </svg>