<svg xmlns="http://www.w3.org/2000/svg" viewBox="21 0 470 384">
      <g transform="scale(1 -1) translate(0 -384)">
        <path d="M64 128H277Q286 128 292.5 122.0Q299 116 299.0 107.0Q299 98 292.5 91.5Q286 85 277 85H64Q55 85 49.0 91.5Q43 98 43.0 107.0Q43 116 49.0 122.0Q55 128 64 128ZM341 128H448Q457 128 463.0 122.0Q469 116 469.0 107.0Q469 98 463.0 91.5Q457 85 448 85H341Q332 85 326.0 91.5Q320 98 320.0 107.0Q320 116 326.0 122.0Q332 128 341 128ZM21 192Q21 221 35.5 245.5Q50 270 74.5 284.5Q99 299 128 299Q144 337 178.5 360.5Q213 384 256 384Q292 384 323.0 367.0Q354 350 373.0 320.5Q392 291 395 255L405 256Q440 256 465.0 231.0Q490 206 491 171H448Q448 188 435.5 200.5Q423 213 405 213H363V235Q363 264 348.5 288.5Q334 313 309.5 327.0Q285 341 256 341Q216 341 186.5 315.5Q157 290 151 252Q139 256 128 256Q101 256 82.5 237.5Q64 219 64 192Q64 181 68 171H23ZM64 43H107Q116 43 122.0 36.5Q128 30 128.0 21.0Q128 12 122.0 6.0Q116 0 107 0H64Q55 0 49.0 6.0Q43 12 43.0 21.0Q43 30 49.0 36.5Q55 43 64 43ZM171 43H448Q457 43 463.0 36.5Q469 30 469.0 21.0Q469 12 463.0 6.0Q457 0 448 0H171Q162 0 155.5 6.0Q149 12 149.0 21.0Q149 30 155.5 36.5Q162 43 171 43Z" />
      </g>
    </svg>