<svg xmlns="http://www.w3.org/2000/svg" viewBox="21 0 470 405">
      <g transform="scale(1 -1) translate(0 -405)">
        <path d="M395 50Q395 29 381.0 14.5Q367 0 347.0 0.0Q327 0 313.0 14.5Q299 29 299.0 49.5Q299 70 323 107Q335 125 347 139L359 123Q373 104 382 87Q395 64 395 50ZM85 78Q83 86 87.5 94.0Q92 102 101 104L149 117L114 152Q107 159 107.0 168.0Q107 177 113.5 183.5Q120 190 129.5 190.0Q139 190 145 183L180 148L193 196Q195 205 203.0 209.5Q211 214 219.5 212.0Q228 210 232.5 202.0Q237 194 235 185L222 137L270 149Q279 152 287.0 147.5Q295 143 297.5 134.0Q300 125 295.5 117.5Q291 110 282 108L234 95L269 60Q275 53 275.0 44.0Q275 35 268.5 28.5Q262 22 253.0 22.0Q244 22 238 28L203 64L190 16Q187 7 179.5 2.5Q172 -2 163.0 0.0Q154 2 149.5 10.0Q145 18 147 27L160 75L112 62Q103 60 95.5 64.5Q88 69 85 78ZM21 213Q21 242 35.5 266.5Q50 291 74.5 305.5Q99 320 128 320Q144 358 178.5 381.5Q213 405 256 405Q292 405 323.0 388.0Q354 371 373.0 341.5Q392 312 395 277H405Q441 277 466.0 252.0Q491 227 491.0 192.0Q491 157 466.0 132.0Q441 107 405 107Q396 107 390.0 113.0Q384 119 384.0 128.0Q384 137 390.0 143.0Q396 149 405 149Q423 149 435.5 161.5Q448 174 448.0 192.0Q448 210 435.5 222.5Q423 235 405 235H363V256Q363 285 348.5 309.5Q334 334 309.5 348.5Q285 363 256 363Q216 363 186.5 337.5Q157 312 151 273Q139 277 128 277Q101 277 82.5 258.5Q64 240 64.0 213.0Q64 186 83 167Q89 161 89.0 152.5Q89 144 83.0 138.0Q77 132 68.0 132.0Q59 132 53 138Q38 153 29.5 172.5Q21 192 21 213Z" />
      </g>
    </svg>