<svg xmlns="http://www.w3.org/2000/svg" viewBox="21 -39 470 444">
      <g transform="scale(1 -1) translate(0 -366)">
        <path d="M128 149Q137 149 143.0 143.0Q149 137 149.0 128.0Q149 119 143.0 113.0Q137 107 128 107Q99 107 74.5 121.0Q50 135 35.5 159.5Q21 184 21.0 213.0Q21 242 35.5 266.5Q50 291 74.5 305.5Q99 320 128 320Q144 358 178.5 381.5Q213 405 256 405Q292 405 323.0 388.0Q354 371 373.0 341.5Q392 312 395 277H405Q441 277 466.0 252.0Q491 227 491.0 192.0Q491 157 466.0 132.0Q441 107 405 107H384Q375 107 369.0 113.0Q363 119 363.0 128.0Q363 137 369.0 143.0Q375 149 384 149H405Q423 149 435.5 161.5Q448 174 448.0 192.0Q448 210 435.5 222.5Q423 235 405 235H363V256Q363 285 348.5 309.5Q334 334 309.5 348.5Q285 363 256 363Q216 363 186.5 337.5Q157 312 151 273Q139 277 128 277Q101 277 82.5 258.5Q64 240 64.0 213.5Q64 187 82.5 168.0Q101 149 128 149ZM168 63 215 75 180 109Q174 115 174.0 124.0Q174 133 180.5 139.5Q187 146 196.0 146.0Q205 146 211 140L245 105L257 152Q260 160 267.5 164.5Q275 169 283.5 167.0Q292 165 296.5 157.0Q301 149 299 141L286 94L333 107Q341 109 349.0 104.5Q357 100 359.0 91.5Q361 83 356.5 75.5Q352 68 344 65L297 53L332 19Q338 13 338.0 4.0Q338 -5 331.5 -11.5Q325 -18 316.0 -18.0Q307 -18 301 -12L267 23L255 -24Q252 -32 244.5 -36.5Q237 -41 228.5 -39.0Q220 -37 215.5 -29.0Q211 -21 213 -13L226 34L179 21Q171 19 163.0 23.5Q155 28 153.0 36.5Q151 45 155.5 52.5Q160 60 168 63Z" />
      </g>
    </svg>