<svg xmlns="http://www.w3.org/2000/svg" viewBox="64 0 384 384">
      <g transform="scale(1 -1) translate(0 -384)">
        <path d="M191 162H140Q133 192 140 222H191Q189 207 189.0 192.0Q189 177 191 162ZM153 252H196Q204 279 217 305Q175 290 153 252ZM359 252Q337 290 295 305Q308 280 315 252ZM256 73Q275 100 285 132H227Q237 100 256 73ZM256 311Q237 284 227 252H285Q275 284 256 311ZM153 132Q175 94 217 79Q204 105 196 132ZM448 341V43Q448 25 435.5 12.5Q423 0 405 0H107Q89 0 76.5 12.5Q64 25 64 43V341Q64 359 76.5 371.5Q89 384 107 384H405Q423 384 435.5 371.5Q448 359 448 341ZM405 192Q405 237 380.0 275.0Q355 313 313.0 330.0Q271 347 226.5 338.5Q182 330 150.0 298.0Q118 266 109.5 221.5Q101 177 118.0 135.0Q135 93 173.0 68.0Q211 43 256 43Q297 43 331.0 63.0Q365 83 385.0 117.0Q405 151 405 192ZM323 192Q323 177 321 162H372Q379 192 372 222H321Q323 207 323 192ZM295 79Q337 94 359 132H315Q308 104 295 79ZM221 222Q216 192 221 162H291Q293 177 293.0 192.0Q293 207 291 222Z" />
      </g>
    </svg>