<svg xmlns="http://www.w3.org/2000/svg" viewBox="43 -32 426 437">
      <g transform="scale(1 -1) translate(0 -373)">
        <path d="M295 149H206Q203 172 203.0 192.0Q203 212 206 235H306Q309 210 309 192Q309 177 307 161Q327 177 352 185V192Q352 210 349 235H421Q427 212 427 192V188Q448 183 468 171Q469 177 469 192Q469 250 440.5 299.0Q412 348 363.0 376.5Q314 405 256.0 405.0Q198 405 149.0 376.5Q100 348 71.5 299.0Q43 250 43.0 192.0Q43 134 71.5 85.0Q100 36 149.0 7.5Q198 -21 256 -21Q271 -21 277 -20Q264 2 259 27L256 22Q228 63 215 107H267Q276 130 295 149ZM404 277H341Q330 318 311 353Q341 343 364.5 323.5Q388 304 404 277ZM256 362Q284 321 297 277H215Q228 321 256 362ZM91 149Q85 172 85.0 192.0Q85 212 91 235H163Q160 210 160.0 192.0Q160 174 163 149ZM108 107H171Q183 64 201 31Q171 41 147.5 60.5Q124 80 108 107ZM171 277H108Q124 304 147.5 323.5Q171 343 201 353Q183 320 171 277ZM444 114 469 139V53H384L422 91Q406 107 384.0 107.0Q362 107 346.5 91.0Q331 75 331.0 53.0Q331 31 346.5 15.5Q362 0 384 0Q397 0 408.0 5.5Q419 11 427 21H463Q454 -3 432.5 -17.5Q411 -32 384 -32Q349 -32 324.0 -7.0Q299 18 299.0 53.5Q299 89 324.0 114.0Q349 139 384.0 139.0Q419 139 444 114Z" />
      </g>
    </svg>