<svg xmlns="http://www.w3.org/2000/svg" viewBox="43 -33 438 438">
      <g transform="scale(1 -1) translate(0 -372)">
        <path d="M352 192Q352 210 349 235H421Q427 212 427 192Q427 181 425 169Q447 166 466 155Q469 174 469 192Q469 250 440.5 299.0Q412 348 363.0 376.5Q314 405 256.0 405.0Q198 405 149.0 376.5Q100 348 71.5 299.0Q43 250 43.0 192.0Q43 134 71.5 85.0Q100 36 149.0 7.5Q198 -21 256 -21Q274 -21 293 -18Q277 10 277 43Q277 50 279 61Q268 39 256 22Q228 63 215 107H295Q314 141 350 158Q352 177 352 192ZM256 362Q284 321 297 277H215Q228 321 256 362ZM91 149Q85 172 85.0 192.0Q85 212 91 235H163Q160 210 160.0 192.0Q160 174 163 149ZM108 107H171Q183 64 201 31Q171 41 147.5 60.5Q124 80 108 107ZM171 277H108Q124 304 147.5 323.5Q171 343 201 353Q183 320 171 277ZM306 149H206Q203 172 203.0 192.0Q203 212 206 235H306Q309 210 309.0 192.0Q309 174 306 149ZM311 353Q341 343 364.5 323.5Q388 304 404 277H341Q330 318 311 353ZM435 43 481 -3 451 -33 405 13 360 -33 330 -3 375 43 330 88 360 118 405 73 451 118 481 88Z" />
      </g>
    </svg>