<svg xmlns="http://www.w3.org/2000/svg" viewBox="43 -43 448 448">
      <g transform="scale(1 -1) translate(0 -362)">
        <path d="M352 198Q352 210 349 234V235H421Q424 223 425 213Q449 211 469 203Q466 258 437.0 304.5Q408 351 360.0 378.0Q312 405 255.0 405.0Q198 405 149.0 376.5Q100 348 71.5 299.0Q43 250 43.0 192.0Q43 134 71.5 85.0Q100 36 149.0 7.5Q198 -21 256 -21Q283 -21 309 -14Q283 18 278 60Q267 39 256 22Q228 63 215 107H281Q287 129 299 149H206Q203 172 203.0 192.0Q203 212 206 235H306Q309 210 309 192Q309 178 307 160Q325 184 352 198ZM91 149Q85 172 85.0 192.0Q85 212 91 235H163Q160 210 160.0 192.0Q160 174 163 149ZM108 107H171Q183 64 201 31Q171 41 147.5 60.5Q124 80 108 107ZM171 277H108Q124 304 147.5 323.5Q171 343 201 353Q183 320 171 277ZM215 277Q228 321 256 362Q284 321 297 277ZM404 277H341Q330 318 311 353Q341 343 364.5 323.5Q388 304 404 277ZM491 75Q491 49 476 28L453 51Q459 62 459 75Q459 97 443.0 112.5Q427 128 405 128V96L357 144L405 192V160Q441 160 466.0 135.0Q491 110 491 75ZM405 53 453 5 405 -43V-11Q370 -11 345.0 14.0Q320 39 320 75Q320 100 334 122L358 99Q352 87 352 75Q352 53 367.5 37.0Q383 21 405 21Z" />
      </g>
    </svg>