<svg xmlns="http://www.w3.org/2000/svg" viewBox="43 -21 426 426">
      <g transform="scale(1 -1) translate(0 -384)">
        <path d="M349 149Q352 174 352.0 192.0Q352 210 349 235H421Q427 212 427.0 192.0Q427 172 421 149ZM311 31Q330 66 341 107H404Q388 80 364.5 60.5Q341 41 311 31ZM306 149H206Q203 172 203.0 192.0Q203 212 206 235H306Q309 210 309.0 192.0Q309 174 306 149ZM256 22Q228 63 215 107H297Q284 63 256 22ZM171 277H108Q124 304 147.5 323.5Q171 343 201 353Q183 320 171 277ZM108 107H171Q183 64 201 31Q171 41 147.5 60.5Q124 80 108 107ZM91 149Q85 172 85.0 192.0Q85 212 91 235H163Q160 210 160.0 192.0Q160 174 163 149ZM256 362Q284 321 297 277H215Q228 321 256 362ZM404 277H341Q330 318 311 353Q341 343 364.5 323.5Q388 304 404 277ZM256 405Q198 405 149.0 376.5Q100 348 71.5 299.0Q43 250 43 192Q43 150 59.0 110.5Q75 71 105.0 41.0Q135 11 174.5 -5.0Q214 -21 256.0 -21.0Q298 -21 337.5 -5.0Q377 11 407.0 41.0Q437 71 453.0 110.5Q469 150 469.0 192.0Q469 234 453.0 273.5Q437 313 407.0 343.0Q377 373 337.5 389.0Q298 405 256 405Z" />
      </g>
    </svg>