<svg xmlns="http://www.w3.org/2000/svg" viewBox="24 -37 448 448">
      <g transform="scale(1 -1) translate(0 -374)">
        <path d="M256 320Q283 320 301.5 301.5Q320 283 320.0 257.0Q320 231 303 213L213 303Q231 320 256 320ZM256 363Q285 363 309.5 348.5Q334 334 348.5 309.5Q363 285 363 256Q363 214 333 183L364 153Q383 173 394.0 199.5Q405 226 405 256Q405 297 385.0 331.0Q365 365 331.0 385.0Q297 405 256 405Q226 405 199.5 394.0Q173 383 153 364L183 333Q214 363 256 363ZM472 -10 445 -37 415 -7Q403 -21 384 -21H128Q110 -21 97.5 -8.5Q85 4 85 21Q85 34 92 43L130 111Q156 89 188.5 76.5Q221 64 257.0 64.0Q293 64 329 79L295 112Q276 107 256 107Q215 107 181.0 127.0Q147 147 127.0 181.0Q107 215 107 256Q107 276 112 295L24 384L51 411ZM258 149 149 258V256Q149 227 163.5 202.5Q178 178 202.5 163.5Q227 149 256 149Z" />
      </g>
    </svg>