<svg xmlns="http://www.w3.org/2000/svg" viewBox="46 0 418 388">
      <g transform="scale(1 -1) translate(0 -388)">
        <path d="M223 43Q208 21 184.5 10.0Q161 -1 135.0 1.0Q109 3 87.5 18.0Q66 33 55.0 57.0Q44 81 46.5 107.0Q49 133 64 155Q78 174 98.0 185.0Q118 196 140 197L141 166Q127 165 113.5 157.5Q100 150 91 137Q75 114 79.5 87.0Q84 60 106.0 44.5Q128 29 155.0 34.5Q182 40 198 63Q207 76 209 93V115L329 116L330 118Q339 133 355.0 137.5Q371 142 385.0 133.5Q399 125 403.5 109.0Q408 93 399.5 78.0Q391 63 375.0 58.5Q359 54 345.0 62.0Q331 70 327 84H240Q236 62 223 43ZM378 195Q405 192 426.0 176.0Q447 160 457.0 136.5Q467 113 464.0 87.0Q461 61 445.0 40.5Q429 20 405.0 9.5Q381 -1 355 2Q331 5 312.0 17.5Q293 30 281 49L308 65Q316 52 329.0 44.0Q342 36 357 34Q385 31 407.0 47.5Q429 64 432.5 90.5Q436 117 418.5 138.5Q401 160 373 163Q356 165 341 159L323 150L268 252H263Q246 252 234.5 264.5Q223 277 223.5 293.5Q224 310 236.5 321.5Q249 333 265.5 332.0Q282 331 294.0 319.0Q306 307 305 290Q304 276 295 266L336 191Q356 198 378 195ZM176 253Q166 278 169.0 303.5Q172 329 187.0 350.0Q202 371 226.5 381.5Q251 392 276.5 388.5Q302 385 323.0 369.0Q344 353 355 329Q364 307 362.5 284.0Q361 261 350 242L324 257Q331 270 331.5 285.5Q332 301 326 315Q315 341 289.5 351.5Q264 362 239.5 351.5Q215 341 205.0 315.5Q195 290 206 265Q215 244 234 232L242 228L177 121L179 117Q187 103 182.0 87.0Q177 71 162.5 63.0Q148 55 132.0 60.0Q116 65 108.0 80.0Q100 95 105.0 111.0Q110 127 124 135Q137 142 151 139L200 219Q184 234 176 253Z" />
      </g>
    </svg>