<svg xmlns="http://www.w3.org/2000/svg" viewBox="27 -37 458 442">
      <g transform="scale(1 -1) translate(0 -368)">
        <path d="M256 405Q295 405 324.5 380.5Q354 356 361 319L379 320Q408 320 432.5 305.5Q457 291 471.0 266.5Q485 242 485.0 213.0Q485 184 470.0 159.0Q455 134 430 120Q443 96 443.0 68.0Q443 40 428.5 15.5Q414 -9 389.5 -23.0Q365 -37 336 -37Q313 -37 292.0 -27.5Q271 -18 256 -1Q241 -18 220.0 -27.5Q199 -37 176 -37Q147 -37 122.5 -23.0Q98 -9 83.5 15.5Q69 40 69 69Q69 96 82 120Q57 134 42.0 159.0Q27 184 27.0 213.0Q27 242 41.0 266.5Q55 291 79.5 305.5Q104 320 133 320L151 319Q158 356 187.5 380.5Q217 405 256 405ZM144 16 291 85H363Q371 85 377.5 91.5Q384 98 384 107V256Q384 265 377.5 271.0Q371 277 363 277H149Q141 277 134.5 271.0Q128 265 128 256V107Q128 98 134.5 91.5Q141 85 149 85H166Z" />
      </g>
    </svg>