<svg xmlns="http://www.w3.org/2000/svg" viewBox="43 21 426 342">
      <g transform="scale(1 -1) translate(0 -384)">
        <path d="M203 363Q159 363 122.5 345.5Q86 328 64.5 298.5Q43 269 43 235Q43 205 58.5 179.0Q74 153 102 135L85 85L139 117Q169 107 201 107Q192 128 192 149Q192 184 212.0 213.5Q232 243 266.5 260.0Q301 277 341 277Q349 277 353 277Q337 315 295.5 339.0Q254 363 203 363ZM139 309Q148 309 154.0 303.0Q160 297 160.0 288.0Q160 279 154.0 273.0Q148 267 139.0 267.0Q130 267 123.5 273.0Q117 279 117.0 288.0Q117 297 123.5 303.0Q130 309 139 309ZM245 309Q254 309 260.5 303.0Q267 297 267.0 288.0Q267 279 260.5 273.0Q254 267 245.0 267.0Q236 267 230.0 273.0Q224 279 224.0 288.0Q224 297 230.0 303.0Q236 309 245 309ZM341 256Q307 256 277.5 241.5Q248 227 230.5 202.5Q213 178 213.0 149.0Q213 120 230.5 95.5Q248 71 277.5 57.0Q307 43 341 43Q363 43 382 48L427 21L413 61Q439 76 454.0 99.5Q469 123 469.0 150.5Q469 178 452.0 202.5Q435 227 405.5 241.5Q376 256 341 256ZM299 203Q308 203 314.0 196.5Q320 190 320.0 181.0Q320 172 314.0 166.0Q308 160 299.0 160.0Q290 160 283.5 166.0Q277 172 277.0 181.0Q277 190 283.5 196.5Q290 203 299 203ZM384 203Q393 203 399.0 196.5Q405 190 405.0 181.0Q405 172 399.0 166.0Q393 160 384.0 160.0Q375 160 369.0 166.0Q363 172 363.0 181.0Q363 190 369.0 196.5Q375 203 384 203Z" />
      </g>
    </svg>