<svg xmlns="http://www.w3.org/2000/svg" viewBox="43 -43 426 470">
      <g transform="scale(1 -1) translate(0 -384)">
        <path d="M256 341Q238 341 225.5 328.5Q213 316 213.0 298.5Q213 281 225.5 268.5Q238 256 256.0 256.0Q274 256 286.5 268.5Q299 281 299.0 298.5Q299 316 286.5 328.5Q274 341 256 341ZM469 427V320H427V363H85V320H43V427H85V384H427V427ZM320 208V-43H277V64H235V-43H192V208Q158 226 137.5 258.5Q117 291 117 331V341H160V331Q160 291 188.0 263.0Q216 235 256.0 235.0Q296 235 324.0 263.0Q352 291 352 331V341H395V331Q395 291 374.5 258.5Q354 226 320 208Z" />
      </g>
    </svg>