<svg xmlns="http://www.w3.org/2000/svg" viewBox="43 0 426 384">
      <g transform="scale(1 -1) translate(0 -384)">
        <path d="M256 384Q291 384 316.0 359.0Q341 334 341 299Q341 275 330 256H384Q399 256 410.5 246.5Q422 237 426 223L464 70Q469 46 469 43Q469 25 456.5 12.5Q444 0 427 0H85Q68 0 55.5 12.5Q43 25 43 43Q43 46 48 70L86 223Q90 237 101.5 246.5Q113 256 128 256H182Q171 275 171 299Q171 334 196.0 359.0Q221 384 256 384ZM256 341Q238 341 225.5 328.5Q213 316 213.0 298.5Q213 281 225.5 268.5Q238 256 256.0 256.0Q274 256 286.5 268.5Q299 281 299.0 298.5Q299 316 286.5 328.5Q274 341 256 341ZM128 213V43H171V96L192 75V43H235V85L192 128L235 171V213H192V181L171 160V213ZM320 213Q302 213 289.5 200.5Q277 188 277 171V85Q277 68 289.5 55.5Q302 43 320 43H384V149H341V85H320V171H384V213Z" />
      </g>
    </svg>