<svg xmlns="http://www.w3.org/2000/svg" viewBox="43 0 426 384">
      <g transform="scale(1 -1) translate(0 -384)">
        <path d="M256 384Q291 384 316.0 359.0Q341 334 341 299Q341 275 330 256H384Q399 256 410.5 246.5Q422 237 426 223L464 70Q469 46 469 43Q469 25 456.5 12.5Q444 0 427 0H85Q68 0 55.5 12.5Q43 25 43 43Q43 46 48 70L86 223Q90 237 101.5 246.5Q113 256 128 256H182Q171 275 171 299Q171 334 196.0 359.0Q221 384 256 384ZM256 341Q238 341 225.5 328.5Q213 316 213.0 298.5Q213 281 225.5 268.5Q238 256 256.0 256.0Q274 256 286.5 268.5Q299 281 299.0 298.5Q299 316 286.5 328.5Q274 341 256 341ZM128 213V43H235V85H171V213ZM277 213V43H341Q359 43 371.5 55.5Q384 68 384 85V96Q384 115 369 128Q384 141 384 160V171Q384 188 371.5 200.5Q359 213 341 213ZM320 171H341V149H320ZM320 107H341V85H320Z" />
      </g>
    </svg>