<svg xmlns="http://www.w3.org/2000/svg" viewBox="44 -21 424 426">
      <g transform="scale(1 -1) translate(0 -384)">
        <path d="M257 405Q200 405 151.0 376.5Q102 348 73.5 299.5Q45 251 45.0 194.0Q45 137 74 88L44 -21L156 8Q203 -18 257 -18Q314 -18 362.5 10.5Q411 39 439.5 87.5Q468 136 468 194Q468 236 452.0 274.5Q436 313 406.5 343.0Q377 373 338.0 389.0Q299 405 257 405ZM257 370Q292 370 324.0 356.5Q356 343 381.0 318.0Q406 293 419.5 261.0Q433 229 433 194Q433 146 409.0 105.5Q385 65 344.5 41.5Q304 18 256.0 18.0Q208 18 167 43L161 46L95 29L112 94L108 100Q81 143 81 194Q81 242 105.0 282.0Q129 322 169.0 346.0Q209 370 257 370ZM182 292Q174 292 168 285L167 284Q149 265 149.0 241.0Q149 217 170 188L172 184Q213 127 261 107Q275 100 290.5 95.5Q306 91 325 93Q333 95 345.0 102.5Q357 110 360.0 118.5Q363 127 364.0 134.0Q365 141 363.5 143.0Q362 145 355 149L335 159Q321 166 317.0 167.0Q313 168 310.5 168.0Q308 168 305 164Q301 158 289 144Q284 139 277 142L274 144Q251 153 235.0 168.0Q219 183 205 205Q202 211 207.0 216.0Q212 221 215.0 224.5Q218 228 220 232L221 234Q223 238 220 243L204 282Q201 288 199.0 289.5Q197 291 193 291Z" />
      </g>
    </svg>