<svg xmlns="http://www.w3.org/2000/svg" viewBox="85 0 351 405">
      <g transform="scale(1 -1) translate(0 -405)">
        <path d="M299 107 327 69Q311 38 280.5 19.0Q250 0 214.5 0.0Q179 0 149.5 17.0Q120 34 102.5 63.5Q85 93 85 128Q85 166 106.0 197.5Q127 229 161 244L166 198Q148 186 138.0 167.5Q128 149 128 128Q128 93 153.0 68.0Q178 43 213 43Q243 43 265.5 61.0Q288 79 296 107ZM417 104 390 91 331 171H233L228 213H299V256H224L218 320Q234 322 245.0 334.0Q256 346 256.0 363.0Q256 380 243.5 392.5Q231 405 213.5 405.0Q196 405 183.5 392.5Q171 380 171 363L194 128H309L378 37L436 66Z" />
      </g>
    </svg>