<svg xmlns="http://www.w3.org/2000/svg" viewBox="21 -43 470 470">
      <g transform="scale(1 -1) translate(0 -384)">
        <path d="M76 41 106 11 144 49 114 79ZM256 320Q221 320 191.5 303.0Q162 286 145.0 256.5Q128 227 128.0 192.0Q128 157 145.0 127.5Q162 98 191.5 81.0Q221 64 256.0 64.0Q291 64 320.5 81.0Q350 98 367.0 127.5Q384 157 384.0 192.0Q384 227 367.0 256.5Q350 286 320.5 303.0Q291 320 256 320ZM427 171H491V213H427ZM368 49 406 11 436 41 398 79ZM436 341 406 371 368 333 398 303ZM277 427H235V363H277ZM144 333 106 371 76 341 114 303ZM21 171H85V213H21ZM277 21H235V-43H277Z" />
      </g>
    </svg>