<svg xmlns="http://www.w3.org/2000/svg" viewBox="21 -31 470 447">
      <g transform="scale(1 -1) translate(0 -385)">
        <path d="M368 61 406 22 436 53 398 91ZM427 181H491V224H427ZM320 313V416H192V313Q163 296 145.5 267.0Q128 238 128.0 203.0Q128 168 145.0 138.5Q162 109 191.5 92.0Q221 75 256.0 75.0Q291 75 320.5 92.0Q350 109 367.0 138.5Q384 168 384.0 203.0Q384 238 366.5 267.0Q349 296 320 313ZM85 224H21V181H85ZM235 -31Q256 -31 277 -31V32H235ZM76 53 106 22 144 61 114 91Z" />
      </g>
    </svg>