<svg xmlns="http://www.w3.org/2000/svg" viewBox="8 -21 496 405">
      <g transform="scale(1 -1) translate(0 -363)">
        <path d="M405 235Q426 235 446 226L504 299Q451 340 387.0 362.0Q323 384 256.0 384.0Q189 384 125.0 362.0Q61 340 8 299Q68 224 179 85L256 -11L277 16V81Q277 96 284.0 110.0Q291 124 303 134V139Q303 164 317.0 186.0Q331 208 354.5 221.5Q378 235 405 235ZM256 277Q180 277 111 238L70 289Q156 341 255.5 341.0Q355 341 442 289L400 237Q371 254 339 264Q298 277 256 277ZM465 107V139Q465 161 446.5 176.5Q428 192 405.0 192.0Q382 192 364.0 176.5Q346 161 346 139V107Q336 107 328.0 99.0Q320 91 320 81V6Q320 -5 328.0 -13.0Q336 -21 346 -21H463Q474 -21 482.5 -13.5Q491 -6 491 4V79Q491 90 483.0 98.5Q475 107 465 107ZM437 107H373V139Q373 151 382.5 158.5Q392 166 405.5 166.0Q419 166 428.0 158.5Q437 151 437 139Z" />
      </g>
    </svg>