<svg xmlns="http://www.w3.org/2000/svg" viewBox="26 -21 465 405">
      <g transform="scale(1 -1) translate(0 -363)">
        <path d="M256 320Q203 320 154.0 303.5Q105 287 64 256L26 307Q75 344 133.5 364.0Q192 384 256.0 384.0Q320 384 378.5 364.0Q437 344 486 307L448 256Q407 287 358.0 303.5Q309 320 256 320ZM348 239Q303 256 256 256Q214 256 174.5 242.5Q135 229 102 205L141 154Q192 192 256 192Q282 192 307 185Q317 219 348 239ZM179 102 256 0 277 28V81Q277 103 292 122Q274 128 256 128Q213 128 179 102ZM465 107H373V160Q373 172 382.5 180.0Q392 188 405.5 188.0Q419 188 428.0 180.0Q437 172 437 160V149H465V160Q465 182 446.5 197.5Q428 213 405.0 213.0Q382 213 364.0 197.5Q346 182 346 160V107Q336 107 328.0 99.0Q320 91 320 81V6Q320 -5 328.0 -13.0Q336 -21 346 -21H463Q474 -21 482.5 -13.5Q491 -6 491 4V79Q491 90 483.0 98.5Q475 107 465 107Z" />
      </g>
    </svg>