<svg xmlns="http://www.w3.org/2000/svg" viewBox="26 -21 460 405">
      <g transform="scale(1 -1) translate(0 -363)">
        <path d="M256 320Q203 320 154.0 303.5Q105 287 64 256L26 307Q75 344 133.5 364.0Q192 384 256.0 384.0Q320 384 378.5 364.0Q437 344 486 307L448 256Q407 287 358.0 303.5Q309 320 256 320ZM277 126Q267 128 256 128Q213 128 179 102L256 0L294 51Q277 88 277 117ZM256 256Q214 256 174.5 242.5Q135 229 102 205L141 154Q192 192 256 192Q278 192 301 187Q327 221 366 231Q314 256 256 256ZM469 117Q469 83 432 27Q413 -1 395 -21L375 2Q353 31 339 57Q320 93 320 117Q320 148 342.0 170.0Q364 192 394.5 192.0Q425 192 447.0 170.0Q469 148 469 117ZM420 115Q420 125 412.0 133.0Q404 141 394.5 141.0Q385 141 377.0 133.5Q369 126 369.0 115.5Q369 105 376.5 97.5Q384 90 395.0 90.0Q406 90 414.0 98.0Q422 106 420 115Z" />
      </g>
    </svg>