<svg xmlns="http://www.w3.org/2000/svg" viewBox="26 -21 460 405">
      <g transform="scale(1 -1) translate(0 -363)">
        <path d="M256 192Q192 192 141 154L102 205Q135 229 174.5 242.5Q214 256 256.0 256.0Q298 256 337.5 242.5Q377 229 410 205L382 169Q369 166 359 162Q313 192 256 192ZM448 256 486 307Q437 344 378.5 364.0Q320 384 256.0 384.0Q192 384 133.5 364.0Q75 344 26 307L64 256Q105 287 154.0 303.5Q203 320 256.0 320.0Q309 320 358.0 303.5Q407 287 448 256ZM256 128Q213 128 179 102L256 0L278 30Q277 34 277 43Q277 85 303 119Q279 128 256 128ZM341 64H384V-21H427V64H469L405 128Z" />
      </g>
    </svg>