<svg xmlns="http://www.w3.org/2000/svg" viewBox="26 -32 460 416">
      <g transform="scale(1 -1) translate(0 -352)">
        <path d="M256 192Q192 192 141 154L102 205Q135 229 174.5 242.5Q214 256 256.0 256.0Q298 256 337.5 242.5Q377 229 410 205L400 192H395Q361 192 331 177Q295 192 256 192ZM448 256 486 307Q437 344 378.5 364.0Q320 384 256.0 384.0Q192 384 133.5 364.0Q75 344 26 307L64 256Q105 287 154.0 303.5Q203 320 256.0 320.0Q309 320 358.0 303.5Q407 287 448 256ZM256 128Q213 128 179 102L256 0L263 10Q256 32 256 53Q256 93 277 126Q266 128 256 128ZM384 139Q349 139 324.0 114.0Q299 89 299.0 53.5Q299 18 324.0 -7.0Q349 -32 384 -32Q411 -32 432.5 -17.5Q454 -3 463 21H427Q419 11 408.0 5.5Q397 0 384 0Q362 0 346.5 15.5Q331 31 331.0 53.0Q331 75 346.5 91.0Q362 107 384.0 107.0Q406 107 422 91L384 53H469V139L444 114Q419 139 384 139Z" />
      </g>
    </svg>