<svg xmlns="http://www.w3.org/2000/svg" viewBox="21 0 465 384">
      <g transform="scale(1 -1) translate(0 -384)">
        <path d="M49 384 21 357 53 326Q39 317 26 307L64 256Q80 268 99 279L147 231Q122 220 102 205L141 154Q166 172 196 182L251 128Q211 126 179 102L256 0L308 70L378 0L405 27ZM256 384Q189 384 126 361L177 310Q216 320 256 320Q309 320 358.0 303.5Q407 287 448 256L486 307Q437 344 378.5 364.0Q320 384 256 384ZM256 256Q240 256 232 255L300 187Q339 178 371 154L410 205Q377 229 338.0 242.5Q299 256 256 256Z" />
      </g>
    </svg>