<svg xmlns="http://www.w3.org/2000/svg" viewBox="26 -43 465 427">
      <g transform="scale(1 -1) translate(0 -341)">
        <path d="M256 320Q203 320 154.0 303.5Q105 287 64 256L26 307Q75 344 133.5 364.0Q192 384 256.0 384.0Q320 384 378.5 364.0Q437 344 486 307L448 256Q407 287 358.0 303.5Q309 320 256 320ZM331 177Q361 192 395 192H400L410 205Q377 229 337.5 242.5Q298 256 256.0 256.0Q214 256 174.5 242.5Q135 229 102 205L141 154Q192 192 256 192Q295 192 331 177ZM256 128Q213 128 179 102L256 0L263 10Q256 32 256 53Q256 93 277 126Q266 128 256 128ZM491 53Q491 13 463.0 -15.0Q435 -43 395.0 -43.0Q355 -43 327.0 -15.0Q299 13 299.0 53.0Q299 93 327.0 121.0Q355 149 395.0 149.0Q435 149 463.0 121.0Q491 93 491 53ZM427 -2 340 85Q331 71 331 53Q331 27 349.5 8.0Q368 -11 395 -11Q413 -11 427 -2ZM459 53Q459 80 440.0 98.5Q421 117 395 117Q377 117 363 108L450 21Q459 35 459 53Z" />
      </g>
    </svg>