<svg xmlns="http://www.w3.org/2000/svg" viewBox="26 -64 484 448">
      <g transform="scale(1 -1) translate(0 -320)">
        <path d="M256 192Q192 192 141 154L102 205Q135 229 174.5 242.5Q214 256 256.0 256.0Q298 256 337.5 242.5Q377 229 410 205L400 192Q365 190 336 175Q298 192 256 192ZM448 256 486 307Q437 344 378.5 364.0Q320 384 256.0 384.0Q192 384 133.5 364.0Q75 344 26 307L64 256Q105 287 154.0 303.5Q203 320 256.0 320.0Q309 320 358.0 303.5Q407 287 448 256ZM256 128Q213 128 179 102L256 0L261 6Q256 25 256 43Q256 88 281 125Q268 128 256 128ZM508 13Q509 13 509.0 11.5Q509 10 508 9L486 -28Q484 -30 480 -30L454 -21L437 -32L433 -60Q433 -61 431.5 -62.5Q430 -64 429 -64H386Q384 -64 380 -60L375 -32Q366 -29 358 -21L333 -32Q329 -32 326 -30L305 6Q303 9 307 13L331 30V51L307 68Q305 70 305 75L326 111Q329 113 333 113L358 102L375 113L380 141Q380 145 386 145H429Q430 145 431.5 143.5Q433 142 433 141L437 113Q444 111 457 102L482 113Q489 113 489 111L510 75Q512 73 508 68L484 51V30ZM437 43Q437 55 427.5 65.0Q418 75 405.5 75.0Q393 75 383.0 65.0Q373 55 373.0 42.5Q373 30 383.0 20.5Q393 11 405.5 11.0Q418 11 427.5 20.5Q437 30 437 43Z" />
      </g>
    </svg>