<svg xmlns="http://www.w3.org/2000/svg" viewBox="8 -21 497 405">
      <g transform="scale(1 -1) translate(0 -363)">
        <path d="M505 299H504L446 226Q426 235 405 235L397 234L442 289Q356 341 256.0 341.0Q156 341 70 289L256 58L277 85V16L256 -11L8 299Q61 340 125.0 362.0Q189 384 256.0 384.0Q323 384 387.0 362.0Q451 340 505 299ZM491 79V4Q491 -6 482.5 -13.5Q474 -21 463 -21H346Q336 -21 328.0 -13.0Q320 -5 320 6V81Q320 91 328.0 99.0Q336 107 346 107V139Q346 161 364.0 176.5Q382 192 405.0 192.0Q428 192 446.5 176.5Q465 161 465 139V107Q475 107 483.0 98.5Q491 90 491 79ZM437 139Q437 151 428.0 158.5Q419 166 405.5 166.0Q392 166 382.5 158.5Q373 151 373 139V107H437Z" />
      </g>
    </svg>