<svg xmlns="http://www.w3.org/2000/svg" viewBox="26 0 460 384">
      <g transform="scale(1 -1) translate(0 -384)">
        <path d="M256 0 333 102Q299 128 256.0 128.0Q213 128 179 102ZM256 384Q192 384 133.5 364.0Q75 344 26 307L64 256Q105 287 154.0 303.5Q203 320 256.0 320.0Q309 320 358.0 303.5Q407 287 448 256L486 307Q437 344 378.5 364.0Q320 384 256 384ZM256 256Q214 256 174.5 242.5Q135 229 102 205L141 154Q192 192 256.0 192.0Q320 192 371 154L410 205Q377 229 337.5 242.5Q298 256 256 256Z" />
      </g>
    </svg>