<svg xmlns="http://www.w3.org/2000/svg" viewBox="26 -34 465 418">
      <g transform="scale(1 -1) translate(0 -350)">
        <path d="M256 320Q202 320 153.5 303.5Q105 287 64 256L26 307Q74 344 133.0 364.0Q192 384 256.0 384.0Q320 384 379.0 364.0Q438 344 486 307L448 256Q407 287 358.5 303.5Q310 320 256 320ZM277 43Q277 87 303 119Q273 128 256 128Q236 128 216.0 121.0Q196 114 179 102L256 0L277 30ZM358 162Q365 164 382 169L410 205Q377 229 337.5 242.5Q298 256 256.0 256.0Q214 256 174.5 242.5Q135 229 102 205L141 154Q165 172 195.0 182.0Q225 192 256 192Q312 192 358 162ZM352 -34 367 26 320 66 382 70 405 128 429 73 491 68 444 28 459 -32 405 -2Z" />
      </g>
    </svg>