<svg xmlns="http://www.w3.org/2000/svg" viewBox="26 -43 460 427">
      <g transform="scale(1 -1) translate(0 -341)">
        <path d="M256 320Q203 320 154.0 303.5Q105 287 64 256L26 307Q75 344 133.5 364.0Q192 384 256.0 384.0Q320 384 378.5 364.0Q437 344 486 307L448 256Q407 287 358.0 303.5Q309 320 256 320ZM256 128Q213 128 179 102L256 0L278 30Q277 34 277 43Q277 85 303 119Q279 128 256 128ZM359 162Q369 166 382 169L410 205Q377 229 337.5 242.5Q298 256 256.0 256.0Q214 256 174.5 242.5Q135 229 102 205L141 154Q192 192 256 192Q313 192 359 162ZM427 107H384V21H341L405 -43L469 21H427Z" />
      </g>
    </svg>