<svg xmlns="http://www.w3.org/2000/svg" viewBox="26 -64 460 469">
      <g transform="scale(1 -1) translate(0 -341)">
        <path d="M256 21 179 124Q213 149 256.0 149.0Q299 149 333 124ZM102 226 141 175Q192 213 256.0 213.0Q320 213 371 175L410 226Q377 251 337.5 264.0Q298 277 256.0 277.0Q214 277 174.5 264.0Q135 251 102 226ZM256 405Q192 405 133.5 385.0Q75 365 26 329L64 277Q105 308 154.0 324.5Q203 341 256.0 341.0Q309 341 358.0 324.5Q407 308 448 277L486 329Q437 365 378.5 385.0Q320 405 256 405ZM149 -64H192V-21H149ZM320 -64H363V-21H320ZM235 -64H277V-21H235Z" />
      </g>
    </svg>