<svg xmlns="http://www.w3.org/2000/svg" viewBox="26 -43 465 427">
      <g transform="scale(1 -1) translate(0 -341)">
        <path d="M256 320Q203 320 154.0 303.5Q105 287 64 256L26 307Q75 344 133.5 364.0Q192 384 256.0 384.0Q320 384 378.5 364.0Q437 344 486 307L448 256Q407 287 358.0 303.5Q309 320 256 320ZM256 128Q213 128 179 102L256 0L283 36Q277 56 277 75Q277 99 287 124Q270 128 256 128ZM325 179Q357 207 399 212Q334 256 256 256Q214 256 174.5 242.5Q135 229 102 205L141 154Q192 192 256 192Q292 192 325 179ZM405 21Q383 21 367.5 37.0Q352 53 352 75Q352 87 358 99L334 122Q320 100 320 75Q320 39 345.0 14.0Q370 -11 405 -11V-43L453 5L405 53ZM405 160V192L357 144L405 96V128Q427 128 443.0 112.5Q459 97 459 75Q459 62 453 51L476 28Q491 49 491 75Q491 110 466.0 135.0Q441 160 405 160Z" />
      </g>
    </svg>