<svg xmlns="http://www.w3.org/2000/svg" viewBox="26 0 443 384">
      <g transform="scale(1 -1) translate(0 -384)">
        <path d="M432 341H384V293Q323 320 256 320Q203 320 154.0 303.5Q105 287 64 256L26 307Q75 344 133.5 364.0Q192 384 256 384Q349 384 432 341ZM179 102 256 0 333 102Q299 128 256.0 128.0Q213 128 179 102ZM102 205 141 154Q192 192 256.0 192.0Q320 192 371 154L384 171V221Q325 256 256 256Q214 256 174.5 242.5Q135 229 102 205ZM427 85H469V128H427ZM427 299V171H469V299Z" />
      </g>
    </svg>