<svg xmlns="http://www.w3.org/2000/svg" viewBox="8 -21 496 405">
      <g transform="scale(1 -1) translate(0 -363)">
        <path d="M256 171Q278 171 303 164V134Q291 124 284.0 110.0Q277 96 277 81V16L256 -11L179 85Q68 224 8 299Q61 340 125.0 362.0Q189 384 256.0 384.0Q323 384 387.0 362.0Q451 340 504 299L459 241Q438 253 414 255L442 289Q355 341 255.5 341.0Q156 341 70 289L179 154Q216 171 256 171ZM465 107H373V160Q373 172 382.5 180.0Q392 188 405.5 188.0Q419 188 428.0 180.0Q437 172 437 160V149H465V160Q465 182 446.5 197.5Q428 213 405.0 213.0Q382 213 364.0 197.5Q346 182 346 160V107Q336 107 328.0 99.0Q320 91 320 81V6Q320 -5 328.0 -13.0Q336 -21 346 -21H463Q474 -21 482.5 -13.5Q491 -6 491 4V79Q491 90 483.0 98.5Q475 107 465 107Z" />
      </g>
    </svg>