<svg xmlns="http://www.w3.org/2000/svg" viewBox="21 -43 459 458">
      <g transform="scale(1 -1) translate(0 -372)">
        <path d="M85 384H213V341H85ZM21 299H128V256H21ZM64 43H171V0H64ZM293 222Q317 214 326 191L417 342Q428 359 423.0 378.5Q418 398 401 409Q387 417 370.5 415.5Q354 414 343 403L269 334Q256 322 256 303V220Q275 227 293 222ZM226 186Q231 203 245 213H70Q49 213 35.0 199.0Q21 185 21 165Q21 148 31.0 135.0Q41 122 57 118L153 90Q171 85 186 95L244 129Q231 139 226.0 154.5Q221 170 226 186ZM474 51 425 139Q416 154 398 159L331 176Q331 162 328 155Q323 138 309.0 127.5Q295 117 277 117Q269 117 262 120L256 122V0Q238 0 225.5 -12.5Q213 -25 213 -43H341Q341 -25 328.5 -12.5Q316 0 299 0V91L397 -7Q411 -21 431.0 -21.0Q451 -21 466 -7Q477 5 479.5 21.0Q482 37 474 51ZM268 140Q281 136 292.5 142.5Q304 149 308.0 161.5Q312 174 305.5 186.0Q299 198 286.5 201.5Q274 205 262.0 199.0Q250 193 246.5 180.0Q243 167 249.0 155.5Q255 144 268 140Z" />
      </g>
    </svg>