<svg xmlns="http://www.w3.org/2000/svg" viewBox="100 -21 259 426">
      <g transform="scale(1 -1) translate(0 -384)">
        <path d="M284 199 346 137Q359 150 359 166Q359 177 352 188L346 197L314 230Q320 242 320 256Q320 273 312.0 287.0Q304 301 291 309L320 403Q302 408 288 401Q278 396 271 385L267 375L249 319Q230 317 215.0 304.5Q200 292 195 273L100 243Q108 217 132 214Q144 212 154 215L198 230Q209 205 235 196V43L224 41Q211 38 203 30Q192 19 192 0V-21H320V0L318 11Q315 24 307 32Q296 43 277 43V196ZM224 256Q224 269 233.5 278.5Q243 288 256.0 288.0Q269 288 278.5 278.5Q288 269 288.0 256.0Q288 243 278.5 233.5Q269 224 256.0 224.0Q243 224 233.5 233.5Q224 243 224 256Z" />
      </g>
    </svg>