<svg xmlns="http://www.w3.org/2000/svg" viewBox="57 -21 402 426">
      <g transform="scale(1 -1) translate(0 -384)">
        <path d="M242 199 303 137Q317 150 317 166Q317 177 310 188L303 197L271 230Q277 242 277 256Q277 273 269.5 287.0Q262 301 248 309L277 403Q259 408 245 401Q236 396 229 385L224 375L207 319Q187 317 172.0 304.5Q157 292 152 273L57 243Q65 217 89 214Q101 212 111 215L155 230Q166 205 192 196V43L181 41Q168 38 160 30Q149 19 149 0V-21H277V0L276 11Q273 24 265 32Q254 43 235 43V196ZM181 256Q181 269 190.5 278.5Q200 288 213.5 288.0Q227 288 236.0 278.5Q245 269 245.0 256.0Q245 243 236.0 233.5Q227 224 213.5 224.0Q200 224 190.5 233.5Q181 243 181 256ZM357 -3 299 61 323 85 357 51 434 128 459 98Z" />
      </g>
    </svg>