<svg xmlns="http://www.w3.org/2000/svg" viewBox="78 -21 349 426">
      <g transform="scale(1 -1) translate(0 -384)">
        <path d="M263 199 324 137Q338 150 338 166Q338 177 331 188L324 197L293 230Q299 242 299 256Q299 273 291.0 287.0Q283 301 270 309L299 403Q281 408 267 401Q257 396 250 385L245 375L228 319Q208 317 193.5 304.5Q179 292 173 273L78 243Q87 217 110 214Q122 212 132 215L176 230Q188 205 213 196V43L202 41Q190 38 182 30Q171 19 171 0V-21H299V0L297 11Q294 24 286 32Q275 43 256 43V196ZM203 256Q203 269 212.0 278.5Q221 288 234.5 288.0Q248 288 257.5 278.5Q267 269 267.0 256.0Q267 243 257.5 233.5Q248 224 234.5 224.0Q221 224 212.0 233.5Q203 243 203 256ZM384 192V299H427V171H384ZM384 85V128H427V85Z" />
      </g>
    </svg>