<svg xmlns="http://www.w3.org/2000/svg" viewBox="64 -43 425 406">
      <g transform="scale(1 -1) translate(0 -320)">
        <path d="M463 51V73L486 90Q491 94 489 96L467 132Q467 134 461 134L435 124Q422 132 416 134L412 162Q412 164 410.5 165.0Q409 166 407 166H365Q358 166 358 162L354 134L337 124L311 134Q307 134 305 132L284 96Q284 92 286 90L309 73V51L286 34Q282 30 284 28L305 -9Q307 -11 311 -11L337 0Q345 -7 354 -11L358 -38Q363 -43 365 -43H407Q409 -43 410.5 -41.5Q412 -40 412 -38L416 -11L433 0L459 -9Q463 -9 465 -6L486 30Q488 31 488.0 32.5Q488 34 486 34ZM384 32Q371 32 361.5 41.5Q352 51 352.0 64.0Q352 77 361.5 86.5Q371 96 384.0 96.0Q397 96 406.5 86.5Q416 77 416.0 64.0Q416 51 406.5 41.5Q397 32 384 32ZM171 256H341V213H171ZM363 277H149V21H107V277H64V363H448V277H405V211Q402 211 394.5 212.0Q387 213 384 213Q369 213 363 211ZM241 21H171V64H235Q235 41 241 21ZM171 192H307Q277 173 262 149H171ZM171 128H250Q240 109 237 85H171Z" />
      </g>
    </svg>