<svg xmlns="http://www.w3.org/2000/svg" viewBox="21 -43 459 459">
      <g transform="scale(1 -1) translate(0 -373)">
        <path d="M85 384H213V341H85ZM21 299H128V256H21ZM64 43H171V0H64ZM474 51 425 139Q416 154 398 159L341 173Q340 189 333 202L417 342Q428 360 423.0 379.5Q418 399 401 409Q390 416 376 416Q357 416 343 403L269 334Q256 322 256 303V231Q241 225 230 213H70Q49 213 35.0 199.0Q21 185 21 165Q21 148 31.0 135.0Q41 122 57 118L153 90Q159 89 164 89Q176 89 186 95L235 124Q244 115 256 111V0Q238 0 225.5 -12.5Q213 -25 213 -43H341Q341 -25 328.5 -12.5Q316 0 299 0V91L397 -7Q411 -21 431.5 -21.0Q452 -21 466 -7Q477 5 479.5 21.0Q482 37 474 51ZM165 131 68 159Q64 161 64.0 164.0Q64 167 66.0 169.0Q68 171 70 171H213Q213 164 214 161ZM277 149Q269 149 262.5 155.5Q256 162 256.0 170.5Q256 179 262.5 185.5Q269 192 277.5 192.0Q286 192 292.5 185.5Q299 179 299.0 170.5Q299 162 292.5 155.5Q286 149 277 149ZM299 232V303L372 372Q375 375 379 373Q381 371 381.5 369.0Q382 367 381 365L301 231ZM436 23Q434 22 431.5 21.5Q429 21 427 23L324 127L329 132L388 117L437 30Q439 27 436 23Z" />
      </g>
    </svg>