<svg xmlns="http://www.w3.org/2000/svg" viewBox="43 -21 426 448">
      <g transform="scale(1 -1) translate(0 -406)">
        <path d="M277 320Q277 329 280 339Q285 356 294 367L256 397L218 365Q227 355 232 339Q235 329 235 320Q188 317 148 300Q116 286 88 263Q69 247 54 229L43 213L192 64L197 72Q203 81 211 88Q222 98 235 102V58Q225 53 219.0 43.0Q213 33 213 21Q213 4 225.5 -8.5Q238 -21 256.0 -21.0Q274 -21 286.5 -8.5Q299 4 299 21Q299 33 293.0 43.0Q287 53 277 58V102Q290 98 301 88Q309 81 315 72L320 64L469 213L458 229Q443 247 424 263Q396 285 364 299Q324 316 277 320ZM235 147Q207 140 190 126L100 215Q155 270 235 275ZM322 126Q298 142 277 147V275Q324 271 361 252Q390 237 412 215ZM384 420 369 380Q358 385 342.0 385.0Q326 385 314 380L299 420Q318 427 341.5 427.0Q365 427 384 420ZM448 320H405V328Q403 337 400 346Q396 357 388 365L420 393Q438 374 445 346Q448 332 448 320ZM90 393 122 365Q112 354 109 336Q107 327 107 320H64Q64 332 67 346Q74 374 90 393ZM213 420 198 380Q187 385 171.5 385.0Q156 385 143 380L128 420Q147 427 170.5 427.0Q194 427 213 420Z" />
      </g>
    </svg>