<svg xmlns="http://www.w3.org/2000/svg" viewBox="43 -21 426 426">
      <g transform="scale(1 -1) translate(0 -384)">
        <path d="M73 192Q73 230 89 267L176 27Q130 50 101.5 94.0Q73 138 73 192ZM380 201Q380 192 376 179Q374 170 368 151L347 81L281 277L302 279Q307 280 308.5 284.0Q310 288 308.0 291.5Q306 295 301 295L284 293Q264 292 252 292L204 295Q199 295 197.0 291.5Q195 288 196.5 284.0Q198 280 203 279L222 277L251 200L211 80L144 277L165 279Q170 280 171.5 284.0Q173 288 170.5 291.5Q168 295 164 295L146 293Q127 292 115 292H103Q128 331 168.5 353.0Q209 375 256 375Q291 375 323.0 362.5Q355 350 380 327H377Q364 327 355.0 317.5Q346 308 346 295Q346 285 351 275Q354 268 362 255L364 252Q380 226 380 201ZM259 176 316 22 317 19Q288 9 256 9Q229 9 204 16ZM417 280Q439 239 439 192Q439 142 414.0 100.0Q389 58 348 34L404 195Q418 230 418 261ZM256 405Q298 405 337.5 389.0Q377 373 407.0 343.0Q437 313 453.0 273.5Q469 234 469.0 192.0Q469 150 453.0 110.5Q437 71 407.0 41.0Q377 11 337.5 -5.0Q298 -21 256.0 -21.0Q214 -21 174.5 -5.0Q135 11 105.0 41.0Q75 71 59.0 110.5Q43 150 43.0 192.0Q43 234 59.0 273.5Q75 313 105.0 343.0Q135 373 174.5 389.0Q214 405 256 405ZM256 -12Q311 -12 358.0 15.5Q405 43 432.5 90.0Q460 137 460.0 192.0Q460 247 432.5 294.0Q405 341 358.0 368.5Q311 396 256.0 396.0Q201 396 154.0 368.5Q107 341 79.5 294.0Q52 247 52.0 192.0Q52 137 79.5 90.0Q107 43 154.0 15.5Q201 -12 256 -12Z" />
      </g>
    </svg>