<svg xmlns="http://www.w3.org/2000/svg" viewBox="21 -21 470 426">
      <g transform="scale(1 -1) translate(0 -384)">
        <path d="M213 316Q213 346 195.5 371.0Q178 396 149 405V326H85V405Q57 396 39.0 371.0Q21 346 21.0 315.5Q21 285 39.0 260.5Q57 236 85 226V-9Q85 -21 96 -21H139Q143 -21 146.0 -18.0Q149 -15 149 -11V224Q178 234 195.5 259.0Q213 284 213 316ZM341 277Q341 277 341 277Q300 276 266.0 256.0Q232 236 212.0 202.0Q192 168 192.0 127.5Q192 87 212.0 53.0Q232 19 266.0 -1.0Q300 -21 341.0 -21.0Q382 -21 416.5 -1.0Q451 19 471.0 53.0Q491 87 491.0 128.0Q491 169 471.0 203.0Q451 237 416.5 257.0Q382 277 341 277ZM341 21Q312 21 287.5 35.5Q263 50 249.0 74.5Q235 99 235.0 128.0Q235 157 249.0 181.5Q263 206 287.5 220.5Q312 235 341.5 235.0Q371 235 395.5 220.5Q420 206 434.0 181.5Q448 157 448.0 128.0Q448 99 434.0 74.5Q420 50 395.5 35.5Q371 21 341 21ZM320 213V107L397 60L414 85L352 122V213Z" />
      </g>
    </svg>