<svg xmlns="http://www.w3.org/2000/svg" viewBox="21 -21 470 446">
      <g transform="scale(1 -1) translate(0 -404)">
        <path d="M341 277Q304 276 271 258Q277 279 277 299Q277 346 246.5 381.5Q216 417 171 425V320H128V425Q82 417 51.5 381.5Q21 346 21 299Q21 264 38.5 234.5Q56 205 85 188V0Q85 -9 91.5 -15.0Q98 -21 107 -21H192Q201 -21 207.0 -15.0Q213 -9 213 0V51Q233 18 267.0 -1.5Q301 -21 341.5 -21.0Q382 -21 416.5 -1.0Q451 19 471.0 53.0Q491 87 491.0 128.0Q491 169 471.0 203.0Q451 237 416.5 257.0Q382 277 341 277ZM171 212V21H128V212L107 225Q87 236 75.5 256.0Q64 276 64 299Q64 331 85 355V277H213V355Q235 331 235 299Q235 276 223.5 256.0Q212 236 192 225ZM341 21Q312 21 287.5 35.5Q263 50 249.0 74.5Q235 99 235.0 128.0Q235 157 249.0 181.5Q263 206 287.5 220.5Q312 235 341.5 235.0Q371 235 395.5 220.5Q420 206 434.0 181.5Q448 157 448.0 128.0Q448 99 434.0 74.5Q420 50 395.5 35.5Q371 21 341 21ZM352 122 414 85 397 60 320 107V213H352Z" />
      </g>
    </svg>