<svg xmlns="http://www.w3.org/2000/svg" viewBox="43 -21 426 446">
      <g transform="scale(1 -1) translate(0 -404)">
        <path d="M192 425V320H149V425Q104 417 73.5 381.5Q43 346 43 299Q43 264 60.0 234.5Q77 205 107 188V0Q107 -9 113.0 -15.0Q119 -21 128 -21H213Q222 -21 228.5 -15.0Q235 -9 235 0V188Q264 205 281.5 234.5Q299 264 299 299Q299 346 268.5 381.5Q238 417 192 425ZM213 225 192 212V21H149V212L128 225Q108 236 96.5 256.0Q85 276 85 299Q85 331 107 355V277H235V355Q256 331 256 299Q256 276 244.5 256.0Q233 236 213 225ZM447 65Q447 70 447.0 74.5Q447 79 447 84L467 100Q471 102 469 106L449 139Q447 143 443 141L418 132Q410 138 402 141L398 167Q397 171 393 171H354Q349 171 349 167L345 141Q337 138 328 132L304 141Q302 142 300.0 141.5Q298 141 298 139L278 106Q276 102 279 100L300 84L299 75L300 65L279 49Q276 47 278 43L298 10Q299 7 304 8L328 18Q336 12 345 8L349 -17Q349 -21 354 -21H393Q397 -21 398 -17L402 8Q410 12 418 18L443 8Q447 7 449 10L469 43Q471 47 467 49ZM373 43Q360 43 350.5 52.0Q341 61 341.0 74.5Q341 88 350.5 97.5Q360 107 373.5 107.0Q387 107 396.0 97.5Q405 88 405.0 74.5Q405 61 396.0 52.0Q387 43 373 43Z" />
      </g>
    </svg>