<svg xmlns="http://www.w3.org/2000/svg" viewBox="21 -43 467 469">
      <g transform="scale(1 -1) translate(0 -383)">
        <path d="M482 43 289 237Q304 275 296.0 315.5Q288 356 258 386Q221 422 170.0 426.0Q119 430 78 400L160 318L130 288L48 369Q18 328 21.5 277.0Q25 226 62 190Q91 160 131.0 152.0Q171 144 209 158L403 -36Q409 -43 418.0 -43.0Q427 -43 433 -36L482 13Q489 19 489.0 27.5Q489 36 482 43ZM418 9 217 211Q197 196 174.5 193.0Q152 190 130.0 196.5Q108 203 92.5 219.0Q77 235 70.0 254.0Q63 273 64 293L130 227L220 318L154 384Q197 386 228 356Q245 339 251.5 316.5Q258 294 254.0 271.5Q250 249 236 229L437 28Z" />
      </g>
    </svg>