<svg xmlns="http://www.w3.org/2000/svg" viewBox="43 -21 448 446">
      <g transform="scale(1 -1) translate(0 -404)">
        <path d="M192 425V320H149V425Q104 417 73.5 381.5Q43 346 43 299Q43 264 60.0 234.5Q77 205 107 188V0Q107 -9 113.0 -15.0Q119 -21 128 -21H213Q222 -21 228.5 -15.0Q235 -9 235 0V188Q264 205 281.5 234.5Q299 264 299 299Q299 346 268.5 381.5Q238 417 192 425ZM213 225 192 212V21H149V212L128 225Q108 236 96.5 256.0Q85 276 85 299Q85 331 107 355V277H235V355Q256 331 256 299Q256 276 244.5 256.0Q233 236 213 225ZM461 171 491 141 351 0 277 75 307 105 351 60Z" />
      </g>
    </svg>