<svg xmlns="http://www.w3.org/2000/svg" viewBox="21 -21 470 426">
      <g transform="scale(1 -1) translate(0 -384)">
        <path d="M485 212Q491 203 491.0 192.0Q491 181 485 172L386 0Q380 -10 370.0 -15.5Q360 -21 349 -21H163Q152 -21 142.0 -15.5Q132 -10 126 0L27 172Q21 181 21.0 192.0Q21 203 27 212L126 384Q132 394 142.0 399.5Q152 405 163 405H349Q360 405 370.0 399.5Q380 394 386 384ZM256 192V194L201 297L197 299H163L160 297V292L213 192L160 92V87L163 85H197L201 87L256 190V192L257 190L311 87L315 85H349L352 87V92L299 192L352 292V297L349 299H315L311 297L257 194Z" />
      </g>
    </svg>