<svg xmlns="http://www.w3.org/2000/svg" viewBox="64 -21 405 405">
      <g transform="scale(1 -1) translate(0 -363)">
        <path d="M384 149Q419 149 444.0 124.0Q469 99 469.0 64.0Q469 29 444.0 4.0Q419 -21 384.0 -21.0Q349 -21 324.0 4.0Q299 29 299 64L301 82Q299 108 289 117Q283 123 272 125Q240 107 202.5 107.0Q165 107 133.0 125.5Q101 144 82.5 176.0Q64 208 64.0 245.5Q64 283 82.5 315.0Q101 347 133.0 365.5Q165 384 202.5 384.0Q240 384 272.0 365.5Q304 347 322.5 315.0Q341 283 341.0 245.5Q341 208 323 176Q325 165 331 159Q340 149 366 147ZM160 235Q173 235 182.5 225.5Q192 216 192.0 202.5Q192 189 182.5 180.0Q173 171 160.0 171.0Q147 171 137.5 180.0Q128 189 128.0 202.5Q128 216 137.5 225.5Q147 235 160 235ZM203 341Q163 341 135.0 313.0Q107 285 107.0 245.0Q107 205 135.0 177.0Q163 149 203.0 149.0Q243 149 271.0 177.0Q299 205 299.0 245.0Q299 285 271.0 313.0Q243 341 203 341Z" />
      </g>
    </svg>