<svg xmlns="http://www.w3.org/2000/svg" viewBox="43 -21 426 426">
      <g transform="scale(1 -1) translate(0 -384)">
        <path d="M256 405Q298 405 337.5 389.0Q377 373 407.0 343.0Q437 313 453.0 273.5Q469 234 469.0 192.0Q469 150 453.0 110.5Q437 71 407.0 41.0Q377 11 337.5 -5.0Q298 -21 256.0 -21.0Q214 -21 174.5 -5.0Q135 11 105.0 41.0Q75 71 59.0 110.5Q43 150 43.0 192.0Q43 234 59.0 273.5Q75 313 105.0 343.0Q135 373 174.5 389.0Q214 405 256 405ZM256 363Q210 363 170.5 340.0Q131 317 108.0 277.5Q85 238 85.0 192.0Q85 146 108.0 106.5Q131 67 170.5 44.0Q210 21 256 21Q221 21 196.0 46.0Q171 71 171.0 106.5Q171 142 196.0 167.0Q221 192 256.0 192.0Q291 192 316.0 217.0Q341 242 341.0 277.5Q341 313 316.0 338.0Q291 363 256 363ZM256 309Q269 309 278.5 300.0Q288 291 288.0 277.5Q288 264 278.5 254.5Q269 245 256.0 245.0Q243 245 233.5 254.5Q224 264 224.0 277.5Q224 291 233.5 300.0Q243 309 256 309ZM256 139Q243 139 233.5 129.5Q224 120 224.0 106.5Q224 93 233.5 84.0Q243 75 256.0 75.0Q269 75 278.5 84.0Q288 93 288.0 106.5Q288 120 278.5 129.5Q269 139 256 139Z" />
      </g>
    </svg>