<svg xmlns="http://www.w3.org/2000/svg" viewBox="43 43 426 298">
      <g transform="scale(1 -1) translate(0 -384)">
        <path d="M469 171V277L363 341L256 277L149 341L43 277V171L256 43ZM192 213H149V171H128V213H85V235H128V277H149V235H192ZM320 171Q311 171 305.0 177.0Q299 183 299.0 192.0Q299 201 305.0 207.0Q311 213 320.0 213.0Q329 213 335.0 207.0Q341 201 341.0 192.0Q341 183 335.0 177.0Q329 171 320 171ZM384 213Q375 213 369.0 219.5Q363 226 363.0 234.5Q363 243 369.0 249.5Q375 256 384.0 256.0Q393 256 399.0 249.5Q405 243 405.0 234.5Q405 226 399.0 219.5Q393 213 384 213Z" />
      </g>
    </svg>