<svg xmlns="http://www.w3.org/2000/svg" viewBox="47 -21 416 426">
      <g transform="scale(1 -1) translate(0 -384)">
        <path d="M213 128 320 192 213 256ZM415 171 460 136Q467 131 462 122L419 48Q415 41 406 44L353 65Q332 50 317 44L309 -12Q307 -21 299 -21H213Q205 -21 203 -12L195 44Q177 52 159 65L106 44Q97 41 93 48L50 122Q45 131 52 136L97 171Q96 176 96.0 192.0Q96 208 97 213L52 248Q45 253 50 262L93 336Q97 343 106 340L159 319Q180 334 195 340L203 396Q205 405 213 405H299Q307 405 309 396L317 340Q335 332 353 319L406 340Q415 343 419 336L462 262Q467 253 460 248L415 213Q416 208 416.0 192.0Q416 176 415 171Z" />
      </g>
    </svg>