<svg xmlns="http://www.w3.org/2000/svg" viewBox="43 -21 426 448">
      <g transform="scale(1 -1) translate(0 -406)">
        <path d="M469 131V-21H299V107H213V-21H43V131Q43 139 47.0 146.5Q51 154 59 159L185 230Q192 235 201 235H267V256H299V235H311Q320 235 327 230L453 159Q461 154 465.0 146.5Q469 139 469 131ZM168 315H201Q222 315 239.5 304.5Q257 294 267 277H299Q292 306 269.0 325.5Q246 345 215 345V377Q231 377 243.0 388.5Q255 400 255 416V427H168V395Q151 395 139.5 384.0Q128 373 128.0 357.0Q128 341 140.0 328.0Q152 315 168 315Z" />
      </g>
    </svg>