<svg xmlns="http://www.w3.org/2000/svg" viewBox="43 -21 426 426">
      <g transform="scale(1 -1) translate(0 -384)">
        <path d="M348 222Q315 222 287.0 206.0Q259 190 242.5 162.0Q226 134 226.0 101.0Q226 68 242.5 40.0Q259 12 287.0 -4.5Q315 -21 348.0 -21.0Q381 -21 409.0 -4.5Q437 12 453.0 40.0Q469 68 469.0 101.0Q469 134 453.0 162.0Q437 190 409.0 206.0Q381 222 348 222ZM384 41H281L337 128H284L307 166H409L355 79H409ZM348 364V405Q265 405 194 364Q125 323 84 254Q43 183 43 100H84Q84 172 119.5 232.5Q155 293 215.5 328.5Q276 364 348 364ZM348 283V324Q287 324 235.5 294.0Q184 264 154.0 212.5Q124 161 124 100H165Q165 150 189.5 192.0Q214 234 256.0 258.5Q298 283 348 283Z" />
      </g>
    </svg>