<svg xmlns="http://www.w3.org/2000/svg" viewBox="34 85 446 214">
      <g transform="scale(1 -1) translate(0 -384)">
        <path d="M241 239Q241 243 242 248Q243 259 248 269Q255 282 266 289Q280 299 301 299H480L479 289Q477 278 473 269Q466 256 455 248Q441 239 420 239ZM241 162Q241 167 242 171Q243 183 248 192Q255 205 266 213Q280 222 301 222H391L390 213Q388 201 383 192Q377 179 365 171Q351 162 331 162ZM241 85Q241 90 242 95Q243 106 248 115Q255 128 266 136Q280 145 301 145H331L330 136Q328 125 323 115Q317 102 305 95Q291 85 271 85ZM223 132V85H34L156 252H51V299H249L127 132Z" />
      </g>
    </svg>