<svg xmlns="http://www.w3.org/2000/svg" viewBox="64 -21 384 405">
      <g transform="scale(1 -1) translate(0 -363)">
        <path d="M395 40Q415 59 423 96Q427 117 427 149Q427 185 402.0 210.0Q377 235 341 235Q319 235 299 223V320Q299 347 280.0 365.5Q261 384 235 384Q211 384 192 367Q174 384 149.5 384.0Q125 384 107 367Q88 384 64 384V341Q73 341 79.0 335.0Q85 329 85 320V107H128V320Q128 329 134.0 335.0Q140 341 149.0 341.0Q158 341 164.5 335.0Q171 329 171 320V107H213V320Q213 329 219.5 335.0Q226 341 235.0 341.0Q244 341 250.0 335.0Q256 329 256 320V149Q256 117 260 96Q267 59 288 40Q262 26 235 21V-21Q265 -21 341 19Q417 -21 448 -21V21Q420 26 395 40ZM341 192Q359 192 371.5 179.5Q384 167 384 149Q384 103 374.5 83.5Q365 64 341.5 64.0Q318 64 308.5 83.5Q299 103 299 149Q299 167 311.5 179.5Q324 192 341 192Z" />
      </g>
    </svg>