<svg xmlns="http://www.w3.org/2000/svg" viewBox="43 21 426 342">
      <g transform="scale(1 -1) translate(0 -384)">
        <path d="M256 363Q198 363 149.0 340.0Q100 317 71.5 277.5Q43 238 43 192Q43 158 66.0 133.5Q89 109 123 107H128Q163 107 188.0 132.0Q213 157 213.0 192.0Q213 227 188.0 252.0Q163 277 128 277H123Q150 303 184.5 316.0Q219 329 256 329Q313 329 363 299L389 325Q328 364 256 363ZM128 235Q146 235 158.5 222.5Q171 210 171.0 192.0Q171 174 158.0 161.5Q145 149 128.0 149.0Q111 149 99.0 160.0Q87 171 85 188V196Q87 213 99.0 224.0Q111 235 128 235ZM389 277H384Q349 277 324.0 252.0Q299 227 299.0 192.0Q299 157 324.0 132.0Q349 107 384 107H389Q362 81 327.5 68.0Q293 55 256 55Q199 55 149 85L123 59Q183 21 256 21Q314 21 363.0 44.0Q412 67 440.5 106.5Q469 146 469 192Q469 226 446.0 250.5Q423 275 389 277ZM384 149Q366 149 353.5 161.5Q341 174 341.0 192.0Q341 210 354.0 222.5Q367 235 384.0 235.0Q401 235 413.0 224.0Q425 213 427 196V188Q425 171 413.0 160.0Q401 149 384 149Z" />
      </g>
    </svg>