<svg xmlns="http://www.w3.org/2000/svg" viewBox="42 -21 426 426">
      <g transform="scale(1 -1) translate(0 -384)">
        <path d="M427 85Q427 59 408.0 40.0Q389 21 363.0 22.0Q337 23 318.5 41.0Q300 59 299 85Q304 136 320 186Q337 241 341 299Q341 327 326.5 351.5Q312 376 287.5 390.5Q263 405 234.5 405.0Q206 405 182.0 390.5Q158 376 143.5 351.5Q129 327 128 299Q133 252 149 203L154 188Q120 198 88.5 182.0Q57 166 46.5 132.5Q36 99 52.0 67.5Q68 36 102.0 25.0Q136 14 167.5 30.5Q199 47 209 81Q213 93 213 107Q208 166 190 215Q176 257 171 299Q172 325 190.5 343.0Q209 361 235 363Q261 361 279.0 343.0Q297 325 299 299Q294 248 277 198Q260 143 256 85Q257 57 271.5 32.5Q286 8 310.0 -6.5Q334 -21 363.0 -21.0Q392 -21 416.5 -7.0Q441 7 455.0 31.5Q469 56 469 85ZM128 64Q110 64 97.5 76.5Q85 89 85.0 106.5Q85 124 97.5 136.5Q110 149 128.0 149.0Q146 149 158.5 136.5Q171 124 171.0 106.5Q171 89 158.5 76.5Q146 64 128 64Z" />
      </g>
    </svg>