<svg xmlns="http://www.w3.org/2000/svg" viewBox="106 -21 299 405">
      <g transform="scale(1 -1) translate(0 -363)">
        <path d="M333 256Q366 276 385.5 310.5Q405 345 405 384H363Q363 355 348.5 330.5Q334 306 309.5 291.5Q285 277 256.0 277.0Q227 277 202.5 291.5Q178 306 163.5 330.5Q149 355 149 384H107Q107 345 126.5 310.5Q146 276 179 256Q145 235 125.5 200.0Q106 165 106.5 125.5Q107 86 128.0 51.0Q149 16 183.5 -3.0Q218 -22 258.0 -21.5Q298 -21 332.5 0.0Q367 21 386.5 55.5Q406 90 405.5 130.0Q405 170 384 204Q365 237 333 256ZM256 21Q227 21 202.5 35.5Q178 50 163.5 74.5Q149 99 149 128Q149 149 157.5 168.5Q166 188 181.0 203.0Q196 218 215.5 226.5Q235 235 256 235Q285 235 309.5 220.5Q334 206 348.5 181.5Q363 157 363.0 128.0Q363 99 348.5 74.5Q334 50 309.5 35.5Q285 21 256 21Z" />
      </g>
    </svg>