<svg xmlns="http://www.w3.org/2000/svg" viewBox="43 -21 426 426">
      <g transform="scale(1 -1) translate(0 -384)">
        <path d="M341 405Q306 405 277 388Q267 382 256 372Q245 382 235 388Q206 405 171.0 405.0Q136 405 106.5 388.0Q77 371 60.0 341.5Q43 312 43 277Q43 252 52.5 228.5Q62 205 80.0 187.0Q98 169 121.5 159.0Q145 149 171 149V192Q135 192 110.0 217.0Q85 242 85.0 277.5Q85 313 110.0 338.0Q135 363 170.0 363.0Q205 363 229 339L235 334V-21H277V334L283 339Q308 364 343.5 363.0Q379 362 403.5 336.0Q428 310 427.0 275.0Q426 240 400.5 216.0Q375 192 341 192V149Q367 149 390.5 159.0Q414 169 432.0 187.0Q450 205 459.5 228.5Q469 252 469 277Q469 312 452.0 341.5Q435 371 405.5 388.0Q376 405 341 405Z" />
      </g>
    </svg>