<svg xmlns="http://www.w3.org/2000/svg" viewBox="64 -36 393 420">
      <g transform="scale(1 -1) translate(0 -348)">
        <path d="M378 122 348 92 375 64H341Q324 64 311.5 76.5Q299 89 299 107V320Q299 347 280.0 365.5Q261 384 235 384Q211 384 192 367Q174 384 149.5 384.0Q125 384 107 367Q88 384 64 384V341Q73 341 79.0 335.0Q85 329 85 320V107H128V320Q128 329 134.0 335.0Q140 341 149.0 341.0Q158 341 164.5 335.0Q171 329 171 320V107H213V320Q213 329 219.5 335.0Q226 341 235.0 341.0Q244 341 250.0 335.0Q256 329 256 320V107Q256 71 281.0 46.0Q306 21 341 21H375L348 -6L378 -36L457 43Z" />
      </g>
    </svg>