<svg xmlns="http://www.w3.org/2000/svg" viewBox="85 0 342 384">
      <g transform="scale(1 -1) translate(0 -384)">
        <path d="M427 107V64H277V109Q309 114 332.5 134.5Q356 155 366.5 184.5Q377 214 371.5 245.5Q366 277 345.5 300.5Q325 324 295.5 334.5Q266 345 234.5 339.5Q203 334 179.5 313.5Q156 293 145.5 263.5Q135 234 141 203Q147 167 173.0 141.0Q199 115 235 109V64H85V107H148Q123 129 109.5 159.5Q96 190 96 224Q96 267 117.5 304.0Q139 341 176.0 362.5Q213 384 256.0 384.0Q299 384 336.0 362.5Q373 341 394.5 304.0Q416 267 416 224Q416 190 402.5 159.5Q389 129 364 107ZM427 43H85V0H427Z" />
      </g>
    </svg>